<!-- by TradingView --><svg width="56" height="56" viewBox="0 0 56 56" xmlns="http://www.w3.org/2000/svg"><path fill="#F0F3FA" d="M0 0h56v56H0z"/><path d="M9 26v6.23c0 .42.28.77.63.77H10v-2.47L12.36 33h1.18v-.45l-2.34-2.32L13.67 28h-1.49L10 29.9v-3.13c0-.42-.28-.77-.63-.77H9Zm8.19 2.5c-.06-.17-.33-.5-.97-.5-.56 0-.96.27-1.23.61-.05-.35-.3-.61-.62-.61H14v4.14c0 .4.28.73.63.73H15v-3.13c.13-.34.4-.77.85-.77h.1c.68 0 1.24 0 1.24-.47Zm1.81-2a.5.5 0 1 1-1 0 .5.5 0 0 1 1 0Zm-1 5.75V28h.37c.35 0 .63.34.63.75V33h-.37c-.35 0-.63-.34-.63-.75ZM30.5 27a.5.5 0 1 0 0-1 .5.5 0 0 0 0 1Zm-.5 1v4.25c0 .41.28.75.63.75H31v-4.25c0-.41-.28-.75-.63-.75H30Zm12-2v6.23c0 .42.28.77.63.77H43v-6.23c0-.42-.28-.77-.63-.77H42Zm-17 0v6.23c0 .42.28.77.63.77H26v-3.3c.2-.39.55-.75 1.05-.75.7 0 .93.67.95 1v2.3c0 .41.27.75.65.75H29v-3.05c0-.48-.27-1.95-1.83-1.95-.57 0-.94.23-1.17.53v-1.76c0-.42-.28-.77-.63-.77H25Zm7 2 1.41 4.16c.1.28.44.84 1.08.84.65 0 1.02-.56 1.12-.84L37 28h-.8a.95.95 0 0 0-.59.71l-.79 2.73a.25.25 0 0 1-.23.19c-.1 0-.2-.07-.24-.18l-.82-2.74c-.05-.23-.26-.71-.7-.71H32Zm5.46 1v-.2c0-.2.1-.38.27-.47.32-.15.83-.33 1.36-.33.9 0 1.91.43 1.91 1.52V33h-1v-.4c-.28.23-.69.4-1.25.4-1.32 0-1.72-1-1.75-1.5a1.4 1.4 0 0 1 1.29-1.5H40v-.48c-.04-.17-.17-.52-.66-.52h-1.88ZM40 31h-1.48c-.54 0-.54.27-.52.5.03.21.18.5.95.5.49 0 .83-.22 1.05-.48V31Zm-19.12.94c.17.1.41.17.77.17.92 0 1.23-.12 1.23-.44 0-.31-.31-.55-1.19-.8-.87-.25-1.69-.58-1.69-1.57 0-1 1-1.3 2-1.3.81 0 1.55.4 1.81.6l-.14.31c-.1.2-.34.28-.54.2-.26-.11-.63-.2-1.07-.2-.91 0-1 .23-1 .39s.16.47 1.23.7c1.07.22 1.71.83 1.71 1.57 0 .74-.82 1.43-2.09 1.43-1 0-1.7-.44-1.91-.66l.3-.35c.14-.17.39-.15.58-.05Z" fill="#921B2C"/><path d="M40 37.39v-1.83h-.67v-.2c0-.2.17-.36.37-.36h.3v-1h.4c.13 0 .22.1.22.21V35h.9v.2c0 .2-.17.36-.37.36h-.53v1.46c0 .13.03.37.34.37.25 0 .44-.07.5-.1l-.14.6a.97.97 0 0 1-.41.11c-.58 0-.91-.4-.91-.61Zm-1-2.06V38h-.29c-.26 0-.48-.15-.48-.33v-.1c-.16.21-.44.4-.92.4-1.12 0-1.31-.86-1.31-1.14v-1.77h.25c.27 0 .49.2.49.43v1.34c.01.2.16.58.66.58.43 0 .7-.3.83-.57V35h.29c.26 0 .48.15.48.33Zm-7 2.34V35h.29c.26 0 .48.15.48.33v.1c.16-.21.44-.4.92-.4 1.12 0 1.31.86 1.31 1.14v1.77h-.25c-.27 0-.49-.2-.49-.43v-1.34a.63.63 0 0 0-.66-.58c-.43 0-.7.3-.83.57V38h-.29c-.26 0-.48-.15-.48-.33Zm11.02-.2c-.26 0-.43-.05-.55-.1-.14-.07-.32-.08-.42.02l-.21.21c.15.14.65.4 1.37.4.9 0 1.5-.41 1.5-.86 0-.44-.46-.8-1.23-.94-.77-.14-.89-.32-.89-.42 0-.1.07-.24.72-.24.32 0 .58.06.77.12.14.05.32 0 .4-.11l.1-.19c-.2-.12-.73-.36-1.3-.36-.72 0-1.44.18-1.44.78 0 .6.58.79 1.2.94.64.15.87.3.87.48 0 .2-.23.26-.9.26Z" fill="#F05928"/><path d="M35.25 20.12c-.52.06-.96.24-1.32.54-.21.18-.38.44-.48.8-.12.35-.11.74 0 1.17.12.4.3.75.56 1.07.6.73 1.4 1.19 2.4 1.37.4.07.74.1 1.04.07a6.26 6.26 0 0 0 1.76-.37c1-.38 1.9-.93 2.68-1.64a8 8 0 0 0 2.23-3.25 5.4 5.4 0 0 0 .32-1.86c0-1.08-.19-2.13-.58-3.15a3.6 3.6 0 0 0-1.08-1.52 1.17 1.17 0 0 0-.48-.25c-.2-.05-.36.02-.46.18-.09.16-.14.26-.17.28-.02.03-.03.03-.02 0 .05-.23.12-.37.22-.45.2-.17.5-.14.89.07.4.21.74.57 1.05 1.06a8.88 8.88 0 0 1 .87 6.77 8.2 8.2 0 0 1-1.66 3 8.12 8.12 0 0 1-3.66 2.46 7.4 7.4 0 0 1-4.57.03 1.8 1.8 0 0 1-.43-.21 4.5 4.5 0 0 1-.95-.85 3.75 3.75 0 0 1-.54-3.93c.24-.43.57-.77.99-1.02a2.97 2.97 0 0 1 1.4-.39v.02Z" fill="#F29823"/><path d="m41.82 15.2.05-.18c.01-.02.02-.01.03.01v.34a3.82 3.82 0 0 1-3.82 3.9.49.49 0 0 1-.18-.08l-.57-.37c-.04-.02-.06-.05-.07-.08 0-.02 0-.03.03-.02.13.03.25.05.37.04a4.52 4.52 0 0 0 1.89-.47 4.34 4.34 0 0 0 2.27-3.09Z" fill="#F29823"/><path d="M38.8 20.79a4.13 4.13 0 0 0-1.48-1.5 2.6 2.6 0 0 0-1.64-.32 3.56 3.56 0 0 0-2.4 1.29 4.14 4.14 0 0 0-1 2.5 3.8 3.8 0 0 0 .92 2.73c.28.34.65.64 1.1.92v.03h-.05a5.44 5.44 0 0 1-1.26-.65 4.5 4.5 0 0 1-1.89-3.08 5.8 5.8 0 0 1 0-.94c.02-.47.16-.95.4-1.43.3-.6.74-1.07 1.3-1.42a4.36 4.36 0 0 1 6.05 1.84l-.03.03h-.02Z" fill="#EA6A1A"/></svg>