<!-- by TradingView --><svg width="18" height="18" viewBox="0 0 18 18" xmlns="http://www.w3.org/2000/svg"><path fill="#F0F3FA" d="M0 0h18v18H0z"/><path d="M6.22 4.15c.03.08-.01.16-.11.23a.03.03 0 0 0-.01.03c0 .02 0 .04-.02.04-.07.04-.13.02-.17-.05a.52.52 0 0 1-.08-.2c0-.05-.03-.08-.07-.09-.04 0-.07.01-.1.06v.04c0 .01 0 .03.02.03.03.01.04.03.05.05l-.01.04a.43.43 0 0 0-.07.12c-.01.05 0 .09.04.12.05.03.09.07.11.11.04.06.03.1 0 .13l-.04.02c-.06 0-.1.02-.13.05a.14.14 0 0 1-.1.05h-.01l-.06.05c-.08.07-.16.16-.22.27-.09.03-.12.1-.09.2v.03l-.01.02H5.1l-.05-.1A.05.05 0 0 0 5 5.38h-.19c-.04 0-.06.02-.07.06 0 .07.01.15.05.21.01.02.03.03.05.03.03 0 .05 0 .06-.03l.03-.06c0-.01.02-.02.03-.01.01 0 .02.01.01.03-.02.07-.01.12.03.17.05.04.1.1.14.19.02.02.03.02.05 0a.2.2 0 0 1 .12-.05.67.67 0 0 1 .15 0c.09.02.17.05.24.09.06.03.13.08.21.16.07.06.15.1.22.13.04.02.06.05.05.09a.57.57 0 0 1-.11.24l-.18.17-.18.17a.06.06 0 0 1-.05.03c-.01 0-.03 0-.05-.02a.36.36 0 0 1-.08-.18c-.02-.1-.05-.16-.1-.2a1.3 1.3 0 0 1-.2-.21.16.16 0 0 1-.03-.17l.04-.12c0-.03 0-.06-.03-.08-.02-.02-.04-.02-.07 0H5.1a.1.1 0 0 1-.04-.04.66.66 0 0 0-.13-.13.62.62 0 0 0-.17-.08.25.25 0 0 1-.12-.08c-.06-.07-.11-.17-.17-.32a.65.65 0 0 1-.02-.36c0-.02 0-.03-.02-.04l-.04-.02c.11-.21.22-.38.32-.51a.9.9 0 0 1 .44-.28l.22-.09c.1-.04.2-.06.33-.07a2.76 2.76 0 0 1 .5.04v.05c-.01.03 0 .05.03.06Z" fill="#6DAD49"/><path d="m6.21 4.15.14.06h.2l.3.4c-.01.04-.03.03-.06 0a13.88 13.88 0 0 0-.1-.07v.02l.03.15c0 .02 0 .03.02.03.13.03.17.11.14.24a.43.43 0 0 0-.03.14c-.16.03-.32.02-.48-.02a.78.78 0 0 1-.4-.24.03.03 0 0 0-.04-.01l-.47.13.05-.04h.03l.1-.06c.02-.03.06-.04.12-.05l.03-.02c.04-.03.04-.07.01-.13a.41.41 0 0 0-.1-.11c-.05-.03-.06-.07-.05-.12a.43.43 0 0 1 .07-.12V4.3a.07.07 0 0 0-.04-.05.06.06 0 0 1-.03-.03v-.04c.04-.05.07-.07.11-.06.04 0 .06.04.07.1.02.07.04.14.07.19.05.07.1.09.17.05a.04.04 0 0 0 .02-.04c0-.01 0-.02.02-.03.1-.07.13-.15.1-.23Z" fill="#69DDFB"/><path d="M7.04 4.63v.01l-.01.02H7c-.02-.02-.04-.02-.06-.02l-.02.02v.01c0 .02-.02.02-.04 0l-.04-.06-.3-.4c.18.11.34.25.49.42Z" fill="#535354"/><path d="m6.85 4.61.04.06c.02.02.03.02.05 0v-.01l.01-.02.06.01h.02v-.02l.2.36-.13.07a.06.06 0 0 0-.03.03c-.06.13-.13.14-.2.05l-.02-.02c0-.03 0-.08.03-.14.03-.13-.01-.2-.14-.24-.02 0-.03-.01-.02-.03 0-.04 0-.1-.03-.15v-.02h.02l.08.07c.03.03.05.04.06 0Z" fill="#6DAD49"/><path d="m6.85 5.12.02.02.04.1v.04l-.2.4-.01.01a1.6 1.6 0 0 1-1.18-.1.6.6 0 0 1-.28-.34c.06-.11.14-.2.22-.27l.47-.13h.04c.1.12.23.2.4.25.16.04.32.05.48.02Z" fill="#1990F2"/><path d="m4.38 4.95.04.02.02.04a.65.65 0 0 0 .02.36c.06.15.11.25.17.32.02.04.07.07.12.08.07.03.13.05.17.08l.13.13a.1.1 0 0 0 .04.04h.05c.03-.02.05-.02.07 0 .03.02.03.05.02.08l-.04.12a.16.16 0 0 0 .03.17c.05.07.12.14.21.21.05.04.08.1.1.2.02.08.05.14.08.18l.05.02c.02 0 .04-.01.05-.03l.18-.17c.09-.07.15-.13.18-.17.05-.07.1-.15.11-.24 0-.04 0-.07-.05-.09a.69.69 0 0 1-.22-.13 1.3 1.3 0 0 0-.2-.16.66.66 0 0 0-.26-.08.67.67 0 0 0-.14 0 .2.2 0 0 0-.12.04c-.02.02-.04.02-.05 0a.9.9 0 0 0-.14-.2c-.04-.04-.05-.1-.03-.16v-.03h-.04l-.03.07a.06.06 0 0 1-.06.03.06.06 0 0 1-.05-.03.35.35 0 0 1-.05-.21c0-.04.03-.06.07-.06h.2c.01 0 .03 0 .04.02l.05.1h.04v-.02c.01-.01.02-.03.01-.04-.03-.1 0-.16.09-.19a.6.6 0 0 0 .28.34c.35.18.74.21 1.18.1l.02-.02.19-.39v-.04a.33.33 0 0 0-.04-.1c.07.1.14.08.2-.05l.03-.03.13-.07c.04.1.06.2.06.3-.03 0-.05 0-.06-.02a.33.33 0 0 0-.05-.1c-.02-.02-.04-.02-.06 0a.23.23 0 0 1-.14.1.05.05 0 0 0-.03.01.6.6 0 0 0-.04.09.44.44 0 0 1-.07.12c-.06.07-.1.2-.1.42 0 .07.02.13.06.17.05.05.1.07.18.06h.07l.02.02v.03c-.07.1-.1.2-.11.3a1.66 1.66 0 0 1-.46.38l-.41.1-.02.01-.37.05h-.03a.29.29 0 0 0-.1-.03 1.6 1.6 0 0 1-.65-.26 1.45 1.45 0 0 1-.64-1.1c-.02-.23.02-.46.1-.69Z" fill="#065C8F"/><path d="M7.3 5.3c.04.19.04.38 0 .57-.07.24-.18.45-.34.63 0-.12.04-.22.11-.3v-.04a.03.03 0 0 0-.02-.01c-.02 0-.04-.01-.07 0a.2.2 0 0 1-.17-.07.25.25 0 0 1-.06-.17c0-.21.03-.35.1-.42a.44.44 0 0 0 .06-.12.6.6 0 0 1 .04-.09l.03-.02a.23.23 0 0 0 .14-.09c.02-.02.04-.02.06 0l.06.1c0 .02.02.03.05.03Z" fill="#6DAD49"/><path d="M5.58 7.2v.03c-.33 0-.62.08-.86.25-.26.18-.41.43-.47.74-.06.34-.05.66.03.98.08.28.24.48.49.6.15.07.4.12.76.16l.27.04c.32.05.46.23.43.55-.03.3-.26.47-.7.48a4.74 4.74 0 0 1-1.2-.15l-.02.01-.13.8.01.01c.55.12 1.09.16 1.63.13a1.6 1.6 0 0 0 1.06-.4c.25-.25.38-.6.38-1.05 0-.3-.04-.54-.11-.71a.92.92 0 0 0-.49-.52 3.18 3.18 0 0 0-.83-.18c-.11 0-.2-.02-.23-.03-.23-.04-.35-.17-.37-.4-.01-.19.04-.34.16-.44.11-.09.26-.13.46-.12a10.04 10.04 0 0 1 1.06.1l.18-.74c0-.02 0-.03-.02-.03l-.7-.1a.56.56 0 0 0-.15-.02l-.02-.01.01-.03.27-.07h.08l.7.1c.02 0 .02.02.02.03l-.25 1.05c0 .02 0 .02-.02.02-.38-.07-.74-.1-1.07-.13a.81.81 0 0 0-.4.06c-.12.06-.16.17-.15.35.02.13.09.2.21.22l.58.09c.24.03.44.09.6.16.17.09.31.22.43.39.1.16.17.38.2.66.03.4-.01.74-.13 1.04-.15.35-.4.6-.74.71-.2.07-.36.12-.49.13A5.87 5.87 0 0 1 4 11.81l.18-1.1c0-.02.01-.03.03-.03l.7.15c.28.04.52.05.72.03.32-.02.47-.16.45-.42-.02-.16-.1-.25-.27-.28l-.7-.1a1.53 1.53 0 0 1-.43-.13c-.35-.16-.55-.49-.61-.97-.05-.43-.01-.79.13-1.1a1.26 1.26 0 0 1 1.05-.75l.33.1ZM11.51 8.95l.95-1.8a.06.06 0 0 1 .05-.04h1.4c.02 0 .03.01.02.03L12.7 9.47a.1.1 0 0 0 0 .1L14 11.88v.02l-.02.01H12.5c-.02 0-.03 0-.04-.02l-.93-1.85-.02-.01-.01.01v1.86l-.02.01h-1.3c-.03 0-.04-.01-.04-.03V9.97c0-.01 0-.02-.02-.02H8.97c-.01 0-.02 0-.02.02l.02 1.94v.01H7.63c-.02 0-.03 0-.03-.03V7.16c0-.03.02-.04.04-.04h1.28c.02 0 .03.01.03.03v1.7s.01.02.03.02h1.13c.01 0 .02-.01.02-.03V7.15c0-.02.02-.03.04-.03h1.28c.03 0 .04 0 .04.03a210.63 210.63 0 0 0 .01 1.8Z" fill="#010201"/><path d="M6.21 7.15v.03l.01.01c.05 0 .1.01.14.03h-.78V7.2c.22.01.43 0 .63-.05Z" fill="#F89A3E"/><path d="M5.59 7.22h.77l.7.1c.02 0 .03 0 .03.02l-.18.74c0 .01 0 .02-.02.02-.35-.06-.7-.1-1.04-.12-.2 0-.35.03-.46.12-.12.1-.17.25-.16.45.02.22.14.35.37.4l.23.02c.4.06.69.11.83.18.24.11.4.28.5.52.06.17.1.41.1.71 0 .45-.13.8-.38 1.05-.25.24-.6.37-1.06.4a5.92 5.92 0 0 1-1.64-.14l.13-.8c0-.01.01-.02.03-.02l.14.03c.46.1.81.14 1.05.13.44-.01.67-.17.7-.48.03-.32-.11-.5-.43-.55l-.27-.04c-.36-.04-.61-.1-.76-.16a.85.85 0 0 1-.49-.6 2.3 2.3 0 0 1-.03-.98c.06-.31.21-.56.47-.74.24-.17.53-.26.87-.26Z" fill="#FAE5C3"/><path d="M10.33 7.26h1l.02.01v4.5h-1.03l-.02-.01v-1.9c0-.03-.01-.04-.04-.04a55.55 55.55 0 0 1-1.43.02v1.92l-.02.01H7.78c-.01 0-.02 0-.02-.02V7.28c0-.02.01-.03.03-.03h1c.03 0 .04.01.04.03v1.68c0 .03 0 .04.03.04h1.41c.02 0 .03-.01.03-.03V7.3c0-.02.01-.03.03-.03Z" fill="#EDEDED"/><path d="M12.81 7.58h-.03l-.18-.08c-.01 0-.02-.01-.01-.03a.2.2 0 0 1 .08-.12v-.02l-.01-.01h-.1c-.01 0-.02 0 0-.02 0-.05.05-.07.1-.06a14.35 14.35 0 0 0 .44.03.3.3 0 0 1 .23 0h.01v.02a.25.25 0 0 1-.19 0c-.02 0-.03 0-.03.02l.02.03.01.04c0 .1-.06.14-.17.13l-.02-.02c0-.14-.04-.21-.1-.22-.05 0-.08 0-.1.02v.04l.11.05.02.02c.03.09 0 .15-.08.18Z" fill="#B2B2B4"/><path d="M4.35 11.62c-.03 0-.05-.02-.04-.06l.08-.48c0-.02.01-.04.03-.05a5.87 5.87 0 0 0 .7.1c.23.02.44.02.64-.01.26-.03.44-.16.53-.37.05-.1.07-.2.06-.3a.73.73 0 0 0-.1-.34c-.06-.09-.17-.15-.33-.2a2.89 2.89 0 0 0-.5-.06 2.1 2.1 0 0 1-.66-.17.63.63 0 0 1-.28-.3 1.33 1.33 0 0 1-.14-.4c-.04-.25-.04-.5.01-.74.07-.31.23-.55.49-.7.22-.15.5-.22.85-.24a5.58 5.58 0 0 1 1.24.12v.02l-.07.45-.03.06a.09.09 0 0 1-.07.01 7.38 7.38 0 0 0-.96-.06c-.16 0-.29.02-.37.06a.52.52 0 0 0-.3.4c-.02.15 0 .31.08.48.03.06.08.11.16.15a1.33 1.33 0 0 0 .26.06l.68.11a1 1 0 0 1 .46.2c.1.07.17.14.2.21.12.2.18.49.18.86 0 .18-.04.36-.1.54a.98.98 0 0 1-.32.44c-.14.1-.28.17-.43.22a3 3 0 0 1-.9.1 5.97 5.97 0 0 1-1.05-.11Z" fill="#F89A3E"/><path d="m13.5 7.55.02-.02-.01-.02c-.03-.02-.04-.05-.04-.08a.1.1 0 0 1 .03-.07.12.12 0 0 1 .07-.03c.03 0 .06 0 .08.02l.02.05c0 .03-.01.05-.03.06a.25.25 0 0 0-.09.13.31.31 0 0 1-.03.1.46.46 0 0 1-.07.07l-.06-.01c-.02-.01-.03-.03-.03-.05 0-.07.06-.12.14-.15ZM12.5 7.35h.02c.02 0 .03.02.03.05 0 .02 0 .05-.02.08a.17.17 0 0 1-.05.07c-.02.02-.04.02-.05.02v-.01l.08-.2ZM13.25 7.38l-.05.03a.08.08 0 0 0 0 .12l.03.04c.03.04.08.04.12.01l.04-.03a.08.08 0 0 0 .01-.12l-.04-.04a.08.08 0 0 0-.11-.01ZM13.3 7.9a.36.36 0 0 1 .08-.1h.03v.02c0 .06-.02.1-.06.15h-.09c-.05.05-.1.05-.16 0-.06-.04-.1-.04-.14 0a.03.03 0 0 1-.04 0 .4.4 0 0 1-.14-.1.04.04 0 0 1-.01-.04.21.21 0 0 1 .1-.14h.05c.06.05.1.1.11.14l.02.01.02-.01c0-.04-.02-.08-.08-.14-.03-.03-.04-.05-.02-.07.03-.06.08-.09.12-.08.05 0 .09.03.11.1v.04c0 .02-.02.03-.04.03s-.04 0-.05.02v.01h.14l.02-.03v-.07h.03c.02.04.03.07 0 .12v.02l-.03.1.01.02h.02ZM12.52 7.78c0-.04 0-.07-.02-.1-.01-.03-.01-.05 0-.07a.09.09 0 0 1 .06-.04c.09-.02.16 0 .2.07.01.01.02.02.01.04-.01.06-.04.1-.07.12-.04.02-.09.02-.15 0-.02 0-.03 0-.03-.02ZM12.4 7.9c-.05 0-.09.02-.1.03-.03.01-.05 0-.07 0l.15-.31.02-.02.03.01c.07.1.06.18-.03.25-.02.01-.02.03 0 .04Z" fill="#B2B2B4"/><path d="M11 7.74a.39.39 0 0 0-.06.19 195.17 195.17 0 0 0 0 1.58 15.9 15.9 0 0 0 0 1.3v.3l-.1.09a.32.32 0 0 1-.08-.22 12.95 12.95 0 0 0 0-.87 63.23 63.23 0 0 0 .02-1.81c0-.06-.01-.1-.04-.15l-.07-.17a.33.33 0 0 0 .14-.13l.01-.04.02-.18c0-.01 0-.02.02-.03l.04.01.1.13ZM8.19 7.64c.06.04.08.08.04.13v.01l-.04.43V8.37a.48.48 0 0 0 .03.31v.05l-.03.72c0 .06.02.13.05.23v.04c0 .25 0 .48-.02.67l.01.17a7354.03 7354.03 0 0 0 .01.7.33.33 0 0 0-.02.13c0 .02-.01.03-.03.03l-.05.01.01-.22v-.04l-.01-.02-.02-2.36v-.03a.25.25 0 0 1 0-.1v-.14a.5.5 0 0 1 0-.15v-.03a2.35 2.35 0 0 1 0-.4c0-.09 0-.15-.03-.19a.04.04 0 0 1 0-.04.3.3 0 0 1 .06-.08l.04.01Z" fill="#6F706F"/><path d="M8.14 11.43h.05c.02 0 .03-.02.03-.04 0-.04 0-.08.02-.12v-.04a7354.03 7354.03 0 0 1 0-.67.78.78 0 0 1-.02-.17 18.74 18.74 0 0 0 .02-.71.83.83 0 0 1-.05-.23 7.06 7.06 0 0 1 .03-.77.48.48 0 0 1-.03-.31v-.15l.03-.44.01-.01c.03-.05.02-.1-.04-.13.02 0 .04 0 .07.03l.03.02c.02 0 .04 0 .06.02.07.01.11.03.13.05.02.03.02.09 0 .17v.32l.01.02a20.21 20.21 0 0 1 .02 1.84 3.85 3.85 0 0 0 0 .45c0 .07 0 .12.02.16v.03l-.02.1v.03c.02.04.02.1.02.16V11.27a.4.4 0 0 0 0 .12l.02.1c0 .03-.01.04-.02.05a.06.06 0 0 1-.05.02.35.35 0 0 1-.19-.08l-.02-.01-.13-.04Z" fill="#B2B2B4"/><path d="M11 7.74c.06.04.1.11.1.2v3.2c0 .02-.02.03-.04.04-.02 0-.03 0-.04-.02l-.08-.06a3.99 3.99 0 0 1 0-.55V9.5a38.69 38.69 0 0 0 0-1.58c0-.06.02-.12.06-.2Z" fill="#535354"/><path d="m12.52 8.01-.03-.1.01-.04a.05.05 0 0 1 .05-.01l.1-.01c.02 0 .04 0 .04.02l.03.09c0 .01.01.02.03.02a1.89 1.89 0 0 1 .1 0c.08.05.1.11.05.2a.08.08 0 0 1-.08.04c-.08 0-.12-.05-.12-.13 0-.03-.01-.05-.04-.05h-.1c-.02 0-.04 0-.04-.03Z" fill="#B2B2B4"/><path d="m10.67 7.98.07.17c.03.04.04.1.04.15v.19a63.23 63.23 0 0 1-.02 2.49c0 .08.02.16.07.22a.32.32 0 0 0-.02.17v.08l-.02.02h-.03l-.17-.18a.15.15 0 0 1-.04-.1V7.9l.01-.02h.03l.08.1Z" fill="#535354"/><path d="M12.4 7.9c.04.01.06.05.08.1.01.03 0 .05-.03.07v.02l.01.02h.14l.04.01c.02.02.02.06.02.11v.04h.03c-.01 0-.02 0-.03.02l.01.04h-.02v.03l.11.1.04.02a.1.1 0 0 0 .05 0c.03 0 .05.01.06.04-.05-.01-.07 0-.08.04 0 .06-.02.1-.03.13l-.39.77a.09.09 0 0 0 0 .09l.48.96.05.02c.04 0 .07-.03.08-.07.03.1-.01.16-.15.18a.08.08 0 0 0-.05.03l-.24.28v.02l.02.01a.26.26 0 0 1 .2.02c.02 0 .02.03.02.05-.01.02-.03.03-.05.03l-.21-.02h-.02a.3.3 0 0 0-.14.09 3.23 3.23 0 0 0-.17-.28 18.95 18.95 0 0 0-.59-1.2.71.71 0 0 1 .05-.46c.3-.59.5-.94.56-1.06.04-.09.06-.16.05-.22l.1-.03Z" fill="#9CC740"/><path d="M12.23 7.93c.02 0 .04.01.07 0 .01.06 0 .13-.05.22l-.56 1.06a.71.71 0 0 0-.05.46l.21.43a19.01 19.01 0 0 1 .48.94l.07.1-.06.11-.02.01-.7-1.4a.68.68 0 0 1-.1-.29l.01-.27.02-.05.68-1.32Z" fill="#F3F8C3"/><path d="M12.84 8.43c-.05.02-.1-.01-.16-.1-.02-.01-.02-.03-.02-.04l.03-.02c.06-.02.1-.01.15.02.02.02.04.03.05.02a.17.17 0 0 0 .04-.03c.04-.04.1-.04.18 0 .01.02.02.01.02 0v-.01l-.17-.09v-.01c-.02-.04-.02-.08 0-.1.03-.04.07-.05.11-.04.04 0 .08.02.11.05.02.01.02.03.02.04-.04.16-.1.3-.17.4a.04.04 0 0 1-.05.02.04.04 0 0 1-.03-.03.22.22 0 0 0-.05-.12h-.04a.12.12 0 0 0-.02.04Z" fill="#B2B2B4"/><path d="M12.67 8.33c.07.09.12.12.17.1 0 .01 0 .03.02.04a.1.1 0 0 1-.06 0h-.04a1.6 1.6 0 0 1-.1-.1v-.04h.01Z" fill="#6F706F"/><path d="M12.91 8.52c.04.07.05.13.02.18l-.4.77a.1.1 0 0 0 0 .1l.49.9c-.01.03-.04.05-.08.06-.02 0-.04 0-.04-.02l-.49-.96a.09.09 0 0 1 0-.09l.4-.77a.47.47 0 0 0 .02-.13c0-.04.03-.05.08-.04Z" fill="#F3F8C3"/><path d="M13.03 10.65h.04c.09.07.16.17.22.29l-.01.05-.07.08a.04.04 0 0 1-.04.02h-.03a.4.4 0 0 0-.11 0 .13.13 0 0 0-.09.06h-.03c-.01-.03-.01-.05 0-.07.03-.03.03-.05 0-.07a.54.54 0 0 0-.1-.09.07.07 0 0 1-.04-.06c0-.02 0-.05.02-.08.04-.06.1-.07.15 0h.03c.02 0 .02-.01.02-.03 0-.03.01-.07.04-.1Z" fill="#6F706F"/><path d="M13.3 11.07h.02v.01c.05.05.06.08.04.1-.03.02-.06.01-.1-.04h-.01v-.02l.05-.05ZM13.03 11.5c.07-.1.05-.18-.05-.23.04-.01.06-.04.05-.09 0-.02 0-.04.03-.05a.05.05 0 0 1 .05 0l.12.1.02.06c0 .02-.01.04-.04.05l-.08.05c-.02 0-.02.02-.01.03l.01.04c0 .02 0 .02-.02.03h-.08Z" fill="#535354"/><path d="M12.63 11.46v-.02l.05-.17c.02-.06.05-.09.08-.08.04.01.05.05.03.11l-.06.17c0 .02-.02.02-.03.02l-.07-.03Z" fill="#B2B2B4"/><path d="M13.44 11.24c-.03-.01-.06-.01-.08.01-.02.03 0 .06.02.08.03.02.06.01.08-.01.01-.03 0-.06-.02-.08Z" fill="#535354"/><path d="M12.98 11.27c.1.05.12.13.05.22-.05.02-.09.01-.11 0-.02-.01-.02-.02-.02-.04l.08-.18Z" fill="#B2B2B4"/><path d="M13.46 11.6a.3.3 0 0 1 .04-.19h.04a.2.2 0 0 1 .07.1c.03.08.06.16.1.22v.03h-.02c-.14.03-.3.02-.45 0-.03 0-.04-.02-.02-.04v-.02c.01-.02.03-.02.06-.02.09.03.15.01.17-.05v-.03ZM12.52 11.63a.24.24 0 0 1 .23.02c.03.02.04.04.04.07 0 .03 0 .05-.03.06-.03.02-.06.01-.1-.01a.64.64 0 0 1-.14-.1c-.02-.02-.02-.03 0-.04Z" fill="#535354"/></svg>