<!-- by TradingView --><svg width="18" height="18" viewBox="0 0 18 18" xmlns="http://www.w3.org/2000/svg"><path fill="#F0F3FA" d="M0 0h18v18H0z"/><path d="M15.5 5a.5.5 0 1 0 0-1 .5.5 0 0 0 0 1ZM13.67 6.33a1 1 0 1 0 0-2 1 1 0 0 0 0 2ZM12.17 8.66a1.17 1.17 0 1 0 0-2.33 1.17 1.17 0 0 0 0 2.33ZM8.15 7l.48 1.66-.97 3.33H6.7l-.75-2.53v-.03l-.7-2.38v-.04H6.22l.95 3.62h.01L8.16 7Z" fill="#F9B563"/><path d="m10.9 7.53.14-.51V7H12v.01l-.33 1.13-1.12 3.84V12H9.6v-.02l-.97-3.32L8.15 7 9.1 7l.01.01.96 3.62.83-3.1ZM5 7c.06 0 .14.02.26.05l.7 2.38a.06.06 0 0 1 0 .03c-.27.41-.61.62-1.04.62h-.95V12h-.01V12H3L3 11.99V7h2Zm-1.02.77h-.01V9.3h.95c.09 0 .17-.01.25-.05.08-.04.15-.1.21-.17a.8.8 0 0 0 .14-.25.9.9 0 0 0 .05-.3c0-.2-.07-.4-.19-.54a.6.6 0 0 0-.46-.22h-.94Z" fill="#006C93"/></svg>