<!-- by TradingView --><svg width="18" height="18" viewBox="0 0 18 18" xmlns="http://www.w3.org/2000/svg"><path fill="#F0F3FA" d="M0 0h18v18H0z"/><path d="M7.83 10c.1 0 .17.07.17.16v3.68c0 .1-.08.16-.17.16h-.67a.16.16 0 0 1-.16-.16v-2.68c0-.08-.08-.16-.17-.16H4.17c-.1 0-.17-.06-.17-.15v-.7c0-.08.08-.15.17-.15h3.66Zm6 0c.1 0 .17.07.17.16v.7c0 .08-.08.14-.17.14h-2.66c-.09 0-.17.08-.17.16v2.68c0 .09-.07.16-.16.16h-.67c-.1 0-.17-.07-.17-.16v-3.68c0-.1.08-.16.17-.16h3.66Zm-6-6c.1 0 .17.07.17.16v3.68c0 .1-.08.16-.17.16H4.17C4.07 8 4 7.93 4 7.84v-.7c0-.08.08-.14.17-.14h2.66c.09 0 .17-.08.17-.17V4.16c0-.09.07-.16.16-.16h.67Zm3 0c.1 0 .17.07.17.16v2.67c0 .1.08.17.17.17h2.66c.1 0 .17.06.17.15v.7c0 .08-.08.15-.17.15h-3.66c-.1 0-.17-.07-.17-.16V4.16c0-.1.08-.16.17-.16h.67Z" fill="#A11C33"/></svg>