<!-- by TradingView --><svg width="56" height="56" viewBox="0 0 56 56" xmlns="http://www.w3.org/2000/svg"><path fill="#F0F3FA" d="M0 0h56v56H0z"/><path d="M41.15 20.12c1.62.32 2.06 2.93 2.46 4.3.5 1.7.4 3.23.35 5.2a7.94 7.94 0 0 1-.22 1.68 15.89 15.89 0 0 1-2.68 5.93c-2.28 3-5.7 5.55-9.46 6.35-4.58.97-8.85.26-12.8-2.16-.72-.43-1.5-1.13-2.38-2.1-.34-.37-.51-.72-.53-1.04-.08-1.52 1.34-2.27 2.63-1.77.11.05.21.11.3.2 2.06 1.99 4.5 3.22 7.33 3.68.46.08 1.3.1 2.48.08.89-.02 1.7-.14 2.44-.36 3.1-.92 5.54-2.72 7.32-5.41.8-1.21 1.22-2.6 1.69-4.09a7.52 7.52 0 0 0 .27-3.05.12.12 0 0 0-.08-.06h-.05l-1.76.5a13.23 13.23 0 0 1-2.35.03c-1.9-.54-2.67-1.62-4.28-3.3-.8-.85-1.81-1.04-3.03-.58-1 .38-1.77 1.66-3.13 1.54a.17.17 0 0 1-.15-.14c-.08-.47-.01-.83.2-1.08a11.2 11.2 0 0 1 4.69-3.28c1.35-.48 3.2.93 4.28 1.59.11.07.24.12.36.15 1.46.35 2.44.07 3.78-.73a.25.25 0 0 0 .12-.17c.16-1 1.12-2.13 2.2-1.91ZM14.83 32.2c.96 0 1.75.8 1.75 1.77 0 .98-.79 1.78-1.75 1.78-.97 0-1.76-.8-1.76-1.78s.79-1.77 1.76-1.77ZM26.13 12c2.66 0 4.2.01 4.64.07 1 .12 2.79.58 3.22 1.56.11.26.14.69.08 1.28-.15 1.5-1.95 1.16-2.95.91a9.4 9.4 0 0 0-1.7-.22c-2.07-.1-3.81-.11-5.63.53a13.69 13.69 0 0 0-5.93 4.03 6.3 6.3 0 0 0-1.2 1.94.18.18 0 0 0 0 .11c.01.04.04.07.07.1.64.45 1.4.48 2.21.5 1.68 0 2.95-.82 4.33-1.65a5.18 5.18 0 0 1 3.75-.7.3.3 0 0 1 .14.21.3.3 0 0 1-.01.14c-.3.83-1.55 1.37-2.36 1.74-.24.11-.58.38-1.01.78a2.1 2.1 0 0 0-.65 1.93c.12.91 1.16 1.63 2 1.78.74.13 1.47.08 2.17-.15.16-.05.75-.4 1.77-1.04.6-.37 1.55.34 1.99.8l2.75 2.84a.66.66 0 0 1-.03.94l-.07.07a.57.57 0 0 1-.8-.04l-1.5-1.45a1.06 1.06 0 0 0-.6-.3.13.13 0 0 0-.12.04.14.14 0 0 0-.03.12c.15.6.78 1.11 1.56 1.95a.62.62 0 0 1 0 .84l-.02.03a.57.57 0 0 1-.4.18.56.56 0 0 1-.42-.16l-1.55-1.53a.42.42 0 0 0-.45-.09l-.04.01a.25.25 0 0 0-.07.4l1.6 1.72a.56.56 0 0 1 0 .78l-.14.14a.57.57 0 0 1-.8 0l-1.85-1.87a.25.25 0 0 0-.42.13l-.02.1a.6.6 0 0 0 .16.51l1.44 1.46a.6.6 0 0 1-.04.88l-.05.04a.67.67 0 0 1-.92-.01c-2.23-2.18-3.77-3.7-4.62-4.56-.66-.68-1.16-1.05-1.49-1.13-1.02-.24-1.71-.13-2.82.4-.95.45-2 .66-3.13.63-1-.04-1.8-.3-2.4-.79-1.7-1.4-2.09-3.39-1.54-5.51.16-.6.59-1.84.98-2.62A15.46 15.46 0 0 1 18 15.2c2.29-1.67 5.3-3.18 8.13-3.2Zm10.71 3.01c.98 0 1.77.8 1.77 1.79s-.8 1.79-1.77 1.79-1.76-.8-1.76-1.8c0-.98.79-1.78 1.76-1.78Z" fill="#2A176E"/></svg>