<!-- by TradingView --><svg width="56" height="56" viewBox="0 0 56 56" xmlns="http://www.w3.org/2000/svg"><path fill="#F0F3FA" d="M0 0h56v56H0z"/><path d="M41 44h-4.7L26.1 31 16 44v-6l10.1-13L41 44ZM29.5 12c3 0 9.5 2.43 9.5 9.28 0 4.8-3.3 7.6-4.95 8.4l-1.96-2.4c1.13-.72 3.41-2.93 3.41-6 0-3.78-3.54-6.2-6.94-6.28L16 32v-6.2L26.28 12h3.22ZM22 12l-6 8v-5.65L17.82 12H22Z" fill="url(#a)"/><defs><linearGradient id="a" x1="42.13" y1="22.22" x2="16.24" y2="42.87" gradientUnits="userSpaceOnUse"><stop offset=".1" stop-color="#F8A9A6"/><stop offset=".31" stop-color="#C97267"/><stop offset=".46" stop-color="#FAB0AD"/><stop offset=".66" stop-color="#AD5446"/><stop offset="1" stop-color="#EE9B8B"/></linearGradient></defs></svg>