<!-- by TradingView --><svg width="18" height="18" viewBox="0 0 18 18" xmlns="http://www.w3.org/2000/svg"><path fill="#F0F3FA" d="M0 0h18v18H0z"/><path d="M13.85 7.78a6.21 6.21 0 0 0-1.27-.3 1.34 1.34 0 0 0-.36-.9c-.29-.3-.65-.47-1.09-.5-.4-.04-.8.04-1.19.22l-.37.17a.3.3 0 0 0-.09-.07l-.56-.24-.02-.03v-.08a5.15 5.15 0 0 1 2.82-1.03c.46 0 .87.09 1.24.28.42.21.72.53.89.94.2.48.2 1 0 1.54Z" fill="#F27922"/><path d="m9.57 6.47.49.44a9.64 9.64 0 0 1 1.6 1.98c.02.03.11.15.13.2-.05.06-.2.03-.3.08l-.34.2c-.03.02-.04.08-.05.06A5.76 5.76 0 0 0 9.04 6.9c.21-.1.36-.26.44-.49a.3.3 0 0 1 .1.07Z" fill="#31AB58"/><path d="M9.01 6.88a8.53 8.53 0 0 0-1.6 1.78l-1.18.55A.59.59 0 0 0 6.32 9l.02-.01a10.56 10.56 0 0 1 2.14-2.58c.03 0 .05 0 .08.04l.02.02c.19.09.3.27.43.41Z" fill="url(#a)"/><path d="M5.5 7.08c-.2.75.07 1.4.82 1.92-.01.06-.04.13-.09.2l-.28.67a4.22 4.22 0 0 1-1.8-2.1c.5-.14.94-.37 1.34-.7Z" fill="url(#b)"/><path d="M7.4 8.66 7 9.4c-.15.3-.24.62-.3.94-.06.4.02.79.24 1.13.2.34.5.58.87.7.35.14.6.08.73-.15.16-.29-.18-.7-1.04-1.23a3 3 0 0 1 .52-.62c.6.53.88 1.05.84 1.58-.04.5-.24.87-.61 1.08-.35.2-.76.22-1.2.05a1.84 1.84 0 0 1-1.22-1.45c-.1-.51-.06-1.03.12-1.56l.28-.66 1.18-.55Z" fill="#FACF0A"/><path d="M7 9.4c.37.23.71.49 1.02.77-.2.19-.37.4-.52.62l-.8-.45c.05-.32.15-.64.3-.94Z" fill="url(#c)"/><path d="M12.06 9.73c.22.82.2 1.7-.12 2.3l-1-.39a2.1 2.1 0 0 0 .4-1.4l.01-.03c.24-.15.46-.39.71-.48Z" fill="url(#d)"/><path d="m9.52 10.69.73.28c-.6.4-.87.73-.82.98l.02.06c.19.23.45.28.78.16.28-.1.52-.28.72-.53l.99.4c-.2.35-.46.6-.8.76-.38.19-.75.24-1.1.14-.4-.1-.65-.37-.78-.8-.15-.5-.06-1 .26-1.45Z" fill="#4FB749"/><path d="M9.48 6.4a.81.81 0 0 1-.44.49H9a2.93 2.93 0 0 0-1.25-.7c-.47-.16-.9-.17-1.31-.03-.45.15-.77.46-.96.92-.4.32-.84.55-1.34.69-.19-.51-.2-1-.03-1.45.17-.46.48-.8.94-1.03.6-.3 1.28-.37 2.03-.19 1.06.25 1.66.7 2.39 1.3Z" fill="url(#e)"/><path d="m11.5 9.17.96.4c-.77.52-1.45.9-2.21 1.4l-.73-.28c.5-.74 1.28-1.11 1.97-1.52Z" fill="url(#f)"/><path d="M13.85 7.78c-.09.24-.21.47-.36.7a5 5 0 0 1-1.03 1.1l-.97-.4c.33-.17.65-.51.84-.82.17-.27.25-.56.25-.88.43.06.85.15 1.27.3Z" fill="url(#g)"/><defs><linearGradient id="a" x1="8.72" y1="6.56" x2="7.51" y2="9.15" gradientUnits="userSpaceOnUse"><stop offset=".22" stop-color="#F08022"/><stop offset="1" stop-color="#FACF0A"/></linearGradient><linearGradient id="b" x1="6.32" y1="9.35" x2="5.61" y2="7.58" gradientUnits="userSpaceOnUse"><stop stop-color="#20988B"/><stop offset="1" stop-color="#1888C6"/></linearGradient><linearGradient id="c" x1="6.7" y1="9.7" x2="7.67" y2="10.4" gradientUnits="userSpaceOnUse"><stop stop-color="#83C23E"/><stop offset="1" stop-color="#FACF0A"/></linearGradient><linearGradient id="d" x1="11.58" y1="9.91" x2="10.94" y2="11.59" gradientUnits="userSpaceOnUse"><stop stop-color="#31AB58"/><stop offset="1" stop-color="#4FB749"/></linearGradient><linearGradient id="e" x1="5.71" y1="6.17" x2="8.67" y2="7.3" gradientUnits="userSpaceOnUse"><stop stop-color="#1888C6"/><stop offset="1" stop-color="#31AB58"/></linearGradient><linearGradient id="f" x1="11.89" y1="9.49" x2="10.91" y2="10.92" gradientUnits="userSpaceOnUse"><stop stop-color="#F7C50B"/><stop offset="1" stop-color="#4FB749"/></linearGradient><linearGradient id="g" x1="12.03" y1="9.25" x2="12.74" y2="7.89" gradientUnits="userSpaceOnUse"><stop stop-color="#F7C50B"/><stop offset="1" stop-color="#F27922"/></linearGradient></defs></svg>