<!-- by TradingView --><svg width="56" height="56" viewBox="0 0 56 56" xmlns="http://www.w3.org/2000/svg"><path fill="#F0F3FA" d="M0 0h56v56H0z"/><path d="M46.55 17.5H32.37V16H48v24H32.37v-1.5h14.18v-21Zm-3.03 2.28H32.37v-1.49H45v19.44H32.37v-1.5h11.15V19.77ZM40.55 22h-8.18v-1.5H42v15h-9.63V34h8.18V22Z" fill="#959497"/><path d="M33 16H8v24h25v-6h-7V22h7v-6Z" fill="#0389CE"/><path d="M10 20v-2h7v2h-1.74c-.15 0-.26.1-.26.24V26h6v-5.75a.26.26 0 0 0-.26-.25H19v-2h7v2h-1.74a.26.26 0 0 0-.26.25v15.5c0 .14.12.25.26.25H26v2h-7v-2h1.74c.14 0 .26-.1.26-.25V29h-6v6.74c0 .14.11.26.26.26H17v2h-7v-2h1.74c.14 0 .26-.12.26-.26v-15.5c0-.14-.12-.24-.26-.24H10Z" fill="#F0F3FA"/><path d="M27 31.62V33h3.66v-1.38H30v-3.8L31.6 33h1.31l1.74-5.17v3.8h-1V33H38v-1.38h-1v-7.07h1V23h-3.74l-1.73 5.92L30.3 23H27v1.55h1v7.07h-1Z" fill="#0389CE"/></svg>