<!-- by TradingView --><svg width="56" height="56" viewBox="0 0 56 56" xmlns="http://www.w3.org/2000/svg"><path fill="#F0F3FA" d="M0 0h56v56H0z"/><path d="M28.26 11v.15l-3.68 6.12a.8.8 0 0 1-.39-.01l-6.08-2.22a.2.2 0 0 0-.2.03.2.2 0 0 0-.07.2l1.7 10.85c0 .07 0 .14-.04.2l-5.32 9.82-.22.01L12 24.83c-.02-.1 0-.18.04-.27l5.6-9.4c.09-.16.2-.26.36-.32L28.26 11Z" fill="#317939"/><path d="m44 24.73-.53-.15-9.67-3.54-.16-.14-5.08-9.68a.15.15 0 0 0-.13-.09c-.05 0-.1 0-.17.02V11l10.22 4.01a.3.3 0 0 1 .16.15L44 24.73Z" fill="#6B9A6E"/><path d="m33.64 20.9-9.1-3.48s0-.06.05-.15l3.67-6.12a.42.42 0 0 1 .17-.02c.06 0 .1.04.13.1l5.08 9.67Z" fill="#9EC99B"/><path d="M24.58 17.27c-.03.1-.05.14-.03.15a1803.67 1803.67 0 0 0-4.74 8.54c-.14.25-.2.47-.16.66l1.68 9.67c.02.1.07.14.17.14l9.16.16.58.02c-.62.44-1.23.9-1.82 1.4-1.82 1.5-3.64 3.02-5.45 4.54-.42.35-.75.78-.98 1.27-.34 0-.55-.02-.62-.09-.27-2.23-.56-4.4-.9-6.49a5.41 5.41 0 0 0-.14-.63.13.13 0 0 0-.11-.1 2.57 2.57 0 0 0-.44-.05l-6.47.03c-.06 0-.1-.02-.12-.08a.43.43 0 0 1-.01-.27l5.32-9.82a.32.32 0 0 0 .04-.2l-1.7-10.84a.2.2 0 0 1 .07-.2.2.2 0 0 1 .2-.04 2500 2500 0 0 1 6.08 2.22c.1.03.22.03.4 0Z" fill="#6B9A6E"/><path d="M43.47 24.58c-.1.57-.37 1.08-.82 1.52-.85.82-1.7 1.63-2.57 2.43-.12.1-.29.28-.51.54-.31.36-.56.6-.74.76a.2.2 0 0 0-.08-.06l-4.95-8.73 9.67 3.54Z" fill="#B5D8B8"/><path d="M44 24.73c-.56 3.7-1.15 7.47-1.77 11.29 0 .04-.03.1-.06.19a.92.92 0 0 0-.07.2c-.07-.01-.1-.01-.08.02l.05-.08a.14.14 0 0 0 .01-.15l-3.25-6.37c.18-.15.43-.4.74-.76.22-.26.39-.44.5-.54.87-.8 1.73-1.61 2.58-2.43.45-.44.73-.95.82-1.52l.53.15Z" fill="#ACE29D"/><path d="M21.9 28.43c.02-.33 0-.64-.05-.93-.03-.12 0-.17.1-.17h.18c.08 0 .12.05.12.16v1.18c0 .08-.03.14-.1.17-.55.24-1 .2-1.35-.1-.3-.27-.45-.66-.46-1.18a1.7 1.7 0 0 1 .38-1.22c.3-.35.7-.43 1.2-.24.1.03.14.1.14.23v.09c0 .14-.05.18-.15.11-.33-.22-.61-.23-.85-.02-.21.18-.34.47-.37.86-.04.39.03.7.21.95.2.28.5.36.89.25.06-.01.1-.06.1-.14ZM28.56 27.08c0 .1.03.12.1.07.22-.18.44-.2.63-.02.1.09.15.3.15.65 0 .5 0 .77.05 1.05.01.1-.02.16-.1.16h-.15c-.09 0-.13-.06-.12-.18.04-.45.04-.75 0-1.17-.01-.17-.09-.25-.22-.25h-.12c-.14 0-.22.1-.22.29v1.17c0 .1-.04.15-.11.15h-.07c-.1 0-.14-.06-.14-.19v-2.6c0-.13.05-.2.15-.2h.07c.07-.02.1.03.1.11v.96ZM34.8 27.16c.15-.18.33-.2.53-.07.14.1.22.27.22.48v1.26c0 .1-.04.16-.12.16h-.08c-.09 0-.13-.06-.13-.17V27.7c0-.23-.08-.33-.26-.3a.9.9 0 0 0-.1.02c-.13.04-.18.14-.18.3v1.15c0 .1-.04.14-.11.14h-.1c-.09 0-.13-.06-.13-.18v-2.68c0-.1.04-.14.1-.14h.16c.05 0 .07.03.07.1v.98c0 .14.04.17.13.08ZM30.12 26.74c.12 0 .21-.1.21-.22s-.1-.22-.2-.22c-.12 0-.22.1-.22.22s.1.22.21.22ZM30.94 26.93c.07.06.17.09.3.09.04 0 .06.02.06.08v.09c0 .03 0 .04-.03.04H31c-.08 0-.12.06-.12.16v1.07c0 .07.03.13.09.16.07.04.15.06.24.05.05-.01.08.02.08.09v.08c0 .06-.02.1-.07.12-.46.21-.68-.03-.66-.74 0-.46 0-.83-.03-1.09-.01-.07 0-.14.05-.2l.18-.27c.08-.1.12-.1.11.05v.09c0 .06.02.1.06.13ZM23.03 27.51v1.03c0 .1-.06.16-.16.16h-.07c-.08 0-.12-.04-.12-.14.05-.5.05-.98-.01-1.43-.01-.07.02-.1.09-.1.07.01.15.04.24.09.05.03.1.02.14 0 .1-.08.2-.12.3-.12.1 0 .15.05.13.15l-.01.07a.23.23 0 0 1-.2.13.6.6 0 0 0-.26.04.12.12 0 0 0-.07.12ZM27.07 27.11c.2-.13.38-.15.55-.04.16.1.24.25.24.46v1.32c0 .08-.03.13-.1.13h-.09c-.1 0-.14-.06-.14-.18v-1.17c0-.17-.07-.26-.21-.26h-.12c-.15 0-.22.1-.22.27v1.22c0 .1-.04.14-.12.14h-.06c-.11 0-.17-.07-.17-.2v-1.68c0-.08.03-.12.1-.12.05 0 .12.04.2.1.04.05.1.05.14.01ZM33.54 27.35c-.12 0-.2.06-.25.19-.15.4-.13.72.06.95.1.13.3.17.6.11h.03c.03-.01.05 0 .05.05v.06c0 .1-.03.16-.1.2-.28.13-.52.12-.73-.04-.2-.16-.3-.43-.3-.8 0-.6.25-.95.74-1.06.05-.02.1-.01.15.01.17.09.24.17.2.25-.02.05-.05.08-.1.08h-.35ZM30.26 27h-.2c-.03 0-.06.04-.06.09l.01 1.83c0 .05.03.08.06.08h.2c.03 0 .06-.03.06-.08v-1.84c0-.04-.04-.08-.07-.08Z" fill="#317939"/><path fill-rule="evenodd" d="M24.78 28.62c-.52.07-.77-.08-.77-.46 0-.07.04-.1.1-.1h.64c.14 0 .2-.09.2-.26-.01-.37-.13-.62-.34-.74-.21-.12-.43-.05-.66.22-.14.15-.21.38-.23.69-.06.75.24 1.1.87 1.02.1 0 .16-.06.21-.16l.05-.09c.05-.1.03-.14-.07-.12Zm-.72-.9c0 .07.02.1.07.09l.43-.04c.05 0 .07-.04.07-.1v-.03c-.02-.23-.11-.34-.28-.32h-.06c-.17.02-.25.14-.24.37v.04ZM26.18 28.58c-.35.14-.6.02-.72-.34a.14.14 0 0 1 0-.12c.03-.04.06-.06.1-.06h.63c.14 0 .2-.08.2-.24-.01-.37-.11-.62-.31-.75s-.42-.08-.66.15c-.18.18-.28.46-.3.83-.02.39.08.66.3.82.21.15.46.17.75.06.06-.02.1-.08.1-.16v-.1c0-.08-.04-.1-.1-.09Zm-.14-.95c-.03-.2-.12-.3-.27-.3-.15 0-.24.1-.27.3-.01.07.01.12.07.14l.2.02c.1 0 .17 0 .2-.02.06-.02.08-.07.07-.14ZM31.79 28.14c.03-.07.08-.1.14-.1h.6c.11 0 .17-.07.17-.22-.01-.46-.15-.73-.41-.8-.22-.06-.41.02-.58.23-.15.2-.24.44-.26.74-.03.3.03.56.17.75.16.21.4.3.72.25a.3.3 0 0 0 .21-.15c.03-.05.05-.1.06-.17 0-.08-.03-.11-.1-.09-.32.14-.56.05-.72-.25a.2.2 0 0 1 0-.2Zm.04-.4c0 .04.02.05.05.05l.45-.03c.04 0 .05-.03.05-.07v-.05c-.01-.23-.1-.35-.27-.33h-.05c-.17.01-.25.14-.23.37v.05Z" fill="#317939"/><path d="m38.83 29.83 3.25 6.37c.03.05.02.1 0 .15l-.06.08-10.78.18-.58-.02.56-.08c.05-.01.09-.04.1-.1.02-.1.05-.17.08-.2 2.34-1.98 4.66-4 6.95-6.04.14-.12.28-.26.4-.4a.2.2 0 0 1 .08.06Z" fill="#E8EEEE"/><path d="M14.18 36.14a.43.43 0 0 0 0 .27c.03.06.07.09.13.08l6.47-.03c.11 0 .26.02.44.05.06.01.1.05.1.1.08.25.13.46.16.63.33 2.1.62 4.26.89 6.5l-7.96-6.9c-.27-.24-.42-.46-.45-.69l.22-.01Z" fill="#346D40"/><path d="M42.02 36.43c-.02-.03.01-.03.08-.01l-8.35 7.44c-.11.1-.24.14-.38.14l-10.38-.18c.23-.5.56-.92.98-1.27L29.42 38c.6-.48 1.2-.95 1.82-1.4l10.78-.17Z" fill="#599359"/></svg>