<!-- by TradingView --><svg width="56" height="56" viewBox="0 0 56 56" xmlns="http://www.w3.org/2000/svg"><path fill="#F0F3FA" d="M0 0h56v56H0z"/><path d="M23.94 23.82 16 16.14A9.4 9.4 0 0 1 19.2 13c2.14 2.23 6.58 6.86 7.19 7.52.54.59.88 1.19 1.05 1.5.03.03.04.06.06.1v2.38h-2.28c-.19 0-.93-.43-1.28-.68Zm8.12 0L40 16.14A9.4 9.4 0 0 0 36.8 13a1985.8 1985.8 0 0 0-7.19 7.52c-.54.59-.88 1.19-1.05 1.5-.03.03-.04.06-.06.1v2.38h2.28c.19 0 .93-.43 1.28-.68ZM16 33.86l7.94-7.68c.35-.25 1.1-.68 1.28-.68h2.28v2.39l-.06.1c-.17.3-.5.9-1.05 1.49-.61.66-5.05 5.29-7.19 7.52a9.4 9.4 0 0 1-3.2-3.14Zm16.06-7.68L40 33.86A9.4 9.4 0 0 1 36.8 37c-2.14-2.23-6.58-6.86-7.19-7.52a7.65 7.65 0 0 1-1.05-1.5c-.03-.03-.04-.06-.06-.1V25.5h2.28c.19 0 .93.43 1.28.68ZM23 34v5.67c0 .74.64 1.33 1.36 1.33h7.36c.73 0 1.28-.59 1.28-1.33V34l3 3.07v2.88A3.99 3.99 0 0 1 32.08 44h-8.16A3.99 3.99 0 0 1 20 39.95v-2.88L23 34Z" fill="#007CC3"/></svg>