<!-- by TradingView --><svg width="18" height="18" viewBox="0 0 18 18" xmlns="http://www.w3.org/2000/svg"><path fill="#F0F3FA" d="M0 0h18v18H0z"/><path d="M5.93 6.36c.14-.02.3.03.47.16.48.36.96.67 1.46.92.48.25 1 .4 1.57.43a4.92 4.92 0 0 0 2.16-.32c.26-.1.44-.13.55-.1.18.05.28.18.31.38.04.18 0 .36-.11.5-.07.1-.2.2-.4.27-.4.18-.75.3-1.03.36-.14.03-.39.05-.72.07l-.44.03a1.27 1.27 0 0 0-1.09 1.24c0 .17.05.31.15.43.08.1.21.2.4.3.63.38 1.16.77 1.57 1.2.06.06.1.14.14.26v.1a.48.48 0 0 1-.29.35.77.77 0 0 1-.48.04c-.1-.02-.27-.13-.48-.3-.4-.35-.84-.62-1.33-.83a3.33 3.33 0 0 0-1.52-.3 9.7 9.7 0 0 0-1.36.14c-.23.07-.5.15-.8.26a.62.62 0 0 1-.43 0c-.16-.05-.23-.17-.23-.33 0-.35.2-.63.58-.82.25-.13.6-.23 1.04-.3l1.27-.2c.09-.02.19-.07.3-.16.27-.23.42-.53.47-.9a.81.81 0 0 0-.07-.5c-.06-.1-.19-.23-.38-.36l-.93-.66c-.44-.32-.65-.65-.63-1 .02-.22.1-.34.28-.36ZM9.03 5c.54 0 .98.54.99 1.22 0 .68-.44 1.23-.98 1.23s-.98-.55-.98-1.22c0-.68.43-1.23.97-1.23Zm4 .36c.13-.06.23-.02.3.12a.1.1 0 0 1 0 .03l.02.48c0 .03.02.04.05.03l.34-.14c.05-.02.1-.02.15.01.04.03.07.07.08.12l.03.2c.01.1-.03.17-.12.2l-.33.14c-.04.01-.04.04-.02.08l.23.4v.02c.03.16-.02.28-.15.36a.19.19 0 0 1-.15.02.19.19 0 0 1-.12-.09l-.18-.33a.04.04 0 0 0-.04-.02c-.01 0-.03 0-.04.02l-.24.34c-.05.07-.12.09-.2.05-.16-.06-.22-.17-.18-.32a1.28 1.28 0 0 1 .24-.42c.03-.04.03-.08-.02-.1l-.05-.04a1.2 1.2 0 0 1-.31-.25c-.09-.11-.08-.24 0-.37a.17.17 0 0 1 .12-.07c.04-.02.08 0 .13.01l.29.17h.04l.02-.04v-.06c-.03-.32.01-.51.11-.55Z" fill="#68A336"/></svg>