<!-- by TradingView --><svg width="56" height="56" viewBox="0 0 56 56" xmlns="http://www.w3.org/2000/svg"><path fill="#F0F3FA" d="M0 0h56v56H0z"/><path d="m28.84 15.73-1.17.02.02-1.37a.3.3 0 0 0-.35-.3c-4.04.66-6.94 2.53-8.7 5.6a10.7 10.7 0 0 0-.24 10.9 10.57 10.57 0 0 0 9.16 5.96.17.17 0 0 0 .1-.1l.02-.06v-1.44l1.2.01.01 1.43a.18.18 0 0 0 .06.13.18.18 0 0 0 .14.05c3.4-.34 6.12-1.85 8.16-4.52a.17.17 0 0 1 .11-.06c.04 0 .09 0 .12.03l1.46 1.07a.16.16 0 0 1 .05.17l-.02.05a13.16 13.16 0 0 1-5.36 4.28 128.61 128.61 0 0 0-1.14.52.15.15 0 0 0-.01.18L36.23 44H20.32l3.78-5.72a.2.2 0 0 0 .02-.16.18.18 0 0 0-.1-.12 8.13 8.13 0 0 0-.6-.23c-.31-.1-.53-.2-.67-.26a13.54 13.54 0 0 1-7.73-13 13 13 0 0 1 2.55-7.14 13.31 13.31 0 0 1 12.04-5.31.2.2 0 0 1 .12.06c.03.03.05.08.05.13v1.68a.28.28 0 0 1-.22.27.28.28 0 0 1-.12 0l-.29-.07a.22.22 0 0 0-.27.21l-.04 1.4Z" fill="#303983"/><path d="M28.84 15.73c4.25.49 7.08 2.65 8.5 6.5a8.8 8.8 0 0 1 .46 4.13 9.36 9.36 0 0 1-2.87 5.87 10.27 10.27 0 0 1-6.04 2.72l-1.21-.01a9.76 9.76 0 0 1-6.15-2.81 9.53 9.53 0 0 1-2.8-6.09 8.92 8.92 0 0 1 1.09-4.97 9.47 9.47 0 0 1 7.85-5.32l1.17-.02Z" fill="#F7A707"/></svg>