<!-- by TradingView --><svg width="18" height="18" viewBox="0 0 18 18" xmlns="http://www.w3.org/2000/svg"><path fill="#F0F3FA" d="M0 0h18v18H0z"/><path d="M7 5.11 5 6.22V4l2 1.11Z" fill="#FEE451"/><path d="M9 6.22 7 7.33V5.11l2 1.11Z" fill="#CDDA2B"/><path d="M11 7.33 9 8.44V6.22l2 1.11Z" fill="#FBBA1D"/><path d="m13 8.44-2 1.12V7.33l2 1.11Z" fill="#F2712D"/><path d="m15 9.56-2 1.1V8.45l2 1.12Z" fill="#F22720"/><path d="m13 10.67-2 1.1V9.57l2 1.1Z" fill="#DB1D63"/><path d="m11 11.78-2 1.1v-2.21l2 1.1Z" fill="#243D8D"/><path d="m9 10.67-2 1.1V9.57l2 1.1Z" fill="#24ABE3"/><path d="M9 8.44 7 9.56V7.33l2 1.11Z" fill="#6BBE46"/><path d="M9 12.89 7 14v-2.22l2 1.1Z" fill="#1270B0"/><path d="m5 6.22 2 1.11V5.11L5 6.22Z" fill="#F4DC0E"/><path d="m7 7.33 2 1.11V6.22L7 7.33Z" fill="#AECF4B"/><path d="m9 8.44 2 1.12V7.33L9 8.44Z" fill="#FD9522"/><path d="m11 9.56 2 1.1V8.45l-2 1.12Z" fill="#BB2048"/><path d="m9 10.67 2 1.1V9.57l-2 1.1Z" fill="#752B8C"/><path d="m7 11.78 2 1.1v-2.21l-2 1.1Z" fill="#228FD0"/><path d="m7 9.56 2 1.1V8.45L7 9.56Z" fill="#199E8D"/></svg>