<!-- by TradingView --><svg width="18" height="18" viewBox="0 0 18 18" xmlns="http://www.w3.org/2000/svg"><path fill="#F0F3FA" d="M0 0h18v18H0z"/><path d="M14.38 12c-.23-.68-1.94-4.7-2.55-4.63a.94.94 0 0 0-.8.56L10 10.03c-.15.33-.29.53-.4.62a.92.92 0 0 1-.7.2c-.4-.03-.67-.36-.86-.76a76.14 76.14 0 0 0-.74-1.46c-.05-.01-.1.03-.13.1-.22.49-.45 1.02-.68 1.62-.1.25-.34.68-.52.9-.62.77-1.62.98-2.43.47l-.02-.01v-.03a.07.07 0 0 1 0-.04L6.32 5.7c.24-.5.57-.73 1-.7.39.01.68.28.87.66a61.7 61.7 0 0 0 .78 1.57l.03.01.04-.01.03-.03a259.62 259.62 0 0 1 .77-1.55c.18-.36.42-.62.8-.65.44-.03.77.18 1 .62l.25.52.45.91c.24.44.45.8.66 1.15.15.25 1.87 3.55 2 3.79h-.62Z" fill="#1F8EE4"/></svg>