<!-- by TradingView --><svg width="56" height="56" viewBox="0 0 56 56" xmlns="http://www.w3.org/2000/svg"><path fill="#D91F48" d="M0 0h56v56H0z"/><path d="M41.33 21A30.68 30.68 0 0 1 46 27.4h-.01c-.18-.04-.37-.09-.57-.12a12.72 12.72 0 0 0-9.18 1.94l.01.02 5.65 2.96.01.02v.03l-3.6 2.4h-.02v-.02l1.51-2.05a.02.02 0 0 0-.01-.03c-.5-.07-.99-.11-1.47-.15-4.8-.33-9.78-.13-14.92.6A70.4 70.4 0 0 0 8 36.96l.03-.04a53.21 53.21 0 0 1 12.65-8.62 46.06 46.06 0 0 1 8.48-3.14 39.17 39.17 0 0 1 9.78-1.3 15.84 15.84 0 0 0-1-1.68c-.01-.03 0-.04.02-.05 1.13-.45 2.23-.84 3.29-1.16.03-.01.06 0 .08.02Zm-6.44-4.4c.07-.01.15 0 .24.03a16.63 16.63 0 0 1 3.65 2.12.14.14 0 0 1-.07.05 20.55 20.55 0 0 0-2.58 1.05 13.48 13.48 0 0 0-3.13-2.7l.02-.02 1.87-.53ZM27.92 15a17.65 17.65 0 0 1 4.66.73v.02c-.5.09-1 .22-1.46.4a.2.2 0 0 1-.15-.01 11.75 11.75 0 0 0-6-.85l.45-.12c.95-.12 1.78-.18 2.5-.17Z" fill="#fff"/></svg>