<!-- by TradingView --><svg width="56" height="56" viewBox="0 0 56 56" xmlns="http://www.w3.org/2000/svg"><path fill="url(#a)" d="M0 0h56v56H0z"/><path d="M27.98 12.18c-.14 0-.23-.28-.21-.6.02-.33.14-.59.28-.58.13 0 .22.28.2.6-.01.33-.14.59-.27.58Zm4.04.55c-.1-.04-.05-.36.1-.71.15-.35.35-.6.45-.56.1.04.05.36-.1.71-.15.35-.35.6-.45.56Zm-8.38-.55c.08.29.24.49.37.45.12-.03.15-.29.07-.57-.08-.29-.25-.5-.37-.46-.12.04-.15.3-.07.58Zm4.42 1.04h.03c.18 0 .32.15.32.33l-.03 1.13c0 .18-.15.32-.33.31H28a.32.32 0 0 1-.31-.33l.02-1.13c0-.17.16-.32.34-.31Zm8 .45c-.16.3-.22.6-.12.66.1.05.31-.16.48-.47.17-.31.22-.6.13-.66-.1-.05-.31.16-.48.47Zm-15.85.57c-.11.07-.33-.1-.5-.37-.17-.28-.22-.55-.12-.62.11-.07.34.1.5.37.17.28.23.55.12.62Zm11.08.23c-.14.52-.1.99.09 1.04.2.06.48-.31.63-.83.15-.51.1-.98-.09-1.04-.2-.05-.48.32-.63.83Zm-7.1-.8.04-.01a.3.3 0 0 1 .38.2l.33 1.2a.3.3 0 0 1-.21.38h-.04a.3.3 0 0 1-.38-.2l-.33-1.2a.3.3 0 0 1 .22-.38Zm10.1 2.98c-.08-.04-.1-.1-.05-.18l.2-.33c.23-.36.44-.64.65-.86.21-.22.35-.3.43-.26l.06.03c.07.05.06.22-.04.5-.1.3-.26.61-.49.97l-.2.33c-.04.07-.1.09-.18.04l-.38-.24ZM20.66 15.3l.17-.1a.25.25 0 0 1 .34.1l.6 1.03c.07.12.03.27-.09.34l-.17.1a.25.25 0 0 1-.34-.1l-.6-1.03a.25.25 0 0 1 .1-.34Zm7.74.5-.54-.03c-.14 0-.26.1-.27.24l-.07 1.1c0 .14.1.26.24.27l.55.03c.14.01.26-.1.27-.24l.06-1.1c.01-.14-.1-.26-.24-.27Zm-11.4.98c-.08.09-.35-.02-.6-.25-.26-.22-.4-.47-.33-.56.08-.1.35.02.6.24.26.23.4.48.32.57Zm22.77-.22c.3-.24.46-.5.39-.6-.08-.1-.38.02-.67.25-.29.24-.46.5-.38.6.08.1.37-.01.66-.25Zm-8.38 1.1.27-1.08c.04-.16-.02-.26-.17-.31l-.45-.16c-.16-.05-.26 0-.32.15l-.43 1.05c-.08.17-.02.29.16.34l.6.2c.18.06.3 0 .34-.18Zm-6.35.19c-.16.04-.26-.02-.3-.18l-.01-.04c-.1-.35-.14-.67-.13-.93 0-.27.06-.42.16-.45l.42-.1c.1-.04.22.07.36.3.14.23.26.52.35.87l.01.04c.04.17-.01.27-.17.31l-.69.18Zm-3.34-.27.48-.33a.24.24 0 0 1 .34.07l.65.97c.07.11.04.26-.07.34l-.48.32a.24.24 0 0 1-.34-.06l-.65-.98a.24.24 0 0 1 .07-.33Zm12.78.02-.6-.37a.23.23 0 0 0-.32.08l-.6 1.01a.23.23 0 0 0 .07.32l.6.37c.11.07.26.03.32-.08l.61-1.01a.23.23 0 0 0-.08-.32Zm2.68.74.88-.87c.1-.11.29-.1.4 0l.1.12c.12.1.11.29 0 .4l-.88.86a.28.28 0 0 1-.4 0l-.1-.11a.28.28 0 0 1 0-.4Zm-19.48-.84-.01.02a.32.32 0 0 0-.01.46l.75.78c.12.13.33.13.46 0l.01-.01a.32.32 0 0 0 .01-.46l-.75-.78a.32.32 0 0 0-.46 0Zm9.91.62.97.02c.14 0 .26.12.26.26l-.02 1.02c0 .14-.13.26-.27.26l-.97-.02a.26.26 0 0 1-.25-.27l.02-1.02c0-.14.12-.26.26-.25Zm3.47.47-.8-.27a.36.36 0 0 0-.45.22l-.28.81c-.07.19.03.4.22.46l.8.27c.18.07.38-.03.45-.22l.28-.81a.36.36 0 0 0-.22-.46Zm-6 0 .9-.27c.15-.05.3.04.35.2l.3.95a.29.29 0 0 1-.2.36l-.88.28a.29.29 0 0 1-.36-.2l-.3-.96a.29.29 0 0 1 .2-.36Zm-5.14.57.9.7c.14.11.15.23.03.35l-.48.5c-.12.12-.24.12-.35-.01l-.74-.89c-.09-.1-.09-.21.02-.31l.31-.32c.1-.1.2-.1.31-.02Zm2.83.46.83-.44c.13-.07.3-.02.37.1l.5.96c.07.13.02.29-.1.36l-.85.45a.27.27 0 0 1-.36-.11l-.5-.95a.27.27 0 0 1 .1-.37Zm14.1.24-.66.85c-.14.2-.3.2-.47.04l-.41-.4c-.17-.16-.17-.32.01-.47l.84-.7c.16-.14.3-.13.44.02l.23.25c.12.13.13.27.02.41Zm-3.9 1.12.5-1.05c.08-.17.04-.29-.13-.36l-.75-.34c-.13-.07-.25-.03-.33.1l-.57.83c-.1.15-.07.28.08.38l.8.54c.18.12.31.09.4-.1Zm9.4-1.1c.3-.2.5-.44.46-.5-.05-.08-.34.03-.64.24-.3.2-.51.43-.46.5.05.08.33-.03.64-.24Zm-27.95.22c-.06.1-.35.04-.63-.15-.3-.18-.47-.4-.4-.51.06-.1.34-.04.63.14.29.19.47.42.4.52Zm2.38.95-1.01-.65a.31.31 0 0 0-.43.1l-.02.02c-.1.14-.05.34.1.43l1 .65c.15.1.34.05.44-.1l.01-.02a.32.32 0 0 0-.1-.43Zm24.05-.48c.1.18-.17.55-.62.82-.45.27-.9.33-1.01.15-.1-.18.17-.55.62-.82.45-.27.9-.34 1.01-.15Zm-19.34 1.91-.8-.9c-.08-.1-.07-.2.03-.29l.75-.66c.08-.08.17-.08.26 0l.87.78c.11.1.11.19.01.29l-.83.8c-.1.09-.2.08-.29-.02Zm13.04.03.9-.85c.1-.1.1-.2.01-.28l-.8-.78c-.1-.08-.19-.08-.27 0l-.9.86c-.1.1-.1.19 0 .28l.8.77c.08.08.17.09.26 0Zm-16.62-1.02 1.15.56c.16.08.19.2.09.34l-.42.61c-.1.13-.2.15-.33.05l-.87-.67a.22.22 0 0 1-.09-.24l.15-.5c.05-.19.15-.24.32-.15Zm19.87 1.54.84-.54c.16-.1.2-.24.1-.4l-.2-.41c-.1-.18-.23-.22-.41-.14l-.98.45a.3.3 0 0 0-.17.2c-.03.1-.01.18.04.27l.36.49c.11.16.26.19.42.08Zm-16.66.08-.91-.61a.24.24 0 0 0-.33.07l-.54.8a.24.24 0 0 0 .07.34l.91.6c.11.08.26.05.34-.06l.53-.8a.24.24 0 0 0-.07-.34Zm14-.08.79-.47c.16-.1.37-.05.47.11l.42.7c.1.16.04.37-.12.47l-.79.47a.34.34 0 0 1-.47-.12L35 23.5a.35.35 0 0 1 .12-.48Zm8.85.86c.31-.12.54-.3.5-.41-.04-.1-.33-.1-.64.03-.32.12-.55.3-.5.4.03.1.32.1.64-.02Zm-31.08.02c-.03.1-.3.12-.62.04-.32-.09-.55-.25-.52-.35.03-.1.3-.12.62-.04.32.09.55.25.52.35Zm28.66.83c.51-.18.87-.5.8-.7-.08-.2-.55-.22-1.06-.03-.51.18-.87.5-.8.7.08.2.55.22 1.06.03Zm-26.3.2c.09.02.14-.01.17-.1l.14-.46c.03-.09 0-.14-.08-.17h-.02a5.88 5.88 0 0 0-1.16-.26c-.34-.03-.52 0-.54.1l-.02.05c-.03.1.1.22.4.38.29.16.65.31 1.1.45h.01Zm1.43-.56 1.1.24c.1.01.16.06.2.15.04.08.04.16 0 .25l-.27.53c-.08.16-.2.2-.36.13l-.9-.36c-.12-.06-.18-.16-.16-.3l.05-.4c.03-.2.14-.28.34-.24Zm22.08 1.3.91-.29c.21-.07.3-.21.25-.43l-.06-.29c-.05-.22-.2-.32-.41-.28l-1 .13a.34.34 0 0 0-.27.18c-.06.1-.07.2-.03.31l.15.44c.08.23.24.3.46.23Zm-18.78-.69-.86-.25a.34.34 0 0 0-.42.23l-.23.78c-.05.18.05.37.23.42l.86.26c.18.05.37-.05.42-.23l.23-.78a.34.34 0 0 0-.23-.43Zm16.12.05.9-.3c.17-.07.36.03.42.2l.26.78a.34.34 0 0 1-.2.43l-.9.3a.34.34 0 0 1-.43-.21l-.26-.78a.34.34 0 0 1 .21-.42Zm-16.52 2.23-.99-.05c-.15 0-.27.1-.28.26l-.05 1.07c0 .14.11.27.26.28l.99.04c.15 0 .27-.1.28-.25l.05-1.07c0-.15-.11-.28-.26-.28Zm17-.03h1c.16 0 .3.13.3.3v1a.3.3 0 0 1-.3.31h-1a.3.3 0 0 1-.3-.3v-1a.3.3 0 0 1 .3-.31Zm-20.37.2.98-.07c.2-.02.3.07.3.27l.05.82c0 .09-.02.16-.09.22a.28.28 0 0 1-.23.08l-1.06-.15c-.17-.03-.25-.12-.24-.3l.03-.6c0-.17.1-.26.26-.27Zm23.7-.02-1.03-.11c-.22-.03-.33.07-.33.28l-.03.78c0 .2.1.3.3.31h1.12c.21.01.31-.1.3-.32l-.07-.67c-.01-.16-.1-.25-.26-.27Zm1.1.35c.01-.13.08-.19.2-.19l.82.01c.22 0 .4.05.56.12.16.08.23.17.23.27v.13c0 .11-.08.2-.24.27-.15.07-.34.1-.56.1h-.82c-.13 0-.19-.07-.19-.2v-.5Zm-27.35-.14 1.12.03c.18 0 .32.15.31.33v.16c0 .17-.15.31-.33.31l-1.11-.03a.32.32 0 0 1-.32-.32v-.16c.01-.18.16-.32.33-.32Zm-1.99.72c.36-.02.65-.17.64-.33 0-.17-.31-.28-.67-.26-.36.02-.65.17-.64.33 0 .16.31.28.67.26ZM45 28c0 .16-.25.3-.57.32-.32.01-.58-.1-.59-.27 0-.16.25-.3.57-.32.32-.01.58.11.59.27Zm-25.31 1.62-1.07.32a.24.24 0 0 0-.17.3l.28.93c.04.13.17.2.3.16l1.07-.31c.13-.04.2-.18.16-.3l-.28-.94a.24.24 0 0 0-.3-.16Zm16.72 0 1.15.34c.1.03.16.14.13.23l-.3 1.01a.18.18 0 0 1-.22.13L36.02 31a.18.18 0 0 1-.13-.23l.3-1c.02-.1.13-.16.22-.13Zm-19.93 1.12.87-.35c.25-.1.4-.02.48.23l.13.46c.03.1.02.2-.04.3a.36.36 0 0 1-.24.16l-.92.15c-.2.03-.33-.05-.4-.24l-.08-.25c-.08-.22 0-.37.2-.46Zm21.9.8 1.13.14c.19.03.28-.06.28-.25v-.49a.23.23 0 0 0-.17-.23l-.93-.38c-.18-.07-.29-.01-.34.17l-.18.74c-.05.18.02.28.21.3Zm-22.8.1c.04.09.01.15-.08.19l-.16.06a4.2 4.2 0 0 1-.95.26c-.27.04-.43 0-.46-.08l-.04-.09c-.03-.09.07-.21.3-.37.22-.16.52-.3.87-.45l.16-.06c.1-.04.16 0 .2.08l.17.46Zm25.44-.43 1.05.36c.17.05.26.23.2.4l-.02.05a.31.31 0 0 1-.4.2l-1.05-.36a.32.32 0 0 1-.2-.4l.02-.05a.31.31 0 0 1 .4-.2Zm-21.68 1.14 1.06-.58c.08-.05.15-.03.2.05l.6.9c.07.09.05.17-.06.22l-1.06.59c-.08.04-.15.03-.2-.06l-.6-.9c-.06-.1-.05-.17.06-.22Zm16.41-.59.99.6c.1.06.13.18.07.28l-.5.84a.2.2 0 0 1-.29.07l-.98-.6a.2.2 0 0 1-.07-.28l.5-.84a.2.2 0 0 1 .28-.07Zm-23.4.76c.29-.08.5-.25.47-.36-.03-.12-.3-.14-.6-.06-.3.09-.51.26-.48.37.04.12.3.14.6.05Zm31.97-.05c-.03.11-.28.13-.55.06-.28-.08-.48-.23-.45-.33.03-.11.28-.13.55-.06.28.08.48.23.45.33Zm-26.75 1.14.8-.54c.18-.13.33-.1.46.09l.26.38c.14.2.1.37-.12.48l-.93.5a.31.31 0 0 1-.28.03.32.32 0 0 1-.2-.2l-.12-.34c-.06-.17-.02-.3.13-.4Zm19.56.45 1.01.46c.15.07.26.03.35-.1l.2-.32c.08-.14.06-.26-.06-.36l-.8-.67c-.15-.12-.29-.1-.4.04l-.4.53a.26.26 0 0 0-.05.23c.02.09.07.15.15.19ZM21.4 35.4l-.61-.66c-.1-.1-.1-.21 0-.32l.76-.78c.11-.12.22-.12.33 0l.7.75c.1.12.1.23-.03.33l-.84.7c-.11.1-.21.09-.31-.02Zm13.12-1.85.9.9c.06.06.06.15 0 .2l-.8.84a.15.15 0 0 1-.21 0l-.92-.9a.15.15 0 0 1 0-.21l.82-.83a.15.15 0 0 1 .2 0ZM16.3 35.39c.46-.26.74-.62.64-.8-.1-.2-.56-.14-1.02.12-.45.26-.74.61-.63.8.1.19.55.14 1.01-.12Zm22.89-.6c-.05.08-.03.14.05.19l1.39.82c.07.05.13.03.18-.05l.02-.04a.48.48 0 0 0 .03-.42.7.7 0 0 0-.32-.36l-.5-.3a.68.68 0 0 0-.48-.1.47.47 0 0 0-.35.22l-.02.04Zm-6.55.26-.9.55a.2.2 0 0 0-.07.26l.6 1c.05.09.17.12.26.06l.9-.55a.2.2 0 0 0 .07-.26l-.6-1a.2.2 0 0 0-.26-.06Zm-9.08.03.75.43c.14.09.2.28.11.43l-.46.82a.31.31 0 0 1-.43.11l-.75-.43a.31.31 0 0 1-.11-.42l.46-.82c.09-.15.28-.2.43-.12Zm-4.26 1.14.65-.81c.1-.15.23-.16.38-.04l.51.42c.18.14.18.28 0 .42l-.9.74c-.14.12-.27.1-.39-.05l-.26-.35c-.08-.11-.08-.22 0-.33Zm15.98 0 .96.76c.13.1.25.09.34-.06l.28-.47c.06-.1.05-.19-.02-.28l-.7-.79c-.1-.12-.22-.13-.33-.02l-.54.5c-.13.13-.13.25.01.36Zm-21.24.22c.25-.18.4-.4.33-.5-.06-.09-.32-.02-.57.16-.25.18-.4.4-.34.5.07.09.33.02.58-.16Zm15.67-.13 1-.3a.2.2 0 0 1 .24.12l.34 1.1a.2.2 0 0 1-.13.24l-1 .3a.2.2 0 0 1-.23-.12l-.34-1.1a.2.2 0 0 1 .12-.24Zm12.47.24c.3.18.6.24.65.15.05-.1-.16-.3-.46-.48-.31-.17-.6-.23-.65-.14-.05.1.15.3.46.47Zm-16.6-.53.75.23c.17.05.27.23.22.4l-.25.86a.33.33 0 0 1-.4.22l-.77-.22a.33.33 0 0 1-.22-.41l.26-.86a.33.33 0 0 1 .4-.22Zm2.81.36-.68.02a.4.4 0 0 0-.39.4l.03.82c0 .22.19.4.4.39l.69-.03a.4.4 0 0 0 .38-.4l-.02-.82a.4.4 0 0 0-.41-.38Zm-6.2.81-.5 1.07c-.06.1-.04.2.05.26l.35.29c.12.1.22.08.31-.03l.84-.98c.11-.14.1-.26-.07-.35l-.68-.36c-.14-.07-.24-.03-.3.1Zm11.38-.07c.12-.08.23-.07.31.06l.02.03c.23.33.39.63.47.92.1.28.08.46-.02.54l-.2.14c-.11.07-.28.02-.52-.16a3.31 3.31 0 0 1-.7-.76l-.02-.03c-.08-.13-.06-.23.06-.32l.6-.42Zm-15.88.94.79-.78a.32.32 0 0 1 .45 0l.05.05c.12.12.12.33 0 .45l-.8.78a.32.32 0 0 1-.44 0l-.05-.04a.32.32 0 0 1 0-.46Zm19.69-.87c.06-.06.12-.06.18 0l.03.02c.36.33.64.63.84.9.2.28.27.46.2.53l-.02.04c-.07.07-.25.02-.55-.16-.3-.17-.62-.42-.97-.75l-.04-.02c-.06-.06-.06-.13 0-.19l.33-.37ZM25.4 39.74l.42-.83c.07-.16.03-.29-.12-.38l-.63-.36a.3.3 0 0 0-.31 0 .3.3 0 0 0-.16.27v1.24c0 .17.08.27.25.3.25.07.43-.02.55-.24Zm5.33.12-.44-.93c-.08-.16-.03-.29.13-.37l.62-.3a.26.26 0 0 1 .26 0c.08.05.13.12.15.21l.12 1.08c.02.13-.03.22-.15.28l-.31.16c-.17.08-.3.04-.38-.13Zm-2.05-.93c0-.14-.06-.21-.2-.22l-.74-.03c-.14 0-.21.06-.22.2l-.02.45c0 .28.03.52.1.72.09.2.2.31.32.31l.25.01c.12 0 .23-.09.33-.28.1-.2.15-.43.16-.71l.02-.45Zm-12.33.62c-.26.27-.4.55-.32.63.08.08.36-.07.62-.34s.4-.55.32-.63c-.08-.08-.36.07-.62.34Zm5.23-.22.04.02c.15.08.2.27.1.42l-.6 1.02a.3.3 0 0 1-.42.1l-.03-.01a.31.31 0 0 1-.11-.43l.6-1.02a.3.3 0 0 1 .42-.1Zm12.94 0-.1.07a.27.27 0 0 0-.08.36l.69 1.08c.08.12.24.16.36.08l.1-.07a.27.27 0 0 0 .09-.37l-.7-1.07a.26.26 0 0 0-.36-.08Zm5.6.87c-.08.08-.36-.05-.63-.3-.27-.24-.43-.51-.35-.6.07-.08.35.06.62.3.28.25.43.52.36.6ZM24.1 41.41c-.15.54-.1 1.02.1 1.08.2.05.49-.34.63-.88.15-.54.1-1.02-.1-1.07-.2-.06-.48.33-.63.87Zm7.72-.68c-.02-.08-.08-.12-.17-.1l-.43.13c-.09.02-.12.08-.1.16l.05.15c.11.43.24.79.39 1.07.14.29.26.42.35.4l.06-.02c.08-.02.12-.2.1-.51-.03-.32-.1-.7-.21-1.13l-.04-.15Zm-3.49.43c.1 0 .14.05.14.15l-.04.7c-.04.62-.16.92-.38.9h-.13c-.21-.01-.3-.33-.26-.94l.04-.7c0-.1.05-.15.15-.14l.48.03Zm-8.79 1.75c-.1-.07-.01-.37.18-.67.2-.31.44-.52.53-.45.1.06.02.36-.18.67-.2.3-.43.5-.53.45Zm16.49-.45c.18.29.42.47.54.4.11-.08.06-.37-.12-.66-.18-.3-.42-.47-.53-.4-.12.07-.07.37.1.66Zm-12.27 2c-.11-.02-.15-.3-.07-.6.07-.31.22-.54.33-.52.12.03.15.3.08.61-.08.31-.23.54-.34.52Zm8.39-.45c.08.35.23.6.33.58.1-.03.12-.32.03-.67-.09-.34-.24-.6-.34-.58-.1.03-.11.33-.02.67ZM28.1 45c-.15.02-.3-.21-.32-.5-.04-.3.06-.56.2-.57.16-.02.3.2.33.5.04.3-.06.55-.2.57Z" fill="#E57B38"/><defs><linearGradient id="a" x1="28" y1="0" x2="28" y2="56" gradientUnits="userSpaceOnUse"><stop stop-color="#0E0403"/><stop offset="1" stop-color="#270B00"/></linearGradient></defs></svg>