<!-- by TradingView --><svg width="56" height="56" viewBox="0 0 56 56" xmlns="http://www.w3.org/2000/svg"><path fill="#F0F3FA" d="M0 0h56v56H0z"/><path d="M22.96 17.14c-1.7.38-3.31.94-4.85 1.66a13.86 13.86 0 0 0-3.51 2.31c-.66.6-1.34 1.44-2.02 2.5a14.19 14.19 0 0 1 3.59-6.3c.93-.96 2.02-1.86 3.26-2.7a13.3 13.3 0 0 1 6.07-1.95 64.2 64.2 0 0 1 6.51-.2h2.4c1.02-.02 2-.14 2.92-.37a3.4 3.4 0 0 0 1.82-1.07.04.04 0 0 1 .05-.02l.03.04c.29 1.18.33 2.24.12 3.18a3.4 3.4 0 0 1-1.86 2.47c-.66.33-1.43.52-2.3.6-.68.06-1.48.05-2.42-.03-.09 0-1-.12-2.7-.36-2.43-.33-4.8-.25-7.1.24Z" fill="#069EDB"/><path d="M12.58 23.61c.69-1.06 1.36-1.9 2.02-2.5.97-.9 2.14-1.67 3.51-2.31a23.58 23.58 0 0 1 4.86-1.66 12.9 12.9 0 0 0-5.12 4.82 10.74 10.74 0 0 0-1.37 6.86c.15 1.2.5 2.36 1.06 3.48a12.01 12.01 0 0 0 8.38 6.3c1.6.28 3.22.2 4.84-.23 1.54-.42 3-1.14 4.4-2.15a10.98 10.98 0 0 0 3.7-4.43c.78-1.8.97-3.72.54-5.77a11.68 11.68 0 0 0-1.55-3.76c-.7-1.14-1.57-2.2-2.61-3.19a.04.04 0 0 1-.01-.04c0-.02.02-.03.04-.03a6.43 6.43 0 0 0 4.56-2.05c.03-.03.06-.03.1 0a18.81 18.81 0 0 1 3 4.91 15.1 15.1 0 0 1 .35 10.18c-.94 2.9-2.56 5.31-4.86 7.23a16.03 16.03 0 0 1-7.93 3.53c-2.5.4-4.94.2-7.33-.57a16.6 16.6 0 0 1-6.34-3.77c-3.03-2.84-4.63-6.7-4.81-11.57-.02-.46 0-.96.08-1.51.04-.3.2-.9.5-1.77Z" fill="#0066B3"/><path d="M31.03 19.5a8.56 8.56 0 0 1 3.58 13.33A8.34 8.34 0 0 1 28 36a8.37 8.37 0 0 1-6.61-3.16 8.46 8.46 0 0 1 .27-11.03 8.5 8.5 0 0 1 3.3-2.3c.04-.02.07 0 .07.04v2.84c0 .09-.04.16-.1.2a5.73 5.73 0 0 0-2.63 4.12 5.77 5.77 0 0 0 5.7 6.54 5.74 5.74 0 0 0 5.68-6.54 5.7 5.7 0 0 0-2.63-4.12.22.22 0 0 1-.1-.2v-2.84c0-.05.02-.07.07-.05Zm-2.97-.5c.84 0 1.52.71 1.52 1.6v5.94c0 .88-.68 1.6-1.52 1.6h-.12c-.84 0-1.52-.72-1.52-1.6V20.6c0-.88.68-1.59 1.52-1.59h.12Z" fill="#ED1C24"/></svg>