<!-- by TradingView --><svg width="56" height="56" viewBox="0 0 56 56" xmlns="http://www.w3.org/2000/svg"><path fill="#F0F3FA" d="M0 0h56v56H0z"/><path d="M40.12 25.18c.9-.6 1.74-.62 2.74-.15.74.34 1.14 1.36 1.14 2.21v3.67c0 .06-.04.09-.09.09H42.1c-.06 0-.09-.03-.09-.1v-4.66c0-.35.04-.76-.27-.92-.44-.24-.72-.26-1.16-.04a4.8 4.8 0 0 0-1.56 1.1.1.1 0 0 0 .01.07l.03.02c.24.15.94.6.95.96v3.48c0 .06-.01.09-.06.09h-1.88l-.04-.02a.07.07 0 0 1-.02-.05v-8.84c0-.06.03-.1.08-.09.82.03 1.36.43 1.76 1.15.28.52.16 1.43.16 1.95 0 .1.05.13.12.08ZM46.93 31a2.12 2.12 0 0 1-1.83-1.22 1.2 1.2 0 0 1-.1-.52 1441.86 1441.86 0 0 1 .02-4.19.12.12 0 0 1 .12-.07c.98.05 1.84.77 1.85 1.78a177.54 177.54 0 0 1-.02 4.2.05.05 0 0 1-.04.02ZM5.85 31c-1-.16-1.82-.6-1.84-1.71a169.94 169.94 0 0 1 .01-4.24l.02-.03.03-.02a.1.1 0 0 1 .04 0c1.26.1 1.89.77 1.88 2L6 30.87c0 .1-.05.13-.15.12ZM35.33 29.7a.43.43 0 0 0-.17-.2c-.86-.54-1.79-1.03-2.6-1.62-.99-.72-.89-2.2.33-2.65a4.7 4.7 0 0 1 3.35.18c.02.01.03.03.02.05l-.01.03h-.02c-.26-.09-.53-.17-.79-.24a2.25 2.25 0 0 0-1.64.15c-.44.25-.51.85-.05 1.13.86.54 1.79 1.04 2.6 1.63.38.27.58.65.6 1.12.04 1.13-.9 1.63-1.92 1.7-.99.07-1.93-.1-2.83-.5l-.01-.01.02-.06c.01-.02.02-.03.05-.02l.9.3c.56.18 1.12.19 1.7.02.48-.14.66-.56.47-1ZM51.15 25.3c.69.34.86.99.85 1.72v3.9c0 .06-.03.09-.1.08-.92-.08-1.3-.44-1.76-1.18a.9.9 0 0 1-.14-.46v-4.24l.02-.05a.12.12 0 0 1 .13-.07c.34.04.67.14 1 .3ZM7 27a1 1 0 1 0 0-2 1 1 0 0 0 0 2ZM48 27a1 1 0 1 0 0-2 1 1 0 0 0 0 2Z" fill="#94B77B"/><path d="M51 24a1 1 0 1 0 0-2 1 1 0 0 0 0 2Z" fill="#E6755F"/><path fill-rule="evenodd" d="M14.73 29.15a2.63 2.63 0 0 0 0-2.3c-.17-.36-.43-.69-.75-.97a4.01 4.01 0 0 0-4.95 0c-.33.27-.59.6-.76.97a2.63 2.63 0 0 0 0 2.3c.17.36.43.69.75.97a4.01 4.01 0 0 0 4.95 0c.33-.27.59-.6.76-.97Zm-4.6.18c.12.72.44 1.29 1.17 1.49.95.25 1.59-1.2 1.67-1.98.1-1.04.02-3.84-1.6-3.67a1.5 1.5 0 0 0-1 .75 6.2 6.2 0 0 0-.25 3.4ZM22.73 29.16a2.63 2.63 0 0 0 0-2.3c-.17-.36-.42-.7-.75-.97-.32-.28-.7-.5-1.13-.66a4.01 4.01 0 0 0-3.82.64c-.32.28-.58.6-.76.97a2.63 2.63 0 0 0 0 2.3c.17.36.42.7.75.97.32.28.7.5 1.13.66a4.01 4.01 0 0 0 3.82-.64c.32-.28.58-.6.76-.97Zm-2.92 1.63c.8-.21 1.15-1.3 1.15-2.16.14-1.34-.05-3.5-1.5-3.46-.66.01-1.2.7-1.32 1.28-.2.98-.51 4.93 1.67 4.34ZM26.01 31.03a19.44 19.44 0 0 1 0-.22.06.06 0 0 1 .05-.04h.04c.83.36 2.04.23 2.86-.02 1.8-.55 2.54-2.53 1.69-4.22-.33-.64-1.17-1.15-1.83-1.34a4.28 4.28 0 0 0-3.47.41c-.18.12-.33.27-.48.42l-.23.22c-.47.42-.63 1.1-.64 1.72v5.47c0 .05.03.08.08.07.71 0 1.13-.3 1.6-.79.37-.4.35-1.13.33-1.68Zm-.07-.6c2.38.98 3.27-1.7 3.15-3.26 0-.63-.48-1.72-1.13-1.94-1.54-.52-2 1.63-1.96 2.72v.1c.02.38.04.96-.28 1.17-.19.12-.39.24-.6.34-.06.03-.07.08-.04.14.16.3.39.44.64.59l.22.13Z" fill="#94B77B"/><path d="M39.77 33.5v.06c-.02.07.01.1.08.1.26 0 .52.02.77.05.21.02.23.1.06.21a13.9 13.9 0 0 1-1.28 0 .07.07 0 0 1-.03-.03v-1.32c0-.02 0-.04.02-.06a5.93 5.93 0 0 1 1.3.03l.03.03c.02.04.02.07 0 .1a.27.27 0 0 1-.11.1.3.3 0 0 1-.15.02 3.33 3.33 0 0 0-.65.01.09.09 0 0 0-.04.05.1.1 0 0 0 0 .04v.05c.02.1.07.14.15.14h.56c.07 0 .1.04.1.11v.06c0 .08-.03.11-.1.11h-.54c-.1 0-.15.05-.17.15ZM41.98 32.92l.62.22c.43.15.39.73-.05.8-.27.05-.54.04-.81-.03a.2.2 0 0 1-.15-.14.1.1 0 0 1 0-.05c.02-.09.07-.12.15-.1.25.08.5.1.76.08a.1.1 0 0 0 .06-.04.1.1 0 0 0 .02-.07c0-.07-.03-.11-.1-.13-.17-.05-.36-.1-.57-.14-.3-.07-.4-.4-.26-.65a.21.21 0 0 1 .12-.1c.35-.13.7-.12 1.02 0a.1.1 0 0 1 .07.08c.01.07 0 .11-.04.13a.25.25 0 0 1-.22.02.72.72 0 0 0-.63.02c-.07.04-.07.08.01.1ZM49.05 32.76h-.52l-.03-.01-.01-.01-.02-.03v-.02l.03-.14.01-.04.04-.01h1.33l.02.04.01.15a.06.06 0 0 1 0 .04.05.05 0 0 1-.05.02l-.38.02-.03.02-.02.04-.02 1.06v.02a.06.06 0 0 1-.04.03h-.22l-.03-.01a.06.06 0 0 1-.02-.04v-1.07l-.01-.04a.05.05 0 0 0-.04-.02ZM51.62 33.5c-.29-.23-.7-.02-.91-.43a.38.38 0 0 1 .08-.45.34.34 0 0 1 .14-.07c.34-.1.66-.09.95.02l.04.03v.1a.13.13 0 0 1-.05.1.11.11 0 0 1-.1 0c-.27-.1-.5-.1-.69-.03-.23.1-.23.18.02.23l.56.14c.43.14.43.72-.02.8-.25.05-.51.04-.8-.02a.25.25 0 0 1-.15-.1.14.14 0 0 1 0-.15c.02-.06.07-.08.13-.06.3.12.56.14.78.06.11-.04.12-.1.02-.18ZM37.5 33.73l.01-.24a.18.18 0 0 1 .09-.05.2.2 0 0 1 .1 0c.04.01.07.03.1.06l.07.1c.1.26.28.38.53.35.12-.02.13-.06.03-.13-.26-.19-.3-.37-.13-.54l.2-.21a.1.1 0 0 0 .02-.13c-.25-.5-.66-.48-1.1-.46l-.22.01c-.1 0-.16.06-.16.17l.01 1.12c0 .12.06.18.17.18h.09c.14 0 .2-.08.2-.23Zm.6-.76c-.01.1-.15.18-.32.18-.18 0-.32-.09-.31-.2 0-.1.14-.18.31-.17.17 0 .31.09.31.19ZM45.39 33.51a.72.72 0 0 0-.2-.84.93.93 0 0 0-1.2.02.78.78 0 0 0-.19.25.71.71 0 0 0 .2.84.93.93 0 0 0 1.2-.02.78.78 0 0 0 .19-.25Zm-.36-.28c0 .26-.2.47-.44.47a.45.45 0 0 1-.44-.47c0-.25.2-.46.44-.46.25 0 .44.2.44.46ZM47.71 33.77a.48.48 0 0 1-.25-.2.17.17 0 0 1 .02-.2.6.6 0 0 1 .18-.14.26.26 0 0 0 .09-.08.28.28 0 0 0 .04-.24.28.28 0 0 0-.05-.1c-.31-.4-.84-.35-1.28-.32h-.05a.12.12 0 0 0-.08.05.13.13 0 0 0-.03.08v1.2c0 .03.02.06.04.08.02.03.05.04.08.04l.25.02c.06 0 .09-.02.09-.08v-.27c0-.04 0-.07.02-.1a.17.17 0 0 1 .07-.06.16.16 0 0 1 .18.02c.08.08.14.17.17.28.02.05.04.1.09.12.12.1.26.11.42.07.16-.06.16-.11 0-.17Zm-.35-.8c0 .11-.15.2-.33.19-.18 0-.33-.1-.33-.2s.16-.19.34-.18c.18 0 .32.09.32.2ZM4.64 33.05h18.38c.06 0 .12.02.17.07.04.04.07.1.07.18l.02.35a.28.28 0 0 1-.07.2.25.25 0 0 1-.18.08H4.26a.24.24 0 0 1-.14-.05.26.26 0 0 1-.1-.13.28.28 0 0 1 .08-.29l.38-.35c.04-.04.1-.06.16-.06ZM26.52 33.05h9.6l.02.01.02.03.02.78v.02a.05.05 0 0 1-.04.03H25.99l-.02-.02a.05.05 0 0 1 0-.05l.51-.78.02-.02h.02Z" fill="#E6755F"/></svg>