<!-- by TradingView --><svg width="56" height="56" viewBox="0 0 56 56" xmlns="http://www.w3.org/2000/svg"><path fill="#F0F3FA" d="M0 0h56v56H0z"/><path d="M27.13 24.7c-2.71.45-5.01 1.8-6.9 4.03-.18-3.53.36-6.88 3.46-9.09 1.34-.95 3.48-1.8 5.37-2.4a38.62 38.62 0 0 0 4.44-1.68c3-1.38 4.14-3.6 5.12-6.49l.05-.06a.13.13 0 0 1 .15 0l.05.06c.7 2.08 1.07 4.22 1.13 6.43.13 5.33-3.83 7.19-8.6 8.15-1.6.32-3.01.67-4.27 1.05Z" fill="#EDDD29"/><path d="M32.02 14.72c1.83-1.1 2.62-3.05 1.77-4.36-.84-1.3-3-1.47-4.83-.37-1.82 1.1-2.62 3.05-1.77 4.35.85 1.3 3.01 1.47 4.83.38ZM27.13 24.7c2.84.24 6.03.28 8.17 2.17.44.39.6.81.46 1.28-1.81 2.11-4.01 3.43-6.6 3.96-2.96-.03-6.75-.4-8.5-2.22-.37-.4-.52-.78-.42-1.16a11.21 11.21 0 0 1 6.9-4.03Z" fill="#94BF49"/><path d="M35.76 28.15c.57 5.52-1.74 9.13-6.94 10.84-5.27 1.74-10.04 2.92-11.4 8.96 0 .01 0 .03-.02.03a.07.07 0 0 1-.08 0 .07.07 0 0 1-.03-.02c-1.45-4.15-2.69-10.32 2.22-12.98 1.04-.57 2.2-1 3.45-1.27 2.05-.45 4.12-.99 6.2-1.6a11.48 11.48 0 0 0 6.6-3.96Z" fill="#EDDD29"/></svg>