<!-- by TradingView --><svg width="18" height="18" viewBox="0 0 18 18" xmlns="http://www.w3.org/2000/svg"><path fill="#F0F3FA" d="M0 0h18v18H0z"/><path d="M3.01 6c3.45 0 6.9.02 10.34 0C14.2 6 15 6.83 15 7.7V12H4.68C3.75 12 3 11.14 3 10.23V6h.01Zm5.4 1v3.14H8V8.4C7.94 7.66 7.7 7 6.74 7H4v4h1V8h1.64c.21.02.36.08.36.32v2.67h5.91c.6 0 1-.57 1.09-1.08a1.27 1.27 0 0 0-.97-1.35l-.2-.02h-2.09c-.43 0-.32-.54-.06-.54h2.14V7h-1.98c-.7 0-1.3.5-1.3 1.2v.14c.04.53.5 1.12 1.1 1.12h2.19c.08.03.12.04.17.1.25.25 0 .44-.25.44H9.29V7h-.88Z"/></svg>