<!-- by TradingView --><svg width="18" height="18" viewBox="0 0 18 18" xmlns="http://www.w3.org/2000/svg"><path fill="#F0F3FA" d="M0 0h18v18H0z"/><path d="M4.28 6 6 9.67 7.72 6h1.09c-.42.26-.7.76-.7 1.34 0 .57.28 1.07.7 1.32-.57.3-1.01.93-1.01 1.66 0 .73.64 1.39 1.2 1.68H7.5V9.35l-1.08 2.32h-.87L4.5 9.35V12H3V6h1.28Z" fill="#2C2C2D"/><path d="M10.8 10.6 9.6 9.33c-.2.14-.6.49-.6.84 0 .43.4.83.96.83.45 0 .75-.27.84-.4ZM10.34 7.39c0 .57-.59.94-.59.94s-.59-.38-.59-.94c0-.4.26-.72.59-.72.33 0 .59.32.59.72ZM13.34 6a1.44 1.44 0 0 1 .55 2.77 1.66 1.66 0 0 1-.42 3.22l-.9-.99h.56a.67.67 0 0 0 0-1.33H12v.7l-1.5-1.64c.52-.24.9-.8.9-1.46 0-.53-.25-1-.62-1.27h2.56ZM12 8h1a.5.5 0 0 0 0-1h-1v1Z" fill="#FA623A"/></svg>