<!-- by TradingView --><svg width="18" height="18" viewBox="0 0 18 18" xmlns="http://www.w3.org/2000/svg"><path fill="#F0F3FA" d="M0 0h18v18H0z"/><circle cx="12" cy="7" r="2" fill="#FEB615"/><path d="M5 7.4h5.02V8H5.59A.6.6 0 0 1 5 7.4Z" fill="#0171A7"/><path d="m12.02 6-2 2v-.6l2-1.4Z" fill="#0084B3"/><path d="M5 8.4h5.02V9H5.59A.6.6 0 0 1 5 8.4ZM5 9.4h5.02v.6H5.59A.6.6 0 0 1 5 9.4ZM5 10.4h5.02v.6H5.59a.6.6 0 0 1-.59-.6ZM5 11.4h5.02v.6H5.59a.6.6 0 0 1-.59-.6ZM5 12.4h5.02v.6H5.59a.6.6 0 0 1-.59-.6Z" fill="#0171A7"/><path d="m12.02 7-2 2v-.6l2-1.4ZM12.02 8l-2 2v-.6l2-1.4ZM12.02 9l-2 2v-.6l2-1.4ZM12.02 10l-2 2v-.6l2-1.4ZM12.02 11l-2 2v-.6l2-1.4Z" fill="#0084B3"/></svg>