<!-- by TradingView --><svg width="18" height="18" viewBox="0 0 18 18" xmlns="http://www.w3.org/2000/svg"><path fill="#F0F3FA" d="M0 0h18v18H0z"/><path d="M4 9c0-.57.12-1.03.18-1.31l.46-.5c.34-.21.94-.52.59-.1-.35.42-.45 1.45-.45 1.92 0 .46.1 1.5.45 1.91.35.42-.25.11-.6-.1l-.45-.5C4.12 10.04 4 9.58 4 9.01ZM5.57 9c0-1.14.7-2.1 1.04-2.46.14-.16 2.54-.69 2.54-.39A3.14 3.14 0 0 0 6.35 9c0 .74.73 2.66 2.8 2.9 0 .3-2.4-.23-2.54-.4A4.02 4.02 0 0 1 5.57 9Z"/><path d="M9.24 4c-1.84 0-3.1.85-3.5 1.27.5-.2 1.83-.68 3.2-.68 2.83 0 4.32 1.95 4.32 2.22 0 .28-.2.43-.48.43-.28 0-.26-.13-.65-.5a4.22 4.22 0 0 0-3.12-1.27c-3.24 0-4.68 1.5-4.83 2.22a9.4 9.4 0 0 1 4.94-1.5c1.1 0 1.99.42 2.45 1.02.46.6.73.77 1.21.77.95 0 1.22-.9 1.22-1.1 0-.2-.1-.39-.23-.59A5.3 5.3 0 0 0 9.24 4ZM9.24 14c-1.84 0-3.1-.85-3.5-1.27.5.2 1.84.68 3.21.68 2.84 0 4.3-1.95 4.3-2.22 0-.28-.18-.43-.46-.43s-.27.13-.66.5a4.23 4.23 0 0 1-3.12 1.27c-3.25 0-4.68-1.5-4.83-2.22A9.33 9.33 0 0 0 9.1 11.8c1.1 0 2-.4 2.46-1 .46-.6.74-.77 1.22-.77.95 0 1.21.9 1.21 1.1 0 .2-.1.39-.23.59A5.3 5.3 0 0 1 9.24 14Z" fill="#3E3C3D"/><path d="M9.5 7c.1.21.36.7.6.96.31.32.9.94.9 1.6 0 1.17-1 1.45-1.5 1.44C9 11 8 10.73 8 9.57c0-.67.59-1.29.9-1.61.24-.26.5-.75.6-.96Zm0 1c.07.44.9 1.3.9 1.83 0 .43-.35.86-.53 1.03.58-.12.83-.74.83-1.03 0-.29-.13-.6-.42-.94L9.5 8Zm-.6 1.86a.3.3 0 0 0-.3.28c0 .16.13.29.3.29a.3.3 0 0 0 .3-.29.3.3 0 0 0-.3-.28Z" fill="url(#a)"/><defs><linearGradient id="a" x1="10.02" y1="7.57" x2="8.7" y2="10.9" gradientUnits="userSpaceOnUse"><stop stop-color="#9F1C20"/><stop offset=".72" stop-color="#DF6A23"/><stop offset="1" stop-color="#CB5421"/></linearGradient></defs></svg>