<!-- by TradingView --><svg width="18" height="18" viewBox="0 0 18 18" xmlns="http://www.w3.org/2000/svg"><path fill="#F0F3FA" d="M0 0h18v18H0z"/><path d="M11.18 11.44c-.02-.1-.01-.2 0-.31l.04-.31a1.22 1.22 0 0 0-.3-.79 1275.72 1275.72 0 0 0-4.5-4.72c-1.02-1.05 0-2.78 1.37-2.19.14.06.32.22.57.47l4.07 4.27c.27.3.43.5.49.64.1.3.1.6 0 .92-.06.21-.18.42-.37.62-.43.46-.9.93-1.37 1.4Z" fill="#273894"/><path d="m11.18 11.44-.27.28-2.54 2.68c-.26.27-.43.43-.53.47a1.3 1.3 0 0 1-1.73-1.7c.07-.17.24-.4.5-.68L9.94 9c.53.54.86.88.98 1.02a1.22 1.22 0 0 1 .27 1.1c-.02.1-.03.2-.01.3Z" fill="#CFDC2A"/></svg>