<!-- by TradingView --><svg width="18" height="18" viewBox="0 0 18 18" xmlns="http://www.w3.org/2000/svg"><path fill="#F0F3FA" d="M0 0h18v18H0z"/><path d="M14 10.16v.32c0 .06-.02.1-.05.13l-.03.02-.07.01h-.01l-.03.03h-.02v-.56l-.01-.03-4.8-7.81-4.8 7.8v2.34a9.1 9.1 0 0 1-.02-.17 37.35 37.35 0 0 1-.06-1.5.3.3 0 0 0-.01-.09h-.01l-.02-.01c-.02 0-.05.07-.06.1v-.59l.01-.03L9 2A.01.01 0 0 1 9 2L14 10.16Z" fill="#2E2F2E" fill-opacity=".5"/><path d="M13.45 10H4.52l4.46-7.13L13.46 10Z" fill="#EB2629"/><path d="M9.98 6.78c-.1-.01-.2-.05-.24-.06a2.61 2.61 0 0 0-1.62.05.2.2 0 0 1-.04 0l-.3-.84-.14-.02a.11.11 0 0 1-.07-.05c-.08-.1-.02-.23.11-.26.08-.01.14 0 .19.06l.04.08c0 .06-.04.1-.05.14a.03.03 0 0 0 0 .04l.14.12c.2.16.47.24.71.12a.7.7 0 0 0 .3-.28.02.02 0 0 0 0-.02l-.06-.04a.1.1 0 0 1-.02-.02c-.06-.1-.01-.2.1-.24.2-.07.36.18.14.3v.02c0 .02 0 .04.02.06.06.11.15.2.27.25.23.1.51-.06.67-.23-.03-.06-.06-.1-.06-.14 0-.06.06-.12.12-.14.14-.06.32.08.24.23-.04.07-.14.08-.22.08L10.2 6l-.21.77-.01.01Z" fill="#D7B56D"/><path d="M8.2 8.54c.06-.2.08-.43.08-.64a3.74 3.74 0 0 0-.14-1.01 2.57 2.57 0 0 1 1.35-.13c.15.02.31.08.43.18.14.13.22.32.18.51-.04.27-.34.47-.59.55a13.7 13.7 0 0 1-.22.08c.08.1.2.21.23.26.04.07.1.18.17.26h.01l.06-.01c.23-.1.5-.17.74-.13.19.03.37.12.47.28.08.13.06.3-.02.43-.13.23-.38.3-.65.27a1.3 1.3 0 0 1-.66-.3 16.06 16.06 0 0 1-.21-.17 3.28 3.28 0 0 0-.37.33 2.6 2.6 0 0 0 .46.37.3.3 0 0 0 .21.05c.1-.02.2-.03.28-.01.1.02.16.11.11.2-.05.08-.16.1-.25.1a.87.87 0 0 1-.3-.1 2.5 2.5 0 0 1-.65-.49.02.02 0 0 0-.02 0 6.59 6.59 0 0 1-.36.3.81.81 0 0 1-.54.2c-.07 0-.16-.03-.2-.1-.03-.09-.02-.21.09-.24a23.38 23.38 0 0 0 .36 0c.12 0 .23-.04.33-.1a1.16 1.16 0 0 0 .21-.17c-.03-.06-.07-.09-.11-.13a2.7 2.7 0 0 0-.36-.31.01.01 0 0 0-.01 0l-.08.1c-.23.28-.65.46-1 .26a.37.37 0 0 1-.19-.4c.04-.16.17-.3.33-.36a.8.8 0 0 1 .56-.02l.18.07a.3.3 0 0 0 .08.02Z" fill="#D7B56D"/><path d="M8.66 7.92a19.02 19.02 0 0 1 .03-.62A1.98 1.98 0 0 1 8.7 7a.4.4 0 0 1 .1-.03c.12-.03.27-.04.42-.02.26.04.48.24.39.5-.06.17-.24.3-.41.37a1.5 1.5 0 0 1-.54.1v-.01ZM8.94 9.19a8.36 8.36 0 0 1-.53-.5c.03-.1.1-.22.13-.33a13.03 13.03 0 0 1 .08-.22c.1 0 .2.08.27.15l.18.2c.06.1.14.2.24.32.02.02.02.05 0 .07l-.1.08-.27.23ZM8.12 8.72l-.02.08c-.1.16-.28.3-.48.3-.14.01-.26-.06-.3-.2a.26.26 0 0 1 .14-.28.4.4 0 0 1 .2-.06.77.77 0 0 1 .46.16ZM9.8 8.74a.32.32 0 0 1 .1-.06c.17-.06.35-.08.54-.08.14 0 .31.06.38.19.08.16 0 .34-.17.41-.19.08-.43 0-.58-.14a1.21 1.21 0 0 1-.28-.32Z" fill="#EB2629"/><path d="M13.47 12.12H4.5A571.11 571.11 0 0 1 4.52 10h8.93l.01.03v2.09Z" fill="#D7B56D"/><path d="M11.64 11.22h.91v.05l-.19.05c-.02 0-.02.02-.02.05a29.17 29.17 0 0 0-.02.58c-.34.07-.7.1-1.04.02a1.07 1.07 0 0 1-.67-.39.73.73 0 0 1-.13-.4c0-.35.14-.6.44-.78.26-.14.57-.18.88-.17a3.02 3.02 0 0 1 .49.06l-.1.41-.08.02v-.01l-.1-.32H12v-.01a1 1 0 0 0-.66.05c-.35.17-.4.6-.33.93.06.27.25.48.54.53a1.08 1.08 0 0 0 .34 0v-.52c0-.03-.02-.04-.05-.05a355.27 355.27 0 0 1-.2-.05v-.05ZM6.97 11.97H6.1v-.05a.01.01 0 0 1 0-.01l.2-.05c.02 0 .03-.02.03-.04a139.6 139.6 0 0 0 0-1.44l-.03-.01-.2-.05V10.25h1.03c.25 0 .66.05.7.37.02.29-.2.43-.46.5.14.17.28.38.4.54.06.07.12.15.2.19.05.02.05.04.11.05h.02l.2-.05c.04 0 .04-.04.04-.07v-1.36c0-.06-.03-.06-.09-.07a19.35 19.35 0 0 1-.15-.05v-.05h.8c.37-.02.88-.01 1.15.27.19.19.22.47.16.72-.09.46-.5.68-.96.72H8.08c-.14.02-.23.03-.37.02a.4.4 0 0 1-.3-.13 12.52 12.52 0 0 0-.5-.66c-.03-.02-.08-.02-.12-.02v.64c0 .03 0 .04.04.05a14.64 14.64 0 0 1 .15.05v.04Z" fill="#2B2A29"/><path d="M6.78 11.06v-.68c.3-.03.56-.01.56.34 0 .34-.27.37-.55.35v-.01ZM8.79 10.38h.33c.28 0 .5.13.57.4.06.22.06.44 0 .66a.54.54 0 0 1-.27.34.77.77 0 0 1-.37.08 1.94 1.94 0 0 1-.26-.02v-1.46Z" fill="#D7B56D"/><path d="M14 10.48v2.7-.1l-.01-.01c-.12-.01-.16.03-.2.13v-2.54l.01.01.04-.02.01-.01.07-.01.03-.02a.18.18 0 0 0 .05-.13ZM4.17 12.4V13l-.01.02h-.01l-.02-.07h-.01c-.04.03-.06 0-.08.02A.09.09 0 0 0 4 13v-2.27c0-.03.04-.1.06-.1h.02v.01a9.08 9.08 0 0 0 .09 1.76Z" fill="#1C321A" fill-opacity=".5"/><path d="M13.47 12v1H4.5v-1h8.96Z" fill="#2B2A29"/><path d="M4.17 12.99v.52H7.6l1.39 1.25 1.4-1.24h3.4v-.01h.01v-.3c.04-.1.08-.15.2-.14l.01.1v.52a8844.39 8844.39 0 0 1-3.56.02C9.59 14.5 9.12 14.9 9 15L9 15h-.01L7.56 13.7A8415.93 8415.93 0 0 1 4 13.68v-.67c0-.02.02-.04.04-.05.02-.02.04.01.07-.02h.02l.02.07.02-.02Z" fill="#2E2F2E" fill-opacity=".5"/><path fill="#D9D9D9" d="M7 12.3h4v.44H7z"/><path d="M10.33 13v.01l-1.35 1.3v.01L7.64 13h2.69Z" fill="#EB2629"/></svg>