<!-- by TradingView --><svg width="18" height="18" viewBox="0 0 18 18" xmlns="http://www.w3.org/2000/svg"><path fill="#F0F3FA" d="M0 0h18v18H0z"/><path d="m10.62 4.4-.25.17-.42.22a.76.76 0 0 0-.27.15l-.4.21-.27.16-.4.22-.27.15-.4.22-.27.15-.42.23-.25.14-.4.23-.28.15-.4.22-.25.15V10.8c0 .01 0 .02.02.03l3.28 1.82a.7.7 0 0 0 .29-.15l.4-.22c.12-.05.22-.1.27-.16l.38-.2.28-.16.4-.22.27-.16.4-.2.28-.17.39-.21.28-.16.38-.22.3-.16.38-.22.32-.17a.1.1 0 0 0 0 .04V11.76l-4.96 2.72a.16.16 0 0 1-.15 0l-4.86-2.73H4V6.26a.07.07 0 0 1 .04-.06l4.9-2.7a.12.12 0 0 1 .1 0l1.58.9Z" fill="#1B468C"/><path d="M10.62 4.4c1.1.62 2.2 1.2 3.29 1.83h.04l.04.05.01.03a970.93 970.93 0 0 0-.01 3.57l-.32.17V6.48a.09.09 0 0 0-.05-.07l-3.25-1.84.25-.17ZM9.29 5.15l.54.31a.05.05 0 0 1 .02.04.04.04 0 0 1-.02.04l-.13.08a.13.13 0 0 1-.13 0l-.56-.31.28-.16ZM8.61 5.53l.63.35-.23.17h-.03l-.64-.37.27-.15Z" fill="#F1BD1A"/><path d="m12.18 5.89-.98.55a.02.02 0 0 1-.02 0l-1.21-.68h-.01a.02.02 0 0 1 0-.04l.3-.17a.02.02 0 0 1 .03 0l.97.55a.02.02 0 0 0 .03 0l.66-.37a.02.02 0 0 1 .02 0l.2.12h.02a.02.02 0 0 1 0 .03h-.01Z" fill="#1B468C"/><path d="m7.94 5.9.6.33a.05.05 0 0 1 .02.04.04.04 0 0 1-.02.04l-.12.08a.13.13 0 0 1-.14 0l-.6-.34.26-.15ZM13.33 10.25l-.33.18v-3.6a.05.05 0 0 0-.03-.04l-.92-.52-.02-.01v-.02a.03.03 0 0 1 .01-.03l.16-.1a.12.12 0 0 1 .13 0l.96.49a.08.08 0 0 1 .04.06v3.59Z" fill="#F1BD1A"/><path fill-rule="evenodd" d="M9.35 6.1a10.46 10.46 0 0 0-.77.49l1.17.66a.13.13 0 0 0 .12 0l.22-.12.02-.02a.04.04 0 0 0 0-.05l-.02-.01-.34-.19-.01-.01a.04.04 0 0 1 .01-.06h.02c.19-.1.52-.28.57-.44.04-.13-.02-.23-.16-.3a.89.89 0 0 0-.83.05Zm-.19.44.26.14a.1.1 0 0 0 .1 0l.36-.25a.1.1 0 0 0 .04-.08l-.01-.05a.1.1 0 0 0-.04-.03c-.2-.1-.42.03-.64.17l-.07.04-.01.02a.03.03 0 0 0 .01.04Z" fill="#1B468C"/><path d="m7.25 6.28.66.35.01.02a.04.04 0 0 1-.01.05l-.14.08a.14.14 0 0 1-.14 0L7 6.42l.25-.14ZM12.67 10.63l-.34.18V7.2l-.01-.02-.02-.02-.93-.52a.01.01 0 0 1 0-.01l.22-.16h.05l.99.5.03.03v3.63Z" fill="#F1BD1A"/><path d="m12 10.99-.34.2V7.55a.02.02 0 0 0-.02-.02l-1.34-.75-.01-.01v-.04l.15-.14a.06.06 0 0 1 .07 0l1.45.74.03.03v.04L12 11ZM6.6 6.65l.63.35a.06.06 0 0 1 .03.05v.02l-.03.03-.1.06a.16.16 0 0 1-.16 0l-.65-.36.28-.15ZM5.93 7.02l3.38 1.8.03.04V12.48a.95.95 0 0 1-.34.18V9.07s0-.02-.02-.03c0 0 0-.02-.02-.02l-3.3-1.85.27-.15Z" fill="#F1BD1A"/><path fill-rule="evenodd" d="M7.96 6.94a10.57 10.57 0 0 0-.78.48l.01.01 1.17.66a.13.13 0 0 0 .12 0l.22-.13.01-.01a.05.05 0 0 0-.01-.07l-.34-.18-.01-.02a.04.04 0 0 1 .01-.05l.02-.01c.19-.1.52-.28.57-.44.04-.13-.02-.23-.16-.3a.89.89 0 0 0-.83.06Zm-.2.43.26.14a.1.1 0 0 0 .1 0l.37-.25a.1.1 0 0 0-.01-.16c-.2-.1-.43.03-.64.17a8.84 8.84 0 0 1-.1.08l.01.01.01.01Z" fill="#1B468C"/><path d="m11.34 11.37-.34.18-.02-3.61a.04.04 0 0 0-.02-.03l-.85-.48v-.01a.03.03 0 0 1 0-.04l.18-.12a.06.06 0 0 1 .06 0l.97.46a.04.04 0 0 1 .02.04v3.6Z" fill="#F1BD1A"/><path d="m10.67 11.75-.34.17V8.3l-.02-.01-1.3-.73A.03.03 0 0 1 9 7.52a.03.03 0 0 1 0-.02l.16-.16a.03.03 0 0 1 .04 0l1.44.77.02.02v3.63Z" fill="#F1BD1A"/><path d="M10 12.1c-.05.05-.2.14-.33.19V8.67l-.01-.01-.8-.45a.04.04 0 0 1-.02-.03.04.04 0 0 1 .02-.04l.13-.1a.13.13 0 0 1 .14 0l.84.42.02.02.01.04v3.58Z" fill="#F1BD1A"/></svg>