<!-- by TradingView --><svg width="56" height="56" viewBox="0 0 56 56" xmlns="http://www.w3.org/2000/svg"><path fill="#F0F3FA" d="M0 0h56v56H0z"/><path fill-rule="evenodd" d="M28.44 44.79c.43 0 .86-.03 1.27-.1C37.74 43.83 44 36.87 44 28.4c0-5.26-2.42-9.94-6.18-12.94A15.6 15.6 0 0 0 28 12c-8.84 0-16 7.34-16 16.4 0 9.05 7.16 16.39 16 16.39V45h.35v-.21h.1Zm8-28.5c.56-.16 1-.33 1.33-.47.87.71 1.67 1.52 2.38 2.4-.46.25-1.11.54-1.95.84a16.1 16.1 0 0 0-1.75-2.76Zm1.9 3.06c.86-.31 1.54-.61 2-.87.75.97 1.38 2.03 1.9 3.16-.59.32-1.48.72-2.65 1.13a19.35 19.35 0 0 0-1.25-3.42Zm1.33 3.73c1.18-.4 2.09-.82 2.7-1.15a16.37 16.37 0 0 1 0 12.89 18 18 0 0 0-2.69-1.16 22.13 22.13 0 0 0-.01-10.58Zm-.3 10.48a21.82 21.82 0 0 0 0-10.38 33.2 33.2 0 0 1-4.6 1.16 40.38 40.38 0 0 1 0 8.06c1.8.32 3.34.74 4.6 1.16Zm-4.63-.84c1.78.32 3.31.73 4.56 1.15a19.06 19.06 0 0 1-1.24 3.42 28.04 28.04 0 0 0-3.9-1.01c.25-1.12.44-2.31.58-3.56Zm-.32-.06c-1.8-.3-3.83-.52-6.07-.56v3.6c2.04.03 3.88.23 5.5.52.24-1.11.43-2.3.57-3.56Zm.03-.32c-1.8-.3-3.85-.52-6.1-.56v-6.82c2.25-.04 4.3-.25 6.1-.56a40.05 40.05 0 0 1 0 7.94ZM28 31.78v-6.82h-.26c-1.96 0-3.74-.16-5.32-.43a40.14 40.14 0 0 0 0 7.68 32.15 32.15 0 0 1 5.58-.43Zm-5.9.48a40.44 40.44 0 0 1 0-7.78c-1.8-.32-3.33-.78-4.59-1.26a21.82 21.82 0 0 0-.01 10.3c1.26-.48 2.8-.93 4.6-1.26Zm-4.52 1.58c1.24-.48 2.76-.94 4.56-1.26.13 1.27.32 2.47.56 3.6-1.53.29-2.82.68-3.87 1.1a19.07 19.07 0 0 1-1.25-3.44Zm-.38-.2a22.14 22.14 0 0 1 .01-10.54 13.26 13.26 0 0 1-3.29-1.8 16.34 16.34 0 0 0-1.6 7.1c0 2.53.57 4.92 1.59 7.05.6-.5 1.72-1.18 3.29-1.8Zm-3.15 2.1a12.5 12.5 0 0 1 3.23-1.79c.32 1.23.74 2.39 1.25 3.45-1.17.5-2 1-2.49 1.4a16.13 16.13 0 0 1-1.99-3.06Zm2.2 3.3c.74.86 1.58 1.64 2.49 2.33l-.03-.04c.33-.23.91-.54 1.73-.84a16.11 16.11 0 0 1-1.77-2.8c-1.15.48-1.96.98-2.42 1.35Zm2.72-1.47a16.1 16.1 0 0 0 1.78 2.8c.8-.26 1.78-.52 2.95-.72-.36-.96-.67-2.02-.93-3.17a21 21 0 0 0-3.8 1.1Zm4.11-1.14c.27 1.15.58 2.21.94 3.16 1.16-.18 2.5-.3 3.98-.3v-3.27h-.15c-1.77 0-3.36.16-4.77.4ZM28 35.7v-3.6h-.26c-1.96 0-3.72.16-5.29.43.13 1.26.32 2.46.57 3.59A27.63 27.63 0 0 1 28 35.7Zm.35.33c2.01.02 3.83.22 5.43.5a23.55 23.55 0 0 1-.94 3.12c-1.3-.2-2.82-.34-4.49-.35v-3.27Zm0 3.59c1.63.01 3.1.14 4.37.33-.37.93-.79 1.73-1.23 2.4a22.8 22.8 0 0 0-3.14-.25v-2.48Zm-.35 0c-1.44 0-2.73.1-3.86.28.37.93.79 1.74 1.23 2.4.76-.11 1.64-.19 2.63-.2v-2.48Zm0 2.8c-.9 0-1.72.08-2.43.18.19.25.38.48.57.68.6.64 1.23 1.03 1.86 1.15v-2Zm-2.97-.06c-.44-.68-.85-1.5-1.21-2.41-1.13.19-2.08.44-2.85.7.71.83 1.5 1.56 2.33 2.14.46-.16 1.04-.3 1.73-.43Zm-1.39.65c.44-.13.96-.25 1.58-.36a5.84 5.84 0 0 0 1.68 1.68A9.17 9.17 0 0 1 23.64 43Zm-.7-.1c-.83-.59-1.6-1.32-2.3-2.16-.77.29-1.34.57-1.67.79 1 .72 2.07 1.32 3.22 1.8l-.03-.06c.17-.1.43-.23.77-.36Zm-.44.54c.18-.09.43-.2.75-.3.7.46 1.42.83 2.18 1.1a15.27 15.27 0 0 1-2.93-.8Zm5.85-1.03c1.1.01 2.09.1 2.93.22-.17.23-.35.45-.53.64a3.4 3.4 0 0 1-2.03 1.17l-.37.02v-2.05Zm3.29.27a5.8 5.8 0 0 1-1.65 1.64 9.17 9.17 0 0 0 3.25-1.31c-.44-.12-.98-.23-1.6-.33Zm2 .44c-.35.24-.72.46-1.1.66.5-.16.99-.34 1.47-.54l-.36-.12Zm.79-.07-.45-.16c.82-.6 1.59-1.33 2.28-2.18.52.16.95.31 1.27.44-.96.75-2 1.4-3.1 1.9Zm3.38-2.12c.87-.72 1.66-1.53 2.36-2.41-.45-.25-1.1-.54-1.95-.84a16.14 16.14 0 0 1-1.74 2.77c.56.17 1 .34 1.33.48Zm-1.66-.58a14.5 14.5 0 0 0 1.76-2.78c-1.03-.35-2.32-.7-3.82-.99a24.02 24.02 0 0 1-.92 3.1c1.17.2 2.18.43 2.98.67Zm-3.1-.36a13.7 13.7 0 0 1-1.21 2.4c.7.12 1.29.25 1.75.38.84-.58 1.63-1.3 2.34-2.15-.78-.23-1.75-.45-2.88-.63Zm5.31-2.6c.5-1.06.92-2.21 1.24-3.43 1.18.41 2.07.82 2.65 1.14a16.15 16.15 0 0 1-1.88 3.16c-.46-.25-1.14-.56-2.01-.87ZM17.29 22.79a12.6 12.6 0 0 1-3.22-1.78c.55-1.1 1.22-2.11 2-3.04.49.39 1.32.89 2.48 1.37a19.36 19.36 0 0 0-1.26 3.45Zm1.4-3.73a10.7 10.7 0 0 1-2.42-1.34c.74-.85 1.56-1.62 2.46-2.3.34.24.92.54 1.74.84-.67.83-1.27 1.77-1.78 2.8ZM20.68 16a8.8 8.8 0 0 1-1.68-.77c.98-.7 2.05-1.3 3.17-1.76.18.1.44.23.8.37-.82.6-1.6 1.32-2.3 2.16Zm2.62-2.38a6.3 6.3 0 0 1-.74-.3c.92-.35 1.88-.62 2.87-.79-.74.27-1.45.64-2.13 1.09Zm1.95.47c-.6-.1-1.12-.22-1.56-.35 1-.63 2.08-1.07 3.2-1.28a5.8 5.8 0 0 0-1.64 1.63Zm2.75.23c-.9 0-1.7-.07-2.4-.17.18-.24.36-.45.54-.64A3.54 3.54 0 0 1 28 12.36v1.96Zm3.25-.21c-.84.11-1.81.2-2.9.2v-1.99l.37.02c.69.08 1.37.47 2.03 1.17.17.18.34.38.5.6Zm1.93-.37c-.43.1-.96.22-1.57.32a5.75 5.75 0 0 0-1.62-1.6c1.12.21 2.2.65 3.2 1.28Zm.77-.22-.35.1c-.35-.23-.7-.43-1.06-.62.48.15.95.32 1.4.52ZM21 16.1c.72-.84 1.5-1.56 2.35-2.14.46.15 1.03.3 1.7.41-.44.68-.85 1.5-1.22 2.41a18.95 18.95 0 0 1-2.83-.68Zm3.16.73c.37-.93.8-1.74 1.24-2.4.75.11 1.62.19 2.6.2v2.48c-1.44 0-2.72-.1-3.84-.28Zm7.3-2.44c-.9.13-1.94.23-3.1.24v2.48c1.61-.01 3.07-.14 4.34-.33-.37-.93-.8-1.73-1.24-2.39Zm4.44 1.72c-.79.22-1.75.44-2.87.62-.37-.91-.78-1.72-1.22-2.4.68-.1 1.27-.24 1.73-.37.85.58 1.64 1.3 2.36 2.15Zm.33-.1a12.6 12.6 0 0 0-2.3-2.16l.44-.16a15.6 15.6 0 0 1 3.11 1.9c-.31.12-.74.27-1.25.43ZM20.31 17l.47-.62c.8.27 1.78.53 2.94.73-.36.95-.68 2.01-.94 3.16-1.5-.29-2.77-.68-3.8-1.08.4-.79.85-1.52 1.33-2.2Zm2.78 3.33c.27-1.16.59-2.22.95-3.17 1.16.18 2.48.3 3.96.3v3.27h-.15c-1.77 0-3.36-.16-4.76-.4Zm9.74-3.23c-1.31.2-2.81.34-4.48.35v3.28c2-.03 3.83-.23 5.42-.51a23.4 23.4 0 0 0-.94-3.12Zm5.06 2.08c-1.03.35-2.31.7-3.8.98a23.86 23.86 0 0 0-.94-3.1c1.17-.2 2.16-.43 2.97-.66a14.38 14.38 0 0 1 1.77 2.78ZM17.6 22.9c.32-1.23.74-2.38 1.25-3.45 1.06.42 2.35.82 3.87 1.1a33.93 33.93 0 0 0-.57 3.6 24.94 24.94 0 0 1-4.55-1.25Zm4.87 1.3c.13-1.26.32-2.46.57-3.58a27.65 27.65 0 0 0 4.97.4v3.61h-.26c-1.95 0-3.72-.16-5.28-.43Zm11.38-3.69a34.2 34.2 0 0 1-5.49.51v3.6c2.24-.03 4.27-.24 6.06-.55a33.38 33.38 0 0 0-.57-3.56Zm5.45 2.35c-1.25.42-2.78.83-4.56 1.16a33.68 33.68 0 0 0-.58-3.57c1.52-.28 2.83-.64 3.89-1 .5 1.05.93 2.2 1.25 3.41Z" fill="url(#a)"/><path d="M33 36V21.6h.57L38 20v16h-5ZM18 36V22h.57L23 26.45V36h-5Z" fill="#0E2F4F"/><path d="M18 22.49c.48.48 1.1 1.33 1.62 2.65A65.78 65.78 0 0 0 23 31.62v-5.17L18.57 22H18v.49Z" fill="#3F68A5"/><path d="M27.68 35 18 22h5.18l4.5 5.52C32.9 19.55 38.39 17 41.4 17A6.91 6.91 0 0 1 46 18.56c-6.44-1.56-12.61 7.47-14.05 9.47-1.15 1.6-3.33 5.31-4.27 6.97Z" fill="#EE6047"/><defs><linearGradient id="a" x1="28" y1="12" x2="28" y2="45" gradientUnits="userSpaceOnUse"><stop stop-color="#54729E"/><stop offset=".48" stop-color="#5875A0" stop-opacity="0"/><stop offset="1" stop-color="#5C79A3"/></linearGradient></defs></svg>