<!-- by TradingView --><svg width="56" height="56" viewBox="0 0 56 56" xmlns="http://www.w3.org/2000/svg"><path fill="#F0F3FA" d="M0 0h56v56H0z"/><path d="M23.32 27.37c1.64-.35 3.51-1.22 4.32-3.42.13-.37.17-.66.12-.88a.45.45 0 0 1 .25-.1c.08-.02.12.02.11.1-.06.85.24 1.65.9 2.38a6.73 6.73 0 0 0 3.27 2.06c.34.09.34.17 0 .23-1.44.26-2.94 1.66-3.78 2.8-.34.46-.5.8-.5 1.02a7.3 7.3 0 0 1-.03.86.04.04 0 0 1-.04 0l-.08-.04a.05.05 0 0 1-.03-.05c0-.8-.14-1.43-.43-1.88a7.83 7.83 0 0 0-1.35-1.58c-.78-.7-1.82-1.02-2.73-1.5Z" fill="#C73021"/><path fill="#004899" d="m7 33.07 4.91-4.93 4.91 4.93-4.9 4.93zM49 33.07l-4.91-4.93-4.92 4.93L44.1 38zM12.22 27.75l4.91-4.93 4.91 4.93-4.9 4.93zM43.78 27.75l-4.91-4.93-4.91 4.93 4.9 4.93zM17.67 32.96l4.91-4.93 4.92 4.93-4.92 4.93zM28.56 33.07l4.92-4.93 4.9 4.93-4.9 4.93zM17.67 22.28l4.91-4.93 4.92 4.93-4.92 4.93zM38.33 22.28l-4.91-4.93-4.92 4.93 4.92 4.93zM23.07 16.93 28 12l4.9 4.93-4.9 4.93z"/></svg>