<!-- by TradingView --><svg width="56" height="56" viewBox="0 0 56 56" xmlns="http://www.w3.org/2000/svg"><path fill="#F0F3FA" d="M0 0h56v56H0z"/><path d="M28.18 11c8.3 0 15.22 5.6 16.82 13.34 0 .44-.28.65-.77.66h-8.32c-1.35-3.32-4.07-6.4-7.8-9.08C19.56 22.04 16.3 31.44 22.5 37c-3.96-1.23-6.68-4.38-9.77-3.93-.3.02-.59.12-.86.3-.56-1.7-.87-3.5-.87-5.38C11 18.6 18.69 11 28.18 11Z" fill="#73B61C"/><path d="M28 35v-4.53s-.71-1.6-3-2.75c0 0 1.59-.14 3 .92V25.7s-.24-.83-1.25-1.69h1.22l.53-3 .53 3h1.22A4.03 4.03 0 0 0 29 25.72v2.95c1.41-1.06 3-.95 3-.95-2.29 1.14-3 2.75-3 2.75V35h-1Z" fill="#73B61C"/><path d="M12.73 35.45A17.2 17.2 0 0 0 28.18 45c8.24 0 15.11-5.74 16.79-13.4a18.76 18.76 0 0 0-7.53-1.6c-2.15.03-4.08.51-5.55 1.96-2 1.95-5 2.82-7.69 2.66-.14.3-.2.57-.2.82.02 2.07 4.4 2.6 7.03 1.85.56-.16 1.04-.43 1.6-.57.44-.12.8-.1.48.37-.58.85-1.9 1.39-2.87 1.78-1.55.63-2.95 1.1-4.24 1.13-5.92.13-9.35-5.11-13.27-4.55Z" fill="#0062AA"/></svg>