<!-- by TradingView --><svg width="56" height="56" viewBox="0 0 56 56" xmlns="http://www.w3.org/2000/svg"><path fill="url(#a)" d="M0 0h56v56H0z"/><path d="M40.95 23h-1.9c-.03 0-.05.02-.05.04v1.42c0 .02.02.04.05.04h1.9c.03 0 .05-.02.05-.04v-1.42c0-.02-.02-.04-.05-.04ZM42 31.95v-8.9c0-.03.02-.05.05-.05h1.94c.04 0 .01.02.01.05v4.71c0 .03.05.04.07.05l.06-.01 2.42-2.78.04-.02h2.24c.02 0 .04.02.05.04l-.01.06-3.2 3.38c-.03.02-.03.04-.01.07l3.33 3.36v.06c0 .02-.02.03-.04.03h-2.38c-.02 0-.03 0-.04-.02l-2.4-2.59a.05.05 0 0 0-.06-.01c-.02 0-.07.02-.07.04v2.53c0 .03.03.05 0 .05h-1.95c-.03 0-.05-.02-.05-.05ZM12.23 27.3l4.75 4.61c.02.02.02.04.01.06 0 .02-.02.03-.04.03H14.1c-.01 0-.03 0-.04-.02l-3.56-3.44a.05.05 0 0 0-.06-.01.05.05 0 0 0-.03.04v3.38c0 .03-.02.05-.05.05h-2.3c-.04 0-.06-.02-.06-.05v-8.9c0-.03.02-.05.05-.05h2.3c.04 0 .06.02.06.05v3.13c0 .02.01.04.03.04h.06l3.3-3.2a.05.05 0 0 1 .04-.02h2.63c.03 0 .04.01.05.03l-.01.06-4.28 4.14c-.03.03-.03.05 0 .08ZM31.9 32h-2.05c-.07 0-.1-.03-.1-.1a522.61 522.61 0 0 0-.01-3.72c-.02-.39-.05-.67-.1-.84a.86.86 0 0 0-.45-.58c-1.28-.6-2.19.9-2.19 1.93v3.2c0 .07-.02.11-.1.11h-1.8c-.06 0-.1-.03-.1-.1v-6.78c0-.07.04-.12.1-.12h1.8c.07 0 .1.05.1.11v.95c0 .03.02.05.05.06.03 0 .05 0 .07-.02.4-.5 1.09-.84 1.7-1a2.8 2.8 0 0 1 1.84.13c.46.19.8.54 1.04 1.06.2.44.3.94.3 1.51v4.1c0 .07-.04.1-.1.1ZM35 26.17c0 .03.03.05.05.06.03 0 .05 0 .07-.03.27-.47.78-.8 1.28-1 .47-.19.98-.24 1.53-.16.05 0 .07.03.07.07v1.84c0 .05-.02.07-.07.05a2.94 2.94 0 0 0-1.1-.2c-1.13 0-1.83.76-1.83 2.25v2.85c0 .07-.04.1-.1.1h-1.84c-.04 0-.06-.02-.06-.06v-6.86c0-.05.02-.08.07-.08h1.85c.06 0 .08.04.08.1v1.07ZM40.94 25h-1.88c-.03 0-.06.03-.06.07v6.86c0 .04.03.07.06.07h1.88c.03 0 .06-.03.06-.07v-6.86c0-.04-.03-.07-.06-.07Z" fill="#fff"/><path d="M19.7 25.04a4.4 4.4 0 0 1 2.19.24c.71.28 1.26.74 1.64 1.38.35.58.5 1.36.47 2.34 0 .07-.04.1-.11.1h-5.06c-.06 0-.09.03-.07.1.2.94.87 1.4 2.02 1.38a6.58 6.58 0 0 0 2.75-.74.08.08 0 0 1 .07 0c.03.02.04.04.04.07v1.46c0 .05-.03.09-.09.1l-1.06.29c-.8.2-1.61.28-2.43.22a4.4 4.4 0 0 1-2.27-.71c-.9-.64-1.33-1.61-1.29-2.93.03-.94.33-1.7.9-2.27.55-.56 1.32-.9 2.3-1.03Zm.52 1.39c-.39 0-.71.13-.98.38s-.4.55-.4.9v.03c0 .01 0 .02.03.02l2.8-.02c.02 0 .02 0 .02-.02v-.02c0-.36-.14-.66-.4-.9-.28-.25-.6-.38-1-.37h-.07Z" fill="#fff"/><defs><linearGradient id="a" x1="10.42" y1="9.71" x2="68.15" y2="76.02" gradientUnits="userSpaceOnUse"><stop stop-color="#1A1E21"/><stop offset="1" stop-color="#06060A"/></linearGradient></defs></svg>