<!-- by TradingView --><svg width="56" height="56" viewBox="0 0 56 56" xmlns="http://www.w3.org/2000/svg"><path fill="url(#a)" d="M0 0h56v56H0z"/><path d="M41.7 27.42 45.9 36H50l-8.3-17-8.28 17h4.11l4.18-8.58ZM28 32V19h-4v17h7.05L33 32h-5ZM14.51 19a8.5 8.5 0 1 0-.02 17 8.5 8.5 0 0 0 .02-17Zm0 13.08a4.58 4.58 0 1 1 3.22-1.34 4.6 4.6 0 0 1-3.24 1.34h.02Z" fill="#fff"/><defs><linearGradient id="a" x1="10.42" y1="9.71" x2="68.15" y2="76.02" gradientUnits="userSpaceOnUse"><stop stop-color="#1A1E21"/><stop offset="1" stop-color="#06060A"/></linearGradient></defs></svg>