<!-- by TradingView --><svg width="18" height="18" viewBox="0 0 18 18" xmlns="http://www.w3.org/2000/svg"><path fill="#F0F3FA" d="M0 0h18v18H0z"/><path d="M7.4 5.53C8.94 5.16 10.45 5 11.52 5c1.72 0 3 .31 3.43.47l.05.02v5.38l-.04.02C12.59 12.35 9.13 13 6.68 13a9.84 9.84 0 0 1-3.63-.55L3 12.43V7.26l.03-.02c1.24-.8 2.82-1.35 4.37-1.71Zm-4.24 1.8v5.01c.42.18 1.65.52 3.51.52 2.41 0 5.81-.64 8.17-2.06V5.58c-.46-.15-1.68-.44-3.32-.44-1.06 0-2.55.17-4.08.52-1.52.36-3.07.9-4.28 1.67Z" fill="#D40055"/><path fill-rule="evenodd" d="M4.04 10.11c.32 1.4 2.81 2.04 5.56 1.42 2.74-.61 4.7-2.24 4.37-3.64-.32-1.4-2.81-2.04-5.56-1.42-2.74.61-4.7 2.24-4.37 3.64Zm.38-.08c.28 1.21 2.57 1.73 5.1 1.17 2.53-.57 4.35-2.01 4.07-3.23-.29-1.21-2.57-1.73-5.1-1.17-2.53.57-4.35 2.01-4.07 3.23Z" fill="#D40055"/><path fill-rule="evenodd" d="M6.52 10.78c.78.17 1.8.16 2.89-.08a6.95 6.95 0 0 0 2.64-1.12c.63-.48.92-.99.82-1.42-.1-.44-.6-.78-1.39-.94a7.12 7.12 0 0 0-2.89.08 6.95 6.95 0 0 0-2.64 1.12c-.63.48-.92.99-.82 1.42.1.44.6.78 1.39.94Zm-1.5-.91c.24 1 2.22 1.41 4.41.93 2.2-.48 3.79-1.67 3.55-2.67-.24-1-2.22-1.41-4.41-.93-2.2.48-3.79 1.67-3.55 2.67Z" fill="#D40055"/><path d="M10.8 8.24v1.43h.47c.12 0 .23.06.23.17 0 .1-.08.16-.23.16h-.6c-.19 0-.27-.07-.27-.24V8.24c0-.16.07-.24.2-.24.14 0 .2.08.2.24ZM10 9.39c0 .38-.36.61-.8.61-.34 0-.58-.1-.71-.32a.46.46 0 0 1-.09-.25c0-.1.08-.17.18-.17.09 0 .15.05.19.16a.8.8 0 0 0 .08.15c.06.08.16.14.34.14.2 0 .4-.1.4-.28 0-.13-.08-.2-.21-.25a2.74 2.74 0 0 0-.26-.07c-.36-.08-.72-.22-.72-.57 0-.36.4-.54.8-.54.12 0 .23.01.32.04.2.07.4.23.4.43 0 .05-.03.1-.06.13a.17.17 0 0 1-.13.05c-.04 0-.08 0-.1-.03a.48.48 0 0 1-.08-.1.38.38 0 0 0-.38-.24c-.16 0-.37.07-.37.23 0 .11.14.18.26.22a5.1 5.1 0 0 0 .5.13c.1.03.17.07.23.11.13.09.21.22.21.42ZM7.53 9.75l-.1-.24h-.88l-.1.24c-.04.1-.08.25-.24.25C6.1 10 6 9.92 6 9.82l.01-.08.05-.12.55-1.25c.04-.09.07-.18.13-.26C6.8 8.04 6.87 8 7 8s.2.05.25.11c.05.07.08.13.13.26l.56 1.24c.05.1.07.17.07.21 0 .1-.1.18-.21.18-.11 0-.17-.07-.2-.15l-.06-.1Zm-.86-.54h.64L7 8.41l-.32.8Z" fill="#D40055"/></svg>