<!-- by TradingView --><svg width="56" height="56" viewBox="0 0 56 56" xmlns="http://www.w3.org/2000/svg"><path fill="#E93636" d="M0 0h56v56H0z"/><path d="M4 32v-7c0-1.6 1.19-2 1.78-2h5.33c.36 0 .74-.67.89-1v1c0 1.6-1.19 2-1.78 2H7.9c-.71 0-.89.67-.89 1v5.5c0 .4.3.5.44.5h1.12c.35 0 .44-.33.44-.5v-2c0-.4-.3-.5-.44-.5-.49 0-.55.65-.56.9v.1-3h3.11c.36 0 .74-.67.89-1v6c0 1.6-1.19 2-1.78 2H5.78C4.36 34 4 32.67 4 32ZM24 32v-7c0-1.6 1.19-2 1.78-2h5.33c.36 0 .74-.67.89-1v1c0 1.6-1.19 2-1.78 2H27.9c-.71 0-.89.67-.89 1v5.5c0 .4.3.5.44.5h1.12c.35 0 .44-.33.44-.5v-2c0-.4-.3-.5-.44-.5-.49 0-.55.65-.56.9v.1-3h3.11c.36 0 .74-.67.89-1v6c0 1.6-1.19 2-1.78 2h-4.44C24.36 34 24 32.67 24 32Z" fill="#0000A0"/><path fill-rule="evenodd" d="M22 25v7c0 .67-.36 2-1.78 2h-4.44c-.6 0-1.78-.4-1.78-2v-6c.15.33.53 1 .89 1h4.44v-1c0-.33-.17-1-.89-1h-2.66c-.6 0-1.78-.4-1.78-2v-1c.15.33.53 1 .89 1h5.33c.6 0 1.78.4 1.78 2Zm-4.33 4H19v2c0 .33-.13 1-.67 1h-.66c-.23 0-.67-.2-.67-1v-1c0-.33.13-1 .67-1ZM42 25v7c0 .67-.36 2-1.78 2h-4.44c-.6 0-1.78-.4-1.78-2v-6c.15.33.53 1 .89 1h4.44v-1c0-.33-.17-1-.89-1h-2.66c-.6 0-1.78-.4-1.78-2v-1c.15.33.53 1 .89 1h5.33c.6 0 1.78.4 1.78 2Zm-4.33 4H39v2c0 .33-.13 1-.67 1h-.66c-.23 0-.67-.2-.67-1v-1c0-.33.13-1 .67-1Z" fill="#0000A0"/><path d="M45.57 23H42.5l.5 1v8.5c0 1.2 1.29 1.5 1.71 1.5h2.15c-.69 0-.86-1-.86-1.5v-7c0-.4.29-.5.43-.5h1.14c.34 0 .43.33.43.5v7c0 1.2 1.71 1.5 2.29 1.5H52c-.69 0-1-1-1-1.5V25c0-1.6-1-2-1.57-2H47.7c-1.37 0-1.71.67-1.71 1l-.43-1Z" fill="#0000A0"/></svg>