<!-- by TradingView --><svg width="56" height="56" viewBox="0 0 56 56" xmlns="http://www.w3.org/2000/svg"><path fill="#F0F3FA" d="M0 0h56v56H0z"/><path fill-rule="evenodd" d="M30.68 28.2 29.61 30h-1.05l1.6-2.7-1.39-2.3h1.08l.83 1.41.84-1.41h1.08l-1.38 2.3 1.6 2.7h-1.06l-1.08-1.8ZM13 29.97V25h1v4.18h2.17v.8H13ZM4 25v5h1v-2h1.14c.77 0 1.4-.65 1.4-1.48 0-.84-.63-1.52-1.4-1.52H4Zm1 .78h.93c.37 0 .68.33.68.74 0 .4-.3.73-.68.73H5v-1.47Zm7.5 1.72c0 1.38-.78 2.5-2.25 2.5S8 28.88 8 27.5s.76-2.5 2.25-2.5 2.25 1.12 2.25 2.5Zm-.83 0c0 .94-.5 1.7-1.42 1.7-.92 0-1.42-.76-1.42-1.7s.48-1.7 1.42-1.7 1.42.76 1.42 1.7Zm4.63-2.46L18 27.8v2.16h1V27.8l1.51-2.76h-.98L18.5 27l-1.14-1.96H16.3Zm4.7.78V25h3v.82h-1V30h-1.01v-4.18H21Zm4-.82v5h3.42v-.79H26v-1.47h2V27h-2v-1.2h2.34V25H25Zm11 0h-1v4.96h1V25Zm10 0h1v5h-1v-5Zm-9 4.97v-4.95h.99c.7 1.1 2.01 3.3 2.01 3.3v-3.3h1v4.95h-.97L38 26.7v3.26h-1ZM43.66 25H41.5v5h2.16c1.01 0 1.84-.87 1.84-1.93v-1.14c0-1.06-.83-1.93-1.84-1.93Zm-.35.77h-.81v3.46h.81c.66 0 1.19-.57 1.19-1.29v-.88c0-.72-.53-1.3-1.19-1.3Zm5 4.23h-.91l1.71-5h1.17L52 30h-.98l-.41-1.3h-1.87l-.43 1.3Zm1.38-4.15.69 2.15h-1.4l.7-2.15Z" fill="#B82200"/></svg>