<!-- by TradingView --><svg width="56" height="56" viewBox="0 0 56 56" xmlns="http://www.w3.org/2000/svg"><path fill="#F0F3FA" d="M0 0h56v56H0z"/><path d="M35.98 43.2a1.97 1.97 0 0 1-3.04 1.28.07.07 0 0 0-.06 0 .07.07 0 0 0-.05.03l-.01.03a1.96 1.96 0 0 1-3.19.6.07.07 0 0 0-.05-.03.06.06 0 0 0-.05.03c-.82 1.1-2.48 1.2-3.28-.02a.07.07 0 0 0-.05-.03c-.02 0-.04 0-.05.02-1.04.93-2.68.67-3.21-.67a.05.05 0 0 0-.04-.04h-.04c-1.18.76-2.8.15-3.02-1.26a.06.06 0 0 0-.03-.05.06.06 0 0 0-.05 0c-1.32.44-2.73-.35-2.73-1.84 0-.02-.01-.04-.03-.05a.06.06 0 0 0-.05-.01c-1.36.25-2.63-.96-2.29-2.35v-.05a.05.05 0 0 0-.05-.02 1.96 1.96 0 0 1-1.82-2.74c.03-.05 0-.08-.05-.1a1.96 1.96 0 0 1-1.2-3.04v-.03a.04.04 0 0 0-.02-.03c-1.29-.6-1.71-2.2-.63-3.25a.05.05 0 0 0 .01-.04c0-.01 0-.03-.02-.03a1.96 1.96 0 0 1 .05-3.3l.02-.04c0-.01 0-.03-.02-.04-1.1-.98-.62-2.68.64-3.22.02 0 .03-.02.04-.04v-.06a1.97 1.97 0 0 1 1.28-3.01c.02 0 .03-.02.04-.04a.06.06 0 0 0 0-.05c-.59-1.29.46-2.7 1.83-2.69.03 0 .05 0 .06-.03a.08.08 0 0 0 .02-.06c-.23-1.49.96-2.5 2.34-2.29.06.01.09-.01.1-.08 0-1.48 1.43-2.28 2.73-1.78h.05l.03-.05a1.95 1.95 0 0 1 3.02-1.22c.01.01.03.02.05.01.02 0 .04-.02.05-.04a1.99 1.99 0 0 1 3.13-.7c.05.05.1.04.14-.01.8-1.1 2.45-1 3.19.12 0 .02.03.03.05.03.02 0 .03 0 .05-.02 1-.96 2.67-.68 3.2.63.01.02.03.04.05.04h.06c1.15-.69 2.8-.19 3 1.25l.04.05h.06c1.34-.46 2.74.38 2.73 1.84 0 .05.02.08.07.07 1.42-.23 2.58.9 2.32 2.33-.01.05 0 .07.06.07.55.01 1.02.2 1.38.55.6.58.75 1.45.4 2.2v.04l.04.02c1.27.3 2.24 1.89 1.26 3.03a.05.05 0 0 0-.01.05c0 .02.01.03.03.04 1.28.52 1.73 2.28.62 3.24a.04.04 0 0 0-.01.03c0 .01 0 .02.02.03 1.13.8 1.3 2.53 0 3.3a.05.05 0 0 0-.03.04c0 .02 0 .03.02.04a1.97 1.97 0 0 1-.66 3.24.05.05 0 0 0-.02.07c.8 1.2.14 2.81-1.3 3.04a.05.05 0 0 0-.03.02v.05c.66 1.3-.44 2.74-1.83 2.73-.02 0-.03 0-.04.02l-.01.04.03.19c.27 1.41-1.13 2.3-2.39 2.14 0 0-.02 0-.03.02l-.01.03c0 1.42-1.45 2.39-2.76 1.8H36a.03.03 0 0 0-.02.03Z" fill="#EE1D23"/><path fill-rule="evenodd" d="M27.97 43.62a15.63 15.63 0 1 0 .01-31.25 15.63 15.63 0 0 0-.01 31.25Zm0-.2a15.42 15.42 0 1 0 .01-30.85 15.42 15.42 0 0 0-.01 30.84Z" fill="#FEFEFE"/><ellipse cx="27.97" cy="28" rx="12.39" ry="12.37" fill="#F26321"/><path fill-rule="evenodd" d="M28.14 14.29c.23-.13.4-.5.4-.93 0-.54-.26-.98-.58-.98-.31 0-.57.44-.57.98 0 .43.16.8.39.93v.82c-.04-.22-.19-.47-.61-.47-.7 0-.73.64-.73.74v.03c-.01.13-.04.5.79.77-.09 0-.26.09-.26.35s.22.4.33.44a.54.54 0 0 0-.13.37c0 .2.16.32.24.35-.05.03-.14.13-.14.35 0 .22.14.36.2.4-.03 0-.1.05-.1.26 0 .21.12.33.17.36-.02.02-.06.1-.06.25 0 .14.1.25.16.29-.02.01-.05.08-.05.18 0 .1.08.18.11.2a.4.4 0 0 0-.06.2c0 .08.14.18.2.22l.12 2.7.12-2.7c.06-.04.2-.14.2-.22a.4.4 0 0 0-.06-.2c.04-.02.11-.1.11-.2s-.03-.17-.05-.18c.06-.04.17-.15.17-.3 0-.13-.05-.22-.07-.24.06-.03.17-.15.17-.36s-.07-.27-.1-.27c.07-.03.2-.17.2-.39s-.09-.32-.13-.35c.08-.03.24-.15.24-.35 0-.2-.1-.33-.14-.37.11-.04.34-.18.34-.44s-.18-.34-.27-.35c.83-.26.8-.64.8-.77v-.03c0-.1-.03-.74-.73-.74-.43 0-.58.25-.62.47v-.82Zm-.3 1.09v.38c-.36-.03-1.09-.17-1.03-.44.04-.22.21-.14.4-.05.1.05.21.1.31.1h.33Zm.03.8v.5c-.15 0-.45-.04-.45-.25 0-.2.3-.25.45-.25Zm0 1.3v-.51c-.1 0-.29.05-.29.25s.2.26.29.26Zm0 .29v.36c-.1 0-.29-.03-.29-.18 0-.14.2-.18.29-.18Zm0 1.02v-.36c-.1 0-.29.03-.29.18s.2.18.29.18Zm0 .31v.3c-.08 0-.23-.03-.23-.15s.15-.15.23-.15Zm0 .73v-.18c-.05 0-.14.02-.14.1 0 .07.1.08.14.08Zm0 .2v.17c-.05 0-.14-.02-.14-.09 0-.07.1-.09.14-.09Zm.2-4.65v.38c.37-.03 1.1-.17 1.04-.44-.04-.22-.2-.14-.39-.05a.8.8 0 0 1-.32.1h-.32Zm-.01.8v.5c.14 0 .44-.04.44-.25 0-.2-.3-.25-.44-.25Zm0 1.3v-.51c.09 0 .28.05.28.25s-.19.26-.28.26Zm0 .29v.36c.09 0 .28-.03.28-.18 0-.14-.19-.18-.28-.18Zm0 1.02v-.36c.09 0 .28.03.28.18s-.19.18-.28.18Zm0 .31v.3c.07 0 .22-.03.22-.15s-.15-.15-.22-.15Zm0 .73v-.18c.04 0 .13.02.13.1 0 .07-.09.08-.13.08Zm0 .2v.17c.04 0 .13-.02.13-.09 0-.07-.09-.09-.13-.09Z" fill="#fff"/><path d="M25.79 13.62v-.01l.01.02c.1-.1.4-.29.7-.29.18 0 .3.07.37.16.07.07.11.16.15.22l.02.04c.03.06.04.14.06.24v.02c.02.1.04.22.1.32.02.04.07.08.13.1l.18.05c.13.02.27.02.36.01v-.08c-.09 0-.23 0-.35-.02a.7.7 0 0 1-.16-.04c-.05-.02-.08-.04-.1-.07a.93.93 0 0 1-.07-.28v-.03a.9.9 0 0 0-.08-.26l-.02-.03a1.02 1.02 0 0 0-.16-.25.57.57 0 0 0-.44-.18c-.3 0-.6.18-.72.28a4.3 4.3 0 0 0-.88.38.66.66 0 0 0-.2.18 9.4 9.4 0 0 0-.67.41l-.02.04c0 .06.04.1.08.13.04.02.1.04.15.04l.14.03.05.01.2.05c.2.04.44.09.63.1.3.04 1.18.2 1.58.27l.01-.09c-.4-.07-1.28-.23-1.58-.26a5.83 5.83 0 0 1-.62-.1l-.2-.05-.06-.01a2.14 2.14 0 0 0-.15-.03.33.33 0 0 1-.11-.04c-.03-.01-.04-.03-.04-.04h.01a8.98 8.98 0 0 1 .61-.36l.02.02c.03.03.08.05.16.06h.37a2.81 2.81 0 0 1 .3.04l.22.05.34.07.11.02.22.05a5.46 5.46 0 0 1 .14.03h.01a3.22 3.22 0 0 0 1.22.28v-.09a3.15 3.15 0 0 1-1.25-.29l-.1-.02-.22-.04-.11-.02a21.4 21.4 0 0 1-.69-.15h-.19l-.13-.01-.23-.01c-.07 0-.1-.02-.12-.04a.6.6 0 0 1 .16-.16c.08-.06.18-.1.28-.16.21-.1.43-.17.58-.21ZM30.21 13.62v-.01l-.01.02c-.1-.1-.4-.29-.7-.29a.5.5 0 0 0-.37.16c-.07.07-.11.16-.15.22l-.02.04a.85.85 0 0 0-.06.24v.02c-.02.1-.04.22-.1.32a.26.26 0 0 1-.13.1.78.78 0 0 1-.18.05 1.8 1.8 0 0 1-.36.01v-.08c.09 0 .23 0 .35-.02a.7.7 0 0 0 .16-.04c.05-.02.08-.04.1-.07a.93.93 0 0 0 .07-.28v-.03a.9.9 0 0 1 .08-.26l.02-.03c.03-.07.08-.17.16-.25.1-.1.23-.18.44-.18.3 0 .6.18.72.28a4.3 4.3 0 0 1 .88.38c.09.05.16.12.2.18a9.34 9.34 0 0 1 .67.41l.02.04c0 .06-.04.1-.08.13a.4.4 0 0 1-.15.04l-.14.03-.05.01a19.5 19.5 0 0 1-.83.16c-.3.03-1.18.18-1.58.26l-.01-.09c.4-.07 1.28-.23 1.58-.26.19-.02.42-.06.62-.1l.2-.05.06-.01.15-.03c.04 0 .08-.02.11-.04.03-.01.04-.03.04-.04h-.01a9.1 9.1 0 0 0-.61-.36l-.02.02c-.03.03-.08.05-.16.06h-.37a2.81 2.81 0 0 0-.3.04l-.22.05-.34.07-.11.02-.22.05a5.46 5.46 0 0 0-.14.03h-.01a3.22 3.22 0 0 1-1.22.28v-.09a3.15 3.15 0 0 0 1.25-.29l.1-.02.22-.04.11-.02a21.18 21.18 0 0 0 .69-.15h.19l.13-.01.23-.01c.07 0 .1-.02.12-.04a.6.6 0 0 0-.16-.16c-.08-.06-.18-.1-.28-.16-.21-.1-.43-.17-.58-.21Z" fill="#fff"/><path fill-rule="evenodd" d="M28.14 41.71c.23.13.4.5.4.93 0 .54-.26.98-.58.98-.31 0-.57-.44-.57-.98 0-.43.16-.8.39-.93v-.82c-.04.22-.19.47-.61.47-.7 0-.73-.64-.73-.74v-.03c-.01-.13-.04-.5.79-.77-.09 0-.26-.09-.26-.35s.22-.4.33-.44a.54.54 0 0 1-.13-.37c0-.2.16-.32.24-.35-.05-.03-.14-.13-.14-.35 0-.22.14-.36.2-.4-.03 0-.1-.05-.1-.26 0-.21.12-.33.17-.36-.02-.02-.06-.1-.06-.25 0-.14.1-.25.16-.29-.02-.01-.05-.08-.05-.18 0-.1.08-.18.11-.2a.4.4 0 0 1-.06-.2c0-.08.14-.18.2-.22l.12-2.7.12 2.7c.06.04.2.14.2.22a.4.4 0 0 1-.06.2c.04.02.11.1.11.2s-.03.17-.05.18c.06.04.17.15.17.3 0 .13-.05.22-.07.24.06.03.17.15.17.36s-.07.27-.1.27c.07.03.2.17.2.39s-.09.32-.13.35c.08.03.24.15.24.35 0 .2-.1.33-.14.37.11.04.34.18.34.44s-.18.34-.27.35c.83.26.8.64.8.77v.03c0 .1-.03.74-.73.74-.43 0-.58-.25-.62-.47v.82Zm-.3-1.09v-.38c-.36.03-1.09.17-1.03.44.04.22.21.14.4.05.1-.05.21-.1.31-.1h.33Zm.03-.8v-.5c-.15 0-.45.04-.45.25 0 .2.3.25.45.25Zm0-1.3v.51c-.1 0-.29-.05-.29-.25s.2-.26.29-.26Zm0-.29v-.36c-.1 0-.29.03-.29.18 0 .14.2.18.29.18Zm0-1.02v.36c-.1 0-.29-.03-.29-.18s.2-.18.29-.18Zm0-.31v-.3c-.08 0-.23.03-.23.15s.15.15.23.15Zm0-.73v.18c-.05 0-.14-.02-.14-.1 0-.07.1-.08.14-.08Zm0-.2v-.17c-.05 0-.14.02-.14.09 0 .07.1.09.14.09Zm.2 4.65v-.38c.37.03 1.1.17 1.04.44-.04.22-.2.14-.39.05a.8.8 0 0 0-.32-.1h-.32Zm-.01-.8v-.5c.14 0 .44.04.44.25 0 .2-.3.25-.44.25Zm0-1.3v.51c.09 0 .28-.05.28-.25s-.19-.26-.28-.26Zm0-.29v-.36c.09 0 .28.03.28.18 0 .14-.19.18-.28.18Zm0-1.02v.36c.09 0 .28-.03.28-.18s-.19-.18-.28-.18Zm0-.31v-.3c.07 0 .22.03.22.15s-.15.15-.22.15Zm0-.73v.18c.04 0 .13-.02.13-.1 0-.07-.09-.08-.13-.08Zm0-.2v-.17c.04 0 .13.02.13.09 0 .07-.09.09-.13.09Z" fill="#fff"/><path d="M25.79 42.38v.01l.01-.02c.1.1.4.29.7.29a.5.5 0 0 0 .37-.16c.07-.07.11-.16.15-.22l.02-.04a.85.85 0 0 0 .06-.24v-.02c.02-.1.04-.22.1-.32a.26.26 0 0 1 .13-.1.78.78 0 0 1 .18-.05c.13-.02.27-.02.36-.01v.08c-.09 0-.23 0-.35.02a.7.7 0 0 0-.16.04c-.05.02-.08.04-.1.07a.93.93 0 0 0-.07.28v.03a.9.9 0 0 1-.08.26l-.02.03c-.03.07-.08.17-.16.25-.1.1-.23.18-.44.18-.3 0-.6-.18-.72-.28a4.3 4.3 0 0 1-.88-.38.66.66 0 0 1-.2-.18 9.4 9.4 0 0 1-.67-.41l-.02-.04c0-.06.04-.1.08-.13a.4.4 0 0 1 .15-.04l.14-.03.05-.01.2-.05c.2-.04.44-.09.63-.1.3-.04 1.18-.2 1.58-.27l.01.09c-.4.07-1.28.23-1.58.26-.19.02-.42.06-.62.1l-.2.05-.06.01-.15.03a.33.33 0 0 0-.11.04c-.03.01-.04.03-.04.04h.01l.05.04.18.12.38.2.02-.02c.03-.03.08-.05.16-.06.8-.06 1.5-.27 2.26-.45.2-.04.53-.08.67-.09v.09a5.4 5.4 0 0 0-.65.09c-.77.18-1.47.38-2.27.45-.07 0-.1.02-.12.04.03.06.09.1.16.16.08.06.18.1.28.16.21.1.43.17.58.21ZM30.21 42.38v.01l-.01-.02c-.1.1-.4.29-.7.29a.5.5 0 0 1-.37-.16c-.07-.07-.11-.16-.15-.22l-.02-.04a.85.85 0 0 1-.06-.24v-.02c-.02-.1-.04-.22-.1-.32a.26.26 0 0 0-.13-.1.78.78 0 0 0-.18-.05 1.8 1.8 0 0 0-.36-.01v.08c.09 0 .23 0 .35.02a.7.7 0 0 1 .16.04c.05.02.08.04.1.07.04.08.06.18.07.28v.03c.02.1.04.19.08.26l.02.03c.03.07.08.17.16.25.1.1.23.18.44.18.3 0 .6-.18.72-.28a4.3 4.3 0 0 0 .88-.38.66.66 0 0 0 .2-.18 9.34 9.34 0 0 0 .67-.41l.02-.04c0-.06-.04-.1-.08-.13a.4.4 0 0 0-.15-.04l-.14-.03-.05-.01a19.5 19.5 0 0 0-.83-.16 29.7 29.7 0 0 1-1.58-.26l-.01.09c.4.07 1.28.23 1.58.26.19.02.42.06.62.1l.2.05.06.01.15.03c.04 0 .08.02.11.04.03.01.04.03.04.04h-.01a9.1 9.1 0 0 1-.61.36l-.02-.02c-.03-.03-.08-.05-.16-.06-.19-.01-.37 0-.55-.02a.52.52 0 0 1-.13-.02c-.44-.17-1.1-.3-1.58-.4-.2-.05-.53-.09-.67-.1v.09c.13.01.46.04.65.09.47.1 1.13.23 1.58.4a.6.6 0 0 0 .14.03c.18.02.37 0 .55.02.07 0 .1.02.12.04a.6.6 0 0 1-.16.16c-.08.06-.18.1-.28.16-.21.1-.43.17-.58.21Z" fill="#fff"/><path fill-rule="evenodd" d="M41.71 28.14c.13.23.5.4.93.4.54 0 .98-.26.98-.58 0-.31-.44-.57-.98-.57-.43 0-.8.16-.93.39h-.82c.22-.04.47-.19.47-.61 0-.7-.64-.73-.74-.73h-.03c-.13-.01-.5-.04-.77.79 0-.09-.09-.26-.35-.26s-.4.22-.44.33a.54.54 0 0 0-.37-.13c-.2 0-.32.16-.35.24-.03-.05-.13-.14-.35-.14a.46.46 0 0 0-.4.2c0-.03-.05-.1-.26-.1-.21 0-.33.12-.36.17-.02-.02-.1-.06-.25-.06-.14 0-.25.1-.29.16-.01-.02-.08-.05-.18-.05-.1 0-.18.08-.2.11a.4.4 0 0 0-.2-.06c-.08 0-.18.14-.22.2l-2.7.12 2.7.12c.04.06.14.2.22.2a.4.4 0 0 0 .2-.06c.02.04.1.11.2.11s.17-.03.18-.05c.04.06.15.17.3.17.13 0 .22-.05.24-.07.03.06.15.17.36.17s.27-.07.27-.1c.03.07.17.2.39.2s.32-.09.35-.13c.03.08.15.24.35.24.2 0 .33-.1.37-.14.04.11.18.34.44.34s.34-.18.35-.27c.26.83.64.8.77.8h.03c.1 0 .74-.03.74-.73 0-.43-.25-.58-.47-.62h.82Zm-1.09-.3h-.38c.03-.36.17-1.09.44-1.03.22.04.14.21.05.4-.05.1-.1.21-.1.31v.33Zm-.8.03h-.5c0-.15.04-.45.25-.45.2 0 .25.3.25.45Zm-1.3 0h.51c0-.1-.05-.29-.25-.29s-.26.2-.26.29Zm-.29 0h-.36c0-.1.03-.29.18-.29.14 0 .18.2.18.29Zm-1.02 0h.36c0-.1-.03-.29-.18-.29s-.18.2-.18.29Zm-.31 0h-.3c0-.08.03-.23.15-.23s.15.15.15.23Zm-.73 0h.18c0-.05-.02-.14-.1-.14-.07 0-.08.1-.08.14Zm-.2 0h-.17c0-.05.02-.14.09-.14.07 0 .09.1.09.14Zm4.65.2h-.38c.03.37.17 1.1.44 1.04.22-.04.14-.2.05-.39a.8.8 0 0 1-.1-.32v-.32Zm-.8-.01h-.5c0 .14.04.44.25.44.2 0 .25-.3.25-.44Zm-1.3 0h.51c0 .09-.05.28-.25.28s-.26-.19-.26-.28Zm-.29 0h-.36c0 .09.03.28.18.28.14 0 .18-.19.18-.28Zm-1.02 0h.36c0 .09-.03.28-.18.28s-.18-.19-.18-.28Zm-.31 0h-.3c0 .07.03.22.15.22s.15-.15.15-.22Zm-.73 0h.18c0 .04-.02.13-.1.13-.07 0-.08-.09-.08-.13Zm-.2 0h-.17c0 .04.02.13.09.13.07 0 .09-.09.09-.13Z" fill="#fff"/><path d="M42.38 25.79h.01l-.02.01c.1.1.29.4.29.7a.5.5 0 0 1-.16.37c-.07.07-.16.11-.22.15l-.04.02a.85.85 0 0 1-.24.06h-.02c-.1.02-.22.04-.32.1a.26.26 0 0 0-.1.13.78.78 0 0 0-.05.18 1.8 1.8 0 0 0-.01.36h.08c0-.09 0-.23.02-.35a.7.7 0 0 1 .04-.16c.02-.05.04-.08.07-.1a.93.93 0 0 1 .28-.07h.03a.9.9 0 0 0 .26-.08l.03-.02c.07-.03.17-.08.25-.16.1-.1.18-.23.18-.44 0-.3-.18-.6-.28-.72a4.3 4.3 0 0 0-.38-.88.66.66 0 0 0-.18-.2 9.4 9.4 0 0 0-.41-.67l-.04-.02c-.06 0-.1.04-.13.08a.4.4 0 0 0-.04.15l-.03.14-.01.05-.05.2c-.04.2-.09.44-.1.63-.04.3-.2 1.18-.27 1.58l.09.01c.07-.4.23-1.28.26-1.58.02-.19.06-.42.1-.62l.05-.2.01-.06.03-.15c0-.04.02-.08.04-.11.01-.03.03-.04.04-.04v.01l.04.05.12.18.2.38-.02.02c-.03.03-.05.08-.06.16v.37a2.81 2.81 0 0 1-.04.3l-.05.22-.07.34-.02.11-.05.22a5.46 5.46 0 0 1-.03.14v.01a3.22 3.22 0 0 0-.28 1.22h.09a3.15 3.15 0 0 1 .29-1.25c0-.02 0-.06.02-.1l.04-.22.02-.11a21.4 21.4 0 0 1 .15-.69v-.19l.01-.13.01-.23c0-.07.02-.1.04-.12.06.03.1.09.16.16.06.08.1.18.16.28.1.21.17.43.21.58ZM42.38 30.21h.01l-.02-.01c.1-.1.29-.4.29-.7a.5.5 0 0 0-.16-.37c-.07-.07-.16-.11-.22-.15l-.04-.02a.85.85 0 0 0-.24-.06h-.02c-.1-.02-.22-.04-.32-.1a.26.26 0 0 1-.1-.13.78.78 0 0 1-.05-.18 1.79 1.79 0 0 1-.01-.36h.08c0 .09 0 .23.02.35a.7.7 0 0 0 .04.16c.02.05.04.08.07.1.08.04.18.06.28.07h.03c.1.02.19.04.26.08l.03.02c.07.03.17.08.25.16.1.1.18.23.18.44 0 .3-.18.6-.28.72a4.3 4.3 0 0 1-.38.88.66.66 0 0 1-.18.2 9.34 9.34 0 0 1-.41.67l-.04.02c-.06 0-.1-.04-.13-.08a.4.4 0 0 1-.04-.15l-.03-.14-.01-.05a19.5 19.5 0 0 1-.16-.83 29.7 29.7 0 0 0-.26-1.58l.09-.01c.07.4.23 1.28.26 1.58.02.19.06.42.1.62l.05.2.01.06.03.15c0 .04.02.08.04.11.01.03.03.04.04.04v-.01a9.1 9.1 0 0 0 .36-.61l-.02-.02c-.03-.03-.05-.08-.06-.16v-.37a2.81 2.81 0 0 0-.04-.3 21.84 21.84 0 0 1-.12-.56l-.02-.11-.05-.22a5.46 5.46 0 0 0-.03-.14v-.01a3.22 3.22 0 0 1-.28-1.22h.09a3.15 3.15 0 0 0 .29 1.25c0 .02 0 .06.02.1l.04.22.02.11a21.18 21.18 0 0 0 .15.69v.19l.01.13.01.23c0 .07.02.1.04.12a.6.6 0 0 0 .16-.16c.06-.08.1-.18.16-.28.1-.21.17-.43.21-.58Z" fill="#fff"/><path fill-rule="evenodd" d="M14.29 28.14c-.13.23-.5.4-.93.4-.54 0-.98-.26-.98-.58 0-.31.44-.57.98-.57.43 0 .8.16.93.39h.82c-.22-.04-.47-.19-.47-.61 0-.7.64-.73.74-.73h.03c.13-.01.5-.04.77.79 0-.09.09-.26.35-.26s.4.22.44.33a.54.54 0 0 1 .37-.13c.2 0 .32.16.35.24.03-.05.13-.14.35-.14.22 0 .36.14.4.2 0-.03.05-.1.26-.1.21 0 .33.12.36.17.02-.02.1-.06.25-.06.14 0 .25.1.29.16.01-.02.08-.05.18-.05.1 0 .18.08.2.11a.4.4 0 0 1 .2-.06c.08 0 .18.14.22.2l2.7.12-2.7.12c-.04.06-.14.2-.22.2a.4.4 0 0 1-.2-.06c-.02.04-.1.11-.2.11s-.17-.03-.18-.05c-.04.06-.15.17-.3.17-.13 0-.22-.05-.24-.07-.03.06-.15.17-.36.17s-.27-.07-.27-.1a.46.46 0 0 1-.39.2c-.22 0-.32-.09-.35-.13-.03.08-.15.24-.35.24-.2 0-.33-.1-.37-.14-.04.11-.18.34-.44.34s-.34-.18-.35-.27c-.26.83-.64.8-.77.8h-.03c-.1 0-.74-.03-.74-.73 0-.43.25-.58.47-.62h-.82Zm1.09-.3h.38c-.03-.36-.17-1.09-.44-1.03-.22.04-.14.21-.05.4.05.1.1.21.1.31v.33Zm.8.03h.5c0-.15-.04-.45-.25-.45-.2 0-.25.3-.25.45Zm1.3 0h-.51c0-.1.05-.29.25-.29s.26.2.26.29Zm.29 0h.36c0-.1-.03-.29-.18-.29-.14 0-.18.2-.18.29Zm1.02 0h-.36c0-.1.03-.29.18-.29s.18.2.18.29Zm.31 0h.3c0-.08-.03-.23-.15-.23s-.15.15-.15.23Zm.73 0h-.18c0-.05.02-.14.1-.14.07 0 .08.1.08.14Zm.2 0h.17c0-.05-.02-.14-.09-.14-.07 0-.09.1-.09.14Zm-4.65.2h.38c-.03.37-.17 1.1-.44 1.04-.22-.04-.14-.2-.05-.39a.8.8 0 0 0 .1-.32v-.32Zm.8-.01h.5c0 .14-.04.44-.25.44-.2 0-.25-.3-.25-.44Zm1.3 0h-.51c0 .09.05.28.25.28s.26-.19.26-.28Zm.29 0h.36c0 .09-.03.28-.18.28-.14 0-.18-.19-.18-.28Zm1.02 0h-.36c0 .09.03.28.18.28s.18-.19.18-.28Zm.31 0h.3c0 .07-.03.22-.15.22s-.15-.15-.15-.22Zm.73 0h-.18c0 .04.02.13.1.13.07 0 .08-.09.08-.13Zm.2 0h.17c0 .04-.02.13-.09.13-.07 0-.09-.09-.09-.13Z" fill="#fff"/><path d="M13.62 25.79h-.01l.02.01c-.1.1-.29.4-.29.7 0 .18.07.3.16.37.07.07.16.11.22.15l.04.02c.06.03.14.04.24.06h.02c.1.02.22.04.32.1.04.02.08.07.1.13l.05.18c.02.13.02.27.01.36h-.08c0-.09 0-.23-.02-.35a.7.7 0 0 0-.04-.16c-.02-.05-.04-.08-.07-.1a.93.93 0 0 0-.28-.07h-.03a.9.9 0 0 1-.26-.08l-.03-.02a1.02 1.02 0 0 1-.25-.16.57.57 0 0 1-.18-.44c0-.3.18-.6.28-.72a4.3 4.3 0 0 1 .38-.88.66.66 0 0 1 .18-.2 9.4 9.4 0 0 1 .41-.67l.04-.02c.06 0 .1.04.13.08.02.04.04.1.04.15l.03.14.01.05.05.2c.04.2.09.44.1.63.04.3.2 1.18.27 1.58l-.09.01c-.07-.4-.23-1.28-.26-1.58a5.83 5.83 0 0 0-.1-.62l-.05-.2-.01-.06a2.14 2.14 0 0 1-.03-.15.33.33 0 0 0-.04-.11c-.01-.03-.03-.04-.04-.04v.01a8.98 8.98 0 0 0-.36.61l.02.02c.03.03.05.08.06.16.02.31.03.59.1.9.05.26.09.54.16.8v.01a3.22 3.22 0 0 1 .28 1.22h-.09a3.15 3.15 0 0 0-.29-1.25l-.15-.77c-.07-.31-.07-.59-.1-.9 0-.07-.02-.1-.04-.12a.6.6 0 0 0-.16.16c-.06.08-.1.18-.16.28-.1.21-.17.43-.21.58ZM13.62 30.21h-.01l.02-.01c-.1-.1-.29-.4-.29-.7 0-.18.07-.3.16-.37.14-.13.32-.2.5-.23h.02c.1-.02.22-.04.32-.1a.26.26 0 0 0 .1-.13.78.78 0 0 0 .05-.18c.02-.13.02-.27.01-.36h-.08c0 .09 0 .23-.02.35a.7.7 0 0 1-.04.16c-.02.05-.04.08-.07.1a.93.93 0 0 1-.28.07h-.03c-.2.04-.4.12-.54.26-.1.1-.18.23-.18.44 0 .3.18.6.28.72a4.3 4.3 0 0 0 .38.88c.05.09.12.16.18.2a9.34 9.34 0 0 0 .41.67l.04.02c.06 0 .1-.04.13-.08a.4.4 0 0 0 .04-.15l.03-.14.01-.05a19.5 19.5 0 0 0 .16-.83c.03-.3.18-1.18.26-1.58l-.09-.01c-.07.4-.23 1.28-.26 1.58-.02.19-.06.42-.1.62l-.05.2-.01.06-.03.15c0 .04-.02.08-.04.11-.01.03-.03.04-.04.04v-.01a9.1 9.1 0 0 1-.36-.61l.02-.02c.03-.03.05-.08.06-.16.02-.31.03-.59.1-.9.1-.46.24-.9.35-1.36.04-.2.08-.53.09-.67h-.09a5.4 5.4 0 0 1-.09.65c-.1.46-.25.9-.35 1.37-.07.31-.07.59-.1.9 0 .07-.02.1-.04.12a.6.6 0 0 1-.16-.16c-.06-.08-.1-.18-.16-.28-.1-.21-.17-.43-.21-.58Z" fill="#fff"/><path fill-rule="evenodd" d="M37.8 18.4c.25.07.63-.07.93-.37.38-.39.5-.88.29-1.1-.23-.22-.72-.1-1.1.29-.3.3-.45.67-.38.93l-.58.58c.13-.18.2-.46-.1-.76-.5-.5-.97-.07-1.04 0l-.02.02c-.1.09-.39.34.01 1.1-.06-.05-.24-.12-.43.07-.18.18-.12.44-.07.55a.54.54 0 0 0-.36.16c-.14.14-.11.34-.08.42-.05-.01-.19 0-.34.15a.46.46 0 0 0-.14.43c-.02-.03-.1-.04-.26.11-.15.15-.15.31-.13.37-.03 0-.12.03-.22.13s-.1.26-.1.32c-.02 0-.08.02-.16.1-.07.07-.07.18-.06.23a.4.4 0 0 0-.19.09c-.05.05-.02.22 0 .3l-1.83 1.98 1.99-1.82c.07.02.24.05.3 0a.4.4 0 0 0 .09-.19c.05 0 .16 0 .23-.07s.1-.14.1-.16c.06 0 .22 0 .31-.1.1-.1.13-.18.13-.22.06.02.22.02.37-.13s.14-.23.12-.26c.08.02.27.03.42-.13.16-.16.17-.3.15-.35.08.04.28.07.42-.07.14-.14.17-.3.17-.37.1.06.36.12.55-.06.18-.19.11-.37.06-.44.77.4 1.02.12 1.1.02l.02-.02c.07-.07.5-.54 0-1.04-.3-.3-.58-.23-.75-.1l.58-.59Zm-.98.57-.27.26c-.24-.28-.66-.88-.42-1.04.18-.12.24.05.3.24.05.12.09.24.16.3l.23.24Zm-.55.58-.36.36c-.11-.1-.29-.35-.14-.5.14-.14.4.03.5.14Zm-.92.91.36-.36c-.07-.06-.24-.16-.38-.01-.15.14-.05.3.02.37Zm-.21.21-.26.26c-.06-.07-.17-.23-.07-.33s.26 0 .33.07Zm-.72.72.26-.25c-.07-.07-.23-.18-.33-.07-.1.1 0 .26.07.32Zm-.22.22-.2.21c-.06-.05-.15-.18-.07-.26.09-.09.21 0 .27.05Zm-.52.52.13-.13c-.03-.03-.11-.08-.16-.03s0 .13.03.16Zm-.13.13-.13.13c-.03-.03-.08-.11-.03-.16s.13 0 .16.03Zm3.43-3.13-.27.27c.28.23.89.65 1.05.42.12-.19-.06-.25-.25-.31a.8.8 0 0 1-.3-.15l-.23-.23Zm-.58.55-.36.36c.1.1.35.28.5.14.14-.15-.04-.4-.14-.5Zm-.92.92.36-.36c.07.06.17.23.02.38-.15.14-.31.04-.38-.02Zm-.2.2-.26.26c.06.07.22.18.32.07.1-.1 0-.26-.07-.32Zm-.73.73.26-.26c.07.07.17.23.07.33s-.26 0-.33-.07Zm-.22.22-.2.2c.05.06.17.15.26.06.08-.08 0-.2-.06-.26Zm-.51.51.12-.12c.03.03.09.1.04.16-.05.05-.13 0-.16-.04Zm-.14.14-.12.12c.03.04.1.09.16.04.05-.05 0-.13-.04-.16Z" fill="#fff"/><path d="m36.6 16.27.01-.01v.02c.14 0 .48.08.69.3a.5.5 0 0 1 .16.37c0 .1-.03.19-.06.26l-.01.04a.85.85 0 0 1-.13.22v.01a1 1 0 0 0-.16.29c-.02.05 0 .11.01.16.02.06.06.11.1.17.07.1.17.2.24.27l.06-.07a1.7 1.7 0 0 1-.23-.25.7.7 0 0 1-.09-.15c-.02-.05-.02-.08-.01-.11.02-.1.08-.18.14-.26l.01-.02a.9.9 0 0 0 .15-.27c.02-.08.06-.18.06-.3 0-.13-.03-.28-.18-.43-.22-.22-.55-.3-.71-.31a4.31 4.31 0 0 0-.9-.36.66.66 0 0 0-.26 0 9.47 9.47 0 0 0-.77-.2l-.04.02c-.05.04-.05.1-.03.15.01.05.04.1.07.13l.08.12.03.05.11.18a29.6 29.6 0 0 1 1.3 1.82l.07-.05c-.23-.34-.74-1.08-.94-1.31a5.82 5.82 0 0 1-.36-.51l-.11-.18-.03-.05-.08-.12a.33.33 0 0 1-.06-.1v-.06h.01a9.4 9.4 0 0 1 .68.18v.02c0 .05.03.1.08.16l.17.18.08.09a2.8 2.8 0 0 1 .2.24c0 .03.05.1.1.19l.2.29.07.1.12.18a5.64 5.64 0 0 1 .08.13 3.22 3.22 0 0 0 .67 1.05l.06-.05a3.16 3.16 0 0 1-.68-1.08 5.83 5.83 0 0 0-.06-.1l-.12-.19-.07-.09a21.8 21.8 0 0 1-.38-.59l-.13-.14-.08-.1-.16-.17c-.05-.05-.06-.09-.06-.1v-.02a.6.6 0 0 1 .23.01 4.24 4.24 0 0 1 .87.34ZM39.73 19.4l.01-.01h-.02c0-.14-.08-.48-.3-.69a.5.5 0 0 0-.37-.16c-.1 0-.19.03-.26.06l-.04.01c-.07.02-.13.07-.22.13h-.01a1 1 0 0 1-.3.16.26.26 0 0 1-.15-.01.78.78 0 0 1-.17-.1 1.8 1.8 0 0 1-.27-.24l.07-.06c.06.06.15.16.25.23l.15.09c.05.02.08.02.11.01.1-.02.18-.08.26-.14l.02-.01a.9.9 0 0 1 .27-.15c.08-.02.18-.06.3-.06.13 0 .28.03.43.18.22.22.3.55.31.71a4.33 4.33 0 0 1 .36.9c.02.1.02.19 0 .26a9.31 9.31 0 0 1 .2.77l-.02.04c-.04.05-.1.04-.15.03a.4.4 0 0 1-.13-.07 2.1 2.1 0 0 0-.12-.08l-.05-.03a19.75 19.75 0 0 1-.7-.48c-.23-.19-.96-.7-1.3-.93l.05-.07c.34.23 1.08.74 1.31.94.15.12.34.25.51.36l.18.11.05.03.12.08c.03.03.07.05.1.06h.06v-.01a9.1 9.1 0 0 0-.18-.68h-.02c-.05 0-.1-.03-.16-.08a4.35 4.35 0 0 1-.4-.37.52.52 0 0 0-.1-.07l-.2-.12-.29-.2-.1-.06-.18-.12a5.2 5.2 0 0 0-.12-.08 3.24 3.24 0 0 1-1.06-.67l.05-.06a3.15 3.15 0 0 0 1.08.68l.1.06.19.12.09.07a22.5 22.5 0 0 0 .59.38 2.85 2.85 0 0 1 .23.21l.18.16c.05.05.09.06.1.06h.02a.6.6 0 0 0-.01-.23 4.24 4.24 0 0 0-.34-.87Z" fill="#fff"/><path fill-rule="evenodd" d="M18.4 37.8c.07.25-.07.63-.37.93-.39.38-.88.5-1.1.29-.22-.23-.1-.72.29-1.1.3-.3.67-.45.93-.38l.58-.58c-.18.13-.46.2-.76-.1-.5-.5-.07-.97 0-1.04l.02-.02c.09-.1.34-.39 1.1.01-.05-.06-.12-.24.07-.43.18-.18.44-.12.55-.07 0-.06.02-.22.16-.36.14-.14.34-.11.42-.08-.01-.05 0-.19.15-.34a.46.46 0 0 1 .43-.14c-.03-.02-.04-.1.11-.26.15-.15.31-.15.37-.13 0-.03.03-.12.13-.22s.26-.1.32-.1c0-.02.02-.08.1-.16.07-.07.18-.07.23-.06a.4.4 0 0 1 .09-.19c.05-.05.22-.02.3 0l1.98-1.83-1.82 1.99c.02.07.05.24 0 .3a.4.4 0 0 1-.19.09c0 .05 0 .16-.07.23s-.14.1-.16.1c0 .06 0 .22-.1.31-.1.1-.18.13-.22.13.02.06.02.22-.13.37s-.23.14-.26.12c.02.08.03.27-.13.42-.16.16-.3.17-.35.15.04.08.07.28-.07.42a.54.54 0 0 1-.37.17c.06.1.12.36-.06.55-.19.18-.37.11-.44.06.4.77.12 1.02.02 1.1l-.02.02c-.07.07-.54.5-1.04 0-.3-.3-.23-.58-.1-.75l-.59.58Zm.57-.98.26-.27c-.28-.24-.88-.66-1.04-.42-.12.18.05.24.24.3a.8.8 0 0 1 .3.16l.24.23Zm.58-.55.36-.36c-.1-.11-.35-.29-.5-.14-.14.14.03.4.14.5Zm.91-.92-.36.36c-.06-.07-.16-.24-.01-.38.14-.15.3-.05.37.02Zm.21-.21.26-.26c-.07-.06-.23-.17-.33-.07s0 .26.07.33Zm.72-.72-.25.26c-.07-.07-.18-.23-.07-.33.1-.1.26 0 .32.07Zm.22-.22.21-.2c-.05-.06-.18-.15-.26-.07-.09.09 0 .21.05.27Zm.52-.52-.13.13c-.03-.03-.08-.11-.03-.16s.13 0 .16.03Zm.13-.13.13-.13c-.03-.03-.11-.08-.16-.03s0 .13.03.16Zm-3.13 3.43.27-.27c.23.28.65.89.42 1.05-.19.12-.25-.06-.31-.25-.04-.11-.08-.23-.15-.3l-.23-.23Zm.55-.58.36-.36c.1.1.28.35.14.5-.15.14-.4-.04-.5-.14Zm.92-.92-.36.36c.06.07.23.17.38.02.14-.15.04-.31-.02-.38Zm.2-.2.26-.26c.07.06.18.22.07.32-.1.1-.26 0-.32-.07Zm.73-.73-.26.26c.07.07.23.17.33.07s0-.26-.07-.33Zm.22-.22.2-.2c.06.05.15.17.06.26-.08.08-.2 0-.26-.06Zm.51-.51-.12.12c.03.03.1.09.16.04.05-.05 0-.13-.04-.16Zm.14-.14.12-.12c.04.03.09.1.04.16-.05.05-.13 0-.16-.04Z" fill="#fff"/><path d="m16.27 36.6-.01.01h.02c0 .14.08.48.3.69a.5.5 0 0 0 .37.16c.34-.01.52-.28.82-.36.05-.02.11 0 .16.01.06.02.11.06.17.1.1.07.2.17.27.24l-.07.06a1.71 1.71 0 0 0-.25-.23.7.7 0 0 0-.15-.09c-.05-.02-.08-.02-.11-.01-.31.09-.49.35-.84.36a.57.57 0 0 1-.44-.18c-.22-.22-.3-.55-.31-.71a4.33 4.33 0 0 1-.36-.9.66.66 0 0 1 0-.26 9.31 9.31 0 0 1-.2-.77l.02-.04c.04-.05.1-.05.15-.03.32.09.76.46 1 .66.23.19.96.7 1.3.93l-.05.07c-.34-.23-1.08-.74-1.31-.94a5.83 5.83 0 0 0-.51-.36l-.35-.22a.33.33 0 0 0-.1-.06h-.06v.01a9.07 9.07 0 0 0 .18.68h.02c.05 0 .1.03.16.08l.18.17.09.08c.32.3.74.55 1.12.77a3.24 3.24 0 0 1 1.06.67l-.05.06c-.1-.09-.36-.3-.53-.4-.5-.31-1.06-.53-1.52-.91a2.95 2.95 0 0 1-.23-.21l-.18-.16c-.05-.05-.09-.06-.1-.06h-.02a.6.6 0 0 0 .01.23 4.24 4.24 0 0 0 .34.87ZM19.4 39.73l-.01.01v-.02c-.14 0-.48-.08-.69-.3a.5.5 0 0 1-.16-.37c.01-.34.28-.52.36-.82a.26.26 0 0 0-.01-.16.77.77 0 0 0-.1-.17c-.07-.1-.17-.2-.24-.27l-.06.07c.06.06.16.15.23.25l.09.15c.02.05.02.08.01.11-.09.31-.35.49-.36.84 0 .14.03.3.18.44.22.22.55.3.71.31a4.3 4.3 0 0 0 .9.36c.1.02.19.02.26 0a9.47 9.47 0 0 0 .77.2l.04-.02c.05-.04.05-.1.03-.15a.4.4 0 0 0-.07-.13 2.15 2.15 0 0 1-.08-.12l-.03-.05-.11-.18a5.9 5.9 0 0 0-.37-.51c-.19-.24-.7-.97-.93-1.3l-.07.04c.23.34.74 1.08.94 1.31.12.15.25.34.36.51l.11.18.03.05.08.12c.03.03.05.07.06.1v.06h-.01a9.1 9.1 0 0 1-.68-.18v-.02c0-.05-.03-.1-.08-.16-.12-.14-.26-.26-.37-.4a.52.52 0 0 1-.07-.1c-.2-.45-.58-1-.84-1.42-.1-.17-.32-.43-.4-.53l-.07.05c.09.1.3.36.4.53.26.41.63.96.83 1.4.01.03.04.08.08.12.12.14.26.26.37.4.05.06.06.1.06.11v.02a.6.6 0 0 1-.23-.01 4.25 4.25 0 0 1-.87-.34Z" fill="#fff"/><path fill-rule="evenodd" d="M37.6 37.8c-.07.25.07.63.37.93.39.38.88.5 1.1.29.22-.23.1-.72-.29-1.1-.3-.3-.67-.45-.93-.38l-.58-.58c.18.13.46.2.76-.1.5-.5.07-.97 0-1.04L38 35.8c-.09-.1-.34-.39-1.1.01.05-.06.12-.24-.07-.43-.18-.18-.44-.12-.55-.07a.54.54 0 0 0-.16-.36c-.14-.14-.34-.11-.42-.08.01-.05 0-.19-.15-.34a.46.46 0 0 0-.43-.14c.03-.02.04-.1-.11-.26-.15-.15-.31-.15-.37-.13 0-.03-.03-.12-.13-.22s-.26-.1-.32-.1c0-.02-.02-.08-.1-.16-.07-.07-.18-.07-.23-.06a.4.4 0 0 0-.09-.19c-.05-.05-.22-.02-.3 0l-1.98-1.83 1.82 1.99c-.02.07-.05.24 0 .3a.4.4 0 0 0 .19.09c0 .05 0 .16.07.23s.14.1.16.1c0 .06 0 .22.1.31.1.1.18.13.22.13-.02.06-.02.22.13.37s.23.14.26.12a.46.46 0 0 0 .13.42c.16.16.3.17.34.15-.03.08-.06.28.08.42.14.14.3.17.37.17-.06.1-.12.36.07.55.18.18.36.11.43.06-.4.77-.12 1.02-.02 1.1l.02.02c.07.07.54.5 1.04 0 .3-.3.23-.58.1-.75l.59.58Zm-.57-.98-.26-.27c.28-.24.88-.66 1.04-.42.12.18-.05.24-.24.3-.12.05-.24.09-.3.16l-.24.23Zm-.58-.55-.36-.36c.1-.11.35-.29.5-.14.14.14-.03.4-.14.5Zm-.91-.92.36.36c.06-.07.16-.24.01-.38-.14-.15-.3-.05-.37.02Zm-.21-.21-.26-.26c.07-.06.23-.17.33-.07s0 .26-.07.33Zm-.72-.72.25.26c.07-.07.18-.23.07-.33-.1-.1-.26 0-.32.07Zm-.22-.22-.21-.2c.05-.06.18-.15.26-.07.09.09 0 .21-.05.27Zm-.52-.52.13.13c.03-.03.08-.11.03-.16s-.13 0-.16.03Zm-.13-.13-.13-.13c.03-.03.11-.08.16-.03s0 .13-.03.16Zm3.13 3.43-.27-.27c-.23.28-.65.89-.42 1.05.19.12.25-.06.31-.25a.8.8 0 0 1 .15-.3l.23-.23Zm-.55-.58-.36-.36c-.1.1-.28.35-.14.5.15.14.4-.04.5-.14Zm-.92-.92.36.36c-.06.07-.23.17-.38.02-.14-.15-.04-.31.02-.38Zm-.2-.2-.26-.26c-.07.06-.18.22-.07.32.1.1.26 0 .33-.07Zm-.73-.73.26.26c-.07.07-.23.17-.33.07s0-.26.07-.33Zm-.22-.22-.2-.2c-.06.05-.15.17-.06.26.08.08.2 0 .26-.06Zm-.51-.51.12.12c-.03.03-.1.09-.16.04-.05-.05 0-.13.04-.16Zm-.14-.14-.12-.12c-.04.03-.09.1-.04.16.05.05.13 0 .16-.04Z" fill="#fff"/><path d="m39.73 36.6.01.01h-.02c0 .14-.08.48-.3.69a.5.5 0 0 1-.37.16c-.1 0-.19-.03-.26-.06l-.04-.01c-.07-.02-.13-.07-.22-.13h-.01a1 1 0 0 0-.3-.16.26.26 0 0 0-.15.01.78.78 0 0 0-.17.1c-.1.07-.2.17-.27.24l.07.06c.06-.06.15-.16.25-.23a.7.7 0 0 1 .15-.09c.05-.02.08-.02.11-.01.1.02.18.08.26.14l.02.01a.9.9 0 0 0 .23.14l.04.01c.08.02.18.06.3.06.13 0 .28-.03.43-.18.22-.22.3-.55.31-.71a4.31 4.31 0 0 0 .36-.9c.02-.1.02-.19 0-.26a9.43 9.43 0 0 0 .2-.77l-.02-.04c-.04-.05-.1-.05-.15-.03a.4.4 0 0 0-.13.07l-.12.08-.05.03-.18.11a29.6 29.6 0 0 1-1.82 1.3l.05.07c.34-.23 1.08-.74 1.31-.94.15-.12.34-.25.51-.36l.18-.11.05-.03.12-.08a.33.33 0 0 1 .1-.06h.06v.01a9.33 9.33 0 0 1-.18.68h-.02c-.05 0-.1.03-.16.08l-.18.17-.09.08a2.8 2.8 0 0 1-.24.2c-.03 0-.1.05-.19.1l-.29.2-.1.07-.18.12a5.64 5.64 0 0 1-.12.08 3.23 3.23 0 0 0-1.06.67l.05.06a3.16 3.16 0 0 1 1.08-.68l.1-.06.19-.12.09-.07a21.8 21.8 0 0 1 .59-.38l.14-.13.1-.08.17-.16c.05-.05.09-.06.1-.06h.02a.6.6 0 0 1-.01.23 4.24 4.24 0 0 1-.34.87ZM36.6 39.73l.01.01v-.02c.14 0 .48-.08.69-.3a.5.5 0 0 0 .16-.37c0-.1-.03-.19-.06-.26l-.01-.04c-.02-.07-.07-.13-.13-.22v-.01a1 1 0 0 1-.16-.3.26.26 0 0 1 .01-.15.78.78 0 0 1 .1-.17c.07-.1.17-.2.24-.27l.06.07c-.06.06-.16.15-.23.25a.7.7 0 0 0-.09.15c-.02.05-.02.08-.01.11.02.1.08.18.14.26l.01.02a.9.9 0 0 1 .15.27c.02.08.06.18.06.3 0 .13-.03.28-.18.43-.22.22-.55.3-.71.31a4.31 4.31 0 0 1-.9.36c-.1.02-.19.02-.26 0a9.44 9.44 0 0 1-.77.2l-.04-.02c-.05-.04-.05-.1-.03-.15a.4.4 0 0 1 .07-.13l.08-.12.03-.05.11-.18a29.64 29.64 0 0 0 1.3-1.82l.07.05c-.23.34-.74 1.08-.94 1.31-.12.15-.25.34-.36.51l-.11.18-.03.05-.08.12a.33.33 0 0 0-.06.1v.06h.01a9.1 9.1 0 0 0 .68-.18v-.02c0-.05.03-.1.08-.16l.17-.18.08-.09a2.8 2.8 0 0 0 .2-.24c0-.03.05-.1.1-.19l.2-.29.07-.1.12-.18a5.64 5.64 0 0 0 .08-.12 3.23 3.23 0 0 1 .67-1.06l.06.05a3.15 3.15 0 0 0-.68 1.08 6.3 6.3 0 0 1-.06.1l-.12.19-.07.09a21.8 21.8 0 0 0-.38.59l-.13.14-.08.1-.16.17c-.05.05-.06.09-.06.1v.02a.6.6 0 0 0 .23-.01 4.24 4.24 0 0 0 .87-.34Z" fill="#fff"/><path fill-rule="evenodd" d="M18.2 18.4c-.25.07-.63-.07-.93-.37-.38-.39-.5-.88-.29-1.1.23-.22.72-.1 1.1.29.3.3.45.67.38.93l.58.58c-.13-.18-.2-.46.1-.76.5-.5.97-.07 1.04 0l.02.02c.1.09.39.34-.01 1.1.06-.05.24-.12.43.07.18.18.12.44.07.55.06 0 .22.02.36.16.14.14.11.34.08.42.05-.01.19 0 .34.15.16.16.16.35.14.43.02-.03.1-.04.26.11.15.15.15.31.13.37.03 0 .12.03.22.13s.1.26.1.32c.02 0 .08.02.16.1.07.07.07.18.06.23a.4.4 0 0 1 .19.09c.05.05.02.22 0 .3l1.83 1.98-1.99-1.82c-.07.02-.24.05-.3 0a.4.4 0 0 1-.09-.19c-.05 0-.16 0-.23-.07s-.1-.14-.1-.16c-.06 0-.21 0-.31-.1s-.13-.18-.13-.22c-.06.02-.22.02-.37-.13s-.14-.23-.12-.26a.46.46 0 0 1-.42-.13c-.16-.16-.17-.3-.15-.35-.08.04-.28.07-.42-.07a.54.54 0 0 1-.17-.37c-.1.06-.36.12-.55-.06-.18-.19-.11-.37-.06-.44-.77.4-1.02.12-1.1.02l-.02-.02c-.07-.07-.5-.54 0-1.04.3-.3.58-.23.75-.1l-.58-.59Zm.98.57.27.26c.24-.28.66-.88.42-1.04-.18-.12-.24.05-.3.24-.05.12-.09.24-.16.3l-.23.24Zm.55.58.36.36c.11-.1.29-.35.14-.5-.14-.14-.4.03-.5.14Zm.92.91-.36-.36c.07-.06.24-.16.38-.01.15.14.05.3-.02.37Zm.21.21.26.26c.06-.07.17-.23.07-.33s-.26 0-.33.07Zm.72.72-.26-.25c.07-.07.23-.18.33-.07.1.1 0 .26-.07.32Zm.22.22.2.21c.06-.05.15-.18.07-.26-.09-.09-.21 0-.27.05Zm.52.52-.13-.13c.03-.03.11-.08.16-.03s0 .13-.03.16Zm.13.13.13.13c.03-.03.08-.11.03-.16s-.13 0-.16.03Zm-3.43-3.13.27.27c-.28.23-.89.65-1.05.42-.12-.19.06-.25.25-.31.11-.04.23-.08.3-.15l.23-.23Zm.58.55.36.36c-.1.1-.35.28-.5.14-.14-.15.04-.4.14-.5Zm.92.92-.36-.36c-.07.06-.17.23-.02.38.15.14.31.04.38-.02Zm.2.2.26.26c-.06.07-.22.18-.32.07-.1-.1 0-.26.07-.32Zm.73.73-.26-.26c-.07.07-.17.23-.07.33s.26 0 .33-.07Zm.22.22.2.2c-.05.06-.17.15-.26.06-.08-.08 0-.2.06-.26Zm.51.51-.12-.12c-.03.03-.09.1-.04.16.05.05.13 0 .16-.04Zm.14.14.12.12c-.03.04-.1.09-.16.04-.05-.05 0-.13.04-.16Z" fill="#fff"/><path d="m19.4 16.27-.01-.01v.02c-.14 0-.48.08-.69.3a.5.5 0 0 0-.16.37c0 .2.09.36.2.52v.01a1 1 0 0 1 .16.29c.02.05 0 .11-.01.16a.78.78 0 0 1-.1.17c-.07.1-.17.2-.24.27l-.06-.07c.06-.06.16-.15.23-.25a.7.7 0 0 0 .09-.15c.02-.05.02-.08.01-.11a.93.93 0 0 0-.14-.26l-.01-.02a.9.9 0 0 1-.14-.23c-.02-.08-.07-.2-.07-.33 0-.14.03-.3.18-.44.22-.22.55-.3.71-.31a4.31 4.31 0 0 1 .9-.36c.1-.02.19-.02.26 0a9.43 9.43 0 0 1 .77-.2l.04.02c.05.04.04.1.03.15-.04.16-.2.34-.3.48-.1.17-.23.37-.36.51-.19.24-.7.97-.93 1.3l-.07-.04c.23-.34.74-1.08.94-1.31.12-.15.25-.34.36-.51.08-.13.24-.3.28-.46v-.05h-.01a9.33 9.33 0 0 0-.68.18v.02c0 .05-.03.1-.08.16l-.17.18c-.49.51-.74 1.15-1.1 1.74-.12.17-.33.43-.42.53l-.06-.05c.09-.1.3-.36.4-.53.34-.55.58-1.18 1.04-1.66l.08-.1.16-.17c.05-.05.06-.09.06-.1v-.02a.6.6 0 0 0-.23.01 4.24 4.24 0 0 0-.87.34ZM16.27 19.4l-.01-.01h.02c0-.14.08-.48.3-.69a.5.5 0 0 1 .37-.16c.1 0 .19.03.26.06l.04.01c.07.02.13.07.22.13h.01a1 1 0 0 0 .29.16c.05.02.11 0 .16-.01a.78.78 0 0 0 .17-.1c.1-.07.2-.17.27-.24l-.07-.06c-.06.06-.15.16-.25.23a.7.7 0 0 1-.15.09c-.05.02-.08.02-.11.01a.93.93 0 0 1-.26-.14l-.02-.01a.9.9 0 0 0-.27-.15c-.08-.02-.18-.06-.3-.06-.13 0-.28.03-.43.18-.22.22-.3.55-.31.71a4.31 4.31 0 0 0-.36.9c-.02.1-.02.19 0 .26a9.44 9.44 0 0 0-.2.77l.02.04c.04.05.1.04.15.03a.4.4 0 0 0 .13-.07l.12-.08.05-.03.18-.11a29.64 29.64 0 0 1 1.82-1.3l-.05-.07c-.34.23-1.08.74-1.31.94a5.83 5.83 0 0 1-.69.47l-.05.03-.12.08a.33.33 0 0 1-.1.06h-.06v-.01a9.1 9.1 0 0 1 .18-.68h.02c.05 0 .1-.03.16-.08.24-.2.44-.39.7-.56.4-.26.81-.47 1.22-.72.17-.1.43-.32.53-.4l-.05-.07c-.1.09-.36.3-.53.4-.4.25-.82.46-1.22.72-.26.17-.47.36-.7.56-.06.05-.1.06-.11.06h-.02a.6.6 0 0 1 .01-.23 4.24 4.24 0 0 1 .34-.87Z" fill="#fff"/><path d="M15.54 27.98c0-.95.08-1.6.13-1.8l24.47-.45c.09.35.26 1.29.26 2.27s-.17 1.65-.26 1.86H15.67c-.05-.23-.13-.93-.13-1.88Z" fill="#F26321"/><path fill-rule="evenodd" d="M23.85 24.43a.43.43 0 1 1-.85 0 .43.43 0 0 1 .85 0Zm-5.09.57-1.32 1.53H18v1.46c0 .35.29 1.01.88 1.01.48 0 .77-.12.85-.18v-.6c-.08.06-.32.17-.58.17a.38.38 0 0 1-.39-.29v-1.57h.93V26h-.93v-1Zm1.8 2.65h1.96c.04-.55-.16-1.65-1.25-1.65s-1.3 1.02-1.27 1.53c.03.49.31 1.47 1.27 1.47a2 2 0 0 0 1.21-.33l-.04-.52c-.15.12-.56.34-1.02.34-.58 0-.8-.4-.86-.84Zm0-.45h1.4c-.05-.23-.24-.7-.68-.7-.43 0-.67.37-.71.7ZM23 26.12v4.59c0 .15-.1.47-.48.47H22l.29.82c.47 0 1.4-.3 1.4-1.53V26l-.7.12Zm1.35-.12H25v.35c.16-.16.46-.35.9-.35.67 0 1.11.4 1.11 1.02V29h-.7v-1.98c.01-.19-.07-.57-.59-.57-.32 0-.56.2-.72.4V29h-.64v-3Zm3.5.29v.66c.2-.15.7-.43 1.1-.43.49 0 .51.36.51.5v.08c-.09.04-.27.11-.6.2-.68.2-1.14.47-1.14 1.08.02.2.24.62.92.62.4 0 .67-.14.83-.3.03.14.13.3.38.3.33 0 .58-.12.66-.19v-.4c-.06.04-.21.14-.3.14-.11 0-.21-.08-.21-.2v-1.58c0-.26-.13-.77-.9-.77-.6 0-1.09.2-1.26.29Zm1.61 2.04v-.85c-.1.05-.25.1-.44.14-.4.09-.67.33-.67.5 0 .17 0 .39.5.39.33 0 .52-.1.61-.18ZM31 24h.6v5H31v-5Zm1.9 2h.76l-1.25 1.36L33.89 29h-.83l-1.43-1.58L32.9 26Zm2.86.8v-.55c-.13-.09-.49-.25-.9-.25-.48 0-1.08.17-1.08.77 0 .54.3.67.71.83l.14.06c.46.2.64.46.64.57 0 .1-.06.27-.59.27-.41 0-.78-.28-.9-.41v.72c.15.07.54.19.9.19.46 0 1.28-.11 1.28-.77s-.71-.92-1.1-1.05c-.3-.1-.39-.3-.4-.38 0-.1.06-.3.4-.3.36 0 .75.2.9.3Zm.64-2.8h.6v2.32c.17-.14.5-.32.99-.32a.96.96 0 0 1 1.01.9V29h-.62v-1.9c-.02-.19-.18-.57-.63-.57-.33 0-.6.2-.75.39V29h-.6v-5Z" fill="#fff"/><path fill-rule="evenodd" d="M28 40.5a12.5 12.5 0 1 0 0-25 12.5 12.5 0 0 0 0 25Zm0-.25a12.25 12.25 0 1 0 0-24.5 12.25 12.25 0 0 0 0 24.5Z" fill="#fff"/></svg>