<!-- by TradingView --><svg width="56" height="56" viewBox="0 0 56 56" xmlns="http://www.w3.org/2000/svg"><path fill="#F0F3FA" d="M0 0h56v56H0z"/><path fill-rule="evenodd" d="M17.84 17.77c1.3-.68 5.5-2.04 11.8-2.04C37.5 15.73 48 18.45 48 28c0 9.55-11.13 15-21.64 15C15.86 43 8 35.5 8 28c0-4.94 4.59-14.32 20.98-15 1.97 0 6.7.55 9.84 2.73-2.84-1.6-11.02-3.41-20.98 2.04ZM30.6 24.8l-.58.05-.63.1a.1.1 0 0 1-.05-.02.1.1 0 0 1-.05-.03.13.13 0 0 1-.02-.1l.83-2.94c.03-.1 0-.15-.1-.14l-.89.12a6.9 6.9 0 0 0-1.34 3.19c-.02.09-.07.13-.16.13-.27 0-.46 0-.71.1-.48.23-.55.43-.2.6l.72-.08c.13-.02.17.04.13.17a60.6 60.6 0 0 0-1.37 5.19c-.08.39-.05 1 .3 1.25 1.05.77 2.68-1.24 3.14-2.1.16-.3.23-.51.21-.64-.07-.49-.2-.5-.39-.05-.08.2-.24.45-.48.74-.14.34-.38.62-.73.84-.15.09-.24.13-.25.13a.36.36 0 0 1-.15-.07.41.41 0 0 1-.11-.12.5.5 0 0 1-.04-.35c.42-1.69.86-3.37 1.34-5.05a.18.18 0 0 1 .15-.14c.25-.05.55-.13.89-.26.2-.08.39-.25.54-.52Zm.43 1.26c.14-1.01.68-1.58 1.64-1.7.15-.02.24.04.25.18-.55 1.74-1.06 3.48-1.53 5.21-.04.17-.05.32-.02.46 0 .08.04.14.09.2.04.06.1.1.17.12.06.03.13.03.2.02a.39.39 0 0 0 .18-.1c1.22-1.15 1.83-3.23 2.33-4.97l.16-.55a.92.92 0 0 1 .42-.57 8 8 0 0 1 1.1-.41c-.01.03.03.09.13.18l-1.71 5.92c-.06.2 0 .33.18.41.05.03.1.03.15.02.35-.12.6-.35.72-.7.29-.77.65-1.33 1.08-1.68.36-.29.45-.2.27.23-.3.74-.4 1.88.3 2.34.21.13.44.15.69.08 1.15-.34 1.67-1.66.76-2.67l-.48-.5c-.86-.85-1.75-1.73-.57-3.1.81-.93 1.92-1.3 3.32-1.07l.06.02.04.05a.17.17 0 0 1 .03.13c-.12.51-.25 1-.4 1.48-.14.4-.25.39-.35 0-.2-.8-.57-1.46-1.43-.92-.85.54-.5 1.38.1 1.9 1.05.9 2.06 1.99 1.12 3.51a4.01 4.01 0 0 1-3.18 2.02c-.66.07-1.13-.17-1.4-.71-.05-.1-.1-.1-.17-.03-.48.5-1.6 1.39-2.18.67-.3-.37-.13-1.13 0-1.58.06-.2.04-.22-.07-.05l-.06.1c-.55.86-1.42 2.24-2.57 2.03-.64-.11-.66-1.1-.55-1.62.31-1.46.7-2.9 1.18-4.35Zm-9.88-4.58c-.03.05-.02.1.03.18a3.86 3.86 0 0 1-1.22 2.33c-.1-.06-.15-.18-.14-.35.09-.38.1-.77.06-1.18.06-.12.03-.26-.09-.4a.4.4 0 0 0-.21-.15.39.39 0 0 0-.25.02c-.97.4-1.53 1.8-1.75 2.83l-.8 3.75a16.3 16.3 0 0 1-1.44 4.03c-.06.1-.03.16.08.16.75.06 1.56 0 2.4-.21a2.55 2.55 0 0 0 1.5-.76 9.42 9.42 0 0 0 1.02-1.14c.04-.04.08-.04.11 0 .08.1.12.07.13-.05.04-1.08.3-2.11.8-3.11a4.9 4.9 0 0 1 1.8-1.79c1.16-.55 2.5-.56 3.06.9a6.7 6.7 0 0 1-.86 4.73 3.24 3.24 0 0 1-2.43 1.68c-1.53.21-2.3-.49-2.32-2.1l-.01-.01-.02-.02h-.02l-.02.03-.06.3c-.16.76-.37 1.76-1.13 1.95-.75.2-1.54.34-2.35.44a50.9 50.9 0 0 1-3.69.31c-.6-.85-.41-1.36.55-1.5.03 0 .07-.02.1-.05a.24.24 0 0 0 .07-.09c.48-1.07.88-2.22 1.18-3.46l.57-2.15.38-1.28.73-1.76c.27-.47.63-.94 1.07-1.42.65-.7 2.5-1.75 3.17-.66Zm2.86 9.51c-.2.58-.82 1.7-1.54 1.32-.42-.23-.39-.88-.36-1.3.1-1.52.65-4.3 1.98-5.06a.45.45 0 0 1 .48.02c.17.12.26.3.27.55.02 1.44-.26 2.93-.83 4.47Zm7.19 7.47c-.08.2-.04.24.13.1a20.33 20.33 0 0 0 3.71-3.86c.7-.93 2.08-1.58 2.78-.28.17.32.24.7.21 1.12 0 .08.03.14.1.17.05.04.11.04.17 0 .06-.03.11-.01.14.05a.1.1 0 0 1 0 .1 7.91 7.91 0 0 1-2.16 1.74 18.5 18.5 0 0 1-12.04 2.2 19.23 19.23 0 0 1-7.41-2.57c-.02-.01-.02-.03-.01-.05l.03-.06c0-.02.02-.03.04-.04h.05a20.58 20.58 0 0 0 11.14 1.87c1.04-.1 2.05-.33 3.02-.67.09-.03.13 0 .12.1l-.02.08Zm-13.97-2.17-.05.03.05-.03Zm-.05.03c-.68.34-.99.76-.93 1.28.52-.68.97-.95 1.36-.79.06-.14.05-.26-.04-.36a.25.25 0 0 0-.19-.1c-.15 0-.21-.02-.2-.03Z" fill="url(#axigmp0z3)"/><path d="M15.87 20.5c.87-1.36 4.98-4.1 14.43-4.1-1.75.92-5.51 3.7-6.56 7.5-.17.62-.36 1.2-.56 1.74-.73.4-1.32 1-1.8 1.78-.4.84-.66 1.7-.75 2.6a6.99 6.99 0 0 1-2.8 2.07c-.28-.7-.77-1.64-1.35-2.4.11-.38.21-.78.3-1.2.3-1.32.57-2.57.81-3.74.22-1.03.78-2.43 1.75-2.83a.39.39 0 0 1 .25-.02.4.4 0 0 1 .21.14c.12.15.15.29.1.41.04.4.02.8-.06 1.18-.02.17.03.3.14.35a3.86 3.86 0 0 0 1.2-2.33c-.04-.07-.05-.13-.02-.18-.67-1.09-2.52-.04-3.17.66-.44.48-.8.95-1.07 1.42l-.73 1.76-.38 1.28-.54 2.02a1.26 1.26 0 0 0-1.37.07c-1.97 1.37-2.62 4.1-.65 6.82l-.21-.13A7.12 7.12 0 0 1 9.3 28a11.22 11.22 0 0 1 7.21-9.55c-.21.46-.65 1.5-.65 2.05Z" fill="url(#bxigmp0z3)"/><defs><linearGradient id="axigmp0z3" x1="16.52" y1="16.41" x2="44.81" y2="36.49" gradientUnits="userSpaceOnUse"><stop stop-color="#2B1B1F"/><stop offset=".39" stop-color="#3E2624"/><stop offset="1" stop-color="#1F191B"/></linearGradient><linearGradient id="bxigmp0z3" x1="13.73" y1="18.58" x2="23.68" y2="27.15" gradientUnits="userSpaceOnUse"><stop stop-color="#D8A087"/><stop offset=".29" stop-color="#AD836D"/><stop offset=".62" stop-color="#6E463E"/><stop offset="1" stop-color="#5C4035"/></linearGradient></defs></svg>