<!-- by TradingView --><svg width="18" height="18" viewBox="0 0 18 18" xmlns="http://www.w3.org/2000/svg"><path fill="#F0F3FA" d="M0 0h18v18H0z"/><path d="m8.66 12.98-.02.02-.02-.01c-.64-.95-1.34-1.45-2.12-1.51a3.38 3.38 0 0 1-2.47-1.16A2.39 2.39 0 0 1 3.5 9.2c-.01-.08.02-.13.1-.16.5-.17 1.03-.22 1.57-.15a4.23 4.23 0 0 1 2.67 1.53c.34.42.57.88.7 1.37.05.17.08.43.1.76 0 .19 0 .34.02.44Z" fill="url(#a)"/><path d="m9.34 12.98.03-.44c.01-.33.04-.59.09-.76.13-.5.36-.95.7-1.37a4.23 4.23 0 0 1 2.67-1.53 3.38 3.38 0 0 1 1.57.15c.08.03.11.08.1.16-.07.4-.25.78-.53 1.13a3.39 3.39 0 0 1-2.47 1.16c-.78.06-1.48.56-2.12 1.51h-.02l-.02-.01Z" fill="url(#b)"/><path d="M9.87 9.89c-.08-.02-.03-.13.15-.32.1-.16.19-.33.26-.52 0-.02 0-.03-.02-.05-.02 0-.04 0-.05.02a.41.41 0 0 0-.04.08.63.63 0 0 1-.13-.46c.11-.5.09-.99-.08-1.47a10.28 10.28 0 0 0-.18-.42c-.01 0-.02.01-.02.03l.01.18-.05-.2H9.7v.01c0 .02 0 .03-.02.03-.39.09-.78.13-1.19.11-.02 0-.03-.01-.03-.03l.03-.44.11-.57c0-.02 0-.03-.02-.03l-.03.01-.1.3c-.28.47-.5.95-.68 1.44l-.16.45c-.01.03-.03.04-.07.04-.03-.01-.05-.03-.05-.06v-.1c.1-.4.25-.79.43-1.16.34-.7.6-1.28.77-1.73A5.07 5.07 0 0 0 9 4a10.22 10.22 0 0 0 .74 1.97c.23.47.4.85.52 1.14.14.33.23.63.27.89.03.28.02.58-.05.88-.09.4-.3.74-.6 1Z" fill="#0F4E95"/><path d="M8.5 6.44c-.1.43-.14.87-.15 1.32.05.17.1.29.15.34.08.09.23.13.47.13h.08c.05 0 .16.03.32.08.15.04.3.08.47.1-.08.27-.23.5-.46.67-.03.03-.05.02-.07-.02a.48.48 0 0 0-.38-.3c-.1-.02-.16.02-.2.12a.8.8 0 0 0-.07.39l-.02.04a.04.04 0 0 1-.04 0 .7.7 0 0 0-.47-.05.5.5 0 0 1-.27-.3 4.45 4.45 0 0 1-.15-.77l.06-.6a8.47 8.47 0 0 1 .68-1.45l.1-.29c0-.01.02-.02.03-.01.02 0 .03.01.02.03l-.1.57Z" fill="#48C3EC"/><path d="M8.37 6.55c0 .13-.02.3-.06.5l-.14.86c-.04.22-.1.41-.2.58a.07.07 0 0 1-.07.04.07.07 0 0 1-.07-.06l-.07-.24v-.06l.04-.47.02-.07.5-1.1.03-.01c.01 0 .02.01.02.03Z" fill="#E1FDFD"/><path d="M10.04 8.64c-.12.3-.3.55-.56.74a.11.11 0 0 0-.04.06.82.82 0 0 0-.02.2c0 .07-.04.16-.12.26a.1.1 0 0 1-.06.03c-.14.02-.23 0-.29-.07a8.16 8.16 0 0 1-.26-.31l-.56-.3a.7.7 0 0 1 .47.06h.04l.02-.04a.8.8 0 0 1 .06-.39c.05-.1.12-.14.21-.13.18.03.3.13.39.31.01.04.03.05.06.02.23-.17.38-.4.46-.67.09-.25.11-.5.09-.77a2.35 2.35 0 0 0-.16-.68v-.18c-.01-.02 0-.02.01-.03a10.26 10.26 0 0 1 .18.42c.17.48.2.97.08 1.47Z" fill="#fff"/><path d="m7.77 7.59-.06.6v.16c.06.32.11.52.15.62a.5.5 0 0 0 .27.29l.56.29.04.04.22.27c.06.06.15.09.29.07a.1.1 0 0 0 .06-.03c.08-.1.12-.19.12-.26 0-.09 0-.16.02-.2 0-.02.02-.04.04-.06.26-.19.44-.44.56-.74-.02.19.03.34.13.46-.09.2-.33.45-.74.75-.01 0-.02.02-.01.04v.03l.04.03h.05l.5-.38c-.17.2-.22.3-.14.32-.42.34-.86.43-1.31.25-.21-.08-.4-.2-.56-.39a2.24 2.24 0 0 1-.51-1.84v.1c0 .04.02.06.05.07.04 0 .06-.01.07-.04l.16-.45Z" fill="#228FC5"/><path d="M8.46 6.88c0 .02.01.03.03.03.4.02.8-.02 1.2-.1.01-.01.02-.02 0-.04l.01-.02h.02l.05.2c.09.23.14.46.16.7v.04c.02.25-.01.48-.09.72a2.82 2.82 0 0 1-.47-.1 1.54 1.54 0 0 0-.4-.08c-.24 0-.4-.04-.48-.13a.72.72 0 0 1-.12-.28l-.02-.06c0-.45.05-.9.14-1.32l-.03.44Z" fill="url(#c)"/><path d="M8.09 8.67c0 .13.04.24.1.24.05 0 .1-.1.1-.24 0-.13-.04-.24-.1-.25-.05 0-.1.11-.1.25Z" fill="#E1FDFD"/><defs><linearGradient id="a" x1="8.66" y1="8.85" x2="3.5" y2="8.85" gradientUnits="userSpaceOnUse"><stop stop-color="#457949"/><stop offset="1" stop-color="#99C743"/></linearGradient><linearGradient id="b" x1="13.74" y1="9.59" x2="9.63" y2="9.59" gradientUnits="userSpaceOnUse"><stop stop-color="#90C543"/><stop offset="1" stop-color="#47744D"/></linearGradient><linearGradient id="c" x1="9.14" y1="6.95" x2="9.14" y2="7.97" gradientUnits="userSpaceOnUse"><stop stop-color="#0F4E95"/><stop offset="1" stop-color="#48C3EC"/></linearGradient></defs></svg>