<!-- by TradingView --><svg width="56" height="56" viewBox="0 0 56 56" xmlns="http://www.w3.org/2000/svg"><path fill="#F0F3FA" d="M0 0h56v56H0z"/><circle cx="34" cy="28" r="8" fill="#010504"/><path d="M33.76 27.6c-2.23 2.23-5.2 2.87-6.63 1.44-1.43-1.43-.79-4.4 1.44-6.63 2.23-2.22 5.2-2.87 6.63-1.44 1.43 1.44.79 4.4-1.44 6.63Z" fill="#717179"/><path d="M32.36 26.25c-1.7 1.7-3.95 2.18-5.04 1.1-1.09-1.1-.6-3.35 1.1-5.04 1.68-1.7 3.94-2.19 5.03-1.1 1.09 1.1.6 3.35-1.1 5.04Z" fill="#C9CDD0"/><path d="M35 14H14v28h21v-3.04a11 11 0 1 1 0-21.91V14Z" fill="#072472"/><path d="M11 33c11.1-9 26.68-10.35 33.9-9.88.6.04 1.1-.44 1.1-1.06 0-.57-.44-1.03-.98-1.04C22.07 20.54 13 30.46 11 33Z" fill="#010504"/></svg>