<!-- by TradingView --><svg width="56" height="56" viewBox="0 0 56 56" xmlns="http://www.w3.org/2000/svg"><path fill="#181B1E" d="M0 0h56v56H0z"/><path d="M37.47 20v.45c-.52-.02-.9.03-1.16.13-.26.1-.4.32-.4.66 0 .1.03.23.07.39.05.15.14.35.3.6l3.26 5.37 2.86-5.45a2.33 2.33 0 0 0 .32-.9c0-.34-.17-.57-.51-.68-.2-.07-.55-.11-1.03-.12V20H46v.45c-.45.02-.84.17-1.2.44a8.52 8.52 0 0 0-1.84 2.32L40 28.67v4.7c0 .95.14 1.53.4 1.77.29.23.64.37 1.6.42V36h-6v-.44c1-.06 1.4-.22 1.63-.48.25-.27.37-.93.37-1.98v-4.2l-3.14-4.65c-1-1.6-1.7-2.62-2.1-3.07-.4-.46-1.19-.7-1.76-.73V20h6.47ZM10 35.57c1.97-.2 2-1.2 2-3.06V21.75l-.31-.38c-.55-.67-.84-.9-1.69-.93V20h3.7L23 31.44v-7.95c0-1.82-.1-2.88-2-3.05V20h5v.44c-1.9.2-2 1.27-2 3.05V36h-.4L13 23v9.54c0 1.8.13 2.82 2 3.03V36h-5v-.43ZM28 19h2v18h-2z" fill="#BA9D5C"/></svg>