<!-- by TradingView --><svg width="56" height="56" viewBox="0 0 56 56" xmlns="http://www.w3.org/2000/svg"><path fill="#F0F3FA" d="M0 0h56v56H0z"/><circle cx="28" cy="28" r="17" fill="#00A859"/><path d="m20.3 39.12.5.33-1.24 1.88-.5-.33 1.24-1.88ZM21.92 41.49l-.46.86-.5-.26.4-.76c.12-.24.1-.39-.07-.48-.17-.09-.37 0-.5.24l-.37.71-.5-.26.77-1.48.46.24-.14.26a.67.67 0 0 1 .7-.02c.36.19.43.52.2.95ZM24.79 41.15l-.18.43a1.3 1.3 0 0 0-.46-.26c-.24-.07-.4-.03-.43.1-.03.09.02.18.14.26.22.16.4.27.51.42.12.17.14.33.08.54-.14.47-.54.63-1.14.45-.21-.07-.42-.16-.63-.29l.2-.47c.18.16.36.27.52.31.23.07.4.02.44-.12.05-.16-.1-.24-.34-.42-.35-.26-.48-.48-.39-.8.13-.43.52-.58 1.1-.4.22.06.4.14.58.25ZM26.23 42.78l-.15.86-.49-.08.03-.26c-.17.17-.37.22-.63.18-.33-.06-.5-.3-.45-.62.06-.37.38-.49.97-.39l.22.04v-.02c.03-.18-.09-.3-.35-.35-.13-.02-.3 0-.51.05l.05-.37c.2-.05.43-.05.67 0 .55.09.74.4.64.96Zm-.65 0c-.31-.05-.47-.01-.5.15-.02.12.05.21.18.23.2.04.37-.08.41-.3l.01-.06-.1-.01ZM27.78 41.34l-.06.38a.34.34 0 0 0-.14-.04c-.16 0-.24.08-.25.29l-.01.1.4.02-.03.42-.4-.03-.08 1.26-.56-.04.08-1.25-.35-.03.03-.41.35.02v-.15c.03-.43.27-.63.7-.6.11 0 .22.02.32.06ZM28.92 42.71c-.03-.23-.17-.35-.35-.35-.18.01-.3.14-.33.38l.68-.03Zm.51.18v.14l-1.17.04c.03.22.2.34.49.33.17 0 .35-.06.55-.16l.01.4c-.19.08-.39.12-.6.13-.62.02-.99-.31-1-.88-.02-.52.3-.86.84-.88.54-.02.86.3.88.88ZM30.18 41.33l.58-.14.2.84.68-.16-.2-.83.6-.14.5 2.2-.58.13-.22-.92-.68.16.21.92-.58.14-.51-2.2ZM34.07 41.6l.31.82-.46.18-.1-.24c-.07.24-.22.38-.46.47-.32.12-.6 0-.7-.3-.14-.34.07-.6.63-.82l.21-.08v-.02c-.07-.17-.24-.22-.49-.12-.12.04-.26.15-.41.3l-.15-.35c.15-.14.34-.25.58-.34.52-.2.84-.03 1.04.5Zm-.55.34c-.3.11-.43.23-.37.38.04.11.15.16.28.1.19-.06.28-.25.2-.47l-.02-.05-.1.04ZM35.8 40.57l.46.87-.5.27-.4-.76c-.13-.23-.27-.3-.44-.21-.16.09-.21.3-.08.55l.38.7-.5.27-.8-1.47.47-.24.14.26a.67.67 0 0 1 .37-.59c.36-.2.67-.07.9.35ZM36.13 38.55l.46-.34 1.43 1.97-.41.3-.2-.27c.03.27-.06.5-.27.65-.36.26-.81.16-1.13-.28-.3-.42-.26-.86.1-1.13.18-.13.39-.17.6-.1l-.58-.8Zm.37 1.14c-.15.1-.17.34 0 .56.16.23.37.28.54.15.17-.12.19-.34.02-.57-.16-.22-.38-.27-.56-.14ZM38.11 37.9l.23.34a.95.95 0 0 0-.42.21c-.1.1-.12.2-.06.26.07.08.18 0 .38-.1.3-.16.5-.17.7.04.23.26.17.61-.19.94-.15.15-.32.26-.5.34L38 39.6c.17-.05.33-.13.46-.25.12-.12.15-.2.1-.28-.09-.08-.2 0-.41.1-.3.13-.5.16-.66-.03-.24-.25-.18-.6.2-.94.12-.11.26-.2.43-.28ZM16.07 18.66l.36.3c-.2.1-.35.24-.47.41-.27.41-.2.83.2 1.09.37.26.76.19 1-.17a.93.93 0 0 0 .11-.2l-.39-.27-.2.29-.35-.24.51-.75 1.04.7c-.07.23-.19.46-.34.7-.5.72-1.09.88-1.72.45-.62-.42-.72-1.07-.26-1.76.15-.22.32-.4.5-.55ZM17.57 17.69l.35.35a.46.46 0 0 0-.14.11c-.17.2-.14.43.12.66l.53.47-.37.43-1.26-1.11.34-.38.24.2c-.1-.24-.09-.44.06-.62l.13-.11ZM18.37 16.98c.45-.4.94-.4 1.3.02.36.41.31.9-.14 1.3s-.93.39-1.3-.03c-.36-.4-.32-.89.14-1.3Zm.26.3c-.16.14-.15.38.05.6.19.22.43.25.58.11.16-.14.16-.38-.04-.6-.2-.22-.43-.25-.59-.11ZM19.32 16.24l.52-.31.74.78.15.18a2.03 2.03 0 0 1-.1-.22l-.32-1.03.59-.36.77.8c.04.03.09.09.14.16a2.2 2.2 0 0 1-.1-.2L21.37 15l.48-.29.43 1.7-.56.34-.8-.81c-.05-.04-.1-.1-.14-.18l.09.2.33 1.1-.57.34-1.3-1.16ZM24.66 14.57l.26.84-.47.15-.09-.25c-.07.23-.23.37-.48.45-.32.1-.6-.03-.69-.34-.11-.35.11-.6.69-.79l.2-.07v-.02c-.05-.17-.22-.22-.47-.14-.13.04-.27.13-.43.28l-.13-.36c.16-.13.36-.23.6-.31.52-.17.83.01 1 .56Zm-.57.3c-.31.1-.44.2-.39.37.04.1.14.16.27.12.2-.06.3-.25.22-.47l-.01-.04-.1.03ZM26.67 14.13l.16.96-.56.1-.14-.85c-.05-.26-.16-.37-.35-.34-.18.03-.3.22-.25.5l.14.79-.57.1-.27-1.66.51-.08.05.3c.1-.25.28-.4.54-.45.4-.06.66.15.74.63ZM28.19 12.64l.57-.01.04 2.43-.51.01-.01-.33a.66.66 0 0 1-.6.37c-.44 0-.75-.34-.76-.87 0-.53.28-.86.73-.87.23 0 .42.08.55.26l-.01-1Zm-.36 1.14c-.18 0-.33.19-.32.46 0 .28.14.44.35.44.22 0 .35-.17.35-.45s-.15-.45-.38-.45ZM31.65 13.26l-.13.45a1.3 1.3 0 0 0-.48-.21c-.25-.05-.4 0-.42.14-.02.1.03.18.16.25.24.13.43.22.56.36.13.15.17.31.14.52-.1.48-.47.69-1.1.57a2.53 2.53 0 0 1-.64-.21l.14-.49c.2.14.39.22.55.25.24.05.4-.02.43-.17.03-.17-.14-.23-.4-.38-.37-.22-.52-.43-.46-.76.08-.44.45-.63 1.05-.52.22.04.41.1.6.2ZM32.83 14.92c.05-.23-.04-.4-.21-.45-.17-.06-.34.02-.43.23l.64.22Zm.42.34-.05.14-1.11-.37c-.05.2.07.38.34.47.16.05.36.07.57.04l-.13.39c-.2 0-.4-.03-.6-.1-.6-.19-.82-.63-.64-1.16.16-.5.59-.7 1.1-.54.51.17.7.58.52 1.13ZM34.96 15.17l-.22.37a.7.7 0 0 0-.26-.23c-.25-.12-.5-.03-.62.22-.11.25-.02.5.25.63.12.06.23.08.36.06l-.18.4a1.6 1.6 0 0 1-.51-.15c-.5-.23-.67-.71-.45-1.18.23-.5.7-.65 1.24-.4.13.07.26.16.39.28ZM35.25 15.3l.48.32-.46.7c-.14.23-.13.38.03.49.18.11.37.03.56-.26l.38-.6.48.31-.9 1.4-.44-.28.17-.26a.67.67 0 0 1-.7-.04c-.33-.22-.39-.55-.12-.96l.52-.81ZM37.98 17.25l-.34.36a.46.46 0 0 0-.12-.13c-.2-.17-.43-.13-.65.13l-.45.55-.44-.36 1.06-1.29.4.33-.2.24c.24-.11.44-.1.62.05l.12.12ZM38.38 18.69c.15-.18.15-.37.02-.5-.12-.13-.3-.13-.5.01l.48.49Zm.2.5-.1.1-.81-.85c-.14.16-.11.37.08.58.12.12.29.22.49.3l-.3.28a1.77 1.77 0 0 1-.5-.36c-.42-.45-.42-.94-.01-1.34.37-.36.85-.34 1.22.05.38.39.35.83-.07 1.24ZM38.46 19.5l.33.42-.4.32-.34-.41.4-.32ZM38.95 20.15l.3.43-.42.3-.3-.44.42-.3ZM39.4 20.82l.27.45-.44.27-.28-.46.44-.26Z" fill="#FEFEFE"/><circle cx="28" cy="28" fill="#A8CF45" r="12"/><path d="m28.45 18.72-1.16 1.15c-.1.09-.2.17-.32.22-.61.32-.89.4-1.38 1.06a.05.05 0 0 0 0 .06l.53.92h.01l.45-.94 1.22.06.07 1.06a.18.18 0 0 0 .13.15c.02.01.04.01.07 0 .66-.08 1.29.26 1.88.67.85.58 1.67 1.23 2.46 1.96-.41 0-.77-.09-1.08-.24-.26-.13-.46-.44-.6-.65a3.15 3.15 0 0 0-1.8-1.22c-.63-.13-1.1-.2-1.46-.63a5.68 5.68 0 0 0-.48-.47l-.02.02-.01.02-.12.62a.1.1 0 0 1-.18.03l-.03-.22a.1.1 0 0 0-.17-.02.6.6 0 0 0-.06.37v.03a.07.07 0 0 1-.07.05l-.59-.06a.13.13 0 0 1-.07-.03c-.33-.32-.45-.68-.35-1.08a.08.08 0 0 0-.1-.1.08.08 0 0 0-.05.03.93.93 0 0 0-.12.72c-.34-.04-.6-.03-.77.04a5.43 5.43 0 0 1-1.21.33.08.08 0 0 0-.03.04.08.08 0 0 0 .05.09l.06.01a.08.08 0 0 1 .06.08l-.01.04-.12.19-.04-.2a.13.13 0 0 0-.13-.1c-.15 0-.26-.03-.33-.09-.1-.09-.1-.18 0-.28.17-.2.33-.32.46-.39 1.14-.55 2.1-1.16 2.89-1.8.12-.12.26-.2.41-.27.43-.2 2.21-.85 1.18-1.49.38 0 .69.1.93.26Z" fill="#EB875B"/><path d="M27.52 18.46c1.03.64-.75 1.29-1.18 1.49-.15.07-.29.15-.41.26-.79.65-1.75 1.26-2.89 1.81-.13.07-.29.2-.47.39-.09.1-.09.2.01.28.07.06.18.09.33.08a.13.13 0 0 1 .13.11l.04.2-.69.56a.34.34 0 0 0 .06-.12.08.08 0 0 0-.14-.06c-.2.26-.37.44-.55.52a.08.08 0 0 1-.1-.03l-.04-.06a.1.1 0 0 1 .03-.12l1.03-.73a.07.07 0 0 0 .02-.08l-.02-.02h-.03l-.56.27a.13.13 0 0 1-.15-.02c-.1-.11-.21-.19-.3-.23a.07.07 0 0 1-.05-.05.08.08 0 0 1 .01-.06c.4-.6.97-.89 1.63-1.22.46-.22.8-.47 1.15-.74.13-.1.27-.18.43-.25a1.38 1.38 0 0 0 .83-.83.03.03 0 0 0-.03-.02h-.02c-.65.4-1.07.59-1.37.9a.08.08 0 0 1-.1.02l-.01-.01a.1.1 0 0 0-.07-.02.1.1 0 0 0-.06.04.54.54 0 0 1-.4.23.04.04 0 0 1-.03-.08c.09-.09.16-.24.23-.45a.22.22 0 0 1 .12-.13c.33-.15.58-.36.77-.63l1.43-.56h.01l1.41-.64Z" fill="#F4A270"/><path d="M28.58 18.75c0 .12 0 .23.03.32-.14.44-.28.87-.43 1.28-.06.2-.19.3-.37.32-.57.05-1.37.12-1.69.5a.05.05 0 0 0 .03.08c.14.01.28 0 .43-.06l-.44.94h-.02l-.53-.92v-.06c.5-.66.77-.74 1.38-1.06.12-.05.22-.13.32-.22l1.16-1.15c.04 0 .09 0 .13.03Z" fill="#BF704E"/><path d="M33.55 20.68c.7.44 1.29.94 1.77 1.5v.97l-1 .66-.14.07-1.5.74a4 4 0 0 0-.98-.94 9.66 9.66 0 0 1-1.48-1.17.17.17 0 0 1 .07-.2l.7-.4a.3.3 0 0 0 .14-.35l-.35-1.2a.24.24 0 0 0-.27-.17c-.98.14-1.66-.02-1.9-1.13a.93.93 0 0 1-.03-.31l.27.08a40.2 40.2 0 0 0 4.7 1.85Z" fill="#6E5043"/><path d="M32.69 24.62a24.2 24.2 0 0 1-3.46-2.67.15.15 0 0 1 0-.18.15.15 0 0 1 .17-.05l1.07.34a.26.26 0 0 0 .27-.07l.26-.3a.12.12 0 0 0-.1-.2H29.77v-.02a.03.03 0 0 1 .01-.03c.24-.08.52-.14.83-.19a.17.17 0 0 0 .1-.29c-.11-.12-.15-.28-.1-.5v-.02a.06.06 0 0 0-.05-.04l-.25-.04a.2.2 0 0 0-.13.03c-.13.08-.23.17-.32.29-.2.27-.45.3-.58.43a.07.07 0 0 0 0 .1l.03.02h.1a.08.08 0 0 1 .09.05v.04c-.01.04-.04.06-.1.05a1.4 1.4 0 0 0-.42 0l-1.18-.12-1.22-.06a.92.92 0 0 1-.43.06.05.05 0 0 1-.04-.06l.01-.02c.32-.38 1.12-.45 1.69-.5.18-.02.3-.13.37-.32.15-.4.29-.84.43-1.28.24 1.1.92 1.26 1.9 1.12a.24.24 0 0 1 .27.17l.35 1.2a.3.3 0 0 1-.15.35l-.69.4a.17.17 0 0 0-.03.27c.43.4.91.76 1.44 1.1a4 4 0 0 1 .99.94Z" fill="#8B5C47"/><path d="M24.67 19.66a1.8 1.8 0 0 1-.77.63.22.22 0 0 0-.12.13c-.07.21-.14.36-.23.45a.04.04 0 0 0 .04.08c.16-.02.29-.1.39-.23a.1.1 0 0 1 .06-.04.1.1 0 0 1 .07.02h.01a.08.08 0 0 0 .1 0c.3-.32.72-.5 1.37-.9l.02-.01a.03.03 0 0 1 .03.04c-.18.44-.42.63-.83.81-.16.07-.3.15-.43.25a6.7 6.7 0 0 1-1.15.74c-.66.33-1.24.62-1.63 1.22a.08.08 0 0 0 0 .06.07.07 0 0 0 .03.05c.1.04.2.12.3.23a.13.13 0 0 0 .16.02l.56-.27h.03l.02.01a.07.07 0 0 1-.02.09l-1.03.73a.1.1 0 0 0-.03.12l.04.06a.08.08 0 0 0 .1.03c.18-.08.36-.26.55-.52a.08.08 0 0 1 .13 0v.06c0 .03-.02.07-.05.12-.05.06-.05.11 0 .17.02.02.03.03.05.03.3.1.6.05.9-.14a24.72 24.72 0 0 0 1.78-1.2.1.1 0 0 0 0-.07l-.07-.17a.92.92 0 0 1 .12-.72.08.08 0 0 1 .15.07c-.1.4.02.76.35 1.08.02.02.05.03.07.03l.6.06a.07.07 0 0 0 .06-.08.6.6 0 0 1 .06-.37.1.1 0 0 1 .17.02l.03.22a.1.1 0 0 0 .18-.03l.12-.62.01-.02.02-.02a.05.05 0 0 1 .05.01c.2.2.35.35.43.46.36.43.83.5 1.45.63.63.13 1.41.62 1.8 1.22.15.21.35.52.61.65.3.15.67.23 1.08.24l.87-.6a.2.2 0 0 1 .12-.04l1.88.08.02.09a4.32 4.32 0 0 0-2.85.6c-.16.1-.4.13-.73.1a3.48 3.48 0 0 1-1.56-.55c.24-.41.16-.78-.21-1.1a2.45 2.45 0 0 0-2.04-.51 4.18 4.18 0 0 1-2.68-.51c-.03 0-.05 0-.07.02l-1.78 1.18c-.16.1-.34.19-.54.23-.11.03-.3.04-.58.03-.4-.02-.8.03-1.2.16a.82.82 0 0 0-.35-.37.15.15 0 0 1-.08-.11 2.93 2.93 0 0 1-.02-.52.16.16 0 0 1 .08-.14.17.17 0 0 1 .16 0c.13.06.23.07.3.01a.1.1 0 0 0 .04-.1l-.2-.59c.6-.4 1.2-1.02 1.58-1.35a9.6 9.6 0 0 1 2.1-1.44Z" fill="#F8BA83"/><path d="m32.69 24.62 1.5-.74.12-.07 1-.66-.01.91a7.1 7.1 0 0 0-2.85.76 18.91 18.91 0 0 0-2.7-2.05c-.53-.34-.81-.73-.77-1.4.13-.03.27-.02.43 0 .05.01.08 0 .09-.05a.08.08 0 0 0-.02-.08.08.08 0 0 0-.08-.02.2.2 0 0 1-.09.01.07.07 0 0 1-.05-.05.07.07 0 0 1 .02-.07c.13-.13.38-.16.58-.43.09-.12.2-.21.32-.3a.2.2 0 0 1 .13-.02l.25.04a.05.05 0 0 1 .05.04v.03c-.05.2-.01.37.1.5a.17.17 0 0 1-.1.28 6.63 6.63 0 0 0-.84.2v.04H30.9a.12.12 0 0 1 .1.2l-.26.3a.26.26 0 0 1-.27.07l-1.07-.34a.15.15 0 0 0-.2.14l.03.09a24.2 24.2 0 0 0 3.45 2.68Z" fill="#AC6B4E"/><path d="M37.25 20.33a11.73 11.73 0 0 1 2.28 4.43l-2.8-.01-.02-4.33c.27.06.45.02.54-.1Z" fill="#23C1EF"/><path d="m36.71 20.42.01 4.33-1.23.09c-.07 0-.12-.02-.14-.06a.37.37 0 0 1-.05-.16l-.02-.1.02-.46.02-.91v-.97l-.02-1.57c.26-.23.73-.3 1.41-.19Z" fill="#9BC7DD"/><path d="m35.3 20.61.02 1.57a7.92 7.92 0 0 0-1.77-1.5c.67.11 1.25.09 1.75-.07Z" fill="#AC6B4E"/><path d="M28.98 21.36c-.04.68.24 1.07.78 1.41a18.91 18.91 0 0 1 2.7 2.05h.06a7.1 7.1 0 0 1 2.78-.76l-.02.47-1.88-.08a.2.2 0 0 0-.12.04l-.87.6c-.8-.73-1.61-1.38-2.46-1.96-.6-.4-1.22-.75-1.88-.66a.18.18 0 0 1-.2-.16l-.07-1.06 1.18.11ZM25.05 22.26l.07.17a.1.1 0 0 1 0 .07 24.69 24.69 0 0 1-1.78 1.2c-.3.19-.6.23-.9.14a.12.12 0 0 1-.05-.03c-.05-.06-.05-.11 0-.17l.69-.56.12-.19a.08.08 0 0 0-.05-.12l-.06-.01a.08.08 0 0 1-.04-.08.08.08 0 0 1 .06-.07c.43-.07.82-.17 1.17-.3.18-.08.43-.1.77-.05Z" fill="#BF704E"/><path d="M30.16 24.77c-.47-.3-.8-.7-1-1.2a.25.25 0 0 0-.18-.15l-1.07-.26c.8-.13 1.47.05 2.04.52.37.31.45.68.21 1.09Z" fill="#FBD39E"/><path d="M28.32 30.8c-.06.04-.1.07-.11.1a.06.06 0 0 1-.06.03.06.06 0 0 1-.05-.04c-.07-.13-.15-.2-.25-.19.28-.24.27-.54-.02-.89.04-.26-.03-.46-.2-.6.1-.02.16-.01.22.02a.06.06 0 0 0 .06 0 .06.06 0 0 0 .03-.04c.12-.5.07-.97-.16-1.38a.12.12 0 0 1 .01-.14.12.12 0 0 1 .04-.03c.2-.1.34-.22.41-.36l.08-1.84a3.13 3.13 0 0 1 .07 1.05.04.04 0 0 0 .03.03h.02c.04-.03.05-.1.04-.19l.17-.59.23-.43.02-.02a.06.06 0 0 1 .07 0l.02.02c.19.32.24.67.17 1.05a.06.06 0 0 0 .03.07h.03c.02 0 .03 0 .04-.02.3-.31.72-.49 1.24-.52.2-.02.38.03.52.13l.02.03a.05.05 0 0 1-.04.06l-.85.16a.12.12 0 0 0-.06.03l-.67.6-.01.03v.03c.02.03.03.04.01.06-.12.18-.23.24-.32.18a.05.05 0 0 0-.07.02l-.01.03c0 .08-.05.18-.13.3a.37.37 0 0 1-.09.1c-.33.24-.44.65-.61.8a.15.15 0 0 0-.05.13c.03.34-.1.72.05 1.1.02.04.02.1.01.14-.04.24-.05.54-.03.89 0 .07.06.1.15.09Z" fill="#5A7F2D"/><path d="m28.32 25.44-.08 1.84a.39.39 0 0 1-.29.12.13.13 0 0 1-.11-.08c-.25-.69-.46-1.22-.2-1.9a.19.19 0 0 1 .08-.09.18.18 0 0 1 .1-.03c.22.02.39.07.5.14Z" fill="#3E5825"/><path d="m28.65 25.74-.17.59a1.66 1.66 0 0 1-.05-.91l.02-.02.2-.11h.02a.03.03 0 0 1 .02 0v.02l-.04.43Z" fill="#FBD39E"/><path d="M27.64 29.2c.16.15.23.35.19.61 0 .14-.02.2-.06.17a5 5 0 0 1-.68-.6.12.12 0 0 1 .05-.12.12.12 0 0 1 .06-.02l.44-.03Z" fill="#3E5825"/><path d="m23.4 30.12.76.3a.14.14 0 0 1 .1.1c.32 1.55 1.7 1.95 3.11 2a.09.09 0 0 1 .07.04l.6 1.03a.04.04 0 0 0 .04.02.04.04 0 0 0 .04-.03l.16-.72a.08.08 0 0 1 .12-.05l.02.05.13.63c.03.24.01.45-.06.64a.07.07 0 0 1-.08.05l-.03-.01-.3-.2a.67.67 0 0 1-.27-.3 2.59 2.59 0 0 0-.37-.6c-.13-.14-.3-.24-.48-.3-.37-.11-.98-.2-1.31-.4a6.5 6.5 0 0 1-1.23-.9c-.48-.5-.73-1.02-1.74-1.12l-.76.5c-.1.07-.22.1-.34.1l-1.6-.1c.94.01 1.82-.2 2.67-.67.2-.1.46-.13.76-.06Z" fill="#F4A270"/><path d="m25.08 30.7-.33.31a.14.14 0 0 0-.02.2c.43.5 1.07 1.08 1.77.86l.6.12a.8.8 0 0 0 .22.02c.7-.06 1.42.05 2.14.32.41.15.65.46.7.91a.72.72 0 0 1-.32.52h-.06a.06.06 0 0 1-.03-.05c0-.2.1-.3.01-.56-.07-.2-.12-.35-.13-.44-.01-.05-.04-.1-.08-.13-.15-.13-.4-.18-.72-.15a.1.1 0 0 0-.1.1c0 .11.05.16-.02.29-.07.15-.13.3-.16.47l-.13-.63a.08.08 0 0 0-.12-.05.08.08 0 0 0-.02.05l-.16.72-.01.02-.03.01a.04.04 0 0 1-.04-.02l-.6-1.03a.08.08 0 0 0-.07-.05c-1.4-.04-2.8-.44-3.12-1.98a.14.14 0 0 0-.09-.1l-.75-.31c.64.01 1.2.2 1.67.58Z" fill="#F8BA83"/><path d="M28.55 33.49c.03-.16.09-.32.16-.47.07-.13.03-.18.03-.3a.1.1 0 0 1 .09-.1c.32-.02.57.03.72.16.04.03.07.08.08.13.01.1.06.24.13.44.1.27-.02.37-.01.56a.06.06 0 0 0 .06.06l.03-.01c.2-.14.3-.31.33-.52a4.12 4.12 0 0 1 1.8-.83.3.3 0 0 0 .2-.11c0 .13.13.12.4-.04.32.42-.07.78-.44 1-1.3.75-2.18 1.17-3.02 2-.14.14-.3.24-.49.3-.56.16-1.4.38-1.07 1.2l-.78-.2c.43-.56.81-1 1.13-1.3.3-.27.81-.38 1.05-.6.4-.37.44-.82.12-1.35a.16.16 0 0 0-.3.05l-.16.65-1.27-.05a1.52 1.52 0 0 0-.19-.67c-.09-.15-.26-.29-.51-.4a9.99 9.99 0 0 1-2.76-1.7l-1.2-1.04c1 .1 1.26.62 1.74 1.12.22.23.63.53 1.23.9.33.2.94.29 1.31.4.19.06.35.16.48.3.12.14.24.34.37.6.06.13.15.23.28.3l.3.2a.07.07 0 0 0 .05 0 .07.07 0 0 0 .05-.04c.07-.19.1-.4.06-.64Z" fill="#EB875B"/><path d="m22.68 30.35 1.2 1.03c.8.71 1.72 1.28 2.76 1.72.25.1.42.24.51.39.11.2.17.42.19.67l-1.27-.09c.07-.68-.15-.98-.72-1.4-.53-.38-1.26-.95-2.18-1.71-.38-.32-.7-.36-.93-.11l-1.27.59c-.15.07-.29.15-.41.25l-.78.62.06-1.5.15.03 1.59.1c.12.02.24-.02.34-.08l.76-.5Z" fill="#BF704E"/><path d="m26.07 34.07-.2-.03a.1.1 0 0 0-.1.06c-.14.46-.68.77-1.11.94a.07.07 0 0 1-.1-.04v-.03c.02-.23-.04-.46-.18-.67a.07.07 0 0 1 .02-.1h.03l.89-.12.03-.02c.01 0 .02-.02.01-.04v-.05a.04.04 0 0 0-.03-.04h-1.16a.12.12 0 0 1-.1-.19l.27-.38a.21.21 0 0 1 .22-.09l1.1.24a.13.13 0 0 0 .14-.07.13.13 0 0 0-.04-.16c-.58-.46-1.35-1.06-2.3-1.78a4.83 4.83 0 0 1-.61-.68.23.23 0 0 0-.14-.08.67.67 0 0 0-.47.1c.24-.24.55-.2.93.12.92.76 1.65 1.33 2.18 1.72.57.4.79.71.72 1.4Z" fill="#AC6B4E"/><path d="M18.4 30.6V35.04l-.02.01a.2.2 0 0 1-.04 0 11.69 11.69 0 0 1-2-4.46l2.05.01Z" fill="#23C1EF"/><path d="m19.84 30.82-.06 1.5.04 2.4-.13.36a.14.14 0 0 1-.14.1l-1.12-.05c-.03 0-.06-.03-.09-.07a.2.2 0 0 0 .04-.01h.02V30.6c.42 0 .85 0 1.27-.02.1 0 .15.08.17.24Z" fill="#9BC7DD"/><path d="M27.85 30.7c.1 0 .18.06.25.2a.06.06 0 0 0 .1 0c.02-.03.06-.06.12-.1.57.07.96.15 1.16.26.27.14.44.3.5.48a.47.47 0 0 0 .58.3c.17-.04.32 0 .45.14l.08.1c.3.1.6.27.87.53-.6.1-1.2.38-1.8.83-.05-.45-.29-.76-.7-.9a4.94 4.94 0 0 0-2.14-.33.8.8 0 0 1-.21-.02l-.6-.12c-.27-.09-.47-.06-.56-.38l.55-.25c.05-.02.1-.06.12-.11l.04-.07a.18.18 0 0 1 .16-.09h.42a.2.2 0 0 0 .1-.02c.22-.12.4-.27.5-.45Z" fill="#56443D"/><path d="m26.07 34.07 1.27.1 1.27.04c.1.01.16.03.17.05a.17.17 0 0 1-.07.2 922.91 922.91 0 0 0-1.3.21c-.26.05-.45.27-.56.67-.13.44-.24.88-.32 1.33l-.24-.06c-.07-1.91-2.03-.37-2.28-2-.1-.58 0-1.04.28-1.38a.17.17 0 0 1 .1-.06l.38-.08a.18.18 0 0 0 .06-.33l-1.92-1.4c-.16-.12-.3-.2-.4-.22-.85-.21-2.68 1.17-2.32 2.08.12.3.37.57.75.77.76.42 1.48.79 2.16 1.12.2.1.4.2.6.33L22 34.87a3.99 3.99 0 0 0-2.17-.15l-.04-2.4.78-.63c.12-.1.26-.18.4-.25l1.28-.6c.17-.1.33-.13.47-.1.06.01.1.04.14.08.29.36.49.59.6.68.96.72 1.73 1.32 2.31 1.78a.13.13 0 0 1-.02.22.13.13 0 0 1-.09.01l-1.09-.24a.21.21 0 0 0-.22.1l-.27.37a.12.12 0 0 0 .04.18l.06.01h1.16s.02 0 .02.02l.01.02v.09l-.04.02-.89.11a.07.07 0 0 0-.05.04.07.07 0 0 0 0 .07c.14.21.2.44.18.67a.07.07 0 0 0 .03.06h.07c.43-.16.97-.47 1.1-.93a.1.1 0 0 1 .1-.06l.21.03Z" fill="#8B5C47"/><path d="m25.08 30.7.87.99c.09.32.3.3.55.38-.7.22-1.34-.35-1.77-.86a.14.14 0 0 1 .02-.2l.33-.31Z" fill="#FBD39E"/><path d="m26.29 36.6-2.58-1.16c-.2-.12-.4-.23-.61-.33-.68-.33-1.4-.7-2.16-1.12-.38-.2-.63-.46-.75-.77-.36-.91 1.47-2.3 2.32-2.08.1.03.24.1.4.22l1.92 1.4a.18.18 0 0 1-.06.33l-.39.08a.17.17 0 0 0-.1.06c-.27.34-.36.8-.27 1.38.25 1.63 2.2.09 2.28 2Z" fill="#6E5043"/><path d="M34.68 31.54c-.1.1-.12.26-.07.47a.25.25 0 0 1-.13.28.29.29 0 0 1-.32-.04c-.04-.03-.09-.03-.14.01a.1.1 0 0 0-.03.1l.06.58c-.6.48-1.14 1.13-1.7 1.55-.37.29-.74.56-1.13.8l-.37.15a.04.04 0 0 1-.05-.03v-.05l.01-.02c.35-.1.56-.31.64-.65a.1.1 0 0 0-.04-.1.11.11 0 0 0-.12-.02l-.33.15-.01.01-1.24.8h-.02a.03.03 0 0 1-.04-.02l.01-.03c.14-.2.24-.34.32-.38.76-.47 1.29-.9 2.03-1.3a16.44 16.44 0 0 0 1.73-1.06.12.12 0 0 0 0-.11.12.12 0 0 0-.04-.05 1.2 1.2 0 0 0-1.13-.12c-.27.15-.4.17-.4.04.12-.07.2-.15.24-.24l.09-.26c.1-.14.2-.26.3-.34a.1.1 0 0 0 .02-.1.1.1 0 0 0-.08-.07 1.2 1.2 0 0 0-.6.04l-1.05.55-.08-.1c.4-.24.8-.46 1.21-.67.15-.08.4-.08.76 0 .36.09.43-.1.72-.13.39-.06.71.07.98.36Z" fill="#F8BA83"/><path d="M32.16 32.5a.3.3 0 0 1-.2.11 2.25 2.25 0 0 0-.87-.53l1.06-.55c.21-.06.4-.08.6-.04a.1.1 0 0 1 .07.12.1.1 0 0 1-.03.05c-.1.09-.19.2-.3.34l-.08.26c-.03.1-.12.17-.25.24Z" fill="#AC6B4E"/><path d="M31.22 35.3c-.5.3-1.02.55-1.55.75a17.21 17.21 0 0 0-2.12.92c-.34-.83.51-1.05 1.07-1.22.18-.05.35-.15.49-.28.84-.84 1.72-1.26 3.02-2.01.37-.22.76-.58.44-1 .42-.15.8-.1 1.13.12a.11.11 0 0 1 .05.1.12.12 0 0 1-.05.1c-.56.39-1.12.73-1.7 1.03-.73.39-1.26.82-2.02 1.29a1.37 1.37 0 0 0-.33.4l.01.03h.05l1.24-.8h.01l.33-.16a.11.11 0 0 1 .12.01.1.1 0 0 1 .04.11c-.08.34-.29.55-.64.65l-.01.01v.07l.01.02h.04l.37-.14Z" fill="#F4A270"/><path d="m26.77 36.77-.24-.1c.08-.45.19-.9.32-1.33.11-.4.3-.62.56-.66a952.69 952.69 0 0 1 1.3-.22.17.17 0 0 0 .07-.2c0-.02-.06-.04-.17-.05l.16-.65a.16.16 0 0 1 .23-.11l.07.06c.32.53.29.98-.12 1.35-.24.22-.76.33-1.05.6-.32.3-.7.74-1.13 1.3Z" fill="#BF704E"/><path d="M27.94 24.9a.63.63 0 0 1-.16.27.05.05 0 0 1-.08-.04 4.96 4.96 0 0 1 .16-.58h.03a.05.05 0 0 1 .04.04c.03.1.03.21 0 .3Z" fill="#FBD39E"/><path d="M25.69 25.1v-.06a.11.11 0 0 1 .11-.12c.25 0 .44.07.57.19.51.48.82.8.93.98.13.22.22.64.27 1.25 0 .05.02.1.05.14l.02.05a.1.1 0 0 1-.05.13.1.1 0 0 1-.13-.05c-.2-.38-.47-.63-.8-.75-.48-.18-1.18-.64-1.12-1.24.02-.22.02-.36 0-.4a.05.05 0 0 1 0-.06l.02-.02h.08a.04.04 0 0 0 .05-.04ZM29.2 27.84a.1.1 0 0 1 .01-.08.09.09 0 0 1 .07-.04c.18-.01.34.03.48.11a.21.21 0 0 1 .03.33l-.7.7a.13.13 0 0 1-.05.04l-.32.09a.07.07 0 0 1-.06-.01.07.07 0 0 1-.03-.06c0-.16.04-.28.11-.35.2-.2.36-.38.46-.57.03-.06.03-.1 0-.16Z" fill="#5A7F2D"/><path d="M26.24 27.83c.08.02.3.16.65.43.04.04.1.05.14.05.17 0 .31.08.42.25l.01.02v.03a.05.05 0 0 1-.06.02 3.69 3.69 0 0 1-1.22-.75v-.03a.04.04 0 0 1 .06-.02Z" fill="#9E9E9E"/><path d="M31.26 22.82a.14.14 0 0 1-.2-.18c.16-.33.32-.7.49-1.1.18-.45.52-.67.91-.37.44.32.82.55 1.14.67.53.2.96.52.65 1.1a2.14 2.14 0 0 1-.74.8.12.12 0 0 1-.09-.02 6.14 6.14 0 0 0-.6-.74c-.46-.5-.98-.56-1.56-.16Z" fill="#56443D"/><path d="M21.77 23.41a.08.08 0 0 1 .03.15l-.28.16a.35.35 0 0 1-.13.04c-.31.04-.5-.08-.55-.36a.14.14 0 0 1 .04-.12.13.13 0 0 1 .12-.04l.77.17Z" fill="#EB875B"/><path d="M23.02 34.6a.18.18 0 0 1-.2-.04 3.2 3.2 0 0 0-1.36-.99 131.9 131.9 0 0 1-.82-.3.16.16 0 0 1-.03-.06 1.17 1.17 0 0 1-.05-.44c0-.06.03-.1.06-.15l.8-.92a.28.28 0 0 1 .34-.07c.04.02.07.05.1.09.23.33.47.6.72.79.4.32 1.02.17 1.46.18a.1.1 0 0 1 .07.15c-.24.34-.41.69-.52 1.05-.1.38-.24.56-.57.71Z" fill="#56443D"/><path d="m33.78 31.47-.21.05a.67.67 0 0 0-.1.07l-.74.65a.07.07 0 0 1-.05.02.07.07 0 0 1-.05-.03l-.04-.05v-.03l.68-.7.03-.02a1.07 1.07 0 0 1 .47-.1l.04.07v.02a.05.05 0 0 1 0 .04l-.03.01ZM33.42 32a.08.08 0 0 1-.03-.15l.27-.16a.33.33 0 0 1 .12-.04c.3-.05.48.07.54.34a.13.13 0 0 1-.04.12.13.13 0 0 1-.11.03l-.75-.15Z" fill="#EB875B"/></svg>