<!-- by TradingView --><svg width="56" height="56" viewBox="0 0 56 56" xmlns="http://www.w3.org/2000/svg"><path fill="#F0F3FA" d="M0 0h56v56H0z"/><path d="M29 19a4 4 0 1 0 0-8 4 4 0 0 0 0 8Z" fill="#E21C23"/><path d="m27.87 28.69-5.77 3.9a.06.06 0 0 1-.1-.05v-6.03l.01-.05.03-.03 10.8-7.3a.08.08 0 0 1 .12.05v14.6c-.01 1.38-.24 2.7-.69 3.98a10.04 10.04 0 0 1-2.03 3.45 9.4 9.4 0 0 1-1.43 1.25c-.3.21-.85.52-1.66.93a684.16 684.16 0 0 0-5.1 2.61h-.02a.06.06 0 0 1-.03-.06v-6.03a.13.13 0 0 1 .07-.12c1.22-.59 2.3-1.13 3.27-1.64a4.59 4.59 0 0 0 2.5-3.47c.03-.19.13-.73.16-1.63V28.7h-.1l-.01-.01a.02.02 0 0 0-.02 0Z" fill="#001980"/></svg>