<!-- by TradingView --><svg width="56" height="56" viewBox="0 0 56 56" xmlns="http://www.w3.org/2000/svg"><path fill="#F0F3FA" d="M0 0h56v56H0z"/><path d="M43.59 32.19c-3.84-3.03-8.88.38-7.45 4.97l-8.18-14.44a5.88 5.88 0 0 0-1.62-2.69 5.26 5.26 0 0 0-7.61.62c.97-1.9 1.78-3.32 2.45-4.23a8.64 8.64 0 0 1 7.87-3.36c3.05.39 5.3 2.3 6.74 4.89 2.13 3.85 4.53 8.13 7.2 12.84.26.45.45.91.6 1.4Z" fill="#FED188"/><path d="M27.96 22.72 20.1 36.74a7.98 7.98 0 0 1-1.8 2.42c-1.32.96-2.88 1.1-4.68.42-.98-.37-1.75-1.18-2.32-2.44a4.43 4.43 0 0 1-.16-2.77c.05-.24.48-1.08 1.3-2.53a853.05 853.05 0 0 1 6.29-11.19 5.26 5.26 0 0 1 7.61-.62c.75.7 1.3 1.6 1.62 2.69ZM43.59 32.19c3.01 3.12.91 8.06-3.57 7.78-1.74-.1-3.04-1.04-3.88-2.81-1.43-4.59 3.61-8 7.45-4.97Z" fill="#F18D02"/></svg>