<!-- by TradingView --><svg width="56" height="56" viewBox="0 0 56 56" xmlns="http://www.w3.org/2000/svg"><path fill="#F0F3FA" d="M0 0h56v56H0z"/><path d="m50.36 32-1.93-3h-.93v3H46v-8h2.9c1.45 0 3.1.87 3.1 2.5 0 1.18-.97 2.13-2.08 2.38L52 32h-1.64Zm-2.86-4h1.4c.84 0 1.6-.6 1.6-1.5 0-.84-.56-1.5-1.6-1.5h-1.4v3ZM39.5 24v5.03c0 1.2.4 1.97 1.48 1.97 1.12 0 1.52-.76 1.52-1.95V24H44v5.03A2.88 2.88 0 0 1 40.98 32 2.85 2.85 0 0 1 38 29.03V24h1.5ZM36 26.5c0 1.67-1.58 2.5-3.04 2.5h-1.55v3H30v-8h2.96c1.46 0 3.04.84 3.04 2.5ZM32.96 28c1.08 0 1.54-.68 1.54-1.5 0-.87-.48-1.5-1.54-1.5h-1.55v3h1.55ZM27.2 26.35c-.42-.78-1.18-1.18-2.14-1.18-1.61 0-2.56 1.25-2.56 2.83 0 1.59.94 2.84 2.56 2.84 1.34 0 2.24-.52 2.44-1.84H25v-1h4v1c-.27 1.95-2 3-3.94 3a4 4 0 1 1 0-8c1.6 0 3.1.84 3.7 2.35h-1.57ZM11 32H9.5l-4-5.97V32H4v-8h1.5l4 5.95V24H11v8ZM20 32h-1.52l-.78-2H14.3l-.78 2H12l3.16-8h1.68L20 32Zm-5.32-3h2.64L16 25.59 14.68 29Z" fill="#EC0000"/></svg>