<!-- by TradingView --><svg width="18" height="18" viewBox="0 0 18 18" xmlns="http://www.w3.org/2000/svg"><path fill="#F0F3FA" d="M0 0h18v18H0z"/><path d="M11.54 6.86V14H13V6h-.7c-.42 0-.76.38-.76.86" fill="#212020"/><path d="M11.54 4.65v.95h.83c.35 0 .63-.3.63-.66V4h-.83c-.35 0-.63.3-.63.65" fill="#F9AB19"/><path d="M10.52 7.76V4H9.7a.7.7 0 0 0-.7.7v2.42c-.73-.52-1.46-.68-1.46-.68a3.63 3.63 0 0 0-2.84.54c-.9.6-1.45 1.44-1.64 2.52a3.79 3.79 0 0 0 .56 2.79 3.6 3.6 0 0 0 2.47 1.65 3.6 3.6 0 0 0 2.75-.57 3.68 3.68 0 0 0 1.62-2.52c.04-.22.06-.47.06-.76v-.27.01-2.07ZM6.77 12.5h-.01c-1.26 0-2.25-1.01-2.26-2.3 0-.63.23-1.22.66-1.65A2.25 2.25 0 0 1 9 10.18c0 1.29-.98 2.3-2.24 2.3Z" fill="#212020"/></svg>