<!-- by TradingView --><svg width="56" height="56" viewBox="0 0 56 56" xmlns="http://www.w3.org/2000/svg"><path fill="#F0F3FA" d="M0 0h56v56H0z"/><path d="M19.79 22.19a6.92 6.92 0 0 0-1.66 10.93 5.29 5.29 0 0 0 3.88 1.26c.52-.02.88-.01 1.08.01 3.82.52 4.6 5.36 1.82 7.66a4.3 4.3 0 0 1-5.95-.54 4.26 4.26 0 0 1-.95-2.86c0-.77 0-1.4-.02-1.88a3.53 3.53 0 0 0-.84-2.07c-.45-.55-.89-1-1.33-1.33-.97-.75-2.21-.76-3.49-.62-.87.1-1.57.07-2.22-.33a4.23 4.23 0 0 1-2.09-3.44c-.19-2.16.82-3.7 2.76-4.56.61-.27 1.27-.25 2.16-.32a5.67 5.67 0 0 0 1.65-.42 6.25 6.25 0 0 0 4.16-5.27c.07-.73.12-1.22.16-1.47a4.53 4.53 0 0 1 3.63-3.86c2.28-.47 4.93 1.32 4.8 3.85-.02.56-.05 1.04-.08 1.45-.09 1.09.25 1.8.85 2.74.55.86 1.38 1.6 2.36 1.85.95.24 2.25.18 3.01.21a3.98 3.98 0 0 1 3.87 3.22 4.56 4.56 0 0 1-2 4.95c-.96.58-2.03.73-3.2.46-1.73-.4-3.16-1.78-3.17-3.66 0-1.35-.08-2.33-.2-2.94a3.82 3.82 0 0 0-1.48-2.29c-2.2-1.7-5.04-2.11-7.51-.73Z" fill="#ED1C24"/><path d="M27.18 30.6c.4 1.97 1.89 3.1 3.67 3.8 1.4.54 2.8.54 4.25 0 3.63-1.37 5.64-5.1 4.27-8.94a5.34 5.34 0 0 0-2.25-3 5.73 5.73 0 0 0-2.78-.7c-.5 0-1.24.06-1.76-.04a3.96 3.96 0 0 1-3.09-3.3 4.4 4.4 0 0 1 .88-3.65 5.35 5.35 0 0 1 2.11-1.52 3.74 3.74 0 0 1 3.2.24c1.38.84 2.44 2.3 2.37 3.96l-.03 1.65c.03 1.77 1.34 3.31 2.84 4.02 1.16.55 2.36.24 3.57.23.9-.01 1.68.36 2.31 1.1 1.4 1.67 1.72 3.7.5 5.58a4.11 4.11 0 0 1-2.69 1.86c-.55.12-1.25.07-1.78.15-.58.1-1.22.3-1.9.61-2.26 1.05-3.46 3.05-3.75 5.5l-.07.8a4.46 4.46 0 0 1-1.3 2.9 4.33 4.33 0 0 1-3.57 1.12 3.98 3.98 0 0 1-3.07-1.84c-.4-.6-.45-1.1-.4-1.88.07-1.3.2-2.68-.46-3.81a6.3 6.3 0 0 0-2.15-2.13c-.95-.54-2-.43-3.03-.4-.52.02-.92 0-1.18-.06a4.23 4.23 0 0 1-3.34-4.08 4.37 4.37 0 0 1 6.56-3.98c1.75 1.03 1.94 2.6 1.99 4.51.01.69.04 1.12.08 1.3Z" fill="#193573"/></svg>