<!-- by TradingView --><svg width="18" height="18" viewBox="0 0 18 18" xmlns="http://www.w3.org/2000/svg"><path fill="#F0F3FA" d="M0 0h18v18H0z"/><path d="M4 9.44V8.7a5.04 5.04 0 0 1 6.05-4.63.1.1 0 0 1 .08.07.1.1 0 0 1-.02.12c-.96.97-1.64 1.65-2.05 2.04-.57.57-.9 1-1 1.3-.14.5-.08 1.02.2 1.55s.67.87 1.18 1.02l.3.05c.24.02.41.06.51.1.17.08.26.21.27.4 0 .15-.09.33-.28.52L7 13.43c-.08.08-.16.09-.26.04A5.13 5.13 0 0 1 4 9.44Z" fill="#D2D701"/><path d="M8.76 14a.06.06 0 0 1-.06-.04.06.06 0 0 1 .01-.07c.68-.67 1.28-1.29 1.8-1.85.63-.69.7-1.46.21-2.32a2.1 2.1 0 0 0-1.05-.93 2.4 2.4 0 0 0-.55-.12 2.85 2.85 0 0 1-.47-.08.16.16 0 0 1-.1-.1c-.1-.24-.05-.46.15-.68l2.98-2.96c.03-.03.07-.04.1-.01A4.9 4.9 0 0 1 14 9.25 5.03 5.03 0 0 1 8.76 14Z" fill="#0373B3"/></svg>