<!-- by TradingView --><svg width="18" height="18" viewBox="0 0 18 18" xmlns="http://www.w3.org/2000/svg"><path fill="#F0F3FA" d="M0 0h18v18H0z"/><path d="M6.59 11.64c.14.04.37.08.63.08.48 0 1.43-1.06 1.78-2.77.34-1.63.93-2.87 2.28-2.7l.19.25h1.99c-.3.23-.9.6-1.05.87L14 8.95 8.95 14l-2.36-2.36Z" fill="#ED1B24"/><path d="M11.41 6.36a2.52 2.52 0 0 0-.63-.08c-.48 0-1.43 1.06-1.78 2.77-.34 1.63-.59 2.86-1.96 2.95H5c.3-.23.85-.6 1-.87L4 9.05 9.05 4l2.36 2.36Z" fill="#00ADEF"/><path d="m4 11 .24.76H5l-.62.48.24.76-.62-.47-.62.47.24-.76-.62-.48h.76L4 11Z" fill="#ED1B24"/><path d="m6 11 .24.8H7l-.62.44.24.76-.62-.47-.62.47.24-.76L5 11.8h.76L6 11ZM12 8l.24-.8H13l-.62-.44.24-.76-.62.47-.62-.47.24.76-.62.44h.76L12 8ZM7.67 10l.5.59.74-.3-.42.66.51.58-.76-.18-.42.65-.06-.76-.76-.19.73-.29-.06-.76ZM9.42 7l.6.49.63-.45-.25.75.6.49-.76-.03-.26.75-.22-.76L9 8.2l.63-.45L9.42 7Z" fill="#fff"/><path d="m9 8 .24.76H10l-.62.48.24.76L9 9.53l-.62.47.24-.76L8 8.76h.76L9 8Z" fill="#fff"/><path d="m13.76 5 .47.62.76-.24-.46.62.47.61-.76-.23-.47.62v-.76L13 6l.76-.24V5Z" fill="#00ADEF"/></svg>