<!-- by TradingView --><svg width="18" height="18" viewBox="0 0 18 18" xmlns="http://www.w3.org/2000/svg"><path fill="#F0F3FA" d="M0 0h18v18H0z"/><path d="M8.47 14a7.26 7.26 0 0 0 .79-.95 5 5 0 0 0 .6-1.29l.04-.19a2.09 2.09 0 0 0-.18-1.24 2.46 2.46 0 0 1-.06-.1 1.3 1.3 0 0 0-.1-.18 3.58 3.58 0 0 0-.6-.57 215.87 215.87 0 0 0-.76-.57 2 2 0 0 1-.67-.75 2.44 2.44 0 0 1-.39-.98c-.02-.26-.01-.5.05-.72.05-.24.13-.46.23-.66a6.4 6.4 0 0 1 1.26-1.62 38 38 0 0 0 .54-.51 72.32 72.32 0 0 1 .79-.66l-.05.15A4.57 4.57 0 0 0 10 5.15l.11.48.2.63a10.8 10.8 0 0 0 .96 1.9l.06.09a5.65 5.65 0 0 1 .59 1.44c.05.26.08.55.08.87a2.5 2.5 0 0 1-.4 1.3c-.18.28-.38.5-.6.67a8.7 8.7 0 0 1-1.63 1.05 12.64 12.64 0 0 1-.9.41Z" fill="#049647"/><path d="M8.86 13.4v.01h-.01a2.18 2.18 0 0 0-.6-.78 26.08 26.08 0 0 0-.6-.43l-.2-.13a12.49 12.49 0 0 0-.57-.35 3.39 3.39 0 0 1-1.12-.96l-.12-.22a1.6 1.6 0 0 1-.13-.8A3.28 3.28 0 0 1 5.7 9a4.69 4.69 0 0 1 .5-.96 3667.69 3667.69 0 0 0 .28-.37c-.1.31-.06.64.13.98l.15.26.2.24c.08.09.14.16.2.2l.17.15c.03.04.09.08.17.14a97.68 97.68 0 0 1 .54.37 3.06 3.06 0 0 1 1.02.95l.17.37.02.05.06.3c.02.1.03.2.02.31 0 .3-.07.59-.19.86a11.03 11.03 0 0 1-.29.57Z" fill="#028CCF"/></svg>