<!-- by TradingView --><svg width="56" height="56" viewBox="0 0 56 56" xmlns="http://www.w3.org/2000/svg"><path fill="#F0F3FA" d="M0 0h56v56H0z"/><path d="M29 12c7.72.47 13.97 6.4 14.9 13.99h-4.09A12.01 12.01 0 0 0 31 16.37v7.61l5.7 9.12c.8 1.28-.17 2.9-1.73 2.9H21c-1.55 0-2.52-1.62-1.72-2.9L25 23.95v-7.58A12 12 0 0 0 27.99 40a12 12 0 0 0 11.95-11.01H44A16.02 16.02 0 1 1 27 12v14.16L22.91 33c-.26.44.07 1 .6 1h9.01c.53 0 .87-.56.6-1L29 26.1V12Z" fill="#D7B56D"/><path d="M32 33h-8l.32-.52h7.36L32 33Zm-.7-1.13h-6.6l.3-.49h6l.3.5Zm-.67-1.1h-5.26l.3-.49h4.66l.3.5Zm-.68-1.1h-3.9l.3-.49h3.3l.3.5Zm-.67-1.1h-2.56l.36-.57h1.84l.36.58Zm-.73-1.17h-1.1l.55-.9.55.9Z" fill="#E31E24"/></svg>