<!-- by TradingView --><svg width="56" height="56" viewBox="0 0 56 56" xmlns="http://www.w3.org/2000/svg"><path fill="#F0F3FA" d="M0 0h56v56H0z"/><path d="m30.16 24.57-.22.43h-6.47c-.26 0-.47.2-.47.44s.21.44.47.44h6.09a9 9 0 0 0-.2.62h-5.89c-.26 0-.47.2-.47.44s.21.44.47.44h5.68l-.1.62h-5.61a.44.44 0 0 0 0 .88H29V29a9 9 0 0 0 4.88 8H9l14.5-23 6.66 10.57ZM38 21a8 8 0 0 1 2 15.75v-7.3c0-.25-.22-.45-.5-.45s-.5.2-.5.44v7.5l-.5.04v-7.55c0-.24-.22-.43-.5-.43s-.5.2-.5.43v7.55a7.98 7.98 0 0 1-.5-.05v-7.5c0-.23-.22-.43-.5-.43s-.5.2-.5.44v7.3A8 8 0 0 1 38 21Z" fill="#FBAA26"/></svg>