<!-- by TradingView --><svg width="18" height="18" viewBox="0 0 18 18" xmlns="http://www.w3.org/2000/svg"><path fill="#F0F3FA" d="M0 0h18v18H0z"/><path d="M9.5 9.8h-.08l-.03-.01-.01-.02V9.2l-.01-.02-.03-.01H8.64V9.77l-.02.03-.03.01h-.12L5.95 5.04a.02.02 0 0 1 0-.02.02.02 0 0 1 .02 0L7 5.18a13.6 13.6 0 0 0 5.02-.17L9.5 9.8ZM8.1 9.85c-.06-.01-.1 0-.1.04a6.68 6.68 0 0 0 .02.57l.03.01h.59l.03.01.01.03v.48L2.01 11 2 10.97A11.76 11.76 0 0 0 4.82 5.9L8.1 9.86ZM9.32 11v-.49l.01-.02.03-.01h.63V9.85l-.03-.01h-.1l3.3-3.95h.02a11.75 11.75 0 0 0 2.8 5.1H9.33Z" fill="#00789D"/><path d="M9 9.3a10 10 0 0 1 .25.01l.01.03v.54l.01.02.03.01h.61l.01.03a17.03 17.03 0 0 1-.01.46h-.62l-.02.01v.55l-.02.03-.02.01a20.42 20.42 0 0 1-.48-.01l-.01-.03v-.53l-.01-.02-.03-.01H8.1l-.01-.03a19.26 19.26 0 0 1 0-.45l.03-.01h.62V9.33l.02-.03h.02L9 9.3Z" fill="#DF0024"/><path d="M15.8 11.42H2.2c-.11 0-.2.13-.2.29 0 .16.09.29.2.29h13.6c.11 0 .2-.13.2-.29 0-.16-.09-.3-.2-.3Z" fill="#00789D"/></svg>