<!-- by TradingView --><svg width="18" height="18" viewBox="0 0 18 18" xmlns="http://www.w3.org/2000/svg"><path fill="#F0F3FA" d="M0 0h18v18H0z"/><path d="m8.48 5.11-.06.01c-.03 0-.04 0-.03-.03l.01-.04.04-.04c.02 0 .04 0 .05.02l.08.05c.02.02.03.03.03.06 0 .04.03.06.07.07.02 0 .03.01.04.03 0 .02 0 .03-.02.04a.13.13 0 0 1-.08.02c-.02 0-.03-.01-.02-.03.01-.05 0-.07-.06-.08-.02 0-.03-.02-.02-.04v-.02c0-.02-.02-.02-.03-.02ZM9 7.64h-.08a.79.79 0 0 0-.2-.32.37.37 0 0 0-.16-.1.27.27 0 0 1-.18-.13c0-.02-.03-.04-.06-.06a.17.17 0 0 1-.07-.05 1.81 1.81 0 0 0-.13-.19c-.06-.06-.06-.13-.02-.2a.07.07 0 0 0 .01-.06.17.17 0 0 0-.04-.07.12.12 0 0 1-.03-.05c-.03-.1-.02-.19.05-.28.04-.05.12-.12.24-.21l.11-.09a.15.15 0 0 0 .06-.1c0-.1-.02-.1-.1-.03-.05.07-.11.08-.19.05a.05.05 0 0 0-.06 0l-.09.08c-.03.03-.05.02-.03-.02a.22.22 0 0 1 .06-.1.07.07 0 0 0 .03-.07c-.02-.13.05-.23.2-.3h.02l.02.02.01.01v.03l-.01.02a.23.23 0 0 0-.15.18c0 .03.01.04.03.05.05.02.09 0 .12-.04.07-.07.1-.15.1-.24 0-.04.01-.04.04-.02.12.08.2.18.2.3a.45.45 0 0 1-.1.34v.06c.13.19.3.31.48.37.21.06.38.16.5.3.02.03.04.03.06.03h.04c.03 0 .06 0 .08.02l.21.2V7.03a34 34 0 0 1 .29.36.98.98 0 0 0 .13.06c.04.02.04.03-.01.03-.08 0-.17-.04-.27-.13a2.24 2.24 0 0 1-.26-.3.08.08 0 0 1-.02-.05c0-.02 0-.04-.02-.05a.6.6 0 0 0-.24-.17.19.19 0 0 1-.07-.05.75.75 0 0 0-.55-.23.6.6 0 0 1-.22-.07.72.72 0 0 0-.16-.05.26.26 0 0 0-.17.03c-.11.05-.17.13-.19.24-.01.1.02.19.1.28l.05.05.1.1c.04.03.1.05.14.05.05 0 .05 0 .02-.03a.37.37 0 0 1-.05-.04C8.55 7.03 8.56 7 8.6 7c.03.03.05.03.07 0 .05-.07.1-.09.17-.05.02.02.04.01.06 0a.6.6 0 0 1 .24-.17c.03 0 .05 0 .07.02l.01.01c.01.01.02.02.01.04 0 .01 0 .02-.02.02a.9.9 0 0 0-.27.14.09.09 0 0 1-.06.02.23.23 0 0 0-.2.07c-.01.02 0 .04.01.05l.05.04c.03.01.04.03.06.06.03.06.07.1.12.14.03.03.06.03.1 0 .04-.02.03-.03-.01-.04-.01 0-.02 0-.02-.02 0-.03 0-.04.04-.04.06.01.1-.01.1-.07l.02-.02a.31.31 0 0 0 .13-.06c.04-.03.03-.04-.02-.04h-.21c-.03 0-.04 0-.02-.03h.04c.02 0 .05 0 .06-.02.06-.04.1-.1.13-.15l.05-.04c.13-.03.24 0 .3.1.03.03.02.03 0 .02a.58.58 0 0 0-.14-.04c-.03 0-.04 0-.02.03l.05.06c.02.04.01.05-.03.04h-.05c-.05-.01-.06 0-.03.04.03.03.07.06.12.07.03 0 .04.02.02.05-.01.04-.05.05-.1.04l-.02.01-.01.03v.09l-.04.02h-.18c-.03 0-.05 0-.06.02v.03c0 .03-.01.05-.05.03a.42.42 0 0 0-.05 0c-.04-.02-.06 0-.06.04 0 .03.02.06.04.09Zm.34-.68a.2.2 0 0 0-.08.05c-.02.03-.02.04.02.04.05 0 .08-.02.09-.06 0-.03 0-.04-.03-.03Z" fill="#230E0B"/><path d="m9.13 6.33-.29-.1a.03.03 0 0 1-.02-.03c0-.01 0-.02.02-.03a.08.08 0 0 1 .06-.02c.23.05.4.14.54.3.05.05.04.06-.03.02l-.07-.04a.89.89 0 0 0-.2-.1ZM9.24 6.77l-.16-.1A.13.13 0 0 0 9 6.63c-.17 0-.29-.03-.34-.11-.01-.03 0-.04.02-.02.06.03.14.05.24.06l.17.04c.06.02.11.06.15.1.02.02.02.04.01.06Z" fill="#230E0B"/><path d="M9.91 8.35c.04.2.04.4 0 .6-.02.1.02.2.12.27.02.02.05.02.08.03.03 0 .06-.01.08-.03.1-.08.12-.18.02-.3V8.9c.01-.01.02-.02.03-.01.08.02.13.06.15.14.02.08 0 .15-.03.23-.04.08-.09.13-.16.15-.07.02-.15 0-.23-.07a.27.27 0 0 1-.06-.1.34.34 0 0 0-.05-.08 5.1 5.1 0 0 0-.06-.5v-.2a.4.4 0 0 0 0-.14.48.48 0 0 1-.02-.11c0-.04.01-.08.04-.11.02-.03.02-.04-.01-.04l-.04-.01c-.03-.02-.03-.04 0-.06l.1-.08a.1.1 0 0 0 .04-.06l.03-.2c0-.1-.01-.16-.04-.2a.07.07 0 0 1 0-.07v-.06a.34.34 0 0 1-.1-.17c0-.02 0-.03.03-.01.14.1.24.21.3.34.01.03.04.05.08.06l.08.02.1.02c.04 0 .07-.01.1-.03.08-.06.1-.04.08.05a.15.15 0 0 1-.07.08.06.06 0 0 1-.07 0 .18.18 0 0 1-.05-.04c-.03-.02-.04-.02-.04.02l.01.05c0 .02.02.02.05.02h.1c.02.02.02.04 0 .06a.3.3 0 0 0-.06.1c-.01.05 0 .06.05.04.09-.04.11-.1.07-.16 0-.02 0-.03.02-.02.08.02.11.06.1.13a.2.2 0 0 1-.03.08.23.23 0 0 1-.07.07.07.07 0 0 1-.07 0 .2.2 0 0 1-.1-.08c0-.02-.02-.02-.04-.02a.05.05 0 0 0-.02.03c-.02.01-.01.03 0 .04.03.01.05.03.06.06.02.02 0 .03-.02.04l-.04-.01-.03-.01a.08.08 0 0 0-.07.06c0 .02-.03.04-.06.05-.02 0-.05 0-.07-.02-.11-.1-.12-.19-.02-.26a.07.07 0 0 0 .02-.05.13.13 0 0 0-.05-.12h-.03l-.02.01a.25.25 0 0 0-.03.12c0 .03 0 .05-.03.06-.05.05-.06.1-.03.14.02.02.01.03 0 .05a.34.34 0 0 0-.09.14c0 .02 0 .03.02.03h.01c.02 0 .03 0 .03-.02l.03-.06c.02-.02.03-.02.03.01s0 .06-.03.08a.06.06 0 0 0-.02.05ZM10 7.5v.09l.02.02h.04a.17.17 0 0 0 .05-.04c.01-.02 0-.04-.02-.05l-.07-.03-.02.01Zm.13.17h-.03c-.03 0-.04 0-.01.03a.2.2 0 0 0 .06.03c.05.02.09 0 .1-.05.02-.02 0-.03-.02-.03s-.04 0-.05.02h-.05Zm.11.32a.3.3 0 0 1 .09-.05.27.27 0 0 0 .06-.04c.04-.04.04-.08 0-.12-.03-.02-.05-.02-.07 0a.12.12 0 0 0-.05.08c0 .02-.01.03-.03.04a.53.53 0 0 0-.09.06c-.03.03-.03.05.02.05.03 0 .05 0 .07-.02Z" fill="#570A12"/><path d="M9.61 8c.03 0 .05.01.05.04V12h-.42c-.02 0-.03-.07-.03-.1v-1.49c0-.3-.02-.53-.1-.67a1.3 1.3 0 0 0-.7-.63l-.84-.34a2.2 2.2 0 0 1-.52-.27c-.02-.02-.03-.02-.05 0-.14.12-.28.2-.44.26l-.94.36c-.34.13-.59.34-.74.62-.07.14-.1.41-.1.84v1.2l-.04.22h-.62L4 11.9V8.02L4.06 8h5.55Z" fill="#6E2628"/><path d="M5.35 8.62c0 .1-.04.2-.12.27a.4.4 0 0 1-.29.11.4.4 0 0 1-.29-.11.35.35 0 0 1-.12-.27c0-.1.04-.19.12-.26a.4.4 0 0 1 .3-.11c.1 0 .2.04.28.1.08.08.12.17.12.27ZM9.38 8.63c0 .1-.04.19-.12.26a.41.41 0 0 1-.29.11.41.41 0 0 1-.29-.1.35.35 0 0 1-.12-.27c0-.1.04-.2.12-.27a.41.41 0 0 1 .29-.11c.11 0 .21.03.29.1.08.08.12.17.12.28Z" fill="#945641"/><path d="M10.8 8.32c0 .03.03.06.07.1l.06.1c.23.43.56.7.98.84a.8.8 0 0 0 .55-.02.5.5 0 0 0 .17-.1c.04-.05.08-.1.1-.15a.34.34 0 0 0-.06-.35c-.07-.1-.17-.12-.29-.09a.1.1 0 0 0-.06.06.1.1 0 0 0 0 .08c.01.04.04.06.1.06.02 0 .04-.02.05-.04 0-.02.02-.04.03-.05.02-.02.04-.02.06 0 .05.03.06.08.04.14a.2.2 0 0 1-.1.1.16.16 0 0 1-.11.02.24.24 0 0 1-.1-.06.25.25 0 0 1-.08-.11.19.19 0 0 1 .03-.16.47.47 0 0 1 .12-.12.19.19 0 0 1 .15-.03c.14.02.25.08.31.17a.4.4 0 0 1 .08.3.6.6 0 0 1-.13.3.58.58 0 0 1-.28.2.74.74 0 0 1-.38.02 1.54 1.54 0 0 1-1-.56c-.07-.1-.1-.08-.08.03.01.09-.03.16-.12.2a.08.08 0 0 1-.06.02c-.18-.06-.27-.17-.28-.33 0-.05.02-.05.06-.02.02.03.04.05.05.09.02.05.06.08.11.08.06 0 .1-.02.14-.06.06-.08.07-.15.02-.23-.1-.17-.17-.34-.22-.5-.02-.08 0-.1.07-.05l.16.11c.05.05.1.04.15 0 .05-.06.07-.05.07.02 0 .06-.04.1-.12.12L11 8.44a.62.62 0 0 1-.16-.14c-.07-.08-.08-.08-.04.02ZM10.28 8.35l-.03-.01V8.22l.03-.02h.06c.02 0 .04.01.05.04l.02.04c0 .02 0 .04-.03.04l-.1.03Z" fill="#570A12"/><path d="m10.77 8.55.02.01c.04.04.03.05-.02.04l-.04-.02c-.03-.01-.04 0-.05.02a.1.1 0 0 1-.03.06c-.03.02-.04.02-.06-.01a.87.87 0 0 1-.03-.1c0-.03 0-.04.03-.04.02 0 .03-.02.01-.04v-.02c-.02-.02-.04-.02-.06 0l-.08.1a.11.11 0 0 1-.1.06.12.12 0 0 1-.1-.05l-.13-.17c-.01-.02 0-.03.02-.03.06 0 .1.02.11.06l.04.03c.05.01.09 0 .12-.05l.12-.15c.02-.02.03-.02.04 0 .04.1.1.19.17.28 0 .01 0 .02.02.02ZM11.42 8.85a.11.11 0 0 0-.05-.04.13.13 0 0 0-.06-.02.17.17 0 0 1-.19-.1c-.01-.03 0-.04.03-.04.09.02.16.01.21-.02.07-.04.09-.1.08-.18a.08.08 0 0 0-.04-.06.37.37 0 0 1-.08-.09c-.02-.02-.02-.04.02-.03.06.01.11.03.15.07a.28.28 0 0 1 .1.28.28.28 0 0 1-.09.14c-.04.04-.03.05.02.03.18-.04.24-.14.18-.28v-.02h.04c.09.1.1.19.05.27-.05.07-.14.12-.27.14-.04.01-.04.02 0 .03.1.02.19.02.29 0 .11-.04.17-.1.18-.18 0-.02.02-.03.04 0 .04.04.04.09.01.14a.37.37 0 0 1-.38.17c-.06 0-.07 0 0 .03.07.04.17.05.3.05.13 0 .22-.03.28-.1.02-.02.04-.03.08-.01.04.01.07.04.09.08a.1.1 0 0 1 0 .1.11.11 0 0 1-.08.06.84.84 0 0 1-.84-.2 3.72 3.72 0 0 0-.19-.17c-.05-.04-.04-.06.02-.07.03 0 .06.01.08.03.03.03.04.02.02-.01Z" fill="#570A12"/><path d="M10.05 8.64c0 .06.02.12.04.18v.02h-.03l-.04-.01c-.02 0-.02-.02-.03-.03a.5.5 0 0 1 .03-.29v-.05a.2.2 0 0 1 .02-.15c.01-.02.03-.03.05-.02l.01.01v.03c-.03.03-.03.05 0 .08a.4.4 0 0 1 .1.19l.01.02.1.12c.01.02 0 .04-.01.05a.05.05 0 0 1-.04.01.08.08 0 0 1-.04-.02.62.62 0 0 1-.11-.15c-.05-.1-.07-.1-.06.01ZM11.24 8.46c0 .04-.02.08-.06.1a.19.19 0 0 1-.14.02l-.02-.02.01-.02.17-.1c.03-.02.05-.02.04.02ZM10.9 8.8l-.08-.07a.08.08 0 0 0-.1 0l-.05.04a.06.06 0 0 0 .01.1l.08.06c.03.03.08.02.1 0l.04-.04a.06.06 0 0 0 0-.1Z" fill="#570A12"/><path d="M5.01 10.28c0-.28.1-.52.27-.72.17-.18.39-.32.67-.42a10.02 10.02 0 0 0 .96-.4v3.23c0 .02-.01.03-.03.03H5.04c-.02 0-.03-.01-.03-.03v-1.7ZM7.15 8.7c.13.08.34.17.63.29l.43.19c.16.07.29.15.38.24.25.21.38.5.38.88a97.63 97.63 0 0 1-.01 1.7h-1.8l-.03-.01-.01-.03V8.72c0-.03.01-.03.03-.02Z" fill="#D1AE6C"/><path d="M10.5 9.49c-.05.03-.1.03-.15 0-.02-.02-.02-.04 0-.05.02-.03.05-.04.1-.03.03 0 .04 0 .04-.04l-.1-.58-.03-.03h-.02v-.02a.1.1 0 0 1 .06 0c.03.01.04.03.04.05.03.2.1.41.19.6.01.02.01.04 0 .07l.01.03.05.03c.13.04.19.11.18.23 0 .05-.03.08-.08.1a.14.14 0 0 1-.14 0c-.14-.08-.16-.18-.07-.29a.04.04 0 0 0 .01-.04.06.06 0 0 0-.03-.04l-.06.01Z" fill="#6E2628"/><path d="M9.98 9.04c.02.07.08.11.14.1.06-.01.09-.08.07-.15-.02-.07-.08-.12-.14-.1-.05 0-.09.08-.07.15ZM11.28 9.42a1.8 1.8 0 0 1-.2-.23l.02-.01c.01-.02.03-.01.04 0 .12.12.25.22.39.3.17.1.16.12-.03.07a.5.5 0 0 1-.22-.13ZM12.58 9.76a.7.7 0 0 1-.21.04c-.1 0-.16-.02-.2-.06-.03-.03-.02-.04.02-.03.22.03.4-.04.53-.22l.12-.14c.04-.04.05-.03.05.02-.01.2-.11.33-.3.4Z" fill="#570A12"/><path d="M12.91 10.1c.21 0 .39-.04.51-.09.18-.06.3-.17.37-.32.05-.12.02-.22-.1-.29-.1-.06-.1-.08.02-.06.1 0 .18.03.24.07.05.04.1.1.11.15.02.06.02.12 0 .18a.45.45 0 0 1-.13.19.91.91 0 0 1-.44.22c-.12.02-.3.03-.5.02-.08 0-.09.01-.02.04a1 1 0 0 0 .58.05c.04 0 .05 0 .04.04 0 .04-.02.08-.04.1 0 .03-.03.04-.05.03a2.23 2.23 0 0 1-.82-.25 1.1 1.1 0 0 0-.35-.13h-.01v-.03c.05.02.1.03.14.02.03 0 .07 0 .13-.02a.82.82 0 0 1 .14-.03.8.8 0 0 0 .32-.1c.1-.04.18-.11.24-.2.04-.06.03-.12-.04-.18-.06-.04-.05-.07.02-.08h.1c.08 0 .14.03.2.09.08.1.06.2-.06.3a.88.88 0 0 1-.33.16c-.1.02-.19.06-.27.1-.03.02-.03.02 0 .02Zm-.06.02-.03-.02a.27.27 0 0 0-.06-.03h-.11c0 .02 0 .02.02.03l.07.03H12.85Z" fill="#6E2628"/><path d="m10.93 9.54-.05.02-.04-.1c-.01-.04 0-.06.03-.07.02 0 .04-.02.05-.03.03-.04.05-.03.05.01s.03.07.07.09c.02 0 .04.02.05.04a2.65 2.65 0 0 0 .44.43v.02h-.05a.99.99 0 0 1-.48-.44.1.1 0 0 0-.07-.05h-.03l-.01.03c0 .03.02.04.04.05ZM11.12 9.38c.12.11.26.21.4.3.02 0 .03 0 .03.02v.04l-.03.02c-.01.02-.03.02-.06 0a2.67 2.67 0 0 1-.36-.38h.02Z" fill="#570A12"/><path d="m10.06 9.88-.04.04c-.02.02-.03.02-.04-.01l-.06-.45c0-.02.01-.03.04-.02h.02c.03.01.04.03.05.05l.02.07c.03.13.07.21.1.25.03.04.04.08.04.12l-.04.12a.8.8 0 0 0-.03.08c-.01.01-.02.03-.04.03h-.06c-.03 0-.05-.03-.05-.06 0-.02.01-.04.03-.05.06-.04.1-.1.1-.16 0-.04-.02-.04-.04-.01Z" fill="#6E2628"/><path d="M12.4 9.88c.13-.01.24-.05.34-.1.11-.06.19-.14.21-.24 0-.02.02-.03.04-.03l.02.01.01.03c0 .13-.07.23-.21.3a.75.75 0 0 1-.4.1l-.02-.01c-.02-.02-.02-.03-.01-.04l.01-.02Z" fill="#570A12"/><path d="M10.32 9.63c.05.04.1.06.12.05.01-.02-.01-.06-.06-.1-.05-.04-.1-.07-.12-.05-.01.01.02.06.06.1Z" fill="#6E2628"/><path d="M10.37 9.86c.02.05.06.12.14.19l.08.09c.02.02.02.03-.01.03a.15.15 0 0 1-.1-.04 1.02 1.02 0 0 1-.32-.58l.01-.03.03.01c.07.1.12.22.17.33ZM14.31 9.86c.13-.13.26-.23.39-.28a.52.52 0 0 1 .47.02c.03.02.02.02 0 .03h-.12a.36.36 0 0 0-.18 0 .48.48 0 0 0-.16.1c-.1.09-.22.16-.35.2-.12.04-.14.02-.05-.07Z" fill="#570A12"/><path d="m10.93 9.54.3.4a3.52 3.52 0 0 0-.02 0c-.02 0-.04.01-.04.04 0 .05-.01.09-.03.11-.12.13-.24.15-.38.07a.76.76 0 0 1-.27-.32v-.01l.03-.01h.02c.03.06.07.1.12.14.05.04.12.05.19.02.06-.03.1-.08.13-.14a.18.18 0 0 0-.01-.12.81.81 0 0 0-.09-.16l.05-.02ZM14.38 10.06c.02.05.02.05.02.01.22.17.27.33.14.48-.17.2-.4.24-.67.13a.09.09 0 0 1-.05-.06v-.02c-.01-.02 0-.03.01-.02.17.05.32 0 .44-.15a.13.13 0 0 0 0-.16c-.11-.13-.25-.17-.42-.12h-.02v-.02l.02-.03v-.01c.1-.06.19-.12.25-.2.1-.1.13-.2.1-.28 0-.02 0-.03.03-.04a.05.05 0 0 1 .05 0c.06.04.08.1.04.2a.36.36 0 0 1-.15.15.5.5 0 0 0-.09.06c-.02.02-.02.04.01.04l.29.04Z" fill="#6E2628"/><path d="m11.25 9.96-.02-.02.32.15c.03.01.05.01.07 0 .06-.02.1-.02.16 0h.08c.13-.05.18-.13.15-.24a.1.1 0 0 0-.06-.07.12.12 0 0 1-.07-.06c-.03-.04-.01-.06.04-.04a.5.5 0 0 1 .16.07c.04.03.08.07.1.11.05.1.02.2-.08.28-.11.1-.25.1-.41-.02a.06.06 0 0 0-.04 0h-.04c-.05.05-.12.05-.2 0a.66.66 0 0 1-.16-.16Z" fill="#570A12"/><path d="M11.66 9.97c.08.05.18.04.22-.02.04-.05.01-.14-.07-.19-.08-.05-.17-.04-.22.02-.04.05 0 .14.07.19ZM14.4 10.07c0 .04 0 .04-.02 0a.23.23 0 0 1 .07-.09c.4-.26.82-.28 1.24-.06v.01a3.7 3.7 0 0 0-.49-.04c-.08 0-.21.02-.38.08-.13.04-.27.08-.42.1Z" fill="#570A12"/><path d="M15.63 10.1a.99.99 0 0 0 .18.07v.02l-.24-.03a2.79 2.79 0 0 0-.2-.03h-.19l-.44.11c-.11.04-.13.02-.04-.06a.6.6 0 0 1 .33-.16c.2-.03.4 0 .6.09ZM10.32 10.2l-.04.18c0 .03-.03.05-.06.06-.03 0-.05 0-.07-.03a.34.34 0 0 1-.06-.1c0-.02 0-.04.03-.05.1-.03.14-.1.12-.21 0-.02 0-.02.01 0 .06.04.08.09.07.15ZM11.23 10.21l-.03.02c-.02 0-.02 0-.01-.01l.06-.09c.01-.02.03-.02.05-.01.12.07.22.11.31.12.08.02.15.05.2.1.03.01.03.02 0 .02h-.07a.4.4 0 0 1-.18-.03 6.21 6.21 0 0 1-.3-.14.05.05 0 0 0-.03.02ZM13.63 10.98h-.02a.9.9 0 0 0-.63-.53h-.16a4.22 4.22 0 0 0-.36-.1.47.47 0 0 1-.16-.1.97.97 0 0 0-.03-.02c-.1-.08-.09-.1.05-.07.2.05.34.1.42.16.08.05.16.08.24.08.24 0 .44.1.6.3.16.2.37.34.63.45.11.05.1.06-.01.05a1.25 1.25 0 0 1-.57-.22ZM10.76 11.1a.1.1 0 0 0-.04-.09 1.44 1.44 0 0 0-.15-.09.67.67 0 0 1-.2-.15c-.05-.07-.06-.16-.03-.27.03-.1.04-.2.03-.29l.01-.02h.04a.4.4 0 0 1 .02.17l-.03.16c-.02.13.1.27.34.4a.24.24 0 0 1 .12.15c.02.07-.01.12-.1.15-.05.02-.1 0-.11-.05-.01-.04 0-.05.04-.04h.02c.02 0 .04-.01.04-.03Z" fill="#570A12"/><path d="M13.9 10.51c.12-.02.2-.1.18-.18-.01-.08-.12-.12-.24-.1-.12.02-.2.1-.18.18.02.08.13.12.24.1Z" fill="#6E2628"/><path d="M11.29 10.23c.2.18.41.27.65.28.04 0 .04.02.03.05l-.01.02-.04.02a.66.66 0 0 1-.38-.08 1.68 1.68 0 0 1-.3-.24v-.03l.01-.02h.04ZM12.07 10.26v-.01c.02-.02.05-.02.08 0 .04 0 .07.03.1.06l.03.03c.03.03.05.07.06.1.01.04 0 .06-.01.08h-.01l-.25-.26ZM15.89 10.46a.29.29 0 0 1-.14.01l-.57-.1a.81.81 0 0 0-.41.05h-.04v-.04a1 1 0 0 1 .42-.13c.16-.02.3 0 .43.06.11.05.24.08.37.08.02 0 .03.01.03.03v.02c-.01.02-.02.02-.04.02h-.05ZM12.09 10.6c0-.05-.01-.1-.03-.14a.48.48 0 0 0-.08-.1 1.58 1.58 0 0 1-.04-.04c-.06-.06-.05-.07.03-.04.11.05.18.14.21.26.01.03 0 .05-.02.07l-.04.02c-.02.01-.03 0-.03-.02ZM10.77 10.74l.09-.03c.06-.05.07-.11.03-.19a.33.33 0 0 0-.08-.09.32.32 0 0 0-.09-.05.04.04 0 0 1-.02-.02v-.02l.02-.01c.07 0 .13.03.2.07.05.04.08.08.1.14a.2.2 0 0 1 0 .16.3.3 0 0 1-.15.14.08.08 0 0 1-.07 0 .7.7 0 0 1-.23-.19c-.08-.1-.1-.18-.05-.25a.07.07 0 0 1 .05-.03c.03 0 .05 0 .07.02.06.05.1.1.12.14.04.06.03.11-.02.16-.03.04-.02.05.03.05ZM11.28 10.46h.05c.1.09.19.15.26.2.1.06.21.1.32.1.03 0 .05.03.04.06-.03.1-.09.12-.17.06l-.34-.25a.38.38 0 0 0-.15-.06.72.72 0 0 1-.1-.02.36.36 0 0 1-.21-.17c-.02-.05-.01-.06.03-.03l.23.11h.04ZM15.7 10.6c.1-.01.19-.05.26-.12.01-.01.02 0 .03.01v.05c.01.02 0 .03-.01.04l-.4.2a1.3 1.3 0 0 1-.41.11c-.17.01-.32 0-.45-.03a.72.72 0 0 0-.21-.03c-.08 0-.08 0 0 .02l.2.07c.17.06.35.08.54.06l.02.01V11c-.33.12-.65.09-.94-.1a.37.37 0 0 1-.08-.07c-.02-.02-.01-.03.01-.02h.13l.03-.01c.03-.08.1-.11.2-.1a8.25 8.25 0 0 0 .67.05l.18-.04a.44.44 0 0 0 .23-.1ZM12.6 10.65l-.02.02.01.02.03.02h.02c.09-.07.17-.12.24-.15a.1.1 0 0 1 .1 0c.02.01.02.03 0 .04a1.4 1.4 0 0 1-.33.18c-.02 0-.04 0-.05-.03v-.02c0-.03-.02-.04-.05-.05l-.2-.03-.02-.02v-.04l.01-.03c.14.01.25 0 .35-.04.03-.02.03 0 .02.02a.25.25 0 0 1-.11.11Z" fill="#570A12"/><path d="m15.7 10.6-.36.08a.7.7 0 0 1-.34-.02 1 1 0 0 0-.19-.03.36.36 0 0 0-.18.05l-.03-.01v-.05a.49.49 0 0 1 .3-.12c.07 0 .19 0 .34.03l.2.02h.2c.03 0 .04 0 .05.02v.03ZM13.47 10.95l-.03.01h-.01a1.29 1.29 0 0 0-.31-.35v-.02h.01c.16.08.27.2.34.36ZM14.26 10.93l.12.07.17.1c.04.03.03.04-.02.04a1.27 1.27 0 0 1-.83-.47c-.05-.07-.04-.08.04-.05l.12.08.12.08c.1.04.19.1.28.15ZM11.23 10.67c.16.04.3.1.39.2.08.09.15.21.19.37.03.1.01.11-.05.02a31.09 31.09 0 0 0-.3-.4 1.82 1.82 0 0 0-.25-.17c-.04-.03-.03-.03.02-.02Z" fill="#570A12"/><path d="M12.13 11.1c.03.01.08.02.13 0a.26.26 0 0 0 .12-.07c.03-.03.05-.07.04-.1 0-.05-.03-.1-.08-.12-.06-.04-.13-.05-.19-.03-.02 0-.03 0-.03-.02l-.01-.02.01-.02c.22-.06.39 0 .49.18.03.07.03.15-.01.22a.28.28 0 0 1-.2.14.32.32 0 0 1-.19-.03.56.56 0 0 1-.16-.11.05.05 0 0 1-.02-.04c0-.03.02-.04.04-.02l.06.03Z" fill="#6E2628"/><path d="M13.23 10.95c-.13-.12-.25-.16-.37-.13a.06.06 0 0 0-.03.03.08.08 0 0 1-.05.04c-.03 0-.04 0-.02-.04.03-.05.07-.09.13-.11.04-.02.1-.03.14-.02.05 0 .1.03.14.06.04.04.08.09.1.14.03.07.02.08-.04.03ZM11.16 10.75c.19.1.33.26.41.46l.1.15.05.06c.02.03.02.03-.01.02a.42.42 0 0 1-.2-.17 2 2 0 0 0-.4-.5v-.02h.05ZM12.1 11.01c.09.02.17 0 .18-.06 0-.05-.05-.1-.13-.12-.08-.02-.16 0-.17.06-.01.05.04.1.13.12ZM11.23 11.14c.12.16.23.27.26.26.02-.02-.07-.15-.19-.3-.12-.16-.24-.28-.26-.26-.02.01.06.15.19.3ZM11.26 11.31c-.02.02-.05.01-.1-.02a.68.68 0 0 1-.14-.13l-.01-.01a.66.66 0 0 1-.11-.16c-.02-.05-.02-.09 0-.1l.36.42Z" fill="#570A12"/><path d="M13.6 10.98h.03a.2.2 0 0 1-.04.22c-.06.07-.13.08-.2.04l-.3-.22a.35.35 0 0 0-.23-.07c-.04 0-.04 0-.01-.03a.14.14 0 0 1 .13-.03c.07.02.15.07.25.14.08.07.15.1.2.13h.07c.04-.02.06-.05.07-.08 0-.02 0-.05-.02-.07l-.03-.02c-.01-.02 0-.03.02-.03s.04 0 .07.02Z" fill="#6E2628"/><path d="M13.58 11.27a.7.7 0 0 1 .24-.1c.1-.01.16.03.2.13.01.05 0 .05-.04.01a.25.25 0 0 0-.12-.08.13.13 0 0 0-.1.02.62.62 0 0 0-.1.09.55.55 0 0 1-.12.1.14.14 0 0 1-.13 0c-.16-.08-.3-.17-.44-.26a.44.44 0 0 0-.12-.05 1.52 1.52 0 0 0-.14-.03v-.03l.02-.03a.05.05 0 0 1 .04-.01.6.6 0 0 1 .35.1l.22.14c.1.04.18.04.24 0ZM12.02 11.32l.03.03c.06.07.11.12.16.15.1.05.2.12.25.2.03.04.02.05-.02.03a5.94 5.94 0 0 1-.33-.18c-.15-.08-.23-.21-.22-.37 0-.04.02-.05.05-.02.03.03.05.07.06.1 0 .03 0 .04.02.06ZM13.08 11.35v.02c0 .02-.04.03-.09.03a.45.45 0 0 1-.16-.04h-.01a.41.41 0 0 1-.14-.1c-.03-.03-.04-.06-.03-.09h.02l.41.18ZM12.34 11.49c.14.08.26.12.28.1.02-.03-.08-.12-.22-.2-.14-.08-.27-.12-.28-.1-.02.03.08.12.22.2Z" fill="#570A12"/><path d="M12.65 11.4c.1.05.2.09.3.1.1.01.2 0 .31-.03a.1.1 0 0 1 .1.02l.01.01v.03c-.11.06-.22.1-.34.12a.33.33 0 0 1-.24-.05 1.1 1.1 0 0 1-.18-.17c-.1-.1-.09-.11.04-.04Z" fill="#6E2628"/></svg>