<!-- by TradingView --><svg width="18" height="18" viewBox="0 0 18 18" xmlns="http://www.w3.org/2000/svg"><path fill="#F0F3FA" d="M0 0h18v18H0z"/><path d="M9.49 4.05v8.81l-.02.1-.01.01-.02.03H8.25c-.03 0-.07-.03-.1-.05a.24.24 0 0 1-.08-.07L5.7 9.61h-.02l-.02.02v3.3l-.01.03-.03.01-.02.03H4.08a.06.06 0 0 1-.06-.02l-.01-.02-.01-.03V7.08l.01-.03.03-.05h1.35c.1.01.22.1.3.22l2.27 2.64a.02.02 0 0 0 .02 0H8L8 9.83v-3.1c0-.03-.02-.05-.03-.07a.09.09 0 0 0-.07-.02h-.82l-.03-.01-.02-.03a.06.06 0 0 1 .01-.06c.1-.12.21-.2.33-.32.78-.83 1.46-1.57 2.04-2.22h.05c.02 0 .02.02.03.04Z" fill="#86C601"/><path d="m9.5 12.86-.01-8.8A.1.1 0 0 1 9.55 4a.05.05 0 0 1 .04.01l.23.21a220.62 220.62 0 0 0 2.19 2.33.1.1 0 0 1-.1.09l-.76.01c-.1 0-.15.06-.15.17v4.55c0 .03.02.07.04.1.02.02.05.03.08.03h2.67c.1 0 .16.02.19.06a.1.1 0 0 1 .02.06V13H9.72a.41.41 0 0 1-.13-.05l-.1-.09Z" fill="#0171DE"/></svg>