<!-- by TradingView --><svg width="56" height="56" viewBox="0 0 56 56" xmlns="http://www.w3.org/2000/svg"><path fill="#CA322C" d="M0 0h56v56H0z"/><path d="M28.9 18.9 28 18l-4 4 4 4 4-4-2.39-2.39-2.43 2.44.9.9 1.62-1.6.7.7-2.32 2.31-2.33-2.31 3.15-3.15ZM27 26h-1.24l-3.35-3h-5.26L16 22h6.8l4.2 4Z" fill="#FAFDFE"/><path d="M25.18 26h-1.24l-2.1-1.8h-3.16l-1.15-.96h4.69L25.18 26Z" fill="#FAFDFE"/><path d="M23.37 26h-1.25l-.86-.57h-1.24l-1.15-.95h2.77L23.37 26ZM29 26h1.24l3.35-3h5.26L40 22h-6.8L29 26Z" fill="#FAFDFE"/><path d="M30.82 26h1.24l2.1-1.8h3.16l1.15-.96h-4.69L30.82 26Z" fill="#FAFDFE"/><path d="M32.63 26h1.25l.86-.57h1.24l1.15-.95h-2.77L32.63 26ZM49 35h-1.78l-.47-.81h-2.5l-.47.81H42l2.55-4h1.91L49 35Zm-2.64-1.5-.85-1.47-.85 1.46h1.7ZM41 33.07c0 1.47-1.66 1.93-2.85 1.93H35v-4h2.43c1.32 0 3.57.28 3.57 2.07Zm-1.79-.05c0-.94-.91-1.22-1.7-1.22H37v2.37h.51c.8 0 1.7-.2 1.7-1.15ZM34 33.18c0 1.48-1.84 1.82-3 1.82-1.15 0-3-.34-3-1.82V31h2v1.87c0 .77.28 1.13 1 1.13.7 0 1-.36 1-1.12V31h2v2.18ZM27 35h-2l-.5-.71c-.37-.55-.75-.85-1.42-.85H23V35h-2v-4h3.18c.72 0 2.19.24 2.19 1.24 0 .58-.55.84-1.02 1 .2.07.36.16.5.27.47.37.8 1 1.15 1.49Zm-2.54-2.74c0-.37-.35-.5-1.2-.5H23v.97h.27c.35 0 1.2.08 1.2-.47ZM20 35h-1.78l-.47-.81h-2.5l-.47.81H13l2.55-4h1.91L20 35Zm-2.64-1.5-.85-1.47-.85 1.46h1.7ZM12 34.67c-.71.22-1.45.33-2.2.33-1.24 0-2.8-.52-2.8-2 0-1.56 1.62-2 2.89-2 .69 0 1.44.11 2.11.28v.92a4.32 4.32 0 0 0-1.75-.36c-.71 0-1.73.28-1.73 1.17 0 .8.9 1.1 1.57 1.1.19 0 .39-.03.6-.07v-.45H10v-.79h2v1.87Z" fill="#FAFDFE"/></svg>