<!-- by TradingView --><svg width="18" height="18" viewBox="0 0 18 18" xmlns="http://www.w3.org/2000/svg"><path fill="#F0F3FA" d="M0 0h18v18H0z"/><circle cx="9" cy="9" r="5" fill="url(#afujzhhkn)"/><path d="M4 9.27c.08 1.32.66 2.5 1.56 3.36v-2.38c0-.62.32-1.25 1.25-1.25.86 0 1.23.57 1.5.98l.07.11c.02.04.05.1.1.16.42.67 1.59 2.5 3.02 2.5.39 0 .74-.08 1.04-.22A4.98 4.98 0 0 0 14 9.38c-.15-1.3-1.49-1.74-2.18-1.79V4.87c-.38-.26-.8-.47-1.25-.62v4.28c0 .12.25.25.57.42.55.3 1.3.7 1.3 1.3 0 .75-.62.94-.93.94-.52 0-.98-.7-1.53-1.52-.76-1.15-1.7-2.54-3.16-2.54-1.96 0-2.68 1.4-2.8 2.14Z" fill="url(#bfujzhhkn)"/><defs><linearGradient id="afujzhhkn" x1="5.88" y1="5.88" x2="13.38" y2="11.5" gradientUnits="userSpaceOnUse"><stop stop-color="#06416F"/><stop offset=".66" stop-color="#4389C3"/><stop offset="1" stop-color="#1F598E"/></linearGradient><linearGradient id="bfujzhhkn" x1="9" y1="4.25" x2="9" y2="12.75" gradientUnits="userSpaceOnUse"><stop stop-color="#F0F0F0"/><stop offset="1" stop-color="#A7A6A6"/></linearGradient></defs></svg>