<!-- by TradingView --><svg width="18" height="18" viewBox="0 0 18 18" xmlns="http://www.w3.org/2000/svg"><path fill="#F0F3FA" d="M0 0h18v18H0z"/><path d="M3 9.75v-.54c.02-.26.08-.5.17-.72.27-.65.72-1.2 1.36-1.65A4.5 4.5 0 0 1 7.57 6a3.13 3.13 0 0 1 1.68.62l-.27 1.21c0 .02 0 .02-.02 0a1.6 1.6 0 0 0-.68-.44 2.18 2.18 0 0 0-.8-.12 2.71 2.71 0 0 0-2.01.99c-.2.26-.33.54-.38.84-.05.33.01.63.18.9.23.38.58.58 1.06.6.23 0 .42 0 .57-.02.02 0 .02-.01.03-.03l.16-.73c0-.03 0-.04-.03-.04h-.65c-.02 0-.02 0-.02-.02l.27-1.1H8.8l.01.01a57.45 57.45 0 0 0-.42 1.87 46.18 46.18 0 0 1-.19.87c-.6.32-1.24.51-1.9.57a3.65 3.65 0 0 1-1.92-.34 2.6 2.6 0 0 1-.95-.76A2.13 2.13 0 0 1 3 9.75Z" fill="#E31E25"/><path d="m13.71 8.82.15.05c.25.08.44.2.58.36.15.17.23.38.24.63 0 .49-.16.92-.49 1.31-.32.37-.71.6-1.18.7-.47.09-1.02.13-1.64.13H8.54c-.02 0-.03-.01-.02-.03l1.3-5.94c0-.02.02-.03.04-.03h3.55c.26 0 .5.04.74.1.22.06.4.17.55.32.13.13.22.3.27.49.04.18.04.38 0 .58-.05.2-.13.4-.26.59-.22.33-.55.57-1 .71v.03Zm-2.42-.49h.9c.46-.01.73-.18.81-.53.08-.3-.02-.47-.3-.53h-.02a1.6 1.6 0 0 0-.3-.04h-.85c-.01 0-.03 0-.03.03l-.24 1.04c0 .02 0 .03.03.03Zm-.53 2.34h1.1c.23-.01.43-.04.6-.15.19-.13.29-.3.3-.54.01-.3-.21-.46-.68-.47l-1.05-.01c-.02 0-.03 0-.03.03l-.26 1.13h.02Z" fill="#0078BF"/></svg>