<!-- by TradingView --><svg width="18" height="18" viewBox="0 0 18 18" xmlns="http://www.w3.org/2000/svg"><path fill="#F0F3FA" d="M0 0h18v18H0z"/><path d="M3 9.1c0-3.53 4.68-4.2 7.02-4.09-3.41.26-6.13 1.45-6.13 3.77 0 2.33 3.02 3.74 6.13 3.74 2.48 0 4.3-1.2 4.9-1.8-.41.75-2.18 2.28-5.95 2.28-4.6 0-5.9-2.6-5.97-3.9Z" fill="#5ABBEE"/><path d="M4.57 8.81c0-2.08 2.43-3.04 3.65-3.27-1.03.31-2.95 1.52-2.95 2.94s1.62 3.15 4.9 3.15c3.27 0 4.53-2.08 4.53-2.94 0-.69-.19-1.23-.28-1.41.2.18.58.73.58 1.48 0 1.9-2.3 3.47-4.84 3.47s-5.59-.82-5.59-3.42Z" fill="#5ABBEE"/><path d="M9.86 10.83c-2.81 0-3.88-1.48-4.06-2.22.14.9 1.13 2.7 4.06 2.7 3.65 0 4.56-2.1 4.56-2.97 0-2.57-3.3-3.03-4.94-2.94 4.18.39 4.29 2.35 4.29 2.79 0 .43-.4 2.64-3.91 2.64Z" fill="#5ABBEE"/><path fill-rule="evenodd" d="M12.7 8.81c.2-.24.3-.52.3-.81 0-1.1-1.57-2-3.5-2S6 6.9 6 8s1.57 2 3.5 2c1.3 0 2.43-.4 3.03-1h-.34c0-.53-.47-.69-.74-.7V9H11V7h.45v.73c.36-.12.45-.53.45-.73h.51c-.05.61-.4.85-.58.9.55.13.79.59.87.91ZM6.6 9h.45c0-.09.03-.2.06-.33h.69V9h.45V7h-.39A2.2 2.2 0 0 0 6.6 9Zm1.2-.67V7.6c-.28.13-.47.43-.6.73h.6ZM8.55 7v2H9V7.65l.57.6V9H10V7h-.43v.59L8.95 7h-.4Zm2.25 0h-.45v2h.45V7Z" fill="#005CA1"/></svg>