<!-- by TradingView --><svg width="56" height="56" viewBox="0 0 56 56" xmlns="http://www.w3.org/2000/svg"><path fill="#F0F3FA" d="M0 0h56v56H0z"/><path d="M16.37 36h27.6c-.01 0 .02 0 0 0 0-.01.02 0 0 0L46 38.91a.06.06 0 0 1-.02.08l-.02.01H10.02l-.01-.03a.05.05 0 0 1 0-.05 14052.17 14052.17 0 0 0 9.74-15.23A9320.63 9320.63 0 0 1 27.63 11a.06.06 0 0 1 .06 0s.02 0 .02.02l2.1 3.18a.21.21 0 0 1 0 .23 13069.1 13069.1 0 0 1-5.38 8.77c-1.46 2.29-4.2 6.73-8.06 12.79Z" fill="#003F7B"/><path fill-rule="evenodd" d="M30.4 15.22 18.2 34.89a.05.05 0 0 0 0 .04.05.05 0 0 0 .05.03h25.14a.05.05 0 0 0 .02-.05v-.02L30.46 15.2l-.01-.01a.05.05 0 0 0-.06.02Zm-1.71 4.75 1.48-2.34a.04.04 0 0 1 .03-.02h.02l.01.01.01.01 1.5 2.33h.01v.02a.04.04 0 0 1-.02.04h-.02l-2.99.02a.04.04 0 0 1-.04-.02v-.05Zm2.88.5h-3.1a.06.06 0 0 0-.06.07v2.35c0 .04.04.06.07.06h3.1c.03 0 .06-.03.06-.06v-2.35a.06.06 0 0 0-.07-.07Zm.53 2.44V20.6a.04.04 0 0 1 .02-.03h.02l.02.01 1.5 2.32v.01a.04.04 0 0 1-.02.04h-1.52l-.01-.01-.01-.03Zm-5.26-.01 1.1-1.73a.04.04 0 0 1 .04-.02l.01.01v1.75a.04.04 0 0 1-.02.03h-.02l-1.08.02a.04.04 0 0 1-.04-.04v-.02Zm-5.9 11.65 3.75-1.27a.25.25 0 0 0 .16-.19l.76-3.77a.08.08 0 0 1 .04-.05l3.04-1.89c.04-.02.07-.02.1.02l.67.66.03.02h.04a.07.07 0 0 0 .03-.01l.03-.03 1.47-3.29c.02-.05 0-.08-.05-.08h-.3a319.34 319.34 0 0 1-3.34.5.04.04 0 0 0 0 .02v.02l.72.94c.02.02.02.05 0 .06l-3.7 2.29a.3.3 0 0 0-.13.2l-.59 3.26a.16.16 0 0 1-.1.13l-3.35 1.37a.11.11 0 0 0-.07.12c0 .02 0 .03.02.05l.52.94-1.16-.03h-.02v-.01h-.01v-.01a.03.03 0 0 1 0-.03c.21-.29.38-.6.5-.92.03-.08.11-.2.25-.34.24-.26.4-.52.62-.88a42.58 42.58 0 0 1 .2-.3.13.13 0 0 1 .06-.01h1.9c.14 0 .25-.05.34-.16l.08-.09a.1.1 0 0 0 .02-.1.1.1 0 0 0-.1-.07H21.4c-.04 0-.05-.02-.03-.05l1.36-2.2a.18.18 0 0 1 .15-.08h.9c.07 0 .12-.04.13-.11l.04-.2c.02-.09-.01-.13-.1-.13h-.7a.04.04 0 0 1-.03-.02.04.04 0 0 1 0-.02v-.01l1.13-1.82.02-.02h.01a.03.03 0 0 1 .03.03v1.2c0 .07.03.08.08.05l.29-.2a.2.2 0 0 0 .09-.16v-1.55c0-.05.02-.08.07-.08h2.72c.15 0 .18-.06.1-.18L27.6 26a.38.38 0 0 0-.33-.18h-2.21a.03.03 0 0 1-.03-.02.03.03 0 0 1 0-.04l1.43-2.3a.11.11 0 0 1 .1-.06h1.35a.07.07 0 0 1 .07.07v1.25c0 .05.03.07.08.07h.25a.1.1 0 0 0 .1-.1v-1.24c0-.03 0-.05.04-.05h3.15a.03.03 0 0 1 .03.02V25.76a.06.06 0 0 1-.06.07H31c-.07 0-.11.03-.14.08l-.11.27c-.03.06-.01.08.05.08h.77a.06.06 0 0 1 .06.04v2.49c0 .02 0 .04-.02.05a.07.07 0 0 1-.05.03h-3.1c-.04 0-.06-.02-.06-.05v-.75c0-.1-.03-.12-.11-.07l-.2.13a.24.24 0 0 0-.11.22v.46c0 .04-.02.06-.06.06h-.8c-.25 0-.45.12-.64.23l-.13.08c-.14.08-.13.12.03.12h1.54c.04 0 .06.02.06.06v2.16a.11.11 0 0 1-.11.11h-2.36c-.05 0-.08.03-.1.08l-.04.26a.08.08 0 0 0 0 .03.07.07 0 0 0 .04.05h2.51c.04 0 .06.02.06.07v2.35a.1.1 0 0 1-.1.1h-3.05c-.02 0-.04-.01-.05-.03a.08.08 0 0 1-.02-.05v-.79c0-.08-.04-.1-.1-.07l-.27.1a.14.14 0 0 0-.09.14v.63c0 .04-.02.07-.07.07h-3.3Zm11.15-8.77v-2.33c0-.03.02-.05.05-.05h1.76a.19.19 0 0 1 .15.09l1.24 1.9c.05.08.06.2.03.37-.01.03-.03.05-.07.05h-3.12c-.03 0-.04 0-.04-.03Zm3.17.47h-3.11a.06.06 0 0 0-.06.07v2.48c0 .03.03.06.06.06h3.12c.03 0 .05-.03.05-.06V26.3a.06.06 0 0 0-.06-.06Zm.53 2.57v-2.55a.03.03 0 0 1 .04-.03h.01l.01.01 1.66 2.55a.03.03 0 0 1-.01.04h-.02l-1.65.02h-.01l-.02-.01v-.03Zm-4.19.47h-3.15a.04.04 0 0 0-.04.04v2.25c0 .02.02.04.04.04h3.15c.02 0 .04-.02.04-.04v-2.25a.04.04 0 0 0-.04-.04Zm3.67 0h-3.12a.05.05 0 0 0-.05.05v2.23c0 .03.02.05.05.05h3.12c.03 0 .05-.02.05-.05v-2.23a.05.05 0 0 0-.05-.05Zm.57 0h1.94a.13.13 0 0 1 .1.07c.57.87.9 1.4 1.02 1.59.11.17.15.37.1.6a.08.08 0 0 1-.08.07h-3.08c-.01 0-.02 0-.03-.02l-.02-.03a150.82 150.82 0 0 1 .02-2.26l.01-.01h.02Zm-4.25 2.76h-3.12a.05.05 0 0 0-.05.05v2.4c0 .03.02.05.05.05h3.12c.03 0 .05-.02.05-.05v-2.4a.05.05 0 0 0-.05-.05Zm3.68 0h-3.12a.05.05 0 0 0-.06.05v2.4c0 .03.03.05.06.05h3.12c.03 0 .05-.02.05-.05v-2.4a.05.05 0 0 0-.05-.05Zm3.66 0h-3.07a.08.08 0 0 0-.07.08v2.35c0 .04.03.08.08.08h3.07c.04 0 .07-.04.07-.08v-2.36a.08.08 0 0 0-.08-.08Zm2.28 2.42c.04.06.02.08-.04.08h-1.68a.05.05 0 0 1-.05-.02v-2.2c0-.37.1-.4.3-.09l1.47 2.23Z" fill="#003F7B"/><path d="M20.94 34.55c-.03.02-.11.03-.25.02l-.52-.94a.12.12 0 0 1 .01-.14.11.11 0 0 1 .04-.02l3.35-1.38a.16.16 0 0 0 .1-.13l.6-3.26a.3.3 0 0 1 .13-.2l3.68-2.29c.03-.01.03-.04.01-.06l-.71-.94v-.04a.04.04 0 0 1 .03-.02l3.3-.48h.3c.05 0 .07.03.05.08l-1.47 3.29-.03.03a.08.08 0 0 1-.07.01.08.08 0 0 1-.03-.02l-.66-.66c-.04-.04-.07-.04-.11-.02l-3.04 1.9a.08.08 0 0 0-.04.04l-.76 3.77a.26.26 0 0 1-.16.2l-3.75 1.26Z" fill="#BA0908"/></svg>