<!-- by TradingView --><svg width="18" height="18" viewBox="0 0 18 18" xmlns="http://www.w3.org/2000/svg"><path fill="#F0F3FA" d="M0 0h18v18H0z"/><path d="M13.08 5.33a1.9 1.9 0 0 1 1.9 1.9v3.53a1.9 1.9 0 0 1-1.9 1.9H4.9A1.9 1.9 0 0 1 3 10.77V7.24c0-1.05.86-1.9 1.91-1.9h8.17ZM10 6v1.33h1.96a.5.5 0 0 1 .05 1H10v1.34h2.02a.5.5 0 0 1-.06 1H10V12h2.16a1.84 1.84 0 0 0 1.42-3 1.83 1.83 0 0 0-1.42-3H10Zm-2.68 4H5.85l.5-2H5.01L4 12h5L7.38 6H5.76l1.56 4Z" fill="#2D2F8A"/><path fill-rule="evenodd" d="M13.1 5.33H4.9c-.83 0-1.58.8-1.58 1.67v4c0 .87.75 1.67 1.57 1.67h8.2c.83 0 1.58-.8 1.58-1.67V7c0-.87-.75-1.67-1.57-1.67ZM4.96 5C3.88 5 3 5.93 3 7.08v3.84C3 12.07 3.88 13 4.96 13h8.08c1.08 0 1.96-.93 1.96-2.08V7.08C15 5.93 14.12 5 13.04 5H4.96Z" fill="#9898C8"/></svg>