<!-- by TradingView --><svg width="18" height="18" viewBox="0 0 18 18" xmlns="http://www.w3.org/2000/svg"><path fill="#F0F3FA" d="M0 0h18v18H0z"/><path d="M9.04 6.06c.47-.54 1-.86 1.58-.97 1.3-.25 2.25.02 2.87.79.34.41.51 1.05.51 1.9a2110.17 2110.17 0 0 0-.02 5.2.07.07 0 0 1-.05.02h-2.67c-.02 0-.03 0-.05-.02a.06.06 0 0 1-.02-.04v-5.3a.29.29 0 0 0-.03-.14.31.31 0 0 0-.08-.1.34.34 0 0 0-.27-.07h-.02c-.1.01-.2.06-.27.13a.38.38 0 0 0-.1.26l-.01 5.22c0 .02 0 .03-.02.04a.07.07 0 0 1-.05.02H7.66c-.01 0-.03 0-.04-.02a.06.06 0 0 1-.02-.04v-5.3a.29.29 0 0 0-.03-.14.3.3 0 0 0-.09-.1.34.34 0 0 0-.26-.07H7.2c-.1.01-.2.06-.27.13a.38.38 0 0 0-.11.26v5.25l-.01.02H4.04l-.02-.01-.01-.02v-.02L4 7.8c0-.62.05-1.06.16-1.3.41-.94 1.24-1.44 2.46-1.49a2.62 2.62 0 0 1 2.35 1.06.06.06 0 0 0 .07-.02Z" fill="#0F5F35"/></svg>