<!-- by TradingView --><svg width="56" height="56" viewBox="0 0 56 56" xmlns="http://www.w3.org/2000/svg"><path fill="#F0F3FA" d="M0 0h56v56H0z"/><path d="M37.76 28.03c-.16-.04-.29-.23-.39-.57a7.41 7.41 0 0 0-1.99-2.06c-.9-.63-1.7-.45-2.37.52-.27.03-.4-.05-.42-.24-.1-1.19-.22-2.38-.34-3.57-.01-.15-.05-.26-.11-.32-.12-.13-.26-.12-.42.02-.24.34-.4.64-.48.9-.37.5-.81.95-1.34 1.35-.32.24-.58.18-.76-.18a2.35 2.35 0 0 1-.1-1.09c.06-.47.06-1 0-1.57-.06-.55-.46-.75-.97-.92-.1-.04-.17-.01-.2.09-.2.22-.41.5-.66.69a15.06 15.06 0 0 0-3.26 3.35 8.1 8.1 0 0 1-2.13-1.05c-.73-.5-1.33-.35-1.8.42-.68 1.4-1.06 2.8-1.13 4.18-.02.43-.17.48-.44.14a7.54 7.54 0 0 0-1.73-1.51c-.78-.52-.93-1.72-1.36-2.47a.31.31 0 0 1-.03-.25l.78-2.79c.27-.9-.22-1.13-.58-1.7a.36.36 0 0 1-.05-.14c-.01-.05 0-.1 0-.14a.24.24 0 0 1 .07-.11.2.2 0 0 1 .11-.05c.44-.06 1.13.26 1.53.44.21.1.51.12.9.07a8.61 8.61 0 0 1 2.06.05c.08 0 .16-.01.24-.05l.3-.17a.17.17 0 0 1 .2.01c.33.29.82.42 1.48.4.6-.03.91.54 1.18.96a.12.12 0 0 0 .22-.04c.09-.4.14-.82.32-1.2l.6-1.23c.12-.33.33-.58.61-.76.82-.5 1.34-.81 1.57-.93.9-.45 1.25-1.2 1.06-2.23-.03-.12-.02-.2.02-.23a.23.23 0 0 1 .27-.01l.07.07c.27.46.54.92.79 1.38.49.89 1.22 1.24 1.76 1.85.24.27.49.5.74.68.43.31.44.48.64.88.26.51.92.87 1.46 1 .42.1.85-.04 1.28-.42.07-.05.14-.06.22-.02l.4.24c.09.05.18.06.27.04a4.83 4.83 0 0 1 1.87-.08c.31.04.64 0 .97-.12a9.6 9.6 0 0 1 1.95-.46.16.16 0 0 1 .17.08c.04.08.02.16-.05.23-.62.6-1.24 1.15-.94 2 .26.72.52 1.6.79 2.66.02.08.02.16-.02.24-.22.5-.4.99-.51 1.44-.26.95-1.5 1.75-2.32 2.3Z" fill="#638640"/><path d="M31.24 22.72a18.74 18.74 0 0 1-3.44 6.33.28.28 0 0 0-.06.22l.05.29.01.11a23.13 23.13 0 0 0-2.46-3.93c.09.13.17.21.24.25.09.03.14 0 .16-.09a17.4 17.4 0 0 1 2.3-5.5.05.05 0 0 0-.02-.04c-.04-.02-.1-.02-.15.03.03-.1.1-.13.2-.1.5.18.91.38.97.93.06.57.06 1.1 0 1.57-.03.3-.03.83.1 1.09.18.36.44.42.76.18.53-.4.97-.84 1.34-1.34Z" fill="#A7764F"/><path d="m25.34 25.74-1.39-1.3c.91-1.3 2-2.4 3.26-3.36.25-.19.45-.47.66-.7.06-.04.1-.04.15-.02a.05.05 0 0 1 .02.03.06.06 0 0 1 0 .05 17.4 17.4 0 0 0-2.3 5.46c-.02.1-.07.12-.16.09a.64.64 0 0 1-.24-.25Z" fill="#FEF8DD"/><path d="M33.01 25.92c-.2.47-.34.97-.42 1.48-.07.45-.19.8-.36 1.03-.25.36-.51.63-.79.8l-2.33 1.55c-.13.09-.38.05-.75-.1l-.56-1.01a.27.27 0 0 1-.02-.11c.04 0 .08-.02.12-.04a.23.23 0 0 0 .08-.08c1.1-1.65 1.85-2.76 2.27-3.33.48-.66.8-1.2.99-1.63.42-.98.66-1.58.73-1.77.2-.65.13-.95-.25-.9.16-.14.3-.14.42-.02.06.06.1.17.11.32l.33 3.57c.02.19.16.27.43.24Z" fill="#9F866A"/><path d="m27.78 29.56-.04-.3a.28.28 0 0 1 .06-.21 18.74 18.74 0 0 0 3.44-6.33c.08-.27.24-.57.48-.91.38-.05.46.25.25.9-.06.2-.3.79-.73 1.77-.18.43-.51.97-.99 1.63-.42.57-1.17 1.68-2.27 3.33a.23.23 0 0 1-.08.08.35.35 0 0 1-.12.04Z" fill="#EBC795"/><path d="m23.95 24.43 1.4 1.3c.97 1.28 1.79 2.59 2.45 3.94l.56 1.01.34 1.13a8.1 8.1 0 0 1 .36 4.83c-.18.69-.69 1.22-1.53 1.6-.64.12-1.27.3-1.89.5-.55.2-.96.28-1.24.25-.6-.05-1.02-.37-1.5-.63a6.7 6.7 0 0 1-3.6-5.7l.13-.3c.03-.08.07-.09.12-.01.28.46.32.92.52 1.3.12.2.32.42.6.64.55.42 1.06.92 1.53 1.5.06.07.08.06.07-.03-.16-1.52-.74-3.48-.99-4.69l-.5-2.38c-.19-.86-.19-1.79-.18-2.54 0-.32-.14-.63-.48-.66-.08 0-.12-.05-.13-.14a.9.9 0 0 0-.07-.3c.25-.54.28-.96.1-1.25.47-.77 1.07-.91 1.8-.42.7.47 1.4.82 2.13 1.05Z" fill="#C4592C"/><path d="M27.9 25.84c-.01-1.17.09-1.96.3-2.38a.23.23 0 0 1 .16-.12.24.24 0 0 1 .2.05c1.07.82.28 1.53-.47 2.51-.13.17-.2.15-.2-.06ZM37.37 27.46c-.03.19-.08.3-.13.35-.06.06-.12.01-.2-.12a2.74 2.74 0 0 0-1-1.15 1.6 1.6 0 0 1-.45-.33c-.54-.66-1.3-.79-2.06-.42-.14.07-.16.16-.09.29l.05.08c.07.13.18.17.31.12.48-.17.98-.2 1.5-.08.07.02.08.06.05.12l-.06.1a.1.1 0 0 1-.08.04c-.51-.03-.9 0-1.18.11-.25.1-.46.42-.62.95 0 .3-.13.47-.4.53a.2.2 0 0 0-.16.14c-.05.19-.08.4-.1.61-.05.51-.33.98-.6 1.5-.16.32-.4.46-.7.44a.22.22 0 0 0-.24.18c-.13.64-.36 1.11-.7 1.4-.1-.44-.19-.72-.25-.86-.13-.27-.33-.33-.59-.19l-.97.54-.34-1.13c.37.15.62.19.75.1.69-.47 1.47-.98 2.33-1.54.28-.18.54-.45.8-.8.16-.25.28-.6.35-1.04a6.3 6.3 0 0 1 .42-1.48c.67-.97 1.46-1.15 2.37-.52a7.41 7.41 0 0 1 2 2.06Z" fill="#FEF8DD"/><path d="M19.92 25.06c.04.1.06.19.07.3 0 .08.05.12.14.13.34.03.47.34.47.66 0 .75 0 1.68.19 2.54l.5 2.38c.24 1.21.82 3.17.98 4.69.01.1-.01.1-.07.03a8.85 8.85 0 0 0-1.53-1.5 2.2 2.2 0 0 1-.6-.65c-.2-.37-.24-.83-.52-1.3-.04-.07-.08-.06-.12.02l-.13.3c-.15-1-.22-1.98-.21-2.99 0-1.03.46-1.85.33-2.92a.28.28 0 0 1 .06-.2c.06-.08.1-.14.09-.19-.02-.5.1-.93.35-1.3ZM22.28 31a.03.03 0 0 1-.03.03c-.07.02-.15-.04-.23-.15-.09-.12-.18-.3-.26-.53a12.57 12.57 0 0 1-.48-1.78l-.06-.33c-.12-.68-.2-1.34-.19-1.83 0-.5.08-.79.21-.82h.02a.03.03 0 0 1 .03.03l.99 5.38Z" fill="#E99D4E"/><path d="M37.37 27.46c.1.34.23.53.39.57.3.92.37 1.7.2 2.35-.37 1.4-.68 3.16-1.8 4.43a8.91 8.91 0 0 1-5.95 3.11c-1.4.15-2.3.26-2.68.33.84-.39 1.35-.92 1.53-1.61a8.1 8.1 0 0 0-.36-4.83l.97-.54c.26-.14.46-.08.59.19.07.14.15.42.25.85-.04.4-.07.85-.1 1.39 0 .34.06.63.22.88a.45.45 0 0 0 .7.08 12.77 12.77 0 0 0 2.9-4.58.31.31 0 0 0 0-.23l-.81-2.34c.16-.52.36-.84.6-.94a2.8 2.8 0 0 1 1.19-.11.1.1 0 0 0 .09-.05l.05-.09c.04-.06.02-.1-.05-.12a2.67 2.67 0 0 0-1.5.08c-.13.05-.24.01-.31-.12l-.05-.08c-.07-.13-.04-.22.09-.29.76-.37 1.52-.24 2.06.42.08.1.22.2.45.33.46.26.75.68 1 1.15.08.13.14.18.2.12.06-.05.1-.16.13-.35Z" fill="#C29559"/><path d="m33.42 27.52.82 2.33a.3.3 0 0 1 0 .23 12.9 12.9 0 0 1-2.9 4.58.46.46 0 0 1-.7-.08 1.45 1.45 0 0 1-.22-.88c.02-.54.05-1 .1-1.39.33-.28.56-.75.7-1.4a.22.22 0 0 1 .23-.17c.3.02.54-.12.7-.44.28-.52.55-.99.6-1.5.02-.22.05-.42.1-.6a.2.2 0 0 1 .16-.15c.28-.06.41-.23.4-.54Z" fill="#EBC795"/><path d="M13.88 27.7H8.12a.12.12 0 0 0-.12.12v.06c0 .06.05.12.12.12h5.76c.07 0 .12-.06.12-.12v-.06a.12.12 0 0 0-.12-.12ZM48.9 27.68l-5.8.02c-.06 0-.1.05-.1.12v.06c0 .07.05.12.1.12l5.8-.02c.06 0 .1-.05.1-.12v-.06c0-.07-.04-.12-.1-.12Z" fill="#638640"/><path d="M13.9 28.8h-3.8a.1.1 0 0 0-.1.1v.01c0 .05.04.09.1.09h3.8a.1.1 0 0 0 .1-.1.1.1 0 0 0-.1-.1ZM46.92 28.81l-3.84-.01a.08.08 0 0 0-.08.08v.02c0 .05.07.1.11.1h3.81c.04 0 .08-.04.08-.08v-.02a.08.08 0 0 0-.08-.09Z" fill="#9F866A"/><path d="M20.14 28.77h-.01a.23.23 0 0 0-.2.26l.77 4.47c.02.12.14.2.27.18h.01c.12-.02.2-.14.19-.26l-.76-4.47a.23.23 0 0 0-.27-.18Z" fill="#C4592C"/></svg>