<!-- by TradingView --><svg width="56" height="56" viewBox="0 0 56 56" xmlns="http://www.w3.org/2000/svg"><path fill="#B4C133" d="M0 0h56v56H0z"/><path d="M6.46 23H6l1.03-4H20.5l.88 4h-.64c-.28-1.23-1.26-3.4-3-3.4-1.73 0-2.62 1.02-2.74 1.54v12.94c0 .8.85 1.44 1.62 1.44h.48V36H10.2v-.48h.4c.77 0 1.41-.65 1.41-1.44V21.14c.03-.52-.36-1.54-2.1-1.54-1.73 0-3.01 2.17-3.44 3.4Zm21.02 11.74c0 .45.36.82.82.82-.13.14-.6.44-1.42.44H25.8c-.38 0-.8-.32-.8-.72v-.15c-.59.5-1.48.87-2.82.87-2.92 0-3.7-2.1-3.68-3.15 0-2.85 2.85-3.75 4.25-3.85H25v-2.4c-.03-.56-.32-1.69-1.67-1.69-1.68 0-1.75 1.06-1.75 1.31v.03c0 .3 0 1.66-1.03 1.66-.37 0-1.11-.2-1.11-1.15 0-1.17.82-2.76 4.13-2.76s3.9 2.3 3.9 2.76v7.98ZM25 29.6c-2.38.16-4 1.48-4 3.24 0 1.5 1.1 1.9 1.75 1.9 1.15 0 1.87-.35 2.25-.68v-4.46Zm25 5.95a1 1 0 0 1-1-1v-7.8c0-.46-.41-2.76-3.72-2.76s-4.14 1.6-4.14 2.76c0 .94.75 1.16 1.12 1.15 1.03 0 1.02-1.36 1.02-1.66v-.03c0-.25.07-1.3 1.76-1.3 1.34 0 1.43 1.12 1.46 1.68V29h-1.81c-1.4.1-4.19 1-4.19 3.85-.01 1.05.7 3.15 3.62 3.15a4.6 4.6 0 0 0 2.4-.58c.13.33.65.58.99.58h1.08c.81 0 1.28-.3 1.41-.44Zm-7-2.71c0-1.65 1.38-2.9 3.5-3.2v4.71c-.41.22-1 .39-1.81.39-.65 0-1.69-.4-1.69-1.9ZM28 25h1.5v7.99c0 1.08.28 3.01 3 3.01 2.17 0 2.77-1.48 2.8-2.22h-.55c-.02.42-.31 1.26-1.27 1.26-.95 0-1.43-.84-1.48-1.26V25h2.04v-1H32v-3h-1v1.46c0 1-.8 1.34-1.24 1.53l-.02.01H28v1Zm7.01-.3c.9.24 2.96.43 3.99-.7v10.49c0 .6.48 1.08 1.08 1.08h.41V36h-5.48v-.43h.46c.61 0 1.03-.49 1.03-1.08v-8.67l-1.49-1.12Z" fill="#00782C"/><path d="M30.99 17.08c-.84-2.04-2.1-2.9-2.63-3.08 5.37.1 7.52 2.68 7.52 4.49 0 1.44-.58 2.18-.87 2.36-.06-.64-.43-2.32-1.37-3.87a6.06 6.06 0 0 0-3.6-2.47c.42.14 1.56.83 2.79 2.47a8.17 8.17 0 0 1 1.66 3.68c-1.8-.27-2.46-1.03-3.5-3.58Zm6.96.71a12.2 12.2 0 0 0 2.3-2.93 21.04 21.04 0 0 1-1.94 6.72c1.58-1.7 2.23-4.76 2.36-6.1a9.6 9.6 0 0 1-.23 4.98c-.86 2.8-2.12 3.3-2.89 3.3-.76 0-1.28-.7-1.28-2.1 0-1.39.49-2.9 1.68-3.87Zm2.43 6.13c-.23.1-.71.23-.88 0-.2-.3.27-1.27 1.3-1.89.82-.5 2.73-.5 3.58-.44-.45.41-1.44 1.38-1.74 1.93-.3.55-1.76.94-2.45 1.06.46-.63 1.55-1.98 2.19-2.34a5.4 5.4 0 0 0-2 1.68Z" fill="#5B930C"/></svg>