<!-- by TradingView --><svg width="56" height="56" viewBox="0 0 56 56" xmlns="http://www.w3.org/2000/svg"><path fill="url(#a)" d="M0 0h56v56H0z"/><path d="M31.62 28.96c-.02 2.04 1.52 3.84 3.11 4.95 2 1.39 4.31 2.34 6.93 2.85a.28.28 0 0 1 .2.18.28.28 0 0 1-.03.27l-2.29 3a.56.56 0 0 1-.63.18c-5.05-1.78-8.78-5.91-8.74-11.44.04-5.53 3.82-9.6 8.9-11.32a.56.56 0 0 1 .63.2l2.24 3.03a.29.29 0 0 1-.04.39.28.28 0 0 1-.13.05 18.1 18.1 0 0 0-6.97 2.76c-1.6 1.08-3.17 2.85-3.18 4.9Z" fill="#A6743B"/><path d="M25.64 12.89a.38.38 0 0 1 .37.1l2.07 2.07a.2.2 0 0 0 .28 0l1.88-1.88a.53.53 0 0 1 .44-.16l1.12.15a.2.2 0 0 1 .17.17l-.01.08a48.24 48.24 0 0 0-2.62 13.9c-.07 1.4-.05 2.99.09 4.76a47.5 47.5 0 0 0 2.54 12.19c-.01.18-.2.27-.57.25-1.91.8-4.6.41-6.63.15a.36.36 0 0 1-.27-.17.37.37 0 0 1-.03-.33c2.26-5.78 2.5-11.82 2.6-17.96-.1-1.2-.23-2.38-.37-3.56a41.37 41.37 0 0 0-2.17-9.31.2.2 0 0 1 .14-.18l.97-.27Z" fill="url(#b)"/><path d="M16.78 17.56c.1-.02.2 0 .29.03l1.64.71c1.36.61 2.58 1.43 3.64 2.43.46.45.83.88 1.1 1.3.44.66.97 1.17 1.3 1.86 1.51 3.06 1.65 6.22.43 9.48-.2.57-.61 1.13-.98 1.64a14.07 14.07 0 0 1-7.06 5.37.36.36 0 0 1-.36-.06c-.32-.28-.6-.56-.84-.86a16.33 16.33 0 0 1-3.8-12.78 43.13 43.13 0 0 1 6.89.83c1.05.22 1.99.55 2.81.97a.57.57 0 0 1 .23.8c-.71 1.18-5.22 1.72-6.54 1.77a.17.17 0 0 0-.16.13v.07c.21 1.46.77 2.94 1.68 4.46a.36.36 0 0 0 .41.16 13.18 13.18 0 0 0 5.67-3.49 5.16 5.16 0 0 0 1.07-4.25 5.99 5.99 0 0 0-1.78-3.02c-.84-.83-1.8-1.51-2.9-2.05a23.7 23.7 0 0 0-5.4-1.85.2.2 0 0 1-.04-.24 15.8 15.8 0 0 1 2.44-3.27.49.49 0 0 1 .26-.14Z" fill="url(#c)"/><path d="m26.27 12.1 1.71 1.8-.42-1.8h-1.3ZM29.02 12.1l-.48 1.8 1.7-1.8h-1.22ZM29.25 11.87l.54-.73.45.73h-.99ZM26.78 11.14l-.51.73h1.1l-.59-.73ZM27.98 11h-.97l.55.75.42-.75ZM29.51 11h-1.03l.54.75.49-.75Z" fill="#9E8864"/><path d="m27.73 12.13.52-.95.56.95-.56 1.77-.52-1.77Z" fill="#EFE98E"/><defs><linearGradient id="a" x1="10.42" y1="9.71" x2="68.15" y2="76.02" gradientUnits="userSpaceOnUse"><stop stop-color="#1A1E21"/><stop offset="1" stop-color="#06060A"/></linearGradient><linearGradient id="b" x1="39.43" y1="34.77" x2="24.42" y2="44.06" gradientUnits="userSpaceOnUse"><stop offset=".34" stop-color="#9D7A3D"/><stop offset="1" stop-color="#F4EA8D"/></linearGradient><linearGradient id="c" x1="26" y1="25.96" x2="19" y2="28.96" gradientUnits="userSpaceOnUse"><stop stop-color="#F6F0A0"/><stop offset="1" stop-color="#A17237"/></linearGradient></defs></svg>