<!-- by TradingView --><svg width="18" height="18" viewBox="0 0 18 18" xmlns="http://www.w3.org/2000/svg"><path fill="#F0F3FA" d="M0 0h18v18H0z"/><path d="m10.24 7.52.04.08.01.01a.03.03 0 0 0 .03 0h.02c.26-.38.4-.8.6-1.2V6.4h.01v.01c-.1.52-.25 1.02-.47 1.5a.62.62 0 0 0-.04.44c.32 1.32.62 2.52.9 3.59.04.11.08.17.12.18.16.17.34.32.57.46a11.88 11.88 0 0 1-2.07.37l.24-.5v-.26l-.64-2.83-.01-.01-.01-.02a.04.04 0 0 0-.04 0l-.42.27a3.82 3.82 0 0 1-1.37.5l-.01.02-.58 2.06a.1.1 0 0 0 0 .07l.05.05.03.01.25.58a6.46 6.46 0 0 1-1.54-.34l.42-.5c.05 0 .09-.03.11-.1.24-.76.46-1.6.7-2.4.22-.7.38-1.18.59-1.91A278.07 278.07 0 0 1 9.1 3v.01c.4 1.51.72 3.01 1.13 4.51Zm-1.4-1.28h-.05v.02l-.86 3a.05.05 0 0 0 0 .04l.02.01h.01c.1.02.18.02.24 0a2.73 2.73 0 0 0 1.17-.53.17.17 0 0 0 .02-.06c0-.03 0-.09-.02-.17a194.24 194.24 0 0 0-.53-2.3Z" fill="#DA261D"/><path d="m8.58 4.72-.15.51-.21.02c-1.5.15-3.18.74-4.14 2.12a2.63 2.63 0 0 0 .12 3.13c.57.7 1.29 1.22 2.13 1.55l-.42.5c-.6-.16-1.2-.4-1.76-.71a5.9 5.9 0 0 1-1.26-.98 3.17 3.17 0 0 1-.84-1.48c-.11-.61-.03-1.18.25-1.7a4.75 4.75 0 0 1 2.18-1.96 10.02 10.02 0 0 1 3.04-.9c.33-.05.7-.06 1.06-.1ZM12.03 12.58a2.47 2.47 0 0 1-.57-.46 5.95 5.95 0 0 0 2-1.22c.62-.58.97-1.38.91-2.3 0-.13-.04-.28-.09-.44a3.36 3.36 0 0 0-1.04-1.54 8 8 0 0 0-3.57-1.36l-.13-.52c1.33.08 2.69.35 3.93.94A4.58 4.58 0 0 1 15.84 8c.32.86.15 1.78-.4 2.49-.19.24-.44.53-.7.74a7.18 7.18 0 0 1-2.71 1.35ZM10.2 12.45l-.24.5c-.15-.01-.37 0-.66.03-.17.02-.37.03-.6 0l-.59-.03a7.94 7.94 0 0 1-.66-.06l-.25-.58c.53.1.9.17 1.12.18.45.03 1.07.01 1.88-.04Z" fill="#6E6664"/></svg>