<!-- by TradingView --><svg width="18" height="18" viewBox="0 0 18 18" xmlns="http://www.w3.org/2000/svg"><path fill="#F0F3FA" d="M0 0h18v18H0z"/><path d="M5.25 5h7.3a.46.46 0 0 1 .42.29c.02.05.03.11.03.17a28.3 28.3 0 0 1-.73 5.5.5.5 0 0 1-.22.21c-.97.5-2.65.33-3.69.28-.1 0-.2.03-.29.1a.41.41 0 0 0-.14.26l-.26 1.94c-.01.07-.05.13-.1.18a.3.3 0 0 1-.19.07H6.4a.54.54 0 0 1-.53-.46c-.35-2.44-.62-4.68-.82-6.71-.05-.47-.05-1-.02-1.61A.23.23 0 0 1 5.25 5Zm3.46 4.77.56.01a.16.16 0 0 0 .16-.1l.01-.06v-.05A8.42 8.42 0 0 0 9.34 8c-.06-.42-.17-.65-.29-.66-.06 0-.12.06-.18.17-.06.1-.11.27-.16.47a6.4 6.4 0 0 0-.16 1.57v.06a.16.16 0 0 0 .1.15l.06.01Z" fill="#33338D"/></svg>