<!-- by TradingView --><svg width="56" height="56" viewBox="0 0 56 56" xmlns="http://www.w3.org/2000/svg"><path fill="#580A46" d="M0 0h56v56H0z"/><path d="M28 17.81h.01a9.3 9.3 0 0 1 15.92 5.31c.05.42.08 1.04.07 1.87v11.45c0 .32-.08.65-.24.98-.5 1.03-1.61 1.58-2.96 1.58-1.35 0-2.5-.94-2.76-2.03-.05-.18-.04-.47-.04-.86V25.02c0-.74-.05-1.23-.1-1.49-.38-1.98-1.42-3.34-3.43-3.24-1.85.1-3.01 1.39-3.4 3.22-.05.24-.08.6-.07 1.06v11.76c0 1.4-1.44 2.54-2.83 2.66a2.15 2.15 0 0 1-.34 0c-1.39-.12-2.83-1.25-2.83-2.66V24.57c0-.46-.02-.82-.08-1.06-.39-1.83-1.24-3.13-3.1-3.22-2.01-.1-3.37 1.19-3.75 3.17-.05.25-.07.75-.07 1.48v11.1c0 .39-.03.68-.07.85-.27 1.1-1.7 2.11-2.95 2.11-1.25 0-2.25-.55-2.74-1.58a2.26 2.26 0 0 1-.24-.98V25a9.44 9.44 0 0 1 .84-4.55A9.32 9.32 0 0 1 28 17.81Z" fill="#FF9D00"/></svg>