<!-- by TradingView --><svg width="18" height="18" viewBox="0 0 18 18" xmlns="http://www.w3.org/2000/svg"><path fill="url(#a)" d="M0 0h18v18H0z"/><path d="M12.37 12a4.1 4.1 0 0 1-1.35-.21 2.94 2.94 0 0 1-1.77-1.57A2.87 2.87 0 0 1 9 9a2.81 2.81 0 0 1 .95-2.16c.3-.27.66-.47 1.07-.62.41-.15.86-.22 1.35-.22.56 0 1.07.1 1.51.28.45.19.82.46 1.12.8l-1.1.95c-.2-.22-.42-.39-.66-.5a2 2 0 0 0-1.48-.06 1.5 1.5 0 0 0-.89.85c-.08.2-.12.43-.12.68 0 .25.04.47.12.68.09.2.2.37.35.52.15.15.33.26.54.33a2 2 0 0 0 1.48-.05c.24-.12.46-.29.66-.5l1.1.93c-.3.35-.67.62-1.12.81-.44.19-.95.28-1.51.28ZM5.5 12C3.96 12 3 10.88 3 9.26V6h1.5v3.21c0 .71.23 1.46 1 1.46.76 0 1-.73 1-1.44v-3.2L8 6v3.26C8 10.88 7.04 12 5.5 12Z" fill="#fff"/><defs><linearGradient id="a" x1="3.35" y1="3.12" x2="21.9" y2="24.43" gradientUnits="userSpaceOnUse"><stop stop-color="#1A1E21"/><stop offset="1" stop-color="#06060A"/></linearGradient></defs></svg>