<!-- by TradingView --><svg width="18" height="18" viewBox="0 0 18 18" xmlns="http://www.w3.org/2000/svg"><path fill="#F0F3FA" d="M0 0h18v18H0z"/><path d="M9 3a6 6 0 1 1 0 12A6 6 0 0 1 9 3Zm0 .35c-1.56 0-2.96.63-3.99 1.65h1.44c-.16.1-.3.25-.45.36h-.64v1.42c-.11.14-.26.29-.36.44v-2.2a5.63 5.63 0 0 0 0 7.97V11.6c.1.15.25.3.36.44v.59h1.31c.14.11.28.26.43.36H5.01A5.63 5.63 0 0 0 13 13h-1.37c.15-.1.26-.25.4-.36h.62v-1.36c.11-.14.26-.3.36-.45v2.16A5.63 5.63 0 0 0 13 5v1.43c-.1-.16-.25-.3-.36-.45v-.63h-1.32c-.14-.11-.3-.26-.45-.36H13A5.63 5.63 0 0 0 9 3.35Zm-2.66 9.89a4.98 4.98 0 0 0 5.32 0h.52a5.27 5.27 0 0 1-6.36 0h.52ZM5.97 11a3.63 3.63 0 0 0 3.77 1.55l.2.33a4 4 0 0 1-4.28-1.69l.31-.19Zm4.75 1.42-.32.25-.57-.75.32-.24.57.74Zm2.13-4.5a4 4 0 0 1-1.7 4.44l-.18-.32a3.63 3.63 0 0 0 1.56-3.92l.32-.2Zm-4.5 3.5c0 .16-.11.53-.47.76l-.23-.24A.82.82 0 0 0 8 11.4V8.66h.35v2.77Zm4.89-5.6a5.27 5.27 0 0 1 0 6.35v-.52a4.98 4.98 0 0 0 0-5.32v-.52Zm-8.48.51a4.98 4.98 0 0 0 0 5.32v.51a5.27 5.27 0 0 1 0-6.35v.52Zm6.68 4.07a2.82 2.82 0 0 1-2.8 1.39v-.36l.36.03c.84 0 1.58-.42 2.03-1.06h.41ZM6.56 8.65a2.47 2.47 0 0 0 1.03 2.38v.41a2.82 2.82 0 0 1-1.39-2.8h.36ZM10 11h-.35v-.7H10v.7Zm-3.66-.87-.75.57-.25-.32.75-.57.25.32Zm5.07-.48c.16 0 .53.11.77.47l-.25.23a.82.82 0 0 0-.53-.35H8.65v-.35h2.76Zm-3.7.35H7v-.35h.7V10Zm-.65-4.07a3.63 3.63 0 0 0-1.61 3.86l-.33.2A4 4 0 0 1 6.87 5.6l.19.32Zm3.35.63a2.82 2.82 0 0 1 1.39 2.8h-.36l.03-.36c0-.84-.42-1.58-1.06-2.03v-.41Zm-.06-.49a.82.82 0 0 0-.35.53v2.75h-.35V6.6c0-.16.11-.53.47-.77l.23.25ZM6.07 7.65c.16.24.42.34.53.35h2.75v.35H6.6a1.06 1.06 0 0 1-.77-.47l.25-.23Zm4.93.7h-.7V8h.7v.35Zm1.7-.72-.75.57-.25-.32.75-.58.25.33Zm-4.35.08H8V7h.35v.7ZM9 6.18c.12 0 .24 0 .35.02v.36a2.47 2.47 0 0 0-2.38 1.03h-.41A2.82 2.82 0 0 1 9 6.18ZM9 5a4 4 0 0 1 3.3 1.73l-.32.2a3.63 3.63 0 0 0-3.69-1.5L8.1 5.1c.3-.06.6-.1.9-.1Zm-.79 1.08-.32.24-.57-.75.32-.24.57.75ZM9 3.7c1.2 0 2.3.39 3.18 1.05h-.52a4.98 4.98 0 0 0-5.32 0h-.52A5.27 5.27 0 0 1 9 3.71Z" fill="url(#a)"/><defs><linearGradient id="a" x1="13.46" y1="5.1" x2="3.78" y2="12.11" gradientUnits="userSpaceOnUse"><stop stop-color="#F9CB83"/><stop offset="1" stop-color="#B47224"/></linearGradient></defs></svg>