<!-- by TradingView --><svg width="18" height="18" viewBox="0 0 18 18" xmlns="http://www.w3.org/2000/svg"><path fill="#F0F3FA" d="M0 0h18v18H0z"/><path d="M6.9 4.01h-.23a.05.05 0 0 0-.05.05v.22c0 .03.02.05.05.05h.23c.02 0 .05-.02.05-.05v-.22a.05.05 0 0 0-.06-.05ZM5.82 4.05h-.15a.04.04 0 0 0-.04.04v.16c0 .03.02.04.04.04h.15c.03 0 .05-.02.04-.04V4.1a.04.04 0 0 0-.04-.04Z" fill="#FFD300"/><path d="M7.5 4.3h-.25a.05.05 0 0 0-.05.05v.25c0 .03.02.05.05.05h.26c.02 0 .05-.02.05-.05v-.25a.05.05 0 0 0-.05-.04Z" fill="#FAB200"/><path d="M6.34 4.34h-.2a.04.04 0 0 0-.04.04v.19c0 .02.02.04.04.04h.2c.02 0 .04-.01.04-.04v-.19a.04.04 0 0 0-.04-.04ZM5.32 4.39H5.2a.04.04 0 0 0-.04.03v.11c0 .02.01.04.03.04h.12c.02 0 .04-.02.04-.04v-.1a.04.04 0 0 0-.04-.04ZM6.9 4.63h-.24a.04.04 0 0 0-.04.04v.23c0 .02.02.04.04.04h.24c.02 0 .04-.02.04-.04v-.23a.04.04 0 0 0-.04-.04ZM5.82 4.67h-.15a.04.04 0 0 0-.04.04v.14c0 .02.02.04.04.04h.15c.03 0 .05-.02.05-.04V4.7a.04.04 0 0 0-.05-.04Z" fill="#FFD300"/><path d="M7.5 4.93h-.25a.04.04 0 0 0-.05.04v.26c0 .02.02.04.05.04h.26c.02 0 .04-.02.04-.04v-.26a.04.04 0 0 0-.04-.04Z" fill="#FAB200"/><path d="M6.34 4.96h-.2a.05.05 0 0 0-.04.05v.18c0 .03.02.05.04.05h.2c.02 0 .04-.02.04-.05v-.18a.05.05 0 0 0-.04-.05Z" fill="#FFD300"/><path d="m8.8 4 2.29.01a3.25 3.25 0 0 1 2.08 1.1l.03.03c.64.75.9 1.63.77 2.65l-.84-.5s0-.02-.02-.02l-2.02-1.34-.23-.15a.02.02 0 0 0-.03 0v.01l-.23.5-.02.01H7.81a.08.08 0 0 1-.03-.06v-.4l.03-.05a.08.08 0 0 1 .05-.02H8.03l.01-.03v-.13L8 5.6h-.15c-.02 0-.04 0-.06-.02a.07.07 0 0 1-.02-.05v-.28l.02-.05a.07.07 0 0 1 .05-.02h.19V5a.02.02 0 0 0 0-.01.02.02 0 0 0-.02-.01h-.16c-.02 0-.04 0-.06-.02a.07.07 0 0 1-.02-.05v-.27a.08.08 0 0 1 .03-.06.09.09 0 0 1 .06-.02h.15l.02-.01V4.44a.03.03 0 0 0 0-.01.03.03 0 0 0-.02 0h-.15c-.03 0-.05-.02-.06-.03a.08.08 0 0 1-.03-.06v-.26l.03-.06A.08.08 0 0 1 7.86 4h.94Zm-.57 1.83a.04.04 0 0 0-.02 0 .04.04 0 0 0-.01.03v.16a.04.04 0 0 0 0 .03.04.04 0 0 0 .03.01h.15a.04.04 0 0 0 .03 0 .04.04 0 0 0 .01-.03v-.16a.04.04 0 0 0 0-.03.04.04 0 0 0-.03-.01h-.16Zm.48-.2a.07.07 0 0 0-.04.03.07.07 0 0 0-.02.05l.03.04c.01.02.03.02.05.02l.05.02c.1-.06.1-.12 0-.17l-.07.01Zm-.48-.37a.04.04 0 0 0-.02.01.03.03 0 0 0-.02.03v.16a.03.03 0 0 0 .01.02.04.04 0 0 0 .03.01h.16a.04.04 0 0 0 .02 0 .03.03 0 0 0 .01-.03V5.3a.03.03 0 0 0 0-.03.04.04 0 0 0-.03 0h-.16Zm.58-.24h-.09a.09.09 0 0 0-.04.02.08.08 0 0 0 0 .1c0 .02.02.03.04.04h.06c.04 0 .06-.03.06-.1 0-.03-.01-.06-.03-.06Zm-.58-.32a.04.04 0 0 0-.03 0 .03.03 0 0 0 0 .03v.17a.03.03 0 0 0 0 .02.03.03 0 0 0 .03.01h.16a.04.04 0 0 0 .02-.01.03.03 0 0 0 .01-.02v-.17a.03.03 0 0 0 0-.02.04.04 0 0 0-.03-.01h-.16Zm.52-.3a.1.1 0 0 0-.05.02.1.1 0 0 0-.03.04c-.02.04 0 .07.03.1h.13c.02-.05.02-.08.01-.1a.1.1 0 0 0-.03-.04.1.1 0 0 0-.06-.01Zm-.51-.26a.04.04 0 0 0-.03 0 .04.04 0 0 0-.01.03v.18l.03.01h.15a.04.04 0 0 0 .03 0 .04.04 0 0 0 .01-.03v-.18l-.03-.01h-.15Z" fill="url(#a)"/><path d="M6.9 5.24h-.23a.05.05 0 0 0-.05.04v.22c0 .03.02.05.05.05h.22c.03 0 .05-.02.05-.05v-.22a.05.05 0 0 0-.05-.04Z" fill="#FFD300"/><path d="M7.5 5.55h-.25a.05.05 0 0 0-.05.05v.24c0 .03.03.05.05.05h.26c.02 0 .05-.02.05-.05V5.6a.05.05 0 0 0-.05-.05Z" fill="#FAB200"/><path d="M13.97 7.8a3.31 3.31 0 0 1-3.22 2.8H8.04a2.39 2.39 0 0 0-.81.13l-.65.23c-.22.1-.42.22-.61.36l-.4.32-.29.3v.01a.02.02 0 0 0 0 .02h.01l.16.08.03.02c.06.12.14.22.23.3l.01.12v.02l.03.01c.07.02.15.01.21-.01l.1.2-.04.17-.01.02h-.34a.04.04 0 0 1-.03-.01V12.75l-.02-.03H5.42a.03.03 0 0 0-.02.03v.1l-.01.04a.06.06 0 0 1-.05.02h-.28c-.01 0-.03 0-.04-.02A56.12 56.12 0 0 1 5 11.6a3.2 3.2 0 0 1 .43-1.52c.4-.7 1-1.31 1.78-1.6.24-.08.44-.13.6-.15.3-.03.64-.05 1.05-.03h1.69l.04.01.02.02.21.47a.03.03 0 0 0 .02 0 .03.03 0 0 0 .03 0l1.8-1.19.46-.3.84.5ZM5.15 12.3l-.03.01-.01.03v.14a.04.04 0 0 0 0 .03.04.04 0 0 0 .04 0l.15.01.03-.01.01-.03v-.14a.04.04 0 0 0-.01-.02.05.05 0 0 0-.03-.02h-.15Z" fill="url(#b)"/><path d="M7.27 10.71c.25-.07.53-.12.78-.12-.24.1-.45.26-.58.44-.1.16-.17.34-.2.53v1.29a.06.06 0 0 1-.02.04.06.06 0 0 1-.04.02h-.25c-.02 0-.04 0-.05-.02a.06.06 0 0 1-.02-.03l-.01-.14h-.19a.03.03 0 0 0-.02.01v.11c0 .02 0 .04-.02.05a47.2 47.2 0 0 1-.31.02c-.07 0-.1-.05-.08-.15a.04.04 0 0 0 0-.03.04.04 0 0 0-.04-.02h-.16l-.1-.2v-.16l-.01-.02-.02-.01c-.13-.03-.2-.01-.22.05a1.12 1.12 0 0 1-.23-.3h.1s.02 0 .02-.02V11.93l-.02-.01H5.46v.13l-.17-.07a.02.02 0 0 1-.01-.03l.29-.3.4-.33c.19-.14.4-.26.61-.36l.65-.23.04-.02Zm-.73 1.6c-.15-.02-.22 0-.2.08v.1l.01.02.02.01c.1.02.17.01.2-.03v-.15l-.01-.02h-.02Zm.65.05c0-.04-.05-.06-.17-.05-.07-.01-.09.05-.07.2l.01.01h.21l.01-.02.01-.14Zm-.46-.44a.22.22 0 0 0-.01.12v.01l.03.01.1.01a.14.14 0 0 0 .02-.13l-.01-.01-.02-.01h-.11Zm-.61 0h-.03v.13a.03.03 0 0 0 0 .01.03.03 0 0 0 .03.01h.09l.02-.01V11.94a.03.03 0 0 0 0-.02.03.03 0 0 0-.03 0h-.08Z" fill="url(#c)"/><path d="M5.64 13.1H5.4a.06.06 0 0 0-.06.05v.22c0 .03.02.05.05.05h.23c.04 0 .06-.02.06-.05v-.22a.05.05 0 0 0-.05-.05ZM6.26 13.1h-.23a.06.06 0 0 0-.06.06v.2c0 .04.03.07.07.07h.22c.03 0 .06-.03.06-.06v-.22a.06.06 0 0 0-.06-.06Z" fill="#FFD300"/><path d="M6.9 13.1h-.24a.05.05 0 0 0-.06.05v.22c0 .03.03.06.06.06h.23c.03 0 .06-.03.06-.06v-.22a.05.05 0 0 0-.06-.06Z" fill="#FAB200"/><path d="M5.31 13.68H5.1a.05.05 0 0 0-.05.05v.2c0 .03.02.05.05.05h.21c.03 0 .05-.02.05-.05v-.2a.05.05 0 0 0-.05-.05ZM5.92 13.68h-.2a.05.05 0 0 0-.06.05v.2c0 .03.02.05.05.05h.2c.03 0 .06-.02.06-.05v-.2a.05.05 0 0 0-.05-.05ZM6.55 13.68h-.19a.06.06 0 0 0-.06.06v.18c0 .04.03.06.07.06h.19c.03 0 .06-.03.06-.06v-.18a.06.06 0 0 0-.07-.06ZM5.61 14.23h-.18a.04.04 0 0 0-.05.04v.18c0 .02.02.04.04.04h.19c.02 0 .04-.02.04-.04v-.18a.04.04 0 0 0-.04-.04ZM6.24 14.23h-.18a.05.05 0 0 0-.05.05v.17c0 .02.02.04.05.04h.18c.03 0 .05-.02.05-.04v-.18a.05.05 0 0 0-.05-.04ZM5.89 14.78h-.15a.04.04 0 0 0-.04.04v.14c0 .02.02.04.04.04h.15c.02 0 .04-.02.04-.04v-.14a.04.04 0 0 0-.04-.04Z" fill="#FFD300"/><defs><linearGradient id="a" x1="13.67" y1="5.3" x2="7.78" y2="5.01" gradientUnits="userSpaceOnUse"><stop stop-color="#E95208"/><stop offset="1" stop-color="#FBBA00"/></linearGradient><linearGradient id="b" x1="13.64" y1="7.79" x2="5.38" y2="11.91" gradientUnits="userSpaceOnUse"><stop stop-color="#C34211"/><stop offset=".61" stop-color="#F9AD00"/><stop offset="1" stop-color="#FED901"/></linearGradient><linearGradient id="c" x1="7.55" y1="10.85" x2="6.18" y2="12.5" gradientUnits="userSpaceOnUse"><stop stop-color="#D0440A"/><stop offset="1" stop-color="#FED802"/></linearGradient></defs></svg>