<!-- by TradingView --><svg width="18" height="18" viewBox="0 0 18 18" xmlns="http://www.w3.org/2000/svg"><path fill="#F0F3FA" d="M0 0h18v18H0z"/><path d="M9.15 3.1v.15A2283.23 2283.23 0 0 1 11 6.57a.02.02 0 0 1-.02 0C11 6.57 9 5.12 9 5.12S3.96 8.4 3.74 8.53l-.7.39 5.92-5.9L9 3h.04l.12.1Z" fill="#DA2D18"/><path d="M14.95 9.1s-2.33 1.25-3.48 1.89h-.01a.02.02 0 0 1-.01-.01v-.01c.02.02 1.08-1.97 1.08-1.97S9.95 4.55 9.16 3.25l-.01-.14a2409.64 2409.64 0 0 1 5.83 5.85c.03.04.02.08-.03.14Z" fill="#4C9FD0"/><path d="M5.12 9a179.55 179.55 0 0 0 3.58 5.5c.1.12.16.26.19.4L3.07 9.1c-.09-.09-.1-.15-.02-.18a1637.33 1637.33 0 0 0 3.47-1.9.04.04 0 0 1 .02.03c0 .03 0 .06-.03.1L5.11 9Z" fill="#F59507"/><path d="m14.95 9.1-5.91 5.89-.03.01-.03-.01-.1-.09a.8.8 0 0 0-.18-.4l-1.67-3v-.04a.02.02 0 0 1 0-.02h.02c.45.27 1.93 1.09 1.93 1.09s4.34-2.49 5.7-3.3c.14-.12.22-.16.27-.13Z" fill="#B0209F"/><path d="M9.5 12.5a.5.5 0 1 1-1 0 .5.5 0 0 1 1 0ZM5.5 9a.5.5 0 1 1-1 0 .5.5 0 0 1 1 0ZM9.5 5.5a.5.5 0 1 1-1 0 .5.5 0 0 1 1 0ZM13 9a.5.5 0 1 1-1 0 .5.5 0 0 1 1 0Z" fill="#221C1C"/></svg>