<!-- by TradingView --><svg width="56" height="56" viewBox="0 0 56 56" xmlns="http://www.w3.org/2000/svg"><path fill="#F0F3FA" d="M0 0h56v56H0z"/><path fill-rule="evenodd" d="M45 28.26v-.59l-.12-1.29a16.67 16.67 0 0 0-3.5-8.86A16.82 16.82 0 0 0 28.59 11a16.64 16.64 0 0 0-11.1 3.63 16.74 16.74 0 0 0-6.4 11.87 12 12 0 0 1-.1 1.01v.9a16.9 16.9 0 0 0 5.27 11.85 16.67 16.67 0 0 0 10.28 4.62c.37.03.74.06 1.11.11h.7a16.92 16.92 0 0 0 11.33-4.7 16.68 16.68 0 0 0 5.23-11.12l.08-.92Zm-23.3 14.9a16.3 16.3 0 0 0 12.6 0 16.3 16.3 0 0 0 8.9-8.89 16.26 16.26 0 0 0 0-12.58A16.3 16.3 0 0 0 28 11.55a16.3 16.3 0 0 0-11.64 4.81 16.27 16.27 0 0 0-4.81 11.62 16.27 16.27 0 0 0 4.82 11.62 16.3 16.3 0 0 0 5.33 3.56Zm8.4-29.96a11.38 11.38 0 0 0-4.2 0c-.96.17-1.44.52-1.44 1.04v4.62c0 .05-.03.08-.08.08h-1.6c-.06 0-.09.03-.09.08-.02.63-.1 1.09-.21 1.36a3.6 3.6 0 0 1-3.45 2.32c-.05 0-.08.03-.08.08v1.58c0 .06-.03.09-.08.09h-4.82c-.15 0-.3.12-.46.37-.17.3-.3.61-.37.95a11.22 11.22 0 0 0 0 4.46c.07.34.2.66.37.95.15.25.3.37.46.37h4.82c.05 0 .08.03.08.09v1.58c0 .05.03.08.08.08a3.6 3.6 0 0 1 3.45 2.32c.12.27.19.73.21 1.36 0 .05.03.08.09.08h1.6c.05 0 .08.03.08.08v4.62c0 .52.48.87 1.45 1.05a11.43 11.43 0 0 0 4.19 0c.96-.18 1.44-.53 1.44-1.05v-4.62c0-.05.03-.08.08-.08h1.6c.06 0 .09-.03.09-.08.02-.63.1-1.09.21-1.36a3.6 3.6 0 0 1 3.45-2.32c.05 0 .08-.03.08-.08v-1.58c0-.06.03-.09.08-.09h4.82c.15 0 .3-.12.46-.37.17-.3.3-.61.37-.95a11.22 11.22 0 0 0 0-4.46c-.07-.34-.2-.66-.37-.95-.15-.25-.3-.37-.46-.37h-4.82c-.05 0-.08-.03-.08-.09v-1.58c0-.05-.03-.08-.08-.08a3.6 3.6 0 0 1-3.45-2.32 4.13 4.13 0 0 1-.21-1.36c0-.05-.03-.08-.09-.08h-1.6c-.05 0-.08-.03-.08-.08v-4.62c0-.52-.48-.87-1.44-1.04Zm-.65.34c-.61-.07-1.1-.1-1.45-.1-.36 0-.84.03-1.45.1a6.3 6.3 0 0 0-1.23.28c-.2.07-.32.16-.38.29-.03.08-.05.23-.04.47V19.3c0 .06-.03.09-.09.09h-1.57c-.05 0-.08.02-.1.07-.34 2.13-1.57 3.35-3.68 3.67-.05.01-.07.04-.07.08v1.6c0 .06-.03.09-.08.09h-5.07a.32.32 0 0 0-.33.2c-.18.44-.3.88-.35 1.33-.07.75-.11 1.27-.11 1.56 0 .29.04.8.11 1.56.05.45.17.89.35 1.32.06.14.17.21.33.21h5.07c.05 0 .08.03.08.08v1.6c0 .05.02.08.07.08 2.11.32 3.34 1.55 3.69 3.68 0 .05.04.07.09.07h1.57c.06 0 .09.03.09.09a2036.85 2036.85 0 0 1 0 4.73c0 .23 0 .39.04.47.06.13.18.22.38.28.48.16.89.25 1.23.3.61.05 1.1.09 1.45.09.36 0 .84-.04 1.45-.1a6.3 6.3 0 0 0 1.23-.29c.2-.06.32-.15.38-.28.03-.08.05-.24.04-.47V36.7c0-.06.03-.09.09-.09h1.57c.05 0 .08-.02.09-.07.35-2.13 1.58-3.36 3.7-3.68.04 0 .06-.03.06-.07v-1.6c0-.06.03-.09.08-.09h5.07c.16 0 .27-.07.33-.2.18-.44.3-.88.35-1.33.07-.75.11-1.27.11-1.56 0-.3-.04-.81-.11-1.56a4.49 4.49 0 0 0-.35-1.32.32.32 0 0 0-.33-.21H36.7c-.05 0-.08-.03-.08-.09v-1.6c0-.04-.02-.07-.07-.08-2.11-.32-3.34-1.54-3.69-3.67 0-.05-.04-.07-.09-.07H31.2c-.06 0-.09-.03-.09-.09V14.58c0-.23 0-.4-.04-.47-.06-.13-.18-.22-.38-.29a6.3 6.3 0 0 0-1.23-.28Zm.79 1.46H28.7c-.01 0-.03 0-.04.02l-1.33 1.46a.05.05 0 0 1-.05.02c-.02-.01-.03-.03-.03-.05v-1.4c0-.03-.02-.05-.05-.05h-1.16c-.03 0-.05.02-.05.05v3.9c0 .03.02.05.05.05h1.16c.03 0 .05-.02.05-.05v-.89l.01-.04.64-.63c.03-.03.06-.03.08 0l.91 1.58.04.03h1.42c.06 0 .07-.03.04-.08l-1.54-2.37v-.06l1.41-1.4c.02-.02.02-.04.01-.06a.05.05 0 0 0-.04-.03Zm-.9 7.75a1.91 1.91 0 0 0-.56-.5c-.04-.02-.04-.04 0-.05a1.1 1.1 0 0 0 .9-1.22.93.93 0 0 0-.4-.71c-.19-.15-.36-.22-.51-.24-.5-.03-1.4-.04-2.7-.02-.05 0-.07.03-.07.08v3.87c0 .03.01.04.04.04h1.15c.02 0 .03-.01.03-.03v-1.52c0-.06.03-.09.09-.09.26 0 .46.11.58.36l.68 1.25c.01.02.03.03.06.03h1.35a21 21 0 0 1-.65-1.25Zm-2.07-1.97c-.04 0-.06.03-.06.07l.02.75c0 .04.02.06.06.06l.6-.02c.15 0 .28-.05.4-.13.1-.09.15-.19.15-.3v-.04c0-.11-.06-.21-.17-.29a.65.65 0 0 0-.4-.11l-.6.01Zm4.97 6.35a.24.24 0 0 1-.02-.21c.03-.11.12-.18.25-.19h.05c.25-.02.42-.02.52 0 .16.05.29.16.38.35.02.05.06.07.11.07h1.12c.08 0 .1-.03.09-.1a1.2 1.2 0 0 0-.97-.94c-.4-.1-.84-.13-1.3-.1-.55.05-.96.19-1.22.43a.88.88 0 0 0-.3.9c.07.3.33.55.79.74a6.45 6.45 0 0 0 1.28.32c.24.04.42.15.53.33.02.04.03.09.01.14a.5.5 0 0 1-.43.36c-.56.1-.92-.1-1.06-.57 0-.02-.01-.02-.03-.02H30.8c-.04 0-.05.01-.05.05.1.58.4.95.87 1.1.82.28 1.63.28 2.41 0 .52-.2.8-.54.85-1.04a.9.9 0 0 0-.3-.8c-.2-.18-.47-.31-.82-.4l-1.33-.3a.28.28 0 0 1-.19-.12Zm5.11-.21a.25.25 0 0 0 .03.21c.04.07.1.11.19.13.53.1.97.2 1.33.3.34.08.61.21.81.4a.9.9 0 0 1 .3.8c-.04.5-.33.84-.85 1.03-.78.28-1.59.28-2.4 0-.49-.16-.78-.53-.87-1.1-.01-.04 0-.06.04-.06h1.25l.02.02c.15.49.5.68 1.06.58a.5.5 0 0 0 .43-.36.15.15 0 0 0-.01-.13.73.73 0 0 0-.52-.34l-.12-.02c-.52-.1-.91-.2-1.17-.3-.45-.19-.71-.44-.78-.75a.88.88 0 0 1 .3-.9c.26-.24.67-.38 1.22-.42.46-.03.9 0 1.3.1.53.13.85.44.97.94.01.07-.02.1-.09.1h-1.12a.12.12 0 0 1-.11-.07c-.1-.19-.22-.3-.38-.34a1.68 1.68 0 0 0-.58 0c-.13 0-.21.06-.25.18Zm-20.89.56a.06.06 0 0 1-.04-.06v-1.38c0-.03-.01-.04-.04-.04h-1.32c-.04 0-.06.02-.06.06v3.74c0 .13.07.2.2.2h1.04c.12 0 .19-.06.19-.18v-.71c0-.06.02-.1.06-.14l.7-.6c.02-.03.05-.02.07.01l.95 1.58c.02.03.04.04.06.04H20v-.02l-1.76-2.44c-.03-.03-.02-.06 0-.08L19.92 26V26h-1.86a.1.1 0 0 0-.07.03l-1.45 1.43c-.02.02-.04.03-.07.02Zm13.32 2.06c.36-.36.54-.8.54-1.3v-.41c0-.5-.19-.94-.55-1.3-.36-.35-.8-.53-1.3-.53h-.64c-.5 0-.94.18-1.3.54-.35.36-.53.8-.53 1.3v.41c0 .5.18.94.54 1.3.37.35.8.53 1.3.53h.64c.51 0 .95-.18 1.3-.54Zm-1.68-2.66h.13c.45 0 .81.37.81.83v.68c0 .45-.37.82-.82.82h-.13a.82.82 0 0 1-.82-.82v-.7c0-.44.38-.8.83-.8Zm-3.94 1.3c-.21.04-.2.1.02.16.23.06.4.2.54.41l.75 1.22c0 .02 0 .03-.02.03h-1.51a.06.06 0 0 1-.05-.03 56 56 0 0 1-.7-1.14.98.98 0 0 0-.7-.5c-.08 0-.11.02-.11.1v1.54c0 .02-.01.03-.03.03h-1.33l-.02-.02v-3.94c0-.03.01-.04.04-.04h2.6c.24.01.48.05.72.12.44.12.68.4.74.85.06.45-.1.8-.5 1.04-.1.06-.25.12-.44.16Zm-1.8-1.32c0-.05.03-.07.07-.07l.58-.02a1 1 0 0 1 .5.1c.15.08.22.17.22.27v.1c0 .1-.06.2-.2.28a1 1 0 0 1-.5.12l-.58.02c-.04 0-.06-.02-.06-.07l-.02-.73Zm5.11 5.07c-.03.07-.02.14.03.22.05.07.13.12.22.14l.23.04c.52.11.9.21 1.14.3.4.17.66.4.76.68.14.34.1.67-.1.98-.19.3-.47.5-.84.6-.34.1-.78.13-1.33.09-.82-.07-1.3-.48-1.45-1.25-.01-.05 0-.08.07-.08h1.08c.04 0 .05.01.06.04.14.5.5.67 1.06.53a.39.39 0 0 0 .28-.24c.06-.13.03-.25-.08-.35a.69.69 0 0 0-.28-.19c-.05 0-.13-.03-.23-.05-.5-.1-.86-.2-1.08-.3-.36-.17-.59-.41-.68-.71a.85.85 0 0 1 .23-.9c.22-.23.52-.37.9-.43a3.21 3.21 0 0 1 1.42.06c.51.15.8.48.9.97.01.06-.01.09-.08.09h-1.04c-.04 0-.07-.02-.09-.06-.1-.3-.33-.43-.68-.41-.21.01-.35.09-.42.23Zm-.02 6.22c-.06-.08-.07-.15-.03-.22.06-.14.21-.22.44-.23.36-.02.6.12.71.4.02.05.05.07.1.07h1.09c.06 0 .09-.03.08-.1-.1-.49-.41-.8-.94-.97-.4-.11-.9-.13-1.5-.05-.4.06-.71.2-.95.44a.82.82 0 0 0-.23.89c.1.3.33.54.72.7a6.07 6.07 0 0 0 1.37.36c.08.02.17.08.3.2.1.1.13.2.08.34a.4.4 0 0 1-.3.24c-.6.14-.96-.03-1.1-.53-.02-.03-.04-.04-.07-.04h-1.14c-.06 0-.09.03-.08.08.16.77.67 1.19 1.53 1.25.58.04 1.04.02 1.4-.08.39-.11.68-.31.88-.6a1 1 0 0 0 .1-1c-.1-.27-.37-.5-.8-.66a7.54 7.54 0 0 0-1.43-.35.36.36 0 0 1-.23-.14Z" fill="#FE0000"/></svg>