<!-- by TradingView --><svg width="56" height="56" viewBox="0 0 56 56" xmlns="http://www.w3.org/2000/svg"><path fill="#F0F3FA" d="M0 0h56v56H0z"/><path d="m28.72 20.07-.68 5.16c0 .02 0 .03-.02.04a.06.06 0 0 1-.04.01c-.34 0-.57.08-.62.45a1547.62 1547.62 0 0 1-1 7.43 3.12 3.12 0 0 1-2.39 2.76 2.35 2.35 0 0 1-2.92-1.83c-.06-.27-.03-.8.07-1.58l.88-6.49c.04-.33.02-.71-.41-.72a.07.07 0 0 1-.07-.05v-.03l.69-5.18V20h2.74a.05.05 0 0 1 .04 0 .05.05 0 0 1 .01.05l-.68 5.16-.02.04a.07.07 0 0 1-.05.02c-.4.02-.64.04-.7.51l-.52 3.94c-.06.44.1.75.48.93.16.08.7.08.92 0 .67-.2.85-.7.94-1.42l.42-3.16c.03-.29.03-.47-.02-.56-.09-.16-.25-.24-.49-.23a.05.05 0 0 1-.04-.02.06.06 0 0 1-.02-.05l.69-5.18.01-.03.03-.01h2.71a.07.07 0 0 1 .05.02.07.07 0 0 1 .01.05ZM27.32 36a.05.05 0 0 1-.04-.02.05.05 0 0 1-.01-.04l.66-4.89c0-.01 0-.03.02-.04A.06.06 0 0 1 28 31c.37.04.58-.13.62-.51.1-.87.37-2.78.61-4.52.07-.45.16-.95-.4-.97h-.03a.07.07 0 0 1-.03-.05v-.03l.62-4.88a.04.04 0 0 1 .04-.04h3.84c1.15 0 2.07.82 2.29 1.94.05.25.02.76-.08 1.54l-1.32 9.85a3.15 3.15 0 0 1-2.14 2.53c-.3.1-.74.14-1.33.14h-3.37Zm2.8-5h1.66c.5 0 .87-.17 1.11-.53.13-.19.22-.53.28-1.03.02-.27.24-1.8.45-3.37a1.3 1.3 0 0 0 0-.51c-.13-.42-.4-.56-.9-.56a92.96 92.96 0 0 0-1.82.02.09.09 0 0 0-.02.06l-.8 5.88v.02a.03.03 0 0 0 .02.02h.01ZM34.53 36a.05.05 0 0 1-.06-.06l.66-4.88a.06.06 0 0 1 .07-.06c.37.05.58-.12.63-.5.1-.88.36-2.78.6-4.53.07-.45.17-.94-.4-.96a.07.07 0 0 1-.04-.03.07.07 0 0 1-.02-.05l.63-4.89a.04.04 0 0 1 .04-.04h3.83c1.16 0 2.07.82 2.3 1.94.05.25.02.77-.08 1.54l-1.33 9.85a3.15 3.15 0 0 1-2.13 2.54c-.3.1-.75.13-1.34.13h-3.36Zm2.79-5h1.66c.5 0 .87-.17 1.12-.53.13-.19.22-.53.27-1.02l.46-3.37a1.3 1.3 0 0 0 0-.52c-.14-.42-.4-.56-.9-.56a92.96 92.96 0 0 0-1.82.02.09.09 0 0 0-.03.06l-.79 5.89a.03.03 0 0 0 .03.03ZM10 27.36h1.77c.7-.03 1.16.3 1.36.97.04.15.04.4-.01.76l-.54 4.06a3.15 3.15 0 0 1-2.4 2.77c-.53.13-1.31.06-1.84.07a2.33 2.33 0 0 1-2.3-1.92c-.06-.28-.05-.7.03-1.23a235.25 235.25 0 0 0 .47-3.4.06.06 0 0 1 .04 0h1.4a.06.06 0 0 1 .06.02.07.07 0 0 1 .01.05c-.1.53-.21 1.46.54 1.5l1.78-.01c.52 0 .95.04 1.04-.53.1-.63.37-1.79-.52-1.83a178.8 178.8 0 0 0-2.68 0c-.7.03-1.16-.3-1.36-.97-.04-.15-.04-.4.01-.76l.54-4.06a3.15 3.15 0 0 1 2.4-2.77c.53-.13 1.31-.06 1.84-.07 1.15 0 2.08.8 2.3 1.92.06.28.05.7-.03 1.23a236.6 236.6 0 0 0-.47 3.4.06.06 0 0 1-.04 0H12a.07.07 0 0 1-.06-.02.07.07 0 0 1-.01-.05c.1-.53.25-1.46-.5-1.49H9.66c-.52 0-.95-.04-1.04.54-.1.62-.4 1.78.48 1.82h.9ZM46.02 27.36h1.77c.7-.03 1.16.3 1.36.98.04.14.04.4-.01.76l-.54 4.06a3.15 3.15 0 0 1-2.4 2.76c-.53.13-1.31.07-1.84.07a2.33 2.33 0 0 1-2.3-1.92c-.06-.28-.05-.69.03-1.23a235.12 235.12 0 0 0 .47-3.39.07.07 0 0 1 .04-.01H44a.06.06 0 0 1 .06.02.07.07 0 0 1 .01.06c-.1.53-.2 1.45.54 1.49h1.78c.52 0 .95.04 1.04-.54.1-.62.37-1.78-.52-1.82a178.79 178.79 0 0 0-2.68 0c-.7.02-1.16-.3-1.36-.98-.04-.14-.04-.4.01-.76l.54-4.06a3.15 3.15 0 0 1 2.4-2.76c.53-.13 1.31-.07 1.84-.08 1.16 0 2.08.8 2.3 1.92.06.28.05.7-.03 1.24a234.72 234.72 0 0 0-.47 3.38.06.06 0 0 1-.04.02h-1.4a.07.07 0 0 1-.06-.02.07.07 0 0 1-.01-.06c.1-.53.25-1.45-.5-1.49h-1.78c-.52 0-.95-.04-1.04.54-.1.62-.4 1.78.48 1.82h.91ZM17.58 30.94v.02a.05.05 0 0 0 .02.03h.96a.06.06 0 0 1 .06.05v.03l-.66 4.9s0 .02-.02.02l-.02.01h-3.58a.05.05 0 0 1-.03-.05l.66-4.91a.04.04 0 0 1 .04-.04h.96L16 31l.02-.04.07-.4.6-4.66c.05-.31-.08-.5-.37-.56-.43-.1-.55.17-.6.57a45.25 45.25 0 0 0-.1.66.06.06 0 0 1-.03.02h-1.4a.07.07 0 0 1-.06-.03.07.07 0 0 1-.01-.05l.52-3.9c.04-.3.16-.63.34-.96.41-.74.99-1.23 1.73-1.48.59-.2 1.2-.15 1.92-.15.33 0 .59.01.78.06.94.25 1.58 1 1.74 1.96.04.24.03.61-.04 1.1l-.44 3.32a.14.14 0 0 1-.14.13H19.2a.07.07 0 0 1-.07-.05v-.03l.1-.73v-.03c-.04-.23-.17-.37-.4-.42-.44-.09-.55.18-.6.59-.3 2.18-.53 4.05-.66 5.03Z" fill="#E31E24"/></svg>