<!-- by TradingView --><svg width="18" height="18" viewBox="0 0 18 18" xmlns="http://www.w3.org/2000/svg"><path fill="#F0F3FA" d="M0 0h18v18H0z"/><path d="m7.7 12-.16.9v.01l.01.01v.01h.02l2.1.01a.22.22 0 0 1-.08.05 3.74 3.74 0 0 1-4.09-.03c-.25-.04-.5-.05-.74-.15-.66-.3-.84-1-.73-1.62.04-.2.05-.43.1-.65l.63-3c.08-.38.21-.81.4-1.32.26-.74.81-1.14 1.64-1.2L8.33 5a929.2 929.2 0 0 0 5.62.02l.03.02.02.03v.03l-1.7 7.78c-.01.04-.03.06-.06.08a.16.16 0 0 1-.09.03H10.52a.08.08 0 0 1-.03-.02l-.02-.03v-.03l1.48-6.82a.08.08 0 0 0-.02-.07.1.1 0 0 0-.03-.02.1.1 0 0 0-.04-.01H7.84L7.82 6c-.45.12-.77.4-.97.83-.1.22-.17.4-.2.54-.17.76-.3 1.46-.56 2.72-.07.34-.13.77.03 1.1.16.31.39.58.68.69.2.07.5.12.9.13Z" fill="#211F20"/><path d="m9.66 13-2.13-.01h-.01l-.01-.01v-.02l.11-.96 2.15.02h.04l.02.03.01.03a.1.1 0 0 1 0 .04l-.18.88Z" fill="#CC382C"/></svg>