<!-- by TradingView --><svg width="18" height="18" viewBox="0 0 18 18" xmlns="http://www.w3.org/2000/svg"><path fill="#F0F3FA" d="M0 0h18v18H0z"/><path d="M10 4.22c0-.2.16-.28.32-.17l2.56 1.77c.16.12.16.3 0 .4L10.3 7.96c-.17.11-.3.03-.3-.17V4.22Z" fill="#E32235"/><path d="M12.7 7.05c.17-.11.3-.03.3.17v3.56c0 .2-.13.28-.3.17l-2.58-1.72c-.16-.1-.16-.29 0-.4l2.59-1.78Z" fill="#444"/><path d="M10 10.22c0-.2.13-.28.3-.17l2.58 1.78c.16.11.16.3 0 .4l-2.58 1.72c-.17.11-.3.03-.3-.17v-3.56Z" fill="#E32235"/><path d="M8.4 5.13c.33-.27.6-.1.6.36v7.01c0 .48-.3.64-.63.37L4.25 9.53a.62.62 0 0 1 0-.99l4.15-3.4Z" fill="#444"/></svg>