<!-- by TradingView --><svg width="18" height="18" viewBox="0 0 18 18" xmlns="http://www.w3.org/2000/svg"><path fill="#F0F3FA" d="M0 0h18v18H0z"/><path d="M8.96 14h-.44a4.02 4.02 0 0 0-.78-.97c-.21-.2-.23-.42-.2-.69a.03.03 0 0 0-.05-.03l-.01.02a50 50 0 0 0-.28.53c-.1.19 0 .3.12.5l.4.64h-.5c-.12-.28-.3-.54-.55-.78-.08-.08-.06-.2-.02-.32.28-.64.35-1.21-.05-1.78-.08-.1-.17-.26-.31-.2-.08.03-.12.09-.1.18.07.6.03 1.16-.13 1.7-.07.2-.19.47-.43.45a.05.05 0 0 1-.04-.02.06.06 0 0 1 0-.05c.07-.2.12-.4.14-.59.04-.26-.04-.5-.12-.83-.08-.36-.2-1.39.12-1.68.04-.03.12-.05.23-.05A6.77 6.77 0 0 0 6.5 10l.02-.03c.06-.3.32-.5.54-.7a.11.11 0 0 0 .03-.12c-.1-.24-.26-.45-.48-.61a.09.09 0 0 0-.05-.02c-.05 0-.1.01-.15.04a68.4 68.4 0 0 0-1.25.6.09.09 0 0 1-.07-.02.09.09 0 0 1-.02-.04L5 8.85a.13.13 0 0 1 .07-.15l1.2-.57a.06.06 0 0 0 .03-.06c0-.37.08-.72.26-1.06.1-.2.26-.35.46-.46a.07.07 0 0 0 .04-.05c.03-.18.01-.35-.04-.52a.19.19 0 0 0-.14-.12l-.25-.07c-.28-.11-.52-.36-.48-.7a.58.58 0 0 1 .33-.47c.32-.16.78-.15 1.12-.16.29 0 .55-.1.79-.26.06-.04.14-.03.23.03.28.2-.02.48-.17.66-.15.18.06.32.18.44a.17.17 0 0 1 .05.13c-.02.21-.08.41.08.58.18.2.39.44.62.51a.1.1 0 0 0 .12-.04.37.37 0 0 0 .07-.2 5.47 5.47 0 0 1 .05-.79.05.05 0 0 0-.02-.02c-.19-.09-.26-.24-.23-.44.02-.14.1-.21.22-.22a48.72 48.72 0 0 0 .44-.04.09.09 0 0 0 .02-.06c.02-.16.02-.38.27-.3a.1.1 0 0 1 .05.03c.1.11.2.22.37.27l1.28.42a.5.5 0 0 0 .39-.04l1.27-.62c.07-.03.1-.08.06-.14a3.76 3.76 0 0 0-.15-.25.04.04 0 0 1 .04-.04L14.96 4h.02a.04.04 0 0 1 .02.04v.02l-.8 1.07a.07.07 0 0 1-.12 0l-.1-.24a.02.02 0 0 0-.03 0l-1.04.49h-.01a.02.02 0 0 0 0 .02v.01c.06.09.1.16.1.28a1.73 1.73 0 0 1-.13.75.09.09 0 0 1-.11.01l-.2-.1c0-.01 0-.02-.02-.01l-.02.01a.36.36 0 0 1-.13.1 3.66 3.66 0 0 1-.98.32l-.01.02v.04c.25.24.43.52.56.83l.25.58c.02.05.07.08.15.12.24.08.41.15.52.2.19.1.26.32.32.54.1.41.14.7-.15 1.04-.25.3-.53.56-.81.78-.14.1-.16.18-.21.33a.06.06 0 0 1-.04.04.06.06 0 0 1-.05 0 4.07 4.07 0 0 0-.3-.2.12.12 0 0 1-.05-.13c.02-.08.18-.1.24-.15a.11.11 0 0 0 .04-.04c.11-.2.26-.39.45-.57.09-.08.1-.16.04-.26-.14-.2-.29-.2-.52-.1-.42.16-.77.37-1.06.62-.21.19-.34.3-.4.32-.3.14-.55.11-.87.07-.15-.03-.22.1-.3.22-.09.14-.28.21-.45.25a.1.1 0 0 0-.08.08l-.05.25-.03.09a3.32 3.32 0 0 1-.58.85l.01.02c.37.48.64.83.93 1.38Z" fill="#AB3231"/></svg>