<!-- by TradingView --><svg width="18" height="18" viewBox="0 0 18 18" xmlns="http://www.w3.org/2000/svg"><path fill="#F0F3FA" d="M0 0h18v18H0z"/><path d="M8.9 5.87c-1.05-.31-4.43-.27-5.6-.25h-.14s-.27.01-.11.09l1.7.72s2.31-.6 3.5-.32c.96.23-.25.98-1.86 2.72C4.42 10.96 5.13 13 5.13 13H7.2a5.85 5.85 0 0 1 1.37-5.62c.28-.32 1.34-1.2.32-1.5Z" fill="#8F67EB"/><path d="M5.94 4.01C6 4 6.04 4 6 4.08l-.49.88h2.24s4.27-.28 3.65 1.63c-.04.15-.03.24-.09.45-.69 2.49 1.46 4.53 3.51 5.76 0 0 .36.2.1.2H8.03a5.75 5.75 0 0 1-.24-1.62c0-1.8.87-2.77 1.87-4.25.37-.58.76-1.3-.25-1.48-2.31-.42-5.5-.22-6.3-.16H3.05c-.14.02 0-.05 0-.05l.02-.01L5.94 4Z" fill="#00B1FF"/></svg>