<!-- by TradingView --><svg width="18" height="18" viewBox="0 0 18 18" xmlns="http://www.w3.org/2000/svg"><path fill="#F0F3FA" d="M0 0h18v18H0z"/><path d="M8.43 4h.02c.12-.01.19.04.22.16.1.38.17.66.24.85.15.42.24.72.28.86a5.78 5.78 0 0 1-.88-1.68c-.03-.11 0-.18.12-.19ZM8.81 5.75c.04.04.06.08.08.12A2.38 2.38 0 0 1 7.41 4.3a.1.1 0 0 1 0-.08.1.1 0 0 1 .06-.05c.12-.05.37-.02.43.13l.08.27c.14.46.49.88.83 1.18ZM7.56 5.57c.13.13.28.29.44.42-.24.03-.46 0-.67-.1-.17-.1-.28-.28-.32-.55a.58.58 0 0 1 .03-.3L7.08 5h.05c.1.07.21.29.3.42l.13.15Z" fill="#D5623B"/><path d="M11.44 7.8a2.54 2.54 0 0 0-.53-1c.16-.02.33-.1.48-.22l.26-.24c.33-.4.74-.66 1.24-.79a4.92 4.92 0 0 1 .8-.11c.02 0 .03.02.03.04l-.05.04c-.51.2-.8.26-1.14.56-.6.51-.76 1.06-1.1 1.73Z" fill="#BF8A40"/><path d="M13.83 6.05a6.26 6.26 0 0 1-.98.04c-.02 0-.02-.04 0-.05.23-.11.47-.18.71-.2.1-.01.35-.03.35.11a.1.1 0 0 1-.02.06.1.1 0 0 1-.06.04ZM12.54 6.54h-.04c-.04 0-.04-.02-.01-.04.14-.1.3-.15.5-.17.2-.02.85-.06.95.16.05.1-.08.18-.16.15a3.04 3.04 0 0 0-1.24-.1Z" fill="#BF8A40"/><path d="M9.79 6.15a1.02 1.02 0 0 0-.76-.12c-.46.12-.9.32-1.29.62a.1.1 0 0 1-.08.01c-.52-.1-.99-.17-1.4-.2-1.6-.18-2.49.33-3.26.66 1.87-.23 1.82-.43 3.7-.14.29.05.61.1.8.3.23.24.45.43.66.58.47.33.97.21 1.1-.42.06-.26-.13-.44-.34-.47-.19-.03-.29.08-.35.25-.04.09-.07.08-.1 0-.06-.2-.1-.46.1-.59.28-.16.69-.12.95.02.22.17.32.43.27.74.44.03.76.43.84.89.1.53.17 1.82-.6 1.8-.35-.02-1.09-1.31-1.27-1.63.1.46.17.84.25 1.13.13.45.3.84.57 1.13.29.3.67.43.97.08a1.79 1.79 0 0 0 .32-.59v-.03c.04-.1.06-.21.08-.32.04-.37.07-.78.03-1.15-.1-.9-.42-2.06-1.19-2.55Z" fill="url(#a)"/><path d="M13.53 7.28c-.4-.2-.88-.28-1.32-.3-.02 0-.1 0-.07-.05h.01c.1-.03.21-.05.33-.06h.82c.2.02.39.06.54.13.12.05.17.14.16.26v.05c-.02.13-.08.16-.18.1-.03 0-.12-.05-.29-.13ZM11.9 7.37c-.02 0-.02-.02-.02-.04 0-.04.04-.06.07-.06.64 0 1.27.12 1.75.55.04.04.02.11-.03.13a.42.42 0 0 1-.35-.03l-.55-.33c-.18-.1-.47-.18-.87-.22ZM11.95 7.8l-.19-.12c-.06-.04-.05-.06.02-.06a.3.3 0 0 1 .11.04c.4.22.75.43.95.87.02.03 0 .07-.03.08-.18.06-.34-.23-.45-.39a1.42 1.42 0 0 0-.4-.41ZM11.1 11.5a7.86 7.86 0 0 1 1.01 2.18c.1.4.14.8.1 1.16-.01.2-.08.21-.2.05a.6.6 0 0 1-.03-.15c-.1-.47-.2-.89-.35-1.45a11.77 11.77 0 0 0-.67-1.88c-.03-.05-.01-.06.04-.02l.1.1ZM9.78 11.54l.02-.16.01-.01h.01l.01.02c.04.38.01.76-.07 1.14-.03.1-.17.5-.28.54h-.03a.05.05 0 0 1-.03-.06 22.69 22.69 0 0 0 .36-1.47ZM10.2 11.61a1.72 1.72 0 0 1-.02-.19c0-.03.04-.02.04 0 .14.44.2.88.2 1.33-.01.12-.07.62-.2.7-.03.02-.08 0-.07-.05l.05-.92c.02-.45.02-.74 0-.87ZM10.68 11.6a6.42 6.42 0 0 1 .48 1.89c.02.33 0 .65-.09.93-.04.15-.1.16-.16 0l-.01-.11a15.52 15.52 0 0 0-.14-1.95c-.03-.24-.1-.52-.17-.85-.02-.05 0-.06.03-.02l.06.1Z" fill="#BF8A40"/><defs><linearGradient id="a" x1="11.12" y1="10.05" x2="7.76" y2="8.19" gradientUnits="userSpaceOnUse"><stop stop-color="#BF8A40"/><stop offset="1" stop-color="#D5623B"/></linearGradient></defs></svg>