<!-- by TradingView --><svg width="18" height="18" viewBox="0 0 18 18" xmlns="http://www.w3.org/2000/svg"><path fill="#F0F3FA" d="M0 0h18v18H0z"/><path d="M9 4c.08 0 .19.05.3.16.1.08.17.18.23.28.32.52.5 1.04.57 1.58.07.6-.02 1.13-.28 1.63-.18.33-.4.68-.7 1.04-.05.07-.1.1-.12.1-.03 0-.07-.03-.12-.1-.29-.36-.52-.7-.7-1.04a2.71 2.71 0 0 1-.28-1.63c.06-.54.25-1.06.56-1.58.07-.1.14-.2.24-.28.11-.1.21-.16.3-.16Zm-.04 1.54c-.27 0-.47.14-.6.4-.18.36-.18.8-.01 1.35A4.7 4.7 0 0 0 9 8.56l.03-.02c.27-.43.47-.85.59-1.27.15-.56.14-1-.05-1.34-.14-.26-.35-.4-.62-.39Z" fill="#F9AC33"/><path d="M8.24 10.12c-.02.02-.07.02-.14.01a5.61 5.61 0 0 1-1.16-.3c-.5-.2-.89-.54-1.19-1.05a3.98 3.98 0 0 1-.5-1.6 1.44 1.44 0 0 1 0-.37c.03-.16.07-.27.14-.33.06-.07.17-.1.32-.1.13 0 .24.02.35.05.55.18 1 .45 1.37.8.41.4.66.89.76 1.45.06.37.1.8.09 1.29 0 .08-.01.13-.04.15ZM6.28 7.68c-.2.2-.28.44-.22.73.07.4.34.74.8 1.03a3.98 3.98 0 0 0 1.26.5v-.03a4.9 4.9 0 0 0-.3-1.39c-.21-.53-.5-.86-.84-.99a.63.63 0 0 0-.7.15Z" fill="#ADD04A"/><path d="M9.76 10.13c-.03-.02-.04-.07-.04-.16 0-.48.02-.91.09-1.29.1-.56.34-1.04.75-1.44a3.4 3.4 0 0 1 1.37-.8c.11-.04.23-.06.35-.06.15 0 .26.03.32.1.07.05.11.16.14.32a3.99 3.99 0 0 1-.5 1.98c-.3.5-.69.86-1.18 1.05a5.6 5.6 0 0 1-1.16.3c-.07.02-.12.02-.14 0Zm1.96-2.45a.63.63 0 0 0-.7-.15c-.35.13-.63.46-.84 1a4.91 4.91 0 0 0-.3 1.4c.01.02.02.02.04.02.47-.11.87-.29 1.22-.51.46-.3.72-.64.8-1.03a.76.76 0 0 0-.22-.73Z" fill="#EC3494"/><path d="M9 9.72c.13 0 .23-.12.23-.26s-.1-.25-.23-.25-.24.11-.24.25.1.26.24.26Z"/><path d="M7.35 11.07c0 .03-.04.07-.1.1-.39.26-.75.45-1.08.58-.49.2-1 .2-1.53.02a3.43 3.43 0 0 1-1.33-.88 1.3 1.3 0 0 1-.22-.3c-.07-.14-.1-.26-.09-.35.02-.09.08-.19.2-.3.1-.08.2-.15.3-.2a3.23 3.23 0 0 1 1.52-.33c.56.03 1.03.22 1.43.59.28.24.55.55.83.93.05.06.07.11.07.14Zm-2.95-.52c-.04.3.05.53.26.72.29.25.7.33 1.22.24a3.98 3.98 0 0 0 1.26-.5l-.01-.03a4.23 4.23 0 0 0-1.05-.84c-.48-.27-.88-.32-1.23-.18a.7.7 0 0 0-.45.6Z" fill="#EC3494"/><path d="M10.65 11.07c0-.03.01-.08.06-.14.28-.38.56-.69.83-.94.4-.36.88-.55 1.43-.58.5-.02 1 .1 1.53.34.1.05.2.11.3.2.12.1.18.2.2.3.01.09-.02.2-.1.35-.06.11-.13.21-.21.3-.42.42-.86.71-1.34.87-.53.18-1.04.18-1.53-.02-.33-.13-.69-.32-1.07-.57-.06-.04-.1-.08-.1-.1Zm2.95-.51a.71.71 0 0 0-.46-.6c-.34-.14-.75-.09-1.22.17a4.22 4.22 0 0 0-1.07.88l.02.04c.43.23.84.39 1.24.46.53.1.93.01 1.22-.23.22-.2.3-.43.27-.72Z" fill="#ADD04A"/><path d="M9 9.9c.17 0 .32.12.44.37.1.2.17.4.2.62 0 .04.01.06.04.08h.08a2 2 0 0 0 .34-.25.07.07 0 0 1 .06-.01c.03 0 .04.02.05.05.01.05 0 .1-.02.16-.13.27-.29.5-.49.71-.24.25-.48.37-.7.37-.23 0-.47-.12-.71-.37-.2-.2-.36-.45-.49-.72a.25.25 0 0 1-.02-.16c.01-.02.03-.04.05-.04.02-.01.04 0 .06.01.12.1.24.19.34.24.03.02.05.02.08 0a.09.09 0 0 0 .05-.07c.02-.22.09-.42.19-.62.13-.25.28-.37.45-.37Z"/></svg>