<!-- by TradingView --><svg width="18" height="18" viewBox="0 0 18 18" xmlns="http://www.w3.org/2000/svg"><path fill="#F0F3FA" d="M0 0h18v18H0z"/><path d="M6.55 4H5.6l-.02.03v.01h.01l.08.03c-.32-.01-.78-.05-1.03.1-.23.12-.4.3-.5.53-.05.12-.08.36-.08.74a3072.43 3072.43 0 0 1 0 7.62.02.02 0 0 0-.03 0l-.02.04V13C4 10.66 4 8.17 4 5.53c0-.46.04-.77.11-.9.15-.3.39-.5.73-.62a.3.3 0 0 1 .1 0L6.53 4Z" fill="#8EA0BB"/><path d="M6.55 4h2.37c.2.08.53.26.7.34.7.32 1.12.9.9 1.69-.27.94-1.52 1.59-2.38 1.91a.02.02 0 0 0 0 .03 6.49 6.49 0 0 1 4.39.93c.35.26.6.58.75.97.29.76-.02 1.64-.6 2.19-.16.16-.3.28-.4.36-1.19.87-2.72 1.15-4.05 1.42-.89.12-1.79.12-2.68.16a2.4 2.4 0 0 1-.88-.08c-.33-.14-.54-.4-.65-.82l.02-.03v-.01h.02c.01 0 .02 0 .03.02.14.58.5.87 1.06.87.7 0 1.55-.16 2.23-.46l.76-.35a4.29 4.29 0 0 0 1.74-1.61 1.92 1.92 0 0 0-.33-2.36 2.93 2.93 0 0 0-1.5-.77c.66.07 1.2.34 1.64.82.28.32.45.7.5 1.15.09.65-.28 1.35-.71 1.82-.37.38-.8.71-1.31 1a23.98 23.98 0 0 1-.93.43h.02c.66-.2 1.28-.47 1.84-.84.62-.4 1.25-1 1.47-1.72.21-.7-.08-1.43-.62-1.9a3.12 3.12 0 0 0-2.13-.8 6.69 6.69 0 0 0-1.18.03c.37-.18.65-.4.91-.67.33-.32.53-.72.61-1.2.1-.58-.12-1.28-.59-1.7-.22-.2-.43-.34-.65-.44a4.08 4.08 0 0 0-1.24-.31l-.08-.02v-.01l-.01-.01c0-.01 0-.02.02-.02L6.55 4Z" fill="#395384"/><path d="M8.12 13.85c1.34-.27 2.92-.53 4.11-1.41.1-.08.25-.2.42-.36.57-.55.87-1.41.59-2.17-.15-.4-.36-.74-.72-1a6.45 6.45 0 0 0-4.39-.96h.01c.86-.33 2.1-.99 2.37-1.93.36-1.29-.86-1.65-1.76-2.02h4.08c.52.02.87.25 1.05.65.08.19.12.53.12 1.03v7.28c0 .4-.33.85-.73.98-.1.03-.29.06-.57.06H8.88c-.27 0-.59-.06-.76-.15Z" fill="#DBE4F5"/><path d="M5.68 4.07c.46.04.87.15 1.24.31.22.1.43.24.65.44.47.42.68 1.12.6 1.7-.09.48-.3.88-.62 1.2a3.49 3.49 0 0 1-.91.68v.01h.01c.38-.05.77-.07 1.17-.06.06.06.13.07.23.05.63.14 1.13.4 1.5.77a1.92 1.92 0 0 1 .33 2.36 4.29 4.29 0 0 1-1.74 1.6 5.87 5.87 0 0 1-2.99.81c-.57.01-.92-.28-1.06-.86v-.26l-.02-7.38c0-.38.03-.62.08-.74.1-.23.27-.4.5-.53.25-.15.71-.11 1.03-.1Z" fill="#DBE4F5"/><path d="M7.31 8.03V8c.2-.13.35-.29.48-.47.5-.69.58-1.4.26-2.16A1.95 1.95 0 0 0 7 4.37v-.02a.01.01 0 0 1 .01-.01.01.01 0 0 1 .01 0c.7.24 1.29.8 1.43 1.57.17.89-.4 1.66-1.12 2.13h-.02l-.01-.01ZM8.05 8.4c-.1.02-.17 0-.23-.05.79 0 1.5.26 2.13.8.54.48.83 1.2.62 1.9a3.46 3.46 0 0 1-1.47 1.73 7.12 7.12 0 0 1-1.86.84v-.02c.56-.24.86-.38.93-.42a5.2 5.2 0 0 0 1.3-1c.44-.46.8-1.16.72-1.81a2.04 2.04 0 0 0-.5-1.15 2.46 2.46 0 0 0-1.64-.82Z" fill="#fff"/></svg>