<!-- by TradingView --><svg width="56" height="56" viewBox="0 0 56 56" xmlns="http://www.w3.org/2000/svg"><path fill="#F0F3FA" d="M0 0h56v56H0z"/><path fill-rule="evenodd" d="M36 22.14c0-.08.06-.14.13-.14h1.74c.07 0 .13.06.13.14v9.72c0 .08-.06.14-.13.14h-1.74a.13.13 0 0 1-.13-.14v-9.72Zm-20 7.18v-4.18c0-.08.06-.14.14-.14h1.74c.08 0 .12.06.12.14v4.1c0 .76.96 1.28 1.9.82.04-.02.1-.07.1-.12v-4.8c0-.08.03-.14.11-.14h1.75c.08 0 .14.06.14.14v6.25c0 .06-.04.12-.1.13-4.97 1.48-5.9-.82-5.9-2.2ZM8 33.8v-8.1a.2.2 0 0 1 .13-.18c3.06-1.13 6.87-.46 6.87 2.46 0 2.96-2.32 4.02-3.36 4.02-.6 0-1.19-.02-1.41-.04-.1 0-.23.06-.23.14v1.7c0 .11-.04.2-.16.2H8.22c-.12 0-.22-.09-.22-.2Zm2-3.95v-2.7c.7-.26 3-.33 3 1.14S11.82 30 11.03 30c-.64 0-.95-.1-1.03-.15Zm18 3.95v-8.1a.2.2 0 0 1 .13-.18c3.06-1.13 6.87-.46 6.87 2.46 0 2.96-2.32 4.02-3.36 4.02-.6 0-1.19-.02-1.41-.04-.1 0-.23.06-.23.14v1.7c0 .11-.04.2-.16.2h-1.62c-.12 0-.22-.09-.22-.2Zm2-3.95v-2.7c.7-.26 3-.33 3 1.14S31.82 30 31.03 30c-.64 0-.95-.1-1.03-.15Zm-7-4.14v6.07c0 .12.09.22.2.22h1.6c.11 0 .2-.1.2-.22v-4.56c0-.03.02-.06.05-.07.3-.11 1-.24 1.76.02.1.04.19-.03.19-.14v-1.77c0-.06-.04-.12-.1-.13a6.08 6.08 0 0 0-3.82.45.14.14 0 0 0-.08.13ZM44.7 29h-3.8c.08.34.56 1.19 1.74 1.19.96 0 1.64-.27 1.98-.47.07-.04.18 0 .18.1v1.32c0 .1-.05.18-.12.23-.4.25-1.23.63-2.3.63A3.18 3.18 0 0 1 39 28.86c-.03-1.29.52-3.86 3-3.86s3.03 2.17 3 3.25v.63c0 .13-.1.13-.22.12h-.08Zm-1.72-1h-1.85c-.1 0-.17-.19-.1-.28l.68-.9c.11-.03.34-.06.4-.06.73 0 .96.63 1 1.05 0 .07-.05.19-.13.19Z" fill="#7A2B85"/><path d="m47.63 22.97-2.51-1.31a.2.2 0 0 1 0-.37l2.26-1.25a.3.3 0 0 1 .24-.02c1.03.37 2.66 1.65 3.38 2.27v3.14c0 .13-.07.25-.19.31l-2.3 1.24c-.1.06-.23-.01-.23-.12V23.8c0-.48-.44-.75-.65-.83Z" fill="#EFAC1E"/></svg>