<!-- by TradingView --><svg width="18" height="18" viewBox="0 0 18 18" xmlns="http://www.w3.org/2000/svg"><path fill="#F0F3FA" d="M0 0h18v18H0z"/><path d="M7.38 11.04h.04v-.02l.08-.54.01-.05c.08-.17.24-.22.47-.15.23.08.33.12.43.29.1.17.2.33.34.48.01.02.02.03.01.05 0 .02 0 .03-.02.04a3.96 3.96 0 0 1-4.36.12c-1.6-1-1.86-3-.5-4.27a3.92 3.92 0 0 1 4.02-.73 2.97 2.97 0 0 1 2 2.3l.19.85c.19.76 1.19 1.02 2.01.98a7.18 7.18 0 0 0 2.22-.48l.01-.03v-.02l-.03-.01c-.4-.12-.7-.34-.95-.65a33 33 0 0 1-.66-.89c-.31-.44-.84-.88-1.52-.62a3.23 3.23 0 0 0-.98.61h-.04v-.02c-.11-.5-.38-.97-.81-1.4a.07.07 0 0 1-.02-.04c0-.02.01-.04.03-.05.22-.2.5-.34.83-.44a4.04 4.04 0 0 1 3.45.4c1.25.78 1.7 2.21 1.1 3.43-.95 1.95-4.07 2.53-5.7.78A4.2 4.2 0 0 1 8.3 9.6c0-.03.01-.05.03-.08a.21.21 0 0 1 .06-.06.26.26 0 0 1 .09-.03l.6-.11.03-.02.01-.02v-.02l-.02-.02-.53-.3a.17.17 0 0 1-.07-.06c-.19-.32.21-.53.48-.72l.01-.02v-.02l-.01-.02-.03-.01-.64-.03a.21.21 0 0 1-.1-.03c-.36-.2-.12-.55-.01-.83v-.02l-.01-.02h-.05l-.6.24a.22.22 0 0 1-.1.01.74.74 0 0 1-.28-.09.13.13 0 0 1-.07-.07l-.13-.52-.02-.03-.03-.01h-.03a.06.06 0 0 0-.03.02l-.34.44a.14.14 0 0 1-.05.04c-.41.2-.66-.2-.87-.37l-.03-.01h-.04a.06.06 0 0 0-.03.02l-.01.03-.02.49c0 .03-.01.05-.03.08-.22.34-.63.13-.95.04a.1.1 0 0 0-.08 0 .04.04 0 0 0-.02.03v.03l.3.49v.05a.4.4 0 0 1-.16.3.12.12 0 0 1-.05.03l-.63.12h-.02l-.02.03v.02l.03.02.42.23c.23.12.28.23.22.43 0 .03-.03.05-.05.07l-.45.34-.01.02v.02c0 .01 0 .02.02.02l.02.01.7.06.06.01.04.04.12.17.02.05v.04c-.08.2-.14.37-.18.53 0 .03 0 .04.03.05l.06-.01c.36-.17.63-.36.94-.15.03.02.05.05.06.08l.14.52.01.02.03.01h.03l.02-.02.35-.44a.17.17 0 0 1 .06-.05c.1-.05.22-.07.34-.05a.1.1 0 0 1 .05.02l.5.42Z" fill="#079346"/><path d="M6.5 10a1 1 0 1 0 0-2 1 1 0 0 0 0 2Z" fill="#EEA420"/><path d="M13.02 9.45v.02H13a5.8 5.8 0 0 1-.71-.47 3.42 3.42 0 0 0-.71-.48 1.86 1.86 0 0 0-1.31.02l-.02-.01V8.5h-.01V8.5c.42-.19.72-.27.9-.26.35.02.68.2.94.43l.94.78Z" fill="#079346"/></svg>