<!-- by TradingView --><svg width="18" height="18" viewBox="0 0 18 18" xmlns="http://www.w3.org/2000/svg"><path fill="url(#a)" d="M0 0h18v18H0z"/><path d="M8.99 4c.09 0 .16.02.23.07.04.03.1.1.15.2l.84 1.5.54.97c.07.22.08.43.03.63-.05.18-.18.39-.29.57l-1.47 2.62h-.03L7.5 7.93c-.1-.17-.22-.36-.27-.54-.06-.22-.05-.45.03-.68l.57-1 .85-1.52a.36.36 0 0 1 .3-.19Z" fill="url(#b)"/><path d="M7.26 6.7c-.08.24-.1.47-.03.7.05.17.18.36.27.53l1.48 2.63h.04l1.47-2.62c.1-.18.24-.4.29-.57.05-.2.04-.41-.03-.63l1.86 3.3 1.34 2.38c.12.21.01.48-.21.58h-3.1a.87.87 0 0 1-.36-.2 1.38 1.38 0 0 1-.22-.32A576.52 576.52 0 0 0 9 10.6l-1.04 1.86a1.5 1.5 0 0 1-.24.34c-.1.09-.21.16-.35.2h-3.1a.42.42 0 0 1-.23-.54l.12-.22 1.38-2.46 1.73-3.07Z" fill="url(#c)"/><defs><linearGradient id="a" x1="3.35" y1="3.12" x2="21.9" y2="24.43" gradientUnits="userSpaceOnUse"><stop stop-color="#1A1E21"/><stop offset="1" stop-color="#06060A"/></linearGradient><linearGradient id="b" x1="9" y1="4" x2="9" y2="10.57" gradientUnits="userSpaceOnUse"><stop stop-color="#550408"/><stop offset="1" stop-color="#B70912"/></linearGradient><linearGradient id="c" x1="9" y1="6.71" x2="9" y2="13" gradientUnits="userSpaceOnUse"><stop stop-color="#BE2B3C"/><stop offset="1" stop-color="#FD3A4E"/></linearGradient></defs></svg>