<!-- by TradingView --><svg width="18" height="18" viewBox="0 0 18 18" xmlns="http://www.w3.org/2000/svg"><path fill="#F0F3FA" d="M0 0h18v18H0z"/><path d="M9.42 7.2v.02c-.4.61-.86 1.19-1.29 1.9-.32.55-.6 1.05-.6 1.67 0 .58.53.56 1.02.56h3.04a.09.09 0 0 1 .08.06v.03l-.15 1.43c0 .03-.02.06-.04.08-.02.02-.05.05-.09.05H6.2c-.34 0-.6-.03-.83-.09-.95-.22.24-1.78.54-2.14A38.47 38.47 0 0 1 9.42 7.2ZM12.17 5l.37.04c.72.1.43.84.2 1.22-.6 1.04-1.38 1.8-2.38 2.83a112.03 112.03 0 0 1-1.87 1.75l-.03-.01v-.01c.53-.67 1.04-1.38 1.51-2.16.3-.49.62-1.13.47-1.71a.36.36 0 0 0-.1-.17.38.38 0 0 0-.17-.1 2.8 2.8 0 0 0-.6-.06 315.13 315.13 0 0 0-3.2 0 .08.08 0 0 1-.05-.05v-.04l.15-1.37c0-.03.02-.06.05-.09A.42.42 0 0 1 6.68 5h5.49Z" fill="#C91C20"/></svg>