<!-- by TradingView --><svg width="18" height="18" viewBox="0 0 18 18" xmlns="http://www.w3.org/2000/svg"><path fill="#F0F3FA" d="M0 0h18v18H0z"/><path d="M9 4a4.77 4.77 0 0 1 3.36 1.35 5.42 5.42 0 0 1 .07 7.65H5.55a5.42 5.42 0 0 1 .09-7.64A4.9 4.9 0 0 1 9 3.99Zm-.2.18c-.8.03-1.53.26-2.22.67a5 5 0 0 0-2.04 2.4 5.25 5.25 0 0 0 1.12 5.61l.02.01h.25L8.8 4.18Zm.45 0 2.86 8.69h.22a5.08 5.08 0 0 0 1.36-2.4c.22-.9.2-1.86-.06-2.74A5.03 5.03 0 0 0 11.5 4.9a4.67 4.67 0 0 0-2.25-.71ZM9 6.7v-.01l.19-.08 1.34 4.17.01.01h.44L9.03 4.84h-.01l-2.64 8.02h.6l2-6.17H9Zm-1.12 4.08v.01h2.43L9.1 7l-1.22 3.77Zm-.67 2.09h3.77l-.59-1.85H7.8l-.6 1.85Zm3.4-1.85.6 1.85h.45l-.6-1.85h-.44Z"/></svg>