<!-- by TradingView --><svg xmlns="http://www.w3.org/2000/svg" width="56" height="56"><path fill="#F0F3FA" d="M0 0h56v56H0z"/><path d="M16.83 37.97a9.58 9.58 0 01-7.15-4.33 10.38 10.38 0 01.53-12.05 9.63 9.63 0 015.8-3.48c.58-.1 2-.15 2.62-.07a9.4 9.4 0 015.34 2.46c1 .9 2.04 2.42 2.51 3.68.14.37.15.42.08.4a2.67 2.67 0 01-.26-.53 9.92 9.92 0 00-3.85-4.57 9.24 9.24 0 00-10.62.64 10.1 10.1 0 00-3.65 9.13 10.04 10.04 0 002.85 5.88 8.9 8.9 0 002.41 1.75 9.2 9.2 0 0010.64-1.67c.67-.66 1.4-1.62 1.78-2.36.09-.16.19-.3.22-.3.14 0-.62 1.24-1.17 1.92a9.52 9.52 0 01-8.08 3.5zm25.6-.7l-5.52-1.89c-.55-.18-1.12-.4-1.12-.4v-3.13l.1-.1c.16-.16.42-.12 2.02.27.76.19 1.42.34 1.46.33.04 0 .12-.08.17-.15.09-.11.1-.2.1-.57 0-.41 0-.45-.13-.62-.26-.33-.41-.4-1.83-.74a13.5 13.5 0 00-1.57-.33c-.32 0-.64.1-1.04.3-.4.2-.82.27-1.65.27-.55 0-.6 0-.71.11-.13.1-.14.14-.17.65l-.04.71c0 .31-.16.46-.82.81-.86.45-.87.45-2.2-.08-.56-.22-1.11-.46-1.22-.54a.62.62 0 00-.44-.14c-.35 0-.8-.1-1.58-.37-.9-.3-.85-.18-.86-1.85 0-1.38-.01-1.46-.29-1.6-.21-.12-.88-.08-1.06.06-.26.19-.32.34-.38.94-.07.67-.12.73-.3.9-.18.16-.59.27-.8.2-.08 0-.5-.1-.91-.24l-.76-.25.02-.18c.01-.16 0-.17-.1-.17-.22 0-.35.08-.47.3a3.2 3.2 0 01-3.48 1.52 3.35 3.35 0 01-2.45-3.66 3.33 3.33 0 012.63-2.9 3.15 3.15 0 013.43 1.85c.17.34.2.36.43.28l.96-.26a7227.57 7227.57 0 008.9-2.33c3.28-.87 3.5-.92 4.1-.92h.55l.33-.33c.3-.3.35-.34.73-.44l1.2-.37 1.25-.38a1406.94 1406.94 0 014.29-1.3c.64-.22.87-.27 1.13-.23.26.03 3.21 1.48 3.4 1.66.25.24.28.43.27 1.36l-.02.84-.15.14c-.09.08-.2.14-.26.14-.11 0-4.92.9-5.66 1.05-.28.06-.5.24-.5.42 0 .17.15.32.46.46.24.12.52.17 2.13.41 3.47.53 3.82.6 4 .92v7.44l-3.55 2.3c-.26.16-.5.3-.54.3-.04.01-.71-.2-1.49-.47zm1.48-.26c.06-.03.09-.1.09-.35v-6.63c.04-2.03.06-2.08-.33-2.43-.25-.22-.44-.3-.87-.34a43.4 43.4 0 01-1.63-.26l-1.5-.26c-.51-.08-.7-.85-.3-1.26a.62.62 0 01.37-.2l1.83-.34c.91-.17 1.79-.32 1.95-.33.33-.03.45-.08.48-.22v-2.94c0-.1-.11-.26-.24-.26-.18-.04-.19-.02-4.24 1.1-2.6.72-2.83.79-3.07.94-.43.26-.45.12-.45 3.18v2.76l.2.1c.35.14 1.31.43 2.53.74.6.15 1.14.32 1.22.36.07.05.18.16.23.25.09.14.1.24.1 1.15 0 1.32.03 1.28-.8 1.11l-1.02-.21c-1.83-.4-1.93-.4-2.07-.23v2.22a.8.8 0 00.28.13c.47.14 5.01 1.61 5.8 1.87.43.14.98.26 1.1.32.15.06.28.07.34.03zm-13.14-4.66c.02-.09.05-.61.08-1.17.03-.56.04-.95.06-1 .03-.05.09-.18.2-.18h2.63c.24.02.53 0 .6-.2.03-.07 0-5.49 0-5.49 0-.12-.03-.17-.16-.25a.64.64 0 00-.25-.1c-.06 0-.95.26-1.98.58l-2.37.72c-.27.08-.55.2-.58.23v4.45c0 2.15.01 2.02.48 2.23.23.1 1 .32 1.2.33.05 0 .08-.05.1-.15zm.33-4.98l.03-.68.15-.13c.17-.14.35-.19.66-.17.2.02.21.03.34.26.12.21.13.27.11.61 0 .25-.04.45-.1.57l-.1.2h-.56l-.56.02.03-.68zm-3.38 4.02c.02-.04.01-1.3-.01-2.81l-.04-2.74-.13-.02c-.14-.01-.69.13-1.18.32l-.32.11v4.67l.13.12c.31.28.68.41 1.2.41.25 0 .33 0 .35-.06zm-4.96-2.4c.05-1.18 0-1.14 1.82-1.39l.45-.06.01-.53c.02-.5.01-.53-.07-.53-.05 0-1.08.24-2.28.54l-2.73.67c-.84.2-.82.22.48.3l.85.1c.08.09.19.3.2.44l.09.68.06.47.19.03c.1.01.35.03.54.03l.36.01.03-.77zm-5.9 7.56a8.22 8.22 0 01-4.54-1.95 8.88 8.88 0 01-2.74-4.54c-.31-1.26-.3-3 .02-4.24.34-1.28.9-2.42 1.67-3.37.39-.48 1.18-1.22 1.67-1.58a8.04 8.04 0 018.56-.45 8.62 8.62 0 013.31 3.45c.37.72.5 1.04.43 1.11-.03.03-.06 0-.1-.11l-.33-.71a8.22 8.22 0 00-5.54-4.46 7.9 7.9 0 00-7.3 2.17 8.65 8.65 0 00-2.47 6.85 8.36 8.36 0 006.55 7.58 9.5 9.5 0 002.42.1 8.16 8.16 0 006.09-4.08c.15-.27.24-.38.27-.35.04.04-.04.2-.23.52a8.4 8.4 0 01-4.52 3.68 7.5 7.5 0 01-2.28.38h-.95zm.04-1.3a7.1 7.1 0 01-5.94-4.88c-.3-.9-.35-1.25-.35-2.37 0-.9.01-1.08.11-1.52a7.49 7.49 0 011.94-3.7 6.77 6.77 0 017.01-1.77 7.15 7.15 0 014.36 4.1c.05.12.06.2.03.21-.07.04-.1 0-.23-.31a7.33 7.33 0 00-1.65-2.34 6.78 6.78 0 00-3.5-1.76 6.66 6.66 0 00-5.85 1.94 7.1 7.1 0 00-1.97 3.64c-.09.42-.1.63-.1 1.48s.01 1.07.1 1.48c.3 1.37.92 2.57 1.84 3.54A6.69 6.69 0 0023.24 32c.2-.3.38-.54.4-.54.22 0-.56 1.13-1.23 1.8a6.85 6.85 0 01-5.5 1.98zm-.21-1.35a5.95 5.95 0 01-4.86-6.21 5.92 5.92 0 014.78-5.64 6.9 6.9 0 011.95 0 5.85 5.85 0 014.33 3.6c0 .17-.14.05-.29-.27a5.7 5.7 0 00-3.84-3.13 6.1 6.1 0 00-2.35 0 5.54 5.54 0 00-2.74 1.55 5.99 5.99 0 00-1.6 3.13c-.11.6-.08 1.87.07 2.44a5.96 5.96 0 002.47 3.55 5.53 5.53 0 007.6-1.66c.12-.18.23-.32.25-.32.1 0 .04.17-.13.43a5.65 5.65 0 01-5.64 2.53zm.28-1.4a4.5 4.5 0 01-3.72-4.8 4.36 4.36 0 016.01-3.88 4.7 4.7 0 012.19 2.1c.14.3 0 .45-.16.17a4.3 4.3 0 00-2.76-2.28 4.4 4.4 0 00-1.91 0 4.27 4.27 0 00-3.05 3.13 4.34 4.34 0 002.52 5.08c.56.22 1.05.3 1.68.27a3.93 3.93 0 003.16-1.77c.07-.1.16-.2.2-.2.21 0 .02.36-.45.87a4.29 4.29 0 01-3.7 1.3z"/></svg>