<!-- by TradingView --><svg width="18" height="18" viewBox="0 0 18 18" xmlns="http://www.w3.org/2000/svg"><path fill="#F0F3FA" d="M0 0h18v18H0z"/><path d="M15 9a5.94 5.94 0 0 1-4.57 5.82 6.11 6.11 0 0 1-5.67-1.52 5.93 5.93 0 0 1-1.37-6.44 5.95 5.95 0 0 1 4.18-3.68 6.11 6.11 0 0 1 5.67 1.52A5.93 5.93 0 0 1 15 9Zm-9.31 4.86.2.13a5.98 5.98 0 0 0 8.8-3.17 5.9 5.9 0 0 0 .28-2 6.2 6.2 0 0 0-1.4-3.55 6.12 6.12 0 0 0-4.8-2.15 5.97 5.97 0 0 0-5.74 6.06 6 6 0 0 0 2.66 4.68Z"/><path d="M10.18 6.96c.16-.02.31-.06.46-.1.1-.03.2-.09.28-.16h.04a.73.73 0 0 0 .2-.26c.13-.24.2-.48.23-.75a28.06 28.06 0 0 0 .07-.46 30.46 30.46 0 0 1-.47.25c-.16.07-.31.11-.5.15l-.2.06a.6.6 0 0 0-.32.33 5.68 5.68 0 0 0-.15.63 11.72 11.72 0 0 1 .87-.69c.04-.04.1-.03.13.03.03.05-.01.1-.05.12-.28.21-.55.4-.79.64l-.03.04a1.5 1.5 0 0 0-.39.94 18.12 18.12 0 0 0-.02.4l.14.02c.16.04.3.1.43.2a3.15 3.15 0 0 1 .36.34c.11.07.24.1.38.12.12 0 .23.02.33.05.2.07.35.21.46.4l.17.27c.03.04.03.08 0 .11v.13c-.02.12-.06.23-.12.34-.15.31-.36.6-.6.87a1.47 1.47 0 0 1-1 .48c-.19.03-.36.07-.53.15l-.22.12a1.37 1.37 0 0 1-.7.16 4.82 4.82 0 0 1-.83-.14.1.1 0 0 0-.08.02l-1.18.73c-.05.03-.08.03-.12-.02l-.79-1.27c-.02-.05-.02-.08.02-.11.38-.27.7-.5 1.03-.76l.4-.36c.14-.12.28-.2.44-.26l.07-.02h.03c.05-.02.09-.04.13-.04h.04c.27-.03.55-.02.83.01l.52.07c.08 0 .14.04.18.1.06.08.1.17.1.28a.36.36 0 0 1-.12.31 3.5 3.5 0 0 0 1.06-.22.88.88 0 0 0 .38-.28l.1-.15a.77.77 0 0 1 .68-.35 4.5 4.5 0 0 0-.1-.16.6.6 0 0 0-.33-.23 3.85 3.85 0 0 1-.44-.07.83.83 0 0 1-.46-.27c-.1-.09-.19-.18-.3-.25a.99.99 0 0 0-.45-.15c-.2-.01-.42 0-.63.06a.69.69 0 0 0-.52.56l-.05.26c0 .09-.07.1-.16.12-.16.03-.33.08-.5.13a.68.68 0 0 0-.27.15.54.54 0 0 0-.15.26.72.72 0 0 0-.2.05.84.84 0 0 1 .07-.25.65.65 0 0 1 .32-.31c.21-.1.42-.15.67-.21.04-.01.05-.03.05-.06.02-.13.05-.23.07-.3.12-.35.37-.52.71-.6.16-.04.31-.05.46-.05.02 0 .03-.01.03-.04V7.8a.6.6 0 0 0-.2-.42 1.97 1.97 0 0 0-.35-.24 11.18 11.18 0 0 0-.57-.3c-.07-.04-.06-.11 0-.16.03-.03.08 0 .12.01l.54.28.13.09a2.53 2.53 0 0 0-.21-.66.68.68 0 0 0-.41-.34A1.83 1.83 0 0 0 8.03 6l-.43-.05c-.2-.02-.36-.07-.6-.12l.1.26v.02a7.74 7.74 0 0 0 .38.82c.1.17.24.32.44.38l.1.03c.02 0 .06 0 .09.02.14 0 .3 0 .47-.03l.2-.03c.07-.02.18-.04.18.08 0 .04-.02.08-.06.09-.18.03-.34.06-.49.07-.17.02-.35 0-.52-.04-.34-.1-.54-.4-.7-.7a17.69 17.69 0 0 1-.43-1.08c0-.03 0-.08.04-.1a.1.1 0 0 1 .09-.02c.21.07.43.12.66.16l.55.06c.16.02.34.05.48.12.2.1.34.26.43.45.11.24.18.5.23.77.01.04.03.09.06.12l.12.13c.03-.12.07-.24.13-.37.04-.08.04-.17.05-.27l.02-.12.07-.35c.04-.17.08-.32.17-.47.11-.18.3-.3.5-.35l.18-.04c.1-.02.2-.05.32-.1a3.8 3.8 0 0 0 .72-.39c.06 0 .1.06.09.12l-.02.19a6.7 6.7 0 0 1-.15.83 1.2 1.2 0 0 1-1 1.01l-.43.07c-.06.01-.13-.01-.13-.08s.06-.1.12-.1l.12-.02Zm-4.36 4.19c-.03.02-.03.04-.02.06l.67 1.08c.04.06.06.07.12.03l1.11-.7a.1.1 0 0 1 .09 0 6 6 0 0 0 1 .13c.17-.01.34-.06.51-.15.08-.04.15-.1.24-.13.13-.06.28-.1.43-.13l.3-.04a1.32 1.32 0 0 0 .77-.48c.2-.22.37-.46.51-.72.06-.12.1-.22.13-.34v-.1l-.04-.05-.02-.02a.22.22 0 0 0-.1-.03.63.63 0 0 0-.56.3l-.13.18a.94.94 0 0 1-.38.28c-.36.15-.77.23-1.16.25-.12 0-.27 0-.39.03a5.42 5.42 0 0 1-.85.1c-.1.01-.1-.11-.01-.13a21.2 21.2 0 0 1 .96-.13.78.78 0 0 0 .16-.07c.17-.1.17-.26.09-.41a.14.14 0 0 0-.13-.09h-.06a12.31 12.31 0 0 0-1.1-.1c-.28.01-.54.1-.75.29a14.09 14.09 0 0 1-1.4 1.1Z"/><path d="M10.92 6.7a.77.77 0 0 1-.28.16c-.15.04-.3.08-.46.1a.05.05 0 0 0-.04-.03c-.09-.02-.13-.07-.19-.14a.33.33 0 0 1 .03-.04c.23-.24.5-.43.8-.64.03-.02.07-.07.04-.12-.03-.06-.09-.07-.14-.03a9.17 9.17 0 0 0-.75.59V6.4a2.35 2.35 0 0 1 .12-.33v-.01c.06-.11.12-.2.19-.26.1-.1.22-.15.37-.15h.2c.23-.03.4-.13.54-.3a.11.11 0 0 1 .04-.03c0 .13-.02.25-.04.37-.03.26-.08.5-.2.72-.06.1-.13.2-.23.3ZM8.89 6.97a81 81 0 0 0-.54-.28c-.04-.02-.09-.04-.13 0-.05.04-.06.1 0 .14l.14.07a11.16 11.16 0 0 1 .5.27l-.09.12-.2.03c-.17.03-.32.04-.46.03l-.23-.14a1.3 1.3 0 0 1-.24-.25c-.12-.14-.22-.3-.3-.46a16.13 16.13 0 0 1-.24-.4v-.02c0-.02.02-.02.05-.02H7.62c.22 0 .43 0 .65.07.1.03.21.08.3.15.2.17.33.42.32.69Z" fill="#8AC249"/></svg>