<!-- by TradingView --><svg width="18" height="18" viewBox="0 0 18 18" xmlns="http://www.w3.org/2000/svg"><path fill="#140958" d="M0 0h18v18H0z"/><path d="M15 11.52A6.56 6.56 0 0 1 10.67 13a6 6 0 0 0 2.3-2.62c1.14.16 1.83.84 2.03 1.15ZM3 11.52A6.56 6.56 0 0 0 7.33 13a6 6 0 0 1-2.3-2.62A2.95 2.95 0 0 0 3 11.53ZM6 7.54V6.25l.67.39v1.11L6 7.54ZM12 7.54V6.25l-.66.39v1.11l.66-.21ZM9 4a5.06 5.06 0 0 1 2 4.12A6.71 6.71 0 0 0 9 9.5a6.71 6.71 0 0 0-2-1.38C7 6.84 7.37 5.33 9 4Z" fill="#D2AB66"/><path d="M13 8.52C12.94 9.99 11.93 13 8.33 13c.25-2 1.2-4.73 4.67-4.48ZM5 8.51c1.87-.13 3 .61 3.67 1.62a5.86 5.86 0 0 0-.7 2.5C5.74 11.9 5.06 9.7 5 8.5Z" fill="#D2AB66"/></svg>