<!-- by TradingView --><svg width="56" height="56" viewBox="0 0 56 56" xmlns="http://www.w3.org/2000/svg"><path fill="#F0F3FA" d="M0 0h56v56H0z"/><path d="M47.07 28.93c0 .01 0 .02.02.03l.03-.01a14.13 14.13 0 0 1 2.38-2.73c1.1-.98 1.8-1.26 2.09-.84.11.17.1.67-.05 1.5a64.17 64.17 0 0 0-.55 3.43c-.04.4-.05.73-.04 1.01 0 .07.04.12.11.15s.13.01.18-.04l.45-.47c.06-.07.13-.07.2 0l.06.06c.07.07.07.15 0 .22l-.27.32c-.48.58-.89.97-1.21 1.18a1 1 0 0 1-.66.18c-.25-.03-.4-.2-.42-.5a5.8 5.8 0 0 1 .03-1.26c.04-.37.13-.94.27-1.73.18-.98.3-1.7.34-2.19.02-.2.01-.35-.02-.46a.2.2 0 0 0-.09-.13.18.18 0 0 0-.15-.01c-.17.05-.33.14-.47.28a9.13 9.13 0 0 0-1.6 2 7.7 7.7 0 0 0-.96 2.41l-.17.95c-.01.05-.04.08-.08.1l-1.42.62-.05-.01a.05.05 0 0 1-.02-.05c.31-1.58.62-3.48.92-5.69.09-.6.24-1.45.48-2.55a9.1 9.1 0 0 1 .56-1.8 6.4 6.4 0 0 1 1.98-2.5c.48-.36.86-.47 1.15-.36.07.03.12.09.16.16a.3.3 0 0 1 0 .23c-.02.05-.08.1-.19.16a5 5 0 0 1-.54.16c-.35.1-.7.58-1.03 1.43a12 12 0 0 0-.56 1.84 58.74 58.74 0 0 0-.86 4.9Z" fill="#515454"/><path d="M7.9 26.94c0 .04.01.06.05.06l2.93-.1c.07 0 .12-.04.15-.1l.3-.73c.03-.1.1-.16.2-.2l.13-.06c.03-.02.06-.01.08.01.03.03.04.06.03.1-.27.9-.46 1.83-.56 2.8a.42.42 0 0 1-.17.3l-.06.04a.08.08 0 0 1-.1.01.1.1 0 0 1-.05-.09v-1.15c0-.05-.02-.07-.07-.07l-2.9-.2c-.04 0-.06.01-.07.05a56.94 56.94 0 0 0-.46 4.62c0 .08.04.14.12.15l1.32.23a.1.1 0 0 1 .09.06c.01.03.02.07 0 .1l-.04.1c-.03.1-.1.14-.2.13a31.75 31.75 0 0 0-4.53-.01.08.08 0 0 1-.07-.04.09.09 0 0 1-.01-.09l.05-.13c.03-.07.08-.1.15-.12l1.14-.22c.07 0 .1-.05.12-.12a76.13 76.13 0 0 0 1.29-9.54c0-.08-.03-.12-.1-.14l-1.21-.2a.1.1 0 0 1-.09-.06.12.12 0 0 1 0-.11l.04-.1c.03-.09.1-.12.18-.12 1.05.1 2.2.15 3.44.14.9-.01 2.12-.06 3.66-.14.16 0 .26.08.31.26a38.53 38.53 0 0 1-.38 1.72c-.03.1-.1.19-.24.23a.1.1 0 0 1-.1-.02.1.1 0 0 1-.03-.08v-.59a.36.36 0 0 0-.2-.34 2.1 2.1 0 0 0-.74-.21c-.83-.1-1.7-.17-2.61-.21-.05 0-.08.02-.1.07a53.6 53.6 0 0 0-.7 4.11Z" fill="#1A94D0"/><path d="M31.53 25.24c1.1.13 1.85.1 2.24-.13a.12.12 0 0 1 .08-.01l.08.01c.04.03.06.06.07.1 0 .05 0 .1-.04.12-.6.64-1.47.91-2.6.83-.04 0-.07.01-.07.05a37.66 37.66 0 0 0-.62 4.02c-.04.4-.05.7-.02.85.01.08.03.13.04.15.08.12.18.13.32.06.26-.14.45-.32.59-.52a.17.17 0 0 1 .13-.09c.06 0 .11.01.15.06l.07.07c.08.07.08.15.01.23-.46.53-.9.98-1.32 1.33-.38.33-.76.53-1.14.6-.52.11-.76-.15-.72-.77a50.8 50.8 0 0 1 .9-6.03c.02-.06 0-.09-.07-.09-.4 0-.9.09-1.48.26h-.08a.15.15 0 0 1-.05-.14c.01-.06.04-.1.09-.12a14.92 14.92 0 0 0 3.77-3.03c.05-.06.1-.07.18-.02.06.04.08.1.05.17a9.6 9.6 0 0 0-.62 1.96c0 .05.01.07.06.08ZM43.83 30.73c-.76 1-1.7 1.73-2.83 2.18-.19.07-.46.1-.83.08-.85-.04-1.24-.73-1.16-2.08.05-.87.21-1.68.48-2.42.3-.83.73-1.51 1.26-2.03.5-.49 1.03-.87 1.6-1.15.77-.37 1.37-.4 1.8-.12.4.27.46.58.17.93-.17.22-.47.44-.87.66-.05.02-.08.01-.11-.02-.13-.16-.28-.3-.46-.45-.43-.33-.8-.33-1.14-.02-.24.22-.44.59-.62 1.1-.3.92-.45 1.9-.43 2.96.02.84.28 1.3.8 1.36.3.04.67-.1 1.1-.42.32-.23.63-.52.9-.87.06-.06.12-.06.17 0l.17.16c.04.05.04.1 0 .15Z" fill="#515454"/><path d="M18.9 25c.04 0 .06.02.05.06A32.98 32.98 0 0 0 18 29.8a6.93 6.93 0 0 0-.05 1.58c.06.1.15.13.26.08.17-.09.32-.21.43-.38.08-.1.17-.13.27-.05h.01c.04.03.07.07.08.12 0 .06 0 .1-.04.15a6.5 6.5 0 0 1-1.69 1.55c-.25.15-.48.2-.68.13-.23-.07-.35-.27-.36-.58 0-.44.03-.94.12-1.5a154.65 154.65 0 0 1 .25-1.57h-.03c-.77 1.27-1.69 2.31-2.77 3.14-.41.33-.78.5-1.09.53-.43.04-.66-.24-.7-.85-.05-.9.03-1.76.25-2.6a6.8 6.8 0 0 1 1.01-2.23 5.32 5.32 0 0 1 4.2-2.27L18.9 25Zm-2.35 1.02a3.56 3.56 0 0 0-.87 0c-.59.12-1 .46-1.23 1a11.1 11.1 0 0 0-.87 4.28c0 .33.14.46.44.38.3-.07.7-.45 1.21-1.12a10.9 10.9 0 0 0 1.98-4.47c0-.03 0-.05-.04-.05-.13 0-.34 0-.62-.02Z" fill="#1A94D0"/><path d="M37.26 25c.36-.02.64.03.86.18.19.13.3.32.36.57.04.23.02.48-.07.74-.09.27-.23.5-.42.7-.8.86-1.8 1.38-3.02 1.58-.04 0-.07.03-.07.08-.26 1.17-.26 1.96-.02 2.37.3.5.75.59 1.36.26.38-.2.81-.56 1.28-1.07.07-.08.15-.08.22 0l.1.1c.07.06.07.13.02.2a7.33 7.33 0 0 1-1.7 1.6c-.82.54-1.51.77-2.09.67-.78-.14-1.13-.81-1.06-2.01.06-1.08.34-2.13.82-3.15a5.18 5.18 0 0 1 2.4-2.46c.41-.21.76-.33 1.03-.35Zm-.74.93c-.23-.06-.46.02-.67.25-.38.41-.66 1.1-.85 2.08-.01.04 0 .06.05.06.51-.02.95-.19 1.3-.5.4-.35.57-.78.55-1.29-.02-.33-.15-.53-.38-.6Z" fill="#515454"/><path d="M24.3 20.2c.43-.22.76-.25.99-.12.1.06.12.13.08.22-.05.12-.21.22-.48.29a1.2 1.2 0 0 0-.34.12c-.38.25-.7.7-.97 1.37-.29.72-.53 1.52-.71 2.41a52.25 52.25 0 0 0-.67 4h.04c.81-1.1 1.59-1.93 2.33-2.51a3.1 3.1 0 0 1 1.56-.77c.27-.02.48.08.64.31.12.19.2.43.22.73a6.27 6.27 0 0 1-.56 3.04 6.93 6.93 0 0 1-1.88 2.45 5.1 5.1 0 0 1-4.49 1.14c-.05 0-.07-.04-.05-.1.17-.54.3-1.05.38-1.54.1-.54.21-1.37.35-2.5.13-1.03.23-1.81.32-2.33.14-.86.3-1.63.49-2.3.36-1.3 1-2.4 1.88-3.3.24-.24.53-.45.88-.62Zm.6 6.16c-.06 0-.14.03-.24.1-.26.17-.47.34-.62.5a8.2 8.2 0 0 0-2.25 4.87c0 .06.02.1.08.1 1.4.27 2.33-.14 2.79-1.24.38-.91.59-1.89.61-2.93v-.14c.02-.45 0-.78-.04-.99-.05-.18-.15-.27-.32-.27Z" fill="#1A94D0"/></svg>