<!-- by TradingView --><svg width="18" height="18" viewBox="0 0 18 18" xmlns="http://www.w3.org/2000/svg"><path fill="url(#aeqslzvea)" d="M0 0h18v18H0z"/><path fill-rule="evenodd" d="M5.18 7H2v4h1V9.67h1.47L5.33 11h1.3L5.7 9.56A1.33 1.33 0 0 0 5.18 7Zm-.22.8H3v1h1.96a.5.5 0 0 0 0-1Z" fill="#fff"/><path d="M7.44 7H7v4h4v-.86H8v-.71h2.27v-.86H8v-.71h3V7H7.44ZM11.63 7.83V7h.87l1.32 1.21L15.13 7H16v.83l-1.3 1.19 1.3 1.2V11h-.89l-1.3-1.18-1.3 1.18h-.88v-.78l1.3-1.2-1.3-1.2Z" fill="#fff"/><defs><linearGradient id="aeqslzvea" x1="9" y1="0" x2="9" y2="18" gradientUnits="userSpaceOnUse"><stop stop-color="#3102AA"/><stop offset="1" stop-color="#200F46"/></linearGradient></defs></svg>