<!-- by TradingView --><svg width="18" height="18" viewBox="0 0 18 18" xmlns="http://www.w3.org/2000/svg"><path fill="#F0F3FA" d="M0 0h18v18H0z"/><path d="M9.63 11.5a388.15 388.15 0 0 0 0-2.52 2.81 2.81 0 0 0-.76-1.87l.01-.01.02-.02a3.77 3.77 0 0 1 2.22-1.05c.7-.08 1.35.02 1.98.29.62.27 1.11.68 1.46 1.21a2.7 2.7 0 0 1 .37 2.09l-.01-.02H11.2l-.01.02V8.4h2.03v-.01c-.2-.37-.5-.66-.9-.83a2.02 2.02 0 0 0-2.04.3c-.22.19-.38.4-.47.65a1.46 1.46 0 0 0 .25 1.41c.18.22.4.38.68.5a2.04 2.04 0 0 0 2.1-.3 2771.9 2771.9 0 0 1 1.91-.01 3.18 3.18 0 0 1-1.52 1.51c-.46.23-.96.35-1.51.38a3.78 3.78 0 0 1-2.09-.5Z" fill="#51BB7B"/><path d="M8.92 7.11a2.84 2.84 0 0 1 .74 1.87v2.52a.28.28 0 0 1-.1-.06 3.18 3.18 0 0 1-1-1.01A2.67 2.67 0 0 1 8.2 8.6a2.77 2.77 0 0 1 .72-1.49Z" fill="#0098DB"/><path d="M6.08 6.01a3.65 3.65 0 0 1 2.64.9l.2.2c-.06.06-.1.1-.11.13a2.77 2.77 0 0 0-.23 3.18 3.17 3.17 0 0 0 1.09 1.08v.5H8.07v-.44h-.01a3.64 3.64 0 0 1-3.57-.06A3.1 3.1 0 0 1 3.2 10a2.7 2.7 0 0 1 .42-2.74c.3-.37.66-.67 1.1-.89.42-.2.88-.33 1.36-.36Zm.74 1.44a2.16 2.16 0 0 0-.92.02c-.3.07-.56.21-.79.4-.29.26-.46.57-.5.94-.05.36.03.7.24 1 .25.37.6.6 1.05.71a1.91 1.91 0 0 0 1.89-.56c.16-.18.26-.38.32-.61.03-.1.04-.2.03-.32-.03-.4-.15-.74-.36-1-.23-.3-.55-.5-.96-.58Z" fill="#016DB5"/></svg>