<!-- by TradingView --><svg width="56" height="56" viewBox="0 0 56 56" xmlns="http://www.w3.org/2000/svg"><path fill="#F0F3FA" d="M0 0h56v56H0z"/><path d="m33.63 23.31.01.11c-.04.06-.09.1-.14.13-.28.16-.32.12-.1-.12.05-.05.12-.1.23-.12Z" fill="#BCBCBC"/><path d="M35.6 19.16a6.36 6.36 0 0 1-1.97 4.15c-1.2.3-2.53 1.43-3.58 2.05-.59.36-.7.75-.31 1.19.37.43.8.4 1.27-.08 1.95-2.02 2.89-3.07 2.81-3.16 2.99-1.92 5.68-1.7 8.07.65 1.24 1.22 1.94 2.9 2.09 5.06.02.24.02.5.02.75-.04 3.9-2.42 8.25-6.65 8.53-2.08.14-3.8-.1-5.33-1.65a6.86 6.86 0 0 1-1.9-3.4l-.37-1.55c-.19-.7-.36-.7-.52.01-.39 1.66-.3 3.2.23 4.63.35.93 1.3 1.95 1.82 2.74 1.02 1.54 1.37 3.24.26 4.92a4.26 4.26 0 0 1-5.6 1.5c-1.67-.88-2.34-2.45-1.99-4.7.18-1.1 1.23-2.09 1.94-2.92.74-.86 1.13-1.31 1.3-2.55.16-1.1.15-2.27-.02-3.54-.02-.17-.18-.2-.32-.25-.13-.05-.2 0-.2.13a8.47 8.47 0 0 1-2.53 5.74 5.8 5.8 0 0 1-3.27 1.6c-1.2.21-2.36.14-3.5-.2-2.58-.79-4.3-2.6-5.14-5.46a9.74 9.74 0 0 1-.2-2.22 7.26 7.26 0 0 1 7.36-7.95 6 6 0 0 1 4.76 2.11c.36.42.73.87 1.12 1.36.15.2.32.33.49.36.6.11.82-.1.68-.63a.47.47 0 0 0-.2-.27l-3.01-1.88c-2.16-1.34-3.1-3.3-3.07-5.85a7.23 7.23 0 0 1 3.63-6.28 7.51 7.51 0 0 1 3.98-1.1c3.7-.03 7.58 2.24 7.84 6.15a14 14 0 0 1 0 2.01ZM27.9 31.3c.06 1.4.03 2.8-.08 4.2-.06.77-.25 1.4-.59 1.91-.81 1.25-2.25 2.45-2.61 3.92-.22.9.01 1.71.7 2.47a3.53 3.53 0 0 0 6.02-1.08c.55-1.33-1.11-3.63-2.1-5.24-1.04-1.72-.93-3.07-.77-5.15.06-.78.28-1.53.8-2.12.3-.36.9-.24 1.06.2.27.74.46 1.37.56 1.88.17.8.39 1.4.66 1.8 2.18 3.25 5.74 4.16 8.93 1.66a6.75 6.75 0 0 0 2.66-6.5 7.12 7.12 0 0 0-.92-2.86c-1.34-2.24-4.06-3.57-6.57-2.61a8.5 8.5 0 0 0-3.5 2.28 5.65 5.65 0 0 1-1.45 1.31c-.71.38-1.27.34-1.68-.13-.76-.84-.34-1.73.47-2.3.82-.56 2.37-1.24 3.18-2.04a6.01 6.01 0 0 0 1.4-6.89c-1.2-2.9-4.56-4.83-7.62-3.95-3.48.99-5.17 3.34-5.08 7.06a5.15 5.15 0 0 0 2.31 4.25l2.7 1.92c.26.18.5.65.7 1.4.03.13 0 .25-.07.37-.31.52-.75.76-1.31.72-.31-.02-.68-.24-1.1-.65-1.57-1.54-2.19-2.29-4.24-2.75-3.84-.84-7.47 2.76-7.68 6.44a6.16 6.16 0 0 0 1.99 5.04c1.54 1.48 3.17 2.17 4.88 2.09a6.75 6.75 0 0 0 4.74-2.45 5.29 5.29 0 0 0 1.26-2.76l.35-1.9c.07-.4.51-.63.87-.46.26.12.8.54 1.12.91Z" fill="#201E1D"/><path d="M27.99 31.43c-.03-.1-.1-.16-.23-.17a2.22 2.22 0 0 0-.81-1.42.97.97 0 0 0-.82-.16c-.85.2-.91 1.33-1.2 2.24-.74 2.3-2.61 2.61-4.33 1.32l-1.17-.89c-.2-.4-.62-.72-1.27-.94a.26.26 0 0 1-.07-.44 6.4 6.4 0 0 0 1.55-2.13c.71-1.46 2.35-2.74 3.76-1.45.53.47 1 .92 1.4 1.33.15.15 1.76-.6 2.01-.8 2.03-1.7-.14-3.2-1.36-4.29-1.63-1.45-1.31-3.2-.26-4.87.14-.2.48-.62 1.05-1.27a7.7 7.7 0 0 0 1.55-2.47.1.1 0 0 1 .12 0l.04.05c.57 1.5 1.39 2.24 2.33 3.54.46.63.71 1.3.75 2.04.05 1.13-.26 2.02-.94 2.66a9.9 9.9 0 0 0-1.67 1.92c-.45.71-.43 1.86.32 2.47 1.97 1.58 2.83-1.39 4.4-1.6 1.2-.15 2.14.12 2.8.83 1.23 1.3 1.44 2.48 2.94 3.34.16.1.16.18.01.27-.35.21-.8.26-1.16.52-.87.62-1.75 1.2-2.64 1.74-1.06.65-2.07.66-3.04.04-.82-.53-1.02-1.46-1.48-2.72-.06-.17-.21-.37-.45-.6-.19-.2-.4-.25-.64-.17-.43.15-.7.35-.78.6a6.6 6.6 0 0 1-.71 1.48ZM27.94 38.06a.3.3 0 0 1 .45.1l1.03 1.93c.41.8.6 1.48.58 2.03-.1 1.72-1.3 1.97-2.73 1.86a1.31 1.31 0 0 1-1.23-1.17c-.15-.97.1-1.86.77-2.66.43-.53.66-1.72 1.13-2.09Z" fill="#367C38"/></svg>