<!-- by TradingView --><svg width="56" height="56" viewBox="0 0 56 56" xmlns="http://www.w3.org/2000/svg"><path fill="#F0F3FA" d="M0 0h56v56H0z"/><path d="M11.65 30.8c-.99.04-1.65.06-2 .06a.4.4 0 0 1-.38-.25.39.39 0 0 1 .1-.44c.07-.07.15-.11.23-.14l1.77-.66c.04-.01.05-.04.05-.07l-.05-.51c0-.04-.02-.06-.06-.07l-1.9-.3a.52.52 0 0 1-.3-.15A.38.38 0 0 1 9 28c0-.1.04-.19.1-.27a.52.52 0 0 1 .32-.15l1.9-.31c.03 0 .05-.03.05-.06l.05-.53c0-.02 0-.04-.03-.05l-1.82-.68a.52.52 0 0 1-.27-.21.37.37 0 0 1-.05-.28c.02-.1.07-.17.15-.23.09-.07.2-.1.33-.1l1.93.07c.04 0 .06-.02.07-.05l.15-.5c0-.04 0-.06-.03-.08l-1.62-1a.53.53 0 0 1-.23-.25.4.4 0 0 1 0-.29c.03-.1.09-.16.17-.21.1-.05.21-.06.34-.03l1.9.44c.03.01.05 0 .07-.03l.25-.46c.01-.03.01-.06-.01-.08l-1.36-1.26a.7.7 0 0 1-.21-.32.34.34 0 0 1 .09-.34c.14-.16.32-.18.54-.08l1.74.78c.04.02.07.01.1-.02l.31-.39c.03-.03.03-.06 0-.1l-1.1-1.53a.53.53 0 0 1-.12-.33.39.39 0 0 1 .37-.38c.12 0 .23.03.34.1L15 19.94h.04l.43-.35c.02-.02.03-.04.01-.07a844 844 0 0 1-.81-1.78.47.47 0 0 1-.04-.18c0-.08.01-.14.03-.18a.4.4 0 0 1 .15-.18.36.36 0 0 1 .19-.07c.07 0 .13.01.2.05.07.03.13.07.19.13l1.32 1.4c.01.02.03.03.05.01l.48-.25c.03-.02.04-.04.04-.07-.16-.63-.3-1.26-.45-1.9a.46.46 0 0 1 .03-.32.38.38 0 0 1 .2-.18.4.4 0 0 1 .29 0c.1.03.19.1.25.2l1.02 1.64c.02.03.04.04.07.03l.52-.15c.03-.01.04-.03.04-.06l-.07-1.9c0-.13.03-.24.1-.34a.38.38 0 0 1 .23-.16c.1-.02.19 0 .28.04.1.06.17.16.22.29l.67 1.77c.01.04.04.05.07.05l.53-.05c.03 0 .05-.02.06-.05l.3-1.9a.48.48 0 0 1 .16-.3.4.4 0 0 1 .26-.1c.1 0 .19.03.27.1.08.07.13.16.15.29l.31 1.9c.01.04.03.05.06.06l.51.05c.02 0 .04 0 .06-.02a181.84 181.84 0 0 1 .7-1.84c.05-.11.12-.2.22-.25a.4.4 0 0 1 .51.11c.07.09.1.2.1.33l-.07 1.92c0 .03.01.04.04.05l.52.16c.03 0 .05 0 .07-.03.3-.5.65-1.06 1.03-1.65.06-.1.15-.17.25-.2a.4.4 0 0 1 .27 0c.1.05.16.1.2.2.06.09.07.2.04.31l-.44 1.9c-.01.03 0 .05.03.07l.47.24c.03.02.05.02.07 0l1.3-1.4c.1-.1.2-.15.31-.17.1-.02.2 0 .28.05.09.05.14.13.17.22a.5.5 0 0 1-.04.35 239.31 239.31 0 0 1-.8 1.79c0 .02.02.04.04.06l.38.3c.03.03.06.03.1.01l1.47-1.06a.76.76 0 0 1 .35-.15c.14-.02.25.02.33.13.14.17.13.36-.02.57l-1.12 1.55c-.02.02-.02.04 0 .05l.35.43c.02.02.04.03.07.02l1.74-.8c.1-.04.21-.06.32-.04.12.01.2.06.27.15.07.1.09.22.05.33-.03.1-.09.2-.19.29l-1.13 1.05a.2.2 0 0 1-.15.06h-2.97a.1.1 0 0 1-.07-.03 8.65 8.65 0 0 0-5.23-2.82 8.56 8.56 0 0 0-7.17 2.39 8.58 8.58 0 0 0-2.45 5.17 8.4 8.4 0 0 0 5.36 8.65 8.35 8.35 0 0 0 5.08.34 8.5 8.5 0 0 0 4.37-2.62.2.2 0 0 1 .15-.06h2.91c.07 0 .13.02.19.07l1.18 1.1c.04.04.08.1.1.15.02.06.03.12.03.19 0 .14-.06.24-.18.3a.48.48 0 0 1-.45.02l-1.75-.79c-.04-.02-.07 0-.1.02l-.32.4c-.02.03-.02.06 0 .09l1.12 1.54c.07.1.11.22.1.33 0 .1-.04.19-.1.26a.37.37 0 0 1-.26.11.53.53 0 0 1-.34-.1l-1.55-1.12c-.03-.02-.06-.02-.08 0l-.42.34c-.02.02-.03.04-.02.06l.8 1.73c.05.13.07.25.04.36a.38.38 0 0 1-.44.3.56.56 0 0 1-.31-.19 300 300 0 0 0-1.3-1.38c-.02-.03-.05-.03-.07-.02l-.46.24c-.04.02-.05.06-.04.1l.44 1.85c.05.25-.02.42-.21.53a.34.34 0 0 1-.35 0 .73.73 0 0 1-.26-.27l-.98-1.58c-.02-.02-.03-.03-.05-.02l-.52.15c-.04.01-.05.03-.05.07l.07 1.94c0 .12-.03.22-.1.3a.4.4 0 0 1-.23.16c-.1.02-.19 0-.28-.04a.45.45 0 0 1-.2-.25l-.69-1.82c-.01-.04-.04-.05-.08-.05l-.5.05c-.04 0-.07.02-.07.06l-.3 1.83a.62.62 0 0 1-.14.33.42.42 0 0 1-.22.13.35.35 0 0 1-.21-.02.42.42 0 0 1-.18-.13.5.5 0 0 1-.1-.23l-.31-1.9c0-.05-.03-.07-.07-.07l-.5-.05c-.05 0-.08.01-.09.05l-.67 1.8a.5.5 0 0 1-.22.27.37.37 0 0 1-.28.04.4.4 0 0 1-.23-.17.54.54 0 0 1-.1-.34l.07-1.89c0-.04-.02-.06-.05-.07l-.5-.15c-.04 0-.06 0-.08.03L17.6 39.8a.5.5 0 0 1-.26.23.36.36 0 0 1-.28-.02.4.4 0 0 1-.2-.22.57.57 0 0 1-.02-.36c.15-.61.3-1.23.43-1.84.01-.02 0-.04-.02-.06l-.49-.25h-.05l-1.33 1.42c-.09.1-.19.15-.3.17-.1.01-.2 0-.27-.06a.39.39 0 0 1-.17-.23.48.48 0 0 1 .04-.33l.8-1.77c.02-.03.01-.05-.01-.07l-.4-.33c-.03-.02-.06-.02-.09 0l-1.57 1.12a.5.5 0 0 1-.33.1.38.38 0 0 1-.25-.11.39.39 0 0 1-.12-.26.5.5 0 0 1 .1-.32l1.14-1.58c.02-.02.02-.04 0-.06l-.35-.42c-.01-.02-.03-.02-.05-.01-.6.26-1.16.52-1.71.78a.62.62 0 0 1-.38.06.4.4 0 0 1-.26-.15.35.35 0 0 1-.07-.28.56.56 0 0 1 .2-.32l1.38-1.28c.03-.03.04-.07.02-.1l-.24-.45c-.02-.03-.04-.04-.08-.03l-1.8.42a.66.66 0 0 1-.4-.01.4.4 0 0 1-.2-.15.35.35 0 0 1-.04-.21c0-.08.02-.15.06-.21.05-.07.1-.13.17-.17l1.65-1.01c.03-.02.04-.05.03-.09l-.15-.48c-.01-.04-.04-.06-.08-.06Z" fill="#951A1D"/><path d="M22.5 24h-.89a.8.8 0 0 0 .03-.2c.01-.1.02-.18.05-.22.03-.06.1-.1.2-.11.03 0 .04-.03.04-.06l.03-.72a.1.1 0 0 0-.04-.08l-.52-.36c-.11-.08-.1-.12.03-.13l.49.01c.02 0 .04 0 .06-.03a.08.08 0 0 0 .02-.06.4.4 0 0 1 .02-.24c.02-.05.05-.06.08 0 .04.06.05.13.04.21 0 .08.02.12.1.12l.4-.01c.18 0 .2.04.05.15l-.47.33a.1.1 0 0 0-.05.1l.04.7c0 .04.02.06.05.06.1 0 .16.05.2.13.01.05.03.13.03.25V24ZM23.53 25H20.6a.16.16 0 0 0-.16.15v.07c0 .08.07.15.16.15h2.93c.09 0 .16-.07.16-.15v-.07a.16.16 0 0 0-.16-.15Z" fill="#1F9DCB"/><path d="M24.71 24.13a.4.4 0 0 0-.27-.13h-4.59a.7.7 0 0 0-.4.1c-.1.06-.14.17-.14.33v.64c0 .13.02.23.07.3.06.1.15.15.28.17.03 0 .05.03.05.06v1.69c0 .03-.01.05-.04.06l-1.6.73c-.13.05-.15.13-.09.24a607.27 607.27 0 0 1 1.78 3.04c.04.03.1.04.16.03.28-.07.56-.19.85-.37a.25.25 0 0 1 .25 0l.61.29c.24.1.49.11.75.04.18-.05.41-.16.7-.33.11-.06.2-.07.28-.02.27.18.54.3.84.38.1.03.18 0 .23-.09l1.73-2.97c.06-.1.03-.19-.09-.24l-1.6-.73c-.04-.01-.05-.03-.05-.06V25.6c0-.03.02-.05.06-.06a.38.38 0 0 0 .28-.16c.05-.09.08-.2.07-.33v-.65c0-.1-.04-.2-.12-.27Zm-2.4 2.23a.47.47 0 0 0-.4 0 2352.82 2352.82 0 0 1-1.68.73 74.07 74.07 0 0 0-.02-1.6c0-.25-.13-.4-.4-.43v-.55l.01-.02h4.54c.03 0 .04.02.04.04v.5c0 .02-.01.04-.04.04a.42.42 0 0 0-.27.13.39.39 0 0 0-.09.28v1.6c0 .02-.02.03-.05.02l-1.64-.74Zm.04 1.61a.15.15 0 0 0-.06.11l-.19 3.09c0 .01 0 .02-.02.02-.01 0-.02 0-.02-.02a487.27 487.27 0 0 1-.22-3.16c-.03-.05-.08-.07-.13-.06a555.28 555.28 0 0 0-3.14.7v-.02l3.24-1.19.24-.06c.07 0 .15 0 .23.04a471.36 471.36 0 0 0 3.3 1.23h-.01l-3.13-.7a.1.1 0 0 0-.1.02Z" fill="#005FAC"/><path fill-rule="evenodd" d="m20.35 32.54-.57-.28c-.04-.02-.03-.03 0-.04.34-.04.67-.17 1-.39a.23.23 0 0 1 .12-.04c.05 0 .09.01.13.04.2.13.42.24.64.32.3.1.6.1.9-.04l.59-.31c.05-.03.1-.03.15 0a3 3 0 0 0 .71.36c.28.08.54.07.8-.02.22-.09.43-.2.63-.32a.17.17 0 0 1 .2 0c.16.1.33.19.52.27.33.17.67.17 1.02.03.19-.08.36-.17.53-.28a.34.34 0 0 0 .16-.3v-.06c0-.13-.06-.16-.17-.1-.15.1-.3.2-.45.26a1.2 1.2 0 0 1-.8.09 2.6 2.6 0 0 1-.75-.35.29.29 0 0 0-.15-.04c-.06 0-.1.01-.16.04-.16.1-.3.18-.42.23-.14.07-.28.12-.4.14a1.3 1.3 0 0 1-.9-.2 4.83 4.83 0 0 0-.37-.2.18.18 0 0 0-.18.01l-.55.3c-.25.1-.5.13-.76.08-.21-.05-.45-.16-.72-.33a.4.4 0 0 0-.16-.06.24.24 0 0 0-.17.03 3.4 3.4 0 0 1-.69.33c-.2.07-.42.07-.68 0-.2-.06-.41-.16-.63-.3-.12-.09-.24-.09-.35-.02-.45.28-.81.4-1.1.38a2.21 2.21 0 0 1-.9-.38c-.11-.07-.17-.04-.17.09v.06c0 .13.06.23.17.3.32.2.6.33.84.36.2.03.4 0 .62-.08.14-.05.33-.15.58-.3h.02a.2.2 0 0 1 .11-.03.2.2 0 0 1 .12.04c.31.22.64.35.96.4.04 0 .04 0 0 .03-.23.15-.48.27-.73.36-.22.09-.46.09-.72 0-.18-.05-.4-.16-.68-.32-.08-.06-.13-.03-.12.07v.14c0 .1.05.17.13.23.23.16.48.28.76.36.2.05.42.05.66-.03.18-.06.39-.16.61-.3.11-.07.2-.07.29-.02a2.62 2.62 0 0 0 .97.41v.02c-.2.12-.42.23-.65.33-.24.1-.5.12-.76.04a3.2 3.2 0 0 1-.7-.33c-.11-.07-.17-.03-.16.1v.06c0 .14.07.24.18.31.22.15.46.26.7.33.2.06.43.05.68-.03.19-.06.4-.17.63-.32.1-.06.2-.06.28 0 .29.19.54.3.77.35.27.06.55.03.83-.1.16-.08.32-.16.47-.26a.22.22 0 0 1 .11-.03c.05 0 .09 0 .12.03.3.17.53.29.7.34.26.08.5.08.74-.01l.04-.02c.24-.09.4-.17.51-.24.19-.13.27-.28.24-.46a.08.08 0 0 0-.05-.06.08.08 0 0 0-.08 0c-.17.1-.3.17-.4.21a2 2 0 0 1-.4.15c-.3.07-.58.03-.85-.13a4.6 4.6 0 0 0-.48-.25c-.04-.02-.04-.03 0-.04.36-.07.67-.2.95-.4a.2.2 0 0 1 .12-.04.2.2 0 0 1 .12.03c.22.15.47.26.73.35.19.06.37.08.53.03.31-.07.58-.2.81-.37.1-.07.16-.17.16-.3v-.04c0-.12-.04-.16-.15-.1l-.4.2c-.29.16-.58.2-.87.14a1.85 1.85 0 0 1-.4-.15l-.4-.22a.2.2 0 0 0-.22 0c-.21.13-.44.24-.67.33-.23.1-.48.1-.75.02-.17-.06-.4-.17-.7-.35a.2.2 0 0 0-.2 0l-.05.03-.38.2c-.14.06-.26.11-.37.14-.28.06-.55.03-.82-.1Zm1.54 1.04c.28.05.57 0 .86-.18a4.13 4.13 0 0 1 .43-.23l-.02-.02a2.68 2.68 0 0 1-.95-.4.24.24 0 0 0-.27 0c-.28.19-.6.32-.93.4-.05 0-.05.02 0 .05a11.15 11.15 0 0 1 .5.26c.14.06.27.1.38.12Z" fill="#1F9DCB"/><path d="M34 30v-5h1.3l1.16 3.82L37.65 25H39v5h-1v-3.9L36.92 30H36L35 26.1V30h-1Zm-4 0v-5h1v2.26l1.68-2.23h1.1l-1.65 2.16L33.8 30h-1.11l-1.24-2.13-.44.35V30h-1Zm10 0v-5h3v1h-2v1h2v1h-2v1h2v1h-3Zm3.5-5 1.22 5h1.15l.87-3.66.87 3.66h1.15L50 25h-1l-.84 3.93L47.2 25h-.92l-.93 3.93L44.5 25h-.99Z" fill="#0061AF"/><path d="M34 30v5h1.3l1.16-3.82L37.65 35H39v-5h-1v3.9L36.92 30H36L35 33.9V30h-1Zm-4-.03v5h1v-2.23l1.68 2.23h1.1l-1.65-2.16L33.8 30h-1.11l-1.24 2.13-.44-.35v-1.8h-1ZM40 30v5h3v-1h-1.89v-1H43v-1h-1.89v-1H43v-1h-3Zm3.5 5 1.22-5h1.15l.87 3.66.87-3.66h1.15L50 35h-1l-.84-3.93L47.2 35h-.92l-.93-3.93L44.5 35h-.99Z" fill="url(#aiuipk044)"/><defs><linearGradient id="aiuipk044" x1="45.71" y1="23.55" x2="45.75" y2="35" gradientUnits="userSpaceOnUse"><stop offset=".43" stop-color="#0061AF"/><stop offset=".88" stop-color="#008DFF" stop-opacity="0"/></linearGradient></defs></svg>