<!-- by TradingView --><svg width="18" height="18" viewBox="0 0 18 18" xmlns="http://www.w3.org/2000/svg"><path fill="url(#a)" d="M0 0h18v18H0z"/><path d="M9.66 9.62v.1A134.25 134.25 0 0 0 9.05 12c-.03-.02-.05-.06-.07-.13A2879.16 2879.16 0 0 0 7.51 6h1.11c.02 0 .04.01.05.04l.99 3.58Z" fill="#fff"/><path d="m12.82 9.7.48 2.1.02.2h-1.13c-.02 0-.03 0-.03-.03l-.89-3.6h-.02l-.91 3.6c0 .02-.02.03-.03.03H9.05c0-.07.02-.13.03-.18l.58-2.1v-.1c.02 0 .03 0 .03-.02A2647.86 2647.86 0 0 1 10.71 6h1.2v.01l.91 3.7Z" fill="#FAD604"/><path d="m13.31 12-.01-.2-.48-2.1 1.03-3.68c0-.01 0-.02.02-.02h1.1s.02 0 .02.02v.03l-1.5 5.91c0 .02 0 .03-.02.03h-.16ZM6.45 7.72h-.02a2.35 2.35 0 0 0-1.5-.42.73.73 0 0 0-.37.14c-.14.1-.2.24-.18.41.02.15.1.26.24.32.24.1.55.2.93.3.12.02.32.1.61.22a1.47 1.47 0 0 1 .82.91c.1.4.1.78-.02 1.14-.11.36-.31.64-.6.85-.29.21-.6.34-.95.38-.5.06-.98.03-1.45-.11-.35-.1-.66-.25-.93-.45-.03-.02-.04-.05-.02-.09l.4-1.12c0-.01.02-.02.04 0 .6.44 1.23.61 1.91.5.1-.01.19-.06.27-.15.07-.07.1-.16.11-.26 0-.11-.02-.2-.08-.27a1 1 0 0 0-.46-.25l-.25-.08c-.3-.08-.61-.17-.9-.28-.21-.08-.4-.2-.55-.35a1.4 1.4 0 0 1-.36-.6 2.23 2.23 0 0 1-.04-.95 1.73 1.73 0 0 1 1.17-1.35 3.11 3.11 0 0 1 2.57.36v.02l-.4 1.18Z" fill="#fff"/><defs><linearGradient id="a" x1="3.35" y1="3.12" x2="21.9" y2="24.43" gradientUnits="userSpaceOnUse"><stop stop-color="#1A1E21"/><stop offset="1" stop-color="#06060A"/></linearGradient></defs></svg>