<!-- by TradingView --><svg width="56" height="56" viewBox="0 0 56 56" xmlns="http://www.w3.org/2000/svg"><path fill="#F0F3FA" d="M0 0h56v56H0z"/><path d="M22.35 23.46c2.41-1.94 4.64-2.07 5.45-1.9-6.72-5.02-11.15-1.39-12.57.2-1.42 1.59-2.23 2.77-2.23 5.77 0 2.4 1.31 3.9 1.97 4.34 3.45-1.36 9.75-3.92 7.28-3.27-3.07.82-2.91-2.71.1-5.14Z" fill="url(#a)"/><path d="m27.87 45-6.81-4.4c8.61-2.13 12.5-6.88 13.55-8.6.83-1.38-.18-1.16-.8-.88.16-1.49 1.26-4.38 4.36-4.04 3.11.33 3.3 4.24 3.01 6.15-.4.88-2.08 3.36-5.45 6.24A50.31 50.31 0 0 1 27.87 45Z" fill="url(#b)"/><path d="M14.9 33.83a16.78 16.78 0 0 1-1.8-5.02c4 3 9.68-.51 10.35-.98.68-.47 2.59-2.09 5.3-4.01 2.72-1.93 5.66-3.68 8.46-3.68C40 20.14 43 22.41 43 26.6c0 3.36-1.4 6.12-2.1 7.09 0-1.8-1.1-3.92-3.01-3.92a8.6 8.6 0 0 0-3.75 1.04 64.5 64.5 0 0 1-7.53 4.88c-3.12 1.59-5.32 2.4-6.74 2.39-1.43-.02-3.44-1.33-4.97-4.25Z" fill="url(#c)"/><ellipse cx="28" cy="14.94" rx="4" ry="3.94" fill="#5AA145"/><defs><linearGradient id="a" x1="23.33" y1="26.26" x2="14.72" y2="21.71" gradientUnits="userSpaceOnUse"><stop stop-color="#A7D8DD"/><stop offset="1" stop-color="#49B7C6"/></linearGradient><linearGradient id="b" x1="40.42" y1="33.04" x2="21.89" y2="38.69" gradientUnits="userSpaceOnUse"><stop stop-color="#37B4BE"/><stop offset="1" stop-color="#9CD3D8"/></linearGradient><linearGradient id="c" x1="15.48" y1="33.92" x2="42.26" y2="33.92" gradientUnits="userSpaceOnUse"><stop stop-color="#1C7C3D"/><stop offset=".44" stop-color="#5F9C3F"/><stop offset="1" stop-color="#87B93C"/></linearGradient></defs></svg>