<!-- by TradingView --><svg width="18" height="18" viewBox="0 0 18 18" xmlns="http://www.w3.org/2000/svg"><path fill="#F0F3FA" d="M0 0h18v18H0z"/><path d="M8.86 14c-.16 0-.32 0-.48-.02V4.07l.02-.01.46-.51V14Zm.66-9.94.93 1.04a32.6 32.6 0 0 1 .65.8c.25.33.5.68.73 1.04v.02c.87 1.36 1.5 3 .98 4.57a3.58 3.58 0 0 1-1.44 1.8c-.69.45-1.5.69-2.35.67H9V3.5l.52.56Zm-1.34 9.9a4.08 4.08 0 0 1-.47-.1V4.83l.47-.55v9.68Zm-.72-.17a3.69 3.69 0 0 1-.46-.2V5.66a9.37 9.37 0 0 1 .44-.55l.02-.03v8.72Zm-.61-.3c-.17-.1-.32-.2-.47-.32V6.6c.15-.23.3-.46.47-.67v7.55Zm-.76-.5a3.67 3.67 0 0 1-.47-.52v-4.7c.14-.27.3-.55.46-.81v-.02h.01v6.05Zm-.62-.84a3.2 3.2 0 0 1-.28-.62 4.65 4.65 0 0 1 .28-3.3v3.92Z" fill="url(#a)"/><defs><linearGradient id="a" x1="5.23" y1="14.27" x2="5.23" y2="3.56" gradientUnits="userSpaceOnUse"><stop offset=".02" stop-color="#0091D5"/><stop offset=".16" stop-color="#0291D0"/><stop offset=".32" stop-color="#0B94C3"/><stop offset=".49" stop-color="#1999AC"/><stop offset=".66" stop-color="#2DA08D"/><stop offset=".83" stop-color="#45A866"/><stop offset="1" stop-color="#63B238"/></linearGradient></defs></svg>