<!-- by TradingView --><svg width="18" height="18" viewBox="0 0 18 18" xmlns="http://www.w3.org/2000/svg"><path fill="#F0F3FA" d="M0 0h18v18H0z"/><path d="M8.92 7.32c-.28.03-.53.17-.78.34 0 0-.02.01-.02.03v.03l.36.88v.02h.05c.21-.28.46-.4.75-.38l.24.01a1603.86 1603.86 0 0 1 1.66 0 .1.1 0 0 0 .03-.03l.61-.84.01-.02v-.03l-.01-.02h-.02L9.09 7.3V6.12c0-.03.01-.05.03-.07a.08.08 0 0 1 .05-.03C9.32 6 9.44 6 9.53 6c1.27.08 2.3.23 3.12.46 1.03.3 2 .62 2.78 1.37.23.21.56.63.57 1v.02l-.03.01c-.55.06-1.12.03-1.67 0-.04 0-.1.04-.16.1.1-.32.16-.63.16-.95a.95.95 0 0 0-.07-.4c-.08-.18-.25-.32-.42-.26a80.65 80.65 0 0 1-.65.8.75.75 0 0 0-.13.49v.04L13 8.7l-.03.02-.03.01H12.83l-.02.03-.01.03v.03l.24.6.02.02h.02a1 1 0 0 0 .93-.2c.11-.08.2-.12.23-.12a66.9 66.9 0 0 1 1.75.03v.04c-.04.46-.48.96-.75 1.16-.55.42-1.16.74-1.83.96-.94.3-1.87.5-2.8.6a22.06 22.06 0 0 1-1.5.06.1.1 0 0 1-.02-.06l-.03-1.18 1.22-.03h.02v-.77h-.03c-.05 0-.22.06-.5.14-.13.05-.37.04-.72 0l.05-.87v-.03l.03-.03.15-.03h1.21l-.04 1.53v.02l.02.02.01.01H11.3l.01-.02v-.01c0-.3.01-.55.03-.77 0-.13.05-.22.13-.26.1-.06.18-.1.22-.1l1.16-.04a.32.32 0 0 0 .12-.03.03.03 0 0 0 0-.02v-.01l-.25-.63a.07.07 0 0 0-.02-.03l-.03-.01a7.4 7.4 0 0 0-1.26.03 2.46 2.46 0 0 0-.81.08H9.13c-.01 0-.02 0-.03-.02a.07.07 0 0 1-.02-.04l-.01-.4a.1.1 0 0 0-.01-.05l-.03-.04-.01-.02H9l-.02.02v.02l-.07.46a.1.1 0 0 1-.03.06.07.07 0 0 1-.05.03l-.5-.03.08-.13.01-.04a.1.1 0 0 0 0-.04l-.35-.88a.04.04 0 0 0-.02-.02h-.03c-.24.1-.4.54-.46.83-.19.95.31 1.82 1.04 2.05l.33.09-.05 1.18a.1.1 0 0 1-.02.06 14.07 14.07 0 0 1-4.2-.62 7.35 7.35 0 0 1-1.39-.63c-.5-.3-1.15-.78-1.26-1.5a.1.1 0 0 1 0-.03v-.02l.03-.02.02-.01h1.62l.05.21a1.6 1.6 0 0 0 1.35 1.32 15.36 15.36 0 0 0 .84 0v-.03l-.65-.82a.06.06 0 0 0-.04-.03l-.03.01a.52.52 0 0 1-.68-.09c-.12-.13-.18-.33-.18-.6 0-.03.02-.05.04-.05.04.04.07.05.1.05.28-.01.55.02.8.08l1.18.02h.01v.55h-1.1v.03l-.01.02v.02l.64.8.02.01h1.22l.01-.01v-.05a91.83 91.83 0 0 1-.05-2.15H5.86c-.07 0-.13.04-.17.1-.06.15-.14.26-.21.37l-1.05-.03a.6.6 0 0 1 .14-.19l.02-.03V8.6l-.36-.88-.01-.02-.02-.01h-.04l-.12.1a1.77 1.77 0 0 0-.36 1.09 26.6 26.6 0 0 0-1.28 0 2.18 2.18 0 0 1-.4-.05V8.8c0-.46.45-.93.74-1.17.44-.35.92-.62 1.46-.82 1.5-.54 3.04-.81 4.61-.81.02 0 .04 0 .06.03l.02.06V7.25l.03.07Z" fill="#DEDCDD"/><path d="M7.98 7.3v.02l-.58.8a.14.14 0 0 1-.05.04 1922.3 1922.3 0 0 0-1.75.01c-.24 0-.4.02-.49.06a1.29 1.29 0 0 0-.44.35h-.02l-.01-.01-.01-.02-.33-.83a.11.11 0 0 1 0-.07c0-.02 0-.04.02-.05.36-.25.55-.33.97-.33a208.8 208.8 0 0 1 2.69.02ZM9.09 7.3h2.7l.03.01.01.02a.05.05 0 0 1 0 .05l-.62.84a.1.1 0 0 1-.03.02l-.03.01a1603.86 1603.86 0 0 0-1.87-.01c-.3-.02-.54.1-.75.37l-.01.02H8.5l-.01-.01-.01-.02-.36-.88V7.7c0-.02.01-.03.02-.03.31-.22.61-.36.95-.36ZM11.32 8.15l.6-.81.02-.02h1.68l.02.03v.03l-.01.03-.6.82-.01.01h-1.69l-.01-.03v-.06Z" fill="#402871"/><path d="m14.14 8.96-.13.28a1 1 0 0 1-.93.22l-.02-.01-.02-.03-.23-.59a.08.08 0 0 1 0-.06s0-.02.02-.02H12.95l.03-.02.03-.02.01-.03.01-.04c0-.21.04-.38.13-.49a79.86 79.86 0 0 0 .65-.8c.17-.06.34.08.42.25.05.1.07.24.07.41 0 .32-.06.63-.16.95ZM4.34 9.12c0 .26.06.46.18.59.19.2.46.22.68.09h.03c.01 0 .03 0 .04.02l.65.82v.04H5.9l-.83-.01a1.6 1.6 0 0 1-1.35-1.32 2.03 2.03 0 0 1 .31-1.54l.12-.1.02-.01h.02l.02.01.01.02.35.88v.04l-.01.03a.83.83 0 0 0-.23.44ZM8.32 8.87a.4.4 0 0 0-.08.2c-.03.31.07.56.32.74.13.1.25.17.34.2l.15.07c.34.04.59.05.72 0a30.9 30.9 0 0 1 .53-.14v.76l-.02.01-1.22.03-.13-.01-.33-.09c-.73-.23-1.23-1.1-1.04-2.05.06-.29.22-.73.46-.83h.03l.02.02.35.88a.1.1 0 0 1-.01.08l-.09.13Z" fill="#75B33F"/><path d="m5.29 9.19.4-.65c.04-.07.1-.11.17-.1a153.62 153.62 0 0 0 1.39 0v1.99l.03.15a.06.06 0 0 1 0 .05l-.01.01H6l-.63-.81-.01-.02v-.02l.01-.02h1.09l.01-.01V9.2h-.01l-1.17-.02ZM10.5 9.13l.1-.25.2-.05c.2-.05.5-.04.6-.03l.41-.02a7.4 7.4 0 0 1 .89 0l.02.03.25.63v.02l-.01.01a.32.32 0 0 1-.1.03c-.47 0-.85.02-1.17.05a.66.66 0 0 0-.22.09c-.08.04-.13.13-.13.26a15.07 15.07 0 0 0-.04.8H10.47l-.01-.03v-.02l.03-1.52Z" fill="#402871"/><path d="m8.24 9.07.62.04s.02 0 .03.02v.04l.01.83c-.09-.02-.2-.08-.34-.19a.78.78 0 0 1-.32-.74Z" fill="#DEDCDD"/></svg>