<!-- by TradingView --><svg width="18" height="18" viewBox="0 0 18 18" xmlns="http://www.w3.org/2000/svg"><path fill="#F0F3FA" d="M0 0h18v18H0z"/><path d="m7.31 5.66-.09.05H7.2l-.02-.04.09-.44c0-.03 0-.04-.04-.04a.32.32 0 0 0-.1.02c-.01.01-.03 0-.04-.01v-.01c-.02-.02-.01-.03 0-.04l.12-.07a.12.12 0 0 0 .07-.1v-.02c0-.24.03-.42.06-.54.06-.2.16-.34.3-.41h.05c.07.02.1.06.12.12a7.8 7.8 0 0 1 .07.68c.01.03.03.05.07.06.02.01.03.03.01.05l-.05.1v.03c.01.2.06.34.14.44.02.03.02.06-.02.08l-.07.04c-.03.02-.06.01-.07-.01a1.1 1.1 0 0 1-.12-.54.06.06 0 0 0-.03-.05.07.07 0 0 0-.06 0l-.23.07c-.03.01-.05.04-.05.07v.38c0 .05-.02.1-.08.13Z" fill="#5E7052"/><path d="M7.4 4.94c0-.2.03-.4.07-.59.02-.1.06-.17.13-.23a.07.07 0 0 1 .08 0c.03 0 .04.03.04.06v.7l-.3.08c-.02 0-.02 0-.02-.02Z" fill="#EBEEF5"/><path d="M10.24 4.28c.03-.04.03-.1 0-.12-.03-.02-.08 0-.1.05-.04.04-.04.09-.01.11.03.02.08 0 .1-.04ZM10.32 4.88h.03v.03c-.07.09-.15.16-.26.23-.14.08-.23.1-.29.03-.03-.04-.04-.1-.04-.19l-.01-.02h-.03c-.16.2-.3.26-.43.2-.1-.04-.07-.17.08-.37l.02-.04a.07.07 0 0 0 0-.06.07.07 0 0 0-.05-.05h-.03c-.04-.01-.08 0-.1.04a6.7 6.7 0 0 1-.2.3c-.04.06-.09.1-.14.1-.12 0-.18.04-.2.13l-.08.51a.51.51 0 0 1-.1.22.08.08 0 0 1-.06.04c-.02 0-.04 0-.06-.02-.18-.14-.21-.3-.11-.5a.9.9 0 0 1 .28-.26.1.1 0 0 0 .04-.07l.01-.03v-.03h-.03c-.16.13-.28.13-.35.02a.37.37 0 0 1-.03-.22c0-.1.03-.18.07-.25.05-.08.1-.13.16-.15.07-.02.14 0 .22.08l.03.01c.01 0 .02 0 .03-.02l.02-.04c.01-.03.03-.03.05-.02.02 0 .03.02.03.04l-.09.46c0 .03 0 .04.04.04.04-.01.09-.04.14-.1l.23-.27a.14.14 0 0 0 .03-.08c0-.06.02-.11.06-.16.04-.06.08-.07.14-.05.01 0 .02.01.02.03v.1c0 .03 0 .05.03.05.1.05.16.1.15.17 0 .04-.04.1-.1.18a.9.9 0 0 0-.08.11.05.05 0 0 0 0 .06c.02.02.04.03.06.02.05 0 .1-.04.16-.09a1.18 1.18 0 0 0 .35-.37.13.13 0 0 1 .1-.06h.02c.02 0 .03 0 .04.02v.04L9.87 5a.07.07 0 0 0 0 .09c.03.03.06.03.09.03a.95.95 0 0 0 .26-.16l.1-.08ZM11 4.78l.21.11c.03.02.06.02.1.01a.13.13 0 0 0 .07-.06c.1-.17.24-.27.42-.3.06 0 .1.01.14.05.05.05.05.1.01.17a.5.5 0 0 1-.17.17.53.53 0 0 1-.24.08.36.36 0 0 0-.11.02.15.15 0 0 0-.06.05 2.3 2.3 0 0 1-.46.46c-.02.01-.02.03 0 .05.1.16.21.23.35.2h.03c.01.02.02.03 0 .04-.03.09-.1.12-.2.1-.08-.02-.18-.1-.3-.26l-.01-.02a.09.09 0 0 0-.1-.04.35.35 0 0 1-.2 0 .1.1 0 0 1-.06-.07.12.12 0 0 1 .01-.1c.04-.06.1-.08.16-.07.06 0 .12.03.18.07.03.02.05.02.08 0l.37-.36a.05.05 0 0 0 .01-.05.05.05 0 0 0-.03-.03.54.54 0 0 1-.24-.18V4.8H11Z" fill="#5E7052"/><path d="M8.6 4.84c.03-.14-.02-.26-.1-.28-.1-.01-.18.09-.2.23-.03.14.02.26.1.28.09.01.17-.09.2-.23ZM11.73 4.83c.08-.05.13-.12.11-.15-.02-.03-.1 0-.18.05-.08.06-.13.12-.11.15.02.03.1 0 .18-.05Z" fill="#EBEEF5"/><path d="M12.25 5.1c.05-.02.08-.07.07-.1-.02-.03-.08-.03-.13 0-.05.02-.07.07-.06.1.02.03.07.03.12 0ZM4.48 7.34l-.03.01v.03l.11.2v.17c0 .03-.01.04-.04.04h-.09c-.03 0-.03.01-.03.04.03.1.02.2-.03.28a.1.1 0 0 1-.06.05l-.09-.01a.62.62 0 0 1-.34-.35c-.08-.23-.04-.34.13-.32a.4.4 0 0 1 .18.06 1.12 1.12 0 0 1 .18.15c.03.02.06.03.1 0 .03-.01.04-.04.03-.08a.4.4 0 0 0-.04-.09.52.52 0 0 1-.05-.11.89.89 0 0 0-.33-.46c-.02-.02-.05-.02-.06.01l-.08.15c-.01.03-.04.03-.06.02l-.03-.01v-.03l.12-.23v-.05l-.13-.15c-.01-.02-.01-.05 0-.07.02-.02.05-.02.07-.01l.12.06c.02.01.04 0 .06-.01l.16-.15a.05.05 0 0 1 .06-.01h.01c.03.02.03.04 0 .06l-.17.17c-.02.03-.02.05 0 .07.12.13.24.28.36.46.04.05.08.08.13.1.03 0 .05 0 .07-.02a.08.08 0 0 0 .04-.07c0-.22-.06-.44-.18-.64-.02-.03-.02-.07 0-.1a.04.04 0 0 1 .05-.01 7.37 7.37 0 0 1 .22.32c.05.05.1.08.14.1.01 0 .03 0 .04-.02a.06.06 0 0 0 .03-.04c0-.13 0-.26-.03-.37a1.43 1.43 0 0 1-.04-.28c0-.1.03-.18.08-.25a.05.05 0 0 1 .05-.01c.09.02.15.06.2.12a1.09 1.09 0 0 1 .15.22c0 .02.02.03.04.04.05.01.08 0 .11-.04l.01-.03-.03-.48v-.02l-.12-.27a.03.03 0 0 0-.03-.02l-.03.01a.5.5 0 0 1-.2.12c-.02 0-.03 0-.04-.02l.01-.04.19-.14c.04-.03.05-.06.02-.1a.3.3 0 0 1-.04-.17c0-.03.02-.05.05-.06.04 0 .06 0 .08.04l.03.1c.01.02.03.02.05.01l.19-.1a.1.1 0 0 1 .08 0h.03l.01.02-.01.02-.21.11c-.05.03-.06.07-.04.12.05.12.1.3.15.51a.2.2 0 0 0 .12.15c.04.02.07 0 .1-.03.07-.13.1-.33.09-.62 0-.05.03-.13.1-.25a.07.07 0 0 1 .05-.03c.08-.02.13.01.15.08.02.07.02.13 0 .2l-.11.23a.04.04 0 0 0 0 .05c.03.06.08.09.12.08.05 0 .09-.03.13-.09.1-.12.14-.27.14-.43 0-.02.01-.03.04-.03h.01c.01 0 .02 0 .02.02 0 .22-.07.4-.2.54-.1.12-.21.13-.34.02a.03.03 0 0 0-.03 0 .03.03 0 0 0-.03.02v.05a.76.76 0 0 1-.06.2.2.2 0 0 1-.16.1l-.05-.01-.17-.18h-.04V6c.08.25.06.38-.06.41h-.1a.04.04 0 0 0-.04.03l-.08.2c0 .03-.02.04-.04.05h-.06l-.1-.05h-.03a.03.03 0 0 0-.01.03l.01.2a.1.1 0 0 1 0 .03.23.23 0 0 1-.1.11h-.04l-.17-.05h-.03v.02l.06.27v.03c-.02.09-.08.14-.16.15a.1.1 0 0 1-.06 0l-.15-.08Z" fill="#5E7052"/><path d="M6.29 5.38c.02-.09.01-.16-.02-.17-.04-.01-.08.05-.1.14-.03.08-.02.16.02.17.03 0 .08-.06.1-.14Z" fill="#EBEEF5"/><path d="M12.08 5.8v-.03h-.02a.89.89 0 0 1-.34.09c-.08 0-.14-.02-.18-.06-.04-.04-.04-.1 0-.17.07-.1.16-.2.28-.31a.11.11 0 0 1 .1-.03h.05c.02 0 .03.02.04.04 0 .01 0 .03-.02.04l-.3.23c-.04.04-.07.07-.07.09 0 .02 0 .05.02.06.02.02.04.03.07.02a11.31 11.31 0 0 1 .53-.08l.13-.1c.02 0 .03 0 .04.02l.04.11.03.02.17.06c.07.02.09.07.05.16v.03l.03.02c.09 0 .17.02.24.06l.04.05-.01.06a1.07 1.07 0 0 1-.37.28.05.05 0 0 0 0 .08c.03.04.08.05.14.04a1.85 1.85 0 0 1 .44 0l.14-.04c.03 0 .06 0 .08.03v.05s0 .02-.02.02c-.26.06-.41.13-.46.2a.07.07 0 0 0 0 .07c.02.03.04.04.06.04l.49.05a.1.1 0 0 0 .04 0l.3-.1c.01 0 .02 0 .03-.02v-.04a.9.9 0 0 1-.11-.18c-.01-.02 0-.03.01-.04h.04l.16.21c.01.02.03.03.05.02l.17-.06c.03 0 .05 0 .07.02.02.02.02.04 0 .07-.02.04-.07.07-.15.08l-.02.02v.03c.07.09.1.17.12.26 0 .01 0 .02-.02.02h-.02l-.13-.23c-.02-.03-.05-.05-.09-.04-.34.07-.52.1-.55.12a.29.29 0 0 0-.16.1.08.08 0 0 0-.02.06c.01.03.03.05.05.06.15.06.3.1.48.1.2 0 .33.07.4.2.02.01.02.04.01.06a.07.07 0 0 1-.06.05.47.47 0 0 1-.45-.15c-.02-.02-.04-.02-.07 0-.06.03-.09.09-.08.16 0 .02 0 .03.02.05a.7.7 0 0 0 .29.19c.08.03.2.07.38.1a.3.3 0 0 1 .17.13c.06.07.05.14-.02.2v.03h.62c.03 0 .04.01.04.04v.02c0 .04-.02.06-.05.06-.27.04-.54.04-.81-.02a.5.5 0 0 0-.23 0 .07.07 0 0 0-.05.05l.01.06c.05.06.16.13.33.2a3.44 3.44 0 0 1 .1.06c0 .01 0 .02-.01.01a1.27 1.27 0 0 1-.5-.24.09.09 0 0 1-.03-.07c0-.03.01-.06.04-.08l.05-.03v-.06a.5.5 0 0 1-.18-.17c-.03-.06-.02-.1.03-.15l.06-.03a.04.04 0 0 0 .01-.04.04.04 0 0 0-.02-.03c-.24-.1-.36-.22-.35-.36 0-.02.02-.07.06-.12a.72.72 0 0 0 .03-.06v-.03l-.03-.01a.5.5 0 0 1-.24-.07c-.09-.05-.11-.1-.08-.17a.5.5 0 0 1 .14-.13l.04-.03v-.04h-.24a.26.26 0 0 1-.21-.1c-.05-.07-.04-.14.05-.2a7.54 7.54 0 0 0 .12-.1c0-.02-.01-.02-.02-.02a6.73 6.73 0 0 0-.31.02.37.37 0 0 1-.21-.09.08.08 0 0 1-.03-.06c0-.03.01-.05.03-.06l.34-.25c.01-.01.02-.03.01-.05 0-.02-.02-.04-.04-.04l-.13-.01c-.04 0-.07 0-.1.02l-.33.16a.08.08 0 0 1-.09 0 .04.04 0 0 1-.01-.04 3.38 3.38 0 0 0 .37-.25c.04-.04.05-.08.02-.11-.03-.05-.1-.06-.2-.03a2.01 2.01 0 0 0-.4.2c-.03.02-.06.01-.07-.02-.02-.04-.01-.06.02-.08a.7.7 0 0 0 .19-.14Z" fill="#455E3A"/><path d="M8.43 5.84c-.05 0-.08-.04-.1-.1a.32.32 0 0 1 0-.18v-.02a.32.32 0 0 1 .1-.16c.04-.04.08-.05.13-.04l-.13.5ZM5.33 6.25c-.06-.14-.15-.24-.22-.21-.06.02-.07.16-.02.3.06.14.15.23.22.2.06-.02.07-.15.02-.3Z" fill="#EBEEF5"/><path d="M4.4 6.2c-.02-.03-.06-.05-.09-.03-.03.02-.03.06-.01.1.02.03.07.05.1.03.02-.02.03-.06 0-.1Z" fill="#5E7052"/><path d="M13.77 6.47c.04-.01.07-.04.06-.07-.01-.03-.05-.05-.1-.04-.03 0-.06.04-.05.07 0 .03.04.05.09.04Z" fill="#455E3A"/><path d="M11.8 8.12c-.02 0-.02.02-.03.03l-.08-.07-.01-.03-.2-.56h-.02c-.01.03 0 .07.03.14l.03.11c.02.1.05.23.1.37l-.01.02h-.03a.54.54 0 0 1-.11-.17 7.7 7.7 0 0 1-.36-1l.04-.01c.02 0 .04.01.07.04.16.12.3.28.39.46.1.2.15.39.14.58 0 .02.01.05.04.09ZM6.85 7.78h-.01v-.02l.28-.25.24-.16v-.02h-.02a2.2 2.2 0 0 0-.48.3c-.05.05-.08.09-.07.13 0 .01 0 .02-.02.02h-.02c-.02-.06-.01-.11.03-.16a1.75 1.75 0 0 1 1.24-.65c.03.02.03.04 0 .06l-.9.62c-.1.06-.18.1-.27.13ZM9.93 6.99c0-.02.01-.03.04-.03.46.04.84.24 1.15.58.05.05.09.12.11.2.01.02 0 .04-.04.05a.26.26 0 0 1-.17-.03 7.87 7.87 0 0 1-1.09-.77Z" fill="#5E7052"/><path d="M6.53 7.69c-.05-.17-.2-.28-.33-.24-.14.04-.2.21-.14.39.05.17.2.27.34.23.13-.04.19-.2.13-.38Z" fill="#370408"/><path d="M13.93 7.57c-.1-.03-.18-.03-.19 0-.01.04.05.1.15.13.09.03.17.02.18-.02.02-.03-.05-.08-.14-.11ZM4.22 7.72c-.1-.11-.22-.16-.27-.12-.04.04 0 .16.1.27.1.11.22.16.27.12.05-.04 0-.16-.1-.27Z" fill="#EBEEF5"/><path d="M5.87 8.25h-.02a2.13 2.13 0 0 0 .08.59l.03.14-.02.02-.02-.01a1.04 1.04 0 0 1-.1-1.19.04.04 0 0 1 .04-.02c.02 0 .03.01.04.03.13.32.19.66.18 1 0 .02-.02.03-.03.03-.03 0-.04 0-.05-.03a1 1 0 0 0-.08-.28l-.05-.28ZM6.28 8.56c0-.08.02-.15.08-.22.1-.14.24-.25.4-.34.17-.1.34-.16.49-.15.01 0 .02 0 .03.02v.03c-.28.27-.57.5-.88.7a.08.08 0 0 1-.07.01.07.07 0 0 1-.05-.05ZM11.67 8.54c0 .03-.02.05-.04.06a.07.07 0 0 1-.08 0 4.9 4.9 0 0 1-.87-.74l.03-.01a.9.9 0 0 1 .5.14c.14.09.28.2.39.33.06.08.08.15.07.22ZM3.99 8.83c0-.03.01-.03.03-.02l.11.06c.07.03.13.02.19-.03.08-.08.08-.16-.02-.26A.41.41 0 0 0 4 8.45c-.07 0-.18.02-.32.07a1.1 1.1 0 0 1-.28.08.31.31 0 0 1-.26-.1.46.46 0 0 1-.11-.46.24.24 0 0 1 .1-.15c.06-.03.12-.04.18-.03a.3.3 0 0 1 .16.07c.05.04.08.1.1.16l-.02.03H3.5l-.03-.02a.98.98 0 0 0-.15-.1.2.2 0 0 0-.15-.01c-.06.02-.09.06-.08.12.03.17.08.27.17.31.08.05.21.03.38-.05l.1-.04a.59.59 0 0 1 .48.06c.18.09.26.22.26.38 0 .07-.04.13-.1.18a.33.33 0 0 1-.17.09c-.07 0-.13 0-.17-.04-.05-.04-.06-.1-.05-.17Z" fill="#5E7052"/><path d="m11.77 8.15.02-.03a.35.35 0 0 0 .05-.09.27.27 0 0 1 .04-.07c.05-.05.1-.08.15-.09.05 0 .09.02.13.05.03.04.05.08.06.13.01.06 0 .11-.02.16 0 .02 0 .03.02.04h.16c.15.05.2.15.13.3a.49.49 0 0 1-.33.3.23.23 0 0 1-.3-.2V8.6l.06-.12v-.06a.45.45 0 0 1-.17-.28Z" fill="#370408"/><path d="M14.3 8.23c.03 0 .03.01.03.03v.04a.2.2 0 0 1-.1.15.29.29 0 0 1-.2.03H14a.28.28 0 0 1-.18-.09.2.2 0 0 1-.05-.17v-.04c0-.02.02-.02.03-.02l.5.07ZM11.6 8.47l-.27-.24h-.02v.03l.27.23h.02v-.02Z" fill="#EBEEF5"/><path d="M11.45 8.9h-.01v.01c.12.14.22.3.31.47l.05.05c.02.01.03.02.03.04s0 .03-.02.03h-.04a3.76 3.76 0 0 1-.66-.9c0-.02 0-.03.02-.04a.05.05 0 0 1 .04-.01c.4.16.65.44.75.83l-.01.03-.03-.01c-.1-.19-.24-.36-.42-.51h-.01ZM5.91 9.77l-.01.02-.03-.01c-.17-.26-.3-.53-.38-.8l-.03-.01c-.02 0-.02.02-.02.03l.08.32.02.04.22.44c.01.03.04.06.08.1v.02l-.04.01h-.02a1.3 1.3 0 0 1-.44-1.27c0-.01.01-.02.03-.02.04 0 .08.03.1.08a5.29 5.29 0 0 1 .21.4 46.2 46.2 0 0 1 .23.65ZM12.44 9.14l-.2.41a.8.8 0 0 1-.18.23h-.03v-.02l.11-.3c.14-.38.27-.64.39-.78a.05.05 0 0 1 .06-.02c.02 0 .04.02.04.05.05.36-.03.7-.24 1a.76.76 0 0 1-.26.23h-.02V9.9c.08-.1.16-.21.23-.35.08-.16.12-.3.12-.4l-.01-.01h-.01Z" fill="#5E7052"/><path d="M6.68 8.9c.05.06.06.13.03.2a.43.43 0 0 1-.15.23.44.44 0 0 1-.25.1c-.09 0-.15-.02-.2-.08-.04-.05-.06-.12-.03-.2a.43.43 0 0 1 .15-.22c.08-.06.16-.1.25-.1s.16.02.2.07Z" fill="#370408"/><path d="m9.4 9.73-.09.03-.04-.01a.04.04 0 0 1 0-.05c.1-.19.13-.33.08-.43-.04-.08-.11-.1-.22-.07a.68.68 0 0 0-.23.14.32.32 0 0 0-.12.27c0 .09.04.18.12.26l.04.05.18.21c.05.1.09.18.1.27.02.2-.02.4-.14.58a.48.48 0 0 1-.26.2.4.4 0 0 1-.32-.02c-.12-.06-.2-.18-.22-.35 0-.07.02-.13.08-.16l.13-.07a.05.05 0 0 1 .05 0c.02.02.03.04.02.06a.43.43 0 0 0-.02.26c.02.06.06.11.12.14.05.03.1.02.17 0a.4.4 0 0 0 .17-.2.53.53 0 0 0-.01-.49 1.4 1.4 0 0 0-.18-.24 1.18 1.18 0 0 1-.22-.35.44.44 0 0 1 .1-.46c.12-.13.27-.2.45-.22.18-.02.3.03.36.15s.06.25 0 .4a.15.15 0 0 1-.1.1ZM11.82 10.48c0 .02 0 .03-.02.03l-.03-.01a3.06 3.06 0 0 1-.51-1.12h.02c.19.05.34.16.45.32.13.2.2.42.22.66 0 .02-.01.03-.03.03-.02 0-.03 0-.04-.02a2.24 2.24 0 0 0-.4-.72l-.01.02a2.52 2.52 0 0 1 .33.71c.02.05.03.08.02.1Z" fill="#5E7052"/><path d="m6.45 9.69-.02.01a.27.27 0 0 0-.1.1l-.3.58h-.02v-.01c.01-.23.07-.43.17-.6a.87.87 0 0 1 .48-.38l.04.01v.04c-.11.36-.28.71-.5 1.05h-.04c-.02-.01-.02-.03-.01-.05l.01-.03a4.66 4.66 0 0 1 .3-.71l-.01-.01ZM5.36 10.07v.01l-.01.01c.2.34.44.62.72.85v.03h-.02a1.57 1.57 0 0 1-.95-1.32c0-.01 0-.02.02-.01.03 0 .05 0 .06.02.12.1.24.23.38.4a18.08 18.08 0 0 1 .57.75H6.1c-.28-.2-.52-.45-.72-.74h-.03Z" fill="#455E3A"/><path d="M12.82 9.65c.02-.01.03 0 .03.02a1.51 1.51 0 0 1-.96 1.31h-.03v-.03a3.34 3.34 0 0 0 .75-.87v-.01h-.02a3.8 3.8 0 0 1-.73.74l-.02-.02.03-.08.41-.5a3.77 3.77 0 0 1 .54-.56ZM6.66 10.39a5.16 5.16 0 0 0-.23.7c-.01 0-.02 0-.03-.02a.97.97 0 0 1 .31-.95c.03-.03.05-.04.07-.04.04.01.06.04.06.08-.02.35-.09.68-.22 1 0 .01-.01.02-.03.01-.01 0-.02 0-.02-.02 0-.1 0-.2.02-.3a10.62 10.62 0 0 1 .09-.46h-.02Z" fill="#5E7052"/><path d="M11.31 10.43c.07-.03.14-.01.21.04.07.05.12.12.15.21a.4.4 0 0 1 0 .26c-.02.08-.07.14-.14.16-.06.02-.13 0-.2-.05a.41.41 0 0 1-.16-.21.4.4 0 0 1 0-.26c.03-.08.07-.13.14-.15Z" fill="#370408"/><path d="M11.36 10.57c.02 0 .03-.01.03-.03l-.04-.02c-.02 0-.03.02-.03.03 0 .02.02.03.04.02Z" fill="#EBEEF5"/><path d="M6.98 11.27h-.02c0 .25.04.48.13.7v.02h-.03a1.05 1.05 0 0 1-.29-.76c.01-.18.07-.31.17-.4a.05.05 0 0 1 .05-.01A5.98 5.98 0 0 1 7.26 12c-.02 0-.03 0-.03-.02a1.9 1.9 0 0 1-.22-.63.27.27 0 0 0-.03-.08ZM11 11.19v-.01h-.02a.41.41 0 0 0-.03.14c0 .06 0 .1-.02.14a6.1 6.1 0 0 1-.23.56l-.03-.01v-.03a4.4 4.4 0 0 1 .31-1.17l.04.01c.13.16.18.36.15.58-.03.2-.11.39-.25.56h-.04v-.06c.1-.23.14-.46.13-.71ZM12.49 10.9c.02 0 .03.02.02.04-.22.43-.56.72-1.02.9a.53.53 0 0 1-.24.02c-.03 0-.05-.02-.04-.05a.26.26 0 0 1 .1-.16 8.33 8.33 0 0 1 1.18-.75Z" fill="#5E7052"/><path d="M6.34 11.24c-.16-.11-.36-.12-.45 0-.08.1-.02.3.14.4.17.12.37.13.45.01.08-.1.02-.3-.14-.4Z" fill="#370408"/><path d="M11.26 11.78v-.01h.01c.55-.33.83-.49.84-.48l.01.02c0 .01-.26.18-.82.51h-.01l-.03-.04Z" fill="#EBEEF5"/><path d="M7.56 11.7c0-.01 0-.02-.02-.01v.02a2.98 2.98 0 0 0 .38.77v.02h-.03c-.18-.12-.3-.28-.39-.45-.1-.2-.1-.39-.03-.57l.04-.02a5.65 5.65 0 0 1 .6 1l-.01.03h-.03c-.21-.25-.38-.5-.5-.8ZM10.34 11.8a.4.4 0 0 0-.06.11 5.94 5.94 0 0 1-.43.58l-.02-.02v-.03a4.3 4.3 0 0 1 .62-.99c.02 0 .03.01.03.03.08.18.07.37-.03.57-.08.17-.2.32-.38.44h-.03l-.01-.02.01-.04c.16-.19.27-.4.33-.62l-.01-.02h-.02Z" fill="#5E7052"/><path d="M9 11.56c.13 0 .24.05.33.16.09.1.13.23.13.38s-.04.27-.13.38a.41.41 0 0 1-.65 0 .57.57 0 0 1-.14-.38c0-.15.05-.28.14-.38.09-.1.2-.16.32-.16Z" fill="#370408"/><path d="M9 11.79c.04 0 .07-.03.07-.06s-.03-.06-.07-.06c-.04 0-.07.03-.07.06s.03.06.07.06Z" fill="#EBEEF5"/><path d="M7.34 12.28a2.66 2.66 0 0 1-.86-.17v.02a1.9 1.9 0 0 0 .46.17c.22.06.39.08.5.06.03 0 .04 0 .05.03.01.02 0 .04-.02.04-.23.05-.48.04-.75-.04a1.91 1.91 0 0 1-.67-.34l-.22-.18c-.02 0-.03-.03-.02-.05 0-.02.02-.03.05-.03.08 0 .2.03.37.07a18 18 0 0 1 1.13.4c0 .01 0 .02-.02.02ZM11.6 12.08v-.03a3.1 3.1 0 0 1-1.03.23c-.01 0-.02 0-.02-.02l.01-.02c.46-.16.9-.3 1.3-.42a.83.83 0 0 1 .23-.03l.04.02-.01.04c-.22.22-.47.39-.77.5-.32.12-.62.15-.9.08l-.02-.04v-.02l.03-.02c.13.02.23.02.3 0 .3-.05.58-.14.84-.27ZM8.6 12.7h.02v.03l-.22.04a4.01 4.01 0 0 1-.64.03v.01l.5.06c.06 0 .14 0 .27-.02l.24-.02c.02 0 .03.01.03.03 0 .02 0 .03-.02.03-.63.19-1.23.14-1.81-.16-.02 0-.02-.01-.02-.03 0-.01 0-.02.02-.02a18.18 18.18 0 0 1 1.63.02ZM9.23 12.76c.04-.04.1-.06.16-.07l1.1-.04c.19 0 .35 0 .5.02l.02.03c0 .01 0 .02-.02.03a3.1 3.1 0 0 1-.89.25c-.3.04-.61 0-.93-.1-.02 0-.03 0-.02-.02a12.38 12.38 0 0 1 .23-.01h.41a4.38 4.38 0 0 1 .36-.04 5.05 5.05 0 0 0-.5 0l-.23-.06a.8.8 0 0 0-.19.03v-.02Z" fill="#5E7052"/></svg>