<!-- by TradingView --><svg width="18" height="18" viewBox="0 0 18 18" xmlns="http://www.w3.org/2000/svg"><path fill="#F0F3FA" d="M0 0h18v18H0z"/><path d="M5.27 4.29a6.01 6.01 0 0 1 9.71 4.06c.03.3.01.62.02.92 0 .14 0 .26-.02.37A6.11 6.11 0 0 1 13.51 13a5.81 5.81 0 0 1-3.13 1.86l-.01.02c-.1.32-.15.56-.26.61l-.02.01h-.02l-.02-.02V13.36h.01l.52.1.02.02v.01l-.13.91v.02l.01.01.02.01h.01a5.97 5.97 0 0 0 4.13-3.58 5.24 5.24 0 0 0-.5-4.7 6.03 6.03 0 0 0-8.28-1.8c-1.2.78-2 1.84-2.42 3.2a5.44 5.44 0 0 0 2.1 6.03 5.99 5.99 0 0 0 4 1.03v.34h-.02a6.23 6.23 0 0 1-6.28-4.4 5.84 5.84 0 0 1 2.03-6.27Zm.31 1.5a2.6 2.6 0 0 1 2.6-.75c1.43.35 2.33 1.78 1.81 3.17a3.27 3.27 0 0 1-2.26 1.9v.04c.09.1.2.16.3.27.5.51.94.95 1.32 1.3.62.58 1.36 1.01 2.24 1.08a1.32 1.32 0 0 0 .44-.03h.02v.02l.01.01v.04l-.02.02c-.18.07-.32.11-.42.12a3.35 3.35 0 0 1-2.82-.88 14.5 14.5 0 0 1-1.62-1.87h-.03a1.63 1.63 0 0 1-.56.05l-.02.02-.02.02v.04l.08 1.93-.01.03a.04.04 0 0 1-.06.01l-.02-.02a7.43 7.43 0 0 1-.4-2l-.03-.03c-.3-.09-.66-.15-.61-.54 0-.03.01-.05.03-.07.12-.16.3-.24.52-.24l.03-.02.02-.03c-.01-.98-.02-1.51.11-2.24.1-.51.28-1.11.85-1.25h.12c.03.02.06.05.07.08.02.04.02.08 0 .14-.13.26-.28.52-.35.83a12.35 12.35 0 0 0-.32 2.5l.03.02c.33.08.63.24.9.48a.08.08 0 0 0 .08.01 2.86 2.86 0 0 0 1.83-2.21 2.42 2.42 0 0 0-1.59-2.56c-.74-.26-1.74.08-2.11.77-.22.4-.12.67.07 1.08a.1.1 0 0 1 0 .07c-.04.13-.1.2-.18.24-.3.1-.44-.14-.47-.4-.04-.44.1-.82.44-1.16Zm4.94 3.27a.17.17 0 0 1 .13.16v1.1h.01c.17-.57.53-1.25 1.23-1.26.25 0 .47.08.64.25.7.66.19 2.01-.66 2.3-.33.1-.68.07-.9-.2-.05-.08-.1-.29.02-.34.08-.04.15 0 .2.07.1.13.18.22.26.29l.06.03c.87.2 1.25-1.66.27-1.9-.7-.17-.95.59-1.03 1.11-.08.48-.11.94-.1 1.39l-.63-.4H10v-.03l-.04-2.2c0-.08.03-.15.08-.21s.11-.1.19-.12l.21-.04h.08Zm-4.35.5c-.23-.02-.59.03-.52.33l.04.07c.19.19.81.25 1 .22a4.85 4.85 0 0 1 .4-.08l-.01-.01c-.23-.33-.53-.51-.91-.54Z"/></svg>