<!-- by TradingView --><svg width="18" height="18" viewBox="0 0 18 18" xmlns="http://www.w3.org/2000/svg"><path fill="#F0F3FA" d="M0 0h18v18H0z"/><path d="M13.24 4c.42 0 .76.34.76.76v8.48c0 .42-.34.76-.76.76H4.76a.76.76 0 0 1-.76-.76V4.76c0-.42.34-.76.76-.76h8.48ZM9 5a2.3 2.3 0 0 1-1.38.46c-.66 0-1.1-.24-1.24-.37-.56.4-1.15 1.1-1.38 1.4.23.2.68.75.68 1.47 0 1.17-.59.97-.59 2.27 0 2.03 1.9 2.16 2.68 2.23.63.06 1.08.38 1.23.54.15-.15.6-.48 1.23-.54.79-.07 2.68-.2 2.68-2.23 0-1.3-.59-1.1-.59-2.27 0-.72.45-1.28.68-1.47-.23-.3-.82-1-1.38-1.4-.14.13-.58.37-1.24.37A2.3 2.3 0 0 1 9 5Z" fill="#3F1711"/><path d="M8.63 6.8H7.05L6.9 8.15C7 8.1 7.3 8 7.6 8 8.14 8 9 8.34 9 9.76 9 11.48 7.67 12 7.07 12c-.48 0-.91-.23-1.07-.34l.28-.66c.11.07.44.2.85.2.82 0 1.12-1 1.12-1.44 0-.44-.23-.96-.74-.96-.4 0-.67.31-.75.52l-.67-.3L6.38 6h2.25v.8ZM10.5 6C11.59 6 12 7.34 12 9s-.44 3-1.5 3C9.43 12 9 10.66 9 9s.41-3 1.5-3Zm0 .8c-.54 0-.75.98-.75 2.2 0 1.21.22 2.2.75 2.2s.75-.99.75-2.2c0-1.21-.2-2.2-.75-2.2Z" fill="#3F1711"/></svg>