<!-- by TradingView --><svg width="56" height="56" viewBox="0 0 56 56" xmlns="http://www.w3.org/2000/svg"><path fill="#F0F3FA" d="M0 0h56v56H0z"/><path fill-rule="evenodd" d="M41.03 28.02v.1l-.18.9a.55.55 0 0 0 .13.48.51.51 0 0 0 .46.16 5.71 5.71 0 0 0 1.7-.6c.94-.48 1.85-.97 2.73-1.46a.15.15 0 0 1 .16.01c.03.02.04.05.05.08v.09c-.22.88-.52 1.72-.88 2.5a4.51 4.51 0 0 1-1.41 1.68.19.19 0 0 0-.06.18c0 .04.02.07.05.1l.08.04 1.16.25c.05.01.1 0 .15-.02a.21.21 0 0 0 .09-.12c.17-.57.35-.9.54-1.02 1.05-.6 1.85-.59 2.41.03.5.55.68.44.58-.32 0-.03-.11-.14-.33-.33-.49-.41-1.6-.28-1.98-.12-.45.2-.57.07-.36-.39.59-1.3 1.02-2.52 1.28-3.65a.5.5 0 0 0-.12-.44.45.45 0 0 0-.42-.14c-.43.1-.88.3-1.35.6-.9.55-1.92 1.2-3.08 1.93-.17.1-.27.16-.3.15-.3-.03-.36-.17-.2-.43a8.4 8.4 0 0 0 .81-1.6c.25-.76.04-.94-.64-.54-1.01.6-2.04 1.46-3.09 2.57l-.27.16c-.18.1-.31.06-.39-.13a.45.45 0 0 1-.02-.18c0-.07.02-.13.04-.2l.81-1.77a.52.52 0 0 0 0-.43.47.47 0 0 0-.14-.17.44.44 0 0 0-.2-.09c-.06-.01-.27.16-.62.5-.09.1-.16.09-.22-.02-.36-.63-.9-.8-1.61-.48-.8.35-1.43.7-1.89 1.06-1.06.83-2.1 1.56-3.13 2.18-.34.2-.62.17-.86-.1l-.15-.17c-.32-.36-.29-.65.09-.87.4-.23.8-.54 1.18-.94.34-.35.43-.7.28-1.06-.15-.33-.4-.49-.74-.49-.77.01-1.79.82-3.05 2.43a.35.35 0 0 1-.3.13h-.1a.19.19 0 0 1-.1-.03.2.2 0 0 1-.06-.08.21.21 0 0 1 0-.2 25.2 25.2 0 0 1 2.03-3.2c.3-.39.72-1.15 1.3-2.29.18-.36.22-.78.13-1.17l-.07-.24c-.18-.41-.39-.45-.63-.1-.5.7-.96 1.6-1.43 2.51a19.2 19.2 0 0 1-1.64 2.85 13.67 13.67 0 0 1-2.86 2.8.36.36 0 0 1-.55-.13.4.4 0 0 1-.04-.22l.04-.33c.08-.75.16-1.46-.41-1.82a.3.3 0 0 0-.28-.03c-.63.26-1.3.75-2 1.46-.16.16-.33.2-.5.1-.09-.06-.12-.14-.08-.25.2-.58.16-1.14-.12-1.68a.3.3 0 0 0-.22-.17c-.7-.13-1.42.45-2.07.97l-.28.23a.15.15 0 0 1-.21-.02.17.17 0 0 1-.04-.07l-.14-.58c-.03-.1-.1-.17-.2-.17-.4-.04-.76.07-1.07.3l-.98.78c-1.04.83-2.03 1.61-2.2 1.58a.3.3 0 0 1-.17-.11.32.32 0 0 1-.07-.2c.01-.63.15-1.32.42-2.07.42-1.2.85-2.38 1.3-3.55a.55.55 0 0 0 .01-.38.53.53 0 0 0-.24-.3c-.3-.17-.56-.07-.78.3a37.05 37.05 0 0 1-5.46 7.07.55.55 0 0 1-.52.15.55.55 0 0 1-.25-.15.58.58 0 0 1-.14-.25c-.06-.23-.06-.55.03-.96.64-3.2 2.97-6.21 5.49-8.14.3-.23.63-.4.98-.48a.35.35 0 0 1 .35.1.39.39 0 0 1 .1.38c-.08.26-.28.57-.63.94a.2.2 0 0 0-.05.18.2.2 0 0 0 .1.15l.17.08a.31.31 0 0 0 .37-.07c.18-.2.31-.53.4-1.02.1-.5.03-.9-.2-1.23a.64.64 0 0 0-.49-.28c-.28-.02-.48 0-.6.04a11.53 11.53 0 0 0-3.72 2.79c-1.89 2-3.8 4.5-3.38 7.4.09.59.37 1.01.84 1.27 1.2.66 2.88-1.3 3.55-2.24a43.7 43.7 0 0 0 1.6-2.47.16.16 0 0 1 .17.02c.04.01.06.04.07.07.04.09.03.21-.02.37a9.87 9.87 0 0 0-.4 1.86c-.08.93.72 1.69 1.59 1.2.95-.52 1.86-1.24 2.73-2.15a.23.23 0 0 1 .13-.07c.05-.01.1 0 .14.02l.17.08c.03.01.05.03.06.05l.04.07a.19.19 0 0 1-.03.15L15.6 29c-.19.26-.2.58-.06.96l.06.09c.2.24.39.24.57-.02.95-1.35 2.01-2.45 3.18-3.32a.2.2 0 0 1 .3.08c.02.03.03.07.02.12-.08.76-.2 2.2.3 2.85a.18.18 0 0 0 .13.06.17.17 0 0 0 .13-.05l2.17-2.25a.24.24 0 0 1 .27-.05c.04.02.08.05.1.1.03.03.05.08.05.13v.32c-.02.74-.03 1.46.5 1.92.08.07.17.09.26.05.47-.18.77-.31.88-.4.77-.59 1.43-1.14 1.96-1.66.06-.06.12-.08.2-.07a.12.12 0 0 1 .08.06.13.13 0 0 1 0 .12l-.74 1.63a.3.3 0 0 0 0 .26c.03.04.06.08.1.1.03.03.07.04.11.05.36.05.65-.1.9-.42a12.76 12.76 0 0 1 3.34-3.1.2.2 0 0 1 .1 0 .18.18 0 0 1 .12.13l.05.21c.01.07 0 .14-.02.2a.32.32 0 0 1-.13.15l-1.28.77a.42.42 0 0 0-.19.24c-.03.1-.02.22.03.31.46.96 1.13 2.05 2.3 1.35.45-.27.89-.6 1.3-1.02a.3.3 0 0 1 .1-.05.38.38 0 0 1 .11-.03c.16 0 .2.09.16.24-.13.43-.1.79.1 1.07.85 1.21 3.4-1.25 4.01-1.88a.16.16 0 0 1 .07-.04.15.15 0 0 1 .19.12l.27 1.08c.03.12.09.21.18.29.08.07.19.1.3.11 1.03.03 1.96-1.05 2.61-1.8l.01-.02a.13.13 0 0 1 .16-.03c.03.01.05.04.07.06Zm-5.78 1.08a20.95 20.95 0 0 0 2.41-2.07.16.16 0 0 0-.04-.15.14.14 0 0 0-.06-.03c-1.39-.36-3.01 1.06-3.67 2.19a.38.38 0 0 0 .01.39c.04.06.1.1.15.13.06.03.13.04.2.03.3-.05.63-.22 1-.5Z" fill="#CE017B"/><path d="M50 35.27a.02.02 0 0 1 0 .01v.02h-.02a31.18 31.18 0 0 0-15.55-1.88 43.42 43.42 0 0 0-10.35 2.56c-.57.23-1.05.34-1.44.35-1.07.02-2.26-.5-3.03-.6-.52-.06-1.05-.08-1.59-.07-.06 0-.1 0-.12-.03-.03-.05-.02-.08.03-.1a76.95 76.95 0 0 1 11.61-2.9c4.04-.67 7.72-.79 11.05-.35 3.06.4 5.7 1.15 7.9 2.24.45.23 1.13.42 1.5.75Z" fill="#083C92"/><path d="M40.84 37.05a.27.27 0 0 0 .35.15.3.3 0 0 0 .12-.09c.8-.92 1.43-1.86 1.88-2.84a.3.3 0 0 1 .13-.14.28.28 0 0 1 .2-.02l.6.13.05.02.04.05a.14.14 0 0 1 0 .13c-.68 1.31-1.67 3.13-2.95 3.54a.39.39 0 0 1-.26 0c-.6-.25-.88-1.04-.67-1.68.34-.98.88-1.78 1.63-2.4.06-.05.14-.04.24.02l.04.04a.16.16 0 0 1 .03.12l-.03.06a12.31 12.31 0 0 0-1.37 2.63c-.04.13-.06.23-.03.28Z" fill="#CE017B"/></svg>