<!-- by TradingView --><svg width="18" height="18" viewBox="0 0 18 18" xmlns="http://www.w3.org/2000/svg"><path fill="#F0F3FA" d="M0 0h18v18H0z"/><path d="M12.72 5.5c.7 0 1.8-.2 2.28-.4-.18.3-1.37.9-2.37.9-1.82 0-3.36-1.5-5.48-1.5-1.7 0-3.47.29-4.15.6A9.65 9.65 0 0 1 7.15 4c2.29 0 3.78 1.5 5.57 1.5ZM11.64 6H10v6.86c0 .63.73 1.14 1.64 1.14H13v-.95h-.4c-.61 0-.96-.34-.96-.76V6Z" fill="#00B5E8"/><path d="M8.47 7.45v1A2.84 2.84 0 0 0 7.11 8C6.68 8 6 8.19 6 8.75s.68.96 1.32 1.3c.63.34 1.68.79 1.68 2.03C9 13.32 7.74 14 6.9 14c-.68 0-1.55-.45-1.9-.68l.42-.91c.28.19.97.59 1.47.59.64 0 1.11-.24 1.11-.8 0-.57-.26-.91-1.1-1.36C6.04 10.39 5 9.7 5 8.69 5 7.68 5.95 7 6.9 7c.75 0 1.36.3 1.57.45Z" fill="#414141"/></svg>