<!-- by TradingView --><svg width="18" height="18" viewBox="0 0 18 18" xmlns="http://www.w3.org/2000/svg"><path fill="#F0F3FA" d="M0 0h18v18H0z"/><path d="M9.18 4.65a.58.58 0 1 0 0-1.15.58.58 0 0 0 0 1.15Z" fill="#F39612"/><path d="M8.17 6.73c-.33-.23-.64-.47-.93-.7-.46-.39-1.02-1.02-.44-1.6.15-.15.34-.25.57-.3.74-.13 1.2.52 1.04 1.2-.04.2-.18.47-.22.7a2.27 2.27 0 0 0 0 .7h-.02ZM10.05 6.79c-.08-.4-.15-.78-.2-1.15-.1-.6-.08-1.43.73-1.48.22-.01.43.04.62.17.65.4.55 1.18-.03 1.58-.16.11-.45.22-.63.37a2.28 2.28 0 0 0-.46.52h-.02v-.01Z" fill="#F9B20F"/><path d="M6.92 4.82c-.09.21-.02.4.05.61v.05h-.02l-.02.01c-.02 0-.04-.01-.06-.04a.77.77 0 0 1-.05-.68.78.78 0 0 1 .5-.44l.08.01.01.02v.04l-.02.01c-.2.1-.38.2-.47.4ZM10.42 4.53c-.22.1-.3.3-.38.5l-.02.02-.02.01h-.02l-.02-.01c-.01-.02-.02-.04 0-.07.06-.27.2-.45.4-.55.21-.1.44-.1.7.01.03.01.04.03.05.06v.02l-.02.01-.02.01h-.02c-.22-.06-.42-.11-.63 0Z" fill="#fff"/><path d="M5.08 5.42c.02.32.3.56.6.54.33-.02.57-.3.55-.61a.58.58 0 0 0-.62-.55.58.58 0 0 0-.53.62ZM12.62 6.23a.58.58 0 1 0 0-1.16.58.58 0 0 0 0 1.16Z" fill="#F39612"/><path d="m6.73 8.03-1.16.12c-.6.04-1.44-.04-1.42-.85 0-.22.08-.42.21-.6.45-.62 1.23-.46 1.58.15.1.17.2.46.32.65a2.3 2.3 0 0 0 .49.5v.02h-.02ZM11.3 8.2c.23-.34.46-.65.7-.94.37-.46 1-1.02 1.59-.45.15.15.25.34.3.56.14.74-.5 1.2-1.2 1.05-.19-.04-.46-.18-.69-.21a2.29 2.29 0 0 0-.71 0 .02.02 0 0 1 0-.02Z" fill="#F9B20F"/><path d="M13.2 6.93c-.22-.1-.41-.02-.62.05h-.05l-.01-.02v-.02c0-.02.01-.04.04-.06a.78.78 0 0 1 .68-.06c.22.08.37.25.45.51v.08h-.06l-.02-.02c-.1-.2-.2-.38-.41-.46ZM4.51 7.51c.1.22.28.31.48.4l.02.02V8c-.02.02-.05.02-.08 0a.78.78 0 0 1-.52-.43.78.78 0 0 1 .05-.68c.01-.03.03-.05.06-.05h.02l.01.02.01.02v.02c-.07.21-.14.4-.05.62Z" fill="#fff"/><path d="M9.04 7.93a.31.31 0 1 0 0-.62.31.31 0 0 0 0 .62ZM8.06 8.3a.31.31 0 1 0 0-.63.31.31 0 0 0 0 .62ZM10.01 8.37a.31.31 0 1 0 0-.62.31.31 0 0 0 0 .62Z" fill="#BD7419"/><path d="M4.08 9.4a.58.58 0 1 0 0-1.15.58.58 0 0 0 0 1.15Z" fill="#F39612"/><path d="M7.61 9.25a.31.31 0 1 0 0-.62.31.31 0 0 0 0 .62Z" fill="#BD7419"/><path d="M13.92 9.78a.58.58 0 1 0 0-1.15.58.58 0 0 0 0 1.15Z" fill="#F39612"/><path d="M10.37 9.36a.31.31 0 1 0 0-.62.31.31 0 0 0 0 .62Z" fill="#BD7419"/><path d="m6.67 9.78-.69.94c-.36.47-.99 1.04-1.58.48a1.05 1.05 0 0 1-.3-.56c-.16-.74.48-1.2 1.16-1.07.2.04.47.17.7.2a2.3 2.3 0 0 0 .7-.02h.01a.02.02 0 0 1 0 .03Z" fill="#F9B20F"/><path d="M8 10.24a.31.31 0 1 0 0-.62.31.31 0 0 0 0 .62ZM9.94 10.32a.31.31 0 1 0 0-.62.31.31 0 0 0 0 .62Z" fill="#BD7419"/><path d="M11.22 10.09c.4-.08.79-.13 1.16-.18.6-.07 1.44-.03 1.46.79 0 .21-.06.42-.19.61-.41.63-1.2.5-1.58-.08-.1-.17-.21-.45-.35-.64a2.3 2.3 0 0 0-.51-.48.02.02 0 0 1 0-.02h.01Z" fill="#F9B20F"/><path d="M13.47 10.52c-.1-.21-.28-.3-.48-.4h-.02v-.07h.08c.26.07.44.21.53.42.1.2.08.43-.04.68-.01.03-.03.04-.05.05h-.02l-.02-.02v-.04c.06-.21.12-.41.02-.62Z" fill="#fff"/><path d="M8.93 10.68a.31.31 0 1 0 0-.62.31.31 0 0 0 0 .62Z" fill="#BD7419"/><path d="M4.78 11.08c.22.08.42 0 .62-.07a.05.05 0 0 1 .05 0l.01.02v.02c0 .02 0 .04-.04.06a.79.79 0 0 1-.68.08.78.78 0 0 1-.46-.5v-.08l.02-.01h.05l.01.02c.1.2.2.38.42.46Z" fill="#fff"/><path d="M7.93 11.22c.07.4.12.78.17 1.15.06.6.01 1.44-.8 1.45-.22 0-.42-.06-.62-.19-.63-.42-.5-1.2.1-1.58.16-.1.45-.2.64-.34a2.28 2.28 0 0 0 .49-.5c0-.01 0-.01 0 0h.02ZM9.84 11.24c.33.22.65.46.95.69.47.36 1.04.99.48 1.58-.15.16-.34.26-.57.3-.74.16-1.21-.48-1.07-1.17.04-.2.17-.47.2-.7a2.28 2.28 0 0 0-.02-.7.02.02 0 0 1 .02 0h.01Z" fill="#F9B20F"/><path d="M5.38 12.95a.58.58 0 1 0 0-1.15.58.58 0 0 0 0 1.15ZM12.34 13.2a.58.58 0 1 0 0-1.14.58.58 0 0 0 0 1.15Z" fill="#F39612"/><path d="M11.13 13.13c.09-.22.02-.4-.05-.61a.05.05 0 0 1 0-.05l.01-.01h.02c.03 0 .05.01.06.04.13.24.15.46.07.67a.77.77 0 0 1-.5.45h-.08v-.02l-.01-.03v-.02l.02-.01c.2-.1.38-.2.46-.41ZM7.52 13.57a.78.78 0 0 1-.68-.04c-.03-.02-.04-.04-.05-.06v-.02l.02-.02h.04c.21.06.41.13.63.03.21-.1.3-.28.4-.48a.05.05 0 0 1 .03-.02h.04v.08a.78.78 0 0 1-.43.53Z" fill="#fff"/><path d="M8.8 14.5a.58.58 0 1 0 0-1.15.58.58 0 0 0 0 1.15Z" fill="#F39612"/></svg>