<!-- by TradingView --><svg width="18" height="18" viewBox="0 0 18 18" xmlns="http://www.w3.org/2000/svg"><path fill="#F0F3FA" d="M0 0h18v18H0z"/><path d="M9 3a6.4 6.4 0 0 1 5.86 3.66.06.06 0 0 1-.06.05h-.4a.14.14 0 0 1-.12-.07A5.9 5.9 0 0 0 9 3.49a5.9 5.9 0 0 0-5.33 3.2.14.14 0 0 1-.08.02h-.4a.06.06 0 0 1-.05-.05v-.03A6.4 6.4 0 0 1 9 3Z" fill="#171717"/><path d="M5.75 5.06a.02.02 0 0 1-.03 0v-.03a5.6 5.6 0 0 1 6.93.28c2.78 2.46 2.02 6.62-1.23 8.2a.02.02 0 0 1-.03-.02v-.01c.35-.79.7-2.04 1.29-3.77a1.06 1.06 0 0 1 .66-.68v-.02h-.01L13.3 9h-1.28v.04l.37.14a.17.17 0 0 1 .11.15c.02.2 0 .38-.07.57-.25.8-.51 1.78-.77 2.54a.04.04 0 0 1-.04.02.04.04 0 0 1-.04-.02l-1-3a.2.2 0 0 1 .12-.26l.4-.14a.02.02 0 0 0 .02-.03.02.02 0 0 0-.02-.01H9.26v.05h.01c.21.04.38.12.5.23.03.01.04.03.05.06l.32.78c.02.03.02.07 0 .1l-.73 2.3a.02.02 0 0 1-.04 0l-1.1-3.06a.23.23 0 0 1 .14-.3l.29-.1a.03.03 0 0 0 .02-.04.03.03 0 0 0-.03-.03L7.42 9c-.27 0-.4-.1-.41-.36a9.38 9.38 0 0 1-.02-1.06.07.07 0 0 1 .06-.02c.86.02 2.25-.09 2.23-1.3 0-.89-.82-1.23-1.57-1.25-.38 0-.97 0-1.78.02a.49.49 0 0 0-.18.03Z" fill="#171717"/><path d="M11.27 13.57c-1.11.48-2.25.6-3.42.36-3.95-.81-5.69-5.5-2.68-8.45.18-.18.34-.31.47-.4h.05c.02 0 .03 0 .04.02l.04.03h.05c.31.02.48.17.48.45.03 1.19.02 2.29-.02 3.3a.31.31 0 0 1-.2.29l-.34.12a.04.04 0 0 0-.02.04l.01.02h1.52a.3.3 0 0 1 .17.06.3.3 0 0 1 .11.14l1.5 3.93a.08.08 0 0 0 .12.04.08.08 0 0 0 .04-.04l1.03-2.82a.03.03 0 0 1 .03-.01h.01l.01.02 1.02 2.84a.05.05 0 0 1-.02.06Z" fill="#171717"/><path d="M6.99 5.15a.03.03 0 0 1 .03-.03h.44c.31 0 .6.12.82.33.22.2.34.48.34.77v.12a1.04 1.04 0 0 1-.34.77 1.17 1.17 0 0 1-.83.32h-.44a.03.03 0 0 1-.03-.03V5.15ZM9 14.52a6.03 6.03 0 0 0 5.5-3.57h.5a.02.02 0 0 1 0 .03A6.37 6.37 0 0 1 9 15a6.37 6.37 0 0 1-5.99-4.04h.52l.02.03a5.6 5.6 0 0 0 2.19 2.57c1.03.64 2.11.96 3.26.96Z" fill="#171717"/></svg>