<!-- by TradingView --><svg width="18" height="18" viewBox="0 0 18 18" xmlns="http://www.w3.org/2000/svg"><path fill="#F0F3FA" d="M0 0h18v18H0z"/><path d="M10.5 3.4v.31a.02.02 0 0 1-.01.01 10 10 0 0 0-3.24.47 5.65 5.65 0 0 0-3.34 2.64c-.86 1.79.24 3.28 1.96 3.8a6.01 6.01 0 0 0 2.58.17.04.04 0 0 1 .01.03v3.79s0 .02.02.03l.03.01h.95l.03-.01.01-.03V6.28l.01-.04.04-.02c1.23-.27 3.14-.1 3.77 1.18.47.98-.1 2.01-.87 2.67a6.42 6.42 0 0 1-2.62 1.25v.79h.02c1.76-.33 3.88-1.52 4.42-3.38.48-1.68-.78-2.93-2.29-3.32a6.34 6.34 0 0 0-3.5.12l-.01.02V9.8c0 .01 0 .03-.02.04l-.03.01c-.86.2-1.69.17-2.48-.1-1.18-.4-1.85-1.47-1.27-2.69a3.9 3.9 0 0 1 2.02-1.78 8.37 8.37 0 0 1 5.9-.39c1.38.49 2.44 1.47 2.4 3.02-.04 2.56-2.98 4.13-5.13 4.53l-.02.02-.01.02v2.48l-.01.04-.03.01H8.17c-.02 0-.04 0-.05-.02a.07.07 0 0 1-.02-.05v-2.36c0-.01 0-.02-.02-.03l-.02-.01H6.37V12.28a.03.03 0 0 1 .02-.01h1.67l.03-.01.01-.03V11.55h-.01a6.38 6.38 0 0 1-3.76-.88 2.74 2.74 0 0 1-1.3-2.76c.34-2.19 2.5-3.69 4.49-4.17a12.51 12.51 0 0 1 2.98-.34Zm-5.05 8.36c.34 0 .6.28.6.6a.6.6 0 0 1-.63.57.6.6 0 0 1-.6-.6.6.6 0 0 1 .63-.57ZM11.56 3c.37 0 .66.3.65.64 0 .35-.3.63-.66.63a.65.65 0 0 1-.65-.64c0-.35.3-.63.66-.63Z" fill="#0F4C75"/></svg>