<!-- by TradingView --><svg width="56" height="56" viewBox="0 0 56 56" xmlns="http://www.w3.org/2000/svg"><path fill="#F0F3FA" d="M0 0h56v56H0z"/><path d="M7.41 26.6c.05-.01.1-.05.13-.09.03-.04.05-.09.05-.14l-.07-1.65c-.03-1.52.5-3.66 2.03-4.38a3.22 3.22 0 0 1 2.69-.09c.32.13.57.38.74.74.03.07.02.14-.03.2-.26.28-.59.35-.98.22a.39.39 0 0 1-.16-.1c-1.16-1.27-2.5.17-2.85 1.24a9 9 0 0 0-.29 4.1c.1.7 1.33.7 1.87.75.17.02.28.11.32.28l.02.07a.27.27 0 0 1-.06.25.3.3 0 0 1-.1.08.32.32 0 0 1-.14.02H9.44a.4.4 0 0 0-.23.08.34.34 0 0 0-.13.19c-.08.3-.08.62-.03.96a69.04 69.04 0 0 1 .7 5.47.28.28 0 0 1-.06.1.33.33 0 0 1-.22.1h-.1a.4.4 0 0 1-.3-.13.68.68 0 0 1-.18-.36l-1.17-6.52c-.05-.27-.22-.4-.5-.42-.66-.03-1.2-.06-1.62-.1-.44-.04-.64-.26-.6-.66.09-.72.63-.87 1.22-.55l.48.26c.23.12.47.15.71.08ZM29.04 25.84l-1.06.54a.97.97 0 0 1-.27.09.82.82 0 0 1-.27 0 .58.58 0 0 1-.23-.08.4.4 0 0 1-.14-.16c-.2-.4.03-.83.48-1.03.37-.16.7-.3.98-.44.4-.2.6-.52.57-.97-.1-1.84-.17-3.03-.23-3.58 0-.04 0-.07.03-.1a.2.2 0 0 1 .1-.08.51.51 0 0 1 .42.04c.12.06.2.16.24.3.28.98.42 2.08.41 3.27 0 .04.01.09.04.12.02.04.05.07.09.09a.27.27 0 0 0 .25 0l.59-.32a.38.38 0 0 1 .28-.03c.32.1.48.32.49.69 0 .3-.1.5-.27.6-.23.13-.59.29-1.08.47a.18.18 0 0 0-.09.07.16.16 0 0 0-.02.1l.41 2.92c.1.65.27 1.29.55 1.91.3.7.72.72 1.42.9.05.02.1.04.14.08.05.03.08.07.1.12a.32.32 0 0 1-.01.3.6.6 0 0 1-.48.31c-1.47.17-2.32-.42-2.55-1.79a203 203 0 0 1-.7-4.25c-.01-.12-.08-.15-.19-.1Z" fill="#FE833E"/><path d="M39.87 21.59c0 .02.03.04.05.06a.16.16 0 0 0 .2-.02c.45-.43.58-.9 1.28-.42.5.34.99.87 1.47 1.61.2.3.17.57-.07.84l-.02.02c-.26.22-.48.23-.67.03l-.8-.88a.7.7 0 0 0-.37-.22.49.49 0 0 0-.38.07c-.2.13-.3.35-.33.65-.16 1.66-.12 3.62.11 5.88.01.1-.01.23-.07.36-.05.14-.14.28-.25.42L40 30c-.35-.02-.54-.14-.58-.38a39.55 39.55 0 0 1-.36-8.07c0-.2.06-.36.14-.46a.27.27 0 0 1 .1-.07.25.25 0 0 1 .24.03c.04.02.06.05.08.1l.25.44Z" fill="#B8C847"/><path d="M12.55 24a.52.52 0 0 0 .45-.56.48.48 0 0 0-.55-.44.52.52 0 0 0-.45.56c.03.28.27.47.55.44Z" fill="#FE833E"/><path d="M49.85 26.4a.65.65 0 0 0-.3.3c-.47 1.2-1.95 2.62-3.42 1.8a3.24 3.24 0 0 1-1.7-2.25A14.17 14.17 0 0 1 44 23.4c.01-.1.06-.2.13-.26.08-.07.18-.1.29-.1h.24c.28 0 .41.12.41.38 0 1.2.06 2.38.65 3.43.65 1.14 1.68 1.46 2.57.24.27-.37.5-.83.7-1.38.26-.74.54-1.57.82-2.5a.26.26 0 0 1 .08-.13.3.3 0 0 1 .4.02c.1.1.16.24.18.42.09.72.25 2.49.49 5.3.2 2.5-.2 5.45-3.25 6.12-1.88.42-2.43-1.22-2.27-2.6.01-.08.06-.13.14-.16a.5.5 0 0 1 .45.05c.08.05.15.16.22.32.23.56.38 1.54 1.3 1.3a2.55 2.55 0 0 0 1.78-1.66c.37-.94.56-1.77.57-2.47a44.22 44.22 0 0 1 .14-3.25.13.13 0 0 0-.05-.06.15.15 0 0 0-.14 0Z" fill="#44BDD6"/><path d="M22.1 30.4c-.01.05 0 .1.02.15.02.05.06.1.11.12.45.27.94.41 1.45.43.95.03 1.66-.65 2.1-1.4.18-.32.22-.59.12-.79-.4-.77-1.84-1.02-2.77-1.2a3.79 3.79 0 0 1-1.2-.64c-.63-.45-.7-1.5-.15-2.1a2.88 2.88 0 0 1 3.42-.68c.42.2.72.55.38.95a.42.42 0 0 1-.15.1.45.45 0 0 1-.51-.1c-.68-.79-1.94-.82-2.32.25-.19.55.48 1 1 1.22l2.17.88c.95.4 1.35 1.08 1.2 2.06-.33 2.12-2.74 2.8-4.66 2.06-.56-.22-1.2-.6-1.29-1.15-.1-.56.15-1.37.93-1.24.05 0 .09.02.13.04l.1.08a.3.3 0 0 1 .05.24l-.13.71Z" fill="#FE833E"/><path d="M34.18 25.16c-.8.7-.25 2.39.22 3.13.53.8 1.28 1.08 2.25.8a.28.28 0 0 0 .17-.12c.17-.27.27-.53.52-.6.24-.08.41 0 .52.23.39.79-.08 1.13-.83 1.3-1.55.37-3.03-.28-3.63-1.7-.74-1.74-.62-3.8 1.74-4.16.88-.14 1.65.09 2.3.67.04.03.07.08.1.13a.35.35 0 0 1-.02.3.38.38 0 0 1-.1.13c-.43.32-1.07.37-1.5.03-.15-.12-.39-.37-.67-.42-.4-.09-.76 0-1.07.28Z" fill="#CD3F7F"/><path d="M13.6 27c.25 2.4.38 4.2.4 5.42 0 .1-.04.22-.1.32a.84.84 0 0 1-.31.26h-.02c-.38 0-.6-.11-.64-.32a44.95 44.95 0 0 1-.9-5.67 8.18 8.18 0 0 1 .02-1.67c0-.05.02-.1.05-.14a.41.41 0 0 1 .12-.12c.05-.03.1-.05.16-.06a.6.6 0 0 1 .19-.02c.36.03.59.18.69.44.16.46.27.98.33 1.56ZM16.87 25.59l.05.06.07.03a.16.16 0 0 0 .14-.05c.44-.43.57-.9 1.27-.42.5.34 1 .88 1.47 1.62.2.29.17.57-.08.84l-.01.01c-.26.23-.48.24-.67.03l-.8-.87a.7.7 0 0 0-.37-.22.49.49 0 0 0-.37.06c-.2.13-.32.35-.34.65-.16 1.66-.13 3.62.1 5.88.01.1-.01.23-.07.36-.05.14-.14.28-.25.42L17 34c-.35-.02-.54-.14-.58-.38-.38-2.49-.5-5.18-.35-8.07.01-.2.06-.36.15-.46a.27.27 0 0 1 .1-.07.25.25 0 0 1 .24.03c.03.02.06.05.08.1l.24.44Z" fill="#FE833E"/><path d="M37.67 31.77c-.01.09.03.13.13.13 1.84-.12 3.49-.17 4.94-.16.36 0 .68.15.98.45.16.17.25.47.26.88.02.51.02 1 .02 1.45 0 .95-.44 1.31-1.43 1.34-3.62.1-5.72.15-6.31.14-.9-.02-1.22-.68-1.23-1.46l-.03-1.1c-.04-1.1.49-1.53 1.62-1.55.06 0 .11-.02.16-.06l.76-.73c.17-.16.24-.13.21.1l-.08.57Z" fill="#CD3F7F"/><path d="M39.14 34.94a.85.85 0 0 1-.63-.3 1.12 1.12 0 0 1-.02-1.42.9.9 0 0 1 .29-.21.8.8 0 0 1 .34-.09c.23 0 .46.1.63.3.17.18.27.43.27.7a1.02 1.02 0 0 1-.25.71.9.9 0 0 1-.29.22.8.8 0 0 1-.34.09ZM42.32 33.28a.42.42 0 0 0-.15-.01.41.41 0 0 0-.2.13.3.3 0 0 0-.07.2l.03 1.09c0 .09-.04.12-.14.1l-.09-.03c-.12-.03-.18-.12-.2-.25l-.03-.88c-.01-.2-.1-.3-.28-.3l-.09-.02c-.16 0-.25.06-.25.22v1.16c0 .04-.01.07-.04.1a.14.14 0 0 1-.1.03h-.09a.14.14 0 0 1-.09-.03.12.12 0 0 1-.04-.1v-1.5c0-.08.03-.15.1-.21a.32.32 0 0 1 .21-.09h1.65c.08 0 .14.02.2.07.16.1.26.35.3.72.04.33.06.64.05.93 0 .04-.02.09-.06.12a.2.2 0 0 1-.13.05h-.13a.15.15 0 0 1-.1-.04.14.14 0 0 1-.05-.1v-1.1c0-.14-.07-.23-.21-.26ZM36.9 34c.01.16.07.3.18.42.05.06.12.1.2.1l.4.07c.34.06.36.17.06.33-.35.19-.7.09-1.04-.3a.93.93 0 0 1-.06-1.19c.3-.43.63-.57 1-.41.31.13.3.24-.03.33l-.39.1a.33.33 0 0 0-.19.13.67.67 0 0 0-.12.43ZM35.75 34.74c-.02.12.05.23.16.25.1.01.21-.08.23-.2.02-.12-.05-.23-.16-.25-.1-.01-.2.07-.23.2Z" fill="#fff"/><path d="M38.72 33.94c0 .33.2.6.42.6.24 0 .42-.28.42-.61 0-.33-.2-.6-.43-.6-.23 0-.42.28-.41.61Z" fill="#CD3F7F"/></svg>