<!-- by TradingView --><svg width="18" height="18" viewBox="0 0 18 18" xmlns="http://www.w3.org/2000/svg"><path fill="url(#a)" d="M0 0h18v18H0z"/><path d="M12.26 12h1.66c.06 0 .1-.09.06-.14L9.89 5.04 9.83 5h-1.6c-.03 0-.05.02-.06.04L4 11.86c-.03.05 0 .14.07.14H5.7c.04 0 .05-.02.07-.04l.79-1.32c.01-.02.05-.03.06-.03h4.7c.04 0 .05.01.07.03l.79 1.32c.03.02.05.04.08.04ZM7.54 9l1.38-2.32a.09.09 0 0 1 .15 0L10.44 9c.03.06 0 .14-.07.14H7.6c-.06 0-.1-.07-.06-.14Z" fill="#fff"/><defs><linearGradient id="a" x1="3.35" y1="3.12" x2="21.9" y2="24.43" gradientUnits="userSpaceOnUse"><stop stop-color="#1A1E21"/><stop offset="1" stop-color="#06060A"/></linearGradient></defs></svg>