<!-- by TradingView --><svg width="56" height="56" viewBox="0 0 56 56" xmlns="http://www.w3.org/2000/svg"><path fill="#F0F3FA" d="M0 0h56v56H0z"/><path d="M15 13h-2v14h2V15h12v-2H15ZM15 29v12h12v2H13V29h2ZM41 29v12H29v2h14V29h-2ZM29 15v-2h14v14h-2V15H29ZM35 21.96l-1.49 1.99c-.45-.51-1.95-1.54-4.29-1.54-2.93 0-5.22 2.17-5.22 5.59s2.3 5.59 5.22 5.59c2.34 0 3.84-1.03 4.29-1.54l1.49 2c-.55.64-2.47 1.95-5.78 1.95-6.25 0-8.22-3.64-8.22-8 0-4.36 1.97-8 8.22-8 3.31 0 5.23 1.3 5.78 1.96Z" fill="#C2202D"/></svg>