<!-- by TradingView --><svg width="18" height="18" viewBox="0 0 18 18" xmlns="http://www.w3.org/2000/svg"><path fill="#F0F3FA" d="M0 0h18v18H0z"/><path d="m13.32 11.47.01-.01a4.95 4.95 0 0 0-.18-5.26 5.02 5.02 0 0 0-8.28-.03 4.95 4.95 0 0 0-.38 4.94 5.03 5.03 0 0 0 6.9 2.21.06.06 0 0 0-.02-.05l-1.4-1.5a.09.09 0 0 0-.08-.03c-.53.13-1.06.13-1.6.03a2.54 2.54 0 0 1-2.17-2.48c-.1-1.66.71-3.02 2.46-3.17 2.04-.19 3.47 1.03 3.3 3.09a10.37 10.37 0 0 1-.09.65c0 .02.02.03.03.04l1.45 1.56.02.01h.03Zm-3.07-2.75h-.02L8.9 9.96l-.02.03v.03l.46 1.31a.07.07 0 0 0 .07.05c.2.02.4 0 .57-.07H10l.03.01 2.52 2.63a.16.16 0 0 0 .17.04 1.96 1.96 0 0 0 1.26-1.28l-.01-.03-3.69-3.96a.03.03 0 0 0-.03 0Z" fill="#00A4E3"/></svg>