<!-- by TradingView --><svg width="18" height="18" viewBox="0 0 18 18" xmlns="http://www.w3.org/2000/svg"><path fill="#F0F3FA" d="M0 0h18v18H0z"/><path d="M9.05 3c1.1 0 2.08.3 2.96.88a4.43 4.43 0 0 1 1.89 2.47c.07.23.1.47.1.74a1127.1 1127.1 0 0 1-.03 3.9c0 .27-.04.51-.11.74a4.42 4.42 0 0 1-1.92 2.44c-.9.56-1.89.84-2.99.83A5.4 5.4 0 0 1 6 14.12a4.43 4.43 0 0 1-1.89-2.47c-.07-.23-.1-.47-.1-.74a818.92 818.92 0 0 1 .03-3.9c0-.27.04-.51.11-.74a4.42 4.42 0 0 1 1.92-2.44A5.4 5.4 0 0 1 9.05 3Zm0 .17a5.16 5.16 0 0 0-2.9.82c-.92.6-1.53 1.4-1.84 2.4-.05.17-.07.35-.08.55a186.4 186.4 0 0 0-.03 4.03c0 .2.02.39.07.55a4.24 4.24 0 0 0 1.8 2.44c.85.57 1.81.86 2.88.87a5.16 5.16 0 0 0 2.9-.82c.92-.6 1.53-1.4 1.84-2.4.04-.17.07-.35.08-.56a176.53 176.53 0 0 0 .03-4.02c0-.2-.02-.39-.07-.55a4.24 4.24 0 0 0-1.8-2.44 5.17 5.17 0 0 0-2.88-.87Z" fill="#040404"/><path d="m8.08 7.3.95-2h.01a.02.02 0 0 1 .02 0h.01l.93 2v.02a.02.02 0 0 1-.02.02L8.1 7.32h-.01a.02.02 0 0 1-.01-.03Z" fill="#0E0D12"/><path d="M10.24 3.53c.35 0 .66.2.95.6a.07.07 0 0 1 0 .06v.03l-.04.02h-.03a.12.12 0 0 1-.13-.04c-.24-.3-.48-.47-.73-.5a.31.31 0 0 0-.29.15.13.13 0 0 0-.02.13.13.13 0 0 0 .1.07c.75.15 1.4.45 1.93.93.6.54.92 1.17.95 1.91 0 .02 0 .04-.02.05a.07.07 0 0 1-.04.02H12.81a.07.07 0 0 1-.03-.04l-.01-.07-.02-.02h-.03l-.94.2-.06-.02a.09.09 0 0 1-.04-.06v-.07l.03-.02.02-.01.98-.2.02-.01a.06.06 0 0 0 .03-.06l-.03-.14-.01-.02-.02-.02h-.05l-1 .26h-.03l-.02-.01-.02-.02v-.02l-.03-.07v-.01a.05.05 0 0 1 .02-.03l.02-.01.1-.02.02-.01.01-.01v-.02l-.01-.01a.77.77 0 0 1-.33-.44c-.04-.19.04-.33.26-.42a.63.63 0 0 1 .23-.06h.01l.01.01.01.02v.01c0 .01 0 .03-.02.05-.06.17-.03.27.08.3.12.04.22-.07.28-.33v-.09a.17.17 0 0 0-.04-.07l-.42-.44a.05.05 0 0 0-.04-.01l-.04.01-.12.13a.07.07 0 0 1-.04.02h-.05l-.55-.33-.02-.01h-.03l-.01.03v.03c0 .06.08.15.23.26.12.1.2.17.23.22.05.08.03.16-.06.23-.19.16-.38.18-.58.06-.1-.05-.19-.19-.28-.4l-.05-.12v-.04A.05.05 0 0 1 10.4 5l.1-.02h.04l.03.03.03.07c.06.17.12.28.18.33.09.1.2.1.34.01l.02-.02v-.05l-.02-.03a1.89 1.89 0 0 1-.37-.35c-.1-.12-.1-.22-.02-.3.07-.09.17-.1.3-.05a3.37 3.37 0 0 1 .48.26l.04-.01.01-.02v-.04a3.22 3.22 0 0 0-.9-.44l-.01.03-.09.21a.27.27 0 0 1-.26.19.4.4 0 0 1-.3-.13c-.07-.06-.06-.18.03-.36l.03-.05V4.2l-.02-.02-.02-.02h-.09a.07.07 0 0 0-.03.04l-.21.7-.03.03a.07.07 0 0 1-.05.01h-.08a.06.06 0 0 1-.04-.03v-.05l.22-.71v-.02l-.02-.02-.35-.04h-.01l-.02.01v.04l.01.11v.05l-.03.01h-.68l-.02.02-.02.02v.03a.03.03 0 0 0 .01.02h.02c.37 0 .57.01.61.02.07 0 .13.04.16.1a.2.2 0 0 1 .02.18c-.05.14-.16.22-.35.22a.14.14 0 0 0-.12.07l-.04.09-.02.02H8.8l-.37-.27V4.8l-.01-.01v-.02c.07-.08.13-.1.2-.1l.07.02c.2.05.35.05.45.01l.03-.02.02-.03v-.03l-.01-.03c-.03-.03-.07-.05-.13-.05h-.5a.27.27 0 0 1-.17-.1c-.06-.05-.08-.11-.04-.17a.24.24 0 0 1 .22-.12 8.15 8.15 0 0 0 .54-.02v-.07l-.04-.01-.83.06H8.2a.06.06 0 0 1-.02-.04v-.06h.02L8.2 4a5.06 5.06 0 0 1 1.53-.02l.01-.02c.05-.3.21-.43.5-.43ZM12.4 5.7v.01c-.04.22-.15.35-.35.39-.2.04-.33-.06-.38-.29l-.02-.02a.04.04 0 0 0-.04 0l-.01.01a.23.23 0 0 0 0 .18c.07.17.2.3.4.37.03.02.06.02.08.01l.56-.15h.02v-.02a.04.04 0 0 0 0-.04l-.24-.44V5.7h-.02Zm-2.04-1.45a.08.08 0 0 0-.1.04l-.1.2c-.01.04 0 .08.04.1l.06.03c.04.02.09 0 .1-.04l.1-.2a.08.08 0 0 0-.04-.1l-.06-.03ZM7.71 4.15l.02.03-.01.04-.03.03-.14.05-.02.02v.02l.01.01.5.63a.08.08 0 0 1 .01.1l-.02.02-.04.03a.1.1 0 0 1-.13-.03l-.24-.38a.13.13 0 0 0-.13-.06c-.17.02-.24.1-.21.25a4.17 4.17 0 0 1 .01.16l-.02.02c-.08.05-.14.04-.18-.04-.04-.07-.1-.1-.17-.08a.12.12 0 0 0-.05.02c-.1.09-.12.18-.03.28.05.05.16.07.34.07h.06c.02 0 .04 0 .05.02l.03.06-.01.06a.08.08 0 0 1-.05.03.73.73 0 0 1-.45-.04.4.4 0 0 1-.23-.21c-.04-.1-.03-.2.04-.3.1-.14.2-.2.32-.16l.1.02a.04.04 0 0 0 .05-.04c.03-.14.12-.23.27-.26a.05.05 0 0 0 .03-.08v-.02a.09.09 0 0 0-.1-.03 3.98 3.98 0 0 0-1.22.76l.9.55.02.01v.03a.06.06 0 0 1 0 .04l-.03.03a.1.1 0 0 1-.05.03.1.1 0 0 1-.07 0l-.88-.54h-.02l-.02.01a3.04 3.04 0 0 0-.46.7l.01.02.3.1h.03l.01-.02v-.02c-.04-.3.07-.46.34-.47.26-.02.43.1.51.37a.07.07 0 0 1-.03.08H6.6l-.07.01h-.02a.07.07 0 0 1-.04-.04l-.01-.03c0-.11-.08-.19-.23-.22a.17.17 0 0 0-.18.1.59.59 0 0 0-.05.25l.02.05.04.03.58.18a.08.08 0 0 1 .05.04.09.09 0 0 1 0 .07v.01a.1.1 0 0 1-.05.05.09.09 0 0 1-.07 0l-.18-.06h-.03l-.01.02v.01c-.01.22-.1.37-.26.46-.1.06-.2.07-.32.05a.33.33 0 0 1-.23-.2.52.52 0 0 1 .05-.54l.01-.02v-.02l-.01-.02h-.02l-.1-.04h-.05a.06.06 0 0 0-.03.03c-.04.07-.06.18-.08.34l-.02.2v.02l-.01.01-.02.01h-.09l-.03-.02v-.03a2.4 2.4 0 0 1 .61-1.48v-.02h-.02l-.35.02-.03.01-.02.03-.02.07c0 .02-.02.04-.03.05a.08.08 0 0 1-.11-.02.09.09 0 0 1-.02-.06l.02-.18.02-.04a.06.06 0 0 1 .04-.02l.67-.06c.02 0 .05 0 .07-.03a3.8 3.8 0 0 1 1.71-.91c.01 0 .02 0 .03.02Zm-1.9 2.2a.1.1 0 0 0-.06.07l-.05.14a.3.3 0 0 0 0 .2l.06.07a.2.2 0 0 0 .07.04.2.2 0 0 0 .17-.02c.05-.03.1-.08.11-.15l.05-.14v-.08a.1.1 0 0 0-.07-.06l-.2-.07a.1.1 0 0 0-.09 0Z" fill="#040404"/><path d="m9.86 7.51-.82.57a.02.02 0 0 1-.02 0l-.82-.57v-.03l.01-.01h1.64l.01.02a.02.02 0 0 1 0 .02ZM7.04 9.45l.9-1.86v-.01a.02.02 0 0 1 .03 0l.5.89a.02.02 0 0 1-.01.03l-1.4.98a.02.02 0 0 1-.02 0v-.03ZM11 9.5l-1.37-.98-.01-.01V8.5l.5-.89h.01a.02.02 0 0 1 .02 0l.87 1.87a.02.02 0 0 1-.01.02H11ZM9.88 7.7l-.36.67a.05.05 0 0 1-.04.03.05.05 0 0 1-.04-.01L9.2 8.2V8.2a.04.04 0 0 1 0-.05 9.8 9.8 0 0 0 .69-.46ZM8.27 7.73l.6.43.01.01a.02.02 0 0 1 0 .03l-.26.18a.02.02 0 0 1-.02 0 .02.02 0 0 1-.02 0l-.34-.62a.02.02 0 0 1 0-.03.02.02 0 0 1 .03 0ZM8.68 8.52 9 8.28a.03.03 0 0 1 .04 0l.36.26.01.02v.02l-.35.61v.02a.03.03 0 0 1-.05-.02l-.35-.63a.03.03 0 0 1 0-.04ZM6.9 9.77l1.6-1.13a.02.02 0 0 1 .02 0 .02.02 0 0 1 .01 0l.42.75v2.96a.02.02 0 0 1-.03 0h-.01L6.89 9.8a.02.02 0 0 1 0-.03ZM9.57 8.66l1.59 1.13a.02.02 0 0 1 0 .02.02.02 0 0 1 0 .01l-2.01 2.5-.01.01a.02.02 0 0 1-.02 0V9.44l.43-.77a.02.02 0 0 1 0-.01.02.02 0 0 1 .02 0Z" fill="#0E0D12"/><path d="M6.06 12.49c-.26.07-.47.02-.64-.17-.13-.14-.16-.29-.11-.44a.64.64 0 0 1 .3-.34c.17-.1.33-.14.5-.12.19 0 .33.09.43.23.17.23.15.44-.05.62a.06.06 0 0 1-.04.01c-.02 0-.03 0-.04-.02a.54.54 0 0 1-.1-.14.06.06 0 0 1 0-.06l.07-.1.01-.03v-.03c-.06-.23-.23-.3-.5-.2-.1.04-.19.1-.26.17-.07.08-.1.15-.07.22.04.13.16.19.36.19a.06.06 0 0 1 .05.02l.1.14.01.01a.03.03 0 0 1 0 .03h-.02ZM11.9 11.46c.07-.04.24.01.53.15l.15.07h.1a.3.3 0 0 1 .05.01h.01l.01.02v.02a.44.44 0 0 1-.16.2l-.02.01-.01.02v.1a.3.3 0 0 1-.14.24.28.28 0 0 1-.27.03c-.12-.05-.19-.12-.2-.21 0-.06.02-.16.07-.3l.02-.07v-.03a.05.05 0 0 0-.03-.04H12c-.13.01-.17.09-.13.22.03.07 0 .15-.05.22l-.03.01h-.03c-.15-.08-.2-.2-.13-.36a.54.54 0 0 1 .28-.31Zm.32.35a.05.05 0 0 0-.02.03l-.04.2a.05.05 0 0 0 0 .04.05.05 0 0 0 .03.02H12.28l.05-.01a.14.14 0 0 0 .07-.1v-.01c0-.04 0-.08-.03-.11a.17.17 0 0 0-.1-.07h-.05ZM11.28 12l-.1-.09a.06.06 0 0 0-.08.01l-.09.11a.06.06 0 0 0 .01.09l.1.08c.02.02.05.02.07-.01l.1-.11a.06.06 0 0 0-.01-.09ZM12.13 12.66l-.12.12-.03.02-.02-.01-.7-.5a.04.04 0 0 1 0-.04v-.02l.12-.12.03-.01h.02l.7.5v.03a.04.04 0 0 1 0 .03ZM6.57 12.43c.14-.02.27 0 .38.07.1.07.18.18.2.3a.4.4 0 0 1-.02.17.46.46 0 0 1-.1.16.59.59 0 0 1-.34.18.55.55 0 0 1-.38-.07.42.42 0 0 1-.19-.3c0-.05 0-.11.02-.17a.46.46 0 0 1 .09-.16c.04-.05.1-.1.15-.12a.59.59 0 0 1 .2-.06Zm.29.28c-.06-.1-.22-.1-.34-.01-.13.08-.18.23-.12.32.06.1.21.1.34.02.12-.08.18-.23.12-.33ZM10.94 12.18a.1.1 0 0 1 .06.03l.72.83v.01a.03.03 0 0 1 0 .03.55.55 0 0 1-.21.1.1.1 0 0 0-.06.04c-.1.16-.24.24-.4.22a.56.56 0 0 1-.37-.23c-.11-.13-.15-.25-.12-.38.04-.14.17-.22.38-.25h.01l.01-.02v-.02l-.2-.2v-.02a.06.06 0 0 1 0-.05l.02-.02.1-.06a.1.1 0 0 1 .06-.01Zm.24.64c-.12-.1-.26-.1-.32 0-.06.08-.02.23.1.32.12.08.26.08.32 0 .07-.1.02-.23-.1-.32ZM8.61 12.85l-.2-.04c-.02 0-.03 0-.04.03L8.2 13.9c0 .02 0 .03.02.04l.2.03c.02 0 .04 0 .04-.02l.18-1.08c0-.01 0-.03-.03-.03ZM9.29 12.83l-.22.03a.04.04 0 0 0-.03.04l.13 1.07c0 .02.02.03.04.03l.21-.03c.02 0 .03-.02.03-.04l-.12-1.06a.04.04 0 0 0-.04-.04ZM9.99 13.9l-.14.03H9.8a.07.07 0 0 1-.03-.04l-.26-.7v-.05l.04-.02a.3.3 0 0 1 .21-.01.04.04 0 0 0 .05-.01.42.42 0 0 1 .22-.14c.1-.02.18-.01.25.03.09.04.18.2.27.49a3.2 3.2 0 0 0 .07.2.05.05 0 0 1-.02.04h-.02l-.16.05h-.04a.06.06 0 0 1-.03-.03l-.17-.46a.16.16 0 0 0-.09-.1.15.15 0 0 0-.12.01h-.02a.16.16 0 0 0-.08.1.17.17 0 0 0 0 .12l.16.4a.07.07 0 0 1-.02.07l-.02.02ZM7.72 12.93c.15.02.28.1.37.21a.15.15 0 0 1 .02.16l-.2.46c-.02.02-.02.03-.02.05v.08l-.01.02a.03.03 0 0 1-.02 0 .45.45 0 0 1-.23-.12l-.02-.01h-.19a.38.38 0 0 1-.23-.1c-.08-.06-.1-.14-.08-.22.06-.19.27-.25.61-.17h.08c.02 0 .03-.02.03-.03v-.05a.07.07 0 0 0-.02-.03c-.08-.07-.17-.07-.25-.02a.1.1 0 0 1-.06.01.5.5 0 0 1-.19-.07v-.04c.1-.12.24-.16.4-.13Zm-.17.49c-.1 0-.18.05-.18.1 0 .06.09.1.19.1s.17-.06.17-.11c0-.06-.09-.1-.18-.1Z" fill="#040404"/></svg>