<!-- by TradingView --><svg width="18" height="18" viewBox="0 0 18 18" xmlns="http://www.w3.org/2000/svg"><path fill="#F0F3FA" d="M0 0h18v18H0z"/><path d="M15 10.35a7.74 7.74 0 0 1-2.2 2.13.29.29 0 0 1-.24.02.34.34 0 0 1-.18-.19c-.07-.15-.07-.28-.03-.39l.17-.4c.36-.88.78-1.91 1.26-3.26.36-1 .6-2.98-.7-3.22-1.12-.2-2.04.4-2.9 1.28a.1.1 0 0 1-.05.03.1.1 0 0 1-.06 0 .11.11 0 0 1-.05-.05.13.13 0 0 1-.02-.07C9.96 5.4 9.43 4.97 8.7 5c-.85.04-1.59.39-2.22 1.05a.08.08 0 0 1-.05.03l-.05-.01a.1.1 0 0 1-.04-.05.11.11 0 0 1 0-.06l.06-.53a.2.2 0 0 0 0-.08.18.18 0 0 0-.04-.07.15.15 0 0 0-.06-.04.14.14 0 0 0-.07 0l-1.21.21a.2.2 0 0 0-.1.05.24.24 0 0 0-.07.1.28.28 0 0 0 .01.22l.28.54a.84.84 0 0 1 0 .77L4.55 8.2c-.65 1.18-1.23 2.25-1.52 3.53-.08.31-.04.65.1.93l.1.19c.02.04.06.08.1.11a.24.24 0 0 0 .28-.01.3.3 0 0 0 .1-.13 55.48 55.48 0 0 1 2.07-4.49c.33-.7.8-1.38 1.4-2.02.32-.33 1.13-.92 1.55-.58.1.08.18.2.21.34a.8.8 0 0 1 0 .43C8.6 7.66 8.2 8.75 7.7 10.06l-.68 1.84c-.12.3-.05.64.2 1a.2.2 0 0 0 .12.08c.04 0 .09 0 .13-.02.54-.33.88-.68 1.01-1.06.17-.5.33-.88.47-1.23.17-.43.33-.82.46-1.29.27-.92.57-1.6.9-2.02.58-.77 1.43-1.8 2.22-1.71.1.01.2.07.27.15.08.09.12.2.13.32.08 1.42-.74 3.21-1.39 4.43a.77.77 0 0 0-.07.24c-.18 1.08-.17 2.23 1.1 2.2.6-.03 1.42-.81 2.06-1.55l.36-1.1Z" fill="#102694"/></svg>