<!-- by TradingView --><svg width="18" height="18" viewBox="0 0 18 18" xmlns="http://www.w3.org/2000/svg"><path fill="#F0F3FA" d="M0 0h18v18H0z"/><path d="M9.65 5.5c.2 0 .38-.1.38-.25 0-.14-.17-.25-.38-.25s-.38.11-.38.25.17.25.38.25Z" fill="#7A3F6F"/><path d="M8.63 5.74c.27 0 .48-.14.48-.32s-.21-.32-.48-.32-.49.15-.48.32c0 .18.21.33.48.32ZM7.7 5.46c.13 0 .24-.07.24-.16 0-.1-.11-.16-.25-.16-.13 0-.24.07-.24.16 0 .1.1.16.25.16ZM6.97 5.46c.1 0 .2-.06.2-.13s-.1-.13-.2-.13c-.11 0-.2.06-.2.13 0 .08.09.13.2.13Z" fill="#64508D"/><path d="M11.51 5.63c.11 0 .2-.07.2-.14 0-.08-.09-.14-.2-.14-.12 0-.2.06-.2.14 0 .07.09.14.2.14ZM10.82 5.83c.16 0 .29-.09.29-.2 0-.1-.13-.18-.29-.18-.16 0-.29.08-.29.19 0 .1.13.19.29.19Z" fill="#8D4262"/><path d="M6.35 5.46c-.15 0-.27.07-.27.17s.12.17.26.17c.15 0 .26-.07.26-.17s-.11-.17-.25-.17Z" fill="#6379AA"/><path d="M7.37 6.76c.5 0 .9-.26.9-.6 0-.32-.4-.6-.9-.6-.49 0-.89.28-.89.6 0 .34.4.6.9.6Z" fill="#64508D"/><path d="M9.74 6.61c.4 0 .74-.21.74-.48s-.33-.49-.74-.49c-.42 0-.75.22-.75.49s.33.48.75.48Z" fill="#7A3F6F"/><path d="M5.72 5.82c-.2 0-.37.1-.37.24 0 .14.16.25.36.25.2 0 .37-.11.37-.25 0-.13-.16-.24-.36-.24Z" fill="#6379AA"/><path d="M11.9 6.69c.37 0 .66-.2.66-.44s-.3-.43-.65-.43c-.36 0-.66.2-.66.43 0 .24.3.44.66.44Z" fill="#B64449"/><path d="M8.56 6.03c.07 0 .13-.04.13-.08 0-.05-.06-.08-.14-.08-.07 0-.13.03-.13.08 0 .04.06.08.14.08Z" fill="#64508D"/><path d="M10.83 6.25c.1 0 .2-.06.2-.14-.01-.07-.1-.13-.2-.13-.12 0-.2.07-.2.14 0 .08.09.13.2.13Z" fill="#8D4262"/><path d="M4.94 6.56c.16 0 .28-.08.28-.18 0-.1-.13-.19-.28-.19-.15 0-.27.09-.27.19s.12.18.27.18Z" fill="#658EBC"/><path d="M8.67 6.21c-.13 0-.24.07-.24.16 0 .08.1.15.24.15.13 0 .24-.07.24-.15 0-.09-.1-.16-.24-.16Z" fill="#64508D"/><path d="M11.02 6.74c.13 0 .23-.07.23-.16s-.1-.15-.23-.15c-.12 0-.22.07-.22.15 0 .09.1.16.22.16Z" fill="#8D4262"/><path d="M5.88 6.43c-.21 0-.4.12-.4.27 0 .15.18.27.4.27.22 0 .4-.12.4-.27 0-.14-.18-.26-.4-.27Z" fill="#6379AA"/><path d="M10.5 6.46c-.08 0-.14.04-.14.1 0 .05.06.09.14.09.09 0 .15-.04.15-.1 0-.05-.06-.1-.14-.1Z" fill="#7A3F6F"/><path d="M13.18 6.52c-.26 0-.47.14-.47.31 0 .17.21.31.47.31s.47-.14.47-.3c0-.18-.21-.32-.47-.32Z" fill="#D8473B"/><path d="M4.48 6.59c-.44 0-.79.23-.79.52 0 .29.35.52.79.52.43 0 .78-.23.78-.52 0-.29-.35-.52-.78-.52Z" fill="#658EBC"/><path d="M6.63 7.01c.14 0 .25-.08.25-.17 0-.1-.11-.17-.25-.17-.15 0-.26.08-.26.17 0 .1.12.17.26.17Z" fill="#6379AA"/><path d="M11.58 7.05c.14 0 .25-.07.25-.16 0-.1-.11-.17-.25-.17s-.26.08-.25.17c0 .09.1.16.25.16Z" fill="#8D4262"/><path d="M12.25 7.19c.13 0 .24-.08.23-.16 0-.09-.1-.15-.24-.15-.13 0-.23.07-.23.16s.1.15.24.15ZM13.89 7.03c.06 0 .11-.03.11-.07 0-.04-.05-.07-.11-.07-.07 0-.12.04-.12.07 0 .04.06.07.12.07Z" fill="#B64449"/><path d="M5.7 7.08c-.18 0-.32.1-.32.22s.14.22.33.22c.18 0 .33-.1.33-.22s-.15-.22-.33-.22Z" fill="#6379AA"/><path d="M14.07 7.64c.17 0 .32-.1.31-.2 0-.12-.14-.21-.32-.21-.17 0-.31.1-.31.21 0 .11.14.2.32.2ZM12.93 7.3c-.25 0-.44.13-.45.29 0 .16.2.29.44.3.25 0 .44-.14.45-.3 0-.16-.2-.29-.44-.29Z" fill="#D8473B"/><path d="M12.13 7.32c-.1 0-.18.05-.18.11 0 .07.08.12.17.12.1 0 .18-.05.18-.11 0-.07-.08-.12-.17-.12Z" fill="#B64449"/><path d="M3.59 7.7c.1 0 .17-.05.17-.12 0-.06-.08-.11-.17-.11-.1 0-.18.05-.18.11 0 .07.08.12.18.12ZM4.13 7.67c-.18 0-.33.1-.33.22s.15.22.33.22c.18 0 .33-.1.33-.22s-.15-.22-.33-.22ZM5.1 8.38c.27 0 .49-.15.49-.34 0-.18-.23-.33-.5-.33s-.5.15-.5.34c0 .18.23.33.5.33Z" fill="#658EBC"/><path d="M13.49 7.82c-.06 0-.1.03-.11.06 0 .04.05.07.1.07.06 0 .11-.03.11-.06s-.04-.06-.1-.07Z" fill="#B64449"/><path d="M14.23 8.67c.35 0 .63-.19.63-.42 0-.23-.28-.41-.63-.41s-.63.19-.63.42c0 .22.29.41.63.4Z" fill="#D8473B"/><path d="M12.7 8.29c.1 0 .18-.06.18-.12 0-.07-.09-.12-.19-.12s-.18.06-.18.12c0 .07.08.12.18.12Z" fill="#B64449"/><path d="M3.42 8.08c-.18 0-.34.1-.34.23s.16.23.34.23c.2 0 .35-.1.35-.23s-.16-.23-.35-.23Z" fill="#658EBC"/><path d="M13.28 8.31c-.17 0-.3.09-.3.2 0 .1.13.2.3.2.16 0 .3-.1.3-.2s-.13-.2-.3-.2Z" fill="#D8473B"/><path d="M4.3 9.1c.3 0 .55-.16.55-.37 0-.2-.25-.36-.55-.36-.3 0-.54.17-.54.37 0 .2.24.37.55.36ZM5.17 8.44c-.12 0-.21.06-.21.14 0 .08.1.14.21.14.12 0 .21-.06.21-.14 0-.08-.1-.14-.2-.14Z" fill="#658EBC"/><path d="M12.77 8.65c-.06 0-.1.03-.1.06 0 .04.04.07.1.07.05 0 .1-.03.1-.06 0-.04-.05-.07-.1-.07Z" fill="#B64449"/><path d="M14.7 8.79c-.16 0-.3.08-.3.19 0 .1.13.19.3.19.16 0 .3-.08.3-.19 0-.1-.13-.19-.3-.19ZM13.3 9.51c.3 0 .52-.15.52-.34 0-.2-.23-.35-.51-.35-.29 0-.52.16-.52.35 0 .2.23.34.52.34Z" fill="#D8473B"/><path d="M5.04 9.11c.09 0 .15-.04.15-.1 0-.05-.07-.1-.15-.09-.08 0-.15.05-.15.1s.07.1.15.1ZM3.72 10c.4 0 .72-.22.72-.49 0-.26-.32-.48-.72-.48-.4 0-.72.22-.72.49 0 .26.32.48.72.48ZM4.95 9.78c.22 0 .4-.12.4-.27 0-.14-.18-.26-.4-.26-.22 0-.4.12-.4.27 0 .14.18.26.4.26Z" fill="#658EBC"/><path d="M14.56 9.78c.2 0 .35-.1.35-.24 0-.13-.16-.23-.35-.23-.2 0-.36.1-.36.23s.16.24.36.24Z" fill="#D8473B"/><path d="M13.91 9.45c-.08 0-.15.04-.15.09 0 .05.07.09.15.09.08 0 .14-.04.14-.09 0-.05-.06-.1-.14-.1ZM12.82 9.91c.14 0 .26-.07.26-.16 0-.1-.12-.17-.26-.17-.15 0-.26.07-.26.17 0 .09.11.16.26.16Z" fill="#B64449"/><path d="M13.82 10.82c.43 0 .78-.23.78-.52 0-.29-.35-.52-.79-.52-.43 0-.78.24-.78.52 0 .3.35.52.79.52Z" fill="#D8473B"/><path d="M4.62 10.32c.2 0 .35-.1.35-.23s-.15-.24-.35-.24c-.2 0-.35.1-.35.24 0 .13.16.24.35.23ZM3.57 10.48c.17 0 .3-.1.3-.2 0-.12-.13-.2-.3-.2-.17 0-.3.09-.3.2 0 .1.13.2.3.2Z" fill="#658EBC"/><path d="M5.54 10.56c.18 0 .33-.1.33-.22 0-.13-.15-.22-.33-.22-.19 0-.34.1-.34.22s.15.22.34.22Z" fill="#6379AA"/><path d="M12.38 10.99c.25 0 .45-.14.45-.3 0-.16-.2-.3-.45-.3-.24 0-.44.14-.44.3 0 .17.2.3.45.3Z" fill="#B64449"/><path d="M4.46 11.4c.37 0 .67-.2.67-.46 0-.25-.3-.45-.67-.45-.38 0-.68.2-.68.45s.3.46.68.46Z" fill="#658EBC"/><path d="M11.68 10.7c-.08 0-.14.04-.14.1 0 .04.06.09.13.09.08 0 .14-.04.14-.1 0-.04-.06-.08-.13-.09Z" fill="#8D4262"/><path d="M5.78 11.4c.26 0 .48-.15.48-.33 0-.18-.22-.32-.48-.32-.27 0-.49.14-.49.32s.22.33.49.33Z" fill="#6379AA"/><path d="M13.98 11.08c.06 0 .12-.04.11-.08 0-.04-.05-.06-.12-.06-.07 0-.12.04-.12.08s.06.07.13.06Z" fill="#B64449"/><path d="M11.4 11c-.14 0-.24.08-.24.16s.1.15.23.15.24-.06.24-.15c0-.08-.1-.15-.24-.15Z" fill="#8D4262"/><path d="M13.34 11.35c.14 0 .25-.07.25-.17 0-.09-.11-.16-.25-.16s-.25.07-.25.17.11.17.25.16Z" fill="#D8473B"/><path d="M6.71 11.53c.16 0 .3-.1.3-.2s-.14-.19-.3-.19c-.16 0-.29.09-.29.2 0 .1.13.19.3.19Z" fill="#64508D"/><path d="M12.22 11.16c-.41 0-.75.23-.75.51s.34.51.75.51c.42 0 .75-.23.75-.5 0-.29-.33-.52-.75-.52Z" fill="#B64449"/><path d="M7.9 12.97c.67 0 1.2-.36 1.2-.8 0-.45-.53-.82-1.2-.82-.65 0-1.18.37-1.18.81 0 .45.53.81 1.19.81Z" fill="#64508D"/><path d="M5.1 11.79c.16 0 .29-.09.29-.2 0-.1-.13-.2-.29-.2-.16 0-.28.1-.28.2 0 .11.12.2.28.2Z" fill="#658EBC"/><path d="M10.65 12.14c.29 0 .52-.16.52-.36 0-.19-.24-.34-.52-.34-.29 0-.52.16-.52.35 0 .2.24.35.52.35Z" fill="#8D4262"/><path d="M13.32 11.5c-.08 0-.14.04-.14.09 0 .04.06.08.14.08.08 0 .14-.03.14-.08s-.06-.09-.14-.1Z" fill="#B64449"/><path d="M6.04 12.35c.34 0 .61-.2.61-.42 0-.24-.27-.43-.61-.43-.34 0-.61.2-.61.42 0 .24.27.42.6.43Z" fill="#6379AA"/><path d="M9.5 11.95c.18 0 .32-.1.32-.22 0-.11-.14-.21-.32-.21-.17 0-.31.1-.31.22s.14.21.32.21Z" fill="#7A3F6F"/><path d="M11.56 12.2c-.15 0-.28.08-.28.18 0 .1.12.2.28.2.15 0 .28-.09.28-.19s-.12-.19-.28-.19ZM10.87 12.51c.1 0 .2-.06.2-.13s-.1-.13-.2-.12c-.11 0-.2.06-.2.13s.09.13.2.12Z" fill="#8D4262"/><path d="M9.88 13c.27 0 .5-.15.5-.33 0-.18-.23-.33-.5-.33-.28 0-.5.15-.5.33 0 .18.22.33.5.33Z" fill="#7A3F6F"/><path d="M9.09 13c.1 0 .17-.05.17-.1s-.08-.1-.17-.1c-.1 0-.17.05-.17.1s.08.1.17.1Z" fill="#64508D"/></svg>