<!-- by TradingView --><svg width="18" height="18" viewBox="0 0 18 18" xmlns="http://www.w3.org/2000/svg"><path fill="#F0F3FA" d="M0 0h18v18H0z"/><path d="M9.4 4c.8.1 1.33.49 1.59 1.16l3 7.8c.02.03 0 .04-.02.04h-2.45c-.04 0-.06-.02-.07-.05l-2.2-5.68a.04.04 0 0 0-.04-.02.04.04 0 0 0-.04.03l-.18.5c-.02.04-.04.06-.08.06H6.4c-.03 0-.04-.01-.03-.04.16-.36.44-1.08.84-2.13.2-.52.4-.89.6-1.1.3-.31.7-.5 1.21-.57h.38Z" fill="#124475"/><path d="M9.51 9.98 5 10.41l-.02.01c0 .02.02.03.04.03l4.9.3c0 .02-.01.03-.03.03a558.46 558.46 0 0 1-4.55.47v.02l4.76.25h.01v.02l-4.46.5-.01.02v.01l4.7.26.02.01v.03l-4.85.5c-.03 0-.05-.02-.06-.04l-1.93-4.7c-.02-.04 0-.05.03-.05l5.38.25a2365.22 2365.22 0 0 0-4.56.51l.01.02 4.8.33h.01c0 .02 0 .03-.02.03l-4.46.44c-.04 0-.04 0 0 .01l.35.04a387.09 387.09 0 0 0 4.46.27Z" fill="#124475"/></svg>