<!-- by TradingView --><svg width="56" height="56" viewBox="0 0 56 56" xmlns="http://www.w3.org/2000/svg"><path fill="url(#a)" d="M0 0h56v56H0z"/><path d="M45.31 27c-1.17 0-2.31-.74-2.31-2 0-1.29 1.07-2 2.27-2 .54 0 1.47.2 1.73.74l.02-.74H48v4h-.97l-.02-.76c-.31.55-1.11.76-1.7.76Zm.18-.75c.7 0 1.51-.5 1.51-1.25v-.05c0-.74-.8-1.18-1.5-1.18-.75 0-1.5.46-1.5 1.23 0 .8.73 1.25 1.5 1.25ZM33.31 27c-1.17 0-2.31-.74-2.31-2 0-1.29 1.07-2 2.27-2 .54 0 1.47.2 1.73.74l.02-.74H36v4h-.97l-.02-.76c-.31.55-1.11.76-1.7.76Zm.18-.75c.7 0 1.51-.5 1.51-1.25v-.05c0-.74-.8-1.18-1.5-1.18-.75 0-1.5.46-1.5 1.23 0 .8.73 1.25 1.5 1.25ZM21.31 27c-1.17 0-2.31-.74-2.31-2 0-1.29 1.07-2 2.27-2 .54 0 1.47.2 1.73.74l.02-.74H24v4h-.97l-.02-.76c-.31.55-1.11.76-1.7.76Zm.19-.75c.7 0 1.5-.5 1.5-1.25v-.05c0-.74-.8-1.18-1.5-1.18-.75 0-1.5.46-1.5 1.23 0 .8.73 1.25 1.5 1.25ZM37 23h1v.87c.23-.53 1-.87 1.54-.87.22 0 .38.02.46.05l-.16.93c-.06-.04-.2-.05-.4-.05-.6 0-1.44.37-1.44 1.07v2h-1v-4ZM25 23h.99v.82c.37-.55 1.02-.82 1.8-.82 1.23 0 2.21.73 2.21 2 0 1.25-1.08 2.04-2.25 2.04-.78 0-1.43-.23-1.76-.66L26 29h-1v-6Zm2.5 3.28c.75 0 1.5-.49 1.5-1.28 0-.8-.74-1.22-1.5-1.22-.7 0-1.5.46-1.5 1.2v.06c0 .76.78 1.24 1.5 1.24ZM16 21.8h-2V21h5v.8h-2V27h-1v-5.2ZM12.5 27a.49.49 0 0 1-.5-.5.48.48 0 0 1 .5-.5c.14 0 .26.05.35.15.1.09.15.2.15.35a.49.49 0 0 1-.5.5ZM9.39 27c-.48 0-1-.07-1.39-.37l.4-.83c.21.23.46.34.84.34.66 0 .76-.51.76-1.08V21h1v4.28C11 26.3 10.43 27 9.39 27ZM42.46 37c-.27 0-.55-.03-.84-.1-.29-.07-.5-.16-.62-.25l.3-.7a2 2 0 0 0 1.16.34c.44 0 .54-.1.54-.35 0-.3-.28-.42-.5-.5l-.33-.11C41.62 35.1 41 34.66 41 34c0-.82.92-1 1.61-1 .24 0 .46.02.68.07.23.05.4.12.52.2l-.33.71a.87.87 0 0 0-.36-.18 1.6 1.6 0 0 0-.53-.08c-.4 0-.6.11-.6.35 0 .35.42.45.68.53.62.16 1.33.55 1.33 1.25 0 .83-.82 1.15-1.54 1.15ZM38 34h-1v-.66h1v-1.16l1-.18v1.34h1V34h-1v3h-1v-3ZM34.47 37c-1.21 0-2.47-.69-2.47-2.04 0-1.33 1.23-1.96 2.42-1.96.36 0 .67.04.93.12.27.07.48.16.63.27l-.5.72a1.5 1.5 0 0 0-.97-.34c-.87 0-1.51.5-1.51 1.23 0 .83.67 1.25 1.51 1.25A2.51 2.51 0 0 0 35.6 36l.4.63c-.15.1-.36.18-.64.26-.26.07-.56.11-.89.11ZM29.19 37c-.5 0-.9-.09-1.23-.27a1.75 1.75 0 0 1-.73-.72c-.15-.3-.23-.64-.23-1 0-.4.09-.76.27-1.06.18-.3.44-.54.76-.7.32-.17.69-.25 1.1-.25.63 0 1.1.16 1.4.5.31.31.47.77.47 1.35 0 .15 0 .3-.03.47h-2.96c.07.34.2.58.39.73.2.15.47.23.82.23.28 0 .52-.03.7-.07.19-.04.36-.1.51-.18l.3.64c-.15.09-.35.16-.6.23-.27.07-.58.1-.94.1Zm.87-2.3c0-.35-.08-.59-.24-.73-.17-.14-.41-.21-.72-.21-.63 0-1 .31-1.09.94h2.05ZM22 37c-1.13 0-2-.87-2-2 0-1.14.87-2 2-2s2 .87 2 2c0 1.12-.87 2-2 2Zm.03-.73c.68 0 .97-.64.97-1.26 0-.63-.33-1.28-1.02-1.28-.7 0-.98.66-.98 1.28 0 .64.34 1.26 1.03 1.26ZM17 33h1v.87c.24-.56.95-.87 1.54-.87.22 0 .38.02.46.05l-.16.93c-.06-.04-.2-.05-.4-.05-.66 0-1.44.34-1.44 1.07v2h-1v-4ZM12 31h1.52c1.17 0 2.48.41 2.48 1.79 0 1.28-.87 2.02-2.57 2.02H13V37h-1v-6Zm1.46 3c.7 0 1.54-.38 1.54-1.21 0-.8-.75-.99-1.45-.99H13V34h.46ZM41 23h1v4h-1v-4Z" fill="#fff"/><circle cx="41.5" cy="21.5" r=".5" fill="#fff"/><path d="M24.63 39c-.2 0-.4-.03-.63-.1l.18-.82a2.5 2.5 0 0 0 .47.13c.45 0 .35-.41.35-.78V33h1v4.47c0 1-.5 1.53-1.37 1.53Z" fill="#fff"/><circle cx="25.5" cy="31.5" r=".5" fill="#fff"/><defs><linearGradient id="a" x1="28" y1="0" x2="28" y2="56" gradientUnits="userSpaceOnUse"><stop stop-color="#FF7910"/><stop offset="1" stop-color="#FF5F10"/></linearGradient></defs></svg>