<!-- by TradingView --><svg width="18" height="18" viewBox="0 0 18 18" xmlns="http://www.w3.org/2000/svg"><path fill="#F0F3FA" d="M0 0h18v18H0z"/><path d="M13 6h1v6h-1V6ZM4 12h1V7.77c.13.09 1.5 1.83 1.71 2.1.2.25 1.58 2.13 1.68 2.13h1.93c1.23 0 2.12-.5 2.12-1.73v-.23c0-.52-.67-1.03-1.13-1.13v-.08c.75-.03.82-.9.82-1.33 0-.1-.01-.19-.03-.27-.09-.43-.4-.77-.73-.94C10.84 6 10.41 6 9.62 6H5.6l.67.9h2.67c.76 0 2.12-.08 2.12.64v.38c0 .3-.47.48-.79.48h-.97v-.9h-.94V9c0 .2.77 1.19.94 1.2v-.9h1.21c.39 0 .98.43.98.82v.23c0 .48-.67.75-1.18.75H8.87c-.03-.1-1.76-2.37-1.96-2.6-.24-.28-1.86-2.5-2-2.5H4v6Z" fill="#313F8F"/><path d="M8.38 7.5h.93v3a2.7 2.7 0 0 1-.94-1.23V7.5ZM8.38 6.9h.93V6h-.94v.9Z" fill="#4EBBE4"/></svg>