<!-- by TradingView --><svg width="18" height="18" viewBox="0 0 18 18" xmlns="http://www.w3.org/2000/svg"><path fill="#F0F3FA" d="M0 0h18v18H0z"/><path d="m10.14 4 .04.04L14 12.96c0 .02 0 .03-.03.04h-1.58c-.44 0-.72-.12-.85-.33a.43.43 0 0 1-.04-.08l-.6-1.6a149.96 149.96 0 0 0-3.79 0l-.6 1.6a.44.44 0 0 1-.05.08c-.13.21-.41.32-.85.33H4.03C4 13 4 12.98 4 12.96l3.82-8.92c0-.02.02-.03.04-.03a60.8 60.8 0 0 1 2.28 0ZM8.99 5.97v.01c-.3.84-.75 2.02-1.33 3.53-.01.03 0 .04.02.04a83.25 83.25 0 0 0 2.64 0c.02 0 .03-.01.02-.03a180.15 180.15 0 0 1-1.33-3.55h-.02Z" fill="#E30613"/></svg>