<!-- by TradingView --><svg width="56" height="56" viewBox="0 0 56 56" xmlns="http://www.w3.org/2000/svg"><path fill="url(#a)" d="M0 0h56v56H0z"/><path d="m36.08 21.11 1.15-5.33A25.52 25.52 0 0 0 28 14c-4.15 0-12.12 1.78-15 3.56.38 4.34 3 15.17 10.38 23.7l3.47-3.56C25.5 35.53 22.46 30.42 22 29c4.25-.64 6.64-.64 10.5 0l2.42-4.33c-.96-.4-4.19-1.67-7.42-1.67-2.38 0-4.64.48-6.2.8-.56.12-1.02.22-1.38.27L18.5 21c1.54-.4 5.3-1 9-1 3.03 0 6.1.62 7.73.95l.85.16Zm2.3-4.74c.77 0 2.77.24 4.62 1.19-.58 6.12-4.38 20.38-15 28.44l-3.46-3.56c3.65-3.35 11.54-13.27 13.84-26.07Z" fill="#F88D1D"/><defs><linearGradient id="a" x1="10.42" y1="9.71" x2="68.15" y2="76.02" gradientUnits="userSpaceOnUse"><stop stop-color="#1A1E21"/><stop offset="1" stop-color="#06060A"/></linearGradient></defs></svg>