<!-- by TradingView --><svg width="18" height="18" viewBox="0 0 18 18" xmlns="http://www.w3.org/2000/svg"><path fill="#F0F3FA" d="M0 0h18v18H0z"/><path d="M10.42 7.5h-.1v-.3h.1v.3ZM9.63 6.2h-.1v-.3h.1v.3Zm0 .6h-.1v-.3h.1v.3Zm0 .6h-.1v-.3h.1v.3Zm-.4-.6h-.09v-.3h.1v.3Zm0 .6h-.09v-.3h.1v.3ZM7.4 7.35h-.1v-.3h.1v.3ZM8.86 3.5A3.39 3.39 0 0 0 5.6 7.77h1.3v-.12H7v.12h.3v-.12h.1v.12h4.72A3.39 3.39 0 0 0 8.86 3.5Z" fill="#EC7C29"/><path d="M11.11 10.5c-.14.22-.2.45-.16.73.03.2.11.43.26.68a4.05 4.05 0 0 0 1.01 1.14V9.68l-.41.21a2 2 0 0 0-.7.61ZM7.35 7.99h-.1v-.3h.1v.3Zm0 .6h-.1v-.3h.1v.3Zm-.4-.6h-.11v-.3h.1v.3Zm0 .6h-.11v-.3h.1v.3Zm.3-1.51h.1v.3h-.1v-.3Zm-1.75.45v3.95c.23-.5.58-.96 1.04-1.35.3-.25.64-.47 1.04-.68V6.61l-2.08.92ZM9.26 7.14h.1v.3h-.1v-.3Zm0-.6h.1v.3h-.1v-.3Zm.4.6h.11v.3h-.1v-.3Zm0-.6h.11v.3h-.1v-.3Zm0-.6h.11v.3h-.1v-.3ZM7.9 6.5v2.83h.02a7.82 7.82 0 0 1 2.06-.64V5.6L7.9 6.5ZM10.56 7.23h.1v.3h-.1v-.3Zm.38.9h-.1v-.3h.1v.3Zm-.29 0h-.1v-.3h.1v.3Zm-.35-1.4v1.93h.04l.07-.04h.01a5.2 5.2 0 0 1 .2-.08h.02a6.72 6.72 0 0 1 .9-.27l.07-.02.52-.1h.03l.06-.02v-.36L10.3 6.74ZM8.35 9.86 8.3 9.8l.27-.17.01.08-.23.15Zm-.47.38-.05-.06.24-.2.05.05-.24.2Zm-.42.46-.06-.05.2-.24.06.05-.2.24Zm-.35.52-.06-.04.16-.27.07.04-.17.27Zm-.25.57-.07-.03.11-.3.07.03-.11.3Zm0 1.85-.1-.3.07-.02.1.29-.06.03Zm-.2-.93h.07l.03.3-.08.02a2.5 2.5 0 0 1-.03-.32Zm.05-.64.07.02-.05.3h-.07c0-.1.02-.21.05-.32Zm1.26-2.21-.09.05a5.84 5.84 0 0 0-.91.6 3.22 3.22 0 0 0-1.17 2.41c-.02.36.02.72.1 1.08h1.15a4.4 4.4 0 0 1-.04-.07l.07-.04.06.11h.89a7.47 7.47 0 0 1-.3-1.07 4.1 4.1 0 0 1 .15-2.06c.17-.45.43-.84.79-1.18v-.12c-.24.08-.47.18-.7.29Z"/><path d="M12.96 8.78V8.7l.29-.04v.07l-.29.05Zm-.57.12-.02-.07.29-.07.01.07-.28.07Zm-.57.17L11.8 9l.28-.1.02.08-.28.09Zm-.55.22-.03-.07.28-.12.02.07-.27.12Zm-.51.29-.04-.06.25-.16.04.07-.25.15Zm-.46.36-.05-.05.22-.2.05.06-.22.2Zm-.22 3.77a3.07 3.07 0 0 1-.18-.24l.06-.04.18.23-.06.05Zm-.04-3.6.06.05-.18.23-.06-.04.18-.24Zm-.3 3.1c-.06-.08-.1-.17-.14-.26l.07-.03.13.26-.07.04Zm-.03-2.6.06.03a2.5 2.5 0 0 0-.12.27l-.07-.03.13-.27Zm-.21 2.05-.07-.3h.08c.01.1.03.19.06.28l-.07.02Zm-.1-.74v-.15h.08a3.46 3.46 0 0 0 0 .3h-.07v-.15Zm.1-.75.07.02c-.03.1-.05.19-.06.29l-.07-.01.05-.3Zm3.08-2.49a17.11 17.11 0 0 0-.9.15 7.97 7.97 0 0 0-.97.27l-.07.02-.15.06a5.88 5.88 0 0 0-.56.25c-.3.16-.57.34-.82.56-.45.4-.73.9-.86 1.5a3.38 3.38 0 0 0 .01 1.35c.07.4.19.78.34 1.16h1.77a3.41 3.41 0 0 1-.08-.07l.05-.06.11.1-.02.03h2.25a3.96 3.96 0 0 1-1.12-.81c-.31-.3-.59-.64-.8-1.02a2.4 2.4 0 0 1-.31-.88c-.05-.38.02-.74.23-1.07.21-.34.5-.58.84-.78a4.9 4.9 0 0 1 .86-.41c.32-.12.64-.21.96-.3l.16-.03v-.1c-.3.02-.7.05-.92.08Z"/></svg>