<!-- by TradingView --><svg width="56" height="56" viewBox="0 0 56 56" xmlns="http://www.w3.org/2000/svg"><path fill="#F0F3FA" d="M0 0h56v56H0z"/><path d="M26.08 22.17a4.03 4.03 0 0 1 2.9 3.56c.07.42-.08 1.25-.43 2.49-.51 1.8-2.26 4.2-3.99 5.12-.89.48-1.95.7-3.2.65a3.44 3.44 0 0 1-2.24-.74c-1.1-.99-1.4-2.23-1.34-3.74.17-3.72 3.53-7 7-7.49.4-.05.82 0 1.3.15Zm-4.5 11.15c1.5.53 2.79-1.6 3.35-2.86.73-1.64 2.54-6.85.19-7.7-2.36-.84-4.04 4.42-4.44 6.17-.32 1.36-.57 3.86.9 4.4ZM40.36 22.53l.55-.37c.24-.17.33-.1.27.18l-.73 3.33c-.02.1-.08.15-.19.13l-.12-.03a.09.09 0 0 1-.05-.04.1.1 0 0 1-.02-.06c.17-2.07-1.52-3.63-3.5-2.75-2.55 1.13-3.83 4.88-3.73 7.56.11 2.95 2.82 3.37 4.84 2.07.43-.28.79-.75 1.13-1.05.43-.37.49-.31.18.17-1.14 1.76-2.81 2.52-5.03 2.29-2.58-.27-4.1-2.52-3.77-5.14a7.95 7.95 0 0 1 7.16-6.8c.86-.1 1.9.31 2.78.53l.14.01a.2.2 0 0 0 .1-.03ZM11.16 28.46l-1.01 4.12c-.2.91.49 1.18 1.18 1.16.06 0 .08.03.08.09v.1c0 .01 0 .03-.02.05a.08.08 0 0 1-.05.02H6.09a.09.09 0 0 1-.06-.03.1.1 0 0 1-.03-.06v-.08a.1.1 0 0 1 .03-.07.09.09 0 0 1 .06-.02c1.17.03 1.5-.64 1.78-1.72l2.16-8.28c.05-.16.05-.45 0-.85 0-.1-.04-.18-.1-.24a1.34 1.34 0 0 0-.92-.37.1.1 0 0 1-.05 0 .1.1 0 0 1-.03-.04.1.1 0 0 1-.01-.1l.04-.09c0-.01.01-.03.03-.03a4.14 4.14 0 0 1 6.8.33c1.73.8 2.06 2.8.98 4.33-1.25 1.76-3.53 2.08-5.5 1.7-.03 0-.05 0-.07.02a.1.1 0 0 0-.04.06Zm1.54-5.57-1.24 4.74c-.02.08.01.13.09.14 1.02.18 1.8-.08 2.32-.8.68-.9 1.34-2.67.52-3.65a1.65 1.65 0 0 0-1.52-.59c-.09.01-.15.06-.17.16ZM44 32.8c0 .15.07.28.17.38.1.1.23.16.36.16a6.05 6.05 0 0 0 5.14-2.4c.06-.07.1-.11.15-.12h.1l.04.02a.1.1 0 0 1 .04.07.1.1 0 0 1 0 .05l-1.15 2.88c-.04.1-.1.14-.2.14l-8.71.02c-.02 0-.03 0-.04-.02l-.04-.05a.12.12 0 0 1 0-.12.1.1 0 0 1 .03-.04.1.1 0 0 1 .05-.02c.89-.05 1.45-.53 1.69-1.43l2.2-8.3c.28-1.11.18-1.75-1.06-1.75l-.04-.01a.08.08 0 0 1-.03-.04.1.1 0 0 1 .01-.1l.07-.07a.12.12 0 0 1 .1-.05h5.15c.01 0 .02 0 .03.02l.02.07c.02.07 0 .12-.08.13-1.5.24-1.57 1.17-1.99 2.73a634.05 634.05 0 0 0-1.97 7.4c-.04.18-.06.33-.05.45Z" fill="#ED1B24"/></svg>