<!-- by TradingView --><svg width="18" height="18" viewBox="0 0 18 18" xmlns="http://www.w3.org/2000/svg"><path fill="#F0F3FA" d="M0 0h18v18H0z"/><path d="M6.16 6c0-.12.03-.26.07-.41.1-.37.27-.72.51-1.04a4.1 4.1 0 0 1 1.92-1.33 4.51 4.51 0 0 1 3.61.35c.69.4 1.18.93 1.47 1.6a2.86 2.86 0 0 1 .16 1.9c.03-.44-.03-.85-.18-1.23a3.37 3.37 0 0 0-1.37-1.66A4.18 4.18 0 0 0 10 3.49a4.54 4.54 0 0 0-2.37.66A3.36 3.36 0 0 0 6.16 6Z" fill="#0A1E50"/><path d="M10.04 4.04c.98.13 1.78.51 2.4 1.14.33.33.58.7.74 1.1a3.03 3.03 0 0 1-.65 3.18c-.5.54-1.15.91-1.93 1.11a4.47 4.47 0 0 1-2.06.03c.55.04 1.09 0 1.6-.15A3.85 3.85 0 0 0 12 9.33c.26-.29.46-.6.6-.94a2.92 2.92 0 0 0-.48-3.05 3.79 3.79 0 0 0-2.1-1.3h.03Z" fill="#0A1E50"/><path d="M7.85 7.61c.6 0 1.07-.43 1.07-.97 0-.53-.48-.96-1.07-.96-.6 0-1.08.43-1.08.96 0 .54.48.97 1.08.97Z" fill="#BCBDC1"/><path d="M7.5 15c-.94-.5-1.54-1.43-1.78-2.83-.12-.67-.18-1.36-.2-2.08L5.5 8.8c0-.57-.11-1.13-.32-1.66a2.62 2.62 0 0 0-.44-.74c-.21-.25-.45-.43-.71-.55-.04-.01-.04-.02 0-.02.28.03.56.1.86.25a3.18 3.18 0 0 1 .88.63c.36.33.64.56.84.7a2.57 2.57 0 0 0 2.15.5 3.5 3.5 0 0 0 1.08-.43 6.71 6.71 0 0 0 1.2-.88c-.08.28-.2.54-.37.8-.29.43-.65.82-1.09 1.18l-1 .83a3.91 3.91 0 0 0-1.42 3.23A9.62 9.62 0 0 0 7.51 15Z" fill="#BCBDC1"/></svg>