<!-- by TradingView --><svg width="18" height="18" viewBox="0 0 18 18" xmlns="http://www.w3.org/2000/svg"><path fill="#F0F3FA" d="M0 0h18v18H0z"/><path d="M16 11h-4V7h4v4Zm-3-3v2h1.1c.42 0 .9-.15.9-.55 0-.27-.25-.48-.57-.49.26-.04.47-.22.47-.45 0-.38-.47-.51-.86-.51H13Zm1 1.12c.21 0 .43.1.43.29 0 .15-.13.26-.43.26h-.4v-.55h.4Zm-.04-.79c.25 0 .39.1.39.25 0 .18-.21.26-.4.26h-.35v-.5h.36ZM11 11H7V7h4v4ZM8 8v2h.6v-.67h.36l.45.67H10l-.52-.75c.28-.12.43-.33.43-.6C9.9 8.22 9.48 8 9 8H8Zm.9.33c.24 0 .46.1.46.32S9.14 9 8.9 9h-.3v-.67h.3ZM6 11H2V7h4v4ZM3 8v2h.5V8.74L4.57 10H5V8h-.5v1.26L3.44 8H3Z" fill="#4D4D4D"/></svg>