<!-- by TradingView --><svg width="18" height="18" viewBox="0 0 18 18" xmlns="http://www.w3.org/2000/svg"><path fill="#F0F3FA" d="M0 0h18v18H0z"/><path d="M11.85 6.3c1.1 1.22 1.81 2.76.24 3.98-.78.6-1.9 1.19-2.6 2.06-.67.83-.68 1.7-.53 2.66h-.14c-.4-.47-.81-.93-1.23-1.38-.15-.16-.27-.47-.34-.94-.15-.94.53-1.63 1.36-2.19 1.02-.69 2.06-1.3 2.68-2.18a2.77 2.77 0 0 0 .5-2l.02-.01h.04ZM8.62 3c.78.76 1.2 1.18 1.26 1.27.37.54.72 1.27.73 1.92.03 1.74-1.84 2.84-3.25 3.81-.31.22-.63.5-.95.85a1.35 1.35 0 0 0-.33 1.41h-.02a4.63 4.63 0 0 1-1.02-1.9c-.2-.79.45-1.3 1.21-1.83a1090 1090 0 0 1 1.82-1.26C9.7 6.1 9.16 4.5 8.58 3.03V3h.04Z" fill="#EABC4C"/></svg>