<!-- by TradingView --><svg width="18" height="18" viewBox="0 0 18 18" xmlns="http://www.w3.org/2000/svg"><path fill="#F0F3FA" d="M0 0h18v18H0z"/><path d="M6.85 5.17c.07.65.07 1.07.01 1.27-.08.27-.24.41-.48.42l-.82.01c-.43 0-.75-.13-.75-.6v-.98c0-.05.02-.09.07-.1a3.4 3.4 0 0 1 1.74-.13l.23.1Z" fill="#D8B46A"/><path d="M13.21 8.18c0 .04-.01.06-.03.09a.16.16 0 0 1-.08.05c-.97.3-1.92.27-2.84-.08-1.1-.4-1.9-1.26-1.93-2.48a.11.11 0 0 1 .06-.1c.47-.23.87-.39 1.2-.48a3.33 3.33 0 0 1 2.4.21c1.18.57 1.36 1.56 1.22 2.8Z" fill="#E3010F"/><path d="M13 13h-2v-1.93c-.01-.5-.37-1.11-.94-1.13-.68 0-1.05.6-1.06 1.17V13H7v-2c0-.44-.46-1-.97-1.06-.5-.05-1 .5-1.03.94v1.93c0 .03 0 .12-.02.14a.14.14 0 0 1-.06.04L3.07 13a.11.11 0 0 1-.05-.05.15.15 0 0 1-.02-.08V7.1a.7.7 0 0 1 .09-.34 3.6 3.6 0 0 1 1.45-1.44c.05-.02.09-.02.12 0-.02.29-.02.58-.02.87 0 .64.41.83.97.81.71-.03 1.42.15 1.42-.83 0-.32 0-.65.02-.98l.88.48A.15.15 0 0 1 8 5.8c-.02 2.12 2.07 3.1 3.91 3.07a5.99 5.99 0 0 0 4.07-1.67l.02.02v.02c-.25 1.34-1.35 1.77-2.52 2.19-.04.01-.48.1-.48.13V13Z" fill="#E3010F"/><path d="M12.38 7.45c.1 0 .17-.07.17-.17s-.08-.17-.17-.17a.17.17 0 0 0 0 .34Z" fill="#FBFBF3"/></svg>