<!-- by TradingView --><svg width="18" height="18" viewBox="0 0 18 18" xmlns="http://www.w3.org/2000/svg"><path fill="#F0F3FA" d="M0 0h18v18H0z"/><path d="M11.33 4.59a.26.26 0 0 0-.1.03c-.02.02-.02.05-.01.08.03.08 0 .14-.06.18a.12.12 0 0 1-.08 0 .78.78 0 0 0-.47.06c-.36.17-.71.24-1.13.35a.1.1 0 0 0-.06.05.1.1 0 0 0 0 .07c0 .03.03.05.05.06.03.01.06.02.09.01l.31-.07a.07.07 0 0 1 .07.01.07.07 0 0 1 .02.07 1.1 1.1 0 0 1-.12.37.26.26 0 0 1-.09.08l-.31.2a.25.25 0 0 0-.1.15c-.07.24-.16.46-.3.64a.44.44 0 0 1-.19-.25.15.15 0 0 0-.05-.08.17.17 0 0 0-.1-.04.18.18 0 0 0-.16.1c-.03.05-.02.12.02.2l.01.06a.1.1 0 0 1-.02.05c-.08.1-.14.31-.2.63l-.05.08a.14.14 0 0 1-.18 0 .13.13 0 0 1-.05-.07c-.02-.1-.12-.19-.3-.27a.04.04 0 0 0-.06.03v.02c0 .15 0 .28-.05.39a.14.14 0 0 0 .01.13.6.6 0 0 0 .48.3l-.25.24c-.15.15-.4.12-.75-.1a.11.11 0 0 1-.05-.1v-.38a.07.07 0 0 0-.04-.03.08.08 0 0 0-.08 0l-.23.17a.69.69 0 0 0 .16-.24.08.08 0 0 0-.03-.1l-.18-.1a.13.13 0 0 1-.05-.05.12.12 0 0 1-.01-.05c-.01-.13.03-.23.13-.32a.09.09 0 0 1 .07-.02l.8.06a.07.07 0 0 0 .06-.02.06.06 0 0 0 0-.06c-.01-.05-.07-.08-.18-.07A.1.1 0 0 1 7.45 7a.1.1 0 0 1-.04-.07c.01-.4-.14-.55-.44-.46-.13.03-.2.11-.18.23l.01.04.04.03a.08.08 0 0 0 .07-.02c.09-.1.18-.1.27-.02.07.06.1.12.1.18a.15.15 0 0 1-.06.1.14.14 0 0 1-.1.03.56.56 0 0 0-.39.02.15.15 0 0 1-.14 0 .77.77 0 0 0-.33-.1.11.11 0 0 1-.07-.04.1.1 0 0 1-.02-.13.11.11 0 0 1 .06-.05l.09-.04a.13.13 0 0 0 .07-.06c.06-.1.18-.24.38-.39a.05.05 0 0 0 .01-.05l-.01-.02-.03-.01c-.07 0-.14.02-.21.09l.04-.07a.16.16 0 0 1 .1-.06c.42-.1.84-.1 1.25 0 .04.01.09 0 .13-.02.07-.04.14-.1.19-.2a.07.07 0 0 0-.03-.1.08.08 0 0 0-.04 0h-.04c-.02 0-.04-.01-.05-.03a.06.06 0 0 1-.02-.04v-.22a.08.08 0 0 0-.03-.05.08.08 0 0 0-.06-.02c-.93.07-1.95.48-2.74.89-.18.1-.33.08-.46-.04a4.96 4.96 0 0 1 6.56-1.72Z" fill="#9CA6B5"/><path d="M11.33 4.59a5.04 5.04 0 0 1 1.35 7.81 4.97 4.97 0 0 1-3.1 1.57.45.45 0 0 1-.21-.06l-.01-.02a.04.04 0 0 1 0-.04l.03-.01c.52-.06 1.02-.2 1.49-.4.48-.21.9-.6 1.26-.95a.22.22 0 0 0 .02-.3l-.3-.36a.17.17 0 0 0-.2-.05l-.61.27a.1.1 0 0 1-.13-.05l-.17-.37a.23.23 0 0 0-.12-.11.25.25 0 0 0-.17-.01c-.25.07-.55.23-.9.48a.07.07 0 0 1-.09-.01.06.06 0 0 1 .01-.09l.5-.47a.1.1 0 0 0 .02-.1.1.1 0 0 0-.04-.05.1.1 0 0 0-.06-.01h-.67a.04.04 0 0 1-.04-.03l-.1-.2a.03.03 0 0 1 0-.03l.02-.01h.76l.04-.02.03-.04.22-.7a.21.21 0 0 0-.05-.22.23.23 0 0 0-.21-.07l-.2.05-.2-.07a.08.08 0 0 1-.04-.03.07.07 0 0 1 0-.06V9.8a.06.06 0 0 0 0-.05l-.02-.01-.03-.01-1.02-.03-.25-.74a.13.13 0 0 0-.04-.06l-.05-.03a.55.55 0 0 1-.17-.07c-.06-.03-.08-.08-.06-.15a.43.43 0 0 1 .08-.19l.25-.24.33-.33c.31.08.52-.04.63-.38.08-.07.15-.08.23-.03.12.08.2.11.21.1.09-.03.15-.09.2-.16a.1.1 0 0 0 0-.13.1.1 0 0 0-.12-.03.74.74 0 0 1-.3.04c-.02 0-.04 0-.06-.02a.13.13 0 0 1-.05-.05l-.17-.3c.13-.17.22-.39.28-.63a.25.25 0 0 1 .1-.15l.32-.2a.26.26 0 0 0 .09-.08c.05-.09.1-.21.12-.37a.07.07 0 0 0-.02-.07.07.07 0 0 0-.06-.01l-.32.07h-.09a.12.12 0 0 1-.05-.07.1.1 0 0 1 0-.07.1.1 0 0 1 .07-.05c.41-.1.76-.18 1.12-.35.14-.07.3-.08.47-.05l.08-.01c.07-.04.09-.1.06-.18-.01-.03 0-.06.02-.08a.25.25 0 0 1 .09-.03ZM8.87 5.3l.03.01.02.02a.05.05 0 0 1-.02.06l-.44.33a.1.1 0 0 1-.13-.02l-.14-.17a.11.11 0 0 1 .06-.18c.19-.06.4-.07.62-.05Z" fill="#557395"/><path d="M11.98 5.92c.14.23.34.37.44.3.1-.05.06-.29-.09-.51-.15-.23-.35-.37-.44-.31-.1.06-.06.3.09.52Z" fill="#9CA6B5"/><path d="m6.53 6.27-.19.15a.15.15 0 0 0-.03.03c-.14.23-.3.39-.52.48a.1.1 0 0 0-.04.03.1.1 0 0 0 0 .11.1.1 0 0 0 .06.04l.63.18a.28.28 0 0 1 .16.13.26.26 0 0 1 .02.2l-.12.39a.07.07 0 0 0 .06.09c.06.01.12-.02.19-.09l.24-.16a.08.08 0 0 1 .07 0c.02 0 .03 0 .03.02l.02.04v.34a.1.1 0 0 0 .04.1c.36.22.6.25.75.1a.43.43 0 0 0-.08.19c-.02.07 0 .12.05.15s.1.05.18.07a.46.46 0 0 0-.35.05.07.07 0 0 0-.03.05.07.07 0 0 0 .02.06c.09.08.19.12.31.13l.06-.02a.08.08 0 0 0 .03-.05.3.3 0 0 0-.04-.22l.04.03c.03.01.04.04.05.06l.25.74-.27-.1a.18.18 0 0 1-.1-.09c-.07-.12-.2-.11-.3-.18-.17-.1-.6-.39-.83-.36-.02-.04-.04-.07-.08-.07.06-.09.05-.14-.03-.16-.2-.05-.42-.07-.65-.06l.33-.15a.09.09 0 0 0 .04-.05v-.06l-.22-.47-.01-.02h-.03a.05.05 0 0 0-.04.02.44.44 0 0 1-.13.17l.05-.22a.05.05 0 0 0-.02-.05.06.06 0 0 0-.06-.01l-.06.02v.01l-.12.22a.14.14 0 0 1-.05.05.14.14 0 0 1-.07.02h-.78a.2.2 0 0 0-.14.06.18.18 0 0 0-.05.15l.03.37c0 .03.02.05.03.07l.07.04.03.01a.08.08 0 0 0 .06-.01.07.07 0 0 0 .03-.06c0-.16.1-.27.3-.33l-.09.22a.06.06 0 0 0 .03.07h.02c.04.01.08 0 .13-.02a.4.4 0 0 0-.1.13c0 .04 0 .06.04.08l.1.02-.36.1a.06.06 0 0 0-.03.01.05.05 0 0 0 .02.08l1.16.39c-.18.02-.37 0-.55-.03h-.07l-.06.02a.1.1 0 0 0-.05.08v.05l.04.03.5.34a.1.1 0 0 0 .15-.03c.07-.1.2-.16.36-.2.05 0 .08-.03.1-.07 0-.04 0-.08-.03-.11l.35-.02c-.06.04 0 .08.19.1a.67.67 0 0 1-.25.03.1.1 0 0 0-.09.02.1.1 0 0 0-.03.08v.28l-.03.06a.1.1 0 0 1-.06.02h-.2a.08.08 0 0 0-.06.04.08.08 0 0 0 0 .08l.27.52a1.26 1.26 0 0 0-1.28-.15.02.02 0 0 0 0 .01l.01.03a.05.05 0 0 0 .03.03h.04c.42-.2.89.17 1.1.48.06.1.04.2-.07.3a.1.1 0 0 0-.03.12c.14.3.36.49.68.57h.04a.03.03 0 0 1 .03.03v.01l-.01.02-.13.1c-.34.07-.54-.06-.6-.4-.01-.07-.1-.17-.26-.28-.17-.13-.2-.19-.33-.38a.08.08 0 0 0-.13-.01.08.08 0 0 0-.02.04c-.02.14.03.3.14.49a.09.09 0 0 1-.03.12.12.12 0 0 1-.16-.02.84.84 0 0 1-.19-.73v-.04a.06.06 0 0 0-.04-.02l-.04-.02a.08.08 0 0 0-.07.01.08.08 0 0 0-.03.05c-.04.2-.04.39 0 .57 0 .07.04.14.09.19.04.05.1.09.17.1.26.09.47.19.62.32l.03.03v.05l-.01.03-.02.03a.08.08 0 0 1-.07.03h-.03l-.38-.18a.13.13 0 0 0-.11 0 .13.13 0 0 0-.07.08l.02.04.03.04c.26.15.46.31.6.47.02.04.06.06.1.08.42.13.73.41 1.2.53.17.07.32.17.44.3A5.04 5.04 0 0 1 4.77 6.3c.13.12.28.13.46.04a7.61 7.61 0 0 1 2.78-.89.08.08 0 0 1 .04.04l.01.03v.22c0 .02 0 .03.02.04.01.02.03.02.05.02h.04a.08.08 0 0 1 .07.04.07.07 0 0 1 0 .08.52.52 0 0 1-.2.2.17.17 0 0 1-.12.01c-.4-.1-.83-.1-1.26 0a.16.16 0 0 0-.09.06l-.04.07Z" fill="#6E88A8"/><path d="M6.75 8.01c-.07.07-.13.1-.2.09a.08.08 0 0 1-.04-.03.07.07 0 0 1 0-.06l.11-.39a.26.26 0 0 0-.09-.28.28.28 0 0 0-.1-.05l-.62-.18a.1.1 0 0 1-.05-.04.1.1 0 0 1 .04-.14c.2-.1.37-.25.51-.48l.03-.03.19-.15c.07-.07.14-.1.21-.09l.03.01.01.02a.04.04 0 0 1-.01.05c-.2.15-.32.28-.38.39a.13.13 0 0 1-.07.06l-.1.04a.11.11 0 0 0-.05.05.1.1 0 0 0 .03.13c.01.02.04.03.06.03.13.02.24.05.33.1a.15.15 0 0 0 .14.01c.1-.05.23-.06.38-.02a.13.13 0 0 0 .12-.03.14.14 0 0 0 .05-.1c0-.06-.03-.12-.1-.18-.09-.08-.18-.08-.27.02a.08.08 0 0 1-.1 0 .07.07 0 0 1-.02-.05c-.01-.12.05-.2.18-.23.3-.09.45.06.45.46a.1.1 0 0 0 .03.07.1.1 0 0 0 .07.03c.1 0 .17.02.2.07a.06.06 0 0 1-.02.06.07.07 0 0 1-.06.02l-.8-.06c-.03 0-.05 0-.06.02a.37.37 0 0 0-.14.32c0 .02 0 .04.02.05 0 .02.02.04.04.05l.18.1a.08.08 0 0 1 .04.1.69.69 0 0 1-.17.24ZM11.93 6.48l-.02.13c-.01.07 0 .16.02.26v.02a.06.06 0 0 1-.03.04h-.03a.6.6 0 0 1-.52-.28.13.13 0 0 0-.11-.06h-.27a.14.14 0 0 0-.12.06.98.98 0 0 1-.7.41.06.06 0 0 1-.04-.03v-.08l.01-.04a.07.07 0 0 1 .04-.03c.2-.04.33-.1.38-.16a.06.06 0 0 0 0-.05.06.06 0 0 0-.03-.04.43.43 0 0 1-.16-.16.06.06 0 0 1 0-.05.06.06 0 0 1 .05-.03l.74-.01c.12 0 .18.04.18.14v.02a.04.04 0 0 0 .04.02h.02l.06-.05a.05.05 0 0 0 0-.07c-.06-.08-.07-.15-.05-.2a.07.07 0 0 1 .05-.05.07.07 0 0 1 .06.01l.43.28ZM8.2 7.05l-.1.1a.07.07 0 0 1-.08.02.07.07 0 0 1-.03-.03.07.07 0 0 1-.01-.04.86.86 0 0 0-.1-.41.24.24 0 0 1 .06-.28l.05-.05a.07.07 0 0 1 .1 0l.01.02.17.36a.27.27 0 0 1-.06.3Z" fill="#C3D5E6"/><path d="m11.9 6.6.03-.12.3.1a.13.13 0 0 1 .09.09c.1.3.3.53.62.67l.04.03.28.48a.1.1 0 0 1 .02.07 53.85 53.85 0 0 1-.17.21.16.16 0 0 1-.1.05c-.04 0-.08 0-.11-.03a.2.2 0 0 1-.09-.2c.04-.2-.07-.5-.28-.53a.08.08 0 0 0-.07.01.08.08 0 0 0-.03.06c-.02.23-.14.37-.37.42h-.02l-.02-.03a.04.04 0 0 1 .01-.04c.17-.13.29-.28.37-.47a.19.19 0 0 0 .01-.12.2.2 0 0 0-.06-.1c-.16-.14-.24-.28-.25-.45 0-.05-.02-.09-.06-.1-.04-.03-.08-.02-.13 0Z" fill="#9CA6B5"/><path d="m9.04 6.93.18.3.05.04.06.02c.11 0 .21 0 .3-.04a.1.1 0 0 1 .12.03.1.1 0 0 1 0 .13.47.47 0 0 1-.2.17c-.02 0-.09-.03-.21-.1-.08-.06-.15-.05-.23.02l-.18-.27-.01-.02a.06.06 0 0 0-.06 0h-.02c-.24.2-.35.41-.36.67l-.33.33a.6.6 0 0 1-.48-.3.15.15 0 0 1-.01-.13.83.83 0 0 0 .04-.4.04.04 0 0 1 .02-.03.04.04 0 0 1 .04 0c.19.07.3.16.31.26 0 .03.03.05.05.07l.09.03c.03 0 .06 0 .09-.03a.14.14 0 0 0 .04-.08c.07-.32.13-.53.2-.63a.1.1 0 0 0 .03-.05.1.1 0 0 0-.01-.06c-.04-.08-.05-.15-.02-.2a.18.18 0 0 1 .17-.1c.03 0 .06.02.09.04s.04.04.05.08c.03.1.1.18.2.25ZM9.92 7.15c-.2-.08-.32-.21-.33-.39l.01-.05c0-.01.02-.03.04-.03a.1.1 0 0 1 .1.02c.17.16.25.3.25.4a.05.05 0 0 1-.02.04.06.06 0 0 1-.05 0Z" fill="#C3D5E6"/><path d="M9.11 7.5c-.11.34-.32.46-.63.38 0-.26.13-.48.36-.66a.07.07 0 0 1 .08 0l.01.01.18.27Z" fill="#9CA6B5"/><path d="M10.02 7.98a.76.76 0 0 1-.2-.22.08.08 0 0 1 .02-.1.6.6 0 0 0 .1-.2.1.1 0 0 1 .04-.04.1.1 0 0 1 .11 0 .1.1 0 0 1 .05.03c.05.07.04.14-.02.21a.12.12 0 0 0-.03.1l.01.18v.03l-.02.02a.05.05 0 0 1-.06-.01ZM10.36 7.69l.3.29v.01a.03.03 0 0 1 0 .03l-.02.01c-.22.06-.33-.12-.35-.3V7.7l.02-.02a.04.04 0 0 1 .05 0ZM6.06 8.1l-.73.35c-.22.06-.32.17-.3.33a.07.07 0 0 1-.04.06.07.07 0 0 1-.06.01H4.9a.13.13 0 0 1-.07-.05.13.13 0 0 1-.03-.07l-.03-.37a.18.18 0 0 1 .05-.15.2.2 0 0 1 .14-.06h.78c.02 0 .05 0 .07-.02a.14.14 0 0 0 .05-.05l.11-.22.07-.03a.06.06 0 0 1 .06 0l.01.03v.03l-.05.22Z" fill="#C3D5E6"/><path d="m6.13 8.67-.72.04a.23.23 0 0 1-.12.04.06.06 0 0 1-.05-.03.06.06 0 0 1 0-.05l.09-.22.74-.34a.44.44 0 0 0 .13-.17l.02-.02h.05l.01.02.22.47v.06c0 .02-.02.04-.04.05l-.33.15Z" fill="#557395"/><path d="M6.13 8.67c.23-.01.45 0 .65.06.08.02.09.07.03.16-.28.08-.55.05-.82-.09a.15.15 0 0 0-.12 0l-.42.15c-.04 0-.07 0-.1-.02s-.05-.04-.04-.08a.4.4 0 0 1 .1-.14l.72-.04Z" fill="#C3D5E6"/><path d="M6.81 8.9c.04 0 .06.02.08.06-.03.31.23.36.53.45a.07.07 0 0 1 .05.06v.04c0 .02 0 .03-.02.05a.08.08 0 0 1-.06.02H7l-.36.03-.39-.08-1.16-.39a.06.06 0 0 1-.03-.02.05.05 0 0 1 0-.06l.04-.02.36-.1.42-.14a.16.16 0 0 1 .12 0c.27.14.54.17.82.1Z" fill="#557395"/><path d="M12.38 9.32a.05.05 0 0 1 .02.04.05.05 0 0 1-.02.03l-.04.03a.04.04 0 0 1-.03 0 .04.04 0 0 1-.02-.01c-.08-.12-.17-.21-.28-.28a.14.14 0 0 1-.06-.12v-.13l.03-.01a.05.05 0 0 1 .06.01l.34.44ZM11.42 8.9c.33.23.54.42.62.54.32.5.52.82.6.98a4.44 4.44 0 0 0 .39.72c0 .02 0 .04-.02.07a.14.14 0 0 1-.12.07h-.13a.14.14 0 0 0-.1.04l-.23.22a.26.26 0 0 1-.2.08.27.27 0 0 1-.19-.1l-.28-.36a.09.09 0 0 0-.07-.03.1.1 0 0 0-.06.02.68.68 0 0 1-.6.19.15.15 0 0 1-.1-.06.14.14 0 0 1-.01-.12.97.97 0 0 0 0-.38l-.02-.01h-.03l-.15.16a.1.1 0 0 1-.16-.02.09.09 0 0 1 0-.06c0-.1-.02-.2-.07-.31a.08.08 0 0 1 0-.06.1.1 0 0 1 .03-.05.44.44 0 0 1 .19-.08c.02 0 .04-.01.05-.03l.13-.12a.14.14 0 0 1 .05-.03c.02-.01.05-.01.07 0a.4.4 0 0 0 .36-.12.08.08 0 0 1 .1 0c.17.16.19.37.05.64a.04.04 0 0 0 0 .05l.03.01h.02c.15 0 .27-.06.36-.19a.1.1 0 0 1 .11-.04c.04 0 .07.03.1.08l.02.02a.06.06 0 0 0 .07 0l.02-.04a.83.83 0 0 0-.04-.58 1.83 1.83 0 0 0-.82-.9.12.12 0 0 1-.04-.03.1.1 0 0 1-.02-.06v-.07a.05.05 0 0 1 .03-.05.05.05 0 0 1 .06 0Z" fill="#9CA6B5"/><path d="m8.39 9.69 1.02.03a.07.07 0 0 1 .05.02.06.06 0 0 1 0 .05v.1c.01.01.03.03.05.03l.18.07.16.09a.06.06 0 0 1 .03.03.05.05 0 0 1-.01.05l-.26.33a.9.9 0 0 1-.31.27 3.62 3.62 0 0 1-1.1.35 5.91 5.91 0 0 1-.42-.38c-.05-.06-.06-.11-.01-.17.02-.03.06-.05.12-.06a.8.8 0 0 0 .36.16.25.25 0 0 0 .2-.06l.38-.34v-.01h-.04c-.06.07-.1.1-.14.12a.15.15 0 0 1-.13-.02c-.41-.29-.86-.5-1.35-.65-.2-.03-.25-.07-.19-.11h.41l.06-.03a.08.08 0 0 0 .02-.05v-.04a.07.07 0 0 0-.05-.06c-.3-.1-.56-.14-.53-.45.23-.03.66.26.83.36.1.07.23.06.3.18.02.04.05.07.1.09l.27.1Z" fill="#fff"/><path d="m6.24 9.53.38.08c.04.03.05.07.03.1 0 .05-.04.08-.09.09-.17.03-.29.1-.36.2a.1.1 0 0 1-.15.02l-.5-.34a.1.1 0 0 1-.03-.03.1.1 0 0 1 0-.1.1.1 0 0 1 .04-.03 1.78 1.78 0 0 1 .13-.02c.18.04.36.05.55.03Z" fill="#C3D5E6"/><path d="M7.89 10.5c-.14-.08-.33.04-.32.2a.12.12 0 0 1-.05.1.77.77 0 0 1-.65.12l-.15-.1-.28-.52a.08.08 0 0 1 .04-.1l.04-.02h.19a.1.1 0 0 0 .06-.02.09.09 0 0 0 .03-.06v-.28a.1.1 0 0 1 .03-.08.1.1 0 0 1 .09-.02c.07 0 .16 0 .25-.02a4.86 4.86 0 0 1 1.41.67h.07a.35.35 0 0 0 .14-.11l.02-.01h.02v.01l-.38.34a.24.24 0 0 1-.2.06.8.8 0 0 1-.36-.16Z" fill="#557395"/><path d="M5.02 11.72a1.2 1.2 0 0 1-.29-.66 31.62 31.62 0 0 0-.25-.55c-.04-.07-.02-.15.05-.22a.39.39 0 0 0 .07-.13.1.1 0 0 0 0-.05.1.1 0 0 0-.02-.04l-.14-.18a.08.08 0 0 1 0-.08c0-.01 0-.03.02-.04l.04-.01.18-.02c.02 0 .05 0 .08.02l.05.05c.13.21.17.45.14.73-.01.09.04.22.16.4l.02.06.09.63a.1.1 0 0 1-.01.07.11.11 0 0 1-.06.05.12.12 0 0 1-.13-.03Z" fill="#C3D5E6"/><path d="M9.57 13.97c-.53.06-1.07.03-1.6-.08a1.37 1.37 0 0 0-.43-.3c.86.1 2.26 0 2.86-.7a.06.06 0 0 0-.01-.1c-.43-.35-.9-.55-1.41-.6l-.85-.05c-.33-.01-.66.07-1 .23l.13-.1a.03.03 0 0 0 0-.03v-.02H7.2c.06-.06.1-.1.09-.16a.07.07 0 0 0-.03-.05l-.11-.08a.16.16 0 0 1-.07-.11l-.07-.74a.14.14 0 0 0-.05-.09l-.09-.07c.25.05.47.01.65-.12a.12.12 0 0 0 .05-.1c0-.16.18-.28.32-.2-.06.01-.1.03-.12.06-.05.06-.04.11.01.17a5.92 5.92 0 0 0 .42.38h.06c.35-.06.7-.18 1.04-.35a.9.9 0 0 0 .31-.27 13.4 13.4 0 0 1 .27-.38l-.01-.02-.02-.01-.16-.1.2-.04a.23.23 0 0 1 .22.07.22.22 0 0 1 .05.21l-.22.71c0 .02-.02.03-.03.04a.08.08 0 0 1-.04.01h-.75a.03.03 0 0 0-.02.05l.09.2.01.02H9.9a.1.1 0 0 1 .06.02.1.1 0 0 1 .03.04.1.1 0 0 1-.02.1l-.49.48a.06.06 0 0 0 0 .09l.04.02.05-.01c.34-.25.64-.4.9-.48a.25.25 0 0 1 .16.01c.05.02.1.06.12.11l.17.37a.1.1 0 0 0 .13.05l.62-.27a.17.17 0 0 1 .2.05l.3.37a.22.22 0 0 1-.03.3 4.6 4.6 0 0 1-1.26.94 5.14 5.14 0 0 1-1.53.43.04.04 0 0 0 .02.04c.04.03.1.05.2.06Z" fill="#9CA6B5"/><path d="M5.44 10.07a.02.02 0 0 1 .02-.02h.02l.1.03a2.74 2.74 0 0 1 .32.11.5.5 0 0 1 .1.05l.02.04-.01.04-.05.02h-.1a1.6 1.6 0 0 1-.33-.07l-.11-.03-.01-.01v-.02l.03-.14ZM6.72 10.82l.15.1.08.07c.03.02.05.06.06.1l.07.73a.15.15 0 0 0 .07.11l.1.08a.07.07 0 0 1 .04.05c0 .05-.03.1-.1.15a.98.98 0 0 1-.67-.57.1.1 0 0 1 .03-.12c.1-.1.13-.2.07-.3-.21-.3-.68-.69-1.1-.48a.05.05 0 0 1-.07-.03l-.01-.03a.02.02 0 0 1 0-.02c.48-.18.9-.12 1.28.16Z" fill="#C3D5E6"/><path d="M7.13 12.37c.34-.16.67-.24 1-.23l.85.06c.5.04.97.24 1.4.6a.06.06 0 0 1 .01.09c-.6.7-2 .8-2.85.7-.47-.12-.78-.4-1.2-.53a.25.25 0 0 1-.11-.08 2.27 2.27 0 0 0-.59-.47.08.08 0 0 1-.03-.04.16.16 0 0 1-.02-.04c0-.02.01-.04.03-.05a.12.12 0 0 1 .1-.04h.05l.38.18a.09.09 0 0 0 .07 0 .08.08 0 0 0 .05-.05v-.03a.08.08 0 0 0-.02-.08 1.79 1.79 0 0 0-.62-.31.4.4 0 0 1-.17-.11.37.37 0 0 1-.1-.19 1.54 1.54 0 0 1 .02-.6l.02-.02a.08.08 0 0 1 .07 0h.04l.03.03.01.04c-.04.3.02.54.19.73l.07.04c.03 0 .06 0 .08-.02a.09.09 0 0 0 .05-.05.08.08 0 0 0 0-.07c-.12-.2-.17-.35-.15-.49l.02-.04a.08.08 0 0 1 .09-.02l.04.03c.12.2.16.25.33.38.16.11.25.2.26.28.06.34.25.47.6.4Z" fill="#C3D5E6"/></svg>