<!-- by TradingView --><svg width="56" height="56" viewBox="0 0 56 56" xmlns="http://www.w3.org/2000/svg"><path fill="#F0F3FA" d="M0 0h56v56H0z"/><path d="M29.71 38.87a11 11 0 0 0 9.21-12.17c-3.35.1-9.07 2.6-9.2 12.17Zm-.5.07c-.13-4.75 1.57-13.53 9.35-14.03-.2-.65-.44-1.28-.75-1.88-7.45 1.42-9.05 10.8-8.92 15.94l.32-.03Zm-.82.05c.06-7.07 1.33-10.56 2.86-12.93 1.14-1.77 4.11-3.54 5.8-4.32-.48-.68-1.03-1.3-1.63-1.86-5.43 2.26-7.1 10.16-7.25 13.91V39h.22Zm-.62 0v-5.2c-.15-3.74-1.8-11.6-7.2-13.9-.61.56-1.16 1.19-1.63 1.87 1.69.8 4.62 2.55 5.75 4.3 1.53 2.37 2.8 5.86 2.86 12.93h.22Zm-.72-.03c.13-5.12-1.46-14.47-8.87-15.92-.3.6-.55 1.22-.74 1.87 7.73.55 9.42 9.28 9.3 14.02l.31.03Zm-.82-.1a11 11 0 0 1-9.15-12.16c3.36.13 9.01 2.65 9.15 12.16ZM22.1 18.7c2.26 1.8 5.62 7.14 5.87 9.76.26-2.63 3.63-8 5.9-9.78a10.95 10.95 0 0 0-11.77.02Z" fill="#009EE3"/><path d="M27.95 11.52A16.45 16.45 0 0 0 11.52 28c0 9.1 7.36 16.48 16.43 16.48 6.96 0 12.91-3.82 15.3-9.96h-7.5V34H44l-.13.35C41.51 40.87 35.27 45 27.95 45A16.97 16.97 0 0 1 11 28c0-9.39 7.58-17 16.95-17 7.3 0 13.52 4.16 15.9 10.65l.13.35h-8.23v-.52h7.48c-2.4-6.1-8.34-9.96-15.28-9.96Z" fill="#009EE3"/></svg>