<!-- by TradingView --><svg width="18" height="18" viewBox="0 0 18 18" xmlns="http://www.w3.org/2000/svg"><path fill="#F0F3FA" d="M0 0h18v18H0z"/><path d="m7.7 8.72-.01.01v.02c.93.3 1.39 1.07 1.3 2.22-.07.96-.64 1.74-1.44 1.88-.52.1-.86.15-1.35.15a1389.67 1389.67 0 0 0-3.2-.01V5.01L3.03 5h3.73c.5 0 1 .12 1.39.5.27.3.44.63.52 1.03.17.98-.18 1.85-.96 2.2ZM5 6.67v1.45l.02.01H6.1c.08 0 .16-.02.24-.05a.63.63 0 0 0 .2-.15.68.68 0 0 0 .19-.48V7.3a.7.7 0 0 0-.2-.47.6.6 0 0 0-.44-.2l-1.07.01H5v.03ZM5 9.7v1.55l.01.02h1.24a.73.73 0 0 0 .73-.75v-.13a.73.73 0 0 0-.74-.72H5.01L5 9.69v.02Z" fill="#0027A0"/><path d="M9.45 11.38v-.01a.02.02 0 0 1 .01-.02h.01l1.92-.19.04.01.04.04c.06.2.17.36.31.47.3.23.98.24 1.26-.06.22-.24.13-.53-.15-.65l-.31-.1c-.83-.15-1.34-.24-1.86-.41a1.55 1.55 0 0 1-1.05-1.58c.13-1.59 1.92-1.64 3.06-1.58 1 .05 1.73.39 2.08 1.43v.02l-.02.01-1.84.18h-.02l-.02-.02a.65.65 0 0 0-.47-.47c-.24-.07-.65-.1-.85.1-.18.18-.17.44.06.56.12.07.27.11.45.14.67.09 1.26.14 1.86.37.92.35 1.3 1.35.85 2.27-.51 1-1.77 1.13-2.72 1.1-1.19-.03-2.31-.23-2.64-1.61Z" fill="#469103"/></svg>