<!-- by TradingView --><svg width="56" height="56" viewBox="0 0 56 56" xmlns="http://www.w3.org/2000/svg"><path fill="#63B5ED" d="M0 0h56v56H0z"/><path d="M22.79 25.4a.5.5 0 0 0 .21.18c.1.04.2.06.3.05.93-.11.96-1.03.28-1.46-.67-.42-1.31-.86-1.93-1.3-1.67-1.17-1.34-3.49.96-3.8 1.83-.26 3.46.16 3.37 2.21 0 .21-.13.31-.36.31h-1.4c-.23 0-.35-.11-.35-.32 0-.38-.04-.62-.11-.72-.13-.19-.36-.23-.67-.14a.52.52 0 0 0-.26.17.45.45 0 0 0-.1.27c-.01.34.16.62.51.84.66.41 1.28.82 1.88 1.23 1.67 1.12 1.32 3.76-.99 4.03-2.15.24-3.95-.29-3.61-2.75 0-.05.04-.08.1-.08l1.92.05c.05 0 .07.02.07.07-.06.5 0 .89.18 1.16ZM34.76 19h-1.52c-.13 0-.24.1-.24.24v1.01c0 .13.11.24.24.24h1.53c.13 0 .23-.11.23-.25v-1c0-.14-.1-.25-.24-.25ZM43.82 19h-1.64c-.1 0-.18.07-.18.17v7.66c0 .1.08.17.18.17h1.64c.1 0 .18-.07.18-.17v-7.66c0-.1-.08-.17-.18-.17ZM29.68 26.58c-1.1.82-2.68.43-2.68-1.03v-4.3c0-.03 0-.06.02-.1a.25.25 0 0 1 .06-.07.3.3 0 0 1 .2-.07l1.47-.01c.18 0 .25.08.25.24v3.78c0 .3.14.48.46.56h.13c.26-.05.41-.2.41-.44v-3.88c0-.17.06-.25.25-.25l1.4-.01c.23 0 .35.1.35.32v5.28a.6.6 0 0 1-.1.25.22.22 0 0 1-.15.06h-1.34a.47.47 0 0 1-.33-.14l-.17-.17c-.07-.08-.15-.08-.23-.02ZM32.7 27.68a.58.58 0 0 0 .17-.2c.05-.09.13-.18.13-.27V21.2c0-.13.08-.2.21-.2h1.56c.13 0 .23.07.23.2v6.7c0 .3-.12.57-.26.82a.4.4 0 0 1-.25.18c-.65.19-1.32.24-2 .14a.2.2 0 0 1-.1-.04.2.2 0 0 1-.07-.1c-.14-.54-.02-.95.37-1.22Z" fill="#fff"/><path fill-rule="evenodd" d="M47.37 22.57c0-.14.01-.27.06-.4.03-.08.1-.13.21-.14.25-.02.4.1.47.38.02.08 0 .17-.03.25a.44.44 0 0 1-.18.2c-.55.33-1.15.63-1.82.9-.4.16-.65.4-.75.75-.35 1.2-.06 2.76 1.83 2.45.2-.03.4-.09.57-.17.1-.04.21-.05.32-.02a4.2 4.2 0 0 0 1.77.14c.11-.02.17-.08.17-.18.02-1.29.01-2.77-.02-4.44 0-.75-.53-1.13-1.35-1.23-1.42-.18-3.47-.08-3.26 1.7.02.12.09.24.22.24H47c.2 0 .39-.23.37-.43Zm.56 1.45c-.71.2-.65 1.15-.57 1.68 0 .03.01.05.03.07a.2.2 0 0 0 .07.06.22.22 0 0 0 .17.01c.52-.18.5-.99.49-1.5v-.2c0-.12-.07-.16-.19-.12ZM38.01 22.57c0-.14.01-.27.06-.4.03-.08.1-.13.21-.14.25-.02.4.1.47.38.02.08.01.17-.03.25a.44.44 0 0 1-.18.2c-.55.33-1.15.63-1.82.9-.4.16-.65.4-.75.75-.35 1.2-.06 2.76 1.83 2.45.2-.03.4-.09.57-.17.1-.04.21-.05.32-.02a4.2 4.2 0 0 0 1.77.14c.11-.02.17-.08.17-.18.02-1.29.01-2.77-.01-4.44-.02-.75-.54-1.13-1.36-1.23-1.42-.18-3.47-.08-3.26 1.7.02.12.1.24.22.24h1.42c.2 0 .39-.23.37-.43Zm.56 1.45c-.71.2-.65 1.15-.57 1.68 0 .03.01.05.03.07a.2.2 0 0 0 .07.06.22.22 0 0 0 .17.01c.52-.18.5-.99.49-1.5v-.2c0-.12-.07-.16-.19-.12Z" fill="#fff"/><path d="m5 28 14-14v11.16L16.04 28H5Z" fill="url(#aksa3v5sn)"/><path d="m5 29 14 14V31.84L16.04 29H5Z" fill="url(#bksa3v5sn)"/><path d="M18 29.03 32 43V31.86l-2.96-2.83H18Z" fill="url(#cksa3v5sn)"/><path d="M20 44V33l5 5.08v.83L20 44Z" fill="url(#dksa3v5sn)"/><defs><linearGradient id="aksa3v5sn" x1="17.42" y1="16.32" x2="7.19" y2="28.19" gradientUnits="userSpaceOnUse"><stop stop-color="#79BCD9"/><stop offset="1" stop-color="#7F939F"/></linearGradient><linearGradient id="bksa3v5sn" x1="12" y1="29" x2="18.35" y2="42.26" gradientUnits="userSpaceOnUse"><stop stop-color="#0C74B7"/><stop offset="1" stop-color="#31AADE"/></linearGradient><linearGradient id="cksa3v5sn" x1="19.87" y1="29.58" x2="30.17" y2="41.41" gradientUnits="userSpaceOnUse"><stop stop-color="#F2993F"/><stop offset="1" stop-color="#E47D27"/></linearGradient><linearGradient id="dksa3v5sn" x1="22.5" y1="32.99" x2="22.5" y2="44" gradientUnits="userSpaceOnUse"><stop stop-color="#79848B"/><stop offset="1" stop-color="#6D6E71"/></linearGradient></defs></svg>