<!-- by TradingView --><svg width="56" height="56" viewBox="0 0 56 56" xmlns="http://www.w3.org/2000/svg"><path fill="#F0F3FA" d="M0 0h56v56H0z"/><path d="M12.95 23.7c.15-.32-.06-.7-.38-.7H10l-3.4 7.6a.68.68 0 0 1-.6.4H4.71L4 33h3.22c.83 0 1.6-.51 1.98-1.32l3.75-7.99ZM20.99 23c.7 0 1.19.75.95 1.46L19.08 33H9.25c-.22 0-.33-.3-.18-.46L14 27h3.17l-2.84 4h2.3l1.88-6H14.5l1.04-2h5.45ZM45.46 27l2.02-4h-3.24L39 33h3.44l2.01-4H46L44 33h3.22L52 23h-3.03l-1.99 4h-1.52ZM32.2 33c-.9 0-1.48-1.04-1.06-1.9l3.36-6.77A2.3 2.3 0 0 1 36.55 23h4.44c.46 0 .85.32.97.8.18.69-.3 1.2-.97 1.2h-3.56l-2.93 6h4.03c.18 0 .3.22.22.4l-.44.79c-.24.5-.71.81-1.23.81h-4.89ZM28 25h2.92L32 23h-5.18c-.23 0-2.42.99-2.42 2.93 0 1.93 1.83 2.57 2.38 2.57.56 0 1.2.27 1.2.88 0 .74-1 1.62-1.48 1.62h-5.42L20 33h6.78c1.96-.4 4.27-1.8 4.27-4.18 0-1.61-1.6-2.09-2.63-2.4-.49-.14-.85-.63-.85-.8 0-.36.24-.55.43-.62Z" fill="#005AA4"/></svg>