<!-- by TradingView --><svg width="56" height="56" viewBox="0 0 56 56" xmlns="http://www.w3.org/2000/svg"><path fill="#D5E8F7" d="M0 0h56v56H0z"/><path d="M24.24 28H9.59l-.22 1h4.96l.16-1 .23 1h6.56l.23-1 .24 1h1.85c.18-.36.4-.7.64-1Zm-.85 1.5h-1.53l.35 1.5h.93c0-.54.09-1.04.25-1.5Zm4.07 1.5c0-.38 0-.9.23-1.5h1.99c-.04.16-.06.33-.06.5 0 .22.1.63.41 1h-2.57Zm-4.29.5h-.85l.35 1.5h1.14a3.4 3.4 0 0 1-.64-1.5Zm5.36 1.5c-.64-.4-.92-.97-1.02-1.5h5.87a2.14 2.14 0 0 1-.82 1.5h-4.03Zm-4.3.5H22.8l.35 1.5h3.36a7.45 7.45 0 0 1-2.26-1.5Zm10.2 1.5a6 6 0 0 0 1.87-1.5H38V35h-3.57Zm2.22-2c.26-.45.44-.95.5-1.5H38V33h-1.35Zm.54-2H38v-1h5.68c.55 0 1.32-.13 2.05-.5h-8.74c.13.43.2.92.2 1.5Zm-.4-2h9.72c.32-.27.62-.6.86-1H36.1c.27.26.52.59.7 1Zm-6.05-1H28.7c-.34.35-.6.68-.77 1h1.94c.2-.39.51-.72.87-1Zm2.67 3c0-.5-.55-1-1.63-1-.62 0-.9.52-1.02 1h2.65ZM8.9 31l.34-1.5h5l-.23 1.5H8.91Zm6.27 0-.35-1.5h6.34l-.35 1.5h-5.64Zm5.52.5-.34 1.5h-4.72l-.34-1.5h5.4Zm-.46 2h-4.48l.35 1.5h3.78l.35-1.5Zm-6.3-2-.23 1.5H8.46l.34-1.5h5.15Zm-.3 2h-5.3L8 35h5.4l.24-1.5Z" fill="#163B82"/><path d="M30.7 24c.18.33.87 1 2.16 1h-3.52c-.47-.38-.8-.87-.8-1.5h2.86c-.2.28-.45.5-.7.5Zm.97-1H28.6c.3-1.19 1.62-1.5 2.1-1.5.54 0 1.08.5 1.08 1 0 .14-.04.32-.11.5Zm4.44 0a3 3 0 0 0-.6-1.5h11.17c.4.4.73.9.97 1.5H36.1Zm-10.08-2c.22-.36.5-.7.88-1h-7.02l-.27 1h6.4Zm9.1 0H46.1a5.25 5.25 0 0 0-2.43-1h-9.74c.48.3.87.65 1.18 1Zm-9.37.5h-6.27l-.4 1.5h6.24c.05-.41.17-.95.43-1.5Zm-.46 2h-6.35l-.4 1.5h7.07a2.85 2.85 0 0 1-.32-1.5Zm.76 2h-7.65l-.14.5-.13-.5h-8.01l-.3 1.5h15.42a6.8 6.8 0 0 1 1.67-1 4.1 4.1 0 0 1-.86-.5Zm-1.37 2H9.72l-.1.5h14.62c.14-.18.3-.34.45-.5Zm4.01.5c.17-.16.35-.33.56-.5h2.3c-.28.14-.56.3-.82.5H28.7Zm7.39 0h11.18c.1-.16.17-.32.25-.5H35.4c.24.13.47.3.69.5Zm-2.68-1h-3.46c.5-.33 1.11-.67 1.83-1a6.2 6.2 0 0 1-1.62-.5H38V27h-4.6Zm2.57-3.5H38V25h-5.14c1.35 0 2.7-.7 3.12-1.5ZM11.24 20l-.2 1h5.88l-.27-1h-5.4Zm-.6 3 .3-1.5h6.11l.4 1.5h-6.81Zm31.22.5h5.95c.12.45.19.95.19 1.5h-5.4c0-.63-.3-1.15-.74-1.5Zm.67 2h5.45a6.31 6.31 0 0 1-.28 1.5h-7.27c.93 0 1.85-.58 2.1-1.5ZM18 25h-7.77l.3-1.5h7.06L18 25Z" fill="#08A2AC"/></svg>