<!-- by TradingView --><svg width="18" height="18" viewBox="0 0 18 18" xmlns="http://www.w3.org/2000/svg"><path fill="#005DAB" d="M0 0h18v18H0z"/><path d="M9.13 4.03a4.2 4.2 0 0 1 1.31.52l.16.17c.53.63.97 1.3 1.33 2.04.05.1.08.22.07.34 0 .07-.02.13-.05.2a338.1 338.1 0 0 1-1.86 2.63.32.32 0 0 0-.06.18c0 .05 0 .11.03.19a1.43 1.43 0 0 0 .2.08 1 1 0 0 1 .5.48l.67 1.25c.06.1.1.2.14.29l.03.19a3.56 3.56 0 0 1 .03.21l.06.02h.28l.01.01V13H5.5v-.17H6.07v-.03a1.15 1.15 0 0 1-.06-.12.23.23 0 0 1-.02-.12v-.01c.06-.02.1-.03.13-.02l.3.03c.08.02.17 0 .24-.04.09-.05.15-.1.2-.14a.2.2 0 0 0 .04-.12l-.01-.14c-.2-.84-.42-1.68-.67-2.5a.77.77 0 0 1-.02-.35.89.89 0 0 1 .26-.5.94.94 0 0 1 .19-.12 7.98 7.98 0 0 1 .83-.3l.55-.17c.02 0 .02-.01.02-.02v-.48a36.47 36.47 0 0 0-.07-1.31 42.2 42.2 0 0 0-.06-1.1v-.04a.64.64 0 0 0 0-.12c0-.05.01-.1.04-.15.18-.34.4-.65.7-.92A.16.16 0 0 1 8.73 4h.11c.1 0 .2.02.28.03ZM7.35 9.47a.46.46 0 0 0-.15.05.19.19 0 0 0-.09.12v.02c0 .03.02.06.03.08l.06.07.03.04c.1.12.16.25.18.4a3.94 3.94 0 0 1 .07.85v.44l.02.19v.5l.01.14v.13a1.43 1.43 0 0 1 .01.2l.02.09c.01.02.03.03.05.03h.14c.02 0 .03 0 .03-.02a6.26 6.26 0 0 1 .04-.62.32.32 0 0 1 .1-.15.46.46 0 0 1 .2-.08l.02-.04v-.34l-.01-.02h-.04a.46.46 0 0 1-.11-.05c-.1-.06-.17-.16-.2-.3a2.9 2.9 0 0 1-.02-.86.55.55 0 0 1 .1-.28c.02 0 .04-.04.1-.08a.1.1 0 0 0 .03-.07l-.02-.07V9.8l.13-.33a.18.18 0 0 0 .02-.1c0-.02-.01-.03-.03-.03h-.05c-.07 0-.3.05-.67.12Zm1.14 2.9a.3.3 0 0 1-.04.1c-.02.04-.05.07-.09.07-.12.03-.2-.02-.23-.13a.32.32 0 0 0-.01-.05H8.1a16 16 0 0 1 0 .46 50.06 50.06 0 0 0 .46-.02c.02-.01.02-.04.02-.1v-.06c0-.07 0-.15-.02-.22a.13.13 0 0 0-.03-.06l-.02-.01-.02.01Zm.25-3.14-.04.01c-.02.03-.03.06-.02.1v.05l-.01.04a6.25 6.25 0 0 1-.03.42V9.9l.04.06c.08.08.12.17.13.27a12.92 12.92 0 0 1 .04.85.54.54 0 0 1-.31.43c-.04.02-.06.05-.06.1a4.65 4.65 0 0 0 .01.28l.1.08h.02c.08.05.15.12.2.24.04.1.06.2.07.3a4.68 4.68 0 0 1 .01.28h1.28v-.01c-.06-.11-.09-.19-.08-.23l.01-.01.08-.02h.4c.16.01.26-.05.31-.2a.1.1 0 0 0 0-.08.4.4 0 0 0-.06-.07l-.01-.01a26.33 26.33 0 0 0-.78-.8c-.24-.2-.46-.4-.68-.57l-.01-.01-.17-.14A.75.75 0 0 1 9 9.92c.04-.13.1-.33.2-.59l.07-.19h-.01l-.52.09Zm-.51 1c-.06 0-.1 0-.11.03l-.02.08v.06c-.01.04-.02.1-.01.18v.09l-.01.18v.24l.03.06h.02v-.02c.02-.05.03-.1.05-.12a.16.16 0 0 1 .1-.07c.06-.01.1 0 .14.04a.43.43 0 0 1 .07.15h.03v-.74a.2.2 0 0 0-.02-.04l-.02-.08c0-.01 0-.02-.02-.03h-.03a.65.65 0 0 1-.2 0Zm.76-3.95a.24.24 0 0 0-.12.2 29.8 29.8 0 0 0-.03.56 18.86 18.86 0 0 1-.04.94h.06l.02-.02.71-.17c.03 0 .06-.02.09-.04.02-.02.02-.05 0-.1a27.38 27.38 0 0 0-.7-1.37Z" fill="#fff"/></svg>