<!-- by TradingView --><svg width="18" height="18" viewBox="0 0 18 18" xmlns="http://www.w3.org/2000/svg"><path fill="#F0F3FA" d="M0 0h18v18H0z"/><path d="m15 8.8-.76.03c-.67.01-1.36.07-1.92.12-.45.05-.92.12-1.4.23a5.81 5.81 0 0 0-3.13 2.03c-.47.56-.92 1.14-1.35 1.75-.1.15-.27.35-.4.53L5.04 15l.27-.46c.52-.79 1.03-1.66 1.53-2.63.2-.37.44-.87.56-1.34.25-.96-.32-1.35-1.12-1.5-.37-.07-.63-.1-.8-.12-.5-.04-1.05-.08-1.66-.1-.27-.02-.56-.02-.8-.05H3l1.56-.07 1.02-.06c.68-.07 1.3-.15 1.92-.33a5.7 5.7 0 0 0 2.67-1.79c.59-.66 1.1-1.36 1.61-2.07a64.77 64.77 0 0 0 1.01-1.46c-.04.09-.2.33-.44.73-.38.6-.8 1.36-1.05 1.83a7.1 7.1 0 0 0-.63 1.45c-.12.44-.08.92.3 1.18.29.2.7.3 1.06.37A35.86 35.86 0 0 0 15 8.8Z" fill="url(#a)"/><defs><linearGradient id="a" x1="12.13" y1="6.24" x2="4.98" y2="10.05" gradientUnits="userSpaceOnUse"><stop stop-color="#85F54F"/><stop offset="1" stop-color="#3DFAAA"/></linearGradient></defs></svg>