<!-- by TradingView --><svg width="18" height="18" viewBox="0 0 18 18" xmlns="http://www.w3.org/2000/svg"><path fill="#181B1E" d="M0 0h18v18H0z"/><path d="M9.45 9.44v-.46l1.48.88 2.78.86c.1.28.29 1.01.29 1.7 0 .86-.58 1.58-1.57 1.58a3.79 3.79 0 0 1-3.1-1.8v-.42l.12.09 1.06.91.54.18c.3.08.93.08 1.08-.54.13-.81-.57-1.55-.94-1.81l-.1.59v.45L9.44 9.44Z" fill="#008541"/><path d="M11.52 8.5c.85.4 2.48 1.6 2.48 3.4 0 1.16-.78 1.65-1.6 1.65-.83 0-1.89-.17-3.07-1.77h.21c.26.37.97 1.01 1.78 1.01.76 0 .92-.54.92-.96 0-.4-.28-1.17-1-1.57l-.14.95-1.65-2.23 2.25-1.65-.18 1.17Z" fill="#48F354"/><path d="M7.33 6.67v-.45l.84.37 1.78-.21.8-1.6c.88-.04 2.77.05 3.24.8.16 1.68-1.26 2.98-2 3.42v-.47l.81-.63c.11-.23.33-.73.35-.93.03-.24-.18-.78-.96-.78-.63 0-1.23.35-1.45.54l.73.1v.44l-2.42 1.6-1.72-2.2Z" fill="url(#a)"/><path d="M12.25 4c.82 0 1.72.5 1.72 1.57 0 1.08-.73 2.27-1.98 2.99v-.23c.4-.24 1.19-.92 1.19-1.79 0-.34-.27-.82-.98-.82-.68 0-1.37.52-1.77.96l1.04.16-2.4 1.59-1.74-2.21 1.24.18C9.03 5.58 10.4 4 12.25 4Z" fill="url(#b)"/><path d="M8.67 6.33V5.9l-.25-.3-1-.8-1.1-.41c-.5.01-1.65.28-2.3 1.22-.18 2.26 1.56 3.52 2.45 3.86l-.17.73v.47l2.24-1.62V8.6l-2.27-.49c-.15-.5-.47-1.59-.52-1.95-.05-.45.26-.96.94-.96.8 0 1.48.74 1.73 1.12h.25Z" fill="#FF9027"/><path d="M5.53 4C7.1 4 8.28 5.28 8.67 5.9H8.4c-.38-.57-1.17-1.15-1.7-1.15-.54 0-.96.28-.96.9 0 .83.63 1.47.98 1.72l.16-.98L8.54 8.6l-2.24 1.6.18-1.19a4.08 4.08 0 0 1-2.47-3.38c0-.83.54-1.64 1.52-1.64Z" fill="#EF572A"/><path d="M10.67 11.68v-.45l-2.03-.7-2.05.19v.43l.68.11.8.35-2.43.7c-.04 0-.6-.2-.7-1.02-.1-.66.66-1.35 1.06-1.62v-.44l-.36.15a5.79 5.79 0 0 0-1.57 2.38c-.3 1.21.4 2.24 1.72 2.24 1.9 0 3.22-1.65 3.64-2.47l1.24.15Z" fill="url(#c)"/><path d="M6 9.23c-.38.23-1.14.89-1.14 1.64 0 .36.15.98.95.98a2.3 2.3 0 0 0 1.83-1l-1.05-.13 2.34-1.66 1.74 2.17-1.23-.16c-.42.86-1.69 2.48-3.63 2.48-.82 0-1.74-.47-1.74-1.7S5.37 9.28 6 9v.23Z" fill="url(#d)"/><defs><linearGradient id="a" x1="14" y1="6.89" x2="7.33" y2="6.89" gradientUnits="userSpaceOnUse"><stop stop-color="#27C1F1"/><stop offset="1" stop-color="#00647F"/></linearGradient><linearGradient id="b" x1="13.97" y1="6.28" x2="7.33" y2="6.28" gradientUnits="userSpaceOnUse"><stop stop-color="#00647F"/><stop offset=".57" stop-color="#2DCAFC"/></linearGradient><linearGradient id="c" x1="10.67" y1="11.61" x2="4" y2="11.61" gradientUnits="userSpaceOnUse"><stop stop-color="#6D6D6D"/><stop offset=".81" stop-color="#D7D7D7"/></linearGradient><linearGradient id="d" x1="10.67" y1="11.28" x2="4.07" y2="11.28" gradientUnits="userSpaceOnUse"><stop stop-color="#D7D7D7"/><stop offset=".65" stop-color="#6C6C6C"/></linearGradient></defs></svg>