<!-- by TradingView --><svg width="18" height="18" viewBox="0 0 18 18" xmlns="http://www.w3.org/2000/svg"><path fill="#F0F3FA" d="M0 0h18v18H0z"/><path d="M5.24 6.83a.62.62 0 0 1 .24-.21c.02-.01.02 0 0 0l-.01.02c-.07.06-.11.1-.13.14l-.02.02-.16.2a.73.73 0 0 1-.2.16.5.5 0 0 1-.28.05c-.1-.01-.19-.04-.27-.1-.04-.02-.05-.01-.03.03 0 .02.02.03.04.05.18.18.43.24.74.18.1-.02.2-.07.26-.15.05-.05.06-.05.03.01a.36.36 0 0 1-.24.18c-.08.02-.19.02-.32.02h-.01v.02c.19.04.34.04.48.01.17-.03.27-.12.32-.26l.02-.13c0-.06 0-.1.02-.13a.18.18 0 0 1 .08-.1h.01v.01a.24.24 0 0 0-.06.1.22.22 0 0 0-.01.12c0 .04.03.07.06.1a.2.2 0 0 0 .14.02c.01 0 .02 0 0-.02a.3.3 0 0 0-.02-.03.24.24 0 0 1-.03-.04.07.07 0 0 1-.01-.04c0-.06.02-.12.08-.19.05-.05.11-.1.18-.12a.2.2 0 0 1 .1-.02c.05.01.08.03.1.06.02.05.02.12-.01.21a1.43 1.43 0 0 1-.36.51.94.94 0 0 1-.35.2c-.02.02-.04.03-.04.05l-.06.27a.79.79 0 0 1-.08.24c-.06.1-.12.14-.2.15l-.1.02a.09.09 0 0 0-.07.03l-.26.38c-.01.01 0 .02.01.02.23-.02.44-.14.61-.37a3.58 3.58 0 0 0 .44-.7.08.08 0 0 1 .06-.03 3.27 3.27 0 0 0 1.29-.75c.02-.04.06-.05.12-.06H7.49c.01 0 .02.01.01.02v.01c-.06 0-.12 0-.17.02a.2.2 0 0 0-.1.05 3.18 3.18 0 0 1-1.26.77c-.05.16-.14.32-.3.47-.1.1-.2.21-.3.34-.01.03 0 .04.03.02.16-.07.32-.17.47-.3.1-.09.22-.22.37-.4a.56.56 0 0 1 .14-.12l.17-.09c.26-.1.45-.2.6-.3.14-.08.3-.22.46-.42a.06.06 0 0 1 .05-.02c.25 0 .5-.03.78-.09.23-.05.48-.13.75-.23h.03a8.75 8.75 0 0 0 .65-.3l.37-.24c.17-.12.32-.13.44-.03a15.95 15.95 0 0 0 .4.3v.2l.04.02c.2.03.39.03.58 0 .04 0 .04-.01 0-.04a.7.7 0 0 1-.25-.25.09.09 0 0 0-.07-.05.81.81 0 0 1-.22-.07 81.79 81.79 0 0 0-.74-.4h.01l.17.04c.03.01.07 0 .1-.01a.29.29 0 0 1 .19-.02 3.72 3.72 0 0 1 .48.15l-.02.16v.01h.02a203.15 203.15 0 0 1 .63.04v-.01a1.07 1.07 0 0 1-.2-.12.34.34 0 0 1-.12-.18c0-.02-.01-.03-.04-.03h-.06l-.1-.02-.51-.15a.54.54 0 0 0-.3 0 .96.96 0 0 0-.27.1.28.28 0 0 1-.1.04c-.2.03-.4.03-.6 0h-.03a.03.03 0 0 0-.01.02c-.01.1-.04.2-.09.31h-.02c.05-.15.07-.26.06-.35 0-.13-.08-.27-.23-.41-.1-.1-.25-.2-.43-.32a.14.14 0 0 0-.08-.02c-.04 0-.05 0-.01-.03a.53.53 0 0 0 .17-.15c.03-.04.07-.1.11-.19a.12.12 0 0 1 .06-.06l.04-.01.15-.07c.06-.03.1-.06.13-.1.07-.07.08-.16.02-.28a.27.27 0 0 0-.05-.08.07.07 0 0 0-.05-.02l-.05.01c-.07.05-.13.1-.2.12-.05.03-.13.05-.23.07l-.17.05a.98.98 0 0 0-.23.11.08.08 0 0 1-.05.01c-.02 0-.04 0-.05-.02a.26.26 0 0 0-.07-.05h-.03v.02a.2.2 0 0 1 0 .09c0 .01 0 .02-.02.03H8.3l-.06-.03c-.03-.02-.05-.01-.04.02.02.06.03.13.02.22 0 .08-.06.14-.17.18l-.01.02v.02c.06.03.1.06.13.1.02.04.01.05-.02.04a.18.18 0 0 1-.07-.02h-.05C8 5.07 8 5.08 8 5.1l.02.12c0 .02 0 .03-.01 0a1.12 1.12 0 0 0-.25-.25 17 17 0 0 0-1.06-.67l-.37-.26c-.32-.25-.55-.6-.7-1.02 0-.03-.01-.03-.02 0l-.1.34c0 .03 0 .07.02.1.17.27.38.5.64.7a22.03 22.03 0 0 0 .3.21c-.41-.22-.73-.5-.96-.85-.02-.03-.03-.03-.04 0l-.04.14.01.1c.1.15.23.3.4.42a2.58 2.58 0 0 0 .53.3c-.4-.12-.72-.35-.94-.67-.02-.03-.04-.02-.04 0L5.37 4c0 .03 0 .06.02.08.12.18.3.31.52.4a4.58 4.58 0 0 1 .42.18h-.01l-.3-.09a1.29 1.29 0 0 1-.63-.4c-.03-.03-.04-.03-.04.02 0 .09.04.18.09.27.06.1.13.18.22.21.14.06.3.1.5.14a10.37 10.37 0 0 0 .78.13 5.71 5.71 0 0 1 .87.24l-.02.01a6.2 6.2 0 0 0-.59-.15 318.1 318.1 0 0 0-1.38-.25l-.07-.02a11.69 11.69 0 0 1-.5-.16 3.7 3.7 0 0 1-.83-.48c-.2-.14-.32-.24-.38-.3-.03-.02-.05-.02-.04.03l.05.27c.01.04.03.06.06.08a4.3 4.3 0 0 0 1.2.63c-.43-.11-.83-.3-1.2-.56-.01-.01-.02 0-.02.02v.02l.04.14c.02.05.04.1.07.11.22.16.48.27.77.34a22.43 22.43 0 0 1 .47.13l-.32-.06a2.52 2.52 0 0 1-.92-.35c-.01-.01-.02 0-.01.01v.05l.05.14c.03.05.06.1.1.11A1.9 1.9 0 0 0 5 5.2a7.62 7.62 0 0 1 .45.1l-.5-.06c-.22-.03-.43-.1-.62-.22-.03-.02-.03-.02-.02.01l.01.05.05.12c.02.05.05.08.08.1.18.1.37.17.59.18a8.42 8.42 0 0 1 .56.06h-.53c-.1 0-.2-.02-.31-.05a2.4 2.4 0 0 1-.28-.11c-.03-.01-.03 0-.02.01l.06.1.06.08.08.08c.15.1.32.15.52.13a3.03 3.03 0 0 1 .48-.01l-.3.04c-.22.04-.42.02-.6-.06-.05-.02-.06 0-.03.03.07.09.14.15.2.2.08.05.17.08.26.08.08 0 .17-.01.25-.04.17-.06.3-.08.38-.06.02 0 .02.01 0 .01a.6.6 0 0 0-.15.02l-.14.05-.17.05a.53.53 0 0 1-.18 0h-.07v.02c.08.05.16.1.23.12.12.05.2.07.25.05a4.12 4.12 0 0 0 .3-.1.66.66 0 0 1 .23-.03c-.14.04-.28.09-.41.17-.02 0-.02 0 0 0 .2.03.4.03.57 0 .19-.03.36-.09.53-.17.22-.12.4-.2.54-.25.25-.09.43-.1.55-.01l.05.06c.01.03.02.05.01.07 0 .03-.01.05-.03.07a.2.2 0 0 1-.07.05.5.5 0 0 1-.17.04 4.5 4.5 0 0 1-.44.01c-.08 0-.15.02-.21.03-.1.03-.2.07-.3.14l-.24.2a.1.1 0 0 1-.05.03.1.1 0 0 1-.06 0 1.28 1.28 0 0 0-.8-.12c-.22.04-.35.16-.4.36-.02.07 0 .08.04.01Zm3.62-2.39c.01 0-.02.04-.07.08-.04.03-.08.06-.09.05l.07-.07.1-.06Zm.3 1.26-.09-.05L9 5.6l.08.04c.04.03.08.05.07.06Zm.16.23c.02 0 .03.01.03.02l.01.03v.03a.9.9 0 0 1 .04.16h-.02a.9.9 0 0 0-.06-.24Z" fill="#D3A53C"/><path d="M8.8 7.32v.03l.32.73c0 .02.01.03.03.04l.04.01h.1c.03 0 .06.01.06.04v.2c0 .03-.02.05-.05.05h-.4s-.02 0-.02-.02l-.64-1.38v-.01h.02L10.82 7h.02v.02l-.63 1.36-.02.03a.06.06 0 0 1-.04.01h-.46c-.02 0-.04-.02-.04-.04v-.22c0-.02.02-.03.05-.03h.23l.02-.03.34-.75v-.02l-.02-.01a184.56 184.56 0 0 1-1.47 0Z" fill="#D3A53C"/><path d="M11.25 7.63h-.01l-.31.83v.03l.09.09v.04l-.15.16c-.02.02-.03.02-.05 0l-.26-.26a2321.23 2321.23 0 0 1 .52-1.48l1.81 1.85v.02l-1.41.53h-.02l-.27-.28v-.05l.15-.15c.01-.02.03-.02.05 0l.08.08h.04l.79-.3V8.7l-1.05-1.08ZM6.77 8.71v.02l.81.32h.02l.09-.09c.02-.02.04-.02.06 0l.14.15c.02.02.02.03 0 .05l-.26.26a.04.04 0 0 1-.04.01l-1.4-.51v-.03l1.8-1.85h.04l.5 1.43-.01.05-.26.26c-.01.02-.03.02-.05 0l-.15-.15c-.02-.03-.02-.05.01-.06a.25.25 0 0 0 .08-.09v-.03l-.3-.81h-.02L6.77 8.7Z" fill="#912333"/><path d="m6.33 11.24.75-.33.03-.03v-.1c0-.04 0-.05.04-.05l.19-.01c.03 0 .05.01.05.05v.36l-.04.03-1.32.61H6L6 11.75v-2.5l.01-.02h.02l1.33.62c.02 0 .03.02.03.03v.35c0 .03-.01.05-.04.05h-.21c-.03 0-.04-.02-.03-.05a.3.3 0 0 0 0-.1.04.04 0 0 0-.03-.04l-.76-.33H6.3v1.47c0 .01.02.02.03.01ZM12.7 9.77v-.01h-.02l-.76.33c-.02.01-.03.02-.03.04v.1c0 .03 0 .04-.03.04h-.22c-.02 0-.03 0-.03-.02v-.37c0-.02 0-.03.02-.03l1.34-.62H13l.01.02v2.52h-.02l-1.35-.62a.03.03 0 0 1-.02-.03v-.36c0-.03.01-.04.03-.04h.22c.02 0 .04.02.03.04v.12l.04.03.72.31c.05.02.05-.1.05-.11V9.77Z" fill="#D3A53C"/><path d="m11.26 13.3 1.05-1.08v-.02l-.82-.32h-.01l-.1.11h-.02l-.19-.19v-.01l.29-.3h.01l1.43.52v.02l-1.83 1.87h-.01l-.52-1.46v-.01l.3-.3h.01l.18.19v.01l-.1.12v.01l.3.83h.02ZM8.15 12.45l-.1-.11v-.02l.18-.18h.02l.28.28v.02l-.5 1.45H8l-1.82-1.85v-.02h.01l1.41-.53h.02l.28.3v.02l-.17.18H7.7l-.11-.11h-.02l-.8.32v.02l1.04 1.07h.02l.32-.83v-.01Z" fill="#912333"/><path d="M8.8 13.66v.02h1.4v-.02l-.32-.78-.02-.02H9.7c-.03.01-.05 0-.05-.03v-.22c0-.02.02-.03.04-.03h.4c.02 0 .03 0 .03.02l.6 1.37v.01l-.01.02h-.02a822.46 822.46 0 0 1-2.4-.01v-.02l.59-1.37c0-.01.01-.02.03-.02H9.34v.26c0 .02 0 .03-.03.03H9.13a.06.06 0 0 0-.02.03l-.32.76Z" fill="#D3A53C"/><path opacity=".5" fill="#912333" d="M8 10h3v1H8z"/></svg>