<!-- by TradingView --><svg width="56" height="56" viewBox="0 0 56 56" xmlns="http://www.w3.org/2000/svg"><path fill="#F0F3FA" d="M0 0h56v56H0z"/><path d="M40.94 17c3.35 0 6.06 2.56 6.06 5.7v10.6c0 3.14-2.71 5.7-6.06 5.7H15.06C11.71 39 9 36.44 9 33.3V22.7c0-3.14 2.71-5.7 6.06-5.7h25.88ZM23.3 31h-5.02L20 25h-4.56L12 37h17l-5.5-18H18l5.3 12ZM30 19v4h6.5a1.5 1.5 0 0 1 .22 2.98H30v4.04h6.72A1.5 1.5 0 0 1 36.5 33H30v4h7.5a5.5 5.5 0 0 0 4.25-9 5.5 5.5 0 0 0-4.26-9H30Z" fill="#2D2F8A"/><path fill-rule="evenodd" d="M41 17H15c-2.6 0-5 2.4-5 5v12c0 2.6 2.4 5 5 5h26c2.6 0 5-2.4 5-5V22c0-2.6-2.4-5-5-5Zm-25.77-1A6.23 6.23 0 0 0 9 22.23v11.54A6.23 6.23 0 0 0 15.23 40H40.8A6.2 6.2 0 0 0 47 33.77V22.23A6.2 6.2 0 0 0 40.81 16H15.23Z" fill="#9898C8"/></svg>