<!-- by TradingView --><svg width="18" height="18" viewBox="0 0 18 18" xmlns="http://www.w3.org/2000/svg"><path fill="#F0F3FA" d="M0 0h18v18H0z"/><path d="m9.77 10.2.07-.07.05-.04.08-.06.04-.04.1-.08.02-.01.13-.1.03-.03.1-.07.04-.03.09-.06.04-.03.1-.07.04-.02.13-.08.03-.02.1-.07.05-.02.1-.06.05-.02.1-.06.04-.02.14-.07.03-.01.12-.06.05-.03.1-.04.05-.02.1-.05.05-.02.15-.06c-.11.02-.23.03-.34.06-.07 0-.14.02-.2.03l-.09.02-.12.03-.1.02-.1.02c-.04 0-.08.02-.11.03l-.1.02-.11.03-.08.02-.12.04-.07.01-.14.05-.04.01-.15.05h-.03a10.76 10.76 0 0 0-4.28 2.66 6.02 6.02 0 0 1 2.74-1.5c-.05.37-.06.74-.03 1.11.33-.47.72-.9 1.15-1.3Z" fill="#009383"/><path d="M11.37 7.9c-3.54.54-6.63 3.04-6.63 3.04s3.05-2.9 5.65-3.45c2.45-.52 3.35.28 3.35.28s-1.18-.05-2.37.13m2.6-.13c-.33-.04-.95-1.41-4.56-.4a.53.53 0 0 1-.32 0c-.27-.1-.8-.26-1.14-.25-.46.03-.9.18-1.28.45a2.41 2.41 0 0 1 1.15.53.04.04 0 0 1-.02.06A13.9 13.9 0 0 0 3 13s1.64-1.77 4.64-3.16c2.95-1.37 7.35-1.54 7.35-1.54s.16-.38-1.01-.53Z" fill="#009383"/></svg>