<!-- by TradingView --><svg width="56" height="56" viewBox="0 0 56 56" xmlns="http://www.w3.org/2000/svg"><path fill="url(#a)" d="M0 0h56v56H0z"/><path d="M48.49 24H50v8h-1.51v-8Zm-2.98 8H44v-8h1.51v8Zm3.09-3.25h-3.2v-1.5h3.2v1.5ZM40.45 32c-.48 0-.94-.08-1.38-.24-.45-.17-.8-.39-1.07-.66l.47-1.34c.26.23.56.43.91.58.36.15.72.22 1.08.22.27 0 .5-.03.66-.1.17-.07.3-.17.38-.3a.78.78 0 0 0 .12-.43c0-.2-.07-.36-.2-.48-.12-.13-.28-.23-.49-.3-.2-.08-.44-.15-.69-.22-.24-.07-.5-.16-.75-.27-.24-.1-.47-.23-.67-.4-.21-.16-.38-.37-.51-.63-.13-.27-.19-.6-.19-1.02 0-.44.1-.84.28-1.2.18-.37.46-.66.84-.88.38-.22.85-.33 1.41-.33.38 0 .75.06 1.12.18.37.1.7.28.97.5l-.43 1.36c-.28-.2-.56-.35-.84-.45-.28-.1-.55-.15-.82-.15-.27 0-.5.04-.67.12a.8.8 0 0 0-.48.76c0 .2.07.36.2.49.12.11.28.21.5.28.2.08.42.15.67.22.25.08.5.16.75.26s.48.22.68.39c.21.16.38.37.5.64.13.26.2.6.2 1 0 .44-.1.83-.28 1.2-.2.36-.48.65-.85.87-.38.22-.85.33-1.42.33ZM35 32v-8h1.5v8H35ZM27 32v-8h1.25l3.86 5.76h-.6V24H33v8h-1.24l-3.87-5.76h.6V32H27ZM13.36 30.17l-.14-2.14L16.23 24h1.62l-2.72 3.71-.8 1.1-.97 1.36ZM12 32v-8h1.5v8H12Zm4.3 0-2.23-3.49.95-1.31L18 32h-1.7ZM7.37 27.22H11v1.44H7.37v-1.44Zm.13 3.28H11V32H6v-8h5v1.5H7.5v5ZM19 32l2.78-8h1.43L26 32h-1.52l-2.28-7.06h.57L20.48 32H19Zm1.4-1.5.37-1.5h3.21l.4 1.5h-3.99Z" fill="#fff"/><defs><linearGradient id="a" x1="28" y1="0" x2="28" y2="56" gradientUnits="userSpaceOnUse"><stop stop-color="#105D90"/><stop offset="1" stop-color="#297FB9"/></linearGradient></defs></svg>