<!-- by TradingView --><svg width="56" height="56" viewBox="0 0 56 56" xmlns="http://www.w3.org/2000/svg"><path fill="#F0F3FA" d="M0 0h56v56H0z"/><path fill-rule="evenodd" d="M26 36V20h2.36L33 31.1V20h2v16h-2.12L28 23.76V36h-2ZM11.24 20H7v16h4.24A4.79 4.79 0 0 0 16 31.19V24.8a4.79 4.79 0 0 0-4.76-4.8Zm-.03 2.5H9v11h2.21A2.8 2.8 0 0 0 14 30.67v-5.34a2.8 2.8 0 0 0-2.79-2.83ZM25 20h-3.15A4.83 4.83 0 0 0 17 24.81v6.38A4.83 4.83 0 0 0 21.85 36H25v-2.5h-3.32A2.75 2.75 0 0 1 19 30.67V29h6v-2.5h-6v-1.17c0-1.56 1.2-2.83 2.68-2.83H25V20Zm12 0h2v16h-2V20Zm3.5 13.5V36h5.68A2.84 2.84 0 0 0 49 33.14v-3.28A2.84 2.84 0 0 0 46.18 27h-2.66c-.85 0-1.52-.7-1.52-1.56v-1.17c0-.86.67-1.77 1.52-1.77h4.98V20h-5.42A3.1 3.1 0 0 0 40 23.12v3.24a3.12 3.12 0 0 0 3.08 3.14h2.61c.85 0 1.31.67 1.31 1.53v.65c0 .86-.46 1.82-1.3 1.82h-5.2Z" fill="#00A1E2"/></svg>