<!-- by TradingView --><svg width="18" height="18" viewBox="0 0 18 18" xmlns="http://www.w3.org/2000/svg"><path fill="#F0F3FA" d="M0 0h18v18H0z"/><path d="m13.3 5 1.63.26v.04a.02.02 0 0 1 0 .01.02.02 0 0 1-.02 0 8.68 8.68 0 0 0-4.3.26 52.7 52.7 0 0 1-1.56.46L9.03 6v-.03l.01-.02c.3-.23.64-.4 1.03-.53A9.8 9.8 0 0 1 12.4 5h.9ZM3.08 5.61c0-.08.08-.15.2-.2.28-.13.58-.21.88-.26 1.62-.28 3.39-.2 4.72.85v.03h-.02a8.34 8.34 0 0 0-5.55-.48.57.57 0 0 0-.2.09h-.02v-.02h-.01ZM9.03 10.8 9.4 9.6l.36-.63c.4-.36.77-.73 1.14-1.1.37-.38.98-.83 1.83-1.36a.57.57 0 0 1 .33-.06.04.04 0 0 1 .03.02.04.04 0 0 1 0 .04.65.65 0 0 1-.1.2c-.7.63-1.37 1.17-1.72 2.03a4.2 4.2 0 0 1-.46.6c-.72.73-1.31 1.35-1.77 1.86a.14.14 0 0 0 0 .19.14.14 0 0 0 .2 0c.87-.8 1.66-1.64 2.35-2.5.26-.32.46-.66.6-1.03a.37.37 0 0 1 .1-.15 5.42 5.42 0 0 0 1.08-1.28.17.17 0 0 0-.05-.13.16.16 0 0 0-.07-.04c-.41-.1-.73.1-1.1.27.41-.46.92-.91 1.46-1.03.21-.05.4.04.54.26a.12.12 0 0 1 .02.1c-.06.22-.16.42-.3.6-.3.41-.68.86-1.11 1.35a8.35 8.35 0 0 0-.6.9c-.13.43-.23.67-.28.73-.73.78-1.45 1.62-2.28 2.3-.15.12-.3.22-.46.29a.18.18 0 0 1-.13 0 .19.19 0 0 1-.1-.09c-.17-.32.13-.46.06-.77a.41.41 0 0 1 .07-.35Z" fill="#91B828"/><path d="M15 5.5v.02a134.96 134.96 0 0 0-2.43 7.44h-.03a12.94 12.94 0 0 0-3.23-.33c-1.08.06-2.23.17-3.46.36a.72.72 0 0 1-.71-.27.29.29 0 0 1-.04-.06c-.37-.83-.58-1.83-.81-2.72-.22-.86-.49-1.39-.89-2.38a5.71 5.71 0 0 1-.4-1.6c0-.07 0-.13.03-.18v-.01h.02a.02.02 0 0 1 .02.01c.2.63.82 1.98 1.19 3.14.38 1.18.7 2.35 1.1 3.69l.02.02h.03c.57-.1 1.16-.18 1.76-.21.96-.05 1.98-.04 3.05.03a13.83 13.83 0 0 1 2.28.33l.03-.03c.29-1.24.6-2.43.93-3.59A17.87 17.87 0 0 1 15 5.5Z" fill="#91B828"/><path d="M9.75 8.96 9.57 9l-.06-.04a.05.05 0 0 0-.05.01V9c-.21.61-.36 1.25-.73 1.79l-.24-.09a.16.16 0 0 1-.08-.06.17.17 0 0 1-.03-.1c.07-.88.05-1.68-.5-2.42-.28-.39-.67-.63-1.16-.73-.4-.08-.98-.16-1.32.1a.08.08 0 0 0-.03.06.08.08 0 0 0 .03.07l.76.5c.1.06.18.12.21.18a.25.25 0 0 1-.08.34l-.3.18-.03.02a.06.06 0 0 0 0 .07l.03.02c.38.18.88.38 1 .57a.24.24 0 0 1-.05.32l-.23.18a.17.17 0 0 0-.06.12.17.17 0 0 0 .05.13c.32.3.53.6.62.92.02.04 0 .07-.01.09l-.03.02h-.04a4.15 4.15 0 0 0-.9-.79.21.21 0 0 1-.09-.1.22.22 0 0 1 0-.13c.07-.25.28-.37.42-.52a.1.1 0 0 0 .03-.08.1.1 0 0 0-.05-.08l-.8-.44c-.24-.13-.3-.28-.2-.46a.34.34 0 0 1 .11-.11L6 8.4l.02-.02a.07.07 0 0 0-.03-.1c-.27-.16-.75-.39-.94-.66a.24.24 0 0 1 .06-.33c.27-.2.57-.3.9-.3.45-.02.9.06 1.33.22.38.18.7.43.95.76.33.59.47 1.21.41 1.87a3.95 3.95 0 0 0-.02.56.03.03 0 0 0 .04-.01c.13-.37.2-.73.33-1.36.1-.42.3-.76.62-1.01.05-.04.1-.04.16 0l.02.05-.01.05a2.36 2.36 0 0 0-.34.64l.01.02h.02v-.01l.3-.38c.71-.72 1.48-1.34 2.32-1.88.36-.17.68-.37 1.1-.27a.16.16 0 0 1 .1.1.17.17 0 0 1 0 .14 5.42 5.42 0 0 1-1.08 1.21.37.37 0 0 0-.1.15c-.13.37-.33.71-.59 1.03-.7.86-1.48 1.7-2.35 2.5a.14.14 0 0 1-.2 0 .14.14 0 0 1 0-.19 59.2 59.2 0 0 1 1.77-1.87 4.2 4.2 0 0 0 .46-.6c.35-.85 1.03-1.39 1.72-2.02a.65.65 0 0 0 .1-.22.04.04 0 0 0-.01-.03l-.02-.01a.57.57 0 0 0-.33.06c-.85.53-1.46.98-1.83 1.36-.37.37-.75.74-1.14 1.1Z" fill="#003888"/><path d="M7.34 7.22A3.56 3.56 0 0 0 6 6.99c-.32.01-.62.11-.9.31a.24.24 0 0 0-.06.32c.2.28.68.51.95.67l.03.03a.07.07 0 0 1-.03.1l-.23.15a.34.34 0 0 0-.1.1c-.1.19-.05.34.18.47a102.53 102.53 0 0 0 .84.47.1.1 0 0 1 .02.1.1.1 0 0 1-.03.03c-.14.15-.35.27-.42.52a.22.22 0 0 0 0 .13c.02.05.05.08.08.1a4.15 4.15 0 0 1 .88.78.1.1 0 0 0 .03.01h.04l.03-.02c.02-.02.02-.05.01-.1-.1-.3-.3-.61-.62-.9a.17.17 0 0 1 .01-.26l.23-.18A.24.24 0 0 0 7 9.5c-.12-.2-.62-.4-1-.58a.06.06 0 0 1-.02-.02.06.06 0 0 1 .02-.09l.3-.18a.24.24 0 0 0 .11-.16.25.25 0 0 0-.03-.18.6.6 0 0 0-.2-.19 9.5 9.5 0 0 1-.8-.52.08.08 0 0 1 .03-.1c.34-.26.92-.18 1.32-.1.49.1.87.34 1.17.73.54.74.56 1.54.49 2.42 0 .03 0 .07.03.1.01.03.04.05.08.06l.24.09c.01.03.03.07.06.1a.72.72 0 0 1-.43.5c-.56.23-.85.37-1.26.42-.49.06-.95-.66-1.27-1.08a.21.21 0 0 1-.03-.07.57.57 0 0 1 .04-.42l.02-.04.17-.17a.15.15 0 0 0 .04-.12.15.15 0 0 0-.07-.1c-.32-.22-1.08-.7-1.07-1.1 0-.2.12-.34.35-.39.02 0 .03 0 .03-.02a.06.06 0 0 0 .02-.07 15.74 15.74 0 0 1-.77-.53c-.22-.15-.45-.6-.33-.87.06-.13.2-.22.4-.25.9-.15 1.93.17 2.71.64Z" fill="#44B9ED"/><path d="m9.84 8.4-.3.38H9.5v-.02c.08-.23.19-.44.33-.63a.07.07 0 0 0-.01-.1c-.06-.04-.11-.04-.16 0a1.7 1.7 0 0 0-.62 1.01c-.13.63-.2 1-.33 1.36v.01a.03.03 0 0 1-.04 0c-.02-.02 0-.2.02-.56a3.14 3.14 0 0 0-.41-1.87c.18-.1.31-.27.4-.53.07-.22.25-.36.52-.42.37-.08.64.04.8.37.01.03.03.05.06.07l.18.13a.19.19 0 0 1 .09.13.2.2 0 0 1-.05.16l-.45.5Z" fill="#FFC100"/><path d="M8.83 7.91c.03-.33.18-.53.46-.6.41-.1.52.23.7.53l.01.03v.03l-.03.03h-.04a.8.8 0 0 1-.43-.27.17.17 0 0 0-.06-.05c-.29-.1-.47.07-.57.31l-.01.01a.02.02 0 0 1-.03 0V7.9Z" fill="#003888"/><path d="M9.3 7.95c.06 0 .12-.06.12-.13a.13.13 0 0 0-.13-.13.13.13 0 0 0-.12.13c0 .07.06.13.12.13Z" fill="#003888"/><path d="m9.57 9.01-.18.58-.36 1.22-.24.08a.28.28 0 0 1-.06-.1c.37-.54.52-1.18.72-1.8a.05.05 0 0 1 .03-.02.04.04 0 0 1 .03 0l.06.04Z" fill="#FFC100"/></svg>