<!-- by TradingView --><svg width="56" height="56" viewBox="0 0 56 56" xmlns="http://www.w3.org/2000/svg"><path fill="#F9A03E" d="M0 0h56v56H0z"/><path d="M43 13v30H13V13h30ZM15 41h26V15H15v26Z" fill="#fff"/><path d="M14.48 17.99c3.76.28 9.35 1.82 14.03 5.53 4.72 3.74 8.47 9.67 8.47 18.6h-2c0-8.28-3.44-13.65-7.71-17.04a24.86 24.86 0 0 0-12.94-5.1l.15-2Z" fill="#fff"/><path d="M14.33 24.86c2.67.2 6.64 1.3 9.96 3.89 3.37 2.63 6.04 6.78 6.04 13h-2c0-5.56-2.35-9.15-5.27-11.43a17.38 17.38 0 0 0-8.88-3.47l.15-1.99ZM14.06 31.8c1.52.16 3.75.84 5.62 2.42 1.91 1.6 3.4 4.1 3.4 7.75h-2c0-3.03-1.2-4.98-2.68-6.22a8.8 8.8 0 0 0-4.54-1.95l.2-2ZM23.25 14.3 21.18 20l-1.88-.7 2.07-5.68 1.88.68ZM32.27 14.8l-6.06 7.9-1.59-1.22 6.06-7.9 1.59 1.21ZM42.73 15.35 30.76 26.73l-1.38-1.45L41.35 13.9l1.38 1.45ZM42.4 26.5l-8.28 4.8-1-1.73 8.27-4.8 1 1.73ZM42.25 34.72l-6.5 1.92-.57-1.91 6.5-1.93.57 1.92Z" fill="#fff"/></svg>