<!-- by TradingView --><svg width="18" height="18" viewBox="0 0 18 18" xmlns="http://www.w3.org/2000/svg"><path fill="#F0F3FA" d="M0 0h18v18H0z"/><path d="M6.97 6c-.74.46-1.7 2-1.7 2 .31-.04.64-.02.98.06.55.14 1.1.33 1.65.54.54.2 1.1.32 1.69.36.25.02.62-.01 1.1-.09.37-.06.9-.12 1.56-.18 1.01-.08 2.27.36 2.38 1.67.13 1.5-1.6 2.17-2.47 1.16-.36-.42-.37-1.11.07-1.49.44-.38 1.52-.32 1.65.43.08.48-.27.82-.7.72a.85.85 0 0 1-.55-.41.17.17 0 0 1-.03-.09c0-.15.08-.28.23-.4.01-.02.04-.01.05.01.1.19.16.48-.08.57-.03.02-.03.07 0 .08.26.05.66.05.75-.3.08-.27-.23-.5-.44-.53a.7.7 0 0 0-.65.24c-.24.28-.2.7.08.93.57.47 1.7.22 1.57-.77-.09-.7-.88-1-1.41-.92-.35.05-.67.13-.98.25-1.29.5-2.2.93-3.4.65-.96-.22-1.8-.56-2.62-.84-.5-.17-1.18-.18-1.57.26-.4.45-.3 1.17.22 1.46.34.18.84.23 1.16-.05.82-.71-.53-1.8-.9-.98-.12.28 0 .57.28.62.14.02.26.01.37-.02.02-.01.03-.04.02-.06h-.02c-.32-.05-.3-.37-.24-.63 0-.02.03-.04.05-.03.14.06.25.16.31.3.03.04.04.09.03.14 0 .11-.1.3-.18.36-.8.62-1.55-.89-.49-1.26a.99.99 0 0 1 1.3.65c.19.66-.16 1.36-.77 1.51-.86.22-1.77-.37-2.03-1.3-.43.1-.84.04-1.24-.2l.38-.51A6.82 6.82 0 0 1 4.58 6h2.39Z" fill="#39060A"/><path d="M8.83 6.38c-.07.04-.24.2-.51.43-.35.3-.66.65-.94 1.07a4.3 4.3 0 0 0-1.28-.24c.34-.45.8-.92 1.17-1.26h1.56Z" fill="#5A636A"/><path d="M12.59 8.16c-.88.14-1.66-.1-2.36-.8-.16-.15-.34.2-.41.36.29.47.78.7 1.27.8-.56.21-1.27.07-1.77-.33l-.43.44-1.09-.4c.4-.7 1.03-1.28 1.62-1.73.4-.31.98.03 1.3.36.62.63 1.1 1 1.87 1.3Z" fill="#AA051F"/><path d="M15.29 11c.05-.04.13-.11.26-.19a.1.1 0 0 0 .03-.03l.02-.06c.04-.83-.2-1.53-.76-2.09A3.35 3.35 0 0 0 14 8c1.14.39 1.78 1.44 2 2.83l-.71.17Z" fill="#912C43"/></svg>