<!-- by TradingView --><svg width="18" height="18" viewBox="0 0 18 18" xmlns="http://www.w3.org/2000/svg"><path fill="#F0F3FA" d="M0 0h18v18H0z"/><path d="M10.63 6.37c.85-.44 1.73-.49 2.64-.13A3 3 0 0 1 15 8.98s0 .6-.1.88v.18c.07.16.06.28-.02.37a.15.15 0 0 1-.07.05l-.14.03a.2.2 0 0 0-.12.1 2.5 2.5 0 0 1-.63.7 2.47 2.47 0 0 0-.85-.32.19.19 0 0 1-.1-.05.2.2 0 0 1-.05-.1l-.12-.5.39-.35a.13.13 0 0 0 .04-.12l-.06-.26a.25.25 0 0 1 .03-.18c.03-.05.08-.1.14-.11a.52.52 0 0 0 .22-.13c.03-.91-.38-1.48-1.25-1.7l-.22-.56a.1.1 0 0 0-.04-.06.1.1 0 0 0-.08 0l-1.16.26a.04.04 0 0 1-.05-.02v-.02l-.13-.7Z" fill="url(#a)"/><path d="m10.63 6.37.13.7a.04.04 0 0 0 .03.04h.02l1.16-.27a.1.1 0 0 1 .08.01.1.1 0 0 1 .04.06l.22.56c-.49-.05-.9.09-1.22.41a62.23 62.23 0 0 0-1.06 1.1l.02.05a4.43 4.43 0 0 0 1.97 1.53l.58 1.36c-1.7.29-2.5-.69-3.55-1.79a.06.06 0 0 0-.04-.02.06.06 0 0 0-.05.02l-1.08 1.11a2.9 2.9 0 0 1-3.92-.01c.34.02.65-.04.93-.19 1.08.42 2.02.21 2.82-.6a.16.16 0 0 0-.05-.25l-.6-.28.92-.93c.25.13.36.33.33.6a.12.12 0 0 0 .05.12.1.1 0 0 0 .05.01l1.13.04c.02-.04.07-.07.14-.1l.03-.03a.18.18 0 0 0 .04-.1c.02-.27.03-.58.02-.92 0-.33-.19-.42-.46-.4a.15.15 0 0 1-.13-.05L9 7.95a9.52 9.52 0 0 1 1.63-1.58Z" fill="#AC0100"/><path d="M4.83 7.91c.06.11.07.23.04.35a.19.19 0 0 1-.07.1l-.3.21a1.21 1.21 0 0 0-.62-.26l-.05.01a.07.07 0 0 0-.03.05c-.22 1.18.15 2.07 1.1 2.67-.29.15-.6.21-.94.19A3 3 0 0 1 3 8.98c0-.5.23-.98.1-1.46a.2.2 0 0 1 .02-.14.2.2 0 0 1 .1-.1l.47-.2h.12a.45.45 0 0 1 .18-.06.5.5 0 0 1 .4-.04c.03.02.06.05.08.09l.36.84Z" fill="url(#b)"/><path d="M4.5 8.57c-.15.8.18 1.49.92 1.8.57.23 1.12.08 1.64-.46l.92-.93c.22.1.55.26.43.68 0 .02-.69.76-.7.77a2.43 2.43 0 0 1-2.82.61c-.94-.6-1.3-1.5-1.1-2.67l.04-.05a.07.07 0 0 1 .05 0c.23.02.43.1.61.25Z" fill="url(#c)"/><path d="M3.69 7.07a2.9 2.9 0 0 1 2.7-1.04c.95.14 1.49.75 2.14 1.45l.47.47.18.2a.15.15 0 0 0 .13.05c.27-.02.46.07.46.4.01.34 0 .65-.02.92 0 .03-.01.07-.04.1l-.03.04c-.07.02-.12.05-.14.09h-.77l-.36-.04a.1.1 0 0 1-.08-.04.11.11 0 0 1-.02-.08.56.56 0 0 0-.33-.6L7 7.93c-.68-.63-1.4-.64-2.17-.03l-.36-.84a.16.16 0 0 0-.09-.09c-.26-.1-.49.15-.7.1Z" fill="url(#d)"/><path d="M14.9 9.98v.06c.07.16.06.28-.02.37a.15.15 0 0 1-.07.05l-.14.03a.2.2 0 0 0-.12.1 2.5 2.5 0 0 1-.63.7 2.7 2.7 0 0 1-1.32.63l-.58-1.36.78-.24.39-.35a.13.13 0 0 0 .04-.12l-.06-.26a.25.25 0 0 1 .03-.18c.03-.05.08-.1.14-.11a.52.52 0 0 0 .22-.13 1.76 1.76 0 0 0 .77-.26l.56 1.07Z" fill="url(#e)"/><defs><linearGradient id="a" x1="12.17" y1="7.5" x2="14.8" y2="7.66" gradientUnits="userSpaceOnUse"><stop stop-color="#AC0100"/><stop offset="1" stop-color="#EC1108"/></linearGradient><linearGradient id="b" x1="3.95" y1="6.96" x2="4.48" y2="11.23" gradientUnits="userSpaceOnUse"><stop stop-color="#DB0700"/><stop offset=".52" stop-color="#D20600"/><stop offset="1" stop-color="#AC0100"/></linearGradient><linearGradient id="c" x1="4.01" y1="9.51" x2="8.18" y2="9.24" gradientUnits="userSpaceOnUse"><stop stop-color="#FF0900"/><stop offset=".74" stop-color="#CD0401"/><stop offset="1" stop-color="#A40000"/></linearGradient><linearGradient id="d" x1="4.29" y1="7.15" x2="9.36" y2="9.16" gradientUnits="userSpaceOnUse"><stop stop-color="#A00000"/><stop offset="1" stop-color="#FB1000"/></linearGradient><linearGradient id="e" x1="14.25" y1="9.32" x2="12.26" y2="10.95" gradientUnits="userSpaceOnUse"><stop stop-color="#FB1000"/><stop offset="1" stop-color="#AC0100"/></linearGradient></defs></svg>