<!-- by TradingView --><svg width="18" height="18" viewBox="0 0 18 18" xmlns="http://www.w3.org/2000/svg"><path fill="#F0F3FA" d="M0 0h18v18H0z"/><path d="M14.98 10h-1.65L11 7.68H11a.03.03 0 0 0-.02 0h-.01l-1.74 1.5a.03.03 0 0 1-.02 0H9.2L6.77 6.77v-.03L7.62 6a.03.03 0 0 1 .03 0l1.59 1.57v.01a.03.03 0 0 0 .03 0l1.74-1.5a.03.03 0 0 1 .02 0h.01L15 9.96v.02c.01 0 0 0 0 0V10h-.01ZM5.89 7.69l.79.72v.03L4.73 10l-.02.01h-1.7L3 9.99v-.02l2.85-2.28a.03.03 0 0 1 .03 0h.01Z"/><path d="M9.18 13a11.43 11.43 0 0 1-.68-.75l-.58-.64c-.16-.19-.33-.34-.47-.5a9.14 9.14 0 0 0-.76-.82c.22-.24.44-.48.67-.7.06-.06.12-.1.17-.13a.07.07 0 0 1 .08 0c.1.08.2.18.3.29a222.86 222.86 0 0 0 1.3 1.45.05.05 0 0 0 .03-.01l1.68-1.63c.05-.05.12-.06.21-.02l.75.82a.06.06 0 0 1 0 .09 517.7 517.7 0 0 0-2.7 2.54Z" fill="#7CCE3C"/><path d="M9.18 13c-.07.01-.12 0-.17-.06a53.96 53.96 0 0 0-1.17-1.3c-.18-.2-.37-.38-.56-.6l-.58-.65c-.01-.02-.02-.05 0-.1a33.58 33.58 0 0 0 .75.82c.14.16.31.31.47.5a29.05 29.05 0 0 0 .92 1.02l.34.36Z" fill="#464547"/></svg>