<!-- by TradingView --><svg width="18" height="18" viewBox="0 0 18 18" xmlns="http://www.w3.org/2000/svg"><path fill="#F0F3FA" d="M0 0h18v18H0z"/><path d="M4.64 4c-.51 0-.64.43-.64.64v8.04c0 .26.21.32.32.32h.36c.26 0 .32-.21.32-.32V9.46C5 6.12 8.29 5 9.79 5h2.89c.26 0 .32-.21.32-.32v-.36c0-.26-.21-.32-.32-.32H4.64Z" fill="#017BC6"/><path d="M13.3 8c.56 0 .7.44.7.67v5c0 .26-.24.33-.35.33h-.3a.33.33 0 0 1-.35-.33v-1.34c0-2-2.4-3.33-3.94-3.33h-.7A.33.33 0 0 1 8 8.67v-.34c0-.26.24-.33.35-.33h4.94Z" fill="#017BC6"/></svg>