<!-- by TradingView --><svg width="18" height="18" viewBox="0 0 18 18" xmlns="http://www.w3.org/2000/svg"><path fill="#F0F3FA" d="M0 0h18v18H0z"/><path d="M13.67 7H7.91c-.24 0-.47.25-.5.5-.04.32.24.5.52.5h3.14c1.14 0 1.95 1.18 1.8 2.44l-.03.2C12.68 11.97 11.68 13 10.5 13l-3.03 2 1.1-1.94.04-.06H4l.41-2h5.24l-1.09 1.3h.9L8.42 14l2.48-2.38H9.7l.34-.62h.37c.2 0 .41-.27.44-.5a.45.45 0 0 0-.44-.5H7.2c-1.14 0-2.04-1.24-1.89-2.5l.03-.2C5.5 5.98 6.5 5 7.7 5H14l-.33 2Z" fill="url(#a)"/><defs><linearGradient id="a" x1="13.69" y1="6.14" x2="3.92" y2="12.75" gradientUnits="userSpaceOnUse"><stop stop-color="#11DA2E"/><stop offset=".45" stop-color="#0EC226"/><stop offset="1" stop-color="#037A09"/></linearGradient></defs></svg>