<!-- by TradingView --><svg width="56" height="56" viewBox="0 0 56 56" xmlns="http://www.w3.org/2000/svg"><path fill="#F0F3FA" d="M0 0h56v56H0z"/><path fill-rule="evenodd" d="M11 39h6V27h1l7.5 12H39c2 0 6-1 6-5v-3c-.17-1-1-3-3-3 .67-.33 2-1.8 2-5 0-4-2.5-6-5-6H29l5 5h2c.67 0 2 .4 2 2 0 2-1.5 2-2 2h-4v-1.5L25 18v12h-1l-7-13h-6v22Zm21-9v5h5c.67 0 2-.5 2-2.5S37.67 30 37 30h-5Z" fill="#477EB5"/><path fill-rule="evenodd" d="M42.57 27.55c.66-.7 1.43-2.13 1.43-4.55 0-4-2.5-6-5-6H29l5 5h2c.67 0 2 .4 2 2 0 2-1.5 2-2 2h-4v-1.5L25 18v12h-1l-7-13h-6v22h6V27h1l7.5 12H39c2 0 6-1 6-5v-3c-.14-.87-.8-2.5-2.27-2.9A2.7 2.7 0 0 0 42 28c.16-.08.36-.23.57-.45Zm1.93 3.5a3.97 3.97 0 0 0-.7-1.62 2.18 2.18 0 0 0-1.8-.93l-.22-.95c.44-.22 1.72-1.47 1.72-4.55a5.9 5.9 0 0 0-1.43-4.16A4.2 4.2 0 0 0 39 17.5h-8.8l4 4H36c.41 0 1.02.12 1.54.5.55.39.96 1.04.96 2 0 1.15-.45 1.83-1.06 2.18-.56.32-1.17.32-1.42.32H31.5v-1.78l-6-5.57V30.5h-1.79l-7-13H11.5v21h5v-12h1.78l7.5 12H39c.94 0 2.34-.24 3.5-.93 1.12-.67 2-1.77 2-3.57v-2.96Zm-13 4.45v-6H37c.44 0 1.06.16 1.58.63.54.48.92 1.25.92 2.37s-.38 1.89-.92 2.37c-.52.47-1.14.63-1.58.63h-5.5ZM32 30h5c.67 0 2 .5 2 2.5S37.67 35 37 35h-5v-5Z" fill="#537190"/></svg>