<!-- by TradingView --><svg width="18" height="18" viewBox="0 0 18 18" xmlns="http://www.w3.org/2000/svg"><path fill="#DDE6E5" d="M0 0h18v18H0z"/><path d="M9.34 3.2a.63.63 0 0 0-.5-.07.08.08 0 0 0-.05.05.09.09 0 0 0 0 .07l.1.2a.15.15 0 0 0 .14.07h.02a.1.1 0 0 1 .13.04c.06.16.23.2.5.15 0 .07 0 .12-.02.14a.56.56 0 0 0-.38.05.08.08 0 0 0-.03.04V4c.03.1.09.2.16.3-.01.03-.05.07-.12.1a1.1 1.1 0 0 0-.22-.37.08.08 0 0 0-.13.02c-.06.14-.12.17-.16.1v-.06l.04-.12a.1.1 0 0 0-.1-.12h-.3a.06.06 0 0 0-.06.07l.03.17-.3-.28a.09.09 0 0 1-.01-.11l.48-.68L8.6 3h.02c.19.11.51-.05.73.2Z" fill="#FEFEA6"/><path d="M9.34 3.2c.22.13.34.3.34.51-.27.06-.44 0-.5-.15a.1.1 0 0 0-.13-.04h-.02a.15.15 0 0 1-.15-.08l-.1-.19a.09.09 0 0 1 0-.07.08.08 0 0 1 .06-.05.63.63 0 0 1 .5.07ZM8.41 3.7a.04.04 0 0 1-.04-.02v-.04c0-.1.02-.18.06-.25.04-.06.1-.1.14-.1h.02c.03 0 .05.01.08.03l.06.08.04.11c0 .04.01.09 0 .14v.02a.04.04 0 0 1-.04.04h-.32ZM9.29 4.4c-.38.13-.68.03-.9-.3a.51.51 0 0 1-.03-.18.06.06 0 0 1 .07-.07h.3a.1.1 0 0 1 .09.08.1.1 0 0 1 0 .04l-.04.12v.05c.04.08.1.05.17-.1a.08.08 0 0 1 .12 0c.1.1.16.22.22.36ZM9.66 3.85c.02.22-.07.36-.25.45-.07-.1-.13-.2-.17-.3v-.06l.04-.04c.11-.06.24-.07.38-.05Z" fill="#9A0000"/><path d="m9.67 5.28-1.64.07a.04.04 0 0 0-.03.06l.02.02c.08.04.14.1.2.17a.06.06 0 0 1-.05.09H7.99v.01l-.02.04a.05.05 0 0 0 .02.04.05.05 0 0 0 .04.02c.2-.02.38 0 .55.07a.06.06 0 0 1-.04.12l-1.15-.25-.08-.08a.13.13 0 0 0-.12-.04.44.44 0 0 1-.19 0 .11.11 0 0 1-.06-.04.12.12 0 0 1-.02-.07c0-.03 0-.05.02-.08a.16.16 0 0 1 .05-.06c.11-.06.21-.06.3 0l.03.02h.03l.99-.24a.07.07 0 0 0 .05-.06c.01-.04.04-.08.07-.12a.18.18 0 0 1 .13-.05L9 4.9c.4-.01.6-.08.66.37Z" fill="#500"/><path d="M9.39 5.01h-.8a.07.07 0 0 0-.07.08v.01c0 .04.04.07.07.07h.8c.04 0 .07-.04.07-.07v-.02A.07.07 0 0 0 9.39 5Z" fill="#FEFEA6"/><path d="M11.1 5.57c-.1.09-.2.11-.3.07a.08.08 0 0 0-.1.02.4.4 0 0 1-.22.12 10.35 10.35 0 0 1-1.16.25l-.02.03v.54l.01.03h1.93a.12.12 0 0 1 .12.1l.08.3a.06.06 0 0 1-.01.05.06.06 0 0 1-.05.03.1.1 0 0 0-.06.02c-.05.04-.04.1.02.17.05.06.05.13 0 .2a.04.04 0 0 0 .02.06h.02c.03.01.05.03.05.06a.04.04 0 0 1-.02.03l-.19.1c-.14-.05-.3-.07-.51-.06l-1.24-.02h-.61l-.07-.3.08-.01c.03-.01.05-.03.04-.06a1.26 1.26 0 0 0-.03-.06.15.15 0 0 1 0-.13c.06-.1.03-.17-.06-.24l.04-.23.24-.01a.05.05 0 0 0 .05-.06V5.42a.03.03 0 0 1 .03-.03h.07a.04.04 0 0 1 .02.01.04.04 0 0 1 .02.03v.41a.07.07 0 0 0 .05.07h.03l1.09-.27a.09.09 0 0 0 .07-.07.1.1 0 0 0-.05-.1c-.1-.05-.2-.04-.31.05a.69.69 0 0 1-.4.15.03.03 0 0 1-.02-.06.74.74 0 0 1 .31-.2v-.04l-.02-.02h-.02c-.17.05-.28 0-.33-.17l.87.2.12-.01c.08-.04.12-.08.21-.06.14.03.2.12.2.26Z" fill="#9A0000"/><path d="M9.7 5.18c.04.16.15.22.32.17h.02l.01.02.01.04c-.1.03-.2.1-.31.2a.03.03 0 0 0 .02.06c.16-.02.3-.07.4-.15.1-.1.21-.1.31-.04a.1.1 0 0 1 .05.09.1.1 0 0 1-.07.07l-1.09.27a.07.07 0 0 1-.08-.07v-.41a.04.04 0 0 0-.02-.03.04.04 0 0 0-.02 0h-.07a.03.03 0 0 0-.03.02v1.15a.05.05 0 0 1-.05.06l-.24.01c-.04 0-.07-.01-.08-.03v-.05c.07-.1.08-.68.1-1.12 0-.03 0-.05-.02-.06a.09.09 0 0 0-.06-.03.07.07 0 0 0-.05.01.07.07 0 0 0-.03.05l-.03.9-1.37-.36a.1.1 0 0 1-.06-.05.09.09 0 0 1 .02-.09.23.23 0 0 1 .1-.07l1.16.25a.06.06 0 0 0 .07-.04.06.06 0 0 0-.03-.08c-.17-.07-.35-.1-.55-.07A.05.05 0 0 1 8 5.78a.05.05 0 0 1-.02-.04l.01-.04H8L8 5.68h.17a.05.05 0 0 0 .05-.06V5.6a.62.62 0 0 0-.2-.17.04.04 0 0 1 .01-.08l1.64-.07.02-.1Z" fill="#FEFEA6"/><path d="m8.86 6.64-.04.23a.2.2 0 0 0-.05-.06.1.1 0 0 0-.14.03c-.08.13-.2.16-.37.1a.03.03 0 0 0-.04.03v.01c.04.07.06.14.05.24a.07.07 0 0 0 .08.08c.04 0 .06-.06.07-.16 0-.02.01-.02.04-.02.05 0 .06.02.06.07l.01.15c0 .05.04.08.1.08.05 0 .1-.02.16-.05l.07.3c-.04-.01-.07 0-.07.04l-.12 2.6c-.02.56-.1.92-.2 1.09-.2.27-.54.4-1.02.37l-.03-.08c.06-.14.16-.22.27-.24.3-.06.51-.17.65-.34.12-.14.19-.37.2-.7a250.5 250.5 0 0 0 .1-2.77l-.48.03-.88-.02a.88.88 0 0 0-.33-.07.13.13 0 0 1-.12-.2.14.14 0 0 1 .06-.06l.04-.02a.07.07 0 0 0 .04-.09l-.02-.02c-.04-.05-.05-.09-.02-.13a.08.08 0 0 0-.01-.1c-.08-.11-.18-.17-.3-.17a.18.18 0 0 1-.03-.14l2.05-.03a.06.06 0 0 0 .04-.02.05.05 0 0 0 .02-.05.6.6 0 0 1-.01-.25l.03-.89a.07.07 0 0 1 .03-.05.07.07 0 0 1 .05-.01c.03 0 .04.01.06.03l.02.06c-.02.44-.03 1.02-.1 1.12v.05c.01.02.04.03.08.03Z" fill="#500"/><path d="M7.94 5.67h-.37a.08.08 0 0 1-.08-.07v-.04a.08.08 0 0 1 .05-.1c.16-.05.3-.02.44.1a.06.06 0 0 1-.04.1Z" fill="#B69D9D"/><path d="M11.1 5.57a.5.5 0 0 1-.07.26.16.16 0 0 1-.1.07l-1.3.32a.23.23 0 0 0-.15.14l-.02.06a.09.09 0 0 0 .02.09.1.1 0 0 0 .08.03c.6-.12 1.06.05 1.65-.01a.32.32 0 0 1 .35.3l.03.71v.11c-.1.46-.21.81-.35 1.05-.15 0-.23.01-.26.06-.1.13-.23.16-.37.07-.03-.03-.03-.08 0-.14l.01-.03-.01-.03a.06.06 0 0 0-.06-.02l-.13.03a.36.36 0 0 0 .04-.13.12.12 0 0 0-.05-.11l-.24-.2 1.1.08a.04.04 0 0 0 .04-.02.05.05 0 0 0-.01-.06c-.05-.03-.07-.06-.07-.07a.18.18 0 0 0-.23-.17 18.21 18.21 0 0 1-.52.14.05.05 0 0 1-.02-.03v-.02l.02-.02.74-.28.2-.1a.04.04 0 0 0 .01-.03c0-.03-.02-.05-.05-.05h-.02l-.01-.02a.04.04 0 0 1 0-.04c.04-.08.04-.15-.01-.21-.06-.08-.07-.13-.02-.17a.1.1 0 0 1 .06-.02.06.06 0 0 0 .06-.05v-.03l-.08-.3a.12.12 0 0 0-.11-.1H9.3V6.06a.05.05 0 0 1 .04-.05c.26-.03.63-.11 1.13-.23a.4.4 0 0 0 .21-.12.08.08 0 0 1 .1-.02c.1.04.2.02.3-.07ZM6.59 6.65c-.01.05 0 .1.04.14v.12c0 .04.02.08.05.12.08.1.08.2 0 .3a.32.32 0 0 0-.06.1.29.29 0 0 0-.01.12c0 .03.01.07.03.1.02.03.04.06.07.07.22.13.46.22.74.27.05 0 .1.03.13.06l.04.05a.84.84 0 0 1-.5-.13.13.13 0 0 0-.1-.02l-.25.06a.08.08 0 0 0-.06.06.07.07 0 0 0 .03.08l.14.1a.1.1 0 0 0 .06.02h.8a.05.05 0 0 0 .04-.05v-.08a.79.79 0 0 0 0-.33.11.11 0 0 0-.12-.09H7.3a.03.03 0 0 1-.03-.04v-.03l.89.02-.12.6c0 .02 0 .04-.02.05-.05.05-.11.06-.19.02-.14-.06-.28.05-.24.21a.46.46 0 0 0-.23-.12.12.12 0 0 0-.14.08c-.02.06-.05.09-.09.1a.1.1 0 0 1-.1-.06l-.08-.1c-.07-.02-.1.02-.1.11 0 .06.01.13.05.2a.67.67 0 0 1-.34-.35.2.2 0 0 1 0-.12c.06-.36-.15-.6-.12-.9v-.65c-.01-.06.04-.09.15-.09Z" fill="#FEFEA6"/><path d="M8.82 6.87c.1.07.12.15.06.24a.15.15 0 0 0 0 .13l.03.06c0 .03 0 .05-.04.06a.23.23 0 0 1-.08.01.42.42 0 0 1-.15.05c-.07 0-.1-.03-.1-.08l-.02-.15c0-.05-.01-.08-.06-.07-.03 0-.04 0-.04.02 0 .1-.03.16-.07.16a.07.07 0 0 1-.08-.08c.01-.1 0-.17-.05-.24a.03.03 0 0 1 .04-.04c.16.06.29.03.37-.1a.1.1 0 0 1 .14-.03.2.2 0 0 1 .05.06Z" fill="#B69D9D"/><path d="m7.28 7.65-.01.03a.03.03 0 0 0 .03.04h.36a.11.11 0 0 1 .11.09c.03.1.03.2.01.33 0 .06-.06.04-.16-.04l-.04-.05A.23.23 0 0 0 7.45 8a2.1 2.1 0 0 1-.74-.27.21.21 0 0 1-.07-.07.24.24 0 0 1-.03-.1l.01-.12a.32.32 0 0 1 .06-.1c.08-.1.08-.2 0-.3a.2.2 0 0 1-.05-.12v-.12c.1 0 .2.06.29.17a.08.08 0 0 1 0 .1c-.02.04-.02.08.03.13a.07.07 0 0 1-.02.1l-.04.03a.14.14 0 0 0 .06.26c.11 0 .22.02.33.07Z" fill="#9A0000"/><path d="M7.77 6.82a.03.03 0 0 1 .05.02c-.03.17-.03.32-.01.47a.06.06 0 0 1-.04.07c-.17.05-.32.03-.44-.07-.07-.06-.04-.12.02-.17.03-.02.04-.05.02-.08L7.27 7 7.23 7v-.02a.08.08 0 0 1 .06-.06h.03c.2.06.35.03.44-.09ZM9.34 6.94H10c.02 0 .03 0 .05.02l.02.04.06.22a.13.13 0 0 1-.1.16l-.1.02a.04.04 0 0 1-.04-.02l-.15-.3h-.05a.04.04 0 0 0-.02.05v.01a.3.3 0 0 1 .05.2c-.01.05-.06.07-.15.05-.16-.04-.25-.17-.28-.39a.06.06 0 0 1 .01-.04.05.05 0 0 1 .04-.02Z" fill="#B69D9D"/><path d="M10.5 6.93c0 .14-.03.25-.06.34-.14 0-.21-.09-.23-.26a.08.08 0 0 1 .06-.08.55.55 0 0 1 .23 0Z" fill="#FEFEA6"/><path d="M10.44 7.27c.04-.09.05-.2.06-.34a.43.43 0 0 1 .34.02.12.12 0 0 1 .06.1v.3a.05.05 0 0 1-.05.06h-.2a.12.12 0 0 1-.1-.06c-.03-.05-.07-.08-.11-.08Z" fill="#B69D9D"/><path d="M7.64 7.2c0 .05-.04.08-.1.1a.05.05 0 0 1-.05-.04v-.02c0-.02.01-.04.03-.05l.04-.01h.07v.03Z" fill="#9A0000"/><path d="M9.47 7.67c-.05 0-.1.05-.11.14-.02-.05-.04-.08-.07-.1a.04.04 0 0 0-.05.05l.1 2.23c-.02.41 0 .78.06 1.1.1.5.7.6 1.16.68a.05.05 0 0 0 .05-.04v-.03l-.04-.07a.02.02 0 0 1 0-.02c.01-.01.04-.01.07 0l.02.01v.02c.03.06.06.13.12.21a.07.07 0 0 1-.06.11l-.86-.05a.84.84 0 0 1-.52-.4.07.07 0 0 0-.1-.02c-.13.1-.25.12-.34.07a.18.18 0 0 0-.1-.08c-.03 0-.06.01-.09.05a.82.82 0 0 1-.68.4c-.4.02-.68.08-.83.18.03-.24.11-.35.25-.34.48.03.82-.1 1.01-.37.12-.17.19-.53.21-1.1l.12-2.59c0-.04.03-.05.07-.04h.61Z" fill="#FEFEA6"/><path d="m11.22 7.75-.74.28-.02.02v.04a.05.05 0 0 0 .03.02h.02a18.13 18.13 0 0 0 .57-.15.18.18 0 0 1 .15.17c0 .01.02.04.07.07a.05.05 0 0 1 .01.06.04.04 0 0 1-.04.02l-1.1-.07c.03-.12.04-.24.03-.39a.1.1 0 0 1 .13-.1c.13.03.25.02.38-.03.2-.01.37.01.51.06Z" fill="#500"/><path d="m9.36 7.8.1 2.23c-.02 0-.03-.02-.05-.05h-.03l-.04.01-.1-2.23a.04.04 0 0 1 .05-.04c.03.01.05.04.07.09Z" fill="#9A0000"/><path d="M9 7.78c.05 0 .07.02.07.07a103.63 103.63 0 0 0 .04 3.21l.07.13a.1.1 0 0 1 .01.07.1.1 0 0 1-.03.06c-.08.06-.13.1-.15.1-.02 0-.07-.04-.14-.1a.1.1 0 0 1-.04-.06l.01-.07.08-.13v-.02c.02-.7.02-1.76.01-3.2 0-.04.03-.06.07-.06ZM7.63 8.1c.1.08.15.1.15.04v.08a.05.05 0 0 1-.04.05h-.8a.1.1 0 0 1-.06-.02l-.14-.1a.07.07 0 0 1-.03-.08.08.08 0 0 1 .06-.06l.25-.06a.13.13 0 0 1 .1.02c.15.1.32.14.5.13ZM7.59 8.55l.28.43c-.26.02-.46.17-.6.44l-.37-.67a.4.4 0 0 1-.05-.19c0-.1.03-.13.1-.1.03.01.05.04.08.09a.1.1 0 0 0 .1.05c.04 0 .07-.03.1-.1a.12.12 0 0 1 .13-.07c.09.02.16.06.23.12Z" fill="#500"/><path d="M10.67 8.56a.01.01 0 0 1 .02 0v.06a.01.01 0 0 1-.02 0v-.06Z" fill="#9A0000"/><path d="M10.6 8.83c.03.1.02.16-.03.2-.25.18-.49.44-.71.77.1-.48.28-.86.56-1.16l.13-.03a.06.06 0 0 1 .06.02.06.06 0 0 1 0 .06c-.03.06-.03.1 0 .14Z" fill="#500"/><path d="M11.24 8.7c-.36.36-.6.78-.74 1.26a674.1 674.1 0 0 1-.3 1h-.02a.05.05 0 0 1-.05-.01 2.59 2.59 0 0 1-.1-.23c-.08-.16-.17-.2-.3-.13a.04.04 0 0 1-.03 0 .04.04 0 0 1-.02-.03c0-.31.05-.56.18-.76.22-.33.46-.6.71-.78.05-.03.06-.1.04-.19.14.09.27.06.37-.07.03-.05.11-.07.26-.06ZM8.2 9.72l-.57.64-.35-.94c.13-.27.32-.42.59-.44l.32.74Z" fill="#9A0000"/><path d="M5.72 9.44a2.43 2.43 0 0 0 .5 1.04.07.07 0 0 1-.03.07 2.59 2.59 0 0 0-1.13.3l-.03-.02a.07.07 0 0 1-.03-.05 1.56 1.56 0 0 1 .65-1.39.06.06 0 0 1 .06.02l.01.03ZM12.3 9.46a.07.07 0 0 1 .04-.05.07.07 0 0 1 .06.01 1.55 1.55 0 0 1 .59 1.41.06.06 0 0 1-.06.03h-.03a2.58 2.58 0 0 0-1.09-.3.07.07 0 0 1-.03-.07l.01-.03c.27-.35.44-.68.5-1Z" fill="#500"/><path d="M5.73 10.35c-.22 0-.37.01-.45.06a.06.06 0 0 1-.06 0 .06.06 0 0 1-.03-.05c.01-.23.1-.47.28-.7a.06.06 0 0 1 .11.03 1.57 1.57 0 0 0 .2.61.05.05 0 0 1-.05.05ZM12.23 10.27c.09-.12.15-.32.2-.59a.06.06 0 0 1 .04-.05.06.06 0 0 1 .07.03c.18.23.27.46.27.7a.06.06 0 0 1-.03.05.06.06 0 0 1-.05 0c-.09-.05-.24-.07-.46-.07h-.02a.05.05 0 0 1-.03-.05l.01-.02Z" fill="#FEFEA6"/><path d="m8.2 9.72.2.94a.34.34 0 0 1-.12.34l-.32.26a.12.12 0 0 1-.11.01.11.11 0 0 1-.08-.08l-.14-.83.56-.64ZM9.46 10.03c-.02.58-.03 1.16.62 1.35l.26.1c.07.04.16.06.26.06.2 0 .4-.02.6-.04a1 1 0 0 1 .37.18l.05.01h.05a1.98 1.98 0 0 0 .52-.43.03.03 0 0 1 .03.01v.02c-.07.33-.21.56-.44.68a.03.03 0 0 0-.02.03v.02l.02.03a.04.04 0 0 0 .03.02.04.04 0 0 0 .03-.01c.29-.27.58-.56.57-.97a.11.11 0 0 0-.09-.1.11.11 0 0 0-.12.05c-.1.16-.6.78-.83.38.35-.15.56-.34.64-.58a.15.15 0 0 1 .08-.08.15.15 0 0 1 .12-.01l.38.14a.16.16 0 0 1 .1.2l-.2.58a2.1 2.1 0 0 0-.53.45h-.06c-.02 0-.04 0-.06.02a.08.08 0 0 0-.03.05c0 .07 0 .14.04.22a2.47 2.47 0 0 1-.16 1.01.05.05 0 0 1-.08-.03l-.12-.52a.06.06 0 0 0-.07-.05.06.06 0 0 0-.06.06 1.49 1.49 0 0 1-.39.69.04.04 0 0 1-.05-.04l.01-.48a.16.16 0 0 0 .03-.14.07.07 0 0 0-.03-.05.07.07 0 0 0-.06 0l-1.27.41a.24.24 0 0 1-.04-.16c.31-.25.75-.29 1.37-.4a.05.05 0 0 0 .03-.02.05.05 0 0 0 0-.04l-.01-.07a.04.04 0 0 0-.02-.02h-.03l-1.22.3-.05-.1a4.19 4.19 0 0 1 1.28-.39l.02-.08a.03.03 0 0 0-.01-.03h-.03l-.73.17a.14.14 0 0 1-.11-.02c-.15-.09-.22-.2-.23-.33a.36.36 0 0 0 .04-.17l.86.05a.07.07 0 0 0 .06-.03.07.07 0 0 0 0-.08.78.78 0 0 1-.12-.23l-.02-.01c-.03-.01-.06-.01-.07 0v.02l.03.07v.03a.04.04 0 0 1-.02.03h-.02c-.47-.07-1.07-.17-1.16-.67-.06-.32-.08-.69-.06-1.1l.04-.02h.01l.02.01.05.05Z" fill="#500"/><path d="M8.18 10.7h.02a.03.03 0 0 1 .03.04l-.1.3-.02.02h-.08a.04.04 0 0 1-.02-.04.56.56 0 0 1 .17-.31Z" fill="#B69D9D"/><path d="M6.91 11.55c.07.04.11.08.13.13 0 .04-.02.1-.1.15-.3.25-.55.6-.75 1.02a.85.85 0 0 1-.03-.41c.02-.04.02-.07 0-.09.06-.11.03-.2-.08-.24a.2.2 0 0 1-.09-.06.61.61 0 0 0-.36-.22 1.86 1.86 0 0 1-.32-.81.13.13 0 0 1 .06-.13c.13-.09.29-.14.48-.17.02 0 .05 0 .07.02.03 0 .05.03.06.05l.22.35a2.37 2.37 0 0 0 .72.4Z" fill="#500"/><path d="M11.2 11.5c0-.03.06-.06.17-.08.23.4.73-.22.83-.38a.11.11 0 0 1 .18-.01l.03.06c.01.4-.28.7-.57.97a.04.04 0 0 1-.03 0 .04.04 0 0 1-.03-.01l-.02-.03V12a.03.03 0 0 1 .02-.03c.22-.12.37-.35.44-.68v-.02a.03.03 0 0 0-.04-.01h-.01c-.13.16-.3.3-.5.42a.09.09 0 0 1-.05.01.1.1 0 0 1-.05-.01 1 1 0 0 0-.37-.18ZM6.38 11.72l-.5-.4a.03.03 0 0 0-.04 0 .03.03 0 0 0-.02.02c.02.23.19.45.5.67-.46-.1-.67-.4-.66-.9a.1.1 0 0 1 .09-.09c.03 0 .06.02.09.07.09.16.4.37.6.5a.06.06 0 0 1 .02.06.06.06 0 0 1-.03.05.3.3 0 0 1-.05.02Z" fill="#FEFEA6"/><path d="M6.38 11.72c-.03.03-.05.13-.07.3-.3-.23-.47-.45-.49-.68a.03.03 0 0 1 .02-.03h.04l.5.41Z" fill="#9A0000"/><path d="m8.9 11.56-.2.53-.32-.08a.08.08 0 0 0-.1.05l-.1.24a.06.06 0 0 0 .03.07.06.06 0 0 0 .06 0l.36-.2a.04.04 0 0 1 .04 0 .04.04 0 0 1 .02.03l.03.27c.03.02.03.06.01.13a72.64 72.64 0 0 1-1.5-.36.24.24 0 0 1-.05-.07l.02-.06c.15-.1.42-.16.83-.18.28 0 .5-.14.68-.4.03-.04.06-.06.1-.05.03.01.06.04.09.08Z" fill="#500"/><path d="M9.86 11.9c0 .06-.01.12-.04.18-.02-.05-.04-.08-.09-.08-.02 0-.04 0-.05.03a.16.16 0 0 1-.03.05c-.02.02-.05.02-.1 0a1.36 1.36 0 0 0-.3-.08.06.06 0 0 0-.04.06v.34a.05.05 0 0 0 .02.05.05.05 0 0 0 .06 0c.06-.04.1-.11.08-.22a.05.05 0 0 1 .05-.05h.03c.07.06.13.06.18 0a.06.06 0 0 1 .07-.02l.02.02c.03.05.04.09.02.12a.05.05 0 0 0 0 .06l.03.01.13.05a.04.04 0 0 1 .02.03v.02l-.03.01c-.32.09-.88.25-1.16.12.02-.07.02-.11 0-.13.1.01.2 0 .27-.06a.11.11 0 0 0 .05-.08.11.11 0 0 0-.03-.09c-.03-.03-.03-.08 0-.13a.08.08 0 0 0-.01-.07.08.08 0 0 0-.06-.04.29.29 0 0 0-.25.09l.2-.53c.1.05.2.02.35-.07h.02a.07.07 0 0 1 .05 0l.02.02c.11.2.29.33.52.4Z" fill="#9A0000"/><path d="m7.42 11.69.03.08c-.14 0-.22.1-.25.34l-.02.06c-.08.05-.12.08-.1.1.05.1.14.15.27.17.65.07 1.18.33 1.57.77a.1.1 0 0 0 .14.01l.57-.46.05.1a.87.87 0 0 0-.31.3.03.03 0 0 0 .03.04l.16-.1c0 .07.01.12.04.17l-.54.43a.08.08 0 0 1-.1 0l-.33-.3a.4.4 0 0 0-.01-.22c-.35-.51-.94-.46-1.45-.61h-.04a.07.07 0 0 0-.05.04v.03c0 .03.02.07.04.1l-.03.13c-.06 0-.07.07-.02.2v.43a.04.04 0 0 1-.02.04.04.04 0 0 1-.05-.01 1.49 1.49 0 0 1-.4-.66H6.6a.04.04 0 0 0-.04.02l-.19.5-.01.03a.04.04 0 0 1-.07-.03c-.07-.22-.1-.4-.1-.54.21-.43.46-.77.77-1.02.07-.06.1-.1.09-.15-.02-.05-.06-.1-.13-.13h.44a.04.04 0 0 1 .04.04v.02c-.04.06-.03.09.03.08Z" fill="#9A0000"/><path d="m6.17 12.35-.4-.39h-.02c-.02 0-.04.01-.04.04a.18.18 0 0 1-.08-.17c.16.04.29.12.36.22a.2.2 0 0 0 .09.06c.11.05.14.13.09.24Z" fill="#FEFEA6"/><path d="M6.17 12.35v.09A1.59 1.59 0 0 1 5.7 12c0-.03.02-.04.04-.04h.01l.41.4Z" fill="#9A0000"/><path d="M8.7 12.09c.07-.07.15-.1.25-.09a.08.08 0 0 1 .06.04.08.08 0 0 1 0 .07c-.02.05-.02.1.01.13a.11.11 0 0 1-.02.17.36.36 0 0 1-.28.06l-.03-.27a.04.04 0 0 0-.06-.03l-.36.2a.05.05 0 0 1-.06 0l-.02-.03v-.04l.09-.24a.08.08 0 0 1 .1-.05l.32.08Z" fill="#FEFEA6"/><path d="M9.82 12.08c0 .13.08.24.23.33a.14.14 0 0 0 .1.02l.74-.18h.01l.02.01v.11l-.01.01c-.46.06-.88.19-1.28.38l-.57.46a.1.1 0 0 1-.07.03.1.1 0 0 1-.07-.04c-.4-.44-.92-.7-1.57-.77-.13-.02-.22-.07-.27-.16-.02-.03.02-.06.1-.11 0 .03.02.05.04.07a72.64 72.64 0 0 0 1.51.36c.28.13.84-.03 1.16-.12h.02l.01-.03v-.02l-.02-.01-.13-.05a.05.05 0 0 1-.04-.05v-.02c.03-.03.02-.07-.01-.12a.05.05 0 0 0-.05-.03.06.06 0 0 0-.04.03c-.05.06-.11.06-.19 0a.05.05 0 0 0-.07.05c.01.1-.02.18-.08.22a.05.05 0 0 1-.06 0 .05.05 0 0 1-.02-.05v-.34a.06.06 0 0 1 .07-.06c.12.02.2.05.27.08.04.02.08.02.1 0a.16.16 0 0 0 .03-.05c.01-.02.03-.03.05-.03.04 0 .07.03.09.08Z" fill="#FEFEA6"/><path d="M8.78 12.34c.02.03.05.05.08.03.02-.01.03-.05.02-.08-.02-.03-.06-.05-.08-.04-.03.02-.04.06-.02.09Z" fill="#9A0000"/><path d="M8.62 13.18c-.48-.31-.95-.37-1.5-.44a.25.25 0 0 1-.04-.1.07.07 0 0 1 .02-.06.07.07 0 0 1 .07-.01c.52.15 1.1.1 1.45.6ZM9.56 13.1l-.16.1a.03.03 0 0 1-.03-.01.03.03 0 0 1 0-.03.87.87 0 0 1 .31-.3l1.22-.3a.04.04 0 0 1 .04 0v.02l.02.07a.05.05 0 0 1 0 .04l-.02.01-.01.01c-.62.11-1.06.15-1.37.4Z" fill="#FEFEA6"/><path d="M8.62 13.18a.4.4 0 0 1 .01.23 4.28 4.28 0 0 0-1.54-.54l.03-.13c.55.07 1.02.13 1.5.44Z" fill="#500"/><path d="M7.09 12.87c.56.08 1.08.26 1.54.54l.33.28a.08.08 0 0 0 .1 0l.55-.42 1.26-.41a.07.07 0 0 1 .06 0 .07.07 0 0 1 .03.05c.02.05 0 .1-.03.14a3.1 3.1 0 0 0-1.49.58c-.15.1-.26.29-.38.36a.1.1 0 0 1-.13-.02 2.9 2.9 0 0 0-1.86-.9c-.04-.13-.04-.2.02-.2Z" fill="#FEFEA6"/></svg>