<!-- by TradingView --><svg width="18" height="18" viewBox="0 0 18 18" xmlns="http://www.w3.org/2000/svg"><path fill="#F0F3FA" d="M0 0h18v18H0z"/><path d="m10.13 6.18.16.52a3.41 3.41 0 0 0-3.86 1.14l-.18-.58-.99.07.1.34c.08-.02.15.02.16.08.02.07-.02.14-.08.15l.04.15.14-.04.33.6c.02.08-.02.15-.1.18l-.13.04.03.12v.02L5.63 9l-.02-.01-.03-.12-.14.04c-.07.02-.15-.02-.18-.1l-.05-.67.14-.04-.05-.15c-.08.02-.15-.02-.16-.08-.02-.07.02-.14.08-.15h.01l-.11-.37-.01-.05-.08-.23-.29-.97L7.37 4l5.63.67-2.87 1.51ZM3 7.51l1.51-1.22.33 1.08L3 7.51Z" fill="#FF6525"/><path d="M11.33 8.83A2.47 2.47 0 0 0 9.18 7.6c-1.36 0-2.51 1.06-2.51 2.3 0 1.22 1.16 2.26 2.5 2.26.95 0 1.75-.5 2.16-1.21l.67.3c-.2.32-.4.6-.73.84L9.17 14 7.1 12.1A2.78 2.78 0 0 1 6 9.9C6 8.3 7.42 7 9.18 7c1.23 0 2.28.63 2.82 1.56l-.67.27Z" fill="#005082"/><path d="M9.11 8.42a1.46 1.46 0 1 0 0 2.93 1.46 1.46 0 0 0 0-2.93Z" fill="#005082"/></svg>