<!-- by TradingView --><svg width="56" height="56" viewBox="0 0 56 56" xmlns="http://www.w3.org/2000/svg"><path fill="#F0F3FA" d="M0 0h56v56H0z"/><path d="M27.44 36.98v-1.2a.22.22 0 0 0-.31-.2L23.76 37a.22.22 0 0 0-.1.32l.85 1.26c.07.1.2.13.3.07l2.52-1.48c.07-.04.1-.11.1-.2Z" fill="#0B2B98"/><path d="M36.98 12c-1.74 0-4.17.71-6.82 1.93a42.2 42.2 0 0 0-8.23 5.1C16.58 23.25 12 28.97 12 34.9c0 1.25.47 3.11 1.87 4.66 1.4 1.56 3.73 2.78 7.4 2.78.87 0 2.06-.05 3.26-.2 1.14-.15 2.3-.38 3.2-.74.22.17.55.57.55 1.22 0 .26-.03.42-.08.53-.04.1-.1.15-.19.19-.09.05-.22.08-.42.1h-.71V44c.28 0 .54 0 .76-.02.22-.02.44-.05.63-.15.2-.1.35-.24.44-.46.1-.2.13-.45.13-.75a2.1 2.1 0 0 0-.56-1.47c.22-.1.43-.23.6-.37.29-.22.52-.52.52-.92a1.33 1.33 0 0 0-1.4-1.38c-.34 0-.63.1-.83.31-.2.2-.28.48-.3.75-.02.45.15.96.45 1.42-.8.3-1.83.5-2.86.63-1.17.15-2.34.2-3.2.2-3.52 0-5.69-1.17-6.97-2.6a6.67 6.67 0 0 1-1.73-4.3c0-5.66 4.4-11.24 9.72-15.43a41.63 41.63 0 0 1 8.12-5.03c2.62-1.2 4.96-1.88 6.58-1.88 2.6 0 4.2 1.06 5.16 2.37a7.04 7.04 0 0 1 1.3 3.98c0 3.89-1.7 7.14-3.8 9.63a21.75 21.75 0 0 1-2.77 2.73 46.25 46.25 0 0 1-7.19 3.64l1.1-15.12a.22.22 0 0 0-.3-.23l-1.21.4a.22.22 0 0 0-.16.2L28 37.1a32.11 32.11 0 0 0 7.38-4.04 22.8 22.8 0 0 0 4.7-4.18C42.23 26.32 44 22.95 44 18.9c0-1.15-.35-2.87-1.4-4.3-1.06-1.45-2.83-2.6-5.62-2.6Zm-8.45 28.35c-.17.14-.41.27-.68.4-.3-.41-.43-.85-.42-1.18.01-.19.07-.31.15-.4.07-.07.2-.14.42-.14.36 0 .55.14.67.3.13.18.17.4.17.53 0 .16-.09.32-.3.49Zm8.45-24.76-4.95 3.24a.22.22 0 0 0-.1.18v1.18c0 .17.18.28.33.2.8-.38 1.58-.7 2.28-1 2.1-.88 3.57-1.5 3.57-2.7 0-1.32-.75-1.29-1.13-1.1Zm-8.74 4.57c-1.18.6-5.21 2.68-4.73 3.15.5.5 4.2-1.25 4.93-1.6a.22.22 0 0 0 .12-.2v-1.15a.22.22 0 0 0-.32-.2Z" fill="#0B2B98"/><path d="M24 20h2.12c.1 0 .2.09.2.2v2.96a.2.2 0 0 1-.14.2c-2.48.76-7.16 2.75-7.16 4.92 0 2.75 4.49 6.62 6.17 6.62 1.35 0 1.69-1.1 1.69-1.66l.54-7.5c.01-.12-.08-.22-.2-.21-1.17.1-1.47 1.12-1.47 1.64 0 1.84-.22 5.52-1.12 5.52-1.12 0-3.37-2.76-3.37-3.86 0-.89 2.25-2.2 3.37-2.76 3-1.47 8.98-4.53 8.98-4.97 0-.42-3.4.8-5.34 1.55a.2.2 0 0 1-.27-.18V18.9c0-.56 0-1.1-1.12-1.1-.78 0-2.17 1.1-3.02 1.86-.13.13-.04.34.14.34Z" fill="#BF0324"/></svg>