<!-- by TradingView --><svg width="56" height="56" viewBox="0 0 56 56" xmlns="http://www.w3.org/2000/svg"><path fill="#F0F3FA" d="M0 0h56v56H0z"/><path d="M13 27c0-7.65 6.05-11 10-11 2.58 0 6.07 1.32 7.77 3.36l.62.75-9.98 8.8-1.32-1.5 8.4-7.4C26.92 18.9 24.92 18 23 18c-3.05 0-8 2.65-8 9 0 4 2.48 6.2 4.45 7.71L39.1 17.6l1.31 1.5-20.86 18.2-.65-.49-.18-.13C16.71 35.17 13 32.39 13 27ZM30.62 29.1l6.79 8.02-1.53 1.29-6.79-8.03 1.53-1.29Z"/><circle cx="41.5" cy="16.5" r="1.5" fill="#C41C1C"/><circle cx="18.5" cy="29.5" r="1.5" fill="#F3911E"/><circle cx="37.5" cy="39.5" r="1.5" fill="#148844"/></svg>