<!-- by TradingView --><svg width="18" height="18" viewBox="0 0 18 18" xmlns="http://www.w3.org/2000/svg"><path fill="#F0F3FA" d="M0 0h18v18H0z"/><path d="M9.56 4.55c1.3.07 2.62.63 3.53 1.52.86.84 1.2 1.92.64 3.01a.46.46 0 0 1-.05.08c-.02.02-.02.02-.02 0 0-1.07-.45-1.9-1.35-2.47a5.63 5.63 0 0 0-2.8-.72V6.44a.02.02 0 0 1-.02 0L6.82 4.91c-.02-.01-.02-.02 0-.03L9.52 4c.02 0 .02 0 .02.02v.5c0 .02 0 .03.03.03Z" fill="#E2282E"/><path d="M5.08 8.02c.08-.17.2-.33.34-.46.47-.47 1.06-.7 1.78-.72.06 0 .12 0 .18.02.04 0 .04.01 0 .02-.4.05-.72.18-1.03.4a3.03 3.03 0 0 0-1.31 2.13 1.97 1.97 0 0 0 .02.45.01.01 0 0 1-.02 0 2.26 2.26 0 0 1 .04-1.84ZM8.98 7.8H8l.14-.78.02-.02h2.82s.02.01.02.03l-.14.75c0 .01 0 .02-.02.02h-.93c-.01 0-.02 0-.02.02l-.53 3.16-.01.01h-.02l-.86.01a.03.03 0 0 1-.02-.03l.53-3.11V7.8ZM12.77 9.37c.12-.28.2-.58.2-.9 0-.1-.03-.2-.01-.3 0-.03.01-.03.02 0 .1.29.16.58.16.87-.01.83-.4 1.45-1.16 1.84a2.6 2.6 0 0 1-1.18.28.8.8 0 0 1-.2-.02c-.03 0-.03-.01 0-.02.98-.07 1.82-.97 2.17-1.75Z" fill="#354290"/><path d="m8.5 12.02-.01-.44c0-.02.01-.03.03-.02l2.69 1.54v.01L8.48 14c-.01 0-.02 0-.02-.02v-.51c0-.01 0-.02-.02-.02a5.37 5.37 0 0 1-4-2.07c-.54-.8-.6-1.62-.17-2.48.05-.1.07-.09.07.02 0 .7.22 1.3.65 1.8.81.94 2.24 1.3 3.47 1.33.02 0 .03-.01.03-.03Z" fill="#E2282E"/></svg>