<!-- by TradingView --><svg width="18" height="18" viewBox="0 0 18 18" xmlns="http://www.w3.org/2000/svg"><path fill="#F0F3FA" d="M0 0h18v18H0z"/><path d="M11.44 4.5c.05.1.1.2.13.3.04.14.34.23.32 0v-.03c-.02 0-.02-.01-.03-.02a.07.07 0 0 0-.07 0l-.05.04a.07.07 0 0 1-.08 0 .06.06 0 0 1 0-.09.23.23 0 0 1 .1-.05c.38-.1.3.61-.17.34a.03.03 0 0 0-.04 0v.02c-.08.25-.36.46-.64.39-.22-.06-.31-.25-.2-.45a.23.23 0 0 1 .22-.12c.22 0 .3.1.23.32l-.03.03a.07.07 0 0 1-.04.01h-.02a.04.04 0 0 1-.04-.04v-.01c.07-.16.04-.22-.1-.2-.13.02-.21.2-.09.3.19.16.48 0 .58-.18.04-.09.05-.2 0-.32-.14-.5-.62-.47-1.05-.36h-.01l-.48.33h-.01v.02h.01c.3.08.45.25.46.5 0 .25-.16.46-.42.5-.24.02-.46-.2-.3-.4.09-.1.19-.12.3-.04l.01.03v.04l-.02.02-.04.01-.07-.01a.1.1 0 0 0-.05 0 .1.1 0 0 0-.04.04.09.09 0 0 0 0 .1c.03.06.08.1.15.09.2-.01.3-.11.34-.31.06-.38-.36-.48-.68-.5-.04 0-.09.01-.12.03-.4.16-1.48.52-1.7-.04a.35.35 0 0 1 .02-.33c.32-.53 1.14.03.66.36-.2.14-.44-.02-.34-.26 0-.02.02-.02.03-.03a.06.06 0 0 1 .06.01l.02.04v.1a.07.07 0 0 0 .03.06.08.08 0 0 0 .07.01c.1-.02.2-.15.11-.26-.25-.32-.75.04-.5.33.16.2.4.18.63.14.41-.08.9-.2 1.16-.45.25-.23.26-.53.03-.77-.32-.31-.79.25-.4.4.1.03.16 0 .21-.1a.05.05 0 0 0 0-.05l-.06-.08a.06.06 0 0 1 0-.07.06.06 0 0 1 .1 0 .2.2 0 0 1 .06.12c.06.34-.44.4-.54.12-.06-.19-.02-.33.13-.45.25-.18.53-.09.69.17a.6.6 0 0 1-.03.68.9.9 0 0 0-.09.12.02.02 0 0 0 .02.01h.01c.51-.24.79-.63.83-1.16.02-.15-.05-.26-.19-.33a.12.12 0 0 0-.06-.01.41.41 0 0 0-.33.17.13.13 0 0 0-.03.05c-.02.13.03.23.13.3l.06.02c.14.02.21-.04.23-.18v-.04a.09.09 0 0 0-.04-.04.1.1 0 0 0-.1 0l-.05.04a.07.07 0 0 1-.1-.02.07.07 0 0 1 0-.09c.12-.09.28-.1.37.02.25.38-.45.67-.6.15-.15-.49.72-.74.84-.13v.01l.02.01h.03a.74.74 0 0 1 .45-.26c.74-.13.89.82.16.83-.09 0-.2-.1-.23-.18-.04-.15.1-.33.27-.3.02 0 .03 0 .04.02l.02.04v.03l-.01.01a.04.04 0 0 1-.04.01c-.26-.02-.22.35.1.24.22-.07.27-.28.14-.46-.07-.1-.17-.14-.32-.14a.68.68 0 0 0-.5.23c-.07.08-.14.2-.2.36a1.56 1.56 0 0 1-.18.4.03.03 0 0 0 0 .02h.02l.18-.02c.18-.03.38.01.63.13l.07.02c.14.01.31.04.37-.1.02-.03 0-.08-.04-.14a.07.07 0 0 0-.03-.03.08.08 0 0 0-.08.01.07.07 0 0 0-.02.03l-.03.05c0 .02 0 .03-.02.03a.06.06 0 0 1-.07-.01.05.05 0 0 1-.02-.04c.03-.24.44-.22.43.07 0 .2-.23.25-.42.24a.02.02 0 0 0-.02.01.02.02 0 0 0 0 .03Z" fill="#1E1C1D"/><path d="M11.54 5.46c.07 0 .13-.06.13-.13a.13.13 0 0 0-.13-.12.13.13 0 0 0-.13.12c0 .07.06.13.13.13ZM11.83 5.62c.07 0 .13-.05.13-.12a.13.13 0 0 0-.13-.13.13.13 0 0 0-.13.13c0 .07.06.12.13.12ZM11.44 5.57c.08-.07.15-.07.21 0a.11.11 0 0 1 .03.1c0 .03-.02.04-.04.06a.13.13 0 0 1-.05.03c-.09.02-.14-.02-.16-.13v-.01h-.01a.02.02 0 0 0-.02 0l-.07.04-.01.01v.02a.03.03 0 0 0 .01.02.2.2 0 0 1 .09.09v.03a.1.1 0 0 1 0 .05l-.03.03a.15.15 0 0 1-.04.03c-.05.03-.1.02-.14-.02a.12.12 0 0 1-.03-.04.1.1 0 0 1 0-.05v-.04l.04-.03.03-.04a.04.04 0 0 0-.02-.05c-.09-.05-.1-.12-.04-.2a.1.1 0 0 1 .07-.04c.03 0 .06 0 .08.02.03.02.05.05.06.1a.03.03 0 0 0 .02.03.03.03 0 0 0 .02 0ZM11.01 5.86c.07 0 .13-.06.13-.13a.13.13 0 0 0-.13-.12.13.13 0 0 0-.13.12c0 .07.06.13.13.13ZM11.86 5.68c-.08 0-.14.05-.15.1 0 .07.06.13.14.13.07 0 .14-.04.14-.1 0-.07-.05-.12-.13-.13Z" fill="#1E1C1D"/><path d="M11.74 5.99c.08-.02.13-.01.17.02.04.03.06.06.06.1-.04.17-.3.14-.28-.06v-.01a.03.03 0 0 0-.03-.02l-.03.02-.03.01c-.16.03-.22-.2-.04-.23.03 0 .07 0 .1.02a.1.1 0 0 1 .04.06V5.97l.01.01a.03.03 0 0 0 .03.01ZM11.03 6.16c.07 0 .12-.06.12-.13a.13.13 0 0 0-.12-.12.13.13 0 0 0-.13.12c0 .07.06.13.13.13ZM11.3 6.02c.16 0 .17.16.04.23v.05c.13.07.12.24-.04.24s-.16-.17-.03-.24v-.05c-.13-.07-.12-.24.04-.23Z" fill="#1E1C1D"/><path d="M11.58 6.38c.07 0 .13-.05.13-.12a.13.13 0 0 0-.13-.13.13.13 0 0 0-.13.13c0 .07.06.12.13.12ZM7.38 5.1h.04c.28.12.47.17.6.16a25.55 25.55 0 0 1 1.17-.03.1.1 0 0 1 .05.08.1.1 0 0 1 0 .04c-.02.04-.06.08-.13.11-.38.18-.7.4-.97.64a.86.86 0 0 0-.3.68c.02.61.66.85 1.22.93l1.08.15c.36.05.93.34 1.02.72a.04.04 0 0 1 0 .04h-.05l-.29-.1-.02-.01h-.02l-.02.02v.02c-.02.55.1 1.12.62 1.42.01.01.03.02.03.04l.01.05c-.09.8-.15 1.56-.02 2.34a.1.1 0 0 1-.02.07l-.06.09a.23.23 0 0 0-.04.13v.27l-.01.03h-.31a.08.08 0 0 1-.02-.03.08.08 0 0 1-.02-.03v-.04l.15-.34a10.2 10.2 0 0 0-.02-1.66 1.93 1.93 0 0 0-.73-1.29l-.01.01c-.04.28 0 .52.1.74.02.03.03.06.02.1-.02.19-.13.36-.18.54l-.47 1.44a.37.37 0 0 0 0 .2v.04l-.01.03c-.05.05-.06.12-.05.21a.05.05 0 0 1-.03.06c-.1.03-.2.04-.3.02l-.04-.01a.08.08 0 0 1-.02-.03l-.01-.04v-.03c.3-.56.66-1.28.64-1.94-.03-.68-.23-1.68-1.03-1.85a1.65 1.65 0 0 0-.8.03c-.2.06-.16.5-.16.72.01.85.08 1.8.2 2.79 0 .13.03.23.06.29v.05L8.2 13l-.03.01H7.9l-.04-.01a.06.06 0 0 1-.02-.04c-.02-.2.02-.42.02-.55.01-.5-.01-1.03-.06-1.56-.03-.28-.06-.65-.22-.84a.05.05 0 0 0-.05-.01H7.5c-.14.14-.15.61-.15.86 0 .73 0 1.4.11 2.08v.03a.06.06 0 0 1-.03.03L7.4 13H7.09l-.02-.02a.06.06 0 0 1-.01-.05l.05-.35v-1.56c.01-.93-.06-1.8-.1-2.68a6 6 0 0 1 .33-2.16 4.11 4.11 0 0 1 .37-.7l-.01-.02h-.02c-.18.04-.33.04-.46 0a.16.16 0 0 1-.12-.16c0-.16.1-.23.28-.2Zm.8.34v.01c0 .03.01.05.03.07.03.02.06.03.1.03a.14.14 0 0 0 .1-.04.1.1 0 0 0 .02-.03v-.04h-.25Z" fill="#1E1C1D"/><path d="M9.01 6c1.69 0 3.3.7 3.9 1.06l.09.05v3.8c0 1.4-.8 2.68-2.03 3.22L9 15l-1.97-.87A3.5 3.5 0 0 1 5 10.9v-3.8l.09-.05A8.64 8.64 0 0 1 8.99 6h.02ZM9 6.32c-1.54 0-3.06.65-3.7 1v3.59c0 1.26.76 2.47 1.86 2.96l1.84.8 1.84-.8a3.26 3.26 0 0 0 1.85-2.96V7.32c-.63-.35-2.15-1-3.69-1Z" fill="#1E1C1D"/></svg>