<!-- by TradingView --><svg width="56" height="56" viewBox="0 0 56 56" xmlns="http://www.w3.org/2000/svg"><path fill="#252B75" d="M0 0h56v56H0z"/><path d="M15.33 22.27v3.5h-.34c-.75-2.72-2.47-3.2-3.23-3.2-.77 0-2.04.35-2.04 1.53 0 1.2 1.35 1.68 2.62 2.05h.02c1.27.38 3.64 1.07 3.64 3.76 0 2.7-1.53 4.09-3.66 4.09s-2.84-.66-3.37-.66c-.42 0-.4.44-.35.66H8v-4.1h.26c1.96 4.88 6.02 3.98 6.02 2.07 0-1.9-2.99-2.5-3.53-2.6A3.53 3.53 0 0 1 8 25.76C8 23.08 9.83 22 11.55 22c1.72 0 2.52.68 2.92.68.31 0 .38-.27.37-.4h.49Z" fill="url(#axgpg1chc)"/><path d="M38.42 22.27v3.5h-.34c-.76-2.72-2.5-3.2-3.27-3.2-.78 0-2.06.35-2.06 1.53 0 1.2 1.36 1.68 2.64 2.05h.03c1.29.38 3.68 1.07 3.68 3.76 0 2.7-1.55 4.09-3.7 4.09-2.16 0-2.88-.66-3.4-.66-.43 0-.42.44-.37.66h-.62v-4.1h.26c1.99 4.88 6.09 3.98 6.09 2.07 0-1.9-3.02-2.5-3.57-2.6a3.54 3.54 0 0 1-2.78-3.6c0-2.7 1.85-3.77 3.6-3.77 1.73 0 2.54.68 2.94.68.32 0 .38-.27.38-.4h.49Z" fill="url(#bxgpg1chc)"/><path d="M14.9 34v-.34h1.6V26.7l2.5-.85v-7.51L24.5 17v6.3l-1.5.4v2.36l-1.41-.42V18.2l-2.09.4v7.26l2.53.67V34H19v-7.69l-2 .58V34h-2.1Zm9.1 0v-9.6l2.34-.9 2.66.78v9.42h2.01v.3h-2.47v-9.4l-2.09-.6v10H24Z" fill="url(#cxgpg1chc)"/><path d="M41 22.44h.93V33.4H41V34h8.64l.36-4h-.36a5.28 5.28 0 0 1-3.06 3.4H45V22.45h2.05V22H41v.44Z" fill="url(#dxgpg1chc)"/><path fill="#E8AA90" d="M8 34.5h42v.5H8z"/><defs><linearGradient id="axgpg1chc" x1="8" y1="25.51" x2="16" y2="25.51" gradientUnits="userSpaceOnUse"><stop stop-color="#D28A6F"/><stop offset=".5" stop-color="#FFC49A"/><stop offset="1" stop-color="#C98767"/></linearGradient><linearGradient id="bxgpg1chc" x1="31.01" y1="25.51" x2="39.1" y2="25.51" gradientUnits="userSpaceOnUse"><stop stop-color="#D28A6F"/><stop offset=".5" stop-color="#FFC49A"/><stop offset="1" stop-color="#C98767"/></linearGradient><linearGradient id="cxgpg1chc" x1="17.13" y1="28" x2="29.46" y2="28" gradientUnits="userSpaceOnUse"><stop stop-color="#C5A0A8"/><stop offset=".22" stop-color="#FACCB2"/><stop offset=".45" stop-color="#CB7F65"/><stop offset=".72" stop-color="#E9B293"/><stop offset="1" stop-color="#9D757E"/></linearGradient><linearGradient id="dxgpg1chc" x1="40.42" y1="26.64" x2="50" y2="26.64" gradientUnits="userSpaceOnUse"><stop offset=".17" stop-color="#E9AA81"/><stop offset=".5" stop-color="#FBC7AF"/><stop offset="1" stop-color="#D1876A"/></linearGradient></defs></svg>