<!-- by TradingView --><svg width="18" height="18" viewBox="0 0 18 18" xmlns="http://www.w3.org/2000/svg"><path fill="#F0F3FA" d="M0 0h18v18H0z"/><path d="m9.13 3.07 5.33 4.13a.1.1 0 0 1 .02.15l-.14.17a.12.12 0 0 1-.09.05.13.13 0 0 1-.09-.03l-1.58-1.23a.23.23 0 0 1-.11.04l-.1-.08c-.02-.06-.02-.1 0-.13L9.13 3.61a.06.06 0 0 0-.08 0L5.7 6.11c-.02 0-.03.03-.02.04l-.01.1-.14.15-.08-.07c0-.01 0-.02-.02-.02L3.83 7.48a.13.13 0 0 1-.18-.03l-.13-.17a.08.08 0 0 1 .02-.11l5.51-4.1.04-.01.04.01Z" fill="#29445F"/><path d="M8.73 5.9h-1.1a.09.09 0 0 0-.1.09v1.06c0 .05.04.1.1.1h1.1c.05 0 .09-.05.09-.1V6a.09.09 0 0 0-.1-.1ZM10.37 5.9H9.28a.1.1 0 0 0-.1.1v1.05c0 .05.05.1.1.1h1.1a.1.1 0 0 0 .09-.1V5.99a.1.1 0 0 0-.1-.09Z" fill="#29445F"/><path d="M8.95 12.24a.3.3 0 0 1-.12.03c-.01-.82-.42-1.5-1.24-2.06a5.73 5.73 0 0 0-.22-.15 2.7 2.7 0 0 1-.33-.22A3.63 3.63 0 0 1 6.2 8.7c-.2-.4-.42-.68-.66-.82-.09-.05-.17-.03-.24.06-.17.22-.16.48.02.8a180.26 180.26 0 0 0 1.08 1.8.05.05 0 0 1-.03.04.06.06 0 0 1-.04 0A284.59 284.59 0 0 0 5.3 8.94c-.19-.3-.26-.57-.22-.8.02-.1.06-.2.13-.28.07-.1.16-.13.26-.12.03 0 .09.02.16.06a.02.02 0 0 0 .03 0v-.02l.17-.89c.06-.34 0-.56-.17-.63v-.1c.06 0 .11-.02.17-.07a.28.28 0 0 1 .08-.05c.1-.03.18 0 .24.11.05.09.07.18.06.3v.02l.02.01.1.06.02.03c.06.1.09.22.07.35a.06.06 0 0 0 .02.05c.08.07.1.18.09.3a4.47 4.47 0 0 1-.33 1.2l.01.03c.37.72.79 1.22 1.26 1.5.43.25.78.56 1.03.94.28.4.43.83.45 1.3ZM12.37 6.14c-.02.03-.02.07 0 .13-.1 0-.15.07-.18.22a.83.83 0 0 0-.02.3 18.81 18.81 0 0 0 .2 1.01h.01c.16-.1.3-.08.42.07.1.12.15.27.14.45 0 .17-.05.33-.14.47a611.54 611.54 0 0 0-1.1 1.8h-.03l-.02-.01a.05.05 0 0 1-.03-.03.05.05 0 0 1 0-.04l1.03-1.7c.24-.38.25-.68.03-.9a.16.16 0 0 0-.2-.03 2.7 2.7 0 0 0-.74.97l-.13.22c-.1.18-.28.41-.56.7-.07.07-.22.18-.46.33-.93.56-1.4 1.29-1.41 2.18h-.12l.04-.4c.11-.68.53-1.27 1.26-1.77l.19-.12.43-.3c.34-.34.62-.74.82-1.2v-.06c-.2-.48-.3-.9-.32-1.26 0-.06.03-.12.09-.2a.08.08 0 0 0 .02-.05c0-.24.06-.38.18-.43l.02-.01v-.03c0-.17.05-.3.13-.38a.1.1 0 0 1 .1-.02l.35.1Z" fill="#18355D"/><path d="M5.84 7.94a.02.02 0 0 1-.02.01.02.02 0 0 1-.02 0l-.03-.05a.04.04 0 0 1 0-.03l.19-1.06a.9.9 0 0 0-.1-.54v-.04c0-.01 0-.03.02-.04l.06-.04a.06.06 0 0 1 .09.01c.09.16.1.42.03.8-.08.4-.15.73-.22.98ZM12.17 7.94c-.07-.25-.14-.57-.22-.98-.07-.37-.06-.64.04-.8a.06.06 0 0 1 .08-.01l.06.05a.06.06 0 0 1 .02.07.9.9 0 0 0-.1.54 25.23 25.23 0 0 0 .2 1.1l-.04.04h-.01a.02.02 0 0 1-.02 0v-.01Z" fill="#9AC248"/><path d="M8.83 12.27a.02.02 0 0 1-.01.02c-.69.03-1.36.13-2.02.3-.11-.32-.3-.59-.55-.8a27.23 27.23 0 0 1-1.22-1.04c-.2-.16-.27-.52-.24-1.06v-.1l.07-.8c.06-.86.28-1.66.66-2.4l.14-.13c.18.07.23.29.17.63a268.28 268.28 0 0 0-.19.91h-.01a.52.52 0 0 0-.16-.06c-.1-.01-.19.03-.26.12a.56.56 0 0 0-.13.27c-.04.24.03.5.22.81a288.52 288.52 0 0 1 1.02 1.64h.04a.05.05 0 0 0 .02-.08L5.31 8.73c-.18-.3-.19-.57-.02-.79.07-.1.15-.11.24-.06.24.14.45.41.66.82.24.48.53.86.85 1.14.07.06.18.13.33.22l.22.15c.82.55 1.23 1.24 1.24 2.06ZM12.37 6.27l.1.08a5.9 5.9 0 0 1 .7 2.57l.07 1.12c0 .21-.05.41-.15.6a32.56 32.56 0 0 1-1.33 1.16c-.24.2-.42.45-.54.76a9.43 9.43 0 0 0-2.04-.28c0-.9.48-1.62 1.4-2.18.25-.15.4-.26.47-.33a3.72 3.72 0 0 0 .69-.92c.26-.5.5-.81.74-.97a.16.16 0 0 1 .2.02c.22.23.21.53-.03.92a490.6 490.6 0 0 0-1.03 1.73l.01.02h.02l.02.02h.03l.02-.02 1.08-1.78c.09-.14.14-.3.14-.47a.67.67 0 0 0-.14-.45c-.12-.15-.26-.18-.42-.07a.02.02 0 0 1-.01 0h-.01v-.01c-.06-.27-.13-.6-.19-1a.84.84 0 0 1 .02-.3c.03-.15.09-.22.18-.22Z" fill="#9AC248"/><path d="M12.58 6.31c.37.74.6 1.5.67 2.29.05.43.08.92.09 1.48 0 .23-.05.44-.17.63a700.49 700.49 0 0 0-1.33 1.17 1.58 1.58 0 0 0-.5.69v.03h.02c.49.13.96.3 1.42.5-.12 0-.2-.02-.23-.03-.33-.13-.67-.25-1-.36a2.27 2.27 0 0 1-.3-.13l-.03-.02c.12-.3.3-.56.54-.76a32.58 32.58 0 0 0 1.33-1.16c.1-.19.15-.39.15-.6 0-.18-.03-.55-.07-1.12a5.9 5.9 0 0 0-.7-2.57c.04 0 .07-.02.1-.04ZM5.52 6.4c-.38.73-.6 1.53-.66 2.38a50.97 50.97 0 0 0-.07.91c-.03.54.04.9.24 1.06l.38.33.84.72c.25.2.44.47.55.8l-.1.03a1.6 1.6 0 0 0-.53-.75 27.66 27.66 0 0 1-1.26-1.1c-.17-.14-.25-.42-.24-.84.02-.64.07-1.23.15-1.75a5.72 5.72 0 0 1 .62-1.86l.08.07Z" fill="#18355D"/><path d="m6.22 6.63.01-.01a.02.02 0 0 1 .04 0c.03.13.04.26.03.38A5.03 5.03 0 0 1 6 8.15a.03.03 0 0 1-.02 0l-.04-.06a.1.1 0 0 1-.02-.08c.13-.42.23-.89.3-1.39ZM11.79 6.63a8.42 8.42 0 0 0 .3 1.43.1.1 0 0 1-.03.04l-.03.05a.03.03 0 0 1-.03.02l-.01-.01-.01-.01A5.02 5.02 0 0 1 11.7 7a.95.95 0 0 1 .03-.37.02.02 0 0 1 .03-.02h.01v.02ZM11.63 7.23a4.8 4.8 0 0 0 .28 1.1l-.01.01h-.02l-.01-.01c-.12-.28-.2-.6-.27-.97-.02-.06-.01-.1 0-.14h.01a.02.02 0 0 1 .02 0ZM6.4 7.23c.02.03.02.08.01.14a5.01 5.01 0 0 1-.3.97.03.03 0 0 1-.02-.02.03.03 0 0 1 0-.03 4.72 4.72 0 0 0 .3-1.07l.02.01Z" fill="#9AC248"/><path d="M8.73 7.5h-1.1a.09.09 0 0 0-.1.08v1.07c0 .05.04.09.1.09h1.1c.05 0 .09-.04.09-.09V7.58a.09.09 0 0 0-.09-.08ZM10.38 7.5h-1.1a.09.09 0 0 0-.1.08v1.07c0 .05.04.09.1.09h1.1c.05 0 .09-.04.09-.09V7.58a.09.09 0 0 0-.09-.08ZM8.95 12.24v.02l.01.02h.22c.68.02 1.36.11 2.04.28a2.28 2.28 0 0 0 .32.15c.34.11.67.23 1 .36l.24.03a8.5 8.5 0 0 1 1.64.96 15.81 15.81 0 0 0-4.81-.86 17.51 17.51 0 0 0-5.83.82 9.5 9.5 0 0 1 2.91-1.4l.11-.03a9.04 9.04 0 0 1 2.03-.32.3.3 0 0 0 .12-.03Z" fill="#29445F"/></svg>