<!-- by TradingView --><svg width="56" height="56" viewBox="0 0 56 56" xmlns="http://www.w3.org/2000/svg"><path fill="#F0F3FA" d="M0 0h56v56H0z"/><path d="M31.62 29H25l12.38 14H44l-.08-.09-.01.01-12.23-8.57 10.83 6.97L31.61 29Z" fill="url(#aaggxgfbb)"/><path d="M32.93 15H12l2.59 3a7.33 7.33 0 0 0 5.6 2.5h12.38c2 0 3.43 1.66 3.43 3.63v.96c0 1.98-.97 3.91-2.98 3.91H25c1.82 2.53 4.73 4 8.35 4 3.62 0 8.65-2.35 8.65-8.66 0-6.88-6.07-9.1-9.07-9.34Z" fill="url(#baggxgfbb)"/><path d="M41.52 27.21c-.75-2.93-2.46-4.54-3.24-4.99l-2.48.28c.26.49.4 1.04.4 1.63v.96c0 1.98-1.17 3.91-3.18 3.91H25c1.82 2.53 4.73 4 8.35 4 3.01 0 6.94-1.54 8.17-5.79Z" fill="url(#caggxgfbb)"/><path d="M12.02 15c1.88.96 6.82 3 13.2 3h6.4c1.55-.08 5.17-.05 7.2 2.02 1.42 1.45 2.48 3.97 3.05 6 .09-.53.13-1.09.13-1.68 0-6.88-6.07-9.1-9.06-9.34H12.02Z" fill="url(#daggxgfbb)"/><path d="M27.42 43H34l-7.96-9.06A14.55 14.55 0 0 0 15.1 29l.08.09.01-.01 12.16 8.57-10.77-6.97L27.42 43Z" fill="url(#eaggxgfbb)"/><path d="M25 29c1.05.73 3.24 2 7 2 5.13 0 7-3.35 7-5.8 0-1.15-.48-2.48-.76-3-.75-.53-2.91-1.67-4.86-1.61A3.73 3.73 0 0 1 36 24.13v.96c0 1.98-.97 3.91-2.98 3.91H25Z" fill="url(#faggxgfbb)"/><defs><linearGradient id="aaggxgfbb" x1="24.72" y1="29.2" x2="43.78" y2="43.3" gradientUnits="userSpaceOnUse"><stop offset=".02" stop-color="#660A6E"/><stop offset="1" stop-color="#D3679C"/></linearGradient><linearGradient id="baggxgfbb" x1="12.02" y1="15.28" x2="41.82" y2="26.16" gradientUnits="userSpaceOnUse"><stop offset=".05" stop-color="#F8C300"/><stop offset="1" stop-color="#C22059"/></linearGradient><linearGradient id="caggxgfbb" x1="40.78" y1="24.7" x2="27.78" y2="31.9" gradientUnits="userSpaceOnUse"><stop stop-color="#B0254B"/><stop offset="1" stop-color="#EE8AB3"/></linearGradient><linearGradient id="daggxgfbb" x1="41.93" y1="22.64" x2="12.02" y2="22.64" gradientUnits="userSpaceOnUse"><stop stop-color="#DE3150"/><stop offset=".9" stop-color="#F7E176"/></linearGradient><linearGradient id="eaggxgfbb" x1="15.11" y1="29.32" x2="33.86" y2="43.19" gradientUnits="userSpaceOnUse"><stop stop-color="#DE5E97"/><stop offset="1" stop-color="#00458E"/></linearGradient><linearGradient id="faggxgfbb" x1="37.99" y1="21.34" x2="25.08" y2="29.43" gradientUnits="userSpaceOnUse"><stop stop-color="#972653"/><stop offset="1" stop-color="#E96DA0"/></linearGradient></defs></svg>