<!-- by TradingView --><svg width="18" height="18" viewBox="0 0 18 18" xmlns="http://www.w3.org/2000/svg"><path fill="#F0F3FA" d="M0 0h18v18H0z"/><path d="M11.85 13.1v.03c-.54.39-1.13.65-1.76.78-.46.09-1.03.11-1.71.07a4.67 4.67 0 0 1-2.72-1.24 5.15 5.15 0 0 1-1.6-3.05 5.19 5.19 0 0 1 .5-2.91A4.95 4.95 0 0 1 9.6 4.05c.77.1 1.49.37 2.17.8a.1.1 0 0 1 .04.07.1.1 0 0 1-.03.08L9.88 6.94a2.9 2.9 0 0 0-.48 3.56c.14.23.35.5.64.78a95.21 95.21 0 0 0 1.81 1.82Z" fill="#E41819"/><path d="M13.05 11.94a4.5 4.5 0 0 1-.62.71c-.05.05-.1.05-.16 0l-1.95-2a2.23 2.23 0 0 1-.67-1.5c-.03-.56.14-1.08.5-1.57l.4-.42a199.03 199.03 0 0 0 1.79-1.76c.04-.03.07-.02.1.01l.59.62c.02.03.03.05.03.09 0 .03-.01.06-.04.08l-2.04 2.04a1.3 1.3 0 0 0-.2 1.23c.07.18.3.46.69.83l1.57 1.57c.02.02.03.04 0 .07Z" fill="#18171A"/><path d="M14 9.04c0 .3-.03.6-.09.89a8 8 0 0 1-.24.86c-.06.17-.13.33-.23.46a.1.1 0 0 1-.07.04.1.1 0 0 1-.09-.03l-.5-.53a.2.2 0 0 1-.04-.22 4.2 4.2 0 0 0 .01-2.95.2.2 0 0 1 .05-.22l.5-.53a.1.1 0 0 1 .08-.03.1.1 0 0 1 .08.04c.1.13.17.29.22.47A4.5 4.5 0 0 1 14 9.04Z" fill="#E41819"/></svg>