<!-- by TradingView --><svg width="56" height="56" viewBox="0 0 56 56" xmlns="http://www.w3.org/2000/svg"><path fill="#F0F3FA" d="M0 0h56v56H0z"/><path fill="#FFED02" d="M4 32h48v4H4z"/><path d="M23.48 23H4v9h48v-9H32.52c-.8 1.18-2.53 2-4.52 2-2 0-3.72-.82-4.52-2Z" fill="#E11F25"/><path d="M39.05 32.83a.55.55 0 0 1-.64.11l-.18-.08c-.24-.11-.27-.25-.07-.42.41-.35.91-1 .87-1.57-.02-.33-.2-.54-.43-.83-.02-.04-.08-.04-.11-.01-.16.14-.34.28-.53.42-.3.2-.87.4-1.06-.02-.04-.1 0-.2.02-.28.01-.13-.03-.15-.13-.05a2.3 2.3 0 0 1-.54.36c-.32.16-.62-.01-.73-.3-.02-.04-.08-.06-.12-.03-.27.22-.56.4-.86.54-.28.13-.54.14-.76.01-.21-.1-.4-.37-.58-.55a.23.23 0 0 0-.32.01c-.26.3-1 .92-1.38.5-.1-.09-.07-.22-.07-.36 0-.05-.06-.08-.1-.04-.17.15-.35.28-.53.4-.25.16-.49.15-.71-.02-.1-.07-.12-.18-.13-.27-.02-.12-.07-.14-.15-.04-.18.22-.4.4-.69.56-.3.17-.75.14-.73-.3.02-.43.37-.89.54-1.16.07-.1 0-.25-.13-.26-.54-.08-.95.97-1.2 1.35-.08.15-.24.22-.4.15-.09-.03-.1-.12-.14-.19-.02-.04-.05-.05-.08-.02-.19.13-.43.27-.73.4-.4.2-.75 0-.72-.42 0-.15-.04-.18-.15-.06-.17.17-.59.48-.89.4-.52-.14-.57-.54-.4-.98.37-1.04 1.19-1.56 2.43-1.57.1 0 .33 0 .35.14.02.13.02.38-.06.55-.08.2-.26.52-.52.98a.5.5 0 0 0-.08.34c.02.08.1.13.18.1.22-.05.42-.13.6-.23.13-.07.25-.2.35-.38.44-.81.95-1.56 1.53-2.27.24-.29.4-.53.66-.72.1-.08.24-.1.41-.07.04 0 .06.02.06.06v.42a.1.1 0 0 1-.05.09c-.58.35-.96.82-1.29 1.39-.06.1-.04.13.08.07.14-.07.3-.14.49-.19.2-.05.26-.01.45.06.26.1.21.47.1.62-.38.46-.64.84-.79 1.12a.1.1 0 0 0 0 .1c.05.1.14.11.25.03l.53-.42c.16-.12.3-.47.42-.62.49-.66 1.35-1.22 2.24-1.14.05 0 .1.04.12.08.13.25.12.5-.01.74l-.45.78c-.04.08-.16.44.03.43a.9.9 0 0 0 .5-.14c.22-.15.2-.46.4-.64a.15.15 0 0 1 .07-.04c.48-.1.76-.42 1.12-.74.08-.08.16-.16.22-.26.11-.19.26-.57.56-.52.09.01.16.08.18.16.06.27.1.54.08.81-.01.35-.48.85-.72 1.1-.21.23-.16.3.15.22.15-.04.34-.13.55-.29.1-.06.17-.2.25-.38.34-.86 1.01-1.37 2.03-1.51.15-.03.35-.04.47.07.18.16.21.33.11.53l-.57 1.07c-.06.1-.06.2 0 .3.04.08.13.1.21.08.23-.07.4-.14.54-.22.1-.07.2-.18.26-.33a4.7 4.7 0 0 1 1.38-1.72c.25-.19.42-.14.52.16l.02.07c.07.29 0 .54-.22.75l-.62.58a.75.75 0 0 0-.25.63c.01.15.04.3.08.44.07.22.18.24.33.05.22-.27.37-.45.46-.54.1-.09.17-.2.2-.33l.16-.37c.45-.99 1.24-1.49 2.38-1.51.11 0 .19.07.23.23.05.17.05.3 0 .4a4.5 4.5 0 0 1-.52.92c-.1.15-.12.2-.11.37 0 .17.23.28.38.18.23-.15.43-.32.59-.51.46-.58.95-1.32 1.45-2.22.13-.24.31-.28.53-.12.04.02.09 0 .1-.03.05-.2.14-.4.26-.6.15-.27.53-.5.83-.28.16.12.25.26.27.42.03.3.03.55 0 .77a.6.6 0 0 1-.16.31.1.1 0 0 1-.13 0c-.22-.2-.47-.23-.75-.1-.08.04-.18.16-.3.38a5.9 5.9 0 0 0-.62 2.2c-.03.21-.16.32-.4.32h-.18c-.24 0-.33-.1-.25-.32l.62-1.78c.02-.05-.05-.11-.09-.06-.5.65-1.02 1.25-1.57 1.78-.27.26-.86.73-1.16.3-.08-.12-.06-.21-.05-.4 0-.03-.06-.06-.1-.03-.2.2-.4.41-.63.48-.27.08-.5 0-.66-.22a.14.14 0 0 0-.22 0l-.4.52c-.48.6-.12 1.49-.88 2.17Zm3.19-3.86a4.2 4.2 0 0 1 .38-.44c.01-.06-.04-.12-.1-.12-.69.03-1.49.48-1.42 1.21.01.13.16.21.28.17.28-.1.49-.27.65-.5l.2-.32Zm-4.72-.13a.37.37 0 0 0 .14-.18c.03-.08-.04-.16-.12-.15-.44.04-.8.2-1.1.48-.2.18-.4.65-.2.88.04.05.1.07.17.04.32-.12.51-.29.7-.57.17-.27.3-.44.4-.5Zm-2.9.69c.1-.14.06-.48.07-.65 0-.09-.1-.14-.18-.08l-.87.72a.1.1 0 0 0 0 .14l.43.42c.04.05.13.04.16-.01l.4-.54Zm-9 .22c.16-.21.34-.45.56-.68.2-.22.15-.31-.16-.27a2 2 0 0 0-.65.24c-.37.2-.56.5-.57.92 0 .1.06.18.15.2h.1a1 1 0 0 0 .58-.4Zm5.8.03c.26-.34.42-.6.68-.83.05-.05.02-.13-.05-.15a.77.77 0 0 0-.36.02c-.59.18-1.1.52-1.1 1.14.01.1.09.19.2.2.24.04.51-.22.64-.38ZM10 27.88l.57-1.2c2.92-.29 6.03-.38 8.97-.57.73-.05 1.57-.1 2.24-.1.32-.02.7 0 .75.39.02.2-.02.45-.13.76-.14.4-.33.79-.58 1.16-.05.08.09.05.12.02a159.33 159.33 0 0 0 2.3-2.02c.15-.13.28-.18.45-.04.32.25.4.56.22.92a14.28 14.28 0 0 1-2.22 3.4.97.97 0 0 1-.79.36c-.1 0-.2-.1-.2-.2 0-.2.06-.36.19-.5a23.5 23.5 0 0 0 1.4-1.58c.07-.1.31-.83-.08-.66-.09.03-.2.1-.31.2a11.9 11.9 0 0 0-2.2 2.44.61.61 0 0 1-.72.28.63.63 0 0 1-.1-.04c-.34-.15-.4-.35-.2-.59.47-.55 1.97-2.42 1.51-3.03a.26.26 0 0 0-.36-.05c-.18.12-.31.26-.4.4-.5.8-.99 1.54-1.47 2.22-.31.45-.6.8-.86 1.07-.03.04-.1.06-.2.07-.23.04-.42-.11-.42-.36 0-.08.05-.18.16-.31a20.8 20.8 0 0 0 1.77-2.54c.04-.07.08-.22.13-.44.02-.12-.01-.44-.2-.42l-9.34.96ZM51 28.47c0 .04-.02.07-.04.1a.09.09 0 0 1-.06.03c-.9.01-1.7.02-2.42 0-.1 0-.15.03-.17.07-.06.1-.07.27-.16.31-.05.03-.08.03-.11 0-.02-.02-.03-.06-.04-.12a75.95 75.95 0 0 1 0-1.72c0-.06.02-.1.04-.12.03-.03.07-.03.11 0 .03.01.06.04.07.08l.09.24c.02.04.08.06.17.06.71-.01 1.52 0 2.42.01.02 0 .05.01.07.04l.02.09v.93Z" fill="#FEF6F4"/><path d="M5 25h10L5 31v-6Z" fill="#FEF6F4"/><path d="M34.98 34.98h-.8v-1.95h.79c.21 0 .4.04.55.11.15.08.27.2.35.34.09.14.13.32.13.52s-.04.38-.13.53a.84.84 0 0 1-.35.33c-.15.08-.33.12-.54.12Zm-.23-.45h.2c.1 0 .2-.02.27-.05a.32.32 0 0 0 .16-.16.72.72 0 0 0 .06-.32.71.71 0 0 0-.06-.32.33.33 0 0 0-.17-.16.7.7 0 0 0-.27-.04h-.2v1.05ZM32.2 33.45v-.42h1.78v.42h-.62v1.53h-.55v-1.53h-.62ZM30.88 34.98v-1.95h.56v1.52h.83v.43h-1.39ZM29.55 33.64a.2.2 0 0 0-.08-.15c-.04-.04-.1-.06-.2-.06l-.14.02a.17.17 0 0 0-.08.06.13.13 0 0 0-.03.07c0 .03 0 .05.02.07 0 .02.02.03.05.05a.4.4 0 0 0 .08.04l.13.03.17.03.29.1a.7.7 0 0 1 .2.13c.05.05.09.1.11.17.03.06.04.13.04.2 0 .13-.04.24-.1.33a.62.62 0 0 1-.29.2c-.12.05-.27.07-.44.07-.18 0-.34-.03-.47-.08a.65.65 0 0 1-.31-.23.7.7 0 0 1-.11-.4h.53c0 .06.02.11.05.15.02.04.06.07.11.1.06.02.12.03.19.03.06 0 .1-.01.15-.03a.2.2 0 0 0 .09-.05.13.13 0 0 0 .03-.09.12.12 0 0 0-.03-.08.24.24 0 0 0-.1-.06l-.18-.05-.2-.04a.96.96 0 0 1-.43-.19.45.45 0 0 1-.16-.36c0-.12.04-.23.1-.32a.7.7 0 0 1 .3-.22c.13-.05.27-.08.43-.08.17 0 .31.03.43.08s.22.13.28.22c.07.1.1.2.1.34h-.53ZM26.83 34.98v-1.95h.56v1.52h.83v.43h-1.4ZM25.07 34.98v-1.95h1.48v.42h-.92v.34h.85v.43h-.85v.33h.92v.43h-1.48ZM23.39 33.03l.42 1.37h.02l.42-1.37h.63l-.68 1.95h-.76l-.68-1.95h.63ZM21.41 34.98h-.6l.68-1.95h.76l.68 1.95h-.6l-.45-1.42h-.02l-.45 1.42Zm-.11-.77h1.13v.4H21.3v-.4ZM19 34.98v-1.95h.88c.15 0 .29.02.4.08.11.05.2.12.27.22.06.1.1.22.1.36 0 .14-.04.26-.1.35a.6.6 0 0 1-.28.22c-.12.05-.25.07-.41.07h-.53v-.4h.42c.06 0 .12-.02.16-.03a.21.21 0 0 0 .11-.08.22.22 0 0 0 .04-.13c0-.06-.01-.1-.04-.14a.21.21 0 0 0-.1-.07.48.48 0 0 0-.17-.03h-.2v1.53H19Zm1.2-.9.5.9h-.6l-.5-.9h.6ZM17 33.45v-.42h1.78v.42h-.61v1.53h-.55v-1.53H17Z"/><path fill-rule="evenodd" d="M33 21.5c0 1.93-2.24 3.5-5 3.5s-5-1.57-5-3.5 2.24-3.5 5-3.5 5 1.57 5 3.5Zm-3.94 1.13c.6 0 1.07-.48 1.07-1.08 0-.6-.48-1.09-1.07-1.09-.58 0-1.06.49-1.06 1.09 0 .6.48 1.08 1.06 1.08Zm0-.49c.3 0 .54-.26.54-.6 0-.32-.24-.58-.54-.58-.29 0-.53.26-.53.59 0 .33.24.6.53.6Zm0 1.97a2.56 2.56 0 1 0-2.31-3.65h.75c.35-.47.92-.78 1.56-.78a1.9 1.9 0 0 1 1.92 1.87 1.9 1.9 0 0 1-1.92 1.87c-.45 0-.86-.15-1.2-.4l-.26.63c.41.3.92.46 1.46.46Zm-2.12-3.45h.53v.4h.42v.49h-.42v.5h.42v.49a.96.96 0 0 1-.95-.96v-.92Zm-3.09 0h.85v.13a.6.6 0 0 1 .86.11c.11-.14.3-.24.53-.24.33 0 .6.22.63.5v1.57c0 .2.06.4.16.4-.1-.15 0-.55.32-.55s.43.25.43.35c0 .1 0 .6-.64.6a.81.81 0 0 1-.8-.55V21.26c-.06-.12-.16-.2-.28-.2-.1 0-.19.05-.25.15v.83h.32v.5h-.85V21.18c-.06-.08-.13-.12-.22-.12-.08 0-.15.04-.2.12v.86h.2v.5h-1.06v-.5h.32v-.88h-.32v-.5Z" fill="#2C2C2C"/></svg>