<!-- by TradingView --><svg width="18" height="18" viewBox="0 0 18 18" xmlns="http://www.w3.org/2000/svg"><path fill="#F0F3FA" d="M0 0h18v18H0z"/><path d="M14 10.18V7.82c0-.55-.48-.82-1.44-.82h-2.5c-.04 0-.06.01-.06.04v3.92c0 .03.02.04.06.04h2.49c.97 0 1.45-.27 1.45-.82ZM12.74 12h-3.4c-.22 0-.34-.09-.34-.25v-5.5c0-.16.12-.25.33-.25h3.41c1.5 0 2.26.46 2.26 1.4v3.2c0 .94-.75 1.4-2.26 1.4Z" fill="#24C1E4"/><circle cx="7" cy="4" r="1" fill="#064490"/><path d="M5.5 6h1.65c-.35 1.85-1.34 5.62-1.41 5.87-.09.3-.17.99.26.99.35 0 1.48-.66 2-1C6.52 13.32 5.4 14 4.96 14c-.44 0-.96-.15-.96-1 0-.66 1.1-4.94 1.5-7Z" fill="#064490"/></svg>