<!-- by TradingView --><svg width="18" height="18" viewBox="0 0 18 18" xmlns="http://www.w3.org/2000/svg"><path fill="#F0F3FA" d="M0 0h18v18H0z"/><path d="m7.48 10.54.01.02.03.01h1.12l.04.02.02.05v.33c0 .02 0 .04-.02.05a.06.06 0 0 1-.04.02h-.98a.04.04 0 0 0-.02.05c.2.59.47 1.1 1 1.4a.13.13 0 0 1 .06.1v.34a.07.07 0 0 1-.02.05.07.07 0 0 1-.06.02 3.9 3.9 0 0 1-3.05-1.95.11.11 0 0 0-.05-.01h-1.1a.11.11 0 0 0-.1.06c-.36.68-1.36.45-1.32-.32.04-.78 1-.91 1.35-.23a.05.05 0 0 0 .04.03h.94a.02.02 0 0 0 .02-.01.02.02 0 0 0 0-.02 3.9 3.9 0 0 1-.3-1.34h.45a3.86 3.86 0 0 0 .36 1.35l.04.02h1.04a.06.06 0 0 0 .06-.05v-.03s-.39-1.35.02-3.08V7.4a.05.05 0 0 0-.03-.03H5.97a.13.13 0 0 0-.12.07c-.18.39-.3.82-.35 1.29a10.87 10.87 0 0 0-.43 0 .04.04 0 0 1-.02-.06 3.75 3.75 0 0 1 .3-1.25.06.06 0 0 0-.03-.05h-.87c-.02 0-.05 0-.07.02a.12.12 0 0 0-.04.05c-.32.72-1.36.48-1.34-.3.02-.74.94-.91 1.32-.28a.1.1 0 0 0 .08.05h1.15l.06-.01.04-.04A3.9 3.9 0 0 1 8.68 5a.05.05 0 0 1 .02.04v.37a.12.12 0 0 1-.06.1c-.52.28-.77.77-.98 1.33a.04.04 0 0 0 .02.05l.02.01h.95a.05.05 0 0 1 .05.04v.37l-.01.04-.04.01h-1.1l-.04.02a.07.07 0 0 0-.02.04c-.34 1.62-.18 1.94-.01 3.1Zm-.3-3.7a3.95 3.95 0 0 1 .56-1.14.02.02 0 0 0-.02 0A3.66 3.66 0 0 0 6.2 6.88a.03.03 0 0 0 .03.02h.86a.1.1 0 0 0 .1-.07Zm-3.17.33a.33.33 0 0 0-.1-.23.31.31 0 0 0-.44 0 .33.33 0 0 0 0 .46.31.31 0 0 0 .44 0c.06-.06.1-.14.1-.23Zm0 3.63a.33.33 0 0 0-.1-.22.31.31 0 0 0-.44 0 .33.33 0 0 0 0 .45.31.31 0 0 0 .45 0c.06-.06.09-.14.09-.23Zm3.16.32a.1.1 0 0 0-.1-.07H6.2a.03.03 0 0 0-.03 0 .03.03 0 0 0 0 .04 3.77 3.77 0 0 0 1.57 1.2.02.02 0 0 0 0-.02 4.06 4.06 0 0 1-.56-1.15Z" fill="#0F75BC"/><path d="M12.95 8.77c-.16.04-.31.03-.47 0a3.42 3.42 0 0 0-.38-1.36.09.09 0 0 0-.05-.01h-1.04a.04.04 0 0 0-.03.03v.02a7.1 7.1 0 0 0 .02 3.13l.01.01h1.04a.1.1 0 0 0 .1-.06c.2-.4.3-.84.33-1.3.15-.05.3-.05.47 0a4 4 0 0 1-.3 1.36h.94a.06.06 0 0 0 .05-.03c.17-.33.41-.48.72-.45.78.07.86 1.21.1 1.38-.33.08-.6-.05-.79-.37a.12.12 0 0 0-.1-.06h-1.11a.12.12 0 0 0-.1.06A3.89 3.89 0 0 1 9.33 13c-.03-.01-.03-.03-.03-.05v-.43a.1.1 0 0 1 .05-.03l.24-.14.04-.03a2.73 2.73 0 0 0 .7-1.22v-.02a.04.04 0 0 0-.03-.01h-.94c-.02 0-.03 0-.04-.02a.06.06 0 0 1-.02-.04v-.35c0-.02 0-.03.02-.04a.06.06 0 0 1 .04-.02h1.08c.01 0 .03 0 .04-.02.02-.01.03-.05.03-.05.35-1.6 0-3.06 0-3.06a.08.08 0 0 0-.03-.05.07.07 0 0 0-.05-.02H9.36c-.02 0-.03 0-.04-.02a.06.06 0 0 1-.02-.04v-.36s0-.02.02-.03a.05.05 0 0 1 .03-.02h.94a.05.05 0 0 0 .04-.04v-.02l-.17-.4c-.2-.42-.42-.74-.79-.95a.14.14 0 0 1-.07-.12v-.33A.06.06 0 0 1 9.37 5a3.86 3.86 0 0 1 3.02 1.91l.06.02h1.12a.11.11 0 0 0 .1-.06c.24-.44.75-.55 1.11-.2a.7.7 0 0 1-.1 1.09c-.4.27-.84.08-1.05-.34l-.01-.02h-.97a.02.02 0 0 0-.02 0v.02c.18.43.29.88.32 1.35ZM10.8 6.86l.04.05a.1.1 0 0 0 .06.02h.86a.03.03 0 0 0 .03-.02v-.03a3.65 3.65 0 0 0-1.53-1.17.02.02 0 0 0 0 .03c.24.35.42.73.54 1.12Zm3.8.3a.32.32 0 0 0-.1-.22.31.31 0 0 0-.44 0 .32.32 0 0 0 0 .46.31.31 0 0 0 .45 0c.06-.06.1-.15.1-.23Zm0 3.64a.32.32 0 0 0-.1-.22.31.31 0 0 0-.44 0 .32.32 0 0 0 0 .45.31.31 0 0 0 .45 0c.06-.06.1-.14.1-.23Zm-3.8.33a3.96 3.96 0 0 1-.55 1.16h.03a3.68 3.68 0 0 0 1.52-1.2.03.03 0 0 0-.03-.02h-.87a.1.1 0 0 0-.06.01.1.1 0 0 0-.04.05ZM7.3 9.2c0-.09-.02-.34 0-.45H8.02a.1.1 0 0 0 .03-.04c.17-.29.27-.5.58-.63a.04.04 0 0 1 .04 0l.02.02v1.76a.06.06 0 0 1-.03.05.05.05 0 0 1-.05 0 1.04 1.04 0 0 1-.54-.62.09.09 0 0 0-.03-.05.08.08 0 0 0-.05-.01l-.7-.02Z" fill="#23ABE2"/><path d="M10.67 8.77v.47h-.64c-.01 0-.03 0-.04.02a.09.09 0 0 0-.03.04.96.96 0 0 1-.63.65l-.01-.01-.02-.02V8.1l.02-.02h.03c.31.11.51.33.6.64l.04.04.04.02h.64ZM12.95 9.23a.73.73 0 0 0-.47 0h-1.34v-.46h1.34c.16.03.31.04.47 0h.62a.1.1 0 0 0 .09-.05c.64-1.08 1.95.19 1 .89a.37.37 0 0 1-.1.05c-.4.13-.7.01-.9-.36a.1.1 0 0 0-.08-.05l-.63-.02Zm1.66-.22a.32.32 0 0 0-.1-.23.31.31 0 0 0-.44 0 .32.32 0 0 0 0 .46.31.31 0 0 0 .45 0c.06-.06.1-.15.1-.23Z" fill="#0F75BC"/><path d="M5.05 8.67c0 .02 0 .04.02.05l.05.01h.38l1.34.01v.47H4.42a.1.1 0 0 0-.08.05c-.18.4-.6.58-.99.36-.63-.37-.35-1.35.38-1.3.26 0 .45.13.59.37a.1.1 0 0 0 .09.06H5a.03.03 0 0 0 .02-.01c.02-.02.02-.04.02-.07Zm-1.04.34a.33.33 0 0 0-.1-.23.32.32 0 0 0-.44 0 .33.33 0 0 0 0 .46.32.32 0 0 0 .45 0c.06-.06.1-.14.1-.23Z" fill="#23ABE2"/></svg>