<!-- by TradingView --><svg xmlns="http://www.w3.org/2000/svg" width="18" height="18" viewBox="0 0 18 18"><path fill="#F0F3FA" d="M0 0h18v18H0z"/><path d="M9.17 14c-1.53 0-2.69-.44-3.48-1.31A5.22 5.22 0 0 1 4.5 9.07c0-1.04.21-1.93.63-2.7.43-.76 1.01-1.35 1.75-1.75A5.09 5.09 0 0 1 9.39 4a30.55 30.55 0 0 1 3.1.33l-.16 2.92H10.9l-.45-2c-.19-.21-.6-.32-1.21-.32-.68 0-1.22.34-1.62 1.01a5.94 5.94 0 0 0-.58 2.94c0 1.26.2 2.27.57 3.03.39.76.95 1.15 1.68 1.15.36 0 .63-.04.82-.11.2-.07.36-.17.49-.3l.6-1.4 1.29.11-.24 2.14a4.3 4.3 0 0 0-.94.2 7.03 7.03 0 0 1-2.16.3Z"/></svg>