<!-- by TradingView --><svg width="56" height="56" viewBox="0 0 56 56" xmlns="http://www.w3.org/2000/svg"><path fill="#F0F3FA" d="M0 0h56v56H0z"/><path d="M16 32.06V39c-1.64-.83-4-3.75-4-9.33C12 15.84 24.56 12.8 30.84 13H44C41.87 18.63 37.03 18 30.42 18 19.5 18 16.33 27.53 16 32.06Z" fill="#393185"/><path d="M36.84 25c3.61 0 6.44 3 6.14 6.48l-.14 1.6C42.34 38.68 37.5 43 31.7 43H22l.52-6h10.21c1.1-.01 3.27-.76 3.27-3.67C36 31.6 34.48 31 33 31h-9.95l.3-3.52A2.76 2.76 0 0 1 26.15 25h10.7Z" fill="#E32224"/></svg>