<!-- by TradingView --><svg width="18" height="18" viewBox="0 0 18 18" xmlns="http://www.w3.org/2000/svg"><path fill="#F0F3FA" d="M0 0h18v18H0z"/><path d="m13.46 8.9.54.31c-.42.21-.89.69-1.48 1.74-.93 1.72-2.1 1.5-2.39 1.45 1.86-.5 2.05-2.01 2.05-2.3 0-.27-.05-.76-.14-.96.15-.17.57-.45.88-.45.32 0 .32.09.54.2Z" fill="#00469A"/><path d="M8.2 4.8V4c-.2.15-.65.8-.65 1.52s.55 1.49.55 1.6c-.14-.1-.76-.83-1.03-1.25.02.96.38 1.62 1.3 2.4A3.4 3.4 0 0 1 6.9 7.27c.5 1.42 1.63 1.72 1.94 1.82a3.6 3.6 0 0 1-1.94-.4c1 1.14 1.7 1.57 2.26 1.57.29 0 1.02-.37 1.3-.2-.64.53-2.16.51-2.91.51.2.16.57.4.96.4.48 0 .65 0 .65.18 0 .33-.5.63-.98.93-.38.24-2.09.97-2.89 1.3.42-.12 1.75-.5 3.68-1.08 2.41-.72 2.77-1.66 2.77-2.24 0-.59-.55-1.44-1.47-2.19-1.63-1.3-2.06-2.58-2.08-3.06Z" fill="#00469A"/><path d="M4 9a5.03 5.03 0 0 1 3.9-4.86L7.1 5.5a4.31 4.31 0 0 0-.23 6.83l-1.06.5A4.94 4.94 0 0 1 4 9Zm2.38 4.22a5.18 5.18 0 0 0 7.31-2 4.61 4.61 0 0 1-5.98 1.65l-1.33.35Zm3.43-8.6c-.51 0-1 .09-1.46.24v-.8a5.13 5.13 0 0 1 5.34 2.72 4.54 4.54 0 0 0-3.88-2.16Z" fill="#00469A"/></svg>