<!-- by TradingView --><svg width="18" height="18" viewBox="0 0 18 18" xmlns="http://www.w3.org/2000/svg"><path fill="#F0F3FA" d="M0 0h18v18H0z"/><path d="M7.34 13.3v.01l-.15.35h-.03a4.93 4.93 0 0 1-3.13-4.24L4 9.18c-.02-.1-.01-.26.01-.47a5.65 5.65 0 0 0 .04-.43 4.98 4.98 0 0 1 7.86-3.31l-.27.23h-.05a4.5 4.5 0 0 0-4.4-.44 4.6 4.6 0 0 0-1.8 7.11 4.6 4.6 0 0 0 1.94 1.43Z" fill="#E31E24"/><path d="m9.2 7.07-.02.01a10.75 10.75 0 0 1-.14-.34 2.46 2.46 0 0 0-1-.98.04.04 0 0 1-.02-.03V5.7l.14-.19c0-.01.01-.02.03-.02a1.79 1.79 0 0 0 .24.2 2.3 2.3 0 0 1 .57.7 2.1 2.1 0 0 1 .15.43c.04.08.05.16.04.25Z" fill="#2B2A29"/><path d="M12.75 5.72c0-.01 0-.01 0 0a5 5 0 0 1-1.92 7.93l-.14-.33a4.57 4.57 0 0 0 2.72-3 4.54 4.54 0 0 0-.74-4.1.04.04 0 0 1 0-.03l.08-.47Z" fill="#E31E24"/><path d="m12.56 5.33-.32 1.9h-.01l-.2-.3h-.01l-.2.3v.04c.31.28.51.65.6 1.1.2.89.1 1.84-.26 2.88-.2.59-.45 1.02-.75 1.28a.76.76 0 0 1-.28.16c-.12.04-.21.03-.3-.02a.43.43 0 0 1-.15-.2l-.82-1.97a.08.08 0 0 1 .01-.08l.33-.46.02-.01h.01l.91 1.92.02.01h.02c.5-.78.78-1.62.85-2.54.01-.2 0-.44-.06-.72a1.74 1.74 0 0 0-.46-.88h-.03l-2.36 3.59H9.1l-.61-.62h-.01l-.74 1.71c-.05.11-.1.19-.16.23a.3.3 0 0 1-.27.05c-.32-.07-.61-.4-.88-.98a6.06 6.06 0 0 1-.53-2c-.07-.74.01-1.35.24-1.85.28-.61.76-.95 1.44-1.03.4-.04.77.02 1.13.17.17.08.31.12.45.14H9.3l.35-.12a2.29 2.29 0 0 1 1.63-.08c.01 0 .03 0 .03-.02l.21-.31V6.6l-.44-.03v-.02l1.48-1.22c0-.01 0 0 0 0Zm-4.13 2c-.4-.07-.76-.04-1.07.1-.34.13-.6.38-.78.73-.11.21-.18.45-.2.73-.03.25-.03.5 0 .76a5.36 5.36 0 0 0 .87 2.26l.02-.01 1.92-4.26h.02l.6 1.37v.05l-.3.46-.02.01h-.01l-.24-.57h-.02l-.54 1.26v.01l.3.3c.01.02.02.02.03 0L11 7.44c.02-.02.01-.03-.01-.04a2.1 2.1 0 0 0-.65-.1c-.24 0-.45.05-.65.13l-.03.02c-.13.05-.23.09-.3.1a.61.61 0 0 1-.32 0 2.9 2.9 0 0 1-.23-.08c-.17-.07-.3-.1-.37-.12Z" fill="#E31E24"/><path d="M9.29 13.5v.48h-.06l-.03-.01-.24-.38v.38c0 .02 0 .03-.03.03h-.01c-.02 0-.03-.01-.03-.03v-.45l.01-.02h.07l.02.01.23.36h.01v-.37h.06Zm-.48 0c.02 0 .03 0 .03.02v.02c0 .01-.01.02-.03.02H8.63v.13l.13.02c.03 0 .04 0 .04.04 0 .02-.02.03-.05.02a.6.6 0 0 0-.12 0h-.01l-.01.13v.01l.17.02c.02 0 .03.01.03.03v.01c0 .02-.02.02-.03.02l-.22-.02c-.02 0-.02-.01-.02-.02a4.49 4.49 0 0 1 .05-.46h.22Zm.8-.03c.01 0 .02 0 .02.02v.03c0 .02 0 .02-.02.01a.16.16 0 0 0-.12 0 .07.07 0 0 0-.04.09l.03.03.04.02c.04.01.08.03.1.06.05.03.07.07.07.11 0 .05-.03.08-.08.1a.27.27 0 0 1-.16.03c-.03 0-.04-.02-.04-.05v-.02c0-.02 0-.02.02-.01.08.03.14.02.17-.03v-.05a.06.06 0 0 0-.03-.03l-.12-.07c-.07-.03-.1-.08-.07-.16 0 0 0-.02.02-.03.05-.05.12-.07.21-.05Zm-1.5.14c.06-.14.18-.19.36-.14l.02.03v.04c0 .02-.01.02-.02.01l-.04-.02H8.4c-.1-.03-.18 0-.21.09-.04.09-.03.16.02.22.05.05.12.07.22.04h.01v.02l-.01.03-.03.02h-.16a.2.2 0 0 1-.14-.15.27.27 0 0 1 .01-.2Zm1.67-.17.09.46-.01.01H9.8l-.09-.46.01-.01.05-.01h.01Zm-1.72-.04c.02 0 .03.02.02.04v.04h-.03c-.05-.04-.1-.05-.15-.02a.05.05 0 0 0-.03.04c0 .02 0 .03.02.05l.03.03.1.1c.02.05.02.1-.02.14a.13.13 0 0 1-.12.05.45.45 0 0 1-.14-.04l-.01-.03v-.06h.02c.03.04.07.06.13.07.02 0 .04 0 .05-.02a.06.06 0 0 0 .02-.05c0-.03-.03-.06-.07-.1-.05-.05-.08-.1-.08-.13 0-.11.1-.15.26-.1Zm2.17-.07c.01 0 .02.01.02.03l-.05.44c0 .03-.02.04-.04.05-.03 0-.05 0-.07-.03l-.24-.38v-.02c0-.01 0-.02.02-.02h.02c.02 0 .03.02.04.03l.2.34h.03v-.03h-.01l.03-.39c0-.02.01-.02.03-.02h.02Zm-2.62-.04.02.01.02.03.02.49h-.01l-.06-.01v-.12l-.03-.03a1.97 1.97 0 0 0-.15-.05l-.03.01-.06.07c0 .01-.01.02-.02.01l-.06-.01v-.02l.3-.37c.02-.01.03-.02.04-.01h.02Zm2.92-.05.01.03-.01.03-.15.05-.01.02.05.12h.01l.13-.06c.02 0 .03 0 .04.02 0 .03 0 .04-.02.05l-.14.04v.02c.02.03.03.06.03.1l.01.02h.03l.15-.05s.02 0 .02.02v.01c.02.02.01.03 0 .03l-.23.08-.02-.01-.14-.43.01-.03.21-.07.02.01Zm-3.08.3v.02h.01c.05.01.09.03.1.05h.02l.01-.02a.57.57 0 0 1 0-.22s0-.01 0 0c-.01 0-.06.05-.14.17Z"/></svg>