<!-- by TradingView --><svg width="56" height="56" viewBox="0 0 56 56" xmlns="http://www.w3.org/2000/svg"><path fill="#F0F3FA" d="M0 0h56v56H0z"/><path d="M38.5 12a1.5 1.5 0 1 0 0 3 1.5 1.5 0 0 0 0-3ZM30.5 10a1.5 1.5 0 1 0 0 3 1.5 1.5 0 0 0 0-3ZM22.5 12a1.5 1.5 0 1 0 0 3 1.5 1.5 0 0 0 0-3ZM16.5 18a1.5 1.5 0 1 0 0 3 1.5 1.5 0 0 0 0-3ZM14.5 27a1.5 1.5 0 1 0 0 3 1.5 1.5 0 0 0 0-3ZM16.5 35a1.5 1.5 0 1 0 0 3 1.5 1.5 0 0 0 0-3ZM22.5 41a1.5 1.5 0 1 0 0 3 1.5 1.5 0 0 0 0-3ZM30.5 43a1.5 1.5 0 1 0 0 3 1.5 1.5 0 0 0 0-3ZM38.5 41a1.5 1.5 0 1 0 0 3 1.5 1.5 0 0 0 0-3ZM29.18 19c1.1 0 2.17.28 2.93.54 2.08.72 4.28.95 6.32.18.26-.1.55.1.55.4l.02 16.4c0 .26-.21.48-.48.48h-3.04a.48.48 0 0 1-.48-.48v-2C33.79 36.03 31.63 37 29.18 37 24.7 37 21 33.08 21 28s3.7-9 8.18-9Zm.82 4a5 5 0 1 0 0 10 5 5 0 0 0 0-10Z" fill="#00B3C5"/></svg>