<!-- by TradingView --><svg width="18" height="18" viewBox="0 0 18 18" xmlns="http://www.w3.org/2000/svg"><path fill="#F0F3FA" d="M0 0h18v18H0z"/><path d="M11.82 4h.02s.02 0 .02.02a.05.05 0 0 1 0 .04l-.21.48v.06a4.9 4.9 0 0 1 2.24 3.26 4.85 4.85 0 0 1-.26 2.9h-.04l-.94-.42a.05.05 0 0 1-.03-.02v-.03c.21-.8.25-1.52.1-2.15a4.01 4.01 0 0 0-2.51-2.98.15.15 0 0 1-.08-.07l-.21-.4a.06.06 0 0 1 0-.06l.02-.01L11.82 4ZM8.52 4.98c-1.26.22-2.2.87-2.8 1.94a4.15 4.15 0 0 0-.14 3.9v.05l-.03.01h-.02L4 9.52V9.5a.04.04 0 0 1 0-.04l.02-.01.52-.08.03-.02.01-.04c0-.7.08-1.28.23-1.75a4.74 4.74 0 0 1 3.6-3.33l.1.72a.01.01 0 0 1 0 .01Z" fill="#A4C200"/><path d="M10.92 8.6c.05-.01.1.07.15.24.06.2.02.3-.1.32-.14.01-.19-.09-.17-.3.02-.17.06-.26.12-.27Z" fill="url(#a)"/><path d="M8.09 5.38a3.33 3.33 0 0 1 1.74-.03c.82.21 1.55.73 2.04 1.47a3.9 3.9 0 0 1-.73 5.16 3.42 3.42 0 0 1-3.32.55 3.5 3.5 0 0 1-1.24-.8 3.76 3.76 0 0 1-.95-1.63 3.97 3.97 0 0 1 .94-3.82c.43-.43.95-.74 1.52-.9Zm2.68 2.5c-1-.02-1.95.45-2.22 1.54-.08.34-.1.63-.05.9.03.15.08.28.15.37h.04v-.02c0-.2.03-.4.1-.58a2 2 0 0 1 .2-.44l.1-.38.03-.04.38-.54a.08.08 0 0 1 .06-.03h.18l.05-.02.3-.28.04-.02.7-.1h.03l.02.04.02.12-.01.05a.07.07 0 0 1-.05.03c-.19.05-.6 0-.74.26a.1.1 0 0 0-.01.06l.03.06.2.18.02.05v.05l-.47.77c-.01.02-.02.03-.04.03h-.05l-.53-.1a.04.04 0 0 0-.05.02l-.23.58-.05.4v.01a.02.02 0 0 0 .01.02h.01a2.87 2.87 0 0 0 1.66-.81c.5-.51.55-1.13.73-1.7a1 1 0 0 1 .24-.4v-.02h-.01a6.74 6.74 0 0 0-.79-.05Zm-2.7.45a2.77 2.77 0 0 0-1.53-.07v.02c.12.14.18.24.2.3l.26.94a1.74 1.74 0 0 0 1.37 1.06h.02v-.03c.01-.07 0-.15-.03-.22a1.6 1.6 0 0 1 .02-.75.1.1 0 0 0-.02-.08 3.3 3.3 0 0 0-.6-.67V8.8c0-.01 0-.02.02-.02h.02a2.5 2.5 0 0 1 .62.48l.26-.54V8.7l-.01-.02a1.38 1.38 0 0 0-.6-.35Zm1.92.56h-.01c-.18.25-.26.51-.22.8v.02l-.03.02a.04.04 0 0 1-.05 0c-.03-.02-.04-.07-.03-.13a49.87 49.87 0 0 0 .08-.5.04.04 0 0 0-.04 0h-.02l-.43.61a.01.01 0 0 0 0 .01l.52.12h.02v-.01l.44-.71v-.04L10 8.89Z" fill="url(#b)"/><path d="m12.7 11.7-.4 2.05v.02h-.05l-.33-.48-.02-.02h-.03l-.27.16a4.4 4.4 0 0 1-5.76-1.27v-.02l.02-.02.34-.26a.07.07 0 0 1 .1 0 3.67 3.67 0 0 0 5.58-.2l.03-.01h.77a.04.04 0 0 1 .02.03v.02Z" fill="#A4C200"/><defs><linearGradient id="a" x1="8.44" y1="7.34" x2="10.94" y2="11.87" gradientUnits="userSpaceOnUse"><stop stop-color="#A0CE18"/><stop offset="1" stop-color="#75B63B"/></linearGradient><linearGradient id="b" x1="8.44" y1="7.34" x2="10.94" y2="11.87" gradientUnits="userSpaceOnUse"><stop stop-color="#A0CE18"/><stop offset="1" stop-color="#75B63B"/></linearGradient></defs></svg>