<!-- by TradingView --><svg width="56" height="56" viewBox="0 0 56 56" xmlns="http://www.w3.org/2000/svg"><path fill="#49308C" d="M0 0h56v56H0z"/><path d="M32 28v3h11.69a1.29 1.29 0 0 0 .93-.39c.24-.25.38-.59.38-.94V19.61c0-.4-.17-.78-.49-1.05l-7.76-5.26a1.31 1.31 0 0 0-1.6-.06l-7.66 5.41c-.42.29-.5.63-.49 1.1V37H14v-7.73l6.22-3.9L25 28.68v-3.8l-4.12-2.88a1.32 1.32 0 0 0-1.6.05l-7.8 5.3A1.34 1.34 0 0 0 11 28.4v10.27a1.34 1.34 0 0 0 .81 1.23c.16.07.33.1.5.1h16.15a1.52 1.52 0 0 0 1.43-.96c.07-.2.11-.4.11-.6V20.68l5.8-4.11 6.2 3.9V28H32Z" fill="#F37B7D"/></svg>