<!-- by TradingView --><svg width="18" height="18" viewBox="0 0 18 18" xmlns="http://www.w3.org/2000/svg"><path fill="#F0F3FA" d="M0 0h18v18H0z"/><path d="M4.55 10.76c.68.23 1.15.24 1.23.24h6.7c.58 0 1.17-.47 1.52-1.08.29-.49.79-.64 1-.66-.2-.2-1.23-.2-1.65.2a.82.82 0 0 1-.87.2c.5-.36.66-1.2.7-1.68.04-.39.53-.67.76-.76-.79-.13-1.23.4-1.65.92-.33.42-.7.47-.83.45.25-.36.33-1.07.24-1.51-.08-.36.23-1.06.4-1.36-.9.3-1.05.94-1.22 1.5-.14.45-.58.7-.78.76.27-.6-.07-1.32-.26-1.64-.16-.25-.07-1 0-1.34-.54.48-.62.97-.55 1.66.05.54-.28 1.02-.45 1.2.16-.72-.4-1.17-.78-1.52-.3-.27-.43-.91-.45-1.2-.46.88-.16 1.5 0 2.08.13.47-.05.7-.16.76-.29-.64-.53-.74-1.16-.99-.5-.2-.68-.71-.7-.95-.07.18-.13.69.12 1.31.25.63.68 1.21.87 1.43a8.58 8.58 0 0 0-1.64-.55 1.5 1.5 0 0 1-.98-.71c.03.26.18.89.5 1.26s.88.83 1.12 1a3.21 3.21 0 0 0-1.62.14c-.34.12-.78 0-.96-.06.3.22 1 .72 1.55.9Z" fill="url(#a)"/><path d="M12.4 11H5.83c.2-.88 1.11-2.64 3.16-2.64s3.14 1.76 3.43 2.64Z" fill="url(#b)"/><defs><linearGradient id="a" x1="15" y1="8.33" x2="3" y2="7.73" gradientUnits="userSpaceOnUse"><stop stop-color="#E93D19"/><stop offset="1" stop-color="#FDC200"/></linearGradient><linearGradient id="b" x1="9.84" y1="8.88" x2="8.54" y2="11.72" gradientUnits="userSpaceOnUse"><stop stop-color="#FFD011"/><stop offset="1" stop-color="#EE5909"/></linearGradient></defs></svg>