<!-- by TradingView --><svg width="56" height="56" xmlns="http://www.w3.org/2000/svg"><path fill="#005A27" d="M0 0h56v56H0z"/><path d="M21.208 20.48c.205.411.441.678.728.802.031-.06.062-.144.052-.205-.01-.216-.052-.432-.072-.637a.393.393 0 00-.123-.184c-.328-.256-.164-.698.144-.842a.996.996 0 01.308-.082.401.401 0 01.493.257c.02.06.051.123.082.205.071-.06.133-.113.184-.144a.392.392 0 01.37-.06c.298.093.493.288.554.596.072.298-.123.554-.43.575-.031.007-.072.007-.114.007-.02.03-.062.052-.062.093-.154.359-.297.708-.441 1.078-.134.359-.041.534.328.646.709.205 1.16.791 1.17 1.52.011.226-.05.441-.123.657-.225.75-.585 1.438-.934 2.146-.38.74-.76 1.468-1.119 2.197a8.731 8.731 0 00-.616 1.602c-.154.595-.256 1.211-.174 1.838.01.113.01.215.02.328.031.462.206.904.452 1.294.38.565.77 1.12 1.201 1.663A30.84 30.84 0 0025 37.935v-6.19c0-1.109.704-1.982 1.453-2.773.093-.103.185-.215.288-.318a2.587 2.587 0 011.91-.79h6.261c.698 0 1.314.276 1.869.697.236.185.38.41.492.698.144.401.257.822.247 1.253-.03.72-.277 1.355-.79 1.879-.134.144-.288.257-.432.38-.082.092-.185.154-.267.247-.113.113-.102.236.03.359.042.03.093.052.134.082.955.698 1.396 1.632 1.263 2.813a2.7 2.7 0 01-.513 1.242c-.575.791-1.386 1.212-2.33 1.397-.34.06-.689.082-1.027.082-4.466 0-8.942 0-13.408.007-.4 0-.77-.092-1.129-.236-1.478-.616-2.474-1.674-2.885-3.234-.4-1.54-.071-2.947.914-4.2.39-.492.79-.965 1.18-1.447.883-1.078 1.756-2.156 2.639-3.235.062-.081.123-.154.185-.236.04-.074.102-.164.133-.246.113-.298-.01-.596-.318-.698-.205-.082-.431-.123-.647-.196-.944-.225-1.889-.462-2.833-.698-.052-.022-.103-.03-.154-.06-.062-.022-.082-.143-.01-.184a.49.49 0 01.143-.075 74.852 74.852 0 013.932-1.417c.103-.037.216-.06.329-.102.061-.023.133-.03.174-.075.154-.082.195-.236.093-.38a2.286 2.286 0 00-.206-.236c-.308-.36-.636-.709-.954-1.058-.082-.102-.175-.174-.319-.174-.225 0-.37-.123-.441-.318-.072-.216-.052-.41.133-.586.185-.164.37-.298.627-.287.287.022.462.174.482.462.01.123-.03.246-.04.39v.007zm7.062 16.545c.103-.037.185-.075.246-.113a1.46 1.46 0 01.575-.226c.226-.03.462-.06.688-.06h4.024c.093 0 .206 0 .278-.007.236-.06.482-.185.492-.524.01-.318 0-.647 0-.965-.01-.175-.102-.298-.256-.39-.113-.075-.236-.083-.36-.083-1.642 0-3.285.008-4.917.008-.421-.007-.811.277-.79.77.02.451 0 .924 0 1.386 0 .052.02.123.02.205v-.001zm.021-4.209c.134.008.205-.082.288-.143.41-.36.893-.494 1.427-.462h2.535c.493.007.965.022 1.468.007.113-.007.246-.022.36-.052.184-.075.307-.215.307-.421v-.873c-.01-.184-.102-.256-.287-.266-.144-.008-.287 0-.42 0h-4.733c-.175 0-.36.022-.534.06-.298.059-.431.235-.442.533-.01.493-.01.976-.01 1.448 0 .06.02.103.04.164l.001.005zm-6.16-8.794c.021-.215-.164-.431-.38-.431a.412.412 0 00-.4.42c0 .216.175.391.37.391.215.008.41-.164.41-.38zm.678-3.912c-.236.134-.318.33-.339.555-.01.092-.03.174-.03.257 0 .092 0 .174.02.256.01.045.072.06.103.103.03-.045.052-.06.052-.075.092-.287.174-.575.266-.862.021-.075.021-.164-.071-.236" fill="#fff"/><path d="M25.002 29v-9.105c0-.598.116-1.166.38-1.692.632-1.239 1.643-1.972 3.044-2.158.338-.052.696-.045 1.022-.045 1.254 0 2.508 0 3.761.045.864.008 1.717.06 2.57.053.17 0 .359.03.527.06a.756.756 0 01.39.155c.664.495 1.096 1.125 1.265 1.91.095.485.01.97-.169 1.434a2.917 2.917 0 01-1.022 1.363 3.986 3.986 0 00-.232.175c-.105.103-.126.227-.042.35a.506.506 0 00.095.125c.243.31.485.62.727.918.053.075.106.155.137.227.18.486.316.96.285 1.476C37.653 25.567 36.567 27 35.192 27c-2.117.075-4.235 0-6.363 0-.464 0-.948-.03-1.422.03-1.096.134-1.835.69-2.257 1.68-.031.104-.073.197-.105.29h-.043zm3.014-4.087c.042.022.053.022.053.022.063-.03.116-.037.158-.075.274-.186.58-.258.895-.29.158-.022.306-.021.464-.021h4.119c.116 0 .242-.008.358-.038.284-.075.41-.216.421-.516.011-.31.011-.62 0-.94-.01-.278-.21-.474-.505-.505h-4.341c-.295 0-.58 0-.864.007-.495.023-.758.3-.78.775v1.393c0 .06.011.124.022.186v.002zm.01-4.152c.085-.044.117-.052.159-.074.147-.093.295-.186.432-.3.158-.114.347-.186.548-.217.242-.03.495-.06.748-.06.747 0 1.496.008 2.244.023.569 0 1.116.008 1.675.008a.952.952 0 00.39-.06.46.46 0 00.368-.475v-.764c0-.259-.084-.33-.337-.341-.18 0-.348.008-.527.008-1.57 0-3.14-.008-4.72 0-.157 0-.326 0-.484.03-.39.074-.537.309-.527.598.022.464 0 .919 0 1.383 0 .06.022.134.031.237" fill="#fff"/><path fill-rule="evenodd" d="M28 45c9.389 0 17-7.611 17-17s-7.611-17-17-17-17 7.611-17 17 7.611 17 17 17zm0 1c9.941 0 18-8.059 18-18s-8.059-18-18-18-18 8.059-18 18 8.059 18 18 18z" fill="#fff"/></svg>