<!-- by TradingView --><svg xmlns="http://www.w3.org/2000/svg" width="18" height="18" viewBox="0 0 18 18"><path fill="url(#a5scqkzbj)" d="M0 0h18v18H0z"/><path fill-rule="evenodd" d="M8.41 4.4c-2.5 0-4.5 1.88-4.5 4.5 0 2.63 2.37 4.7 5.03 4.7 2.06 0 3.34-.92 4.11-1.91.4-.5.66-1.03.82-1.46.11-.3.17-.66.2-.83h-.83a5.5 5.5 0 0 1-1.2 2.18c-.25.27-.62.35-.94.35-.42 0-.84-.22-1.18-.52L7.16 9h1.89c.87 0 1.53-.52 1.53-1.43 0-.84-.71-1.57-1.53-1.57H7v5.8h-.4V5.6h2.46A2 2 0 0 1 11 7.57c0 1.13-.86 1.83-1.94 1.83h-.87l2 1.72c.3.26.63.41.9.41.28 0 .51-.06.66-.22.33-.34.8-1.05 1.07-1.91h-1.15V9h1.22c.24-2.73-2.02-4.6-4.48-4.6ZM13.3 9c.24-2.97-2.23-5-4.89-5A4.82 4.82 0 0 0 3.5 8.9c0 2.88 2.58 5.1 5.44 5.1 2.2 0 3.6-1 4.43-2.07.42-.54.7-1.1.88-1.57.17-.46.25-.96.25-1.16V9h-1.2Z" fill="#fff"/><defs><linearGradient id="a5scqkzbj" x1="3.35" y1="3.12" x2="21.9" y2="24.43" gradientUnits="userSpaceOnUse"><stop stop-color="#1A1E21"/><stop offset="1" stop-color="#06060A"/></linearGradient></defs></svg>