<!-- by TradingView --><svg width="18" height="18" viewBox="0 0 18 18" xmlns="http://www.w3.org/2000/svg"><path fill="#F0F3FA" d="M0 0h18v18H0z"/><path d="M12.92 5.98a6.28 6.28 0 0 1-.51 5.75 4.33 4.33 0 0 1-2.98 1.96c-.41.08-.93.12-1.54.12-.08.02-.16 0-.26-.06a.02.02 0 0 1 0-.02c2.21-.28 4.22-1.68 4.7-3.99a5.38 5.38 0 0 0-.2-2.97A3.39 3.39 0 0 0 9.1 4.45c-1.44-.05-2.58.87-3.29 2.08.17-.45.37-.84.6-1.16.2-.26.35-.48.46-.65a4.3 4.3 0 0 1 4.43-.2c.66.34 1.2.83 1.62 1.46Z" fill="#1D3887"/><path d="M6.87 4.72c-.1.17-.26.39-.46.65-.23.32-.43.7-.6 1.16-.53 1.37-.1 2.8.72 3.92a.02.02 0 0 1-.01.02H6.5A3.11 3.11 0 0 1 5.44 6.1c.35-.58.83-1.04 1.43-1.37Z" fill="#73C4EF"/><path d="M7.9 13.8a8.9 8.9 0 0 0 1.53-.1 4.33 4.33 0 0 0 2.98-1.97 6.28 6.28 0 0 0 .52-5.75 4.93 4.93 0 0 1-2.84 7.93 4 4 0 0 1-1.27.07c-.3-.02-.62-.08-.93-.17Z" fill="#007FC7"/><path d="M10.62 8.64a3.22 3.22 0 0 0 .55-1.47.02.02 0 0 1 .02 0 2.2 2.2 0 0 1 .6 1.74V8.9a2.63 2.63 0 0 0-.43-1.12.07.07 0 0 0-.06 0 .07.07 0 0 0-.03.02l-.63.87h-.02v-.02Z" fill="#681462"/><path d="M10.5 11.02A3.92 3.92 0 0 1 6.7 12a3.34 3.34 0 0 1-2.23-1.82 6.62 6.62 0 0 1-.22-.53 8.42 8.42 0 0 0-.22-.53 1.85 1.85 0 0 1-.01-.68c.46 2.27 2.45 3.99 4.84 3.17 1.14-.4 1.98-1.53 2.3-2.68a.02.02 0 0 1 .02-.02l.01.02c-.06.81-.3 1.5-.7 2.09Z" fill="#F1A100"/><path d="M10.5 11.02a3.45 3.45 0 0 1-2.68 1.71 3.2 3.2 0 0 1-3.32-1.79 4.6 4.6 0 0 1-.46-1.82l.22.53c.1.27.18.44.22.53A3.34 3.34 0 0 0 6.7 12c1.38.36 2.64.03 3.78-.98Z" fill="#AF2928"/></svg>