<!-- by TradingView --><svg width="18" height="18" viewBox="0 0 18 18" xmlns="http://www.w3.org/2000/svg"><path fill="#016E37" d="M0 0h18v18H0z"/><path d="M12.39 5.73c-.33.07-.57.24-.71.49a.32.32 0 0 0-.16.2.14.14 0 0 0-.08.03.32.32 0 0 0-.19.02.08.08 0 0 1-.08-.01.13.13 0 0 1-.06-.09l.01-.2c0-.02.01-.03.03-.04.1-.06.18-.04.27.08h.04l.02-.03v-.02c-.11-.1-.22-.13-.33-.1-.05 0-.07.04-.08.1 0 .13 0 .24.03.33l-.35.65a1.1 1.1 0 0 1-.44-.07c-.03-.01-.04 0-.05.03l-.2 1.97-.28.07.1-2.1c.01-.05 0-.08-.05-.08l-.28-.02c-.04 0-.06.02-.06.07l-.04 2.08-.02.01h-.01l-.01-.02-.15-2.05a.17.17 0 0 0-.04-.1.11.11 0 0 0-.08-.04h-.2a.1.1 0 0 0-.08.03.15.15 0 0 0-.03.1L8.7 9c0 .02 0 .03-.02.03h-.02l-.01-.01-.05-1.96c0-.06-.03-.1-.07-.13a.32.32 0 0 0-.24-.02c-.1-.04-.21-.05-.36-.04-.3 0-.56.07-.8.18l-.48.14c-.25.07-.5.2-.75.41-.23.19-.44.4-.62.65a1.6 1.6 0 0 0-.08.17c-.02.03-.04.04-.07.04h-.03c-.02 0-.04 0-.05-.03a.08.08 0 0 1 0-.07c.1-.3.26-.53.47-.7.4-.31.8-.56 1.25-.73l1.08-.3a5.97 5.97 0 0 0 1.35-.21c.07-.02.16-.13.27-.35l.06-.11c.02.03.05.04.07.05.03 0 .03-.02.03-.04l-.05-.22c0-.01 0-.02-.02-.03l-.16-.15a.44.44 0 0 1 .1-.23.05.05 0 0 0 0-.05c0-.02 0-.03-.03-.03a6.04 6.04 0 0 0-2.5.16l-.81.26a.15.15 0 0 0-.08.05l-.49.68h-.08L5.5 6.4l-.02.02a.28.28 0 0 1-.06.1c-.04-.01-.06-.02-.08 0v.03l.08.12-.09.05c-.03-.07-.07-.1-.11-.1-.02.01-.02.03-.01.04l.07.14-.08.09c-.02-.03-.05-.04-.1-.02a.34.34 0 0 0-.2.15c-.04.08-.04.18 0 .28l-.06.06c-.04-.04-.1-.06-.14-.06-.01 0-.02.01-.02.03l.01.02c.18.1.25.2.21.3a.1.1 0 0 1-.05.05h-.08a2.62 2.62 0 0 0-.24-.16c-.02-.01-.03 0-.04.01l.01.05.23.18v.15h-.05l-.04-.01c-.08-.1-.18-.15-.3-.13-.19.04-.27.17-.26.4 0 .02 0 .03.02.05.04.1.13.17.25.19-.3.39-.6.79-.86 1.2-.03.04-.1.12-.23.24a2.42 2.42 0 0 1 .08-2.33c.32-.56.78-1.03 1.4-1.43.5-.34 1.09-.6 1.74-.78a9.39 9.39 0 0 1 3.03-.32 8 8 0 0 1 2.88.72Z" fill="#FEF7E1"/><path d="m9.4 5.57-.1.12-.12-.04c.04.01.05 0 .04-.05 0-.02-.01-.03-.03-.03l-.05-.01c0-.02 0-.03-.03-.03a.66.66 0 0 0-.2 0c-.04 0-.05.03-.05.07a.4.4 0 0 1-.07.23c-.1-.17-.23-.21-.37-.13-.01.02-.03.01-.04-.01v-.1h-.05c-.03 0-.04.03-.04.06l.02.08c.02.05.02.1.02.13-.02.1 0 .2.04.28a.39.39 0 0 1-.15.01.8.8 0 0 0 0-.32c0-.06-.03-.1-.07-.1-.08-.03-.17-.02-.29.04-.04.02-.06.05-.07.11a.92.92 0 0 1-.06.31v.02h.01l.06-.04c.02-.02.04-.02.06 0 .08.06.17.07.28.03l-.28.44-1.08.29a.57.57 0 0 1-.01-.26c.01-.07.05-.16.11-.27l.06.03.02-.02v-.03l-.1-.15a24.94 24.94 0 0 1 .03-.16c.02-.08.01-.12-.03-.14a.26.26 0 0 0-.1-.08l.22-.43c.45-.1.76-.15.95-.17a6.04 6.04 0 0 1 1.56 0l.03.04-.01.05a.44.44 0 0 0-.1.23Z" fill="#FED33F"/><path d="m6.98 5.42-.21.43c-.1 0-.18.01-.27.06-.03.02-.04.04-.02.08l.14.47c0 .02.02.04.04.04h.03c.02 0 .02-.01.02-.03L6.57 6l.01-.05a.2.2 0 0 1 .25.02l-.1.23.01.05.14.15c-.06.11-.1.2-.11.27a.57.57 0 0 0 0 .26c-.43.17-.85.42-1.24.74-.2.16-.37.4-.47.7v.06c.01.02.03.03.05.03h.03c.03 0 .05-.01.07-.04l.08-.17c.18-.25.39-.46.62-.65.25-.2.5-.34.74-.4-.03.07-.04.14-.03.18-.22.05-.4.15-.57.32a.65.65 0 0 0-.35.27c-.45.68-.8 1.2-1.07 1.55l-.2.1H4.4l-.09-.1h-.04c-.02.03-.02.04 0 .07.03.06.04.1.04.14l-.02.03a.31.31 0 0 0-.15.15c-.12.19-.27.35-.45.48-.02.01-.04.02-.09.01a2.59 2.59 0 0 1-.34-.53c.12-.12.2-.2.23-.25.26-.4.55-.8.86-1.2.15.02.26-.05.33-.2l.01-.04c0-.08.03-.15.06-.2.02-.02.01-.04-.01-.05h-.01v-.15c.12.03.21-.04.27-.19.02-.03.01-.06-.02-.09l-.14-.14.07-.06c.14.13.27.12.42-.04a.14.14 0 0 0 .03-.09c0-.04 0-.07-.03-.1L5.2 6.9l.08-.09.15.25c.02.03.03.04.06.04h.01c.01 0 .02 0 .02-.02v-.02l-.19-.33.08-.05.13.24c.02.03.03.04.05.04h.02l.02-.02v-.02l-.22-.38a.28.28 0 0 0 .07-.11l.02-.02h.02l-.01.04v.03a21 21 0 0 1 .23.4h.05c.01 0 .02 0 .01-.02l-.2-.44.5-.68a.15.15 0 0 1 .07-.05l.8-.26ZM9.14 5.56l-.03.54c0 .03 0 .04.03.05.02 0 .04 0 .05-.03a.8.8 0 0 0 0-.47l.11.04c.04.13.05.26.02.4 0 .03 0 .04.02.04h.01c.04 0 .05-.01.06-.05l.02-.31c0-.02 0-.03.02-.04h.03c.05.05.07.12.06.23l-.06.11c-.1.22-.2.33-.27.35l-.24.05c-.49.1-.85.16-1.1.17l.27-.44.08-.05.15-.01c.1.03.18.04.27 0 .13-.05.18-.15.15-.3a.4.4 0 0 0 .07-.24c0-.04.01-.06.05-.07a.66.66 0 0 1 .2 0c.02 0 .03.01.03.03Z" fill="#FFE7A5"/><path d="M9.18 5.65a.8.8 0 0 1 0 .47c0 .03-.02.04-.04.03-.03 0-.04-.02-.03-.05l.03-.54h.05l.03.04c.01.04 0 .06-.04.05ZM8.9 6.1c-.01 0-.02 0-.02-.02l.03-.25c.01-.17.04-.25.06-.25h.04c.03 0 .04.1.02.26L9 6.1c0 .01 0 .02-.02.02l-.08-.01ZM9.4 5.57l.18.15.01.03.05.22c0 .02 0 .04-.03.04-.02 0-.05-.02-.07-.05 0-.1-.01-.18-.06-.23h-.03c-.02 0-.02.02-.02.04l-.02.3c0 .05-.02.07-.06.06h-.01c-.02 0-.03-.01-.02-.03a.79.79 0 0 0-.02-.41l.1-.12ZM8.8 5.83c.02.16-.03.26-.16.31a.37.37 0 0 1-.27 0 .48.48 0 0 1-.04-.28c0-.03 0-.08-.02-.13a.4.4 0 0 1-.02-.08c0-.03.01-.05.04-.06h.04l.01.03v.07c.01.02.02.03.04.01.14-.08.27-.04.37.13ZM7.48 5.94a.35.35 0 0 1-.02-.23c0-.03.02-.04.04-.04s.04.01.04.04a.4.4 0 0 1-.02.23l-.02.01h-.02Z" fill="#7F5A1A"/><path d="m10.64 5.7.01.02-.01.02h-.2c-.01 0-.03.01-.03.04v.13c0 .02.01.04.03.04.05.02.1.02.14.02.01 0 .02 0 .02.02V6c0 .02 0 .03-.02.03a.4.4 0 0 1-.17-.02h-.03a.05.05 0 0 0-.01.04v.11c0 .02 0 .04.02.05l.13.09v.02a.32.32 0 0 1-.21-.08c-.02-.01-.02-.03-.02-.05l.07-.45c.01-.06.04-.08.08-.08.07 0 .14.02.2.04ZM9.87 5.72c-.02-.01-.04 0-.05.02l-.25.5c-.01.02 0 .05.01.06.03.02.05.01.06-.01l.25-.5c0-.02 0-.05-.02-.07Z" fill="#5D4612"/><path d="m12.39 5.73.5.26c-.25.12-.44.27-.58.45l-.2.37c-.05-.01-.07-.05-.07-.1l.16-.33-.01-.05-.04.01-.19.42c-.05.01-.1 0-.15-.04a.75.75 0 0 1-.24-.15c-.02-.02-.02-.04 0-.07v-.03l.05-.04c.02 0 .04 0 .06.02l.1.1a.1.1 0 0 0 .1.03.13.13 0 0 0 .08-.09.2.2 0 0 0 0-.12.09.09 0 0 0-.03-.04.47.47 0 0 0-.25-.11c.14-.25.38-.42.7-.5Z" fill="#FFE7A5"/><path d="M7.7 5.77c.03.18 0 .33-.1.46h-.03l-.01-.03.07-.43c0-.02.02-.04.04-.04s.03.02.03.04Z" fill="#5D4612"/><path d="M8.6 6.1c.09-.03.14-.13.11-.23-.02-.1-.1-.15-.2-.12-.08.03-.13.13-.1.23.02.1.1.15.2.12Z" fill="#FFE7A5"/><path d="M8.01 6.16c.09 0 .15-.08.15-.19 0-.1-.06-.19-.15-.19-.08 0-.15.09-.15.2 0 .1.07.18.15.18Z" fill="#FED33F"/><path d="m6.77 5.85.1.08-.01.03-.03.01a.2.2 0 0 0-.24-.02c-.02.01-.03.03-.02.05l.14.47c0 .02 0 .03-.02.03h-.03c-.02 0-.04-.02-.04-.04l-.14-.47c-.01-.04 0-.06.02-.08a.45.45 0 0 1 .27-.06Z" fill="#7F5A1A"/><path d="M7.44 6.24a.28.28 0 0 1-.1.07c-.16.07-.27.05-.34-.08-.06-.12-.05-.22.02-.3.07-.06.15-.08.26-.06.07.01.1.04.11.08 0 .02.02.03.03.03h.08s.02 0 .02.02l-.01.03c-.03.03-.06.03-.1.02v-.01c-.12-.12-.23-.13-.33-.05-.04.02-.05.05-.04.1.02.13.07.2.14.2.05 0 .12-.04.21-.1h.02c.01-.02.02-.01.03 0v.05ZM6.88 6.4l-.13-.15c-.02-.02-.02-.03-.01-.05l.09-.23.02-.01.01-.03c.04.02.05.06.03.13a24.94 24.94 0 0 0-.04.17l.1.15v.03l-.01.02-.06-.03Z" fill="#5D4612"/><path d="m14.23 7.13-.53 1.1c-.05-.12-.12-.19-.21-.22-.1-.03-.18 0-.24.12-.05.08-.03.19.05.3l-.43.7c.06-.43-.02-.81-.26-1.15h-.05l-.01.02v.02c.19.25.27.53.25.83-.01.3-.13.55-.33.78A3.68 3.68 0 0 1 10 10.8c0-.05 0-.1-.02-.15l.32-.07c.03-.01.05-.04.06-.08l.02-.48c0-.02.01-.04.03-.04l.24-.08c.04-.01.06 0 .07.04l.09.41c0 .05.03.07.07.06a.7.7 0 0 0 .25-.12c.04-.03.05-.06.04-.1L11.02 9a.79.79 0 0 0 .2-.2.13.13 0 0 0 .02-.05l.02-.09.03 1.45v.04c.03.04.07.04.1.03l.77-.36c.05-.02.06-.07.04-.16a.63.63 0 0 0 0-.29.1.1 0 0 0-.05-.06.07.07 0 0 0-.06-.02l-.39.13h-.03a.05.05 0 0 1-.02-.05V7.63a.1.1 0 0 0-.02-.07.26.26 0 0 0-.13-.08l.15-.77c.05.03.1.03.16 0 .05.05.1.06.15.05l.08-.05c0 .05.02.09.07.1-.03 0-.04 0-.04.02s0 .03.02.03l.03-.03c.1-.11.16-.24.2-.39.13-.18.32-.33.58-.45.51.29.95.66 1.33 1.14Z" fill="#FED33F"/><path d="M11.44 6.45a.3.3 0 0 1-.34.04c-.02-.1-.03-.2-.02-.33 0-.06.02-.1.07-.1.11-.03.22 0 .32.1v.04l-.04.01c-.1-.12-.19-.14-.28-.08a.06.06 0 0 0-.03.05.74.74 0 0 0 0 .2c0 .03.02.06.05.08.03.02.05.02.08 0a.32.32 0 0 1 .19-.01ZM11.68 6.22c.1 0 .18.05.25.1l.03.05a.2.2 0 0 1 0 .12.13.13 0 0 1-.08.09.1.1 0 0 1-.1-.02 1.41 1.41 0 0 1-.1-.1l-.06-.03c-.02 0-.03.02-.04.04l-.02.03.01.07c.06.05.14.1.24.15a.16.16 0 0 1-.16 0c-.12-.07-.16-.17-.13-.3a.32.32 0 0 1 .16-.2Z" fill="#11140A"/><path d="M10.9 6.4c-.02-.02-.03-.05-.03-.1 0-.02 0-.03.02-.04l.03.01.04.06-.01.05c-.02.02-.03.02-.05.01Z" fill="#5D4612"/><path d="M5.99 6.64H6v-.01L6 6.31c0-.02 0-.03.02-.03h.05c.02 0 .03.01.03.04l.02.59c0 .02-.01.03-.03.03h-.01c-.03 0-.04 0-.03-.04a.2.2 0 0 0 0-.09l-.02-.02-.3-.3v-.05l.02-.02h.03l.22.22Z" fill="#7F5A1A"/><path d="M11.8 6.3c-.07-.04-.14-.03-.16.02-.02.04.03.11.1.16.07.04.14.03.16-.01.02-.05-.02-.12-.1-.16Z" fill="#FFE7A5"/><path d="m12.04 6.72-.08.04.2-.42c0-.01.01-.02.03 0 .01 0 .02.02 0 .04l-.15.34Z" fill="#11140A"/><path d="M11.52 6.42c-.04.13.01.23.13.3l-.15.76-.2-.07c-.02-.01-.02 0-.02.02l-.02 1.23-.02.09-.02.05a.79.79 0 0 1-.2.2c-.04-.65-.13-1.27-.27-1.86l.35-.65a.3.3 0 0 0 .34-.04.14.14 0 0 1 .08-.03Z" fill="#FFE7A5"/><path d="m5.42 6.53.2.38v.02l-.01.02h-.02c-.02 0-.03-.01-.04-.04l-.13-.24-.08-.12v-.03c.02-.02.04-.01.08 0ZM6.26 6.57h-.03c-.02 0-.03.02-.03.04v.1c0 .01.02.03.04.03h.03l.02-.04v-.1c0-.02-.01-.03-.03-.03ZM5.33 6.72l.2.33v.02l-.02.02h-.02c-.03 0-.04-.01-.06-.04l-.15-.25-.07-.14c-.01-.01 0-.03.01-.03.04-.01.08.02.11.1Z" fill="#7F5A1A"/><path d="M12.53 7.15v.02a.4.4 0 0 1-.18-.06c-.07-.05-.1-.11-.1-.18 0-.13.05-.22.16-.26l.05-.01c.14.01.22.1.24.27 0 .04-.01.06-.03.08-.03.02-.05.02-.08 0l-.24-.16v-.01l.05.01.04.01.16.11c.02.02.04 0 .04-.02.02-.1-.01-.18-.09-.22-.08-.03-.14-.01-.2.06-.02 0-.02.02-.03.03-.04.08-.04.14 0 .19.02.03.06.06.13.1l.08.04Z" fill="#11140A"/><path d="m5.2 6.89.14.18c.02.03.02.06.02.1 0 .04-.01.07-.03.1-.14.15-.28.16-.42.03-.05-.1-.05-.2 0-.28.04-.07.1-.12.2-.15.04-.02.07-.01.1.02Z" fill="#7F5A1A"/><path d="M8.3 6.9c-.1.13-.12.37-.06.74l-.14-.02a1.7 1.7 0 0 0-.07-.32.5.5 0 0 0-.17-.24c-.15-.1-.34-.07-.58.1a.43.43 0 0 0-.15-.11c.25-.11.52-.17.81-.18.15 0 .27 0 .36.04Z" fill="#FFE7A5"/><path d="M9.78 9.14a328 328 0 0 0-.06 1.43c0 .1-.05.16-.14.17H9.5a.83.83 0 0 1-.24.02c-.08-.02-.12-.06-.12-.14a171.72 171.72 0 0 0-.08-1.8l-.02-.01-.01.01-.11 1.86c0 .03-.01.05-.03.07a.07.07 0 0 1-.06.03l-.32-.03c-.07-.02-.12-.07-.12-.15a241.45 241.45 0 0 1-.16-2.96c-.06-.37-.04-.62.06-.73.1-.02.18-.02.24.02.05.03.07.07.07.13l.05 1.96.01.01h.02c.01 0 .02-.01.02-.03l.12-1.99c0-.03.01-.07.03-.09a.1.1 0 0 1 .08-.04l.2.01c.03 0 .06.02.08.04.03.03.04.06.04.1l.15 2.05.01.02h.02V9.1L9.5 7c0-.05.02-.08.06-.07l.28.02c.04 0 .06.03.06.09l-.11 2.1Z" fill="#D6241F"/><path d="M5.14 6.97c-.08-.03-.17.03-.19.13-.02.1.03.2.12.23.09.02.17-.04.2-.13.01-.1-.04-.2-.13-.23Z" fill="#FEEAC5"/><path d="M12.85 7.52h-.02V7.5a.9.9 0 0 1 .16-.17.1.1 0 0 0 .04-.07c0-.03 0-.06-.02-.09l-.05-.07a.08.08 0 0 0-.05-.04c-.03 0-.05 0-.07.02l-.18.2c0 .01 0 .01 0 0l-.04-.02v-.03c.08-.04.14-.1.19-.2.02-.04.04-.06.08-.06.03 0 .06.02.08.05l.1.16c.02.03.02.06.02.09s-.02.05-.04.07l-.2.2Z" fill="#3B2B09"/><path d="M8.1 7.62v.4c0 .06-.02.1-.07.1H7.8c-.04 0-.06-.01-.06-.06v-.15c0-.03-.01-.05-.04-.06-.1-.04-.18 0-.22.1a.7.7 0 0 0-.01.33c0 .05.02.08.06.09.01 0 .04 0 .07.02.16.04.27.1.32.15.1.1.17.25.19.43.04.38.04.76 0 1.14-.01.16-.05.32-.12.46-.02.06-.06.1-.12.1a.77.77 0 0 1-.5-.17c-.24-.18-.34-.53-.29-1.04 0-.04.03-.06.06-.06.22 0 .32.08.3.27 0 .05 0 .09.04.13.02.03.05.05.1.05h.05c.03 0 .07-.02.1-.06a.19.19 0 0 0 .03-.12V9.3c0-.03-.02-.04-.04-.05a1.68 1.68 0 0 1-.35-.15.46.46 0 0 1-.2-.22c-.1-.23-.13-.55-.1-.96.01-.3.08-.56.2-.77.25-.17.44-.2.58-.1a.5.5 0 0 1 .18.24c.03.07.05.18.07.32Z" fill="#D6241F"/><path d="m7.13 7.05.15.1c-.13.22-.2.48-.2.78-.04-.04-.09-.03-.14.03-.02-.35-.13-.55-.32-.58-.01-.04 0-.1.03-.19l.48-.14Z" fill="#FED33F"/><path d="M10.75 7.14c.14.6.23 1.21.27 1.86l.14 1.18c0 .05 0 .08-.04.1a.7.7 0 0 1-.25.13c-.04 0-.06-.01-.07-.06l-.1-.4c0-.05-.02-.06-.06-.05l-.24.08c-.02 0-.03.02-.03.04l-.03.48c0 .04-.02.07-.05.08l-.32.07c-.04-.03-.06-.09-.05-.18l.14-1.4.2-1.97c0-.03.02-.04.04-.03.13.05.28.07.45.07Z" fill="#D6241F"/><path d="m14.23 7.13.33.52.12.33c-.18.2-.34.42-.48.66l-.32.53c-.13.21-.24.43-.35.65-.03-.01-.06-.04-.08-.1v-.05l.04-.1v-.04c-.02-.02-.03-.02-.04 0l-.12.11c-.02.02-.04.02-.06 0a.3.3 0 0 0-.13-.11h-.03v.04l.07.11v.04l-.15.14v.04c.16.02.24.07.22.14-.39.45-.64 1-.75 1.66l-1.27.52-.85.16.3-.58c.3-.03.4-.15.3-.37.27-.27.47-.58.59-.95.19-.1.36-.2.51-.3.35-.25.61-.6.8-1.04l.42-.7h.04c.01 0 .02 0 .02-.02V8.4a.26.26 0 0 1-.09-.1c-.03-.06-.02-.12.03-.16l.02-.02c.02-.01.03-.02.05 0 .02 0 .04.02.04.05.01.07.03.13.06.2v.06c0 .02 0 .03.03.02.1-.01.17-.08.2-.2l.53-1.11Z" fill="#FFE7A5"/><path d="m4.85 7.36.14.14c.02.03.03.06.01.1-.06.14-.15.2-.27.18L4.5 7.6c-.01-.01-.02-.03 0-.05 0-.02.01-.02.03-.01l.24.15c.03.02.05.02.08.01a.1.1 0 0 0 .06-.06c.04-.09-.04-.18-.22-.29V7.3c.06 0 .11.02.16.06Z" fill="#7F5A1A"/><path d="M6.62 7.38c.19.03.3.23.33.58.02.57.02 1.15 0 1.74 0 .12-.03.22-.06.3-.05.15-.14.23-.26.24h-.05c-.15-.05-.3-.12-.43-.22a1 1 0 0 1-.28-.52 4.41 4.41 0 0 1-.03-1.25c.02-.18.1-.36.21-.55.17-.17.36-.27.57-.32ZM11.5 7.48c.05.02.1.04.13.08a.1.1 0 0 1 .02.07v1.74c0 .02 0 .03.02.04 0 .01.02.02.03.01l.39-.13c.02 0 .04 0 .06.02a.1.1 0 0 1 .04.06c.03.12.03.22 0 .3-.28.19-.59.34-.9.44l-.03-1.45.01-1.23c0-.02.01-.03.03-.02l.2.07Z" fill="#D6241F"/><path d="M13.17 7.91A.26.26 0 0 1 13 7.8c-.03-.06-.03-.13 0-.22s.1-.14.18-.14a.21.21 0 0 1 .21.1l.05.17v.04h-.03c-.01.01-.02 0-.02-.01 0-.15-.05-.24-.15-.26-.04 0-.09 0-.12.03a.26.26 0 0 0-.1.13.15.15 0 0 0 0 .12c.02.04.05.06.09.08l.08.04v.02c0 .01-.01.02-.02.01Z" fill="#11140A"/><path d="m8.23 7.64.03.3.14 2.66c0 .08.04.13.12.15v.14a5.28 5.28 0 0 1-2.47-.67l.1-.2c.13.1.28.17.43.22h.04c.13 0 .22-.09.27-.23.03-.1.05-.2.05-.31.03-.59.03-1.17 0-1.74.06-.06.1-.07.14-.03-.04.41 0 .73.09.96.03.09.1.16.2.22a1.68 1.68 0 0 0 .35.15c.02 0 .03.02.03.05l.01.36c0 .05-.01.09-.04.12a.13.13 0 0 1-.1.06h-.05c-.04 0-.07-.02-.1-.05a.17.17 0 0 1-.03-.13c.02-.19-.08-.28-.3-.27-.03 0-.05.02-.06.06-.05.51.05.86.29 1.04.16.12.33.17.5.17.06 0 .1-.04.12-.1.07-.14.1-.3.12-.46.04-.38.04-.76 0-1.14a.72.72 0 0 0-.19-.43c-.05-.06-.16-.1-.32-.15a3.5 3.5 0 0 1-.07-.02c-.04-.01-.06-.04-.06-.09a.7.7 0 0 1 .01-.32c.04-.11.11-.15.22-.11.03 0 .04.03.04.06v.15c0 .05.02.07.06.07l.23-.01c.05 0 .08-.04.08-.1v-.4l.12.02Z" fill="#FEEAC5"/><path d="M3.62 10.43c.44.55 1.02.98 1.72 1.3l.97.4H6.43c0 .04.02.06.04.07.34.16.69.23 1.04.22.06 0 .08-.02.1-.05l.08.04c.44.08.9.1 1.36.07l1.35-.1c.29.04.57-.02.83-.16l1.27-.52c.54-.24 1-.56 1.38-.96.45-.46.74-.99.87-1.57a2.4 2.4 0 0 0-.07-1.2l-.13-.32c.09.02.16.1.22.23a2.91 2.91 0 0 1 .23.96 3.5 3.5 0 0 1-1.04 2.25l-.42.4v.05h.03l.94-.89h.04a4.87 4.87 0 0 1-1.94 1.6c-.47.2-.91.36-1.31.48-.26.08-.5.13-.74.17a9.35 9.35 0 0 1-5.17-.7 3.66 3.66 0 0 1-1.78-1.64c-.02-.05-.02-.1 0-.13Z" fill="#154E2D"/><path d="M6.05 7.7c-.12.19-.19.37-.2.55-.06.47-.05.89.02 1.25a1 1 0 0 0 .28.52l-.1.2a2.17 2.17 0 0 1-.79-.74c-.01-.02-.03-.03-.05-.03h-.02l-.02.02v.03c.2.34.53.63 1 .88-.1.11-.17.25-.2.4-.01.03-.02.03-.04.02v-.03c0-.03-.02-.04-.05-.02l-.1.07h-.06l-.1-.1c0-.02-.02-.02-.03-.01l-.02.04c0 .05.02.09.05.12v.06a.6.6 0 0 0-.1.16.47.47 0 0 0-.07.13c-.04.14-.08.32-.11.52a4.75 4.75 0 0 1-1.73-1.34h.08c.18-.14.33-.3.45-.5l.22.02c.02 0 .04.01.04.04v.1c0 .03.02.05.05.05.02 0 .04-.02.04-.06 0-.04.02-.09.05-.13l.04-.02.17.01.03-.01-.01-.03-.18-.13v-.03l.04-.19c.26-.35.62-.87 1.07-1.55.09-.14.2-.23.35-.27Z" fill="#FED33F"/><path d="m4.46 7.86.13.1.01.03c0 .01 0 .02-.02.03a.37.37 0 0 0-.2.26c-.01.03-.03.05-.05.04-.06 0-.1-.03-.16-.09a.08.08 0 0 1-.02-.05c0-.17.06-.28.2-.34a.1.1 0 0 1 .1.02Z" fill="#FEEAC5"/><path d="M12.87 9.14c-.18.45-.44.8-.79 1.04a5.41 5.41 0 0 1-2.6.83H8.4a5.5 5.5 0 0 1-1.36-.26l-.87-.37a2.49 2.49 0 0 1-1-.88v-.03l.03-.02h.02c.02 0 .04 0 .05.03.22.33.48.57.8.74.78.43 1.6.65 2.46.67.5.05.98.03 1.47-.09 1.06-.1 1.9-.5 2.48-1.17.2-.23.32-.49.33-.78.02-.3-.06-.58-.25-.83V8l.01-.02h.05c.24.34.32.72.26 1.16Z" fill="#7F5A1A"/><path d="M13.7 8.23c-.03.13-.1.2-.2.21-.02 0-.04 0-.04-.02v-.07a.74.74 0 0 1-.05-.2c0-.02-.02-.04-.04-.05l-.05.01-.02.02c-.05.04-.06.1-.03.16.02.04.05.08.08.1l.01.03-.02.02h-.04c-.08-.12-.1-.23-.05-.31.06-.11.14-.15.24-.12.09.03.16.1.2.22Z" fill="#11140A"/><path d="M14.68 7.98c.13.45.15.85.07 1.2a3.3 3.3 0 0 1-.87 1.56c-.38.4-.84.72-1.38.96.11-.66.36-1.21.75-1.66.02.06.05.08.08.06l.02-.04v-.02c0-.06.01-.1.05-.12a.2.2 0 0 1 .16 0l.01-.01c.02-.03 0-.06-.05-.1a855.93 855.93 0 0 1 .67-1.18c.15-.23.3-.45.49-.65Z" fill="#FEF7E1"/><path d="m13.5 8.31-.06-.17c0-.02 0-.05.02-.07.01-.01.03-.02.05 0 .07.03.1.09.13.16.01.06 0 .1-.05.11l-.02.02c-.04.01-.06 0-.08-.05Z" fill="#FFE7A5"/><path d="M4.57 8.27c.06-.06.08-.13.06-.16-.02-.03-.08 0-.13.06-.05.05-.08.12-.06.15.03.03.08 0 .13-.05Z" fill="#FEEAC5"/><path d="M6.57 9.45c0 .05-.02.08-.07.08h-.05a.22.22 0 0 1-.17-.1.35.35 0 0 1-.08-.22l.01-.77c0-.09.03-.16.08-.22s.1-.1.18-.1h.04c.05 0 .07.04.07.09l-.01 1.24Z" fill="#FED33F"/><path d="M10.5 9.18c-.02 0-.02-.01-.02-.03a12.37 12.37 0 0 1 .07-.98h.02a11.63 11.63 0 0 1 .04.98c0 .02 0 .03-.02.03h-.1ZM9.78 9.14l.28-.07-.14 1.4c0 .1.01.15.05.18.02.05.02.1.02.15-.49.12-.97.14-1.47.09v-.14l.32.03.06-.03a.11.11 0 0 0 .03-.07l.1-1.86.02-.01h.02l.01.03.07 1.78c0 .08.04.12.12.14l.24-.01.07-.01c.08 0 .13-.06.13-.17l.07-1.43Z" fill="#FFE7A5"/><path d="m4.63 9.52-.05.2v.02l.18.13c.01 0 .02.02.01.03 0 .01 0 .02-.02.01l-.17-.01c-.02 0-.03 0-.04.02a.26.26 0 0 0-.05.13c0 .04-.02.06-.04.06-.03 0-.05-.02-.05-.06v-.09c0-.03-.02-.04-.04-.04l-.22-.01a.31.31 0 0 1 .15-.15l.02-.03c0-.03-.01-.08-.05-.14v-.06c.02-.02.04-.02.05 0l.09.08c0 .01.02.02.04.01l.19-.1ZM13.52 9.82c.05.03.07.06.05.09h-.01a.2.2 0 0 0-.16.01c-.03.02-.05.06-.05.12v.02c0 .02 0 .03-.02.04-.03.02-.06 0-.08-.06.01-.07-.06-.12-.21-.14-.01 0-.02 0-.02-.02v-.02l.16-.14v-.04l-.07-.1v-.04c0-.01.02-.02.03-.01.05.01.1.05.13.1.02.03.04.03.06.01l.12-.11c.01-.02.02-.02.04 0v.04l-.04.1a.07.07 0 0 0 0 .06c.02.05.05.08.07.09Z" fill="#D6241F"/><path d="m6.16 10.38.87.37a3.4 3.4 0 0 0-.46.74c-.09.2-.12.42-.08.65h-.05l-.11-.01H6.3l-.97-.4.1-.51a.47.47 0 0 1 .07-.13c.13 0 .2.04.22.15 0 .02.01.04.03.03h.03c.02 0 .03-.01.03-.04a.3.3 0 0 1 0-.08c0-.03.02-.04.04-.04l.17-.02c.02 0 .03-.01.03-.04 0-.02 0-.03-.02-.04l-.1-.02-.03-.04c0-.05 0-.1.02-.15.02.01.03 0 .03-.02.04-.15.1-.29.2-.4Z" fill="#FFE7A5"/><path d="M11.57 10.48c-.12.37-.32.68-.58.95l-.36-.03c-.01 0-.02-.01-.02-.03v-.03a.35.35 0 0 1 .26-.03c.01 0 .02 0 .03-.02l.01-.02v-.03l-.02-.02a.47.47 0 0 0-.27.02c-.11.04-.15.12-.1.24.01.02.03.04.05.04l.28.02c.03 0 .05.03.04.06 0 .06-.03.1-.07.11h-.05l-.17-.1h-.03a.04.04 0 0 0-.01.04c0 .08.05.13.13.15l-.3.58-1.34.1c.02-.17.06-.32.14-.45a.1.1 0 0 0 .02-.05c.02-.01.02-.02.02-.03l.06-.51a.9.9 0 0 0 .2-.44c.7-.02 1.39-.2 2.08-.52Z" fill="#FED33F"/><path d="M5.93 10.8a.3.3 0 0 0-.02.15c0 .02.02.04.04.04l.09.02.02.04c0 .03-.01.04-.03.04l-.17.02c-.02 0-.04.01-.04.04a.3.3 0 0 0 0 .08c0 .03-.01.04-.03.04h-.03c-.02 0-.03 0-.03-.03-.02-.1-.09-.16-.22-.15l.1-.16c.02-.02.02-.04 0-.06a.26.26 0 0 1-.04-.12c0-.02 0-.03.02-.04h.03l.1.1c.02.02.04.02.06 0l.1-.06c.03-.02.05-.01.06.02l-.01.03ZM12.21 10.97l.13.1v.04c0 .02 0 .02-.02.02h-.15c-.01 0-.02 0-.03.02l-.04.18c0 .01 0 .02-.02.02s-.03 0-.03-.03l-.04-.17c0-.02 0-.03-.02-.03h-.15c-.02.01-.03 0-.03-.01l.01-.04.13-.1v-.04l-.04-.17v-.04h.04l.11.12h.04l.11-.12h.04v.04l-.05.17.01.04Z" fill="#D6241F"/><path d="M7.03 10.75c.45.15.9.23 1.36.26l-.14.39a.11.11 0 0 0-.1 0c-.01 0-.02.01-.02.03v.1l-.01.23c-.03.07-.09.1-.18.1-.04-.01-.05-.04-.05-.08l.01-.26.02-.04.07-.06v-.04c0-.01 0-.02-.02-.02l-.18-.02c-.02 0-.03.01-.02.04.01.1 0 .23-.02.4 0 .04 0 .06.02.08.06.04.12.08.18.09l-.26.46-.09-.04-1.11-.23c-.04-.23 0-.45.08-.65.13-.27.28-.52.46-.74Z" fill="#FEF7E1"/><path d="M9.48 11a.9.9 0 0 1-.2.44c-.07-.04-.14-.04-.2 0-.05.04-.09.12-.1.23 0 .03 0 .04-.03.05-.03 0-.04-.02-.05-.05-.02-.19-.1-.27-.27-.24-.02 0-.03.02-.02.04.06.14.07.3.03.48l.01.05c.03.02.07.01.12 0 .01-.01.02-.02.01-.04l-.06-.26c0-.02 0-.03.02-.04h.03c.05.07.08.15.1.25 0 .04.01.06.04.07.02 0 .05 0 .06-.03a.54.54 0 0 0 .08-.25c0-.02.01-.04.03-.04.03 0 .04.01.04.04.01.07 0 .14-.03.2-.01.03 0 .05.01.06.03.02.07.02.1.02a.1.1 0 0 1 0 .05c-.09.13-.13.28-.15.45-.47.03-.92.01-1.36-.07l.26-.46c.09 0 .16-.02.21-.09a.1.1 0 0 0 .02-.04l.07-.42.14-.39h1.1Z" fill="#FFE7A5"/><path d="M7.4 11.45c-.02.06-.06.1-.13.1-.06 0-.12 0-.17-.03h-.05c-.02.02-.02.04-.02.07l.03.1c0 .03 0 .04-.03.04a.38.38 0 0 1-.2-.04v-.04c.1-.1.15-.25.13-.44 0-.02 0-.04.02-.03.1 0 .2.02.27.05.11.05.16.12.14.22ZM10.99 11.43c.1.22 0 .34-.3.37a.17.17 0 0 1-.13-.15v-.04h.04l.17.1h.05c.04-.02.06-.05.07-.1 0-.04 0-.06-.04-.07l-.28-.02c-.02 0-.04-.02-.05-.04-.05-.12-.01-.2.1-.24a.47.47 0 0 1 .27-.02c.01 0 .02 0 .02.02v.05c-.02.02-.03.03-.04.02a.35.35 0 0 0-.25.03c-.01.01-.02.02-.01.03 0 .02 0 .02.02.03l.36.03Z" fill="#3B2B09"/><path d="M7.1 11.3c.01-.02.02-.03.04-.02h.03a.2.2 0 0 1 .09.05c.02.02.03.04.03.07 0 .03-.02.04-.05.05h-.13c-.02-.01-.02-.02-.02-.04l.02-.1Z" fill="#FEF7E1"/><path d="m8.25 11.4-.07.42a.1.1 0 0 1-.02.04.22.22 0 0 1-.2.09.33.33 0 0 1-.19-.1.07.07 0 0 1-.02-.06c.03-.18.03-.32.01-.41 0-.03 0-.04.03-.04l.18.02c.01 0 .02 0 .02.02v.04l-.07.06a.05.05 0 0 0-.02.04l-.01.26c0 .04.01.07.05.07.1.01.15-.02.18-.09a.73.73 0 0 0 .01-.24v-.09c0-.02 0-.03.02-.04a.11.11 0 0 1 .1 0ZM9.92 11.9a.33.33 0 0 1-.18.03c-.02 0-.03-.01-.03-.04l.02-.05c.02-.04.02-.1 0-.2a.7.7 0 0 0-.08-.18v-.04c0-.01 0-.02.02-.02.13-.03.26-.05.37-.04.04 0 .08.03.1.09.02.05.02.1 0 .14-.02.03-.09.07-.2.11a.74.74 0 0 0-.05.03c-.01 0-.02.01-.02.03l.01.03.06.07c0 .02 0 .04-.02.05ZM9.29 11.44l-.06.51-.01.02H9.2c-.04.01-.08 0-.1-.01-.03-.01-.03-.03-.02-.05a.36.36 0 0 0 .03-.21c0-.03-.01-.04-.04-.04-.02 0-.03.02-.03.04 0 .1-.03.18-.08.25-.01.02-.03.03-.06.03-.03-.01-.04-.03-.04-.07a.47.47 0 0 0-.1-.24c0-.02-.02-.02-.03-.01-.01 0-.02.02-.01.04l.05.26-.01.03c-.05.02-.09.03-.12 0-.01 0-.02-.02-.01-.04a.77.77 0 0 0-.03-.48c0-.02 0-.04.02-.04.16-.03.25.05.27.24 0 .03.02.05.05.05.02 0 .04-.02.04-.05 0-.11.04-.19.1-.23.05-.04.12-.04.2 0Z" fill="#3B2B09"/><path d="M9.84 11.47c0-.02 0-.04.03-.04h.11l.04.07v.01a.1.1 0 0 1-.03.08.15.15 0 0 1-.09.04c-.03 0-.04 0-.04-.03l-.02-.13Z" fill="#FED33F"/><path d="m6.49 12.14 1.11.23c0 .03-.03.05-.09.05-.35.01-.7-.06-1.04-.22-.02 0-.03-.03-.03-.06h.05ZM11.23 12.22c-.26.14-.54.2-.83.17l-.02-.01.85-.16Z" fill="#7F5A1A"/></svg>