<!-- by TradingView --><svg width="18" height="18" viewBox="0 0 18 18" xmlns="http://www.w3.org/2000/svg"><path fill="#F0F3FA" d="M0 0h18v18H0z"/><path d="M7.58 6a.9.9 0 0 1 .68.26c.16.16.24.37.24.6 0 .49-.43.94-.92.94H6.7c-.74.04-1.33.49-1.33 1.2 0 .2.02.38.1.54.25.51.84.66 1.42.66h.67c.5 0 .93.49.93.99 0 .2-.09.41-.25.57a.93.93 0 0 1-.68.24h-.66c-.56-.03-1-.1-1.33-.23a3.29 3.29 0 0 1-1.5-1.1 2.79 2.79 0 0 1-.31-2.87c.17-.36.42-.68.73-.95.31-.27.67-.47 1.09-.62C6 6.08 6.49 6 7.05 6h.53Zm5.53 0c.5 0 .89.34.89.83v4.34c0 .27-.1.48-.27.62a.97.97 0 0 1-.62.21.92.92 0 0 1-.68-.26.97.97 0 0 1-.1-.1h-.01L11 9.48v1.7c0 .49-.61.83-1.11.83-.5 0-.89-.35-.89-.83V6.83c0-.27.09-.48.26-.62a.96.96 0 0 1 .63-.2c.34-.02.58.1.72.36L12 8.66V6.83c0-.49.6-.83 1.1-.83Z" fill="#A9CF03"/></svg>