<!-- by TradingView --><svg width="18" height="18" viewBox="0 0 18 18" xmlns="http://www.w3.org/2000/svg"><path fill="#F0F3FA" d="M0 0h18v18H0z"/><path fill-rule="evenodd" d="M14.84 9.44a2.7 2.7 0 0 0 0-.99H12v1h2.84ZM6 9.64H3.2c.1.4.3.78.58 1.14h.3L3 11.76l1.11.04-.06 1.2 1.15-1.03.25.14h.07l.06.17.22-.17h6.46l.22.17.05-.17h.02l.25-.14L13.95 13l-.06-1.2 1.11-.04c-.23-.22-.73-.67-1.09-.98h.31c.28-.36.47-.74.58-1.14H12V10l.16.07v.3a7.37 7.37 0 0 0-6.32 0v-.31l-.18.46.33.93c.33-.26 1.38-.79 2.99-.79 1.6 0 2.71.53 3.06.8l.34-.94-.21-.45a7.34 7.34 0 0 1 2.4 1.54l-.85.03.04.9a8.63 8.63 0 0 0-1.24-.98l-.15.4c-.35-.33-1.52-1-3.4-1h-.1c-1.88 0-2.9.67-3.17 1l-.17-.4c-.23.15-.8.56-1.22.98v-.9l-.8-.03A6.48 6.48 0 0 1 6 9.97v-.33Zm0-.2H3.16a2.7 2.7 0 0 1 0-.99H6v1Zm6-1.18h2.8a3.1 3.1 0 0 0-.48-1h-2.05l.78.49H12v.5Zm-6.22-1L5 7.75h1v.5H3.2c.1-.34.26-.67.48-.99h2.1Zm6.18-.19h2.22c-.3-.37-.69-.7-1.14-.99h-2.69l1.61 1ZM7.7 6.08l-1.6 1H3.83c.3-.38.68-.71 1.13-1H7.7Zm2.35-.2-1.02-.62L8 5.89H5.28A7.79 7.79 0 0 1 9 5c1.4 0 2.7.33 3.72.89h-2.68ZM5.86 12.3c.91.39 1.99.61 3.14.61 1.15 0 2.23-.22 3.14-.6H5.86ZM9 9.8h.08c.18.02.31.15.33.32a.4.4 0 0 1-.04.23c-.07.14-.21.2-.37.2a.7.7 0 0 1-.08 0 .36.36 0 0 1-.33-.33c0-.07 0-.15.04-.23.07-.13.21-.2.37-.2Zm.13.37v.02l-.02.11c-.01.06-.06.1-.12.08-.05 0-.08-.02-.1-.07a.5.5 0 0 1 0-.28c.02-.04.05-.07.1-.07.06 0 .1.02.12.08a.81.81 0 0 1 .02.13Zm1.41-.21-.2-.04-.1.47c-.02.06-.07.08-.13.08-.04 0-.09-.02-.1-.06a.1.1 0 0 1 0-.04c0-.05 0-.1.02-.14a19.88 19.88 0 0 0 .07-.35l-.2-.03-.05-.01h-.01a16.66 16.66 0 0 0-.06.3l-.02.05v.05a.65.65 0 0 0-.03.16l.01.06c.03.06.09.1.15.13.1.04.19.05.29.05.05 0 .09-.01.13-.03.07-.04.11-.1.13-.17a42.06 42.06 0 0 0 .1-.48Zm-3.11.02H7.4l.16.72.25-.05h.01l-.06-.27.07-.02h.01l.02.02a31.62 31.62 0 0 1 .17.24l.28-.05-.21-.29.04-.03a.16.16 0 0 0 .07-.14c0-.08-.03-.14-.1-.18a.37.37 0 0 0-.25-.03 70.94 70.94 0 0 0-.45.08Zm.29.1.02.14.14-.02.03-.01a.1.1 0 0 0 .03-.02l.01-.02v-.04c0-.02-.01-.03-.03-.04a.11.11 0 0 0-.07 0l-.13.02Zm-.54.73.1-.04v-.01l-.17-.37-.36.13.06.13h.02l.1-.03h.01l.02.03c-.02.07-.07.1-.14.1a.14.14 0 0 1-.11-.06.63.63 0 0 1-.08-.14.26.26 0 0 1-.01-.13.1.1 0 0 1 .1-.07c.03 0 .07 0 .1.03a.45.45 0 0 1 .03.04l.22-.1a.01.01 0 0 0 0-.01.35.35 0 0 0-.25-.13c-.1-.01-.21.02-.3.07a.3.3 0 0 0-.16.24c0 .05 0 .1.02.16a.4.4 0 0 0 .46.28.5.5 0 0 0 .16-.06.23.23 0 0 0 .1-.12l.06.05h.02Zm3.5-.06a10.81 10.81 0 0 0 .25.08l.1-.24h.01l.06.02.11.03c.15.05.32 0 .37-.15a.18.18 0 0 0 0-.1.26.26 0 0 0-.15-.16 7.29 7.29 0 0 0-.25-.09l-.04-.01a4.45 4.45 0 0 1-.18-.06l-.29.68Zm.46-.44-.05.12v.01l.09.03a.2.2 0 0 0 .07.01c.04 0 .06-.02.07-.06 0-.02 0-.04-.02-.05a6.94 6.94 0 0 0-.16-.06Zm-4.66-.87V7.07h1.04c.2 0 .58.13.58.63s-.29.68-.43.7c.14.04.24.2.27.26l.3.78h-.62l-.34-.8c-.07-.14-.19-.16-.24-.16v.96h-.56Zm.56-1.9h.25c.14 0 .26.12.26.25 0 .14-.12.24-.26.24h-.25v-.48Zm1.34-.47v2.37h.75c.23.01.67-.22.67-1.22 0-.89-.4-1.13-.6-1.15h-.82Zm.47.52v1.34h.12c.07 0 .35-.05.35-.7 0-.61-.24-.63-.32-.64H8.84ZM11 7.07H9.95v2.37h.91c.44 0 .65-.2.65-.67 0-.38-.23-.55-.34-.6.09-.03.27-.19.27-.51 0-.46-.3-.58-.45-.59Zm-.3.48h-.22V8h.22c.13 0 .24-.1.24-.22 0-.13-.1-.23-.24-.23Zm.07.9h-.29v.5h.29c.14 0 .25-.12.25-.25a.25.25 0 0 0-.25-.25Z" fill="#3E4095"/></svg>