<!-- by TradingView --><svg width="18" height="18" viewBox="0 0 18 18" xmlns="http://www.w3.org/2000/svg"><path fill="#F0F3FA" d="M0 0h18v18H0z"/><path d="M12.78 7.38c0 .09-.03.17-.08.23a.28.28 0 0 1-.21.1h-2.5a.31.31 0 0 0-.13.02.34.34 0 0 0-.1.08.4.4 0 0 0-.1.26v.04c0 .1.03.19.09.25.06.07.14.11.23.11h1.52c.44 0 .74.05.9.15.35.21.61.64.6 1.1-.02.69-.35 1.11-1 1.27a.43.43 0 0 1-.1.01H9.44c-.04 0-.08 0-.12-.03a.29.29 0 0 1-.1-.07.35.35 0 0 1-.08-.23v-.03c0-.1.04-.19.1-.25a.3.3 0 0 1 .23-.1h2.36c.36-.03.53-.23.52-.61-.01-.4-.35-.5-.7-.49h-1.5c-.34 0-.6-.07-.77-.23-.58-.54-.5-1.54.22-1.88.14-.06.34-.09.63-.08h2.24a.3.3 0 0 1 .12.03c.04.02.07.04.1.08a.35.35 0 0 1 .1.25v.02Z" fill="#034982"/><path d="M8.15 3a394.67 394.67 0 0 0 1.73 2.75l-.02.03a.56.56 0 0 1-.24.12h-.04A289.18 289.18 0 0 0 8.16 3ZM5.2 3.58l3.65 2.74a.04.04 0 0 1 .01.03.04.04 0 0 1 0 .03 12.36 12.36 0 0 1-.32.32.05.05 0 0 1-.03-.01L5.2 3.59c0-.01 0 0 0 0ZM4.62 6.35A330.67 330.67 0 0 0 8 7.37l.01.04a.58.58 0 0 1-.1.26l-.04.03h-.04L4.62 6.34ZM3 8.79l4.64-.27a.05.05 0 0 1 .04.01.04.04 0 0 1 .01.03 15.88 15.88 0 0 1-.01.44.04.04 0 0 1-.03.01L3 8.8 3 8.78ZM8.63 11.22a11.25 11.25 0 0 1 .16.2.04.04 0 0 1-.02.02L5 14.37h-.02l3.42-3.3a.05.05 0 0 1 .03-.02.05.05 0 0 1 .03.02l.16.15ZM9.7 11.98c.05.02.09.05.12.08.02 0 .02.02.03.03l-.01.04A402.22 402.22 0 0 0 8.09 15a298.67 298.67 0 0 0 1.43-3.06h.05c.04 0 .09.02.13.04Z" fill="#F58101"/></svg>