<!-- by TradingView --><svg width="18" height="18" viewBox="0 0 18 18" xmlns="http://www.w3.org/2000/svg"><path fill="#153D34" d="M0 0h18v18H0z"/><path d="M10.4 11.32a2.17 2.17 0 0 0-.57-.4 1.94 1.94 0 0 0-1.67 0c-.1.05-.2.1-.3.18a2.02 2.02 0 0 0-.42.41l.23.16a6.25 6.25 0 0 1 1.22 1.13 3.16 3.16 0 0 1 .11.14l.15-.17.24-.26.45-.41v-.01c.23-.2.48-.39.74-.56a1.9 1.9 0 0 0-.18-.21Z" fill="#F2EA33"/><path d="M13.98 9.64c-.03.22-.08.44-.14.65-.2.04-.39.1-.58.15-.74.14-1.45.4-2.1.74a.71.71 0 0 0-.06-.08 7.32 7.32 0 0 1 2.88-1.46ZM8.3 4.02a7.29 7.29 0 0 0-1.26 6.89 2.5 2.5 0 0 0-.2.25l-.17-.1a7.32 7.32 0 0 1 .37-6.7c.4-.16.82-.27 1.26-.34Zm5.63 4.2c0-.04.06.43.06.74-1.2.34-2.28.99-3.14 1.85-.1-.1-.2-.18-.32-.27a7.4 7.4 0 0 1 3.4-2.32ZM5.92 5.04a7.23 7.23 0 0 0 .2 5.77c-.23-.1-.48-.19-.74-.26a7.29 7.29 0 0 1-.76-3.9v-.1c.34-.59.77-1.1 1.3-1.51Zm3.46-1.05c.15 0 .35.03.55.07.22.04.4.08.55.14a7.5 7.5 0 0 0-2.7 5.1c-.03.35-.03.7-.01 1.04a2.4 2.4 0 0 0-.4.27 7.4 7.4 0 0 1 .37-4.15C8.21 5.3 8.89 4.47 9.38 4Zm-5.3 4.13c.11.81.37 1.59.74 2.3a4.6 4.6 0 0 0-.47-.1H4.2a4.81 4.81 0 0 1-.12-2.2Zm9.38-1.4a4.55 4.55 0 0 1 .31.76 7.35 7.35 0 0 0-3.58 2.84 2.87 2.87 0 0 0-.42-.17 7.38 7.38 0 0 1 3.7-3.44Zm-2.15-2.18c.26.13.5.3.74.47a7.29 7.29 0 0 0-3.47 5.06l-.42.1c0-.07 0-.14.02-.21a7.29 7.29 0 0 1 3.13-5.42Zm1.28.95c.19.2.36.4.52.63a7.32 7.32 0 0 0-3.71 3.95 2.83 2.83 0 0 0-.4-.03h-.05a7.32 7.32 0 0 1 3.64-4.55Z" fill="url(#a)"/><path d="M4.44 11.02a7.56 7.56 0 0 1 2.09.76 6.06 6.06 0 0 1 .92.6 6.63 6.63 0 0 1 1.2 1.14l.07.08a1.97 1.97 0 0 1 .1.13 3.74 3.74 0 0 1 .1.13l.02.03.01.01.02.03v.01H9v.04h.02-.02a5.1 5.1 0 0 1-1.3-.16l-.05-.01a5.03 5.03 0 0 1-3.2-2.79Zm9.14 0a5 5 0 0 1-3.26 2.8c-.41.11-.84.17-1.29.17h-.02v-.01l.01-.02.01-.01.01-.02a.2.2 0 0 1 .02-.03h.01c0-.02.02-.03.03-.04a.8.8 0 0 1 .05-.07.91.91 0 0 0 .04-.06l.06-.08a.61.61 0 0 0 .05-.05 1.13 1.13 0 0 1 .09-.11l.08-.1.45-.47a6.87 6.87 0 0 1 1.57-1.14 7.8 7.8 0 0 1 2.09-.75Z" fill="url(#b)"/><defs><linearGradient id="a" x1="4.65" y1="8.41" x2="14" y2="8.41" gradientUnits="userSpaceOnUse"><stop stop-color="#F3EB28"/><stop offset="1" stop-color="#CC8C4F"/></linearGradient><linearGradient id="b" x1="4.44" y1="12.51" x2="13.58" y2="12.51" gradientUnits="userSpaceOnUse"><stop stop-color="#82AC3C"/><stop offset=".5" stop-color="#547435"/><stop offset="1" stop-color="#85B163"/></linearGradient></defs></svg>