<!-- by TradingView --><svg width="18" height="18" viewBox="0 0 18 18" xmlns="http://www.w3.org/2000/svg"><path fill="#F0F3FA" d="M0 0h18v18H0z"/><path fill-rule="evenodd" d="M9.9 15h.05l.32-.5.03-.01h.03l.51.27h.02l.02-.02.23-.5.03-.02h.03l.53.18h.02a.03.03 0 0 0 .02-.02l.17-.55.02-.03h.04l.55.1h.01l.12-.6v-.02h.6a.03.03 0 0 0 .02-.02v-.01l-.03-.54a.06.06 0 0 1 .01-.04l.02-.01h.02l.52-.04h.02a.03.03 0 0 0 .01-.03v-.01l-.1-.58c0-.02 0-.04.02-.05a.07.07 0 0 1 .04-.03l.5-.1a.04.04 0 0 0 .03-.02.05.05 0 0 0 0-.03l-.18-.55v-.04l.02-.02.5-.22.02-.01v-.04l-.28-.5a.05.05 0 0 1 .02-.07l.48-.29a.04.04 0 0 0 .02-.03.04.04 0 0 0-.01-.03l-.37-.45a.05.05 0 0 1 0-.08l.44-.39a.03.03 0 0 0 0-.04l-.43-.4a.04.04 0 0 1-.01-.04v-.01l.38-.45v-.03a.04.04 0 0 0-.01-.02l-.48-.3v-.03l.25-.55a.02.02 0 0 0 0-.02l-.52-.27a.05.05 0 0 1-.03-.03v-.04l.22-.46a.05.05 0 0 0-.01-.06h-.02l-.56-.2-.02-.01v-.03l.1-.56a.05.05 0 0 0 0-.04.04.04 0 0 0-.04-.02l-.54-.05h-.03v-.64a.03.03 0 0 0-.04-.02l-.53.04h-.02l-.01-.03-.1-.56v-.02h-.02l-.58.1a.05.05 0 0 1-.04 0l-.01-.02v-.02l-.1-.52v-.02a.05.05 0 0 0-.04-.02h-.02l-.53.2h-.03l-.02-.02-.24-.52a.03.03 0 0 0-.01-.02.03.03 0 0 0-.03 0l-.49.3a.05.05 0 0 1-.04 0 .05.05 0 0 1-.03-.02l-.28-.51-.02-.01-.01-.01a.04.04 0 0 0-.04 0l-.42.4a.05.05 0 0 1-.08-.01L9.1 3 9.06 3l-.03.01-.42.4-.02.01h-.02l-.44-.36H8.1l-.37.5c0 .02 0 .02-.02.02h-.03l-.54-.28a.02.02 0 0 0-.02 0l-.25.53-.02.01h-.02l-.55-.18h-.02v.01l-.18.56-.01.02h-.02l-.56-.1a.01.01 0 0 0-.02 0l-.11.6-.01.01h-.59a.03.03 0 0 0-.03.02.03.03 0 0 0 0 .02l.03.57v.01l-.02.01-.6.11v.01l-.01.01.1.58v.03l-.02.01-.54.14a.04.04 0 0 0-.02.02.04.04 0 0 0 0 .03l.17.52v.04l-.02.02-.49.22a.03.03 0 0 0-.01.01.03.03 0 0 0 0 .03l.29.51a.04.04 0 0 1 0 .05l-.02.01-.48.3h-.01a.04.04 0 0 0 0 .06l.36.43a.06.06 0 0 1 0 .06v.02L3 9V9a.04.04 0 0 0 0 .03v.01l.43.4a.05.05 0 0 1 0 .05l-.37.45a.05.05 0 0 0 0 .04V10l.02.02.45.23s.02.01.02.03v.03l-.26.55v.02l.52.27-.17.57v.02l.02.01.54.19h.01v.03l-.1.55a.03.03 0 0 0 0 .02.02.02 0 0 0 .02 0l.55.12c.01 0 .02 0 .03.02l.01.03v.56a.04.04 0 0 0 .01.02l.01.01h.02l.54-.03a.04.04 0 0 1 .03.02v.01l.05.64a.02.02 0 0 0 0 .01.02.02 0 0 0 .02 0l.61-.1h.02a.05.05 0 0 1 .04.02v.02l.1.52v.02l.02.02a.06.06 0 0 0 .05 0l.59-.22h.03l.02.03.19.48v.01l.02.01h.03l.5-.3.04-.01.03.02.3.53h.03l.47-.38a.04.04 0 0 1 .06 0l.35.38h.17l.31-.35.03-.02.04.01.44.36ZM9 13.64a4.64 4.64 0 1 0 0-9.28 4.64 4.64 0 0 0 0 9.28Z" fill="#8A7968"/><path fill-rule="evenodd" d="M13.73 10.95a5.12 5.12 0 1 0-9.46-3.9 5.12 5.12 0 0 0 9.46 3.9Zm-1.24 1.54a4.94 4.94 0 1 0-6.98-6.98 4.94 4.94 0 0 0 6.98 6.98Z" fill="#F0F3FA"/><path d="M8.87 5.35h-.03l-.03-.01-.02-.03-.16-.42a.01.01 0 0 0-.02 0v.01l.02.4a.05.05 0 0 1-.01.04.05.05 0 0 1-.04.02h-.03a.05.05 0 0 1-.04-.01.05.05 0 0 1-.01-.04l-.04-.6a.05.05 0 0 1 .01-.04.05.05 0 0 1 .04-.02h.13l.03.04a23.58 23.58 0 0 0 .2.46 25.54 25.54 0 0 0 .17-.51l.04-.02h.1a.05.05 0 0 1 .03.02.05.05 0 0 1 .02.03v.61a.05.05 0 0 1 0 .04.05.05 0 0 1-.04.01h-.04a.05.05 0 0 1-.03-.01.05.05 0 0 1-.02-.04v-.4l-.02-.01h-.01l-.13.43c0 .02-.01.03-.02.03l-.03.02h-.02ZM9.85 5.42a.4.4 0 0 1-.24-.03c-.23-.13-.3-.4-.1-.6.26-.25.72-.01.62.36-.03.13-.12.22-.28.27ZM8.35 5.41l-.36.08-.15-.65v-.03l.03-.02.3-.08a.04.04 0 0 1 .03 0 .04.04 0 0 1 .02.04l.02.05v.02l-.03.02-.18.05h-.01a.04.04 0 0 0-.02.03v.02l.02.08a.03.03 0 0 0 .02.02.03.03 0 0 0 .02 0L8.24 5a.03.03 0 0 1 .03.01v.01l.02.07a.03.03 0 0 1-.02.03l-.18.05s-.02 0-.02.02v.02l.02.08a.04.04 0 0 0 .02.03.04.04 0 0 0 .03 0l.16-.04h.03l.02.03c.02.03.01.06 0 .1Z" fill="#847A71"/><path d="M9.77 5.3c.13 0 .24-.11.24-.25 0-.13-.11-.24-.24-.24a.24.24 0 0 0-.24.24c0 .14.11.25.24.25Z" fill="#F0F3FA"/><path d="m10.52 5.63-.35-.12.24-.61v-.02a.05.05 0 0 1 .04-.01h.02l.04.02a.06.06 0 0 1 .03.04.06.06 0 0 1 0 .04l-.2.42a.04.04 0 0 0 .02.05l.15.08c.01 0 .02 0 .03.02v.03l-.02.06ZM7.64 5.63c-.32.2-.71-.03-.58-.42.14-.25.34-.31.59-.18a.03.03 0 0 1 0 .04v.02a.55.55 0 0 1-.28.02.1.1 0 0 0-.06 0c-.2.11-.19.4.05.46.12.03.23-.06.29-.16a.04.04 0 0 0 0-.05H7.6l-.18.11a.04.04 0 0 1-.05 0h-.01l-.01-.03-.01-.04v-.03l.03-.02.37-.17a.03.03 0 0 1 .05.03c.03.18-.02.32-.15.42ZM6.53 5.85l.13.15.03.02c.01 0 .03 0 .04-.02l.1-.09h.04l.03.05.01.02-.01.03-.2.18a.04.04 0 0 1-.06 0l-.4-.48a.05.05 0 0 1 .01-.07l.05-.03c.05 0 .13.08.23.24ZM11.74 6.45c-.27-.08-.38-.25-.32-.53.21-.42.74-.22.73.23v.01l-.02.02h-.03c-.15-.1-.08-.37-.34-.36-.33.02-.29.49.03.49a.03.03 0 0 0 .03-.02v-.02h-.01l-.15-.14a.06.06 0 0 1-.02-.04.06.06 0 0 1 .02-.05l.01-.01a.05.05 0 0 1 .07 0l.3.27a.04.04 0 0 1 0 .03.04.04 0 0 1 0 .03.45.45 0 0 1-.3.09ZM5.82 6.02C5.84 6 5.86 6 5.9 6a120.41 120.41 0 0 0 .64.25.05.05 0 0 1 0 .04v.03a.07.07 0 0 1-.04.03.07.07 0 0 1-.05 0l-.1-.03a.07.07 0 0 0-.07 0 1.24 1.24 0 0 0-.12.14.07.07 0 0 0 0 .08l.04.1a.07.07 0 0 1-.01.08l-.02.01-.02.02a.04.04 0 0 1-.07-.03L5.8 6.1c-.01-.03 0-.05.02-.08Z" fill="#847A71"/><path d="M6.13 6.32a.44.44 0 0 1-.04.04.03.03 0 0 1-.02 0 .03.03 0 0 1-.02-.01l-.07-.16c.01 0 .06 0 .16.05h.01a.03.03 0 0 1 .01.03v.01l-.03.04Z" fill="#F0F3FA"/><path d="M11.96 6.77c-.05-.01-.07-.05-.09-.1l.51-.41a.04.04 0 0 1 .06 0l.03.04a.04.04 0 0 1 0 .05v.01l-.51.4ZM6.04 6.87c-.04.08-.09.12-.14.1a5.73 5.73 0 0 0-.48.02h.01l.35.21.02.03v.04l-.03.04-.02.02h-.03l-.5-.3a.09.09 0 0 1-.04-.05.1.1 0 0 1 .03-.1.09.09 0 0 1 .05-.03h.53v-.01l-.36-.22-.02-.02v-.04l.03-.08c.23.1.43.24.6.39ZM12.82 6.8c.05.13.05.25 0 .36v.02a.03.03 0 0 1-.05-.01c-.05-.1-.02-.27-.09-.33-.2-.2-.47-.02-.39.27 0 .02.02.04.04.05.1.06.15.1.16.13l.03.05a.04.04 0 0 1 0 .03h-.04c-.24-.05-.35-.2-.34-.43.06-.37.48-.44.68-.13ZM5.53 7.9c-.15.17-.33.2-.54.08-.21-.24-.13-.6.17-.68.32-.09.56.29.37.6Z" fill="#847A71"/><path d="M5.23 7.92c.13 0 .23-.1.23-.24 0-.14-.1-.25-.23-.25S5 7.54 5 7.68c0 .13.1.24.23.24Z" fill="#F0F3FA"/><path d="M13.16 7.6c.02.04.01.06 0 .08a219.02 219.02 0 0 0-.54.47.04.04 0 0 1-.03-.02l-.01-.02a.07.07 0 0 1-.02-.05l.01-.03.02-.02.08-.07.02-.03v-.04a1.1 1.1 0 0 0-.05-.18.07.07 0 0 0-.03-.03.07.07 0 0 0-.04-.01h-.1a.07.07 0 0 1-.05-.03.07.07 0 0 1-.01-.05v-.03a.05.05 0 0 1 .01-.03.04.04 0 0 1 .03-.01l.66.05c.03 0 .04.02.05.05Z" fill="#847A71"/><path d="M9.49 10.94c-.02.02-.04.02-.05.01h-.85a.04.04 0 0 0-.02.02v.77h.03l.82.01h.02l-.35.39a.13.13 0 0 1-.04.03.12.12 0 0 1-.05 0h-.87l-.01-.03v-.7a.15.15 0 0 1 .04-.11l.79-.78a.04.04 0 0 0 .01-.03.05.05 0 0 0-.01-.04l-2.92-2.7-.13-.13v-.01a.03.03 0 0 1 0-.03l.11-.1 1.22-.95a.14.14 0 0 1 .08-.03h3.4c.05 0 .09.01.12.04L12.1 7.6l.01.01a.04.04 0 0 1 0 .04v.01l-3.05 2.81v.03h.8l.01.02a.02.02 0 0 1 0 .02l-.38.4Z" fill="#8A7968"/><path d="m6.49 7.54 1.01-.78h3.11l1.04.85.01.01a.04.04 0 0 1 0 .05L9.12 10h-.05L6.48 7.6v-.02a.04.04 0 0 1 0-.03Z" fill="#F0F3FA"/><path d="M6.83 7.74v-.01a.03.03 0 0 1 0-.03l.9-.7a.1.1 0 0 1 .07-.03h2.52c.04 0 .07.01.1.03l.83.64v.01a.03.03 0 0 1 0 .02v.01l-2.2 2.05-.02.01h-.02l-2.18-2Z" fill="#847A71"/><path d="m9.1 7.1 1.07.01c.04 0 .07.01.1.03l.65.54a.03.03 0 0 1 .01.02v.02a1468.74 1468.74 0 0 1-1.84 1.66l-.03-.01a1137.26 1137.26 0 0 1-1.8-1.7l.01-.01.67-.53a.14.14 0 0 1 .08-.03H9.1Z" fill="#F0F3FA"/><path d="M9.04 7.29h.76c.05 0 .1 0 .14.04l.54.4.01.01v.03A374.51 374.51 0 0 1 9.04 9.1 380.75 380.75 0 0 1 7.6 7.77v-.01l.54-.42a.22.22 0 0 1 .14-.04l.76-.01Z" fill="#847A71"/><path d="m7.95 7.78.48-.36H9.8l.4.33a.03.03 0 0 1 .02.02.04.04 0 0 1-.02.03L9.08 8.85h-.04L7.95 7.84v-.02a.04.04 0 0 1 0-.03ZM12.98 7.67a1.67 1.67 0 0 1-.15.12.03.03 0 0 1-.03 0l-.01-.01-.02-.04a.18.18 0 0 1 0-.05.04.04 0 0 1 .02-.03h.19Z" fill="#F0F3FA"/><path d="m13.3 8.26-.51.1h-.02v.03l.02.16v.02l-.02.01-.08.01h-.02v-.02l-.06-.3v-.02l.03-.01.64-.12a.03.03 0 0 1 .02 0v.03l.02.08v.02l-.02.01ZM4.97 8.16l.45.1c0 .04 0 .07-.02.1l-.02.02h-.03l-.62-.13a.02.02 0 0 1-.02-.01.03.03 0 0 1 0-.02l.03-.07.02-.02h.02l.2.03ZM5.36 8.66v.05l-.02.01h-.02l-.5-.04H4.8l-.02.04v.06a.04.04 0 0 1-.02.02.04.04 0 0 1-.03.01h-.04c-.01 0-.02 0-.03-.02a7.72 7.72 0 0 1 .03-.4h.07a.04.04 0 0 1 .03.02.04.04 0 0 1 .01.03v.05l.01.04.03.01.49.05h.02l.01.02v.05ZM5.17 9.25v.09l.02.03.03.03.1.03c.02 0 .03.02.04.04v.07a.05.05 0 0 1-.03.03.04.04 0 0 1-.03 0l-.62-.23c-.02-.01-.04-.03-.04-.07 0-.03.01-.06.03-.07a128.65 128.65 0 0 0 .63-.3.04.04 0 0 1 .03.03v.02a.07.07 0 0 1 0 .08l-.03.02-.1.04a.07.07 0 0 0-.02.03l-.02.04v.09ZM13.35 8.94h-.63a.04.04 0 0 0-.04.05v.05c0 .02.02.04.04.04h.63c.03 0 .04-.02.04-.04v-.06a.04.04 0 0 0-.04-.04Z" fill="#847A71"/><path d="M5.05 9.25a1.44 1.44 0 0 1 0 .06v.01h-.03c-.1-.01-.16-.03-.16-.05 0-.03.05-.05.15-.09a.03.03 0 0 1 .03 0v.02l.01.01v.04Z" fill="#F0F3FA"/><path d="M13.03 9.61a31.88 31.88 0 0 0-.14.08l.4.08h.02a.05.05 0 0 1 .02.04v.02l-.01.03c0 .02-.01.03-.03.04a.06.06 0 0 1-.04.01l-.57-.11a.07.07 0 0 1-.04-.03.08.08 0 0 1-.01-.1l.03-.02a7.05 7.05 0 0 1 .46-.22h-.01l-.4-.08h-.01l-.02-.02a.05.05 0 0 1 0-.04v-.03c0-.02.02-.03.03-.04.01-.01.03-.02.04-.01l.58.11.04.03a.08.08 0 0 1-.03.12l-.31.14ZM5.48 10.12c.04.06.05.1.02.13l-.6.16h-.05a.1.1 0 0 1-.04-.05.1.1 0 0 1 .02-.11l.35-.34v-.04h-.02l-.37.1h-.05a.07.07 0 0 1-.04-.04V9.9a.05.05 0 0 1 .01-.06h.02l.58-.16h.06a.1.1 0 0 1 .04.05.1.1 0 0 1-.02.11l-.34.33a.02.02 0 0 0 0 .03h.01l.42-.09ZM12.77 9.97c-.01.09-.05.14-.1.15-.02 0-.03 0-.04.02l-.02.03.01.04c0 .02.01.03.03.04.04.04.08.04.12 0l.1-.12a.1.1 0 0 1 .05-.04c.31-.12.4.35.08.4h-.04a.04.04 0 0 1-.01-.05.1.1 0 0 1 .02-.06.1.1 0 0 1 .05-.03.08.08 0 0 0 .06-.08.06.06 0 0 0-.04-.06h-.03l-.04.01a5.95 5.95 0 0 0-.2.2c-.35.07-.4-.47-.02-.48a.02.02 0 0 1 .02.01v.01ZM5.55 10.33c.07.06.08.14.02.22a5.33 5.33 0 0 0-.08.16h.02l.1-.04c.05-.02.08-.02.1 0 0 .01.02.04.02.09l-.59.28a.04.04 0 0 1-.05-.02c-.07-.12-.16-.3-.06-.43.07-.08.15-.1.26-.07a.1.1 0 0 1 .05.03l.02.02h.03l.02-.01.14-.23ZM12.35 10.56c0-.03.02-.04.02-.05h.04l.45.2h.03c.01 0 .02 0 .03-.02l.02-.05.02-.02H13l.04.02.02.02v.04a14.37 14.37 0 0 1-.15.32h-.03l-.04-.01a.04.04 0 0 1-.02-.03v-.03l.02-.05v-.04a.04.04 0 0 0-.02-.02l-.45-.2-.02-.02v-.06Z" fill="#847A71"/><path d="M5.2 10.86h-.03a.04.04 0 0 1-.03-.02v-.01a.2.2 0 0 1-.02-.11c0-.04.02-.06.04-.07l.02-.01h.08a.2.2 0 0 1 .07.1.05.05 0 0 1 0 .05l-.01.01-.12.06Z" fill="#F0F3FA"/><path d="m10.37 11.74-.4.43h-.04v-1.33l.41-.42h.03v1.32ZM8.04 11.74l-.4.43H7.6l-.01-.03v-1.3l.42-.42h.03l.01.03v1.29Z" fill="#8A7968"/><path d="m12.79 11.12-.52-.3a.06.06 0 0 0-.09.03v.01c-.02.03 0 .07.02.09l.52.3c.03 0 .07 0 .08-.03l.01-.02a.06.06 0 0 0-.02-.08ZM5.8 10.87c.09.1.16.22.2.35l-.56.35a.04.04 0 0 1-.03.01l-.02-.02-.15-.27v-.04c0-.02 0-.03.02-.03l.02-.02h.04c.01 0 .03.01.03.03l.08.13.03.02h.04l.05-.04a.04.04 0 0 0 .02-.02.04.04 0 0 0 0-.03l-.08-.14v-.05c0-.01 0-.02.02-.03l.02-.01h.04c.01 0 .02 0 .03.02l.08.13a.04.04 0 0 0 .02.02.04.04 0 0 0 .03 0l.06-.04a.05.05 0 0 0 .03-.03.05.05 0 0 0-.01-.04l-.1-.15v-.01c0-.03.03-.06.08-.09ZM9.49 11.01l.31.01c.01 0 .02 0 .03.02l.01.03v.29a.12.12 0 0 1-.03.09l-.37.35h-.02v-.37l-.03-.01H9L9 11.4a.02.02 0 0 1 0-.02l.44-.36h.05ZM12 11.16l.04-.04a.04.04 0 0 1 .04 0l.4.29h.02c.01 0 .02 0 .03-.02l.03-.04.03-.02.03.01.03.02a.05.05 0 0 1 0 .06 4.83 4.83 0 0 1-.2.29h-.02l-.03-.03-.02-.01v-.05l.03-.04v-.04l-.01-.02-.4-.28a.04.04 0 0 1-.01-.04l.02-.04ZM6.2 11.49l-.4.33a.04.04 0 0 0 0 .06l.02.02.02.02v.03a.1.1 0 0 1-.04.04.04.04 0 0 1-.06 0l-.2-.25v-.05c.03-.03.05-.04.07-.04.02 0 .04 0 .05.03v.02l.04.02.02-.01.37-.32c.06-.05.1-.02.12.1ZM12.09 12.1a.03.03 0 0 1 0 .03v.02l-.05.05-.03.01-.03-.01-.32-.32a.23.23 0 0 1-.06-.16.23.23 0 0 1 .07-.17l.01-.01c.05-.04.1-.07.17-.07.06 0 .12.02.16.06l.32.3a.04.04 0 0 1 .01.03.04.04 0 0 1 0 .03l-.06.05a.06.06 0 0 1-.08 0l-.27-.31a.1.1 0 0 0-.15 0h-.02a.1.1 0 0 0 0 .14l.33.34ZM6.78 12.04l-.4.45a.09.09 0 0 1-.1.02.1.1 0 0 1-.05-.04.1.1 0 0 1 0-.06l.09-.5v-.01H6.3l-.01-.01h-.01l-.26.32a.05.05 0 0 1-.04.02.05.05 0 0 1-.04-.01l-.03-.03a.05.05 0 0 1-.01-.06l.01-.01.4-.47c.08-.01.12.02.14.08a.1.1 0 0 1 0 .04l-.1.5a.02.02 0 0 0 .03.01l.26-.32.03-.01h.03c.05.01.07.04.07.09ZM11.73 12.47a4.96 4.96 0 0 1-.16.11s-.02 0-.03-.02l-.02-.02v-.02a.04.04 0 0 1 0-.04l.04-.04.02-.03-.01-.03-.3-.4-.01-.01v-.02c0-.01 0-.02.03-.04l.04-.03a.04.04 0 0 1 .04.02l.3.4h.06l.04-.03a.04.04 0 0 1 .06 0l.02.03.01.04c0 .01 0 .02-.02.03l-.11.1ZM11.4 12.7l-.25.16a.06.06 0 0 1-.04 0h-.03l-.01-.03-.02-.02v-.01a.04.04 0 0 1 0-.03l.02-.01.14-.09c.02 0 .03-.02.03-.04v-.05l-.02-.03a.05.05 0 0 0-.04-.02h-.04l-.13.09a.05.05 0 0 1-.08-.02v-.02l-.01-.05.03-.03.13-.08v-.01a.04.04 0 0 0 .02-.03v-.01l-.04-.07-.01-.01-.02-.01H11l-.15.1a.05.05 0 0 1-.06-.01l-.01-.02-.02-.04a.04.04 0 0 1 0-.05l.29-.17a.04.04 0 0 1 .05 0l.01.02.3.55.01.03-.01.02ZM6.74 12.6l-.08.1c0 .02-.02.03-.03.03H6.6l-.02-.02-.02-.02a.06.06 0 0 1 0-.04v-.02l.34-.52c.05-.03.09-.01.1.03a.06.06 0 0 1 0 .07l-.25.39Z" fill="#847A71"/></svg>