<!-- by TradingView --><svg width="18" height="18" viewBox="0 0 18 18" xmlns="http://www.w3.org/2000/svg"><path fill="#F0F3FA" d="M0 0h18v18H0z"/><path d="m7.75 7.95.01-.01.08-.28c.05-.15.1-.3.17-.43.1-.2.22-.35.36-.47.2-.18.44-.27.71-.28a1.51 1.51 0 0 1 .34.03 3.2 3.2 0 0 0-.67.7 4.96 4.96 0 0 0-.67 1.18 3.74 3.74 0 0 1-.48.81.31.31 0 0 1-.06.06c-.03.01-.05 0-.06-.03a1.93 1.93 0 0 1-.03-2.98c.1-.23.24-.44.44-.62.18-.17.4-.3.66-.4a4.38 4.38 0 0 1 1-.22 8.61 8.61 0 0 0-1.32 1.52c-.2.3-.34.58-.42.84a1.4 1.4 0 0 0-.06.58Z" fill="#009D36"/><path d="m6.31 10-.29.32c-.26.3-.5.55-.73.74-.19.16-.38.3-.57.4-.2.1-.38.17-.57.2-.3.03-.58-.03-.85-.18a.73.73 0 0 1-.28-.26C3 11.2 3 11.17 3 11.15h.02c.05 0 .1.02.14.03.4.1.77.07 1.14-.07.25-.1.5-.24.73-.44.28-.23.55-.53.8-.89l.39-.57A20.86 20.86 0 0 0 7 7.74c.04-.08.08-.1.11-.09.03.02.05.06.06.12.02.05.02.1.03.16l.02.3a84.85 84.85 0 0 0 .04.97l.05.27c.03.1.08.15.13.15.05.01.1 0 .14-.05.06-.04.1-.09.14-.14.1-.12.18-.25.26-.39a19.23 19.23 0 0 0 .58-1.12 4.05 4.05 0 0 1 .9-1.16.3.3 0 0 1 .14-.06c.04 0 .08.02.11.07.04.06.05.14.05.25a53.09 53.09 0 0 1-.14.77c-.07.28-.1.55-.13.83-.03.38-.01.72.05 1.01.05.25.13.45.25.63.18.27.42.47.74.59l.35.1a3.09 3.09 0 0 0 1.8-.18 9.98 9.98 0 0 0 1.17-.56A22.58 22.58 0 0 1 15 9.66l-.01.05a12.44 12.44 0 0 1-1.52 1.46 4.34 4.34 0 0 1-1.62.71 2.9 2.9 0 0 1-1.82-.05c-.25-.1-.46-.26-.64-.46-.23-.27-.4-.6-.52-1.01a4.42 4.42 0 0 1-.17-1.32 13.13 13.13 0 0 1-1.02 1.28c-.34.33-.62.46-.86.37a.61.61 0 0 1-.3-.25 1.5 1.5 0 0 1-.2-.45Z" fill="#DA251C"/><path d="M13.06 10.06a.09.09 0 0 1-.03-.05.61.61 0 0 0-.02-.08l-.05-.05v-.12c0-.02-.01-.02-.02-.03V9.7h.02l.01.02.01-.03H12.89v.01l.05.05v.01H12.87a.4.4 0 0 1-.07-.03.7.7 0 0 1-.1-.03h-.16l-.12.01a.1.1 0 0 0-.05 0 .3.3 0 0 1-.07 0H12.1a4.13 4.13 0 0 1-.58-.01H11.28l-.02-.01c-.03 0-.04-.01-.03-.03H11.39a.39.39 0 0 1 .1-.01h.13l.07.01h.16l.04.01h.04a.97.97 0 0 1 .1 0 .2.2 0 0 0 .07 0 .24.24 0 0 0 .05 0h.06a.2.2 0 0 1 .07 0 .1.1 0 0 0 .04 0 .76.76 0 0 1 .13-.02h.2c.02 0 .02.01.03.02a.1.1 0 0 0 .04-.01.01.01 0 0 1 .01 0H12.8l-.02-.08h-.04c-.03 0-.05-.02-.06-.05h-.01a.19.19 0 0 0-.04.05h-.01l-.03-.02-.04-.02a.6.6 0 0 1-.03-.03 1.3 1.3 0 0 1-.05-.03c-.02-.01-.05 0-.08.01a.32.32 0 0 1-.1.03 1.86 1.86 0 0 0-.06.01.11.11 0 0 1-.02.01h-.07v-.01l.05-.03a.77.77 0 0 0-.17 0c-.05.02-.08.03-.1.02h-.08a.4.4 0 0 1-.1 0 1.79 1.79 0 0 0-.44 0 .67.67 0 0 1-.22-.01l-.02.04h-.01v-.03H11c-.04-.02-.1-.03-.18 0a.61.61 0 0 1 .13.04.2.2 0 0 0 .07.03 3.4 3.4 0 0 1 .24.02.1.1 0 0 1-.08.04h-.1L11 9.64H11a.65.65 0 0 1-.06-.03 2.79 2.79 0 0 1-.16-.06.2.2 0 0 0-.04 0c-.04 0-.08.03-.13.09-.03.02-.07.03-.13.03a.5.5 0 0 0-.05 0c-.02 0-.03.02-.04.03 0 .02-.01.02-.02.03h-.08a.13.13 0 0 0-.06 0v.01c.02.04.05.06.08.08l.04.04a1.03 1.03 0 0 0 .1.09v.01h-.02l-.04-.02.05.05a.4.4 0 0 1 .06.04l.19.18.03.04c.01.02.03.03.06.04-.03-.04-.03-.06 0-.06l.02.02.04.04a206.44 206.44 0 0 1 .1.06l.11.04h.11a.32.32 0 0 1 .2-.03h.18l.01.02v.01a.6.6 0 0 0-.14.09 8.4 8.4 0 0 0-.25-.03 4.58 4.58 0 0 1-.47-.17l-.2-.13a3.05 3.05 0 0 0-.25-.25l-.02-.02a2.63 2.63 0 0 1-.26-.23l-.01-.01v-.01l-.02-.03a.08.08 0 0 1-.03-.03l-.05-.02v-.01l.02-.05h.09a.3.3 0 0 0 .1.02 1.75 1.75 0 0 1 .08 0 1.66 1.66 0 0 0 .25 0 .54.54 0 0 1 .22-.07c.01 0 .04 0 .07-.02a7.53 7.53 0 0 0 .64-.1.2.2 0 0 0 .04-.12 4.03 4.03 0 0 1 .53-.03 5.28 5.28 0 0 0 .41-.03 1.25 1.25 0 0 1 .32.01.48.48 0 0 1 .17.05 2.68 2.68 0 0 0 .17.1l.04.01.05.04a13.38 13.38 0 0 1 .09.1l.1.2c0 .02 0 .04.02.07l.01.08-.05.14-.05.05-.1.07Z" fill="#DA251C"/><path d="M11.35 9.2a.2.2 0 0 1-.04.11.87.87 0 0 1-.17.03 11.94 11.94 0 0 1-.54.1.54.54 0 0 0-.23.08 1.66 1.66 0 0 1-.42-.04 10.88 10.88 0 0 1 .37-.08 4.27 4.27 0 0 1 1.03-.2Z" fill="#75282A"/><path d="M12.64 9.65v-.04h.02v.03l.02.02a.01.01 0 0 0 .01 0v-.03l.02-.02.02.02h.02v.01l.01.02h.01v-.08h-.1l-.02-.01h-.01l-.02.03h-.01a.07.07 0 0 1-.03-.03.1.1 0 0 0-.05-.01h-.03c-.01.01-.03.02-.04.01l-.03.01-.04.02h-.03v-.01h-.08l-.02.01h-.12v.01l-.03.03h-.05l.03.03a.2.2 0 0 1-.07 0h-.28l-.06-.01h-.07l-.07-.02h-.06l-.1.02a.37.37 0 0 1-.08 0H11.23c0 .02 0 .03.03.03h.01c.04.02.07.02.1.02a1.49 1.49 0 0 1 .01 0H11.26l-.04-.03-.04-.01h-.07l-.04-.02h.11a.1.1 0 0 0 .08-.04l-.01-.01H11.13l-.1-.01a.2.2 0 0 1-.08-.03h-.01a.62.62 0 0 0-.11-.04h-.01c.08-.03.14-.03.18 0h.03c0-.01 0 0 0 0v.02h.02l.02-.03c.06.01.13.02.22 0l.15.01H11.73a.4.4 0 0 0 .1 0h.08l.1-.02a.77.77 0 0 1 .17 0l-.05.02v.01c.03.01.05.02.07.01h.02a2.09 2.09 0 0 1 .05-.01l.1-.04c.04-.02.07-.02.09-.01l.04.03a1.12 1.12 0 0 0 .03.02h.01l.04.03a.24.24 0 0 1 .03.03.2.2 0 0 1 .05-.06c.02.03.04.05.07.04a.7.7 0 0 1 .03 0v.01l.03.08h-.06a.01.01 0 0 0-.02 0 .1.1 0 0 1-.03.01l-.04-.02Z" fill="#DA553D"/><path d="M10.77 9.55c-.03 0-.05.02-.07.05l-.05.03a.37.37 0 0 0-.05.05.23.23 0 0 1-.07.05c0 .03.02.05.04.07l.05-.04h.01l.03.05h.02l.04-.05h.03l.04.02.05.01a.11.11 0 0 1-.07-.05l.05-.03c.03 0 .05-.03.07-.06 0-.02.01-.02.02-.02h.03l.01.02.02.08c0 .01.01.02.02.01a.52.52 0 0 0 .09-.01v-.01l-.02-.04h.06a.1.1 0 0 1 .06.06l.03-.04.04.02v.01h-.03v.01l.06.04-.01.03.04.05-.02.01h-.01l-.02-.02h-.01l-.09.06h-.02V9.9l.02-.03a.01.01 0 0 0 0-.02l-.03-.02-.05-.01H11.01L11 9.8h-.11l-.02.06-.02-.01a.28.28 0 0 0-.1-.06c-.03.05 0 .08.05.1l-.03-.04c.04 0 .06.02.08.04.02.03.02.05.01.08a.01.01 0 0 1-.01 0 .13.13 0 0 0-.08-.04c0 .03.01.05.03.06a.41.41 0 0 1 .1.1h.01l.05-.05v-.02a.12.12 0 0 0-.02-.04l-.03-.02c.04 0 .07.03.1.06l.05.03.08.07.1.04h.02v.01c.01.01 0 .03-.03.04l.02.06h-.01c-.04.02-.07.03-.09.02a2.13 2.13 0 0 1-.08-.06c0 .03 0 .06.03.07l.06.03a4.14 4.14 0 0 0 .23-.06v.01l.06.01h.09a.02.02 0 0 0 .02-.01h.06l.01.01a.1.1 0 0 1 .07 0c.01.04.03.06.05.07h.19l.05-.02.11-.04v-.01h-.03c0-.03.02-.03.06-.04h.02a.2.2 0 0 0 .05-.01l-.05-.02v-.01l.11.02h.02l.09-.03.01-.08a.32.32 0 0 1 .02-.07h.04a.01.01 0 0 0 .01-.02v-.02l.12-.01a.23.23 0 0 1 .07-.01l-.02-.03v-.02c.02-.01.04 0 .05.02v.01l.02.01v-.03h.02l.01.02h.02l.05-.04-.02-.02V9.9a.1.1 0 0 0-.02-.07h-.09l-.02.03c-.05-.01-.07-.04-.05-.09.01-.02.03-.03.05-.03l.03-.01.02-.02a.1.1 0 0 1 .03 0v.01l.05.01c.02 0 .03 0 .05.02h.03l-.01.07v.02l.02.02c0 .01.01.02.03.02v-.01l-.02-.02a.08.08 0 0 1 0-.07c0-.02.01-.02.03-.01l.04.02h.01v-.03a.01.01 0 0 0 0-.02l-.01-.02.02.02v.13-.03a.08.08 0 0 0-.04-.04v.03h.01v.02c.02.02.04.03.04.05l.02.03a.6.6 0 0 1 .02.01v-.02l.02.08c0 .02.02.04.03.05a.73.73 0 0 1-.16.11 19.06 19.06 0 0 0-.4.13 3.71 3.71 0 0 0-.35.1.94.94 0 0 1-.16.04 1.82 1.82 0 0 1-.32.03 2.2 2.2 0 0 1-.27 0 .6.6 0 0 1 .15-.08l-.01-.02-.08-.01h-.06a.5.5 0 0 1-.06 0h-.06a.32.32 0 0 0-.13.02.14.14 0 0 1-.1.01 4.59 4.59 0 0 0-.17-.07 6.4 6.4 0 0 0-.1-.07l.05.03h.01a.02.02 0 0 0 0-.02.2.2 0 0 0-.05-.03h-.01l-.02-.02h-.02v-.01l-.07-.1-.01-.01a.24.24 0 0 1-.05-.05l-.03-.02h-.02a.64.64 0 0 1 .1.1l.03.05.03.03.02.02h.02c-.02.01-.02.03.02.06v.01h-.01a.13.13 0 0 1-.06-.04.22.22 0 0 0-.03-.04 1.53 1.53 0 0 1-.2-.18l.08.06.04.04.04.04a.63.63 0 0 0 .06.05v-.01a.44.44 0 0 1-.05-.07.1.1 0 0 0-.02-.02l-.12-.1-.01-.02-.08-.04h.02v-.01l.08.05h.01l-.02-.06a.1.1 0 0 0-.04-.06c-.03 0-.05 0-.06.02l.03.05a1.03 1.03 0 0 1-.1-.1.26.26 0 0 0-.04-.03.29.29 0 0 1-.08-.08.13.13 0 0 1 .06 0l.08-.01.02-.03.04-.03a.5.5 0 0 1 .05 0c.06 0 .1 0 .12-.03.06-.06.1-.09.14-.1l.04.01Z" fill="#DA553D"/><path d="M10.77 9.55a1.01 1.01 0 0 1 .22.08H11l.07.02.04.01a.5.5 0 0 0-.04 0l.05.03-.06-.02v.01l.02.04a.01.01 0 0 1 0 .01l-.09.01-.02-.01a.23.23 0 0 1-.02-.08l-.01-.02h-.03l-.02.02c-.02.03-.04.06-.07.06a.24.24 0 0 0-.05.02c.02.03.04.04.07.05v.01h-.05l-.04-.02-.02-.01h-.01l-.04.05h-.02l-.03-.05h-.01l-.04.04h-.01a.15.15 0 0 1-.04-.07l.07-.05a2.38 2.38 0 0 1 .1-.08c.02-.03.04-.05.07-.05Z" fill="#E16B67"/><path d="m12.88 9.62-.03-.02h-.04a.02.02 0 0 1 0-.01v-.01h.04v.02h.03a.01.01 0 0 0 .01 0v-.01s0-.02-.02-.02v-.01h.01l.05.07v.02l-.03-.01c0-.01 0-.02-.02-.02Z" fill="#F7E1D7"/><path d="M12.74 9.58c-.03.02-.06.02-.09 0h-.01v.02h-.02c-.02 0-.03 0-.04-.02v.03l-.01.01-.02.03h.03a.51.51 0 0 1-.16 0l-.11.02h-.04a.2.2 0 0 0-.07 0h-.11a.1.1 0 0 1-.03-.03h.05l.03-.02V9.6c.01-.01.04-.02.08-.01h.11l.03-.01c0 .02.02.02.03 0h.04l.02-.02h.05a.1.1 0 0 1 .03-.01.1.1 0 0 1 .04 0l.01.01.03.03a.01.01 0 0 0 .01 0l.02-.03h.01l.01.01h.08ZM11.11 9.66h.06v.01l.04.01h.01l.04.03H11.38h-.05s-.02.01-.02.03a.14.14 0 0 0 .08.01l-.02-.01v-.01a.07.07 0 0 1 .04.02v-.01a.7.7 0 0 0 .15.03l.01-.04H11.63v.04h.01l.03.01h.01v-.01l-.02-.01v-.01c.03 0 .06.01.08.04a.44.44 0 0 1-.13.03c-.05 0-.1 0-.16-.02h-.07l-.05.02a.18.18 0 0 1-.03.02l.04.02a.24.24 0 0 1 .1.09h-.04l-.03-.01a.09.09 0 0 0-.02-.02h-.06v.01c0-.03-.01-.04-.03-.06a.01.01 0 0 0-.01 0l-.05.03v.01l.02.02.03-.02a.5.5 0 0 1 .06.1.25.25 0 0 1-.13.02.01.01 0 0 0-.01 0v.01c.02.04.04.05.07.05h.03l.02-.02.02.01c.03.02.04.04.05.07l.03.03c.04.04.09.05.15.04h.01l.05.02v-.08l-.07-.04v.03h-.03l-.05-.01a5.28 5.28 0 0 0-.02-.02v-.01h.03v-.04h.01v.03l.05.01h.01l.01-.01v-.01h-.03c.01 0 .03 0 .04-.02 0-.01 0-.02-.02-.03l-.03.01v-.01h-.02v-.01h-.01a.1.1 0 0 1-.02-.06h.05l.04.02.05.03c.04 0 .1 0 .16-.02l.03-.01a.36.36 0 0 1 .1 0V10h.01l.05.02h-.16v.02l.06.02h.03l.06.02.14.02.01-.01h.02l-.02-.03h-.03l-.06-.01v-.01h.04l-.08-.02a3.62 3.62 0 0 0 .16.02h.04v.02h.01c.02 0 .05-.03.08-.07h.04l-.01-.01v.02h.02V10l.02.01h.01v-.01l-.01-.02.08.05h.01V10l-.02-.02v-.01h.01a.39.39 0 0 0 .15.03v-.04h.01l.02.02h.06v-.02l.01.02-.07.02a.36.36 0 0 1-.12.01v.03a.02.02 0 0 1-.01.01h-.03a.32.32 0 0 0-.03.07.88.88 0 0 1 0 .07h-.01l-.1.04-.11-.02h-.01v.01l.05.01a.2.2 0 0 1-.07.02c-.04 0-.06.01-.07.03h.04v.01l-.11.05h-.06l-.08.02c-.04 0-.07 0-.08-.03l-.01-.01a.08.08 0 0 0-.02-.03.2.2 0 0 0-.1-.02l-.05-.01a.36.36 0 0 0-.11-.02h-.04a.08.08 0 0 1-.03.02h-.03v-.06a.5.5 0 0 0-.17-.06h-.02a.58.58 0 0 1-.08-.05.28.28 0 0 0-.05-.04l-.05-.03a.16.16 0 0 0-.04-.04.47.47 0 0 1-.08-.07V9.9l.07-.03h.01l-.01.03a.02.02 0 0 0 0 .03c.02.02.04.04.08.04l-.07-.05.01-.02.03-.04a.16.16 0 0 0 .05-.05l.01.01v-.01h-.02.08l.03.03v.01l-.02.04.02.01.09-.06a.01.01 0 0 1 .01 0l.02.02h.03l-.04-.05a.01.01 0 0 1 0-.01v-.02l-.06-.05h.04v-.01l-.03-.03-.03.04h-.01a.1.1 0 0 0-.06-.05.57.57 0 0 1-.05-.03.5.5 0 0 1 .04 0Z" fill="#EA9D80"/><path d="m12.94 9.73.01.02v.05l-.04-.02h-.05a.08.08 0 0 0 0 .08l.03.02h-.03c0-.02-.01-.02-.02-.03a.02.02 0 0 1 0-.02.13.13 0 0 0 .01-.06v-.01h-.03a.22.22 0 0 0-.05-.02.3.3 0 0 1-.05-.01l-.03-.02-.01.02h-.01l-.03.02a.06.06 0 0 0-.05.03c-.02.05 0 .08.04.09h.01l.02-.03h.08a.1.1 0 0 1 .03.07l.02.02-.05.05a.1.1 0 0 1 .02-.03l-.02-.02.01-.02V9.9a.13.13 0 0 0-.04.02.14.14 0 0 0-.03.03v.03l-.01-.01c-.01-.03-.03-.03-.05-.02v.01h-.02c-.02 0-.03 0-.04-.03l.02-.02h-.01l-.02-.01c-.02 0-.04 0-.04-.02a.32.32 0 0 0-.05-.05l-.04.02V9.8a.36.36 0 0 0-.05.02.1.1 0 0 1-.05.02l-.07-.01h-.06l-.06.01c-.03.03-.06.03-.1.02a.22.22 0 0 0-.04-.03.66.66 0 0 0-.11-.02.1.1 0 0 1-.07-.03l.1-.02h.03l.04.02a.17.17 0 0 0 .06.02l-.02-.02.02-.01v-.03l.03.02h.04v-.02a.3.3 0 0 1 .1 0h-.05l.09.02h.06a.33.33 0 0 1 .07 0l-.02-.03h.06v.01l-.02.01v.01l.04.03h.02l.02-.02.04-.02h.04a.24.24 0 0 1 .05 0l.02-.02h.01c.03 0 .04 0 .04-.02h-.13a.31.31 0 0 1 .13 0h.03a.7.7 0 0 0 .1.02.4.4 0 0 0 .07.03.27.27 0 0 0 .05 0 .16.16 0 0 0-.04-.06l.02-.01h.07v.03l-.02-.01-.02-.01v.03Z" fill="#EA9D80"/><path d="M11.62 9.7a7.72 7.72 0 0 1 .48.01 1.85 1.85 0 0 1 .2 0 .3.3 0 0 0 .08 0H12.68c0 .02 0 .03-.03.02h-.01l-.02.01c-.01 0-.03 0-.05.02h-.02l-.01-.01h-.01a.05.05 0 0 0-.04.03h-.02l-.01.01-.05-.03.02-.02h-.04l-.01-.01.01.02v.01h-.07a.34.34 0 0 1-.15-.01v-.01h.04a.3.3 0 0 0-.08 0v.02h-.05l-.02-.02h-.01v.02l-.02.02.02.02c-.02 0-.04 0-.06-.02a.47.47 0 0 0-.06-.02l-.11.02a.1.1 0 0 0 .07.03l.1.02.05.02c.04.02.07.02.1 0a.12.12 0 0 1 .06-.02h.06l.07.01a.1.1 0 0 0 .05-.02.36.36 0 0 1 .05-.03v.01a.14.14 0 0 0 0 .05l.03-.02h.01l.05.05.04.02h.02v.03c0 .02.01.03.03.04h.02l.01.02h-.05l-.03-.02V10a.01.01 0 0 1 0 .02h-.01a.4.4 0 0 1-.15-.04l-.01.01.02.03v.01h-.01a.35.35 0 0 1-.08-.05l.01.02a.01.01 0 0 1 0 .02h-.01l-.03-.02-.04.01a2.2 2.2 0 0 1-.08.07v-.02h-.05l-.01-.01h-.05a3.01 3.01 0 0 1-.1-.01l-.06-.01v-.03h-.14a.36.36 0 0 1-.16.03.14.14 0 0 1-.05-.03.15.15 0 0 0-.04-.02h-.04l.01.06h.03v.05l.03.01h.01v.02H11.47v-.04h-.01v.03h-.01v.01h-.03v.01a3.2 3.2 0 0 1 .07.03.18.18 0 0 1 .02 0v-.03h.01l.07.04v.08l-.05-.02c-.07.02-.12 0-.16-.04a.14.14 0 0 0-.03-.02.13.13 0 0 0-.05-.08h-.04a.1.1 0 0 1-.03.01c-.03 0-.05-.01-.07-.05v-.01a.25.25 0 0 0 .14-.01.5.5 0 0 0-.06-.1l-.02.01-.03-.01V9.9l.05-.04h.01c.02.02.02.04.02.06h.01c.02-.01.04-.02.06-.01l.02.02.03.01h.03a.24.24 0 0 0-.09-.09.5.5 0 0 1-.04-.02c.01 0 .02 0 .03-.02a.16.16 0 0 1 .05-.01h.23a.44.44 0 0 0 .13-.01v-.01a.12.12 0 0 0-.08-.04l.02.02v.01h-.04v-.05h-.06l-.02.04a.7.7 0 0 1-.15-.03v.01a.07.07 0 0 0-.04-.02l.02.02h-.07v-.01l.01-.02a1.45 1.45 0 0 0 .13-.02h.16Z" fill="#F7E1D7"/><path d="M11.05 9.81h.02v.02-.01h-.01l-.05.05-.02.04-.02.01v.01l.07.04v.01a.13.13 0 0 1-.08-.04.02.02 0 0 1 0-.03l.01-.02-.08.02v.01l.08.07c.02 0 .03.02.04.04a.22.22 0 0 0-.1-.07v.01l.03.02-.04-.01a.01.01 0 0 0-.02 0c-.02.02-.04.01-.06 0h-.01v.01l.05.04c.02-.02.03-.03.05-.02l.03.04h.02v-.02l-.02-.04.03.05v.01l-.06.05h-.01a.4.4 0 0 0-.1-.1.08.08 0 0 1-.03-.06c.03 0 .06.02.08.05a.01.01 0 0 0 .01 0 .09.09 0 0 0-.01-.09.11.11 0 0 0-.08-.04l.04.05c-.07-.03-.09-.06-.07-.1V9.8c.04 0 .07.03.11.06h.01v.01h.01c0-.03.01-.04.02-.05l.05-.02H11l.02.02h.03ZM10.42 9.96l.08.04v.01l.13.1.02.03a.44.44 0 0 0 .06.07h-.01a.66.66 0 0 1-.06-.04.9.9 0 0 0-.04-.04.44.44 0 0 1-.04-.04.38.38 0 0 0-.07-.06.4.4 0 0 0-.06-.04.12.12 0 0 1-.05-.05l.04.02ZM11.99 10.35l-.05.01a.32.32 0 0 1-.19 0c-.02 0-.04-.02-.04-.06a.01.01 0 0 0-.01 0 .1.1 0 0 0-.06 0h-.02c-.03-.02-.05-.02-.06-.01h-.02l-.09.01h-.05l-.02-.01h-.05a4.3 4.3 0 0 1-.17.05.18.18 0 0 1-.06-.03.08.08 0 0 1-.03-.07c.02 0 .03.02.06.04l.02.02.09-.01-.01-.07c.03-.01.04-.03.04-.04h-.02a.49.49 0 0 1-.11-.05.85.85 0 0 1-.08-.07l.05.04a.57.57 0 0 0 .1.05.5.5 0 0 1 .17.06v.05l.03.01.03-.01.04-.01c.04 0 .08 0 .11.02a.2.2 0 0 0 .05 0 .2.2 0 0 1 .1.03l.02.03v.02l.09.02a16.25 16.25 0 0 0 .14-.02Z" fill="#E16B67"/><path d="m11.1 10.39-.08-.02a.46.46 0 0 0-.04-.12.06.06 0 0 0-.03-.04v-.02l-.01-.01-.02-.02v-.01l.04.01v.02a.15.15 0 0 1 .05.1 1.66 1.66 0 0 0 .09.11Z" fill="#EA9D80"/></svg>