<!-- by TradingView --><svg width="18" height="18" viewBox="0 0 18 18" xmlns="http://www.w3.org/2000/svg"><path fill="#F0F3FA" d="M0 0h18v18H0z"/><path d="M8.7 11.05c.02 0 .02.01.02.02l-.94 2.92-.02.01-.08-.01-.01-.02 1-2.92s0-.01 0 0h.04Zm-.45-.23c.01 0 .02.02 0 .04l-2 3.11a.05.05 0 0 1-.05.03l-.1-.01-.02-.01v-.02l2.12-3.13c.01-.02.03-.02.05-.01Zm.76.31c.02 0 .03.01.03.03l-.4 2.82c0 .01 0 .02-.02.01l-.05-.01-.02-.04.43-2.78c0-.02.02-.03.03-.03Zm-.16-.03c.02 0 .02.02.02.03l-.64 2.84c0 .02-.02.02-.04.02h-.05c-.02 0-.02-.01-.02-.03l.7-2.84c0-.02.01-.03.03-.02Zm.34.05c.02 0 .03.01.03.03l-.17 2.79c0 .01-.01.02-.03.02H9s-.02-.01-.02-.03l.17-2.79.02-.02h.03ZM8.54 11c.01 0 .02.02.01.03l-1.22 2.93-.04.03h-.1v-.01L8.49 11c.02-.02.03-.03.05-.02Zm-.15-.08c.02 0 .02.02.01.04l-1.58 3.01c-.01.02-.02.02-.04.02H6.66v-.01l1.69-3.04c0-.02.02-.03.04-.02Zm1 .25.07 2.81-.01.01h-.06l-.08-2.82H9.39Zm.14-.03c.01 0 .02 0 .02.02l.31 2.78-.01.02H9.8l-.02-.01-.31-2.78.01-.02h.04Zm-1.41-.42a191.61 191.61 0 0 1-2.47 3.2h-.01l-.09-.08a195.94 195.94 0 0 1 2.56-3.13Zm1.6.4.54 2.75v.02h-.07l-.55-2.76.01-.01.05-.01h.01Zm.12-.06c.02 0 .03 0 .04.02l.78 2.67c0 .01 0 .03-.02.04h-.02c-.01 0-.03 0-.03-.02L9.8 11.1c0-.01 0-.03.02-.03l.01-.01Zm.19-.05 1.01 2.6s0 .03-.02.03h-.05l-1-2.6V11l.02-.01.04.01Zm-2.06-.42.03.03v.01l-2.74 2.94h-.02l-.08-.1v-.02l2.8-2.86h.01Zm2.2.35 1.24 2.48-.01.05h-.01l-.04-.01-1.24-2.49c0-.02 0-.03.02-.04.02-.02.04-.01.05 0Zm.15-.1 1.44 2.37v.05h-.01a.03.03 0 0 1-.05-.01l-1.44-2.37a.04.04 0 0 1 0-.04h.01c.02-.02.04-.01.05 0Zm-2.46-.38.02.03v.02l-2.84 2.54-.02-.01-.02-.15v-.01l2.84-2.42h.02Zm2.6.28 1.64 2.22v.06a.03.03 0 0 1-.05-.01l-1.65-2.22a.04.04 0 0 1 0-.05c.02-.02.04-.01.06 0Zm.12-.12 1.84 2.07v.05a.03.03 0 0 1-.05 0l-1.84-2.07a.04.04 0 0 1 0-.05.03.03 0 0 1 .05 0Zm.1-.13 2.03 1.9c.01.01.02.03 0 .05a.03.03 0 0 1-.04 0l-2.03-1.9a.04.04 0 0 1 0-.05.03.03 0 0 1 .05 0Zm-2.91-.16-.01.05-2.73 2.01h-.01L5 12.27c0-.02 0-.03.02-.04l2.7-1.92.04.01Zm3.02.02 2.19 1.7c.01.02.02.04 0 .06a.03.03 0 0 1-.04 0l-2.2-1.7a.04.04 0 0 1 0-.05.03.03 0 0 1 .05-.01Zm-3.11-.17-.01.04-2.64 1.6H5v-.1c0-.02 0-.04.02-.04l2.62-1.5c.01-.02.02-.01.03 0Zm3.2.02 2.34 1.5c.01.01.02.03.01.05-.01.02-.03.02-.05.01l-2.34-1.5a.04.04 0 0 1 0-.05.03.03 0 0 1 .04 0Zm.07-.15 2.48 1.28c.02 0 .02.03.02.04-.01.02-.03.03-.05.02l-2.48-1.28a.04.04 0 0 1-.01-.05c0-.01.03-.02.04-.01Zm-3.35-.02-.01.04-2.56 1.24-.01-.01v-.12l.01-.02L7.57 10c.01 0 .03 0 .03.02Zm6.01.9c.02 0 .02.03.02.04-.01.02-.03.03-.04.02l-2.6-1.04a.03.03 0 0 1-.02-.04c0-.02.03-.03.04-.03l2.6 1.05ZM7.54 9.85c0 .03 0 .04-.02.05l-2.49.92-.01-.01-.01-.05.01-.06.02-.02 2.47-.85c.02 0 .03 0 .03.02Zm6.21.65c.02.01.03.03.03.05l-.04.02-2.7-.8c-.02 0-.02-.02-.02-.03 0-.02.02-.03.04-.03l2.7.8Zm-6.29-.84c.02 0 .03 0 .04.02 0 .03 0 .04-.03.04l-2.43.65-.02-.01-.01-.09.01-.02 2.44-.59Zm6.4.42c.02 0 .03.02.03.03v.01c0 .02-.02.03-.04.02l-2.77-.53a.03.03 0 0 1-.02-.04c0-.02.02-.03.03-.03l2.77.54Zm-6.43-.6c.02 0 .03.01.03.03 0 .02 0 .03-.02.04l-2.4.4c-.02 0-.03 0-.03-.02v-.08c0-.02 0-.02.02-.02l2.4-.34Zm6.51.16.02.03v.01c0 .02-.01.03-.03.03l-2.83-.28c-.02 0-.03-.01-.03-.02v-.02l.03-.02 2.84.27Zm-6.51-.33c.02 0 .03 0 .03.02 0 .03-.01.04-.03.04l-2.4.17L5 9.52v-.09s.01-.02.03-.02l2.39-.1Zm6.55-.3h.01a.8.8 0 0 1 0 .18v.02h-2.87c-.04 0-.05-.01-.05-.03 0-.02.01-.04.04-.04.91-.03 1.87-.08 2.87-.14Zm-6.54.12c.02 0 .02 0 .02.02 0 .03-.01.04-.03.03l-2.4-.05C5 9.13 5 9.13 5 9.1v-.08C5.03 9 5.04 9 5.05 9l2.4.12Zm6.52-.57.02.01a.8.8 0 0 1 .02.18l-.02.01c-1 .09-1.97.18-2.89.28-.03 0-.05 0-.05-.03 0-.02.01-.04.05-.04l2.87-.41Zm-8.93.04a78.76 78.76 0 0 1 2.47.38c0 .02-.25 0-.73-.05l-1.75-.21L5 8.7v-.1l.02-.01Zm8.88-.5.01.02a.86.86 0 0 1 .04.17l-.01.02c-1.01.19-1.98.38-2.89.57-.03 0-.05 0-.05-.03 0-.02 0-.03.04-.04l2.86-.7Zm-6.39.68.01.01v.04l-.01.01-2.5-.54L5 8.29v-.1c0-.02 0-.02.02-.02l2.5.61Zm6.3-1.1a.81.81 0 0 1 .06.17l-.01.02c-1 .28-1.96.56-2.86.84-.03 0-.05 0-.06-.02 0-.02 0-.04.04-.05a122.18 122.18 0 0 0 2.84-.96Zm-6.25.94c.01 0 .02.01.02.03 0 .02-.02.03-.04.02l-2.51-.8-.02-.02L5 7.74c0-.01 0-.02.01-.01l2.55.89Zm6.12-1.38a.8.8 0 0 1 .07.17l-.01.02c-.99.38-1.92.76-2.8 1.12-.03.02-.05.01-.06-.01-.01-.02 0-.04.03-.05a125.2 125.2 0 0 0 2.77-1.25Zm-8.66.02 2.6 1.2.02.01v.03c0 .02-.02.02-.03.01l-2.6-1.1-.01-.03v-.11c0-.02 0-.02.02-.01Zm8.49-.44a.85.85 0 0 1 .08.16V7c-.96.48-1.87.95-2.72 1.4-.03.02-.05.01-.06 0-.01-.03 0-.05.03-.06a127.99 127.99 0 0 0 2.67-1.52Zm-8.5-.08 2.72 1.58v.01l-.02.04h-.01L5 6.91v-.16h.01Zm8.3-.33a.85.85 0 0 1 .09.16l-.01.02c-.91.57-1.78 1.13-2.6 1.67h-.06c-.01-.03 0-.05.02-.06a128.84 128.84 0 0 0 2.55-1.79Zm-8.3-.24 2.79 2v.04l-.02.01-2.76-1.84-.01-.01L5 6.33v-.15h.02Zm8.05-.14a.8.8 0 0 1 .1.15v.02c-.87.66-1.68 1.3-2.46 1.91-.02.02-.04.03-.06 0-.01-.01 0-.03.02-.05a131.77 131.77 0 0 0 2.4-2.03Zm-8.04-.5 2.87 2.5c.02.01.02.03 0 .04 0 .02 0 .02-.01.01l-2.87-2.3v-.01L5 5.73v-.19h.02Zm7.76.14a.83.83 0 0 1 .12.14v.02c-.81.74-1.57 1.45-2.29 2.14-.02.03-.04.03-.06.01-.01-.02-.01-.04.01-.06a135.23 135.23 0 0 0 2.22-2.25Zm-7.71-.84C6.04 5.86 7.02 6.88 8 7.9v.04h-.04L5.04 5.1A.08.08 0 0 1 5 5.02l.03-.18.02-.01h.02Zm7.4.51a.79.79 0 0 1 .13.13v.02c-.74.81-1.44 1.6-2.09 2.35-.02.02-.04.03-.06.01-.02-.01-.01-.03 0-.06a135.39 135.39 0 0 0 2.02-2.45Zm-7.1-1.03c.89 1.15 1.8 2.3 2.73 3.44.02.02.01.03 0 .05h-.04c-.96-1.13-1.9-2.23-2.85-3.3-.02 0-.02-.03 0-.04l.11-.15h.04Zm6.76.73a.79.79 0 0 1 .15.11v.03c-.67.87-1.3 1.71-1.88 2.52-.02.03-.04.04-.06.02v-.06a137.3 137.3 0 0 0 1.8-2.62Zm-6.27-.99c.76 1.19 1.55 2.37 2.35 3.56v.05l-.02.02-.02-.01A196.4 196.4 0 0 0 5.63 4.1l.01-.02.18-.06c.02 0 .04 0 .05.02Zm5.91.72a.85.85 0 0 1 .15.1v.02c-.58.93-1.12 1.82-1.63 2.67-.02.03-.04.04-.06.03-.02-.01-.02-.03 0-.06a137.83 137.83 0 0 0 1.54-2.76Zm-3.44 2.7v.05c-.02.02-.03.02-.04 0l-2.02-3.4-.04-.06c-.03-.03-.03-.05-.02-.06h.25l1.87 3.48Zm3.14-2.9a.8.8 0 0 1 .07.05v.02c-.49.97-.95 1.9-1.37 2.78-.02.03-.04.04-.06.03a138.73 138.73 0 0 0 1.27-2.91l.09.04ZM7.03 4c.46 1.1.94 2.19 1.42 3.28v.01l.02.08c0 .01-.01.02-.03.02l-.02-.01L6.8 4h.23Zm4.04.38.08.04v.02c-.4.98-.76 1.92-1.1 2.82-.02.04-.03.05-.05.04-.02 0-.03-.03-.01-.06a136.09 136.09 0 0 0 1-2.89c.03 0 .05.02.08.03ZM8.6 7.17v.05h-.01l-.02.01c-.01 0-.02 0-.02-.02L7.35 4h.2L8.6 7.17Zm2.05-2.95c.03 0 .05.02.08.03v.02c-.3.98-.57 1.92-.82 2.82-.01.04-.03.05-.05.04-.02 0-.02-.02-.02-.05a131.99 131.99 0 0 0 .73-2.88l.08.02Zm-1.9 2.77-.01.05v.01l-.03.01-.01-.01L7.85 4h.2l.7 2.99Zm1.54-2.87c.01 0 .02.01.01.02l-.56 2.8h-.02l-.04-.03V6.9l.44-2.8.01-.01.16.03ZM8.92 6.8c0 .03 0 .04-.02.06l-.03.01-.01-.02L8.32 4h.2l.4 2.8Zm.93-2.75h.01l-.3 2.68-.01.02h-.02l-.01-.02a.07.07 0 0 1-.02-.06l.18-2.64h.01l.16.02Zm-.74 2.51-.01.06-.02.02h-.03L8.78 4h.19l.14 2.55Zm.3-2.54v.02l-.06 2.44-.01.01h-.02l-.03-.04a.1.1 0 0 1-.02-.06L9.23 4H9.4Z" fill="#017ACE"/></svg>