<!-- by TradingView --><svg width="56" height="56" viewBox="0 0 56 56" xmlns="http://www.w3.org/2000/svg"><path fill="#F0F3FA" d="M0 0h56v56H0z"/><path d="M48 25.47h-3c-.3-1.77-1.42-2.94-3.2-2.94-2.96 0-3.8 2.93-3.8 5.47 0 2.56.82 5.47 3.8 5.47 1.73 0 2.89-1.12 3.2-2.85l3 .01a6.36 6.36 0 0 1-1.96 3.8c-.54.5-1.17.88-1.89 1.16a6.7 6.7 0 0 1-2.4.41C37.32 36 35 32.06 35 28c0-4.05 2.33-8 6.76-8 .82 0 1.58.12 2.29.36a5.78 5.78 0 0 1 3.24 2.8c.36.67.6 1.44.71 2.3ZM31.06 24.49a2.07 2.07 0 0 0-.9-1.55 3.47 3.47 0 0 0-2.05-.56c-.59 0-1.1.1-1.51.27-.43.18-.75.42-.97.72a1.75 1.75 0 0 0-.13 1.88c.16.24.36.45.62.61.26.16.55.3.86.41.32.11.64.2.96.28l1.46.37c.6.13 1.16.32 1.7.55a6 6 0 0 1 1.48.88A3.84 3.84 0 0 1 34 31.4a4.2 4.2 0 0 1-2.73 4.02c-.88.39-1.95.58-3.2.58a8.17 8.17 0 0 1-3.17-.56 4.71 4.71 0 0 1-2.1-1.64c-.49-.72-.76-1.6-.8-2.63h2.79c.04.54.2 1 .5 1.35.3.36.68.63 1.15.8.48.18 1.02.27 1.6.27.62 0 1.16-.09 1.62-.27.47-.19.84-.45 1.1-.78.27-.33.4-.72.4-1.16 0-.41-.12-.74-.35-1-.23-.28-.56-.5-.99-.68-.41-.18-.9-.34-1.46-.48l-1.78-.46a7.17 7.17 0 0 1-3.05-1.5 3.44 3.44 0 0 1-1.12-2.67 4 4 0 0 1 .75-2.41 4.94 4.94 0 0 1 2.05-1.6 7.16 7.16 0 0 1 2.94-.58c1.11 0 2.08.2 2.92.58.84.38 1.5.9 1.98 1.58.47.68.72 1.45.74 2.33h-2.73ZM9 36V20h5.89c1.2 0 2.22.21 3.04.64a4.33 4.33 0 0 1 1.86 1.8c.42.76.63 1.66.63 2.68 0 1.02-.21 1.91-.64 2.67a4.28 4.28 0 0 1-1.88 1.74c-.83.4-1.84.47-3.05.47h-4.2v-2.27h3.82c.7 0 1.28-.1 1.73-.3.45-.2.78-.49 1-.88.22-.39.33-.87.33-1.43 0-.57-.11-1.05-.33-1.46-.22-.4-.56-.7-1-.92a4.07 4.07 0 0 0-1.75-.32H12V36H9Zm8.11-7.25L21 36h-3.17L14 28.75h3.1Z" fill="#BC3747"/></svg>