<!-- by TradingView --><svg width="56" height="56" viewBox="0 0 56 56" xmlns="http://www.w3.org/2000/svg"><path fill="#F0F3FA" d="M0 0h56v56H0z"/><path d="M35.67 21.47c-.03-.03-.05-.05-.07-.05a5.69 5.69 0 0 1-7.36-4.87 7.33 7.33 0 0 1-.44-3.3c.06-.7.16-1.39.32-2.05l.31-.2h.03l.01.03c-.9 3.84-.07 6.57 2.5 8.2a18.49 18.49 0 0 0 4.96 2.03l-.01.03-.25.18Z" fill="#0078BF"/><path d="M28.12 11.2c-.16.66-.26 1.35-.32 2.05-.1 1.23.05 2.33.44 3.3a5.69 5.69 0 0 0 2.07 2.6c.69.5 1.53.93 2.53 1.33a30.15 30.15 0 0 0 2.76.94c-.05.07-.11.1-.2.08-.63-.16-1.52-.45-2.66-.87a11.1 11.1 0 0 1-2.48-1.28 5.76 5.76 0 0 1-2.23-2.84 7.71 7.71 0 0 1-.32-3.6c.07-.56.16-1.13.27-1.72.12-.1.16-.09.14.01Z" fill="#D9DADA"/><path d="M27.98 11.2c-.1.58-.2 1.15-.27 1.71a7.71 7.71 0 0 0 .32 3.6 5.76 5.76 0 0 0 2.23 2.84c.76.53 1.6.95 2.48 1.28 1.15.42 2.03.7 2.67.87.08.02.14 0 .19-.08.02 0 .04.02.07.05l-7.03 4.78a.52.52 0 0 1-.1.05c-.14.05-.28.14-.43.26a.1.1 0 0 1-.1.02 29.9 29.9 0 0 1-2.97-.99 8.8 8.8 0 0 1-3.33-2.13 5.86 5.86 0 0 1-1.46-3.37c-.14-1.14-.04-2.37.29-3.7.02-.1.08-.2.18-.26l7.27-4.94Zm-5.05 6-.4.2a5.8 5.8 0 0 0-.18 2.68c.18 1.2.79 2.13 1.8 2.78.75.47 1.6.87 2.54 1.18.56.19.86.29.93.3.06.02.12 0 .17-.03l3.13-2.12.02-.02v-.06l-.02-.03a7.67 7.67 0 0 1-5.28-6.66c0-.03-.02-.04-.05-.02l-2.66 1.8Z" fill="#2EB8C5"/><path d="M27.21 27.16c.02 0 .02 0 0 .02l-.67.47a17.92 17.92 0 0 1-5.2-2.11 5.79 5.79 0 0 1-2.52-3.69 9.92 9.92 0 0 1 .22-4.51l.69-.47a10.73 10.73 0 0 0-.23 4.3 5.65 5.65 0 0 0 1.66 3.14 9.19 9.19 0 0 0 3.12 1.88c.96.37 1.93.7 2.93.97Z" fill="#13447E"/><path d="M22.93 17.2c-.41 2.1-.1 3.68.94 4.76.45.47 1.09.9 1.92 1.27.5.23 1.23.5 2.22.83h.04a.46.46 0 0 1-.2.14.15.15 0 0 1-.09 0c-1.16-.32-2.2-.74-3.11-1.25a4.2 4.2 0 0 1-1.79-1.77 4.07 4.07 0 0 1-.36-1.21 8.24 8.24 0 0 1 .03-2.57l.4-.2Z" fill="#0078BF"/><path d="M22.53 17.4a8.25 8.25 0 0 0-.03 2.57c.07.46.2.87.36 1.2.35.71.95 1.3 1.8 1.77.9.52 1.94.94 3.1 1.26h.1a.46.46 0 0 0 .19-.13l2.88-1.96c.02.02.02.04.01.06l-.02.02-3.13 2.12a.21.21 0 0 1-.17.03c-.07-.01-.38-.11-.93-.3-.95-.31-1.8-.7-2.53-1.18a3.85 3.85 0 0 1-1.81-2.78 5.8 5.8 0 0 1 .18-2.68Z" fill="#D9DADA"/><path d="M25.33 28.58a.2.2 0 0 0-.08-.07c.06-.01.1-.03.13-.05a.04.04 0 0 0 .03-.05c0-.02-.02-.03-.04-.04a38.7 38.7 0 0 1-2.16-.68c-.8-.28-1.5-.58-2.1-.9a6.44 6.44 0 0 1-3.03-3.13c-.6-1.47-.66-3.28-.15-5.45l.32-.22h.03c.01 0 .02.01.01.02-.24.97-.36 1.99-.34 3.05a5.9 5.9 0 0 0 2.05 4.6c.83.72 1.99 1.34 3.47 1.86a33.53 33.53 0 0 0 2.3.74c0 .01 0 .02-.02.03l-.42.29Z" fill="#679F30"/><path d="M17.93 18.21c-.51 2.17-.46 3.98.15 5.45a6.44 6.44 0 0 0 3.03 3.12c.6.32 1.3.63 2.1.91.54.2 1.26.42 2.16.68.02 0 .03.02.03.04s0 .04-.02.05a.45.45 0 0 1-.13.05 18.9 18.9 0 0 1-4.9-1.96 5.97 5.97 0 0 1-2.34-2.62 7 7 0 0 1-.53-3.46c.06-.74.16-1.5.31-2.27l.1-.06h.03c.02 0 .02.01.02.03l-.01.04Z" fill="#D9DADA"/><path d="M17.8 18.2c-.16.77-.26 1.53-.32 2.27a7 7 0 0 0 .53 3.46 5.97 5.97 0 0 0 2.35 2.62 18.9 18.9 0 0 0 4.9 1.96.2.2 0 0 1 .07.07l-6.87 4.67a.37.37 0 0 1-.08.04c-.15.06-.3.15-.46.27a.1.1 0 0 1-.1.02 26.3 26.3 0 0 1-3.38-1.15 8.72 8.72 0 0 1-2.9-1.95 5.84 5.84 0 0 1-1.48-3.38c-.14-1.14-.04-2.37.29-3.7.03-.12.1-.21.2-.29l7.24-4.91Zm-5.03 5.98-.42.21c-.26.82-.33 1.7-.2 2.66.11.72.37 1.34.78 1.87.38.49.91.91 1.6 1.27.86.46 1.8.83 2.82 1.12.15.05.26.02.32-.08.1-.07.15-.13.16-.18h.08l2.83-1.93c.03-.02.03-.04 0-.05a9.4 9.4 0 0 1-3.35-2.36 7.54 7.54 0 0 1-1.95-4.29c0-.03-.02-.03-.05-.02l-2.62 1.78Z" fill="#B0CB1F"/><path d="m29.53 27.4-.78-.25a.03.03 0 0 1-.02-.03l.01-.03 7.66-5.28h.03l.78.25c.01 0 .02.01.02.03l-.01.03-7.66 5.28h-.03Z" fill="#13447E"/><path d="M37.64 22.63c.99.3 1.93.61 2.83.95.9.33 1.71.75 2.45 1.26 1.28.89 2.1 2.1 2.43 3.61a9.95 9.95 0 0 1-.17 4.4c0 .02 0 .03.02.03h.03c.03 0 .05-.01.06-.04.35-1.42.46-2.7.31-3.88a5.75 5.75 0 0 0-1.61-3.47 9.12 9.12 0 0 0-2.84-1.83c-.76-.33-1.84-.7-3.24-1.1l.21-.14a.1.1 0 0 1 .08-.02c1.1.32 1.99.6 2.68.87.96.38 1.77.8 2.43 1.25a5.83 5.83 0 0 1 2.66 4.55 11.05 11.05 0 0 1-.37 3.66l-7.3 4.96a.42.42 0 0 1-.11.03.2.2 0 0 0-.08.04l-.32.22a.04.04 0 0 1-.04 0c-.02-.01-.02-.03-.02-.04.07-.27.15-.7.23-1.26a8.8 8.8 0 0 0-.04-3.1 5.67 5.67 0 0 0-1.37-2.74 9.15 9.15 0 0 0-3.6-2.23c-.95-.36-1.84-.64-2.67-.87-.03 0-.04-.02-.01-.04.11-.11.2-.19.25-.22 2.4-1.65 4.78-3.26 7.12-4.85Zm2.9 10.91.01.03h.04l2.64-1.82a.14.14 0 0 0 .06-.1c.15-.8.19-1.55.11-2.23a4 4 0 0 0-.75-2.03c-.37-.48-.86-.9-1.48-1.24-.92-.5-1.94-.92-3.06-1.23-.03-.01-.06 0-.08.01l-2.78 1.92c-.02.01-.02.03 0 .04l.75.39c1.2.6 2.18 1.4 2.95 2.38a7.76 7.76 0 0 1 1.59 3.88Z" fill="#EF7F1A"/><path d="M12.77 24.18c-.17.71-.22 1.5-.16 2.34.1 1.31.68 2.31 1.73 3 .85.56 2.02 1.07 3.5 1.53-.03.05-.08.1-.17.18-.64-.18-1.39-.44-2.24-.8a6.47 6.47 0 0 1-1.92-1.17 3.54 3.54 0 0 1-1.1-1.8 7.75 7.75 0 0 1-.06-3.07l.42-.21Z" fill="#679F30"/><path d="m40.5 33.62.02.02v.03l-.38.23c-.04.02-.06.02-.06-.02a7.66 7.66 0 0 0-1.7-4.07 9.77 9.77 0 0 0-3.65-2.67.51.51 0 0 1 .13-.1h.02c1.3.56 2.38 1.3 3.24 2.19a7.5 7.5 0 0 1 2.09 4.48c0 .03.01.04.04.05h.06l.2-.14Z" fill="#D9DADA"/><path d="M28.7 28.8c-.02 0-.02 0 0-.01l.67-.48a17.92 17.92 0 0 1 5.2 2.11 5.79 5.79 0 0 1 2.52 3.68 9.9 9.9 0 0 1-.22 4.52l-.68.47h-.01c.37-1.62.45-3.06.23-4.3a5.65 5.65 0 0 0-1.66-3.14 9.2 9.2 0 0 0-3.12-1.88c-.96-.37-1.94-.7-2.94-.97ZM19.44 34.26l-.77-.25c-.02 0-.03-.02-.03-.03 0-.01 0-.02.02-.03l7.65-5.28h.03l.78.25.02.02-.01.03-7.66 5.29h-.03Z" fill="#13447E"/><path d="M35.13 39.92c-.05 0-.08-.02-.07-.04a.13.13 0 0 0 .05-.08c.34-1.37.44-2.63.31-3.77a5.74 5.74 0 0 0-1.5-3.42 8.82 8.82 0 0 0-2.88-1.92c-.73-.32-1.84-.7-3.31-1.14l.2-.13a.1.1 0 0 1 .08-.02c1.04.3 2.02.62 2.94.98a8.71 8.71 0 0 1 3.47 2.27c.77.9 1.22 2 1.36 3.35.11 1.1 0 2.31-.31 3.65a.1.1 0 0 1-.05.06l-.3.21Z" fill="#13447E"/><path d="M27.73 29.55c1.47.44 2.58.82 3.31 1.14a8.82 8.82 0 0 1 2.88 1.92 5.74 5.74 0 0 1 1.5 3.42c.13 1.14.03 2.4-.3 3.77l-.06.08h-.04c-.02-.02-.02-.03-.02-.05.32-1.35.42-2.6.28-3.72a5.75 5.75 0 0 0-1.51-3.37 8.82 8.82 0 0 0-2.88-1.92 29.9 29.9 0 0 0-3.34-1.14.14.14 0 0 0-.12.02l-1.35.91a.8.8 0 0 0-.02-.02l1.5-1.03a.13.13 0 0 1 .09-.03l.08.02Z" fill="#D9DADA"/><path d="M35.06 39.88c0 .02.02.03.07.04L28.1 44.7a.38.38 0 0 1-.1.02l-.04.02-.37.25h-.04l-.01-.03c.8-3.42.23-5.98-1.74-7.66-.91-.78-2.23-1.45-3.97-2.02-.8-.27-1.38-.45-1.72-.54-.03 0-.04-.02-.02-.05.08-.1.15-.15.23-.18l5.76-3.9 1.35-.91a.14.14 0 0 1 .12-.02c1.49.44 2.6.82 3.34 1.14a8.81 8.81 0 0 1 2.88 1.92c.84.88 1.34 2 1.5 3.37.15 1.12.05 2.37-.27 3.72 0 .02 0 .03.02.04h.04Zm-10.04-6a.44.44 0 0 0-.29.15c-.06 0-.11.03-.16.09-.02.02-.01.04.02.06a9.68 9.68 0 0 1 3.6 2.63 7.77 7.77 0 0 1 1.7 4.05c.01.03.02.04.05.03.11-.05.24-.12.38-.22l2.76-1.9c.17-.83.21-1.63.13-2.41a3.93 3.93 0 0 0-2.07-3.12 13.05 13.05 0 0 0-3.27-1.3l-2.85 1.93Z" fill="#0078BF"/><path d="m26.06 30.59.02.02-5.76 3.9 5.74-3.92Z" fill="#2EB8C5"/><path d="M25.02 33.87c.39.19.76.38 1.12.58A8.64 8.64 0 0 1 29 36.97a7.57 7.57 0 0 1 1.34 3.6.48.48 0 0 1-.26.18c-.03 0-.05 0-.05-.04a7.64 7.64 0 0 0-1.44-3.7 8.92 8.92 0 0 0-3.11-2.6l-.75-.38c.08-.09.17-.14.29-.16Z" fill="#13447E"/><path d="m24.73 34.03.75.38a8.92 8.92 0 0 1 3.1 2.6 7.64 7.64 0 0 1 1.45 3.7c0 .03.02.04.05.04.1-.03.19-.09.26-.18l2.74-1.8a152 152 0 0 1-2.76 1.9c-.14.1-.27.17-.38.22-.03 0-.04 0-.04-.03a7.78 7.78 0 0 0-1.72-4.05 9.68 9.68 0 0 0-3.6-2.63c-.02-.02-.03-.04 0-.06.04-.06.1-.09.15-.09Z" fill="#D9DADA"/></svg>