<!-- by TradingView --><svg width="18" height="18" viewBox="0 0 18 18" xmlns="http://www.w3.org/2000/svg"><path fill="#F0F3FA" d="M0 0h18v18H0z"/><path d="M8.11 7.8c.05-.28.12-.53.19-.74a8.29 8.29 0 0 1 .96-1.96h-.03a6.37 6.37 0 0 0-1.47 2.6 3.8 3.8 0 0 1-.8-.67 1.87 1.87 0 0 1-.48-.88l-.01-.35a.2.2 0 0 1 0-.06c.17-.64.65-1.23 1.47-1.76.58-.37 1.18-.7 1.8-.98.02 0 .04 0 .04.02l.05.15c.34.65.58 1.25.74 1.79.06.18.1.46.15.82.04.36-.01.7-.17 1.06-.16.36-.45.63-.88.8a3.2 3.2 0 0 1-1.56.16Z" fill="#86C235"/><path d="M8.11 7.8v.08a5.3 5.3 0 0 0 .38 2.34c0 .03.02.03.04.02l1.1-.61c.33-.2.65-.4.94-.65a2.81 2.81 0 0 0 .55-.6c-.1.27-.25.53-.46.8a3.59 3.59 0 0 1-.7.64v.03h-.05c-.43.23-.84.49-1.22.78-.03.02-.04.05-.03.08l.04.09.43.95a2.46 2.46 0 0 1 .24 1.47l-.06.37-.1.38c0 .02-.02.03-.04.03H6.82c-.04-.01-.05-.04-.04-.08.01-.08-.03-.2-.14-.34a2 2 0 0 0-.27-.3c-.42-.37-.48-.84-.2-1.43.3-.59.77-.98 1.43-1.18.03-.01.04-.03.04-.06a6.4 6.4 0 0 1 1.6-5.5h.02v.02a8.29 8.29 0 0 0-.96 1.93c-.07.21-.14.46-.19.74Zm-.6 4.54c.02.27.2.55.53.86h.02a1.7 1.7 0 0 0-.17-1.79h-.02c-.27.36-.4.67-.37.93Z" fill="#4F1E1B"/><path d="M9.96 9.85v-.03h.01c.26-.2.49-.4.69-.65a2.67 2.67 0 0 0 .46-.8c-.16.24-.34.44-.55.61-.3.24-.6.46-.94.65a2.32 2.32 0 0 1-.37-.8V8.55c.12-.4.46-.7 1.03-.92a8.33 8.33 0 0 1 1.6-.38c.03 0 .05 0 .05.04.05.43.06.82.06 1.15 0 .22-.04.44-.11.68-.1.32-.26.56-.49.72-.24.17-.54.23-.9.18a2.7 2.7 0 0 1-.54-.16Z" fill="#86C235"/></svg>