<!-- by TradingView --><svg width="18" height="18" viewBox="0 0 18 18" xmlns="http://www.w3.org/2000/svg"><path fill="#F0F3FA" d="M0 0h18v18H0z"/><path d="M5.9 5.32A5.56 5.56 0 0 1 9.5 4 5.41 5.41 0 0 1 15 9.33a5.3 5.3 0 0 1-2.74 4.62v-.39a4.97 4.97 0 0 0 2.4-4.23c0-2.76-2.3-5-5.15-5-1.15 0-2.21.37-3.07 1H5.9Z" fill="#34BECE"/><path d="M4.62 5c-.34 0-.62.3-.62.64s.28.65.62.65h3.42c.36 0 .66.34.66.71 0 .37-.31.71-.68.71H3.94c-.34 0-.6.3-.6.65 0 .34.27.64.61.64h5.53v1H3.62c-.34 0-.62.3-.62.64s.28.79.62.79h4.26l.62-.93c.1.06.37.3 1.24.3.78.02 1.46 1.72 1.77 2.72a4.5 4.5 0 0 0-2-8.52H4.62ZM8.91 14l-1.1-.9-.04-.39H4.62c-.34 0-.62.3-.62.65 0 .34.28.64.62.64h4.3Z" fill="#34BECE"/><path d="M7.49 12c.98.25 1.41 1.44 1.51 2a4.43 4.43 0 0 1-2-.96A2 2 0 0 1 7.49 12Z"/><path d="M11.06 6.77 10.6 7a.1.1 0 0 0-.04.04.12.12 0 0 0-.02.04c-.02.07-.03.13-.1.18a1 1 0 0 0-.3.47c0 .02-.01.03-.03.04a.47.47 0 0 1-.16.06l-.46-.37c-.16-.12-.1-.35-.18-.49-.07-.1-.11-.1-.12.04-.02.2.14.4-.2.6-.29-.04-.55-.2-.78-.46a234.95 234.95 0 0 1 .15-.23 10 10 0 0 0 .44-.48c.06-.07.08-.16.05-.27l.48-.08c.14-.01.3-.02.48-.01h.83c.03 0 .08.02.14.07l.05.02c.1 0 .19-.11.25-.16h.07c.02 0 .03 0 .04.02l.02.04.06.31c0 .19-.06.32-.21.39Z" fill="#2E1D14"/><path d="m11.06 6.77.18.38c.01.02.02.03.04.03l.03.03c-.2-.01-.39 0-.58.04a.43.43 0 0 0-.32.26 1.7 1.7 0 0 0-.14.51c0 .02 0 .03-.02.04a.05.05 0 0 1-.03.01c-.17 0-.25.1-.23.3a1.8 1.8 0 0 1-.04-.54.47.47 0 0 0 .16-.06c.02 0 .03-.02.03-.04a1 1 0 0 1 .3-.47c.07-.05.08-.1.1-.18 0-.02 0-.03.02-.04A.1.1 0 0 1 10.6 7l.46-.23Z" fill="#EDA48A"/><path d="M9.95 7.83c-.02.18 0 .36.04.55l.01.05a.7.7 0 0 1-.2.47c-.16.14-.32.18-.48.1a.74.74 0 0 1-.36-.31c-.1-.18-.22-.4-.18-.62.03-.18.1-.33.22-.45.33-.2.17-.42.19-.61.01-.14.05-.15.12-.04.08.14.02.37.18.5l.46.36Z" fill="#fff"/><path d="M8.21 7.15c.23.26.5.42.79.47a.92.92 0 0 0-.22.45c-.01.09 0 .18.03.26.06.16.1.27.15.36.08.14.2.24.36.32.16.07.32.03.48-.1-.03.12-.13.2-.3.22a.8.8 0 0 1-.68-.23c0-.03 0-.06-.02-.07-.01-.02-.02-.02-.04 0-.1.07-.25.14-.43.2-.06.02-.09.07-.08.13a.61.61 0 0 0-.12-.1c-.15-.1-.12-.32-.06-.47l.02-.05c0-.03-.01-.04-.03-.04a.1.1 0 0 0 .04-.04c0 .03.02.05.04.07 0 .02.02.02.04.01l.36-.15a.47.47 0 0 0 .19-.13.14.14 0 0 0 .02-.14.12.12 0 0 0-.04-.04 1.68 1.68 0 0 0-.27-.2c-.07-.03-.16-.15-.26-.34a.88.88 0 0 1-.01-.28c0-.03 0-.06-.03-.08l.07-.03Z" fill="#9CA7B2"/><path d="M11.95 7.85a28.3 28.3 0 0 1-.31-.5c-.06-.1-.15-.13-.29-.1v-.06c.25-.12.41-.03.5.25.05.13.08.26.1.4Z" fill="#1E0B05"/><path d="M11.35 7.19v.06h-.01l-.01.02v.01l.6 1.01c.02 0 .04.02.04.06 0 .02-.01.04-.03.05a.43.43 0 0 1-.27.16 5.67 5.67 0 0 1-.36-.04A1.13 1.13 0 0 0 11 8.5c-.14.01-.28 0-.4-.02-.09-.02-.15.1-.22.12a.6.6 0 0 1-.33.06l-.02-.01-.01-.03c0-.07 0-.14-.02-.2v-.05c-.03-.22.05-.32.22-.3l.03-.02.02-.04c.02-.18.06-.35.14-.51a.43.43 0 0 1 .32-.26c.2-.04.39-.05.58-.04l.04-.02Z" fill="#123"/><path d="M11.35 7.25c.14-.03.23 0 .29.1l.31.5.05.26c0 .08-.02.15-.08.18l-.59-1v-.04h.02Z" fill="#fff"/><path d="M8.18 7.54c.1.2.2.3.26.35.1.05.2.12.27.19.02.01.03.02.03.04a.13.13 0 0 1-.01.14.47.47 0 0 1-.2.13l-.35.15h-.04a.26.26 0 0 1-.04-.08.61.61 0 0 1-.08-.5c.04-.15.09-.3.16-.42Z" fill="#2E1D14"/><path d="M11.67 8.56c0 .08-.02.15-.06.2-.01.02-.04.04-.1.07a.12.12 0 0 0-.06.1c0 .24-.03.5-.09.78-.03.18-.14.29-.31.3-.41.04-.74.06-1.13.26l-.02.02-.01.03-.18.61c-.24.01-.47-.04-.7-.14a19.5 19.5 0 0 1-.49-.24l.05-.23c.03-.1.03-.18.02-.24-.03-.19-.12-.34-.17-.53a.5.5 0 0 0 .12-.26l.01-.03.27-.36c.21.2.44.27.69.23.16-.02.26-.1.29-.23a.7.7 0 0 0 .2-.47c.02.06.02.13.02.2v.03l.03.01a.6.6 0 0 0 .33-.06c.07-.03.13-.14.22-.12.23.05.47 0 .7.03l.37.04Z" fill="#F4B897"/><path d="m8.82 8.9-.27.36-.01.03a.5.5 0 0 1-.12.26l-.17-.39c0-.06.02-.11.08-.13.18-.06.33-.13.43-.2.02-.02.03-.02.04 0 .02.01.03.04.02.07Z" fill="#1E0B05"/><path d="M10.39 10.16a2.9 2.9 0 0 0-.02.69c-.21.17-.43.2-.66.08l.18-.61.01-.03.02-.02.37-.18h.04l.06.07Z" fill="#EDA48A"/><path d="M8.98 8.37c.04.22.22.37.4.32.16-.04.27-.26.22-.48-.05-.22-.22-.37-.4-.32-.17.04-.27.26-.22.48Z" fill="#79838E"/><path d="M11.18 7.35a39.65 39.65 0 0 0 .61 1.03l-.28.03c-.11.01-.18-.06-.23-.15a105.36 105.36 0 0 0-.5-.8c0-.03.01-.06.03-.07l.29-.14c.02-.02.05 0 .06.03l.02.07Z" fill="#fff"/></svg>