<!-- by TradingView --><svg width="56" height="56" viewBox="0 0 56 56" xmlns="http://www.w3.org/2000/svg"><path fill="#F0F3FA" d="M0 0h56v56H0z"/><path fill="#EA3D3C" d="M12 20h32v9H12z"/><path fill-rule="evenodd" d="M44 30H12l16 17 16-17Zm-1.75.75h-28.5L28 45.89l14.25-15.14Z" fill="#EA3D3C"/><path d="m36 34.51.01.81c.01.25.11.68.49.68.37 0 .48-.43.49-.68a22.98 22.98 0 0 0 0-1.62c-.01-.24-.12-.7-.49-.7-.38 0-.48.45-.49.7l-.01.81Zm-1 0c0-1.1.11-2.51 1.5-2.51.86 0 1.3.55 1.42 1.36a7.49 7.49 0 0 1 0 2.3c-.13.83-.56 1.34-1.42 1.34-.86 0-1.3-.51-1.42-1.33-.05-.32-.08-.7-.08-1.16ZM33 33.56c0-.55-.22-.56-.44-.56-.56 0-.56 1-.56 1.51 0 .49.08 1.49.56 1.49.48 0 .44-.71.44-1h1v.34c0 .95-.44 1.66-1.44 1.66-1.48 0-1.56-1.3-1.56-2.49 0-1.15.12-2.51 1.56-2.51.94 0 1.44.63 1.44 1.53V34h-1v-.44ZM26 32h1.56l.43 2.96h.02l.43-2.96H30v5h-1v-3.73h-.01l-.6 3.73h-.78l-.6-3.73H27V37h-1v-5ZM24 32h1v5h-1v-5ZM20.98 33.02l-.42 2h.87l-.43-2h-.02ZM21.8 32l1.2 5h-1.29l-.13-1h-1.17l-.13 1H19l1.18-5h1.62Z" fill="#EA3D3C"/><path fill="#EA3D3C" fill-opacity=".5" d="M12 16h32v3H12z"/></svg>