<!-- by TradingView --><svg width="56" height="56" viewBox="0 0 56 56" xmlns="http://www.w3.org/2000/svg"><path fill="#F0F3FA" d="M0 0h56v56H0z"/><path d="M36.55 24.44c.13 1.14.22 2.36.22 3.58 0 9.2-4.13 16.71-9.23 16.71-5.1 0-9.22-7.5-9.22-16.7 0-9.22 4.13-16.76 9.18-16.76 2.9 0 5.5 2.44 7.2 6.24l1.2-.4C33.95 12.8 30.92 10 27.53 10 21.74 10 17 18.07 17 28.02 17 37.92 21.7 46 27.5 46S38 37.93 38 28.02c0-1.57-.13-3.1-.35-4.54l-1.1.96Z" fill="#4D4D4D"/><path d="m34.88 18.1 1.11-.4L47 14l-9.65 8.66-1.07.95L25.81 33l3.8-8.96-9.61-.95 14.88-5Zm1.32 4.78 1.03-.95-.04-.05 5.65-5.08-6.02 3.4-1.07.6-5.2 2.94-2.97 6.85v.04L30.47 28l5.73-5.12Z" fill="#EA2127"/></svg>