<!-- by TradingView --><svg width="56" height="56" viewBox="0 0 56 56" xmlns="http://www.w3.org/2000/svg"><path fill="#F0F3FA" d="M0 0h56v56H0z"/><path d="M14.92 26.76c3.18-4.6 6.33-9.14 9.46-13.62a5.8 5.8 0 0 1 1.44-1.58 3.72 3.72 0 0 1 5.07 1.14l13.88 20c1.1 1.6 1.78 3.72.65 5.53-1.01 1.62-3.35 2.02-5.1 1.62a6.48 6.48 0 0 1-3.84-2.58l-4.64-6.4c-2.46-3.4-5.99-5.84-10.34-5.7-2.24.08-4.38.66-6.42 1.76-.28.14-.33.09-.16-.17Zm15.3 4.59a6.17 6.17 0 0 0-6.19.42c-.7.43-1.6 1.35-2.7 2.75-.55.72-1.38 1.8-2.47 3.28a5.69 5.69 0 0 1-2.9 1.96c-2.25.74-4.9-.24-5.71-2.58a4.73 4.73 0 0 1 .3-3.7c2.02-4.24 5.9-7.1 10.8-6.99 3.65.08 6.68 1.6 9.1 4.55.38.45.3.56-.24.3Zm1.38 5.09C31.6 38.4 30 40 28 40a3.57 3.57 0 0 1-3.59-3.56c0-1.97 1.6-3.56 3.59-3.56 1.98 0 3.59 1.6 3.59 3.56Z" fill="#9E579D"/></svg>