<!-- by TradingView --><svg width="18" height="18" viewBox="0 0 18 18" xmlns="http://www.w3.org/2000/svg"><path fill="url(#a)" d="M0 0h18v18H0z"/><path d="M6 10.94V7.28c0-1.71 1.56-2.14 2.34-2.14h1.33v-.61c0-.1.07-.3.33-.3.27 0 .33.2.33.3v.6C11.67 5.14 12 6.68 12 7.9v3.05C12 13.4 10.45 14 9.67 14H8c-1.73 0-2.05-2.04-2-3.06ZM9.6 5.76H8.13c-1.28 0-1.5 1.22-1.45 1.83v3.05c0 1.47.77 1.83 1.16 1.83H10c1.34 0 1.34-1.12 1.33-1.75V7.28c0-1.34-1.16-1.57-1.74-1.52Zm-.75 7.93c.27 0 .5-.2.5-.45 0-.26-.23-.46-.5-.46-.28 0-.5.2-.5.46 0 .25.22.45.5.45Z" fill="#fff"/><path d="M10.93 9.11h-.86c-.04 0-.07-.03-.07-.06V6.12c0-.04.03-.06.07-.06.74.03.93.62.93.91v2.08c0 .03-.03.06-.07.06ZM9.67 9.05V6.81c0-.05-.08-.08-.12-.04l-2.1 2.24c-.04.04-.02.1.04.1H9.6c.04 0 .07-.03.07-.06ZM8 6.06h1.51c.06 0 .1.06.05.1L7.12 8.85c-.05.04-.12.01-.12-.05V6.97c0-.73.67-.91 1-.91ZM9.6 9.42H7.07c-.04 0-.07.02-.07.06v1.46c0 .98.89 1.23 1.33 1.23H9.6c.04 0 .07-.03.07-.06V9.48c0-.04-.03-.06-.07-.06ZM10 12.1V9.49c0-.04.03-.06.07-.06h.86c.04 0 .07.02.07.06v2.08c0 .45-.59.59-.93.6-.04 0-.07-.02-.07-.05Z" fill="#A6CE39"/><path d="M10 3.61c-.53 0-.89.4-1 .61.17-.1.6-.3 1-.3s.83.2 1 .3a1.2 1.2 0 0 0-1-.6ZM10 3c-.71 0-1.19.4-1.33.61.22-.1.8-.3 1.33-.3s1.11.2 1.33.3C11.2 3.41 10.71 3 10 3Z" fill="#fff"/><defs><linearGradient id="a" x1="3.35" y1="3.12" x2="21.9" y2="24.43" gradientUnits="userSpaceOnUse"><stop stop-color="#1A1E21"/><stop offset="1" stop-color="#06060A"/></linearGradient></defs></svg>