<!-- by TradingView --><svg width="18" height="18" viewBox="0 0 18 18" xmlns="http://www.w3.org/2000/svg"><path fill="#F0F3FA" d="M0 0h18v18H0z"/><path d="M9.03 4h.02l.45.48c.02.02.05.02.08 0l.53-.36c.02-.02.03-.02.05 0l.31.53c.02.03.03.03.06.02l.61-.25c.03-.02.05 0 .06.02l.15.55c.01.04.04.06.09.04l.63-.16c.02 0 .03 0 .03.02l.07.6c0 .04.03.06.06.06l.65-.08c.02 0 .04.01.03.04l-.06.6c0 .03.01.05.04.05l.66.06c.01 0 .02 0 .01.02l-.16.63c0 .02 0 .03.03.04l.62.15c.03 0 .04.02.02.04l-.28.54c-.02.04-.01.06.02.08l.57.29c.02 0 .03.02.01.04l-.42.49c-.02.02-.02.04 0 .05a215.65 215.65 0 0 1 .53.44v.02l-.53.41c-.02.02-.02.04 0 .06l.41.5v.03l-.58.28c-.04.02-.05.05-.03.08l.28.55c.01.02 0 .03-.02.04l-.63.14c-.02.01-.03.02-.02.04l.15.63-.01.02-.66.05c-.03 0-.05.02-.04.05l.05.6c0 .03-.01.04-.04.04l-.64-.08c-.03 0-.05.01-.06.05l-.08.6c0 .02-.01.03-.03.03l-.63-.18c-.05-.01-.07 0-.09.05l-.16.54c0 .03-.02.04-.05.03l-.61-.27c-.03 0-.05 0-.06.02l-.32.53c-.02.02-.03.02-.05 0l-.53-.37c-.02-.02-.05-.02-.07 0a17.13 17.13 0 0 0-.5.48l-.45-.48c-.02-.02-.05-.02-.08 0l-.53.36c-.02.02-.03.02-.05 0l-.31-.53c-.02-.03-.03-.03-.06-.02l-.61.25c-.03.02-.05 0-.06-.02L6.65 13c-.01-.04-.04-.06-.09-.04l-.63.16c-.02 0-.03 0-.03-.02l-.07-.6c0-.04-.03-.06-.06-.06l-.65.08c-.02 0-.04-.01-.03-.04l.06-.6c0-.03-.01-.05-.04-.05l-.66-.06c-.01 0-.02 0-.01-.02l.16-.63c0-.02 0-.03-.03-.04l-.62-.15c-.03 0-.04-.02-.02-.04l.28-.54c.02-.04.01-.06-.02-.08l-.57-.29c-.02 0-.03-.02-.01-.04l.42-.49c.02-.02.02-.04 0-.05a128.26 128.26 0 0 1-.53-.44v-.02l.53-.41c.02-.02.02-.04 0-.06l-.41-.5v-.03l.58-.28c.04-.02.05-.05.03-.08l-.28-.55c-.01-.02 0-.03.02-.04l.63-.14c.02-.01.03-.02.02-.04l-.15-.63.01-.02.66-.05c.03 0 .05-.02.04-.05l-.05-.6c0-.03.01-.04.04-.04l.64.08c.03 0 .06-.01.06-.05l.08-.6c0-.02.01-.03.03-.03l.63.18c.05.01.07 0 .09-.05l.16-.54c0-.03.02-.04.05-.03l.61.27c.03 0 .05 0 .06-.02l.32-.53c.02-.02.03-.02.05 0l.53.37c.02.02.05.02.07 0A17.2 17.2 0 0 0 9.03 4Z" fill="#FA9114"/><path d="M6.3 12.36a8.1 8.1 0 0 1-.5-.38 4.08 4.08 0 0 1-1.36-2.3 3.3 3.3 0 0 1 .03-1.47c.03-.16.07-.31.13-.43l.08-.22.15-.35a4.32 4.32 0 0 1 1.48-1.6 33.62 33.62 0 0 0 .57-.33c.03 0 .11-.04.26-.11a2.77 2.77 0 0 1 .33-.12.2.2 0 0 1 .1-.03 4.38 4.38 0 0 1 5.38 1.88 5.45 5.45 0 0 1 .52 1.14l.07.36c.1.58.05 1.15-.13 1.71a4.41 4.41 0 0 1-1.97 2.46c-1.68.82-3.53.92-5.14-.21Z" fill="#FDD866"/><path d="M12.68 8.93c0 .44-.1.87-.28 1.28-.19.41-.45.78-.8 1.1a3.99 3.99 0 0 1-5.23 0 3.32 3.32 0 0 1-.8-1.09 3.06 3.06 0 0 1-.01-2.57c.19-.4.45-.77.8-1.09a3.99 3.99 0 0 1 5.23 0c.35.3.62.67.8 1.08.2.41.29.84.29 1.29Z" fill="#F0F3FA"/><path d="M8.1 8.04v.03l.02.01a2 2 0 0 0 .94-.07.07.07 0 0 0 .06-.07c0-.1-.01-.19-.04-.27a.28.28 0 0 1-.02-.1v-.03c0-.28-.02-.51-.05-.69-.07-.33-.02-.55.14-.67a1.25 1.25 0 0 1 1.05-.09c.13.06.26.17.4.36v.03l.03.55c0 .05.04.08.1.07l.27-.03c.27-.04.47-.06.61-.04.03 0 .04.02.03.04l-.02.02a3.63 3.63 0 0 0-.9.15c-.02 0-.03.02-.03.04 0 .22 0 .43.04.64.01.1.02.17.01.22 0 .03-.02.06-.04.08a.1.1 0 0 1-.09.02c-.06-.01-.1-.04-.12-.09l-.01-.04-.09-.72a.06.06 0 0 0-.03-.05.06.06 0 0 0-.06 0l-.4.17a.14.14 0 0 1-.13 0l-.02-.02a.04.04 0 0 1-.03-.03c0-.02 0-.03.02-.04.2-.1.4-.18.59-.23.04 0 .06-.04.05-.08a2.3 2.3 0 0 1-.07-.7.34.34 0 0 0-.15-.2.93.93 0 0 0-.25-.08.67.67 0 0 0-.37.02.45.45 0 0 0-.28.23 35.35 35.35 0 0 0 .05.82c.02.06.02.1.02.14a6.55 6.55 0 0 0 .06.75v.06c.01.25.03.51.07.78v.27c-.01.06-.04.09-.1.1-.06 0-.1-.03-.1-.09l-.11-.61-.01-.02-.04-.02c-.02 0-.02-.02-.01-.04.06-.09.07-.2.03-.35 0-.03-.02-.04-.04-.03-.32.08-.72.09-1.19.02h-.1l-.19.08-.21.07c-.04 0-.1.02-.17.05a8.24 8.24 0 0 1-.64.12c-.03 0-.05 0-.07-.03l-.01-.01c-.02-.03-.01-.04.02-.04l.58-.1h.01l.38-.17.02-.04c0-.02 0-.03-.03-.04-.2-.07-.36-.16-.49-.28-.16-.15-.22-.31-.18-.49a1.18 1.18 0 0 1 .28-.33c.2-.12.44-.18.7-.18.28 0 .51.07.7.21l.05.04c.19.23.18.47-.01.72h-.01l-.41.3Z" fill="#EE1322"/><path d="M7.13 7.43a.26.26 0 0 1 .04-.24c.17-.23.41-.32.73-.27.06.01.17.07.34.19.02.01.04.03.04.06.06.17.05.31-.01.43-.04.1-.14.2-.29.34a.1.1 0 0 1-.05.02C7.8 8 7.7 8 7.61 7.94a1.48 1.48 0 0 1-.31-.22.68.68 0 0 1-.17-.3Z" fill="#fff"/><path d="M8.67 8.67c-.02.02-.04.01-.05-.01l.37-.12h.02v.02l-.04.04v.05a.3.3 0 0 1 .04.07l-.02.01h-.02l-.06-.08c-.03-.03-.06-.04-.1-.01-.04.02-.04.06-.01.1l.04.04v.02H8.8a.4.4 0 0 0-.13-.13Z" fill="#EE1322"/><path d="M8.62 8.66c.01.02.03.03.05.01-.22.09-.4.2-.54.32-.25.23-.5.5-.77.82a.2.2 0 0 1-.08-.07c.25-.26.45-.47.63-.6.23-.2.47-.36.7-.48Z" fill="#FA9114"/><path d="M8.16 9.16h-.02v-.02l.5-.25h.03l.01.02-.01.03a.3.3 0 0 1-.07.01c-.1.02-.16.06-.17.12 0 .03-.02.04-.05.04a.3.3 0 0 0-.22.05ZM8.56 9.82c.12-.12.29-.2.49-.24a.1.1 0 0 1 .04 0l.16.03.13.05.2.13.03.01c.1.02.17 0 .22-.06.12-.16.25-.3.4-.42.02-.02.05-.02.07 0 .02.03.02.06 0 .08l-.22.25a.72.72 0 0 1-.5.27h-.05L9.1 9.7A.16.16 0 0 0 9 9.7c-.14.02-.28.07-.42.15h-.02v-.02ZM7.28 9.74a.2.2 0 0 0 .08.07l-.27.41-.02.05c-.07.2-.09.38-.07.53a.8.8 0 0 0 .28.48l.19.16c.06.04.14.07.23.1a.9.9 0 0 0 .8-.23.13.13 0 0 0 .05-.05.7.7 0 0 0-.05-.62.16.16 0 0 0-.05-.04.74.74 0 0 0-.7-.1l-.02-.02v-.02a.84.84 0 0 1 .45-.13c.1 0 .25.01.44.05.18.04.32.06.42.06.05 0 .1 0 .16-.02a4.96 4.96 0 0 1 .17-.04v.02c-.1.06-.2.1-.28.12a1.6 1.6 0 0 1-.33.02c-.03 0-.04.01-.03.04.08.2.1.39.04.59l-.02.05c-.12.13-.27.24-.44.32-.14.06-.28.09-.43.09-.2 0-.36-.02-.48-.05a.62.62 0 0 1-.35-.23 3.7 3.7 0 0 1-.21-.34.23.23 0 0 1-.03-.1c0-.19 0-.35.04-.48.04-.16.12-.3.23-.42.04-.04.05-.09.01-.14a.27.27 0 0 1-.04-.07c0-.03 0-.04.03-.04.07 0 .14 0 .2-.02ZM11.34 12.54l-.49.2-.04-.01-.28-.64.01-.04.48-.2c.01 0 .03 0 .03.02l.03.07c.01.02 0 .03-.01.04l-.33.13c-.02.01-.02.02-.02.04l.05.1c0 .01.02.02.03.01l.3-.12.04.01.03.07-.01.04-.3.12c-.02 0-.02.02-.01.04l.06.13c0 .02.02.02.03.01l.34-.14.04.01.03.07-.01.04ZM6.78 12.42c0-.02 0-.03.02-.04h.04l.05.02c.03.01.05.04.04.08 0 .05.04.1.15.14.06.02.1 0 .15-.03.03-.04.03-.07-.01-.1a2.42 2.42 0 0 0-.07-.05.8.8 0 0 1-.2-.16c-.05-.07-.04-.15 0-.23a.22.22 0 0 1 .16-.1c.06 0 .12 0 .19.03.06.03.11.07.15.12.04.06.06.12.05.18 0 .02-.01.03-.03.03-.06 0-.1-.03-.12-.1-.04-.1-.1-.13-.2-.13-.04 0-.06.02-.07.05-.01.04 0 .06.02.09l.26.2a.2.2 0 0 1 0 .23c-.04.07-.1.1-.2.1a.48.48 0 0 1-.22-.06c-.12-.06-.18-.15-.16-.27ZM10.42 12.78c.02 0 .04 0 .04.03l.01.06c0 .02 0 .04-.02.04l-.5.11c-.02 0-.04 0-.05-.03l-.15-.66c0-.02 0-.03.02-.04l.5-.1c.02-.01.03 0 .04.02l.01.07c0 .02 0 .03-.02.03l-.35.07c-.02 0-.03.02-.02.03l.02.12c0 .02.02.02.03.02l.31-.08c.02 0 .04 0 .04.02l.02.08c0 .02 0 .03-.02.03l-.3.07c-.03 0-.04.02-.03.04l.03.13c0 .02.02.03.04.02l.35-.08ZM8.12 13.07c-.05-.01-.09-.03-.1-.06-.02-.02-.02-.05 0-.1.02-.07.02-.12 0-.15L8 12.74l-.19-.06c-.03-.01-.05 0-.05.03l-.05.2c-.01.03-.04.05-.08.04l-.04-.01c-.03-.01-.05-.03-.04-.07l.17-.64c0-.02.02-.03.05-.03l.35.1c.1.02.16.08.18.18.01.1-.03.16-.13.2a.03.03 0 0 0-.02.02l.01.03.02.01c.02.03.02.05.01.08a.54.54 0 0 0-.04.22c0 .02 0 .03-.03.03ZM8.65 12.35H8.6a.05.05 0 0 0-.06.04l-.1.65c0 .03.02.05.04.05l.07.01c.02 0 .05-.01.05-.04l.1-.65a.05.05 0 0 0-.04-.06Z" fill="#EE1322"/><path d="M7.84 12.37c0-.01.01-.02.02-.01l.2.04c.02.01.04.02.06.05.01.02.02.04.01.07v.02c-.01.03-.03.04-.05.06a.11.11 0 0 1-.08 0l-.2-.04v-.03l.04-.16Z" fill="#FDD866"/><path d="M9.58 13.13h-.03c-.03 0-.05-.03-.07-.07-.01-.02-.03-.02-.04 0a.3.3 0 0 1-.24.1c-.1-.01-.2-.06-.26-.14a.41.41 0 0 1-.08-.27c0-.1.03-.2.1-.27a.36.36 0 0 1 .28-.12c.16 0 .26.06.32.18v.04l-.03.02h-.07a.08.08 0 0 1-.08-.04c-.03-.06-.1-.09-.17-.07a.21.21 0 0 0-.16.1c-.02.04-.03.11-.02.22 0 .12.06.19.16.2.1.02.19-.02.25-.12 0-.03 0-.04-.02-.05h-.09c-.03.02-.06.01-.07 0a.13.13 0 0 1 0-.08c0-.02.01-.03.03-.04h.25c.02 0 .03 0 .03.02.03.13.03.26.01.39Z" fill="#EE1322"/></svg>