<!-- by TradingView --><svg width="18" height="18" viewBox="0 0 18 18" xmlns="http://www.w3.org/2000/svg"><path fill="#F0F3FA" d="M0 0h18v18H0z"/><path d="M5.58 5.02c.03-.03.05-.02.07.01.08.13.11.27.12.4a2.43 2.43 0 0 1-.08.58c-.07.36.05.62.35.77.33.17.63.1.89-.23l.22-.29c.27-.36.49-.6.64-.75.27-.23.54-.35.81-.35.31 0 .57.07.77.22.5.34 1 .81 1.53 1.4.23.25.58.54 1.05.86.3.2.62.33.97.4.36.07.7.06 1.02-.03.07-.02.2-.1.36-.2.15-.11.26-.18.33-.21.12-.05.22-.05.3 0a.1.1 0 0 1 .06.07.5.5 0 0 1-.17.5c-.29.25-.57.44-.86.57-.34.16-.72.22-1.15.18a3.36 3.36 0 0 1-1.13-.34l-.76-.44c-.18-.11-.34-.08-.48.1l-.1.13-.44.52c-.64.68-1.2 1.4-1.7 2.15-.05.1-.12.19-.2.27-.69.72-1.14 1.22-1.34 1.5-.14.22-.32.25-.53.1-.03-.03-.04-.07-.02-.11.17-.3.48-.7.93-1.21l.32-.36c.28-.34.5-.71.66-1.12.17-.45.16-.8-.02-1.05-.18-.24-.46-.33-.85-.28a.2.2 0 0 0-.14.08.2.2 0 0 0-.04.15c.02.16.08.3.17.4.05.06.15.14.3.23a2 2 0 0 1 .24.17c.13.13.15.26.05.4-.11.16-.28.2-.49.1a1.28 1.28 0 0 1-.46-.4 59.6 59.6 0 0 1-1.06-1.66 4.95 4.95 0 0 1-.06-.18l-.2-.66c-.01-.04-.04-.07-.08-.08-.03 0-.06 0-.09.04-.2.32-.45.56-.72.73-.23.14-.42.02-.56-.36a.13.13 0 0 1 0-.1 14.38 14.38 0 0 1 1.3-2.28c.07-.13.16-.24.27-.34Zm0 .3a19.6 19.6 0 0 1-.56.84c-.2.3-.44.75-.74 1.36l-.05.1a.22.22 0 0 0-.01.16c.01.06.05.1.1.13.1.06.26-.02.48-.23.14-.14.28-.31.41-.5a.18.18 0 0 1 .13-.08c.05-.01.1 0 .14.04.1.09.16.21.2.37.1.4.25.76.45 1.08l.78 1.2c.18.23.38.36.61.36.05 0 .07-.03.08-.08.01-.05 0-.09-.04-.1-.2-.12-.35-.21-.43-.3a.94.94 0 0 1-.28-.45c-.06-.22-.04-.39.05-.52.09-.12.22-.17.4-.16.32.03.57.12.74.28.21.2.3.47.27.82-.04.4-.19.8-.45 1.2a9.3 9.3 0 0 1-.8 1.02c-.32.36-.54.63-.66.81a.07.07 0 0 0 0 .07v.04c0 .02.02.03.03.03.02 0 .03 0 .04-.02.4-.53.71-.9.95-1.14.3-.28.51-.53.66-.75a22.5 22.5 0 0 1 2.49-3c.11-.05.23-.04.37.04l.63.35c.44.24.86.39 1.28.42.47.05.9-.06 1.3-.3.33-.21.53-.35.6-.42.05-.04.07-.1.06-.17V7.8c0-.02-.02-.04-.04-.06a.05.05 0 0 0-.06.01 2.2 2.2 0 0 1-.87.49c-.64.12-1.27 0-1.87-.35-.38-.23-.9-.68-1.58-1.36-.35-.35-.6-.6-.76-.72a1.79 1.79 0 0 0-.93-.45c-.32-.03-.63.12-.93.44-.08.08-.2.22-.35.43-.25.34-.45.57-.6.68-.25.19-.5.22-.76.1a.88.88 0 0 1-.47-.44.93.93 0 0 1-.09-.4c0-.08.02-.2.05-.34.04-.2.06-.35.06-.46 0-.02-.01-.04-.03-.04Z" fill="#010101"/></svg>