<!-- by TradingView --><svg width="18" height="18" viewBox="0 0 18 18" xmlns="http://www.w3.org/2000/svg"><path fill="#F0F3FA" d="M0 0h18v18H0z"/><path fill-rule="evenodd" d="M9 14A5 5 0 1 0 9 4a5 5 0 0 0 0 10Zm0-.31A4.69 4.69 0 1 0 9 4.3a4.69 4.69 0 0 0 0 9.38Z" fill="#00A1AD"/><path d="m11 5.67 1.41 1.27c.79.7.79 1.83 0 2.53-.78.7-2.04.7-2.82 0a1.67 1.67 0 0 1 0-2.53L11 5.67Z" fill="#CDA365"/><path d="M9.85 6.28 9 5l-4 6h8l-.67-1c-.85.78-2.18.75-3-.08a2.21 2.21 0 0 1 0-3.11l.52-.53Z" fill="#00A1AD"/></svg>