<!-- by TradingView --><svg width="18" height="18" viewBox="0 0 18 18" xmlns="http://www.w3.org/2000/svg"><path fill="#F0F3FA" d="M0 0h18v18H0z"/><path d="m12.8 6.8-1.72-2.27A1.17 1.17 0 0 0 9.2 4.4l-.56.66.48.58.63-.74a.45.45 0 0 1 .72.04l1.71 2.27c.08.12.1.27.07.4a.46.46 0 0 1-.27.3l-.7.3a.45.45 0 0 1-.53-.15l-2.72-3.3a1.16 1.16 0 0 0-1.97.16l-.93 1.44c-.24.46-.17 1 .16 1.4a1.16 1.16 0 0 0 1.77-.02l1.19-1.12-.49-.57-1.24 1.2c-.05.05-.1.1-.17.12a.44.44 0 0 1-.52-.12.46.46 0 0 1-.06-.53l.93-1.45a.45.45 0 0 1 .76-.06l2.71 3.3a1.18 1.18 0 0 0 1.38.39l.7-.3c.34-.13.59-.42.69-.77.1-.35.05-.73-.16-1.04ZM5.2 11.2l1.72 2.27a1.16 1.16 0 0 0 1.86.11l.57-.65-.48-.58-.63.74a.45.45 0 0 1-.72-.04l-1.71-2.28a.48.48 0 0 1-.06-.4.46.46 0 0 1 .26-.3l.7-.29c.19-.08.4-.02.53.15l2.72 3.31a1.16 1.16 0 0 0 1.97-.17l.93-1.44c.24-.46.17-1-.16-1.4a1.16 1.16 0 0 0-1.77.02l-1.19 1.12.49.57 1.24-1.2c.05-.05.1-.1.17-.12.28-.12.46.06.52.12.05.05.2.26.06.53l-.93 1.45a.45.45 0 0 1-.76.06l-2.71-3.3a1.18 1.18 0 0 0-1.38-.39l-.7.3a1.24 1.24 0 0 0-.53 1.81Z" fill="#91C83E"/></svg>