<!-- by TradingView --><svg width="56" height="56" viewBox="0 0 56 56" xmlns="http://www.w3.org/2000/svg"><path fill="#F0F3FA" d="M0 0h56v56H0z"/><path d="m26.67 21.79-4.17 10.3L23.93 34l3.85-9.42L32.12 34l1.38-1.91L29 21.76a1.26 1.26 0 0 0-2.33.03Z" fill="#B22726"/><path d="M21.12 14c.62 0 .88.49.88 1.09v14.2c0 3.09 2.82 5.71 6 5.71s6-2.62 6-5.7V15.08c0-.6.26-1.09.88-1.09s1.12.49 1.12 1.09v10.57c1.76 3.5 5.2 7.98 11 10.59V38H9v-1.75c5.8-2.6 9.24-7.1 11-10.59V15.1c0-.6.5-1.09 1.12-1.09ZM20 29.39A27.89 27.89 0 0 1 13.5 36h10.57A7.72 7.72 0 0 1 20 29.39ZM31.93 36H42.5a27.89 27.89 0 0 1-6.5-6.61A7.72 7.72 0 0 1 31.93 36Z" fill="#6F6D6B"/></svg>