<!-- by TradingView --><svg width="56" height="56" viewBox="0 0 56 56" xmlns="http://www.w3.org/2000/svg"><path fill="#3B2DDA" d="M0 0h56v56H0z"/><path d="M5.39 30.35a.71.71 0 0 1-.28.47c-.3.24-.75.24-.97 0a.56.56 0 0 1-.13-.47l.7-4.7a.76.76 0 0 1 .26-.46c.3-.25.75-.25.98 0 .11.12.16.28.14.46l-.7 4.7ZM9.16 30.33a.71.71 0 0 1-.28.47c-.3.24-.74.24-.97 0a.55.55 0 0 1-.13-.47l.7-4.68a.76.76 0 0 1 .26-.46c.3-.25.75-.25.98 0 .12.12.16.28.14.46l-.7 4.68Z" fill="#fff"/><path d="M7.2 27.36c.19 0 .35.06.46.19.21.25.15.67-.14.91a.82.82 0 0 1-.52.2H4.94a.63.63 0 0 1-.46-.19c-.23-.25-.16-.67.14-.93a.8.8 0 0 1 .51-.2H7.2v.02ZM13.83 31H10.6a.6.6 0 0 1-.46-.2.57.57 0 0 1-.13-.46l.68-4.68a.76.76 0 0 1 .26-.46c.15-.13.33-.2.52-.2h3.22c.18 0 .34.07.45.2.1.11.15.27.12.45a.71.71 0 0 1-.27.46.8.8 0 0 1-.49.18h-2.52l-.16 1.08h2.24c.18 0 .33.06.44.18.11.13.16.29.13.46a.71.71 0 0 1-.27.46.8.8 0 0 1-.5.17h-2.23l-.16 1.1h2.52c.19 0 .34.06.45.19.1.12.15.28.12.45a.71.71 0 0 1-.27.46c-.11.1-.29.16-.46.16ZM20.02 31c-.22 0-.4-.1-.5-.27L18.31 29l-1.69 1.74a.8.8 0 0 1-.56.26.58.58 0 0 1-.44-.19.52.52 0 0 1-.12-.44.71.71 0 0 1 .2-.4L17.67 28l-1.37-1.95a.6.6 0 0 1-.09-.41.72.72 0 0 1 .26-.46.76.76 0 0 1 .8-.11c.1.04.17.11.22.19l1.18 1.72 1.69-1.74c.22-.27.74-.32.99-.06.12.12.16.28.13.45a.68.68 0 0 1-.18.37L19.32 28l1.4 1.97c.07.1.1.23.08.39a.76.76 0 0 1-.26.45.75.75 0 0 1-.52.2ZM26.3 31a.67.67 0 0 1-.37-.1.56.56 0 0 1-.22-.3l-.3-1h-2.3l-.58 1a.85.85 0 0 1-.3.3c-.31.17-.68.12-.87-.09a.54.54 0 0 1-.12-.46.88.88 0 0 1 .1-.27l2.74-4.58c.08-.15.2-.26.32-.35.15-.1.33-.15.51-.15h.08c.19 0 .34.05.46.15.1.1.18.2.22.34l1.38 4.58c.03.1.04.2.02.27a.8.8 0 0 1-.25.46.74.74 0 0 1-.53.2Zm-2.45-2.64h1.2l-.4-1.37-.8 1.37ZM32.54 31a.73.73 0 0 1-.47-.16.67.67 0 0 1-.23-.4l-.55-2.94-1.42 2.94c-.08.16-.2.3-.36.4-.32.21-.72.2-.97 0a.69.69 0 0 1-.24-.39l-.9-4.58a.7.7 0 0 1 .25-.68c.26-.22.7-.25.93-.04.1.1.16.2.19.34l.56 3.23 1.53-3.21a.92.92 0 0 1 .32-.37c.3-.19.67-.18.91 0 .12.09.2.22.22.36l.57 3.22 1.53-3.23a.85.85 0 0 1 .3-.34c.29-.21.7-.18.9.03.12.13.16.29.13.47l-.07.2-2.26 4.58c-.1.18-.22.3-.37.4a.8.8 0 0 1-.5.17ZM39.68 31a.67.67 0 0 1-.36-.1.56.56 0 0 1-.22-.3l-.3-1h-2.3l-.58 1a.85.85 0 0 1-.3.3c-.31.17-.68.12-.87-.09a.54.54 0 0 1-.12-.46.88.88 0 0 1 .1-.27l2.74-4.58c.08-.15.2-.26.32-.35.15-.1.33-.15.51-.15h.08c.2 0 .34.05.46.15.1.1.18.2.22.34l1.38 4.58c.03.1.04.2.02.27a.8.8 0 0 1-.25.46.77.77 0 0 1-.53.2Zm-2.44-2.64h1.2l-.4-1.37-.8 1.37ZM45.28 31c-.22 0-.4-.1-.5-.27l-2.03-3.02 1.61-.02 1.62 2.27c.05.06.12.2.09.4a.79.79 0 0 1-.26.45.8.8 0 0 1-.53.19Z" fill="#fff"/><path d="M41.59 31a.6.6 0 0 1-.46-.19.53.53 0 0 1-.13-.46l.7-4.7a.75.75 0 0 1 .25-.45c.16-.13.33-.2.52-.2h1.88c.8 0 1.4.17 1.77.5.39.35.54.8.46 1.36-.07.48-.47 2.03-2.65 2.03H42.6l-.21 1.47a.72.72 0 0 1-.28.47.84.84 0 0 1-.51.17Zm1.19-3.4h1.13c.4 0 .71-.07.94-.2.2-.12.3-.27.34-.48.03-.2-.02-.35-.15-.46-.12-.08-.37-.18-.98-.18h-1.09l-.19 1.32ZM50.54 31h-3.22a.6.6 0 0 1-.47-.2.54.54 0 0 1-.12-.46l.68-4.68a.75.75 0 0 1 .26-.46.8.8 0 0 1 .53-.2h3.22c.18 0 .33.07.45.2.1.11.15.27.12.45a.8.8 0 0 1-.76.64H48.7l-.16 1.08h2.24c.18 0 .33.06.44.18.11.13.16.29.13.46a.72.72 0 0 1-.27.46.8.8 0 0 1-.5.17h-2.23l-.16 1.1h2.53c.19 0 .34.06.45.19.1.12.15.28.12.45a.71.71 0 0 1-.27.46c-.13.1-.3.16-.48.16Z" fill="#fff"/></svg>