<!-- by TradingView --><svg width="56" height="56" viewBox="0 0 56 56" xmlns="http://www.w3.org/2000/svg"><path fill="#F0F3FA" d="M0 0h56v56H0z"/><path d="M22.97 15.56a13.38 13.38 0 0 1 5.86-.9L25.59 10l-2.62 5.56Zm6.62-.83c1.97.25 3.8.92 5.41 1.93L33.99 11l-4.4 3.72ZM15.27 32.47a13.33 13.33 0 0 1-.71-5.71L10 30.2l5.27 2.26Zm-.64-6.3c.29-2.12 1.07-4.08 2.23-5.75l-6.14 1.03 3.9 4.71Zm2.84-6.57-.57-6.17 5.32 2.45a13.44 13.44 0 0 0-4.75 3.72Z" fill="#E7AF34"/><path d="M36.48 12 36 22l2.4-1.58c1.62 2.2 2.6 4.83 2.6 7.58 0 1.85-.54 3.68-1.32 5.37l4.68 2.15a18 18 0 0 0-1.67-17.93L47 14.75 36.48 12Zm7.1 24.78A18.15 18.15 0 0 1 27.85 46c-6.47 0-12.58-3.6-15.72-9.26l4.5-2.5A13.1 13.1 0 0 0 27.85 41c4.62 0 8.99-2.7 11.24-6.73l4.5 2.51Z" fill="#18880C"/><path d="m34.57 19.2-.03 4.4L37 22a10.2 10.2 0 0 1 1.38 9.24L28 25l-6 3v-2h-2v3.56l-2.49 1.74a10.67 10.67 0 0 1-.58-3.47c0-5.98 4.93-10.83 11-10.83 2.48 0 4.8.84 6.64 2.2Z" fill="#E7AF34"/><path d="M18.03 33.2 28 27l9.83 6.15A11.37 11.37 0 0 1 29 39v-3h-2v3a11.65 11.65 0 0 1-8.97-5.8ZM30 30h-4v4h4v-4Z" fill="#18880C"/></svg>