<!-- by TradingView --><svg width="18" height="18" viewBox="0 0 18 18" xmlns="http://www.w3.org/2000/svg"><path fill="#F0F3FA" d="M0 0h18v18H0z"/><path d="M6 2c.38.61.89 1.03 1.52 1.25.66.23 1.7.44 2.33.74a7.74 7.74 0 0 1 2.13 1.44v.02h-.04a19.8 19.8 0 0 1-1.14-.74 5.35 5.35 0 0 0-1.08-.51c-.3-.12-.85-.28-1.62-.5A3.58 3.58 0 0 1 6.7 3 3.6 3.6 0 0 1 6 2Z" fill="#29282A"/><path d="M6.06 2.7c.37.6.88 1.01 1.51 1.23.65.23 1.69.44 2.31.73A7.76 7.76 0 0 1 12 6.1v.02h-.04c-.31-.18-.69-.42-1.13-.73a5.33 5.33 0 0 0-1.07-.5c-.3-.12-.85-.29-1.62-.5a3.57 3.57 0 0 1-1.38-.7 3.58 3.58 0 0 1-.7-.98Z" fill="#29282A"/><path d="M9.53 13.52a.13.13 0 0 1-.07-.1 8.47 8.47 0 0 0 1.52-2.64.05.05 0 0 0-.03-.03.07.07 0 0 0-.03 0h-.04c-.55.36-1.15.36-1.82 0l.72.15c.05.02.1.02.16 0 .2-.02.47-.02.64-.12l.02-.02v-.03s0-.02-.02-.02h-.03c-.47.01-.82-.12-1.06-.4-.44-.52-.28-1.19.33-1.54a.48.48 0 0 1 .12-.05l.7-.18c.05.08.12.12.22.14h.04v-.04c-.3-.83-.68-1.59-1.21-2.35l-.73-1.01c-.06-.08-.19-.14-.37-.19-1.03-.25-1.83-.58-2.33-1.44a136 136 0 0 1-.24-.41c.13.15.25.33.37.51.04.06.08.11.13.15.35.31.77.53 1.26.68.8.23 1.37.4 1.73.52a6.95 6.95 0 0 1 2.47 1.6 1.8 1.8 0 0 1-.35-.18c-.65-.45-1.04-.7-1.17-.77a7.44 7.44 0 0 0-1.24-.44v.03c.48.6.98 1.27 1.51 2a3.94 3.94 0 0 1 .35 4.37 6.6 6.6 0 0 1-1.55 1.8Z" fill="#29282A"/><path d="m10.64 8.54-.7.18a.48.48 0 0 0-.12.05c-.61.35-.77 1.02-.33 1.53.24.29.6.42 1.06.4h.03l.02.03v.03l-.02.02c-.17.1-.43.1-.64.13h-.16l-.72-.16a8.67 8.67 0 0 1 .36 2.68h.01l.03-.01c0 .04.03.07.07.1-.12.1-.18.2-.2.3A9.33 9.33 0 0 1 8.88 16v-.01l-.08-.8a8.02 8.02 0 0 0-.05-3.43c-.1-.36-.34-1.1-.72-2.22a4.45 4.45 0 0 1-.27-1.99c.1-.56.31-1.11.62-1.67l.39-.53h.03c.02.06 0 .1-.03.17-.25.4-.42.82-.52 1.25a4.35 4.35 0 0 0 .32 2.49h.05l.02-.02c.41-.75 1.08-.98 2-.7Z" fill="#B63F21"/><path d="M8.37 5.88c-.3.56-.51 1.11-.62 1.67-.11.61.08 1.44.27 2 .38 1.1.62 1.85.72 2.21a8.02 8.02 0 0 1 .05 3.43c-.07-.11-.15-.3-.24-.56a4.2 4.2 0 0 0-.42-.8l-.9-1.43a4.03 4.03 0 0 1-.6-2.74c.16-1.21.63-2.37 1.4-3.47.04-.06.15-.16.34-.3Z" fill="#C7AE17"/></svg>