<!-- by TradingView --><svg width="56" height="56" viewBox="0 0 56 56" xmlns="http://www.w3.org/2000/svg"><path fill="#F0F3FA" d="M0 0h56v56H0z"/><path d="M28.5 11.34c-.4-.01-.4.36-.04 1.13a6574.15 6574.15 0 0 1 6.47 13.39.1.1 0 0 1-.01.04l-.03.03-.04.07H30.8s-2.63-3.64-3.58-5.18a.08.08 0 0 0-.03-.03.07.07 0 0 0-.07 0 .08.08 0 0 0-.03.03l-7.78 14.8a.12.12 0 0 0 .02.14.1.1 0 0 0 .05.02c.54.1 1.24-.06 1.71.22H37v-8h5c-.02-.02.03 0 0 0 0-.03.02.02 0 0v2.04l.04 10.68a.37.37 0 0 1-.1.25.34.34 0 0 1-.24.1L11.14 41c-.02 0-.08-.16-.1-.17a.1.1 0 0 1-.03-.13l16.13-30.65a.1.1 0 0 1 .07-.05.1.1 0 0 1 .08.02c.1.09.24.4.44.94.12.33.38.46.76.38Z" fill="#05AAF1"/><path d="m39 24.44-.03.03a.08.08 0 0 1-.08 0 .09.09 0 0 1-.03-.03c-2.76-4.7-2.8-9.82.16-14.37a.13.13 0 0 1 .1-.06.12.12 0 0 1 .1.05c3.9 4.53 2.82 9.7-.22 14.38Z" fill="#C2040B"/><path d="m28.5 11.34 7.47 15.4a.18.18 0 0 1 0 .18.16.16 0 0 1-.06.06.15.15 0 0 1-.08.02h-3.97c-.04 0-.08-.01-.11-.03a.3.3 0 0 1-.1-.07l-.85-.9h4.05l.04-.07.03-.03a.1.1 0 0 0 0-.09l-6.46-13.34c-.37-.77-.36-1.14.03-1.13ZM27.98 22.04l-7.25 13.77a3.9 3.9 0 0 1-1.4-.05.11.11 0 0 1-.03-.04.12.12 0 0 1 0-.1l7.8-14.8c0-.01 0-.02.02-.03a.07.07 0 0 1 .07 0l.03.03.76 1.22ZM12.51 42c-.4 0-.1-.66.15-1h28.9c.2 0 .44-.34.44-.52V29.7c.23-.09.99-.41 1 .22v11.9a.18.18 0 0 1-.05.13.17.17 0 0 1-.12.05H12.5Z" fill="#222"/></svg>