<!-- by TradingView --><svg width="56" height="56" viewBox="0 0 56 56" xmlns="http://www.w3.org/2000/svg"><path fill="#F0F3FA" d="M0 0h56v56H0z"/><path d="M28.6 13.6c-.25.1-.34 0-.29-.24.07-.3.1-.67.09-1.13 0-.14-.08-.21-.22-.22a5.86 5.86 0 0 0-1.69.15c-.09.03-.1.07-.05.15.37.48.52.95.44 1.39a.47.47 0 0 1-.18.3c-.1.07-.2.1-.33.1a15.54 15.54 0 0 0-2.6.01c-.47.05-.98.2-1.55.45-.46.2-.76.53-.92.97l-.1.6c-.1.44.07.56.48.35a21.4 21.4 0 0 1 9.97-2.45c.53 0 .83-.2.9-.6.08-.4-.11-.64-.56-.75-.4-.1-.65-.15-.74-.14-.08 0-.12.04-.14.1l-.14.56c-.05.2-.18.33-.4.38l-.16.04c-.2.05-.28-.02-.24-.22l.22-.95c.03-.13-.02-.19-.15-.19h-.74c-.13 0-.2.06-.22.18l-.16.66a.61.61 0 0 1-.42.47l-.1.03Zm4.51 1.85.39-.12a.1.1 0 0 0 .07-.08.1.1 0 0 0-.03-.1 2.44 2.44 0 0 0-1.73-.66c-.8 0-1.45.02-1.97.1-2.34.34-4.57.97-6.7 1.9-.95.42-1.65.83-2.1 1.22-.67.58-1 1.26-1.03 2.05a.2.2 0 0 0 .27.2 72.1 72.1 0 0 0 5.26-2c1.7-.73 2.93-1.23 3.7-1.48.92-.3 2.2-.65 3.87-1.03Zm-3.25 3.34c-.07.08-.05.13.05.16 1.85.45 3.66.7 5.43.73.22 0 .38.11.45.32.07.19.1.43.08.72-.03.5-.18 1.07-.44 1.7l-.61 1.55c-.2.3-.41.55-.64.73-.12.09-.22.07-.3-.06a6.41 6.41 0 0 1-.93-2.7.14.14 0 0 0-.04-.08l-.26-.27c-.08-.08-.06-.14.05-.16l.34-.09c.07-.02.1-.06.12-.13a.16.16 0 0 0-.08-.17 9.84 9.84 0 0 0-3.81-1.6 2.29 2.29 0 0 0-1.53.24c-.72.4-1.63.8-2.72 1.24-.94.38-1.58.72-1.9 1.02a3.05 3.05 0 0 0-.95 2.06l-.08.72c0 .06-.04.1-.1.12a.15.15 0 0 1-.15-.02 4.5 4.5 0 0 1-1.66-2.15c-.43-1.16-.09-1.95 1.01-2.38l3.5-1.22a66.45 66.45 0 0 0 4.62-1.85c.91-.4 1.95-.76 3.1-1.06 1.23-.33 2-.33 2.33 0 .06.05.08.12.07.2 0 .08-.04.14-.11.19-.57.36-1.67.81-3.32 1.36l-.34.11c-.52.18-.91.43-1.18.77Zm4.58-1.61a100 100 0 0 0-2.75 1.3c-.14.08-.22.18-.23.3-.01.1.03.14.12.15 1.77.17 2.96.27 3.56.32.15.01.35 0 .6-.02.18-.02.27-.11.26-.3-.05-.89-.3-1.53-.74-1.91a.29.29 0 0 0-.2-.06c-.08 0-.3.07-.62.22Zm-9.9 4.84c-.13.04-.2-.01-.19-.15 0-.09.03-.15.06-.2.11-.15.23-.24.35-.26.37-.06.74-.13 1.1-.23.28-.07.49-.06.64.02.13.07.26.24.37.5.02.04.01.08-.02.12a.12.12 0 0 1-.13.04 4.52 4.52 0 0 0-2.17.16Zm3.5-.27c.03.16.13.23.3.2a8.98 8.98 0 0 1 3.1-.03c.13.03.21-.02.24-.15l.02-.09c.04-.16-.02-.26-.18-.31a3.7 3.7 0 0 0-1.72-.2c-.24.05-.7.1-1.4.16-.12 0-.23.1-.33.28a.23.23 0 0 0-.02.14Zm-1.92.76-.14.16a.55.55 0 0 1-.43.25.55.55 0 0 1-.45-.14 6.92 6.92 0 0 0-.28-.26.6.6 0 0 0-.37 0l-.5.17c-.08.02-.11 0-.1-.08l.03-.1c.01-.05.05-.1.11-.12a5.06 5.06 0 0 1 2.73-.29c.14.03.2.1.17.25l-.02.06c-.02.1-.08.13-.17.12l-.28-.05c-.15-.03-.24-.02-.3.03Zm3.39.45c.26.12.52 0 .75-.39.05-.07.1-.1.18-.07l.9.2c.07 0 .1-.02.1-.09v-.05a5.69 5.69 0 0 0-2.9-.46c-.18.01-.27.11-.27.29 0 .05.05.1.15.14.06.03.13.03.2 0 .25-.09.44-.06.57.1.18.2.29.31.32.33Zm-1.77 2.87c.08 0 .2-.02.38-.05.25-.06.43-.07.54-.05.2.04.4.1.59.17.28.1.7.13 1.27.12l.28-.01c.16 0 .25.06.29.2.03.17-.03.28-.19.34-.77.27-1.83.4-3.16.4a9.93 9.93 0 0 1-3.16-.4c-.17-.06-.23-.17-.19-.34.04-.14.13-.21.29-.2h.28c.57.02.99-.02 1.27-.11.2-.07.39-.13.59-.17.1-.02.28 0 .54.04.17.04.3.06.38.06Zm.8 1.83c0 .19-.41.34-.92.34-.5 0-.92-.15-.92-.34 0-.18.41-.33.92-.33s.92.15.92.33Z" fill="#8A8B8D"/><path fill-rule="evenodd" d="m33.37 38.53 1.06-.5c.1-.04.12-.02.08.08-.1.26-.26.47-.45.6-.26.2-.23.29.1.29h5.66c.16 0 .24-.08.24-.23v-.2c0-.15-.08-.24-.25-.26l-.9-.17c-.26-.06-.38-.25-.38-.56.03-2.43.03-4.5.02-6.2 0-.17.04-.18.13-.04l4.7 7.46c.08.13.2.2.36.2h2.93c.22 0 .33-.1.33-.32v-.08c0-.2-.1-.3-.31-.3-.67 0-1.14-.1-1.41-.3l-.1-.06c-.08-.03-.17-.07-.18-.12V28.3c0-.23.25-.36.5-.39l.73-.09c.13-.01.2-.08.2-.2v-.4c0-.13-.07-.2-.21-.2h-3.16c-.1 0-.17.06-.17.17v.43c0 .14.08.2.22.2.6.02.89.16.89.44v7.05c0 .23-.01.25-.14.05l-5.15-8.18a.36.36 0 0 0-.33-.17h-2.86c-.13 0-.2.07-.2.2v.47c0 .1.05.15.14.16.7.05 1.18.15 1.44.31.4.23.59.64.6 1.25.01 3.46.01 6.23-.02 8.31 0 .16-.08.27-.25.33l-.12-.02c-.14-.05-.21-.14-.22-.28l-.08-4.55a2.32 2.32 0 0 0-2.24-2.21 5.16 5.16 0 0 0-2.77.32c-.52.14-.9.18-1.16.11a4.02 4.02 0 0 1-1.8-1.3c-.04-.05-.07-.04-.1 0l-.03.06a.05.05 0 0 0 0 .06 37.46 37.46 0 0 1 1.96 3.52c.05.1.12.15.2.15.08 0 .12-.04.13-.11a2.24 2.24 0 0 1 2.14-2.23c.27 0 .49.03.65.12.36.2.41.44.17.74-.34.42-.75.78-1.24 1.08l-1.6 1a2.61 2.61 0 0 0-1.29 1.94c-.12.98.23 1.68 1.05 2.12.36.19.76.28 1.2.28.44 0 .88-.1 1.3-.3Zm.93-4.96c-.22.19-.4.32-.53.41-.67.46-1.2 1-1.58 1.6-.29.44-.32.87-.1 1.28.24.42.64.56 1.2.43.42-.1.77-.32 1.05-.63a.27.27 0 0 0 .07-.19v-2.85a.05.05 0 0 0-.04-.06.06.06 0 0 0-.07.01Zm-21.34-.34c0 .02.04.03.06.04H13.1l6.02-5.4c.1-.1.08-.14-.07-.14H17.6c-.12 0-.18-.07-.18-.18v-.3c0-.16.08-.24.25-.24h4.2c.16 0 .24.08.24.24v.31c0 .1-.05.16-.16.16h-1c-.1 0-.18.03-.24.1l-5.26 4.9c-.07.06-.08.14-.03.22l2.82 4.4c.1.14.22.3.37.46.1.1.2.13.33.11a.35.35 0 0 0 .28-.2 436.7 436.7 0 0 0-.03-5.77c0-.12-.07-.2-.19-.22l-.64-.14a.27.27 0 0 1-.2-.15.26.26 0 0 1 0-.24c.06-.13.17-.2.33-.2h3.8c.15 0 .23.08.24.22.01.23-.12.4-.38.5-.31.13-.47.44-.47.92 0 2.36 0 4.08.02 4.82 0 .25.12.44.35.57l.1.06a.2.2 0 0 0 .2 0c.08-.04.11-.1.11-.17 0-.45 0-1.1-.04-1.93 0-.1 0-.19.02-.25.02-.05.06-.09.12-.1.07-.01.12 0 .16.05a8.27 8.27 0 0 0 2.5 2.06 2.1 2.1 0 0 0 1.94-.07c.49-.38.48-.73-.02-1.04a82.14 82.14 0 0 0-3.77-2.22c-.55-.29-.9-.67-1.05-1.14-.15-.5-.03-.98.35-1.45.68-.84 1.95-1.07 3.8-.71a1 1 0 0 0 .77-.14c.16-.1.33-.29.52-.56a.11.11 0 0 1 .1-.05c.05 0 .09.02.1.06.62 1.2 1.3 2.4 2.03 3.6.03.06.02.1-.04.12-.04.02-.07.02-.08 0h-.01c-1.36-1.25-2.36-2-3-2.27a3.6 3.6 0 0 0-1.1-.27c-.48-.03-.82.07-1.05.3-.2.19-.2.39-.02.6.23.26.51.47.85.65l.54.27c.88.43 1.51.79 1.89 1.06.64.46 1.04.94 1.2 1.46.28.88.07 1.61-.62 2.2-.65.54-1.42.75-2.34.64-.8-.1-1.63-.34-2.48-.7-.1-.05-.19-.03-.24.07l-.41.68a.3.3 0 0 1-.29.17h-7.35c-.06 0-.1-.02-.12-.07v-.08a22.61 22.61 0 0 1 .59-.67c.08-.1.1-.19.03-.3l-2.16-3.44c-.03-.05-.08-.07-.14-.05-.26.06-.65.2-.67.4v2.94c.01.28.43.46.72.52l.5.1c.06.02.1.06.13.12.04.1.06.18.06.26 0 .18-.1.27-.27.27H9.17c-.14 0-.2-.07-.16-.2l.06-.28c.03-.12.1-.19.24-.2l.54-.01c.66-.02.65-.62.64-1.16v-9.08c0-.22-.01-.34-.24-.34H9.4c-.13 0-.19-.05-.16-.18l.12-.41c.02-.1.07-.14.17-.14h4.73c.14 0 .2.07.2.2v.34c0 .14-.06.19-.2.19h-.9c-.23 0-.38.13-.39.35v5.15Zm8.54-3.43a1 1 0 1 1-2 0 1 1 0 0 1 2 0Z" fill="#0D96C7"/></svg>