<!-- by TradingView --><svg width="18" height="18" viewBox="0 0 18 18" xmlns="http://www.w3.org/2000/svg"><path fill="#F0F3FA" d="M0 0h18v18H0z"/><path d="M11.98 9 10 7.02V11L8 9l2-2h-.02 4l-2 2ZM16 9l-2 2V7l2 2Zm-2 2h-4l2-2 2 2Z" fill="#ED2027"/><path d="M5.76 6.12c.07-.16.27-.16.34 0l1.85 4.17c.17.4-.1.87-.47.8l-3.41-.6c-.14-.03-.21-.21-.15-.35l1.84-4.02Zm-1.48 3.92 3.15.43L5.9 6.64l-1.62 3.4Z" fill="#27A8E0"/><path d="M6.26 8.36c.18-.04.3.2.2.36l-1.9 3.22c-.05.07-.14.08-.2.02L2.05 9.62c-.09-.08-.05-.24.05-.27l2.45-.58-.21.46-1.82.38 1.85 1.6 1.5-2.3-1.17.24.22-.47 1.34-.32Z" fill="#FDBF14"/></svg>