<!-- by TradingView --><svg width="56" height="56" viewBox="0 0 56 56" xmlns="http://www.w3.org/2000/svg"><path fill="#F0F3FA" d="M0 0h56v56H0z"/><path d="M18 27.55V25H9.93C8.86 25 8 25.89 8 26.98v2.4c0 1.09.86 1.98 1.93 1.98h5.53V33H8v2h8.07c1.07 0 1.93-.89 1.93-1.98v-2.06c0-1.1-.86-1.98-1.93-1.98H10.5v-1.43H18ZM30 29.16h-2.4v-1.8h-5.09v5.2h5.1v-1.72H30v2.53c0 .9-.7 1.63-1.58 1.63h-6.84A1.6 1.6 0 0 1 20 33.37v-6.74c0-.9.7-1.63 1.58-1.63h6.84c.87 0 1.58.73 1.58 1.63v2.53ZM31 35v-7.4l2.49-2.6v7.73H41L38.83 35H31Z" fill="#9799A6"/><path d="m42.55 16-2.96 1.82c.05.54-.06 1.9-.9 3.11-1.02 1.5-2.56 2.88-2.56 5.7 0 2.84 2.77 4.5 5.49 4.5 2.71 0 6.38-1.74 6.38-6.69 0-3.96-3.63-7.28-5.45-8.44Z" fill="#9799A6"/><path d="M45.65 26.03c0-3.24-3.8-6.23-5.71-7.32-.45 4.58-3.2 4.5-3.2 7.95s3.2 3.96 4.31 3.96c1.12 0 4.6-.55 4.6-4.6Z" fill="#025AE2"/></svg>