<!-- by TradingView --><svg width="56" height="56" viewBox="0 0 56 56" xmlns="http://www.w3.org/2000/svg"><path fill="#F0F3FA" d="M0 0h56v56H0z"/><path d="M24.28 37.53c-1.72 1-3.6 1.48-5.45 1.47A11.03 11.03 0 0 1 8 28c.03-5.7 4.82-10.93 10.61-11 3.23-.04 6.5 1.47 8.62 4.09l4.5-2.62A10.72 10.72 0 0 1 37.27 17 11.03 11.03 0 0 1 48 28c-.03 5.8-4.93 10.97-10.8 11a10.9 10.9 0 0 1-8.43-4.09l-4.5 2.62ZM42 23.5V27l-10.15 6.12C33.2 34.55 35.08 35.96 37 36c4.06.09 7.97-3.94 8-8 .03-4.01-3.78-7.99-7.84-8-1.22 0-2.46.3-3.6.94L14 32.5V29l10.4-5.94C23 21.5 22 20 18.6 20c-4.11 0-7.58 4.08-7.61 8-.03 4.01 3.5 8 7.83 8 1.24.02 3.02-.85 4.17-1.5l19-11Z" fill="#005BAA"/></svg>