<!-- by TradingView --><svg width="56" height="56" viewBox="0 0 56 56" xmlns="http://www.w3.org/2000/svg"><path fill="#F0F3FA" d="M0 0h56v56H0z"/><path d="m38.73 22-1.3 1.4h2.84L38.73 22ZM42.4 22l-1.62 1.4h3.19L42.4 22ZM46.04 22l-1.47 1.4h2.95L46.04 22ZM42.01 22h-2.92l1.48 1.24L42 22ZM45.71 22h-2.86l1.42 1.24L45.7 22ZM40.42 23.66h-2.98l4.96 5.37-1.98-5.37ZM47.52 23.66h-3.25l-1.6 5.37 4.84-5.37ZM43.97 23.66h-3.2l1.76 5.26 1.44-5.26Z" fill="#D9352A"/><path d="M17.02 29.19a.67.67 0 0 0-.59-.58l-2.03-.22c-.38-.04-.53-.27-.45-.7v-.03c0-.44.25-.66.75-.66h5.87c.29 0 .43.16.43.46V32c0 .1-.03.2-.08.29a.5.5 0 0 1-.21.19 15.1 15.1 0 0 1-10.91.9C8 32.87 6.1 31.6 5.4 29.7c-.56-1.54-.53-3 .1-4.38.95-2.1 3.5-3.54 5.59-3.98a13.4 13.4 0 0 1 8.82.92c.28.13.46.46.53.97.07.47.02.98-.15 1.52a.6.6 0 0 1-.17.26.54.54 0 0 1-.28.13c-.22.04-.44-.04-.65-.24a36.2 36.2 0 0 1-1.34-1.3c-1.32-1.36-3.82-1.34-5.4-.83a5.2 5.2 0 0 0-2 1.34c-.52.53-.9 1.23-1.12 2.1A4.94 4.94 0 0 0 10.44 31a4.76 4.76 0 0 0 4.59 1.51c.45-.07.82-.17 1.1-.3.95-.42 1.02-2.12.9-3.03ZM26.6 30.2v1.83a.18.18 0 0 0 .04.13l.06.03.12.03h6.98c.05 0 .09.02.12.05.03.04.08.08.08.13v1.42a.18.18 0 0 1-.05.13.17.17 0 0 1-.12.05H23.17c-.05 0-.09-.06-.12-.1a.18.18 0 0 1-.05-.12v-8.6c0-.03.03-.05.04-.07a.18.18 0 0 1 .09-.1l.06-.01h10.62c.05 0 .19.17.19.21v1.22c0 .06-.16.18-.22.18H26.8a.16.16 0 0 0-.12.05.18.18 0 0 0-.05.13v1.35c0 .05.02.15.05.19.03.03.07.05.12.05h6.67a.16.16 0 0 1 .12.05.18.18 0 0 1 .05.12l.02 1.28a.18.18 0 0 1-.05.13.17.17 0 0 1-.06.04H26.8a.17.17 0 0 0-.12.05.3.3 0 0 0-.08.15ZM37.38 28.02v5.76c0 .14-.07.22-.2.22h-1.93c-.17 0-.25-.1-.25-.26v-8.5c0-.08.04-.13.12-.14a6 6 0 0 1 1.83-.05c.08.01.23.1.43.29a175.7 175.7 0 0 1 5.09 5.06.2.2 0 0 0 .16 0 449.85 449.85 0 0 1 4.94-4.99c.14-.15.46-.37.75-.38a10 10 0 0 1 1.52.02c.1 0 .16.07.16.18v8.67a.1.1 0 0 1-.03.07.1.1 0 0 1-.07.03h-2.18c-.09 0-.14-.04-.14-.13v-5.84a.14.14 0 0 0-.08-.13.14.14 0 0 0-.16.03l-4.54 4.88a.53.53 0 0 1-.78 0l-4.38-4.9c-.17-.17-.26-.14-.26.1Z" fill="#31328D"/></svg>