<!-- by TradingView --><svg width="18" height="18" viewBox="0 0 18 18" xmlns="http://www.w3.org/2000/svg"><path fill="#F0F3FA" d="M0 0h18v18H0z"/><path d="M14 7.18c0 1.19-.98 2.15-2.18 2.15H8.33V6.15c0-1.19.98-2.15 2.18-2.15h3.5v3.18Zm-3.6-2.21c-.67 0-1.22.54-1.22 1.21v2.18h2.75c.67 0 1.22-.54 1.22-1.2V4.96h-2.74Z" fill="#EC3237"/><path d="M8.33 11.72c0 .89-.74 1.61-1.66 1.61H4v-2.38c0-.9.75-1.62 1.67-1.62h2.66v2.39ZM5.6 10a.94.94 0 0 0-.92.95v1.72h2.07c.51 0 .93-.43.93-.96V10H5.59Z" fill="#6D6F73"/><path d="M8.33 7.35C8.33 6.6 7.7 6 6.93 6H4.66v1.99c0 .74.63 1.34 1.4 1.34h2.26V7.35ZM6.01 8.67c-.44 0-.8-.32-.8-.72V6.67H7c.44 0 .8.32.8.71v1.29H6Z" fill="#BEBFC1"/><path d="M13.33 11.22a1.9 1.9 0 0 0-1.92-1.89H8.33v2.79A1.9 1.9 0 0 0 10.26 14h3.07v-2.78Zm-3.11 1.93c-.56 0-1.02-.49-1.02-1.09V10.1h2.28c.56 0 1.02.49 1.02 1.09v1.96h-2.28Z" fill="#363435"/></svg>