<!-- by TradingView --><svg width="18" height="18" viewBox="0 0 18 18" xmlns="http://www.w3.org/2000/svg"><path fill="#F0F3FA" d="M0 0h18v18H0z"/><path d="M5 9.06V14h4v-2h3.39c.89 0 1.61-.47 1.61-1.29V6.54A1.6 1.6 0 0 0 12.39 5h-1.74A4.5 4.5 0 0 1 12 8.28a3.3 3.3 0 0 1-3.34 3.3 3.5 3.5 0 0 1-3.32-2.52H5Zm0-1.58h.24c.07-.41.42-1.5 1.22-2.48H5v2.48Z" fill="#071B56"/><path d="M7.67 4.5h1.68c-.1-.22-.19-.46-.27-.7H7.96c-.1.24-.19.48-.3.7Zm.42-1.06h.86c-.2-.58-.37-1.14-.46-1.44-.06.3-.2.86-.4 1.44Zm1.5 1.55H7.4l-.32.48-.01.02H9.9a9.44 9.44 0 0 1-.32-.5Zm.64 1h-3.5l-.3.51h4.1c-.09-.18-.2-.35-.3-.51Zm.54 1H6.22c-.09.24-.15.5-.19.77h4.94c-.04-.27-.11-.52-.2-.76ZM11 8.13H6v.12c0 .2.03.4.07.6h4.86a2.51 2.51 0 0 0 .07-.72ZM10.8 9.2H6.19c.11.3.28.57.48.8h3.65c.2-.23.37-.5.49-.8Zm-1.03 1.3H7.2c.44.32.92.5 1.3.5.37 0 .84-.18 1.28-.5Z" fill="#46BBE6"/></svg>