<!-- by TradingView --><svg width="56" height="56" viewBox="0 0 56 56" xmlns="http://www.w3.org/2000/svg"><path fill="#F0F3FA" d="M0 0h56v56H0z"/><path d="M5.01 28c8.04 3.17 13.22 4.44 22.99 4.44 9.77 0 14.95-1.27 22.99-4.44H52c-8.83 5.23-14.25 7-24 7s-15.17-1.77-24-7h1.01Z" fill="#0265CA"/><path d="M7.5 27c-.72-1.35.22-3 1.71-3H12l-.54 2H9.98c-.38 0-.62.43-.42.77l1.93 3.17c.8 1.34-.14 3.06-1.67 3.06H5v-2h4.52L7.5 27ZM43.25 25.74 44 24h-1.84c-.58.22-1.76.87-1.76 1.74 0 1.1 1.19 1.63 1.19 2.32 0 .54-.8.77-1.2.82L40 30h2.16c.43-.18 1.27-.78 1.27-1.7 0-1.15-1.2-1.52-1.2-2.09 0-.46.68-.5 1.02-.47ZM16.67 26h-1.2l-1.54 4H12l1.54-4h-1.28l.78-2h4.42l-.79 2ZM48.67 26h-1.2l-1.54 4H44l1.54-4h-1.28l.78-2h4.42l-.79 2ZM26.18 26h-1.95l-.24.61h1.72l-.43.91h-1.63l-.37.98h1.92l-.73 1.5H21l2.27-6H27l-.82 2ZM21.18 26h-1.95l-.24.61h1.72l-.43.91h-1.63l-.37.98h1.92l-.73 1.5H16l2.27-6H22l-.82 2ZM29 28.52h1.71L30.04 30H26l2.65-6H31l-2 4.52ZM33.5 24H36l-.9 1.87h-1.4c-.37.06-.97.46-.97 1.33 0 .87.6 1.32.98 1.47L32.89 30h-.93a4.5 4.5 0 0 1-.96-2.68c0-1.9 1.58-3.32 2.5-3.32ZM40 30h-1.75v-.7h-2l-.5.7H34l4.25-6H40v6Zm-2.83-2h1.08v-1.52L37.17 28Z" fill="#0265CA"/></svg>