<!-- by TradingView --><svg width="56" height="56" viewBox="0 0 56 56" xmlns="http://www.w3.org/2000/svg"><path fill="#F0F3FA" d="M0 0h56v56H0z"/><path d="M24.12 43.41a.12.12 0 0 1-.02.13.12.12 0 0 1-.13.03c-4.89-1.5-8.36-4.43-10.43-8.75A16.02 16.02 0 0 1 18.5 15.1c4.56-3.37 10.15-3.93 15.46-2.03a.17.17 0 0 1 0 .31c-11.38 5-14.24 16.48-10.66 27.64.18.56.45 1.35.81 2.38Z" fill="#F08535"/><path d="m39.5 17.25-1.77.72c-7.72 3.1-12.23 9.5-13.96 17.6a.12.12 0 0 1-.23-.01c-1.08-10.21 4.15-19.1 14.2-21.98.25-.06.42-.12.5-.16.37-.15.6-.03.7.36.2.83.43 1.92.67 3.25a.2.2 0 0 1-.11.22Z" fill="#16864D"/><path d="M24.92 41.88c-.02-.02-.02-.12.01-.3v-.25c-1.52-11.5 6.38-20.6 17-23.6a.15.15 0 0 1 .18.08 18.8 18.8 0 0 1 1.26 6.17.48.48 0 0 1-.38.5c-9.33 2.04-15.23 7.81-17.72 17.3a.21.21 0 0 1-.15.14.22.22 0 0 1-.2-.04Z" fill="#16864D"/><path d="M43.71 26.4a.24.24 0 0 1 .25.23 16.22 16.22 0 0 1-6.77 14.47 16.17 16.17 0 0 1-10.58 2.87.36.36 0 0 1-.32-.42A21.44 21.44 0 0 1 39.92 27.1c1.3-.47 2.56-.7 3.8-.7Z" fill="#16864D"/></svg>