<!-- by TradingView --><svg width="18" height="18" viewBox="0 0 18 18" xmlns="http://www.w3.org/2000/svg"><path fill="#F0F3FA" d="M0 0h18v18H0z"/><path d="M11 4c.03.06-1.55.82-3.65 1.77a70.98 70.98 0 0 1 5.68 2.55.5.5 0 0 1 .26-.27c0-1.81.06-3.05.14-3.05.08 0 .15 1.22.16 3a.5.5 0 0 1 0 .99c0 1.96-.08 3.5-.16 3.51-.08 0-.14-1.57-.14-3.55a.5.5 0 0 1-.18-.14 49.27 49.27 0 0 1-4.13 2.83.5.5 0 0 1-.26.3A42.32 42.32 0 0 1 13 14c-.04.06-2.09-.78-4.57-1.88l-.4-.18v.01l-.02-.02A38.53 38.53 0 0 1 4 10c.03-.05 1.7.63 3.84 1.57-.19-.5-.48-1.43-.77-2.5-.4-1.43-.67-2.63-.66-2.89A43.25 43.25 0 0 1 2 8c-.04-.07 1.87-.98 4.28-2.05A.5.5 0 0 1 6.5 5c.28 0 .5.22.5.5a.5.5 0 0 1-.02.13h.01A37.9 37.9 0 0 1 11 4ZM6.57 6.12l-.1.05c.12.2.51 1.39.91 2.84.32 1.15.56 2.15.64 2.63A.5.5 0 0 1 8 11.5a.5.5 0 0 1 .99-.1 52.11 52.11 0 0 1 4.05-2.71.5.5 0 0 1-.03-.28 67.07 67.07 0 0 1-5.85-2.56l-.59.27Z" fill="#1867B2"/></svg>