<!-- by TradingView --><svg width="56" height="56" viewBox="0 0 56 56" xmlns="http://www.w3.org/2000/svg"><path fill="#E8DEDC" d="M0 0h56v56H0z"/><path d="M25.23 14.68a.73.73 0 0 1-.12 0 .04.04 0 0 1-.04-.02l-.08-.54a.2.2 0 0 0-.05-.11l-.55-.54c-.03-.03-.02-.05.02-.06l.24-.04a.12.12 0 0 1 .11.05 20.13 20.13 0 0 1 .32.34 18.57 18.57 0 0 1 .23-.48.12.12 0 0 1 .06-.02l.24-.04c.04 0 .05 0 .03.05l-.34.68a.2.2 0 0 0-.02.12l.1.54a.04.04 0 0 1-.03.04.73.73 0 0 1-.12.03ZM31.21 14.18l.05.16c.02.04.03.04.04 0l.17-.69c.01-.03.03-.04.07-.04l.18.05c.04 0 .06.03.05.07l-.3 1.25c-.01.02-.02.03-.04.02l-.23-.05a.05.05 0 0 1-.04-.03 5.84 5.84 0 0 0-.24-.83c-.02-.04-.03-.04-.04 0l-.17.69c-.01.03-.03.04-.07.04l-.18-.05c-.04 0-.06-.03-.05-.07l.3-1.25c.01-.02.02-.03.04-.02l.23.05c.02 0 .03.02.04.03l.05.15.14.52Z" fill="#C8A06E"/><path fill-rule="evenodd" d="M28.25 13.13a.4.4 0 0 0-.1 0h-.08a.1.1 0 0 0-.07.05l-.56 1.25c-.02.04-.01.06.03.06l.22-.01a.09.09 0 0 0 .07-.05l.09-.19a.05.05 0 0 1 .05-.03 5.35 5.35 0 0 0 .43.02c.03 0 .04 0 .05.03l.07.2a.09.09 0 0 0 .07.05l.21.02c.05 0 .06-.01.05-.05l-.47-1.3a.1.1 0 0 0-.06-.05Zm-.12.4-.18.42a.02.02 0 0 0 0 .02h.02l.3.02h.01v-.01h.01v-.02l-.13-.43-.01-.01h-.02Z" fill="#C8A06E"/><path d="m22.54 15.1.36-.14a.05.05 0 0 1 .07.02l.07.17a.05.05 0 0 1 0 .04.05.05 0 0 1-.03.03l-.66.24h-.02a.05.05 0 0 1-.04-.01v-.02l-.44-1.2a.05.05 0 0 1 .02-.06l.2-.08a.05.05 0 0 1 .06.03l.35.95v.01a.05.05 0 0 0 .06.02ZM35.52 16.05a.37.37 0 0 0-.07.28c.06.29.24.4.54.32h.04c.08.03.15.08.23.14l.02.01v.02a.04.04 0 0 1-.02.04c-.31.16-.6.15-.85-.05a.7.7 0 0 1-.15-.92c.2-.3.59-.42.9-.25.3.14.43.4.4.74a.04.04 0 0 1-.02.04.04.04 0 0 1-.04 0 .85.85 0 0 1-.21-.16.08.08 0 0 1-.02-.03c-.07-.3-.24-.42-.52-.35a.38.38 0 0 0-.23.17Z" fill="#C8A06E"/><path fill-rule="evenodd" d="M19.88 16.37a9.23 9.23 0 0 0 .4-.23h.04l.16.13c.03.02.06.02.09 0l.19-.09c.04-.02.04-.04 0-.07l-1.1-.83a.07.07 0 0 0-.07-.01.64.64 0 0 0-.16.1.07.07 0 0 0-.03.06l.2 1.36c.01.05.04.05.07.03l.18-.12a.07.07 0 0 0 .03-.08l-.03-.2a.05.05 0 0 1 .03-.05Zm-.18-.7.09.43a.02.02 0 0 0 .03.02l.24-.15a.02.02 0 0 0 .02-.01v-.01l-.01-.01-.34-.29a.02.02 0 0 0-.03.01v.01Z" fill="#C8A06E"/><path d="m17.57 17.56.05.02.73.13c.04 0 .05.02.02.05l-.2.19a.13.13 0 0 1-.12.03l-.61-.15h-.01a.02.02 0 0 0-.01 0v.01l.01.04a10.13 10.13 0 0 0 .34.4v.02l-.16.15a.05.05 0 0 1-.04.02.06.06 0 0 1-.04-.02 105.02 105.02 0 0 0-.87-1 .05.05 0 0 1 .02-.03l.16-.13.03-.01.03.01a10 10 0 0 0 .38.38v-.01l-.09-.63a.12.12 0 0 1 .05-.12l.21-.17c.03-.02.05-.01.05.03a74.35 74.35 0 0 0 .07.79Z" fill="#C8A06E"/><path fill-rule="evenodd" d="M38.77 17.76a.5.5 0 0 0-.12-.12.09.09 0 0 0-.1-.01l-1.25.53c-.04.02-.04.04-.01.07l.15.15c.02.02.05.03.07.01l.2-.08a.05.05 0 0 1 .06 0 22.99 22.99 0 0 0 .33.35v.02l-.09.2c0 .04 0 .06.02.08l.15.15c.03.03.05.03.07 0l.53-1.26a.09.09 0 0 0-.01-.1Zm-.37.22-.38.18H38v.03l.2.2v.01h.03v-.01l.19-.38V18l-.02-.01h-.01ZM39.47 20.63l.32-.21h.04l.1.14c.13.19.38.26.58.13.24-.16.3-.4.15-.65l-.23-.34c-.03-.04-.06-.05-.1-.02l-1.04.7c-.03.03-.04.06-.01.1l.1.14a.07.07 0 0 0 .07.03l.02-.02Zm.88-.58h-.04l-.24.18a.06.06 0 0 0-.02.08l.05.07a.2.2 0 0 0 .28.05l.01-.01a.2.2 0 0 0 .05-.27l-.05-.08a.06.06 0 0 0-.04-.02Z" fill="#C8A06E"/><path d="M26.24 24.37c-.01.02 0 .03.02.02.37-.17.85-.19 1.2.02.38.22.6.6.72 1.02a41.62 41.62 0 0 1 .26.8 4.01 4.01 0 0 1 3.24.08 4.11 4.11 0 0 1 1.09.7v.03l-.4 1.1a.02.02 0 0 1-.02 0c-.58-.95-1.5-1.84-2.61-1.93a2.43 2.43 0 0 0-1.25.25v.02c.19.63.36 1.53.86 2 .16.15.33.17.53.06a.05.05 0 0 1 .07.03v.02c0 .03 0 .06-.03.1-.27.4-.83.47-1.24.29-.63-.29-.86-1.17-1.03-1.78h-.01a.02.02 0 0 0-.02 0c-.14.2-.25.42-.34.66-.86 2.48.73 5.88 3.7 5.47a2.77 2.77 0 0 0 1.94-1.22.04.04 0 0 1 .04 0h.01l.02.02.01.02v.03a3.35 3.35 0 0 1-1.55 1.49c-.84.4-1.82.42-2.7.16-1.77-.54-2.79-2.38-2.67-4.17a4.1 4.1 0 0 1 1.43-2.85.04.04 0 0 0 .01-.04c-.14-.54-.25-1.2-.6-1.67-.69-.9-1.76.42-2.12 1l-.02.05v1.63c.02.44.1 1.14.69 1.11h.01c.05.03.02.11-.03.11h-2.4c-.06 0-.07-.1-.02-.1.72.03.7-1 .7-1.47v-4.66c-.01-.52.06-1.65-.7-1.67-.04 0-.04-.1 0-.1h2.42c.06 0 .08.1.02.1-.66 0-.7.92-.7 1.4a955.02 955.02 0 0 1 .04 3.2c.96-1.33 2.18-2.5 3.27-3.73.4-.47.09-.84-.42-.87l-.03-.01c-.03-.03 0-.09.04-.09h1.8c.02 0 .03.01.03.04v.02c0 .03 0 .04-.03.04-.56.03-1.02.77-1.36 1.15a2568.87 2568.87 0 0 0-1.87 2.12Z" fill="#A51E24"/><path d="m41.77 22.1-1.16.53a.05.05 0 0 0-.03.07l.09.18c.01.03.04.04.07.02l1.16-.53a.05.05 0 0 0 .03-.07l-.09-.18a.05.05 0 0 0-.07-.03ZM42.78 24.6c.05.17.1.34.13.5 0 .03 0 .05-.04.05l-.17.05h-.04a.05.05 0 0 1-.02-.03l-.08-.31-.01-.02h-.02l-1.01.27a.03.03 0 0 1-.04-.02 2 2 0 0 1-.06-.25l.02-.02 1-.28a.02.02 0 0 0 .02-.03l-.09-.3v-.04l.04-.03.17-.04c.03-.01.05 0 .06.03l.14.48Z" fill="#C8A06E"/><path fill-rule="evenodd" d="M43.3 27.66a.55.55 0 0 0-.02-.2.07.07 0 0 0-.04-.04L41.93 27c-.04-.01-.05 0-.05.04v.19c0 .05.02.08.07.1l.18.05a.07.07 0 0 1 .05.06l.01.2a42.36 42.36 0 0 0 0 .25c0 .01 0 .02-.02.03L42 28c-.04.03-.06.06-.05.11l.03.19c0 .03.02.04.05.03l1.23-.62a.07.07 0 0 0 .04-.05Zm-.43-.08-.41-.13h-.01l-.01.01v.01l.02.3v.01a.02.02 0 0 0 .02 0l.4-.17a.02.02 0 0 0 0-.02h-.01Z" fill="#C8A06E"/><path d="m42.16 30.35-.05.4a.04.04 0 0 1-.04.04l-.2-.02a.04.04 0 0 1-.03 0 .04.04 0 0 1 0-.04l.07-.72a.04.04 0 0 1 .05-.04l1.28.15a.04.04 0 0 1 .04.04l-.02.22v.02a.04.04 0 0 1-.02.02h-.02l-1.02-.1h-.03l-.01.03ZM42.38 33.38c.08-.1.18-.33 0-.38-.03-.02-.06 0-.1.02a.36.36 0 0 0-.08.09c-.14.28-.34.63-.71.42-.32-.18-.2-.7 0-.91a.46.46 0 0 1 .44-.14c.03 0 .04.02.03.05l-.08.22a.04.04 0 0 1-.04.02c-.2.02-.3.14-.29.35 0 .1.06.15.17.14l.04-.02c.2-.2.32-.67.68-.56.23.07.34.31.29.54-.02.08-.06.18-.13.29-.1.15-.24.22-.43.19-.02 0-.03-.02-.03-.05l.05-.2v-.01l.03-.01.12-.03.04-.02Z" fill="#C8A06E"/><path fill-rule="evenodd" d="M27.4 44.49c-1.23-.2-2.95-.6-4.95-1.35a27.22 27.22 0 0 1-5.88-3.24 16.44 16.44 0 0 0 10.82 4.59Zm-12.69-6.7c.57.35 1.31.8 1.86 1.08.23.11.69.27 1.27.44l1.95.55 1.96.54c.57.17 1.05.33 1.32.47.25.12.7.4 1.23.75l.02.01c.54.35 1.2.77 1.88 1.18.69.4 1.4.79 2.06 1.08l.76.28c.46.12.8.18.98.18v.03c.34-.04.67-.1 1-.15a5 5 0 0 1-1.54-.08 11.09 11.09 0 0 1-3.12-1.63l-.1-.06a16.6 16.6 0 0 0-3.3-1.82 30.43 30.43 0 0 0-3.05-.92l-.2-.05c-.99-.26-1.99-.53-3.25-1.03-.75-.3-1.4-.7-1.95-1.17l.22.31Zm-3.17-8.63A16.5 16.5 0 1 1 35.08 42.9c-3 .38-4.98-.22-6.63-1.1-.75-.4-1.42-.86-2.1-1.31l-.33-.23a15.18 15.18 0 0 0-2.46-1.4c-1.68-.73-3.14-1-4.46-1.23l-.2-.04a10.7 10.7 0 0 1-3.82-1.23c-.96-.57-1.7-1.86-2.25-3.31a35 35 0 0 1-1.29-3.9Zm1.97 6.74-.05-.1c.41.58.9 1.05 1.47 1.33.56.28 1.11.51 1.66.7l-1.54-.47a2.62 2.62 0 0 1-1-.75c-.17-.2-.36-.44-.54-.7ZM45 28a17 17 0 1 1-34 0 17 17 0 0 1 34 0ZM19.46 38.66l-1.12-.32a38.13 38.13 0 0 0 1.61.36c1.2.25 2.35.5 3.5.94 1.1.43 1.8 1.03 2.49 1.64l.3.27c.82.7 1.7 1.34 3.24 1.6.95.16 1.93.22 2.83.22-1.04.1-2.05.13-2.78-.02a8.58 8.58 0 0 1-3.32-1.72l-.55-.42c-.3-.23-.58-.45-.85-.64a5.06 5.06 0 0 0-1.26-.71c-.49-.16-2-.6-3.63-1.06l-.46-.14Zm13.1 4.99.46-.06-.45.1a7.55 7.55 0 0 1-3.03.16c-.97-.24-1.96-.87-3.04-1.58l-.11-.07a16.8 16.8 0 0 0-3.34-1.84c-1.2-.44-2.15-.69-3.08-.93l-.2-.05c-.99-.26-1.97-.52-3.21-1.02-.4-.16-.77-.35-1.11-.56.91.28 2.44.72 3.92 1.15l.47.13c1.63.47 3.13.9 3.61 1.06.36.12.75.36 1.18.67.27.2.55.4.84.63l.57.43c1 .75 2.14 1.52 3.43 1.78.83.16 1.98.12 3.1 0Zm-4.26-1.58c.7.37 1.45.7 2.3.92a15.1 15.1 0 0 1-1.08-.14 5.82 5.82 0 0 1-3.08-1.53l-.3-.26a8.24 8.24 0 0 0-2.59-1.7c-1.17-.45-2.35-.7-3.54-.95l-.62-.14c-1.41-.3-2.84-.66-4.32-1.4-1.15-.58-1.96-1.98-2.52-3.56-.11-.32-.21-.65-.3-.98l.3.84c.56 1.45 1.33 2.83 2.37 3.46 1.28.76 2.55 1.02 3.93 1.27l.2.03c1.31.24 2.74.5 4.4 1.2a14.9 14.9 0 0 1 2.74 1.62c.67.45 1.36.91 2.11 1.32Zm-5.75.79a25.53 25.53 0 0 1-4.95-2.62l.02.01c1.14.57 2.48 1.15 3.85 1.7 2.18.88 4.46 1.7 6.23 2.28-1.2-.17-3.01-.57-5.15-1.37Zm-.97-1.19c1.18.48 2.4.94 3.54 1.35-.85-.4-1.75-.85-2.69-1.38-.65-.27-1.31-.46-2-.66-.56-.16-1.13-.33-1.73-.54.9.41 1.88.83 2.88 1.23Zm4.47 1.4.23.13a34.32 34.32 0 0 1-3.7-1.83h-.02c-.7-.29-1.38-.49-2.08-.69-1.13-.33-2.29-.67-3.59-1.36.24.09.54.18.86.28l1.96.54 1.95.55c.58.17 1.04.33 1.27.44.24.12.67.4 1.22.75.55.36 1.2.78 1.9 1.19Z" fill="url(#a)"/><defs><linearGradient id="a" x1="16.5" y1="17.5" x2="42" y2="37" gradientUnits="userSpaceOnUse"><stop stop-color="#F0CF83"/><stop offset=".27" stop-color="#C77924"/><stop offset=".54" stop-color="#EBC585"/><stop offset=".8" stop-color="#CE935E"/><stop offset="1" stop-color="#CB7D25"/></linearGradient></defs></svg>