<!-- by TradingView --><svg width="18" height="18" viewBox="0 0 18 18" xmlns="http://www.w3.org/2000/svg"><path fill="#F0F3FA" d="M0 0h18v18H0z"/><path d="m6.63 12-.4-.37C5 10.5 4 9.58 4 7.65 4 5.08 6.24 3 9 3c1.68 0 3.16.77 4.07 1.95-.71-.4-1.54-.64-2.44-.64-.7 0-1.34.18-1.93.43-.68.07-1.32.3-1.82.74-.6.54-.88 1.27-.88 2.05 0 .65.17 1.26.6 1.77 1.28 1.5 1.15 1.66.03 2.7Z" fill="#3155A6"/><path d="M14 7.65c0 1.93-1 2.86-2.22 3.98l-.4.37-.4-.37c-.86-.8-.49-1.28.3-2.2a2.75 2.75 0 0 0 .7-1.93c0-1.5-1.24-2.7-2.86-2.77a3.47 3.47 0 0 0-.43.01 4.88 4.88 0 0 1 4.38.2c.59.77.93 1.7.93 2.71ZM9 11c.15 0 .27-.04.36-.12a.4.4 0 0 0 .14-.33v-2.1a.4.4 0 0 0-.14-.33A.54.54 0 0 0 9 8a.54.54 0 0 0-.36.12.4.4 0 0 0-.14.33v2.1c0 .14.05.25.14.33.1.08.22.12.36.12Z" fill="#ED1C24"/><path d="M9 7c.14 0 .26-.05.35-.15.1-.1.15-.21.15-.35a.48.48 0 0 0-.15-.35A.48.48 0 0 0 9 6a.48.48 0 0 0-.35.15c-.1.1-.15.21-.15.35 0 .14.05.26.15.35.1.1.21.15.35.15Z" fill="#ED1C24"/><path d="M11 12.5a.46.46 0 0 0-.16-.36.64.64 0 0 0-.44-.14H7.6a.64.64 0 0 0-.44.14c-.1.1-.16.21-.16.36 0 .14.05.26.16.36.1.1.25.14.44.14h2.8c.2 0 .34-.05.44-.14.1-.1.16-.22.16-.36ZM10 14.5a.59.59 0 0 0-.1-.36.34.34 0 0 0-.3-.14H8.4a.34.34 0 0 0-.3.14c-.07.1-.1.21-.1.36 0 .14.03.26.1.36.07.1.17.14.3.14h1.2c.13 0 .23-.05.3-.14a.6.6 0 0 0 .1-.36Z" fill="#58595B"/></svg>