<!-- by TradingView --><svg width="56" height="56" viewBox="0 0 56 56" xmlns="http://www.w3.org/2000/svg"><path fill="#F0F3FA" d="M0 0h56v56H0z"/><path d="M24.35 12a13.4 13.4 0 0 1 5.1 1.13c2.4.94 4.22 1.55 5.48 1.84 1.28.29 2.23.28 2.86-.04a.08.08 0 0 1 .07 0l.03.03V15c0 .06-.02.11-.06.16a3.68 3.68 0 0 1-2.82 1.22 12.9 12.9 0 0 1-3.14-.48 41.84 41.84 0 0 1-2.38-.66 68.7 68.7 0 0 0-5.67-1.54 20.6 20.6 0 0 0-5.64-.41.05.05 0 0 1-.02-.07l.02-.03c1.48-.7 3.06-1.1 4.76-1.19h1.41ZM25 22.7v.02h.02a.03.03 0 0 0 .03 0l5.42-2.71a.1.1 0 0 1 .1 0l.03.03v2.58l.02.03.02.02a.06.06 0 0 0 .06 0L35.86 20a.1.1 0 0 1 .1 0l.03.03.01.05v2.56l.01.03.03.03a.08.08 0 0 0 .07 0l4.75-2.67a.1.1 0 0 1 .13.03l.01.05v3.8a.1.1 0 0 1-.03.07.1.1 0 0 1-.07.03H15.09a.1.1 0 0 1-.07-.03.08.08 0 0 1-.02-.06c.14-2.34.33-5.1.55-8.3.02-.28-.01-.53-.1-.76-.1-.29-.13-.54-.1-.74 0-.03.02-.06.05-.08a.14.14 0 0 1 .08-.03h4.3c.03 0 .06.01.09.04.03.02.04.05.04.09 0 .15-.04.36-.11.65-.08.28-.12.5-.1.63a2888.32 2888.32 0 0 0 .5 7.28.06.06 0 0 0 .04.02h.03L24.89 20a.08.08 0 0 1 .08 0l.02.02.01.04v2.64Z" fill="#2D3E50"/><path d="M20.38 34.1v.03l-.03.01a.04.04 0 0 1-.04-.02l-5.3-9.02a.06.06 0 0 1 .02-.1H26.3c.01 0 .03 0 .04.02a.07.07 0 0 1-.03.12 6.97 6.97 0 0 0-4.64 3.22c-.86 1.37-1.29 3.29-1.28 5.75Z" fill="#2C4D81"/><path d="M28.57 30.45c.12.07.29.13.51.2 1.16.37 1.86 1.24 2.1 2.62.19 1-.09 1.85-.82 2.53-.7.64-1.57.96-2.63.96-1.4 0-2.52-.66-3.37-1.97a5.46 5.46 0 0 1-.18-5.94 7.03 7.03 0 0 1 4.37-3.59c.67-.19 1.9-.27 3.7-.25a465.37 465.37 0 0 0 8.67 0 .13.13 0 0 1 .07.07l.01.05a.5.5 0 0 1-.03.19 135.3 135.3 0 0 1-5.25 8.57h-.05a.07.07 0 0 1-.03-.03 3.59 3.59 0 0 0-1.02-3.08 1.21 1.21 0 0 0-.92-.37 562.75 562.75 0 0 0-5.14 0v.03l.01.01ZM28 40.99a9.9 9.9 0 0 0 4.18-1.19.1.1 0 0 1 .1.1.1.1 0 0 1-.02.06l-4.21 7c0 .02-.02.03-.04.04h-.05a.07.07 0 0 1-.03-.03l-4.17-7.03a.1.1 0 0 1 0-.13.1.1 0 0 1 .14-.02c1.63.8 3 1.2 4.1 1.2Z" fill="#00AFEF"/></svg>