<!-- by TradingView --><svg width="18" height="18" viewBox="0 0 18 18" xmlns="http://www.w3.org/2000/svg"><path fill="#F0F3FA" d="M0 0h18v18H0z"/><path d="M10.08 12a.02.02 0 0 1-.03-.01 2.33 2.33 0 0 1-.01-.44c.01-.34.05-.7.1-1.07a25.58 25.58 0 0 0 .16-1.91.02.02 0 0 0-.03-.01 51.92 51.92 0 0 0-2.71.81l-.01.03c-.05.25-.1.63-.18 1.15-.04.26-.17.38-.39.38a.08.08 0 0 1-.07-.06l-.06-.23c-.07-.58-.12-.94-.15-1.08a1.6 1.6 0 0 0-.3-.59l-.55-.78c-.04-.05-.04-.1-.02-.13a.33.33 0 0 1 .16-.1.45.45 0 0 1 .19-.03c.03 0 .07.01.1.04l.93.76a.08.08 0 0 0 .07.02c.1-.02.19-.05.26-.08a116.34 116.34 0 0 1 2.25-1.1.12.12 0 0 0 .06-.05.1.1 0 0 0 0-.08c0-.03-.03-.06-.08-.1l-.02-.02L7.6 5.5a1.9 1.9 0 0 1-.24-.26.06.06 0 0 1 .03-.07c.14-.07.29-.12.44-.15.19-.03.34 0 .45.07a6 6 0 0 0 .75.44 17.53 17.53 0 0 1 1.47.82l.65.36c.15.1.3.13.48.08.1-.03.33-.1.66-.23l.61-.22c.43-.12.75-.1.96.05.12.08.16.2.1.33a.63.63 0 0 1-.23.3c-.19.14-.4.26-.6.35l-1.06.44a.5.5 0 0 0-.15.1 42.15 42.15 0 0 1-1.06 3.33c-.08.28-.17.45-.27.5-.2.12-.37.2-.52.27ZM5.96 9.54c0-.2-.14-.37-.31-.37-.17 0-.31.17-.31.37 0 .2.14.36.3.36.18 0 .32-.17.32-.37ZM4.25 10.46c.15 0 .27-.12.27-.26s-.13-.26-.28-.25c-.15 0-.27.12-.27.26s.13.25.28.25ZM3.37 11.2c0-.12-.09-.21-.19-.21s-.18.1-.18.21c0 .12.09.2.19.2s.18-.09.18-.2Z" fill="#EB1E26"/></svg>