<!-- by TradingView --><svg width="56" height="56" viewBox="0 0 56 56" xmlns="http://www.w3.org/2000/svg"><path fill="#F0F3FA" d="M0 0h56v56H0z"/><path fill-rule="evenodd" d="M27 29v13.97c-3.3-.22-6.31-1.5-8.69-3.52L22.67 29H27Zm-6.5 0-3.73 8.95A14.94 14.94 0 0 1 13.03 29h7.47Zm2.16-2H27V13.03a14.94 14.94 0 0 0-8.83 3.64L22.66 27Zm-6.01-8.8 3.82 8.8h-7.44a14.94 14.94 0 0 1 3.62-8.8Zm22.58 19.75A14.94 14.94 0 0 0 42.97 29H35.5l3.73 8.95Zm-1.54 1.5A14.93 14.93 0 0 1 29 42.97V29h4.33l4.36 10.45ZM35.53 27h7.44a14.94 14.94 0 0 0-3.62-8.8L35.53 27Zm2.3-10.33L33.34 27H29V13.03c3.37.22 6.44 1.56 8.83 3.64ZM28 45a17 17 0 1 0 0-34 17 17 0 0 0 0 34Z" fill="#FB0000"/></svg>