<!-- by TradingView --><svg width="18" height="18" viewBox="0 0 18 18" xmlns="http://www.w3.org/2000/svg"><path fill="#F0F3FA" d="M0 0h18v18H0z"/><path d="M9.55 4.16c.94.1 1.79.47 2.48 1.02L9.55 7.67V4.16Zm3.27 1.8c.55.7.91 1.55 1.02 2.49h-3.5l2.48-2.48Zm1.02 3.6c-.1.93-.47 1.78-1.02 2.47l-2.49-2.48h3.51Zm-1.8 3.26c-.7.55-1.55.91-2.49 1.02v-3.5l2.48 2.48Zm-3.6 1.02a4.9 4.9 0 0 1-2.47-1.02l2.48-2.49v3.51Zm-3.26-1.8a4.87 4.87 0 0 1-1.02-2.49h3.5l-2.48 2.48Zm-1.02-3.6c.1-.93.47-1.78 1.02-2.47l2.49 2.48H4.16Zm1.8-3.26c.7-.55 1.56-.91 2.49-1.02v3.5L5.97 5.19Z" fill="#322B6A"/><path d="M9 4.3a4.69 4.69 0 1 1 .01 9.38A4.69 4.69 0 0 1 9 4.3Z" fill="#322B6A"/><path d="M8.63 4.4v-.08c.1-.02.16-.08.15-.19v-.18c0-.12.02-.16-.08-.25l-.13-.13a.27.27 0 0 1 0-.2c.02-.09.12-.1.17-.12v-.12c0-.06.03-.12.1-.13h.3c.07.01.11.07.1.13v.12c.06.01.16.03.19.13.01.05 0 .13-.02.19a.52.52 0 0 1-.13.13c-.09.1-.08.13-.08.25v.18c0 .1.05.17.15.2v.06h-.72ZM5.48 6a.26.26 0 0 0-.05-.05c.05-.08.05-.17-.02-.24l-.14-.13c-.08-.08-.1-.12-.23-.12h-.18a.25.25 0 0 1-.15-.13c-.05-.09.01-.18.04-.21l-.09-.1c-.04-.03-.07-.1-.02-.15l.22-.22c.05-.04.12-.02.16.02l.09.09c.03-.03.12-.09.2-.04.07.03.12.09.13.15l.01.18c0 .13.04.15.12.23l.14.14c.06.07.15.08.23.02L6 5.5 5.48 6ZM4.4 9.37h-.08c-.02-.1-.08-.16-.19-.15h-.18c-.12 0-.16-.02-.25.08l-.13.13a.27.27 0 0 1-.2.01c-.09-.03-.1-.13-.12-.18h-.12c-.06 0-.12-.03-.13-.1v-.3c.01-.07.07-.1.13-.1h.12c.01-.06.03-.16.13-.19a.27.27 0 0 1 .19.02c.05.03.09.1.13.13.1.1.13.08.25.08h.18c.1 0 .17-.05.2-.15h.06v.72ZM6 12.52l-.05.05c-.08-.05-.17-.05-.24.03l-.13.13c-.08.09-.12.1-.12.23v.18a.26.26 0 0 1-.13.15c-.09.05-.18-.01-.21-.04l-.1.09c-.03.05-.1.07-.15.02l-.22-.22c-.04-.05-.02-.11.02-.16l.09-.09c-.03-.03-.09-.12-.04-.2.03-.07.09-.12.15-.13h.18c.13 0 .15-.04.23-.13l.14-.13c.07-.07.08-.15.02-.24l.05-.05.51.5ZM9.37 13.6v.08c-.1.03-.16.08-.15.19v.18c0 .12-.02.16.08.25.04.04.09.08.13.14.02.05.03.13.01.2-.03.09-.13.1-.18.1v.13c0 .07-.03.13-.1.13h-.3c-.07 0-.1-.06-.1-.13v-.12c-.06 0-.16-.02-.19-.12a.26.26 0 0 1 .02-.19c.03-.06.1-.1.13-.14.1-.1.08-.13.08-.25v-.18c0-.1-.05-.16-.15-.2v-.06h.72ZM12.52 12l.05.05c-.05.09-.05.17.03.24l.13.13c.09.09.1.13.23.12h.18c.06.03.12.07.15.13.05.09-.01.18-.04.21l.09.1c.05.04.07.1.02.15a2.4 2.4 0 0 1-.22.22c-.05.05-.11.03-.16-.02l-.09-.09c-.04.03-.12.09-.2.04a.26.26 0 0 1-.13-.14v-.19c0-.13-.04-.14-.13-.23a1.6 1.6 0 0 1-.13-.14c-.07-.07-.15-.07-.24-.02l-.05-.05.5-.5ZM13.6 8.63h.08c.03.1.08.16.19.15h.18c.12 0 .16.02.25-.08.04-.04.08-.09.14-.13.05-.02.13-.02.2 0 .09.02.1.12.1.17h.13c.07 0 .13.03.13.1v.3c0 .07-.06.11-.13.1h-.12c0 .06-.02.16-.12.19a.26.26 0 0 1-.19-.02.42.42 0 0 1-.14-.13c-.1-.09-.13-.08-.25-.08h-.18c-.1 0-.16.05-.2.15h-.06v-.72ZM12 5.48l.05-.05c.09.05.17.05.24-.02l.13-.14c.09-.08.13-.1.12-.23v-.18a.25.25 0 0 1 .13-.15c.09-.05.18.01.21.04l.1-.09c.04-.04.1-.07.15-.02l.22.22c.05.05.03.12-.02.16l-.09.09c.03.03.09.12.04.2a.26.26 0 0 1-.14.13l-.19.01c-.13 0-.14.04-.23.12l-.14.14c-.07.06-.07.15-.02.23L12.5 6l-.5-.52Z" fill="#322B6A"/><path d="M9 4.6a4.4 4.4 0 1 1 0 8.8 4.4 4.4 0 0 1 0-8.8Z" fill="#FEFEFE"/><path fill-rule="evenodd" d="M8.64 4.78c.12-.08.22-.06.31-.03.03 0 .04.02.06.03L9 4.77a.35.35 0 0 1 .36.02l-.01-.01c.13-.06.23-.02.3.02.03 0 .04.02.06.03a.3.3 0 0 1 .3.04l.05.04c.13-.05.23.01.3.06l.04.04V5a.3.3 0 0 1 .28.1l.04.04c.14-.02.22.05.28.11l.04.05v-.01c.13 0 .22.08.27.14l.03.05c.14 0 .21.09.26.16l.03.06v-.02c.13.03.2.11.24.19l.03.06v-.02c.13.04.2.13.22.21l.02.05c.14.04.18.14.21.22l.02.07v-.02c.13.06.17.15.2.24a.9.9 0 0 1 0 .07v-.02a.3.3 0 0 1 .17.25v.08-.02c.12.08.15.18.15.27v.06l.01-.01c.11.08.13.2.13.28l-.01.09v-.04c.1.1.12.2.1.29v.06c.1.1.1.2.07.28a.5.5 0 0 1 0 .06c.08.1.07.22.05.3l-.02.05c.08.12.06.23.03.3a.9.9 0 0 1-.03.07l.01-.01c.07.12.04.23 0 .3 0 .02-.02.04-.03.05h.01c.06.13.01.23-.03.3a2.4 2.4 0 0 1-.04.06h.01c.05.12 0 .22-.04.3a.67.67 0 0 1-.03.03c.04.15-.02.23-.08.3l-.04.05.01-.01a.32.32 0 0 1-.1.29l-.05.04c.03.14-.05.22-.11.28a.51.51 0 0 1-.07.05l.03-.01a.34.34 0 0 1-.15.26.42.42 0 0 1-.07.04h.03c-.01.13-.1.2-.18.25a.56.56 0 0 1-.05.03h.02a.34.34 0 0 1-.2.24l-.05.02-.01.04a.32.32 0 0 1-.2.18.48.48 0 0 1-.05.02.29.29 0 0 1-.22.2.4.4 0 0 1-.05.02c-.06.13-.16.16-.25.18l-.05.02c-.07.12-.17.15-.26.16a.6.6 0 0 1-.06 0h.01c-.07.12-.18.14-.27.15h-.05c-.1.1-.2.12-.28.12h-.07.02c-.1.1-.22.1-.3.1a.6.6 0 0 1-.05-.02c-.1.1-.21.1-.3.07h-.05c-.1.08-.22.06-.3.04a.84.84 0 0 1-.05-.02.32.32 0 0 1-.3.02.32.32 0 0 1-.06-.02c-.12.07-.23.03-.3 0-.02 0-.03-.02-.05-.03a.33.33 0 0 1-.3-.03 1.15 1.15 0 0 1-.06-.04l.01.02c-.13.04-.23-.01-.3-.06a.64.64 0 0 1-.04-.03c-.13.04-.23-.03-.3-.08a1.03 1.03 0 0 1-.04-.05v.01c-.13.02-.22-.05-.29-.1a.5.5 0 0 1-.03-.04c-.14 0-.22-.07-.27-.13a.51.51 0 0 1-.05-.07v.03a.34.34 0 0 1-.25-.15.6.6 0 0 1-.03-.05.29.29 0 0 1-.25-.17.4.4 0 0 1-.04-.06v.02c-.13-.03-.19-.13-.22-.2a.42.42 0 0 1-.04-.1.7.7 0 0 0 0 .05c-.13-.03-.18-.14-.2-.22a.5.5 0 0 1-.03-.05c-.13-.04-.17-.14-.2-.23a.61.61 0 0 1-.01-.05c-.13-.05-.16-.16-.18-.25l-.01-.06v.02c-.13-.07-.15-.18-.16-.26v-.07.02a.32.32 0 0 1-.14-.28v-.06c-.12-.09-.12-.2-.12-.28l.01-.08v.03c-.1-.1-.1-.21-.1-.3l.01-.05c-.1-.1-.07-.21-.06-.3l.01-.05c-.08-.11-.06-.22-.03-.3l.02-.07-.01.02c-.07-.12-.04-.23-.01-.3a1.01 1.01 0 0 1 .02-.05.34.34 0 0 1 0-.31l.04-.05c-.06-.12-.01-.23.04-.3 0-.02.02-.04.03-.05-.05-.13 0-.23.05-.3l.04-.04c-.04-.14.03-.23.09-.3l.05-.05-.02.02c-.02-.14.05-.22.11-.28a.92.92 0 0 1 .05-.04.3.3 0 0 1 .13-.27.55.55 0 0 1 .06-.05l-.02.01a.32.32 0 0 1 .16-.26.59.59 0 0 1 .05-.03h-.01c.02-.14.1-.2.18-.24a.4.4 0 0 1 .06-.03h-.02c.04-.14.13-.2.2-.23l.05-.02c.04-.14.15-.19.22-.21a.42.42 0 0 1 .06-.02c.04-.14.15-.18.22-.2l.08-.02h-.02c.06-.12.17-.15.25-.17h.07l-.02-.01a.33.33 0 0 1 .33-.15h-.01c.08-.12.2-.13.27-.14h.07-.01c.09-.1.2-.1.29-.1h.05c.1-.1.21-.1.3-.08h.05c.1-.08.22-.07.3-.05l.06.02-.02-.01Zm.34.28-.13.05a.4.4 0 0 1-.2-.04l-.13.07a.27.27 0 0 1-.2-.02l-.12.06a.3.3 0 0 1-.2 0l-.12.1a.31.31 0 0 1-.2 0l-.11.1a.36.36 0 0 1-.19.03l-.1.1a.25.25 0 0 1-.19.04l-.1.12a.32.32 0 0 1-.19.06c-.03.04-.05.08-.09.11a.32.32 0 0 1-.17.08c-.03.05-.05.1-.08.12a.28.28 0 0 1-.17.1l-.07.13a.3.3 0 0 1-.16.1L6 6.52c-.04.06-.1.1-.16.12-.02.05-.02.1-.05.14a.28.28 0 0 1-.14.14l-.03.14c-.02.06-.07.1-.13.14l-.03.15a.3.3 0 0 1-.11.15l-.01.15c-.01.06-.05.12-.1.16v.15a.3.3 0 0 1-.1.17l.02.15a.3.3 0 0 1-.07.17c0 .06.03.1.03.14 0 .07-.03.14-.06.2 0 .04.03.09.04.13 0 .07-.01.13-.05.2l.05.13c.01.07 0 .14-.03.2l.06.12c.02.06.02.13 0 .2l.06.12c.03.06.03.13 0 .2l.09.12c.04.05.04.13.02.2l.1.1a.3.3 0 0 1 .04.2l.1.1c.04.05.06.12.05.19l.1.1c.05.04.08.11.07.17l.12.09c.05.04.08.11.09.17.04.04.08.05.12.08.06.04.08.1.1.17.04.03.1.04.13.07.06.04.1.1.11.15l.13.06c.07.03.1.09.13.15.05.02.1.02.14.05.06.01.11.07.14.13.05.01.1.01.14.03.06.02.1.07.14.12l.16.03a.3.3 0 0 1 .15.1c.05.02.1.01.15.02a.3.3 0 0 1 .16.1l.14-.01a.3.3 0 0 1 .18.09l.14-.01c.07-.01.13.02.18.06.06 0 .1-.03.15-.03.06 0 .13.02.18.05.05 0 .1-.03.15-.04a.3.3 0 0 1 .2.05l.12-.06c.06-.01.14 0 .2.03.04-.03.08-.05.13-.06a.26.26 0 0 1 .19 0c.05-.03.09-.06.13-.07a.32.32 0 0 1 .2-.02l.1-.08a.27.27 0 0 1 .2-.02l.11-.1a.26.26 0 0 1 .19-.04c.04-.04.06-.08.1-.1a.27.27 0 0 1 .19-.06l.1-.11a.27.27 0 0 1 .17-.07c.03-.05.05-.09.09-.13a.34.34 0 0 1 .17-.08c.02-.04.04-.09.08-.13.03-.05.1-.08.16-.1.02-.05.04-.1.07-.13.03-.05.08-.09.15-.11l.05-.14c.03-.06.09-.1.15-.13l.04-.14c.02-.06.07-.11.13-.14l.03-.14a.3.3 0 0 1 .12-.15c.01-.05 0-.1.02-.14.01-.06.06-.12.11-.16l.01-.15a.3.3 0 0 1 .1-.18c-.01-.05-.02-.1-.01-.14 0-.06.03-.13.08-.18l-.02-.14a.3.3 0 0 1 .06-.18c0-.05-.03-.1-.03-.14 0-.07.02-.13.05-.19 0-.05-.03-.09-.05-.14 0-.06.01-.13.04-.18l-.06-.15a.29.29 0 0 1 .03-.18 1.4 1.4 0 0 0-.07-.13.39.39 0 0 1 0-.2l-.07-.12a.32.32 0 0 1-.01-.2l-.1-.11a.33.33 0 0 1-.02-.2l-.1-.1a.31.31 0 0 1-.04-.2c-.04-.03-.08-.06-.1-.1a.32.32 0 0 1-.08-.18l-.1-.1a.29.29 0 0 1-.08-.17l-.12-.08a.28.28 0 0 1-.1-.18l-.12-.06a.32.32 0 0 1-.1-.17c-.05-.02-.1-.03-.14-.06a.33.33 0 0 1-.12-.16c-.05-.01-.1-.02-.13-.04a.29.29 0 0 1-.14-.14l-.13-.04a.32.32 0 0 1-.15-.14l-.14-.02a.3.3 0 0 1-.15-.12l-.15-.01a.27.27 0 0 1-.17-.11h-.14a.3.3 0 0 1-.17-.1c-.05.01-.1.02-.15.01a.27.27 0 0 1-.17-.07l-.15.03a.29.29 0 0 1-.18-.07c-.05 0-.1.03-.14.04a.28.28 0 0 1-.19-.05Z" fill="#B79300"/><path d="M9.29 5.3c.05.04.12.06.17.06l.14-.02c.05.04.1.07.17.07l.14-.01c.04.04.1.08.15.08h.15c.03.05.08.09.14.1.05.02.09 0 .15.02.03.05.07.1.14.11l.13.02c.03.06.08.11.13.13l.14.04c.03.05.07.1.12.13l.13.04a.3.3 0 0 0 .12.16l.12.05c.01.06.05.12.1.15l.11.07c.01.06.04.12.1.16l.1.08c0 .06.04.12.07.16l.11.09c0 .07.02.13.06.17l.1.1c0 .06 0 .13.04.18l.1.1a.25.25 0 0 0 .02.18l.09.11a.24.24 0 0 0 0 .18l.08.12a.3.3 0 0 0 0 .18l.06.13a.24.24 0 0 0-.02.18l.05.13c-.03.05-.04.11-.03.17l.04.14a.36.36 0 0 0-.05.17l.03.14a.29.29 0 0 0-.06.17l.02.14a.26.26 0 0 0-.08.16l.01.14a.26.26 0 0 0-.1.16v.14a.3.3 0 0 0-.1.15v.14a.23.23 0 0 0-.12.13l-.03.14a.24.24 0 0 0-.13.13l-.04.13a.3.3 0 0 0-.14.12l-.04.13a.3.3 0 0 0-.16.1l-.05.13a.32.32 0 0 0-.16.1.72.72 0 0 0-.07.11.25.25 0 0 0-.16.09l-.08.12a.23.23 0 0 0-.17.06l-.09.1a.29.29 0 0 0-.17.06l-.1.1a.3.3 0 0 0-.18.03l-.1.09a.27.27 0 0 0-.18.03l-.12.08a.24.24 0 0 0-.18 0l-.12.07c-.06-.02-.12-.03-.18 0l-.13.06a.24.24 0 0 0-.18-.02l-.13.05c-.04-.04-.11-.05-.17-.04l-.14.04a.29.29 0 0 0-.17-.06l-.13.03a.28.28 0 0 0-.18-.07.57.57 0 0 1-.13.02.26.26 0 0 0-.17-.07h-.13a.25.25 0 0 0-.16-.1h-.13c-.04-.05-.1-.1-.16-.1-.04-.02-.08-.02-.13-.03a.23.23 0 0 0-.14-.11l-.13-.03a.3.3 0 0 0-.14-.14l-.12-.04a.29.29 0 0 0-.12-.14l-.13-.05a.27.27 0 0 0-.1-.14l-.13-.07a.27.27 0 0 0-.1-.16l-.11-.07a.24.24 0 0 0-.08-.17l-.1-.07a.3.3 0 0 0-.07-.18 1.03 1.03 0 0 0-.1-.09.24.24 0 0 0-.06-.18l-.1-.1a.27.27 0 0 0-.02-.17l-.09-.1c.01-.06.01-.14-.02-.19a.8.8 0 0 1-.08-.12c.01-.05.02-.12 0-.18l-.07-.12a.3.3 0 0 0 0-.18c0-.04-.03-.08-.05-.12a.3.3 0 0 0 .03-.19l-.05-.12a.29.29 0 0 0 .04-.19.9.9 0 0 0-.04-.12c.04-.05.07-.12.06-.18l-.02-.13c.04-.05.07-.1.07-.18l-.01-.13c.04-.04.07-.1.07-.17v-.13c.05-.04.1-.1.1-.16l.01-.13c.05-.04.1-.09.1-.15.03-.04.03-.08.04-.13.04-.03.1-.09.11-.15l.04-.12c.05-.03.1-.08.13-.13l.04-.13a.25.25 0 0 0 .15-.12l.05-.12a.27.27 0 0 0 .15-.1l.07-.13a.25.25 0 0 0 .15-.08l.08-.12c.06 0 .13-.03.17-.08l.08-.1c.06 0 .13-.02.18-.06l.08-.1c.07 0 .14-.02.19-.05l.1-.1c.05.02.12 0 .18-.03l.1-.08a.3.3 0 0 0 .19-.02l.11-.07a.3.3 0 0 0 .19 0l.11-.07c.06.03.13.04.19.02l.12-.06c.05.03.13.05.19.03l.12-.04c.05.03.12.05.18.04l.13-.03Z" fill="#727271"/><path d="M9 5.53a3.48 3.48 0 1 1 0 6.95 3.48 3.48 0 0 1 0-6.95Z" fill="#322B6A"/><path d="M9 6c.31 0 .59.24.59.54 0 .2-.1.4-.29.48v1.6c-.02.65.06 1.1.28 1.36.6.68 1.78.17 1.75-.55l-.5.18c.18-.34.37-.7.57-1.04l.6 1.04-.42-.14c-.02.9-.49 1.3-1.03 1.53-.7.3-1.5.3-1.55 1-.06-.7-.86-.7-1.55-1-.54-.23-1.01-.63-1.03-1.53L6 9.6l.6-1.04.59 1.04-.52-.18c-.02.72 1.14 1.23 1.75.55.22-.27.3-.7.28-1.36V7.03a.54.54 0 0 1-.3-.5c0-.29.28-.53.6-.53Z" fill="#F08143"/></svg>