<!-- by TradingView --><svg width="56" height="56" viewBox="0 0 56 56" xmlns="http://www.w3.org/2000/svg"><path fill="#F0F3FA" d="M0 0h56v56H0z"/><path d="M12 20.61v2.65l7.42-3.87 8.7 4.24 8.58-4.24 7.3 3.87v-2.65L36.7 16l-8.59 5.02L19.42 16 12 20.61Zm0 5.54v2.7l7.51-2.7L27.98 29l8.7-2.85 7.32 2.7v-2.7L36.67 23l-8.69 3.47L19.51 23 12 26.15Zm0 7.5V31l7.38-2 8.6 2.35L36.55 29 44 31v2.65l-7.44-1.47L27.97 34l-8.59-1.82L12 33.65Zm0 2.42V39h32v-2.93L36.67 35 28 36.07 19.39 35 12 36.07Z" fill="#890405"/></svg>