<!-- by TradingView --><svg width="18" height="18" viewBox="0 0 18 18" xmlns="http://www.w3.org/2000/svg"><path fill="#F0F3FA" d="M0 0h18v18H0z"/><path d="M13.99 5.03a6.24 6.24 0 0 0-3.31 1.66 26.65 26.65 0 0 0-.69.65.2.2 0 0 1-.09.01c-1.1-.13-2.42-.02-3.2.7-.37.33-.44.7-.21 1.12.44.8 1.8.37 1.64-.54a.07.07 0 0 0-.02-.04.1.1 0 0 0-.1 0 .08.08 0 0 0-.04.04c-.14.6-1 .2-.62-.34.4-.57 1.65-.64 2.3-.55l.03.01.02.02a.05.05 0 0 1 0 .05 7.04 7.04 0 0 0-.9 4.4c0 .03 0 .07-.02.1a.17.17 0 0 1-.07.06l-.89.4-.01.06v.01h.01l.94-.27a.07.07 0 0 1 .07.02v.02l.11.28a.06.06 0 0 1 0 .07l-.04.02a.1.1 0 0 1-.04.01H4.11a.12.12 0 0 1-.08-.03.1.1 0 0 1-.03-.07V5.05l.03-.03A.1.1 0 0 1 4.09 5H14l.01.01v.01l-.01.01Z" fill="#EE3239"/><path d="M12.52 7.03c-.43-.04-.8 0-1.2-.26l-.02-.02a.05.05 0 0 1 0-.05l.02-.02a6.47 6.47 0 0 1 2.6-1.24.1.1 0 0 1 .04.01l.03.03.01.04a32.96 32.96 0 0 0-.04 4.34l-.02.02h-.03a5.16 5.16 0 0 0-1.84-1.76c-.44-.26-1.01-.41-1.37-.55a.17.17 0 0 1-.06-.05.14.14 0 0 1-.03-.06V7.4c0-.03.02-.05.04-.06l.13-.13a.23.23 0 0 1 .27-.03c.27.18.65.24 1.15.19.01 0 .02 0 .03-.02v-.07h-.02c-.4-.02-.95-.03-1.17-.3a.06.06 0 0 1 .01-.1.1.1 0 0 1 .1-.01c.3.17 1 .37 1.38.23l.02-.02v-.02l-.01-.02-.02-.01Z" fill="#AAAAAD"/><path d="M10.45 12.07h.02v-.02a.04.04 0 0 0 0-.04l-.19-.3a.14.14 0 0 0-.08-.05l-.1.01-.63.32-.03.01H9.4l-.03-.02v-.03c-.19-1.36.09-2.69.82-3.98a.2.2 0 0 1 .1-.09h.16a5 5 0 0 1 3.5 3.6l-.02.02h-.05l-.03-.01c-.31-.3-.7-.56-1.16-.44-.87.23-1.11 1.11-.4 1.68a.3.3 0 0 0 .13.06c.44.1.73.03.88-.2.22-.34.1-.78-.29-.98-.32-.17-.8.16-.47.46a.2.2 0 0 0 .07.04h.09c.03 0 .05 0 .06-.02a.06.06 0 0 0 0-.06c0-.02-.03-.03-.06-.04a.14.14 0 0 1-.08-.05.12.12 0 0 1-.02-.09c0-.03.02-.06.05-.08a.2.2 0 0 1 .09-.05c.15-.04.26.01.33.15.29.58-.9.86-.95.07-.05-.97 1.5-.94 1.66-.06.08.42-.1 1.12-.72 1.12H9.7a.16.16 0 0 1-.08-.03.12.12 0 0 1-.06-.06l-.16-.43a.09.09 0 0 1 .01-.08.1.1 0 0 1 .03-.03l.04-.02.96-.28Zm.14-3.33c-.03.04-.09.12-.19.22a.06.06 0 0 0-.01.05c0 .01 0 .03.02.04l.04.02.05-.01c.25-.15.43-.33.56-.54a.1.1 0 0 0-.01-.11.12.12 0 0 0-.06-.04h-.06c-.57.1-.9.39-.98.87v.02l.01.02.02.02h.06c.03 0 .06 0 .08-.03a.1.1 0 0 0 .04-.07c.02-.2.12-.38.32-.53l.04-.02.05.01.02.04v.04Z" fill="#AAAAAD"/></svg>