<!-- by TradingView --><svg width="56" height="56" viewBox="0 0 56 56" xmlns="http://www.w3.org/2000/svg"><path fill="#F0F3FA" d="M0 0h56v56H0z"/><path d="M28.28 9.23c-.45-.15-.82-.06-1.1.27a.11.11 0 0 1-.12.03.11.11 0 0 1-.05-.02 5.75 5.75 0 0 0-.45-1.15c-.06-.1-.04-.2.06-.3a.18.18 0 0 1 .15-.06.19.19 0 0 1 .14.09c.3.5.78.81 1.45.92.09.01.17 0 .24-.04.5-.3 1.18-.7 1.78-.7.04 0 .09.01.12.03l1.47 1a.1.1 0 0 1 .04.06.1.1 0 0 1-.01.07c-.03.05-.08.07-.15.06-.3-.05-.56-.15-.8-.3-.42-.27-.74-.36-.96-.28-.54.2-.92 1.1-1.46 1.06-.08 0-.12-.04-.13-.12l-.05-.43a.22.22 0 0 0-.17-.2Z" fill="#816813"/><path fill-rule="evenodd" d="M33.56 28.17c.06-.08.13-.1.22-.08-.46-.4-.61-.94-.44-1.6.18-.68.46-1.32 1.1-1.68.56-.33.96-.82 1.19-1.48a.36.36 0 0 1 .14-.18l.47-.3a.24.24 0 0 0 .12-.22l-.02-.34c0-.08.02-.16.06-.23.04-.07.1-.13.17-.17l2.83-1.53.79-.44c.48-.29.98-.57 1.49-.79.44-.19.43-.33-.05-.42-.4-.08-.71-.18-1.04-.41a42.25 42.25 0 0 1-4.23-3.32c-.69-.64-1.41-1.28-2.18-1.93a9.27 9.27 0 0 1-1.09-1.03.2.2 0 0 0-.18.02.2.2 0 0 0-.06.06.3.3 0 0 0-.05.15 45.7 45.7 0 0 0-.16 2.1c0 .18-.07.32-.13.47-.05.11-.1.23-.12.38-.23 1.5-.56 3-1 4.5a2.6 2.6 0 0 1-.27.62.14.14 0 0 1-.12.07l-.06-.01a.13.13 0 0 1-.05-.05c-.26-.37-.23-.72.08-1.04a.21.21 0 0 0 .06-.16c-.03-.28-.2-.4-.51-.34-.25.04-.42-.06-.5-.3l-.4-1c-.2-.46.05-.66.76-.61.03 0 .07.01.1.03l.39.17c.24.11.42.05.53-.19l.06-.15c.11-.23.05-.41-.18-.54-.75-.4-1.5-.76-2.25-1.08-.3-.13-.55-.34-.72-.63a.14.14 0 0 0-.16-.06.15.15 0 0 0-.06.03.34.34 0 0 1-.38.06c-.1-.04-.15-.12-.13-.23a.53.53 0 0 1 .07-.18c.07-.12.17-.16.3-.11.17.05.34.05.51-.02a.3.3 0 0 1 .35.1c.24.36.48.7 1 .6.5-.11 1-.04 1.48.2a.14.14 0 0 0 .14-.02.13.13 0 0 0 .05-.13l-.23-1.42c-.04-.29-.19-.48-.44-.57a.34.34 0 0 0-.22 0c-.23.08-.46.1-.69.06a.45.45 0 0 1-.23-.1l-.69-.63a.34.34 0 0 0-.24-.09l-.41.01a.3.3 0 0 1-.24-.1.27.27 0 0 1-.04-.26l.23-.66c.1-.26 0-.34-.26-.23-.49.2-.94.18-1.34-.06a.2.2 0 0 0-.26.07.18.18 0 0 0-.03.1c0 .39.13.79.37 1.12.37.53.5 1.14.4 1.83a.3.3 0 0 1-.33.25.31.31 0 0 1-.16-.05c-.5-.35-1.04-.7-1.61-.95-.7-.3-1.36-.62-2-.96a.76.76 0 0 0-.4-.1.15.15 0 0 0-.12.1.14.14 0 0 0 .02.14c.24.28.44.58.47.95.05.83.5 1.3 1.35 1.4.1.01.18 0 .26-.03l.37-.13c.1-.04.2-.02.27.07l.48.57c.06.07.13.11.22.12.47.06.9.23 1.27.53a.32.32 0 0 1 .12.33.32.32 0 0 1-.1.16.34.34 0 0 1-.16.08l-.3.05a.17.17 0 0 0-.15.15l-.29 1.35a.37.37 0 0 1-.14.22.39.39 0 0 1-.25.08l-1.77-.08a.2.2 0 0 0-.17.09.2.2 0 0 0-.02.19l.54 1.08c.04.1.12.17.21.2.1.05.2.06.3.03l.54-.15a.2.2 0 0 1 .2.05.19.19 0 0 1 .05.19 10.43 10.43 0 0 0-.47 2.92.16.16 0 0 1-.1.09h-.08c-.28-.07-.43-.24-.58-.42-.2-.23-.39-.47-.9-.47-.1 0-.2-.04-.27-.1-.63-.55-.93-2.2-1-2.92-.08-.7-.18-1.42-.3-2.17-.02-.14.03-.24.16-.3.39-.15.81-.16 1.07.22.4.6.96.49 1.41.02a.36.36 0 0 0 .1-.32.37.37 0 0 0-.21-.26l-2.45-1.07a.7.7 0 0 1-.43-.6l-.17-2.37a.1.1 0 0 0-.02-.05.1.1 0 0 0-.05-.03l-.17-.05c-.05-.02-.08 0-.06.06.15.82.1 1.59-.14 2.31a.32.32 0 0 1-.17.2.34.34 0 0 1-.26 0 8.93 8.93 0 0 1-1.77-.88c-.09-.05-.16-.04-.21.04-.23.32-.11.71 0 1.07a7.17 7.17 0 0 1 .04.25c0 .03-.02.05-.04.07a.15.15 0 0 1-.15.03 34.98 34.98 0 0 1-3.15-1.12c-.47-.2-.6-.07-.39.39l.26.55c.37.82.75 1.64 1.3 2.36.54.68 1.26 1.72 1.37 2.6.04.39.16.74.29 1.08.08.24.16.48.22.74.02.09 0 .15-.1.18-.51.18-.73.58-.64 1.21.05.38 0 .75-.18 1.12-.19.4-.14.77.15 1.1.05.06.11.08.18.05.99-.3 1.66.54 2.21 1.23l.18.22a.47.47 0 0 1 .06.5l-.31.63a.2.2 0 0 0-.01.16c.02.05.05.09.1.12.4.2.52.37.39.53.13-.01.22.07.28.25.4-.63.9-.7 1.5-.2.06.04.1.1.1.18.07.68-.04 1.33-.33 1.97.11-.09.18-.18.26-.27.08-.1.16-.21.3-.3l.3-.2a.13.13 0 0 1-.08-.03c-.04-.04-.03-.07 0-.1.32-.23.4-.52.28-.86a.25.25 0 0 1 .06-.27.27.27 0 0 1 .28-.06l1.08.36a29.4 29.4 0 0 1 1.95-.61c.37-.1.75-.17 1.14-.2.23-.01.46-.05.69-.08.28-.05.57-.1.87-.1.51 0 1-.06 1.46-.15.32-.07.7-.02 1.11.13a2 2 0 0 0 1.2.05.45.45 0 0 1 .33.05c.08.05.16.04.21-.04Zm.32-10.56a1.3 1.3 0 0 1-.12-.34l-.14-.58c-.1-.4-.22-.81-.2-1.23 0-.27-.06-.54-.12-.8-.08-.35-.16-.7-.1-1.03.1-.44.25-.46.47-.07.76 1.33 1.6 2.59 2.53 3.77.46.59.98 1.1 1.5 1.6L38.74 20a.23.23 0 0 1 .05.2.23.23 0 0 1-.13.15l-1.81.88a.38.38 0 0 1-.42-.06c-.9-.81-1.76-2-2.55-3.55Zm5.17 2.31c-.16-.18-.36-.34-.57-.49-.16-.12-.31-.23-.45-.37a26.24 26.24 0 0 1-3.72-4.85l-.18-.28a.33.33 0 0 1-.06-.22c0-.02.01-.05.03-.07a.14.14 0 0 1 .13-.06l.07.03c.39.24.76.52 1.1.83a56.88 56.88 0 0 0 5.05 4.1c.2.13.4.24.64.3.3.1.3.22.03.35l-1.67.8a.34.34 0 0 1-.4-.07Zm-6.23-5.16c-.14.3-.23.63-.28.98a30.51 30.51 0 0 1-1.22 5.2c-.2.58-.01 1.05.33 1.52.04.06.1.1.18.12.08.02.15.02.22-.01.48-.22.96-.35 1.43-.42.1-.01.14-.06.13-.15-.01-.99-.1-1.99-.26-3a4.4 4.4 0 0 1-.02-.9c.02-.4.04-.8-.1-1.24a3.06 3.06 0 0 1-.16-1.1c0-.08.03-.16.07-.23.17-.3.11-.56-.16-.8-.07-.06-.12-.05-.16.03ZM21.28 21.8l-.55-.17a.3.3 0 0 1-.16-.12.28.28 0 0 1-.04-.2c.11-.89.24-1.77.38-2.64.03-.16.03-.39.04-.63.01-.6.03-1.33.37-1.58a.13.13 0 0 1 .12-.02.13.13 0 0 1 .08.08c.13.46.12.9.11 1.36v.68c.05.92.08 1.87.1 2.84 0 .09-.03.17-.07.25-.08.16-.06.32.08.46.1.1.08.18-.05.24a.3.3 0 0 1-.24 0c-.06-.03-.1-.08-.09-.15l.03-.24c0-.03 0-.07-.02-.1a.16.16 0 0 0-.1-.06Zm6.62-5.13.17 1.63c0 .04.03.08.05.1a.2.2 0 0 0 .11.07l1.27.23a.2.2 0 0 0 .19-.07.19.19 0 0 0 .03-.19l-.63-1.53a.2.2 0 0 0-.1-.11l-.82-.33a.2.2 0 0 0-.2.02.2.2 0 0 0-.07.18Zm-.45.43-.05 1.15a.15.15 0 0 1-.07.12.16.16 0 0 1-.14.02l-.38-.12a.16.16 0 0 1-.1-.06.15.15 0 0 1-.01-.11l.23-1.32c.01-.04.03-.06.05-.09a.16.16 0 0 1 .25.03l.2.3.02.08Zm-8.2 4.55.06.03.52.12a.18.18 0 0 0 .19-.06.17.17 0 0 0 .03-.06v-.02c.27-1.05.5-2.06.6-2.82.13-.75.13-1.2.03-1.22l-.06-.02c-.1-.03-.32.37-.58 1.09a30.5 30.5 0 0 0-.85 2.76v.02a.17.17 0 0 0 .01.13l.05.05Zm14.71.05a54.73 54.73 0 0 0-.3-3.05c-.03-.22 0-.46.08-.7.03-.11.07-.11.12-.01a9.34 9.34 0 0 0 2.42 3.34.19.19 0 0 1 .06.17.19.19 0 0 1-.12.14c-.65.22-1.3.35-1.95.38a.3.3 0 0 1-.21-.07.28.28 0 0 1-.1-.2Zm-7.65 2.24c.2-.07.39-.08.58-.04a.3.3 0 0 1 .22.18l.1.28c.03.08.09.14.18.16.19.05.33-.03.43-.24a.37.37 0 0 0 .02-.18l-.26-3.1c-.03-.4-.02-.79.03-1.14.05-.33-.1-.47-.43-.41a.32.32 0 0 0-.12.04c-.29.16-.47.4-.53.71a39.63 39.63 0 0 0-.55 3.49.24.24 0 0 0 .1.22.25.25 0 0 0 .23.03Zm3.4-4c.07-.1.15-.2.24-.28a.13.13 0 0 1 .12-.03.13.13 0 0 1 .1.08c.15.33.32.66.51.98.55.92-.92 2.9-1.5 3.6a.32.32 0 0 1-.3.11.32.32 0 0 1-.16-.07.3.3 0 0 1-.1-.14c-.05-.17-.09-.34-.11-.52-.14-1.08-.28-2.23-.41-3.44 0-.05 0-.1.02-.14a.27.27 0 0 1 .38-.11c.32.18.64.24.93.17a.45.45 0 0 0 .29-.21Zm-6.74 1.64-.6-1.66a.1.1 0 0 0-.06-.05.11.11 0 0 0-.13.02.1.1 0 0 0-.03.07l.05 1.68.01.04.04.04.3.21a.11.11 0 0 0 .14-.01l.25-.23a.1.1 0 0 0 .03-.1Zm7.6.9c-.07.25.03.5.23.55.2.06.42-.09.5-.33.08-.25-.02-.5-.22-.56-.2-.06-.42.1-.5.34Z" fill="#816813"/><path d="M33.78 28.09A9.64 9.64 0 0 1 37 31.7c.26.55.6 1.05.78 1.63.32 1.01.48 2.04.48 3.1 0 .35-.17.67-.15 1.03.09 1.5-.78 3.24-1.5 4.59a10.94 10.94 0 0 1-5.18 4.17c-3 1.14-5.92 1.01-8.73-.38a9.93 9.93 0 0 1-4.38-4.14c-.63-1.27-1.2-2.49-1.27-3.9-.03-.79-.03-1.6 0-2.42.02-.7.2-1.47.54-2.35a12 12 0 0 1 2.98-4.39c.13-.01.22.07.28.25-.17.28-.42.49-.75.62a.54.54 0 0 0-.22.17c-.32.4-.64.89-.99 1.46-.2.33-.21.62-.02.86.04.06.06.13.05.21 0 .07-.04.13-.1.17-.1.08-.15.06-.18-.05l-.04-.14c-.03-.1-.1-.13-.2-.08a.74.74 0 0 0-.33.37c-.2.52-.42 1.13-.64 1.82-.12.37-.16.7-.13 1 .01.15.09.23.23.25a.2.2 0 0 0 .08 0c.22-.03.32-.16.32-.37-.01-.37.04-.73.17-1.09l.03-.04a.1.1 0 0 1 .06-.02h.07a.06.06 0 0 1 .04.02l.01.02v.02l-.14 1.54c0 .1.02.19.07.27.05.08.12.15.21.19.35.15.66.36.92.62.34.35.82.4 1.3.4.21 0 .33-.17.4-.34.02-.04.05-.06.1-.06a.1.1 0 0 1 .06.03c.04.03.05.07.04.11-.04.34.05.69.27 1.04.05.08.07.17.05.27-.1.49-.3.97-.59 1.43a2.2 2.2 0 0 0-.3.85l-.18 1.25c0 .08-.04.13-.11.17-.17.1-.24.23-.23.4.01.1 0 .2-.05.28l-.25.54a.44.44 0 0 0 .13.54c.62.5 1.08 1.11 1.78 1.52.64.36 1.4.9 2.14.95.07 0 .13-.01.19-.04.05-.02.1-.05.14-.1a.36.36 0 0 1 .2-.08c.6-.04 1.13 0 1.63.14.17.05.34-.06.43-.2a.17.17 0 0 0 .02-.14.17.17 0 0 0-.1-.1l-.36-.15c-.12-.05-.12-.1 0-.16l.23-.09a.14.14 0 0 1 .11 0 .13.13 0 0 1 .07.1c.01.09.06.16.13.22.05.04.12.07.2.07.61.04 1.22-.06 1.8-.31a.2.2 0 0 1 .23.03c.6.5 1.26.55 1.98.16a.36.36 0 0 1 .28-.02c.58.15 1.08.3 1.65-.05 1.07-.65 1.83-1.2 2.26-1.66l1.16-1.23c.2-.21.26-.49.33-.75a.3.3 0 0 0-.09-.3.32.32 0 0 0-.3-.08l-.78.18a.56.56 0 0 0-.35.24.53.53 0 0 0-.07.4c.1.4-.01.7-.31.93a.1.1 0 0 1-.1.02.1.1 0 0 1-.07-.06l-.03-.08c-.04-.1-.01-.19.08-.26a.64.64 0 0 0 .23-.6c0-.1.01-.2.05-.3.18-.4.3-.95.06-1.35-.2-.36-.13-.92.4-.92.07 0 .14-.02.2-.05l.45-.33c.34-.26.73-.24 1.06-.5a.23.23 0 0 1 .23-.04c.16.06.32.08.48.06.07 0 .12-.05.15-.12.16-.49.11-.88-.15-1.18a.3.3 0 0 1 .02-.42c.18-.16.36-.33.36-.6a9.4 9.4 0 0 0-.87-4.06.38.38 0 0 0-.2-.19l-.1-.05c-.14-.06-.18-.02-.13.12.08.23.08.47-.01.7-.05.1-.07.1-.07 0a.6.6 0 0 0-.14-.4 2.53 2.53 0 0 1-.41-.7c-.17-.4-.5-.65-.84-.92-.09-.08-.12-.06-.07.05.29.77.65 1.45 1.07 2.06.16.23.1.3-.18.24s-.44.04-.48.3a.7.7 0 0 0 .07.43c.04.08.05.18.02.27l-.06.2c-.04.11-.1.12-.17.01a2.26 2.26 0 0 0-.62-.6.17.17 0 0 0-.25.08.16.16 0 0 0 0 .1c.08.38.3.65.62.8a.4.4 0 0 1 .21.28.37.37 0 0 1-.1.33c-.34.36-.53.8-.55 1.3-.03.43.2.6.55.78.08.05.14.12.18.2.15.41.44.54.87.38a.18.18 0 0 1 .23.1l.03.1c.05.12 0 .2-.13.21a.49.49 0 0 1-.42-.15.45.45 0 0 0-.27-.13 1.97 1.97 0 0 1-1.41-.78c-.21-.28-.4-.63-.57-1.06a.22.22 0 0 1 .02-.21c.2-.27.24-.6.13-1a.21.21 0 0 0-.12-.14.96.96 0 0 0-.28-.08c-.1-.01-.16-.07-.18-.17l-.11-.51a.25.25 0 0 0-.06-.12.27.27 0 0 0-.11-.07.82.82 0 0 0-.63.02.27.27 0 0 0-.16.22c-.03.29-.1.57-.23.83-.04.09-.01.14.08.17.09.02.15.08.17.16.04.12.05.23.02.34-.12.59-.1 1.11.07 1.58.02.05 0 .09-.06.1a.13.13 0 0 0-.06.04.23.23 0 0 0-.07.15c-.05.61.14 1.13.08 1.73-.04.37-.06.75-.06 1.13a.36.36 0 0 0 .15.3.38.38 0 0 0 .5-.05.28.28 0 0 1 .2-.09c.41-.02.8.04 1.17.18.1.04.1.08 0 .13l-.44.22c-.12.05-.16.14-.11.26.09.24.12.48.08.73-.01.1.01.2.08.3.15.2.12.4-.1.6a.26.26 0 0 0-.08.15l-.19 1.15a.19.19 0 0 1-.1.14.7.7 0 0 1-.36.08c-.24-.01-.49.08-.7.18a.36.36 0 0 1-.27 0 2.87 2.87 0 0 0-1.53-.06.4.4 0 0 1-.27-.04c-.21-.11-.37-.06-.47.15-.07.15-.16.17-.27.04a.44.44 0 0 1-.11-.4c.02-.09.07-.13.16-.13h.44a.1.1 0 0 0 .08-.04.09.09 0 0 0 0-.08 3 3 0 0 1-.22-1.08.31.31 0 0 0-.2-.28c-.19-.08-.26-.22-.2-.4.1-.38.08-.77-.05-1.19-.02-.08-.07-.1-.14-.07l-.11.05c-.24.1-.32.03-.25-.21.18-.55.2-1.1.1-1.69-.05-.2-.06-.4-.04-.59.04-.34.04-.68 0-1.04 0-.08-.04-.11-.12-.1h-.3c-.14.02-.15.07-.04.18a.2.2 0 0 1 .06.08c.1.27-.07.83-.15 1.1-.03.1-.06.1-.07 0-.04-.41-.01-.8.08-1.17.02-.1 0-.18-.06-.26-.15-.17-.15-.37.01-.6a.36.36 0 0 0 .05-.29 1.4 1.4 0 0 1-.02-.53c.03-.19-.06-.29-.25-.3-.05 0-.09 0-.12.02-.14.06-.2.16-.2.3.04.57.2 1.1.06 1.68-.1.38-.04.75.18 1.1.03.06.04.12.03.18-.05.23-.17.44-.37.61-.51.47-.35 1.25-.23 1.85.01.06 0 .12-.06.16a.2.2 0 0 1-.15.04.14.14 0 0 1-.1-.08 1.3 1.3 0 0 1-.14-.87c.09-.39-.13-.88-.26-1.24a.34.34 0 0 1 0-.23.35.35 0 0 1 .14-.18c.34-.22.5-.55.49-.98-.03-.51 0-1.02.09-1.54.02-.18-.04-.22-.2-.13-.12.07-.23.15-.33.26a.72.72 0 0 0-.2.5c.01.98-.23 1.73-.73 2.25-.4.42-.46 1.37-.6 1.91-.09.3.07.53-.02.82a.38.38 0 0 0 .1.37.37.37 0 0 0 .37.1.39.39 0 0 0 .2-.14.17.17 0 0 1 .1-.06c.04 0 .08 0 .12.03.13.08.2.2.22.34 0 .07-.03.11-.1.12a.7.7 0 0 1-.58-.17.16.16 0 0 0-.2 0l-.25.2a.18.18 0 0 0-.02.25c.13.16.17.35.12.57a.14.14 0 0 1-.08.1.14.14 0 0 1-.13-.02.67.67 0 0 0-.48-.1c-.04.02-.08 0-.12-.01a.16.16 0 0 1-.07-.09.15.15 0 0 1 0-.1c.08-.22.16-.22.24-.01.02.03.02.07.02.1-.01.07.02.1.1.1.07 0 .12-.03.16-.09a.14.14 0 0 0 .02-.1.22.22 0 0 1 .1-.24.21.21 0 0 0 .09-.22c-.04-.14-.13-.22-.28-.24-.08 0-.15.01-.21.05-.15.09-.28.07-.4-.05-.07-.06-.08-.13-.04-.2.1-.23.13-.5.08-.78-.02-.13.02-.16.14-.11.03 0 .06.02.08.04.1.07.11.15.06.24a.18.18 0 0 0 0 .18c.06.12.16.18.3.16a.17.17 0 0 0 .14-.09.16.16 0 0 0-.01-.16.54.54 0 0 1-.1-.38c.02-.15-.05-.22-.2-.22l-.84.02a.24.24 0 0 0-.16.06.22.22 0 0 0-.07.15c-.03.3.04.56.23.8.06.08.07.15.03.24-.15.38-.1.84.15 1.36a.23.23 0 0 1 0 .2.25.25 0 0 1-.15.13.45.45 0 0 1-.06.02c-.08 0-.12-.03-.12-.1-.01-.1.02-.21.08-.3a.16.16 0 0 0 0-.2.7.7 0 0 1-.1-.63.36.36 0 0 0-.01-.27.49.49 0 0 0-.38-.29.2.2 0 0 0-.22.12 4.5 4.5 0 0 0 .32 1.52.08.08 0 0 1-.03.06l-.02.01-.08.03h-.03a.07.07 0 0 1-.05-.02v-.03c-.12-.43-.26-.87-.42-1.3-.16-.4-.27-.8-.33-1.21a8.16 8.16 0 0 0-.34-1.41c-.08-.22-.02-.28.2-.16.06.03.12.12.16.27.17.53-.14 1.82.72 1.99a.2.2 0 0 0 .18-.06.2.2 0 0 0 .05-.18c-.07-.3-.09-.6-.04-.9a.4.4 0 0 0-.03-.23c-.4-.91-1-1.58-.77-2.65.08-.37-.03-.7-.35-1.01a.16.16 0 0 0-.13-.05c-.32.02-.5-.13-.53-.46l.01-.05.03-.03a.09.09 0 0 1 .1 0l.37.28c.05.04.1.03.12-.03l.03-.07a.2.2 0 0 0-.07-.24c-.25-.17-.45-.4-.6-.64-.1-.2-.28-.27-.51-.2l-1.16.34a.37.37 0 0 1-.2 0c-.54-.15-1.3-.76-1.13-1.44.2-.79.49-1.4.88-1.83a.4.4 0 0 1 .25-.13c.33-.05.55-.2.68-.48.3-.63.62-1.46.31-2.15-.08-.2-.02-.26.18-.18.25.1.41.3.5.58a.16.16 0 0 0 .1.11.16.16 0 0 0 .14-.02l.25-.17c.24-.18.3-.4.56-.57l.3-.2.77-.75a.29.29 0 0 1 .3-.06c.42.14.6.1.55-.15a29.4 29.4 0 0 1 1.95-.61c.38-.1.75-.17 1.14-.2.52-.03 1.03-.17 1.56-.18.51 0 1-.06 1.46-.15.32-.07.7-.02 1.11.13.37.14.77.15 1.2.05a.45.45 0 0 1 .33.05c.08.05.16.04.22-.04.05-.08.12-.1.2-.08Z" fill="#538C1A"/><path d="m22.12 30.85-.25.17a.16.16 0 0 1-.15.02.16.16 0 0 1-.1-.1.83.83 0 0 0-.49-.59c-.2-.08-.26-.03-.18.18.3.7-.02 1.52-.31 2.15-.13.27-.35.43-.68.48a.4.4 0 0 0-.25.13c-.4.43-.68 1.04-.88 1.83-.16.68.59 1.3 1.13 1.44.07.02.14.02.2 0l1.16-.34c.23-.07.4 0 .52.2.14.25.34.47.59.64a.2.2 0 0 1 .07.23l-.03.08c-.03.06-.07.07-.12.03l-.38-.28a.09.09 0 0 0-.12.03v.05c.02.33.2.48.52.46.05 0 .1.01.13.05.32.3.43.64.35 1-.23 1.08.37 1.75.77 2.66a.4.4 0 0 1 .03.23c-.05.3-.03.6.04.9a.19.19 0 0 1-.05.18.2.2 0 0 1-.18.06c-.86-.17-.55-1.46-.72-2-.04-.14-.1-.23-.17-.26-.2-.12-.27-.06-.2.16.16.46.28.93.35 1.4.06.41.17.82.33 1.22a11.24 11.24 0 0 1 .44 1.34.07.07 0 0 0 .06.01l.08-.03a.08.08 0 0 0 .04-.03.08.08 0 0 0 0-.07 4.5 4.5 0 0 1-.3-1.49.2.2 0 0 1 .12-.11.2.2 0 0 1 .1-.01c.16.03.29.13.37.3.04.08.04.17.02.26a.7.7 0 0 0 .1.63c.03.06.03.13 0 .2a.5.5 0 0 0-.1.3c.01.07.05.1.13.1l.06-.02a.26.26 0 0 0 .15-.13.24.24 0 0 0 0-.2c-.25-.52-.3-.98-.15-1.36a.22.22 0 0 0-.03-.23 1.1 1.1 0 0 1-.23-.81c0-.06.03-.11.07-.15.04-.04.1-.06.16-.06l.84-.02c.15 0 .22.07.2.22-.02.14.02.26.1.38a.16.16 0 0 1-.04.22.17.17 0 0 1-.08.03c-.15.02-.25-.04-.31-.16a.18.18 0 0 1 0-.18c.05-.09.03-.17-.06-.24a.27.27 0 0 0-.08-.04c-.12-.05-.16-.02-.14.1.05.3.02.56-.08.78-.04.08-.03.15.04.21.12.12.25.14.4.05a.33.33 0 0 1 .2-.05c.16.02.25.1.28.24a.21.21 0 0 1-.09.22.22.22 0 0 0-.1.23c.02.04.01.08-.01.11-.04.06-.1.1-.17.1s-.1-.04-.1-.1v-.11c-.1-.21-.17-.2-.25 0a.15.15 0 0 0 0 .11c.01.04.04.07.07.09.04.02.08.03.12.02.17-.03.33 0 .48.1a.14.14 0 0 0 .21-.1c.05-.2.01-.4-.12-.56a.18.18 0 0 1 .02-.25l.25-.2a.16.16 0 0 1 .2 0c.17.14.36.2.57.17.08 0 .11-.05.1-.12a.42.42 0 0 0-.21-.34.18.18 0 0 0-.12-.03.17.17 0 0 0-.1.06.39.39 0 0 1-.4.14.37.37 0 0 1-.27-.27.38.38 0 0 1 0-.2c.09-.29-.07-.52.01-.82.15-.54.2-1.49.6-1.9.5-.53.75-1.28.74-2.25 0-.2.07-.37.2-.51.1-.1.2-.2.32-.26.17-.1.24-.05.2.13a7.58 7.58 0 0 0-.08 1.54c.01.43-.15.76-.5.98a.34.34 0 0 0-.14.4c.14.37.36.86.27 1.25-.06.29-.01.58.13.87.02.04.06.07.11.08.06 0 .11 0 .15-.04.06-.04.07-.1.06-.16-.12-.6-.28-1.38.23-1.85.2-.17.32-.38.37-.61a.23.23 0 0 0-.03-.17 1.37 1.37 0 0 1-.18-1.11c.15-.58-.02-1.1-.05-1.67-.01-.15.05-.25.19-.31a.27.27 0 0 1 .12-.02c.2.01.28.11.25.3-.03.18-.02.36.02.53a.36.36 0 0 1-.05.3c-.16.22-.16.42-.01.6.06.07.08.15.06.25-.09.37-.12.76-.08 1.16.01.12.04.12.07.01.08-.27.24-.83.15-1.1a.2.2 0 0 0-.06-.08c-.11-.1-.1-.16.05-.17l.3-.02c.07 0 .1.03.11.1.04.37.04.71 0 1.05-.02.2 0 .4.03.6.12.57.09 1.13-.09 1.68-.07.24 0 .31.25.21l.1-.05c.08-.03.13 0 .15.07.13.42.14.81.05 1.18-.06.2.01.33.2.41a.32.32 0 0 1 .2.28c0 .36.08.71.23 1.08v.04a.1.1 0 0 1-.05.07.1.1 0 0 1-.04 0l-.44.01c-.09 0-.14.04-.16.12-.04.15 0 .29.11.41.11.13.2.11.27-.04.1-.21.26-.26.47-.15a.4.4 0 0 0 .27.04c.54-.11 1.05-.1 1.53.07.09.03.18.02.26-.01.22-.1.47-.2.71-.18a.7.7 0 0 0 .36-.08c.06-.03.1-.08.1-.14l.19-1.15c0-.06.03-.11.08-.15.22-.2.25-.4.1-.6a.4.4 0 0 1-.08-.3c.04-.25.01-.49-.08-.73-.05-.12-.01-.2.1-.26l.46-.22c.1-.05.1-.1-.01-.13-.37-.14-.76-.2-1.17-.18a.28.28 0 0 0-.2.1.37.37 0 0 1-.34.1.38.38 0 0 1-.27-.2.36.36 0 0 1-.04-.16c0-.38.02-.76.06-1.13.06-.6-.13-1.12-.08-1.73 0-.06.03-.11.07-.15a.13.13 0 0 1 .06-.04c.06-.01.08-.05.06-.1-.17-.47-.2-1-.07-1.58a.65.65 0 0 0-.02-.34.25.25 0 0 0-.17-.16c-.1-.03-.12-.08-.08-.17.13-.26.2-.54.23-.83 0-.05.02-.1.05-.13a.27.27 0 0 1 .1-.09c.2-.1.42-.1.64-.02.04.01.08.04.1.07.04.03.06.07.07.12l.1.51c.03.1.1.16.2.17.09.01.18.04.27.08.06.03.1.07.12.14.11.4.07.73-.13 1a.22.22 0 0 0-.02.21c.17.43.36.78.57 1.06.34.45.81.71 1.41.78.1.01.2.06.27.13.12.12.26.17.42.15.14-.01.18-.09.13-.21l-.03-.1a.18.18 0 0 0-.23-.1c-.43.16-.72.03-.87-.37a.35.35 0 0 0-.18-.2c-.35-.18-.58-.36-.55-.79.02-.5.2-.94.55-1.3a.38.38 0 0 0 .1-.33.38.38 0 0 0-.21-.28 1.14 1.14 0 0 1-.63-.8.17.17 0 0 1 .07-.18.17.17 0 0 1 .2 0c.24.16.45.36.61.6.07.1.13.1.17-.02l.06-.2a.35.35 0 0 0-.02-.26.7.7 0 0 1-.07-.42c.04-.27.2-.37.48-.3.28.06.34-.02.18-.25a9.43 9.43 0 0 1-1.07-2.06c-.05-.11-.02-.13.07-.05.33.27.67.52.84.93.1.25.23.47.4.69.1.11.16.24.16.4 0 .1.01.1.06 0 .09-.23.1-.47.01-.7-.05-.14 0-.18.13-.12l.1.05c.1.04.16.1.2.2a9.4 9.4 0 0 1 .87 4.06c0 .26-.18.43-.36.59a.3.3 0 0 0-.02.42c.26.3.31.7.15 1.18a.16.16 0 0 1-.15.12c-.16.02-.32 0-.48-.06a.23.23 0 0 0-.23.04c-.33.26-.72.24-1.06.5l-.46.33a.36.36 0 0 1-.2.05c-.52 0-.6.56-.39.92.24.4.12.95-.06 1.35-.04.1-.05.2-.04.3a.64.64 0 0 1-.24.6c-.1.07-.12.16-.08.26l.03.07c0 .02.02.03.03.04a.1.1 0 0 0 .14.01c.3-.23.4-.53.31-.92a.53.53 0 0 1 .07-.4c.08-.13.2-.22.35-.25l.78-.18a.33.33 0 0 1 .3.08.31.31 0 0 1 .09.3 1.6 1.6 0 0 1-.33.75l-1.16 1.23c-.43.46-1.19 1.01-2.26 1.66-.57.34-1.07.2-1.65.05a.36.36 0 0 0-.27.02c-.73.39-1.4.33-1.99-.16a.2.2 0 0 0-.23-.03 3.9 3.9 0 0 1-1.8.31.34.34 0 0 1-.2-.07.36.36 0 0 1-.13-.22.13.13 0 0 0-.07-.1.13.13 0 0 0-.11 0l-.23.1c-.12.05-.12.1 0 .15l.35.14a.17.17 0 0 1 .11.18c0 .03 0 .05-.02.07-.1.14-.26.25-.43.2-.5-.14-1.04-.18-1.62-.14a.36.36 0 0 0-.21.09.63.63 0 0 1-.14.09.35.35 0 0 1-.19.04c-.75-.05-1.5-.59-2.14-.95-.7-.41-1.16-1.02-1.78-1.52a.45.45 0 0 1-.13-.54l.25-.54a.55.55 0 0 0 .05-.28c-.01-.17.06-.3.23-.4.07-.04.1-.1.11-.17l.18-1.25c.04-.31.14-.6.3-.85.29-.46.48-.94.59-1.43.02-.1 0-.2-.05-.27-.22-.35-.3-.7-.27-1.04 0-.04 0-.08-.04-.11a.1.1 0 0 0-.06-.03c-.05 0-.08.02-.1.06-.07.17-.19.33-.4.33-.47 0-.96-.04-1.3-.39a2.89 2.89 0 0 0-.92-.62.47.47 0 0 1-.21-.2.45.45 0 0 1-.07-.26l.14-1.54a.05.05 0 0 0-.01-.04l-.02-.01H18.2a.1.1 0 0 0-.06.01.09.09 0 0 0-.03.04c-.13.36-.18.72-.17 1.09 0 .21-.1.34-.32.37a.2.2 0 0 1-.08 0c-.14-.02-.22-.1-.23-.24-.03-.3.01-.64.13-1 .22-.7.44-1.3.64-1.83a.74.74 0 0 1 .34-.37c.1-.05.16-.03.19.08l.04.14c.03.11.09.13.18.05.06-.04.1-.1.1-.17a.26.26 0 0 0-.05-.21c-.19-.24-.18-.53.02-.86.35-.57.67-1.06.99-1.46a.54.54 0 0 1 .22-.17c.33-.13.58-.34.75-.62.4-.63.9-.7 1.5-.2.06.04.1.1.1.18.07.68-.04 1.33-.33 1.97Z" fill="#F6CC2F"/><path d="M21.76 28.72a.06.06 0 0 1 .03-.04.06.06 0 0 1 .04-.01h.03c.07 0 .13.02.19.04l.15.08.1.12.02.13v.02c-.01.1-.07.17-.16.23a.62.62 0 0 1-.35.07h-.04a.06.06 0 0 1-.04-.03.06.06 0 0 1-.01-.04l.04-.57Z" fill="#538C1A"/><path d="M24.6 29.12c.06.24-.13.3-.56.14a.29.29 0 0 0-.3.07l-.76.75a.13.13 0 0 1-.08-.03c-.03-.04-.03-.07 0-.1.32-.23.4-.52.28-.86a.25.25 0 0 1 .06-.27.27.27 0 0 1 .28-.06l1.08.36Z" fill="#F6CC2F"/><path d="M20.27 30.58c.11-.1.15-.25.07-.33-.08-.08-.23-.06-.35.04-.12.11-.15.26-.07.34.07.08.23.06.35-.05Z" fill="#538C1A"/><path d="M35.63 30.39v-.02l.02-.02c.09-.04.19-.02.28.05.1.07.18.18.24.3l.03.09c.03.06.05.13.06.2a.6.6 0 0 1 0 .17c0 .06-.02.11-.05.15a.22.22 0 0 1-.1.08.03.03 0 0 1-.03 0 .03.03 0 0 1-.02 0l-.43-1Z" fill="#F6CC2F"/><path d="M19.44 32.07c0 .51.1.93.22.93s.21-.42.21-.93c0-.5-.1-.92-.22-.92s-.21.41-.21.92Z" fill="#538C1A"/><path d="M23.58 31.7c.03.01.06.03.07.06.03.07 0 .11-.08.12-.41.04-.8 0-1.15-.11a.11.11 0 0 1-.05-.04.1.1 0 0 1 .02-.16l.56-.34a.3.3 0 0 1 .33 0c.14.09.24.24.3.46ZM23.9 31.93c.35.04.69.13 1 .29.16.08.15.11-.03.1-.38-.02-.74.02-1.09.13-.14.05-.2 0-.16-.15l.06-.2c.03-.12.1-.17.22-.17ZM30.05 34.64c-.34.15-.24.45-.36.73-.03.08-.09.11-.17.1a.34.34 0 0 1-.22-.1.94.94 0 0 0-.62-.27.16.16 0 0 0-.17.12c-.04.15-.14.23-.3.25-.13 0-.21-.04-.25-.16-.05-.15 0-.26.13-.33l.97-.55c.27-.16.53-.21.8-.17.39.06.43-.03.12-.28-.24-.19-.5-.3-.77-.33a1.14 1.14 0 0 1-.74-.4c-.15-.2-.1-.24.12-.13.32.16.64.27.96.32.89.15 1.28 1.12 1.25 1.95 0 .14-.08.23-.21.27a.16.16 0 0 1-.1 0 .3.3 0 0 1-.23-.22c-.05-.2-.05-.41 0-.64a.14.14 0 0 0-.05-.14.15.15 0 0 0-.16-.02ZM27.34 35.47c-.75-.2-1.2-1.39-1.45-2.06 0-.03 0-.05.03-.06l.06-.03.04.01c.28.55.59 1.08.9 1.58.1.16.29.27.54.35a.07.07 0 0 1 .05.04.07.07 0 0 1-.01.07l-.04.05c-.03.04-.07.06-.12.05Z" fill="#F6CC2F"/><path d="M36.74 35.92a.31.31 0 0 1-.13-.32c.09-.5.03-1.01-.16-1.54a.34.34 0 0 1 .05-.33l.16-.22a.1.1 0 0 1 .05-.04.11.11 0 0 1 .11.03 16 16 0 0 0 .49 2.13c.04.12.1.17.17.27.06.06.06.12 0 .19-.04.06-.1.1-.18.1a.34.34 0 0 1-.23-.04 4.7 4.7 0 0 1-.33-.23ZM33.15 35.93c.15.1.32.1.38.01.06-.08-.01-.23-.16-.33-.14-.1-.3-.1-.37 0-.06.08 0 .23.15.32ZM36.23 36.73l-.39.4a.27.27 0 0 1-.15.09.28.28 0 0 1-.17-.03.43.43 0 0 1-.14-.63l.42-.7a.28.28 0 0 1 .25-.13c.37-.01.54.14.5.44 0 .07.02.12.1.15l.3.15a.14.14 0 0 1 .08.18c-.12.28-.1.54.05.78.05.08.03.13-.07.15a.62.62 0 0 1-.53-.12.18.18 0 0 1-.06-.2.7.7 0 0 0 .03-.48c-.04-.14-.11-.16-.22-.05Z" fill="#538C1A"/><path d="M30.14 36.66c0-.3.1-.55.26-.75.06-.06.13-.09.23-.08.2.04.4.03.6-.01a.46.46 0 0 1 .47.18c.03.05.06.1.07.16l.15.72c.02.1 0 .17-.07.23l-.21.19c-.1.08-.1.16 0 .23.12.09.22.26.22.4 0 .28.05.54.12.78.05.16 0 .23-.18.2a3.45 3.45 0 0 0-1.1.01c-.2.04-.3-.04-.33-.23a1.81 1.81 0 0 0-.25-.65.25.25 0 0 1 .05-.32.27.27 0 0 1 .1-.05.2.2 0 0 0 .16-.16.2.2 0 0 0-.05-.18 1 1 0 0 1-.24-.67ZM29.56 36.04h.03v.05a.42.42 0 0 1-.25.39.4.4 0 0 1-.16.03h-.02a.41.41 0 0 1-.29-.13.42.42 0 0 1-.12-.3v-.01c0-.01 0-.02.02-.03h.79Z" fill="#F6CC2F"/><path d="M31.05 37.96c-.02.14-.02.27 0 .41.01.16-.06.23-.22.23h-.07a.2.2 0 0 1-.14-.08.19.19 0 0 1-.04-.16c.05-.25.06-.5 0-.77a.36.36 0 0 1 .04-.22c.12-.28.15-.58.06-.91-.02-.11.02-.18.13-.2l.1-.02a.1.1 0 0 1 .07.02.1.1 0 0 1 .04.06l.18.96c.04.26-.1.43-.15.68Z" fill="#538C1A"/><path d="m28.82 36.88-.02-.02v-.05l.02-.01c.24-.08.5-.1.8-.08.14 0 .18.07.13.19a.74.74 0 0 0-.01.54c.17.48.26.95.28 1.42 0 .15.04.29.1.41.21.42.05 1.23-.04 1.66-.01.08 0 .14.05.2.37.49.45 1.08.24 1.79-.02.08-.06.09-.12.02a1.4 1.4 0 0 1-.28-1.2.25.25 0 0 0-.06-.23c-.21-.24-.37-.44-.38-.79-.03-.73-.05-1.47-.06-2.2 0-.32-.12-.59-.36-.8-.04-.03-.03-.06.02-.08.1-.03.16-.1.2-.19a.18.18 0 0 0-.02-.18c-.13-.16-.3-.3-.5-.4Z" fill="#F6CC2F"/><path d="M33.17 37.25a.39.39 0 0 1 .08-.11c.05-.06.11-.06.17-.02l.45.32c.08.06.07.1-.03.1l-.9.03c-.15 0-.16-.03-.02-.1l.1-.05c.06-.04.11-.1.15-.17ZM21.95 38.83c-.07.36-.05.67.05.69.1.02.24-.26.3-.62.08-.37.06-.67-.04-.7-.1 0-.24.27-.3.63ZM35.13 39.12c.16-.12.25-.28.19-.35-.06-.07-.23-.02-.4.1-.15.13-.23.28-.18.35.06.07.24.02.4-.1ZM34.33 39.13c.1-.03.09.01-.02.12l-.01.02c-.2.26-.36.3-.52.12a.21.21 0 0 0-.25-.04c-.23.1-.39.07-.5-.13-.05-.1-.03-.18.07-.25a.22.22 0 0 1 .21-.02l.3.1c.08.04.15.03.22-.03.12-.1.23-.08.33.05.05.06.1.08.17.06Z" fill="#538C1A"/><path d="M32.11 43.9c.15-.22.15-.42 0-.58-.06-.06-.05-.1.01-.15l.35-.24a.2.2 0 0 1 .25 0c.18.12.38.16.6.1.08-.01.14.02.17.1l.03.12c0 .08-.03.16-.1.22-.1.1-.14.22-.1.36.05.13.02.23-.1.3-.35.23-.66.28-.92.16-.14-.06-.3-.1-.47-.1-.46-.02-.88 0-1.28.07-.08.01-.14-.02-.16-.1-.1-.33-.05-.7.26-.93.29-.22.36-.47.24-.77-.06-.13-.1-.28-.14-.44-.15-.8-.2-1.65-.14-2.51.01-.19.1-.26.3-.23.3.04.58.02.84-.07a.16.16 0 0 1 .19.07l.02.06c.07.53.06 1-.01 1.4-.08.39.08.69-.04 1.07a.17.17 0 0 0 .07.2l.09.04c.15.09.2.05.17-.12-.04-.2-.04-.38 0-.56.07-.3.25-.4.55-.27.16.06.32.1.5.12.24.03.34.17.29.4-.04.21-.04.43 0 .66a.2.2 0 0 1-.02.13.21.21 0 0 1-.1.1.3.3 0 0 1-.24.01.23.23 0 0 0-.26.07c-.2.22-.42.23-.64.03-.06-.06-.13-.06-.2-.01a.46.46 0 0 1-.55 0c-.1-.06-.2-.06-.28.02-.08.06-.1.14-.09.23.02.07.06.12.14.14l.52.15c.1.03.13.09.07.18-.13.21-.1.41.1.58.04.03.06.03.08 0Z" fill="#F6CC2F"/><path d="M31.05 40.8c.06-.34.06-.71.01-1.1-.01-.08.02-.12.1-.1h.1c.1.02.15.07.15.17l.06 1.12c0 .09-.01.16-.04.24-.13.3-.09.62.13.93.05.07.04.13-.02.19l-.04.04a.08.08 0 0 1-.06.02.08.08 0 0 1-.06-.03c-.3-.43-.42-.93-.33-1.47ZM28.45 40.9c.07.12.08.23.03.34a.18.18 0 0 1-.07.09.19.19 0 0 1-.12.02.33.33 0 0 1-.29-.24.39.39 0 0 1 .02-.3c.11-.24.13-.5.04-.8a.13.13 0 0 1 .03-.12.14.14 0 0 1 .12-.04c.16.02.24.11.24.27 0 .18-.01.35-.04.52-.02.1 0 .18.04.27ZM33.78 40.17c0 .15.04.28.1.28.07 0 .13-.11.14-.27.01-.15-.03-.28-.1-.28s-.13.12-.14.27ZM21.79 41.77v.01l-.01.01h-.04c-.09.01-.18-.07-.26-.22a1.6 1.6 0 0 1-.15-.59v-.07c-.03-.22 0-.44.05-.6.05-.16.13-.26.23-.26h.04v.02l.14 1.7Z" fill="#538C1A"/><path d="M19.22 41.47c.07-.62.45-1.04 1.12-1.27a.13.13 0 0 1 .17.1l-.01.07a.65.65 0 0 1-.27.3c-.07.03-.1.09-.07.16.2.67.07 1.19-.37 1.55a.15.15 0 0 0-.06.18c.06.2.06.39 0 .57 0 .03-.02.05-.04.07a.14.14 0 0 1-.2-.03l-.8-1.2a.23.23 0 0 1-.01-.24.24.24 0 0 1 .1-.09.25.25 0 0 1 .12-.03h.16c.1 0 .15-.04.16-.14Z" fill="#F6CC2F"/><path d="M26.62 42.08c-.1.2-.23.26-.4.2a.17.17 0 0 1-.1-.1.16.16 0 0 1 .02-.13c.2-.36.2-.67.02-.92a.26.26 0 0 1-.05-.2c.03-.18.1-.35.23-.52.04-.05.08-.05.13 0a1 1 0 0 1 .24.43.2.2 0 0 1-.05.2c-.23.27-.25.55-.05.84a.2.2 0 0 1 .03.1.2.2 0 0 1-.02.1ZM28.32 42.84c.41-.43.23-.55.19-1.04 0-.05 0-.1.04-.14a.23.23 0 0 1 .1-.09l.18-.06c.11-.04.16 0 .13.1-.1.36-.04.72.15 1.09a.15.15 0 0 1-.06.2.16.16 0 0 1-.08.02c-.15-.01-.3.02-.44.08a.2.2 0 0 0-.13.2l.03 1.03c0 .03 0 .05.02.08.01.02.03.04.06.05a.17.17 0 0 0 .16 0c.08-.04.16-.03.22.03.07.06.09.13.06.22l-.12.33c-.02.07-.06.07-.1.02l-.26-.3c-.05-.07-.1-.08-.19-.05a.68.68 0 0 0-.3.2c-.06.1-.13.1-.2.01a.16.16 0 0 1-.03-.05.08.08 0 0 0-.07-.06l-.77-.04c-.08 0-.16 0-.23.04a.6.6 0 0 1-.55-.05.17.17 0 0 1-.07-.08.16.16 0 0 1 0-.1c.1-.33.13-.65.08-.98v-.04l.03-.04a.1.1 0 0 1 .09-.01c.06.02.1.06.12.12.07.22.14.45.2.7.03.16.16.24.38.24.07 0 .15-.03.2-.08.07-.05.1-.12.12-.2.06-.27.16-.53.32-.77a.51.51 0 0 0 .09-.26c.02-.45 0-.86-.07-1.22-.03-.13.02-.18.15-.16l.08.01c.08.02.12.06.14.13l.16.87a.1.1 0 0 0 .07.08.1.1 0 0 0 .1-.03ZM32.97 41.86c0 .2.07.36.17.36s.18-.15.19-.35c0-.2-.07-.36-.17-.37-.1 0-.18.16-.19.36ZM22.3 43.65c-.18-.37-.3-.74-.37-1.12-.02-.14.02-.16.13-.07.05.04.09.09.12.14a.3.3 0 0 1 .06.22 1.13 1.13 0 0 0 .2.81v.01l-.06.03c-.04.02-.06 0-.08-.02Z" fill="#538C1A"/><path d="M26.96 42.4h.02c.03 0 .07.02.1.06l.06.15a.9.9 0 0 1 .02.2c0 .09 0 .17-.02.25l-.04.21c-.03.16-.08.32-.15.42-.08.1-.16.16-.23.15h-.01v-.01l.25-1.43Z" fill="#538C1A"/><path d="M27.53 44.2a.52.52 0 0 1 .01-.26 2.93 2.93 0 0 1 .5-.89.07.07 0 0 1 .08.02l.02.03c.03.1 0 .18-.06.26a.26.26 0 0 0-.06.23l.11.62c.01.06 0 .12-.04.17a.24.24 0 0 1-.15.1c-.23.03-.37-.06-.41-.28Z" fill="#F6CC2F"/><path d="M29 43.54c-.01.25.04.45.13.46.1 0 .19-.19.2-.43.03-.25-.03-.45-.12-.46-.09 0-.18.19-.2.43ZM33.16 43.65c.06.1.04.2-.05.27s-.14.06-.16-.06c0-.07 0-.13.02-.2a.1.1 0 0 1 .03-.04.1.1 0 0 1 .16.03ZM25.19 44.86l-.06.05c-.02.02-.04.02-.06.01-.2-.1-.28-.24-.26-.43a.1.1 0 0 1 .03-.06.1.1 0 0 1 .06-.03l.6-.04c.04 0 .08 0 .12.03.04.02.07.05.09.1a.2.2 0 0 1-.04.23.32.32 0 0 1-.31.08.19.19 0 0 0-.17.06Z" fill="#538C1A"/></svg>