<!-- by TradingView --><svg width="18" height="18" viewBox="0 0 18 18" xmlns="http://www.w3.org/2000/svg"><path fill="#F0F3FA" d="M0 0h18v18H0z"/><path d="M6.97 14H5V8.48c0-2.41 2.25-3.47 3.28-3.47h2.25a3.74 3.74 0 0 0-3.56 3.37V14Z" fill="#422872"/><path d="M7.25 11.59v-1.8c.55 1.53 2.27 2.18 3.1 2.24-1.38 0-2.64-.3-3.1-.44Z" fill="#422872"/><path d="M10.48 5a3.52 3.52 0 1 1 0 7.03 3.52 3.52 0 0 1 0-7.03Zm0 1.69a1.83 1.83 0 1 0 0 3.65 1.83 1.83 0 0 0 0-3.65Z" fill="#422872" fill-opacity=".3"/><path d="M10.48 10a1.5 1.5 0 0 1 0-3v3Zm-.39-2.58a1.16 1.16 0 0 0 0 2.16V7.42ZM10.64 7c.59.06 1.08.46 1.27 1h-.37c-.1-.23-.29-.41-.5-.53v.9h.95l.01.14c0 .79-.6 1.42-1.36 1.48v-.83h.4v.37c.3-.16.52-.43.6-.78h-1V7.01Z" fill="#161415"/></svg>