<!-- by TradingView --><svg width="18" height="18" viewBox="0 0 18 18" xmlns="http://www.w3.org/2000/svg"><path fill="#F0F3FA" d="M0 0h18v18H0z"/><path d="m9.94 6.24-.3.52a.03.03 0 0 0 0 .04l1.67 2.74a.03.03 0 0 1 0 .05h-1.17a.03.03 0 0 1-.03-.01L9.05 7.94a.03.03 0 0 0-.03-.02.03.03 0 0 0-.03.02l-1.86 3.04-.01.01-.02.01H4.02L4 10.97a.03.03 0 0 1 0-.03l4.03-6.93A.03.03 0 0 1 8.06 4a.03.03 0 0 1 .03.02l.73 1.32a.03.03 0 0 1 0 .03L8.26 6.4a.03.03 0 0 1-.03.02.03.03 0 0 1-.03-.02l-.1-.18a.03.03 0 0 0-.03-.02.03.03 0 0 0-.03.02l-2.2 3.73a.03.03 0 0 0 .02.05h.65v-.01l3.42-5.93a.03.03 0 0 1 .03-.02.03.03 0 0 1 .03.02l4 6.9a.04.04 0 0 1 0 .03.03.03 0 0 1-.02.02H12.2a.03.03 0 0 0-.03.03v.02l.89 1.9v.03a.03.03 0 0 1-.03.02H4.99a.03.03 0 0 1-.02-.03v-.02l.56-.93a.03.03 0 0 1 .03-.02H11.22a.03.03 0 0 0 .01-.03v-.02l-.3-.93a.03.03 0 0 0-.03-.02H7.73a.03.03 0 0 1-.01-.04v-.01L8.3 10a.03.03 0 0 1 .03-.01h3.85a.03.03 0 0 0 .03-.02.03.03 0 0 0 0-.03L10 6.24a.03.03 0 0 0-.03-.02.03.03 0 0 0-.03.02Z" fill="#CE212C"/></svg>