<!-- by TradingView --><svg width="56" height="56" viewBox="0 0 56 56" xmlns="http://www.w3.org/2000/svg"><path fill="#F0F3FA" d="M0 0h56v56H0z"/><path d="M40 32.13v-5.3l-1-.6v-.6l2.2-.63.4.13v1.02c.8-.7 1.96-1.15 3.03-1.15 1.9 0 2.37 1.64 2.37 3.25v3.89l1 .13V33h-4v-.73l1-.14v-3.6c0-1.14-.04-2.28-1.4-2.28-.62 0-1.1.24-1.6.6v5.29l.83.13V33H39v-.73l1-.14Z" fill="#F58634"/><path d="M22.61 22.19c-.48.27-.94.53-1.42.76a5.8 5.8 0 0 1-2.62.67c-.32 0-.64-.02-.96-.05h-.13a15.1 15.1 0 0 0-1.3-.07c-.64 0-1.11.3-1.47.74-.37.45-.58 1-.66 1.36a.53.53 0 0 1-.62.39.5.5 0 0 1-.42-.59c.1-.47.37-1.17.86-1.77.5-.6 1.25-1.13 2.31-1.13.56 0 1 .03 1.39.06l.13.02c.33.02.6.05.87.05.56 0 1.14-.1 2.15-.58.4-.19.82-.43 1.28-.69A15.3 15.3 0 0 1 30.5 19h4.35c3.09.04 5.07 1.13 7.08 3.33.24.26.41.4.57.49.31.16.67.18 1.79.18 2.26 0 3.71 1.1 3.71 2.5 0 .28-.24.5-.53.5-.3 0-.53-.22-.53-.5 0-.6-.67-1.5-2.65-1.5h-.13c-.94 0-1.6 0-2.19-.32-.3-.16-.57-.4-.84-.7-1.8-1.97-3.5-2.98-6.39-2.98H30.5c-4.04 0-6.1 1.17-7.89 2.19Z" fill="#96989A"/><path d="M33.79 25c1.74 0 3.22.7 3.22 2.62V32H38v.66c-.48.26-1.11.34-1.65.34-.78 0-1.08-.26-1.1-.87-.58.58-1.4.87-2.47.87-1.28 0-2.78-.67-2.78-2.14 0-1.43 1.53-2.13 2.72-2.4.77-.19 1.5-.28 2.28-.28v-.42c0-1.23-.75-1.7-1.9-1.7-.8 0-1.64.2-2.35.54l-.37-.77c.91-.66 2.31-.83 3.4-.83ZM35 29.02c-.8 0-1.45.13-2.09.38-.63.25-.94.65-.94 1.2 0 .91.55 1.36 1.64 1.36A2.34 2.34 0 0 0 35 31.5v-2.47ZM25.69 25c.92 0 1.65.2 2.2.6.2-.31.64-.6 1.32-.6H30v1.44h-1.44c.17.33.25.72.25 1.18 0 1.9-1.67 2.88-3.4 2.88-.52 0-1-.06-1.44-.2-.06.16-.09.32-.09.48 0 .68.36 1.2 1.12 1.22.33.02.62 0 1.5 0 1.6 0 3.23.26 3.23 2.19 0 2.13-2.43 2.81-4.16 2.81-1.4 0-3.57-.3-3.57-2.11 0-.4.12-.77.36-1.12.24-.34.53-.82.87-1.02-.87-.3-1.07-.9-.55-1.87.18-.34.4-.62.65-.84a2.32 2.32 0 0 1-1.24-2.17c0-1.95 1.87-2.87 3.6-2.87Zm-.28.83c-1 0-1.53.71-1.53 1.66 0 .63.14 1.14.42 1.53.27.39.7.58 1.3.58 1.05 0 1.47-.63 1.47-1.83 0-1.3-.56-1.94-1.66-1.94ZM24 32.93c-.23.32-.34.93-.34 1.42C23.66 35.57 24.9 36 26 36c1.52 0 2.16-.37 2.16-1.37 0-1.2-.62-1.63-1.66-1.63H25c-.51 0-.71-.03-1-.07ZM17.79 25c1.74 0 3.21.7 3.21 2.62V32h1v.66c-.48.26-1.11.34-1.65.34-.78 0-1.08-.26-1.1-.87-.58.58-1.4.87-2.47.87-1.28 0-2.78-.67-2.78-2.14 0-1.43 1.53-2.13 2.72-2.4.77-.19 1.5-.28 2.28-.28v-.42c0-1.23-.75-1.7-1.9-1.7-.8 0-1.64.2-2.35.54l-.37-.77c.91-.66 2.31-.83 3.4-.83ZM19 29.02c-.8 0-1.45.13-2.09.38-.63.25-.91.55-.91 1.1 0 .9.52 1.46 1.61 1.46A2.34 2.34 0 0 0 19 31.5v-2.47ZM14 21.95l-1 .14v6.66c0 2.56-.15 5.5-2.86 6.78a5.1 5.1 0 0 1-1.7.47L8 35.38c2.69-.93 3-3.07 3-5.51v-7.78l-1-.14V21h4v.95Z" fill="#F58634"/><circle cx="16" cy="23" r="1" fill="#F58634"/><circle cx="32" cy="23" r="1" fill="#F58634"/><circle cx="19" cy="23" r="1" fill="#F58634"/><circle cx="35" cy="23" r="1" fill="#F58634"/></svg>