<!-- by TradingView --><svg width="56" height="56" viewBox="0 0 56 56" xmlns="http://www.w3.org/2000/svg"><path fill="#F0F3FA" d="M0 0h56v56H0z"/><path d="M33.36 30.62h-2.33a.05.05 0 0 1-.04-.03.05.05 0 0 1 0-.05l.75-1.38a.05.05 0 0 1 .04-.02h.73a.05.05 0 0 0 .02-.05v-.02l-.68-1.26a.05.05 0 0 0-.08 0l-2.25 4.16-.02.02-.03.01h-1.92a.05.05 0 0 1-.04-.02.05.05 0 0 1 0-.05l4.26-7.9a.05.05 0 0 1 .09 0l4.26 7.9a.05.05 0 0 1-.05.07h-1.91a.05.05 0 0 1-.04-.03l-.72-1.33a.05.05 0 0 0-.04-.02ZM8.8 28.04h.02a420.01 420.01 0 0 0 2.05-4.01.15.15 0 0 1 .08-.03h1.61a.04.04 0 0 1 .04.06l-3.76 7.92-.01.01h-.02a.08.08 0 0 1-.03 0h-.01l-.01-.01L5 24.06a.04.04 0 0 1 .02-.05l.02-.01h1.62a.15.15 0 0 1 .13.09 426.62 426.62 0 0 0 2.01 3.95ZM14.96 24h-1.92a.04.04 0 0 0-.04.04v7.92c0 .02.02.04.04.04h1.92c.02 0 .04-.02.04-.04v-7.92a.04.04 0 0 0-.04-.04ZM18 26.45v3.75c0 .03.04.05.06.07a.1.1 0 0 0 .06.03c1.38.1 2.3-.46 2.77-1.67.1-.26.12-.57.06-.93-.1-.61-.37-1.1-.82-1.47a2.45 2.45 0 0 0-1.6-.53H16.1a.1.1 0 0 1-.07-.04.1.1 0 0 1-.03-.07v-1.48a.1.1 0 0 1 .03-.08.1.1 0 0 1 .07-.03l3.13.01c.94.02 1.77.38 2.5 1.08A3.87 3.87 0 0 1 23 28.24a3.8 3.8 0 0 1-1.67 2.98c-.74.53-1.63.79-2.67.77a47.99 47.99 0 0 0-2.63 0 .07.07 0 0 1-.02-.06v-5.5l.03-.06a.08.08 0 0 1 .06-.02h1.84a.1.1 0 0 1 .07.03c.02.02 0 .04 0 .07ZM22.57 24.08h2.14a.05.05 0 0 1 .04.03l.84 1.52a.05.05 0 0 1 0 .05l-1.01 1.84a.05.05 0 0 1-.05.03.05.05 0 0 1-.04-.03l-1.97-3.36a.05.05 0 0 1 .02-.07h.03ZM25 28.22l2.25-4.2.02-.01.02-.01h2.1a.05.05 0 0 1 .05.05v.03l-2.4 4.2v3.67l-.01.03a.05.05 0 0 1-.04.02h-1.94c-.01 0-.03 0-.03-.02a.05.05 0 0 1-.02-.03v-3.73ZM39.75 24.87l-1.4 2.48a.05.05 0 0 1-.06.02l-.02-.01L33 20.08l-.01-.02v-.03a.05.05 0 0 1 .06-.03l3.5.42.02.01.01.01 3.16 4.37a.05.05 0 0 1 0 .06ZM43.53 23.59l-1.39-2.47v-.05a.05.05 0 0 1 .04-.03L50.94 20h.03a.05.05 0 0 1 .03.05l-.01.03-2.09 2.88a.05.05 0 0 1-.03.03l-5.29.62a.05.05 0 0 1-.05-.03Z" fill="#BB0007"/><path d="m40.4 23.58-2.08-2.87a.05.05 0 0 1 0-.05l.02-.02h.03l3.46.4h.02a.05.05 0 0 1 .02.05v.02l-1.4 2.46a.05.05 0 0 1-.05.02l-.02-.01ZM44.3 24.83l3.46-.42h.03l.02.03a.05.05 0 0 1 0 .05l-2.07 2.87a.05.05 0 0 1-.05.02h-.02l-.02-.02-1.38-2.46a.05.05 0 0 1 0-.05.05.05 0 0 1 .03-.02ZM41.3 27.68l-1.38 3.26a.05.05 0 0 1-.05.03h-.03l-.02-.03-1.37-3.26a.05.05 0 0 1 .02-.06l.03-.01h2.77a.05.05 0 0 1 .03.05v.02Z" fill="#003D87"/><path d="M42.71 27.61h2.8a.05.05 0 0 1 .04.02.05.05 0 0 1 0 .05l-3.5 8.3-.02.01a.05.05 0 0 1-.08-.02l-1.4-3.3a.05.05 0 0 1 0-.05l2.12-4.98.01-.02.03-.01Z" fill="#BB0007"/></svg>