<!-- by TradingView --><svg width="18" height="18" viewBox="0 0 18 18" xmlns="http://www.w3.org/2000/svg"><path fill="#F0F3FA" d="M0 0h18v18H0z"/><path d="m7.33 6.14.04.02a.1.1 0 0 1 .03.02.1.1 0 0 1 .02.08l-.01.07c-.03.14-.08.28-.14.37-.06.1-.13.14-.19.13l-.68-.1a.12.12 0 0 1-.08-.06.34.34 0 0 1-.05-.13 1.18 1.18 0 0 1 0-.39l.01-.07a.1.1 0 0 1 .05-.06A.12.12 0 0 1 6.4 6l.92.14ZM5.98 6.02c.04 0 .07 0 .1.02.03.01.05.04.06.07l.01.03c.04.15.05.29.04.4-.01.11-.05.18-.1.2l-.7.15c-.06 0-.13-.04-.2-.13-.07-.1-.13-.22-.16-.37l-.01-.03a.11.11 0 0 1 .01-.1l.04-.03.04-.02.87-.19Z" fill="#0067B4"/><path d="M14.52 6h.01l.01.01v.03L12.3 9.1l-1 1.34a.32.32 0 0 0-.06.19v1.36l-.02.01h-1.22a.02.02 0 0 1 0-.01l-.01-.01V6.01h1.24l.01.02v2.54h.02l1.03-1.4.82-1.11a.13.13 0 0 1 .05-.04.15.15 0 0 1 .07-.02h1.28Z" fill="url(#a)"/><path d="m8.5 6.73.05.07a.1.1 0 0 1-.02.09l-.02.02a1.38 1.38 0 0 1-.3.3.44.44 0 0 1-.14.07c-.04.01-.08 0-.1-.01l-.57-.33a.12.12 0 0 1-.05-.08V6.7a1.32 1.32 0 0 1 .18-.37l.02-.03a.12.12 0 0 1 .07-.05c.04 0 .07 0 .1.02l.77.45ZM4.7 6.4a.16.16 0 0 1 .2.02l.07.07.1.16.06.16a.3.3 0 0 1 .01.13c0 .03-.02.06-.05.08l-.54.36c-.05.04-.13.03-.23-.02a.93.93 0 0 1-.28-.24l-.06-.07a.13.13 0 0 1-.03-.1c0-.04.03-.07.06-.09l.69-.47ZM6.99 6.9h.05l.04.04a.12.12 0 0 1 .02.1 1.87 1.87 0 0 1-.13.4.46.46 0 0 1-.08.13c-.03.03-.06.04-.08.03l-.42-.06c-.02 0-.05-.02-.06-.06a.43.43 0 0 1-.04-.13v-.2l.02-.23.02-.05.04-.03a.14.14 0 0 1 .1-.03L7 6.9ZM6 6.83c.04 0 .08 0 .1.02.04.01.06.04.07.08a1.83 1.83 0 0 1 .06.42c0 .06 0 .1-.02.14-.01.03-.03.05-.05.05l-.43.1c-.04.01-.1-.04-.17-.14-.06-.1-.12-.24-.16-.4a.12.12 0 0 1 .02-.1.13.13 0 0 1 .03-.03.15.15 0 0 1 .05-.03l.5-.1Z" fill="#0181C7"/><path d="m8.23 7.3.34-.3a.17.17 0 0 1 .2-.02L8.8 7l.5.66.02.06v.06l-.04.06a.16.16 0 0 1-.06.04l-.44.16a.17.17 0 0 1-.1 0A.16.16 0 0 1 8.6 8l-.39-.52a.13.13 0 0 1 .02-.18ZM7.85 7.29c.02 0 .03.02.04.03l.03.05a.12.12 0 0 1-.02.1l-.02.02c-.09.13-.19.25-.28.32-.1.07-.17.1-.2.08l-.37-.2C7.01 7.66 7 7.64 7 7.6c0-.03 0-.08.02-.13l.07-.18.12-.19.02-.03a.14.14 0 0 1 .08-.05c.04-.01.08 0 .11.01l.43.25Z" fill="#0196D3"/><path d="M3.7 7.16a.12.12 0 0 1 .08-.05l.09.01.05.03c.13.07.25.16.33.25.08.09.1.16.07.21l-.35.56c-.02.02-.05.04-.09.04h-.15a1.58 1.58 0 0 1-.4-.14l-.05-.03a.12.12 0 0 1-.04-.03.1.1 0 0 1 0-.12l.46-.73Z" fill="#02A5D9"/><path d="M5.09 7.12a.13.13 0 0 1 .1-.02l.04.01.04.03v.02c.1.13.2.26.24.36.04.11.05.18 0 .21l-.34.24c-.04.02-.12 0-.22-.07-.1-.08-.2-.19-.31-.31l-.01-.02a.1.1 0 0 1-.03-.08l.05-.08.44-.29Z" fill="#0196D3"/><path d="M4.36 7.72a.13.13 0 0 1 .08-.05h.1l.01.01a1.93 1.93 0 0 1 .36.26l.09.12c.01.03.02.06 0 .08l-.2.31c-.01.02-.04.04-.08.04a.5.5 0 0 1-.15-.01 1.99 1.99 0 0 1-.42-.16h-.01a.13.13 0 0 1-.04-.04.11.11 0 0 1 0-.14l.26-.42Z" fill="#02A5D9"/><path d="M9.7 8.53H6.05l-.02.01v.6c0 .01 0 .02.02.02H9.7l.02-.02v-.6l-.02-.01Z" fill="url(#b)"/><path d="m13.45 10.12.3-.56v-.01a.03.03 0 0 1 .03 0l.01.01.29.56a.02.02 0 0 1 0 .03h-.62v-.03Z" fill="#0181C7"/><path d="M3.86 9.57c.3 1.08 1.39 1.77 2.61 1.72.43-.01.84-.14 1.25-.37.12-.07.42-.21.3-.37a.13.13 0 0 0-.13-.05l-.04.02c-.15.11-.32.23-.45.29a2.55 2.55 0 0 1-2.24-.05v-.03a3.33 3.33 0 0 1 4.15-.4v.02c-.98 1.72-3.49 2.2-5.15.93a2.9 2.9 0 0 1-1.08-1.6l.78-.1Z" fill="url(#c)"/><path d="M3.18 8.13h.03c.18.05.36.1.54.17.11.04.14.09.11.2-.1.35-.1.7 0 1.07l-.78.12a2.6 2.6 0 0 1 .07-1.53l.03-.03Z" fill="url(#d)"/><path d="m14.22 10.4.1.2v.02l-.01.01h-1.1v-.02l.1-.21v-.01h.9ZM12.98 11.12l-.01-.01v-.02c0-.06.02-.12.06-.16a.2.2 0 0 1 .15-.07h1.15a.2.2 0 0 1 .15.07c.04.04.06.1.06.16v.03h-1.56ZM12.73 11.54l.08-.19h.01l.02-.01h1.85l.01.01.09.2v.02H12.73v-.02ZM13.76 12a177.8 177.8 0 0 1-1.24-.02v-.03l.05-.12s0-.02.02-.02l.03-.01a107.52 107.52 0 0 1 2.3 0l.03.03.05.12a.03.03 0 0 1 0 .03l-.02.01h-.02l-1.2.01Z" fill="#0181C7"/><defs><linearGradient id="a" x1="14.54" y1="9" x2="10" y2="9" gradientUnits="userSpaceOnUse"><stop stop-color="#20B34B"/><stop offset="1" stop-color="#94C54B"/></linearGradient><linearGradient id="b" x1="6.03" y1="8.84" x2="9.72" y2="8.84" gradientUnits="userSpaceOnUse"><stop offset=".2" stop-color="#025FAD"/><stop offset="1" stop-color="#04A2DF"/></linearGradient><linearGradient id="c" x1="6.16" y1="8.13" x2="6.16" y2="12" gradientUnits="userSpaceOnUse"><stop stop-color="#88C73A"/><stop offset=".69" stop-color="#15B14F"/></linearGradient><linearGradient id="d" x1="6.16" y1="8.13" x2="6.16" y2="12" gradientUnits="userSpaceOnUse"><stop stop-color="#88C73A"/><stop offset=".69" stop-color="#15B14F"/></linearGradient></defs></svg>