<!-- by TradingView --><svg width="56" height="56" viewBox="0 0 56 56" xmlns="http://www.w3.org/2000/svg"><path fill="#F0F3FA" d="M0 0h56v56H0z"/><path d="M13.08 37.69h-.03a.07.07 0 0 1-.04-.05l-.01-.02V13.07a.07.07 0 0 1 .07-.07h29.8c.03 0 .07.01.1.04.02.02.03.06.03.09v.2c0 .03-.01.06-.04.09a.14.14 0 0 1-.1.04c-4.15.2-8.18.52-12.08 1a64.7 64.7 0 0 0-4.18.66c-2.63.5-5.24 1.41-7.63 2.61-2.28 1.15-5.41 3.4-3.8 6.33.5.9 1.26 1.72 2.28 2.47a29.05 29.05 0 0 0 6.22 3.42c2.9 1.18 5.8 2.2 8.7 3.04 1.01.3 3.3 1.1 3.68 2.1.8 2.14-8.93 2.62-9.96 2.67-4.13.16-8.4.13-12.83-.1l-.18.03Z" fill="#2D5698"/><path d="M43 15.41v27.52c0 .02 0 .04-.02.05a.08.08 0 0 1-.05.02H13.12a.12.12 0 0 1-.11-.07l-.01-.05v-4.33a.07.07 0 0 1 .02-.05.07.07 0 0 1 .06-.02l17.9 1.3c1.6.1 2.76.15 3.51.13 2.46-.08 6.21-.58 7.86-2.59 1.09-1.3.38-2.77-.67-3.8a9.09 9.09 0 0 0-1.66-1.36 27.49 27.49 0 0 0-4.9-2.44c-1.6-.56-3-1.1-4.18-1.6-2.25-.98-7.67-3.7-4.93-6.86.9-1.03 2.3-1.83 3.5-2.36a38.61 38.61 0 0 1 5.77-1.99 74.45 74.45 0 0 1 7.65-1.58.1.1 0 0 1 .06.05.1.1 0 0 1 .01.03Z" fill="#2D5698"/><path d="M25.97 16.65a27.12 27.12 0 0 0-4.13 1.82c-2.33 1.26-4.5 3.38-2.86 6.15a7.69 7.69 0 0 0 1.36 1.7c0 .03-.02.04-.03.04a9.47 9.47 0 0 1-2.59-2.6c-1.9-3.06 2.03-5.04 4.36-5.93a27.46 27.46 0 0 1 3.9-1.2v.02Z" fill="#15254B"/><path d="M28.93 17.56a.02.02 0 0 1 .01.02 25.28 25.28 0 0 0-3.85 1.72c-2.16 1.18-4.18 3.16-2.63 5.73a7.12 7.12 0 0 0 1.27 1.59l-.03.03a8.83 8.83 0 0 1-2.42-2.4c-1.79-2.85 1.87-4.71 4.03-5.55 1.45-.55 2.66-.94 3.62-1.14ZM36.18 37.74c.85-.2 1.63-.5 2.35-.92.86-.5 1.23-1.22 1.11-2.17v-.03l.03-.02a.05.05 0 0 1 .06 0 2 2 0 0 1 .53.84c.62 1.76-3.07 2.26-4.08 2.33v-.02Z" fill="#15254B"/></svg>