<!-- by TradingView --><svg width="18" height="18" viewBox="0 0 18 18" xmlns="http://www.w3.org/2000/svg"><path fill="#F0F3FA" d="M0 0h18v18H0z"/><path d="M7.73 10.6c1.61.36 3.07 1.07 4.35 2.13v.02a3.94 3.94 0 0 1-3.6 1.17l.92-2.29v-.01a9.68 9.68 0 0 0-1.8-.58l.1-.42.01-.01h.02Zm2.1 1.22h-.01v.01l-.67 1.7v.01h.02c.82 0 1.56-.25 2.2-.77v-.01a9.72 9.72 0 0 0-1.54-.94ZM7 8.38a9.8 9.8 0 0 1-.77 4.74h-.01A3.83 3.83 0 0 1 4 10.1h.01v-.01l2.5.17c.06-.6.07-1.2.03-1.8v-.05L7 8.38Zm-2.42 2.21v.02a3.34 3.34 0 0 0 1.4 1.85H6a9.37 9.37 0 0 0 .45-1.73l-.01-.01-1.84-.13Zm8.97-3.45v.01a3.79 3.79 0 0 1-.1 3.73l-1.89-1.63c-.44.45-.82.93-1.15 1.45h-.02l-.37-.23H10v-.02a10.09 10.09 0 0 1 3.54-3.3Zm-.23.67a9.65 9.65 0 0 0-1.42 1.11v.01l1.39 1.2a.02.02 0 0 0 .01 0h.01c.29-.77.3-1.54.02-2.31ZM8.53 4.05a3.95 3.95 0 0 1 3.58 1.2v.02L9.97 6.56a9.38 9.38 0 0 0 1.05 1.54l-.33.27h-.03a9.92 9.92 0 0 1-2.14-4.3v-.01h.01Zm-2.22.75.57 2.4h.01A9.68 9.68 0 0 0 8.7 6.7l.16.4v.02a10.32 10.32 0 0 1-4.83.68v-.01A3.84 3.84 0 0 1 6.3 4.78Zm-.34.7A3.34 3.34 0 0 0 4.6 7.35a9.83 9.83 0 0 0 1.82-.1L6 5.5l-.01-.01h-.02ZM9.1 4.45c.15.58.36 1.13.63 1.67h.02l1.58-.93v-.03c-.66-.5-1.4-.73-2.23-.71Z" fill="#E6751D"/></svg>