<!-- by TradingView --><svg width="56" height="56" viewBox="0 0 56 56" xmlns="http://www.w3.org/2000/svg"><path fill="#F0F3FA" d="M0 0h56v56H0z"/><path fill-rule="evenodd" d="M43.7 34.5a16.82 16.82 0 0 0 0-13.02 16.8 16.8 0 0 0-3.68-5.5 16.8 16.8 0 0 0-5.51-3.68A16.82 16.82 0 0 0 28 11c-2.26 0-4.43.43-6.5 1.3a16.8 16.8 0 0 0-5.52 3.68 16.8 16.8 0 0 0-3.68 5.51A16.82 16.82 0 0 0 11 28c0 2.26.43 4.43 1.3 6.5a16.8 16.8 0 0 0 3.68 5.52 16.8 16.8 0 0 0 5.51 3.68 16.82 16.82 0 0 0 13.02 0 16.8 16.8 0 0 0 5.51-3.68 16.8 16.8 0 0 0 3.68-5.51Zm-.92-.38a15.8 15.8 0 0 0 0-12.24 15.87 15.87 0 0 0-8.66-8.66 15.8 15.8 0 0 0-12.24 0 15.87 15.87 0 0 0-8.66 8.66 15.8 15.8 0 0 0 0 12.24 15.87 15.87 0 0 0 8.66 8.66 15.8 15.8 0 0 0 12.24 0 15.87 15.87 0 0 0 8.66-8.66Z" fill="#0B4301"/><path d="M25.4 14.64c0-.11.04-.17.16-.17h3.42c.18 0 .25.1.2.27-.34 1.33-.46 2.79-.35 4.36.01.2-.06.37-.22.5a.55.55 0 0 1-.53.1 4.33 4.33 0 0 0-2.51.1.3.3 0 0 1-.33-.08.31.31 0 0 1-.1-.32c.34-1.57.42-3.16.26-4.76Z" fill="#147005"/><path d="M24.12 22.04c-.02.2-.13.3-.33.3H23c-.35 0-.5-.17-.44-.52.25-1.32.23-2.67-.05-4.05-.06-.27-.03-.52.07-.77.2-.45.26-.91.2-1.38-.03-.2.05-.34.26-.4l.94-.26c.12-.03.23 0 .33.08s.14.18.14.3l-.34 6.7Z" fill="#0B4301"/><path d="M26.82 16.34c-.35-.21-.37-.48-.06-.79.47-.46.72-.36.76.3l.11 2.4c.02.39-.15.5-.5.36l-.27-.12a.38.38 0 0 1-.24-.27.4.4 0 0 1 .06-.36c.19-.26.32-.53.41-.82.1-.3 0-.54-.27-.7Z" fill="#fff"/><path d="M32.26 15.2c.16-.03.3 0 .43.1.08.05.1.13.08.21-.01.1-.07.15-.16.17a.81.81 0 0 1-.85-.3c-.13-.16-.1-.23.12-.21.06 0 .13.01.19.03h.2Z" fill="#147005"/><path d="M18.35 22.94c.52-.15.57-.39.14-.72-.85-.64-1.46-.48-1.85.46a.34.34 0 0 1-.33.23c-.3.02-.4-.11-.32-.4a3.1 3.1 0 0 1 .85-1.45c.29-.27.6-.3.94-.12.34.19.65.4.91.66.66.64 1 .5 1.02-.41.01-.64-.48-1-1.48-1.1-1.07-.1-1.1-.32-.09-.67a2.1 2.1 0 0 1 2.14.39c.28.23.44.52.5.87.04.36-.04.68-.25.98l-.4.58a.67.67 0 0 0-.02.8c.32.49.6 1 .86 1.5.04.09.04.17.02.26-.1.43-.3.46-.57.1-.2-.24-.45-.4-.77-.46a.28.28 0 0 0-.25.07.26.26 0 0 0-.1.25c.1.84.4 1.56.91 2.15.22.26.23.52.04.8l-.1.14a.35.35 0 0 1-.26.16c-.1.01-.2-.01-.28-.08a1.97 1.97 0 0 1-.82-1.73.54.54 0 0 0-.25-.51c-.2-.14-.36-.32-.45-.54-.1-.23-.06-.41.16-.56.29-.2.6-.3.93-.34a.48.48 0 0 0 .43-.52l-.02-.2c-.03-.3-.18-.4-.47-.27l-1.65.73c-.25.11-.34.3-.26.57l.29.93c.05.19.18.3.38.32.17.01.3.1.37.26.09.15.05.26-.12.32-.19.07-.38.1-.59.09-.23-.02-.36-.14-.4-.37a1.2 1.2 0 0 0-.79-.97c-.29-.11-.43-.01-.41.3l.1 1.44c.04.47-.14.8-.53 1.02-.31.18-.5.08-.53-.28-.2-1.79.38-3.24 1.74-4.35.23-.18.5-.27.8-.25.3.01.58-.01.83-.08Z" fill="#0B4301"/><path d="M30.02 19.8c.17.04.3.12.4.27.1.13.1.26 0 .4-.1.12-.22.16-.37.12a.47.47 0 0 1-.38-.45c-.03-.26.09-.37.35-.33Z" fill="#147005"/><path d="M31.5 20.22c0-.1.06-.17.15-.21a.25.25 0 0 1 .26.03c.25.17.36.4.31.67-.03.16-.12.21-.28.16-.33-.1-.48-.32-.44-.65ZM28.17 21.68l-2.61-.1c-.2-.02-.32-.13-.33-.33l-.02-.36c-.02-.2.08-.28.28-.24 1.1.23 2.14.16 3.13-.23.06-.02.1-.01.15.03.05.05.06.1.03.16l-.35.9c-.05.12-.14.18-.28.17ZM28.19 22.18l.2-.28c.07-.07.13-.08.2-.02.1.08.16.18.17.3.02.27-.1.44-.35.51-1.03.3-2.1.34-3.24.11-.12-.02-.16-.1-.13-.21l.04-.16c.02-.07.06-.1.13-.1l2.4.12c.24 0 .43-.08.58-.27Z" fill="#0B4301"/><path d="M30.68 24.03c.39-.42.45-.87.18-1.34-.12-.21-.06-.31.18-.31h.28c.12 0 .2.05.21.16.1.72-.13 1.27-.68 1.68-.07.04-.12.04-.17-.02-.05-.06-.05-.11 0-.17Z" fill="#147005"/><path d="M37.56 24.32a13.16 13.16 0 0 1-3.84 3 .31.31 0 0 1-.16.03.43.43 0 0 1-.36-.26c-.1-.21-.04-.34.2-.38a.57.57 0 0 1 .2 0c.12.02.23-.02.31-.1l1.77-1.8c.3-.33.24-.48-.2-.47-.3 0-.73.17-1.31.49-.42.23-.7.34-.82.32-.35-.03-.4-.17-.14-.4 1.09-1.01 2.14-1.35 3.15-1.02.27.09.5.03.7-.17l.8-.83c.19-.2.41-.28.68-.25.27.02.49.15.64.37.27.4.3.78.1 1.12-.1.18-.23.22-.42.12-.48-.27-.92-.2-1.3.23ZM22.8 24.25a.6.6 0 0 1-.23-.07.4.4 0 0 1-.2-.32.4.4 0 0 1 .15-.35c.35-.27.7-.35 1.03-.23.17.06.27.17.32.33.04.17 0 .32-.11.45a.67.67 0 0 1-.67.23l-.3-.04ZM28.73 29.05c0 .11-.06.17-.18.18l-3.35-.01c-.12 0-.18-.06-.18-.18v-5.16c0-.12.07-.18.19-.18h3.35c.12 0 .18.07.18.19l-.01 5.16Z" fill="#0B4301"/><path d="M27.9 24.58c-.41.75-1.12.81-2.11.16.03-.32.74-.37 2.12-.16Z" fill="#fff"/><path d="m38.26 25.66-2.51 4.28c-.17.29-.4.36-.7.23l-.17-.08a.36.36 0 0 1-.2-.22.37.37 0 0 1 .03-.3l2.82-4.52c.17-.26.4-.43.72-.5.3-.06.58 0 .85.17.17.12.42.24.75.37.53.2.9.46 1.13.79.58.88.82 1.96.7 3.23 0 .12-.06.15-.16.07l-.59-.46a.24.24 0 0 1-.1-.22c.14-1.15-.2-2.02-1.03-2.61a.26.26 0 0 0-.3-.02.25.25 0 0 0-.12.28 6.4 6.4 0 0 1-.61 3.94c-.4.88-1.12 2.02-2.15 3.43a.26.26 0 0 1-.26.1l-.26-.02c-.13-.02-.17-.08-.12-.2.67-1.6 1.38-3.12 2.14-4.55.21-.4.36-.87.44-1.43a15.5 15.5 0 0 0 .12-1.63c.02-.6-.12-.64-.42-.13Z" fill="#0B4301"/><path d="m27.9 24.58-.06 3.08c0 .12-.06.17-.18.17l-1.6-.04c-.11 0-.16-.05-.17-.16l-.1-2.89c1 .65 1.7.6 2.12-.16Z" fill="#72AB5F"/><path d="M23.38 25.09h-.92c-.1 0-.18.08-.18.18l.05 9.7c0 .1.09.17.18.17h.92c.1 0 .18-.08.18-.18l-.05-9.7c0-.1-.08-.17-.18-.17Z" fill="#0B4301"/><path d="M30.55 26.54c-.33.15-.4.34-.23.56-.36-.05-.51-.33-.46-.83.02-.23.14-.3.35-.2.13.08.24.23.34.47Z" fill="#147005"/><path d="M30.55 26.54c.03-.16.2-.16.48 0 .43.24.58.6.44 1.05-.06.21-.18.25-.36.11l-.79-.6c-.17-.22-.1-.4.23-.56Z" fill="#72AB5F"/><path d="M19.68 29.98c-.44-.44-.38-.82.16-1.14.15-.1.32-.15.5-.16.48-.04.69.18.63.65-.09.78.07 1.5.47 2.19.2.32.1.48-.27.48h-.63c-.32 0-.45-.16-.39-.47.12-.6-.04-1.11-.47-1.55Z" fill="#0B4301"/><path d="M29.79 29.41a.17.17 0 0 1-.07-.17l.07-.32c.03-.18.13-.22.28-.12l1.17.73c.19.12.3.3.32.52.02.16 0 .33-.04.49-.1.3-.23.32-.42.08a5.68 5.68 0 0 0-1.31-1.21Z" fill="#147005"/><path d="m28.44 30.22-3.41-.07a.33.33 0 0 0-.34.33l-.01.6c0 .18.14.33.32.34l3.42.06c.18 0 .33-.14.34-.32l.01-.6a.33.33 0 0 0-.33-.34ZM33.85 31.1c.04-.23.16-.28.35-.15l.79.5c.12.08.15.18.08.31l-1.99 3.49a.43.43 0 0 1-.33.22.42.42 0 0 1-.38-.15l-.15-.17c-.13-.15-.14-.3-.01-.47a8.27 8.27 0 0 0 1.64-3.58Z" fill="#0B4301"/><path d="M30.33 32.6a1.4 1.4 0 0 1-.87-.34c-.27-.24-.23-.33.13-.27l1.65.29c.22.03.27.15.16.33a.34.34 0 0 1-.26.17c-.3.05-.58-.01-.81-.19ZM28.2 34.5l-.24 7.25c0 .16-.09.23-.25.21l-3.46-.45c-.1-.01-.16-.07-.15-.18l.44-8.25c.02-.22.11-.4.29-.52a.66.66 0 0 1 .58-.1c.84.22 1.72.3 2.64.23.33-.02.56.13.66.45.11.33.03.6-.25.84a.7.7 0 0 0-.26.53Z" fill="#147005"/><path d="M21.45 33.45c.12.65.16 1.35.1 2.12-.04.46-.14 1.14-.3 2.05-.18 1-.28 1.75-.32 2.27 0 .17-.1.25-.26.24l-.2-.01c-.2-.01-.31-.13-.3-.34l.04-6.5c0-.1.04-.18.1-.24.08-.07.16-.1.25-.1l.32.02c.32.01.5.17.57.48Z" fill="#0B4301"/><path d="M26.87 35.63c-.22.34-.4.28-.54-.16a.76.76 0 0 1 .07-.65c.08-.14.07-.26-.03-.36a.64.64 0 0 0-.47-.2.62.62 0 0 1-.51-.22c.47-.35.98-.44 1.54-.27.21.07.28.2.2.41a3.9 3.9 0 0 0-.26 1.45Z" fill="#fff"/><path d="M25.39 34.04c.13.15.3.23.5.22.2 0 .35.07.48.2.1.1.11.22.03.36a.76.76 0 0 0-.08.65c.15.44.33.5.55.16.06 1.84.06 3.46-.02 4.87-.06 1.13-.45 1.26-1.18.38a.82.82 0 0 0-.52-.28c-.24-.04-.38-.19-.41-.43a.99.99 0 0 1 .16-.7c.11-.16.18-.35.2-.56l.29-4.87Z" fill="#72AB5F"/><path d="M30.77 34.68c.42.22.4.36-.08.41-.32.04-.61-.03-.89-.23-.15-.1-.2-.26-.15-.44a.39.39 0 0 1 .08-.16c.05-.06.12-.08.2-.04l.84.46Z" fill="#147005"/><path d="M23.55 36.9c-.43 1.37-.62 2.7-.55 4.02.01.17-.07.25-.25.23l-.16-.02c-.28-.03-.41-.18-.4-.46l.2-3.84c.01-.3.17-.45.48-.45h.29c.14 0 .25.05.33.16.08.11.1.24.06.37ZM30.77 40.6l.9-3.91c.07-.34.27-.46.6-.37l.28.07c.39.1.5.33.32.7a7.4 7.4 0 0 0-.63 3.74c.02.34-.14.56-.47.64a.9.9 0 0 1-.52-.02.68.68 0 0 1-.4-.33.69.69 0 0 1-.08-.51Z" fill="#0B4301"/><path d="M29.23 36.65c.44-.2.85-.18 1.23.06.29.19.27.33-.07.42-.43.12-.83.09-1.17-.1-.26-.13-.26-.26.01-.38ZM29.92 38.62c.1.05.17.13.2.24a.3.3 0 0 1-.08.3.84.84 0 0 1-.53.25.36.36 0 0 1-.33-.13.34.34 0 0 1-.08-.34c.1-.37.37-.48.82-.32ZM30.11 41.34c-.2.16-.41.19-.65.1-.5-.2-.51-.4-.01-.62a.6.6 0 0 1 .67.1c.17.14.17.28 0 .42Z" fill="#147005"/></svg>