<!-- by TradingView --><svg width="56" height="56" viewBox="0 0 56 56" xmlns="http://www.w3.org/2000/svg"><path fill="#F0F3FA" d="M0 0h56v56H0z"/><path d="m40 15.7-.7.36c-.62.36-1.1.6-1.44.74-.87.35-1.87.53-3.01.54-.98.01-2.02-.1-3.1-.32-1.83-.39-3.7-.83-5.62-1.31a19.76 19.76 0 0 0-3.84-.63c-1.4-.07-2.68.1-3.83.48-.78.26-1.6.77-2.46 1.55V14.2c0-.1.04-.18.11-.24a7.51 7.51 0 0 1 4.41-1.9c1.43-.15 3.07-.01 4.92.43 1.6.38 3.3.78 5.09 1.22 1.9.46 3.53.65 4.9.55a7.42 7.42 0 0 0 4.41-1.7c.1-.08.16-.06.16.08v3.06Z" fill="#E5571E"/><path d="M40 15.7v2.32c0 .3-.06.54-.17.69-.08.1-.26.25-.54.44a7.8 7.8 0 0 1-4.55 1.24 18.66 18.66 0 0 1-4.08-.52c-2.2-.56-4.21-1.03-6.01-1.42a12.5 12.5 0 0 0-4.5-.22 7.2 7.2 0 0 0-3.96 1.83c-.13.12-.2.1-.19-.08v-2.87c.86-.78 1.7-1.3 2.48-1.55a10.4 10.4 0 0 1 3.83-.48c1.11.05 2.4.26 3.83.63 1.91.48 3.78.92 5.6 1.3 1.1.24 2.13.34 3.1.33a8.32 8.32 0 0 0 3.01-.54c.34-.13.82-.38 1.44-.74.29-.16.56-.28.71-.36Z" fill="#D4B467"/><path d="M40 25.55a6.8 6.8 0 0 0-3.35-1.57c-1.74-.3-3.84-.17-6.3.4l-1.28.3c-1.56.36-2.74.62-3.53.77-1.32.24-2.53.4-3.63.45A9.14 9.14 0 0 1 16 24.15v-2.7c0-.15.05-.18.17-.08a8.09 8.09 0 0 0 4.64 1.74c1.43.1 3.13-.07 5.1-.52 1.94-.44 3.75-.83 5.43-1.17 1.67-.34 3.16-.45 4.45-.32 1.58.16 2.94.67 4.07 1.53.1.07.14.16.14.28v2.64Z" fill="#E5571E"/><path d="M40 25.55v2.55c0 .05-.02.08-.06.1a.1.1 0 0 1-.12-.01 7.82 7.82 0 0 0-3.53-1.45c-1.2-.19-2.49-.16-3.87.08-1.95.34-4.07.78-6.36 1.32-2.04.48-3.95.65-5.72.5a7.76 7.76 0 0 1-3.98-1.51.77.77 0 0 1-.3-.38 1.44 1.44 0 0 1-.04-.42l-.02-.27v-1.9a9.16 9.16 0 0 0 5.92 1.74c1.1-.06 2.3-.2 3.63-.45a86.82 86.82 0 0 0 4.8-1.07c2.47-.57 4.56-.7 6.3-.4 1.26.22 2.4.74 3.35 1.57Z" fill="#D4B467"/><path d="M40 32.28c-.83.58-1.54.97-2.1 1.16-.94.33-2.01.48-3.23.48-1.07 0-2.2-.14-3.4-.4l-5.9-1.24a17.2 17.2 0 0 0-4.3-.45 8.3 8.3 0 0 0-3.9 1.1l-1.17.71v-2.56c0-.11.07-.2.16-.28a7.93 7.93 0 0 1 4.8-1.73c1.13-.04 2.37.05 3.74.28.83.13 2.07.39 3.73.77 1.65.38 2.9.64 3.74.78 1.51.25 2.86.3 4.04.13 1.4-.2 2.61-.7 3.65-1.48a.08.08 0 0 1 .1-.01c.02.01.04.04.04.07v2.67Z" fill="#E5571E"/><path d="M40 32.28v2.59c-.02.15-.16.28-.33.4a8.42 8.42 0 0 1-5.33 1.42c-1.75-.1-3.6-.4-5.55-.89-2.2-.55-4.18-.92-5.95-1.12a10.22 10.22 0 0 0-3.54.19c-1.2.28-2.25.8-3.15 1.54-.03.02-.06.03-.1.01a.08.08 0 0 1-.05-.08v-2.7c.4-.25.8-.5 1.19-.72a8.25 8.25 0 0 1 3.89-1.1c1.21-.05 2.64.1 4.29.46l5.88 1.25c1.19.25 2.32.38 3.38.39 1.21 0 2.29-.15 3.22-.48.56-.19 1.32-.58 2.15-1.16Z" fill="#D4B467"/><path d="M20 40.1v2.84c0 .04.04.08.07.11.03.03.07.05.12.04h.3c.1-.01.16.04.16.15l.01.52c0 .11-.06.17-.18.18l-1.33.01a.14.14 0 0 1-.1-.04.13.13 0 0 1-.05-.1v-7.68c0-.05.03-.1.06-.13a.22.22 0 0 1 .14-.07l1.33-.14c.09 0 .13.03.13.12l-.01.65c0 .1-.05.14-.15.11a.7.7 0 0 0-.32 0c-.1.01-.18.07-.18.16v2.1c0 .07.06.12.14.14.11.03.23.02.34-.03.13-.05.19-.01.19.12l-.02.63c0 .1-.06.14-.16.14l-.26-.02c-.13 0-.23.06-.23.18ZM25.6 41.2c.09-1.52.17-3.04.23-4.56 0-.1.06-.14.17-.11l.7.17c.08.02.12.07.1.15l-.63 7.07c0 .05-.03.08-.09.08l-1.12-.02c-.05 0-.08-.03-.09-.08l-.63-7.59c0-.09.04-.12.14-.1l.75.16a.22.22 0 0 1 .18.21c-.02 1.55.06 3.09.23 4.62.02.2.04.2.05 0ZM38.61 40.56l.01 3.34c0 .06-.03.1-.09.1h-.84c-.06 0-.09-.04-.09-.1v-6.5c0-.04.02-.07.06-.08l.83-.24a.1.1 0 0 1 .08.02c.03.01.04.04.04.07v2.46c0 .05.02.08.07.1l.23.03a.1.1 0 0 0 .07-.02.08.08 0 0 0 .03-.07v-2.76c0-.03.02-.06.05-.08l.8-.42a.09.09 0 0 1 .1 0c.02.02.04.05.04.08v7.42c0 .06-.03.09-.1.09h-.8c-.06 0-.1-.05-.1-.1l.02-3.35c0-.07-.03-.1-.1-.1l-.22.02c-.06 0-.09.03-.09.09ZM17.25 43.2c.05 0 .09-.01.12-.05a.17.17 0 0 0 .04-.11v-2.12c0-.14-.06-.22-.2-.24l-.94-.15a.28.28 0 0 1-.17-.08.26.26 0 0 1-.07-.18l-.01-.44c-.03-.52-.03-.9 0-1.16.03-.43.13-.77.29-1.02.39-.62.93-1.02 1.63-1.23.1-.03.2-.01.3.05.08.05.13.13.14.24.07.62.08 1.3.05 2.03 0 .1-.06.16-.17.16-.25.01-.48.08-.7.21a.1.1 0 0 1-.1 0 .08.08 0 0 1-.05-.08v-1.47a.08.08 0 0 0-.03-.07.09.09 0 0 0-.08-.02l-.07.02c-.12.03-.18.1-.18.23v1.7c0 .08.03.13.11.16l.3.07c.3.08.5.15.63.22.21.12.32.28.33.49.04 1 .04 1.97-.02 2.94-.02.33-.2.53-.52.6-.38.1-.73.11-1.07.07-.46-.06-.78-.26-.81-.58v-1.85c.01-.14.08-.24.22-.29l.61-.22c.15-.05.23 0 .23.15v1.93c0 .03 0 .06.03.08a.1.1 0 0 0 .08.02h.08ZM22.37 43.94V40.6c0-.08.04-.12.12-.11h.13c.07.01.1.05.1.12v3.3c0 .06.03.09.09.08h.84c.07 0 .1-.04.1-.11V40.8c0-.27-.09-.5-.27-.66-.12-.1-.12-.2 0-.3a.79.79 0 0 0 .26-.57c.03-.8.03-1.62 0-2.47-.03-.54-.3-.84-.85-.9-.45-.06-.94-.1-1.45-.14-.03 0-.05 0-.07.02a.08.08 0 0 0-.04.07v8.02c0 .08.05.12.13.12h.84c.05 0 .07-.02.07-.06Zm.17-7.28c.1 0 .18.07.18.16v2.57c0 .09-.07.16-.17.17a.17.17 0 0 1-.18-.17v-2.57c0-.09.07-.16.17-.16ZM30.41 38.04l-.3-.08c-.05 0-.08-.04-.08-.09l-.02-.49a.1.1 0 0 1 .04-.08.11.11 0 0 1 .09-.02l1.8.28c.05.01.08.05.08.1l.02.44c0 .07-.03.1-.1.1l-.3.02c-.07 0-.1.03-.1.1v5.53c0 .07-.03.1-.1.1h-.85c-.07 0-.1-.04-.1-.1v-5.71c0-.06-.02-.09-.08-.1ZM33.44 41.07v2.13c0 .08.04.13.13.15.1.01.2 0 .32-.03.11-.04.18 0 .19.11l.03.36c.01.14-.06.21-.2.21h-1.35a.15.15 0 0 1-.11-.04.13.13 0 0 1-.04-.1v-6.02c0-.1.05-.15.15-.14l1.34.07c.12 0 .19.07.19.19v.31c0 .14-.06.2-.2.16a.79.79 0 0 0-.3-.03c-.1 0-.14.06-.15.14v1.61c0 .07.03.11.11.11h.36c.12 0 .18.06.18.18v.33c.01.1-.04.15-.14.15h-.35c-.1 0-.16.05-.16.15ZM35.82 43.36l.1-.05c.08-.03.11-.09.11-.16v-1.68c0-.05.01-.09.04-.12a.17.17 0 0 1 .12-.06l.71-.09c.1-.01.15.03.16.12l-.01.92c-.02.45-.02.79 0 1 .02.4-.22.64-.71.73-.35.06-.73.04-1.16-.05-.33-.07-.5-.28-.52-.63a64.58 64.58 0 0 1 0-4.91c.02-.37.22-.6.62-.67.5-.1.98-.13 1.42-.09.08.01.15.04.2.1a.3.3 0 0 1 .1.18c.08.52.1 1.08.05 1.68-.01.09-.06.13-.15.14l-.75.05a.1.1 0 0 1-.08-.03.1.1 0 0 1-.04-.08V38.4c0-.06-.04-.1-.1-.1h-.09c-.11 0-.17.05-.17.15v4.83c0 .03.02.06.05.08a.1.1 0 0 0 .1 0ZM29.7 43.24l-.02-5.4c0-.17-.05-.31-.15-.45a.78.78 0 0 0-.4-.27l-.86-.28a.77.77 0 0 0-.7.1.7.7 0 0 0-.33.62l.02 5.68c0 .2.07.38.22.53.16.14.34.22.55.22l.87.01c.22 0 .4-.07.56-.22a.72.72 0 0 0 .23-.54Zm-1.22-5.6c.11 0 .2.09.2.18l-.02 5.27c0 .1-.08.18-.18.18h-.01a.18.18 0 0 1-.19-.18l.01-5.27c0-.1.09-.17.19-.17Z"/></svg>