<!-- by TradingView --><svg width="56" height="56" viewBox="0 0 56 56" xmlns="http://www.w3.org/2000/svg"><path fill="#F0F3FA" d="M0 0h56v56H0z"/><path d="M10.6 27.14c.17-.67.8-1.14 1.51-1.14h10.3c.38 0 .66.34.57.7l-1.58 6.16c-.17.67-.8 1.14-1.51 1.14H9.59c-.38 0-.66-.34-.57-.7l1.58-6.16Z" fill="#F6821F"/><path d="M17.63 30.09c.16-.64.75-1.09 1.42-1.09h11.4c.36 0 .62.32.53.66l-1.61 7.25A1.45 1.45 0 0 1 27.95 38h-11.4a.54.54 0 0 1-.53-.66l1.61-7.25Z" fill="#018FCF"/><path d="M44.45 21.97H49L37.84 17 24 21.97h3.44l-2.66 10.3c-.09.37.18.73.56.73h15.09c.7 0 1.31-.5 1.48-1.19l2.54-9.84Z" fill="#F6821F"/></svg>