<!-- by TradingView --><svg width="18" height="18" viewBox="0 0 18 18" xmlns="http://www.w3.org/2000/svg"><path fill="#F0F3FA" d="M0 0h18v18H0z"/><path d="M8.98 5.5c.3 0 .59.13.8.35a1.23 1.23 0 0 1 0 1.69c-.21.22-.5.35-.8.35-.3 0-.58-.13-.79-.35a1.23 1.23 0 0 1-.33-.84c0-.32.12-.62.33-.85.21-.22.5-.34.8-.34Z" fill="#ED1C24"/><path d="M8.4 5.12c.86-.35 1.8.09 2.13 1 0 0 0 .02.02.02l.02.01a8.1 8.1 0 0 1 2.78.9c.76.43 1.5 1.12 1.63 2.05.15 1.09-.6 1.92-1.4 2.45l-.01.02v.02l.12.22v.04c-.56.37-1.25.63-1.89.8-1.6.4-3.22.46-4.84.17a7.96 7.96 0 0 1-2.68-1l.01-.02.15-.2a.04.04 0 0 0 0-.04v-.01c-.42-.26-.78-.6-1.07-1-.64-.96-.4-2.04.37-2.81a6.54 6.54 0 0 1 3.7-1.6.11.11 0 0 0 .04-.05c.16-.44.5-.8.92-.97Zm1.25.49c-.39-.25-.8-.28-1.22-.07-.35.2-.57.52-.66.93l-.01.02-.02.01a6.78 6.78 0 0 0-3.65 1.4c-.37.36-.66.72-.76 1.26-.05.3 0 .62.15.97a2.92 2.92 0 0 0 .99 1.04l.01-.01.01-.02-.01-.02a2.5 2.5 0 0 1-1-1.17c-.33-.89.2-1.64.82-2.14a5.76 5.76 0 0 1 2.49-1.09 8.56 8.56 0 0 1 .96-.14v.32l-.02.01-.5.08-.58.14c-.86.23-2.32.8-2.32 1.95 0 1.67 3.06 2.23 4.3 2.22 1.53.06 4.15-.12 4.94-1.76.45-.93-.51-1.7-1.2-2.02a8.14 8.14 0 0 0-1.8-.59l-.29-.02h-.02l-.01-.03V6.6a.03.03 0 0 1 0-.02h.03c1.01 0 2.17.45 3.04.96.47.27.95.72 1.17 1.25.42.98-.23 1.83-.96 2.33l-.01.02v.02l.02.01h.02c.74-.5 1.43-1.43 1-2.41a3.44 3.44 0 0 0-1.85-1.62 8.32 8.32 0 0 0-2.46-.65c-.01 0-.02 0-.02-.02a.66.66 0 0 1-.04-.12c-.07-.3-.24-.55-.54-.74Z" fill="#0A0808"/><path d="M4.07 7.88c-.37.36-.65.72-.75 1.25-.06.3 0 .63.15.97a.9.9 0 0 1-.24-.63c0-.69.32-1.19.8-1.62h.04v.03Z" fill="#0A0808"/><path d="m7.77 7.05.01.02c.19.57.63.94 1.2.94s1.02-.37 1.2-.94l.02-.02h.02c.78.08 1.5.3 2.18.62.62.32 1.3.9 1.05 1.72-.05.17-.24.43-.36.54-.33.3-.71.52-1.14.68-.95.37-1.96.51-2.97.51-1 0-2.02-.14-2.96-.5-.43-.17-.81-.4-1.14-.7-.13-.1-.31-.36-.36-.53-.25-.82.42-1.4 1.05-1.72a6.48 6.48 0 0 1 2.2-.62Z" fill="#ED1C24"/><path d="M6 10V8.5h6V10H6Z" fill="#F0F3FA" fill-opacity=".6"/></svg>