<!-- by TradingView --><svg width="18" height="18" viewBox="0 0 18 18" xmlns="http://www.w3.org/2000/svg"><path fill="#F0F3FA" d="M0 0h18v18H0z"/><path d="m9.32 3 .36.05a5.82 5.82 0 0 1 3.03 1.23A5.92 5.92 0 0 1 15 8.84v.3a6.12 6.12 0 0 1-1.73 4.08A5.91 5.91 0 0 1 9.2 15h-.4a6.18 6.18 0 0 1-3.59-1.34 5.91 5.91 0 0 1-2.04-3.24A8.28 8.28 0 0 1 3 9.35V9a6.04 6.04 0 0 1 3.88-5.63c.35-.12.72-.22 1.14-.29L8.68 3h.64Z" fill="#D8D9DB"/><path d="m9.78 4.06.03.05h.02l.06-.49c.01-.05.04-.08.1-.07l.14.02a.09.09 0 0 1 .07.1l-.13 1.08c0 .02-.01.04-.04.04-.14.04-.24 0-.3-.13a4.68 4.68 0 0 0-.28-.5h-.01l-.06.49c0 .05-.04.08-.1.07l-.14-.02a.09.09 0 0 1-.07-.1l.13-1.08c0-.02.02-.04.04-.04.14-.04.24 0 .3.13.07.16.15.3.24.45ZM8.43 4.13v.11c0 .02-.01.04-.04.04l-.3.05c-.05 0-.07.03-.06.07v.03c.01.05.03.06.07.06l.46-.07c.03 0 .04 0 .05.03l.03.23c0 .02 0 .04-.04.05l-.76.11c-.03 0-.04 0-.05-.03a13.96 13.96 0 0 1-.18-1.14c0-.03.01-.04.04-.05l.76-.12c.03 0 .05.01.05.04l.04.23c0 .02 0 .04-.03.04L8 3.88c-.04.01-.06.03-.05.07V4c.01.04.03.06.08.05L8.35 4c.02 0 .04 0 .05.03l.03.1ZM10.96 4.5a.27.27 0 0 0-.04.11c0 .27.14.4.41.37.04 0 .07.02.08.05l.07.17v.05a.06.06 0 0 1-.04.03c-.38.07-.63-.06-.78-.36a.6.6 0 0 1 .02-.57.6.6 0 0 1 .45-.33c.34-.06.59.08.75.42v.06a.06.06 0 0 1-.05.03l-.17.04c-.04 0-.07 0-.1-.04-.13-.23-.3-.28-.53-.13a.27.27 0 0 0-.07.1ZM7.3 4.78l.08.15c.02.04 0 .07-.03.1l-.62.31c-.04.02-.07.01-.1-.03l-.5-.98c-.02-.04 0-.07.03-.1l.16-.07c.04-.03.08-.02.1.03l.35.7c.02.04.06.05.1.03l.34-.17c.04-.03.07-.02.09.03ZM12.7 4.9l-.15-.11a.07.07 0 0 0-.09 0l-.73.84a.07.07 0 0 0 .01.1l.14.11c.02.03.07.03.1 0L12.7 5a.07.07 0 0 0 0-.1ZM5.86 5.79l-.1.1a.05.05 0 0 0-.02.06l.04.1c.02.05.02.08-.02.11l-.13.14a.05.05 0 0 1-.05.01.05.05 0 0 1-.04-.03l-.47-1.06a.1.1 0 0 1 .01-.11l.08-.07a.94.94 0 0 1 .07-.07.1.1 0 0 1 .11 0l1.03.53c.02.01.03.03.03.05 0 .02 0 .03-.02.05l-.14.12a.09.09 0 0 1-.11.01l-.1-.05a.05.05 0 0 0-.07 0l-.1.1Z" fill="#343335"/><path d="M7.08 12.33a.56.56 0 0 1-.35-.1 1.25 1.25 0 0 1-.26-.33.14.14 0 0 0-.05-.04l-.25-.14-.02-.01a.7.7 0 0 1-.17-.26.58.58 0 0 0-.1-.18 1.4 1.4 0 0 0-.18-.17.77.77 0 0 1-.14-.35 2.84 2.84 0 0 0-.04-.15 2.49 2.49 0 0 0-.11-.17.76.76 0 0 1-.14-.52c0-.07-.01-.13-.04-.2a.75.75 0 0 1-.08-.54c.03-.1.02-.25 0-.43a.69.69 0 0 1 .09-.48.26.26 0 0 0 .03-.17.63.63 0 0 1 .16-.55c.06-.07.1-.15.11-.26a.62.62 0 0 1 .1-.3c.05-.06.13-.14.24-.22a6.26 6.26 0 0 0 .08-.19c.07-.19.18-.31.34-.38a1 1 0 0 0 .13-.05 2.98 2.98 0 0 0 .09-.12c.06-.11.11-.18.16-.22a.7.7 0 0 1 .34-.13c.04 0 .07-.02.1-.05l.17-.18a.75.75 0 0 1 .47-.13h.04L8 5.2c.17-.1.35-.12.53-.07.06.02.11.01.16-.02.15-.1.36-.11.6-.01.08.03.15.03.23 0 .16-.04.36.02.62.18.02.02.05.03.08.03.15.01.26.03.32.05.1.03.18.1.26.19.06.07.16.12.3.14.1.02.17.07.25.15.08.07.13.16.18.25a.1.1 0 0 0 .05.05l.17.07c.11.09.2.2.28.37l.06.12c0 .03.03.05.05.06.2.15.31.35.33.59l.03.08a14.05 14.05 0 0 0 .19.32c.03.09.05.2.04.3 0 .1.01.18.05.26a.85.85 0 0 1 .07.54.7.7 0 0 0 0 .3c.04.22 0 .42-.1.62l-.02.04v.12c.01.06.02.1.01.13a.78.78 0 0 1-.2.44.2.2 0 0 0-.05.08 2 2 0 0 0-.06.26.9.9 0 0 1-.1.23l-.22.2a1.72 1.72 0 0 0-.1.2.99.99 0 0 1-.1.17.49.49 0 0 1-.22.16.67.67 0 0 0-.13.08.45.45 0 0 0-.09.12.7.7 0 0 1-.2.24.68.68 0 0 1-.24.08l-.07.01a.21.21 0 0 0-.09.05l-.16.17c-.07.08-.22.13-.46.14h-.03a.2.2 0 0 0-.1.04l-.02.02c-.08.05-.14.09-.18.1a.78.78 0 0 1-.22.05l-.26-.03a.2.2 0 0 0-.1.02.69.69 0 0 1-.57.03.88.88 0 0 0-.33-.04.83.83 0 0 1-.46-.1c-.1-.06-.25-.1-.45-.13a.49.49 0 0 1-.4-.3.05.05 0 0 0-.05-.02ZM5.67 5.59a.25.25 0 0 1-.06.04l-.04-.01c-.08-.16-.11-.24-.1-.25 0-.01.09.03.24.12.01.01.02.02 0 .04a.27.27 0 0 1-.04.06Z" fill="#EEF1F8"/><path d="M8.81 5.29c.15-.1.3-.08.48.05.1.01.22 0 .37-.04.08-.02.19.02.32.13a1 1 0 0 0 .06.05c.06.04.15.05.27.05l.18.01c.06.02.1.06.15.11.08.12.15.2.22.2l.1.03c.11.01.21.06.28.12a.1.1 0 0 1 .03.05c.06.17.17.28.33.33a.3.3 0 0 1 .18.13c.02.03.05.1.07.18l.08.19.08.06c.1.06.17.11.2.16.03.06.05.14.04.26l.05.18.03.04.14.15c.06.06.08.13.07.22l-.01.05a.7.7 0 0 0 0 .25c0 .03.03.09.07.16a.7.7 0 0 1 .09.2c0 .05 0 .12-.04.21l-.02.06a.55.55 0 0 0 .05.4.2.2 0 0 1-.01.2l-.12.21a.21.21 0 0 0-.02.07.58.58 0 0 0 0 .27c.03.1-.02.2-.14.34l-.05.06a.35.35 0 0 0-.05.07.66.66 0 0 0-.04.22.34.34 0 0 1-.19.32c-.13.07-.2.2-.24.38a.26.26 0 0 1-.15.19l-.23.1a.1.1 0 0 0-.05.04l-.17.3a.15.15 0 0 1-.11.07l-.22.03h-.02v-.03c.23-.32.37-.7.4-1.15.03-.39-.02-.8-.15-1.22 0-.02-.01-.03-.03-.02-.02 0-.03.01-.02.03.1.51.06 1-.1 1.44-.18.46-.47.83-.9 1.1-.22.15-.49.25-.8.29a2.08 2.08 0 0 1-1.92-.82l-.09-.13-.12-.2a2.25 2.25 0 0 1-.23-.7c-.05-.32-.05-.65.03-.98 0-.02 0-.04-.02-.04-.03-.02-.04-.01-.04.01-.17.57-.2 1.11-.1 1.62.05.24.16.48.33.73.02.02.02.04 0 .06-.01.02-.03.02-.05.02l-.15-.05a.25.25 0 0 1-.17-.14c-.1-.2-.22-.3-.37-.34-.03 0-.07-.04-.13-.1a.58.58 0 0 1-.1-.2.7.7 0 0 0-.05-.14.56.56 0 0 0-.15-.14.53.53 0 0 1-.14-.12.48.48 0 0 1-.06-.25c0-.1-.05-.2-.14-.32a.75.75 0 0 1-.1-.16.37.37 0 0 1-.03-.21c.03-.17 0-.31-.1-.44a.26.26 0 0 1-.05-.17l.03-.18c.03-.1.04-.18.03-.23 0-.07-.02-.15-.05-.25a.26.26 0 0 1 0-.16.97.97 0 0 1 .08-.16c.07-.13.1-.27.05-.42-.03-.1.02-.2.13-.31.11-.1.16-.24.16-.42 0-.1.06-.2.2-.28.13-.09.2-.21.23-.39 0-.03.04-.07.1-.14a.12.12 0 0 1 .04-.03l.05-.02.22-.12c.06-.05.1-.13.14-.22.01-.05.05-.09.12-.12a.56.56 0 0 1 .19-.05.39.39 0 0 0 .28-.17.5.5 0 0 1 .17-.16.3.3 0 0 1 .22-.01c.13 0 .26-.06.39-.18a.26.26 0 0 1 .14-.06c.07 0 .13 0 .18.02.14.05.27.04.39-.03Zm.88 2.03a2.1 2.1 0 0 0-.36.5c-.16.36-.2.73-.12 1.13.06.33.14.66.24.99.05.18.09.37.1.57.03.37-.09.68-.36.93.3-.04.49-.23.55-.57.03-.2.04-.39.02-.56L9.6 9c-.01-.1 0-.19.04-.26a.1.1 0 0 1 .06-.06l.09.01c.14.09.33.4.56.94.4.97.13 1.83-.82 2.6 0 0-.01 0 0 0v.01a1.86 1.86 0 0 0 1.2-1.14c.17-.5.13-1.06-.12-1.68-.09-.2-.23-.5-.43-.89a5.2 5.2 0 0 1-.47-1.22H9.7Zm-1.42 0c-.05.28-.14.56-.27.82l-.13.29c-.2.37-.37.74-.52 1.13-.15.38-.2.76-.17 1.14.02.24.1.5.24.74.24.38.6.65 1.04.81h.02v-.02a2.8 2.8 0 0 1-.57-.55c-.18-.23-.3-.46-.37-.69-.1-.35-.1-.72.02-1.1a4.1 4.1 0 0 1 .6-1.15c.07-.06.13-.06.18-.01.05.04.07.1.07.18l-.17 1.4c-.02.2 0 .42.05.64.07.28.24.45.51.5h.01v-.01a1.07 1.07 0 0 1-.36-.99c.02-.17.08-.45.18-.8.12-.47.2-.81.2-1.04.01-.5-.17-.94-.54-1.3l-.02.01Zm.62-1.18a.5.5 0 0 0-.28.24c-.1.18-.1.42.01.72.07.18.19.4.36.67 0 .02.02.02.04 0a3.82 3.82 0 0 0 .34-.63c.17-.37.13-.69-.11-.93-.12-.1-.24-.12-.36-.07Z" fill="url(#a)"/><path d="m13.57 5.91.06.09c.01.04 0 .08-.02.11l-.7.92a.05.05 0 0 1-.06.02.05.05 0 0 1-.04-.03l-.1-.16a.09.09 0 0 1 0-.1l.08-.1a.05.05 0 0 0 0-.06 44.76 44.76 0 0 0-.16-.25.05.05 0 0 0-.06-.02l-.11.03a.09.09 0 0 1-.1-.04l-.11-.16a.05.05 0 0 1 0-.05c0-.02.01-.03.03-.04l1.12-.27a.1.1 0 0 1 .11.03l.06.08ZM5.26 6.93a.92.92 0 0 1-.04.08.1.1 0 0 1-.1.04l-1.13-.18a.07.07 0 0 1-.05-.04.07.07 0 0 1 0-.07l.08-.14c.03-.05.07-.07.12-.05a11.94 11.94 0 0 0 .64.09l-.44-.46c-.04-.04-.05-.08-.02-.13l.07-.15a.07.07 0 0 1 .05-.04c.03 0 .05 0 .07.02l.77.84a.1.1 0 0 1 .02.1c0 .03-.02.06-.04.09Z" fill="#343335"/><path d="M12.94 6.33a.3.3 0 0 1-.03-.07c0-.01 0-.03.02-.03.17-.06.26-.08.27-.07 0 .01-.05.09-.17.23H13a.28.28 0 0 1-.05-.06Z" fill="#D8D9DB"/><path d="m4.37 8.84-.08-.07a.22.22 0 0 0-.3.01l-.07.07a.22.22 0 0 0 .01.3l.08.08c.09.08.23.07.3-.02l.07-.06a.22.22 0 0 0-.01-.31ZM13.85 9.28a.28.28 0 1 0 0-.56.28.28 0 0 0 0 .56Z" fill="#EEF1F8"/><path d="M7.25 13.66c-.02.07-.03.12-.02.15.07.22.21.29.44.21.03 0 .05 0 .06.03l.04.1c.02.03 0 .05-.03.06-.29.08-.5.01-.65-.2a.46.46 0 0 1-.05-.42.46.46 0 0 1 .28-.31c.24-.1.45-.03.65.2.02.02.02.05-.01.07l-.1.06c-.02.01-.04 0-.06-.02-.14-.19-.3-.21-.48-.07-.03.02-.05.07-.07.14ZM10.77 13.67c.16.04.23.16.18.33a.1.1 0 0 1-.03.05c-.08.09-.27.16-.55.23l-.1.02c-.03 0-.04 0-.05-.02L10 13.4c0-.02 0-.04.03-.05l.49-.12c.1-.01.2.02.24.1.06.1.06.18 0 .28-.01.02 0 .04.02.05ZM8.36 13.48l-.09.7c0 .02 0 .03.03.04l.43.05c.02 0 .03.02.03.04l-.02.12c0 .02-.01.03-.04.03l-.62-.08c-.03 0-.04-.02-.04-.04l.11-.88c0-.03.02-.04.04-.04l.13.02c.03 0 .04.02.04.04ZM9.45 14.44c-.27.02-.42-.1-.44-.36l-.04-.55c0-.02 0-.03.03-.03l.14-.02c.02 0 .04 0 .04.03l.03.5c.01.18.09.26.23.25.14-.01.2-.1.2-.28l-.04-.5c0-.02 0-.04.03-.04h.14c.02 0 .03.02.04.04l.03.54c.02.26-.11.4-.39.42Z" fill="#20211E"/><path d="M10.23 13.53c0-.03 0-.04.03-.05l.16-.04a.24.24 0 0 1 .12 0c.04.01.06.03.07.06v.02c.01.02 0 .05-.03.08a.24.24 0 0 1-.11.06l-.16.04c-.02 0-.04 0-.05-.03l-.03-.14ZM10.32 13.9c0-.02 0-.04.03-.04l.2-.06c.05 0 .1-.01.14 0 .04.01.06.03.07.06v.02c.01.03 0 .06-.03.08a.26.26 0 0 1-.12.07l-.2.05c-.02 0-.04 0-.04-.02l-.05-.16Z" fill="#D8D9DB"/><defs><linearGradient id="a" x1="5.93" y1="8.49" x2="12.11" y2="8.49" gradientUnits="userSpaceOnUse"><stop stop-color="#8F4884"/><stop offset="1" stop-color="#D22A6C"/></linearGradient></defs></svg>