<!-- by TradingView --><svg width="56" height="56" viewBox="0 0 56 56" xmlns="http://www.w3.org/2000/svg"><path fill="#F0F3FA" d="M0 0h56v56H0z"/><path d="M24.98 20.3c1.7 0 3.09-1.41 3.09-3.15A3.12 3.12 0 0 0 24.98 14a3.12 3.12 0 0 0-3.08 3.15 3.12 3.12 0 0 0 3.08 3.15ZM36.99 20.3c1.7 0 3.08-1.41 3.08-3.15A3.12 3.12 0 0 0 36.99 14c-1.7 0-3.09 1.41-3.09 3.15A3.12 3.12 0 0 0 37 20.3ZM22 25.22v6.05a3.26 3.26 0 0 1-1.93 2.38c-.7.3-1.57.26-2.28-.08A3.22 3.22 0 0 1 16 31.09v-8.26a7 7 0 0 1 .13-1.8 3.1 3.1 0 0 1 2.6-2.18 3.05 3.05 0 0 1 3.17 2.3c.07.24.1.7.1 1.39v2.68ZM34 25.22v5.94a3.13 3.13 0 0 1-1.7 2.38c-.8.4-1.77.39-2.58-.01-1-.49-1.57-1.35-1.72-2.6.01 0 .02-.03 0-.08v-9.04c0-.43.13-.88.38-1.37a2.94 2.94 0 0 1 4.41-.99c.51.4.87.9 1.07 1.51.1.3.14.86.14 1.7v2.56ZM40 31.26V22.23c0-.58.05-1.01.14-1.29a3.07 3.07 0 0 1 2.13-2c1.04-.26 1.95 0 2.74.78.63.63.98 1.42.99 2.37v8.72a3.1 3.1 0 0 1-.98 2.14 2.83 2.83 0 0 1-4.04.09 3.33 3.33 0 0 1-.98-1.78Z" fill="#FDBD1A"/><path d="M16 25.23v8.72c0 .73-.04 1.23-.13 1.51-.23.71-.63 1.26-1.22 1.66-2.02 1.35-4.66-.15-4.65-2.6V26.4c0-.84.05-1.42.16-1.73a3 3 0 0 1 3.65-1.93c1.16.34 1.89 1.17 2.19 2.49ZM28 25.29v8.93c0 .59-.06 1.03-.16 1.31a2.97 2.97 0 0 1-5 1.15A2.94 2.94 0 0 1 22 34.6V25.22c.28-1.33 1.04-2.17 2.24-2.51a2.98 2.98 0 0 1 2.3.34A3.17 3.17 0 0 1 28 25.3ZM40 25.22v8.75c0 .73-.04 1.24-.14 1.53a2.97 2.97 0 0 1-4.93 1.27 3 3 0 0 1-.8-1.34c-.09-.28-.13-.8-.13-1.56V25.3c.14-.8.48-1.42 1-1.9a2.95 2.95 0 0 1 4.02.01c.49.44.82 1.05.98 1.81ZM18.99 42c1.7 0 3.08-1.41 3.08-3.15A3.12 3.12 0 0 0 19 35.7a3.12 3.12 0 0 0-3.08 3.15A3.12 3.12 0 0 0 18.99 42ZM31 42c1.7 0 3.07-1.41 3.07-3.15A3.12 3.12 0 0 0 31 35.7c-1.7 0-3.08 1.41-3.08 3.15A3.12 3.12 0 0 0 30.99 42Z" fill="#4A3AFF"/></svg>