<!-- by TradingView --><svg width="56" height="56" viewBox="0 0 56 56" xmlns="http://www.w3.org/2000/svg"><path fill="#A70E20" d="M0 0h56v56H0z"/><path d="M15.46 20.78a1.79 1.79 0 0 1-2.45 1.65 1.77 1.77 0 0 1-1.1-1.65A1.78 1.78 0 0 1 13.69 19a1.77 1.77 0 0 1 1.77 1.78Zm-.38 0a1.4 1.4 0 0 0-1.4-1.4 1.39 1.39 0 0 0-1.38 1.4 1.4 1.4 0 0 0 1.39 1.4 1.39 1.39 0 0 0 1.39-1.4Z" fill="#fff"/><path d="M13.69 19.56a2.42 2.42 0 0 1 .13.02.03.03 0 0 1 0 .02l-.07.23v.03a.03.03 0 0 0 .04 0l.25-.09h.03v.28h-.02c0 .01 0 .01 0 0l-.27-.07a.03.03 0 0 0-.04.02V20a1.16 1.16 0 0 0 .1.37h.02c.13-.1.26-.13.41-.1.2.06.37.27.34.5-.01.1-.05.24-.12.4a10.04 10.04 0 0 1-.4.8.11.11 0 0 1-.07.02h-.67a.11.11 0 0 1-.1-.06c-.14-.27-.27-.53-.37-.77-.06-.15-.1-.29-.12-.4a.45.45 0 0 1 .35-.48c.14-.04.28 0 .4.09h.03l.01-.01a1.15 1.15 0 0 0 .09-.37l-.01-.02h-.04l-.26.08h-.01a.03.03 0 0 1-.02-.03v-.25a.03.03 0 0 1 .03 0l.26.09h.01a.03.03 0 0 0 .03-.02v-.02l-.08-.23v-.01a.02.02 0 0 1 .03-.02h.1Zm0 1.08c.01 0 .03-.02.04-.05a.23.23 0 0 0 .03-.18c-.03-.12-.06-.17-.07-.17-.02 0-.04.05-.07.17-.02.06 0 .12.03.18l.04.05Zm-.45.86c.3-.16.43-.4.38-.75-.04-.3-.3-.43-.57-.28-.16.08-.2.24-.12.47a3.06 3.06 0 0 0 .28.56h.03Zm.9 0a.04.04 0 0 0 .04-.02c.11-.18.2-.36.27-.54.08-.23.04-.39-.12-.47-.26-.15-.53-.01-.57.28-.05.35.07.6.38.75Z" fill="#FBC51C"/><path d="M34.72 32.92a.03.03 0 0 1 0 .03h-.02l-.03.05h-1.32c-.12-.28-.25-.69-.42-1.22-.17-.56-.34-1-.54-1.57a.05.05 0 0 0-.04-.03 1314.25 1314.25 0 0 1-4.48.02 13.56 13.56 0 0 1-.85 2.55c-.06.16-.05.24-.25.25h-.91l-.25-.03a.1.1 0 0 1-.07-.09.5.5 0 0 1 .05-.22l2.04-4.96c.27-.68.52-1.23.78-1.9.17-.45.56-1.36.75-1.88.2-.58.5-1.02 1.19-.9.45.08.6.47.76.86.56 1.38.92 2.33 1.38 3.4.32.74.49 1.2.76 1.82.25.57.48 1.12.68 1.64.23.6.44 1.1.74 1.84v.04l.05.3Zm-6.43-3.81H32a.03.03 0 0 0 .02-.05c-.5-1.28-.8-2.05-.92-2.32-.3-.72-.52-1.41-.82-2.2a.6.6 0 0 0-.1-.16.02.02 0 0 0-.02 0c-.13.25-.37.81-.7 1.7a146.43 146.43 0 0 1-1.18 3.01l.01.01h.01ZM51.97 33h-1.23l-.08-.04-.01-.01c-.12-.3-.23-.6-.32-.89a652.86 652.86 0 0 1-.62-1.87.07.07 0 0 0-.04-.02h-4.42a.1.1 0 0 0-.1.07c-.18.58-.54 1.75-.86 2.62-.04.1-.1.14-.19.14h-.98c-.13 0-.35-.03-.26-.24.24-.62.44-1.12.6-1.49.45-1.1.88-2.23 1.31-3.2.28-.62.52-1.2.72-1.72l1.05-2.62c.21-.51.5-.8 1.1-.71.45.07.64.48.79.88.17.45.26.7.3.77.2.47.32.83.53 1.32a604.44 604.44 0 0 0 2.02 4.88l.48 1.2c.12.27.18.6.24.86v.02a.03.03 0 0 1-.02.02l-.01.03Zm-6.4-3.9v.01h3.72a.03.03 0 0 0 .02 0 .03.03 0 0 0 0-.04l-.12-.35a78.97 78.97 0 0 1-1.57-4.02 1.32 1.32 0 0 0-.18-.31h-.01a.03.03 0 0 0-.02.01c-.18.42-.36.87-.53 1.34a62.3 62.3 0 0 1-1.3 3.33l-.01.03ZM24.66 32.94l-.01.06H23.3c-.07 0-.11-.06-.14-.15a41.18 41.18 0 0 1-.89-2.66l-.03-.01h-4.47a.06.06 0 0 0-.06.04l-.41 1.28a19.34 19.34 0 0 1-.53 1.47l-.01.03H15.4c-.01-.12.02-.32.05-.4.17-.38.38-.91.64-1.58.15-.4.28-.7.37-.9.2-.42.32-.82.5-1.21a314.82 314.82 0 0 0 2.26-5.45c.15-.27.36-.42.62-.45.3-.03.58 0 .78.24.16.2.26.39.35.64.15.43.32.8.5 1.23.45 1.19.89 2.24 1.29 3.16.37.85.65 1.53.85 2.03.24.64.52 1.31.82 2.04l.22.59Zm-6.51-3.88a.04.04 0 0 0 .02.04H21.83a.04.04 0 0 0 .04-.03v-.01l-1.83-4.68a.04.04 0 0 0-.03-.03h-.02l-.02.03-1.82 4.68ZM5.36 27.06a.03.03 0 0 0 .04.03c.28-.08.53-.27.77-.45.18-.15.42-.37.73-.67.64-.65 1.26-1.48 1.91-2.35.14-.18.28-.34.41-.47a.5.5 0 0 1 .33-.13l.64-.02c.12 0 .22 0 .3.02.43.1-.12.67-.24.8a311.28 311.28 0 0 0-1.88 1.99l-.85.8a22.55 22.55 0 0 1-.65.53v.03c.03.05.07.1.14.16l.27.24.52.5c.2.18.36.35.52.52.32.35.74.77 1.04 1.15.55.67 1.06 1.42 1.55 2.23a5.12 5.12 0 0 1 .42.94.07.07 0 0 1-.05.04c-.41.06-.82.07-1.23 0-.12 0-.2-.07-.28-.19-.43-.68-.8-1.34-1.25-1.92-.43-.56-.99-1.15-1.43-1.66a6.8 6.8 0 0 0-.86-.85c-.23-.2-.53-.24-.83-.28a.04.04 0 0 0-.04.02v.02a135.14 135.14 0 0 1-.06 4.9.07.07 0 0 1-.05.01H4.07l-.02-.01-.05-.05V23.3c0-.06.03-.12.05-.2a.13.13 0 0 1 .1-.08 48.48 48.48 0 0 0 .97-.02c.15 0 .23.08.23.24l.01 3.82ZM41.05 24.33a.98.98 0 0 1-.4-.02 6.5 6.5 0 0 0-2.8-.12c-.16.03-.33.11-.51.22-.47.3-.55.72-.46 1.23.06.33.4.65.66.81.19.12.4.24.64.34l1.41.63c.51.23 1.03.48 1.45.82.61.5.91 1.15.91 1.96 0 .77-.24 1.52-.85 2.04-.52.43-1.11.67-1.78.72a12.25 12.25 0 0 1-3.46-.24c-.33-.11-.3-.45-.2-.72.14-.4.57-.39.91-.32.91.17 1.96.3 2.9.13.54-.09 1.02-.36 1.18-.92.15-.57.02-1.05-.4-1.45-.1-.1-.26-.22-.48-.35-.68-.42-1.34-.7-2.22-1.07a3.38 3.38 0 0 1-1.46-1.06c-.4-.52-.5-1.26-.39-1.9.13-.74.52-1.29 1.17-1.64.23-.13.54-.23.94-.32.35-.07.78-.05 1.17-.09h.46c.54.01 1.07.07 1.6.16.09.02.16.07.22.14.08.12.05.43.03.61-.02.18-.08.3-.18.38a.14.14 0 0 1-.06.03ZM13.15 33a.15.15 0 0 1-.1-.04.15.15 0 0 1-.05-.1v-9.51c0-.1.03-.18.07-.25.05-.06.1-.1.17-.1h.9c.06 0 .12.04.16.1.05.07.07.16.07.25v9.5c0 .04-.01.08-.04.1a.15.15 0 0 1-.1.05h-1.08Z" fill="#fff"/></svg>