<!-- by TradingView --><svg width="56" height="56" viewBox="0 0 56 56" xmlns="http://www.w3.org/2000/svg"><path fill="#F0F3FA" d="M0 0h56v56H0z"/><path d="m30.23 18.97-1.31 5.87c-.1.46-.16.46-.2-.01-.06-1.2 0-3.9.17-8.13.07-1.46 1-4.26 2.85-4.37.81-.05 1.21.74 1.21 1.4 0 .4-.14.8-.3 1.26-.08.25-.18.53-.26.83-.06.22.1.45.32.47.32.04.55-.13.68-.51l.06-.17c.3-.88.56-1.63.55-2.24 0-.19-.02-.36-.05-.53-.37-1.83-1.9-2.31-3.4-1.37-3.23 2.02-3.14 5.96-3.06 9.4.02.7.04 1.4.02 2.04-.02.86-.11.87-.28.02l-.28-1.37c-.24-1.16-.44-2.1-.6-3.16a.48.48 0 0 0-.15-.28.46.46 0 0 0-.3-.12h-7.4a.47.47 0 0 0-.46.37l-3.03 14.14c-.05.25.15.49.4.49h2.52c.4 0 .78.37.89.76.06.25.2.5.43.73.1.1.23.16.38.16h4.87c.2 0 .38-.06.54-.2a2 2 0 0 0 .48-.65c.21-.45.67-.79 1.18-.8.37 0 .47.16.3.5l-2.35 4.47a.44.44 0 0 1-.63.16c-2.44-1.7-7.14-2.07-7.02 1.87.03 1.03.82 1.71 1.8 2.06 1.82.65 3.5.33 5.05-.95.4-.33.7-.55.9-.66.15-.08.3-.09.45-.02 4.5 2.16 9.45 4.3 13.9.4 1.37-1.2 1.91-2.82 1.6-4.86-.14-1-.55-1.72-1.22-2.15-.95-.6-1.23-.38-.84.68C40.04 38.2 37.5 41 34 41c-2.49 0-5.56-.68-8.16-1.73a.31.31 0 0 1-.16-.44c1.35-2.64 2.23-4.32 2.64-5.05.27-.46.58-.73.93-.8.55-.11 1 .06 1.35.53.15.2.27.4.38.58.3.52.54.91 1.27.91h4.5a.5.5 0 0 0 .4-.25l.56-1.47c.08-.14.2-.24.36-.28h2.48c.27.03.5-.25.45-.52l-2.46-14.06a.5.5 0 0 0-.17-.3.5.5 0 0 0-.32-.12H31.4a1.21 1.21 0 0 0-1.18.97Zm-7.1 20.37c.03.59-.86 1.1-2 1.15-1.13.06-2.07-.38-2.1-.96-.03-.58.87-1.1 2-1.15 1.14-.05 2.08.38 2.1.96Z" fill="#DD2C80"/><path d="m18 31.72 2.33-11.54c.01-.05.04-.1.07-.13a.2.2 0 0 1 .14-.05h3.33c.05 0 .1.02.14.05.04.04.07.08.07.14L26 31.73c.02.13-.07.27-.2.27h-7.58c-.15 0-.24-.15-.22-.28ZM30 31.72l2.33-11.54c.01-.05.04-.1.07-.13a.2.2 0 0 1 .14-.05h3.33c.05 0 .1.02.14.05.04.04.07.08.07.14L38 31.73c.02.13-.07.27-.2.27h-7.58c-.15 0-.24-.15-.22-.28Z" fill="#EAAAD0"/></svg>