<!-- by TradingView --><svg width="18" height="18" viewBox="0 0 18 18" xmlns="http://www.w3.org/2000/svg"><path fill="#F0F3FA" d="M0 0h18v18H0z"/><path d="M3.55 8.85c.33-1.88 2.17-2.12 3.05-2-.04-.4-1.53-.17-2.48.09-.94.25-1.1 2.5-1.1 2.69 0 .15.08.6.12.8l.32-.14c.09-.2.23-.74.09-1.44Z" fill="#083350"/><path d="M14.3 9.04c-.32 1.89-1.85 2.1-2.8 2.14.03.4 1.44.18 2.38-.08.95-.25 1.1-2.5 1.1-2.69 0-.15-.08-.6-.11-.8l-.33.14c-.08.2-.37.6-.23 1.29Z" fill="#063150"/><path d="M11.63 9c-.36 0-.64-.1-.73-.13-.25.08-.75.25-.79.28-.04.03 1.19.37 1.8.53l1.87-1.15-.4-2.05c-.15-.1-.59-.48-1.07-.48-1.54 0-2.97 1.66-4 2.99-1.04 1.32-1.9 1.81-2.54 1.81-.65 0-.77-.4-.77-.7 0-.92 1.03-1.15 1.57-1.15-.07-.3-.24-.91-.34-.9-.13.01-1.9 1.15-2.05 2.17A1.58 1.58 0 0 0 5.77 12c.88 0 2.14-.59 3.6-2.48C10.86 7.63 12 7.2 12.32 7.2c.32 0 .69.23.69.63C13 8.6 12.08 9 11.63 9Z" fill="url(#a)"/><path d="M5.87 6C7.68 6 9.06 7.47 9.5 7.9c.45.44 1.46 1.2 2.34 1.2 1.16 0 1.61-.94 1.61-1.68s-.66-1.33-.9-1.39c.68.07 2.1.69 2.1 2.22 0 1.92-1.84 2.55-2.8 2.55-.96 0-1.51-.31-2.99-2.14-.4-.63-1.56-1.9-2.9-1.9-1.69 0-2.82.98-2.94 2.94C2.85 8.33 3.5 6 5.87 6Z" fill="url(#b)"/><path d="M12.14 12c-1.82 0-3.19-1.47-3.65-1.9-.45-.44-1.45-1.2-2.34-1.2-1.16 0-1.6.94-1.6 1.68s.6 1.33.86 1.38c-.69-.06-2.07-.68-2.07-2.21 0-1.92 1.85-2.55 2.8-2.55.97 0 1.52.31 3 2.14.4.63 1.56 1.9 2.9 1.9 1.68 0 2.8-.98 2.93-2.94.18 1.37-.48 3.7-2.83 3.7Z" fill="url(#c)"/><defs><linearGradient id="a" x1="13.78" y1="9.05" x2="4.17" y2="9.05" gradientUnits="userSpaceOnUse"><stop stop-color="#03305A"/><stop offset=".49" stop-color="#046CB3"/><stop offset="1" stop-color="#0C3050"/></linearGradient><linearGradient id="b" x1="14.67" y1="8.4" x2="3" y2="8.4" gradientUnits="userSpaceOnUse"><stop stop-color="#2A5BA0"/><stop offset=".47" stop-color="#6CC8D7"/><stop offset="1" stop-color="#2B4C93"/></linearGradient><linearGradient id="c" x1="3.34" y1="9.6" x2="15.01" y2="9.6" gradientUnits="userSpaceOnUse"><stop stop-color="#2A5BA0"/><stop offset=".47" stop-color="#6CC8D7"/><stop offset="1" stop-color="#2B4C93"/></linearGradient></defs></svg>