<!-- by TradingView --><svg width="18" height="18" viewBox="0 0 18 18" xmlns="http://www.w3.org/2000/svg"><path fill="#F0F3FA" d="M0 0h18v18H0z"/><path d="M7.55 7c.03 0 .06.02.08.03.03.02.05.04.06.07l.57 1.3-1.55-.03-.3-.63a.13.13 0 0 0-.04-.05.12.12 0 0 0-.07-.02c-1.15 0-2.13-.1-2.58.14a.15.15 0 0 0-.06.06.17.17 0 0 0 .04.21c.55.45 1.15.6 1.7 1.05.16.14.27.34.33.6l.02.12v.13c-.02.64-.36 1-1.03 1.02H2.56a.33.33 0 0 1-.18-.05.36.36 0 0 1-.13-.14l-.11-.3a.14.14 0 0 1 0-.13.12.12 0 0 1 .05-.05 14.97 14.97 0 0 0 1.63 0c.1 0 .2-.03.27-.1.06-.05.08-.1.07-.33L2.2 8.59c-.22-.35-.26-.67-.1-.97.32-.65.77-.62 1.48-.62h3.97Z" fill="url(#a)"/><path d="M15.83 7c.04 0 .09.02.12.05a.2.2 0 0 1 .05.14v.3c0 .05-.02.1-.05.13a.15.15 0 0 1-.1.05H14.8c-.04 0-.08.03-.08.07v3.1c0 .02-.02.04-.03.05 0 .02-.01.04-.03.05a.14.14 0 0 1-.04.03l-.05.03H13.4l-.04-.03a.12.12 0 0 1-.04-.02.13.13 0 0 1-.03-.09V8.14h.05c-.26-.05-.5.2-.64.46l-.53 1.23c-.35.79-1.17 1.55-1.85.75a3.37 3.37 0 0 1-.52-.84l-.33-.64 1.33-.7.53 1.16.05.07.06.05a.1.1 0 0 0 .06 0c.02 0 .04-.02.05-.04l.71-1.37.3-.5a.07.07 0 0 0-.02-.1h-.76c-.02 0-.04 0-.06-.02a.17.17 0 0 1-.1-.1.2.2 0 0 1 0-.07v-.32a.15.15 0 0 1 .15-.16h4.06Z" fill="url(#b)"/><path d="m8.26 8.4.4.9.04.08c.08.19.18.32.3.4.1-.02.16-.05.19-.09a.12.12 0 0 1 .04-.04.11.11 0 0 1 .12 0l.04.05.25.46a.16.16 0 0 1-.02.18c-.23.28-.43.46-.6.53-.91.38-1.4-.16-1.66-1.04l-.22-.56-.43-.9 1.55.03Z" fill="url(#c)"/><path d="M10.05 7c.05 0 .1.02.13.04l.1.11.52 1.26-1.33.7-.78-1.95a.12.12 0 0 1 .01-.1.11.11 0 0 1 .04-.04.1.1 0 0 1 .05-.02h1.26Z" fill="url(#d)"/><defs><linearGradient id="a" x1="9" y1="7" x2="9" y2="11" gradientUnits="userSpaceOnUse"><stop stop-color="#081E7A"/><stop offset=".49" stop-color="#6283E2"/><stop offset="1" stop-color="#000D62"/></linearGradient><linearGradient id="b" x1="9" y1="7" x2="9" y2="11" gradientUnits="userSpaceOnUse"><stop stop-color="#081E7A"/><stop offset=".49" stop-color="#6283E2"/><stop offset="1" stop-color="#000D62"/></linearGradient><linearGradient id="c" x1="9" y1="7" x2="9" y2="11" gradientUnits="userSpaceOnUse"><stop stop-color="#081E7A"/><stop offset=".49" stop-color="#6283E2"/><stop offset="1" stop-color="#000D62"/></linearGradient><linearGradient id="d" x1="9" y1="7" x2="9" y2="11" gradientUnits="userSpaceOnUse"><stop stop-color="#081E7A"/><stop offset=".49" stop-color="#6283E2"/></linearGradient></defs></svg>