<!-- by TradingView --><svg width="18" height="18" viewBox="0 0 18 18" xmlns="http://www.w3.org/2000/svg"><path fill="#F0F3FA" d="M0 0h18v18H0z"/><path d="M4.58 7c.43 0 .76.13 1.02.39s.39.62.4 1.08v2.5c0 .02-.01.03-.03.03h-.94C5 11 5 11 5 10.98v-2.4c0-.35-.17-.57-.41-.58h-.56c-.02 0-.04.04-.04.06v2.9C4 11 4 11 3.98 11h-.94C3 11 3 10.99 3 10.96V7.02A1042.71 1042.71 0 0 0 4.58 7Zm5.38 0c.42 0 .78.14 1.08.42.3.3.45.66.45 1.11v2.43c0 .03-.02.04-.04.04h-.98c-.03 0-.04-.01-.04-.03V8.63c0-.05-.01-.13-.05-.24a.41.41 0 0 0-.33-.32.37.37 0 0 0-.42.18c-.06.1-.1.21-.1.32v2.4c0 .02 0 .03-.03.03h-1c-.02 0-.04-.01-.04-.04V8.6c.01-.24-.06-.47-.22-.54-.09-.04-.26-.06-.5-.06h-.12c-.03 0-.04.01-.04.04v2.92c0 .03-.01.04-.04.04h-1c-.02 0-.03 0-.03-.02v-3.9c0-.02.01-.02.03-.02H8c.27 0 .57.12.9.32h.05c.35-.25.68-.38 1-.38Zm4.62 0c.02 0 .03.02.03.04v.93c0 .03 0 .03-.03.03h-1.62c-.1 0-.16.05-.16.13 0 .09.06.14.15.16l.74.14c.33.04.56.1.7.19.3.17.49.4.56.68.1.38.05.74-.12 1.07-.14.25-.35.43-.62.52-.2.07-.48.1-.83.1a188.01 188.01 0 0 0-1.38-.01v-.95c0-.02.01-.03.03-.03h1.78c.07 0 .12-.06.13-.12l-.02-.15a.07.07 0 0 0-.04-.05.84.84 0 0 0-.25-.1l-.3-.05a7.35 7.35 0 0 1-.57-.11c-.21-.05-.39-.12-.54-.2-.23-.14-.37-.38-.42-.71-.05-.3 0-.58.11-.84.12-.25.3-.43.54-.54.19-.08.43-.13.73-.13h1.4Z" fill="#202B60"/></svg>