<!-- by TradingView --><svg width="18" height="18" viewBox="0 0 18 18" xmlns="http://www.w3.org/2000/svg"><path fill="#F0F3FA" d="M0 0h18v18H0z"/><path d="M9 14H8v-3.6a2.73 2.73 0 0 1-5-1.51 2.73 2.73 0 0 1 5-1.51V4h1v10ZM5.73 7.02c-1.04 0-1.88.83-1.88 1.87a1.88 1.88 0 0 0 3.76 0c0-1.04-.84-1.87-1.88-1.87Z" fill="#ED1B26"/><path d="M9 14h1v-3.6a2.73 2.73 0 0 0 5-1.51 2.73 2.73 0 0 0-5-1.51V4H9v10Zm3.27-6.98c1.04 0 1.88.83 1.88 1.87a1.88 1.88 0 0 1-3.76 0c0-1.04.84-1.87 1.88-1.87Z" fill="#652D90"/></svg>