<!-- by TradingView --><svg width="56" height="56" viewBox="0 0 56 56" xmlns="http://www.w3.org/2000/svg"><path fill="#F0F3FA" d="M0 0h56v56H0z"/><path d="M16 36.19c0-5.3 2.52-8.44 3.78-9.35-.8 1.04-2.37 3.69-2.37 5.97 0 2.85 4.53 8 13.33 2.69a3.26 3.26 0 0 1-2.82 3.87c-3.45.69-8.97 1.25-11.92-3.18Z" fill="url(#asah4xxjr)"/><path d="M33.93 25.7c-1.49-.96-5.02-2.98-6.6-3.87l4.15 12.88c-.9 1.24-3.94 3.7-8.85 3.7-4.9 0-6.44-2.04-6.6-3.06.14 5.99 5.23 9.65 11.3 9.65C33.41 45 39 39.36 39 34.49s-3.2-7.6-5.07-8.8Z" fill="url(#bsah4xxjr)"/><path d="M17.42 22.23c0-4.36 5.3-7.5 7.96-8.52l.33 7c1.08.57 3.8 2.75 6.06 6.84 2.27 4.09.14 7.03-1.22 8 1.35-5.64-13.13-7.91-13.13-13.32Z" fill="url(#csah4xxjr)"/><path d="M22.67 23.53c.87.45 2.8 1.82 3.66 2.45-1.2-1.9-.84-4.28-.51-5.23l1.58-4.35 9.93-5.81V10c-6.12 1.15-11 3.07-13.14 4.3-2.14 1.22-4.2 3.04-4.2 5.3 0 2.27 1.58 3.37 2.68 3.93Z" fill="url(#dsah4xxjr)"/><path d="M37.28 11.97V10.6c-9.7 2.7-13.62 5.9-13.62 7.28 0 1.11 1.44 2.44 2.16 2.96.62-2.5 7.9-6.94 11.46-8.86Z" fill="url(#esah4xxjr)"/><path d="M19.6 41.86c-1.39-.4-2.56-3.38-2.97-4.82.36.58 2.02 1.73 5.75 1.73s6.68-1.38 7.69-2.06c-1.3 5.45-8.74 5.66-10.47 5.15Z" fill="url(#fsah4xxjr)"/><path d="M37.99 33.46c0 2.95-1.38 5.3-2.07 6.11 1.33-4.79.33-6.78 0-7.97-.25-.95.11-1.33.33-1.4.58-.14 1.74.31 1.74 3.26Z" fill="url(#gsah4xxjr)"/><defs><linearGradient id="asah4xxjr" x1="18.95" y1="29.92" x2="23.39" y2="39.84" gradientUnits="userSpaceOnUse"><stop stop-color="#10B2E1"/><stop offset="1" stop-color="#CDEEFF"/></linearGradient><linearGradient id="bsah4xxjr" x1="32.55" y1="22.89" x2="27.52" y2="45" gradientUnits="userSpaceOnUse"><stop stop-color="#01B2F5"/><stop offset=".36" stop-color="#26C7F3"/><stop offset=".84" stop-color="#01B4EE"/><stop offset="1" stop-color="#0A76A6"/></linearGradient><linearGradient id="csah4xxjr" x1="16.96" y1="21.64" x2="33.88" y2="25.9" gradientUnits="userSpaceOnUse"><stop stop-color="#1B49A0"/><stop offset=".26" stop-color="#26B6E8"/><stop offset=".56" stop-color="#D0EEFD"/><stop offset=".79" stop-color="#1BBBED"/><stop offset="1" stop-color="#203593"/></linearGradient><linearGradient id="dsah4xxjr" x1="20.21" y1="19.87" x2="34.9" y2="20.38" gradientUnits="userSpaceOnUse"><stop stop-color="#006EB7"/><stop offset=".32" stop-color="#1EBEF2"/><stop offset="1" stop-color="#05548F"/></linearGradient><linearGradient id="esah4xxjr" x1="23.66" y1="17.5" x2="29.4" y2="19.74" gradientUnits="userSpaceOnUse"><stop stop-color="#323197"/><stop offset="1" stop-color="#3FC9FA"/></linearGradient><linearGradient id="fsah4xxjr" x1="30.49" y1="39.15" x2="18.68" y2="40.84" gradientUnits="userSpaceOnUse"><stop offset=".62" stop-color="#4ECCF4"/><stop offset="1" stop-color="#2D778E" stop-opacity="0"/></linearGradient><linearGradient id="gsah4xxjr" x1="37.55" y1="31.82" x2="35.58" y2="32.3" gradientUnits="userSpaceOnUse"><stop stop-color="#DDFEFF"/><stop offset="1" stop-color="#48C8F5"/></linearGradient></defs></svg>