<!-- by TradingView --><svg width="18" height="18" viewBox="0 0 18 18" xmlns="http://www.w3.org/2000/svg"><path fill="#F0F3FA" d="M0 0h18v18H0z"/><path d="M12.08 9.05c-.01.03-.04.05-.08.05h-.5c-.03 0-.04-.01-.05-.03-.01-.03 0-.05 0-.07.5-.6.83-1.2 1.01-1.8.26-.86.1-1.47-.51-1.83-.3-.18-.6-.28-.92-.3a6.34 6.34 0 0 0-3.1.6 9.75 9.75 0 0 0-3.86 3.1c-.23.3-.4.63-.53.98-.16.44-.2.82-.1 1.14.15.52.54.88 1.19 1.06.47.14 1 .18 1.59.1.78-.09 1.55-.31 2.32-.66h.04a40.26 40.26 0 0 0 .49.56A6.8 6.8 0 0 1 5.84 13a3.2 3.2 0 0 1-1.17-.19A2.37 2.37 0 0 1 3 10.63c-.03-.39.03-.8.16-1.22.11-.38.27-.73.48-1.07a9.38 9.38 0 0 1 4.12-3.7c1.34-.62 2.51-.78 3.52-.52.44.12.8.32 1.07.61.3.32.47.72.53 1.21.1.84-.17 1.88-.8 3.1Z" fill="#422874"/><path d="M10.32 9.87c-.03.02-.05 0-.05-.04v-.28c0-.08-.03-.11-.1-.11-.23.01-.5.09-.81.23-.1.05-.35.2-.73.46-.37.25-.76.46-1.16.64-.04.02-.06 0-.06-.05 0-.38.09-.7.27-.98.13-.2.28-.37.45-.5a11.08 11.08 0 0 0 1.26-1.3c.23-.27.42-.57.57-.9.03-.08.02-.14-.05-.19-.12-.09-.23-.11-.35-.07a4.91 4.91 0 0 0-.4.28c-.67.57-1.3 1.27-1.9 2.1l-.2.25c-.02.02-.03.02-.05.02-.02 0-.04-.02-.04-.04-.04-.13-.1-.22-.19-.26-.07-.04-.17-.04-.3-.02a3.3 3.3 0 0 0-2.02 1.27c-.19.24-.29.42-.3.55 0 .31.13.5.4.54.23.04.56-.1.99-.41l1.12-.85c.03-.02.04 0 .05.03.02.05.04.21.08.48.03.2.18.32.44.34.2.02.4-.01.57-.09.38-.17.85-.45 1.43-.86.13-.1.2-.15.24-.15.24-.03.26.05.06.23l-.6.53c-.14.12-.16.27-.09.46l.01.01c.08.17.2.2.32.09a6.63 6.63 0 0 1 .82-.67c.1-.09.16-.15.22-.18.08-.05.2-.13.35-.25.33-.25.6-.4.79-.44.02 0 .04 0 .05.02.02.02.02.04.01.06-.08.34-.14.6-.17.8-.02.15 0 .27.06.37.1.16.22.18.39.05.3-.25.62-.49.93-.73.17-.12.32-.22.48-.3l.04.01.01.05c-.08.28-.1.56-.07.84 0 .04.01.07.03.09.21.2.41.24.61.14.09-.04.47-.27 1.16-.69a.24.24 0 0 0 .07-.09.24.24 0 0 0 .04-.12.1.1 0 0 0-.04-.08.07.07 0 0 0-.07-.02c-.15.05-.23.08-.25.1-.22.16-.5.3-.81.41-.02.01-.04 0-.06-.01a.08.08 0 0 1-.01-.07c.06-.28.1-.53.1-.77 0-.12-.04-.2-.14-.23-.16-.05-.35-.04-.57.06-.13.05-.34.16-.6.33a4.2 4.2 0 0 1-.57.32h-.04a.04.04 0 0 1 0-.05c.08-.24.12-.48.12-.72 0-.03 0-.06-.02-.09-.1-.12-.2-.18-.3-.17-.17.01-.38.08-.64.22l-.78.4Zm-.91-2.44h.01c.02.03-.02.12-.12.26-.1.13-.23.29-.4.45l-.02.02c-.16.17-.3.3-.44.4-.13.1-.2.13-.22.1v-.02L9.4 7.43ZM6.8 9.7c-.43.45-.97.86-1.64 1.24a.85.85 0 0 1-.35.1c-.04.01-.07-.01-.1-.06a.13.13 0 0 1 .02-.13 2.68 2.68 0 0 1 1.7-1.2c.15-.02.27-.03.35-.02.05 0 .06.03.02.07Z" fill="#E52880"/></svg>