<!-- by TradingView --><svg width="56" height="56" viewBox="0 0 56 56" xmlns="http://www.w3.org/2000/svg"><path fill="#F0F3FA" d="M0 0h56v56H0z"/><path d="M21.08 16c2.62 0 5.02.9 6.92 2.4v14.48h-3.31V21.75h-7.22V38H10V27c0-6.08 4.96-11 11.08-11Z" fill="#EC1824"/><path d="M21.17 17.53A9.73 9.73 0 0 1 28 20.3v12.57h-1.58V22.73h-10.6V38H11.5V27.18c0-5.33 4.3-9.65 9.67-9.65Z" fill="#F5811C"/><path d="M21.2 19a8.2 8.2 0 0 1 6.8 3.38v10.46h-2.42v-9.39h-8.82V38H13V27.18A8.1 8.1 0 0 1 21.2 19Z" fill="#FFF100"/><path d="M21.12 20c3.82 0 6.88 3.2 6.88 7v6h-2.9v-9.28h-8.04V38H14V27c0-3.8 3.3-7 7.12-7Z" fill="#00A54F"/><path d="M21.13 21.48a5.6 5.6 0 0 1 5.6 5.6V33h-2.62v-9H18v14h-2.48V27.09a5.6 5.6 0 0 1 5.6-5.61Z" fill="#00ACEE"/><path d="M21.13 22.73a4.14 4.14 0 0 1 4.14 4.23V33H24v-6.04A2.88 2.88 0 0 0 21.13 24C19.48 24 18 25.33 18 26.96V38h-1.27V26.96a4.36 4.36 0 0 1 4.4-4.23Z" fill="#2D3091"/><path d="M34.92 16c-2.62 0-5.02.9-6.92 2.4v14.48h3.31V21.75h7.22V38H46V27c0-6.08-4.96-11-11.08-11Z" fill="#EC1824"/><path d="M34.83 17.53A9.73 9.73 0 0 0 28 20.3v12.57h1.58V22.73h10.6V38h4.32V27.18c0-5.33-4.3-9.65-9.67-9.65Z" fill="#F5811C"/><path d="M34.8 19a8.2 8.2 0 0 0-6.8 3.38v10.46h2.42v-9.39h8.82V38H43V27.18A8.1 8.1 0 0 0 34.8 19Z" fill="#FFF100"/><path d="M34.88 20A6.98 6.98 0 0 0 28 27v6h2.9v-9.28h8.04V38H42V27c0-3.8-3.3-7-7.12-7Z" fill="#00A54F"/><path d="M34.87 21.48a5.6 5.6 0 0 0-5.6 5.6V33h2.62v-9H38v14h2.48V27.09a5.6 5.6 0 0 0-5.6-5.61Z" fill="#00ACEE"/><path d="M34.87 22.73a4.14 4.14 0 0 0-4.14 4.23V33H32v-6.04A2.88 2.88 0 0 1 34.87 24c1.65 0 3.13 1.33 3.13 2.96V38h1.27V26.96a4.36 4.36 0 0 0-4.4-4.23Z" fill="#2D3091"/></svg>