<!-- by TradingView --><svg width="56" height="56" viewBox="0 0 56 56" xmlns="http://www.w3.org/2000/svg"><path fill="#F0F3FA" d="M0 0h56v56H0z"/><path d="M13 16.25c-1.31.68-3.37 1.98-4 4.11.88 0 2.93.98 4 2.51v2.73c0 6.23 2.73 10.12 6.66 14.4H47c-5.38-5.56-8.48-12.43-5.32-20H43v-.87h-1.23c-.3-1.52-1.24-3.13-3.14-3.13H13v.25Zm25.63.75c1.47 0 2.11 1.5 2.29 2.63-3.2 7.2-.9 13.76 4.03 19.37H20.07C16.4 35 14 31.4 14 25.73V17h24.63Z"/><path d="M32.02 23c0 .57.54 1.5 1.98 1.5 1.8 0 2.05-.93 2.05-1.79 0-.85-.82-1.71-2.05-1.71-2.25 0-6.06 1-7.87 4H24v1h1.68c-.22 1.07-.56 2.71-.9 4.21-.34 1.5-.68 3-.9 4.08 0 .28-.27.71-1.35.71-1.09 0-.68-.57-.53-1 .3 0 1-.31 1-1 0-.86-1.1-1.5-2-1.5-.9 0-2 .29-2 2s1.27 2.5 3.53 2.5c2.25 0 4.5-.86 5.4-3.86.28-.9.5-2.1.74-3.36.17-.89.35-1.94.54-2.78h2.33c-.45 1.14-1.35 3.74-1.35 4.43 0 .86.06 1.57 2.31 1.57 1.8 0 3.1-1 3.55-1.57v-.86c-1.08 0-1.05-.57-.9-.86l.9-3.71h-6.62c.4-1.49.95-2 1.69-2h.9Z" fill="#0D54BF"/></svg>