<!-- by TradingView --><svg width="56" height="56" viewBox="0 0 56 56" xmlns="http://www.w3.org/2000/svg"><path fill="#F0F3FA" d="M0 0h56v56H0z"/><path d="M16.95 37H11l2.83-3.99L16.95 37Zm2.55 0h-1.2l-3.84-4.89.8-1.13L19.5 37Zm1.76 0H19.5l1.19-.78.57.78Zm.36-3.65.75-.74L25.53 37h-2.95l-5.9-8.02.77-1.1 4.18 5.47Zm2.13-3.13.66-.65L29.78 37h-2.94l-8-11.08.85-1.19 4.06 5.49Zm2.13-2.61.72-.71L33.55 37h-2.46L20.94 22.96l.91-1.28 4.02 5.93ZM28 24.88l1.05-1.55L38.34 37h-3.51L23.09 19.93l.71-1 4.2 5.95ZM45 37h-5.38l-9.93-14.62 2.3-3.76L45 37ZM31.32 17.68l-2.7 4.42-.63.93L24.45 18 28 13l3.32 4.68Z" fill="#74282A"/></svg>