<!-- by TradingView --><svg width="18" height="18" viewBox="0 0 18 18" xmlns="http://www.w3.org/2000/svg"><path fill="#F0F3FA" d="M0 0h18v18H0z"/><path d="M13 13.05A8.68 8.68 0 0 1 5 13a.2.2 0 0 1-.08-.1c-.09-.17-2.16-4.52.19-7.93a.2.2 0 0 1 .07-.06 9.1 9.1 0 0 1 7.84 0 .2.2 0 0 1 .08.07c.08.13 1.98 3.37-.04 8a.2.2 0 0 1-.08.08Zm-.2-7.84a8.68 8.68 0 0 0-7.37 0c-2.05 3.02-.4 6.95-.16 7.47 3.66 1.93 7 .32 7.46.08 1.76-4.11.29-7.13.06-7.55Z" fill="#D4AB2A"/><path d="M5 6.77v2.64l3.53-1.77V5L5 6.77ZM13 6.77v2.64L9.47 7.64V5L13 6.77ZM6 13l2.5-1.25V8.12L6 9.36V13ZM12 13l-2.5-1.25V8.12L12 9.36V13Z" fill="#D4AB2A"/></svg>