<!-- by TradingView --><svg width="56" height="56" viewBox="0 0 56 56" xmlns="http://www.w3.org/2000/svg"><path fill="#F0F3FA" d="M0 0h56v56H0z"/><path d="M23.67 15h8.43l1.9 2.63c-1.32.56-4.19 2.2-5.05 4.18l-1.7-2.23L20.73 29h6.06c0 1.95.18 3.12 1.22 5H17.24l-3.47 5H7l16.67-24Z" fill="#010101"/><path d="M38 17.44c-5.63.64-10 5.2-10 10.74C28 34.16 33.08 39 39.35 39c2.7 0 5.18-.9 7.13-2.4l-2.7-3.2A6.5 6.5 0 1 1 38 22.17v-4.73Zm6 6 3-3.25c-.88-.77-1.9-1.4-3-1.88v5.12Z" fill="#010101"/><path d="M43 31.57 39 33V23c2.25 0 3.6.66 4 1v7.57ZM39 17.06v4.85c2.43 0 3.68.73 4 1.09v-5.35a7.32 7.32 0 0 0-4-.6Z" fill="#FD0000"/></svg>