<!-- by TradingView --><svg width="18" height="18" viewBox="0 0 18 18" xmlns="http://www.w3.org/2000/svg"><path fill="#F0F3FA" d="M0 0h18v18H0z"/><path d="M12.3 7.96h-.2L9.46 5.33a.4.4 0 0 0-.1-.07c-.3-.16-.55-.15-.73.02-.91.88-1.82 1.77-2.72 2.68h-.16a2.7 2.7 0 0 1-.66-.79c-.13-.31-.04-.63.28-.94a66984.87 66984.87 0 0 1 3.16-3.1c.43-.22.82-.17 1.16.17a480.47 480.47 0 0 1 3.17 3.14c.25.41.1.88-.44 1.42l-.11.1Z" fill="#315692"/><path d="M12.1 7.96h.2c.42.36.65.64.69.84.06.32-.07.64-.4.97a3.1 3.1 0 0 0-.26.29.42.42 0 0 0-.21.01l-.9-.9a.1.1 0 0 0-.07-.02.1.1 0 0 0-.07.02 48 48 0 0 1-1.47 1.46c-.42.34-.82.34-1.2 0a42.62 42.62 0 0 1-1.5-1.48.1.1 0 0 0-.1.02l-.91.9a.36.36 0 0 0-.22 0c-.03-.1-.07-.17-.1-.19-.6-.36-.74-.8-.4-1.32.13-.22.32-.41.56-.6h.16l.92.9a.08.08 0 0 0 .08.02c.01 0 .02 0 .03-.02C7.49 8.3 8 7.78 8.47 7.34c.4-.37.85-.28 1.36.27a541.16 541.16 0 0 0 1.32 1.27.08.08 0 0 0 .05-.02l.9-.9Z" fill="#292928"/><path d="m5.9 10.07 2.61 2.54.13.1c.32.2.71.07 1.17-.39l.17-.16 2.14-2.09a.42.42 0 0 1 .2-.01c.7.61.82 1.19.35 1.72a534.77 534.77 0 0 1-3.21 3.11.98.98 0 0 1-.9 0 190.8 190.8 0 0 1-3.36-3.3c-.19-.18-.23-.46-.13-.82.05-.17.25-.4.61-.7a.36.36 0 0 1 .22 0Z" fill="#315692"/></svg>