<!-- by TradingView --><svg width="18" height="18" viewBox="0 0 18 18" xmlns="http://www.w3.org/2000/svg"><path fill="#F0F3FA" d="M0 0h18v18H0z"/><path d="m14.68 8.3-.65 2.24-.02.03-.03.01H3.68c-.1 0-.22-.11-.36-.36l-.2-.3a.21.21 0 0 1-.03-.18L4.1 6.16c0-.02.02-.04.03-.05a.09.09 0 0 1 .05-.02h9.34a.05.05 0 0 1 .04.02l1.17 1.7a.21.21 0 0 1 .03.18l-.1.31Z" fill="#F2F2F2"/><path d="M8.1 6.45 6.87 8.4a.1.1 0 0 0-.02.05c0 .05 0 .11.02.16a58.26 58.26 0 0 1 .38 1.5.15.15 0 0 1-.04.12.15.15 0 0 1-.1.05l-1.15.03c-.1-.09-.14-.15-.15-.19a4.54 4.54 0 0 0-.16-.74L5.6 9a.02.02 0 0 0-.04 0l-.26 1.15-.1.11H3.99c-.08-.03-.1-.08-.09-.14l.3-1.22c.01-.1-.01-.17-.1-.21v-.04l.14-.59c.01-.09.05-.13.14-.1a.04.04 0 0 0 .04 0 .03.03 0 0 0 .01-.03v-.05a2325.82 2325.82 0 0 0 .36-1.46h.03c.03.03.05.04.07.04.39.02.78 0 1.17-.03.06-.03.1-.02.11.02l-.36 1.62a.1.1 0 0 1-.02.04.17.17 0 0 0-.03.1.02.02 0 0 0 0 .02.03.03 0 0 0 .03 0c.07-.05.1-.1.11-.15.03-.19.1-.35.2-.47l.7-1.18.01-.02h1.22c.02 0 .04.01.07.04Z" fill="#FE0002"/><path d="M8.16 6.69a.4.4 0 0 0-.08.2.15.15 0 0 0-.07.1.06.06 0 0 1-.04.04h-.01a.14.14 0 0 0-.09.07c-.1.2-.28.49-.5.85a.12.12 0 0 0-.02.09c-.03-.02-.05-.01-.07.03a4.5 4.5 0 0 1-.3.5v.03l.4 1.67a.06.06 0 0 1-.03.06.5.5 0 0 1-.27.08l-.43.01c-.28.01-.51-.03-.69-.11l1.14-.03a.16.16 0 0 0 .11-.05.15.15 0 0 0 .04-.12c0-.05-.02-.12-.05-.23l-.33-1.27a.48.48 0 0 1-.02-.16l.02-.05L8.1 6.45l.02.04a.04.04 0 0 0 .04.03l.04.01a.03.03 0 0 1 .02.02.03.03 0 0 1 0 .03.33.33 0 0 0-.06.1Z" fill="#9CA6A7"/><path d="m10.76 7.8-.42 1.14-.05.06a.12.12 0 0 1-.07.02L9.9 9l-.03.01-.03.03c-.02 0-.02.02-.02.04v.02l.2.42.02.04c0 .08 0 .14-.03.19l-.12.3c-.05.12-.14.18-.27.19-.59.02-1.16 0-1.71-.04l-.53-2.14a5.64 5.64 0 0 0 .73-1.15l-.02-.02a.4.4 0 0 1 .08-.2c.02.1.04.15.08.17l.04.18v.13l.57 2.07c.03.04.06.04.08.01a.04.04 0 0 0 0-.03c-.02-.06-.01-.12.02-.2l.9-2.54a.05.05 0 0 1 .04-.04h.68l.02.02v.01l-.01.01c-.52.35-.16.96.18 1.31Z" fill="#FE0002"/><path d="m13.53 6.44-.06.38a.42.42 0 0 0-.1.3l-.01.05c-.05.15-.06.27-.17.32a70.76 70.76 0 0 0-.8 0c-.06 0-.1.02-.13.04-.03.03-.03.07 0 .13.03.08.07.12.11.12l1.26 1.65v.43c-.08.2-.2.32-.38.37a184.96 184.96 0 0 0-1.7.02c-.3 0-.6 0-.9-.02l-.57-1.02a2.04 2.04 0 0 0 .4 0c.18 0 .36 0 .53-.02l.63-.02a1.48 1.48 0 0 1 .35.03h.02a.03.03 0 0 0 0-.04L11.95 9v-.01l-1.26-1.5c-.16-.19-.25-.34-.26-.45-.03-.18.03-.34.19-.47a.14.14 0 0 1 .05-.02l.31-.1h2.55Z" fill="#FE0002"/><path d="M6.1 7.6a.93.93 0 0 0-.2.48c0 .05-.04.1-.1.15a.03.03 0 0 1-.04-.01v-.01c0-.04.01-.07.04-.1a.1.1 0 0 0 .01-.04l.36-1.62c.08.05.1.1.1.17-.05.27-.11.54-.2.8-.04.17-.03.23.03.19ZM12.37 7.74a.36.36 0 0 1-.1-.13.05.05 0 0 1 .02-.06h.79c.22-.01.28-.17.3-.34.02-.12.08-.25.09-.39l.06-.38.11.18.01.04c-.05.3-.12.58-.2.83a.17.17 0 0 1-.15.12c-.13.02-.26.01-.4 0a.2.2 0 0 0-.06 0h-.05c-.1-.01-.49-.06-.42.13Z" fill="#9CA6A7"/><path d="M13.47 6.82c-.01.14-.07.27-.09.4-.02.16-.08.32-.3.33a9.96 9.96 0 0 1-.81.02.05.05 0 0 0 0 .04c.01.05.05.1.1.13v.04c-.04 0-.08-.04-.11-.12-.03-.06-.03-.1 0-.13.02-.02.07-.03.13-.03a70.76 70.76 0 0 1 .8-.01c.1-.05.12-.17.17-.32v-.05c0-.11.04-.21.1-.3Z" fill="#7C433A"/><path d="M8.95 9.03c-.03.07-.04.13-.02.19a.04.04 0 0 1 0 .03c-.02.03-.05.03-.08-.01 0-.1-.01-.2-.04-.28l-.06-.19c-.15-.58-.3-1.15-.47-1.73l-.04-.18h.06l.01.02.57 2.16a.03.03 0 0 0 .02.02.03.03 0 0 0 .03-.01l.02-.02Z" fill="#9CA6A7"/><path d="M8.85 9.24a91.5 91.5 0 0 1-.57-2.07v-.13a44.97 44.97 0 0 1 .57 2.2Z" fill="#7C433A"/><path d="M11.01 9.19a2.5 2.5 0 0 1-.58.01c-.1.02-.23.02-.36 0-.02-.04-.05-.06-.09-.05l-.02.01V9.3l-.13-.26.03-.03h.36L10.3 9a.12.12 0 0 0 .05-.06l.42-1.15c.11.04.14.13.1.26a175.38 175.38 0 0 0-.42 1.13l.02.01H11Z" fill="#9CA6A7"/><path d="m14.68 8.3.19.3c-.1-.03-.14.06-.13.24l-.01.07c-.06.1-.1.22-.12.34a.2.2 0 0 1-.01.06c-.05.1-.08.23-.1.36 0 .02-.01.05-.04.09a10.27 10.27 0 0 1-.23.8c-.01.07-.02.18-.11.18a26.4 26.4 0 0 0-1.2 0c-.29 0-.73 0-1.32-.02-.27 0-.58.03-.81 0l-.61.01c-.21.01-.43 0-.65-.02-.14-.01-.28.03-.42.03a24.97 24.97 0 0 0-2.17 0c-.17.02-.39.03-.64.01a4.8 4.8 0 0 0-.55-.02c-.74.01-1.14.02-1.48 0-.13 0-.3.03-.5-.03h-.03l-.02-.03-.04-.1 10.3.01a.05.05 0 0 0 .05-.04l.65-2.24Z" fill="#032789"/><path d="M14.87 8.6c.03.02.05.05.06.08v.03l-.91 3.2-.02.02-.02.01-5.8-.02H9a.04.04 0 0 0 .04-.02.04.04 0 0 0 0-.04l-.1-.18h.08c.04.03.07.02.1-.03l.23-.29.02.27c0 .02 0 .03.02.04.02.02.06.02.1 0 0 .03.02.04.04.03a.1.1 0 0 0 .06-.1v-.52c0-.1-.03-.14-.08-.12-.04-.13-.2-.08-.26 0a.5.5 0 0 0-.15-.22c.14 0 .28-.04.42-.03.22.02.44.03.65.02.35-.01.55-.02.6 0 .24.02.55-.01.82 0a375.82 375.82 0 0 1 1.45.02h1.06c.1 0 .1-.12.12-.18a10.34 10.34 0 0 0 .23-.81.23.23 0 0 0 .04-.09c.02-.13.05-.26.1-.36a.2.2 0 0 0 .01-.06.95.95 0 0 1 .12-.34.12.12 0 0 0 .01-.07c-.01-.18.03-.27.13-.25Z" fill="#023ED0"/><path d="m5.65 9.38-.23.87a.17.17 0 0 1-.07.1.18.18 0 0 1-.1.03H4.23a.3.3 0 0 1-.2-.1c.4.03.79.02 1.17-.02l.1-.1v-.01L5.56 9a.02.02 0 0 1 .04 0l.05.38Z" fill="#9CA6A7"/><path d="m9.83 9.04.14.26.14.26c0 .09-.06.16-.08.22-.1.27-.15.53-.52.51l-1.44.01-.17-.1c.56.04 1.12.06 1.7.04.14 0 .23-.07.28-.19l.12-.3a.47.47 0 0 0 .03-.2l-.01-.03-.2-.41v-.07Z" fill="#7C433A"/><path d="M10.74 10.3a40.45 40.45 0 0 1 1.5 0h.55c.24.01.42 0 .53-.04.17-.07.28-.2.3-.4v-.43c.15.15.2.33.16.54-.04.22-.18.36-.41.42h-.04l-2.06-.01a.73.73 0 0 1-.53-.08Z" fill="#9CA6A7"/><path d="M13.63 9.86a.46.46 0 0 1-.31.4c-.11.04-.29.05-.53.04h-.55c-.14.02-.32.02-.55.01l-.95-.01-.09-.07.9.02a177.53 177.53 0 0 1 1.7-.02c.17-.05.3-.17.38-.37Z" fill="#7C433A"/><path d="m3.68 10.58.04.1a.06.06 0 0 0 .04.02c.2.06.38.03.51.04l1.48-.01c.18 0 .36 0 .55.02a.18.18 0 0 0-.04.04v.04c.12.1.18.24.17.39a.1.1 0 0 1-.01.05c-.08.11-.16.15-.26.1.2-.08.24-.22.15-.41a.12.12 0 0 0-.12-.07h-.57l-.03.01V11.61a.07.07 0 0 0 .01.05.07.07 0 0 0 .05.02h.04l.03-.01.01-.04v-.26l.02-.01h.03c.05.07.12.13.2.18-.15.15-.24.28-.46.35v.02l.36.02H3.63c-.02 0-.03 0-.05-.02a.1.1 0 0 1-.04-.03l-.46-.67a.1.1 0 0 1-.01-.08l.25-.9c.14.24.26.36.36.35Z" fill="#023ED0"/><path d="M9.1 10.74a.5.5 0 0 1 .16.23l-.25.52a.02.02 0 0 1-.01 0h-.02c-.13-.28-.21-.46-.26-.53-.03-.05-.07-.08-.14-.08a.11.11 0 0 0-.08.03.1.1 0 0 0-.03.08v.64l.02.04.03.01h.02l.05-.01a.07.07 0 0 0 .02-.05 2.89 2.89 0 0 0 0-.49h.02a.02.02 0 0 1 .03 0c.07.2.16.39.29.55l.1.18a.04.04 0 0 1 0 .04.04.04 0 0 1-.04.02H5.52v-.01a.01.01 0 0 1 0-.02c.22-.07.3-.2.47-.35.08.1.18.14.3.14a.02.02 0 0 0 .01-.02v-.02L6 11.4a.03.03 0 0 1-.01-.03.03.03 0 0 1 .02-.02c.05 0 .1 0 .15.02.1.05.18.01.26-.1a.1.1 0 0 0 .01-.05.46.46 0 0 0-.17-.39v-.04a.18.18 0 0 1 .04-.04c.25.02.47.01.64 0a4.46 4.46 0 0 1 1.11-.03c.35 0 .7 0 1.06.02Z" fill="#1158F0"/><path d="M10.32 10.87a.07.07 0 0 0-.08.07v.67c0 .04.03.07.07.07.05 0 .08-.03.08-.07v-.67a.07.07 0 0 0-.07-.07ZM4.15 10.88h.53c.05 0 .1.02.14.06a.2.2 0 0 1 .06.14v.11c0 .05-.02.1-.06.14a.2.2 0 0 1-.13.05H4.3l-.03.01v.23a.06.06 0 0 1-.03.05.06.06 0 0 1-.04.01h-.02a.05.05 0 0 1-.06-.05v-.72l.01-.02h.02ZM13.3 11.01c.01.09 0 .18-.02.3a.6.6 0 0 1-.31.04h-.02a.03.03 0 0 0 0 .05l.3.24.02.01v.01l-.01.01-.01.01c-.18.01-.43-.22-.52-.33h-.02v.26l-.02.05a.07.07 0 0 1-.05.02h-.03c-.02 0-.03 0-.05-.02a.06.06 0 0 1-.02-.04v-.72l.01-.01a.03.03 0 0 1 .03-.01l.54.01c.09 0 .15.04.18.12ZM6.16 11.37a.37.37 0 0 0-.15-.02l-.01.01a.03.03 0 0 0-.01.03v.01l.3.24h.01a.02.02 0 0 1-.02.04c-.11 0-.21-.04-.3-.14a.73.73 0 0 1-.2-.17l-.02-.01h-.01a.02.02 0 0 0-.02.02v.25l-.01.04-.03.01h-.04a.07.07 0 0 1-.07-.07v-.68l.01-.03.03-.01h.57c.03 0 .05 0 .07.02.02 0 .04.03.05.05.1.2.05.33-.15.41ZM7.7 11.24c0 .05 0 .09-.04.11h-.4a.08.08 0 0 0-.07.04v.07a.1.1 0 0 0 .02.06.1.1 0 0 0 .07.03h.37l.05.01.02.04a.06.06 0 0 1-.04.07h-.46c-.16 0-.2-.11-.2-.26l.01-.36c.01-.12.11-.16.23-.16a11.21 11.21 0 0 1 .45.02.06.06 0 0 1 .01.04v.02L7.7 11l-.03.01h-.39a.11.11 0 0 0-.08.03.1.1 0 0 0-.03.08v.02a.08.08 0 0 0 .02.06.09.09 0 0 0 .07.02h.4l.02.02ZM9.26 10.97c.06-.1.22-.14.26 0l-.02.7c-.04.02-.08.02-.1 0a.05.05 0 0 1-.02-.04l-.02-.27a.64.64 0 0 0 .02-.22.02.02 0 0 0-.02-.02h-.01l-.01.01c-.06.15-.18.46-.3.55h-.1a2.08 2.08 0 0 1-.3-.56.02.02 0 0 0-.02.01l-.01.04v.45c0 .02 0 .03-.02.05a.07.07 0 0 1-.05.01h-.02l-.03-.01a.06.06 0 0 1-.02-.04v-.64a.1.1 0 0 1 .03-.08.11.11 0 0 1 .08-.03c.07 0 .11.03.14.08a5.74 5.74 0 0 1 .29.53l.25-.52ZM11.76 11.28c0 .03 0 .05-.02.06h-.4a.08.08 0 0 0-.06.02.07.07 0 0 0-.02.05v.05a.1.1 0 0 0 .06.09.1.1 0 0 0 .04 0h.38c.01 0 .03 0 .04.02l.03.04a.05.05 0 0 1-.02.04l-.02.01H11.3c-.21 0-.18-.2-.18-.38 0-.17-.04-.38.18-.39a7.76 7.76 0 0 1 .5.02.05.05 0 0 1 .01.04.07.07 0 0 1-.06.06h-.39a.1.1 0 0 0-.08.06.1.1 0 0 0-.01.03v.05a.07.07 0 0 0 .02.05.08.08 0 0 0 .06.03l.37-.02h.02c.02.02.03.04.03.07Z" fill="#fff"/><path d="m9.5 11.67.02-.7c.05-.03.07 0 .08.1v.54a.1.1 0 0 1-.06.09c-.02 0-.03 0-.04-.03Z" fill="#032789"/><path d="M4.65 11h-.33a.06.06 0 0 0-.06.06v.14c0 .03.03.06.06.06h.33c.03 0 .06-.03.06-.06v-.14a.06.06 0 0 0-.06-.05ZM12.7 11.27v-.22s0-.02.02-.03l.03-.01h.3a.1.1 0 0 1 .07.03.1.1 0 0 1 .03.06v.05a.1.1 0 0 1-.03.07.1.1 0 0 1-.07.03 23.07 23.07 0 0 1-.32.03.02.02 0 0 1-.03 0v-.01ZM6.12 11l-.35.02a.04.04 0 0 0-.04.04v.17c0 .02.03.04.05.04l.35-.02c.02 0 .04-.02.04-.04l-.01-.17a.04.04 0 0 0-.04-.04Z" fill="#023ED0"/><path d="m9.36 11.36-.22.3c-.04.04-.07.05-.1.02.12-.1.24-.4.3-.55l.02-.01h.01v.02c.02.08.01.15 0 .22ZM7.66 11.35c.03-.02.04-.06.03-.11.02-.01.03-.02.05-.01l.01.02c.02.12-.01.16-.09.1Z" fill="#032789"/></svg>