<!-- by TradingView --><svg width="18" height="18" viewBox="0 0 18 18" xmlns="http://www.w3.org/2000/svg"><path fill="#F0F3FA" d="M0 0h18v18H0z"/><path d="M9.94 4.14c.35-.23.66-.18.93.18.75.96 1.1 2.2 1.07 3.7-.01.4-.18.7-.49.9l-.85.56c-.24.16-.3.38-.15.66l1.49 2.93c.07.14.08.28.03.43a.46.46 0 0 1-.27.3l-.33.13c-.4.15-.73.05-1-.3a10.9 10.9 0 0 1-1.5-2.83c-.03-.07-.08-.1-.15-.09-.07.02-.1.07-.1.15v2.17c0 .16-.07.27-.21.33l-1.22.48c-.13.06-.2 0-.2-.15.01-1.26.05-3.72.01-7.39 0-.67-.33-.97-.88-.9-.05.01-.09-.01-.1-.07-.03-.05-.02-.1.02-.13 1.32-1.36 2.15-1.5 2.49-.45.05.17.15.21.3.12l1.1-.73Zm-.56 1.34c-.21 0-.39.2-.53.6-.14.4-.2.88-.2 1.44l.02 1.34c0 .27.12.4.36.4l.85-.02c.24 0 .36-.14.36-.41l-.02-1.34c0-.56-.09-1.03-.24-1.43-.15-.39-.33-.58-.54-.58h-.06Z" fill="#EC1839"/></svg>