<!-- by TradingView --><svg width="18" height="18" viewBox="0 0 18 18" xmlns="http://www.w3.org/2000/svg"><path fill="#F0F3FA" d="M0 0h18v18H0z"/><path d="M11.58 10.44c.65-.1 1.4-.04 2.27.2.17.05.2.22.06.51a5 5 0 0 1-1.89 2.19c-.91.57-1.92.77-3.03.6v-.45c.94.16 1.82.02 2.63-.43a4.32 4.32 0 0 0 1.87-2.05.04.04 0 0 0-.03-.02l-.65-.11h-.04a.31.31 0 0 0-.1.14.98.98 0 0 0-.42-.11c.01-.02.02-.04.01-.05 0-.03-.02-.04-.04-.03a49.66 49.66 0 0 0-.67.07l-.05.02a.1.1 0 0 0-.05 0 3.7 3.7 0 0 0-1.2.49c-.35.22-.7.51-1.08.86l-.43.37a34.67 34.67 0 0 1-.66.52l-.33.22c-.01.01-.02 0-.02-.02l-.04-.44.59-.44.02-.01c.12-.1.23-.2.34-.32v-.04h.04l.07-.04c.32-.3.66-.59 1-.84a4.12 4.12 0 0 1 1.83-.8ZM9.2 4.04a4.19 4.19 0 0 1 2.84.64A4.75 4.75 0 0 1 13.97 7c.08.2 0 .31-.2.37a7 7 0 0 1-1.46.23 4.18 4.18 0 0 1-2.86-1.06A20.97 20.97 0 0 1 8.3 5.52l-.3-.22.1-.46.6.48c.04.02.07.03.11.02.8-.2 1.54-.14 2.25.17.7.31 1.27.84 1.7 1.58.02.03.04.05.08.04l.64-.13c.01 0 .02 0 .03-.02v-.04c-.25-.45-.48-.8-.7-1.04a4.08 4.08 0 0 0-3.4-1.45l-.2-.42Zm1.43 1.79c.35.37.64.78.86 1.24.03.02.1.04.2.06.19.03.38.04.57.03.02 0 .02 0 .02-.02a3.01 3.01 0 0 0-1.65-1.31Zm-1.14-.15c-.12 0-.22.02-.3.04v.02c.22.22.45.42.69.6.32.25.68.45 1.06.59-.3-.5-.7-.9-1.17-1.21a.6.6 0 0 0-.28-.04Z" fill="url(#a)"/><path d="M9.4 4.45c-.39.04-.77.13-1.15.27-.13.04-.18.09-.16.13L8 5.3l-.33-.23a.07.07 0 0 0-.09 0A4.5 4.5 0 0 0 5.95 6.9a4.78 4.78 0 0 0 1.62 6.02c.04.02.08.02.12-.01l.04.44c0 .03 0 .03.02.02l.33-.22v.05c.3.13.6.22.91.28v.45a4.13 4.13 0 0 1-1.32-.45.16.16 0 0 0-.15 0c-.38.2-.78.21-1.2.06a3.09 3.09 0 0 1-1.75-1.7A6.35 6.35 0 0 1 4 9.33v-.6c.05-1.13.31-2.1.78-2.94a3.29 3.29 0 0 1 1.2-1.2c.55-.3 1.08-.32 1.58-.06h.05l.29-.13c.41-.2.85-.32 1.3-.37l.2.42Zm-2.3.37a1.32 1.32 0 0 0-.8.1c-.65.3-1.14.86-1.47 1.72-.28.7-.41 1.48-.41 2.36 0 .87.13 1.66.4 2.36.34.85.83 1.43 1.48 1.72.26.12.53.15.8.1l.01-.01v-.02A5.2 5.2 0 0 1 5.06 9a5.21 5.21 0 0 1 2.03-4.18Z" fill="#F65617"/><path d="m8.65 5.88-.07.02c-.63.28-1.12.7-1.47 1.29-.33.54-.5 1.14-.5 1.8 0 .65.16 1.25.49 1.8a3.18 3.18 0 0 0 1.54 1.32v.04a4.35 4.35 0 0 1-.37.32l-.01-.02a3.7 3.7 0 0 1-2-2.77 3.87 3.87 0 0 1 2.03-4.16c.14.1.27.21.37.33v.03Z" fill="#F76216"/><path d="M10.63 5.83c.35.37.64.78.86 1.24a1.1 1.1 0 0 1-.55-.14c-.3-.5-.7-.9-1.17-1.21.3-.06.58-.02.86.11Z" fill="#F65617"/><path d="M12.67 11.02c-.2.33-.42.62-.7.86-.79.71-1.71 1-2.76.85l-.47-.09.43-.37a.9.9 0 0 0 .62 0c.26.03.43.03.52 0l.28-.08c.7-.22 1.25-.65 1.66-1.28.15 0 .3.04.42.1Z" fill="#F97616"/><path d="M11.5 10.92c-.24.5-.55.92-.9 1.27l-.29.09c-.09.02-.26.02-.52 0 .48-.32.86-.73 1.15-1.22.15-.06.32-.11.5-.14a.1.1 0 0 1 .06 0Z" fill="#F65617"/><defs><linearGradient id="a" x1="13.68" y1="9.62" x2="8.83" y2="9.34" gradientUnits="userSpaceOnUse"><stop stop-color="#FFC21B"/><stop offset="1" stop-color="#F65617"/></linearGradient></defs></svg>