<!-- by TradingView --><svg width="18" height="18" viewBox="0 0 18 18" xmlns="http://www.w3.org/2000/svg"><path fill="#F0F3FA" d="M0 0h18v18H0z"/><path d="M7.24 14H6.07c-.02 0-.03-.02-.05-.03L6 13.92v-1.85l.02-.05.05-.02h1.16v2Z" fill="url(#a)"/><path d="M10.35 12h1.61l.02.02a.07.07 0 0 1 .02.04v1.88c0 .01 0 .03-.02.04a.06.06 0 0 1-.04.02h-4.7l-.01-2h3.12Z" fill="url(#b)"/><path d="M7.46 3.38a3.27 3.27 0 0 1 2.37-.27 5.07 5.07 0 0 1 3 2.78 10.33 10.33 0 0 1 1.15 5.1.06.06 0 0 1-.04.01h-1.52a.54.54 0 0 1-.2 0 .07.07 0 0 1-.06-.08 9.2 9.2 0 0 0-1.3-4.76c-.32-.48-.7-.86-1.16-1.14A1.47 1.47 0 0 0 8.34 5c-.26.13-.55.38-.87.75a8 8 0 0 0-1.58 4.2l-.04 1a.06.06 0 0 1-.06.05H4.04a.04.04 0 0 1-.04-.04c0-.75.06-1.48.16-2.18.31-2.18 1.25-4.22 3.3-5.4Z" fill="url(#c)"/><defs><linearGradient id="a" x1="4" y1="12.33" x2="14" y2="12.3" gradientUnits="userSpaceOnUse"><stop stop-color="#315950"/><stop offset="1" stop-color="#E8B643"/></linearGradient><linearGradient id="b" x1="4" y1="12.33" x2="14" y2="12.3" gradientUnits="userSpaceOnUse"><stop stop-color="#315950"/><stop offset="1" stop-color="#E8B643"/></linearGradient><linearGradient id="c" x1="4" y1="12.33" x2="14" y2="12.3" gradientUnits="userSpaceOnUse"><stop stop-color="#315950"/><stop offset="1" stop-color="#E8B643"/></linearGradient></defs></svg>