<!-- by TradingView --><svg width="18" height="18" viewBox="0 0 18 18" xmlns="http://www.w3.org/2000/svg"><path fill="url(#a)" d="M0 0h18v18H0z"/><path d="M5.75 11a4.2 4.2 0 0 1-.08-1V8c0-.49.03-.82.08-1 .3-1.04 1.16-1.55 2.2-1.58l.03-.01.02-.04V4.04a.05.05 0 0 0-.02-.03.04.04 0 0 0-.03-.01C4.98 4.01 4 6.36 4 9c0 2.65.98 4.99 3.96 5l.03-.01.01-.04v-1.32l-.01-.04a.05.05 0 0 0-.04-.01c-1.04-.02-1.9-.54-2.2-1.58Zm4.3 3c2.97-.01 3.95-2.36 3.95-5s-.98-4.99-3.96-5a.04.04 0 0 0-.03.01.04.04 0 0 0-.01.03v1.33l.01.04.04.01c1.04.02 1.9.54 2.2 1.58.04.18.08.51.08 1v2c0 .49-.04.82-.09 1-.3 1.04-1.15 1.56-2.19 1.58l-.03.01-.02.04v1.32a.05.05 0 0 0 .01.04h.02l.01.01Z" fill="#FFD200"/><defs><linearGradient id="a" x1="3.35" y1="3.12" x2="21.9" y2="24.43" gradientUnits="userSpaceOnUse"><stop stop-color="#1A1E21"/><stop offset="1" stop-color="#06060A"/></linearGradient></defs></svg>