<!-- by TradingView --><svg width="56" height="56" viewBox="0 0 56 56" xmlns="http://www.w3.org/2000/svg"><path fill="#F0F3FA" d="M0 0h56v56H0z"/><path d="M14 29V16.87c0-1.59 1.36-2.87 3.05-2.87h5.97v.97h-.19c-.44 0-.83.34-.83.76V29h-8Zm28 0V16.87c0-1.59-1.36-2.87-3.05-2.87h-5.97v.97h.19c.44 0 .83.34.83.76V29h8ZM23.96 14.82c0-.45.4-.82.89-.82h6.23c.49 0 .88.37.88.82V29h-8V14.82ZM42 37H14v5h28v-5Z" fill="#018DD2"/><path fill-rule="evenodd" d="M14 30h3.48c.29 0 .52.25.52.55v2c0 .18-.08.34-.2.44.12.1.2.25.2.42v2.01c0 .3-.23.55-.52.55H14V30Zm1.63 1.18c0-.2.13-.37.29-.37.15 0 .28.16.28.37v1.14c0 .2-.13.37-.28.37-.16 0-.29-.16-.29-.37v-1.14Zm-.02 2.58c0-.2.14-.38.3-.38.17 0 .31.17.31.38v1.14c0 .2-.14.38-.3.38-.17 0-.3-.17-.3-.38v-1.14ZM19 36v-6h4v.9h-2.39v1.63H23v.87h-2.39v1.7H23v.9h-4Zm5-.03v-5.36c0-.3.25-.55.56-.55h1.23c.12.01.39.1.43.32.04-.1.17-.32.4-.32h1.7c.12.02.36.1.4.32.05-.1.18-.32.36-.32h1.36c.3 0 .56.25.56.55v5.36h-1.82V31.2a.42.42 0 0 0-.43-.41.42.42 0 0 0-.42.41v4.77h-1.71V31.2c0-.22-.19-.4-.42-.4a.41.41 0 0 0-.41.4v4.78H24ZM36 32h-1.65v-.9c0-.22-.16-.4-.36-.4-.2 0-.36.18-.36.4v3.88c0 .21.16.4.36.4.2 0 .36-.19.36-.4v-.98H36v1.57c0 .24-.18.44-.4.44h-3.2c-.22 0-.4-.2-.4-.44v-5.12c0-.24.18-.44.4-.44h3.2c.22 0 .4.2.4.44v1.55Zm.5-1.55c0-.24.22-.44.5-.44h4c.28 0 .5.2.5.44v5.12c0 .24-.22.44-.5.44h-4c-.28 0-.5-.2-.5-.44v-5.12Zm2 .64c0-.2.22-.38.5-.38s.5.17.5.38v3.84c0 .2-.22.38-.5.38s-.5-.17-.5-.38v-3.84Z" fill="#2B2A29"/></svg>