<!-- by TradingView --><svg width="18" height="18" viewBox="0 0 18 18" xmlns="http://www.w3.org/2000/svg"><path fill="#F0F3FA" d="M0 0h18v18H0z"/><path d="M10.5 7.2 12 8.72l-.1.1-.11.11-1.33-1.34-1.28 3.3-.16-.1L7.05 9.5l.08-.13.08-.12 1.81 1.18 1.23-3.17.09-.22.16.17Z" fill="#7D71A8"/><path d="M10 4a5 5 0 1 1 0 10 5 5 0 0 1 0-10Zm0 .32a4.68 4.68 0 1 0 0 9.36 4.68 4.68 0 0 0 0-9.36Z" fill="#333573"/><circle cx="4" cy="6" r="1" fill="#104CAD"/><path d="m3.66 5.8-.07-.1c-.03-.06-.03-.12.01-.16l.03-.02a.8.8 0 0 1 .64.05c.16.08.27.2.33.36a2.23 2.23 0 0 1 .09.35c-.02.2-.1.36-.27.49a.67.67 0 0 1-.74.07c-.1-.05-.19-.13-.27-.17a.14.14 0 0 1-.07-.08l-.02-.1a.02.02 0 0 1 0-.02.02.02 0 0 1 .03 0 .8.8 0 0 0 .38.1.03.03 0 0 0 .02-.02c0-.1 0-.21-.02-.35a.6.6 0 0 1 .06-.24.04.04 0 0 0 0-.04l-.13-.12Z" fill="#003299"/><path d="m3.6 5.7.06.1-.19.04-.02.02-.1.13v.03c0 .14.04.28.12.4a.02.02 0 0 0 .04-.02c-.05-.2 0-.38.18-.5a.04.04 0 0 1 .04 0c.05 0 .05.04.03.1-.06.18-.03.37-.04.53a.02.02 0 0 1 0 .01.02.02 0 0 1-.02 0c-.34-.06-.42-.15-.5-.5v-.02l.16-.33a.03.03 0 0 1 .03-.01l.2.02Z" fill="#02A2DA"/><path d="M3.68 6.27c-.03-.05-.08-.07-.11-.05-.03.02-.03.08 0 .13.04.04.09.07.12.05.03-.02.03-.08 0-.13Z" fill="#0FEAE7"/><ellipse cx="12.54" cy="9.5" rx="1.54" ry="1.5" fill="#104CAD"/><path d="m12.01 9.2-.1-.15c-.05-.1-.05-.18.01-.24a.1.1 0 0 1 .05-.03c.34-.11.67-.09.99.07.24.13.4.3.5.55a3.28 3.28 0 0 1 .14.52.96.96 0 0 1-.42.73c-.36.27-.73.3-1.14.12-.15-.08-.28-.2-.41-.27a.21.21 0 0 1-.1-.12l-.04-.14a.03.03 0 0 1 0-.04.04.04 0 0 1 .05 0 1.27 1.27 0 0 0 .59.17.04.04 0 0 0 .02-.03v-.01c.01-.15 0-.32-.02-.53 0-.07.02-.19.09-.36a.06.06 0 0 0-.02-.06l-.19-.18Z" fill="#003299"/><path d="m11.91 9.05.1.15-.28.06a.07.07 0 0 0-.04.03l-.14.2a.08.08 0 0 0-.02.04 1 1 0 0 0 .2.6h.06v-.03c-.09-.31 0-.56.27-.75a.07.07 0 0 1 .06-.01c.08.02.08.08.06.16-.1.27-.06.55-.07.8a.03.03 0 0 1-.04.02c-.52-.1-.63-.23-.77-.75v-.04l.26-.5.02-.01h.02l.31.03Z" fill="#02A2DA"/><circle cx="9" cy="11" r="1" fill="#104CAD"/><path d="m8.66 10.8-.07-.1c-.03-.06-.03-.12.01-.16l.03-.02a.8.8 0 0 1 .64.05c.16.08.27.2.33.36a2.22 2.22 0 0 1 .09.35c-.02.2-.1.36-.27.49a.67.67 0 0 1-.74.07c-.1-.05-.19-.13-.27-.17a.14.14 0 0 1-.07-.08l-.02-.1a.02.02 0 0 1 0-.02.02.02 0 0 1 .03 0 .81.81 0 0 0 .38.1.03.03 0 0 0 .02 0v-.02c0-.1 0-.21-.02-.35a.6.6 0 0 1 .06-.24v-.04l-.13-.12Z" fill="#003299"/><path d="m8.6 10.7.06.1-.19.04-.02.02-.1.13v.03c0 .14.04.28.12.4a.02.02 0 0 0 .04 0v-.02c-.05-.2 0-.38.18-.5a.04.04 0 0 1 .04 0c.05 0 .05.04.03.1-.06.18-.03.37-.04.53a.02.02 0 0 1 0 .01.02.02 0 0 1-.02 0c-.34-.06-.42-.15-.5-.5v-.02l.16-.33a.03.03 0 0 1 .03-.01l.2.02Z" fill="#02A2DA"/><path d="M8.68 11.27c-.03-.05-.08-.07-.11-.05-.03.02-.03.08 0 .13.04.04.09.07.12.05.03-.02.03-.08 0-.13Z" fill="#0FEAE7"/><circle cx="10" cy="7" r="1" fill="#104CAD"/><path d="m9.66 6.8-.07-.1c-.03-.06-.03-.12.01-.16l.03-.02a.8.8 0 0 1 .64.05c.16.08.27.2.33.36a2.22 2.22 0 0 1 .09.35c-.02.2-.1.36-.27.49a.67.67 0 0 1-.74.07c-.1-.05-.19-.13-.27-.17a.14.14 0 0 1-.07-.08l-.02-.1a.02.02 0 0 1 0-.02.02.02 0 0 1 .03 0 .8.8 0 0 0 .38.1.03.03 0 0 0 .02-.02c0-.1 0-.21-.02-.35a.6.6 0 0 1 .06-.24.04.04 0 0 0 0-.04l-.13-.12Z" fill="#003299"/><path d="m9.6 6.7.06.1-.19.04-.02.02-.1.13v.03c0 .14.04.28.12.4a.02.02 0 0 0 .04-.02c-.05-.2 0-.38.18-.5a.04.04 0 0 1 .04 0c.05 0 .05.04.03.1-.06.18-.03.37-.04.53a.02.02 0 0 1 0 .01.02.02 0 0 1-.02 0c-.34-.06-.42-.15-.5-.5v-.02l.16-.33a.03.03 0 0 1 .03-.01l.2.02Z" fill="#02A2DA"/><path d="M9.68 7.27c-.03-.05-.08-.07-.11-.05-.03.02-.03.08 0 .13.04.04.09.07.12.05.03-.02.03-.08 0-.13Z" fill="#0FEAE7"/><path d="M6.3 9.7a1 1 0 1 1 1.4-1.4 1 1 0 0 1-1.4 1.4Z" fill="#104CAD"/><path d="m7.38 8.9.12.03c.07.01.1.05.1.11v.04a.8.8 0 0 1-.49.42.68.68 0 0 1-.49-.03 2.22 2.22 0 0 1-.3-.18.64.64 0 0 1-.16-.54c.04-.29.2-.48.47-.57.1-.04.22-.05.32-.07.03-.01.07 0 .1.01l.09.05a.02.02 0 0 1 0 .02.02.02 0 0 1-.01.02.8.8 0 0 0-.35.2.03.03 0 0 0 0 .02c.07.08.16.15.26.24.04.03.09.1.14.2l.01.03h.19Z" fill="#003299"/><path d="m7.5 8.93-.12-.03.1-.16.01-.03-.03-.16-.01-.02a.68.68 0 0 0-.37-.2.02.02 0 0 0-.02.05c.19.1.27.26.23.47a.04.04 0 0 1-.02.03c-.05.03-.08 0-.1-.05-.09-.17-.24-.28-.35-.4a.02.02 0 0 1 0-.02.02.02 0 0 1 0-.01c.3-.2.4-.18.71 0l.02.02.12.35a.03.03 0 0 1-.01.03l-.16.13Z" fill="#02A2DA"/><path d="M7.03 8.58c.06.02.11 0 .12-.04 0-.04-.04-.07-.1-.09-.05 0-.1.01-.11.05 0 .04.03.07.1.08Z" fill="#0FEAE7"/></svg>