<!-- by TradingView --><svg width="18" height="18" viewBox="0 0 18 18" xmlns="http://www.w3.org/2000/svg"><path fill="#F0F3FA" d="M0 0h18v18H0z"/><path d="M8.78 3A6.15 6.15 0 0 1 15 9c0 3.31-2.84 6-6.22 6-1.84 0-3.5-.8-4.61-2.06a.43.43 0 0 1 .03-.6c.2-.2.54-.16.72.05A5.19 5.19 0 0 0 8.8 14c2.86 0 5.2-2.2 5.2-5s-2.36-5-5.22-5c-1.56 0-2.96.6-3.91 1.68-.19.2-.52.24-.73.05a.43.43 0 0 1-.04-.6A6.15 6.15 0 0 1 8.78 3Z" fill="#4EAE3B"/><path d="M8.82 4.2A4.85 4.85 0 0 1 13.7 9a4.85 4.85 0 0 1-5.29 4.78.44.44 0 0 1-.4-.45c0-.3.28-.52.58-.5l.23.01c2.15 0 3.91-1.72 3.91-3.84a3.88 3.88 0 0 0-3.9-3.84c-1.34 0-2.52.67-3.22 1.69-.14.2-.4.3-.64.2-.26-.1-.38-.4-.23-.64A4.86 4.86 0 0 1 8.82 4.2Z" fill="#242E55"/><path d="M8.83 5.4a3.71 3.71 0 0 1 3.67 3.62 3.7 3.7 0 0 1-3.69 3.58c-1.16 0-2.2-.63-2.85-1.48a.42.42 0 0 1 .02-.53c.23-.27.67-.21.9.05.47.54 1.16.95 1.93.95 1.4 0 2.67-1.18 2.67-2.57a2.7 2.7 0 0 0-2.8-2.6C8.33 6.42 8 6.2 8 5.86c0-.22.16-.41.38-.44.14-.02.3-.03.44-.03Z" fill="#F7A707"/><path d="M8.65 7c.65 0 1.18.47 1.18 1.05 0 .46-.33.85-.8.99.47.18.82.64.82 1.07v.76H10V11H8.75V9.3c0-.22-.34-.2-.48-.2H8V11H7V7h1.65ZM8 9h.25c.28 0 .5-.2.5-.45v-.98c0-.24-.22-.44-.5-.44H8V9Z" fill="#242E55"/></svg>