<!-- by TradingView --><svg width="56" height="56" viewBox="0 0 56 56" xmlns="http://www.w3.org/2000/svg"><path fill="#F0F3FA" d="M0 0h56v56H0z"/><path d="M20.57 20.1a6.04 6.04 0 0 1-2.36-4.73c-.01-.11 0-.3.04-.54.07-.42.25-.77.54-1.04.25-.25.61-.44 1.07-.58a6.6 6.6 0 0 1 3-.08c.22.03.43.07.63.12 1.2.3 1.93.5 2.17.58a21.55 21.55 0 0 1 2.19.95l1.58.89c.17.1.37.23.6.4l1.9 1.5c.38.3.66.56.86.77l.83.88c.05.06.12.1.18.13.03.01.05 0 .07 0 .1-.06.19-.13.29-.23.71-.68 1.47-1.4 2.28-2.13.2-.18.36-.36.51-.55.03-.03.02-.06-.02-.08a176.8 176.8 0 0 0-4.15-1.09c-.04 0-.05-.03-.01-.06l.9-.85c.1-.09.2-.12.33-.08A258.03 258.03 0 0 0 39 15.49l.02.03v.04l-5.65 5.52c-.32.31-.63.58-.91.8-.55.4-1.65 1.24-3.3 2.5-.42.31-.78.56-1.08.73l-3.88 2.2c-.32.18-.54.3-.68.35l-2.46.98c-.45.18-.83.31-1.17.4l-1.73.4a16.22 16.22 0 0 1-2.36.22 8.64 8.64 0 0 1-3.36-.74 2.9 2.9 0 0 1-.7-.4c-.2-.18-.38-.4-.52-.66-.28-.52-.28-1.1.01-1.75.23-.5.53-.95.9-1.35.73-.79 1.47-1.42 2.22-1.91.25-.17.75-.47 1.5-.9.49-.28.92-.5 1.3-.65l1.49-.63a35.57 35.57 0 0 0 1.9-.48c.05-.01.06-.04.04-.09Z"/><path d="M24.76 21.33c.02-.02.02-.04 0-.05a12.94 12.94 0 0 1-2.26-1.92 7.8 7.8 0 0 1-1.18-1.58 3.04 3.04 0 0 1-.43-1.63c.04-.62.34-1.06.91-1.32a4.4 4.4 0 0 1 1.75-.38c.73-.02 1.47.1 2.24.33a17.62 17.62 0 0 1 2.8 1.17 26.6 26.6 0 0 1 4.6 3.08c.16.13.3.27.45.41v.04a73.38 73.38 0 0 1-2.73 2.27 36.03 36.03 0 0 1-3.95 2.63c-1.13.65-2.34 1.2-3.63 1.68l-1.75.6-2.16.6c-.6.16-1.05.26-1.34.3-.46.04-.92.05-1.37.01-.73-.06-1.2-.27-1.42-.62-.17-.28-.17-.61.01-.98.17-.34.4-.66.67-.95a7.27 7.27 0 0 1 1.83-1.45c.7-.38 1.52-.73 2.45-1.04a33.6 33.6 0 0 1 4.51-1.2Z" fill="url(#a)"/><path d="M34.85 34.75a.59.59 0 0 0-.1.22l-.36 1.42c-.03.1-.14.35-.33.76l-.35.75c-.25.55-.4.89-.48 1-.59.96-.96 1.56-1.13 1.8-.5.75-1.1 1.43-1.76 2.04-.48.44-.92.76-1.33.96-.55.27-1.07.36-1.59.27-.3-.05-.58-.19-.83-.4-.25-.2-.44-.45-.57-.74a8.47 8.47 0 0 1-.7-4.9c.01-.26.07-.6.18-1l.42-1.69c.07-.3.19-.63.34-.99l1.14-2.64c.08-.2.2-.42.36-.7 1.02-1.7 1.84-3.08 2.47-4.1l.33-.45a233.97 233.97 0 0 1 3.34-4.12c.62-.64 1.6-1.6 2.96-2.9a1626.47 1626.47 0 0 1 2.97-2.91c.06-.06.1-.05.11.02l1.15 5.1c0 .03 0 .06-.02.08-.3.34-.61.66-.93.95a.08.08 0 0 1-.08.01.08.08 0 0 1-.06-.05 504.7 504.7 0 0 0-.96-3.99c-.02-.07-.07-.1-.14-.09-.04 0-.1.04-.15.1l-2.72 2.8a.21.21 0 0 0-.06.16c0 .06.02.1.06.15l.54.5c.46.41.86.86 1.23 1.34.54.7 1 1.31 1.37 1.83.18.23.32.44.42.63l1 1.85a11.65 11.65 0 0 1 1.08 3.22 10.43 10.43 0 0 1 .29 3.72c-.03.35-.09.64-.17.87-.25.73-.69 1.19-1.3 1.36-.42.12-.86.13-1.33.03-.44-.1-.8-.22-1.1-.36-.63-.3-1.22-.64-1.79-1.05l-1.23-.89a.13.13 0 0 0-.1-.02.13.13 0 0 0-.09.05Z"/><path d="m33.83 30.54-.02.03c-.09.45-.18.85-.27 1.2l-.49 1.78c-.14.52-.47 1.41-.99 2.68a9.79 9.79 0 0 1-1.63 2.53c-.42.46-.9.8-1.45 1.05-.14.07-.3.1-.45.11a.76.76 0 0 1-.74-.38c-.1-.16-.17-.33-.2-.49a6.46 6.46 0 0 1 .17-3.2l.46-1.53a28.04 28.04 0 0 1 .47-1.43 26.45 26.45 0 0 1 2.52-5.32c.71-1.14 1.5-2.22 2.35-3.27.75-.91 1.52-1.8 2.29-2.64.02-.02.04-.02.06 0a23.45 23.45 0 0 1 3.14 4.53 17.53 17.53 0 0 1 1.38 3.29l.12.4c.15.71.22 1.38.2 2a4.1 4.1 0 0 1-.19 1.09c-.13.4-.3.72-.51.96-.31.34-.72.5-1.22.47a4.02 4.02 0 0 1-2.06-.86c-1.11-.8-2.04-1.8-2.79-3-.05-.07-.1-.08-.15 0Z" fill="url(#b)"/><defs><linearGradient id="a" x1="15.85" y1="23.82" x2="33.65" y2="23.36" gradientUnits="userSpaceOnUse"><stop offset=".39" stop-color="#5BACDA"/><stop offset="1" stop-color="#E5F5F8"/></linearGradient><linearGradient id="b" x1="34.11" y1="21.65" x2="35.47" y2="32.32" gradientUnits="userSpaceOnUse"><stop stop-color="#F7F7F7"/><stop offset="1" stop-color="#5BACDA"/></linearGradient></defs></svg>