<!-- by TradingView --><svg width="56" height="56" viewBox="0 0 56 56" xmlns="http://www.w3.org/2000/svg"><path fill="#F0F3FA" d="M0 0h56v56H0z"/><path d="M41.11 13c1.66 2.15 1.12 3.51-1.62 4.07a.39.39 0 0 0-.29.25l-1.56 4.4c-.4-.05-.7-.15-.9-.29a11.96 11.96 0 0 0 2.02-4.17.72.72 0 0 0-.1-.58l-.67-.99a.83.83 0 0 1-.1-.25c-.32-1.14 0-1.95.97-2.44h2.25Zm-2.39 1.62c-.04.27.04.54.23.77a1.32 1.32 0 0 0 1.22.42c.15-.03.29-.08.41-.16s.23-.18.3-.29a.91.91 0 0 0 .15-.37.96.96 0 0 0-.22-.77 1.32 1.32 0 0 0-1.22-.42 1.2 1.2 0 0 0-.41.16c-.13.07-.23.17-.3.28a.91.91 0 0 0-.16.38Z" fill="#269FD5"/><path d="M40.04 13.8c-.64-.11-1.23.26-1.32.82-.09.56.36 1.1 1 1.2.64.1 1.23-.27 1.31-.83.1-.56-.35-1.1-1-1.2Z" fill="#CCEEFC"/><path d="M28.96 20.05c-.47-.16-.85-.2-1.14-.08a.64.64 0 0 0-.34.3c-.22.4-.61.56-1.12.59-.39.01-.6.22-.6.6a.25.25 0 0 1-.25.24h-2.75a.25.25 0 0 1-.24-.2v-.1l.15-.63a.4.4 0 0 1 .18-.25 2.6 2.6 0 0 1 1.97-.35.22.22 0 0 0 .25-.12.22.22 0 0 0 .02-.1v-.27c0-.27.09-.53.25-.74.42-.53.72-1.08.92-1.63.06-.17.16-.3.29-.42 1.1-.9 3.2-.47 2.96 1.25l-.23 1.73a.24.24 0 0 1-.32.18Zm-1.32-2.67a.64.64 0 0 0-.25.14.72.72 0 0 0-.18.23c-.04.1-.07.2-.08.3a.93.93 0 0 0 .4.82c.08.06.17.1.27.11a.64.64 0 0 0 .53-.15.72.72 0 0 0 .18-.23.92.92 0 0 0-.31-1.12.72.72 0 0 0-.28-.11.64.64 0 0 0-.28.01Z" fill="#568DA2"/><path d="M24.7 17.68c.27-.29.28-.7.03-.92-.24-.23-.65-.17-.9.11-.27.29-.28.7-.03.93.24.22.65.17.9-.12ZM33.44 17.25c-.03-.19-.15-.32-.27-.3-.13.02-.2.19-.17.38s.16.32.28.3c.12-.02.19-.19.16-.38ZM19.76 17a.14.14 0 0 1 .08-.01c.03 0 .06.02.08.04a.2.2 0 0 1 .05.09v.1c-.02.1-.05.16-.11.17-.03 0-.06 0-.09-.02a.19.19 0 0 1-.07-.05.21.21 0 0 1-.04-.18c.02-.08.05-.12.1-.14Z" fill="#7E7F7F"/><path d="M28.55 17.98c-.12-.44-.53-.7-.91-.6-.39.11-.6.55-.47.99.12.44.53.7.91.6.38-.11.6-.55.47-1Z" fill="#CCEEFC"/><path d="M22.95 20.14c.3-.58.1-1.27-.43-1.55s-1.2-.04-1.5.54c-.3.57-.11 1.27.42 1.55.53.27 1.2.03 1.5-.54Z" fill="#7E7F7F"/><path d="M33.05 22.26c-2.05 1.56-2.64 3.66-1.76 6.32-.23-.06-.37.04-.42.29a.17.17 0 0 1-.29.09.17.17 0 0 1-.05-.11 3.2 3.2 0 0 0-.67-1.87c-.29-.35-.84-.54-1.65-.56a66.8 66.8 0 0 0-5.48.09.34.34 0 0 0-.33.34v4.2a.32.32 0 0 0 .2.28c.03.02.07.03.11.03h4.79a.2.2 0 0 1 .16.08.22.22 0 0 1 .04.18l-.04.18a.36.36 0 0 0 .14.38l.13.06c.62.14.85.5.7 1.1-.2.77-.78 1.08-1.75.94a.53.53 0 0 1-.39-.27l-.33-.58a.31.31 0 0 0-.2-.16c-.25-.05-.46 0-.61.13a.26.26 0 0 0 .1.46l.86.2a.34.34 0 0 1 .25.27c.16.97-.2 1.47-1.1 1.5a2.56 2.56 0 0 1-.87-.07.14.14 0 0 0-.13.14v.73a.7.7 0 0 1-.68.7c-.92.01-1.3-.25-1.14-.8.2-.68.72-.95 1.58-.81a.16.16 0 0 0 .13-.04.17.17 0 0 0 .06-.13V35a.35.35 0 0 0-.1-.23.34.34 0 0 0-.22-.11c-.25-.02-.5.01-.73.09-.14.04-.26.21-.36.52-.23.69-.79.95-1.66.79a.26.26 0 0 0-.31.2c-.01.05 0 .13.02.24 0 .06 0 .14-.05.25-.27.75-.82.96-1.67.63a.89.89 0 0 1-.43-.35.69.69 0 0 1-.1-.5c.16-.8.62-1.09 1.4-.85a.23.23 0 0 0 .2-.03.22.22 0 0 0 .08-.18v-.48a.38.38 0 0 0-.34-.37c-.47-.04-.75.13-.85.5-.32 1.23-1.68 1.3-2.4.27a.77.77 0 0 1 .33-1.14l.93-.4a.4.4 0 0 0 .25-.33.4.4 0 0 0-.17-.37c-.2-.14-.38-.2-.56-.21-.16 0-.26.14-.3.43-.1.85-.67 1.22-1.73 1.1a.8.8 0 0 1-.52-.3c-.14-.17-.23-.4-.24-.64-.07-.94.3-1.34 1.14-1.2a.33.33 0 0 0 .4-.33v-.38a.41.41 0 0 0-.32-.4l-.91-.22a.1.1 0 0 0-.12.05.1.1 0 0 0 0 .12c.34.52.17.99-.5 1.41-.4.25-.8.26-1.2.02a1.06 1.06 0 0 1-.42-1.35c.23-.51.7-.7 1.4-.54a.19.19 0 0 0 .23-.16c0-.03 0-.07-.02-.1-.17-.37-.15-.74.05-1.1a.2.2 0 0 0 0-.2.19.19 0 0 0-.19-.08c-.78.1-1.33-.12-1.66-.67a1 1 0 0 1-.1-.79c.05-.13.11-.24.2-.33.1-.1.2-.16.32-.2 1-.32 1.9.38 1.69 1.47a.13.13 0 0 0 .03.12.14.14 0 0 0 .1.05h.74c.09 0 .17-.03.23-.09.06-.05.1-.13.1-.22a1.8 1.8 0 0 0-.1-.73.51.51 0 0 0-.28-.3l-.82-.36a.74.74 0 0 1-.34-.3 1.39 1.39 0 0 1-.03-1.36c.28-.6.91-.57 1.53-.55a.26.26 0 0 0 .2-.08.25.25 0 0 0 .07-.21c-.16-1.03.2-1.68 1.1-1.96a.5.5 0 0 1 .27-.01l.74.17a.13.13 0 0 0 .12-.03.13.13 0 0 0 .04-.13c-.29-1.32.05-2.42 1.66-2.05.16.04.3.14.4.27l.68.94a.63.63 0 0 0 .53.26l.19-.03a.31.31 0 0 1 .36.31v3.12a.41.41 0 0 0 .37.41c2.34.22 4.45.17 6.34-.13a.88.88 0 0 0 .68-.55c.52-1.3.15-2.33-1.13-3.09a.8.8 0 0 0-.28-.1l-1.15-.17a.3.3 0 0 1-.23-.17.32.32 0 0 1 0-.29c.39-.8 1.14-1.1 2.24-.87a.67.67 0 0 1 .54.66v1.15a.23.23 0 0 0 .15.22l.1.01c.38-.01.88.11 1.49.38a.2.2 0 0 0 .28-.14l.03-.12a.2.2 0 0 0-.01-.13.2.2 0 0 0-.09-.1 6.72 6.72 0 0 1-2.1-1.99.5.5 0 0 1-.03-.53l.6-1.04a.47.47 0 0 1 .32-.23c.82-.16 1.46.5 1.13 1.31-.12.32-.47.56-1.05.75a.18.18 0 0 0-.12.15.17.17 0 0 0 .1.17c.43.17.7.38.83.6a.14.14 0 0 0 .14.07.14.14 0 0 0 .11-.1c.2-.57.64-.77 1.33-.61a.37.37 0 0 1 .28.27c.06.29 0 .65-.21 1.1Zm-12.8 2.9a.83.83 0 0 0-.7-.2c-.27.03-.54.17-.76.4-.2.21-.34.49-.37.77-.03.27.06.52.23.69.18.17.43.25.7.21.27-.04.54-.18.76-.4.2-.22.34-.5.37-.77a.84.84 0 0 0-.23-.7ZM17.9 19.58c-.05-.23-.25-.38-.44-.33-.2.04-.31.26-.26.5.05.22.25.37.44.33.2-.04.31-.27.26-.5ZM35.2 19.58c-.02-.19-.12-.33-.24-.32-.11 0-.2.17-.18.35.02.19.12.33.24.32.11-.01.2-.17.18-.35ZM15.8 21.52c-.22-.25-.57-.3-.77-.11-.2.18-.18.54.05.79.23.24.58.3.78.11.2-.19.18-.54-.05-.79Z" fill="#7E7F7F"/><path d="M36.74 21.43c.2.14.5.24.9.28a4.97 4.97 0 0 1 3.13 4.42 5.87 5.87 0 0 1-1.05 3.2c-.1.17-.23.3-.4.39A5.54 5.54 0 0 1 35 31.14c-.1.13-.27.1-.49-.09l-2.17-1.23a2.8 2.8 0 0 0-.78-.8.63.63 0 0 0-.26-.44c-.88-2.66-.3-4.76 1.76-6.32a5.3 5.3 0 0 1 3.69-.83ZM35.5 26.4c.19-.02.3 0 .33.05l2.5-.08a.3.3 0 0 0 .3-.25l-.01-.14c-.33-1.09-.82-1.82-1.48-2.21-1.66-.97-3.74.18-4.06 2.04a2.74 2.74 0 0 0 3.14 3.23 3.37 3.37 0 0 0 2.29-1.56l-.01-.01-.15-.09a.12.12 0 0 0-.08-.02.13.13 0 0 0-.07.04c-.82.78-1.53 1.43-2.55 1.34a.35.35 0 0 1-.31-.25c-.2-.73-.15-1.43.16-2.1Z" fill="#ED0607"/><path d="M24.34 23.83a.5.5 0 0 1 .5-.5h2c.17 0 .34.02.5.07.14.04.28.1.4.19.12.08.2.18.27.29.06.1.1.22.1.33v.44c0 .23-.14.46-.37.62-.24.16-.56.26-.9.26h-2a.5.5 0 0 1-.5-.51v-1.2ZM13.83 23.9c-.15-.25-.42-.37-.62-.26-.2.1-.23.4-.08.67.15.26.43.38.62.27.2-.1.23-.41.08-.67Z" fill="#7E7F7F"/><path d="m35.86 26.23-.39-.03a2.6 2.6 0 0 1-.12-2.14.6.6 0 0 1 .56-.36.6.6 0 0 1 .55.38c.15.4.2.87.16 1.45-.04.53-.3.77-.76.7Z" fill="#ED0607"/><path d="M40.77 26.13c0-.19-.01-.32-.05-.4L46 25.7a.63.63 0 0 0 .58-.41c.33-.89.9-1.67 1.96-1.46 2.38.49 1.7 3.9-.83 3.27a.93.93 0 0 1-.39-.2l-.81-.69a.67.67 0 0 0-.46-.17l-5.27.1Zm7.3-1.79-.94 1.2a.11.11 0 0 0-.02.08.11.11 0 0 0 .04.08l.63.5a1.04 1.04 0 0 0 .68.22c.12 0 .23-.04.33-.09.1-.05.18-.12.25-.2l.05-.06a.76.76 0 0 0 .14-.3.84.84 0 0 0 0-.34 1.05 1.05 0 0 0-.37-.6l-.63-.5a.1.1 0 0 0-.15.01Z" fill="#269FD5"/><path d="M48.08 24.34a.1.1 0 0 1 .15-.02l.64.5a1.05 1.05 0 0 1 .37.61c.02.12.01.23-.01.34a.76.76 0 0 1-.14.3l-.05.06a.76.76 0 0 1-.25.2.84.84 0 0 1-.33.1c-.12 0-.24-.02-.35-.06-.12-.03-.23-.1-.32-.17l-.64-.5a.1.1 0 0 1-.02-.16l.95-1.2ZM20.1 26.63c.45-.46.51-1.11.15-1.47-.36-.35-1.01-.27-1.46.2-.44.45-.5 1.1-.14 1.46.36.35 1.02.27 1.46-.19Z" fill="#CCEEFC"/><path d="M11.88 26.1c.03-.2-.09-.4-.25-.41-.17-.03-.33.12-.36.33-.03.21.08.4.25.43.17.02.33-.13.36-.34ZM35.86 26.23c-.03.03-.04.11-.02.22-.03-.05-.14-.07-.33-.05.04-.17.02-.24-.04-.2l.4.03ZM24.37 27.44a.24.24 0 0 1 .25-.25l2.55-.01a1.3 1.3 0 0 1 .89.34 1.2 1.2 0 0 1 .37.86v.11c0 .32-.13.63-.36.86-.24.23-.55.36-.89.36l-2.55.02a.24.24 0 0 1-.24-.25l-.02-2.04ZM9.74 28.2c.11-.03.17-.12.15-.2-.03-.1-.14-.13-.25-.1-.1.04-.17.14-.14.22.03.08.14.12.24.09ZM32.33 29.82c-.46.49-.88.65-1.25.49a.4.4 0 0 1-.23-.36v-.45a.19.19 0 0 1 .08-.15.19.19 0 0 1 .17-.03c.27.09.42-.01.45-.3.36.26.62.52.78.8ZM12.33 29.26l-.33-.11a.7.7 0 0 0-.88.45l-.04.11a.7.7 0 0 0 .45.9l.33.1a.7.7 0 0 0 .88-.44l.04-.12a.7.7 0 0 0-.45-.89Z" fill="#7E7F7F"/><path d="m39.72 29.33 3.56 3.17a.54.54 0 0 0 .58.09c1.06-.49 1.88-.28 2.44.6a.8.8 0 0 1 .1.27c.6 2.63-2.84 3.21-3.32.7a.58.58 0 0 1 0-.26l.18-.73a.47.47 0 0 0-.17-.48l-3.76-2.97c.16-.08.29-.22.39-.4Zm6.05 4.71a.97.97 0 0 0-.96-.96.96.96 0 0 0-.96.96.97.97 0 0 0 .96.97.96.96 0 0 0 .96-.97Z" fill="#269FD5"/><path d="M29.97 30.45a.32.32 0 0 1 .44.13l.03.06c.09.16.14.32.17.49.02.17.02.34-.02.5-.03.15-.1.3-.19.42a1 1 0 0 1-.33.3l-.13.07a1 1 0 0 1-.43.12c-.16 0-.31-.02-.46-.08-.15-.06-.3-.14-.42-.26a1.5 1.5 0 0 1-.32-.4l-.03-.07a.32.32 0 0 1 .13-.43l1.56-.85Z" fill="#7E7F7F"/><path d="m35 31.14-1.8 3.95a.37.37 0 0 0 .06.39c2.16 2.47-.65 5.42-2.8 3.29-1.23-1.22-.25-3.61 1.5-3.53.24 0 .42 0 .56-.05a.57.57 0 0 0 .21-.1c.06-.06.1-.12.14-.2l1.63-3.84c.22.2.38.22.5.09Zm-2 6.18a1 1 0 0 0-1-1 1 1 0 0 0-1 1 1 1 0 0 0 1 1.01 1 1 0 0 0 1-1Z" fill="#269FD5"/><path d="M10.12 32.35a.56.56 0 1 0 0-1.13.56.56 0 0 0 0 1.13ZM12.25 34.38a.93.93 0 1 0 0-1.85.93.93 0 0 0 0 1.85ZM31.3 32.96c-.16-.08-.33-.04-.4.08-.07.13 0 .3.16.38.15.08.33.04.4-.08.06-.13 0-.3-.16-.38Z" fill="#7E7F7F"/><path d="M44.81 35.01a.96.96 0 1 0 0-1.93.96.96 0 0 0 0 1.93Z" fill="#CCEEFC"/><path d="M8.46 33.84a.33.33 0 1 0 0-.65.33.33 0 0 0 0 .65ZM14.36 36.02c.6-.05 1.05-.52 1-1.04-.04-.52-.56-.9-1.16-.85-.6.05-1.04.51-1 1.03.05.53.57.9 1.16.86ZM29.15 35.2a.41.41 0 1 0 0-.83.41.41 0 0 0 0 .82ZM10.6 35.7c.42-.02.75-.3.73-.62-.03-.31-.39-.54-.81-.51-.43.03-.76.3-.73.62.02.31.38.55.8.52ZM16.52 35.8l-.5-.01a.77.77 0 0 0-.78.76v.19c0 .42.33.77.76.77h.5c.43.01.78-.33.78-.76v-.18a.77.77 0 0 0-.76-.78ZM12.57 36.02c-.48 0-.86.32-.85.7 0 .38.4.68.87.67.47 0 .86-.32.85-.7 0-.38-.4-.68-.87-.67ZM27.23 36.1c-.23 0-.4.12-.4.29 0 .16.17.3.4.3.22 0 .4-.14.4-.3 0-.17-.18-.3-.4-.3Z" fill="#7E7F7F"/><path d="M32 38.33a1 1 0 1 0 0-2 1 1 0 0 0 0 2Z" fill="#CCEEFC"/><path d="M9.04 37.05c.23-.11.35-.33.28-.5-.08-.15-.33-.2-.56-.08-.23.11-.35.33-.28.5.08.15.33.2.56.08ZM18.16 37.42c-.52-.02-.95.28-.97.68-.02.4.38.75.9.77.52.03.96-.28.98-.68.02-.4-.4-.75-.91-.77ZM21.92 38.64c.44-.16.7-.56.57-.9-.12-.33-.58-.47-1.01-.3-.44.15-.7.56-.57.89.12.33.57.47 1.01.31ZM14.76 37.56l-.4-.04a.59.59 0 0 0-.65.53l-.01.13a.6.6 0 0 0 .53.64l.4.04c.33.04.62-.2.65-.53l.01-.13a.6.6 0 0 0-.53-.64ZM25.34 37.71c-.18-.05-.35 0-.4.14-.03.13.08.27.26.33.18.05.36 0 .4-.13.03-.13-.08-.28-.26-.34ZM10.95 37.88c-.31-.05-.6.1-.63.32-.04.23.18.46.5.5.31.06.6-.08.63-.31.04-.23-.18-.46-.5-.5ZM7.44 38.61c.14-.07.2-.21.15-.32-.05-.1-.2-.13-.34-.06s-.2.21-.15.32c.05.1.2.13.34.06ZM16.42 39.04c-.4 0-.73.25-.73.56 0 .3.32.56.73.56.4 0 .73-.25.73-.55 0-.31-.32-.56-.73-.57ZM20 40.05c.35-.04.6-.3.57-.59-.03-.29-.33-.49-.68-.45-.34.04-.6.3-.57.6.04.28.34.48.69.44ZM23.48 39.2c-.13-.05-.27.01-.3.13-.04.11.04.24.18.28.13.04.27-.02.3-.13.04-.12-.04-.25-.18-.29ZM12.85 40.18c.33 0 .6-.2.6-.45s-.27-.45-.6-.45c-.34 0-.61.2-.61.46 0 .24.27.44.6.44ZM9.31 39.52c-.2-.03-.37.07-.4.22-.02.15.12.3.32.32.2.04.37-.06.4-.21.02-.15-.12-.3-.32-.33ZM14.84 40.75c-.24-.04-.47.07-.5.25-.03.18.14.37.39.41.25.05.47-.07.5-.25.04-.18-.14-.36-.39-.4ZM18.35 40.74c-.22-.05-.42.05-.46.21-.03.17.12.34.34.38.22.05.42-.05.45-.21.04-.17-.11-.34-.33-.38ZM11.35 40.94c-.16-.08-.34-.06-.4.05-.05.12.03.27.2.35.15.09.33.06.38-.05.06-.11-.02-.27-.18-.35ZM13.42 42.37c-.13-.16-.32-.21-.45-.11-.12.1-.12.3 0 .46.13.15.33.2.45.1s.12-.3 0-.45Z" fill="#7E7F7F"/></svg>