<!-- by TradingView --><svg width="56" height="56" viewBox="0 0 56 56" xmlns="http://www.w3.org/2000/svg"><path fill="#F0F3FA" d="M0 0h56v56H0z"/><path fill-rule="evenodd" d="M36.9 31.53V32h2.32v-.47h-.16c-.33 0-.77-.42-.65-.73l.45-1.22h2.55l.5 1.33c.11.3-.12.62-.45.62h-.35V32h3.48v-.47h-.22a.47.47 0 0 1-.45-.3L41.26 24h-.93l-2.89 7.24a.47.47 0 0 1-.44.3h-.1Zm4.2-2.8h-1.92l.96-2.54.95 2.54ZM4.5 31.55h.03c.27 0 .47-.21.47-.47v-6.15c0-.25-.2-.46-.47-.46H4.5V24h3.28C9.12 24 10 25.04 10 26.33v.08c0 1.29-.88 2.09-2.22 2.09H6.5v2.58c0 .26.34.47.6.47h.41V32H4.5v-.45Zm2-3.55v-3.5h.32c.93 0 1.68.8 1.68 1.75 0 .96-.75 1.75-1.68 1.75H6.5Zm1.8 4v-.47h.1c.2 0 .37-.11.44-.3L11.73 24h.93l2.66 7.23c.07.18.25.3.45.3h.22V32h-3.48v-.47h.35c.33 0 .56-.32.45-.62l-.5-1.33h-2.55l-.45 1.22c-.12.3.32.73.65.73h.16V32H8.31Zm2.28-3.27h1.91l-.95-2.54-.96 2.54ZM15 24.44V24h3v.44h-.38c-.25 0-.62.2-.62.46v4.3c0 1.15 1.09 2.07 2.22 2.07a2.1 2.1 0 0 0 2.08-2.07v-4.3c0-.25-.24-.46-.49-.46h-.65V24h2.5v.44h-.48c-.12 0-.18.1-.18.23v4.6A2.75 2.75 0 0 1 19.26 32h-.6A2.68 2.68 0 0 1 16 29.27V24.9c0-.25-.24-.46-.5-.46H15Zm12.18 1.75h.48V24h-2.7c-.66.02-1.96.26-1.96 2.19.01.38.39 1.37 1.8 2.22 1.75 1.06 1.96 1.3 1.96 1.8 0 .52-.63 1.2-1.43 1.2-.8 0-1.97-1.1-1.97-1.99H23V32h2.33c.9.02 2.67-.46 2.67-2.58 0-.52-.46-1.76-2.32-2.56-.45-.2-1.35-.76-1.35-1.43 0-.84.66-1.01 1-1.01h.05c.38-.01 1.21-.02 1.8 1.77ZM31.5 24h-3.15v.5h.44c.14 0 .21.1.21.23v6.48c0 .13-.07.29-.2.29h-.51v.5h3.21v-.5h-.46c-.28 0-.54-.24-.54-.5l.02-3h3.98v2.98c0 .26-.2.52-.46.52h-.54v.5h3v-.5h-.22c-.14 0-.28-.16-.28-.29v-6.48c0-.13.14-.24.28-.24h.22V24h-3v.5h.54c.27 0 .46.2.46.46V27h-3.97l.01-2.04c0-.26.22-.47.5-.47h.46V24ZM45 24h2.5v.5h-.18c-.13 0-.32.1-.32.23v2.61h.36l2.24-2.5c.14-.14.03-.34-.18-.34H49V24h2.86v.5h-.36c-.14 0-.27.02-.36.12l-2.52 2.9 2.65 3.8c.08.13.23.18.39.18H52v.5h-3.24v-.5h.38c.18 0 .3-.17.2-.33l-1.7-2.82H47v2.86c0 .13.2.29.32.29h.18v.5H45v-.5h.17c.26 0 .33-.26.33-.52v-6.02c0-.26-.07-.47-.33-.47H45V24Z" fill="#22B431"/></svg>