<!-- by TradingView --><svg width="56" height="56" viewBox="0 0 56 56" xmlns="http://www.w3.org/2000/svg"><path fill="#F0F3FA" d="M0 0h56v56H0z"/><path d="M27.17 23.61c3.38-2.2 12.74-6.18 17.74-8.13l-4.73 16.38C37.25 41.31 28.04 41.9 23.81 41v-1.56c1.45-10.07 9.07-15.56 12.7-17.04a20.8 20.8 0 0 0-13.77 12.54l-.4-6.25c.4-.95 2.15-3.34 4.83-5.08Z" fill="#5A9D33"/><path d="M36.77 38c-1.94 4.83-5.23 8-8.97 8-5.97 0-10.74-5.44-10.8-18-.06-12.56 4.83-18 10.8-18 3.77 0 7.1 3.23 9.02 8.12L32 20.15c-.85-4.36-2.4-7.27-4.15-7.27-2.68 0-4.88 4.54-4.85 15.06.03 10.5 2.17 15.05 4.85 15.05.8 0 1.54-.59 2.2-1.64 1.8-.03 4.85-.72 6.72-3.34Z" fill="url(#aftjbo2iy)"/><defs><linearGradient id="aftjbo2iy" x1="26.91" y1="10" x2="26.91" y2="46" gradientUnits="userSpaceOnUse"><stop stop-color="#033422"/><stop offset="1" stop-color="#009936"/></linearGradient></defs></svg>