<!-- by TradingView --><svg width="56" height="56" viewBox="0 0 56 56" xmlns="http://www.w3.org/2000/svg"><path fill="#F0F3FA" d="M0 0h56v56H0z"/><path d="M19.94 23.3c.13.02.21.1.25.22.77 2.65 1.52 5.3 2.23 7.96.05.2.16.36.33.5.07.05.15.07.24.06a.3.3 0 0 0 .22-.11l11.13-13.2c.1-.12.23-.16.38-.14.15.04.25.13.29.28l2.27 7.97c.04.12.12.2.24.22.13.03.24 0 .32-.1l7.84-9.36c.54-.64.4-.86-.43-.65-1.07.26-2.21.61-3.42 1.05-.23.08-.47.1-.71.04a1.2 1.2 0 0 1-.61-.36 18.18 18.18 0 0 0-5.22-4 15.51 15.51 0 0 0-11.82-.93 18.34 18.34 0 0 0-5.72 3.03 15.06 15.06 0 0 0-5.85 11.4c-.05 1.2.01 2.62.18 4.26.03.21.15.32.36.33.15 0 .27-.05.37-.16a208.9 208.9 0 0 0 6.81-8.2.3.3 0 0 1 .32-.11Zm17.1 8.82a2.1 2.1 0 0 1-.86.62c-.12.05-.2.01-.24-.12l-2.18-8.06a.42.42 0 0 0-.34-.32.43.43 0 0 0-.45.15c-3.74 4.45-7.43 8.87-11.08 13.26-.14.16-.3.18-.46.06-.07-.04-.13-.13-.16-.26-.81-2.88-1.55-5.57-2.22-8.06a.35.35 0 0 0-.29-.27.37.37 0 0 0-.38.13l-8.12 9.63c-.44.52-.33.68.33.47l3.69-1.18a1.44 1.44 0 0 1 1.46.28c.22.18.53.5.94.93.47.5.84.86 1.1 1.06a17.35 17.35 0 0 0 11.62 3.52 16.25 16.25 0 0 0 10.82-5.16c3.32-3.6 4.68-8.12 4.1-13.56-.12-1-.5-1.11-1.16-.35-2.06 2.39-4.1 4.8-6.12 7.23Z" fill="#0CC149"/></svg>