<!-- by TradingView --><svg width="56" height="56" viewBox="0 0 56 56" xmlns="http://www.w3.org/2000/svg"><path fill="#F0F3FA" d="M0 0h56v56H0z"/><path d="M22.62 21.02a8.03 8.03 0 0 0-4.13-1.03c-1.12.03-2.18.1-3.2.2-.37.03-.4.17-.1.4.2.16.28.4.2.74a2.58 2.58 0 0 1-1.08-1.73.3.3 0 0 1 .05-.24.3.3 0 0 1 .2-.13c1.62-.25 3.27-.3 4.95-.14a4 4 0 0 1 3.1 1.93Z" fill="#201C1D"/><path d="M22.62 21.02c.24.4.39.92.44 1.52.01.18-.07.29-.25.31-2.5.4-4.87 0-7.14-1.18a.37.37 0 0 1-.17-.18.53.53 0 0 0-.1-.16c.07-.33 0-.58-.22-.75-.3-.22-.26-.36.11-.4 1.02-.1 2.08-.16 3.2-.2 1.43-.03 2.8.31 4.13 1.04Z" fill="#FDD73D"/><path d="M27.35 36.02a24.4 24.4 0 0 1 5.3.21c1.26.2 2.16.27 2.7.24 3.26-.15 6-1.5 8.21-4.04 1-1.14 1.7-2.77 2.11-4.88.34-1.74.44-3.6.32-5.58a.25.25 0 0 0-.08-.19.25.25 0 0 0-.2-.06c-5.13.36-10.51.67-16.16.92-1.51.06-2.7.25-3.57.57a8.67 8.67 0 0 0-3.7 2.69c-.28.01-.5-.14-.67-.48a8.98 8.98 0 0 1 4.13-2.95c1.36-.46 3.01-.73 4.96-.8 5.7-.22 11.38-.62 17.03-1.19.06 0 .12.01.17.05.05.05.07.1.07.16.07 1.68 0 3.25-.2 4.7a15.36 15.36 0 0 1-1.3 4.53c-.96 2-2.31 3.63-4.06 4.89-1.8 1.29-3.76 2-5.9 2.15-1.03.07-2.15.05-3.35-.07-1.93-.2-3.87-.48-5.81-.87Z" fill="#201C1D"/><path d="m27.35 36.02-7.09-.79c-.5-1.14-.48-2.3.04-3.45.43-.13.86-.11 1.27.04l-.37 2.22c-.01.07 0 .13.05.19.04.05.1.08.16.08 2.84.13 5.55.4 8.14.84 1.9.32 3.58.2 5.02-.33a6.1 6.1 0 0 0 3.58-3.43c.43-.99.69-1.97.76-2.94 0-.1-.02-.18-.08-.25a.31.31 0 0 0-.24-.1c-4.36.01-8.6-.04-12.74-.17-.6-.02-1.29.3-2.05.97a9.77 9.77 0 0 0-1.52-3 8.67 8.67 0 0 1 3.7-2.69c.86-.32 2.06-.5 3.57-.57a588.5 588.5 0 0 0 16.16-.92c.08 0 .14.02.2.06.05.05.08.11.08.19a22.4 22.4 0 0 1-.32 5.58c-.4 2.11-1.1 3.74-2.1 4.88a11.22 11.22 0 0 1-8.22 4.04 15.4 15.4 0 0 1-2.7-.24 24.4 24.4 0 0 0-5.3-.2Z" fill="#F26122"/><path d="M20 24.25c-1.03.03-2.04-.03-3.02-.2-.82-.13-1.53-.18-2.13-.16-1.8.06-3.62.14-5.44.25-.1 0-.15.06-.16.16-.1 1.34.15 2.54.76 3.62a9.92 9.92 0 0 0 2.55 2.76c-3.28-1.15-4.79-3.46-4.53-6.93 0-.11.07-.18.18-.19 2.65-.3 5.33-.48 8.03-.53a6.97 6.97 0 0 1 3.75 1.22ZM19.54 31.7c.33-.1.58-.08.76.08a4.14 4.14 0 0 0-.04 3.45c-.58.05-.9-.2-.94-.72-.08-.96-.01-1.9.22-2.81Z" fill="#201C1D"/><path d="M20 24.25c1.83 1.33 3.23 1.69 3.8 4.65l.27 2.53c0 .11-.02.2-.1.28-.09.08-.42.02-.53 0-4.03.17-6.99-.09-10.88-1.03A9.92 9.92 0 0 1 10 27.92a6.14 6.14 0 0 1-.76-3.62c.01-.1.07-.16.16-.16 1.82-.11 3.63-.2 5.44-.25.6-.02 1.31.03 2.13.17.98.16 1.99.22 3.01.2Z" fill="#8CBE3C"/><path d="m21.09 26.27-1.23 2.92c-1.74.23-3.49.13-5.25-.3a4.36 4.36 0 0 1-3.35-3.15c-.08-.25.01-.39.27-.42 2.98-.3 5.96-.17 8.94.37.15.03.36.22.62.58Z" fill="#F0F3FA"/><path d="M21.09 26.27c.22.1.42.28.6.54a4.8 4.8 0 0 0-1.04 2.35l-.79.03 1.23-2.92Z" fill="#201C1D"/><path d="M21.69 26.81a3.6 3.6 0 0 1 1.27 2.33c0 .05 0 .1-.03.14a.18.18 0 0 1-.11.07c-.73.16-1.45.1-2.17-.2.1-.8.45-1.59 1.04-2.34Z" fill="#F26122"/></svg>