<!-- by TradingView --><svg width="56" height="56" viewBox="0 0 56 56" xmlns="http://www.w3.org/2000/svg"><path fill="#F0F3FA" d="M0 0h56v56H0z"/><path fill-rule="evenodd" d="M52 24.5a.5.5 0 1 1-1 0 .5.5 0 0 1 1 0Zm0 1.5v5h-1v-5h1ZM6 31v-6H4v-1h5v1H7v6H6Zm4.71 0c.74 0 1.39-.4 1.79-1.03V31h1v-5h-1v1.03A2.14 2.14 0 0 0 10.71 26C9.5 26 8.5 27.12 8.5 28.5s1 2.5 2.21 2.5Zm.35-.85c.73 0 1.33-.6 1.44-1.4v-.5c-.1-.8-.71-1.4-1.44-1.4-.81 0-1.46.74-1.46 1.65 0 .91.65 1.65 1.46 1.65ZM49 29.87A2.15 2.15 0 0 1 47.16 31c-1.22 0-2.2-1.12-2.2-2.5s.98-2.5 2.2-2.5c.77 0 1.45.45 1.84 1.13V26h1v5h-1v-1.13Zm0-1.37c0 .94-.67 1.7-1.5 1.7s-1.5-.76-1.5-1.7.67-1.7 1.5-1.7 1.5.76 1.5 1.7ZM16 24h-1v7h1v-7Zm7.88 4.5C23.5 29.95 22.36 31 21 31c-1.92 0-3-1.57-3-3.5s1.07-3.5 3-3.5c1.36 0 2.5 1.05 2.88 2.5h-1.05c-.3-.88-1.01-1.5-1.83-1.5-1.29 0-2 1.12-2 2.5s.72 2.5 2 2.5c.82 0 1.52-.62 1.83-1.5h1.05ZM25 24h1v2.93c.2-.38.69-.93 1.42-.93 1.03 0 1.58.96 1.58 1.74V31h-1v-3.03c0-.36-.15-1.1-.96-1.1-.55 0-.87.4-1.04.8V31h-1v-7Zm11 2h-1v5h1v-3.43c.18-.36.5-.7 1-.7.83 0 1 .74 1 1.1V31h1v-3.26c0-.77-.56-1.74-1.61-1.74-.69 0-1.16.48-1.39.85V26Zm4 0h1v.85c.23-.37.7-.85 1.39-.85 1.05 0 1.61.97 1.61 1.74V31h-1v-3.03c0-.36-.17-1.1-1-1.1-.5 0-.82.34-1 .7V31h-1v-5Zm-9.59 2.7H34v-.71A2.12 2.12 0 0 0 31.77 26c-2.12 0-2.27 1.99-2.27 2.7 0 .7.42 2.3 2.27 2.3A2.11 2.11 0 0 0 34 29.24h-1.05c-.04.31-.34.94-1.18.94-1.06 0-1.36-.94-1.36-1.49Zm.01-.52h2.7c-.05-.46-.4-1.37-1.38-1.37-.97 0-1.28.91-1.32 1.37Z" fill="#DB9423"/></svg>