<!-- by TradingView --><svg width="18" height="18" xmlns="http://www.w3.org/2000/svg"><path fill="#F0F3FA" d="M0 0h18v18H0z"/><path d="M9.562 5.393c-1.29-.456-2.212-.12-2.512.105.914-1.1 2.163-1.144 2.673-1.03 2.196.362 3.519 2.816 3.906 3.997-.262-3.401-2.557-4.327-3.671-4.365 1.378-.363 3.953 1.293 4.292 3.56.271 1.814-.469 3.304-.878 3.84.509-1.522-.326-3.073-.802-3.676-.466-.62-1.72-1.976-3.008-2.431z" fill="url(#paint0_linear)"/><path d="M8.28 5.634c1.39-.085 3.017 1.396 3.656 2.148-1.488-1.086-2.52-1.13-2.849-1.016-.187.063-.563.264-.57.568-.005.304.21.341.318.322.03-.022.14-.067.331-.076.191-.009.287.082.311.128-.334.072-.505.2-.55.255-.445.414-.852.496-1 .485-1.022-.046-1.316-.803-1.335-1.176-.016-.51.298-1.552 1.688-1.638z" fill="url(#paint1_linear)"/><path d="M4 9.06C4 5.321 7.137 4.073 8.71 4c-2.17.846-2.677 2.4-2.66 3.072-.01.435.183 1.385 1.042 1.699.86.314 1.624-.073 1.9-.305-.185.261-.64.979-.23 2.135.365 1.028 1.546 1.224 2.063 1.177 1.989-.262 2.059-2.008 1.846-2.85.842 1.432.286 2.777-.098 3.27C11.367 13.813 10.063 14 8.71 14 7.197 14 4 12.793 4 9.06z" fill="url(#paint2_linear)"/><ellipse cx="10.682" cy="9.684" rx="1.638" ry="1.644" fill="url(#paint3_linear)"/><defs><linearGradient id="paint0_linear" x1="10.502" y1="9.057" x2="13.951" y2="6.412" gradientUnits="userSpaceOnUse"><stop stop-color="#E2E73C"/><stop offset="1" stop-color="#256D43"/></linearGradient><linearGradient id="paint1_linear" x1="6.591" y1="6.616" x2="11.199" y2="7.348" gradientUnits="userSpaceOnUse"><stop stop-color="#1CAADA"/><stop offset="1" stop-color="#ADDABC"/></linearGradient><linearGradient id="paint2_linear" x1="5.604" y1="5.271" x2="12.401" y2="12.156" gradientUnits="userSpaceOnUse"><stop stop-color="#0F91CC"/><stop offset="1" stop-color="#2D4476"/></linearGradient><linearGradient id="paint3_linear" x1="10.23" y1="8.04" x2="11.192" y2="11.165" gradientUnits="userSpaceOnUse"><stop stop-color="#C92C27"/><stop offset="1" stop-color="#FDD038"/></linearGradient></defs></svg>