<!-- by TradingView --><svg width="56" height="56" viewBox="0 0 56 56" xmlns="http://www.w3.org/2000/svg"><path fill="#F0F3FA" d="M0 0h56v56H0z"/><path d="M28.06 45C36.8 45 44 38.45 45 30h-2.13a15 15 0 1 1 0-4H45c-1-8.45-8.2-15-16.94-15A17.03 17.03 0 0 0 11 28c0 9.39 7.64 17 17.06 17ZM28 40a12 12 0 0 1-11.47-8.46l1.97-.4A10 10 0 0 0 37.95 29h-7.29l-1.45 1.65-1.7 4.73h-1.18l.4-4.51L24.55 29h-8.51a12 12 0 0 1 23.42-4.58l-1.97.41A10 10 0 0 0 18.05 27h7.05l3.13-4.12L31.7 27h8.25A12 12 0 0 1 28 40Zm2.3-12.46-2.17-2.41-1.85 2.58 1.65 2.05 2.37-2.22Z" fill="#F1671B"/></svg>