<!-- by TradingView --><svg width="56" height="56" viewBox="0 0 56 56" xmlns="http://www.w3.org/2000/svg"><path fill="#F0F3FA" d="M0 0h56v56H0z"/><path fill-rule="evenodd" d="M18.87 24.57c-.76-.3-2.23-.7-3.94-.6-.2-1-.91-3.19-2.04-3.97l-1.14.89-1.26-.89a6.4 6.4 0 0 0-1.45 3.97c-.88-.13-2.95-.21-4.21.47l.47 1.1-1.3 1.1a8.85 8.85 0 0 0 2.99 2.85c-.17.58-.54 2.26-.62 4.25H7.7l.61 1.62c.66-.22 2.29-.98 3.52-2.23.42.47 1.7 1.57 3.47 2.23l.62-1.62h1.5c.03-.65-.02-2.1-.34-3.07l2.34.9v-.69l-7.72-2.96 7.72-2.87v-.68l-.55.2Zm-1.12.42c-1.2-.34-2.71-.32-3.4-.26a9.06 9.06 0 0 0-1.46-3.84c-.39.1-.92.61-1.14.85a3.24 3.24 0 0 0-1.13-.76c-.62.91-1.02 2.88-1.14 3.75-1.07-.33-3.03-.23-3.88-.13-.04.23.21.9.34 1.22l-.93.93c.45.95 2.12 2.02 2.9 2.44-.62 1.4-.8 3.1-.81 3.78h1.12l.46 1.46a16.94 16.94 0 0 0 3.15-2.3c.53.77 2.29 1.85 3.1 2.3.2-.31.41-1.1.5-1.46h1.17c.01-.84-.17-1.93-.32-2.6l-6.4-2.46 7.87-2.92ZM20.4 24l10.54-3.91L41.48 24h-1.86l-8.68-3.22L22.26 24H20.4Zm-.98 1.56-6.38 2.37 6.38 2.45v-.8l-4.28-1.64 4.28-1.59v-.79ZM36.12 24l-5.18-1.92L25.76 24h-2.14l7.32-2.72L38.25 24h-2.13Zm6.39 5.57 4.22-1.63-4.22-1.57v-.8l6.32 2.36-6.32 2.43v-.8ZM25.7 32l5.23 2.01L36.17 32h2.07l-7.3 2.8-7.3-2.8h2.06Zm-3.4 0h-1.78l10.4 4 10.42-4h-1.8l-8.61 3.31L22.32 32Zm20.2-1.13v.69L52 27.9l-9.5-3.53v.7l7.68 2.84-7.67 2.95ZM23.54 24.5h.72V27h-1.14v-.25c0-.95-.66-1.07-.89-1.07-.23 0-.66.1-.66.62s.71.78 1.02.9c.3.1 1.76.71 1.76 2.2 0 1.5-1.23 2.1-1.89 2.1-.53 0-.9-.38-1.02-.57l-.48.57H20V29h1.14c0 .6.31.98.8.98.49 0 .7-.3.7-.72 0-.34-.35-.54-1.04-.94l-.46-.26c-.99-.59-1.14-1.27-1.14-1.81s.36-1.75 1.65-1.75c1.04 0 1.41.36 1.47.54l.42-.54Zm1.23 1.4v-1.4h1.72v1.4l-.2.1v3.51c0 .32.23.58.53.58.3 0 .53-.26.53-.58v-3.5l-.2-.11v-1.4h1.71v1.4l-.21.1v3.93c0 .86-.65 1.57-1.44 1.57h-.76c-.8 0-1.44-.7-1.44-1.57V26l-.24-.1Zm6.68 5.6h-2.18v-1.28l.26-.16v-4.02l-.26-.17V24.5h2.43c1.04 0 1.89.94 1.89 2.1v.4c0 1.16-.85 2.1-1.9 2.1h-.5v.96l.26.16v1.28Zm-.38-5.62h.26c.48 0 .87.43.87.96s-.39.96-.87.96h-.26v-1.92Zm2.63 0 .3.14v3.92l-.3.19v1.37H37v-1.83h-.65l-.1.34H35v-1.3h.93l.22.3H37V27h-.85l-.22.41H35v-1.53h1.1l.15.33H37v-1.7h-3.3v1.37Zm6.07 2.75h-.41v1.1l.33.36v1.41h-1.9v-1.41l.3-.36v-3.6l-.3-.23v-1.4h2.4c1 0 1.81.91 1.81 2.04v.05c0 .81-.43 1.51-1.04 1.84l.63 1.4.4.35v1.32h-1.83v-1.43l.17-.3-.56-1.14Zm-.37-2.9h.65c.34 0 .6.31.6.69v.09c0 .38-.26.68-.6.68h-.65v-1.45Z" fill="#E6003F"/></svg>