<!-- by TradingView --><svg width="18" height="18" viewBox="0 0 18 18" xmlns="http://www.w3.org/2000/svg"><path fill="#F0F3FA" d="M0 0h18v18H0z"/><path d="M14 4.08v4A3.97 3.97 0 0 1 9.89 12H6.45a.19.19 0 0 0-.05.03l-.02.03v2.5c0 .14-.03.27-.09.37a.12.12 0 0 1-.16.06.12.12 0 0 1-.05-.05.63.63 0 0 1-.08-.33v-2.5a.23.23 0 0 0-.03-.08L5.92 12h-2.6c-.1 0-.19 0-.23-.02a.16.16 0 0 1-.09-.14c0-.03 0-.06.02-.08a.2.2 0 0 1 .05-.08c.04-.03.1-.05.18-.05l2.71-.01a.04.04 0 0 0 .04-.05V8.11a4.02 4.02 0 0 1 1.53-3.2c.7-.57 1.51-.86 2.44-.87 1.78-.03 2.68-.07 3.99 0h.03v.04ZM6.4 7.67l-.03.56c0 .89 0 1.95.02 3.37v.01l.02.01 3.03.01c.64.01 1.11-.02 1.43-.1a3.52 3.52 0 0 0 2.72-3.08c.03-.27.04-.45.04-.56a8987.42 8987.42 0 0 0-.03-3.47h-.02L10.6 4.4a5.75 5.75 0 0 0-1.43.1A3.65 3.65 0 0 0 6.4 7.67Z" fill="#F38735"/><path d="M11.42 6.47h-.02a7.86 7.86 0 0 0-3.57 2.96 19.09 19.09 0 0 0-.81 1.3.02.02 0 0 1-.02-.01V8.2c0-.76.17-1.4.6-1.98.39-.53.9-.89 1.55-1.09A5.3 5.3 0 0 1 10.56 5a171.23 171.23 0 0 1 2.43.02v3.12a2.96 2.96 0 0 1-2.01 2.68c-.31.1-.86.17-1.66.18a50.79 50.79 0 0 1-2.13-.04.04.04 0 0 1 0-.03l.55-.9a11.3 11.3 0 0 1 3.68-3.56Z" fill="#8FC74A"/></svg>