<!-- by TradingView --><svg width="18" height="18" viewBox="0 0 18 18" xmlns="http://www.w3.org/2000/svg"><path fill="#F0F3FA" d="M0 0h18v18H0z"/><path d="M13.34 11.29a.3.3 0 1 1 0 .62.3.3 0 0 1 0-.62Z" fill="url(#a)"/><path d="M6 9.05c.55.45.93 1.36.5 1.9a1.01 1.01 0 0 1-1.67-.05.04.04 0 0 1 0-.03l.01-.01.1-.06a.05.05 0 0 1 .06 0c.38.4.95.09.85-.44-.14-.72-1.05-.72-1.3-.08-.09.25-.09.5 0 .75.71 1.27 2.46.56 2.45-.74V4h7v9.97a.08.08 0 0 0-.02.03h-1.65l-.14-.03h-.01v-.02c.1 0 .2 0 .3-.05.58-.24.92-.68 1-1.33v-.01h-.01c-.17.59-.55 1.05-1.17 1.13-.5.07-.85-.18-1.18-.5l-.81-.86-2.05-2.3v-.05a3.66 3.66 0 0 1 2.45-1.5v-.01a.97.97 0 0 1-.14-.33V8.1c-.07.1-.14.18-.22.25a.89.89 0 0 1-.28.17c-.46.17-.88.37-1.22.67-.41.35-.77.77-1.09 1.25-.35.55-.6 1-1.04 1.37-.18.15-.4.23-.65.25a1.6 1.6 0 0 1-.81-.13l-.03.01a.05.05 0 0 0-.02.04.1.1 0 0 0 .06.1c.26.12.44.28.73.24V14H4V4h2v5.05Zm7.34 2.05a.5.5 0 1 0 0 .99.5.5 0 0 0 0-1Z" fill="url(#b)"/><path d="m7.9 10.53.02.01.5.53c.56.65 1.15 1.3 1.78 1.97.39.42.73.82 1.33.92v.01l-.1.03H7v-2.1c0-.05 0-.1.02-.13a15.76 15.76 0 0 0 .89-1.24Z" fill="url(#c)"/><defs><linearGradient id="a" x1="4" y1="4.49" x2="13.75" y2="14" gradientUnits="userSpaceOnUse"><stop stop-color="#003E9D"/><stop offset="1" stop-color="#0197D8"/></linearGradient><linearGradient id="b" x1="4" y1="4.49" x2="13.75" y2="14" gradientUnits="userSpaceOnUse"><stop stop-color="#003E9D"/><stop offset="1" stop-color="#0197D8"/></linearGradient><linearGradient id="c" x1="4" y1="4.49" x2="13.75" y2="14" gradientUnits="userSpaceOnUse"><stop stop-color="#003E9D"/><stop offset="1" stop-color="#0197D8"/></linearGradient></defs></svg>