<!-- by TradingView --><svg width="56" height="56" viewBox="0 0 56 56" xmlns="http://www.w3.org/2000/svg"><path fill="#F0F3FA" d="M0 0h56v56H0z"/><path d="M14 18.72V28h14l-8-8.12V14h-1.26A4.73 4.73 0 0 0 14 18.72Z" fill="#9EC543"/><path d="M42 37.27V28H28l8 8.1V42h1.26A4.73 4.73 0 0 0 42 37.27Z" fill="#00652A"/><path d="M24.56 36H14v1.35A4.6 4.6 0 0 0 18.53 42H30.4l-5.84-6Z" fill="#EB8047"/><path d="M31.44 20H42v-1.35A4.6 4.6 0 0 0 37.47 14H25.6l5.84 6Z" fill="#2C819D"/><path fill-rule="evenodd" d="M17.6 31H17v3h.6v-1.23H19V34h.6v-3H19v1.23h-1.4V31Zm-1.16.54v-.53h-1.6a.85.85 0 0 0-.84.87c0 .48.37.87.84.87h1c.16 0 .28.12.28.28v.16c0 .15-.12.28-.27.28H14V34h1.9c.44 0 .8-.37.8-.84v-.12a.82.82 0 0 0-.8-.84h-1.02a.27.27 0 0 1-.26-.28v-.1c0-.15.12-.28.26-.28h1.56ZM23.4 31h.6v3h-.6v-3Zm-2.69 3H20l1.17-3h.69L23 34h-.7l-.23-.68h-1.12l-.24.68Zm.81-2.26.36 1.04h-.73l.37-1.04Zm2.88 1.31V31h.6v1.96c0 .28.22.5.48.5h.89V34H25.3a.93.93 0 0 1-.91-.95ZM27 34v-1.32L25.94 31h.71l.65 1.16L28 31h.72l-1.11 1.68V34h-.6Z" fill="#5D5A55"/></svg>