<!-- by TradingView --><svg width="18" height="18" viewBox="0 0 18 18" xmlns="http://www.w3.org/2000/svg"><path fill="#F0F3FA" d="M0 0h18v18H0z"/><path d="M12.61 6.16a4.55 4.55 0 0 0-7.2-.02 1.36 1.36 0 0 1-.52.02.02.02 0 0 1 0-.02 5 5 0 0 1 8.02-.26 29.64 29.64 0 0 0 .2.29h-.5Z" fill="#EC3136"/><path d="m12.61 6.16-.18.01c.03-.03 0-.05-.07-.05l-.03-.01-.02-.03-.03-.06a3.64 3.64 0 0 0-2.49-1.28.53.53 0 0 1-.15-.02.65.65 0 0 0-.22-.06 5.56 5.56 0 0 1-.47-.04v.02l-.01.02v.01h.01l.66.09.01.01v.02H9.6a2.43 2.43 0 0 0-.86.24l-1.08.24h-.03a2.81 2.81 0 0 0-1.13.32v.02a.03.03 0 0 0 .02.01.03.03 0 0 0 .02 0 1.87 1.87 0 0 1 .54-.17v.01l-.87.4-.01-.01a.02.02 0 0 1 0-.03l.21-.16.02-.04c0-.05.04-.1.08-.13a7.46 7.46 0 0 1 .68-.47l-.01-.01A.03.03 0 0 0 7.17 5a.03.03 0 0 0-.02 0c-.47.24-.87.57-1.18 1a1.1 1.1 0 0 1-.33.23c-.02-.05-.1-.08-.24-.1a4.53 4.53 0 0 1 3.88-1.72 4.56 4.56 0 0 1 3.33 1.75Z" fill="#FECE34"/><path d="M12.43 6.17h-.15c-.02 0-.04 0-.05-.02a.02.02 0 0 1 0-.02.02.02 0 0 1 .01 0l.02-.02v-.04a.3.3 0 0 0-.17-.11 2.64 2.64 0 0 0-1.1-.61v.05H11l.5.18v.04l-.15-.04h-.03l-.02.03v.02l.02.01c.04.03.08.05.1.08 0 .02.02.03.04.03a2.37 2.37 0 0 1 .49.22V6l-.01.01h-.02a1.55 1.55 0 0 1-.27-.12.04.04 0 0 0-.04.01l-.01.02v.02l.3.37a.05.05 0 0 0 .04.01.05.05 0 0 0 .03 0 .31.31 0 0 0 .07-.08.04.04 0 0 1 .05-.02l.06.02a.03.03 0 0 1 .01.02.03.03 0 0 1 0 .02.27.27 0 0 1-.05.06.2.2 0 0 0-.07.1.18.18 0 0 0 0 .12c.03.08.12.12.28.1l-.6 1.34h-.05a.03.03 0 0 1-.02 0l-.01-.02v-.01l.06-.79v-.03l-.03-.02a4.04 4.04 0 0 0-1.35-.29.08.08 0 0 1-.04-.09v-.01c0-.02.02-.04.03-.05a.09.09 0 0 1 .06-.02h1.38a.06.06 0 0 0 .06-.03.06.06 0 0 0 0-.06l-.18-.28v-.01l-.37-.45a.35.35 0 0 0-.2-.12l-.16-.04a.08.08 0 0 0-.07.02l-.4.32v.02l-.25.5-.02.01c-.03 0-.04.03-.03.06v.03l.03.03v.05c-.02.02-.06.03-.1.02-.12-.25-.12-.39-.02-.43a1.42 1.42 0 0 1 .56-.67V5.6h-.02a8.35 8.35 0 0 0-1.85-.12c.08.03.13.06.15.1a.06.06 0 0 0 .04.04h.02s.02 0 .05.03c.04.04.08.06.1.06h.02l.3.19.02.02.2.22-.17.01c-.08-.03-.2-.1-.33-.19a1.9 1.9 0 0 0-.23-.14 23.24 23.24 0 0 1-.54-.25.08.08 0 0 0-.04.02l-.47.56h-.27a1.93 1.93 0 0 1 .47-.57v-.03l-.02-.02L8 5.52a6.23 6.23 0 0 0-1.75.52v.02l-.02.06-.02.02-.02.01c-.04 0-.06.02-.07.04l-.03.03c-.17.04-.26.11-.27.2 0 .05-.03.07-.08.07l-.1-.26c.17-.1.28-.18.33-.24A3.35 3.35 0 0 1 7.18 5l.02.02v.02c-.25.14-.47.3-.68.45a.2.2 0 0 0-.08.13c0 .02 0 .03-.02.04l-.2.15a.03.03 0 0 0-.02.02.02.02 0 0 0 0 .02l.02.01.87-.4v-.01a1.87 1.87 0 0 0-.56.17.03.03 0 0 1-.02-.01v-.02l.01-.02a2.81 2.81 0 0 1 1.15-.3l1.08-.24h.03a2.43 2.43 0 0 1 .84-.24v-.02l-.01-.01-.66-.09h-.01v-.03l.01-.02h.03l.44.04c.08 0 .15.02.22.06l.15.02a.8.8 0 0 1 .15.03l.28.07a3.53 3.53 0 0 1 1.23.56 795.77 795.77 0 0 1 .83.62l.03.06.02.03h.03c.07 0 .1.03.07.06Z" fill="#F78730"/><path d="M10.24 5.02v.01a1.23 1.23 0 0 1-.4-.04h-.67l-.02-.01v-.01l.02-.01a2.14 2.14 0 0 1 .72-.08l.35.14ZM10.91 5.5a.28.28 0 0 1-.2.02 9.03 9.03 0 0 0-2.03-.28v-.02l.02-.01a5.56 5.56 0 0 1 1.88.03l.34.24a.01.01 0 0 1 0 .01.01.01 0 0 1 0 .01Z" fill="#FEDB58"/><path d="M12.28 6.17c-.05 0-.08.05-.1.1 0 .07.05.12.16.17l.02.02a.05.05 0 0 1 .01.03v.02a.34.34 0 0 0-.05.14c-.16.02-.25-.02-.28-.1a.18.18 0 0 1 0-.12.2.2 0 0 1 .07-.1l.05-.06a.03.03 0 0 0-.01-.04l-.06-.02a.04.04 0 0 0-.05.02.31.31 0 0 1-.07.07.05.05 0 0 1-.03.01.05.05 0 0 1-.04-.01l-.3-.37V5.9l.03-.01h.02a1.55 1.55 0 0 0 .29.12v-.04a2.37 2.37 0 0 0-.48-.2.09.09 0 0 1-.04-.04.29.29 0 0 0-.1-.08l-.02-.01V5.6l.02-.02h.03l.15.03V5.6a.02.02 0 0 0 0-.02L11 5.4l-.01-.04v-.01a.02.02 0 0 1 .02-.02h.01c.3.11.5.2.57.26a16.7 16.7 0 0 0 .5.36.3.3 0 0 1 .17.1v.05l-.02.01-.01.01a.02.02 0 0 0 0 .02c.01.02.03.02.05.02Z" fill="#FECE34"/><path d="M10.04 6.3a.24.24 0 0 0-.06-.15.06.06 0 0 0-.05-.02.72.72 0 0 1-.3 0l-.2-.21a.1.1 0 0 0-.02-.02l-.3-.18h-.02c-.02 0-.06-.03-.1-.07l-.05-.04h-.02a.06.06 0 0 1-.04-.03c-.02-.04-.07-.07-.15-.1a.02.02 0 0 1-.01 0 .02.02 0 0 1 0-.02c0-.02.18-.01.52 0l.25.01a8.35 8.35 0 0 1 1.11.15v.01l-.01.02c-.24.15-.42.37-.55.65Z" fill="#FEE674"/><path d="M7.58 6.15c-.05 0-.1.01-.15.06a.08.08 0 0 0-.02.06.07.07 0 0 0 .05.06l.33.16s.02.01.02.03l.27.79c.06.1.1.17.11.23a29.28 29.28 0 0 0 .4 1.09c0 .03-.02.05-.03.07l-.24.4-.02.04-.08.24-.01.01a.03.03 0 0 1-.04 0L7 6.42v-.01l-.02-.23-.01-.03h-.03l-.82.03c0-.02.03-.03.07-.04l.02-.01.02-.02.01-.06.01-.02.02-.02c.07-.01.18-.06.33-.12a6.23 6.23 0 0 1 1.42-.37c.01 0 .02 0 .03.02a.04.04 0 0 1-.02.05c-.18.16-.33.34-.45.55Z" fill="#FEDB58"/><path d="m9.45 6.15-.44.02a.03.03 0 0 0-.02.01.03.03 0 0 0 0 .03v.1a.03.03 0 0 0 .02.04c.03 0 .06.02.1.06.01.02.03.03.06.03.06.02.13.05.18.11a.05.05 0 0 1 .02.04v.05l-.03-.01H9.3c-.2.03-.42.03-.64.01a.8.8 0 0 1-.16-.35l-.02-.12-.02-.02-.02-.01-.6.01.48-.56a.08.08 0 0 1 .1-.02c.16.1.32.17.48.25l.23.14c.14.1.25.16.32.2Z" fill="#FEE674"/><path d="m11.72 7.99-.6 1.36v.01a.02.02 0 0 1-.03 0l-1.03-2.63c.04 0 .08 0 .1-.02v-.05l-.02-.03-.01-.03c-.01-.03 0-.06.03-.06h.01l.01-.01.24-.5.02-.02.39-.32a.08.08 0 0 1 .07-.02l.17.04c.07.02.14.06.19.12l.36.45.01.01.18.28a.06.06 0 0 1 0 .06.06.06 0 0 1-.06.03h-1.38c-.02 0-.04 0-.06.02a.08.08 0 0 0-.03.05v.01a.08.08 0 0 0 .01.07.09.09 0 0 0 .07.03 4.04 4.04 0 0 1 1.34.3v.03l-.06.79v.01a.03.03 0 0 0 .02.02H11.72Z" fill="#FEDB58"/><path d="M8.66 6.64c0 .12.03.24.12.36a88.72 88.72 0 0 1 .6 1.58 1.2 1.2 0 0 0 .15.32v.02c-.02.06-.02.1.01.16.07.1.12.2.15.3.06.24.14.48.24.7.1.26.22.55.34.9l.24.63.22.57a.1.1 0 0 1 0 .08.1.1 0 0 1-.06.06l-.5.23h-.03a.04.04 0 0 1-.02-.02L10 12.3a.19.19 0 0 0-.03-.08l-.16-.43-.08-.21-.2-.55-.48-1.22V9.8a.9.9 0 0 0-.12-.28.03.03 0 0 0-.02 0c-.1.09-.15.15-.17.18a23.2 23.2 0 0 1-.6.99.1.1 0 0 1-.13-.05l-.59-1.43-1.05-2.63a.28.28 0 0 0-.15-.15c-.12-.06-.17-.13-.13-.21l.03-.03.82-.03h.03l.01.03.01.23v.01l1.17 2.95.01.02h.04l.01-.02.08-.24.02-.03.24-.4a.17.17 0 0 0 .01-.16L8.2 7.54a1.38 1.38 0 0 0-.1-.23l-.28-.8a.05.05 0 0 0-.02-.02l-.33-.16a.08.08 0 0 1-.05-.06.07.07 0 0 1 .02-.06c.05-.05.1-.07.15-.06h.27l.59-.01h.02l.02.03.02.12c0 .1.06.21.16.35Z" fill="#F0F3FA"/><path d="M6.1 6.22c-.05.08 0 .15.12.21.07.03.12.08.15.15A264.67 264.67 0 0 1 8 10.64c0 .02.02.03.03.04a.1.1 0 0 0 .1 0l.03-.03c.2-.32.4-.64.57-.95a1.1 1.1 0 0 1 .17-.19.03.03 0 0 1 .02 0l.01.01a.9.9 0 0 1 .11.3l.47 1.2-.38.07a.07.07 0 0 0-.06.05l-.14.56a.07.07 0 0 0 .02.07.08.08 0 0 0 .07.02l.7-.21.08.2-.61.19h-.02l-.01.03v.02l.02.02c.28.17.54.23.78.18a.2.2 0 0 1 .03.08.33.33 0 0 0 .01.24v.03a.03.03 0 0 1-.04 0c-.22-.1-.48-.14-.78-.11a7.71 7.71 0 0 1-.7.03l-.01-.02a.7.7 0 0 0-.31-.28.12.12 0 0 1-.03-.03.1.1 0 0 1-.02-.03v-.07c.03-.05.1-.08.2-.1.14-.03.22-.09.24-.19a.06.06 0 0 0-.01-.05l-.16-.2-.2-.2a.2.2 0 0 0-.18-.05l-.28.05c-.07-.06-.08-.12-.05-.17l.02-.02h.25l.02-.01.02-.02a.04.04 0 0 0-.01-.04 6.86 6.86 0 0 1-.77-1.08c-.03-.02-.06 0-.1.03L5.75 6.5c.05 0 .08-.02.08-.07 0-.09.1-.16.26-.2h.01Z" fill="#FECE34"/><path d="M8.11 10.56a.02.02 0 0 1-.02 0L6.43 6.43a.12.12 0 0 0-.05-.05.47.47 0 0 0-.16-.07l-.01-.01a.02.02 0 0 1 0-.04h.66a.02.02 0 0 1 0 .03v.08l.01.06 1.27 3.2v.02a.02.02 0 0 0 .04-.01l.51-1a.07.07 0 0 0 0-.06l-.8-2.15c-.02-.04-.07-.07-.16-.1a.45.45 0 0 1-.12-.05H7.6v-.02l.02-.01h.73l.02.03 2.24 5.92v.01l-.43.2a.01.01 0 0 1-.01 0L8.94 9.19h-.02l-.82 1.37ZM9.14 6.3h-.01a.02.02 0 0 1 0-.03h.76l-.08.11a.04.04 0 0 0 0 .05l1.3 3.2 1.41-3.18a.04.04 0 0 0-.01-.05.63.63 0 0 0-.18-.08l-.01-.01v-.03H13.26l.01.02v.01h-.01c-.17.1-.3.23-.37.39a8898.58 8898.58 0 0 0-1.82 3.85L9.4 6.45a.1.1 0 0 0-.05-.05l-.22-.1ZM5.54 6.29l2.41 6.17v.02h-.01l-.42.17a.02.02 0 0 1-.02 0l-.01-.01-2.41-6.2a.02.02 0 0 0-.02 0l-.29-.13h-.01a.02.02 0 0 1 0-.03h.78Z" fill="#EC3136"/><path d="M5.04 6.66a4.49 4.49 0 0 0-.1 4.51 4.8 4.8 0 0 0 3.39 2.38 10.55 10.55 0 0 0 1.06.03 4.66 4.66 0 0 0 3.89-2.88A4.63 4.63 0 0 0 13 6.72c.03-.12.12-.2.27-.28h.02l.02.02a4.98 4.98 0 0 1-.99 6.27 5 5 0 0 1-7.6-6.31h.06c.18.08.26.16.26.24Z" fill="#EC3136"/><path d="M9.36 6.64c.05.05.08.13.1.24-.2.06-.44.1-.68.12a.56.56 0 0 1-.12-.36c.22.02.43.02.64-.02l.04.01.02.01Z" fill="#FECE34"/><path d="m5.04 6.66 2.23 5.7a2.8 2.8 0 0 1-1.3-.32l-1.02-.87a4.49 4.49 0 0 1 .09-4.51Z" fill="#F9972F"/><path d="M13 6.72a4.63 4.63 0 0 1 .28 3.98 4.68 4.68 0 0 1-3.88 2.9 10.55 10.55 0 0 1-1.06-.05c-.54-.1-.99-.23-1.35-.41a4.81 4.81 0 0 1-2.04-1.97l1.02.87.03.02c.4.2.81.3 1.27.3l.14.35c0 .02.02.04.05.05a.1.1 0 0 0 .07 0l.44-.17a.13.13 0 0 0 .07-.07.12.12 0 0 0 0-.09l-.4-1.08a.25.25 0 0 1 .09-.03l.28-.05a.2.2 0 0 1 .17.06l.21.2.16.2a.06.06 0 0 1 0 .04c-.01.1-.09.16-.22.19-.1.02-.18.05-.2.1l-.02.03v.04l.03.03.03.03a.7.7 0 0 1 .31.28l.02.02.02.01c.19 0 .41-.02.67-.04a1.42 1.42 0 0 1 .8.12h.02a.03.03 0 0 0 0-.04.33.33 0 0 1 0-.24l.1.23.03.02h.03l.5-.23a.1.1 0 0 0 .05-.06.1.1 0 0 0 0-.08l-.2-.57c0-.06.02-.1.05-.1.08-.02.16 0 .23.05a3.69 3.69 0 0 1 .22.2v.03a.34.34 0 0 0-.07.12v.02a.05.05 0 0 0 .04.04H11a.9.9 0 0 0 .53-.37c.15-.2.32-.4.53-.58a3.38 3.38 0 0 0 .67-.75.88.88 0 0 0 .11-.45 11.3 11.3 0 0 0-.1-1.12 7.6 7.6 0 0 1-.22-.64c-.02-.06-.05-.1-.1-.11L13 6.72Z" fill="#F78730"/><path d="M12 6.88c0-.05-.05-.09-.08-.08-.04 0-.05.06-.03.12.01.05.05.09.09.08.03-.01.04-.06.03-.12Z" fill="#FECE34"/><path d="m10.49 9.4-.58-.01c-.03 0-.06 0-.09-.02a1.29 1.29 0 0 1-.08-.04c-.02 0-.04 0-.05.05-.03-.1-.08-.2-.15-.3a.17.17 0 0 1-.01-.16.05.05 0 0 0-.01-.04 1.2 1.2 0 0 1-.15-.3A88.67 88.67 0 0 0 8.77 7c.25 0 .48-.05.7-.1l1.02 2.51Z" fill="#FEE674"/><path d="m10.51 11.61-.24-.63c.12.06.2.15.25.26a.05.05 0 0 0 .03.02h.04l.07-.04a.04.04 0 0 0 .02-.05l-.01-.01a1.34 1.34 0 0 1-.24-.4.07.07 0 0 1 .02-.05l.03-.01.45-.18.05.13a.05.05 0 0 0 .04.03c.08.01.15-.03.2-.13v-.03l1.2-2.57c.06.01.1.05.11.1a7.6 7.6 0 0 0 .24.7c.06.49.08.84.08 1.07 0 .16-.03.31-.11.45a2.91 2.91 0 0 1-.36.44c-.08.1-.19.2-.31.31-.2.18-.38.37-.53.58a.9.9 0 0 1-.53.37.05.05 0 0 1-.05-.01.05.05 0 0 1-.01-.05c0-.03.03-.07.07-.12v-.05a3.69 3.69 0 0 0-.22-.18.25.25 0 0 0-.23-.05c-.03 0-.05.04-.06.1Z" fill="#FCAF2C"/><path d="m10.49 9.4.44 1.12-.45.18a.07.07 0 0 0-.04.03v.06a1.34 1.34 0 0 0 .24.38.04.04 0 0 1 0 .04l-.02.01-.07.04h-.02a.05.05 0 0 1-.05-.02.52.52 0 0 0-.25-.26 12.6 12.6 0 0 0-.34-.9c-.1-.22-.18-.46-.24-.7.01-.04.03-.06.05-.05l.08.04.09.02.58.01Z" fill="#FECE34"/><path d="M7.73 11.32a.25.25 0 0 0-.1.03L7.12 10c.03-.04.06-.05.1-.03l.02.03c.02.07.07.17.15.29a6.86 6.86 0 0 0 .6.8.04.04 0 0 1-.04.03H7.7l-.02.02c-.03.05-.02.1.05.17ZM9.52 11.03l.21.55-.7.2a.08.08 0 0 1-.07 0 .07.07 0 0 1-.02-.07l.14-.57.02-.03.04-.02.38-.06Z" fill="#FCAF2C"/><path d="m9.81 11.79.17.43a1.1 1.1 0 0 1-.8-.2.04.04 0 0 1 0-.04l.02-.01.61-.18Z" fill="#F9972F"/></svg>