<!-- by TradingView --><svg width="56" height="56" viewBox="0 0 56 56" xmlns="http://www.w3.org/2000/svg"><path fill="#05B1D6" d="M0 0h56v56H0z"/><path fill-rule="evenodd" d="m31.2 33.89 6.3-5.18c.2-.16.4-.15.6 0l5.57 4.44c.51.41.43.91-.26.85h-1.33c-.47 1-.64 1.4-.7 1.53a15.5 15.5 0 0 1-14.56 8.45c-7.34-.4-13.16-5.86-14.53-12.9-1.74-8.98 4.43-18.09 13.9-19.01a15.41 15.41 0 0 1 15.92 9.77c.05.13 0 .16-.14.16h-4.5a.44.44 0 0 1-.22-.06.43.43 0 0 1-.16-.15c-3.12-5.2-9.27-6.66-14.68-3.82-3.72 1.95-5.72 5.1-6 9.45-.13 2.1.3 4.12 1.3 6.07.07.14.17.16.29.06l.88-.68c.16-.12.2-.27.1-.45a8.11 8.11 0 0 1-1.02-3.2c-.38-4.08 1.08-7.17 4.36-9.3a10.48 10.48 0 0 1 7.02-1.42 9.58 9.58 0 0 1 5.98 3.5c.12.13.09.21-.09.25-.17.04-.34.04-.5 0-.2-.04-.38-.14-.52-.28a8.74 8.74 0 0 0-7.1-2.75c-4.7.37-8.27 3.74-8.42 8.53a8.65 8.65 0 0 0 1 4.3.2.2 0 0 0 .07.04.2.2 0 0 0 .16-.04l4.34-3.37a.22.22 0 0 1 .27 0l6.36 5.2c.1.08.2.08.3 0Zm-1.55-.11c.18.14.41.22.65.22h3.58a.15.15 0 0 1 .14.09.15.15 0 0 1-.03.16c-3.6 3.7-9.02 3.24-12.77-.19l.18-.06h3.91c1.1 0 1.55-.35 2.3-.88l.31-.22a.52.52 0 0 1 .61.02l1.12.86Zm5.6.61c-1.85 2.25-4.3 3.25-7.33 3.24-3.04 0-5.9-1.12-7.75-3.38-.21-.26-.57-.25-.92-.25h-.78l-.3.13c2.09 3.29 5.53 5.2 9.46 5.22 3.92.01 7.17-1.6 9.28-4.88.2-.31.12-.47-.26-.47h-.55c-.34 0-.62.13-.84.4Z" fill="#29166E"/></svg>