<!-- by TradingView --><svg width="18" height="18" viewBox="0 0 18 18" xmlns="http://www.w3.org/2000/svg"><path fill="#1F2869" d="M0 0h18v18H0z"/><path d="M11.77 6.84v-.08a2.43 2.43 0 0 0-1.1-1.8 3.58 3.58 0 0 0-2.45-.6c-.9.09-1.7.55-2.22 1.22a2.76 2.76 0 0 0-.6 2.18 4.32 4.32 0 0 0 1.18 2.47 250.68 250.68 0 0 1 1.07 1.26c.16.26.27.55.35.83l.13.38c.1.25.28.5.51.67.35.25.78.35 1.2.32.26-.01.49-.06.7-.15.52-.24.85-.7.92-1.23l.02-.36V10.8h-.01a27 27 0 0 1-.57 0c-.35-.01-.67-.19-.75-.52v-.01a.85.85 0 0 1 .35-.15c.03.15.12.26.26.32.1.04.2.04.33.04a182.71 182.71 0 0 1 .72 0v1.62c0 .47-.16.92-.5 1.28-.44.47-1.12.66-1.78.63a2.39 2.39 0 0 1-.68-.14c-.62-.22-.99-.7-1.15-1.28l-.12-.42a1.9 1.9 0 0 0-.22-.54A4.13 4.13 0 0 1 5 7.22c0-.56.15-1.07.44-1.54A3.7 3.7 0 0 1 8.5 4c1.11 0 2.21.34 2.92 1.17.26.3.45.55.56.93H12l-.23.74Z" fill="#fff"/><path d="M11.43 7.9H7.18v.01c.07.53.5.88 1.04 1 .42.1.84.09 1.26-.02a1.81 1.81 0 0 0 .79-.38l.85.79a2.7 2.7 0 0 1-.86.54 4.08 4.08 0 0 1-2.62.13 2.53 2.53 0 0 1-1.51-1.13c-.1-.19-.2-.38-.25-.59a3.06 3.06 0 0 1-.06-1.34c.1-.62.44-1.18.96-1.57a3.09 3.09 0 0 1 1.68-.55c.57-.03 1.16.04 1.67.28.45.2.78.52 1 .93.2.35.3.74.32 1.13a4.2 4.2 0 0 1-.02.78ZM7.2 6.88h2.92a.01.01 0 0 0 .01 0v-.01a1.03 1.03 0 0 0-.6-.8c-.11-.06-.23-.1-.36-.13a2.1 2.1 0 0 0-1.3.14 1.29 1.29 0 0 0-.67.8Z" fill="#fff"/></svg>