<!-- by TradingView --><svg width="56" height="56" viewBox="0 0 56 56" xmlns="http://www.w3.org/2000/svg"><path fill="#F0F3FA" d="M0 0h56v56H0z"/><path d="M41.48 17a6.8 6.8 0 0 0-6.17 3.55c-.27 1.07 1.1 1.66 1.83 1.82 2.25.73 6.78 2 6.87 1.25.11-.94 2.01-6.62-2.53-6.62Z" fill="url(#anypusxw3)"/><path d="M41 30.33c.18-.74.18-1.81.16-2.25 1.07-1.48 3.6-4.15 5.16-2.96 1.97 1.48 2.1 3.35.93 4.66-1.19 1.31-2.86 3.22-4.6 3.22-1.73 0-1.89-1.74-1.66-2.67Z" fill="#4E9A36"/><path d="M35.82 21.26c-.72-.39-.3-1.17 0-1.5-2.17 2.04.45 2.9 2.33 3.72 1.88.83 2.66 1.78 2.93 3.3.27 1.5-.23 2.9.8 2.9s1.75-2.2 2.3-3.7c.46-1.22 1.73-.99 2.31-.72a6.3 6.3 0 0 0-3.2-2.18c-2.32-.77-6.58-1.33-7.47-1.82Z" fill="#165693"/><path d="M15.96 35.52A5.35 5.35 0 0 1 12.24 37 5.12 5.12 0 0 1 7 32c0-2.76 2.34-5 5.24-5 1.38 0 2.65.52 3.58 1.36-.3.26-.73.7-1.12 1.1a3.75 3.75 0 0 0-2.53-.96A3.59 3.59 0 0 0 8.5 32c0 1.93 1.64 3.5 3.67 3.5.88 0 1.7-.3 2.33-.8V33H12v-1.5h4v4.02h-.04ZM30 27h4.86A3.2 3.2 0 0 1 38 30.24c0 1.79-1.4 3.26-3.14 3.26H31.5V37H30V27Zm4.88 1.5H31.5V32h3.38c.9 0 1.62-.7 1.62-1.58v-.34a1.6 1.6 0 0 0-1.62-1.58ZM20.5 37h-1.56V27h5.02c1.8 0 3.04 1.45 3.04 3.24 0 1.52-.9 2.82-2.28 3.17L27.5 37h-2.02l-2.63-3.5H20.5V37Zm3.38-8.5H20.5V32h3.38c.9 0 1.62-.7 1.62-1.58v-.34a1.6 1.6 0 0 0-1.62-1.58Z" fill="#42433D"/><defs><linearGradient id="anypusxw3" x1="43.67" y1="18.24" x2="39.92" y2="23.87" gradientUnits="userSpaceOnUse"><stop stop-color="#78B1CC"/><stop offset="1" stop-color="#226993"/></linearGradient></defs></svg>