<!-- by TradingView --><svg width="18" height="18" viewBox="0 0 18 18" xmlns="http://www.w3.org/2000/svg"><path fill="#F0F3FA" d="M0 0h18v18H0z"/><path d="m5.92 6.04 1.13 1.04 3.36 3.08.89.8a5.58 5.58 0 0 1 .2.19v.01l-.18.17-1.19 1.1-1.52 1.39-.18.15-.02.02-.1.01h-.93v-.01l.03-.04.38-.34.25-.23a342.37 342.37 0 0 0 1.25-1.16l.2-.18a141.2 141.2 0 0 0 .96-.88l-.23-.22a53.43 53.43 0 0 0-.5-.43l-.08.08a234.61 234.61 0 0 0-1.8 1.64l-.75.69-1.16 1.06c-.02.01-.02.02-.05.02h-.8l-.06-.01c-.02 0-.02-.02-.02-.04 0-.04 0-.07.02-.1l.13-.12.34-.3.03-.04.45-.41.13-.11.71-.66.12-.1a980.77 980.77 0 0 1 2.26-2.07v-.02a29.93 29.93 0 0 0-.63-.59l-.07-.07h-.01l-.08.08-.84.76-.2.18a5057.83 5057.83 0 0 0-2.35 2.14H5v-.94l2.94-2.7A158.7 158.7 0 0 0 5.1 6.26a.58.58 0 0 1-.08-.1v-.02L5 6.1v-.87h.01l.91.82Zm.27-2.03.07.05.95.88 2.17 1.98a46.9 46.9 0 0 0 .36.31l.7-.64A382.53 382.53 0 0 0 9.2 5.43l-.08-.09-.66-.6a149.19 149.19 0 0 0-.8-.73V4L7.67 4H8.7l2.8 2.57v.02a78.66 78.66 0 0 0-1.22 1.15l.1.08a33.82 33.82 0 0 0 .63.55H11c.08-.09.16-.15.25-.23l.2-.2.97-.88.5-.45.01-.02a594.81 594.81 0 0 0-2.76-2.54c0-.02-.01-.02-.02-.03V4h1.02c.02 0 .02.01.03.02l.94.86.66.6.91.84a124.56 124.56 0 0 1 .27.27l-.03.03-.2.19-.64.59-.06.05a2066.76 2066.76 0 0 1-1.54 1.43l.02.02A1145.24 1145.24 0 0 1 14 11.16a.3.3 0 0 1-.04.04l-1.63 1.5-1.03.94-.39.36H9.86l.05-.05 1.48-1.37.11-.1a1120.6 1120.6 0 0 0 1.43-1.3v-.02l-.03-.03a435.13 435.13 0 0 0-1.17-1.08l-.23-.21a1288.1 1288.1 0 0 0-6.29-5.76A1.96 1.96 0 0 1 5.16 4V4H6.2ZM5 7.5l.06.05.39.35a214.57 214.57 0 0 0 1.04.96v.01a90.46 90.46 0 0 1-1.48 1.35H5V9.32l.02-.04.02-.03.4-.36v-.01A37.04 37.04 0 0 1 5 8.44v-.1a43.2 43.2 0 0 1 0-.84h.01Z" fill="#364675"/></svg>