<!-- by TradingView --><svg width="18" height="18" viewBox="0 0 18 18" xmlns="http://www.w3.org/2000/svg"><path fill="#F0F3FA" d="M0 0h18v18H0z"/><path d="m14 10.75-.46.18a12.52 12.52 0 0 1-5.45.62v.01a14.26 14.26 0 0 0 .71 2.43.02.02 0 0 1-.02 0 7.22 7.22 0 0 1-.97-2.48A10.08 10.08 0 0 1 5.83 11c-.51-.19-.99-.43-1.26-.9-.39-.66.1-1.45.6-1.9.16-.14.38-.3.65-.45a9.9 9.9 0 0 1 1.21-.57.02.02 0 0 1 0 .03c-1 .68-1.8 1.81-.6 2.88a3.53 3.53 0 0 0 1.24.7v-.02a16.66 16.66 0 0 1-.25-3.82h-.01a14.7 14.7 0 0 0-3.4.52c.24-.14.5-.25.77-.34a11.86 11.86 0 0 1 2.7-.55 5.18 5.18 0 0 1 .54-1.63c.27-.52.78-1.12 1.42-.9.14.04.3.14.49.3a5.75 5.75 0 0 1 1.57 2.12l-.04.02a5.08 5.08 0 0 0-.28-.37c-.5-.64-1.3-1.09-2.05-.54a2.36 2.36 0 0 0-.76.95.03.03 0 0 0 .01.03h.02c1.35.02 2.64.23 3.85.7.36.14.8.4 1.08.77.74 1-.8 2.25-1.5 2.62a49.22 49.22 0 0 1-.78.37v-.03c.47-.4 1.12-1.03 1.18-1.68.03-.3-.09-.57-.35-.84a5.73 5.73 0 0 0-3.67-1.5 10.3 10.3 0 0 0-.22 3.94l.04.03c.59.16 1.2.26 1.84.28a13.6 13.6 0 0 0 4.02-.49H14v.01Z"/></svg>