<!-- by TradingView --><svg width="56" height="56" viewBox="0 0 56 56" xmlns="http://www.w3.org/2000/svg"><path fill="#F0F3FA" d="M0 0h56v56H0z"/><path d="M16.47 29.17 20.05 32l-5.19.01h-.02l-3.9-3.36c-.53-.46-1.04-.91-1.52-1.36.03.66.05 1.27.05 2.03A1689.16 1689.16 0 0 0 9.46 32H6L6 31.98V21l.02-.01h3.44v2.77c0 .37-.02.93-.06 1.68h.01c.6-.53 1.1-1 1.7-1.5A3116 3116 0 0 1 14.69 21h4.97l-5.31 3.94c-.62.45-1.2.86-1.81 1.23v.01c.64.44 1.31.93 2 1.47l1.94 1.52Z"/><path d="m36.41 21-2.25 3H23.01c-.1 0-.23 0-.4.03-.38.06-.66.11-.68.53 0 .1 0 .18.02.25.1.53.72.58 1.15.58h6.1c1.7 0 3.8.42 4.12 2.44.11.76.01 1.64-.34 2.31-.58 1.12-1.76 1.6-2.97 1.76-.42.06-.85.1-1.3.1h-8.66l-3.82-3h12.73c.46 0 1.1-.17 1.05-.74-.05-.58-.64-.7-1.12-.69h-6.25a6.9 6.9 0 0 1-1.25-.11c-1.34-.25-2.46-.96-2.73-2.36a3.6 3.6 0 0 1 .26-2.2c.71-1.42 2.4-1.8 3.85-1.88l.92-.02H36.4Z" fill="#F60"/><path d="m34 24 2.27-3h6.76c.67 0 1.14.02 1.41.04 1.4.12 2.99.48 3.98 1.54.65.7.92 1.6.88 2.53a3.46 3.46 0 0 1-2.93 3.3v.01c.58.46 1.13 1 1.64 1.52L50 32V32h-4.66l-2.55-3h-5.3v3H34l-.01-.01V26h9.58c.28 0 .5 0 .66-.03.73-.1 1.56-.1 1.47-.97-.1-.9-1.05-1-1.81-1H34ZM13.37 35.37a.64.64 0 0 1-.64.63h-.1a.64.64 0 0 1-.63-.64v-.73a.64.64 0 0 1 .65-.63h.09a.64.64 0 0 1 .63.64v.73Zm-.28-.72a.38.38 0 0 0-.23-.35.38.38 0 0 0-.15-.03h-.04a.38.38 0 0 0-.39.38v.7a.38.38 0 0 0 .24.35c.04.02.1.03.14.03h.05a.38.38 0 0 0 .38-.38v-.7ZM19.38 35.37a.63.63 0 0 1-.4.58.65.65 0 0 1-.25.05h-.09a.65.65 0 0 1-.6-.4.63.63 0 0 1-.04-.24v-.73a.63.63 0 0 1 .4-.58.65.65 0 0 1 .25-.05h.09a.65.65 0 0 1 .6.4c.02.07.04.16.04.24v.73Zm-.28-.72a.38.38 0 0 0-.24-.35.39.39 0 0 0-.15-.03h-.04a.38.38 0 0 0-.39.38v.7a.38.38 0 0 0 .24.35c.04.02.1.03.15.03h.04a.38.38 0 0 0 .39-.38v-.7ZM6.34 34h1.2a.01.01 0 0 1 .02.01v.25a.01.01 0 0 1-.01 0h-.93l-.01.01v.61a.01.01 0 0 0 0 .01h.8a.01.01 0 0 1 0 .01v.25h-.8a.01.01 0 0 0 0 .02v.82H6.6a.01.01 0 0 1 0 .01h-.26a.01.01 0 0 1-.01-.01V34a.01.01 0 0 1 .01-.01ZM49.24 35.12v.01l.44.86V36h-.3a.03.03 0 0 1-.03-.02l-.41-.81-.01-.01h-.4a.02.02 0 0 0-.01.01V36l-.01.01h-.27v-1.98a.02.02 0 0 1 0-.01h.01V34h.65c.17 0 .3.01.38.05.44.18.44.9-.04 1.07Zm-.72-.84v.6h.01l.5.01a.26.26 0 0 0 .2-.08.28.28 0 0 0 .07-.2v-.06a.29.29 0 0 0-.07-.2.27.27 0 0 0-.2-.08h-.5l-.01.01ZM24.56 34a779.1 779.1 0 0 1 .7.01v.25h-.55a.01.01 0 0 0-.01.02V36h-.01a2.1 2.1 0 0 1-.27-.01v-1.71l-.01-.01h-.55V34h.7ZM31.27 35.54h.01l.35-1.53.01-.01h.28l-.48 1.98a.02.02 0 0 1-.02.02h-.27v-.02l-.36-1.36h-.01l-.37 1.36a.03.03 0 0 1-.03.02h-.24a.02.02 0 0 1-.03-.02l-.48-1.97H29.93l.35 1.53h.01l.4-1.52V34l.02-.01H30.87v.02l.4 1.52ZM37.53 35a2.53 2.53 0 0 1 0 .13H36.68v.6h.98a.01.01 0 0 1 .01.01V36l-.01.01h-1.26a618.35 618.35 0 0 1 0-2h1.27v.26a.01.01 0 0 1-.01 0h-.97l-.01.01v.59h.82l.01.01v.02l.01.11ZM43 34a1.7 1.7 0 0 1 .11 0v.02l.74 1.97V36h-.29l-.16-.43h-.02a115.8 115.8 0 0 0-.8 0l-.15.43h-.3l.73-1.98.01-.01h.02l.1-.01Zm-.32 1.28v.01a.01.01 0 0 0 .01 0h.6a.01.01 0 0 0 .01 0l-.3-.88h-.02l-.3.87Z"/></svg>