<!-- by TradingView --><svg width="18" height="18" viewBox="0 0 18 18" xmlns="http://www.w3.org/2000/svg"><path fill="#F0F3FA" d="M0 0h18v18H0z"/><path d="M15 6.1v1.8a.1.1 0 0 1-.03.07.08.08 0 0 1-.06.03h-3.29a.75.75 0 0 1-.48-.17L9.71 6.65a.11.11 0 0 1-.02-.16c.3-.39.64-.5 1.14-.49h4.08c.02 0 .05.01.06.03a.1.1 0 0 1 .03.07Z" fill="#022D9D"/><path d="M3 11.87v-5.8A.08.08 0 0 1 3.07 6h5.01c.2 0 .38.06.53.18l2.9 2.2a.08.08 0 0 1 .01.12L10.4 9.64a.18.18 0 0 1-.24.01C8.83 8.58 8.26 8.25 8.2 8.2c-.17-.14-.45-.19-.63-.2H5.05a.04.04 0 0 0-.04.03L5 8.04v1.85c0 .03.02.05.03.07l.11.04H6.2c.18 0 .36.06.52.2.4.34.87.92 1.43 1.4a.13.13 0 0 1-.02.22c-.24.12-.47.18-.7.18h-4.3a.12.12 0 0 1-.13-.13Z" fill="#E2231A"/><path d="m6.6 9.47 1.02-1.03a.12.12 0 0 1 .16-.01c.38.31.99.66 1.81 1.36.16.14.35.21.55.21h2.79c.02 0 .04-.02.05-.04a.08.08 0 0 0 .02-.05v-.83a.08.08 0 0 1 .08-.08h1.84c.02 0 .04 0 .06.02l.02.06v2.83c0 .02 0 .05-.03.06a.09.09 0 0 1-.06.03H9.87a.58.58 0 0 1-.35-.12l-2.9-2.21a.13.13 0 0 1-.06-.1.13.13 0 0 1 .04-.1Z" fill="#022D9D"/></svg>