<!-- by TradingView --><svg width="56" height="56" viewBox="0 0 56 56" xmlns="http://www.w3.org/2000/svg"><path fill="#F0F3FA" d="M0 0h56v56H0z"/><path d="M18.18 20.79 18 19.17c0-.06.27-.17 1.34-.17 1.35 0 3.99 1.36 4.42 1.36.43 0 .73 0 1.24-.17-.15.38-1.12.81-2.08.81s-2.49-.51-3.3-.51c-.65 0-1.23.2-1.44.3ZM32.92 21c3.03 0 4.65-2 5.08-3-.5.34-1.87 1-3.4 1-1.92 0-3.32-.5-5.3-.5a3.5 3.5 0 0 0-3.3 1.82c2.5-.08 3.12.68 6.92.68Z" fill="#E17037"/><path d="m19.53 23.89-.53-1.4c.18.07.57.09 1.18.09.77 0 3.8-1.58 5.36-1.58 1.13 0 2.34.44 4.45 1.18 1.68.58 2.7.69 3.01.66-.12.39-.74 1.16-2.3 1.16-1.94 0-4.68-1.31-7.62-1.31-2.36 0-3.35.8-3.55 1.2Z" fill="#7DBB56"/><path d="M7 27h1v9H7zM9 30h1v6H9zM10.43 30.35c.07-.12.3-.35.71-.35.51 0 1.86.65 1.86 2.71V36h-1v-3.29c-.03-.49-.14-1.47-.86-1.47-.32 0-.61.27-.71.4v-1.3ZM22 30h1v6h-1z"/><path fill="#DA3831" d="M38 31h1v5h-1zM43 29h1v7h-1z"/><path d="M16 34.73V36c-.57-.02-2-.69-2-2.76V27h1v3h1v1h-1v2.24c.03.49.24 1.47 1 1.5ZM19 36c.18 0 .36-.04.53-.1v-1.2c-.16.2-.34.3-.53.3-.55 0-1-.9-1-2s.45-2 1-2c.47 0 .86.64.97 1.5H19v1h2V33c0-1.64-.9-2.96-2-2.96s-2 1.33-2 2.98.9 2.98 2 2.98ZM24.2 30a.8.8 0 0 0-.7.37v1.38c.1-.14.38-.42.7-.42.7 0 .92 1.04.95 1.56V33H26v-.1c0-2.21-1.3-2.9-1.8-2.9Z"/><path d="M40.22 31c-.4 0-.62.17-.69.25v.92c.1-.1.38-.29.69-.29.69 0 .91.7.94 1.05V33H42v-.07A1.9 1.9 0 0 0 40.22 31Z" fill="#DA3831"/><path fill-rule="evenodd" d="M35 36c1.1 0 2-1.12 2-2.5s-.9-2.5-2-2.5-2 1.12-2 2.5.9 2.5 2 2.5Zm0-1c.55 0 1-.67 1-1.5s-.45-1.5-1-1.5-1 .67-1 1.5.45 1.5 1 1.5Z" fill="#DA3831"/><path d="m28.24 33.46 1.28-4.44h.96L28.47 36H28L26 29.02h.96l1.28 4.44ZM32.06 29.02l-1.28 4.44-.56-1.94-.48 1.67.81 2.81h.46l2-6.98h-.95Zm-3.52 0h.96-.96ZM48 29h1v4.5c0 1.38-.9 2.5-2 2.5s-2-1.12-2-2.5.9-2.5 2-2.5c.17 0 .34.03.5.08v1.12a.76.76 0 0 0-.5-.2c-.55 0-1 .67-1 1.5s.45 1.5 1 1.5 1-.67 1-1.5V29Z" fill="#DA3831"/></svg>