<!-- by TradingView --><svg width="56" height="56" viewBox="0 0 56 56" xmlns="http://www.w3.org/2000/svg"><path fill="#F0F3FA" d="M0 0h56v56H0z"/><path d="M33.84 29 31 16c.58.2 1.88 1.08 2.45 3.1.75 2.5.57 7.64.39 9.9Z" fill="#F3725F"/><path d="M32 24c-1.24-1.85-5.85-8.1-8-11 .84.25 2.99 1.34 4.82 3.72C30.64 19.1 31.7 22.57 32 24Z" fill="#F5A65F"/><path d="M34 32c1.52-4.68 1.8-10.62 1.75-13 .75.3 2.25 1.43 2.25 3.5 0 3.65-2.67 7.85-4 9.5Z" fill="#F54852"/><path d="M44 24.6 41.18 23C39.33 27.58 33.62 34.24 31 37c7.87-5.47 11.95-10.55 13-12.4Z" fill="#48446D"/><path d="M45.4 26C41.53 30.9 30.76 38.46 25 42c14.64-5.21 21.43-10.64 23-12.7-.84-1.8-2-2.92-2.6-3.3Z" fill="#435848"/><path d="M32 31c-.05 2.3-1.21 4-3.73 4-3.1 0-4.27-2.76-4.27-5.5 0-2.58 1.24-5.5 4.21-5.5.86 0 1.6.23 2.26.73l.2-.73H32v4h-1.46c-.14-1.01-.42-2.42-1.78-2.42-1.7 0-1.76 2.8-1.76 3.9 0 1.16.05 3.97 1.83 3.97 1.4 0 1.84-1.33 1.9-2.45H32ZM23 24v4h-1.4c-.23-1.42-.68-2.5-2.35-2.5H18v3.07h.23c.87 0 1.05-.74 1.05-1.47V27H20v5h-.72c-.02-.82.05-1.99-1.03-1.99H18v3.49h1.41c1.86 0 2.12-1.5 2.19-3.04H23V35h-9v-1.56c.75 0 1-.13 1-.95v-6c0-.9-.2-.94-1-.94V24h9ZM13 24v1.55c-.72 0-1 .1-1 .94v6c0 .9.2.95 1 .95V35H8v-1.56c.8 0 1-.05 1-.95v-6c0-.89-.21-.94-1-.94V24h5Z" fill="#004480"/></svg>