<!-- by TradingView --><svg width="18" height="18" viewBox="0 0 18 18" xmlns="http://www.w3.org/2000/svg"><path fill="#F0F3FA" d="M0 0h18v18H0z"/><path d="m6.79 11.85-.08-.01c-.97-.15-1.85-.38-2.58-.69a5.68 5.68 0 0 1-1.14-.61 2.84 2.84 0 0 1-.73-.73 1.4 1.4 0 0 1-.22-1.12c.08-.36.32-.71.7-1.04.52-.43 1.26-.8 2.19-1.09C6.15 6.2 7.62 6 9.13 6c1.5.01 2.95.23 4.14.62.5.17.93.36 1.3.57.36.2.65.41.88.64.17.18.3.36.4.55.18.36.2.74.06 1.1-.09.23-.24.46-.45.67-.25.26-.58.5-.99.72-.84.45-1.97.79-3.25.97-1.43.21-3 .21-4.43 0ZM3.48 9.34h-.03l-.02.02-.01.03a.1.1 0 0 0 0 .04c.04.76.56.98 1.05.64.25-.16.28-.66.28-1a78.83 78.83 0 0 1-.01-1.5h-.02l-.02-.01H4.35l-.02.02-.01.02v1.86c-.02.32-.24.35-.43.22a.1.1 0 0 1-.04-.04.14.14 0 0 1-.01-.06V9.4c0-.01 0-.03-.02-.04a.05.05 0 0 0-.03-.02h-.31Zm2.54.24a12.57 12.57 0 0 1 .4.02c.01.02.03.04.03.07l.13.45a.2.2 0 0 0 .06.09c.02.02.05.03.08.03H7l.03-.03a.1.1 0 0 0 0-.08l-.78-2.5a.09.09 0 0 0-.02-.04.06.06 0 0 0-.04-.02 1.01 1.01 0 0 0-.35 0c-.01 0-.02 0-.03.02a.09.09 0 0 0-.03.04l-.77 2.5a.1.1 0 0 0 .01.08l.02.03H5.32c.03 0 .06 0 .09-.03a.2.2 0 0 0 .06-.09l.12-.45c0-.03.02-.05.04-.06a9.55 9.55 0 0 1 .4-.03Zm1.73.66.16-.01c.02 0 .03-.02.04-.04V9.23c0-.1.03-.2.07-.28l.66-1.3v-.06l-.02-.02-.02-.01H8.3c-.02 0-.05 0-.07.03a36.48 36.48 0 0 1-.48.96 38.47 38.47 0 0 1-.48-.96.12.12 0 0 0-.07-.03H6.84l-.02.03a.07.07 0 0 0 0 .05l.66 1.31c.04.09.06.18.06.28v.9l.01.06.04.04.16.01Zm1.16-2.6v2.51c0 .03 0 .05.02.07.01.02.03.02.05.02h.78c.24 0 .46-.1.62-.31.17-.21.26-.57.26-.87v-.38c0-.15-.02-.3-.06-.43-.05-.14-.11-.26-.2-.37a.9.9 0 0 0-.27-.24.7.7 0 0 0-.34-.09H9a.07.07 0 0 0-.06.03.11.11 0 0 0-.02.07Zm3.59-.08h-1.46l-.02.01-.01.03v2.56l.01.06.05.02h1.45c.02 0 .03 0 .04-.02a.09.09 0 0 0 .02-.05v-.26a.1.1 0 0 0 0-.03l-.02-.02-.02-.02-.03-.01h-1.05c-.04-.03-.04-.08-.04-.13v-.6c0-.03.01-.06.03-.08a.08.08 0 0 1 .06-.03h.88c.03 0 .07-.02.07-.06v-.27c0-.03-.02-.09-.05-.09h-.92c-.05 0-.07-.04-.07-.1V8.1c0-.03.01-.05.03-.07A.07.07 0 0 1 11.5 8h.99l.04-.01a.08.08 0 0 0 .01-.05v-.36l-.03-.01h-.01Zm1.9.44h.02l.01-.02.02-.02V7.6l-.02-.02-.01-.02h-1.45c-.02 0-.03 0-.04.02a.08.08 0 0 0-.02.05v2.55l.02.05.04.01h1.47l.04-.01a.08.08 0 0 0 .02-.05V9.9c0-.02 0-.03-.02-.05l-.04-.02h-1.07l-.02-.02-.01-.02v-.78l.04-.02h.92c.01 0 .03 0 .04-.02a.08.08 0 0 0 .01-.05v-.28l-.01-.05a.05.05 0 0 0-.04-.02H13.36l-.01-.02-.02-.02v-.49l.02-.02.01-.02h1.03Z" fill="#D2001D"/><path d="m9.3 8.1.01-.03.02-.03.02-.02.03-.01h.33c.13 0 .25.06.33.18.1.12.14.28.14.45v.45c0 .09 0 .17-.03.25a.68.68 0 0 1-.1.2.5.5 0 0 1-.15.14.37.37 0 0 1-.18.05h-.36l-.03-.03a.1.1 0 0 1-.01-.03l-.01-.04V8.11ZM5.75 9.07l.22-.76s0-.02.02-.02L6 8.28h.02l.01.03.23.75a.06.06 0 0 1 0 .04l-.02.02H5.77l-.01-.01v-.04Z" fill="#D2001D"/></svg>