<!-- by TradingView --><svg width="56" height="56" viewBox="0 0 56 56" xmlns="http://www.w3.org/2000/svg"><path fill="url(#a)" d="M0 0h56v56H0z"/><path fill-rule="evenodd" d="M10.41 28.44c-.23 1.64-1.2 2.48-2.93 2.54-.98.03-1.99.02-3.01-.03-.13-.01-.2-.08-.21-.2l-.24-2c-.04-1.52-.02-3.05.06-4.6.04-.64.18-1.28.44-1.9.06-.17.19-.25.37-.25h.34a7.44 7.44 0 0 1 2.4.24 4.15 4.15 0 0 1 2.38 2.6c.43 1.14.56 2.34.4 3.6Zm-4.67-1.68v-.41c-.04-1.48.1-2.42.44-2.81.27-.33.59-.37.94-.14.82.55 1.35 1.4 1.57 2.57.22 1.13.07 2.1-.45 2.9-.46.71-1.08.88-1.86.5a.48.48 0 0 1-.24-.24 6.24 6.24 0 0 1-.4-2.37Zm39.99 3.99.18-.93c.14-1.78.1-3.52-.1-5.21-.04-.36-.25-.55-.63-.58l-.5-.03c-.38-.02-.54.15-.48.51 0 .08.03.2.05.37.3 1.86.3 3.18.05 3.96-.19.56-.6.83-1.26.82a.32.32 0 0 1-.28-.16c-.26-.41-.4-.9-.42-1.44-.04-1.36.1-2.59.44-3.68.07-.23-.02-.35-.28-.34l-.9.01c-.27 0-.42.13-.46.38a19.34 19.34 0 0 0-.21 4.48c.05.56.21 1.08.5 1.55.34.6 1.13.69 2.34.28a.45.45 0 0 1 .35.02c.44.22.9.29 1.38.2.13-.02.2-.1.23-.21Zm-23.65-5.28c-.09.33-.24.5-.47.52-.13.01-.22-.04-.27-.16-.31-.66-.83-.8-1.56-.4-.53.28-.8.92-.83 1.9-.02 1 .25 1.64.8 1.92.8.4 1.5.14 2.13-.78.16-.24.26-.21.29.07.18 1.65-.63 2.47-2.44 2.46-1.01 0-1.71-.63-2.1-1.89a4.57 4.57 0 0 1 .6-3.94c.77-1.09 1.85-1.42 3.22-.99.62.2.83.63.63 1.3Zm10.81.7c.16-.01.3-.09.43-.23.3-.43.38-.86.22-1.3a.76.76 0 0 0-.52-.5c-.37-.1-.82.02-1.33.37l-.29.18c-.17.1-.27.08-.3-.04l-.09-.4c-.04-.2-.17-.27-.37-.24l-.93.12c-.12.02-.18.08-.18.2l-.02 2.55.03 3.57c0 .32.18.5.52.5l.86.05c.32.01.45-.13.38-.43-.48-2.3-.44-3.9.12-4.83.07-.11.16-.17.3-.19.41-.06.71.1.9.47.05.1.14.16.27.15Zm19.04 3.51c-1.63 1.74-3.21 1.76-4.73.06.01-.57.05-1 .12-1.3.1-.41.23-.42.41-.03.22.5.54.84.98 1.02.47.2.93.15 1.4-.15.2-.13.28-.3.26-.54a.56.56 0 0 0-.35-.5l-.34-.15a6.46 6.46 0 0 1-1.75-1.04c-.5-.5-.6-1.12-.3-1.84.29-.7.86-1.09 1.7-1.19.77-.09 1.5.08 2.15.5.34.23.4.5.17.84l-.19.27c-.25.36-.52.38-.83.07-.52-.54-1.07-.65-1.65-.33a.36.36 0 0 0-.2.33c-.01.14.05.25.17.33.61.4 1.22.76 1.82 1.05 1.02.5 1.4 1.36 1.16 2.6Zm-35.32-.34c-.52 1.36-1.51 1.88-2.98 1.57-1.08-.22-1.72-.95-1.94-2.16a5.22 5.22 0 0 1 .35-3.05c.48-1.09 1.29-1.65 2.41-1.7.88-.03 1.51.26 1.9.9.3.49.35.99.16 1.5-.19.5-.56.86-1.12 1.08l-1.8.69a.55.55 0 0 0-.32.3.52.52 0 0 0 0 .44c.13.28.36.46.68.53 1.09.25 1.9-.1 2.42-1.04.07-.13.14-.12.18.02.1.27.12.58.06.92Zm-2.44-4.15.81.22c.13.04.22.12.27.24.05.12.04.24-.04.35l-.2.29a.4.4 0 0 1-.18.14l-1.22.49a.4.4 0 0 1-.47-.1c-.13-.15-.14-.3-.04-.47l.6-.98c.1-.17.26-.23.47-.18Zm13.7 4.52c.47-.82.64-1.74.5-2.77a3.3 3.3 0 0 0-.79-2.09 2.52 2.52 0 0 0-2.05-.85c-.99.03-1.74.57-2.25 1.63a5.13 5.13 0 0 0-.17 3.27c.36 1.25 1.12 1.95 2.3 2.08 1.09.12 1.9-.3 2.46-1.27Zm-2.18-.47c-.76 0-1.38-.92-1.38-2.05s.6-2.06 1.37-2.06c.76 0 1.38.92 1.38 2.05 0 1.14-.6 2.06-1.37 2.06Zm13.98-.7c-.33 1.55-1.15 2.36-2.47 2.45-1.25.09-2.11-.47-2.58-1.68a5.26 5.26 0 0 1-.16-3.19 2.9 2.9 0 0 1 1.63-1.91c.84-.37 1.65-.25 2.44.34 1.05.8 1.43 2.12 1.14 4Zm-4.01-1.31c-.02 1.12.58 2.04 1.34 2.05.76.01 1.4-.89 1.41-2 .02-1.12-.58-2.04-1.34-2.05-.76-.02-1.4.88-1.41 2Z" fill="#FA8D3A"/><defs><linearGradient id="a" x1="28" y1="0" x2="28" y2="56" gradientUnits="userSpaceOnUse"><stop stop-color="#9E1915"/><stop offset="1" stop-color="#7C110D"/></linearGradient></defs></svg>