<!-- by TradingView --><svg width="56" height="56" viewBox="0 0 56 56" xmlns="http://www.w3.org/2000/svg"><path fill="#F0F3FA" d="M0 0h56v56H0z"/><path d="M24.13 16.97a.37.37 0 0 0-.25-.03.34.34 0 0 0-.21.12l-2.88 3.96a.12.12 0 0 0-.02.04.1.1 0 0 0 .02.1l.04.02 6.21 3.37c.06.03.1.09.12.15.02.06 0 .13-.03.19l-3.06 4.2a.6.6 0 0 1-.18.16.71.71 0 0 1-.52.08.7.7 0 0 1-.25-.1 12.88 12.88 0 0 1-4.12-4.2c-.73-1.24-.78-2.32-.83-3.78-.1-3.28 1.46-5.93 4.7-7.96a7.52 7.52 0 0 1 2.5-1.08c4.59-.88 9 1.08 11.34 4.48 1.7 2.47 3.36 5.7 3.29 8.65l-.03.06a.15.15 0 0 1-.05.05.17.17 0 0 1-.16 0l-15.63-8.48Z" fill="#274784"/><path d="m31.36 38.93 2.93-3.96a.11.11 0 0 0 .02-.04.1.1 0 0 0-.02-.1.12.12 0 0 0-.04-.02l-6.21-3.43a.25.25 0 0 1-.13-.16.23.23 0 0 1 .04-.19l3.12-4.2a.62.62 0 0 1 .19-.17.72.72 0 0 1 .52-.08.7.7 0 0 1 .24.1 12.95 12.95 0 0 1 4.1 4.27c.74 1.25.78 2.34.81 3.81.08 3.3-1.52 5.95-4.8 7.97-.94.58-1.79.94-2.54 1.08a11.27 11.27 0 0 1-11.36-4.6c-1.7-2.5-3.33-5.75-3.23-8.72 0-.02.01-.05.03-.07a.15.15 0 0 1 .06-.04.17.17 0 0 1 .16 0l15.65 8.64c.07.04.16.05.25.04a.34.34 0 0 0 .2-.13Z" fill="#009007"/></svg>