<!-- by TradingView --><svg width="18" height="18" viewBox="0 0 18 18" xmlns="http://www.w3.org/2000/svg"><path fill="#F0F3FA" d="M0 0h18v18H0z"/><path d="m6.24 11.22.03-.02h.04l.03.02.02.03c.17 1.06.5 1.9 1.81 2.1 1.2.17 2.54-.47 2.3-1.73-.14-.68-.59-1.15-1.18-1.57-.89-.63-1.85-1.25-2.47-2.12-.64-.9-.7-2.05.02-2.9 1.06-1.23 3.2-1.15 4.69-.82.04 0 .08.03.11.06s.05.07.05.11v1.67c0 .04-.01.08-.04.12a.25.25 0 0 1-.09.08l-.03.02a.1.1 0 0 1-.09 0 .1.1 0 0 1-.04-.03.08.08 0 0 1-.01-.04 1.65 1.65 0 0 0-.81-1.33 2.45 2.45 0 0 0-1.98-.13c-.98.37-1.11 1.43-.44 2.12.25.25.53.48.85.7.94.64 1.6 1.08 2.25 1.8 1.43 1.56.73 3.98-1.55 4.5-.94.2-2.77.25-3.58-.28a.23.23 0 0 1-.1-.12C6 13.36 6 13.2 6 12.92l.09-1.36a.5.5 0 0 1 .15-.34Z" fill="#E82025"/></svg>