<!-- by TradingView --><svg width="56" height="56" viewBox="0 0 56 56" xmlns="http://www.w3.org/2000/svg"><path fill="#F0F3FA" d="M0 0h56v56H0z"/><path fill-rule="evenodd" d="M12 14h10.3l6.18 5.77 5.6-5.77H44v10.76l-8 7.41V45H21V32.17l-9-7.4V14Zm9.85 1h-8.98l2.65 2h5.7l.63-2Zm13.72 2h5.15l1.82-2h-7.89l.92 2ZM43 24.39l-2-.9V17.9l2-2.28v8.77Zm-8 19.84V33.38l-2-1.53v9.74l2 2.64Zm-3-12.64V41h-7v-9.41l-9-8.4V18h5.52l6.96 6.95L35.37 18H40v5.56l-8 8.03Zm-9.37-16.1 5.37 5v2.75l-6.1-5.89.73-1.85Zm6.37 5 5-4.85.77 1.89L29 23.24V20.5Z" fill="#5EB36A"/></svg>