<!-- by TradingView --><svg width="56" height="56" viewBox="0 0 56 56" xmlns="http://www.w3.org/2000/svg"><path fill="#F0F3FA" d="M0 0h56v56H0z"/><path d="M17.04 26.49c.55-.03.98-.48.96-1a.96.96 0 0 0-1.04-.89c-.55.03-.98.48-.96 1 .02.52.49.92 1.04.89Z" fill="#65A553"/><path d="M4.9 27h-.78a.12.12 0 0 1-.09-.04.15.15 0 0 1-.03-.1v-1.7c0-.06.1-.16.16-.16h3.71a.12.12 0 0 1 .1.04l.02.05.01.05v1.73c0 .07-.07.13-.15.13h-.72c-.08 0-.13.1-.13.18v3.68c0 .04-.02.07-.04.1a.12.12 0 0 1-.09.04H5.15c-.05 0-.15-.1-.15-.15V27.2c0-.07-.03-.18-.1-.19ZM23.1 25h1.76c.03 0 .14.09.14.12v5.78c0 .03 0 .05-.03.06-.01.02-.03.04-.06.04h-2l-.05-.02a.09.09 0 0 1-.03-.03l-1.6-2.66c-.04-.07-.23-.04-.23.05v2.57c0 .02 0 .04-.03.06-.01.01-.03.03-.06.03H19.1c-.03 0-.05 0-.06-.02a.08.08 0 0 1-.03-.06v-5.83c0-.03.1-.09.14-.09h1.94l.04.03.03.03 1.6 2.72c.04.07.25.05.25-.03v-2.63c0-.05.05-.12.1-.12ZM31.5 28.33c.23-.95.44-2.03.62-3.24l.01-.09h2.06l.04.07-1.7 5.77c-.03.1-.1.16-.22.16h-1.55c-.08 0-.13-.07-.15-.15l-.56-2.4c-.08-.33-.16-.33-.23.01l-.53 2.4c-.01.03-.03.07-.07.1-.03.02-.07.04-.1.04h-1.58c-.05 0-.1-.03-.14-.06a.22.22 0 0 1-.08-.12l-1.63-5.6c-.04-.15.02-.22.17-.22h1.68c.16 0 .25.08.27.23.12.87.27 1.74.45 2.61.02.12.07.22.14.32l.04.03a.1.1 0 0 0 .12-.06l.65-3c0-.04.03-.07.05-.09.03-.02.06-.04.1-.04h1.27c.03 0 .06 0 .08.02.02.02.04.05.04.08.16 1.07.37 2.15.64 3.23.04.16.08.16.11 0ZM17.84 26.58h-1.68a.16.16 0 0 0-.16.16v4.08c0 .1.04.18.15.18h1.67c.1 0 .18-.08.18-.17v-4.08c0-.1-.07-.17-.16-.17Z" fill="#221467"/><path fill-rule="evenodd" d="m10.89 30.85.12-.47c.01-.03.03-.06.06-.08a.17.17 0 0 1 .1-.04h1.43c.04 0 .08 0 .1.03.04.02.06.05.07.08l.13.5c.01.04.03.07.06.1l.1.03h1.92l.07-.02a.16.16 0 0 0 .06-.05.15.15 0 0 0 .02-.15l-1.98-5.67a.16.16 0 0 0-.06-.08.17.17 0 0 0-.1-.03h-2.15a.17.17 0 0 0-.1.03.16.16 0 0 0-.06.08l-2.05 5.68a.15.15 0 0 0 .02.15l.07.04c.02.02.05.02.07.02h1.9c.04 0 .11-.05.14-.07a.16.16 0 0 0 .06-.08Zm.84-3.44-.3 1.25a.14.14 0 0 0 .03.12.15.15 0 0 0 .11.06h.57a.15.15 0 0 0 .12-.05.13.13 0 0 0 .03-.12l-.27-1.26a.14.14 0 0 0-.05-.08.15.15 0 0 0-.18 0 .14.14 0 0 0-.06.08ZM36.1 30.85l.13-.47c.01-.03.03-.06.06-.08a.17.17 0 0 1 .1-.04h1.43c.04 0 .07 0 .1.03.03.02.05.05.06.08l.14.5c.01.04.03.07.06.1l.1.03h1.91l.08-.02a.17.17 0 0 0 .06-.05.15.15 0 0 0 .02-.15l-1.98-5.67a.16.16 0 0 0-.06-.08.17.17 0 0 0-.1-.03h-2.15a.17.17 0 0 0-.1.03.16.16 0 0 0-.06.08l-2.05 5.68a.15.15 0 0 0 .02.15l.06.04c.03.02.05.02.08.02h1.9c.04 0 .11-.05.14-.07a.16.16 0 0 0 .06-.08Zm.85-3.44-.3 1.25a.13.13 0 0 0 .03.12.15.15 0 0 0 .1.06h.58a.15.15 0 0 0 .11-.05.14.14 0 0 0 .04-.11l-.27-1.27a.14.14 0 0 0-.05-.08.15.15 0 0 0-.19 0 .14.14 0 0 0-.05.08ZM45.67 30.13c-.18.46-.28.44-.34-.05v-.91a.13.13 0 0 0-.04-.11.15.15 0 0 0-.05-.04l-.06-.02h-1.91a.27.27 0 0 1-.2-.07.24.24 0 0 1-.07-.18V25h-1.84c-.07 0-.16.03-.16.09v5.66c0 .17.09.25.27.25h6.16c.2 0 .38-.29.36-.46-.03-.2.11-.3.32-.31h1.28c.03 0 .07.01.1.03.03.02.05.05.07.09l.14.44c.04.14.13.22.28.21h1.9c.11 0 .14-.14.1-.25L50 25.15c-.03-.09-.1-.15-.21-.15h-2a.35.35 0 0 0-.19.07.3.3 0 0 0-.11.14l-1.81 4.92Zm2.9-2.68-.3 1.23v.06c0 .02.02.03.03.05.01.01.03.03.05.03l.06.02.63-.01c.02 0 .04 0 .06-.02.02 0 .04-.02.05-.03a.12.12 0 0 0 .02-.11l-.33-1.22a.13.13 0 0 0-.05-.08.15.15 0 0 0-.18 0 .13.13 0 0 0-.04.08Z" fill="#221467"/></svg>