<!-- by TradingView --><svg width="56" height="56" viewBox="0 0 56 56" xmlns="http://www.w3.org/2000/svg"><path fill="#F0F3FA" d="M0 0h56v56H0z"/><path fill-rule="evenodd" d="M4 21.82c0-.45.37-.82.82-.82H7.1c.46 0 .82.37.82.82V30h4.27c.45 0 .82.53.82.98v2.2c0 .45-.37.82-.82.82H4.82a.82.82 0 0 1-.82-.82V21.82Zm3.09.18H5v11h7v-2H7.91a.84.84 0 0 1-.82-.84V22Zm5.29 3.12a.83.83 0 0 1 .78-1.12h2.34c.35 0 .66.22.78.54l1.3 3.53 1.1-3.5c.11-.34.44-.57.8-.57h2.22c.59 0 1 .58.78 1.12L18.1 36.47a.84.84 0 0 1-.78.53h-2.56c-.6 0-1-.6-.77-1.15l1.35-3.06-2.96-7.67Zm2.96-.12h-2l2.96 7.49c.07.2.07.42-.02.62L14.91 36h2.41l4.18-11h-1.84l-2.02 5.64-2.3-5.64Zm12 8a4.06 4.06 0 0 0 4.18-4c0-2.31-2-4-4.18-4a4.06 4.06 0 0 0-4.12 4c0 2.31 1.9 3.96 4.12 4Zm0 1a5.08 5.08 0 0 0 5.15-5c0-2.76-2.3-5-5.15-5a5.08 5.08 0 0 0-5.15 5c0 2.76 2.3 5 5.15 5Zm0-2.92c.62 0 1.46-.72 1.46-2.08s-.84-2.08-1.46-2.08-1.47.72-1.47 2.08.85 2.08 1.47 2.08Zm0 .82c1.27 0 2.3-1.3 2.3-2.9 0-1.6-1.03-2.9-2.3-2.9-1.27 0-2.3 1.3-2.3 2.9 0 1.6 1.03 2.9 2.3 2.9ZM33 24.78c0-.43.36-.78.8-.78h2.18c.43 0 .78.34.79.76.58-.4 1.45-.76 2.53-.76 1.74 0 2.7 1.47 2.7 3.09v6.13c0 .43-.36.78-.8.78h-2.4a.8.8 0 0 1-.8-.78V28c0-.43-.02-.77-.45-.77s-.55.34-.55.77v5.2c0 .44-.39.79-.83.79H33.8a.79.79 0 0 1-.79-.78v-8.44Zm3 .22h-2v8h2l-.02-5c0-.85.7-1.54 1.57-1.54.87 0 1.45.7 1.45 1.55V33h2v-5.91c0-1.18-.4-2.09-1.7-2.09-1.57 0-2.42.6-3.3 1.76V25Zm15.18-.24c-1.82-1.05-4.93-1.03-6.65.15-1.82 1.26-2.14 3.73 0 4.82.82.42 1.8.63 2.46.7.38.06 1.05.2 1.24.54-1.14.72-3.18.05-4.18-.57-.4-.25-1.05-.03-1.05.48v1.7c0 .27.15.53.44.67.77.36 2.43.87 4.49.73 2.98-.2 4.13-2.22 4.07-3.53-.07-1.38-1.31-2.44-3.98-3.2-1.5-.43-.68-.87.61-.75.7.07 1.32.4 1.74.73.23.17.52.17.72.1.21-.08.44-.27.44-.56v-1.42c0-.2-.1-.44-.35-.59Zm-6.2 4.19c-1.39-.71-1.11-2.41.23-3.33 1.44-1 3.9-.78 5.37-.1v.9a3.97 3.97 0 0 0-1.85-.68c-.72-.07-2.43 0-2.56.99-.1.74 1.01 1.18 1.54 1.33 2.58.73 3.25 1.56 3.29 2.42.04.93-.67 2.4-3.14 2.57a7.98 7.98 0 0 1-3.86-.63v-1.05c1.16.62 3.76 1.2 4.9.1a.62.62 0 0 0 .2-.54c-.14-1-1.5-1.3-2.7-1.57a6.66 6.66 0 0 1-1.41-.41Z" fill="url(#a)"/><defs><linearGradient id="a" x1="28" y1="21" x2="28" y2="37" gradientUnits="userSpaceOnUse"><stop stop-color="#C657FC"/><stop offset="1" stop-color="#5D7EF7"/></linearGradient></defs></svg>