<!-- by TradingView --><svg width="56" height="56" viewBox="0 0 56 56" xmlns="http://www.w3.org/2000/svg"><path fill="#F0F3FA" d="M0 0h56v56H0z"/><path d="M18.42 19.1a6.75 6.75 0 0 1-4.1-3.16 9.21 9.21 0 0 1-1.05-2.89c-.01-.06 0-.07.04-.02.25.35.5.7.78 1.04a7.83 7.83 0 0 0 3.59 2.56c.72.25 1.45.42 2.2.52l3.82.44c.2.03.37.06.49.11.12.04.11.06-.01.04-.26-.03-.55 0-.85.12-.38.14-.77.35-1.15.63-.6.45-1.22.98-1.87 1.62l-.7.66a.12.12 0 0 1-.08.03 5.64 5.64 0 0 1-4.1-2.07 7.87 7.87 0 0 1-.6-.84c-.03-.04-.02-.05.02-.02l.62.36c.4.22.83.42 1.28.58.5.18 1.06.29 1.67.33.14.01.14 0 0-.04ZM29.11 16.42h.03s.02 0 .02.02c.02.02.01.05 0 .08a.1.1 0 0 1-.05.04c-.08.04-.1.1-.08.17l.05.13c.02.14-.05.23-.22.25l-.27.04c-.23.01-.45.19-.63.52a2.63 2.63 0 0 0-.31.83h-.03a1.07 1.07 0 0 0-.99-.26l-.01-.01v-.51c0-.02 0-.02-.02-.02a2.4 2.4 0 0 1-1.86-.33c-.03-.02-.04-.04-.02-.07.3-.58.48-1.17.56-1.77.04-.3.07-.5.11-.6.11-.27.3-.5.56-.7.25-.18.53-.3.84-.37l1.2-.24c.3-.06.53.06.69.36.11.21.1.42-.05.61-.03.04-.03.08 0 .12l.17.27c.02.05.02.13 0 .23-.03.11-.03.2 0 .24.04.08.13.17.29.28l.06.05c.05.04.08.07.09.1.01.04 0 .08-.02.11a.43.43 0 0 1-.1.08l-.05.04a.04.04 0 0 0-.01.04c0 .02 0 .03.02.04.06.02.1.05.11.07v.04l-.09.08c-.03.02-.02.03.01.04Z" fill="#053B58"/><path d="M41 17.77a.32.32 0 0 0-.08-.1l-.62-.37v-.03l.73-.28c.02 0 .03-.02.03-.04l.2-.75c.01-.02.02-.03.03-.01l.49.6.05.02.78-.07c.02 0 .03.01.02.03l-.43.66a.05.05 0 0 0 0 .05l.3.71v.02h-.02l-.75-.19-.04.01-.62.5h-.02l-.05-.76Z" fill="#EC8122"/><path d="m41 17.77-2 .91c-.05.02-.05.04 0 .06l.1.04.1.04c.04.01.04.04-.01.07a.24.24 0 0 1-.14.05h-.6c-.04 0-.16.06-.36.16a5.67 5.67 0 0 0-.05.14l-.08.27a.3.3 0 0 1-.2.15c-.1.03-.26.1-.46.2a.44.44 0 0 1-.15.02c-.05 0-.18-.03-.4-.09-.1-.02-.19-.02-.25 0l-.39.2a5.3 5.3 0 0 0-2.51 3.36 6.4 6.4 0 0 0-.2 2.23 28.1 28.1 0 0 1-2.9-1.81 12.9 12.9 0 0 1-1.78-1.5c-.34-.36-.68-.81-1-1.36l-.88-1.5c-.1-.17-.12-.16-.08.02a7.6 7.6 0 0 0 1.55 3.12c.02.03.01.04-.01.06l-.3.1c-.43.12-.87.23-1.3.32-.03 0-.04 0-.05-.02l-.01-.23c-.01-.07-.04-.08-.1-.04l-.82.56a10.96 10.96 0 0 0-3.9 4.9c-.05.11-.07.11-.07-.01a90.3 90.3 0 0 1 .04-2.08 10.83 10.83 0 0 1-4.55 2.35c-.1.02-.1 0-.02-.05.42-.3.79-.68 1.1-1.18a7 7 0 0 1-2.58 1.18c-.8.2-1.64.34-2.51.4-.1.01-.1 0-.02-.04.72-.34 1.38-.69 1.98-1.05.17-.1.31-.21.44-.33.07-.06.06-.07-.03-.03a6.75 6.75 0 0 1-5.58-.02c-.03-.02-.03-.03 0-.03 1.31-.23 2.58-.6 3.82-1.1.85-.33 1.66-.75 2.42-1.25a8.68 8.68 0 0 0 2.62-2.61 20.7 20.7 0 0 1 1.9-2.13c.5-.5 1.04-.91 1.62-1.27.44-.27.9-.47 1.38-.57.33-.08.65-.09.97-.02.34.06.62.2.85.42.07.06.16.19.28.37a3.09 3.09 0 0 0 .43.55c.02 0 .02 0 .02-.02 0-.27.04-.5.13-.72.12-.24.3-.37.53-.4.2-.01.43.05.67.18 1.1.63 2.12 1.19 3.05 1.68.1.05.17.13.2.23.03.06.03.16.01.29l-.05.44c-.07.7 0 1.39.19 2.07.05.2.14.4.26.57.04.06.05.06.03-.01-.08-.24-.14-.48-.2-.7-.06-.24-.1-.55-.1-.91-.02-.57.04-1.15.18-1.75.01-.08.07-.13.17-.16l.4-.11 3.31-.9c.6-.16 1.17-.37 1.7-.62.13-.06.3-.18.5-.34.06-.04.17-.06.33-.04a12.76 12.76 0 0 1 .88.1l2.4-.9.08.09Z" fill="#053B58"/><path d="M39.5 19.64a5.52 5.52 0 0 1 5.5 5.44 5.33 5.33 0 0 1-1.62 3.86 5.47 5.47 0 0 1-3.9 1.58 5.52 5.52 0 0 1-5.07-3.32 5.33 5.33 0 0 1 0-4.24 5.38 5.38 0 0 1 2.94-2.9c.68-.27 1.4-.42 2.14-.42Zm-2.87 1.4-.04.02v.02h.03v-.04h.1c.03-.01.04-.02.03-.04a.18.18 0 0 1-.02-.09c0-.02.01-.03.03-.04.05-.02.07-.02.08-.01.02 0 .03.02.01.04l-.01.03c-.04.04-.03.04.01 0h.02l.04-.03.22-.16a.42.42 0 0 1 .13-.02c.04 0 .08-.03.12-.05a.17.17 0 0 1 .11-.03h.02c.02 0 .03 0 .02-.03-.02-.04 0-.07.04-.08a.53.53 0 0 1 .21 0h.04c.03-.03.07-.02.1.02h.03v-.03a.1.1 0 0 0-.07-.02c-.02 0-.03 0-.04-.02l-.03-.06.01-.05a.19.19 0 0 0 .05-.1c0-.02.02-.03.04-.04l.1-.01c.02 0 .04 0 .05.02l.07.16c0 .02.02.04.04.04.07.02.09.05.06.1l-.04.1c-.02.03-.01.04.02.01.06-.05.09-.1.07-.17a.06.06 0 0 0-.03-.04.28.28 0 0 1-.12-.14c-.03-.08-.01-.1.06-.07l.02.02c.02.02.03.02.04 0a.14.14 0 0 1 .11-.09l.05-.01c.02-.01.02-.03 0-.04h-.02c-.02-.03-.01-.04.01-.04.07 0 .12-.02.17-.04l.01-.01V20l-.02-.01c-.39.07-.76.18-1.13.33a.23.23 0 0 0-.13.12c0 .03 0 .05.02.06l.05.04v.02a.24.24 0 0 1-.22 0c-.02 0-.03-.02-.02-.04l.01-.03c.02-.03 0-.04-.02-.02-.28.14-.54.3-.79.48-.03.03-.03.04.02.04l.15-.02c.08 0 .12.01.13.07Zm1.83-.9c-.02 0-.02 0 0 0l.04.02c.04 0 .04-.02 0-.02h-.04Zm.14.08.01.02.03-.01c0-.01 0-.02-.02-.03-.02-.01-.03 0-.02.02Zm-2.2 1.05v-.04c.1 0 .14-.03.16-.08 0-.03 0-.04-.03-.03a.44.44 0 0 1-.2.04l-.03.01v.03c.01.02.02.05.01.09l.01.03h.03c.03-.02.04-.03.04-.05Zm4.25 3.44h.09c.02.01.03.03.03.05v.03c.04.04.06.04.06-.03 0-.03.01-.06.04-.1l.09-.21c0-.04.02-.07.03-.1l.03-.03c.06-.02.1-.06.1-.11v-.03h-.02c-.03-.06-.07-.1-.14-.1-.05 0-.1.02-.16.07l-.13.1a.06.06 0 0 0-.02.03l-.01.04c0 .02-.02.03-.04.03-.07-.01-.11.02-.14.08 0 .02-.01.02-.01 0-.01-.04 0-.07.02-.09a.04.04 0 0 0 0-.05c0-.02-.02-.04-.05-.05h-.04a.03.03 0 0 0-.01.04c0 .01 0 .03.02.05l-.01.04a.12.12 0 0 1-.1.01l-.37-.1c-.07-.03-.12-.06-.13-.11 0-.02 0-.04.03-.04l.02-.03v-.03l-.15-.1c-.03-.02-.03-.04 0-.06.04-.03.05-.07.02-.1-.02-.01-.02-.03 0-.05l.06-.09c.03-.05.03-.09 0-.11a.07.07 0 0 0-.07-.02l-.14.03c-.02 0-.03 0-.05-.02-.08-.1-.18-.13-.3-.08a.07.07 0 0 0-.05.06c0 .03 0 .05.03.07l.05.03c.01 0 .02.02.01.04-.04.1-.04.15.01.18.03 0 .04.02.04.05a.1.1 0 0 1-.01.07l-.18.25c-.05.05-.09.06-.13.04a.04.04 0 0 0-.05 0 .22.22 0 0 0-.06.07.06.06 0 0 0 0 .05l.05.11c.08.1.06.14-.07.1-.05-.02-.1 0-.15.07a.38.38 0 0 1-.14-.14.04.04 0 0 0-.04-.02c-.2.04-.41.04-.62 0a.28.28 0 0 1-.13-.07l-.03-.03a.05.05 0 0 0-.05 0c-.1.04-.19.02-.27-.06a.11.11 0 0 0-.05-.02.07.07 0 0 1-.05-.03l-.1-.14c-.01-.03-.04-.04-.07-.02a.1.1 0 0 0-.03.02c-.03.04-.03.07 0 .11.08.08.13.16.15.23v.02h.02c.01 0 .02 0 .03-.02l.02-.03c.01 0 .02 0 .02.02v.12c0 .03.01.04.03.04l.16-.02c.01 0 .03 0 .04-.02l.09-.11c.04-.05.07-.05.07.02.01.1.07.15.16.15l.05.02c.1.1.09.19-.03.28a.06.06 0 0 0-.03.04v.04c0 .02 0 .04-.02.05l-.23.18h-.01c-.08.02-.14.05-.17.1a4.55 4.55 0 0 1-.63.25c-.03 0-.03.02-.02.05l.03.08c.01.03.03.04.06.03l.48-.08c.03 0 .04 0 .03.03-.02.16-.08.33-.2.52-.03.06-.13.16-.27.29-.16.13-.27.27-.34.4a.17.17 0 0 0-.02.1c.03.15.05.24.08.28.03.06.05.12.05.18a1 1 0 0 0 .02.16.1.1 0 0 1-.05.12l-.26.18c-.03.01-.03.04-.02.06.1.16.08.25-.04.28-.02 0-.03.02-.02.05v.09l-.15.2a.05.05 0 0 1-.04.02c-.08.01-.18 0-.32-.05-.07-.02-.12-.08-.16-.16a1.65 1.65 0 0 0-.13-.22l-.15-.26a4.3 4.3 0 0 0-.22-.44c-.03-.04-.03-.1-.02-.2a.78.78 0 0 0-.05-.4 2.89 2.89 0 0 0-.19-.36.31.31 0 0 1-.04-.19v-.2a.1.1 0 0 0-.04-.06.07.07 0 0 0-.07-.01h-.01l-.04-.01-.05-.12a.06.06 0 0 0-.04-.03l-.05.01c-.06.05-.1.07-.13.04-.09-.05-.12-.03-.1.06a5.13 5.13 0 0 0 3.38 3.9 5.27 5.27 0 0 0 5.35-1.09v-.05l-.05-.02c-.02 0-.03-.02-.03-.04v-.04a.12.12 0 0 0-.12-.02 2.4 2.4 0 0 0-.33.17.92.92 0 0 1-.24.11l-.25.1c-.04.02-.07.02-.1 0-.02 0-.02-.03 0-.05a.4.4 0 0 0 .1-.17v-.2c0-.1.02-.2.06-.3a.4.4 0 0 1 .2-.2l.27-.12c.1-.04.17-.12.22-.24l.04-.03h.02a8.79 8.79 0 0 0 .25-.24c.02 0 .04 0 .05.02.01.02.03.03.05.03.02 0 .03 0 .03-.02.03-.1.1-.16.18-.2l.02-.04v-.01c0-.03.02-.03.04-.02.05.03.1.03.15.02.05 0 .06 0 .02.04-.05.06-.08.12-.07.17l.03.04.07.05c.04.03.06.02.08-.03l.14-.4c0-.01.01-.02.02-.01h.02v.04l.01.13v.13a.6.6 0 0 0 .01.27c0 .02.02.02.03 0a5.08 5.08 0 0 0-.2-5.61.1.1 0 0 0-.07-.05 25.54 25.54 0 0 1-.47-.6.8.8 0 0 0-.2-.18.52.52 0 0 0-.25-.11.6.6 0 0 1-.15-.03c-.02 0-.03 0-.03.02v.33c0 .02 0 .04.02.05.05.03.12.06.19.07l.13.08h.02v-.03c.01-.02.02-.02.04 0l.3.44a.1.1 0 0 1 .02.05c0 .09.04.17.1.24.02.02.02.03.01.05v.02c-.02.01-.02.03 0 .05a.8.8 0 0 0 .21.18l.03.04-.01.05-.02.08c0 .02-.01.02-.03.02l-.04-.01h-.03l-.01.04v.02c.09.07.13.14.14.2l.07.37-.01.06a.07.07 0 0 1-.06.03c-.06 0-.1.03-.12.08-.01.03-.03.03-.04.01-.03-.02-.03-.04-.03-.07.01-.02 0-.03-.02-.02a.23.23 0 0 0-.08.04c-.02.03-.02.03.01.01l.02-.01c.02-.02.03-.02.04 0l.02.04-.01.05c-.02.02-.05.02-.08 0-.02-.01-.02-.01-.02.01v.17c0 .01 0 .02-.02.02h-.03s-.02 0-.02-.02l-.08-.18v-.04l.1-.16a.07.07 0 0 1 .05-.03l.09-.02c.02 0 .03-.01.03-.03v-.08c-.02-.02 0-.02.01-.02h.03c.02 0 .03 0 .04-.02a.08.08 0 0 0 .02-.06 1.04 1.04 0 0 0-.14-.44.05.05 0 0 1 0-.06l.02-.04a5.16 5.16 0 0 0-.37-.82h-.02v.01l.08.16c.03.06.05.12.05.17.03.2 0 .37-.06.5-.01.02-.03.03-.05.02-.04-.03-.07-.02-.1 0a.13.13 0 0 0-.03.1c.02.08 0 .14-.04.18v.05c.12.11.19.23.22.36 0 .04 0 .07-.04.09l-.06.04a.04.04 0 0 1-.05 0 .04.04 0 0 1-.02-.03l-.05-.25c0-.02-.02-.03-.04-.04h-.05c-.02 0-.03-.02-.04-.04v-.13c0-.02-.02-.03-.04-.04a.17.17 0 0 0-.17.08c-.02.02-.03.02-.04 0a.25.25 0 0 1 0-.15c0-.03 0-.05-.03-.06-.02 0-.03 0-.04.02l-.08.15-.03.02h-.03c-.02 0-.03.02-.01.04l.1.11c0 .02.02.02.03.02l.06-.03a.07.07 0 0 1 .05-.01c.05 0 .08.01.09.02.08.05.07.08-.02.09-.05 0-.08.05-.1.15 0 .02.01.03.03.05.04.02.1.1.17.22.04.08.05.14.04.18-.02.02 0 .03.01.04a.1.1 0 0 1 .04.03v.05a.69.69 0 0 1-.05.18.72.72 0 0 0-.05.17c-.02.1-.09.19-.2.27a.09.09 0 0 1-.06.02h-.07c-.02 0-.04 0-.05.02a.37.37 0 0 1-.12.08c-.03.01-.05.02-.06.04-.02.03 0 .06.02.09.02.01.02.03.02.04a.16.16 0 0 1-.07.1.05.05 0 0 1-.05.01.15.15 0 0 1-.06-.04c-.01-.03 0-.05.01-.07l.05-.04a.04.04 0 0 0 .02-.03.26.26 0 0 0-.03-.1.04.04 0 0 0-.04-.01.23.23 0 0 0-.2.2v.05l.14.17c.07.05.1.1.12.16.06.17.05.28-.01.33l-.26.2c-.02.02-.03.02-.04 0v-.08c.01-.03 0-.04-.02-.04-.05 0-.1-.04-.13-.1a.1.1 0 0 0-.04-.04.63.63 0 0 1-.12-.09c-.02-.02-.04-.02-.05.02l-.06.23c-.01.03 0 .06.03.07.03.02.05.06.07.13a.08.08 0 0 0 .04.05.7.7 0 0 1 .14.1c.04.05.06.1.05.17 0 .02 0 .04.02.05.03.05.04.1.02.14 0 .02-.02.03-.03.02a.4.4 0 0 1-.24-.3.47.47 0 0 0-.16-.27 80.59 80.59 0 0 0 0-.23c0-.08 0-.14-.03-.2a1.73 1.73 0 0 1-.09-.27c-.01-.05-.03-.05-.07-.01a.24.24 0 0 1-.12.08l-.05-.01a.05.05 0 0 1-.02-.05c.02-.17-.03-.3-.17-.37a.09.09 0 0 1-.04-.04l-.08-.18Zm-5.42-2.38h-.03a.14.14 0 0 0-.05.09c0 .02 0 .03.03.02.09-.03.2-.09.3-.16.05-.02.07-.07.1-.13.01-.07.05-.11.1-.13.01 0 .03-.01.03-.03l.03-.1c0-.02.01-.04.03-.04a1.43 1.43 0 0 0 .2-.1l-.01-.02a.5.5 0 0 0-.16.07c-.11.07-.15.05-.12-.08l.02-.05a.1.1 0 0 1 .03-.05c.06-.05.11-.1.16-.17.02-.03.01-.04-.02-.02a.25.25 0 0 0-.12.16l-.03.04c-.12.07-.18.17-.18.3 0 .01 0 .03-.02.04a.45.45 0 0 0-.1.21c0 .04-.06.1-.15.15h-.04Zm-.02-.07.04.02c.03 0 .04 0 .03-.03l-.01-.09c0-.04-.02-.04-.04 0-.03.05-.07.08-.11.1a4.46 4.46 0 0 0-.4.67c-.03.06-.02.07.03.01.06-.08.12-.16.16-.25a.6.6 0 0 1 .13-.15l.04-.04a.06.06 0 0 0 .02-.04c0-.08.02-.14.07-.19a.04.04 0 0 1 .04 0Zm1.95.94a.37.37 0 0 0-.07.2c0 .02.01.03.03.04.11.06.22.08.31.06.02 0 .03-.02.03-.04a.3.3 0 0 0-.08-.22 10.02 10.02 0 0 0-.07-.23.1.1 0 0 0-.06-.07.11.11 0 0 1-.03-.03l-.06-.07c-.02-.02-.02-.04 0-.06l.15-.12c.03-.02.03-.04 0-.06a.07.07 0 0 0-.04-.02c-.07 0-.11 0-.13.02l-.18.14c-.05.03-.05.07-.02.11.02.02.04.05.04.08.01.07.07.15.17.23.02.01.02.03 0 .04Zm-.84-.5a1 1 0 0 1-.1.06.37.37 0 0 0-.07.04c-.03.02-.03.03 0 .03h.14c.02 0 .03-.01.04-.03a.22.22 0 0 0 .02-.1h-.03Zm-.53.6-.06.06a.2.2 0 0 0 .06-.05.08.08 0 0 1 .04-.04l.3-.13h.05c.1.06.2.07.3.05.03 0 .04-.01.05-.03.03-.06.02-.11-.02-.15a.79.79 0 0 0-.25-.12h-.05a.3.3 0 0 1-.13.05c-.03 0-.04 0-.04-.03l.01-.04c.02-.02.02-.03 0-.04l-.07-.02c-.01 0-.03 0-.04.02l-.18.31a.06.06 0 0 0 0 .07l.03.04c.02.02.02.03 0 .05Zm-.63-.13a2.24 2.24 0 0 0-.02-.05c-.01-.02-.03-.02-.04-.01-.03 0-.04.03-.03.07.02.1.1.17.21.24.02 0 .04 0 .04-.03v-.06a.07.07 0 0 0-.05-.07l-.02-.01a.19.19 0 0 1-.09-.08Zm-.61.26c.02 0 .05-.04.08-.13.04-.1.04-.15.02-.16-.02 0-.05.04-.08.13-.04.1-.04.15-.02.16Zm.37.35c0 .06 0 .13-.03.19 0 .02 0 .03.02.04a.25.25 0 0 0 .1.04l.22.16h.03c.02 0 .02 0 .03-.02v-.1c0-.04.01-.06.05-.07.1 0 .17.01.24.05a.1.1 0 0 0 .06.02.3.3 0 0 1 .12.02h.05l.1-.05h.06c.02.02.05.02.08.01.03 0 .05-.02.07-.05.07-.13.1-.26.09-.38 0-.03-.02-.03-.05-.02l-.1.07a.05.05 0 0 1-.06 0l-.05-.04-.05.01-.01.03a.03.03 0 0 1-.04.01l-.12-.03a.05.05 0 0 1-.04-.04.84.84 0 0 1-.04-.26c0-.02 0-.03-.03-.04-.01 0-.03 0-.05.03a.88.88 0 0 0-.07.12v.06a.2.2 0 0 1-.02.15c0 .02-.02.02-.03.02-.01 0-.02 0-.03-.02l-.09-.2a.03.03 0 0 0-.03-.03h-.08c-.03 0-.03.01-.02.04v.05c0 .02 0 .04-.02.06a.44.44 0 0 0-.08.14c-.01.01-.02.02-.04 0a.17.17 0 0 1-.05-.04c-.02-.02-.01-.04.01-.05l.06-.03a.1.1 0 0 0 .07-.08.1.1 0 0 0-.04-.1.44.44 0 0 1-.16-.2c0-.03-.02-.03-.04 0a.27.27 0 0 1-.13.1 5.72 5.72 0 0 0-.24.5c-.03.05-.06.08-.12.08-.02 0-.03 0-.04.02l-.05.16v.02l.02.02c.02-.1.06-.16.13-.18.02 0 .04-.01.05-.03.07-.08.18-.14.35-.19.03 0 .04 0 .04.03Zm1.17.61c.05.14.12.28.21.43.02.03.04.1.07.24l.02.05c.06.05.1.12.11.2 0 .03.02.05.05.07.07.05.14.11.21.2.02.02.02.02.02 0a1.03 1.03 0 0 0-.1-.37 2.23 2.23 0 0 0-.18-.25.42.42 0 0 1-.06-.14.36.36 0 0 0-.06-.13c-.05-.06-.1-.16-.17-.3a.07.07 0 0 0-.07-.04h-.02c-.03 0-.03.02-.03.04ZM29.15 23.41c-.63.19-1.14.33-1.53.43-.22.06-.47.1-.73.14-.1.01-.19 0-.26-.06a.09.09 0 0 1-.04-.05.76.76 0 0 1-.02-.39c.02-.07.07-.13.17-.15a77 77 0 0 1 1.74-.45c.09-.03.19.01.3.12l.38.37c.02.02.02.03-.01.04Z" fill="#053B58"/><path d="M41.1 24.19c-.05 0-.1-.02-.13-.06-.02-.01-.03-.02-.05-.01a.55.55 0 0 0-.17.13l-.03.07c-.02.03-.04.05-.08.06h-.09c-.02.01-.03.02-.01.04.03.05.09.07.16.05.02 0 .04 0 .05.02.02.02.02.04 0 .06-.02.04-.01.08.03.13.01.02.02.01.03 0l.15-.35a.1.1 0 0 1 .03-.04.44.44 0 0 0 .1-.1l.03-.01v.03a.17.17 0 0 1-.1.11.06.06 0 0 0-.03.04l-.04.09c-.03.1-.05.16-.08.2-.03.05-.04.08-.04.11 0 .07-.02.07-.06.03v-.03c0-.02 0-.04-.03-.04h-.1v-.03c.01-.04.03-.1.06-.14.01-.02 0-.03-.02-.03-.08 0-.14-.01-.16-.03-.01-.02-.02-.02-.03-.01l-.05.06v.03l.1.25-.05.03-.09-.26v-.05l.01-.05c0-.02 0-.03-.02-.03a6.06 6.06 0 0 1-.63-.22.06.06 0 0 1-.03-.06l.02-.04a.04.04 0 0 0 .02-.04c0-.01 0-.03-.02-.03l-.01-.01c-.08-.04-.12-.08-.13-.12 0-.05.01-.1.05-.12v-.02l-.03-.02v-.03a.88.88 0 0 0 .06-.06c.07-.1.05-.12-.06-.09-.07.03-.14 0-.23-.09a.07.07 0 0 0-.05-.02h-.12l-.03.01v.03l.08.1v.03l-.03.08c0 .02 0 .04.02.05l.08.06c.03 0 .04.03.02.05l-.21.32c-.06.07-.13.1-.2.08-.03 0-.04.01-.04.04 0 .08.02.13.04.16.09.1.06.15-.08.12-.03 0-.07.02-.13.06l-.06-.02c.04-.07.1-.1.15-.07.13.04.15 0 .07-.1a.6.6 0 0 1-.05-.1v-.06a.22.22 0 0 1 .06-.07.04.04 0 0 1 .05 0c.04.02.08 0 .13-.04l.18-.25a.1.1 0 0 0 .01-.07.07.07 0 0 0-.04-.05c-.05-.03-.05-.09-.01-.18l-.01-.04-.05-.03a.07.07 0 0 1-.03-.07c0-.03.02-.05.05-.06.12-.05.22-.02.3.08l.05.02.14-.03c.02 0 .04 0 .06.02.04.02.04.06 0 .11l-.06.1v.04c.04.03.03.07-.02.1-.02.02-.02.04 0 .06l.15.1c.02 0 .02.02.01.03l-.02.03c-.03 0-.03.02-.03.04.01.05.06.08.13.1l.36.11c.04.01.07.01.1-.01.02-.01.03-.02.02-.04a.15.15 0 0 1-.02-.05l.01-.03h.04c.03 0 .05.02.06.04l-.01.05a.1.1 0 0 0-.02.09c0 .02 0 .02.01 0 .03-.06.07-.1.14-.08.02 0 .03 0 .04-.03v-.04l.03-.03.13-.1c.05-.05.1-.08.16-.07.07 0 .11.04.14.1Z" fill="#EC8122"/><path d="m40.49 24.85-.13-.01c-.01 0-.03 0-.03.02v.02a.21.21 0 0 1-.08.11l-.3.3a.54.54 0 0 1-.13.09.04.04 0 0 0-.03.04l.02.2a.5.5 0 0 1-.18.39.07.07 0 0 1-.06.01.07.07 0 0 1-.05-.04l-.3-.62a1.68 1.68 0 0 1-.13-.53l-.01-.01h-.01c-.02.07-.06.1-.11.1h-.05l-.12-.1c-.03-.02-.04-.05-.01-.08v-.04l-.03-.02c.05-.04.1-.06.13-.06.14.03.17-.01.08-.12-.02-.03-.03-.08-.04-.16 0-.03 0-.04.04-.04.07.02.14-.01.2-.08.08-.1.15-.21.21-.32.02-.02 0-.04-.02-.05a.27.27 0 0 1-.08-.06.06.06 0 0 1-.02-.05c0-.04.02-.07.03-.08v-.04l-.07-.09v-.03l.02-.01h.12c.02 0 .04 0 .05.02.09.08.16.12.23.1.11-.04.13-.02.06.08l-.05.06c-.01 0-.02.02 0 .03l.01.02v.02a.14.14 0 0 0-.04.12c0 .04.05.08.13.12l.03.04c0 .02 0 .03-.02.04a.05.05 0 0 0-.02.04c0 .03.01.05.03.06l.14.07.5.15c.01 0 .02.01.01.03l-.01.05v.05l.09.26ZM24.01 36.05a53.91 53.91 0 0 1-4.34 5.08c-.08.08-.26.14-.53.18l-.06.01-1.52.22a9 9 0 0 0-1.1.21c-.77.22-1.6.63-2.51 1.24h-.1c-.02.01-.03 0-.02-.02a.3.3 0 0 1 .07-.13l.06-.07c.47-.54.83-.94 1.07-1.19.39-.42.76-.79 1.1-1.11 1.2-1.08 2.16-2 2.9-2.74a33.77 33.77 0 0 0 2.66-2.97 42.55 42.55 0 0 0 4.4-7.2c.17-.42.3-.81.41-1.16 0-.02 0-.03-.02-.03l-.03.01-1.23 2.18a72.38 72.38 0 0 1-2.17 3.53 31.76 31.76 0 0 1-2.58 3.46c-.86.99-1.87 2.03-3.03 3.13-.08.07-.1.06-.09-.05.05-.25.09-.53.1-.85.03-.63.03-1.19 0-1.66v-.37c.04-.16.1-.3.2-.42.07-.08.18-.19.34-.32 1.29-1.09 2.58-2.21 3.89-3.38a17.07 17.07 0 0 0 4.32-6.2c.11-.2.23-.38.35-.55.1-.12.22-.23.36-.33.1-.06.32-.15.67-.28a52.3 52.3 0 0 1 1.68-.57.43.43 0 0 1 .41.08c.43.33.84.76 1.24 1.29a15.2 15.2 0 0 1 1.64 2.66c.43.9.72 1.72.85 2.45.24 1.33.1 2.52-.44 3.58a3.83 3.83 0 0 1-2.17 1.91v-.02l.03-.11c.18-.44.28-.77.3-1a54.27 54.27 0 0 0 .07-5.05.95.95 0 0 1 0-.08c0-.01-.01-.02-.02-.01a.17.17 0 0 0-.02 0c-.1 1.7-.17 2.8-.22 3.31-.09.82-.23 1.62-.42 2.38-.1.38-.34.76-.72 1.14a7.6 7.6 0 0 1-1.96 1.44c-.25.12-.53.2-.86.26-.02 0-.02 0-.02-.02.11-.22.32-.68.63-1.4a28.68 28.68 0 0 0 2.13-7.5c.02-.17 0-.17-.04-.01-.95 3-1.99 5.86-3.13 8.58-.17.4-.42.78-.75 1.14a4.7 4.7 0 0 1-2.43 1.39c-.48.1-.94.1-1.37.02a47.7 47.7 0 0 1-.6-.12c-.02 0-.03-.02-.01-.03.6-.77 1.12-1.48 1.57-2.12.42-.6.77-1.2 1.06-1.81ZM41.1 24.19a.44.44 0 0 1-.1.1.1.1 0 0 0-.04.04l-.15.34c0 .02-.02.03-.03 0-.04-.04-.05-.08-.02-.12a.05.05 0 0 0 0-.06.05.05 0 0 0-.06-.02c-.07.02-.13 0-.16-.05-.02-.02-.01-.03.01-.03l.09-.01c.04-.01.06-.03.08-.06l.03-.07c.06-.06.12-.1.17-.13l.05.01c.03.04.08.06.13.06ZM42.87 24.77c0 .02-.01.02-.02 0-.06-.1-.06-.19 0-.27.03-.06.06-.06.07.02 0 .06 0 .15-.05.25Z" fill="#053B58"/><path d="M40.64 24.7c-.04.06-.07.1-.1.12l-.1-.25v-.03l.05-.06h.03c.02.03.08.04.16.04.02 0 .03.01.02.03a.39.39 0 0 0-.06.14ZM43 25.4l.13.07v.02l.02.05c0 .02 0 .02-.02.02l-.2-.09a.07.07 0 0 1-.04-.04.39.39 0 0 1 .01-.34c.01-.02.03-.03.05-.03.03 0 .04.02.05.04l.03.1v.03l-.05.12c-.01.02 0 .03.01.04ZM43.1 25.99l-.06.04h-.02L43 26v-.02l.05-.07a.06.06 0 0 1 .05-.03c.06 0 .1 0 .1-.03.03-.1.06-.1.08 0 0 .03 0 .06.02.1l-.01.05a.13.13 0 0 0-.05.1l-.02.01h-.02a.17.17 0 0 1-.07-.12l-.02-.02h-.02ZM39.88 26.21c-.04 0-.07 0-.09-.05a.3.3 0 0 1 .02-.27h.02a.3.3 0 0 1 .12.24c0 .05-.03.07-.07.08ZM42.25 26.49c.2-.17.33-.31.4-.42.01-.01.02-.02.04 0l.11.07c.02.01.02.03.01.05-.02.04-.04.07-.07.08-.02 0-.02.02-.02.04.01.1.03.15.05.18.02.01.02.02 0 .03-.05.01-.07.05-.07.1 0 .02 0 .04-.02.05a.39.39 0 0 0-.09.18.1.1 0 0 1-.06.08c-.03.01-.06 0-.08-.02-.02-.02-.06-.03-.1-.02-.09.02-.15 0-.18-.08a.77.77 0 0 1-.06-.18c-.01-.04 0-.07.01-.1.02-.03.05-.04.08-.04h.05ZM41.38 26.37a4.77 4.77 0 0 1 .35.3c.03.1.08.16.14.2.02.01.03.03.02.05l-.04.14c0 .03-.02.05-.05.06-.03 0-.05 0-.08-.02a.78.78 0 0 1-.23-.25c-.1-.21-.23-.4-.39-.54-.05-.06-.04-.08.04-.08.05 0 .1.02.14.06l.1.08ZM42.85 26.84v.13c0 .01 0 .03-.02.03h-.03c-.02 0-.03-.01-.03-.03v-.1a.08.08 0 0 1-.01-.06.7.7 0 0 1 .14-.31.05.05 0 0 1 .05-.02c.08.03.15.02.22-.03.03-.01.03 0 .02.02-.02.04-.04.06-.07.06l-.17.02c-.02 0-.05.02-.07.05a.05.05 0 0 0-.01.04 38.6 38.6 0 0 1 .2 0l-.1.08v.03l.05.12v.03l-.07.03c-.02.01-.03 0-.04-.01l-.03-.08c-.02-.04-.03-.04-.03 0ZM43.56 26.66l-.03-.02c-.03-.02-.03-.04 0-.07a.13.13 0 0 1 .11-.05c.02 0 .04.02.04.04v.07c0 .03 0 .04.03.04.02 0 .05-.02.08-.08.02-.03.05-.04.08-.02l.22.09c.08.03.1.1.1.19-.01.03 0 .07.03.12.02.02.01.04 0 .05l-.02.01h-.06a.16.16 0 0 1-.03-.07c0-.02-.02-.03-.04-.03-.03 0-.06.03-.1.1-.03.04-.06.04-.09 0 0-.02-.04-.02-.09 0-.03 0-.03 0-.02-.03l.04-.04a.09.09 0 0 0 0-.09.09.09 0 0 0-.06-.06l-.17-.04c-.02 0-.03-.02-.03-.04l.02-.05-.01-.02ZM42.36 27.2h.05c.01 0 .02.01.02.03v.03c0 .01 0 .02-.02.02-.17 0-.36-.03-.56-.06a.04.04 0 0 1-.03-.03l.01-.04c.07-.05.16-.05.25 0 .02.02.04.02.06 0 .07-.04.14-.03.2.04l.02.01ZM36.96 27.9l.01-.07a.06.06 0 0 1 .06-.03c.12 0 .2-.07.27-.22l.03-.02c.01 0 .02 0 .03.02.04.07.05.15.04.23l-.14.5c-.02.07-.05.11-.08.13-.06.02-.11.01-.17-.03-.03-.03-.06-.1-.08-.2 0-.03 0-.05.02-.07.05-.05.05-.13.01-.25Z" fill="#053B58"/></svg>