<!-- by TradingView --><svg width="56" height="56" viewBox="0 0 56 56" xmlns="http://www.w3.org/2000/svg"><path fill="#F0F3FA" d="M0 0h56v56H0z"/><path d="M26.37 11c.46-.01.79.2.96.64.23.57.27 1.26.27 1.91v13.5c.01.85-.07 1.75-.4 2.54a3.75 3.75 0 0 1-1.69 1.75 37586.7 37586.7 0 0 0-10.91 5.1c-.58.28-1.68.72-2.17.06a2.1 2.1 0 0 1-.33-.86c-.07-.42-.1-.86-.1-1.32l.02-13.53c0-.58.05-1.12.15-1.64.14-.77.45-1.44 1.02-1.97.58-.54 1.14-.8 1.98-1.2l9.8-4.57c.44-.2.93-.4 1.4-.4Z" fill="#2D3091"/><path d="M29.6 11.02c.48.01.96.2 1.4.4 3.93 1.84 7.2 3.36 9.82 4.57.83.39 1.4.66 1.98 1.2.56.52.87 1.2 1.02 1.97.1.51.14 1.06.14 1.63L44 34.33c0 .46-.03.9-.1 1.32a2.1 2.1 0 0 1-.33.86c-.49.66-1.59.22-2.17-.05a50752.78 50752.78 0 0 0-10.92-5.1 3.75 3.75 0 0 1-1.68-1.75 6.6 6.6 0 0 1-.42-2.55v-13.5c0-.64.04-1.33.27-1.9.17-.45.49-.66.96-.64Z" fill="#ED1D26"/><path d="m21.64 18.8-.61.28a.02.02 0 0 1-.03 0V15.74l.02-.02 3.96-1.79H25v3.34l-.01.02-.61.27a.13.13 0 0 0-.06.05L21 23.3v.02l3.32 2.67a.04.04 0 0 0 .04 0l.62-.27a.02.02 0 0 1 .02 0v3.34a.03.03 0 0 1-.01.02l-3.97 1.8H21a.02.02 0 0 1-.01 0V27.5l.64-.29a.02.02 0 0 0 0-.03l-1.95-1.58a.03.03 0 0 0-.04 0v.01L17.66 29v.01a.01.01 0 0 0 .02 0l.61-.28h.01a.01.01 0 0 1 .01.02v3.33a.02.02 0 0 1-.01.02l-3.97 1.8h-.02V30.54l.01-.01.63-.29c.01 0 .02 0 .02-.02l.02-.02v-8.37h-.01v-.01h-.01l-.63.28a.02.02 0 0 1-.01 0V18.75l.02-.01 3.95-1.8a.01.01 0 0 1 .02 0V20.3l-.01.01-.64.3h-.01v5.02l3.98-6.81v-.01ZM35 15.75v3.4l-.68-.34a.01.01 0 0 0-.01 0v.01l1.96 7.92.01.01h.01l1.95-6.13v-.01l-.64-.3h-.01v-3.34a.01.01 0 0 1 .02 0l3.92 1.8v3.34h-.01l-.62-.28h-.02L37.6 32.1v.01h-.01l-2.63-1.2v-.01l-3.3-13.3h-.01l-.65-.3H31v-3.34l.01-.01L35 15.75Z" fill="#fff"/><path d="M14.5 39c-.92-.78-.35-1.66.55-2.09l11.16-5.1a4.93 4.93 0 0 1 3.85.04l10.6 4.98c.53.25 1.23.64 1.27 1.3.03.48-.35.88-.76 1.13-.17.1-.38.2-.65.33l-10.04 4.78c-.5.24-.82.38-.98.43-.98.27-2.15.28-3.12-.06A48255.13 48255.13 0 0 1 15 39.34a2.32 2.32 0 0 1-.5-.33Z" fill="#FFF301"/><path d="m22.32 36.28 1.35-.03c.15 0 .24-.03.4-.06a.02.02 0 0 1 .01 0v.01l.12.93c0 .01 0 .03-.02.04a.06.06 0 0 1-.04.02l-.1.02c-.03 0-.04 0-.06-.02a.07.07 0 0 1-.03-.04.8.8 0 0 0-.3-.48c-.2-.12-.55-.1-.77-.05a.12.12 0 0 0-.1.09c-.02.1-.03.2-.03.33v2.43c0 .13 0 .26.03.38 0 .02.01.04.03.05a.1.1 0 0 0 .04.03l.31.1h.03v.16a.04.04 0 0 1-.02.04h-.02c-.26-.01-.57-.04-.84-.04s-.58.02-.84.04a.04.04 0 0 1-.04 0 .04.04 0 0 1 0-.04v-.16l.02-.01.32-.1a.1.1 0 0 0 .07-.07c.03-.12.04-.25.04-.38v-2.43c0-.12-.01-.23-.04-.33a.11.11 0 0 0-.03-.06.12.12 0 0 0-.05-.03c-.23-.05-.58-.08-.77.05a.8.8 0 0 0-.31.48l-.03.04a.07.07 0 0 1-.05.01l-.11-.01a.06.06 0 0 1-.04-.03.06.06 0 0 1-.02-.04l.11-.92v-.01h.02c.16.03.26.05.4.05.56.02 1 .04 1.36.04ZM33.2 39.11c.06.25.2.46.4.64.2.17.44.22.7.15.32-.08.4-.43.37-.7-.03-.21-.33-.42-.5-.53l-.62-.4c-.36-.24-.61-.49-.62-.94-.01-.27.08-.49.26-.68.3-.3.66-.45 1.08-.44.3 0 .62.08.97.16h.01l.01.02a8 8 0 0 1 .05 1c0 .02-.02.03-.03.03a.47.47 0 0 1-.2-.01l-.03-.02v-.02c-.08-.44-.45-.95-.98-.8a.4.4 0 0 0-.3.27c-.13.4.13.64.44.85l.84.52c.04.03.12.09.22.2.26.25.32.76.2 1.09-.12.34-.46.59-.8.7-.2.06-.44.08-.72.06a6.4 6.4 0 0 1-.93-.17 6.13 6.13 0 0 1-.13-1l.03-.01a.5.5 0 0 1 .24 0 .05.05 0 0 1 .03.03ZM26.5 36.23c.52 0 1.02.21 1.39.59a2.05 2.05 0 0 1 0 2.86 1.95 1.95 0 0 1-2.8 0 2.05 2.05 0 0 1 0-2.86c.38-.38.88-.6 1.4-.6ZM31.58 40.06V40.2a.04.04 0 0 1-.03.02h-.02a10.32 10.32 0 0 0-1.72-.03V40.02l.04-.01c.08 0 .28-.06.36-.12a.07.07 0 0 0 .02-.04l.03-.34v-1.08a.35.35 0 0 0-.03-.16c-.26-.48-.55-.98-.87-1.5a.56.56 0 0 0-.49-.3h-.03l-.02-.04v-.13a.05.05 0 0 1 .02-.03l.01-.01h.02a10.97 10.97 0 0 0 1.73.02v.16l-.01.02-.03.02c-.06 0-.13.02-.23.04a.1.1 0 0 0-.05.04.09.09 0 0 0-.02.05 106.74 106.74 0 0 0 .68 1.19.03.03 0 0 0 .03-.01c.24-.35.48-.72.66-1.1.1-.22-.25-.21-.36-.21 0 0-.02 0-.03-.02V36.28a.04.04 0 0 1 .04-.03 7.1 7.1 0 0 0 1.4.01l.02.02V36.42l-.01.04-.04.01c-.25.02-.4.12-.54.34-.32.47-.63.94-.9 1.41a.49.49 0 0 0-.09.29v.93c0 .12.02.25.04.37.01.05.04.1.08.1.1.06.2.09.3.1 0 0 .02 0 .03.02v.03Z" fill="#232021"/><path d="M26.55 39.93c-.46 0-.75-.37-.89-.76a3.17 3.17 0 0 1-.08-1.9c.11-.34.36-.7.77-.7.73-.03 1 .55 1.1 1.16.1.59.09 1.3-.22 1.83a.71.71 0 0 1-.68.37Z" fill="#FFF301"/></svg>