<!-- by TradingView --><svg width="56" height="56" viewBox="0 0 56 56" xmlns="http://www.w3.org/2000/svg"><path fill="#F0F3FA" d="M0 0h56v56H0z"/><path d="M28.8 11c4.28.27 7.9 1.83 10.9 4.66a16.79 16.79 0 0 1 5.3 11.7v1.27a16.77 16.77 0 0 1-4.78 11.18A16.9 16.9 0 0 1 28.82 45H27.2a16.87 16.87 0 0 1-10.81-4.6A16.79 16.79 0 0 1 11 28.68v-1.35A17.08 17.08 0 0 1 27.17 11h1.64Zm11.95 17a12.75 12.75 0 1 0-25.5 0 12.75 12.75 0 0 0 25.5 0Zm2 4.19a1.48 1.48 0 0 0-.8.1h-.04a.07.07 0 0 1-.03-.04c-.06-.17-.13-.27-.21-.3-.64-.28-.74.45-.86.93a.1.1 0 0 0 0 .07.1.1 0 0 0 .06.05l1.47.42a.11.11 0 0 0 .12-.04l.02-.04.04-.11a.11.11 0 0 0-.08-.14l-.53-.15a.08.08 0 0 1-.05-.1c.03-.14.08-.23.17-.27a.26.26 0 0 1 .1-.03l.52-.02a.09.09 0 0 0 .08-.06l.06-.21a.05.05 0 0 0-.04-.06Zm-28.06 1.6-.1-.29a.08.08 0 0 1 .04-.1l.44-.17a.1.1 0 0 0 .06-.06.1.1 0 0 0 0-.08l-.04-.12a.1.1 0 0 0-.14-.06l-1.43.55a.11.11 0 0 0-.06.15l.04.1a.1.1 0 0 0 .1.08.1.1 0 0 0 .04-.01l.55-.21a.1.1 0 0 1 .07 0 .1.1 0 0 1 .05.05 9.71 9.71 0 0 1 .21.62.1.1 0 0 1-.05.05l-.55.21a.1.1 0 0 0-.06.06.1.1 0 0 0 0 .08l.04.11a.12.12 0 0 0 .1.08l.05-.01 1.42-.55a.1.1 0 0 0 .06-.14l-.04-.12a.1.1 0 0 0-.1-.07.1.1 0 0 0-.04.01l-.44.17a.08.08 0 0 1-.1-.05 24.4 24.4 0 0 1-.12-.28Zm25.35.93-.07.14a.16.16 0 0 0 .04.12l1.13 1.16.06.03a.1.1 0 0 0 .06-.03c.05-.04.08-.12.09-.23a.11.11 0 0 0-.06-.1c-.2-.11-.23-.27-.08-.47l.02-.03v-.03c.08-.24.22-.32.43-.21a.11.11 0 0 0 .12-.02c.08-.07.13-.14.13-.2a.1.1 0 0 0-.02-.07.09.09 0 0 0-.05-.04l-1.6-.2a.16.16 0 0 0-.13.03l-.07.15Zm-23.57 1.15a.74.74 0 0 0-1.03-.17l-.23.17a.74.74 0 0 0-.17 1.03l.06.1a.74.74 0 0 0 1.03.17l.24-.17a.74.74 0 0 0 .17-1.03l-.07-.1Zm22.7 1.46-.19.24a.08.08 0 0 1-.12.02l-.37-.29a.1.1 0 0 0-.15.02l-.07.1a.1.1 0 0 0-.01.12l.03.03 1.2.93a.12.12 0 0 0 .09.03.12.12 0 0 0 .08-.05l.07-.1a.11.11 0 0 0 .02-.07.1.1 0 0 0-.04-.07l-.47-.36a.1.1 0 0 1-.04-.07c0-.02 0-.05.02-.07a23.04 23.04 0 0 1 .36-.47.1.1 0 0 1 .06-.03.1.1 0 0 1 .07.02l.47.36a.1.1 0 0 0 .08.02.1.1 0 0 0 .07-.04l.07-.1a.11.11 0 0 0 .01-.12.11.11 0 0 0-.03-.03l-1.2-.93a.1.1 0 0 0-.08-.02.1.1 0 0 0-.08.04l-.07.1a.1.1 0 0 0 .01.14l.38.3a.08.08 0 0 1 .01.1l-.18.25Zm-22.25 1.95c.29.3.62.38.95.07a142.53 142.53 0 0 0 .77-.75.1.1 0 0 0-.04-.13l-.1-.07a.12.12 0 0 0-.15.01l-.74.71c-.16.15-.33.1-.47-.04-.14-.15-.18-.32-.03-.48.18-.19.43-.42.74-.71a.12.12 0 0 0 .01-.16l-.07-.1a.1.1 0 0 0-.12-.03 174.4 174.4 0 0 0-.78.74c-.32.31-.25.65.03.94Zm20.93-.36a.74.74 0 0 0-1.04-.05l-.09.08a.74.74 0 0 0-.05 1.05l.2.2a.74.74 0 0 0 1.04.06l.09-.08a.74.74 0 0 0 .05-1.05l-.2-.2Zm-17.44 1.12c-.21-.41-1-.89-1.2-.14-.07.24.25.58.4.74a.14.14 0 0 1 .01.17l-.04.07a.19.19 0 0 1-.13.1.2.2 0 0 1-.16-.05c-.19-.16-.28-.3-.29-.45a.1.1 0 0 0-.04-.08.1.1 0 0 0-.1 0l-.1.06a.14.14 0 0 0-.06.17c.17.48.85 1 1.24.35.19-.32-.14-.64-.38-.88a.12.12 0 0 1-.01-.15l.03-.05a.17.17 0 0 1 .25-.06.8.8 0 0 1 .3.36.1.1 0 0 0 .07.06.1.1 0 0 0 .08 0l.09-.06a.12.12 0 0 0 .04-.16Zm14.66 1.03-.71-.4a.18.18 0 0 0-.13-.02.68.68 0 0 0-.23.12.09.09 0 0 0-.02.11l.77 1.35.07.05a.1.1 0 0 0 .08-.01l.08-.05a.12.12 0 0 0 .06-.08.13.13 0 0 0-.02-.1l-.47-.82v-.02a.04.04 0 0 1 .05-.04l.32.18.71.4c.04.02.09.02.13.02a.68.68 0 0 0 .23-.12.09.09 0 0 0 .02-.12l-.77-1.34a.11.11 0 0 0-.07-.05.1.1 0 0 0-.08 0l-.08.06a.12.12 0 0 0-.04.17l.47.83a.04.04 0 0 1-.05.05l-.32-.17Zm-13.42-.4a.06.06 0 0 0-.08.03l-.7 1.45a.06.06 0 0 0 0 .05.06.06 0 0 0 .02.03l.95.46a.06.06 0 0 0 .08-.03l.07-.15a.06.06 0 0 0 0-.06l-.03-.02-.64-.3a.06.06 0 0 1-.03-.07v-.02l.16-.32a.06.06 0 0 1 .06-.03h.02l.53.26a.06.06 0 0 0 .05 0h.02l.01-.03.07-.14a.06.06 0 0 0-.03-.08l-.53-.26a.06.06 0 0 1-.03-.03.06.06 0 0 1 0-.05l.13-.25a.06.06 0 0 1 .03-.03.06.06 0 0 1 .05 0l.62.3a.06.06 0 0 0 .07 0l.01-.02.08-.16v-.02a.06.06 0 0 0-.01-.04l-.02-.02-.93-.45Zm10.54.86-.16.05a.16.16 0 0 0-.05.12l-.03 1.6c0 .03.01.05.03.07a.1.1 0 0 0 .06.03c.06 0 .14-.03.22-.1a.11.11 0 0 0 .03-.12c-.06-.22.03-.35.28-.38l.03-.01.03-.01c.22-.13.37-.08.45.14a.11.11 0 0 0 .1.08c.1 0 .18-.01.24-.05a.1.1 0 0 0 .03-.06c0-.03 0-.05-.02-.07l-.98-1.28a.16.16 0 0 0-.1-.06l-.16.05ZM25 42.65a.73.73 0 0 0-.52-.9l-.12-.03a.73.73 0 0 0-.9.52l-.07.3a.73.73 0 0 0 .52.89l.12.03a.73.73 0 0 0 .9-.52l.07-.3Zm4.62.69c-.03 0-.05 0-.06-.03a70.26 70.26 0 0 0-.54-1.12.12.12 0 0 0-.07-.01l-.27.03a.09.09 0 0 0-.06.03.1.1 0 0 0-.02.07l.18 1.54a.09.09 0 0 0 .07.08h.03l.13-.01a.1.1 0 0 0 .08-.1l-.1-.94a.04.04 0 0 1 .05-.04s.02 0 .02.02l.43.91a.13.13 0 0 0 .14.08.87.87 0 0 0 .1-.01.13.13 0 0 0 .1-.1l.22-1a.04.04 0 0 1 .04-.03l.03.01.01.03.1.93a.09.09 0 0 0 .04.07.1.1 0 0 0 .07.02l.13-.02a.1.1 0 0 0 .06-.03.09.09 0 0 0 .02-.07l-.18-1.54a.1.1 0 0 0-.1-.08l-.26.02a.12.12 0 0 0-.11.1l-.24 1.15c0 .02-.02.03-.04.04Zm-2.22-.84a.06.06 0 0 0 .06-.03v-.02l.02-.17a.06.06 0 0 0-.02-.04.06.06 0 0 0-.04-.02l-.98-.08a.06.06 0 0 0-.06.04v.02l-.13 1.6a.06.06 0 0 0 .01.04.06.06 0 0 0 .05.02l.2.02a.06.06 0 0 0 .07-.03v-.02l.05-.58a.06.06 0 0 1 .02-.04.06.06 0 0 1 .04-.02l.58.05h.02a.06.06 0 0 0 .03-.03v-.03l.02-.16a.06.06 0 0 0-.03-.06h-.02l-.57-.05a.06.06 0 0 1-.04-.02.06.06 0 0 1-.01-.05l.02-.33a.06.06 0 0 1 .02-.04.06.06 0 0 1 .05-.02l.64.05Z"/><path d="M23.27 28.5a3.31 3.31 0 0 1 1.1-2.47A3.76 3.76 0 0 1 27 25c.99 0 1.94.37 2.64 1.03a3.4 3.4 0 0 1 1.09 2.47c0 .93-.4 1.82-1.1 2.47A3.86 3.86 0 0 1 27 32c-.99 0-1.94-.37-2.64-1.03a3.4 3.4 0 0 1-1.09-2.47Zm3.7-1.91a1.72 1.72 0 0 0-1.27.57 1.93 1.93 0 0 0-.5 1.36c0 .51.2 1 .54 1.35a1.76 1.76 0 0 0 1.97.4 1.93 1.93 0 0 0 1.1-1.78c0-.52-.2-1-.55-1.36-.34-.35-.8-.55-1.28-.54ZM20 27.63h.95c.01 0 .02 0 .03-.02l.02-.03v-2.52l.01-.04a.05.05 0 0 1 .04-.02h1.88c.02 0 .03 0 .05.02l.02.06v6.85c0 .02 0 .04-.02.05a.06.06 0 0 1-.04.02h-1.89c-.01 0-.03 0-.04-.02a.07.07 0 0 1-.01-.04v-2.6l-.02-.05a99.7 99.7 0 0 0-1.96 0 .07.07 0 0 0-.02.04v2.6l-.01.05a.05.05 0 0 1-.04.02h-1.89c-.01 0-.03 0-.04-.02a.07.07 0 0 1-.02-.05v-6.85c0-.02 0-.04.02-.06a.07.07 0 0 1 .05-.02h1.88c.01 0 .03 0 .04.02l.01.04v2.52c0 .01 0 .02.02.03l.03.02H20ZM35 28.97h.04v-.01l2.3-3.87a.18.18 0 0 1 .15-.09h1.42a.09.09 0 0 1 .09.09v6.82a.08.08 0 0 1-.08.08h-1.86l-.04-.01a.06.06 0 0 1-.02-.05v-2.82a.04.04 0 0 0-.07 0l-1.43 2.1a.22.22 0 0 1-.12.09h-.75a.22.22 0 0 1-.12-.1l-1.44-2.09-.02-.01h-.02l-.02.01v2.82a.06.06 0 0 1-.06.07h-1.86a.08.08 0 0 1-.08-.08L31 25.09a.09.09 0 0 1 .09-.08h1.42a.19.19 0 0 1 .15.08l2.3 3.87h.01l.02.01H35ZM41.22 32.75a.1.1 0 0 1-.06-.05.1.1 0 0 1 0-.08l.05-.19a.31.31 0 0 1 .11-.16.2.2 0 0 1 .17-.04l.05.02c.06.01.1.05.12.11.03.06.03.14 0 .2l-.05.2a.1.1 0 0 1-.12.06l-.27-.07ZM40.98 35.2a.57.57 0 0 1-.08.13.08.08 0 0 1-.11 0c-.28-.25-.41-.39-.4-.42.02-.04.22-.03.58.05a.08.08 0 0 1 .06.09l-.05.15ZM16.04 36.83c.28-.18.4-.5.26-.72-.13-.22-.48-.25-.76-.07s-.4.5-.26.72c.13.22.48.25.76.07ZM37.71 39.27c-.21-.26-.55-.34-.74-.17-.2.16-.19.5.03.77.21.25.55.33.75.16.2-.16.18-.5-.04-.76ZM32.3 41.91c.04 0 .17.14.37.45a.08.08 0 0 1-.02.1.59.59 0 0 1-.14.07.53.53 0 0 1-.15.04.08.08 0 0 1-.08-.08c-.02-.37-.02-.56.03-.58ZM24.66 42.71c.08-.33-.05-.64-.3-.71-.25-.07-.52.14-.6.47-.1.32.04.64.29.7.25.08.52-.13.6-.46Z"/></svg>