<!-- by TradingView --><svg width="56" height="56" viewBox="0 0 56 56" xmlns="http://www.w3.org/2000/svg"><path fill="#F0F3FA" d="M0 0h56v56H0z"/><path d="M24.63 13.77c6.4-.64 7.99 1.49 9.94 2.81.26.27.45.56.57.9a8.9 8.9 0 0 1 .82 3.45 8.35 8.35 0 0 1-1.48 4.75 8.02 8.02 0 0 1-4.56 3.12c-.46.13-.94.2-1.47.2-.8 0-1.55.01-2.3-.17-.22-.05-.5-.14-.83-.27-.73-.29-1.13-.44-1.7-.83a7.87 7.87 0 0 1-3.49-8.13 8.03 8.03 0 0 1 4.5-5.83Z" fill="#CD1623"/><path d="M32.9 14.71c.58.54 1.05 1 1.4 1.4.1.13.2.28.27.47.4 1.13 1 2.14 1.05 3.37l.06 1.2c.03.5-.03 1-.17 1.5l-.2.64c-.05.2-.14.4-.24.6-.2.4-.42.78-.64 1.17a4.35 4.35 0 0 1-.91 1.21 8.22 8.22 0 0 1-4.12 2.2.86.86 0 0 1-.54 0 .84.84 0 0 0-.42-.01c-.66.13-1.44-.69-2.09-.73a3.7 3.7 0 0 1-1.26-.32 6.45 6.45 0 0 1-2.05-1.33c-.24-.25 0-.5-.13-.73-.13-.2-.3-.3-.4-.54-.77-1.87-.89-1.93-.84-2.47.02-.3-.03-.58-.16-.82a.55.55 0 0 1-.02-.37c.26-1.24 1.21-.28.08-1.7a.1.1 0 0 1 0-.11c.12-.25.3-.46.4-.72.2-.52.47-1 .79-1.43 1.2-1.68-.31-.35.87-1.06 1.15-.67 1.78-1.3 3.22-1.43.3-.03.6-.04.89-.02.11 0 .18.06.2.17a.46.46 0 0 0-.1.25c0 .07.02.1.1.09l.26-.06c.05 0 .06-.03.03-.08l-.13-.23c0-.08.06-.11.16-.1 1.65.18 1.57.85 3.18 1.4l-.55.68c-.02 0-.03 0-.04.02a.15.15 0 0 1-.09.07c-.41.14-.67.02-.77-.36-.02-.05-.04-.06-.08-.04-.23.1-1.63.37-1.65.44a.15.15 0 0 1-.08.08c-.26.13-.48.07-.68-.16-.13-.1-.21-.1-.24 0-.08.3-.26.47-.54.52a.1.1 0 0 1-.1-.03c-.12-.13-.28-.17-.49-.13-.02-.02-.06-.03-.1-.03l-.11.08c-.14.09-.32.4-.49.54a.22.22 0 0 1-.1.05l-.4.07a.2.2 0 0 0 0 .14l-.23.23a.94.94 0 0 0-.17.27c-.08.17-.18.32-.3.44l-.1.06c-.06.27 0 1.1-.33 1.11-.06.05-.08.11-.05.2l.05.7c0 .11.1.18.08.29-.02.12-.18.2-.22.36 0 .03 0 .06.02.08.37.42.65 1.22.78 1.74.02.04.04.07.08.1.13.06.2.17.24.32.02.14.09.23.2.3.06.03.13.04.2 0a.44.44 0 0 1 .46.06c.06.05 1.7 1.09 1.8.98.36-.5.73-.5 1.12-.01.17.21.2-.16.21-.25-.02-.56 0-1.18.23-1.7.04-.1.07-.21.07-.36 0-.23.09-.44.26-.61a.18.18 0 0 1 .23-.02c.1.06.22.09.34.06.04-.01.06-.04.05-.08l-.01-.05a.39.39 0 0 0-.14-.16 8.4 8.4 0 0 1-.6-.43c-.22-.09-.4-.21-.57-.37-.03-.02-.03-.04.01-.05v-.01c-.02-.05 0-.06.04-.06.46.07.92.06 1.39-.02a.86.86 0 0 1 .4.03c.82.24.52-.06 1.52.05.15.02.28.07.41.17.17.12.36.22.58.28.1.03.14.14.1.22a.16.16 0 0 1-.06.07c-.23.15-.32.37-.28.65a.1.1 0 0 0 .1.09.1.1 0 0 0 .05-.02c.15-.1.65.45.96.3.26.14.38.3.36.47-.03.28 0 .57-.13.82s-.26.5-.43.71c-.15.2-.28.42-.39.63-.1.2-.07.22.07.05A5.47 5.47 0 0 0 34.8 23c0-.02.02-.03.03-.05a.15.15 0 0 0 .04-.08c.06-.3.04-1.22.28-1.4a.36.36 0 0 0 .15-.32l-.13-1.55a4.8 4.8 0 0 0-1.98-3.32c-.38-.23-.7-.56-1.09-.77l-.95-.52c-.48-.25-.97-.41-1.42-.74a.29.29 0 0 0-.15-.05c-.3-.02-.6-.1-.9-.24a.18.18 0 0 0-.13 0c-.22.08-.46.15-.73.2a.16.16 0 0 1-.18-.2l.02-.08c.02-.06 0-.08-.06-.07-.16.02-.3.08-.44.15-.2.12-.41.2-.63.27-1.05.3-1.65.78-2.66.97a.74.74 0 0 0-.32.15c-.28.22-1.81 1.8-1.77 1.87.06.1.05.21-.02.3a4.1 4.1 0 0 0-.7 2.18c-.02.24-.08.48-.2.74a.3.3 0 0 0 .03.3c.1.15.05.34-.14.38h-.03c-.1-.02-.37-.8-.36-.86l.02-.43c0-.12.05-.25.12-.39.3-.55.18-1.32.57-1.8.19-.24.33-.51.42-.82.13-.4.68-.94.96-1.22.4-.41.68-.7.85-.84.2-.18.49-.37.84-.56.1-.06.26-.2.5-.43 1.49-.69 3-.92 4.53-.68a8.3 8.3 0 0 1 3.73 1.62Z" fill="#940914"/><path d="m28.1 14.82.13.23c.03.05.02.07-.03.08l-.27.06c-.07.01-.1-.02-.1-.09.01-.08.05-.16.1-.25a.17.17 0 0 1 .06-.06h.07l.04.03ZM29.38 15.07c.06.13.04.21-.07.26a.1.1 0 0 0-.06.1c0 .1 0 .2-.03.29-.02.08-.06.12-.14.11a.11.11 0 0 1-.1-.11l.01-.05.14-.27a.13.13 0 0 0 0-.11c-.03-.07-.01-.14.04-.21a.42.42 0 0 1 .08-.17c.03-.04.06-.03.08.01l.05.15Z" fill="#FBECEA"/><path d="M30.55 15.66c-.09.08-.16.2-.22.35a.22.22 0 0 1-.07.1l-.2.17c-.04.04-.06.03-.05-.03.06-.26.21-.43.3-.73.06-.12.14-.18.24-.2.05 0 .07.01.08.06.02.07-.01.17-.08.28ZM30.89 16.8l.54-.68c.04-.08.1-.14.2-.18.05-.02.08 0 .09.05 0 .06 0 .12-.04.17-.21.3-.45.53-.72.73-.03.02-.06.01-.07-.03v-.06Z" fill="#E3B9BC"/><path d="M30.94 16.97c.04.01.06.04.06.09-.05.53.5 1.03.8 1.41.08.12.17.22.28.32.28.26.62 1.1.64 1.56a.17.17 0 0 0 .1.15c.06.02.52.15.72.07.12-.05.17-.11.16-.2l.09-.03c-.05.19.15.35.32.18-.09.72.52 1-.02 1.5a.24.24 0 0 0-.07.09l-.23.7a.18.18 0 0 0-.05-.04c-.04-.02-.08-.01-.1.02a.08.08 0 0 1-.07.04.14.14 0 0 1-.1-.05c-.26-.29-.33-.22-.58-.06a.1.1 0 0 1-.05.02.1.1 0 0 1-.1-.09c-.04-.28.05-.5.28-.65a.16.16 0 0 0 .08-.16.16.16 0 0 0-.12-.13 1.91 1.91 0 0 1-.58-.28.85.85 0 0 0-.41-.17c-.47-.05-.97-.07-1.44-.1a86.1 86.1 0 0 1-.66-.05 3.14 3.14 0 0 0-.64.01c-.23.03-.48 0-.74-.07-.3-.09-.3-.18 0-.26.17-.05.75-.05.76-.31.05-1.26.1-.71-.38-1.35a1.5 1.5 0 0 1-.23-.36c-.05-.2 0-.39.12-.56.16-.22-.23-.75-.02-1.2.03-.05.02-.13-.03-.22l.31.08c.13.03.18-.18.3-.2.2-.04.4-.1.57-.18.04-.02.06 0 .08.04.1.38.36.5.77.36.2-.06-.03.03.18.08Z" fill="#F61A29"/><path d="M27.5 16.85c.05.1.02.23-.07.4a.04.04 0 0 0 0 .05c.1.09.11.2.07.3-.01.06-.05.08-.1.07-.04-.02-.07-.04-.07-.1l-.07-.72c.03-.1.1-.1.24 0ZM28.73 16.79c.05.1.06.17.03.22-.1.2-.15.42-.18.65l-.1.06c-.05.12-.07.11-.06-.02.02-.3.08-.6.17-.9.05-.05.1-.06.14-.01Z" fill="#E3B9BC"/><path d="M28.59 16.8c-.1.3-.15.6-.17.9-.01.13.01.14.07.02l.09-.06c-.02.13.02.21.1.24a.2.2 0 0 1 .13.13.2.2 0 0 1-.03.18.66.66 0 0 0-.12.56c.01.05.09.17.23.36.13.18.16.38.1.62a2.3 2.3 0 0 0-.27.36c0 .02.01.02.03.02h.03l.19-.14c.03.05.09.07.15.06.04 0 .07.02.08.05.05.12.08.25.07.38a.1.1 0 0 1-.12.1c-.06-.01-.11 0-.15.05a.2.2 0 0 1-.12.07 3.8 3.8 0 0 0-.37.09c-.3.08-.3.17 0 .26.26.08.51.1.74.07.21-.02.42-.03.64-.01l.66.05c.06 0 .19.03.39.08.12.03.26.04.4.03-.07.09-.02.15.14.18-.04 0-.08.02-.1.08-.03.03-.02.07.02.13a.54.54 0 0 1-.35-.04.11.11 0 0 1-.07-.1v-.12a.08.08 0 0 0-.07-.07l-.45-.12a.86.86 0 0 0-.4-.03c-.46.08-.92.1-1.38.02-.05 0-.06.01-.04.06-.04.02-.04.04-.01.06.16.16.35.28.57.37-.04.02-.07.03-.09.02-.08-.01-.1.01-.03.07a5.6 5.6 0 0 0 .82.6c.01 0 .03 0 .03-.02.02-.02.02-.04 0-.08l.02.05c0 .04 0 .07-.05.08a.43.43 0 0 1-.34-.06.18.18 0 0 0-.23.02.85.85 0 0 0-.26.61c0 .15-.03.26-.07.36-.06.14-.13.24-.13.4 0 .13-.02.25-.06.36a1 1 0 0 0-.05.36l.01.58c-.19-.21-.26-.13-.2.25-.4-.49-.77-.48-1.13 0-.03-.02-.03-.1 0-.2a.1.1 0 0 0-.13-.12c-.08.03-.1.11-.07.24a.23.23 0 0 1-.1-.1.23.23 0 0 0-.08-.1 1.46 1.46 0 0 0-.85-.2l.38-.67c.02-.04.02-.07-.02-.09l-.04-.02h-.04c-.19.23-.34.46-.45.7-.01.03-.02.06-.01.1 0 .07.03.1.06.1a.16.16 0 0 1-.1.02c-.05 0-.07-.03-.07-.07 0-.24-.1-.43-.28-.56a.44.44 0 0 0-.45-.05.23.23 0 0 1-.22-.02.41.41 0 0 1-.2-.29.46.46 0 0 0-.23-.33.14.14 0 0 1-.08-.09c-.06-.23-.19-.38-.4-.44-.04 0-.05-.03-.05-.07l.01-.14c.01-.05.01-.1 0-.14l-.2-.74a.3.3 0 0 0-.06-.13l-.08-.08a.08.08 0 0 1-.02-.08c.04-.15.2-.24.22-.36a.23.23 0 0 0-.04-.17.2.2 0 0 1-.04-.12l-.05-.7c.13.11.27.16.41.12l.12.01c.18.09.38.12.6.12.02 0 .03-.01.04-.03v-.03a.06.06 0 0 0-.05-.03.67.67 0 0 1-.34-.13.18.18 0 0 0-.15-.03c-.13.04-.23 0-.3-.11a.14.14 0 0 0-.1-.06l-.18-.03c.2 0 .28-.2.24-.56l.01-.07a.04.04 0 0 1 .04-.02.02.02 0 0 0 .01 0l.01-.02c-.01-.15 0-.3.03-.44.1.2.24.22.41.3.21.11.3.3.57.33.16.02.17-.01.04-.1l-.94-.6c.13-.11.23-.26.3-.43.06-.12.12-.21.18-.27a4 4 0 0 1 .23-.23c.2.2.4.42.58.67.06.07.13.11.22.12.05.01.06 0 .03-.05a7.96 7.96 0 0 0-.62-.79.3.3 0 0 0-.21-.09l.4-.07c.04 0 .07-.03.1-.05l.35-.28a.2.2 0 0 0 .09-.17.1.1 0 0 1 .05-.09l.1-.08c0 .16.06.3.16.41a.2.2 0 0 1 .05.1c.02.2.11.38.27.54.05.05.07.04.06-.03-.03-.18-.1-.34-.2-.49a.48.48 0 0 1-.1-.3.17.17 0 0 0-.03-.11.26.26 0 0 0-.1-.09c.21-.04.37 0 .49.13a.1.1 0 0 0 .1.03c.28-.05.46-.22.54-.52l.06.73c.01.05.04.07.08.09.05.01.09-.01.1-.06a.28.28 0 0 0-.07-.31.04.04 0 0 1 0-.05c.1-.17.12-.3.07-.4.2.23.42.29.68.16a.15.15 0 0 0 .08-.08c.04-.12.15-.16.33-.14Z" fill="#BA141F"/><path d="M26.03 17.18c.04 0 .08.01.1.03.04.02.07.05.1.09.03.03.04.07.04.1 0 .12.03.22.09.31.1.15.18.31.2.49.01.07 0 .08-.06.03a.91.91 0 0 1-.27-.53.2.2 0 0 0-.05-.1.59.59 0 0 1-.15-.42ZM24.93 17.92a.3.3 0 0 1 .2.1c.2.2.4.47.63.78.03.04.02.06-.03.05a.31.31 0 0 1-.22-.12 7.37 7.37 0 0 0-.58-.67.2.2 0 0 1 0-.14ZM24.22 19l.94.6c.13.08.12.11-.04.1-.26-.03-.36-.23-.57-.34-.17-.08-.3-.1-.41-.3l.08-.06ZM28.97 20l-.19.12-.03.01c-.02 0-.03 0-.03-.02v-.03l.26-.33.36-.4c.05-.06.1-.05.14.01.02.04 0 .12-.1.22-.12.15-.26.29-.41.41ZM23.8 20.17l.17.03c.05 0 .08.02.1.06.08.1.18.15.3.11a.18.18 0 0 1 .16.03c.1.07.2.12.33.13.02 0 .04.01.05.03v.03c0 .02-.01.03-.03.03-.22 0-.42-.03-.6-.12a.17.17 0 0 0-.12 0c-.14.03-.28-.02-.41-.14-.03-.08-.01-.14.05-.19Z" fill="#E3B9BC"/><path d="M21.75 20.44c0-.02.01-.05.05-.1l.23-.1c.04-.02.08 0 .1.03.03.05.07.09.11.12.06.04.06.08 0 .12-.13.1-.3.08-.5-.07ZM34.1 20.52c-.16.17-.36 0-.32-.18a.2.2 0 0 1 .03-.05c.03-.04.07-.05.12-.04l.2.06c.05.01.07.04.05.1a.28.28 0 0 1-.07.11ZM33.32 20.28c.13 0 .26.03.38.1.01.08-.04.14-.16.19-.1.04-.18.01-.23-.1-.04-.07-.04-.14.01-.19Z" fill="#FBECEA"/><path d="m31.48 21.45.15.08a.11.11 0 0 1 .07.1.12.12 0 0 1-.05.1c-.11.07-.2.04-.25-.07-.04-.06-.05-.1-.03-.13.03-.06.07-.08.1-.08ZM34.17 21.66c.06.05.08.1.05.15-.02.03-.07.05-.13.06a.6.6 0 0 0-.19.08c-.05.03-.08.01-.1-.04a.72.72 0 0 1 0-.3.08.08 0 0 1 .04-.06.08.08 0 0 1 .07-.01c.09.02.17.06.26.12ZM29.2 21.7c.2.15.4.3.6.42.06.04.1.1.14.16v.08a.05.05 0 0 1-.08.02 5.6 5.6 0 0 1-.78-.6c-.06-.06-.05-.08.03-.07.02 0 .05 0 .09-.02Z" fill="#E3B9BC"/><path d="M22.95 22.82c.03-.07.01-.11-.06-.13l.3-.12c.08-.03.1-.01.08.06-.04.1-.15.17-.32.19Z" fill="#F61A29"/><path d="M33.78 22.8c.17.13.2.2.07.22a.62.62 0 0 1-.2.06c-.03 0-.05 0-.07-.02a.1.1 0 0 1-.03-.06l-.01-.07c0-.05-.04-.08-.1-.07l-.28.03a.08.08 0 0 1-.08-.06l.01-.12c0-.06.01-.1.03-.12a.13.13 0 0 1 .16-.02l.04.04.14.17c.03.03.07.05.11.05.03 0 .05-.01.06-.04.03-.03.07-.04.1-.02.02 0 .04.02.05.04ZM22.9 22.7c.06 0 .08.05.05.12-.05.07-.12.1-.22.07-.09-.01-.13-.04-.13-.1a.3.3 0 0 1 .08-.14.1.1 0 0 1 .1-.02c.05.01.08.03.11.06Z" fill="#FBECEA"/><path d="M22.6 22.8c0 .05.04.08.13.1-.1-.03-.19 0-.24.07a.12.12 0 0 1-.1.06l-.34.02a.2.2 0 0 1-.06-.08c.08-.1.16-.17.24-.21a.12.12 0 0 1 .12 0c.1.05.18.06.25.03ZM26.2 24.81a.34.34 0 0 0-.11.12c-.03 0-.05-.03-.06-.1l.01-.1c.11-.24.26-.47.45-.7h.04l.04.02c.04.02.04.05.02.09l-.38.67ZM28.77 25.04l-.05.26a.06.06 0 0 1-.03.05h-.05a.16.16 0 0 1-.08-.06c-.05-.38.02-.46.21-.25ZM27.44 25.3a.18.18 0 0 1-.07.04.07.07 0 0 1-.07-.01.19.19 0 0 1-.06-.12c-.03-.13 0-.2.07-.24a.1.1 0 0 1 .14.07.1.1 0 0 1 0 .06c-.04.1-.04.17-.01.2Z" fill="#E3B9BC"/><path d="m26.98 15.23-.28.1a.07.07 0 0 1-.09-.04v-.04l.07-.29a.07.07 0 0 1 .05-.05.07.07 0 0 1 .06.02l.21.19.02.02a.07.07 0 0 1-.01.07l-.03.02ZM25.74 15.64c0 .05-.04.08-.1.1a.1.1 0 0 1-.09 0 .1.1 0 0 1-.04-.08l-.02-.25c-.01-.2.04-.22.17-.07l.1.12a.1.1 0 0 1 .01.1c0 .01 0 .03-.02.04v.04ZM27.88 15.37c0-.01 0-.03.02-.03l.04-.01c.04 0 .07.02.1.04l.06.05.04.07v.1a.15.15 0 0 1-.1.1.29.29 0 0 1-.18 0 .05.05 0 0 1-.05-.06l.07-.26ZM26.7 15.6c-.03.1 0 .21.07.24s.16-.02.2-.12c.04-.1.02-.21-.06-.24-.07-.03-.16.03-.2.13ZM25.94 16c-.06.12-.13.19-.21.21-.1-.12-.11-.24-.05-.35.02-.04.05-.05.1-.04.13.04.18.1.16.18ZM24.33 15.93l.29.13c.04.02.05.05.04.1l-.06.16c-.02.07-.06.08-.12.05-.12-.07-.2-.2-.22-.39-.01-.06.01-.08.07-.05Z" fill="#FBECEA"/><path d="M27.9 15.93v-.02a.02.02 0 0 1 .01 0l.08-.01c.05 0 .07.01.08.06v.03a.06.06 0 0 1-.05.05h-.03a.14.14 0 0 1-.1-.1ZM25.16 16a.12.12 0 0 1 .1-.01h.02a.04.04 0 0 1 0 .05c-.04.08-.1.1-.2.08-.06-.02-.06-.05 0-.07a.46.46 0 0 0 .08-.04ZM25.94 16c0 .15.02.28.09.4v.03c0 .03-.01.04-.03.05a.03.03 0 0 1-.04-.01l-.23-.26c.08-.02.15-.1.2-.2ZM26.89 16.12c.03.04.08.06.1.04.04-.02.04-.08 0-.12-.03-.04-.08-.06-.11-.04-.03.02-.03.08 0 .12Z" fill="#F61A29"/><path d="M24.88 16.63c0 .07 0 .11-.03.15-.03.03-.06.03-.1.01-.14-.07-.2-.18-.15-.32 0-.04.04-.06.08-.05.12.02.18.09.2.21Z" fill="#FBECEA"/><path d="M24.88 16.63c0 .13.06.22.18.29.01 0 .02.02 0 .03l-.01.03c-.01.02-.03.02-.04 0l-.26-.19c.03.02.07.02.1-.01.02-.04.04-.08.03-.15Z" fill="#E3B9BC"/><path d="M24.15 17.59c.04.02.06.05.07.08.01.02 0 .04-.03.05h-.05a.6.6 0 0 0-.22-.17.21.21 0 0 1-.13-.12.32.32 0 0 0-.25-.22.15.15 0 0 1-.11-.1l-.1-.24c-.02-.06 0-.08.06-.08.21.01.33.12.34.32 0 .03 0 .05.03.07a.1.1 0 0 0 .06.04c.15.01.24.1.25.25a.15.15 0 0 0 .08.12Z" fill="#FBECEA"/><path d="M23.41 18.42c.03.02.03.05 0 .08-.03.02-.05.03-.1.01a.44.44 0 0 1-.25-.19.16.16 0 0 0-.1-.06l-.19-.05a.18.18 0 0 1-.1-.06.49.49 0 0 1-.1-.23c-.02-.05 0-.08.07-.07l.25.03c.05 0 .08.04.08.1 0 .04.03.08.09.13.03.03.06.04.1.04.15.01.23.1.25.27ZM22.1 19.02c.25-.04.39.03.41.2a.08.08 0 0 1-.04.08c-.16.1-.3.05-.43-.14-.05-.08-.03-.13.07-.14Z" fill="#E3B9BC"/><path d="M22.92 19.35c.03.1 0 .17-.06.2-.14.02-.22-.05-.25-.2-.01-.05 0-.08.04-.1.1-.07.19-.03.27.1Z" fill="#FBECEA"/><path d="M22.92 19.35a.2.2 0 0 1 .08.04c.03.02.07.03.1.03l.12.01c.06.03.06.06.01.1-.09.07-.21.08-.37.02.07-.03.09-.1.06-.2Z" fill="#F61A29"/><path d="M22.74 20.63v.04c-.14.03-.27-.02-.37-.13-.03-.03-.03-.07 0-.1a.26.26 0 0 1 .15-.1.12.12 0 0 1 .13.08l.09.21Z" fill="#FBECEA"/><path d="M22.73 20.67v-.04c.05 0 .1-.04.14-.11.03-.05.07-.06.13-.04.04.02.05.05.02.09-.05.06-.14.1-.29.1Z" fill="#F61A29"/><path d="M21.96 21.45a.06.06 0 0 1 .07-.01l.02.01.1.1.06.09.02.09a.1.1 0 0 1-.02.06l-.02.03a.1.1 0 0 1-.05.03h-.1a.45.45 0 0 1-.1-.04.65.65 0 0 1-.11-.07l-.02-.01a.06.06 0 0 1 0-.08l.15-.2ZM22.6 21.83c-.14-.02-.21-.08-.22-.18a.16.16 0 0 1 .08-.15.15.15 0 0 1 .17.02c.06.06.1.13.08.23 0 .06-.04.09-.1.08Z" fill="#FBECEA"/><path d="M22.97 21.7a.1.1 0 0 0 .1-.1.1.1 0 0 0-.1-.1.1.1 0 0 0-.1.1c0 .05.05.1.1.1Z" fill="#F61A29"/><path d="M31.98 21.9c.12.06.24.03.28-.05.03-.08-.03-.2-.15-.24-.12-.06-.24-.03-.28.05-.03.08.03.2.15.24ZM31.89 22.96a.02.02 0 0 1 0 .02V23c-.03.04-.09.06-.18.05a.82.82 0 0 1-.29-.11l-.2-.13a.83.83 0 0 1-.25-.2c-.05-.07-.07-.13-.04-.18a.02.02 0 0 1 .03-.01l.93.55ZM30.2 23.28v-.02c.02-.02.05-.03.09-.02.04.01.08.03.13.07l.16.13.17.17.02.02a2 2 0 0 1 .24.38c.02.05.04.1.04.14 0 .04 0 .07-.02.08l-.01.01a.01.01 0 0 1-.02 0l-.8-.96Z" fill="#E3B9BC"/><path d="M23.35 23.9a.2.2 0 0 0 .07-.07c.02-.05 0-.08-.03-.1l-.1-.04.32-.13c.05-.02.06 0 .05.04-.05.13-.15.23-.3.3ZM32.65 23.63c-.04.02-.05.04-.05.08a.45.45 0 0 1-.2-.1c-.05-.05-.04-.07.01-.08.06-.02.14.02.24.1Z" fill="#F61A29"/><path d="M32.65 23.63c.16-.02.26.06.32.21.01.05.04.07.09.06.17-.01.3.09.37.3.02.05 0 .07-.04.07-.24.02-.36-.07-.37-.27 0-.06-.04-.08-.1-.08-.2.02-.3-.05-.32-.21 0-.04.01-.06.05-.08Z" fill="#FBECEA"/><path d="m23.3 23.69.09.04c.04.02.05.05.03.1a.2.2 0 0 1-.07.07l-.71.32c-.08.03-.1.01-.07-.07l.13-.3a.04.04 0 0 1 .06-.02c.13.1.25.08.36-.1.04-.07.1-.08.17-.04ZM29.47 24c-.02-.12.01-.13.1-.04.07.1.13.2.17.3.09.23.26.37.26.63v.04a.07.07 0 0 1-.07.04l-.04-.01a.4.4 0 0 1-.18-.41.16.16 0 0 0-.04-.13.83.83 0 0 1-.2-.41Z" fill="#E3B9BC"/><path d="M32.09 24.52c-.04-.02-.08-.02-.11.02-.03.03-.04.08-.03.14a.25.25 0 0 0-.17-.18.06.06 0 0 1-.04-.06l.02-.04.01-.01a1 1 0 0 1 .32.13Z" fill="#F61A29"/><path d="M23.85 25c.26-.2.43-.42.38-.49-.05-.06-.3.06-.56.27-.25.2-.42.42-.37.48.05.07.3-.05.55-.26ZM32.09 24.52c.21.1.12.34.34.41.12.04.2.13.27.27.02.05 0 .08-.06.08-.21.01-.34-.08-.37-.26a.11.11 0 0 0-.07-.08c-.14-.06-.22-.15-.25-.26 0-.06 0-.11.03-.14.03-.04.07-.04.1-.02Z" fill="#E3B9BC"/><path d="M31.3 25.3c-.14-.03-.2 0-.21.1a.57.57 0 0 1-.13-.23c-.02-.04 0-.07.05-.07.03 0 .05 0 .08.03.05.07.12.13.2.17Z" fill="#F61A29"/><path d="M24.51 25.58c-.2.25-.33.5-.28.54.06.05.28-.11.49-.37.2-.25.33-.49.27-.54-.05-.05-.27.12-.48.37ZM31.3 25.3c.08.07.13.18.14.32 0 .04.03.07.06.1.13.1.2.25.2.44 0 .05-.02.06-.07.04a.82.82 0 0 1-.21-.17.1.1 0 0 1-.03-.08c0-.05 0-.1-.02-.16a.24.24 0 0 0-.09-.12.47.47 0 0 1-.19-.28c0-.09.07-.12.2-.09Z" fill="#E3B9BC"/><path d="M30.37 26.17c.04-.2-.01-.29-.16-.26-.07.02-.1.09-.08.2 0-.14-.02-.25-.07-.3-.18-.2-.14-.26.11-.15.18.07.24.24.2.5Z" fill="#F61A29"/><path d="M25.92 25.9a.1.1 0 0 0-.15.04l-.38.7a.1.1 0 0 0 .04.15h.01a.1.1 0 0 0 .15-.04l.37-.7a.1.1 0 0 0-.04-.15ZM30.37 26.17c.15.2.22.4.23.6 0 .07-.03.08-.09.05l-.22-.15c-.05-.02-.06-.06-.04-.1l.07-.14a.1.1 0 0 0-.02-.12l-.17-.2c-.02-.11 0-.18.08-.2.15-.03.2.05.16.26ZM29.06 26.41c-.01.1.03.2.1.21.07.01.14-.06.15-.17.02-.1-.02-.2-.1-.21-.06-.01-.13.07-.15.17ZM26.79 26.4c-.04.1-.02.2.05.23.06.03.15-.04.18-.14.04-.1.02-.21-.05-.24-.06-.02-.15.04-.18.15ZM27.9 26.5c-.04.09-.01.2.07.22.07.04.16-.01.2-.1.05-.1.02-.2-.05-.24-.08-.03-.17.02-.22.11ZM26.64 26.9c-.05.11-.04.23.03.26.07.04.17-.03.22-.14.05-.11.04-.23-.03-.26-.07-.04-.17.03-.22.14ZM29.36 27.2h-.01v.01h-.01a.2.2 0 0 1-.15-.07.22.22 0 0 1-.05-.15v-.03a.23.23 0 0 1 .07-.14.2.2 0 0 1 .15-.06.02.02 0 0 1 .02.02l-.02.42ZM28.1 26.9a.05.05 0 0 1 .04.01.05.05 0 0 1 .02.04v.02c0 .1 0 .19-.03.26-.02.07-.06.1-.1.11h-.02c-.02 0-.04 0-.06-.02a.24.24 0 0 1-.06-.07.8.8 0 0 1-.07-.25v-.02a.05.05 0 0 1 .05-.06l.23-.02Z" fill="#E3B9BC"/><path d="M31.8 17.52c.04-.07.09-.12.14-.17a31.37 31.37 0 0 0 .6-.52.1.1 0 0 1 .1.05.1.1 0 0 1 0 .05c0 .16-.07.25-.22.27a.18.18 0 0 0-.1.05c-.14.12-.3.23-.49.31-.07.03-.08.02-.04-.04ZM32.61 18.36c-.01-.02-.01-.07 0-.14l.34-.15a.17.17 0 0 0 .07-.06c.07-.1.17-.13.3-.11.08.01.1.05.07.13l-.02.04c-.04.09-.1.12-.2.1-.24-.07-.26.27-.56.2Z" fill="#FBECEA"/><path d="M32.61 18.22c-.01.07-.01.12 0 .14l-.17.08c-.05.02-.07.01-.06-.04v-.02a.1.1 0 0 1 .07-.02c.1-.01.16-.06.16-.14Z" fill="#F61A29"/><path d="M33.42 19.3a.63.63 0 0 1-.09.12.13.13 0 0 1-.1.04.19.19 0 0 1-.17-.11.13.13 0 0 1 .07-.18h.06l.21.02a.1.1 0 0 0 .1-.03c.1-.13.25-.16.42-.1a.07.07 0 0 1 .05.08l-.01.03a.67.67 0 0 1-.2.18.08.08 0 0 1-.1-.02.2.2 0 0 0-.13-.07.1.1 0 0 0-.1.05Z" fill="#FBECEA"/><path d="M29.43 18.28h-.03c-.05-.03-.05-.1-.02-.22.03-.11.1-.25.18-.4l.02-.03c.08-.14.18-.26.27-.34.08-.08.15-.11.2-.09v.01a.02.02 0 0 1 0 .01v.01l-.62 1.05ZM30.8 18.37c.2-.2.34-.39.3-.43-.04-.05-.25.08-.45.28-.21.2-.35.39-.3.43.03.05.23-.08.44-.28ZM31.75 19.05l-.92.4a.08.08 0 0 0-.05.1l.01.02c.02.05.07.07.11.05l.93-.4a.08.08 0 0 0 .04-.11v-.02a.08.08 0 0 0-.12-.04Z" fill="#E3B9BC"/><path d="M31.72 20.46a.44.44 0 0 1-.19.11.1.1 0 0 1-.1-.04.2.2 0 0 1-.04-.1.08.08 0 0 1 .06-.08h.03l.24.02c.04 0 .07 0 .1-.03.11-.06.23-.08.36-.06a.11.11 0 0 1 .06.2c-.14.13-.27.13-.4-.01a.08.08 0 0 0-.12 0Z" fill="#FBECEA"/><path d="M29.71 20.84c-.11.08-.22.08-.3 0-.12-.07-.1-.12.03-.14.22-.03.45-.04.68-.05.1 0 .14.05.13.16l-.04.07a.12.12 0 0 1-.07.04.46.46 0 0 1-.33-.07.09.09 0 0 0-.1 0Z" fill="#E3B9BC"/><path d="M33.65 21.52h.02v.03l-.02.11c0 .03 0 .05-.02.07a.2.2 0 0 1-.04.05.15.15 0 0 1-.05.04h-.1a.12.12 0 0 1-.05-.03.15.15 0 0 1-.04-.05.2.2 0 0 1-.03-.06v-.07l.02-.12a.03.03 0 0 1 .02-.02h.01l.28.05Z" fill="#FBECEA"/><path d="M27.96 19.67h-.08c-.06-.26-.07-.5-.02-.75a.2.2 0 0 1 .1-.15l.04-.01a.05.05 0 0 1 .05 0 .05.05 0 0 1 .02.06l-.11.85ZM26.7 19.8c.17.25.35.43.38.4.04-.02-.08-.25-.26-.5s-.35-.43-.39-.4c-.03.02.09.24.27.5ZM25.84 20.98c.11.03.22 0 .24-.06.02-.07-.05-.15-.16-.19-.11-.03-.22 0-.24.06-.02.07.05.15.16.19ZM26.38 21.05c.08.03.16.01.17-.04.02-.05-.03-.11-.12-.14-.08-.03-.16 0-.18.04-.01.05.04.12.13.14Z" fill="#E3B9BC"/><path d="M23.8 21.8a.04.04 0 0 1-.03-.05v-.03l.04-.1a.31.31 0 0 1 .06-.07.18.18 0 0 1 .07-.04.1.1 0 0 1 .06 0H24c.04.02.07.05.09.11v.2l-.01.01a.04.04 0 0 1-.02.03h-.03l-.24-.07Z" fill="#FBECEA"/><path d="m24.65 21.6.02.02c.02.02.02.04 0 .06a.16.16 0 0 1-.05.06.43.43 0 0 1-.2.02.1.1 0 0 1-.09-.07.15.15 0 0 1 0-.1.1.1 0 0 1 .1-.07.3.3 0 0 1 .22.08Z" fill="#E3B9BC"/><path d="M24.62 21.74a.16.16 0 0 0 .06-.05c.01-.03.01-.05 0-.07l-.03-.02c.04-.06.11-.08.2-.06.05 0 .07.03.06.07-.03.09-.12.13-.3.13Z" fill="#F61A29"/><path d="M26.53 22.2c.25-.14.44-.3.4-.35-.02-.05-.25.02-.5.16-.26.14-.44.3-.41.35.02.05.25-.02.5-.16ZM28.43 22.3a.07.07 0 0 0-.05.1l.23.88c0 .04.05.06.08.05h.01a.07.07 0 0 0 .05-.08l-.23-.9a.07.07 0 0 0-.09-.04ZM27.6 22.4a.07.07 0 0 0-.1.04l-.27.73c-.02.04 0 .08.04.1.04.02.09 0 .1-.04l.28-.73a.08.08 0 0 0-.05-.1ZM25.02 22.54l-.8.32a.09.09 0 0 0-.05.12c.02.05.07.07.12.05l.8-.32a.09.09 0 0 0 .04-.12.09.09 0 0 0-.11-.05ZM25.43 23.8c.2-.18.35-.36.31-.4-.03-.05-.23.07-.44.25-.2.18-.35.36-.31.4.03.04.23-.07.44-.25ZM28.55 24.32c.14.11.17.23.1.37a.08.08 0 0 1-.11.02.08.08 0 0 1-.03-.04.82.82 0 0 1-.03-.32c0-.06.03-.06.07-.03ZM27.4 24.49c-.06.13-.06.25-.01.27.05.02.14-.06.2-.19.05-.12.06-.25 0-.27-.05-.02-.13.06-.19.19Z" fill="#E3B9BC"/><path fill-rule="evenodd" d="M18.5 38a3.5 3.5 0 1 0 0-7 3.5 3.5 0 0 0 0 7Zm0-2a1.5 1.5 0 1 0 0-3 1.5 1.5 0 0 0 0 3ZM28.5 38a3.5 3.5 0 1 0 0-7 3.5 3.5 0 0 0 0 7Zm0-2a1.5 1.5 0 1 0 0-3 1.5 1.5 0 0 0 0 3Z"/><path d="M39 31.59a.6.6 0 0 0-.62-.59H37v4.97c-.12.15-.25.3-.52.3-.23 0-.35-.16-.49-.34-.19-.25-.41-.54-.97-.54-.49 0-1.02.16-1.02.84 0 .67.8 1.77 2.61 1.77 1.45 0 2.2-.9 2.39-1.35V31.6Z"/><path fill-rule="evenodd" d="M10 31H8v7h1.36c.36 0 .64-.27.64-.6V36h.5a2.5 2.5 0 0 0 0-5H10Zm0 3h.5a.5.5 0 0 0 0-1H10v1ZM45.76 31.53a.86.86 0 0 0-1.6.02l-2.1 5.26c-.18.44.04.95.48 1.13a.86.86 0 0 0 1.12-.49l.18-.45h2.3l.2.47c.18.44.69.65 1.13.46.44-.18.65-.7.46-1.13l-2.17-5.27ZM45.32 35l-.35-.83-.33.83h.68Z"/></svg>