<!-- by TradingView --><svg width="18" height="18" viewBox="0 0 18 18" xmlns="http://www.w3.org/2000/svg"><path fill="#F0F3FA" d="M0 0h18v18H0z"/><path d="M13.87 6.67a.14.14 0 0 1-.01.13.16.16 0 0 1-.05.05.18.18 0 0 1-.07.03l-2.45.5a.24.24 0 0 1-.16-.02.2.2 0 0 1-.1-.11c-.1-.3-.2-.48-.32-.58-.98-.82-1.94-.8-2.89.03-.89.79-.75 3.28-.4 4.07.86 1.85 3.5 1.33 3.71-.67l.01-.03.02-.02h.06l2.73.75c.02 0 .03.01.04.03v.05c-.72 2.57-2.92 3.35-5.67 3.06-3.28-.34-4.5-2.82-4.3-5.54.19-2.66 1.83-4.28 4.95-4.4 2.51-.08 4.14.8 4.9 2.67Z"/></svg>