<!-- by TradingView --><svg width="18" height="18" viewBox="0 0 18 18" xmlns="http://www.w3.org/2000/svg"><path fill="#F0F3FA" d="M0 0h18v18H0z"/><path d="m9 7.49-.16.01a10.61 10.61 0 0 1-.84.18 1322.13 1322.13 0 0 1 .02-2.4c.04-.44.2-.78.47-1 .12-.1.26-.17.42-.22.15-.05.32-.07.5-.06a3.74 3.74 0 0 1 .65.1v.86a7.02 7.02 0 0 0-.5-.02c-.48 0-.56.26-.56.7V7.5ZM6 8.18h-.03c-.32.1-.64.23-.97.38V5.64l.01-.02.98-.38v.01A1519.24 1519.24 0 0 1 6 8.18ZM9 8v4.99l-.01.01H8v-.01L8 8.19 9 8Z" fill="#231F20"/><path d="M6 7.33v4.08c0 .5.09.72.45.72a.9.9 0 0 0 .3-.05l.01.01v.83l-.01.02c-.25.05-.5.07-.76.05a1.23 1.23 0 0 1-.56-.15.83.83 0 0 1-.37-.55 2.4 2.4 0 0 1-.06-.54V7.67a6.92 6.92 0 0 1 .8-.27l.2-.07Z" fill="#231F20"/><path d="m8.66 8.07-.97.17a23.33 23.33 0 0 0-2.12.46 9.07 9.07 0 0 0-.97.34c-.22.1-.45.22-.68.37-.11.07-.2.15-.26.24a.52.52 0 0 0-.11.34l-.01.07-.52.95c-.04-.22-.01-.47.08-.75a4 4 0 0 1 .51-1c.15-.21.3-.38.47-.51a3.74 3.74 0 0 1 1.09-.61 9.13 9.13 0 0 1 1.24-.4 24.97 24.97 0 0 1 2.27-.45 32.07 32.07 0 0 0 2.83-.67 22.18 22.18 0 0 0 .8-.32 10.28 10.28 0 0 0 .77-.42c.24-.16.37-.32.38-.5.02-.1 0-.18-.02-.27v-.05l.54-.97H14v.41a3.45 3.45 0 0 1-.7 1.65c-.13.17-.28.32-.45.46-1.02.77-2.94 1.24-4.18 1.46Z" fill="#0095DA"/><path d="m11.96 7.03.3.07c.22.07.42.16.59.29.2.14.34.33.42.55a2.19 2.19 0 0 1 .1.78h-.92V8.7l-.01-.21a.75.75 0 0 0-.26-.53.88.88 0 0 0-.49-.18c-.27-.02-.5 0-.7.08a.7.7 0 0 0-.46.56.9.9 0 0 0 0 .33c.03.15.1.27.22.36.09.07.2.13.36.18l.14.04 1.04.3c.15.05.29.1.43.17.2.1.37.23.5.42.14.19.23.41.26.66a1.98 1.98 0 0 1-.36 1.45c-.1.13-.22.24-.35.32-.25.16-.53.26-.85.3a3.4 3.4 0 0 1-.9.01 1.86 1.86 0 0 1-.85-.3c-.28-.2-.47-.47-.57-.8a2.2 2.2 0 0 1-.1-.72h.95c0 .24.05.43.16.6.1.16.24.28.43.35a1.5 1.5 0 0 0 .95.01.74.74 0 0 0 .31-.2.94.94 0 0 0 .23-.6c0-.09 0-.17-.02-.24a.56.56 0 0 0-.1-.2.85.85 0 0 0-.4-.28l-.23-.07-.7-.2a4.71 4.71 0 0 1-.57-.2 1.79 1.79 0 0 1-.48-.29c-.15-.13-.27-.3-.34-.5s-.1-.41-.1-.65c.01-.35.11-.66.3-.94.15-.22.35-.39.57-.5.25-.13.51-.2.79-.23.23-.02.47-.01.7.02Z" fill="#231F20"/></svg>