<!-- by TradingView --><svg width="18" height="18" viewBox="0 0 18 18" xmlns="http://www.w3.org/2000/svg"><path fill="#F0F3FA" d="M0 0h18v18H0z"/><path d="M11.13 4.48c.11 0 .2-.1.2-.2a.2.2 0 0 0-.2-.2.2.2 0 0 0-.2.2c0 .1.09.2.2.2ZM9.65 4.38l-.04.04a.12.12 0 0 0 0 .16l.03.04c.05.04.13.04.17 0l.04-.03a.12.12 0 0 0 0-.17l-.04-.03a.12.12 0 0 0-.16 0ZM12.05 4.9c.13 0 .23-.11.23-.24 0-.12-.1-.22-.23-.22s-.23.1-.23.22c0 .13.1.23.23.23ZM7.33 5.06c.18 0 .32-.14.32-.3a.31.31 0 0 0-.32-.32.31.31 0 0 0-.31.31c0 .17.14.31.31.31ZM10.5 4.83a.17.17 0 1 0 0-.34.17.17 0 1 0 0 .34ZM10.25 4.34c.09 0 .17-.08.17-.17 0-.1-.08-.17-.17-.17a.17.17 0 1 0 0 .34ZM6.34 5.05c.16 0 .28-.13.28-.28a.27.27 0 0 0-.28-.27.27.27 0 0 0-.27.27c0 .15.12.28.27.28ZM8.32 5.2c.17 0 .31-.14.31-.31a.31.31 0 0 0-.31-.32.31.31 0 0 0-.32.32c0 .17.14.3.32.3ZM11.26 5.17c.1 0 .2-.08.2-.19a.2.2 0 0 0-.2-.19.2.2 0 0 0-.2.2c0 .1.1.18.2.18ZM5.39 5.41c.14 0 .26-.11.26-.25a.26.26 0 0 0-.26-.26.26.26 0 0 0-.26.26c0 .14.12.25.26.25ZM9.26 5.58c.18 0 .33-.14.33-.32a.32.32 0 0 0-.33-.32.32.32 0 0 0-.32.32c0 .18.14.32.32.32ZM12.88 5.44a.24.24 0 1 0 0-.47c-.13 0-.24.1-.24.23 0 .14.11.24.24.24ZM11.94 5.64c.12 0 .2-.09.2-.2a.2.2 0 0 0-.2-.2.2.2 0 0 0-.2.2c0 .11.09.2.2.2ZM10.52 5.77a.36.36 0 1 0-.73 0 .36.36 0 0 0 .73 0ZM7.38 6.13c.15 0 .26-.11.26-.25a.26.26 0 0 0-.26-.26.26.26 0 0 0-.25.26c0 .14.11.25.25.25ZM4.9 5.88c0-.12-.09-.23-.21-.23-.13 0-.23.1-.24.22 0 .13.1.23.22.24.13 0 .23-.1.24-.23ZM6.57 6.16c.13 0 .24-.1.24-.23s-.11-.24-.24-.24-.24.1-.24.24c0 .13.1.23.24.23ZM8.19 6.3c.15 0 .27-.11.27-.26a.27.27 0 0 0-.27-.28.27.27 0 0 0-.28.28c0 .15.12.27.28.27ZM13.72 6.04c0-.14-.11-.25-.25-.25-.13 0-.23.12-.23.27 0 .14.12.25.25.24.13 0 .23-.12.23-.26ZM12.64 6.09a.2.2 0 0 0-.2-.21.2.2 0 0 0-.2.2c-.01.11.08.2.19.2a.2.2 0 0 0 .2-.2ZM6.07 6.19a.23.23 0 0 0-.25-.22.23.23 0 0 0-.21.25c.01.13.12.23.25.22a.23.23 0 0 0 .2-.25ZM11.36 6.42a.38.38 0 1 0-.76-.06.38.38 0 1 0 .76.06ZM9.22 6.34a.28.28 0 1 0-.55-.07.28.28 0 1 0 .55.07ZM9.93 6.7a.3.3 0 0 0-.3-.29.3.3 0 0 0-.28.3c0 .16.13.3.3.29a.3.3 0 0 0 .28-.3Z" fill="#C2332F"/><path d="M6.4 7.3a.39.39 0 1 0 0-.77c-.22 0-.4.17-.4.38s.18.39.4.39Z" fill="#1A212C"/><path d="M4.33 7.03c.12 0 .22-.1.22-.22s-.1-.21-.22-.21-.22.1-.22.21c0 .12.1.22.22.22ZM5.27 7a.2.2 0 0 0 .2-.2.2.2 0 0 0-.2-.2.2.2 0 0 0-.2.2c0 .1.1.2.2.2ZM12.14 7.05a.42.42 0 0 0-.41-.42c-.23 0-.4.2-.4.43 0 .24.19.42.41.42.23 0 .4-.2.4-.43ZM12.84 6.87a.22.22 0 0 0-.23-.21.22.22 0 0 0-.2.24c0 .12.1.22.23.21.12 0 .2-.11.2-.24ZM14 7.03a.27.27 0 0 0-.28-.26.27.27 0 0 0-.26.27c0 .15.13.27.27.27.15 0 .27-.13.27-.28ZM10.32 7.5c.18 0 .32-.14.32-.31a.31.31 0 0 0-.32-.31.31.31 0 0 0-.31.3c0 .18.14.32.31.32Z" fill="#C2332F"/><path d="M7.75 7.28c0 .1-.03.18-.1.24a.33.33 0 0 1-.24.1.33.33 0 0 1-.24-.1.32.32 0 0 1-.1-.24c0-.09.03-.17.1-.23.07-.07.15-.1.24-.1.1 0 .17.03.24.1.07.06.1.14.1.23Z" fill="#205E81"/><path d="M7.7 7.4a.55.55 0 0 1-.16.15l-.02.01a.72.72 0 0 1-.2 0 .23.23 0 0 1-.16-.12.63.63 0 0 0-.03-.08.2.2 0 0 1-.01-.14c0-.04.03-.09.08-.14A.22.22 0 0 1 7.34 7a.6.6 0 0 1 .18 0c.08.02.14.09.18.2a.6.6 0 0 1 0 .17v.03Z" fill="#1A212C"/><path d="M4.94 7.74a.18.18 0 1 0 0-.35c-.1 0-.18.07-.18.17s.08.18.18.18ZM10.92 8.07c.18 0 .33-.15.33-.33a.34.34 0 0 0-.33-.34.34.34 0 0 0-.34.34c0 .18.15.33.34.33ZM12.5 7.97a.25.25 0 1 0 0-.5.25.25 0 0 0-.25.25c0 .14.1.25.25.25Z" fill="#C2332F"/><path d="m6.45 7.7.04.05.02.05c0 .02.02.03.02.03l.03.09v.13c0 .03-.02.05-.03.07a.35.35 0 0 1-.24.17l-.02.01h-.02a.77.77 0 0 1-.2-.02c-.08-.03-.13-.1-.17-.2a.87.87 0 0 1 .01-.25c.04-.1.1-.16.2-.2H6.29a.26.26 0 0 1 .16.07Z" fill="#1A212C"/><path d="M4.41 7.84a.2.2 0 1 0-.4-.03.2.2 0 1 0 .4.03Z" fill="#C2332F"/><path d="M7.15 7.77c.1-.02.19 0 .25.03.14.1.2.21.17.37v.02a.15.15 0 0 0-.04.07v.01a.47.47 0 0 1-.1.1.3.3 0 0 1-.29.04.42.42 0 0 1-.14-.1.3.3 0 0 1-.07-.33l.01-.02a.22.22 0 0 0 .04-.06L7 7.88a.98.98 0 0 1 .09-.08.5.5 0 0 1 .07-.02Z" fill="#1A212C"/><path d="M13.86 8.07a.29.29 0 0 0-.29-.29.29.29 0 0 0-.28.3c0 .15.14.28.3.28.15 0 .28-.13.27-.3ZM12.12 8.68c.14 0 .25-.1.25-.24a.25.25 0 0 0-.25-.25.25.25 0 0 0-.24.25c0 .13.1.24.24.24ZM4.88 8.53c.09 0 .16-.07.16-.15a.16.16 0 0 0-.16-.16.16.16 0 0 0-.16.16c0 .08.07.15.16.15Z" fill="#C2332F"/><path d="M6.44 8.78c.03.05.04.1.04.17s-.01.12-.04.16a.33.33 0 0 1-.2.17.42.42 0 0 1-.29-.03.35.35 0 0 1-.13-.16.34.34 0 0 1 0-.25.47.47 0 0 1 .14-.19h.02l.04-.02.14-.03c.08.02.15.04.2.08a.2.2 0 0 1 .07.09v.01Z" fill="#1A212C"/><path d="M13.4 8.97a.3.3 0 0 0-.29-.31.3.3 0 0 0-.3.31c0 .17.13.31.3.31a.3.3 0 0 0 .3-.3ZM4.57 8.9a.19.19 0 1 0-.37-.05.19.19 0 1 0 .37.05Z" fill="#C2332F"/><path d="M7.18 8.7h-.04c-.13 0-.23.1-.24.22v.06c0 .12.1.22.23.22h.05c.12 0 .23-.1.23-.22v-.06c0-.12-.1-.22-.23-.22Z" fill="#1A212C"/><path d="M11.62 9.36c.15 0 .27-.12.27-.26a.27.27 0 0 0-.27-.27.27.27 0 0 0-.27.27c0 .14.12.26.27.26ZM10.98 9.88c.15 0 .27-.12.27-.26a.27.27 0 0 0-.27-.27.27.27 0 0 0-.27.27c0 .14.12.26.27.26Z" fill="#C2332F"/><path d="M6.9 9.74v.02-.1h.01l.07-.1a.5.5 0 0 1 .11-.07c.18-.04.3.02.37.18.03.05.04.1.03.14a.34.34 0 0 1-.14.23.3.3 0 0 1-.27.02l-.12-.08a.36.36 0 0 1-.07-.24Z" fill="#205E81"/><path d="M12.46 10.18c.2 0 .36-.16.36-.35 0-.2-.16-.35-.36-.35-.2 0-.35.16-.35.35 0 .2.16.35.35.35Z" fill="#C2332F"/><path d="M6.95 9.67 7 9.6c.07-.07.15-.1.25-.05a1.1 1.1 0 0 0 .1.03c.04.03.07.09.08.16 0 .07 0 .14-.04.2a.3.3 0 0 1-.07.05c-.08.06-.16.07-.25.03a.25.25 0 0 1-.14-.2.62.62 0 0 1 0-.15ZM6.43 10.13a.34.34 0 0 0-.16-.45.35.35 0 0 0-.46.18c-.08.17 0 .38.17.45.17.08.37 0 .45-.18Z" fill="#1A212C"/><path d="M10.28 10.36a.3.3 0 0 0 .3-.3.3.3 0 0 0-.3-.29.3.3 0 0 0-.3.3c0 .16.13.3.3.3ZM5.42 10c0-.08-.06-.14-.13-.14s-.13.07-.12.14c0 .08.06.13.13.13s.12-.06.12-.14ZM11.7 10.76c.2 0 .35-.15.35-.34 0-.2-.16-.35-.35-.35-.2 0-.36.15-.36.35 0 .19.16.34.36.34ZM9.56 10.71c.17 0 .31-.14.31-.3a.31.31 0 1 0-.63 0c0 .16.15.3.32.3ZM9.11 10.65a.34.34 0 0 0-.33-.34.34.34 0 0 0-.34.35c0 .18.16.33.34.33.19 0 .34-.15.33-.34Z" fill="#C2332F"/><path d="M7.58 10.63a.26.26 0 0 0-.23-.3.27.27 0 0 0-.3.25c0 .14.1.27.24.29.14.02.27-.1.29-.24Z" fill="#1A212C"/><path d="M10.84 11.33c.2 0 .37-.16.37-.36 0-.2-.17-.37-.37-.37-.21 0-.38.16-.38.37 0 .2.17.36.38.36Z" fill="#C2332F"/><path d="M6.12 11.24a.42.42 0 0 1-.09-.16.24.24 0 0 1 0-.17c.05-.1.13-.17.23-.18.15 0 .24.04.3.14l.02.14c-.01.17-.1.26-.26.28-.05 0-.11 0-.18-.04h-.02Z" fill="#1A212C"/><path d="M9.92 11.8a.4.4 0 0 0 .4-.39.4.4 0 0 0-.4-.4.4.4 0 0 0-.4.4c0 .22.18.4.4.4Z" fill="#C2332F"/><path d="M11.98 11.25c-.03-.05-.03-.1 0-.15.03-.04.07-.06.14-.06l.1.04.01.02c.05.09.04.16-.05.22h-.13c-.03 0-.05-.03-.07-.07Z" fill="#1A212C"/><path d="M7.6 11.12c.08 0 .14.02.2.08.05.05.07.11.07.19 0 .07-.03.13-.08.19a.26.26 0 0 1-.19.07.26.26 0 0 1-.19-.08.26.26 0 0 1-.07-.19c0-.07.03-.14.08-.19a.26.26 0 0 1 .19-.07Z" fill="#205E81"/><path d="M9.38 11.73a.42.42 0 0 0-.4-.44.42.42 0 0 0-.43.42c0 .24.17.43.4.44.23 0 .42-.18.43-.42Z" fill="#C2332F"/><path d="M12.12 11.83a.14.14 0 0 1-.02-.08v-.02a.6.6 0 0 1 .07-.08c.03-.03.07-.05.13-.04.05 0 .1.05.13.12l.01.02c0 .09-.04.14-.13.17H12.2a.37.37 0 0 1-.07-.1ZM11.67 11.7l.07.1a.1.1 0 0 1-.02.09.63.63 0 0 1-.07.07l-.02.01c-.1.02-.16 0-.2-.08v-.02c0-.06.01-.1.04-.16l.02-.01a.2.2 0 0 1 .17-.01l.01.01ZM6.64 12.26c.17 0 .3-.13.3-.29a.29.29 0 0 0-.3-.29c-.16 0-.29.13-.29.3 0 .15.13.28.3.28ZM8.24 12.13a.2.2 0 0 0-.1-.26.2.2 0 0 0-.27.11.2.2 0 0 0 .1.27.2.2 0 0 0 .27-.12ZM10.83 12.23a.1.1 0 0 1 .05-.03l.04-.02h.02c.14 0 .2.07.2.21v.02c-.03.06-.08.1-.15.12h-.02c-.1 0-.16-.05-.18-.14 0-.06 0-.12.04-.16ZM8.9 12.57a.24.24 0 0 0-.25-.23.24.24 0 0 0-.23.26.24.24 0 0 0 .47-.02ZM11.73 12.69c-.08.06-.16.05-.24-.01-.02-.02-.04-.05-.04-.1s.02-.1.06-.14c.04-.04.1-.05.15-.04.05.02.1.05.12.1.02.06.01.1-.02.16l-.03.03ZM10.06 12.8h-.01a.05.05 0 0 1-.02-.04v-.08c0-.04.04-.09.1-.14h.02l.16-.01c.06.03.1.07.12.13.02.07.02.12-.02.17a.3.3 0 0 1-.14.1c-.05.01-.1 0-.15-.05a.19.19 0 0 1-.06-.07Z" fill="#1A212C"/><path d="M7.2 12.6c.08 0 .14.02.2.08.05.06.07.13.07.2 0 .09-.03.15-.09.2a.27.27 0 0 1-.2.08.27.27 0 0 1-.2-.09.28.28 0 0 1-.07-.2c0-.08.03-.15.09-.2a.27.27 0 0 1 .2-.08Z" fill="#205E81"/><path d="M9.47 12.6c.05 0 .1.02.12.04.06.05.09.12.08.2 0 .09-.05.15-.12.2-.02 0-.06.02-.12.01-.05 0-.1-.02-.12-.04a.23.23 0 0 1-.08-.2c0-.08.05-.15.12-.19.02-.02.07-.02.12-.02Z" fill="#1A212C"/><path d="M11.06 13.2a.2.2 0 0 1-.06.16.21.21 0 0 1-.15.06.21.21 0 0 1-.16-.06.2.2 0 0 1-.06-.15.21.21 0 0 1 .22-.21c.05 0 .1.02.15.06.04.04.06.09.06.15Z" fill="#205E81"/><path d="M8.13 13.68c-.07.07-.15.09-.23.06a.2.2 0 0 1-.1-.07.22.22 0 0 1-.04-.15c0-.07.03-.11.06-.15.03-.03.08-.05.15-.05.06 0 .11.01.15.04a.2.2 0 0 1 .07.1c.02.08 0 .16-.06.22ZM10.1 13.67c.02-.1-.05-.2-.14-.2-.1-.02-.18.05-.2.16-.01.1.05.19.15.2.1.02.18-.06.2-.16ZM8.94 13.57c.05 0 .09.02.12.04a.3.3 0 0 1 .07.1l.02.08c0 .03-.01.06-.03.08a.3.3 0 0 1-.08.1.2.2 0 0 1-.12.03.2.2 0 0 1-.12-.04.3.3 0 0 1-.07-.1.17.17 0 0 1-.02-.08c0-.03 0-.05.02-.08a.3.3 0 0 1 .08-.1.2.2 0 0 1 .13-.03Z" fill="#1A212C"/></svg>