<!-- by TradingView --><svg width="56" height="56" viewBox="0 0 56 56" xmlns="http://www.w3.org/2000/svg"><path fill="#F0F3FA" d="M0 0h56v56H0z"/><path d="M22.08 39.2c-.04-.1-.2-.73-.51-1.9-1.42-5.31-4.25-8.84-8.51-10.57-.05-.01-.07-.04-.06-.07 0-.04.03-.06.05-.05 1.18.26 2.35.42 3.52.5 2.22.14 4.11-.74 5.68-2.63a24.5 24.5 0 0 0 2.24-3.21 423.5 423.5 0 0 1 6.2-10.24c.02-.03.04-.04.06-.02.02.02.02.04 0 .08a110.97 110.97 0 0 0-4.85 10.6 50.29 50.29 0 0 0-3.59 15.74c-.05.89-.1 1.47-.14 1.77-.02.14-.05.14-.1 0Z" fill="#D75F04"/><path d="M46.96 37.45c.03 0 .04.04.04.08 0 .05-.03.07-.07.06a74.78 74.78 0 0 0-2.36-.5 50.93 50.93 0 0 0-6.8-.72 23.1 23.1 0 0 0-7.07.66 27.07 27.07 0 0 0-6.68 2.95c-.05.03-.1.03-.14-.01-.05-.03-.07-.09-.07-.16a35.7 35.7 0 0 1 .95-9.07c1-4.23 2.25-8.2 3.75-11.89l1.86-4.59.07-.03c.03 0 .04.03.02.09l-.63 1.93c-.62 1.88-1.05 3.24-1.3 4.08-.38 1.3-.7 2.63-.96 3.96a16.6 16.6 0 0 0-.34 4.63c.16 1.78.73 3.09 1.7 3.9a7.4 7.4 0 0 0 2.5 1.35c.73.24 1.71.45 2.94.62 3.92.56 6.52.97 7.79 1.24 1.28.27 2.89.74 4.8 1.42Z" fill="#2D4279"/></svg>