<!-- by TradingView --><svg width="56" height="56" viewBox="0 0 56 56" xmlns="http://www.w3.org/2000/svg"><path fill="#F0F3FA" d="M0 0h56v56H0z"/><path d="M35.15 15.95c-.3.58-.7.99-.79 1.7a.14.14 0 0 1-.1.13.14.14 0 0 1-.15-.06 3.05 3.05 0 0 1-.52-2.91 25.39 25.39 0 0 0 .5-1.77.1.1 0 0 1 .1-.04l.04.02a5.74 5.74 0 0 1 1.7 2.14.36.36 0 0 1-.1.42.36.36 0 0 1-.13.08l-.1.03a.26.26 0 0 1-.2-.03.27.27 0 0 1-.13-.15 6.32 6.32 0 0 0-.23-.62H35a.07.07 0 0 0-.04.08l.22.77c.02.07.01.15-.02.2Z" fill="#89C248"/><path d="M31.95 16.65c.5.92 1.26 1.49 2.3 1.72.02 0 .04.02.05.04a.09.09 0 0 1-.07.14c-2.29.07-3.08-1.6-3.16-3.67l.01-.02.02-.02a.05.05 0 0 1 .05 0l2 .78a.1.1 0 0 1 .05.04.1.1 0 0 1 .01.07c-.1.86.13 1.53.68 2.01a.13.13 0 0 1-.06.22h-.09A8 8 0 0 1 32 16.57h-.03a.05.05 0 0 0-.02.07ZM34.66 17.79a.07.07 0 0 1-.1 0 .08.08 0 0 1-.01-.1c.08-.14.17-.32.26-.57.64-1.56 2.31-2.02 3.85-1.7a.1.1 0 0 1 .07.06.1.1 0 0 1 0 .1c-1.01 1.45-1.66 3.06-3.76 2.9a.13.13 0 0 1-.1-.07.13.13 0 0 1 0-.13 4.12 4.12 0 0 1 2.17-2.15.05.05 0 0 0-.05-.07c-.73.1-1.31.45-1.76 1.07-.21.3-.4.52-.57.66Z" fill="#89C248"/><path d="M42.05 28.7a.05.05 0 0 0-.06-.04l-.05.02v.02c.07.3.1.58.06.82a.29.29 0 0 1-.15.22c-.42.24-.82.22-1.18-.05a.27.27 0 0 1-.1-.24l.02-.42a.11.11 0 0 0-.08-.1.1.1 0 0 0-.13.05c-.2.48-.41.85-.6 1.12-.14.18-.31.32-.49.4a.64.64 0 0 1-.5.02c-1.4-.59-1.42-2.67-1.28-3.87a.16.16 0 0 0-.08-.16.16.16 0 0 0-.07-.02l-.5-.04a.18.18 0 0 0-.15.06.18.18 0 0 0-.05.15c.24 1.67-.25 4.54-2.05 5.31-.89.38-1.47.13-1.74-.74a.39.39 0 0 1-.02-.13l.08-1.34a.07.07 0 0 0-.03-.07.07.07 0 0 0-.08 0c-.54.38-.96.33-1.27-.13a.1.1 0 0 0-.17.04c-.1.77-.48 2.38-1.4 2.52-2.28.34-1.66-2.62-1.35-3.94.3-1.23.75-2.87.69-3.05a.24.24 0 0 0-.19-.16.23.23 0 0 0-.22.1c-.3.4-.56.86-.75 1.38-.46 1.27-.84 2.5-1.14 3.67a.41.41 0 0 1-.34.31c-1.13.16-.77-.79-.9-1.41a.1.1 0 0 0-.06-.07.09.09 0 0 0-.1.02l-.36.78c-.14.3-.4.56-.79.8a.38.38 0 0 1-.31.03c-1.27-.4-1.4-1.66-1.43-2.8a.07.07 0 0 0-.06-.07.07.07 0 0 0-.08.05c-.33 1.08-1.02 3.3-2.48 1.35a.14.14 0 0 0-.14-.06.14.14 0 0 0-.1.11c-.18.92-.5 2.16-1.08 2.78-.43.45-1.11.11-1.36-.29a4.64 4.64 0 0 1-.67-1.93c-.32-2.52-.16-5.63.85-8.04a.3.3 0 0 0-.19-.4c-1.14-.32-2.04-.12-2.72.6a.15.15 0 0 1-.1.05.14.14 0 0 1-.11-.06l-.06-.07a.13.13 0 0 1-.02-.1l.04-.07.66-.58c.05-.05.1-.11.11-.18.5-1.61.12-3.18-1.91-2.96-1.61.18-3.23.96-4.03 2.4a3.25 3.25 0 0 0 .37 3.73c.43.48 1 .9 1.7 1.29 2.2 1.2 4.37 2.23 4.7 4.77.27 1.98-1.11 4.07-2.69 5.26-1.8 1.37-3.83.43-4.05-1.8a9.32 9.32 0 0 1 1.25-5.62.33.33 0 0 1 .32-.17h.02l.06.02a.13.13 0 0 1 .06.12c0 .02 0 .04-.02.06a9.2 9.2 0 0 0-1.17 6.1c.02.13.05.24.1.35.47.92 1.12 1.32 1.94 1.2 1.48-.23 2.59-2.04 2.84-3.44.38-2.17-.37-3.78-2.25-4.83-2.43-1.35-5.56-3.1-4.08-6.51a5.62 5.62 0 0 1 5.26-3.28c1.68.03 2.45.93 2.3 2.7 0 .04-.05.13-.13.26a.33.33 0 0 0-.06.12.16.16 0 0 0 .05.14.15.15 0 0 0 .13.04c.61-.1 1.21-.02 1.8.24.03.02.08.02.12 0a.17.17 0 0 0 .09-.07c.64-1.16 1.64-1.91 2.96-1.65a.5.5 0 0 1 .23.11c.78.66.52 1.78.08 2.55a.1.1 0 0 0 .04.14 6.43 6.43 0 0 0 3.65-1.24.13.13 0 0 1 .1-.03c.03 0 .07.02.09.05a.14.14 0 0 1-.01.2 5.25 5.25 0 0 1-3.93 1.29.29.29 0 0 0-.25.12 4.68 4.68 0 0 1-2.45 1.81.23.23 0 0 0-.17.2 33.5 33.5 0 0 0-.06 7.12.2.2 0 0 0 .15.18.2.2 0 0 0 .21-.08c.55-.8.85-2.17 1.14-3.3a.93.93 0 0 0 .02-.4c-.27-1.63.53-3.34 2.37-3.38.23 0 .43.09.61.27a.25.25 0 0 0 .27.06.4.4 0 0 0 .16-.14c.06-.08.13-.12.2-.13.45-.05.76.03.93.22a.33.33 0 0 1 .08.29c0 .02-.1 1.04-.26 3.06a7.01 7.01 0 0 0 .13 1.87.16.16 0 0 0 .15.06l.07-.04c.64-.52.92-1.46 1.22-2.39a.4.4 0 0 0 .02-.1l.06-2.25a.7.7 0 0 1 .47-.64.7.7 0 0 1 .28-.04h.1a.6.6 0 0 1 .42.22c.1.12.16.28.15.44l-.22 3.11.01.04.03.02a.06.06 0 0 0 .07-.03c.36-.94.72-2.58 1.55-3.58a.88.88 0 0 1 1.07-.23c1.2.6.53 4.24.32 5.93-.04.33-.04.62 0 .87a.15.15 0 0 0 .1.12.14.14 0 0 0 .16-.05c.62-.77.82-1.99 1.07-3.1.03-.16.05-.32.04-.48-.14-2.31.42-9.6 4.32-8.67.1.03.18.08.25.15.4.43.5.94.35 1.52a4.72 4.72 0 0 1-3.08 3.28.36.36 0 0 0-.24.32l-.23 3.31a.06.06 0 0 0 .05.06h.04l.03-.03c.22-.61.45-1.73.94-2.51.9-1.43 2.23-.74 2.71.59a.18.18 0 0 0 .15.11l.65.05a.25.25 0 0 0 .26-.23l.06-.76a.5.5 0 0 1 .53-.46l.64.04a.38.38 0 0 1 .27.14.39.39 0 0 1 .08.3 27.3 27.3 0 0 0-.28 4.3c.01.18.04.35.08.51a.22.22 0 0 0 .4.07c.5-.67.85-1.45 1.07-2.35.03-.1.04-.21.04-.33-.05-2.3.47-8.28 3.87-8.17.8.02 1.26.83 1.1 1.52a4.6 4.6 0 0 1-3.18 3.5.25.25 0 0 0-.17.21l-.24 2.34c0 .05 0 .1.02.16l.08.22c.02 0 .04 0 .05-.02a.08.08 0 0 0 .02-.04c.1-.76.64-2.83 1.8-2.4.44.17.67.52.7 1.04.06.9-.26 1.61-.97 2.13a.25.25 0 0 0-.1.2c.03.84.07 3 .47 3.55a.15.15 0 0 0 .2.05 3.99 3.99 0 0 0 .56-1.3c.32-1.36.56-2.65.7-3.85a.25.25 0 0 1 .25-.22h.01a.16.16 0 0 1 .14.06.18.18 0 0 1 .03.15l-.53 2.87c-.15.8-.51 2.32-1.08 2.6a.63.63 0 0 1-.42.04.8.8 0 0 1-.4-.23c-.83-.87-.95-2.08-1.32-3.17Zm-22.98-7.2 1.66.66a.08.08 0 0 0 .07 0l.02-.02.02-.03.08-.2a4.54 4.54 0 0 0 .29-1.5c-.01-.22-.05-.4-.12-.55a.54.54 0 0 0-.28-.28l-.06-.02c-.23-.1-.53.03-.84.33-.31.31-.6.78-.8 1.3l-.08.2a.08.08 0 0 0 .02.09l.02.02Zm23.25 2.53a4.59 4.59 0 0 0 2.38-2.15c.34-.65.66-1.8-.1-2.29a.4.4 0 0 0-.41 0c-1.36.78-1.81 2.88-2.01 4.33a.1.1 0 0 0 .08.12.1.1 0 0 0 .06 0Zm-9.1.02a4.6 4.6 0 0 0 2.38-2.16c.34-.66.66-1.81-.09-2.29a.4.4 0 0 0-.42 0c-1.35.78-1.8 2.88-2 4.34a.1.1 0 0 0 .08.11.1.1 0 0 0 .06 0Zm-12.68-1.76c-.43 0-.93-.14-1.5-.41a.2.2 0 0 0-.16 0 .2.2 0 0 0-.11.13l-.45 1.96a.1.1 0 0 0 .08.11 5.23 5.23 0 0 0 2.22-1.71.07.07 0 0 0-.04-.07.07.07 0 0 0-.04 0Zm12.58 6.86a4.83 4.83 0 0 1 2.1-2.42.56.56 0 0 0 .3-.56l-.07-.68a.55.55 0 0 0-.34-.46.54.54 0 0 0-.55.08c-.39.31-.68.77-.87 1.38a78.72 78.72 0 0 0-.73 2.67l.04.02.01.01a.08.08 0 0 0 .1-.04Zm9.12-1.98a.1.1 0 0 0 .04.12.1.1 0 0 0 .12 0 2.9 2.9 0 0 0 1.23-2.05.23.23 0 0 0-.11-.23.22.22 0 0 0-.25.02c-.54.44-.82 1.5-1.03 2.14Zm-20.8 2.24c.2-.15.35-.36.45-.63.39-1.05.69-2.04.9-2.95a.6.6 0 0 0-.53-.74h-.02a.95.95 0 0 0-.96.66 5.99 5.99 0 0 0-.18 3.55.22.22 0 0 0 .14.15.22.22 0 0 0 .2-.04Zm14.06-2.36a.09.09 0 0 0-.04-.08.1.1 0 0 0-.1 0 4.21 4.21 0 0 0-2.14 3.43c-.04.47.03.87.23 1.2a.43.43 0 0 0 .28.21.42.42 0 0 0 .34-.07c1.05-.8 1.36-3.4 1.43-4.69Z" fill="#466030"/><path d="M38.45 23.59c-.4 0-.73.2-.73.44 0 .25.32.45.73.45.4 0 .73-.2.73-.44 0-.25-.32-.45-.73-.45Z" fill="#466030"/><path d="M31 34.56c-.07-.04-.15-.05-.24-.01.49-.77.96-1.04 1.33-2.06a.05.05 0 0 0-.03-.06h-.03a5.9 5.9 0 0 1-1.59 1.85c-.1.08-.2.1-.28.1a.1.1 0 0 1-.07-.06.1.1 0 0 1 0-.1l1.63-2.59a.22.22 0 0 0 .03-.19l-.12-.42a.08.08 0 0 1 .07-.1h.04c1.65 1.12 1.02 3.08-.74 3.64Z" fill="#89C248"/><path d="M32.15 42.89c-6.39.73-12.3-2.22-15.91-7.54a.08.08 0 0 1 0-.08c0-.02.01-.03.03-.04h.04c.35 0 .6.12.76.33a16.17 16.17 0 0 0 15.02 6.77 16.27 16.27 0 0 0 13.14-9.98c.1-.24.33-.41.67-.5a.08.08 0 0 1 .08.02.08.08 0 0 1 .02.08c-2.36 6.01-7.46 10.21-13.85 10.94Z" fill="#89C248"/><path d="M29.44 32.46c.13-.05.34.15.64.58.18.26.07.63-.23.73-.3.1-.6-.14-.6-.46-.01-.53.05-.81.19-.85Z" fill="#89C248"/><path d="m25.4 36.78 3.04.63c-.28-.05-.47-.05-.58.02a.12.12 0 0 0-.02.18 7 7 0 0 0 4.93-.22l2.27-.54a13.12 13.12 0 0 0 4.18-3.2h.06l.22.01a.1.1 0 0 1 .09.11 12.14 12.14 0 0 1-6.32 4.07c-4.7 1.3-9.5-.51-12.54-4.3a.78.78 0 0 1-.2-.6.1.1 0 0 1 .09-.1.1.1 0 0 1 .1.05 11.84 11.84 0 0 0 4.67 3.89Z" fill="#89C248"/><path d="M29.6 34.66c-.11.11-.18.15-.21.1-.33-.54-.96-1.13-1.56-.61-.95.53-1.33.52-1.13-.04-.15-.38-.19-.65-.1-.8a.23.23 0 0 1 .24-.1.23.23 0 0 1 .18.2c0 .08-.03.2-.1.37a.14.14 0 0 0 .11.19c.03 0 .06 0 .09-.02 1.1-.58 1.92-.34 2.48.71Z" fill="#772A02"/><path d="M34.94 35.3v.06l-.12.03a.23.23 0 0 1-.23-.1c-.3-.39-.7-.52-1.2-.39-.3-.01-.6.14-.93.47-.13 0-.23-.06-.3-.19l.48-.31a.12.12 0 0 0-.05-.22c-.31-.04-.58 0-.8.13a.22.22 0 0 0-.1.12.22.22 0 0 0 0 .14c.05.13.15.2.31.19-.03.06-.03.12 0 .17.01.04.06.07.14.1.12.03.18.1.19.2a1.05 1.05 0 0 1-.04.08h-.01a3.28 3.28 0 0 1-.84-.67.21.21 0 0 1 0-.27c.36-.42.85-.52 1.48-.3.5.18.8.07.88-.32a.2.2 0 0 1 .21-.16h.08c.04 0 .07.02.1.05.02.02.03.06.03.1 0 .06-.02.13-.06.2a.22.22 0 0 0 .05.29l.73.6Z" fill="#89C248"/><path d="M26.7 34.11c-.2.56.18.57 1.13.04a.7.7 0 0 0-.02.07.1.1 0 0 0 .04.1.1.1 0 0 0 .1 0c.12-.09.23-.1.35-.03.35.19.57.37.65.53a.14.14 0 0 1-.07.2c-.6.26-1.09.69-1.47 1.3a.3.3 0 0 1-.34.13 3.1 3.1 0 0 1-1.56-1.1.33.33 0 0 1-.06-.26c.1-.59.52-.91 1.25-.98Z" fill="#F5941E"/><path d="M31 34.56c.09.1.15.2.19.32a.14.14 0 0 1-.08.16.13.13 0 0 1-.06.02c-.58-.02-1.04.16-1.35.55-.86.15-1.32.5-1.36 1.05-.2.08-.39.03-.56-.13a.17.17 0 0 1-.02-.24 4.28 4.28 0 0 1 1.72-1.33.09.09 0 0 0 .01-.05c0-.06-.03-.11-.1-.15.03.05.1.01.2-.1-.05.04-.04.09.03.14a.1.1 0 0 0 .08.02c.4-.04.76-.13 1.06-.27.1-.04.17-.03.24.01ZM32.16 35.18a.42.42 0 0 1-.16.05c-.16 0-.26-.06-.3-.19a.22.22 0 0 1 0-.14.22.22 0 0 1 .1-.12c.21-.12.48-.17.79-.14a.12.12 0 0 1 .1.1.12.12 0 0 1-.05.13l-.48.31ZM33.39 34.9c-.03.24.16.38.55.45a.32.32 0 0 1 .24.19l.05.11c.01.03.03.05.05.06a.14.14 0 0 0 .13.02c.03 0 .05-.02.06-.04a.2.2 0 0 1 .15-.07h.03a.06.06 0 0 1 .03.07c0 .01 0 .02-.02.03l-.41.43a.18.18 0 0 1-.18.04c-.21-.07-.52.05-.92.35a.12.12 0 0 1-.18-.04.13.13 0 0 1-.02-.07c0-.42-.16-.77-.49-1.06.33-.33.63-.48.93-.47Z" fill="#F1D52B"/><path d="M34.93 35.36c.2.23.19.43-.03.62-.54.44-1.21.71-2.02.83-.5.07-1 .12-1.47.16l.04-.2c.48 0 .84-.16 1.08-.46.16-.2.12-.36-.11-.48-.03-.02-.06-.06-.09-.12 0-.1-.07-.18-.19-.21-.08-.03-.13-.06-.14-.1-.03-.05-.03-.1 0-.17.06 0 .11-.02.16-.05.07.13.17.2.3.19.33.29.5.64.5 1.06a.13.13 0 0 0 .06.12.12.12 0 0 0 .13-.01c.4-.3.7-.42.92-.35a.17.17 0 0 0 .18-.04l.41-.43a.06.06 0 0 0-.04-.1.2.2 0 0 0-.15.07.14.14 0 0 1-.13.05.15.15 0 0 1-.11-.09l-.05-.11a.32.32 0 0 0-.24-.2c-.4-.06-.58-.2-.55-.44.5-.13.9 0 1.2.4a.23.23 0 0 0 .23.09l.11-.03Z" fill="#C8D5AA"/><path d="M32.42 35.83c.23.12.27.28.11.48-.24.3-.6.45-1.08.45l-1.45.01a.33.33 0 0 1-.33-.37c.06-.62.44-1.01 1.15-1.19.2-.05.34.02.41.24a.21.21 0 0 0 .12.13c.23.09.43.28.62.58a.16.16 0 0 0 .18.07c.03 0 .05-.02.07-.03.08-.08.15-.2.2-.37Z" fill="#FA0709"/><path d="m35.04 36.85-2.27.53a20.2 20.2 0 0 1-4.33.03l-3.05-.63c-.3-.54-.42-.96-.36-1.26a.14.14 0 0 1 .11-.11.14.14 0 0 1 .15.06c.32.5.75.85 1.28 1.04 1.5.52 3.25.63 4.84.46.48-.04.97-.1 1.47-.16a3.98 3.98 0 0 0 2.02-.83c.22-.19.23-.4.03-.62l.01-.07c.29.05.45.18.5.4.01.12-.04.32-.17.59-.08.16-.15.35-.23.57Z" fill="#772A02"/><path d="M38.65 36.57a.13.13 0 0 1 .02-.18l.68-.5c.13-.1.27-.17.42-.22.15-.05.3-.07.44-.06.14 0 .27.03.39.09s.21.14.29.24l.1.13c.06.1.11.22.13.35.02.13 0 .27-.03.4a1.52 1.52 0 0 1-.53.73l-.68.5a.13.13 0 0 1-.19-.02l-1.04-1.46Zm.6.02.64.85a.15.15 0 0 0 .2.03l.1-.08a1.02 1.02 0 0 0 .4-.55.7.7 0 0 0 .04-.29.49.49 0 0 0-.1-.24l-.03-.04a.48.48 0 0 0-.2-.16.67.67 0 0 0-.29-.05 1 1 0 0 0-.32.07c-.1.04-.21.1-.3.18l-.1.07a.15.15 0 0 0-.06.16c0 .02.01.04.03.05Z" fill="#859960"/><path d="M29.7 35.6c-.28.32-.4.65-.34.98a.13.13 0 0 1-.14.15l-.88-.07c.04-.55.5-.9 1.36-1.05Z" fill="#F5941E"/><path d="m21.12 35.89.09.08a.26.26 0 0 1 .08.25l-.43 1.87a.11.11 0 0 1-.05.07.1.1 0 0 1-.08.02l-.16-.04a.21.21 0 0 1-.16-.23l.02-.25a.32.32 0 0 0-.1-.26 38.38 38.38 0 0 1-.51-.41.31.31 0 0 0-.28-.05l-.23.07a.2.2 0 0 1-.26-.11l-.07-.16a.11.11 0 0 1 .02-.12.11.11 0 0 1 .04-.02l1.73-.81a.25.25 0 0 1 .26.03l.09.07Zm-.86 1.05.15.12a.17.17 0 0 0 .19-.06.18.18 0 0 0 .03-.07c.1-.35.13-.54.1-.56-.02-.02-.2.05-.53.2a.18.18 0 0 0-.09.24l.15.13ZM38.17 36.75a.13.13 0 0 1 .2.09l.02.07c0 .05 0 .1-.03.15a.22.22 0 0 1-.11.1c-.27.08-.43.2-.48.36a.24.24 0 0 0 .07.27c.04.03.09.05.14.05.05 0 .1-.02.13-.05.16-.13.32-.22.46-.29a.13.13 0 0 1 .1 0c.03.01.06.03.08.06l.05.1c.01.02.02.05 0 .08 0 .02-.02.05-.04.06l-.53.31a.2.2 0 0 0-.07.27l.05.1a.23.23 0 0 0 .25.1c.03 0 .06-.02.08-.03.3-.23.5-.35.62-.38a.17.17 0 0 1 .2.09.17.17 0 0 1-.06.22l-1 .64a.2.2 0 0 1-.27-.07l-.85-1.49a.21.21 0 0 1 .08-.28l.91-.53ZM23.04 38.65c-.22-.1-.4-.22-.54-.35a.16.16 0 0 1 .08-.27c.04 0 .08 0 .11.02l.93.54a.15.15 0 0 1 .07.1.16.16 0 0 1-.03.13c-.54.72-1.32.6-1.9-.03-1.35-1.4 1.47-2.68 2.09-.66a.14.14 0 0 1-.06.16.13.13 0 0 1-.17-.02l-.65-.66a.35.35 0 0 0-.15-.09c-1.19-.33-1.23 1.58.2 1.32a.1.1 0 0 0 .08-.08.1.1 0 0 0-.01-.06.1.1 0 0 0-.05-.05Z" fill="#859960"/><path d="M32.77 37.38a7 7 0 0 1-4.93.23.12.12 0 0 1 .02-.18c.1-.07.3-.07.58-.02 1.26.15 2.7.14 4.33-.03Z" fill="#C8D5AA"/><path d="M36.94 39.8c-.17.09-.29.05-.35-.09a18.55 18.55 0 0 1-.5-1.26.15.15 0 0 0-.1-.08l-.07.01-.36.12a.15.15 0 0 1-.18-.06c-.05-.08-.06-.15-.04-.2a.17.17 0 0 1 .1-.1 6.49 6.49 0 0 0 1.26-.57.17.17 0 0 1 .12-.01c.06.01.1.07.13.17a.15.15 0 0 1-.07.17l-.33.2a.15.15 0 0 0-.07.1.15.15 0 0 0 .04.13c.04.06.23.44.57 1.15.07.14.02.25-.15.33ZM25.4 40.21a.3.3 0 0 1-.27.25.29.29 0 0 1-.3-.21l-.23-.82a.16.16 0 0 0-.23-.1.16.16 0 0 0-.06.07 1 1 0 0 0-.09.36.2.2 0 0 1-.17.18c-.14.01-.24 0-.32-.06a.13.13 0 0 1-.05-.07v-.09l.66-1.68a.16.16 0 0 1 .08-.1.15.15 0 0 1 .11 0c.48.17.84.35 1.08.56.51.45 0 .94-.43 1.08a.13.13 0 0 0-.1.14l.03.06.3.43Zm-.9-1.52c-.02.08 0 .17.06.25a.6.6 0 0 0 .28.18c.11.04.23.04.33.02.1-.03.17-.09.2-.16.02-.08 0-.17-.07-.25a.6.6 0 0 0-.28-.18.59.59 0 0 0-.33-.02c-.1.03-.16.09-.19.16ZM34.82 38.35l-.05.02a.22.22 0 0 0-.13.28l.55 1.6c.04.1.16.17.28.13l.05-.02a.22.22 0 0 0 .13-.28l-.55-1.6a.22.22 0 0 0-.28-.13ZM33.43 40.93a.24.24 0 0 1-.27-.1 6.05 6.05 0 0 0-.66-.87h-.04a.06.06 0 0 0-.04.07l.1.87a.18.18 0 0 1-.17.2l-.1.01c-.04 0-.1 0-.13-.04a.2.2 0 0 1-.07-.13l-.18-1.65a.29.29 0 0 1 .18-.3.28.28 0 0 1 .32.1l.88 1.17h.06l.02-.01v-.01l.37-1.42a.28.28 0 0 1 .26-.21.28.28 0 0 1 .28.2l.47 1.6a.2.2 0 0 1-.13.24l-.1.02a.18.18 0 0 1-.13-.02.18.18 0 0 1-.1-.1l-.24-.84a.06.06 0 0 0-.06-.05.06.06 0 0 0-.06.04c-.1.25-.18.59-.26 1.03-.02.11-.09.18-.2.2ZM25.94 39.64a1 1 0 0 1 .49-.68 1.38 1.38 0 0 1 1.7.33c.09.12.16.25.2.39a1 1 0 0 1-.48 1.1 1.38 1.38 0 0 1-1.7-.33c-.1-.12-.16-.25-.2-.4a.96.96 0 0 1-.01-.41Zm1.9.22a.7.7 0 0 0-.21-.5.7.7 0 0 0-1.2.5c0 .19.08.37.21.5a.7.7 0 0 0 1.2-.5ZM30.6 41.26l-1.08-.08a.13.13 0 0 1-.12-.1v-.05l.12-1.76a.18.18 0 0 1 .13-.16h.19a.2.2 0 0 1 .17.2l-.1 1.38a.14.14 0 0 0 .14.16 3.8 3.8 0 0 0 .5.01c.03.01.05.02.06.04l.1.15a.13.13 0 0 1-.03.19.13.13 0 0 1-.07.02ZM31.28 39.09l-.22.01a.13.13 0 0 0-.12.14l.14 1.82c.01.07.07.12.14.12l.22-.02c.07 0 .12-.07.12-.14l-.14-1.82a.13.13 0 0 0-.14-.11Z" fill="#859960"/></svg>