<!-- by TradingView --><svg width="18" height="18" viewBox="0 0 18 18" xmlns="http://www.w3.org/2000/svg"><path fill="#F0F3FA" d="M0 0h18v18H0z"/><path d="M5.92 8.77v.01c.46.19.8.46.97.88.13.32.14.72.05 1.06-.17.69-.82 1.17-1.61 1.25a5.83 5.83 0 0 1-1 .02v-1.52l.01-.01h.4c.18 0 .43-.02.48-.2.02-.07.02-.17-.02-.24-.07-.12-.25-.15-.4-.16a15.05 15.05 0 0 0-.46-.01V8.27c.23-.02.52-.05.55-.29.04-.28-.2-.37-.47-.37a16.85 16.85 0 0 0-.42.01V12H2L2 11.99V6L2.02 6h2.54c.43 0 .9.06 1.3.24.42.18.68.5.77.9.09.4.04.8-.2 1.15-.12.19-.3.35-.5.48ZM12 6h-2v6h2V6ZM13.74 12 12.2 8.69 13.94 6H16l-1.77 2.72L15.99 12V12h-2.25ZM9.58 8.57H7.21v1.08H9.6V8.58Z" fill="#2FB3E7"/></svg>