<!-- by TradingView --><svg width="56" height="56" viewBox="0 0 56 56" xmlns="http://www.w3.org/2000/svg"><path fill="#F0F3FA" d="M0 0h56v56H0z"/><path d="M26.35 27.19a1.74 1.74 0 0 0 0 1.62L11 29.75v-3.5l15.35.94Z" fill="#91C228"/><path d="M29.65 27.19a1.74 1.74 0 0 1 0 1.62l15.35.94v-3.5l-15.35.94Z" fill="#CC0484"/><path d="M28.57 26.25a1.74 1.74 0 0 1 1.18 1.18l7.66-6.37-2.47-2.47-6.37 7.66Z" fill="#E82422"/><path d="M27.43 29.75a1.74 1.74 0 0 1-1.17-1.17l-7.66 6.36 2.47 2.47 6.36-7.66Z" fill="#00965F"/><path d="M26.25 27.43a1.74 1.74 0 0 1 1.18-1.17l-6.37-7.67-2.47 2.48 7.66 6.36Z" fill="#F7EA03"/><path d="M29.75 28.57a1.74 1.74 0 0 1-1.17 1.17l6.36 7.67 2.48-2.47-7.67-6.37Z" fill="#703A8F"/><path d="M27.18 29.65a1.74 1.74 0 0 0 1.63 0L29.75 45h-3.5l.93-15.35Z" fill="#2C76B9"/><path d="M27.18 26.35a1.74 1.74 0 0 1 1.63 0L29.75 11h-3.5l.93 15.35Z" fill="#F5901C"/></svg>