<!-- by TradingView --><svg width="56" height="56" viewBox="0 0 56 56" xmlns="http://www.w3.org/2000/svg"><path fill="#F0F3FA" d="M0 0h56v56H0z"/><path d="M28 14c2.54 0 4.48.13 5.84.38 1.98.37 3.57.77 4.76 1.2 1.27.46 1.9 1.1 1.9 1.92 0 .82-.63 1.46-1.9 1.91a32.5 32.5 0 0 1-4.76 1.2c-1.36.26-3.3.39-5.84.39-2.53 0-4.48-.13-5.83-.38a32.07 32.07 0 0 1-4.77-1.2c-1.27-.46-1.9-1.1-1.9-1.92 0-.82.63-1.46 1.9-1.91 1.19-.43 2.78-.83 4.76-1.2 1.36-.26 3.3-.39 5.84-.39Z" fill="#FE0000"/><path d="M28.47 34.96c-.02-.15.05-.4.2-.73a28.34 28.34 0 0 1 7.39-10.13c1.81-1.6 5.11-3.45 7.62-2.34.14.06.24.15.32.28.26.45.47.66.95.82l.04.03v.06c0 .01 0 .03-.02.04a.08.08 0 0 1-.05.02c-2.75-.01-4.97.74-6.63 2.26-2.27 2.06-3.67 3.49-4.19 4.27-1.12 1.7-2.16 2.91-2.94 4.5l-.85 1.55c-.43.77-.96 2.2-1.6 4.28-.2.67-.3 1.43-.3 2.27.02.87-.21 1.74-.67 2.62a.44.44 0 0 1-.53.22c-.37-.14-.55-.48-.54-1.02l.04-3.35c0-.88-.19-1.97-.58-3.25a27.15 27.15 0 0 0-3.72-7.8c-1.03-1.48-3.47-3.92-5.38-4.68-1.08-.43-1.69-.95-2.77-.89-.5.03-1.33.03-2.51 0a.61.61 0 0 0-.4.14l-.11.08c-.23.18-.3.13-.19-.14.2-.51.48-.85.85-1.03 3.09-1.49 5.99-1.23 8.7.75a17.5 17.5 0 0 1 5.05 5.87 25 25 0 0 1 2.23 5.38c.04.16.14.22.3.17l.14-.04a.2.2 0 0 0 .11-.08.2.2 0 0 0 .04-.13Z" fill="#000078"/><path fill-rule="evenodd" d="M20 16h.8l.44 1.8.5-1.8h.85l-1.04 3h-.63L20 16Zm3 0v3h1.58v-.5h-1.02v-.92h.81v-.53h-.8v-.63h1.01V16H23Zm2 0v3h.48v-2.3l.93 2.3h.7v-3h-.6v1.8l-.78-1.8H25Zm2.63 0v3h.56v-2.38l.77 2.38h.33l.71-2.38V19h.62v-3h-.93l-.57 1.8-.56-1.8h-.93Zm3.28 3h.8l.2-.78h.52l.22.78h1.53l.48-.88.48.88H36l-.93-1.64.74-1.36h-.8l-.35.63-.36-.63h-.8l.74 1.36-.81 1.44-.97-2.8h-.64l-.91 3Zm1.37-1.31-.13-.49-.12.49h.25Z" fill="#F3FFFF"/></svg>