<!-- by TradingView --><svg width="56" height="56" viewBox="0 0 56 56" xmlns="http://www.w3.org/2000/svg"><path fill="#F0F3FA" d="M0 0h56v56H0z"/><path d="M29 29.05V29H6v5h22.6a4.22 4.22 0 0 1-.6-2.21c0-1.1.39-2.08 1-2.74Z" fill="#A3D3CE"/><path d="m21.37 29.05-.59 2.73c-.03.14-.1.21-.24.22h-.96c-.15.01-.24-.06-.27-.21l-.58-2.83-.98-4.75c0-.05 0-.1.04-.14a.15.15 0 0 1 .12-.06h1c.13 0 .2.07.23.2l.76 4.53c.12.69.23.69.34 0l.75-4.57c.02-.11.09-.17.2-.17h.97c.06 0 .1.03.14.08.04.05.05.1.04.17l-.97 4.8Z" fill="#272827"/><path d="M26.7 24.96c.37.28.6.61.72 1 .02.1.02.2-.02.3l-.1.22a1.84 1.84 0 0 1-.6-1.52Z" fill="#BDC480"/><path d="M7.29 29.2h-.84a.28.28 0 0 0-.28.28C6.27 31.43 7.28 32 8.21 32c.98 0 1.92-.8 1.92-2.55 0-1.75-1.02-2.49-1.78-2.74-.62-.2-.77-.64-.77-.83a.54.54 0 0 1 .54-.46c.3 0 .52.42.64.78.05.14.2.24.35.21l.68-.13A.27.27 0 0 0 10 26c-.13-1.64-1.27-2.02-1.85-2-.6-.01-1.8.4-1.8 2.14 0 2.05 1.3 2.36 1.99 2.7.68.33.6 1.64-.1 1.64-.44 0-.61-.56-.66-1a.32.32 0 0 0-.3-.28ZM11 24.2c0-.11.08-.2.19-.2h.92c.1 0 .19.09.19.2v2.58c0 .11.08.22.18.22h1.04c.1 0 .18-.11.18-.22V24.2c0-.11.09-.2.19-.2h.92c.1 0 .19.09.19.2v7.6c0 .11-.08.2-.19.2h-.92c-.1 0-.19-.09-.19-.2V28.9c0-.11-.08-.2-.18-.2h-1.04c-.1 0-.18.09-.18.2v2.91c0 .11-.09.2-.19.2h-.92c-.1 0-.19-.09-.19-.2v-7.6ZM16 24.2c0-.11.09-.2.2-.2h.96c.1 0 .19.09.19.2v7.6c0 .11-.09.2-.2.2h-.96a.2.2 0 0 1-.19-.2v-7.6Z" fill="#272827"/><path fill-rule="evenodd" d="M23.58 24.22 23 26.95l-.97 4.8a.2.2 0 0 0 .04.17c.04.05.09.07.15.07l.96.01c.12 0 .18-.06.2-.17l.22-1.33h1.42l.21 1.28c.03.14.1.2.23.2l1 .01c.05 0 .1-.02.13-.06a.16.16 0 0 0 .03-.14l-.98-4.75-.58-2.83c-.03-.15-.12-.22-.27-.2h-.95c-.14 0-.22.07-.25.2Zm1.07 4.15-.19-1.1c-.11-.7-.23-.7-.34 0l-.18 1.1h.7Z" fill="#272827"/><path d="m35.65 18.2-2.16-.87a.11.11 0 0 0-.13.02.18.18 0 0 0-.04.07c-.01.06 0 .12.04.17.1.1.2.2.31.28.12.07.15.18.1.3a.82.82 0 0 1-.15.24.33.33 0 0 0-.08.33l.18.57c.03.11 0 .2-.08.29l-.52.54c-.1.1-.18.09-.27-.01a.62.62 0 0 0-.35-.21c-.1-.03-.2 0-.3.06-.27.22-.5.47-.7.77-.05.1-.05.2.03.28.08.09.17.1.28.06.18-.07.3-.2.36-.41a.1.1 0 0 1 .07-.07.12.12 0 0 1 .1 0l.08.04c.05.03.07.07.08.12 0 .23-.1.4-.3.52-.14.07-.36.14-.67.21l-.3.07c-.13.05-.21.01-.23-.1a1.26 1.26 0 0 1-.02-.2c0-.16-.08-.22-.24-.18a.95.95 0 0 0-.33.13c-.07.05-.1.11-.1.2a.2.2 0 0 0 .14.17c.2.06.29.2.29.42-.04.16-.2.26-.5.32-.28.05-.38.27-.3.65-.06.13-.07.22-.02.27l-.26.18-.48.38a1.3 1.3 0 0 0-.33.5c-.22.63-.06 1.2.48 1.73a.26.26 0 0 1-.2.15c-.56.1-1.1.28-1.61.52a.1.1 0 0 1-.11 0c-.1-.07-.13-.05-.08.04a.7.7 0 0 1-.22-.36l.09-.23c.04-.1.05-.19.02-.28-.11-.4-.36-.72-.73-1a6.8 6.8 0 0 1-.49-2.46c0-.92.25-1.72.73-2.39l1.46.04c.12 0 .2-.04.25-.14l.47-.86c.05-.08.03-.15-.04-.2a.3.3 0 0 0-.26-.05c-.14.04-.18 0-.11-.13a.8.8 0 0 1 .66-.41c.1-.01.17.03.2.12.03.12.11.16.24.13.1-.02.2-.08.27-.16.4-.4.79-.83 1.17-1.27 1.78-.3 3.32.07 4.6 1.1Z" fill="#0352AA"/><path d="M31.04 17.1c-.38.44-.77.87-1.17 1.27a.56.56 0 0 1-.27.16c-.13.03-.2 0-.24-.13-.03-.1-.1-.13-.2-.12a.8.8 0 0 0-.66.41c-.07.13-.03.17.1.13a.3.3 0 0 1 .27.04c.07.06.09.13.04.2l-.47.87a.26.26 0 0 1-.25.14l-1.46-.04c.18-.4.42-.76.73-1.06l.97-.85a4.3 4.3 0 0 1 2.6-1.02Z" fill="#BDC480"/><path d="M35.65 18.2c.52.31.94.7 1.26 1.14.57.81.9 1.68 1 2.61a.8.8 0 0 0-.61.58 3 3 0 0 0-.03.9l.02.18c.03.52-.08.55-.33.08-.3-.53-.72-.64-1.29-.32l-.7-.1c-.09 0-.13.03-.13.11v.12c0 .05.02.08.07.1.27.06.53.04.79-.05.26.24.12.67-.41 1.27-.28.12-.5.13-.69.02l-.86-1.02a.38.38 0 0 1-.1-.27l.01-.26c0-.11-.05-.18-.17-.19a2.47 2.47 0 0 1-1.41-.6.46.46 0 0 0-.27-.1c-.6-.04-1.06.16-1.41.6a.26.26 0 0 1-.26.1.33.33 0 0 1-.2-.12c-.07-.38.03-.6.31-.65.3-.06.46-.16.5-.32a.92.92 0 0 1 .5-.44l.3-.07c.3-.07.52-.14.65-.2.22-.13.32-.3.3-.53 0-.05-.02-.1-.07-.12l-.08-.04a.12.12 0 0 0-.1 0 .1.1 0 0 0-.07.07.62.62 0 0 1-.36.41c-.1.05-.2.03-.28-.06-.08-.09-.08-.18-.02-.28.19-.3.42-.55.7-.77a.34.34 0 0 1 .29-.06c.15.03.26.1.35.2.09.11.18.11.27.02l.52-.54c.09-.08.1-.18.08-.29l-.18-.57a.33.33 0 0 1 .08-.33.82.82 0 0 0 .15-.24c.05-.12.02-.23-.1-.3a1.57 1.57 0 0 1-.3-.28.18.18 0 0 1-.05-.17l.04-.07a.11.11 0 0 1 .13-.02l2.16.87Z" fill="#F4DD72"/><path d="M31.18 18.15c.03-.02.05-.01.07 0v.03c.12.14.13.31.05.53-.08.21-.23.4-.46.57l-.3.22c-.23.17-.46.26-.7.28-.24.02-.41-.04-.52-.18l-.02-.02c-.02-.03-.01-.05.01-.06l1.87-1.37Z" fill="#fff"/><path d="M31.23 21.57a.92.92 0 0 0-.5.44c0-.22-.09-.36-.28-.42a.2.2 0 0 1-.14-.17c0-.09.03-.15.1-.2.1-.06.21-.1.33-.13.16-.04.24.02.24.18 0 .07 0 .14.02.2.02.11.1.15.23.1ZM34.72 22.63a.97.97 0 0 1-.5-.66c-.03-.09 0-.16.08-.2a.16.16 0 0 1 .13-.02c.05.02.09.04.1.09l.36.62c.14.24.08.3-.17.17Z" fill="#A3D3CE"/><path d="M37.9 21.95c.15.94.1 1.83-.13 2.68-.03.14.02.2.17.2.31-.03.66-.04 1.03-.03.02 0 .03.01.03.03v.03l-.02.02c-.37.12-.75.17-1.14.16-.11 0-.19.05-.23.15-.4.91-.97 1.69-1.7 2.32-.71.61-1.5 1.04-2.39 1.28-.9.25-1.8.28-2.7.08a6.2 6.2 0 0 1-2.66-1.3c.92-.43 1.85-.8 2.78-1.08.05-.07.14-.07.26-.01.04.27.15.53.33.76.07.08.1.18.12.3l.04.44c.02.23.13.42.33.56.2.14.42.19.66.14a2.42 2.42 0 0 0 1.56-1.05c.09-.13.16-.33.2-.6.05-.3.14-.52.27-.65.29-.3.52-.61.69-.93.69-.1 1.28-.24 1.77-.42.12-.05.17-.13.14-.25-.02-.1-.1-.14-.2-.12-.64.16-1.24.22-1.82.16.53-.6.67-1.03.4-1.27-.04 0-.05-.06-.02-.18.57-.32 1-.21 1.29.32.25.47.36.44.33-.08l-.02-.18a3 3 0 0 1 .03-.9.8.8 0 0 1 .6-.58Z" fill="#0352AA"/><path d="M33.01 22.68c-.05 0-.08-.02-.1-.07l-.01-.16c-.01-.09.02-.17.1-.24a.54.54 0 0 1 .3-.13l.13-.01c.13-.02.24 0 .33.05.1.05.15.12.16.21l.02.16c0 .05-.02.09-.08.1l-.85.1ZM34.6 24.84h-.34a3.43 3.43 0 0 1-.7-.92.41.41 0 0 0-.29-.22 2.6 2.6 0 0 0-1.23.08.31.31 0 0 1-.26-.04.3.3 0 0 1-.15-.2c-.04-.22-.2-.31-.46-.3-.43.04-.84.04-1.25.01-.05-.05-.04-.14.02-.27.05.07.12.1.2.12.1.02.19-.02.25-.1.35-.44.82-.64 1.4-.6.11 0 .2.04.28.1.39.34.86.54 1.4.6.13.01.18.08.18.2v.25c-.01.1.02.19.09.27l.86 1.02Z" fill="#226884"/><path d="M34.26 24.85c.04.04.05.08.04.13a.1.1 0 0 1-.1.09l-4.87.97c-.54-.52-.7-1.1-.48-1.73.06-.18.17-.34.33-.5a4.68 4.68 0 0 1 .74-.56c.4.03.82.03 1.25 0 .27-.02.42.07.46.28.02.1.07.16.15.21.08.05.17.06.26.04a2.6 2.6 0 0 1 1.23-.08c.14.03.23.1.3.22.18.35.41.66.7.93Z" fill="#F4DD72"/><path d="M35.67 23.37c-.03.12-.02.17.03.18-.26.1-.52.1-.79.04-.05 0-.08-.04-.07-.1v-.1c0-.09.04-.12.12-.11l.71.1Z" fill="#A3D3CE"/><path d="M35.4 25.45c-.17.32-.4.63-.69.93-.13.13-.22.35-.27.66-.04.26-.11.46-.2.59-.4.58-.93.93-1.56 1.05a.82.82 0 0 1-.66-.14.76.76 0 0 1-.33-.56l-.04-.44a.56.56 0 0 0-.12-.3 1.5 1.5 0 0 1-.33-.76c0-.05.03-.1.05-.13a.23.23 0 0 1 .11-.07c1.3-.4 2.64-.67 4.04-.83Z" fill="#F6C94C"/><path d="M34.77 27.47a.56.56 0 0 1 .22-.07c.1-.01.13.03.08.1a1 1 0 0 1-.23.28c-.15.12-.23.1-.22-.1l.02-.2h.13Z" fill="#A3D3CE"/><path d="M35.19 25.53c-4.38.56-7.77 2.83-11.45 5.07-.22.14-.49.38-.8.72-.24.28-.53.5-.86.68-.16-1.02-.07-1.78.25-2.27.1-.05.18-.08.24-.09l.26-.04c4.7-3.69 8.75-4.53 14.01-4.92.1-.03 2.14.12 2.16.24l-3.81.61Z" fill="#D0262A"/><path fill-rule="evenodd" d="M43 29h.7v.5H43V29Zm0 1h.7v4H43v-4Zm-11 3.35c-.32.4-.77.65-1.27.65-.96 0-1.73-.9-1.73-2s.77-2 1.73-2c.5 0 .95.25 1.27.65V30h.7v3.8c0 .61-.82 1.2-1.94 1.2-.9 0-1.48-.47-1.66-.7l.58-.3c.1.2.47.5 1.08.5.98 0 1.24-.62 1.24-.9v-.25Zm0-.71c-.2.46-.61.77-1.09.77-.67 0-1.22-.63-1.22-1.41 0-.78.55-1.41 1.22-1.41.48 0 .89.31 1.09.77v1.28ZM39.7 30H39v4h.7v-2.95c.21-.26.54-.5.96-.5.67 0 .65.42.64.64V34h.7v-2.8c0-.66-.5-1.2-1.24-1.2-.4 0-.8.23-1.06.45V30Zm-5.7.42c.25-.2.61-.42 1-.42v.54h-.1c-.39 0-.7.22-.9.47V34h-.7v-4h.7v.42Zm1.1.33.44.4c.1-.21.44-.63 1.03-.63.73 0 .73.55.73.79v.28c-.23.1-.55.19-.87.2-.65.05-1.43.37-1.43 1.17 0 .33.23 1 1.13 1 .54 0 .94-.17 1.2-.35.08.14.28.33.4.39h.45v-.24c-.08-.03-.18-.17-.18-.41V31c0-.39-.51-1.01-1.43-1.01-.91 0-1.36.5-1.46.75Zm2.2 2.4V32c-.31.13-.73.28-1.1.34-.65.11-.65.46-.65.62 0 .15.23.54.69.54.45 0 .82-.17 1.06-.35ZM45 30.5v2.9c0 .33.26.6.58.6h.77v-.5h-.39c-.16 0-.26-.24-.26-.4v-2.6h.8V30h-.8v-1H45v1h-.5v.5h.5Zm5 1.5c0 1.1-.59 2-1.85 2-1.26 0-1.85-.9-1.85-2s.64-2 1.85-2 1.85.9 1.85 2Zm-.7 0c0 .83-.37 1.5-1.15 1.5-.79 0-1.15-.67-1.15-1.5s.4-1.5 1.15-1.5c.75 0 1.15.67 1.15 1.5Z" fill="#272827"/></svg>