<!-- by TradingView --><svg width="56" height="56" viewBox="0 0 56 56" xmlns="http://www.w3.org/2000/svg"><path fill="#FFEE02" d="M0 0h56v56H0z"/><path d="M15.94 15.08c2.2 2.04 7.17 5.75 9.49 4.32 2.16-1.34 2.13-5.6 1.79-7.95.47 2.7 1.9 7.38 4.46 7.5 2.66.13 5.87-4.1 7.25-6.4-1.6 2.74-3.89 8.12-.83 9.05 2.74.83 6-.85 7.79-2.14-2.19 1.74-5.48 4.78-5.06 6.14.47 1.5 4 2.28 5.71 2.48-2.06.2-6.23 1.05-6.42 2.99-.2 1.93 3.95 4.78 6.05 5.97-2.57-1.05-8.05-2.92-9.42-2.09-1.7 1.04-1.7 4.22 0 8.49-1.04-2.01-3.82-6.1-6.59-6.4-2.77-.3-4.57 5.18-5.12 7.96.44-2.62.73-8.03-1.61-8.67-2.34-.65-7.32 2.98-9.52 4.88 2.17-2 6.23-6.53 5.18-8.58-1.06-2.05-7.15-.6-10.06.38 3.16-1.28 9.49-4.1 9.57-5.17.08-1.06-6.6-3.6-9.96-4.74 3.2.59 9.87 1.4 10.88 0 1.27-1.75-1.16-5.67-3.58-8.02Z" fill="#FFC00D"/><path d="m27 11.05.3-.05.07.46c.23 1.34.7 3.16 1.43 4.66.36.75.79 1.42 1.27 1.9.49.47 1.02.77 1.62.8.62.02 1.29-.2 1.97-.6.68-.41 1.37-1 2.02-1.65a23.23 23.23 0 0 0 3.22-4.24l.26.16-.1.16a19.08 19.08 0 0 0-2.15 5.15c-.19.9-.23 1.7-.05 2.35.18.63.58 1.1 1.29 1.32 1.33.4 2.8.2 4.16-.28a14 14 0 0 0 4.14-2.35l.19.24a31.86 31.86 0 0 0-4.15 3.7 9.4 9.4 0 0 0-1.22 1.6c-.28.5-.38.9-.3 1.17.1.33.39.64.8.92.4.27.93.51 1.5.71 1.14.4 2.44.65 3.29.75v.3c-1.03.1-2.57.35-3.88.83-.65.23-1.24.52-1.67.86-.44.34-.7.73-.74 1.15-.05.43.15.94.54 1.48.38.55.94 1.11 1.57 1.66 1.27 1.09 2.82 2.1 3.86 2.68l-.13.27a46.86 46.86 0 0 0-5.14-1.74c-.93-.24-1.81-.43-2.55-.5-.37-.04-.7-.05-.96-.02-.28.02-.49.08-.63.17-.79.48-1.21 1.47-1.21 2.9s.42 3.26 1.27 5.38l-.27.13c-.52-1-1.47-2.5-2.63-3.8-1.16-1.3-2.52-2.37-3.84-2.51-.64-.07-1.23.19-1.78.69a7.32 7.32 0 0 0-1.47 2.05A20.85 20.85 0 0 0 25.2 45l-.3-.05c.22-1.3.4-3.3.24-5.04a7.18 7.18 0 0 0-.54-2.28c-.28-.61-.67-1.03-1.2-1.17a3.73 3.73 0 0 0-2.08.22c-.82.27-1.72.72-2.62 1.25a34.33 34.33 0 0 0-4.68 3.37l-.2-.22c1.08-1 2.63-2.62 3.77-4.25.58-.81 1.04-1.62 1.3-2.34.27-.73.3-1.35.07-1.8-.23-.45-.75-.73-1.5-.86a9.71 9.71 0 0 0-2.68 0c-2 .22-4.24.82-5.69 1.31l-.1-.28a87.85 87.85 0 0 0 5.92-2.66c1-.5 1.88-.98 2.53-1.41.32-.21.58-.41.76-.58l.2-.23a.34.34 0 0 0 .06-.15c0-.03 0-.07-.04-.13l-.18-.21a4.58 4.58 0 0 0-.76-.55c-.66-.4-1.59-.85-2.62-1.3a85.79 85.79 0 0 0-6.26-2.39l.08-.29c1.6.3 4.06.64 6.24.74 1.1.05 2.11.04 2.92-.07.4-.05.74-.13 1.01-.23.28-.11.46-.24.56-.38.29-.4.38-.92.3-1.55a6.8 6.8 0 0 0-.72-2.07 16.8 16.8 0 0 0-3.15-4.2l.21-.21a26.07 26.07 0 0 0 4.67 3.43c.9.5 1.8.89 2.6 1.06.8.18 1.5.13 2.04-.2 1.02-.63 1.55-1.97 1.76-3.48a15.97 15.97 0 0 0-.11-4.75Zm.54 2.51c.01.74-.02 1.53-.13 2.28-.22 1.53-.76 3-1.9 3.7-.63.39-1.42.42-2.27.23-.84-.18-1.76-.58-2.67-1.08a23.9 23.9 0 0 1-3.02-2.04c.66.84 1.26 1.74 1.7 2.61.38.75.65 1.5.74 2.17.09.67 0 1.29-.34 1.77-.15.2-.4.36-.7.48-.3.11-.67.2-1.08.25-.83.11-1.87.12-2.97.07a48 48 0 0 1-4.6-.47 79.6 79.6 0 0 1 4.67 1.84c1.04.45 1.98.9 2.65 1.32.34.2.62.4.81.58.1.1.18.19.23.28.06.1.1.2.09.3-.01.1-.05.2-.11.3a5.74 5.74 0 0 1-1.04.9c-.66.43-1.57.92-2.56 1.42a77.13 77.13 0 0 1-3.6 1.67c1.06-.26 2.21-.49 3.3-.61a10 10 0 0 1 2.77 0c.78.14 1.41.45 1.7 1.02.3.57.23 1.28-.04 2.04-.28.76-.76 1.6-1.34 2.41-.61.87-1.33 1.73-2.03 2.5a31.6 31.6 0 0 1 2.74-1.83c.91-.54 1.83-1 2.67-1.28.84-.28 1.63-.4 2.26-.22.64.17 1.1.67 1.4 1.33.3.66.47 1.5.56 2.39.08.94.07 1.96.01 2.9.3-1 .7-2.07 1.2-3.02a7.6 7.6 0 0 1 1.53-2.14 2.55 2.55 0 0 1 2-.76c1.45.16 2.87 1.3 4.05 2.6.7.8 1.32 1.65 1.82 2.43a13.2 13.2 0 0 1-.72-3.93c0-1.48.43-2.6 1.35-3.16.2-.12.46-.18.76-.21s.64-.02 1.02.02c.76.07 1.66.26 2.6.51 1.23.33 2.53.76 3.64 1.16a23.86 23.86 0 0 1-2.5-1.86 10.07 10.07 0 0 1-1.63-1.7c-.4-.57-.65-1.15-.6-1.69.06-.53.4-.98.86-1.35a6.4 6.4 0 0 1 1.76-.91 16 16 0 0 1 2.88-.71c-.71-.14-1.53-.34-2.29-.6a7.04 7.04 0 0 1-1.57-.76c-.44-.3-.78-.65-.91-1.07-.13-.4.03-.9.31-1.4.3-.51.74-1.08 1.27-1.66a26.5 26.5 0 0 1 1.94-1.9c-.56.3-1.17.57-1.8.8-1.4.48-2.94.7-4.35.27a2.1 2.1 0 0 1-1.49-1.52c-.2-.7-.15-1.58.05-2.5.21-.98.6-2.04 1.04-3.02-.53.7-1.13 1.42-1.77 2.07-.66.67-1.36 1.27-2.07 1.69a3.9 3.9 0 0 1-2.15.64 2.77 2.77 0 0 1-1.81-.88 7.2 7.2 0 0 1-1.33-1.98c-.41-.84-.74-1.79-1-2.69Z" fill="#C07C00"/><path d="M19.1 18.63c1.68 1.5 5.47 4.25 7.24 3.19 1.65-1 1.62-4.14 1.36-5.87.36 2 1.44 5.45 3.4 5.54 2.03.1 4.48-3.04 5.53-4.73-1.23 2.02-2.96 6-.63 6.69 2.09.6 4.58-.63 5.93-1.59-1.66 1.3-4.17 3.54-3.85 4.54.36 1.1 3.05 1.68 4.35 1.83-1.57.14-4.75.78-4.9 2.2-.14 1.44 3.02 3.54 4.62 4.42-1.96-.77-6.14-2.16-7.18-1.54-1.3.77-1.3 3.12 0 6.27-.8-1.49-2.91-4.5-5.02-4.73-2.12-.22-3.49 3.83-3.91 5.88.33-1.94.56-5.93-1.23-6.4-1.78-.48-5.58 2.2-7.25 3.6 1.65-1.48 4.75-4.82 3.94-6.34-.8-1.5-4.7-1.15-6.92-.43 2.4-.94 6.49-2.32 6.55-3.1.06-.79-5.03-2.66-7.59-3.5 2.44.43 7.52 1.03 8.3 0 .96-1.3-.9-4.2-2.74-5.93Z" fill="#FBFFF1"/><path d="m27.4 15.65.5-.08.05.34c.18.98.53 2.32 1.08 3.41.27.55.58 1.02.94 1.37.35.33.73.53 1.14.55.45.02.93-.14 1.44-.43.5-.3 1.02-.71 1.5-1.2a17.11 17.11 0 0 0 2.44-3.1l.43.26-.08.12c-.6 1-1.33 2.48-1.62 3.77a3.49 3.49 0 0 0-.04 1.67c.13.42.4.73.89.88.98.28 2.06.14 3.1-.2a9.45 9.45 0 0 0 2.46-1.14c.18-.13.8-.08.96-.19l-.5.39a23.9 23.9 0 0 0-2.65 2.34c-.39.42-.71.82-.91 1.16-.21.37-.26.61-.21.75.06.2.24.4.55.6.3.2.68.37 1.11.52.86.3 1.84.47 2.48.55v.5c-.78.06-1.94.25-2.93.6-.49.17-.92.38-1.24.62-.31.24-.48.5-.5.75-.03.27.1.6.38 1 .28.39.7.8 1.18 1.2.95.8 2.13 1.54 2.92 1.97l-.21.45c-.98-.38-2.5-.92-3.9-1.28a13.2 13.2 0 0 0-1.93-.37 3.92 3.92 0 0 0-.71-.01c-.2.01-.34.05-.42.1-.55.32-.86 1-.86 2.03 0 1.03.31 2.37.96 3.93l-.45.21c-.4-.72-1.1-1.83-1.98-2.78-.89-.96-1.89-1.71-2.85-1.81-.44-.05-.85.12-1.25.47-.4.36-.77.88-1.1 1.48a14.98 14.98 0 0 0-1.29 3.73l-.49-.1c.17-.95.3-2.4.18-3.68a5.05 5.05 0 0 0-.4-1.64c-.2-.43-.47-.7-.82-.8a2.8 2.8 0 0 0-1.51.17c-.61.2-1.29.52-1.97.91a26.03 26.03 0 0 0-3.55 2.48l-.33-.38c.82-.73 2-1.92 2.86-3.11.43-.6.78-1.19.97-1.7.2-.53.21-.94.06-1.22-.16-.3-.48-.53-.96-.69a5.9 5.9 0 0 0-1.75-.23c-1.32 0-2.82.26-3.91.61l-.17-.47 1.43-.55c.9-.34 1.87-.7 2.72-1.06.66-.28 1.24-.55 1.65-.8.21-.12.37-.23.47-.33a.64.64 0 0 0 .12-.14l-.01-.02a.65.65 0 0 0-.11-.13c-.12-.11-.31-.24-.56-.39-.5-.29-1.2-.62-1.98-.95a66.54 66.54 0 0 0-4.76-1.77l.12-.48c1.22.21 3.09.47 4.75.55.83.03 1.6.03 2.2-.05.3-.04.55-.1.74-.17a.8.8 0 0 0 .37-.23c.18-.26.25-.6.19-1.05a4.79 4.79 0 0 0-.53-1.49 12.33 12.33 0 0 0-2.37-3.06l.34-.37c.83.75 2.18 1.8 3.53 2.53.68.36 1.35.64 1.95.77.6.12 1.1.08 1.46-.13.72-.44 1.11-1.38 1.28-2.48a11.33 11.33 0 0 0-.09-3.48Zm.67 2.67c-.02.3-.05.6-.09.88-.17 1.14-.59 2.28-1.52 2.83a2.5 2.5 0 0 1-1.82.2 8.02 8.02 0 0 1-2.07-.82c-.54-.3-1.07-.63-1.57-.97.28.4.54.8.75 1.2.29.57.5 1.13.57 1.65.08.52.01 1.02-.28 1.42-.14.18-.36.3-.6.4-.24.09-.53.15-.85.2-.64.08-1.45.08-2.29.05-.73-.04-1.5-.1-2.24-.19.79.3 1.6.61 2.35.93.8.33 1.52.67 2.04.98.27.15.49.3.64.45.08.08.15.15.2.24.06.08.1.19.09.3-.02.2-.15.36-.28.49-.14.13-.33.26-.55.4-.45.26-1.05.54-1.72.82-.44.19-.91.37-1.39.56.38-.03.76-.05 1.13-.05.7 0 1.35.08 1.9.26.55.18 1 .47 1.25.93.25.47.18 1.05-.03 1.62-.21.58-.6 1.2-1.04 1.82-.24.34-.5.67-.78 1 .37-.25.76-.5 1.15-.71.7-.4 1.4-.74 2.06-.96.65-.2 1.28-.3 1.8-.17.54.15.9.56 1.15 1.07.24.5.38 1.14.44 1.8.04.41.05.83.05 1.25.18-.47.39-.94.62-1.38.33-.64.73-1.21 1.2-1.62a2.11 2.11 0 0 1 1.63-.6c1.16.12 2.27 1 3.17 1.97.33.36.64.75.92 1.12a8.5 8.5 0 0 1-.32-2.14c0-1.12.34-2 1.1-2.46.18-.1.4-.15.63-.17.24-.02.51-.02.8.01.6.06 1.29.2 2 .39.6.15 1.21.33 1.8.52-.36-.25-.71-.52-1.05-.8-.49-.41-.94-.85-1.25-1.29-.32-.42-.53-.89-.48-1.34.04-.45.33-.81.7-1.1.37-.28.86-.51 1.38-.7.48-.16 1-.3 1.5-.4-.35-.08-.7-.18-1.05-.3a5.57 5.57 0 0 1-1.23-.57c-.34-.23-.63-.5-.75-.87-.11-.36.03-.77.25-1.15.23-.4.58-.82.99-1.25.25-.27.52-.54.8-.8l-.56.2a5.71 5.71 0 0 1-3.4.22 1.71 1.71 0 0 1-1.22-1.22 3.96 3.96 0 0 1 .04-1.92c.1-.45.25-.92.42-1.39-.24.28-.5.55-.75.81-.51.5-1.06.95-1.61 1.27-.56.32-1.14.52-1.7.5a2.27 2.27 0 0 1-1.48-.7c-.4-.39-.75-.92-1.04-1.5-.2-.38-.37-.8-.51-1.22Z" fill="#FCE827"/><path d="M8 33.05c-.06.52.97.32 1.5.15.96 0 2.46 0 2.33-.41-.11-.34-.57-.44-.83-.44V30.7h.83c0-.6-.29-1.67-.43-2.13v-1.64a3.74 3.74 0 0 0 1.87-1.81c.3.1 1.04.31 1.66.33.62.02.8-.44.8-.67v-1.56c.06-1.12-.31-1.2-.44-1.35-.58 0-.56.59-.55 1.12v1.48l-1.68-.7.21-.32c1.36 0 .88-.85.88-1.24 0-.31.52-.67.78-.8-.06-.48-.5-1.43-1.87-1.49-1.71-.08-2.36.83-2.36 1.85 0 .8.65 1.46.97 1.68.06.27-.35.32-.57.32-.72-.06-1.04 0-2.3.46-1 .38-.41 1.37 0 1.82v.57c-.9.5-.55 1.66-.26 2.18v1.9l.47.37.3 1.27-1.3.7Z"/><path d="M12.27 20.88c.69-.39 2.15-.85 2.46.4a3.47 3.47 0 0 0-2.46-.4ZM11.2 26.86c1.31-.63 1.72-1.63 1.75-2.05-.27.21-1.14-.1-1.48-.22v-.4c.33.26 1.37.07 1.37.07v-.37H11.8c-.24-.14-.72-.26-.7.37.01.64-.53 1.38-.8 1.68-.2-.01-.65-.02-.9 0-.26.01-.26.62-.23.92-.41 0-.7 2.22-.16 2.64.54.42 2.52.44 2.2-.72a3.24 3.24 0 0 1 0-1.92Z" fill="#fff"/><path d="M10.76 31.04H9.35l.23 1.28-.75.55h1.93v-1.83ZM11 26.09c-.47-.08-1.42-.13-1.42.33 0 .57 1.42.7 1.42-.33ZM14.55 22.3l.29.5h.8l.07-.66c.04-.09.1-.27 0-.33s-.2.02-.23.07c.02-.08.02-.23-.12-.23-.13 0-.22.15-.24.23.01-.1-.02-.3-.28-.23-.26.07-.11.35 0 .49l-.29.16ZM13.17 21.18c-.38-.1-.99.27-1.25.47a.68.68 0 0 0 0 .65c.17.14-.01.4-.12.5l-.09 1.04h.68c.08-.06.31-.19.6-.32.37-.17.66-.56.82-.71.12-.13.33-.83.41-1.16-.2-.12-.68-.38-1.05-.47Z" fill="#DDC8C3"/><path d="M12.43 22.59c.08.09.35.27.72.29-.24.19-.72.4-.72-.3ZM13.93 22.07c-.17.01-.5.08-.48.21.03.18.34.12.48-.21Z"/><path d="M12.84 21.64c-.1 0-.21.02-.27.04l-.02-.07c.06-.02.17-.04.29-.05.11 0 .24 0 .33.06l-.04.06a.56.56 0 0 0-.29-.04Zm1.05.18h-.2l-.01-.07h.21c.09 0 .18.02.23.07l-.04.05a.39.39 0 0 0-.2-.05Zm-1.12.05c.13-.01.29.01.39.03l.04.01-.02.04a.42.42 0 0 1-.14.16.71.71 0 0 1-.2.1.36.36 0 0 1-.2 0 .16.16 0 0 1-.09-.04.17.17 0 0 1-.03-.1c0-.07.03-.12.07-.15a.4.4 0 0 1 .18-.05Zm-.13.11a.08.08 0 0 0-.05.09l.02.05.04.03h.16a.64.64 0 0 0 .19-.1.42.42 0 0 0 .1-.09c-.1-.01-.22-.03-.32-.02-.06.01-.11.02-.14.04Zm1.34.05-.02.05a.54.54 0 0 1-.3.32.23.23 0 0 1-.16 0 .14.14 0 0 1-.09-.11c0-.05.02-.1.06-.12a.44.44 0 0 1 .13-.07c.1-.04.24-.06.32-.07h.06Zm-.47.2c-.02.01-.03.03-.02.05 0 .03.02.05.04.06h.1c.08-.03.17-.1.24-.23l-.24.05a.37.37 0 0 0-.12.06Zm-1.12.27.06.06c.08.09.34.27.7.28h.1l-.08.07c-.06.05-.14.1-.22.13a.55.55 0 0 1-.25.06.27.27 0 0 1-.23-.13.7.7 0 0 1-.08-.38v-.1Zm.08.17c0 .13.03.2.07.26.04.07.1.1.16.1.07 0 .14-.02.22-.05a.96.96 0 0 0 .13-.07 1.2 1.2 0 0 1-.58-.24Z"/><path d="M10.38 26.84H10V33H9v1h2v-1h-.62v-6.16Z" fill="#996A40"/><ellipse cx="12.74" cy="22.04" rx=".15" ry=".14" fill="#fff"/><ellipse cx="13.55" cy="22.24" rx=".15" ry=".14" fill="#fff"/><path d="M12.52 22.77c.07.04.25.12.42.14-.12.08-.37.16-.42-.14Z" fill="#fff"/><path fill="#FE0103" d="M16 22h4v11h-4zM24 22h4v11h-4z"/><path d="M17.24 29v-3h9v3h-9ZM29 22h4v11h-4zM34 27.47c-.05-2.9 2-5.74 5.18-5.74h2.66c2.67 0 4.6 1.81 5.16 4.27h-4.05a2.5 2.5 0 0 0-4.95.5v2a2.5 2.5 0 0 0 4.95.5h4.03a5.21 5.21 0 0 1-5.14 4.2h-2.66c-3.18 0-5.13-2.84-5.18-5.73Z" fill="#FE0103"/></svg>