<!-- by TradingView --><svg width="56" height="56" viewBox="0 0 56 56" xmlns="http://www.w3.org/2000/svg"><path fill="#F0F3FA" d="M0 0h56v56H0z"/><path d="M29.95 20.18c-.07-.07-.12-.25-.12-.55a1.84 1.84 0 0 0-1.1-1.74c-.66-.33-1.24-.31-1.74.03-.6.41-.92 1.1-1 2.06a61.8 61.8 0 0 1-.72-5.1c-.05-.49.02-1.05.06-1.38.13-.83.54-1.5 1.23-2.01 1.33-.98 2.92-.41 3.7 1.04.39.72.52 1.53.42 2.43a167.7 167.7 0 0 1-.73 5.22ZM33.42 22.55c-.07-.28-.1-.56-.08-.84.01-.25-.17-.53-.56-.81a1.56 1.56 0 0 0-2 .09c-.51.5-.6.92-.83 1.57l-.02.03-.05.02v-.01c0-.06-.02-.12-.04-.18l.1-.53 1.13-5.3c.2-.9.46-1.62.74-2.16.92-1.75 3.44-1.43 4.04.34.1.29.14.6.15.94a9.95 9.95 0 0 1-1.16 4.2c-.56 1.1-1.04 1.99-1.42 2.64ZM26.16 22.75c.11.13.18.11.19-.05.01-.2.04-.2.09-.01.1.44.16.91.17 1.41.02.07 0 .15-.03.23-.08.03-.16 0-.24-.06a.25.25 0 0 1-.08-.16 9.58 9.58 0 0 0-.58-2.31c-.42-1.08-1.18-1.44-2.26-1.09-.58.19-.88.73-.92 1.63a18.56 18.56 0 0 1-2.4-5.2c-.05-.22-.1-.51-.14-.88-.15-1.63.53-2.78 2.15-2.98.38-.05.77.01 1.16.18.9.38 1.54 1.96 1.72 2.83.34 1.68.73 3.83 1.17 6.46ZM22.66 23.12a7.94 7.94 0 0 1 1.45 2.22.34.34 0 0 1-.02.32c-.03.05-.09.05-.18.02a.28.28 0 0 1-.13-.1c-.4-.63-.88-1.2-1.45-1.76-.66-.64-1.3-.73-1.94-.26-.42.3-.53.8-.5 1.3 0 .14-.04.16-.12.06a.35.35 0 0 0-.1-.06 40.63 40.63 0 0 0-1.5-1.73c-.48-.51-.9-1.02-1.23-1.52-.39-.57-.95-1.49-.94-2.28 0-.33.08-.63.27-.89.68-.9 1.57-1.1 2.54-.57a4.3 4.3 0 0 1 1.68 1.65 375.6 375.6 0 0 0 2.17 3.6Z" fill="#5E5488"/><path d="M29.95 20.18c-.18 1-.34 2-.48 3.03-.03.2-.15.3-.04.56-.12-.15-.18-.09-.18.18-.13-.5-.37-.83-.73-.97-.97-.37-1.61 0-1.9 1.12-.03-1.5-.3-1.7-.62-4.12.07-.96.4-1.65.99-2.06.5-.34 1.08-.36 1.73-.03.73.36 1.1.94 1.11 1.74 0 .3.05.48.12.55Z" fill="#BEBED6"/><path d="M36.1 25.06c-.06-1.24-.54-1.83-1.42-1.77-.36.03-.67.15-.94.38-.63.54-1.27 1.36-1.7 2-.1.15-.17.13-.2-.06a.85.85 0 0 1 .07-.45c.34-.84.81-1.55 1.42-2.14.66-1.04 1.3-2.09 1.92-3.15.2-.34.54-.77 1.02-1.28a3.11 3.11 0 0 1 1.45-.86c.77-.19 1.44.06 2 .74.2.22.27.51.28.82.02.6-.21 1.27-.44 1.7-.12.23-.56.67-1.06 1.32-.71.95-1.51 1.86-2.4 2.75Z" fill="#5E5488"/><path d="m26.58 24.33.33 2.33a.1.1 0 0 1-.03.09c-.04.04-.08.03-.1-.03-.27-.66-.38-1.5-1.01-1.75-.52-.2-.96-.15-1.32.15-.23.2-.33.46-.28.8.06.5.18.87.36 1.11.49.69.82 1.18 1 1.49.04.05.03.08-.04.09-.14 0-.26-.06-.35-.2-.47-.73-.82-1.35-1.54-1.66-.52-.22-.9-.09-1.14.41-.21.43-.2.82.04 1.18-.12-.12-.24-.2-.36-.26-.66-.73-1.35-1.47-1.89-2.3-.2-.3-.38-.61-.57-.92l.09.06c.08.1.12.08.11-.06-.02-.5.1-1 .5-1.3.64-.47 1.29-.38 1.95.26a10.1 10.1 0 0 1 1.45 1.75c.03.05.07.08.13.1.22.1.27-.18.2-.33-.4-.9-.89-1.63-1.45-2.22.1.01.12-.03.08-.11-.12-.28-.2-.5-.24-.67.04-.9.34-1.44.92-1.63 1.08-.35 1.84.01 2.26 1.09.27.66.46 1.43.58 2.3 0 .07.04.13.08.17.08.07.16.09.24.06ZM33.42 22.55c-.25.31-.28.47-.09.47a5.94 5.94 0 0 0-1.42 2.14.85.85 0 0 0-.07.45c.03.19.1.2.2.05.43-.63 1.07-1.45 1.7-1.99.27-.23.58-.36.94-.38.88-.06 1.36.53 1.42 1.77a10 10 0 0 1-2.24 2.82c-.04.04-.12 0-.12-.05-.08-.87-.54-1.24-1.39-1.1-.21.04-.45.21-.7.5-.21.26-.55.72-1.01 1.38-.05.07-.23-.02-.18-.1l.82-1.32c.26-.4.42-.71.48-.9.11-.44.03-.8-.26-1.1a1.1 1.1 0 0 0-1.02-.33c-.9.13-1.22 1.24-1.32 2.1 0 .03-.13 0-.13-.05.05-1.66.43-2.83.81-4.49l.03.18h.01l.05-.01.02-.03c.23-.65.32-1.08.83-1.57a1.56 1.56 0 0 1 2-.1c.39.3.57.57.56.82-.02.28 0 .56.08.84Z" fill="#BEBED6"/><path d="m29.38 24.62-.13-.67c0-.27.06-.33.18-.18.1-.05.19-.24.24-.6l.06-.02h.07l.02.04v.04a6.67 6.67 0 0 1-.3 1.47c-.04.12-.08.12-.13 0a.2.2 0 0 1 0-.08ZM21.53 27.9a9.37 9.37 0 0 1-.78-.41 2.77 2.77 0 0 0-.79-.36c-1.05-.15-1.53 1.15-.97 1.92.22.3.32.51.32.64a15.61 15.61 0 0 1-3.98-3.6c-.18-.23-.3-.57-.33-1 0-.59.06-.7.28-.96.67-.8 1.45-.63 2.26-.23.23.12.5.32.8.61a42.83 42.83 0 0 1 3.2 3.38ZM36.42 29.96c.12-.27.24-.53.38-.77.2-.35.32-.6.36-.77.08-.44-.08-.8-.48-1.1-.4-.28-.84-.27-1.33.05a.13.13 0 0 1-.1.02c-.08-.02-.12-.07-.1-.16.75-.89 1.55-1.73 2.4-2.5a6 6 0 0 1 1.41-.99c1.1-.53 2.29.33 2 1.63-.21.94-1.25 1.94-1.97 2.54-.8.67-1.66 1.35-2.57 2.05Z" fill="#5E5488"/><path d="M21.53 27.9c.13.18.28.27.45.26a.25.25 0 0 0-.04.08c-.02.06 0 .11.04.16L23 29.46l-1-.16c-.51-.1-.54.84-.45 1.13.14.44.81.99 1.16 1.26.36.28.33.33-.08.16-.39-.17-.64-.47-1.18-.34-.24-.43-.56-.7-.97-.83l-1.17-.99c0-.13-.1-.34-.32-.64-.56-.77-.08-2.07.97-1.92.16.02.42.14.8.36.24.15.5.28.77.4ZM36.42 29.96c-.64.36-1.24.85-1.79 1.47a.2.2 0 0 1-.15.08c-.42.01-.8.13-1.17.33-.02.01-.03 0-.03-.02v-.13l.01-.06a1.01 1.01 0 0 0 1.14-1.82c-.08-.33-.29-.5-.62-.5-.2 0-.42-.03-.64-.07.4-.35.57-.62.52-.81.41-.2.73-.44.95-.7.22-.24.39-.41.5-.5-.01.09.02.14.11.16.03 0 .07 0 .1-.02.5-.32.93-.33 1.33-.05.4.3.56.66.47 1.1-.03.17-.14.42-.35.77-.14.24-.26.5-.38.77Z" fill="#BEBED6"/><path d="M22.14 28.08c.12.05.24.14.36.26l.86 1.1c.18.24.14.3-.12.19a.98.98 0 0 1-.24-.17l-1.02-1.06a.16.16 0 0 1-.04-.16c0-.03.02-.06.04-.08l.16-.08Z" fill="#14145B"/><path d="M20.48 30.68c.41.12.73.4.97.83-.07.02-.12.05-.15.08a1.22 1.22 0 0 1-.48-.19 5.5 5.5 0 0 0-1.24-.77c-.56-.24-1.34-.19-1.33.63 0 .41.35.74.67.99a.1.1 0 0 1 .04.08.1.1 0 0 1-.02.04l-.03.03c-.02 0-.06 0-.13-.03-1.26-.69-2.4-1.3-3.36-2.42-.26-.3-.41-.55-.42-.76 0-1.19 1.62-1.08 2.2-.66l3.03 2.2c.08.06.16.04.25-.05Z" fill="#5E5488"/><path d="M33.69 28.43c.05.2-.12.46-.52.8l-.71.65a.08.08 0 0 1-.12 0l-.05-.05c-.02-.02-.02-.04 0-.06l1.2-1.42a.1.1 0 0 1 .03-.03.1.1 0 0 1 .08 0 .1.1 0 0 1 .04.03l.05.08Z" fill="#14145B"/><path d="M37.09 32.39c.05-.17.14-.34.28-.5.16-.2.25-.37.27-.49a.85.85 0 0 0-.23-.75.24.24 0 0 0-.16-.08l-.96-.08c.92-.78 1.9-1.4 2.81-1.87.33-.18.7-.25 1.11-.23.56.02.8.34.79.73 0 .23-.08.5-.22.74-.1.17-.23.33-.4.48-.91.82-2.06 1.5-3.29 2.05Z" fill="#5E5488"/><path d="m36.29 30.49.96.08c.07 0 .12.03.16.08.2.21.28.47.23.75-.02.12-.1.28-.27.49-.14.16-.23.33-.28.5l-6.04 3.6a.09.09 0 0 1-.12-.03.1.1 0 0 1-.02-.04l-.15-.9.01-.09a.16.16 0 0 1 .07-.07c.59-.34 1.74-1.02 3.44-2.04.28-.16.43-.39.48-.68.02-.15-.05-.3-.07-.45 0-.07.02-.12.07-.16l1.53-1.04ZM21.3 31.6c-.52.67.03 1.07.59 1.38 1.05.58 2.04 1.27 2.95 1.86.22.14.3.33.27.58l-.06.3c-.03.19-.1.28-.2.28a.38.38 0 0 1-.2-.06l-5.87-3.57c.07.03.11.04.13.03l.03-.03a.1.1 0 0 0 .01-.04.1.1 0 0 0-.03-.08c-.32-.25-.67-.57-.67-.99-.01-.82.77-.87 1.33-.63.4.18.82.43 1.24.77.14.1.32.15.48.2Z" fill="#BEBED6"/><path d="m40.61 41.88.22.06c.04 0 .07.02.1.05l.06.09a.24.24 0 0 1-.03.22c-1.07 1.53-4.08.2-5.17-.62a45 45 0 0 0-1.54-1.1c-.74-.52-1.5-.61-2.27-.29-.24.1-.56.32-.98.66-1.21.98-2.28 1.93-3.8.9-.35-.24-.87-.62-1.58-1.17a3.1 3.1 0 0 0-1.68-.7c-.93-.06-1.53.93-2.17 1.46a5.82 5.82 0 0 1-2.51 1.22c-.89.2-1.68.25-2.37.17A3.04 3.04 0 0 1 15 41.9a.07.07 0 0 1 .02-.07l.04-.01a7.57 7.57 0 0 0 5.23-2.98l.6-.77c1.18-1.58 2.66-2.07 4.46-1.04a10.23 10.23 0 0 1 1.44 1 .11.11 0 0 0 .09-.02l.03-.03c.3-.47.72-1.15.42-1.7-.33-.6-.82-.86-1.46-.77-.16.02-.17-.01-.04-.11a8.92 8.92 0 0 0 1.6-1.68v-.07l-.07-.39c-.03-.16.03-.24.19-.25.3-.01.72.02 1.25.1.07 0 .09.05.05.11a.7.7 0 0 0-.07.48c.01.06.04.12.08.17.34.37.54.75.59 1.15a25.62 25.62 0 0 0 .5 2.7l.02.02a.07.07 0 0 0 .07-.02 3.82 3.82 0 0 1 4.46-.42c.3.17.73.56 1.3 1.15.56.59 1.15 1.14 1.78 1.65a9.45 9.45 0 0 0 3.03 1.8Z" fill="#5E5488"/><path d="M30.26 39.43a.18.18 0 0 0 .02-.12l-.14-.41c-.17-.5 0-.91.42-1.2 1.2-.78 2.37-.87 3.51-.27.4.2.94.66 1.63 1.36.86.87 1.69 1.6 2.49 2.18a7.94 7.94 0 0 0 2.3 1.23.1.1 0 0 1 .02.06.11.11 0 0 1-.05.1 2 2 0 0 1-1.23.3 6.5 6.5 0 0 1-3.37-1.3c-1.41-1.06-2.45-2.08-4.1-1.32-.65.3-1.1.78-1.76 1.3-1 .79-1.98.82-2.92.07-1.58-1.24-3.1-2.75-4.81-.92a5.7 5.7 0 0 1-3.01 1.84c-.33.08-.85.15-1.56.22a2.8 2.8 0 0 1-1.9-.46c-.06-.04-.06-.07.02-.09 2.12-.39 3.75-1.65 5.06-3.4.5-.67.9-1.11 1.21-1.32.97-.65 1.99-.65 3.06 0 .56.35.98.63 1.27.87.5.4 0 .8-.26 1.17-.03.04-.03.07.02.1l.05.02c.08.04.14.03.18-.03.55-.7.98-1.5 1.27-2.42.05-.13.07-.28.07-.44 0-.48-.63-1.08-.97-1.3a.12.12 0 0 1-.05-.09.13.13 0 0 1 .01-.09c.4-.62.69-1.07 1.52-.99.6.06.77.38.88 1.02l.6 3.45c.07.34.2.64.4.9.04.05.08.05.12-.02Z" fill="#14145B"/><path d="M28.1 35.09a.3.3 0 0 0 .28-.3.3.3 0 0 0-.28-.3.3.3 0 0 0-.29.3c0 .16.13.3.29.3Z" fill="#BEBED6"/></svg>