<!-- by TradingView --><svg width="56" height="56" viewBox="0 0 56 56" xmlns="http://www.w3.org/2000/svg"><path fill="#F0F3FA" d="M0 0h56v56H0z"/><path d="M40.4 15c1 .02 2 .13 2.96.34.92.2 1.78.57 2.57 1.09A4.43 4.43 0 0 1 48 19.9v.67c-.03.36-.1.77-.19 1.2-.07.36-.15.55-.54.55h-2.56a.1.1 0 0 1-.07-.03.1.1 0 0 1-.03-.07c0-.08-.04-.35-.1-.79-.6-4.32-5.48-5.11-8.9-4.98-1.66.06-3.3.3-4.91.73a34.06 34.06 0 0 0-10.77 4.9c-.34.24-.54.3-.88.2h-.02a.04.04 0 0 1 0-.05v-.02a62.4 62.4 0 0 1 3.8-2.3 35.15 35.15 0 0 1 5.13-2.3c1.62-.6 2.86-1.01 3.74-1.27 1.92-.56 3.67-.94 5.26-1.14.68-.09 1.59-.15 2.72-.2h.72Z" fill="#F4A32D"/><path d="M13 31.9c0 .03.02.05.04.07.02.02.04.03.07.03h1.74c.02 0 .04 0 .06.02a.15.15 0 0 1 .08.08l.01.06v1.7c0 .04-.01.07-.04.1a.13.13 0 0 1-.1.04h-3.7a.15.15 0 0 1-.11-.05.16.16 0 0 1-.05-.1V23.37c0-.17-.03-.37.2-.37h3.56c.17 0 .25.07.24.21V24.89a.17.17 0 0 1-.1.1.16.16 0 0 1-.06.01H13.1a.1.1 0 0 0-.07.03.1.1 0 0 0-.03.07v1.78a.12.12 0 0 0 .04.08l.03.02.04.02h1.53c.03 0 .05 0 .07.02a.1.1 0 0 1 .03.08v1.75c0 .04-.01.08-.04.1a.14.14 0 0 1-.1.05h-1.5a.1.1 0 0 0-.06.03l-.04.07v2.8ZM40 31.9c0 .03.02.05.04.07.02.02.04.03.07.03h1.74c.02 0 .04 0 .06.02a.15.15 0 0 1 .08.08l.01.06v1.7c0 .04-.01.07-.04.1a.13.13 0 0 1-.1.04h-3.7a.15.15 0 0 1-.11-.05.16.16 0 0 1-.05-.1V23.37c0-.17-.03-.37.2-.37h3.56c.17 0 .25.07.24.21V24.89a.17.17 0 0 1-.1.1.16.16 0 0 1-.06.01H40.1a.1.1 0 0 0-.07.03.1.1 0 0 0-.03.07v1.78a.12.12 0 0 0 .04.08l.03.02.04.02h1.53c.03 0 .05 0 .07.02a.1.1 0 0 1 .03.08v1.75c0 .04-.01.08-.04.1a.14.14 0 0 1-.1.05h-1.5a.1.1 0 0 0-.06.03l-.04.07v2.8ZM45 31.9c0 .03.02.05.04.07.02.02.04.03.07.03h1.74c.02 0 .04 0 .06.02a.15.15 0 0 1 .08.08l.01.06v1.7c0 .04-.01.07-.04.1a.13.13 0 0 1-.1.04h-3.7a.15.15 0 0 1-.11-.05.16.16 0 0 1-.05-.1V23.37c0-.17-.03-.37.2-.37h3.56c.17 0 .25.07.24.21V24.89a.17.17 0 0 1-.1.1.16.16 0 0 1-.06.01H45.1a.1.1 0 0 0-.07.03.1.1 0 0 0-.03.07v1.78a.12.12 0 0 0 .04.08l.03.02.04.02h1.53c.03 0 .05 0 .07.02a.1.1 0 0 1 .03.08v1.75c0 .04-.01.08-.04.1a.14.14 0 0 1-.1.05h-1.5a.1.1 0 0 0-.06.03l-.04.07v2.8ZM19.5 27.72c.01 0 .02 0 .02-.02l.5-4.58c0-.04.02-.06.04-.09a.12.12 0 0 1 .09-.03h2.73c.03 0 .06.01.08.04.02.02.04.05.04.09v10.69a.18.18 0 0 1-.05.12.16.16 0 0 1-.12.05h-1.6c-.28.02-.23-.18-.23-.42v-6.18l-.02-.02h-.04l-.71 6.5c0 .03-.02.06-.04.09a.13.13 0 0 1-.09.03l-.6.01h-.6a.13.13 0 0 1-.1-.05.14.14 0 0 1-.03-.08l-.72-6.5h-.04v.02L18 33.57c0 .24.04.44-.23.43a61.76 61.76 0 0 0-1.67-.02.17.17 0 0 1-.09-.1.18.18 0 0 1-.01-.06v-10.7a.13.13 0 0 1 .03-.08.12.12 0 0 1 .08-.04h2.74c.03 0 .06.01.08.03.02.03.04.05.04.09a1285.67 1285.67 0 0 0 .53 4.6ZM27.5 27.72c.02 0 .02 0 .03-.02l.5-4.58c0-.04.01-.06.04-.09a.12.12 0 0 1 .08-.03h2.73c.03 0 .06.01.09.04.02.02.03.05.03.09v10.69a.18.18 0 0 1-.05.12.17.17 0 0 1-.12.05h-1.6c-.27.02-.23-.18-.23-.42v-6.18l-.01-.02h-.04l-.72 6.5c0 .03-.01.06-.04.09a.13.13 0 0 1-.09.03l-.6.01h-.6a.13.13 0 0 1-.09-.05.14.14 0 0 1-.04-.08l-.71-6.5H26V33.57c0 .24.04.44-.24.43a61.77 61.77 0 0 0-1.66-.02.17.17 0 0 1-.09-.1.18.18 0 0 1-.02-.06v-10.7a.13.13 0 0 1 .03-.08.12.12 0 0 1 .09-.04h2.73c.03 0 .06.01.08.03.03.03.04.05.04.09a1285.67 1285.67 0 0 0 .53 4.6ZM34.62 30.02c.02 0 .05-.24.07-.73l.04-.73c.1-1.52.24-3.34.4-5.44l.03-.09a.13.13 0 0 1 .1-.03h2.22a.13.13 0 0 1 .1.04.13.13 0 0 1 .03.1L36.44 33.8c0 .05-.03.1-.06.13-.04.04-.09.08-.14.08h-3.2a.2.2 0 0 1-.2-.19l-1.3-10.63a.13.13 0 0 1 .03-.1.13.13 0 0 1 .04-.03c.02-.01.04-.05.06-.05h2.23c.03 0 .06.02.09.04.02.02.03.05.04.09a1160.85 1160.85 0 0 1 .59 6.89Z" fill="#0B6EB2"/><path d="M17.02 41h-1.83c-2.96-.07-6.93-1.17-7.19-4.92v-.65a11.52 11.52 0 0 1 2.7-6.09.05.05 0 0 1 .05.01l.01.02v4.69a.13.13 0 0 0 .05.1.13.13 0 0 0 .1.03c.1 0 .35 0 .42.02l.06.03c.02.02.03.04.03.07a4.9 4.9 0 0 0 1.9 3.48c1.72 1.29 3.9 1.7 6.02 1.72 1.62.02 3.22-.14 4.8-.49 3.91-.85 7.55-2.36 10.91-4.52.42-.27.69-.37 1.14-.3l.03.02a.06.06 0 0 1 .01.07l-.02.03c-1.27.73-2.78 1.62-4.12 2.3a46.38 46.38 0 0 1-8.7 3.32c-2.13.58-4.26.93-6.37 1.06Z" fill="#F4A32D"/></svg>