<!-- by TradingView --><svg width="56" height="56" viewBox="0 0 56 56" xmlns="http://www.w3.org/2000/svg"><path fill="#F0F3FA" d="M0 0h56v56H0z"/><path d="M15.87 13.04c-.72 0-1.24-.32-1.27-1.02-.03-1.02 1.45-1.4 2.03-.55.37.55.1 1.2-.5 1.5a.05.05 0 0 0-.03.03v.04c.7 1.09 1.78 2.33 3.1 2.7 1.9.53 3.38-1.32 4.14-2.65.03-.07.02-.11-.05-.15-.58-.29-.82-.96-.44-1.48.65-.89 2.16-.4 2 .7-.06.39-.29.65-.69.8-.07.03-.08.07-.05.13.83 1.38 2.4 3.36 4.4 2.76 1.28-.4 2.31-1.69 2.96-2.77.04-.05.02-.1-.04-.12-.63-.24-.91-.96-.51-1.5.58-.79 1.94-.5 2 .48.03.45-.18.79-.63 1-.06.03-.07.07-.05.12.49 1.13 1.4 2.57 2.66 3.03 1.99.72 3.8-1.71 4.6-3.02.02-.05.01-.09-.04-.11-.54-.27-.75-.67-.62-1.2.25-1.05 2-1 2.14.1.07.56-.2.94-.8 1.13-.15.05-.32.03-.48.06a.13.13 0 0 0-.06.02.12.12 0 0 0-.04.06l-1.64 5.77c-.01.03-.03.05-.06.07a.15.15 0 0 1-.09.03H17.63c-.03 0-.06 0-.08-.03a.12.12 0 0 1-.05-.06l-1.52-5.8c-.01-.05-.05-.07-.1-.07Z" fill="#EC3237"/><path d="M22.82 31.8c.11-.23.2-.49.24-.76.02-.14.06-.14.1 0l3.72 10.84a.09.09 0 0 1-.04.11.09.09 0 0 1-.04.01H12.06a.06.06 0 0 1-.04-.02.06.06 0 0 1-.01-.06l1.28-3.76c.03-.08.07-.09.13-.02a2.25 2.25 0 0 0 3.9-.83 2.26 2.26 0 0 0-2.7-2.82.06.06 0 0 1-.04-.08l4.8-13.99c.04-.14.1-.14.15 0l2.98 8.7c.06.18.02.2-.12.07-1.9-1.87-4.9.52-3.5 2.81a2.24 2.24 0 0 0 3.93-.2ZM34.22 37.55c.72.47 1.5.7 2.35.7 2.26-.03 3.8-2.23 4.59-4.1.06-.15.12-.15.18.01L44 41.92v.03a.06.06 0 0 1-.03.04l-.03.01H29.2a.07.07 0 0 1-.06-.03.08.08 0 0 1-.01-.07l7.37-21.5a.07.07 0 0 1 .06-.05.07.07 0 0 1 .07.04L39 27.36a.2.2 0 0 1-.01.16l-4.8 9.9a.1.1 0 0 0-.01.08c0 .02.02.04.03.05ZM29.4 37.93l-1.8-5.84-.01-.03.01-.03a.07.07 0 0 1 .05-.03h3.69l.04-.01.02-.04 4.04-11.86a.07.07 0 0 0-.03-.08l-.03-.01H20.63a.07.07 0 0 0-.06.03.07.07 0 0 0 0 .06l7.37 21.86.02.04a.07.07 0 0 0 .1-.04l1.34-3.97v-.05Zm.8-11.54c0 1.28-1 2.31-2.25 2.31a2.28 2.28 0 0 1-2.25-2.3c0-1.28 1-2.31 2.25-2.31a2.28 2.28 0 0 1 2.25 2.3Z" fill="#320071"/></svg>