<!-- by TradingView --><svg width="56" height="56" viewBox="0 0 56 56" xmlns="http://www.w3.org/2000/svg"><path fill="#1B46C6" d="M0 0h56v56H0z"/><path d="M28 36c-1.3 0-1.52-1.14-1.51-2.35 0-1.87.02-5.47.01-10.55a.67.67 0 0 0-.2-.08h-3.26c-.69 0-1.16-.1-1.4-.3-.78-.61-.88-1.84-.04-2.45.22-.16.66-.25 1.33-.26a1114.14 1114.14 0 0 1 10.14 0c.67 0 1.11.09 1.33.25.84.6.78 1.84 0 2.45-.25.2-.72.3-1.4.3h-3.27c-.03 0-.22.09-.22.1 0 5.07-.02 8.67-.01 10.54 0 1.2-.19 2.35-1.5 2.35ZM38.98 21.5c.03 1.28.05 3.38.04 6.28-.02 4.07 4.2 5.26 7.4 5.24 2.2-.02 1.97 2.82.14 2.94-4.4.29-8.47-.94-10.07-5.49-.32-.91-.48-2.22-.48-3.91v-4.22c-.03-.82.07-1.38.32-1.7.8-1.02 2.04-.78 2.56.44.05.13.08.27.09.42Z" fill="#fff"/><path d="M48 23c0 .79-1.2 1.83-1.87 2.48-.73.71-1.39.7-1.97-.06a.75.75 0 0 1-.05-.86c.36-.58.76-1.13.76-1.56 0-.43-.4-.98-.75-1.56a.76.76 0 0 1 .05-.86c.59-.75 1.24-.77 1.97-.06.67.66 1.86 1.7 1.86 2.48Z" fill="#18BD76"/><path d="M11.77 23.79c-.64 1.32.6 1.94 1.62 2.21 1.75.46 2.96.76 4.42 1.49 1.93.96 2.58 2.98 1.97 5.14-.71 2.54-3.56 3.46-5.91 3.36-1.64-.07-5.13-.8-5.8-2.56-.36-.99.61-2.05 1.55-2.02.21.01.54.15 1 .42 1.48.88 3.01 1.35 4.63 1.02.92-.19 1.58-.9 1.2-1.88-.6-1.6-5.84-1.42-7.49-3.62a4.24 4.24 0 0 1-.81-3.14c.3-2.54 2.4-4.01 4.73-4.18 1.66-.12 3.23.12 4.7.7.52.22 1.37.68 1.6 1.3.32.9.05 1.61-.84 2.14a1 1 0 0 1-1.02.04c-1.35-.68-2.53-1.25-3.95-1.2-.54.01-1.35.24-1.6.78Z" fill="#fff"/></svg>