<!-- by TradingView --><svg width="18" height="18" viewBox="0 0 18 18" xmlns="http://www.w3.org/2000/svg"><path fill="#F0F3FA" d="M0 0h18v18H0z"/><path d="M4.07 9.99C4.02 9.6 4 9.18 4 8.69A4.94 4.94 0 0 1 5.5 5.42c.16-.19.33-.33.48-.44A5.24 5.24 0 0 1 8.83 4c1.04-.04 2.22.4 3.02 1.02.11.08.16.2.15.33 0 .03-.02.06-.05.09l-.51.43a.28.28 0 0 1-.31.04c-.47-.25-.89-.54-1.4-.68a4.23 4.23 0 0 0-4.15 1.02c-.34.36-.62.7-.82 1.03a4.44 4.44 0 0 0-.66 2.7V10a.02.02 0 0 1-.03 0v-.01Z" fill="#F3C80F"/><path d="M13.59 7c.24.63.37 1.12.4 1.46.33 4.46-4.4 7.2-7.94 4.43a.13.13 0 0 1-.05-.11.14.14 0 0 1 .06-.11c.14-.1.31-.24.53-.43.37-.31.37-.05.63.1a4.21 4.21 0 0 0 5.55-.87c.64-.77 1-1.67 1.07-2.7.04-.6-.11-1.11-.26-1.77h.01ZM10 7H6.05l1.6 1.17L5.18 11h1.46L4 14l3.37-3.33h-.44L10 7Z" fill="#191916"/><path d="M12.1 11H8l3-3.67-.16-.33L14 4l-2.53 3h1.58l-2.52 2.83L12.1 11Z" fill="#F3C80F"/></svg>