<!-- by TradingView --><svg width="18" height="18" viewBox="0 0 18 18" xmlns="http://www.w3.org/2000/svg"><path fill="#F0F3FA" d="M0 0h18v18H0z"/><path d="M6 6.44C5.67 5.2 4.53 4.97 4 5c.17.13.61.67 1 1.85.62 1.83 1.6 2.2 2 2.15-.2-.34-.67-1.33-1-2.56Z" fill="#CB515A"/><path d="M9.6 6.52c.73-1.07.3-2.13-.01-2.52 0 .22-.17.93-.84 2-1.03 1.7-.78 2.71-.53 3 .15-.38.63-1.41 1.37-2.48Z" fill="#455D4D"/><path d="M12.48 8.44C13.66 8.3 13.98 7.42 14 7c-.13.12-.68.42-1.81.62C10.42 7.95 9.99 8.68 10 9c.34-.12 1.3-.41 2.48-.56Z" fill="#455577"/><path d="M11.91 12.53c.8.73 1.73.45 2.09.22a3.9 3.9 0 0 1-1.57-.9c-1.3-1.04-2.16-.91-2.43-.72a11 11 0 0 1 1.91 1.4Z" fill="#DBA053"/><path d="M8 13c-1.3 0-2-.94-2-2s.71-2 2-2c1.3 0 2 .95 2 2 0 1.06-.7 2-2 2Zm0-.59c.81 0 1.14-.48 1.14-1.41 0-.94-.3-1.41-1.14-1.41-.81 0-1.14.48-1.14 1.41 0 .93.33 1.41 1.14 1.41Z" fill="#624F59"/></svg>