<!-- by TradingView --><svg width="56" height="56" viewBox="0 0 56 56" xmlns="http://www.w3.org/2000/svg"><path fill="#F0F3FA" d="M0 0h56v56H0z"/><path fill-rule="evenodd" d="M12.4 23H8l4.66 15h3.63L21 23h-4.2l-2.35 9.58L12.4 23Zm8.83 4.38 4.18.55c.14-.58.75-1.72 2.13-1.72 1.72 0 1.46 1.95 1.46 1.95v.09c-.68.3-2 .75-4.17 1.38C21.2 30.7 21 32.51 21 34.47c0 1.97 1.24 3.53 4.48 3.53 1.52 0 2.81-.95 3.74-2.01l.61 2.01H34l-.22-.52a7.05 7.05 0 0 1-.78-2.64v-7.46c0-1.46-.77-4.38-5.46-4.38-4.7 0-6.16 2.92-6.31 4.38ZM29 33.82v-2.85c-.46.28-1.04.55-1.75.75-2.5.7-2.78 3.38-.4 3.38A2.4 2.4 0 0 0 29 33.82Zm5 .03 4.2-.7c.05.61.52 1.83 2.09 1.83 1.96 0 2.6-2.28-.17-2.76s-5.55-1.59-5.55-4.76c0-3.16 2.94-4.46 5.55-4.46 2.6 0 4.3.55 5.45 3.8l-3.78.5c-.22-.48-.94-1.42-2.05-1.42-1.11 0-1.36.86-1.34 1.3.05.36.54 1.13 2.05 1.27 1.9.17 5.55.93 5.55 4.7S42.63 38 39.74 38c-2.9 0-5-.91-5.74-4.15Z" fill="#A2D027"/><path d="M26 12a39.42 39.42 0 0 0 5.9 11c2.1-.4 7.26-1.87 11.1-4.54l-9.87 2.17A38.37 38.37 0 0 1 26 12Zm5.46.38c.35 1.1 1.5 3.9 3.35 6.27 1.2-.23 4.15-1.07 6.34-2.6l-5.63 1.25c-.72-.6-2.54-2.42-4.06-4.92Z" fill="#625C5C"/></svg>