<!-- by TradingView --><svg width="18" height="18" viewBox="0 0 18 18" xmlns="http://www.w3.org/2000/svg"><path fill="#F0F3FA" d="M0 0h18v18H0z"/><path d="M9 3a6 6 0 1 1 0 12A6 6 0 0 1 9 3Zm1.72 2.15a4.23 4.23 0 0 0-5.1 1.3c-.19-.09-.4-.14-.6-.14-.35 0-.68.13-.92.37-.3.31-.46.74-.44 1.18.01.21.06.42.14.62a2.13 2.13 0 0 0 .89 1l-.8.27a4.83 4.83 0 0 0 .06.6c.14.57.51 1.1 1.12 1.21a1.53 1.53 0 0 0 .58 0 4.22 4.22 0 0 0 6.78-.12 4.41 4.41 0 0 0 .82.05l.21-.02a2.3 2.3 0 0 0 .38-.09c.22-.1.37-.27.4-.51v-.15a317.5 317.5 0 0 0-.2-.84 1.04 1.04 0 0 0-.66-.56 11.65 11.65 0 0 0-.17-.05l-.01-.69a4.17 4.17 0 0 0-2.48-3.43Z" fill="#2C2268"/><path d="m5.41 6.6-.2-.04h-.17c-.1 0-.21.02-.3.05-.32.11-.56.36-.69.67-.08.21-.12.43-.1.67.04.36.18.7.43.97a2.65 2.65 0 0 0 .82.6l.1.05c.08.05.16.11.23.19.05.05.1.12.13.2.03.06.05.13.05.2 0 .1-.06.21-.16.26a.2.2 0 0 1-.19-.02c.13.01.22-.06.26-.18a.35.35 0 0 0 0-.2.8.8 0 0 0-.3-.4c-.16-.13-.34-.22-.5-.3-.4-.25-.74-.6-.88-1.07a1.67 1.67 0 0 1-.07-.49c0-.17.04-.35.11-.52.11-.24.3-.46.53-.59.19-.1.4-.14.62-.12.09 0 .18.03.28.07Z" fill="#DB6F4C"/><path d="M5.41 6.6a1.03 1.03 0 0 1 .4.26l.1.16c.14.24.2.51.24.79a2.93 2.93 0 0 1 0 .36 125.33 125.33 0 0 1-.8-.08 1.58 1.58 0 0 0-.08-.35c-.02-.06-.08-.14-.15-.13l-.02-.02a.15.15 0 0 0-.06-.07.16.16 0 0 0-.15-.01c-.09.03-.13.13-.12.22.02.15.08.27.18.37a3 3 0 0 0 .13.13c.15.14.32.24.52.37a3.18 3.18 0 0 1 .54.46 1.72 1.72 0 0 1 .4 1.17 1 1 0 0 1-.41.8c-.23.16-.51.24-.79.26a1.1 1.1 0 0 1-.61-.12c-.24-.2-.38-.46-.47-.75a2.11 2.11 0 0 1-.08-.49l.71-.24a1.7 1.7 0 0 0 .15.43c.03.06.07.1.1.13a.7.7 0 0 0 .07.07c.04.04.1.07.15.08a.2.2 0 0 0 .2.02c.1-.05.15-.15.15-.26a.44.44 0 0 0-.05-.2.78.78 0 0 0-.13-.2 1.14 1.14 0 0 0-.33-.25c.01 0 .01 0 0 0V9.5l-.13-.08c-.1-.06-.21-.13-.36-.2a1.93 1.93 0 0 1-.33-.3c-.25-.28-.4-.6-.43-.97-.02-.24.02-.46.1-.67.13-.3.37-.56.69-.67a1.4 1.4 0 0 1 .67-.01Z" fill="#C6302B"/><path d="m6.58 6.66-.18-.03-.13-.02a.2.2 0 0 0-.04 0l.78 4.1.02.1-.06.02-.82-4.25.43.08Z" fill="#DB6F4C"/><path d="m6.58 6.66.44.12H7v.01l.71 3.77a4.38 4.38 0 0 0-.7.15l-.8-4.1a.2.2 0 0 1 .05 0l.13.02.18.03Z" fill="#C6302B"/><path d="m7.02 6.78.04.01.74 3.85-.17.03c-.2.03-.4.08-.6.14l-.02-.1h.01a4.38 4.38 0 0 1 .7-.15L7.01 6.8l.01-.01ZM5.81 6.86c.14.14.24.33.3.52a2.4 2.4 0 0 1 .12.86l-.87-.08V8.1l.2.02a126.12 126.12 0 0 0 .6.05l-.01-.35c-.03-.28-.1-.55-.24-.8a1.5 1.5 0 0 0-.1-.15Z" fill="#832521"/><path d="m7.4 6.9-.01.03.02.12a10074.78 10074.78 0 0 0 .7 3.55h-.07a.01.01 0 0 1-.01 0l-.01-.07v-.01L8 10.45a82890.66 82890.66 0 0 1-.68-3.57l.07.03Z" fill="#DB6F4C"/><path d="M7.4 6.9c.26.1.52.2.77.32l.21 1.17.03.14.39-1 .6.33-.3.85 1.02 1.96a11.13 11.13 0 0 0-.88-.13l-.47-.92-.03.07-.08.2v.03l.11.58a8.2 8.2 0 0 0-.69.03A10417.32 10417.32 0 0 1 7.4 6.9Z" fill="#C6302B"/><path d="m8.17 7.22.06.02.2 1.04-.05.1-.21-1.16Z" fill="#832521"/><path d="M8.8 7.52 8.4 8.53l-.03-.14a.33.33 0 0 0 .04-.11l.01-.02a456.23 456.23 0 0 1 .3-.77l.07.03Z" fill="#DB6F4C"/><path d="M5.1 7.6a.16.16 0 0 0-.16 0c-.08.04-.1.14-.1.23.02.1.06.19.11.27a.56.56 0 0 1-.18-.37c0-.09.03-.19.12-.22.05-.02.1-.02.15 0l.06.08Z" fill="#832521"/><path d="m5.35 8.1.01.06h-.07l-.01-.01a1.07 1.07 0 0 0-.06-.37.34.34 0 0 0-.1-.17c.07 0 .13.07.15.13l.03.09c.03.09.04.17.05.26Z" fill="#DB6F4C"/><path d="m9.28 10.61-.04-.07.1.01a11.12 11.12 0 0 1 .78.12L9.1 8.72a.01.01 0 0 1 0-.01l.3-.85.08.05-.3.87a.02.02 0 0 0 0 .02l1.01 1.94c-.3-.05-.6-.1-.91-.13Z" fill="#832521"/><path d="m9.84 8.13.58 2.6.01.07-.06-.02h-.01l-.6-2.7.08.05Z" fill="#DB6F4C"/><path d="M10.6 8.58v.03l.01.02.15.69a4.9 4.9 0 0 0 .06.26l.38-.71.53.24-.28.56v.01l.79 1.45-.76-.16-.34-.68-.03.05-.1.12.1.4-.12-.02a24 24 0 0 0-.57-.1l-.58-2.6v-.01a28.91 28.91 0 0 0 .77.45Z" fill="#C6302B"/><path d="m11.2 8.87-.38.71a1.62 1.62 0 0 0-.02-.12l.04-.07.29-.55.07.03Z" fill="#DB6F4C"/><path d="M6.15 9.05a1.68 1.68 0 0 1 .42 1.5 1 1 0 0 1-.6.69 1.47 1.47 0 0 1-.45.12H5.4a1.16 1.16 0 0 1-.47-.06l-.01-.01a1.13 1.13 0 0 1-.19-.12c.2.1.4.14.61.12.28-.02.56-.1.79-.26a1 1 0 0 0 .4-.8 1.72 1.72 0 0 0-.38-1.18ZM11.73 9.1l.08.04-.29.6v.02l.8 1.45h-.01l-.78-.17h-.01l-.04-.07.75.17-.78-1.45a.02.02 0 0 1 0-.02l.28-.56Z" fill="#832521"/><path d="m12.56 9.35-.13.02c-.16.03-.25.15-.26.31l.01.13.2 1c0 .04.02.07.03.1.04.08.09.14.15.2l.16.11a.67.67 0 0 1-.4-.38v-.02a93.27 93.27 0 0 1-.21-1.01c-.05-.19 0-.39.2-.45a.39.39 0 0 1 .25 0ZM9.24 10.54l.04.07h-.06l-.42-.8V9.8l-.06-.11.02-.07.48.92ZM4.95 9.67l-.06.02-.7.24h-.01c0 .17.03.33.08.5.08.28.23.55.47.74.06.05.12.09.19.12v.01a1.09 1.09 0 0 1-.45-.33 1.7 1.7 0 0 1-.34-.81l-.02-.14a11.78 11.78 0 0 1 0-.12l.82-.27h.01l.01.04Z" fill="#DB6F4C"/><path d="M4.95 9.67c.02.15.06.28.1.4.02.06.06.12.1.18a.41.41 0 0 1-.1-.13l-.08-.14a1.7 1.7 0 0 1-.08-.29l.06-.02ZM8.74 9.69l.06.1v.01l-.06.18v.01l.1.59c-.24 0-.49 0-.73.02a.18.18 0 0 1-.03-.07l.02-.01a8.2 8.2 0 0 1 .67-.02l-.1-.58V9.9l.07-.21ZM12.72 11.22a.99.99 0 0 1-.16-.11.99.99 0 0 0 .4.09 3.35 3.35 0 0 0 .65-.07.5.5 0 0 0 .13-.06.43.43 0 0 0 .21-.31v-.08a227.92 227.92 0 0 0-.18-.81.95.95 0 0 0-.06-.12c.05.05.1.12.13.19l.04.1a79.35 79.35 0 0 0 .15.78c-.01.16-.12.28-.27.36a3.63 3.63 0 0 1-.82.1.84.84 0 0 1-.22-.06Z" fill="#832521"/><path d="M13.19 9.92a.41.41 0 0 0-.15-.05c-.05 0-.11 0-.14.05-.02.03-.01.06 0 .1a189.01 189.01 0 0 1 .12.61l.01.04a.22.22 0 0 1-.1-.15 80.26 80.26 0 0 1-.11-.66c.02-.06.09-.07.15-.07a.37.37 0 0 1 .23.11l-.01.02Z" fill="#832521"/><path d="M12.56 9.35a18.17 18.17 0 0 1 .75.17c.07.02.13.04.17.07.09.04.16.1.23.16l.06.12.04.12a336.35 336.35 0 0 1 .14.77.43.43 0 0 1-.2.3.51.51 0 0 1-.14.07 3.32 3.32 0 0 1-.85.05 1 1 0 0 1-.2-.07.6.6 0 0 1-.15-.2 169 169 0 0 0-.24-1.23c0-.16.1-.28.26-.3l.13-.03Zm.48.52c-.05 0-.11 0-.14.05-.02.03-.01.06 0 .1a195.22 195.22 0 0 1 .12.61l.01.04c.03.06.08.1.14.11l.06.01c.06.01.11 0 .16-.02a.1.1 0 0 0 .05-.09v-.06l-.02-.05a92.94 92.94 0 0 1-.14-.57.22.22 0 0 0-.08-.08h-.01a.41.41 0 0 0-.15-.05Z" fill="#C6302B"/><path d="m11.1 10.34.05.1-.07.1.1.4a7.04 7.04 0 0 0-.75-.14l-.01-.07h.01a24.59 24.59 0 0 1 .68.13l-.1-.4.1-.13Z" fill="#832521"/><path d="M12.34 13.13a.27.27 0 1 0 0-.54.27.27 0 0 0 0 .54ZM5.71 13.17a.27.27 0 1 0 0-.54.27.27 0 0 0 0 .54ZM11.13 13.9a.27.27 0 1 0 0-.54.27.27 0 0 0 0 .54ZM6.93 13.93a.27.27 0 1 0 0-.54.27.27 0 0 0 0 .54ZM9.75 14.31a.27.27 0 1 0 0-.54.27.27 0 0 0 0 .54ZM8.31 14.32a.27.27 0 1 0 0-.54.27.27 0 0 0 0 .54Z" fill="#fff"/><path d="M4.76 5.55c.8-1.08 3.2-2.82 6.56-1.48a5.59 5.59 0 0 1 3.11 4.76l-.7.04a4.9 4.9 0 0 0-2.67-4.15c-2.99-1.2-5.08.36-5.74 1.25l-.56-.42Z" fill="#fff" fill-opacity=".7"/></svg>