<!-- by TradingView --><svg width="18" height="18" viewBox="0 0 18 18" xmlns="http://www.w3.org/2000/svg"><path fill="#F0F3FA" d="M0 0h18v18H0z"/><path d="M9.54 3a7.2 7.2 0 0 1-.99 1.5c-.4.44-.8.82-1.16 1.13a99 99 0 0 1-1.82 1.46c-.53.41-.92.86-1.18 1.34a.75.75 0 0 0-.08.51.01.01 0 0 0 .02 0c.2-.36.54-.74 1-1.13.26-.21.65-.51 1.18-.9l.66-.5a9.66 9.66 0 0 0 1.99-2.08 6.64 6.64 0 0 1-1.39 1.85c-.27.26-.57.52-.9.8L5.52 8.04A4.56 4.56 0 0 0 4.51 9.2l.27.16a.03.03 0 0 0 .03 0c.16-.17.32-.3.47-.43A23.24 23.24 0 0 1 7.1 7.6 9.84 9.84 0 0 0 9 5.79v.01a6.3 6.3 0 0 1-1.24 1.53c-.24.22-.5.43-.76.63L5.58 9.03a5.42 5.42 0 0 0-.49.43c.26.07.54.12.82.14.56.06 1.35.06 2.37 0l1.63-.08c1.1-.05 1.97.01 2.62.18.4.1.73.28.98.52.29.27.45.6.49.99a.83.83 0 0 1-.14.52c-.09.15-.22.28-.38.39-.29.2-.67.36-1.13.5a12.28 12.28 0 0 1-1.97.36 9.46 9.46 0 0 0 1.65-.52l.01-.03a.61.61 0 0 0-.17-.5 1.35 1.35 0 0 0-.44-.31c-.41-.2-.95-.32-1.62-.36-.65-.04-1.4-.02-2.23.05-.7.06-1.43.05-2.18-.04-.33-.04-.6-.13-.82-.27-.3-.2-.41-.45-.34-.75a2.07 2.07 0 0 1 .05-.19v-.02a.77.77 0 0 1-.13-.71.06.06 0 0 0 0-.05.9.9 0 0 1-.1-.83c.14-.4.44-.83.9-1.26A18.7 18.7 0 0 1 7.1 5.5 10.57 10.57 0 0 0 9.54 3ZM4.5 10.25h-.01l-.01.01c-.05.2.01.36.19.47.29.17.7.28 1.24.32.37.02.79.03 1.24.01l1.88-.09a7.6 7.6 0 0 1 2.33.16c.28.08.5.2.69.35a1.23 1.23 0 0 1 .42.77.02.02 0 0 0 .01 0h.01c.12-.03.2-.13.23-.3.05-.2-.01-.4-.19-.6a1.6 1.6 0 0 0-.53-.4 3.7 3.7 0 0 0-.97-.29c-.82-.14-1.79-.16-2.9-.06a12.5 12.5 0 0 1-3-.08 2.1 2.1 0 0 1-.63-.27Zm.34-.5a.04.04 0 0 0-.04 0l-.16.2a.02.02 0 0 0 0 .03h.01c.26.14.53.23.8.28.48.07 1 .1 1.54.1l1.44-.07 1.46-.07c.86-.02 1.56.05 2.08.21.78.24 1.19.7 1.23 1.4h.01c.3-.28.36-.56.21-.85-.3-.6-1.14-.97-2.5-1.08-.82-.07-1.72-.05-2.68.04-.94.1-1.87.08-2.8-.04a2.7 2.7 0 0 1-.6-.15Zm-.44-.22a.01.01 0 0 0-.01 0 .44.44 0 0 0 .05.25.01.01 0 0 0 .02 0l.1-.13a.02.02 0 0 0 0-.03l-.15-.1H4.4Z" fill="#E31E23"/></svg>