<!-- by TradingView --><svg width="56" height="56" viewBox="0 0 56 56" xmlns="http://www.w3.org/2000/svg"><path fill="#6B2724" d="M0 0h56v56H0z"/><path d="M4 23h48v10H4V23Z" fill="#fff"/><path fill="#CC5850" d="M4.5 23.5h47v9h-47z"/><path fill-rule="evenodd" d="m22.82 28.9.18.18c-.2.3-.84.92-1.91.92-1.35 0-2.09-.86-2.09-2.1 0-1.25 1.16-1.9 2.2-1.9.26 0 .85.1 1.1.4l.3-.4h.16l.14 1.5h-.26c-.1-.4-.5-1.2-1.37-1.2-1.07 0-1.2 1.05-1.2 1.77 0 .71.59 1.57 1.41 1.57.66 0 1.17-.5 1.34-.74ZM6 30v-1.36h.2c0 .78 1.04 1.13 1.34 1.13.3 0 1-.13 1-.66 0-.48-.46-.6-1.23-.81L7 28.2c-.77-.22-.99-.79-1-1.05C6 26.12 7.02 26 7.67 26c.51 0 .88.18 1 .27l.16-.27H9v1h-.17c-.12-.65-.86-.73-1.16-.73-.3 0-.9.07-.9.47 0 .4.36.53.93.67h.02c.58.15 1.7.42 1.7 1.23 0 .83-.64 1.36-1.75 1.36-.9 0-1.3-.28-1.4-.42V30H6Zm29.68 0h-2.42v-.15h.25c.24 0 .49-.18.49-.39v-2.88c0-.22-.25-.39-.5-.39h-.24V26h2.42v.2h-.2c-.24 0-.48.16-.48.38v2.88c0 .21.24.39.48.39h.2V30Zm-21.95 0h-2.38v-.17h.22c.25 0 .43-.17.43-.38v-2.9c0-.22-.18-.4-.43-.4h-.22V26h3.02c.69 0 1.25.49 1.25 1.1 0 .6-.56 1.08-1.25 1.08H13v1.27c0 .21.17.38.42.38h.31V30ZM13 26.66V28h.34c.6 0 1.07-.5 1.07-1.02 0-.39-.36-.7-.8-.7h-.17c-.24 0-.44.17-.44.38ZM28.31 30h2.38v-.17h-.3c-.25 0-.39-.17-.39-.38v-1.27h1.33c.7 0 1.25-.48 1.25-1.09 0-.6-.56-1.09-1.25-1.09H28.3v.16h.22c.25 0 .47.17.47.38v2.9c0 .22-.22.4-.47.4h-.22V30Zm1.65-2.09v-1.25c0-.2.2-.38.44-.38h.17c.44 0 .8.31.8.7 0 .51-.48.93-1.07.93h-.34Zm-7 2.09h1.65v-.15h-.41c-.21 0-.35-.18-.27-.34l.43-.88h1.53l.41.88c.08.17-.07.34-.27.34h-.4V30h2.31v-.15h-.15c-.18 0-.35-.1-.41-.23L25.64 26h-.33l-1.8 3.62c-.06.14-.22.23-.4.23h-.15V30Zm2.8-1.67-.61-1.32-.65 1.32h1.26ZM42.59 30h-1.65v-.15h.15c.18 0 .34-.09.4-.23L43.3 26h.33l1.74 3.62c.06.14.23.23.4.23h.17V30h-2.31v-.15H44c.2 0 .35-.17.27-.34l-.4-.88h-1.54l-.43.88c-.08.16.06.34.27.34h.41V30Zm.54-2.99.6 1.32h-1.25l.65-1.32ZM39.82 30h-2.6v-.18h.22c.32 0 .56-.23.56-.52v-3.04h-.93c-.48 0-.88.34-.88.76h-.15V26h5v1.02h-.18c0-.42-.39-.76-.88-.76H39v3.04c0 .29.34.52.66.52h.16V30Zm8.71-4h-2.15v.18h.18c.27 0 .44.23.44.52v2.66c0 .29-.17.52-.44.52h-.18V30h3.32l.3-1.27h-.3c0 .42-.63 1.01-1.03 1.01H48V26.7c0-.29.13-.52.4-.52h.13V26Z" fill="#fff"/></svg>