<!-- by TradingView --><svg width="56" height="56" viewBox="0 0 56 56" xmlns="http://www.w3.org/2000/svg"><path fill="#6E1112" d="M0 0h56v56H0z"/><path d="M12.7 32.46A4.67 4.67 0 0 1 8.83 34a5.14 5.14 0 0 1-2.38-.77c-2.85-1.77-3.1-6.55-1.28-9.15 1.36-1.95 4.1-2.45 6.25-1.8a4.44 4.44 0 0 1 2.78 2.26c.2.4.32.98.35 1.3.01.1-.03.17-.14.17h-1.84a.32.32 0 0 1-.27-.15 3.38 3.38 0 0 0-1.07-1.49c-1.99-1.3-4.26.05-4.73 2.31-.5 2.4.14 5.37 3.1 5.42 1.4.02 2.86-1.03 2.94-2.56a.12.12 0 0 0-.03-.08.11.11 0 0 0-.09-.04h-2.26c-.11 0-.15-.06-.15-.17v-1.43c0-.14.05-.21.2-.21h4.19c.04 0 .09.02.12.05.03.03.05.08.05.12v5.91c0 .2-.1.32-.3.32h-.81a.4.4 0 0 1-.26-.1.4.4 0 0 1-.13-.25l-.16-1.13c-.02-.15-.09-.17-.2-.06ZM47.85 29.42H45.2c-.13 0-.2-.07-.2-.2V27.8c0-.04.03-.09.06-.12a.17.17 0 0 1 .12-.06h4.64c.05 0 .1.02.13.06.03.03.05.08.05.13v5.94c0 .18-.09.26-.26.26h-.91a.31.31 0 0 1-.32-.32v-1.02c0-.05-.02-.1-.04-.14a.24.24 0 0 0-.1-.09.22.22 0 0 0-.26.06 4.78 4.78 0 0 1-2.39 1.4c-.84.18-1.7.14-2.6-.14-1.97-.62-3.15-2.11-3.54-4.48-.76-4.67 2.58-8.3 7.27-7 1.39.38 2.97 1.94 3.07 3.56 0 .11-.04.17-.15.17h-1.8a.31.31 0 0 1-.14-.04.31.31 0 0 1-.11-.1 3.2 3.2 0 0 0-.58-1.08c-.79-.8-1.67-1.07-2.65-.84-1.5.37-2.43 1.59-2.63 3.17-.23 1.79.07 3.82 1.76 4.65 1.9.92 3.86-.03 4.37-2.16.03-.12-.01-.18-.14-.18Z" fill="#fff"/><path fill-rule="evenodd" d="M36.96 28.8a2.25 2.25 0 0 0-.7-.45c-.12-.06-.13-.13 0-.2 1-.6 1.57-1.36 1.68-2.27a3.4 3.4 0 0 0-1.08-3c-.9-.87-2.6-.9-3.7-.88-.75.01-2.41.02-4.97.02-.13 0-.19.07-.19.2v11.62c0 .03.01.06.03.08l.02.03c.02.02.04.05.06.05h2.2l.05-.05.02-.03a.1.1 0 0 0 .03-.07v-4.28c0-.06.02-.17.06-.22.05-.05.1-.08.17-.08a16.5 16.5 0 0 1 3.3.06c.77.09 1.17.43 1.18 1.03.01 1.36.05 2.18.11 2.46l.19.89c.02.07.06.15.13.2.06.04.14.1.22.09h2.03c.18.02.24-.06.18-.23-.3-.85-.44-1.96-.43-3.33.01-.6-.19-1.16-.59-1.65Zm-6.52-4.64a.21.21 0 0 0-.01.08v2.79c0 .05.02.21.06.25.04.04.09.06.14.06h3.24a1.8 1.8 0 0 0 1.54-.96c.08-.17.12-.36.12-.55v-.43c-.02-.87-.86-1.41-1.66-1.4h-3.24l-.05.02a.18.18 0 0 1-.03.02.2.2 0 0 0-.1.12ZM22.6 22.05a14.15 14.15 0 0 0-2.33 0 .3.3 0 0 0-.17.07.35.35 0 0 0-.11.16L16.12 33.8c-.04.12 0 .2.11.2h2.05c.11 0 .19-.07.23-.18l.66-1.99a.46.46 0 0 1 .15-.21.4.4 0 0 1 .24-.09 84.19 84.19 0 0 1 3.72 0 .4.4 0 0 1 .23.1c.07.05.12.13.15.21l.66 1.99c.04.11.12.17.23.17h2.05c.11 0 .15-.06.1-.17l-3.82-11.55a.35.35 0 0 0-.1-.16.3.3 0 0 0-.17-.07Zm-1.37 2.93-1.27 4.23a.23.23 0 0 0 .03.2.2.2 0 0 0 .07.05l.09.03h2.5c.04 0 .07 0 .1-.02a.2.2 0 0 0 .06-.07.22.22 0 0 0 .03-.18l-1.25-4.23a.2.2 0 0 0-.07-.1.18.18 0 0 0-.22-.01.2.2 0 0 0-.07.1Z" fill="#fff"/></svg>