<!-- by TradingView --><svg width="18" height="18" viewBox="0 0 18 18" xmlns="http://www.w3.org/2000/svg"><path fill="#F0F3FA" d="M0 0h18v18H0z"/><path d="M7.73 4.03c2.51 1.25 4.99 3.39 5.25 5.97a3.59 3.59 0 0 1-2.05 3.73 3.59 3.59 0 0 1-4.08-1.03c-1.21-1.48.4-4.11.76-5.33a5.69 5.69 0 0 0 .02-3.3c0-.02.01-.03.02-.03l.04-.01h.04Zm.13.3a.06.06 0 0 0-.03.02v.04a5.42 5.42 0 0 1-.07 3.11c-.36 1.15-1.94 3.65-.81 5.06a3.4 3.4 0 0 0 3.87 1.04 3.43 3.43 0 0 0 2.01-3.53c-.2-2.47-2.53-4.53-4.9-5.75h-.07ZM5.98 4c1.45.77 1.86 1.89 1.23 3.34-.63 1.48-1.27 2.64-1.07 3.96v.01l-.01.02H6.1l-.02-.01c-.71-.6-1.25-1.5-1.05-2.37.1-.42.32-1.01.66-1.77a4.39 4.39 0 0 0 .22-3.16L5.93 4 5.96 4h.02Z" fill="#E20000"/></svg>