<!-- by TradingView --><svg width="56" height="56" viewBox="0 0 56 56" xmlns="http://www.w3.org/2000/svg"><path fill="#259AE9" d="M0 0h56v56H0z"/><path d="M13.55 29.57c1.25 0 2 .02 2.28.09.15.03.17.18.17.35v3.88c0 .5.49 1.11 1.02 1.11h1.16c.5 0 .82-.57.82-1.04V22.53c0-.13-.02-.25-.1-.34-.09-.1-.2-.19-.32-.19h-2.06c-.12 0-.23.1-.32.19-.08.1-.2.22-.2.35v4.05c0 .08.04.16 0 .22a.3.3 0 0 1-.2.11c-.31.05-1.07.07-2.27.08-1.2 0-1.95-.02-2.27-.06a.3.3 0 0 1-.19-.1.34.34 0 0 1-.07-.23v-4.05c0-.2-.26-.56-.49-.56H8.46c-.23 0-.46.39-.46.58v11.43c0 .38.55 1 .95.99h1.16c.51 0 .9-.63.89-1.09v-3.88c0-.16.1-.32.25-.36.28-.06 1.05-.1 2.3-.1Zm15.1 2.53c-1.28.18-2.25.1-3.24-.23a1.33 1.33 0 0 1-.62-.43c-1.7-.79-1.96-5.53.66-6.43 1.8-.61 3.24-.42 4.3.58a.85.85 0 0 0 1.14.07 1 1 0 0 0 .28-.32l.44-.84a.97.97 0 0 0-.31-1.26c-1.59-1-2.13-1.24-3.98-1.24-5.05 0-8.64 5.09-5.87 9.96 2.03 3.58 6.91 3.73 10 1.84.16-.1.3-.25.4-.44.1-.18.15-.38.15-.6v-3.94a.85.85 0 0 0-.22-.58.73.73 0 0 0-.53-.24h-1.73a.5.5 0 0 0-.37.17c-.1.1-.15.24-.15.4v3.1c0 .1-.04.21-.1.29a.38.38 0 0 1-.25.14ZM37 22.58c0-.26-.1-.58-.4-.58h-2.16c-.2 0-.44.28-.44.46V34.5c0 .24.23.5.48.5h2.07c.26 0 .45-.25.45-.5V22.58ZM48.55 35c.12 0 .23-.06.32-.16.08-.09.13-.21.13-.34v-2a.51.51 0 0 0-.13-.35.43.43 0 0 0-.32-.15h-5.1a.43.43 0 0 1-.33-.14.54.54 0 0 1-.12-.36v-8.98a.52.52 0 0 0-.14-.35c-.09-.09-.2-.17-.32-.17h-2.09c-.12 0-.23.08-.32.17a.51.51 0 0 0-.13.35V34.5c0 .13.05.25.13.34.09.1.2.16.32.16h8.1Z" fill="#fff"/></svg>