<!-- by TradingView --><svg width="18" height="18" viewBox="0 0 18 18" xmlns="http://www.w3.org/2000/svg"><path fill="#F0F3FA" d="M0 0h18v18H0z"/><path d="M8.84 3c.12.09.23.18.33.28l.59.59a2 2 0 0 1 .22.29v.01a9.95 9.95 0 0 0-3.13 3.8 7.09 7.09 0 0 0-.57 1.96c-.07.48-.1.7-.1 1.08v.01h-.02c-.09-.47-.14-.93-.16-1.4v-.57c.09-1.97.76-3.7 2.02-5.19l.5-.58.32-.28Z" fill="#5C954C"/><path d="M7.48 13.53v.01h-.02a8.22 8.22 0 0 1-.34-1.28 7 7 0 0 1 .8-4.82 9.69 9.69 0 0 1 1.61-2.1l.65-.64.15-.11h.04l.57.85a.04.04 0 0 1 0 .05c-.07.08-.16.13-.24.2l-.61.58a9.02 9.02 0 0 0-2.27 3.45 8.07 8.07 0 0 0-.42 2.92l.08.9Z" fill="#00AFEF"/><path d="M8.76 15c-.06-.1-.11-.21-.15-.34a7.25 7.25 0 0 1-.3-3.1c.16-1.43.59-2.79 1.43-3.9a18.96 18.96 0 0 1 1.5-1.65 5.64 5.64 0 0 1 .42 1.1c-.26.23-.55.53-.88.89a7.89 7.89 0 0 0-1.47 2.28c-.08.2-.16.32-.2.48-.04.17-.15.44-.2.66A8.23 8.23 0 0 0 8.77 15Z" fill="#F58634"/><path d="M9.71 14.15H9.7a6.32 6.32 0 0 1 .1-2.85 8.14 8.14 0 0 1 .73-1.86 8.16 8.16 0 0 1 1.33-1.7L12 8.8a.03.03 0 0 1-.01.03 8.27 8.27 0 0 0-2.17 4.32c-.06.3-.06.7-.1.96a.2.2 0 0 1-.01.05Z" fill="#91D8F7"/><path d="M10.31 13.48c.04-.33.16-.7.26-1.03.11-.38.29-.83.43-1.09l.43-.79a1.58 1.58 0 0 1 .18-.27 2.75 2.75 0 0 1 .33-.47c0 .19-.04.38-.09.59a8.27 8.27 0 0 1-1.54 3.06Z" fill="#A9ABAE"/></svg>