<!-- by TradingView --><svg width="56" height="56" viewBox="0 0 56 56" xmlns="http://www.w3.org/2000/svg"><path fill="#F0F3FA" d="M0 0h56v56H0z"/><path d="M17 31v6h-1v-6h1ZM8.02 23.68c-.05-.5-.42-.68-.98-.68-.46 0-.94.14-.95.65 0 .36.26.58.57.7.1.04.21.08.32.1l.49.14c.2.06.38.12.57.21.59.28.96.81.96 1.47C9 27.4 8.07 28 7.02 28c-1.11 0-1.98-.65-2.02-1.81h.93c.04.6.52.81 1.09.81.5 0 1-.17 1-.73 0-.5-.49-.7-.9-.81l-.6-.17c-.76-.22-1.38-.72-1.38-1.57 0-1.06.9-1.72 1.91-1.72.99 0 1.86.65 1.88 1.68h-.91ZM10 28v-6h1v2.54h3V22h1v6h-1v-2.55h-3V28h-1ZM16.98 28H16l1.9-6h1.2l1.9 6h-.9l-1.6-5-1.52 5Zm.1-2h2.84v1h-2.84v-1ZM22 28v-6h1.96c1.14 0 2.04.8 2.04 1.92 0 1.15-.84 2.08-2.05 2.08h-1.4v-1h1.27c.63 0 1.18-.45 1.18-1.08 0-.64-.55-.92-1.18-.92H23v5h-1Zm2.7-2.72L26 28h-1.06l-1.27-2.72h1.03ZM29 37v-6h1.96c1.14 0 2.04.8 2.04 1.92 0 1.15-.84 2.08-2.05 2.08h-1.4v-1h1.27c.63 0 1.18-.45 1.18-1.08 0-.64-.55-.92-1.18-.92H30v5h-1Zm2.7-2.72L33 37h-1.06l-1.27-2.72h1.03ZM27.98 28H27l1.9-6h1.2l1.9 6h-.9l-1.6-5-1.52 5Zm.1-2h2.84v1h-2.84v-1ZM39.98 28H39l1.9-6h1.2l1.9 6h-.9l-1.6-5-1.52 5Zm.1-2h2.84v1h-2.84v-1ZM34.98 37H34l1.9-6h1.2l1.9 6h-.9l-1.6-5-1.52 5Zm.1-2h2.84v1h-2.84v-1ZM38 22v6h-.98L34 23.74V28h-1v-6h.99L37 26.28V22h1ZM23 31v6h-.98L19 32.74V37h-1v-6h.99L22 35.28V31h1ZM45 22h1.27L48 26.35 49.73 22H51v6h-1v-4l-1.63 3.98h-.74L46 24V28h-1v-6ZM24 37v-6h4v1h-3v1.5h2.5v1H25V37h-1Z"/></svg>