<!-- by TradingView --><svg width="18" height="18" viewBox="0 0 18 18" xmlns="http://www.w3.org/2000/svg"><path fill="#002365" d="M0 0h18v18H0z"/><path d="M9 5h4.83c.1 0 .16.06.16.18v7.2c0 .04 0 .07-.02.1a.18.18 0 0 1-.07.06A1781.47 1781.47 0 0 0 9 15a1585.28 1585.28 0 0 0-4.9-2.45.18.18 0 0 1-.07-.07.18.18 0 0 1-.03-.1v-7.2c0-.11.06-.18.17-.18H9Zm-4.61.24a.1.1 0 0 0-.03-.08.12.12 0 0 0-.09-.03.12.12 0 0 0-.08.03.11.11 0 0 0 0 .16.12.12 0 0 0 .2-.04.1.1 0 0 0 0-.04Zm9.47 0a.11.11 0 0 0-.04-.08.12.12 0 0 0-.16 0 .11.11 0 0 0 0 .16.12.12 0 0 0 .16 0 .11.11 0 0 0 .04-.08ZM9 14.64h.05a1460.52 1460.52 0 0 0 4.47-2.32.1.1 0 0 0 .01-.05V5.4l-.01-.05a.14.14 0 0 0-.07-.03h-8.9l-.04.02a.06.06 0 0 0-.04.03v6.89l.01.05A1418.3 1418.3 0 0 0 9 14.64Zm-4.6-2.26a.1.1 0 0 0-.04-.08.12.12 0 0 0-.09-.04.12.12 0 0 0-.08.04.11.11 0 0 0-.03.08c0 .03.01.05.03.07a.12.12 0 0 0 .17 0 .11.11 0 0 0 .03-.07Zm9.45 0a.11.11 0 0 0-.07-.1.12.12 0 0 0-.12.02.1.1 0 0 0 0 .15.12.12 0 0 0 .19-.03.1.1 0 0 0 0-.04ZM9.11 14.8a.1.1 0 0 0-.03-.07.12.12 0 0 0-.16 0 .1.1 0 0 0-.03.12.1.1 0 0 0 .06.05.12.12 0 0 0 .13-.02.1.1 0 0 0 .03-.08Z" fill="#FEFFFF"/><path d="M9 5.52h3.9c.23 0 .25.15.25.35v6.06c0 .14-.06.25-.18.31l-3.82 1.99a.33.33 0 0 1-.15.04.33.33 0 0 1-.15-.04l-3.81-1.99a.32.32 0 0 1-.2-.3V5.87c0-.2.03-.35.26-.35H9Zm0 8.6h.03a1481.65 1481.65 0 0 0 3.96-2.08A.1.1 0 0 0 13 12V5.74c0-.02 0-.03-.02-.04a848.62 848.62 0 0 0-7.96 0 .06.06 0 0 0-.02.03V12l.01.05A1593.02 1593.02 0 0 0 9 14.12Z" fill="#FEFFFF"/><path d="M9.1 6.27c0-.13-.04-.25-.1-.25-.05 0-.1.11-.1.25 0 .13.04.24.1.25.05 0 .1-.11.1-.25ZM8.25 6.53c-.1-.1-.21-.15-.25-.12-.04.04.02.15.12.25.1.1.22.15.26.11.03-.03-.02-.14-.13-.24ZM9.88 6.66c.1-.1.15-.2.11-.24-.04-.04-.15 0-.25.1s-.15.21-.12.25c.04.04.16-.01.26-.1ZM9 6.55l.03.01.03.01c.44.09.68.33.73.74a.07.07 0 0 1-.02.05.08.08 0 0 1-.05.03h-.13a.1.1 0 0 1-.06-.02.09.09 0 0 1-.03-.06c-.04-.26-.22-.45-.5-.45-.29 0-.47.2-.5.46l-.03.06a.1.1 0 0 1-.06.02h-.13a.08.08 0 0 1-.05-.02.07.07 0 0 1-.02-.06c.04-.4.28-.66.71-.75h.04a.1.1 0 0 1 .03-.02ZM7.85 7.28c-.15 0-.27.04-.27.08 0 .05.12.1.27.1.15 0 .27-.04.27-.09 0-.04-.12-.09-.27-.09ZM10.14 7.45c.15 0 .28-.04.27-.09 0-.05-.12-.08-.27-.08-.16 0-.28.05-.28.1 0 .04.13.08.28.07Z" fill="#F1561C"/><path d="m6.66 8.16.49.16c.64.2 1.2.61 1.67 1.21.08.1.12.21.12.32a1906.37 1906.37 0 0 1-.02 2.85.05.05 0 0 1-.05 0 6.94 6.94 0 0 1-2.15-1l-.04.01-.15.14a.03.03 0 0 1-.03.01h-.02v-.02l-.2-.96v-.02h.03l.95.3.01.01.01.02a.03.03 0 0 1 0 .02l-.13.12v.01a.04.04 0 0 0 0 .05 7.35 7.35 0 0 0 1.28.64.03.03 0 0 0 .01-.03v-1.97c0-.17-.04-.26-.16-.39a3.52 3.52 0 0 0-2.93-1.1.05.05 0 0 1-.02-.03v-.8s0-.02.02-.03l.03-.01h3.5l.05.01.01.04v1.16l-.01.01a.03.03 0 0 1-.03 0l-.41-.4a.15.15 0 0 1-.05-.1v-.2a.04.04 0 0 0-.01-.03.05.05 0 0 0-.04-.01H6.65v.01ZM11.36 8.15H9.6V8.4a.15.15 0 0 1-.06.1l-.4.4a.03.03 0 0 1-.03 0l-.01-.02V7.72l.01-.04.04-.01h3.46l.03.01.02.03V8.53a.04.04 0 0 1-.03.02h-.02a3.45 3.45 0 0 0-2.86 1.09c-.11.13-.16.22-.16.4a524.83 524.83 0 0 1 .02 2 .04.04 0 0 0 .03 0 7.16 7.16 0 0 0 1.23-.68v-.03l-.13-.12a.03.03 0 0 1 0-.03.03.03 0 0 1 .01-.02l.95-.3a.02.02 0 0 1 .02 0v.02l-.19.96v.01l-.02.01a.03.03 0 0 1-.03 0l-.15-.15a.06.06 0 0 0-.08 0 6.8 6.8 0 0 1-2.13.99.05.05 0 0 1-.02-.04v-2.8c0-.12.04-.23.11-.33.47-.6 1.02-1 1.66-1.2a14.13 14.13 0 0 0 .48-.18ZM9 13.35h-.02a1.9 1.9 0 0 1-.7-.63.01.01 0 0 1 .02 0c0-.01 0-.01 0 0 .2.05.5.16.7.16.2 0 .5-.11.7-.17l.01.01a1.9 1.9 0 0 1-.68.62H9Z" fill="#FEFFFF"/></svg>