<!-- by TradingView --><svg width="18" height="18" viewBox="0 0 18 18" xmlns="http://www.w3.org/2000/svg"><path fill="#F0F3FA" d="M0 0h18v18H0z"/><path d="M9.67 4c1.17.14 2.13.63 2.9 1.45A5.98 5.98 0 0 1 14 8.42l-.02.01a.02.02 0 0 1-.03 0A3.53 3.53 0 0 0 12.6 6.7a3.93 3.93 0 0 0-2.24-.66c-.82 0-1.55.24-2.18.73a3.89 3.89 0 0 0-1.5 2.94.02.02 0 0 1-.03-.01c-.3-.45-.53-.89-.68-1.32-.4-1.14-.28-2.13.33-2.99A3.54 3.54 0 0 1 8.96 4h.71Z" fill="#F08013"/><path d="M6.03 4.89a3.59 3.59 0 0 0-.8 2.44 3.88 3.88 0 0 0 1.8 3.27c1.15.74 2.38.77 3.7.09h.01a.03.03 0 0 1 .03.02v.03c-.84 1.75-1.95 2.58-3.34 2.5a3.1 3.1 0 0 1-1.75-.73 4.6 4.6 0 0 1-1.5-4.84 6 6 0 0 1 1.84-2.8.02.02 0 0 1 0 .02Z" fill="#E11F1C"/><path d="M7.04 13.48a3.5 3.5 0 0 0 1.97-.15 4.03 4.03 0 0 0 2.56-3.66c.01-1.17-.52-2.21-1.59-3.12A.02.02 0 0 1 10 6.5c.43-.01.83.02 1.2.08 1.43.25 2.3 1.01 2.6 2.3a3.8 3.8 0 0 1-.9 3.45 4.42 4.42 0 0 1-2.72 1.58 5.36 5.36 0 0 1-3.15-.44h.01Z" fill="#FECD0D"/></svg>