<!-- by TradingView --><svg width="56" height="56" viewBox="0 0 56 56" xmlns="http://www.w3.org/2000/svg"><path fill="#F0F3FA" d="M0 0h56v56H0z"/><path d="M44.59 24h1.78l1.88 4.7h.09l1.88-4.7H52v7h-1.4v-4.56h-.06L48.77 31h-.95l-1.77-4.57H46V31h-1.41v-7ZM38.98 31h-1.52l2.31-7h1.83l2.32 7h-1.53l-1.68-5.4h-.05L38.98 31Zm-.1-2.75h3.6v1.15h-3.6v-1.15ZM32 25.22V24h6v1.22h-2.24V31h-1.52v-5.78H32ZM30.2 26.3a1.5 1.5 0 0 0-.2-.43 1.3 1.3 0 0 0-.71-.52 1.7 1.7 0 0 0-.5-.08c-.35 0-.65.09-.9.26a1.7 1.7 0 0 0-.61.76c-.15.33-.22.73-.22 1.2 0 .48.07.88.21 1.21.15.33.35.59.6.76.27.18.58.26.93.26.32 0 .6-.05.82-.17.23-.12.4-.28.53-.5.12-.2.18-.46.18-.75l.29.04H29v-1.08h2.7v.86c0 .6-.13 1.11-.38 1.54-.25.43-.59.76-1.03 1-.43.22-.93.34-1.5.34a2.91 2.91 0 0 1-2.77-1.63 4.08 4.08 0 0 1-.4-1.87c0-.55.08-1.04.24-1.47.16-.44.38-.8.67-1.1.28-.3.62-.54 1-.7.38-.15.79-.23 1.23-.23.38 0 .74.06 1.06.17.33.11.62.27.88.47a2.55 2.55 0 0 1 .93 1.65H30.2ZM20.3 31H18.8l2.32-7h1.82l2.32 7h-1.52l-1.68-5.4h-.06L20.31 31Zm-.09-2.75h3.6v1.15h-3.6v-1.15ZM11.78 31l-1.93-7h1.56l1.1 4.86h.06L13.8 24h1.33l1.22 4.87h.06L17.5 24h1.56l-1.92 7h-1.39l-1.27-4.58h-.06L13.16 31h-1.38ZM7.86 26a.74.74 0 0 0-.34-.57c-.2-.15-.47-.23-.8-.23-.24 0-.44.04-.6.1a.83.83 0 0 0-.36.27.65.65 0 0 0-.13.4c0 .12.02.22.08.31.05.1.13.17.23.24.1.07.21.12.34.17.13.05.27.09.41.12l.6.15c.3.06.57.15.81.26.25.11.46.25.64.41a1.7 1.7 0 0 1 .57 1.33c0 .41-.1.78-.31 1.08a2 2 0 0 1-.9.71c-.38.17-.85.25-1.4.25-.54 0-1.01-.08-1.41-.25-.4-.17-.71-.42-.94-.75A2.26 2.26 0 0 1 4 28.77h1.37c.02.22.08.41.2.57.11.15.27.26.46.34.2.08.41.11.66.11.24 0 .45-.03.62-.1a.96.96 0 0 0 .42-.3c.1-.13.15-.27.15-.44a.57.57 0 0 0-.14-.38c-.08-.1-.21-.2-.38-.27a3.88 3.88 0 0 0-.62-.2L6 27.92a3.05 3.05 0 0 1-1.34-.66c-.33-.3-.5-.7-.5-1.2 0-.41.11-.77.33-1.08.22-.3.52-.55.9-.72.4-.17.83-.26 1.32-.26.5 0 .93.09 1.3.26.38.17.67.41.88.72.2.3.31.61.32 1.02H7.86Z" fill="#4083AB"/></svg>