<!-- by TradingView --><svg width="18" height="18" viewBox="0 0 18 18" xmlns="http://www.w3.org/2000/svg"><path fill="#F0F3FA" d="M0 0h18v18H0z"/><path d="m9.97 6.03.02.01v.02L10 7.29v.01l-.03.01a2.68 2.68 0 0 0-2.49 1.7c-.1.34-.2.63-.2.87V14.41l-.02.01c-.29.18-.6.26-.9.44L6 15V9.75a3.93 3.93 0 0 1 3.97-3.72Zm2.66-.45v.03l.01.01.1.11.04.03a50.5 50.5 0 0 0 .4.53l.07.1.1.18c.07.11.12.2.13.25l.11.24c.03.06.07.14.1.24l.05.13a3.92 3.92 0 0 1 .24 1.17c0 .05 0 .1.02.14v.54l-.1.65c-.02.17-.07.38-.16.64l-.05.15-.11.26-.09.2-.15.27a2.51 2.51 0 0 0-.14.23 5.13 5.13 0 0 1-1.61 1.57l-.4.22h-.01l-.22.1a1.67 1.67 0 0 1-.5.18c-.18.07-.36.13-.56.15l-.76.1a3.1 3.1 0 0 1-.5 0 14 14 0 0 1-.64-.1V12.7h.02c.32.04.54.07.67.07a3.4 3.4 0 0 0 1.51-.22 4.07 4.07 0 0 0 1.8-1.32l.12-.17.16-.26.1-.2c.03-.06.07-.15.1-.26a2 2 0 0 1 .08-.2c.04-.08.07-.19.1-.32A4.26 4.26 0 0 0 12.6 8V5.58h.01Zm-3.3-1.57h.02l.15.01.1.01a5.4 5.4 0 0 0 .4.07v1.22a.02.02 0 0 1-.02 0l-.57-.07c-.34-.01-.69 0-1.04.06a3.7 3.7 0 0 0-2.21 1.3.95.95 0 0 1-.15.16c-.3.45-.56.92-.66 1.45a4.14 4.14 0 0 0 .06 1.84V12.41h-.02a4.78 4.78 0 0 1-.63-.78l-.2-.37-.2-.41a7.1 7.1 0 0 0-.14-.4 2.23 2.23 0 0 1-.1-.4c-.05-.28-.1-.56-.12-.85a6.05 6.05 0 0 1 .41-2.15c.32-.64.68-1.1 1.15-1.65a4.8 4.8 0 0 1 2.91-1.34c.44-.05.72-.07.85-.05Zm2.66-1v5.24c0 .38-.1.75-.2 1.11l-.04.1a4.42 4.42 0 0 1-1.92 2.1 3.9 3.9 0 0 1-1.82.4L8 11.96v-1.23a.03.03 0 0 1 .03-.02c.24-.01.52-.06.83-.14l.35-.15A2.5 2.5 0 0 0 10.51 9c.1-.34.21-.64.22-.88a1478.36 1478.36 0 0 0 .02-4.54.67.67 0 0 1 .2-.08l.04-.02.11-.06.22-.13c.1-.03.21-.08.32-.15L12 3Z" fill="url(#a)"/><defs><linearGradient id="a" x1="6.48" y1="10.74" x2="13.5" y2="9.09" gradientUnits="userSpaceOnUse"><stop stop-color="#50AC90"/><stop offset="1" stop-color="#3769AE"/></linearGradient></defs></svg>