<!-- by TradingView --><svg width="56" height="56" viewBox="0 0 56 56" xmlns="http://www.w3.org/2000/svg"><path fill="#F0F3FA" d="M0 0h56v56H0z"/><path d="M14 40.1V15.08c0-.05.02-.07.07-.07h25.8c.06 0 .1.03.14.07.02.05.03.1 0 .15a24.41 24.41 0 0 1-4.04 5.83 8.8 8.8 0 0 1-1.58 1.35 35.26 35.26 0 0 1-5.25 2.84c-.74.33-2.02 1.05-3.83 2.17a13.04 13.04 0 0 0-5.02 5.64c-.27.55-.7 1.65-1.28 3.28a4.33 4.33 0 0 1-1.3 1.85 10.38 10.38 0 0 1-3.6 2c-.08.01-.11-.02-.11-.09Z" fill="#008C44"/><path d="m16.39 40.8 1.58-1.18c.9-.7 1.68-1.56 2.35-2.6.38-.57.85-1.54 1.42-2.91l.45-1.07a7.03 7.03 0 0 1 2.61-3.19c2.55-1.66 5.44-3.37 8.68-5.1 1.66-.89 3.12-2.07 4.38-3.54a23.6 23.6 0 0 0 3.2-4.87c.2-.4.35-.76.46-1.11a.3.3 0 0 1 .13-.19.25.25 0 0 1 .24-.02c.07.03.11.09.11.17v25.68c0 .08-.04.12-.12.12H16.56c-.14 0-.22-.04-.21-.12 0-.03.01-.05.04-.07Z" fill="#21409A"/></svg>