<!-- by TradingView --><svg width="56" height="56" viewBox="0 0 56 56" xmlns="http://www.w3.org/2000/svg"><path fill="#F0F3FA" d="M0 0h56v56H0z"/><path fill-rule="evenodd" d="M7.83 30.3 5.66 24H4l2.93 8H8.8l2.94-8h-1.66L7.9 30.3h-.08ZM14.5 24v8H13v-8h1.5Zm1.5 0v8h1.5v-2.38l.93-1.05 2.5 3.43h1.8l-3.25-4.41L22.71 24h-1.85l-3.25 3.68h-.11V24H16Zm8.8 8h-1.6l2.93-8H28l2.94 8h-1.62l-.7-2h-3.11l-.7 2Zm2.3-6.36L28.27 29h-2.41l1.17-3.36h.07ZM32 24v8h5v-1h-3.5v-7H32Zm6.5 8v-8h3.13c1.6 0 2.93.8 2.93 2.48 0 1.7-1.35 2.52-2.95 2.52H40v3h-1.5Zm2.9-4H40v-3h1.4c.9 0 1.63.52 1.63 1.48S42.3 28 41.4 28Zm9-2c-.17-.6-.9-.8-1.59-.8-.32 0-.6.04-.82.13-.23.08-.4.2-.53.36a.83.83 0 0 0-.18.52c0 .16.04.3.12.42.08.12.2.22.33.3a5.38 5.38 0 0 0 .98.35l.8.18c.32.07.63.16.92.28.3.11.57.26.8.44A1.8 1.8 0 0 1 52 29.7c0 .45-.13.86-.38 1.2-.25.35-.62.62-1.1.81-.48.2-1.05.29-1.73.29-1.55 0-2.94-.54-3.29-2H47c.33.66 1 .8 1.77.8.34 0 .63-.05.88-.14.26-.1.45-.22.6-.39a.89.89 0 0 0 .22-.58.7.7 0 0 0-.2-.5c-.13-.14-.3-.25-.53-.34-.23-.09-.5-.17-.8-.24l-.96-.23a4.02 4.02 0 0 1-1.65-.75c-.4-.33-.6-.78-.6-1.34 0-.45.13-.86.4-1.2.27-.34.64-.61 1.11-.8.47-.2 1-.29 1.6-.29 1.35 0 3.01.42 3.04 2h-1.47Z"/></svg>