<!-- by TradingView --><svg width="56" height="56" viewBox="0 0 56 56" xmlns="http://www.w3.org/2000/svg"><path fill="#F0F3FA" d="M0 0h56v56H0z"/><path d="M13.68 37.17a.12.12 0 0 0-.04-.1.11.11 0 0 0-.1 0l-1.34.51c-.08.03-.13 0-.16-.07l-.03-.1a.08.08 0 0 1 .02-.08l.02-.02 1.64-.64a.15.15 0 0 0 .07-.06.16.16 0 0 0 .03-.09V13.15c0-.04.01-.08.04-.1a.14.14 0 0 1 .1-.05H42.1c.03 0 .07.01.1.04.02.02.03.06.03.1v3.37c0 .12.06.16.17.12l5.33-2.11c.3-.12.35-.04.16.23-.14.2-.46.4-.67.62l-4.9 5a.28.28 0 0 0-.08.2c-.01 8.3-.02 13.51-.01 15.63 0 .3.1.61.1.92v5.78a.1.1 0 0 1-.02.07.1.1 0 0 1-.07.03H13.8a.11.11 0 0 1-.08-.03.12.12 0 0 1-.04-.09v-5.7Z" fill="#2B2A28"/><path d="M16.27 13.3h-2.1a.09.09 0 0 0-.09.08v2.9c0 .05.03.09.08.09h2.1c.06 0 .1-.04.1-.09v-2.9a.09.09 0 0 0-.09-.08ZM18.8 13.3h-2.05a.11.11 0 0 0-.1.11l-.01 2.85c0 .06.05.11.1.11h2.05c.06 0 .1-.05.1-.1l.01-2.85a.11.11 0 0 0-.1-.12ZM21.36 13.3H19.3a.11.11 0 0 0-.11.12v2.84c0 .06.05.1.11.1h2.05c.06 0 .11-.05.11-.1V13.4a.11.11 0 0 0-.11-.11ZM23.93 13.3h-2.07a.1.1 0 0 0-.1.1v2.86c0 .06.04.1.1.1h2.07a.1.1 0 0 0 .1-.1V13.4a.1.1 0 0 0-.1-.1ZM26.48 13.29h-2.06a.1.1 0 0 0-.1.1v2.87c0 .06.05.1.1.1h2.06a.1.1 0 0 0 .1-.1V13.4a.1.1 0 0 0-.1-.11ZM29.04 13.3h-2.07a.1.1 0 0 0-.1.1l.01 2.88c0 .05.04.1.1.1l2.07-.02a.1.1 0 0 0 .1-.1l-.02-2.87a.1.1 0 0 0-.1-.1ZM31.6 13.3h-2.06a.1.1 0 0 0-.1.1l-.01 2.86c0 .06.04.1.1.1h2.07a.1.1 0 0 0 .1-.1V13.4a.1.1 0 0 0-.1-.1ZM34.14 13.3h-2.03a.11.11 0 0 0-.11.12v2.83c0 .06.05.11.11.11h2.04c.06 0 .11-.05.11-.12v-2.83a.11.11 0 0 0-.12-.11ZM36.69 13.3h-2.03a.1.1 0 0 0-.1.12v2.84c0 .06.06.1.12.1h2.02a.1.1 0 0 0 .1-.1V13.4a.1.1 0 0 0-.11-.11ZM39.25 13.3h-2.03a.11.11 0 0 0-.12.12v2.83c0 .07.06.12.12.12h2.04c.06 0 .1-.06.1-.12v-2.83a.11.11 0 0 0-.1-.12ZM41.83 13.3h-2.05a.1.1 0 0 0-.1.1v2.86c0 .06.04.1.1.1h2.05a.1.1 0 0 0 .1-.1V13.4a.1.1 0 0 0-.1-.1Z" fill="#F0F3FA"/><path d="m36.33 23.25-2.23-.37a.07.07 0 0 1-.05-.04.1.1 0 0 1-.01-.07.2.2 0 0 1 .04-.08.23.23 0 0 1 .07-.06l9.2-5.23c.97-.66 1.94-1.21 2.9-1.68.22-.1.24-.07.06.1-2.65 2.51-5.23 4.98-7.74 7.4-.3.29-.57.4-1 .3l-1.24-.27Z" fill="#E32026"/><path d="M16.27 16.67h-2.1a.09.09 0 0 0-.09.09v2.9c0 .06.04.1.09.1h2.1c.04 0 .08-.04.08-.1v-2.9c0-.05-.04-.1-.08-.1ZM18.82 16.67H16.7a.07.07 0 0 0-.06.07v2.95c0 .04.03.07.07.07h2.12c.04 0 .07-.03.07-.07v-2.95a.07.07 0 0 0-.08-.07ZM21.36 16.67h-2.05a.1.1 0 0 0-.1.1v2.88c0 .05.04.1.1.1h2.05a.1.1 0 0 0 .1-.1v-2.87a.1.1 0 0 0-.1-.1ZM23.92 16.68h-2.06a.1.1 0 0 0-.1.1v2.87c0 .06.04.1.1.1h2.06a.1.1 0 0 0 .1-.1v-2.87a.1.1 0 0 0-.1-.1ZM26.48 16.67h-2.06a.1.1 0 0 0-.1.1v2.89c0 .05.05.1.1.1l2.06-.01a.1.1 0 0 0 .1-.1v-2.88a.1.1 0 0 0-.1-.1ZM29.03 16.67h-2.04a.1.1 0 0 0-.1.1v2.88c0 .05.05.1.1.1h2.04a.1.1 0 0 0 .1-.1v-2.88a.1.1 0 0 0-.1-.1ZM31.58 16.68h-2.03a.12.12 0 0 0-.12.13v2.82c0 .07.06.12.12.12h2.03c.07 0 .12-.05.12-.12V16.8a.12.12 0 0 0-.12-.13ZM34.15 16.68h-2.04a.1.1 0 0 0-.1.1v2.87c0 .05.04.1.1.1h2.04a.1.1 0 0 0 .1-.1v-2.86a.1.1 0 0 0-.1-.1ZM34.65 16.68h2.07c.02 0 .04 0 .06.02l.02.06.02 2a.08.08 0 0 1-.06.07l-2.1.83a.08.08 0 0 1-.1-.03.08.08 0 0 1 0-.04l.01-2.83.02-.06a.08.08 0 0 1 .06-.02ZM37.2 16.68l2.07-.01a.1.1 0 0 1 .07.03.1.1 0 0 1 .03.07v.97a.1.1 0 0 1-.07.1l-2.05.8a.1.1 0 0 1-.1 0 .1.1 0 0 1-.04-.09v-1.77a.1.1 0 0 1 .03-.07.1.1 0 0 1 .07-.03ZM39.74 16.68h2.12c.02 0 .03 0 .05.02a.08.08 0 0 1-.03.13l-2.1.83h-.04a.07.07 0 0 1-.06-.04l-.01-.03v-.84c0-.02 0-.03.02-.05a.07.07 0 0 1 .05-.02Z" fill="#F0F3FA"/><path d="M42.74 16.99c-1.19.56-2.37 1.14-3.55 1.74l-9.65 4.93c-.68.34-1.26.22-1.99.24a3.3 3.3 0 0 0-1.86.13l-.27-.06h.14c.1 0 .15-.05.17-.14.04-.14.03-.21-.04-.22-.21-.02-.21-.08 0-.16l16.96-6.63h.04c.23.08.25.14.05.17Z" fill="#E32026"/><path d="M42.74 16.98c.03.24.23.38.6.42l-9.2 5.23a.23.23 0 0 0-.06.06.2.2 0 0 0-.04.08l.01.07.05.04 2.23.37a.4.4 0 0 0-.08.05c-.02.03-.03.05-.02.09 0 .03.02.08.05.12l-2.44-.44a.39.39 0 0 0-.26.04.4.4 0 0 0-.18.2l-1.74 4.41-.17.01c0-.2.01-.34.05-.44a67.6 67.6 0 0 0 1.57-4.02c.14-.43.5-.63.85-.83 2.53-1.47 5.08-2.93 7.63-4.38.03-.01.04-.04.03-.07l-.02-.07-.01-.01h-.01c-1.88.93-3.74 1.86-5.59 2.8-.33.18-.74.37-1.22.6-.65.3-1.05.5-1.23.59-1.33.7-2.67 1.38-4.02 2.05-.17.08-.2.22-.11.41l-1.86-.46c.73-.02 1.3.1 1.99-.24l9.65-4.93c1.18-.6 2.36-1.18 3.55-1.75Z" fill="#50201E"/><path d="M31.5 27.73a.35.35 0 0 1-.13.17c-.08.05-.14.04-.18-.05l-1.79-3.49c-.09-.19-.05-.33.12-.41 1.35-.67 2.69-1.35 4.02-2.05.18-.09.58-.29 1.23-.59.48-.23.89-.42 1.22-.6a641.55 641.55 0 0 1 5.6-2.8l.01.01.02.07c0 .03 0 .06-.03.07-2.55 1.45-5.1 2.9-7.63 4.38-.34.2-.7.4-.85.83-.29.85-.8 2.2-1.57 4.02-.04.1-.06.25-.05.44Z" fill="#E32026"/><path d="M16.25 20.05h-2.06a.1.1 0 0 0-.1.1v2.87c0 .06.04.1.1.1h2.06a.1.1 0 0 0 .1-.1v-2.87a.1.1 0 0 0-.1-.1ZM18.78 20.05h-2.02a.12.12 0 0 0-.12.12V23c0 .07.06.12.12.12h2.02c.06 0 .11-.05.11-.12v-2.84a.12.12 0 0 0-.11-.12ZM21.36 20.05H19.3a.1.1 0 0 0-.1.1v2.87c0 .06.04.1.1.1h2.05a.1.1 0 0 0 .1-.1v-2.86a.1.1 0 0 0-.1-.11ZM23.93 20.05h-2.07a.1.1 0 0 0-.1.1v2.88c0 .05.04.1.1.1h2.06a.1.1 0 0 0 .1-.1v-2.87a.1.1 0 0 0-.1-.1ZM24.4 20.05h2.1c.05 0 .08.03.08.08v2.36c0 .29-.14.46-.41.54-.22.05-.7.1-1.43.12-.28.01-.42-.13-.42-.4v-2.6c0-.03 0-.05.02-.07a.09.09 0 0 1 .07-.03ZM26.99 20.05h2.03a.1.1 0 0 1 .08.03.1.1 0 0 1 .03.08v1.6a.1.1 0 0 1-.06.1l-2.04.82a.1.1 0 0 1-.1-.01.1.1 0 0 1-.04-.1v-2.41a.1.1 0 0 1 .1-.1ZM29.55 20.06h2.04a.11.11 0 0 1 .1.07l.02.04-.01.58c0 .02 0 .05-.02.07a.11.11 0 0 1-.05.04l-2.05.8a.11.11 0 0 1-.14-.05.12.12 0 0 1-.01-.06v-1.38c0-.03.02-.06.04-.08a.11.11 0 0 1 .08-.03ZM32.19 20.05h.97c.33 0 .34.07.04.2l-1.02.39c-.12.04-.19 0-.19-.14v-.26c0-.13.07-.2.2-.2ZM41.93 20.97v2.07l-.03.06a.08.08 0 0 1-.06.02h-2.07a.08.08 0 0 1-.01-.13l2.03-2.08a.08.08 0 0 1 .13.01l.01.05Z" fill="#F0F3FA"/><path d="M36.28 23.51c.16 0 .28.03.35.08.07.06.07.12 0 .18a460.73 460.73 0 0 1-4.86 3.99c-.03.02-.07.01-.1-.04l1.73-4.4a.4.4 0 0 1 .18-.2.39.39 0 0 1 .26-.05l2.44.44Z" fill="#E32026"/><path d="M24.63 23.42c.08-.04.15-.05.22-.01.08.04.08.07 0 .1l-.39.16c-.13.05-.17 0-.12-.13.04-.12.14-.16.3-.12ZM41.83 23.43h-2.06a.1.1 0 0 0-.1.11v2.86c0 .06.05.1.1.1h2.06a.1.1 0 0 0 .1-.1v-2.86a.1.1 0 0 0-.1-.1ZM16.24 23.44h-2.03a.11.11 0 0 0-.12.11v2.84c0 .06.05.11.11.11h2.03c.07 0 .12-.04.12-.1v-2.84a.11.11 0 0 0-.11-.12ZM18.8 23.44h-2.07a.09.09 0 0 0-.08.09v2.89c0 .05.04.09.08.09h2.08c.04 0 .08-.04.08-.1v-2.88a.09.09 0 0 0-.08-.09ZM21.36 23.44h-2.04a.11.11 0 0 0-.11.1v2.85c0 .07.04.12.1.12h2.04c.06 0 .11-.05.11-.11v-2.85a.11.11 0 0 0-.1-.11ZM23.93 23.44h-2.07a.1.1 0 0 0-.1.1v2.87c0 .05.04.1.1.1h2.06a.1.1 0 0 0 .1-.1v-2.87a.1.1 0 0 0-.1-.1ZM37.9 24.88l1.34-1.38a.08.08 0 0 1 .09-.01.08.08 0 0 1 .04.07v2.87c0 .02-.02.04-.03.05a.08.08 0 0 1-.06.03h-2.1c-.02 0-.04-.02-.05-.03a.08.08 0 0 1-.02-.06v-1.57a.08.08 0 0 1 .06-.07h.04l.62.12a.08.08 0 0 0 .07-.02ZM25.42 23.97l.27.06-1.23.56c-.1.04-.14.01-.14-.1v-.44c0-.09.04-.13.13-.13l.97.05ZM34.7 26.44l1.97-1.63c.1-.08.15-.06.15.07v1.5c0 .09-.04.13-.12.13h-1.97c-.07 0-.08-.02-.02-.07ZM26.48 25.07l-2.04-.03a.1.1 0 0 0-.1.1l-.03 1.24c0 .06.05.1.1.1l2.04.04a.1.1 0 0 0 .1-.1l.03-1.24a.1.1 0 0 0-.1-.1ZM27.04 25.11l1.62.08a.15.15 0 0 1 .14.1l.38.99a.16.16 0 0 1-.07.2.15.15 0 0 1-.08.02l-2 .01a.15.15 0 0 1-.1-.05.16.16 0 0 1-.05-.1v-1.09a.16.16 0 0 1 .1-.15h.06ZM16.24 26.81H14.2a.1.1 0 0 0-.1.11v2.86c0 .06.04.11.1.11h2.04a.1.1 0 0 0 .11-.1v-2.87a.1.1 0 0 0-.1-.1ZM18.77 27.96c-.82.33-1.49 1-1.85 1.75-.18.37-.27.35-.27-.07v-2.6c0-.15.07-.23.23-.23h1.76c.17 0 .26.09.26.26v.7c0 .1-.04.16-.13.2ZM21.33 27.92a4.5 4.5 0 0 0-2.03-.11c-.06 0-.1-.02-.1-.08v-.81c0-.07.04-.1.1-.1h2.03c.1 0 .14.04.14.13v.86a.12.12 0 0 1-.05.1.1.1 0 0 1-.09.01ZM22.95 29.7c.05-.75-.39-1.3-1.1-1.62a.17.17 0 0 1-.1-.17v-.83c0-.18.09-.27.26-.27h1.72c.2 0 .3.1.3.3v2.62c0 .11-.07.17-.18.17h-.71c-.14 0-.2-.07-.19-.2ZM26.47 26.82h-2.03a.11.11 0 0 0-.11.1v2.86c0 .07.04.12.1.12h2.03c.06 0 .11-.05.11-.11v-2.86a.11.11 0 0 0-.1-.11ZM29.03 26.81H27a.1.1 0 0 0-.1.11v2.87c0 .06.05.1.1.1h2.05a.1.1 0 0 0 .1-.1v-2.87a.1.1 0 0 0-.1-.1ZM29.43 29.71v-2.76a.1.1 0 0 1 .08-.09h.05a.1.1 0 0 1 .05.05l1.12 2.2a.1.1 0 0 1 0 .07.1.1 0 0 1-.04.06l-1.13.56a.09.09 0 0 1-.09 0 .1.1 0 0 1-.04-.08ZM36.7 26.81h-2.02a.12.12 0 0 0-.12.13v2.84c0 .06.06.12.12.12h2.01c.07 0 .12-.06.12-.12v-2.84a.12.12 0 0 0-.12-.13ZM39.24 26.81h-2a.13.13 0 0 0-.13.13v2.83c0 .07.06.13.13.13h2c.07 0 .13-.06.13-.14v-2.82a.13.13 0 0 0-.13-.13ZM41.81 26.81h-2.03a.11.11 0 0 0-.11.12v2.85c0 .06.05.11.11.11h2.03c.06 0 .12-.05.12-.11v-2.85a.11.11 0 0 0-.12-.12ZM34.17 29.9H32.1l-.06-.03a.08.08 0 0 1-.02-.06v-1.1a.09.09 0 0 1 .03-.06l2.08-1.73a.08.08 0 0 1 .1-.01.08.08 0 0 1 .04.07v2.84c0 .02-.02.04-.03.05a.08.08 0 0 1-.06.03ZM19.32 29.88a.14.14 0 0 1-.13-.1.15.15 0 0 1-.01-.05l.02-1.3c0-.1.08-.2.22-.27.13-.07.31-.11.5-.1h.86c.09 0 .18.02.27.04.08.02.16.05.23.1.06.03.11.07.15.12.03.05.05.1.05.15l-.03 1.3a.15.15 0 0 1-.04.1.14.14 0 0 1-.1.05l-1.99-.04Z" fill="#F0F3FA"/><path d="m17.86 28.87.83-.56a.13.13 0 0 1 .19.04l.01.07v1.35c0 .04 0 .07-.03.1a.13.13 0 0 1-.1.03h-1.4a.13.13 0 0 1-.12-.07.14.14 0 0 1 0-.14l.59-.79.03-.03ZM22.54 29.01l.15.72a.13.13 0 0 1-.07.13.13.13 0 0 1-.05.02l-.68.02a.12.12 0 0 1-.1-.03.13.13 0 0 1-.03-.1l-.01-1.23a.13.13 0 0 1 .07-.12.12.12 0 0 1 .14.03l.54.5c.02.01.04.04.04.06ZM31.57 29.9h-1.3l-.04-.03a.08.08 0 0 1 .02-.13c.55-.15.97-.39 1.28-.7.08-.08.13-.06.15.06.05.25.05.47.02.68-.01.08-.06.11-.13.11ZM16.25 30.2l-2.07.01a.1.1 0 0 0-.1.1l.01 2.88c0 .05.04.1.1.1l2.06-.01a.1.1 0 0 0 .1-.1V30.3a.1.1 0 0 0-.1-.1ZM17.16 30.2h1.6c.1 0 .14.05.14.15v2.26c0 .47-.2.6-.62.41l-.77-.35c-.44-.2-.68-.55-.71-1.03-.04-.5.02-.94.2-1.32a.2.2 0 0 1 .06-.08.19.19 0 0 1 .1-.03ZM19.2 33.02v-2.75c0-.04.02-.06.07-.06h2.14c.04 0 .06.02.06.06v1.83c0 .09-.03.17-.1.23-.15.18-.3.34-.47.5-.35.34-1.09.31-1.58.3a.11.11 0 0 1-.08-.03.12.12 0 0 1-.04-.08ZM22.58 30.36l-.65 1.4a.1.1 0 0 1-.17.02.1.1 0 0 1-.02-.06l.02-1.43a.1.1 0 0 1 .03-.07.1.1 0 0 1 .07-.02l.64.02a.1.1 0 0 1 .08.05.1.1 0 0 1 0 .1ZM22.9 30.25l.02-.03.04-.01h.93c.08 0 .13.04.13.13v1.7c0 .08-.04.14-.13.17-.45.17-.99.34-1.63.51-.59.16-.7 0-.34-.5.42-.59.75-1.24.98-1.97ZM24.4 30.22l2.09-.02a.09.09 0 0 1 .06.03.09.09 0 0 1 .02.06l-.01.83a.09.09 0 0 1-.05.08l-2.06.84a.09.09 0 0 1-.11-.04.09.09 0 0 1-.01-.04V30.3c0-.03 0-.05.02-.07a.09.09 0 0 1 .06-.02ZM26.88 30.7a3.35 3.35 0 0 1-.01-.35c0-.1.04-.14.13-.14h1.43c.12 0 .13.03.02.1a9.8 9.8 0 0 1-1.44.64c-.08.03-.13 0-.14-.08v-.08a1 1 0 0 0 0-.08ZM31.58 30.2l-2.04.01a.12.12 0 0 0-.11.12v2.83c0 .07.05.12.12.12h2.04c.06 0 .11-.06.11-.12v-2.83a.12.12 0 0 0-.12-.12ZM34.13 30.21h-2a.13.13 0 0 0-.13.13v2.8c0 .08.06.13.13.13h2c.07 0 .12-.05.12-.12v-2.8a.13.13 0 0 0-.12-.14ZM36.7 30.2h-2.03a.1.1 0 0 0-.1.12v2.85c0 .06.05.1.1.1h2.03a.1.1 0 0 0 .1-.1V30.3a.1.1 0 0 0-.1-.1ZM39.26 30.2l-2.04.01a.1.1 0 0 0-.11.11v2.85c0 .06.05.1.11.1h2.04a.1.1 0 0 0 .1-.1v-2.85a.1.1 0 0 0-.1-.11ZM41.83 30.2h-2.05a.1.1 0 0 0-.1.1l-.01 2.87c0 .06.04.1.1.1h2.05a.1.1 0 0 0 .1-.1l.01-2.86a.1.1 0 0 0-.1-.1ZM29.13 30.47v2.72c0 .02 0 .04-.02.06a.08.08 0 0 1-.06.02h-2.08c-.02 0-.04 0-.06-.02a.08.08 0 0 1-.02-.05v-1.77a.08.08 0 0 1 .05-.07l2.08-.97a.08.08 0 0 1 .1.04l.01.04ZM26.49 33.28h-2.07l-.06-.03a.08.08 0 0 1-.02-.06l-.02-.73a.08.08 0 0 1 .05-.08l2.1-.82a.08.08 0 0 1 .1.04l.02.04-.02 1.55c0 .03 0 .05-.02.06a.08.08 0 0 1-.06.03ZM16.72 32.37c.3.36.66.64 1.08.83.12.05.12.08-.02.08h-.98c-.1 0-.16-.05-.16-.16v-.72c0-.08.03-.1.08-.03ZM24.03 32.65v.48c0 .1-.05.14-.14.14l-1.98.01c-.03 0-.06 0-.07-.03a.08.08 0 0 1-.02-.06l.03-.03 2.03-.62c.1-.03.15.01.15.11ZM21.49 32.83c-.12.04-.14 0-.07-.1l.06-.01c.04 0 .05.02.05.06 0 .03-.02.05-.04.05ZM14.2 33.58h2.05a.1.1 0 0 1 .07.03.1.1 0 0 1 .02.07l.01 1.85a.1.1 0 0 1-.06.1l-2.06.86a.1.1 0 0 1-.1 0 .1.1 0 0 1-.04-.08v-2.73a.1.1 0 0 1 .03-.07.1.1 0 0 1 .07-.03ZM16.76 33.57h2.02a.11.11 0 0 1 .1.08l.01.04v.55a.12.12 0 0 1-.07.1l-2.01 1.06a.11.11 0 0 1-.15-.05.12.12 0 0 1-.02-.06v-1.6c0-.03.02-.06.04-.08a.11.11 0 0 1 .08-.04ZM19.2 33.93v-.2c0-.1.06-.15.16-.15h.36c.11 0 .13.04.05.12a1.4 1.4 0 0 1-.44.32c-.08.03-.12 0-.12-.09ZM19.2 36.57v-2c0-.03.01-.07.03-.1a.21.21 0 0 1 .07-.08l.93-.64c.37-.27.67-.15 1.1-.17a.13.13 0 0 1 .1.03.13.13 0 0 1 .04.1v2.86c0 .06-.03.09-.08.09h-2.1c-.03 0-.05-.01-.06-.03a.09.09 0 0 1-.03-.06ZM23.94 33.57h-2.1a.09.09 0 0 0-.08.09v2.9c0 .05.03.09.08.09h2.1c.04 0 .08-.04.08-.09v-2.9c0-.05-.03-.09-.08-.09ZM26.47 33.58h-2.05a.1.1 0 0 0-.1.1v2.87c0 .06.05.1.1.1h2.05a.1.1 0 0 0 .1-.1v-2.86a.1.1 0 0 0-.1-.11ZM29.04 33.58h-2.06a.1.1 0 0 0-.1.1v2.88c0 .05.05.1.1.1h2.06a.1.1 0 0 0 .1-.1v-2.89a.1.1 0 0 0-.1-.1ZM31.6 33.58h-2.07a.1.1 0 0 0-.1.1v2.88c0 .05.04.1.09.1h2.08a.1.1 0 0 0 .1-.1v-2.88a.1.1 0 0 0-.1-.1ZM34.15 33.58H32.1a.1.1 0 0 0-.11.12v2.85c0 .06.05.11.11.11h2.04a.1.1 0 0 0 .1-.11v-2.86a.1.1 0 0 0-.1-.1ZM36.72 33.58h-2.06a.1.1 0 0 0-.1.1v2.88c0 .05.05.1.1.1h2.06a.1.1 0 0 0 .09-.1v-2.88a.1.1 0 0 0-.1-.1ZM39.24 33.58h-2a.12.12 0 0 0-.13.13v2.82c0 .07.06.13.13.13h2c.07 0 .13-.06.13-.13V33.7a.12.12 0 0 0-.13-.12ZM41.84 33.58h-2.08a.09.09 0 0 0-.09.1v2.88c0 .05.05.1.1.1h2.08c.05 0 .09-.05.09-.1l-.01-2.9c0-.04-.04-.08-.09-.08ZM18.82 36.65l-2.1.01a.07.07 0 0 1-.05-.02.08.08 0 0 1-.02-.06l-.02-.71a.08.08 0 0 1 .04-.07l2.12-1.11a.07.07 0 0 1 .07 0 .08.08 0 0 1 .04.07v1.82c0 .02-.02.04-.03.05a.07.07 0 0 1-.05.02ZM14.88 36.56l1.32-.58c.07-.04.12 0 .14.08.02.16.02.32 0 .48-.02.08-.06.12-.14.12h-1.3c-.16 0-.17-.03-.02-.1ZM18.63 39.3c-.22-.58-.83-.56-1.02.05-.13.4-.13.85-.01 1.34.03.14.11.26.23.34.11.07.25.1.38.06.25-.06.4-.28.48-.67 0-.04.03-.05.07-.04l.7.26c.03.01.04.04.04.08-.14.77-.53 1.19-1.17 1.26-.79.1-1.31-.22-1.57-.96-.4-1.1-.2-2.84 1.12-3 .82-.1 1.34.25 1.56 1.05a.15.15 0 0 1-.01.1l-.03.04a.12.12 0 0 1-.05.02l-.53.17c-.1.03-.16 0-.2-.1ZM25.3 40.3c.02 0 .18-.72.47-2.16.02-.1.07-.14.15-.14h.97c.07 0 .1.04.1.12v3.76c0 .03 0 .06-.03.08a.1.1 0 0 1-.07.04h-.55c-.08 0-.11-.04-.11-.13v-2.33c-.02-.3-.05-.3-.1 0l-.45 2.28c-.01.1-.07.16-.16.17a1.95 1.95 0 0 1-.43 0c-.1-.01-.15-.07-.17-.17l-.44-2.29c-.06-.3-.09-.3-.1 0-.02.77-.02 1.54 0 2.33 0 .1-.04.14-.12.14h-.54a.1.1 0 0 1-.08-.04.13.13 0 0 1-.03-.09v-3.75c0-.08.04-.12.1-.12h.97c.09 0 .14.05.16.14.29 1.44.44 2.16.46 2.16ZM28.39 40.47v1.39c0 .03 0 .06-.03.08-.02.02-.05.06-.08.06h-.7a.1.1 0 0 1-.05 0 .11.11 0 0 1-.04-.04.14.14 0 0 1-.03-.09v-3.75c0-.03.01-.06.03-.08a.1.1 0 0 1 .08-.04h2.09a.1.1 0 0 1 .04.01c.02 0 .03.02.04.03l.02.04.01.05-.03.61c0 .03-.01.06-.03.08a.1.1 0 0 1-.08.04H28.5a.1.1 0 0 0-.04.01.11.11 0 0 0-.04.03.13.13 0 0 0-.03.1l.02.45c0 .04.01.07.03.09a.1.1 0 0 0 .08.03l.94-.02a.1.1 0 0 1 .04 0l.04.03.02.04.01.05v.58a.13.13 0 0 1-.03.08.11.11 0 0 1-.04.03.1.1 0 0 1-.04 0l-.95-.01a.1.1 0 0 0-.04 0 .11.11 0 0 0-.04.04.14.14 0 0 0-.03.09ZM39.49 38c.1 0 .15.06.15.17v.66c0 .04-.02.09-.04.12a.14.14 0 0 1-.11.05h-.69c-.08 0-.12.04-.12.13v2.74c0 .08-.05.12-.15.13a9.08 9.08 0 0 1-.62 0c-.1-.01-.16-.05-.16-.13v-2.74c0-.09-.03-.13-.11-.13h-.69a.15.15 0 0 1-.1-.05.18.18 0 0 1-.05-.12v-.66c0-.11.05-.17.16-.17h2.53Z" fill="#F0F3FA"/><path fill-rule="evenodd" d="M36.7 41.93a3.92 3.92 0 0 0-.74-1.57c-.07-.08-.06-.15.02-.2.5-.34.64-.84.44-1.53-.1-.33-.27-.52-.51-.58-.18-.05-.84-.06-1.98-.04-.1 0-.14.05-.14.16v3.69c0 .1.04.14.12.14h.72c.07 0 .1-.04.1-.12-.01-.4-.02-.86 0-1.35 0-.19.1-.2.31-.05.03.02.06.05.07.08l.55 1.35c.01.03.03.05.05.06.02.02.05.03.07.03h.87c.04 0 .05-.03.04-.07Zm-1.99-3.05v.05l.02.59a.13.13 0 0 0 .03.08.1.1 0 0 0 .08.03l.36-.01c.1 0 .2-.04.26-.1.07-.07.1-.16.1-.25v-.16a.3.3 0 0 0-.03-.13.33.33 0 0 0-.09-.1.39.39 0 0 0-.12-.07.43.43 0 0 0-.15-.02l-.36.01a.1.1 0 0 0-.04.01.1.1 0 0 0-.04.03l-.02.04Z" fill="#F0F3FA"/><path d="M20.29 41.42c.3.37.71.58 1.13.58.21 0 .42-.05.62-.16.19-.1.37-.25.51-.43.15-.19.27-.41.35-.65a2.44 2.44 0 0 0-.36-2.18c-.3-.37-.71-.58-1.14-.58-.2 0-.41.05-.6.16-.2.1-.38.25-.52.43-.15.19-.27.41-.35.65a2.44 2.44 0 0 0 .36 2.18Zm1.12-.3c-.36 0-.66-.5-.66-1.11 0-.61.3-1.1.66-1.1.37 0 .66.49.66 1.1 0 .6-.3 1.1-.66 1.1ZM30.58 41.41c.3.38.7.59 1.13.59.43 0 .83-.21 1.13-.59.3-.37.47-.88.47-1.41 0-.53-.17-1.04-.47-1.41-.3-.38-.7-.59-1.13-.59-.42 0-.83.21-1.13.59-.3.37-.47.88-.47 1.41 0 .53.17 1.04.47 1.41Zm1.13-.3c-.36 0-.66-.49-.65-1.1 0-.61.3-1.1.66-1.1.36 0 .65.49.65 1.1 0 .61-.3 1.1-.66 1.1Z" fill="#F0F3FA"/></svg>