<!-- by TradingView --><svg width="56" height="56" viewBox="0 0 56 56" xmlns="http://www.w3.org/2000/svg"><path fill="#F0F3FA" d="M0 0h56v56H0z"/><path d="M31.45 29.64a.38.38 0 0 1-.13.26.32.32 0 0 1-.27.07h-.01a.47.47 0 0 1-.28-.18.53.53 0 0 1-.11-.32v-.1c0-.36 0-.64.05-.83.34-1.67.64-3.13.87-4.38.01-.05.04-.1.07-.13a.23.23 0 0 1 .12-.07c.05 0 .1 0 .14.02.04.01.08.05.1.09.2.3.28.62.26.98-.01.22-.09.58-.22 1.08l-.12.43c-.25.99-.4 2.01-.47 3.08ZM38.87 24.9l.03.17-.05.69-.14.92v.02a.02.02 0 0 0 .01.02h.01c.62-.17.72-.08.98.03.05.15-.02.3-.23.45-.04.02-.06.05-.07.08a.35.35 0 0 0-.07.12c0-.03-.02-.04-.04-.04a.03.03 0 0 0-.02 0 1.8 1.8 0 0 1-.86.26.09.09 0 0 0-.05.03.1.1 0 0 0-.03.05l-.07.59c-.02.1-.02.18 0 .22l-.22 1.33c0 .02 0 .04-.02.05a.1.1 0 0 1-.05.04c-.42.14-.64-.03-.64-.5a6.75 6.75 0 0 1 .07-1.49l-.02-.01h-.03c-.2.1-.46.07-.76-.06a.17.17 0 0 1-.06-.05.19.19 0 0 1 .02-.24l.2-.2a.3.3 0 0 1 .1-.06l.65-.26c.02 0 .03-.02.05-.03a.13.13 0 0 0 .02-.05c.38-1.18.1-.37.64-2.44.16-.68.73-.43.65.35ZM26.1 28.92l.02-.02.01-.03a.06.06 0 0 0-.02-.05c-.48-.38-.94-.8-1.4-1.25-.48-.5-.52-.93-.12-1.3a6.06 6.06 0 0 1 2.33-1.3.25.25 0 0 1 .24.05c.03.03.06.06.07.1a.3.3 0 0 1 .02.14v.02c0 .12-.04.23-.11.32a.53.53 0 0 1-.26.19 4 4 0 0 0-1.82 1.23.1.1 0 0 0 0 .07l.02.04c.4.4.84.7 1.31.94.03.01.06.04.07.07l.33.6a.3.3 0 0 1 .03.24c-.1.31-.24.55-.44.72a.28.28 0 0 1-.13.06l-.42.08c-.93.19-1.56.09-1.9-.3a.13.13 0 0 1-.02-.11c0-.02.01-.04.03-.05a.11.11 0 0 1 .05-.04l.52-.18a3.32 3.32 0 0 0 1.59-.25Z" fill="#767777"/><path d="M13.36 26c.02 0 .04.02.04.04v3.92c0 .02-.01.04-.03.04h-.33c-.02 0-.03-.02-.03-.04L13 26.04c0-.02.02-.04.03-.04h.33Zm4.6 0c.02 0 .04.02.04.04v3.92c0 .02-.01.04-.03.04h-.33c-.02 0-.03-.02-.03-.04l-.01-3.92c0-.02.02-.04.03-.04h.33ZM4.41 26l.01.01a.05.05 0 0 1 .01.04v3.4l.02.02.02.01h.92c.01 0 .02 0 .02.02l.01.02V30a.04.04 0 0 1-.03.01L4 29.94v-.07l.01-3.81.02-.04a.05.05 0 0 1 .04-.02h.34Zm3.36.01c.2.04.37.12.53.25.17.13.3.3.41.5.11.21.19.45.22.7a2.69 2.69 0 0 1-.21 1.52c-.11.23-.25.43-.4.6-.17.16-.35.28-.54.35a1.12 1.12 0 0 1-1.1-.19c-.17-.13-.3-.3-.41-.5-.11-.21-.19-.45-.23-.7a2.69 2.69 0 0 1 .22-1.52c.1-.23.25-.43.4-.6.17-.16.35-.28.54-.35.19-.07.38-.09.57-.06Zm12.53 0a.06.06 0 0 1 .04.03v.37c0 .02 0 .04-.02.05a.06.06 0 0 1-.04.02h-.82c-.02 0-.04 0-.05.02a.07.07 0 0 0-.01.05v1.23a.08.08 0 0 0 .01.05l.03.01h.02l.7-.05h.02a.06.06 0 0 1 .03.04v.02l.03.33a.07.07 0 0 1-.02.05c0 .01 0 .02-.02.02h-.74c-.02 0-.04.01-.05.03a.07.07 0 0 0-.01.04v1.16l.01.05.05.02h.9s.02 0 .03.02c.02.01.02.03.02.05v.31c0 .02 0 .04-.02.05a.06.06 0 0 1-.04.02h-1.29c-.01 0-.03 0-.04-.02a.07.07 0 0 1-.02-.05v-3.76c0-.02 0-.04.02-.05a.06.06 0 0 1 .04-.02l1.22-.1h.02Zm1.7 0 .01.02V29.46s0 .02.02.03l.02.01h.91l.03.01.01.03v.42l-.01.03-.03.01h-1.3l-.03-.01V26l.03-.01h.33Zm-5.67.02a.05.05 0 0 1 .01.04l.03.41v.02h-.01c-.85.2-1.37.7-1.55 1.46-.14.55 0 .97.4 1.28a1.37 1.37 0 0 0 1.29.21h.01l.01.02v.02l.03.4v.03l-.03.02c-.6.1-1.09.01-1.46-.23a1.5 1.5 0 0 1-.7-1.32c0-.53.17-1.02.53-1.48a2.47 2.47 0 0 1 1.42-.89l.02.01Zm-4.8 0 .01.02.01.03.03.38c0 .02 0 .03-.02.04 0 .02-.01.02-.03.03-.49.15-.89.44-1.2.9-.36.5-.43 1-.22 1.5.2.48.62.68 1.27.6.04 0 .07-.02.09-.04a.16.16 0 0 0 .03-.1v-1.1c0-.02 0-.03.02-.04l.03-.02h.3c.01 0 .03 0 .04.02l.01.04v1.45a.1.1 0 0 1-.02.06.1.1 0 0 1-.05.04 2.1 2.1 0 0 1-1.26.07 1.25 1.25 0 0 1-.87-.88c-.21-.63-.11-1.25.3-1.86a2.99 2.99 0 0 1 1.5-1.15l.02.01Zm-3.92.4c-.28-.02-.56.12-.78.4a2 2 0 0 0-.4 1.07c-.01.2 0 .4.04.6.03.2.1.38.18.53.09.16.2.28.32.37.12.1.25.14.39.16.28.02.56-.12.78-.4a2 2 0 0 0 .4-1.07c.01-.2 0-.4-.04-.6-.03-.2-.1-.38-.18-.53-.1-.15-.2-.28-.32-.37a.78.78 0 0 0-.4-.16Z" fill="#F77E2A"/><path d="M52 25.97v.28a.57.57 0 0 1-.22.37.19.19 0 0 1-.1.04 2.5 2.5 0 0 0-1.88.92.15.15 0 0 0-.02.17l.92 1.69v.03c0 .02 0 .03-.02.03-.55.5-1.2.61-1.93.33a.1.1 0 0 1-.05-.04.1.1 0 0 1 0-.1.1.1 0 0 1 .04-.04l.82-.42.02-.01a.04.04 0 0 0 0-.05 2.47 2.47 0 0 1-.7-1.2.31.31 0 0 1 0-.15c.06-.27.12-.46.2-.54A3.58 3.58 0 0 1 52 25.97ZM33.27 27.39c.26.27.32.72.18 1.34-.08.36.04.53.34.49a1.17 1.17 0 0 0 .75-.43l1.17-2.1c0-.01 0-.02.02-.03a.05.05 0 0 1 .07.03c.37.67.25 1.37-.36 2.1a10.67 10.67 0 0 0-.63.77c-.5.37-1.07.5-1.69.37a.23.23 0 0 1-.12-.07c-.17-.18-.29-.46-.35-.83-.13-.79.04-1.34.5-1.66a.1.1 0 0 1 .12.02ZM41.85 27.6l.07-.15c.29-.05.28-.34.65-.3h.14c.15 0 .3 0 .46-.02.05 0 .1.01.12.04.2.22.5-.12.66.83.06.37 0 .8-.17 1.33a.3.3 0 0 1-.09.13c-.68.59-1.3.66-1.87.2a.41.41 0 0 1-.08-.08c-.45-.69-.42-1.35.1-1.98Zm1.07.4a.2.2 0 0 0-.05-.07.18.18 0 0 0-.15-.03.18.18 0 0 0-.07.04c-.3.25-.4.52-.27.8.07.16.17.08.17.27 0 .03 0 .05.02.07l.06.05a.7.7 0 0 0 .46-.02c.02 0 .04-.02.06-.04a.13.13 0 0 0 .02-.07c0-.4-.06-.66-.25-1ZM28.61 27.15h.82c.07 0 .14.03.2.07.33.25.54.53.6.84.06.32 0 .74-.18 1.27a.29.29 0 0 1-.08.13c-.27.24-.57.4-.92.5a.45.45 0 0 1-.14.02c-.78-.05-1.19-.53-1.22-1.44l.01-.12c.12-.46.38-.87.8-1.23a.16.16 0 0 1 .11-.04Zm.84 1.85c.03-.4-.07-.75-.29-1.03a.17.17 0 0 0-.1-.07c-.04 0-.09 0-.12.03-.28.18-.38.43-.31.73.1.45.35.6.74.44.02 0 .04-.02.05-.04a.13.13 0 0 0 .03-.06ZM44.41 29.93h-.02l-.01-.01-.01-.02v-.02l.27-1.92c0-.03.02-.06.04-.08a.13.13 0 0 1 .09-.04.7.7 0 0 1 .49.15.09.09 0 0 0 .11 0c.23-.18.44-.27.64-.28a.3.3 0 0 1 .13.02c.7.32 1.24.78 1.64 1.4.04.06.11.14.21.23.1.08.16.15.2.2a.23.23 0 0 1 .03.2.22.22 0 0 1-.05.1.2.2 0 0 1-.1.04 1.3 1.3 0 0 1-.9-.1.15.15 0 0 1-.05-.04l-.98-1.3a.1.1 0 0 0-.08-.03.1.1 0 0 0-.08.03c-.34.34-.58.75-.74 1.24a.28.28 0 0 1-.09.13.25.25 0 0 1-.14.06l-.6.04ZM40.96 28.13c.2.5.17 1.04-.07 1.63-.08.2-.22.28-.42.22-.2-.06-.29-.2-.27-.45.03-.35.08-.71.14-1.07.01-.05.03-.1.07-.13a.8.8 0 0 0 .2-.32c.02-.05.05-.09.1-.12.12-.07.28-.08.49-.02l.02.02.02.02v.04s0 .02-.02.03c-.03.03-.1.05-.2.04H41a.07.07 0 0 0-.02.03.08.08 0 0 0-.01.07Z" fill="#767777"/><path d="M38.23 29.27c.06-.01.1.02.11.07.01.04-.03.09-.1.1-.05 0-.1-.03-.1-.08-.01-.04.03-.09.09-.1ZM39.94 28.86c.04 0 .07.02.08.06V29a.06.06 0 0 1-.04.05h-.04a.1.1 0 0 1-.04-.01c-.03-.02-.04-.05-.04-.1s.03-.08.08-.09ZM38.67 28.51c.03-.03.09-.03.12 0a.1.1 0 0 1 0 .13c-.03.04-.08.04-.12 0a.1.1 0 0 1 0-.13ZM38.27 28.29c.01.04.06.07.14.1.01 0 .02 0 .03.02l.02.04c0 .02 0 .03-.02.04 0 .02-.02.03-.03.03h-.14c-.02-.05-.02-.13 0-.23ZM39.15 27.98c.03-.03.12 0 .19.08.07.07.1.17.06.2-.03.04-.12 0-.19-.07-.07-.08-.1-.17-.06-.2ZM39.81 27.84c.03 0 .06 0 .07.03.02.04.02.08.01.1 0 .02 0 .03-.02.04l-.03.02h-.04a.11.11 0 0 1-.07-.1c0-.06.03-.09.08-.1ZM39.8 26.69h.04l.02.03v.04l-.01.03c-.09.08-.12.2-.1.34 0 .02 0 .04.02.05a.1.1 0 0 0 .05.04c.1.04.16.1.19.18.03.12.1.23.22.35l.06.02c.02 0 .04 0 .06-.02.05-.04.1-.05.13-.03l.03.03v.04l-.02.07-.02.02-.02.01a.05.05 0 0 1-.04 0c-.08-.06-.13-.06-.17-.02a.08.08 0 0 1-.06.02c-.02 0-.04 0-.05-.02a1.5 1.5 0 0 1-.3-.41.17.17 0 0 0-.08-.09.85.85 0 0 1-.27-.17c.2-.15.28-.3.23-.45a.23.23 0 0 1 .1-.06ZM41.07 25.6a.2.2 0 0 1 .12-.03c.04 0 .08.03.11.05a.3.3 0 0 1 .1.1c.02.07.04.1.05.11.02.01.02.03.03.05l-.01.05-.04.03h-.05c-.05-.02-.08-.06-.11-.13a.08.08 0 0 0-.03-.03.07.07 0 0 0-.1.01l-.01.03a.08.08 0 0 1-.06.02h-.03a.08.08 0 0 1-.03-.02c-.05-.06-.06-.11-.03-.16a.2.2 0 0 1 .09-.09Z" fill="#F77E2A"/><path d="M40.35 22.76h.03c0 .02.01.02.02.03.1.24.23.38.42.4l.03.02.03.03a.1.1 0 0 1 0 .09c-.06.1-.08.21-.04.3 0 .01 0 .03.02.03a.08.08 0 0 0 .06.03l.03-.01c.05-.03.09-.18.12-.45l.01-.03.03-.02h.04l.03.03.06.12.02.02h.02l.02-.01.01-.02c.04-.16.12-.24.24-.25h.02l.02.03a.05.05 0 0 1 0 .05l-.25.42a.1.1 0 0 0 0 .12l.06.03c.02 0 .04 0 .06-.02.03-.01.05-.07.07-.17v-.03l.03-.02a.06.06 0 0 1 .05 0l.09.06h.07l.03-.03.02-.04c.02-.25.02-.4-.02-.47a.05.05 0 0 1 0-.04v-.02h.02a.15.15 0 0 1 .1 0h.02l.02.03a.06.06 0 0 1-.01.05c-.08.1-.05.2.07.27l.04.04a.1.1 0 0 1 0 .05c0 .09-.03.14-.1.15a.1.1 0 0 0-.07.06.7.7 0 0 1-.25.3.1.1 0 0 0-.04.04.1.1 0 0 0 0 .07.4.4 0 0 0 .05.1.09.09 0 0 1 0 .1l-.19.35v.02l.02.02.04.03a.08.08 0 0 0 .1 0c0-.02.01-.02.02-.03l.15-.29a.1.1 0 0 1 .05-.04.1.1 0 0 1 .07 0c.1.05.18.1.24.18.02.02.02.05 0 .08l-.04.04h-.03l-.02-.04-.01-.07-.01-.02a.05.05 0 0 0-.08 0l-.2.22a.06.06 0 0 0 0 .1h.04l.14-.11.03-.02h.04l.02.03.02.03c0 .04-.02.08-.07.12a.09.09 0 0 0-.01.11c.05.08.12.13.2.15h.03l.02-.02V25c-.08-.12-.1-.22-.08-.3v-.02l.03-.02a.04.04 0 0 1 .04 0l.21.14h.04v-.05l-.3-.56v-.03s0-.02.02-.02l.05-.03a.04.04 0 0 1 .04.02v.04c-.02.1.04.2.17.29a.04.04 0 0 0 .04 0l.02-.01.01-.02a.43.43 0 0 1 .19-.3.06.06 0 0 1 .08 0l.02.04v.04a.95.95 0 0 1-.19.35.09.09 0 0 0-.02.04.1.1 0 0 0 0 .05c0 .02 0 .03.02.05l.05.01c.17.02.29.06.33.13a.08.08 0 0 1 0 .09.07.07 0 0 1-.04.02h-.04c-.15-.07-.32-.03-.51.12l-.02.02v.05l.01.02.47.52c.08.07.1.12.07.16l-.02.01-.17.04a.05.05 0 0 1-.05 0v-.03l-.01-.02c0-.22-.13-.3-.4-.26l-.02.01-.02.03a.08.08 0 0 0-.01.06c.07.2.07.33.02.39l-.01.01v.02l.01.01h.02c.13-.03.18-.12.14-.26v-.02l.02-.02h.04c.1.04.17.12.2.21a.08.08 0 0 1-.02.09l-.02.01h-.06c-.05 0-.07.01-.08.05 0 .01 0 .04.03.06l.03.05c.2.06.3.15.29.26 0 .02-.01.04-.03.05a.07.07 0 0 1-.04.02l-.17.01a.1.1 0 0 1-.06-.02.1.1 0 0 1-.04-.05l-.02-.09c-.04-.18-.12-.26-.24-.26h-.02v.01c-.04.41.07.63.34.66.13.01.18.1.15.27h-.14c-.03-.11-.13-.17-.31-.16h-.02l-.02.02a.05.05 0 0 0 0 .05l.05.07a.32.32 0 0 1-.2.16c0-.11-.06-.19-.14-.23a.14.14 0 0 0-.16.03.16.16 0 0 0-.04.07v.09c.02.09.09.16.2.2l-.08.16a.57.57 0 0 0-.4.27l-.02.02h-.04l-.04-.03a.05.05 0 0 1-.03-.03.06.06 0 0 1 .01-.05c.05-.08.1-.14.18-.17l.02-.02a.07.07 0 0 0 0-.05v-.03c-.02-.03-.02-.06 0-.1.07-.15.1-.29.07-.42v-.02l-.02-.01h-.03l-.01.01c-.04.05-.11.1-.2.13h-.04l-.01-.03v-.02c.04-.07.07-.11.1-.13a.2.2 0 0 0 .1-.16l-.03-.09a.16.16 0 0 0-.06-.06l-.13-.07c-.05-.03-.07-.06-.07-.1 0-.05.03-.09.07-.11l.03-.04v-.04a.06.06 0 0 0-.03-.03h-.04a.39.39 0 0 1-.22 0 .07.07 0 0 0-.06.02l-.02.03v.15c0 .03 0 .07.02.09.02.03.04.04.07.05.18.06.26.17.24.33l-.01.03-.03.01-.1.01h-.02l-.01-.01-.02-.02v-.02c0-.08-.01-.14-.04-.16-.2-.16-.3-.33-.3-.52v-.02l-.02-.01h-.03a.8.8 0 0 0-.05.27v.05l.03.05.18.18a.18.18 0 0 1 .06.13v.1l-.01.04-.03.02a.05.05 0 0 1-.06-.01.57.57 0 0 0-.24-.17.13.13 0 0 1-.07-.05.15.15 0 0 1-.02-.08.3.3 0 0 0 0-.04l-.02-.01a.03.03 0 0 0-.03 0v.01c-.05.1-.17.2-.37.3a.05.05 0 0 1-.05-.01l-.02-.02v-.03c0-.06.02-.12.09-.15.15-.09.22-.16.21-.21a.09.09 0 0 1 .02-.07l.03-.02h.03c.08 0 .13-.05.13-.14 0-.16.02-.25.07-.29a.08.08 0 0 0 .03-.04v-.05a.54.54 0 0 0-.16-.23.07.07 0 0 0-.08 0l-.02.01c-.1.14-.12.25-.07.33.04.08.06.15.05.22-.02.1-.07.15-.14.15a.1.1 0 0 0-.06.02.12.12 0 0 0-.04.06.59.59 0 0 0-.02.06l-.02.05a.08.08 0 0 1-.05.03h-.05a.1.1 0 0 1-.04-.04.26.26 0 0 1-.02-.26h.1a.06.06 0 0 0 .01-.1l-.04.04c-.02 0-.03 0-.04-.02-.02-.02-.02-.04-.02-.06a5.16 5.16 0 0 1 .1-.36.09.09 0 0 1 .06-.03c.05 0 .1-.02.12-.06.03-.05.02-.1-.03-.15-.07-.08-.16-.1-.26-.04a.08.08 0 0 1-.08-.02l-.02-.02a.06.06 0 0 0-.06-.03c-.21.04-.35.15-.4.33v.05c.03.06.06.07.08.02 0-.02.02-.03.03-.05l.02-.02.03-.02a.07.07 0 0 1 .06.02c.07.06.1.1.13.16a.07.07 0 0 1-.01.06l-.03.02h-.03a.88.88 0 0 0-.36 0l-.05-.01a.08.08 0 0 1-.04-.03.09.09 0 0 1 0-.1c.1-.15.15-.27.14-.38 0-.02 0-.04.02-.06a.12.12 0 0 1 .05-.05c.12-.06.22-.07.3-.01.03.02.06.03.1.03.03 0 .07-.02.1-.05a.21.21 0 0 0 .05-.1v-.13c-.04-.08-.02-.15.03-.2.1-.1.18-.24.22-.39a.06.06 0 0 0-.01-.05l-.02-.02h-.03c-.14 0-.25.09-.33.25h-.15a.04.04 0 0 1 0-.06c.09-.1.14-.2.14-.28 0-.02 0-.04.02-.06a.07.07 0 0 1 .05-.02h.38a.05.05 0 0 0 .02-.03v-.03c-.01-.1-.06-.18-.13-.2-.05-.03-.09-.03-.1.01l-.05.04a.05.05 0 0 1-.05-.01l-.02-.03v-.03a.83.83 0 0 0 .02-.3v-.07l.05-.05a.4.4 0 0 1 .12-.09h.03l.03.02a.07.07 0 0 1 0 .07v.02a.12.12 0 0 0-.02.08c0 .03.02.05.04.07.18.12.3.31.37.58a.08.08 0 0 1-.02.07l-.03.02h-.04c-.09-.02-.15-.02-.18 0l-.01.03a.05.05 0 0 0 0 .05l.02.02c.12.04.12.14.02.3a.04.04 0 0 0 0 .05.03.03 0 0 0 .05 0c.08-.04.12-.13.14-.26l.02-.04a.07.07 0 0 1 .05-.02h.04a.04.04 0 0 1 .03.03v.27l.01.02.02.02h.02l.02-.02.12-.22a.05.05 0 0 0-.02-.07l-.12-.07a.11.11 0 0 1-.04-.05.12.12 0 0 1 0-.07c0-.04.05-.08.12-.11l.03-.02.01-.03a.08.08 0 0 0-.02-.07l-.03-.04a.06.06 0 0 1 0-.08c0-.02.01-.02.02-.03h.05c.2.13.26.28.14.44a.07.07 0 0 0 0 .07l.02.03h.07a.12.12 0 0 1 .11.04c.04.05.08.06.12.05l.04-.03a.09.09 0 0 0 .01-.05c0-.22.06-.4.19-.51a.04.04 0 0 0 .01-.03v-.03c-.02-.02-.04-.02-.06-.02l-.04.08a.1.1 0 0 1-.04.04.08.08 0 0 1-.04.01c-.3 0-.5-.16-.6-.46a.16.16 0 0 1 0-.09c.03-.13-.04-.26-.21-.39l-.05-.03c-.05-.04-.1-.04-.16 0l-.02.03a.06.06 0 0 0 0 .06l.02.02c.05.03.07.07.08.12a.07.07 0 0 1-.02.05l-.02.02h-.07a.03.03 0 0 1-.03-.01.04.04 0 0 1 0-.04c.02-.1 0-.16-.06-.2a.12.12 0 0 1-.04-.15l.16-.3.02-.02.03-.01Zm1.44 3.84a.07.07 0 0 0-.05.02.08.08 0 0 0-.02.06l.01.15.01.02.02.02a.05.05 0 0 0 .05 0c.08-.04.19-.03.31.04h.05v-.05c-.08-.2-.2-.28-.38-.26Zm-1.4-1.34-.02.02-.02.02-.01.03v.1c0 .03 0 .05.02.07l.06.03c.06.01.13 0 .2-.01-.05.12-.03.2.05.25h.02a.07.07 0 0 0 .05 0l.02-.03.02-.03c0-.02.02-.02.03-.03h.04s.02 0 .03.02l.01.04c0 .26.16.37.45.32h.07l.06.05.03.07a.2.2 0 0 1 0 .08c0 .1 0 .18.05.26l.03.02a.06.06 0 0 0 .06 0l.02-.03c.1-.2.08-.38-.07-.53a.1.1 0 0 1 0-.13c.03-.07.1-.08.17-.05 0 .16.07.26.24.3a.1.1 0 0 0 .07 0 .1.1 0 0 0 .04-.06c.01-.02.01-.04 0-.07a.1.1 0 0 0-.03-.05.72.72 0 0 0-.32-.12l-.32-.32a.17.17 0 0 0-.1-.05c-.26-.02-.5 0-.73.09 0-.12-.06-.2-.19-.25h-.03Zm1.74.95c-.1.02-.16.08-.17.19 0 .03 0 .05.04.06h.02v-.02a.27.27 0 0 1 .12-.19l.01-.01v-.02l-.02-.01Zm-.23-.65-.02.01a.04.04 0 0 0 0 .04c.01.03.06.08.14.14h.03a.03.03 0 0 0 .01-.04c-.05-.08-.1-.13-.14-.15h-.02Zm-.23-.52h-.01v.01c-.12.23-.07.4.14.51h.03l.01-.02v-.01c-.03-.1 0-.18.06-.22l.07-.03.1.01h.02a.03.03 0 0 0 .02-.04l-.01-.01c-.02-.02-.05-.03-.1-.03a.27.27 0 0 0-.18.07.07.07 0 0 1-.1 0 .08.08 0 0 1-.02-.04c-.01-.04 0-.1.03-.16v-.02l-.03-.02a.03.03 0 0 0-.03 0Zm-1.48-.05c-.19.09-.23.23-.14.43l.02.03.04.01.05-.01a.1.1 0 0 0 .03-.03c.03-.04 0-.09-.07-.14l-.03-.02a.07.07 0 0 1 0-.07l.03-.03c.08-.05.12-.1.13-.12v-.02l-.02-.02h-.04Zm.82-.25c-.06-.02-.13.08-.2.31a.1.1 0 0 1-.05.06.1.1 0 0 1-.07.01.13.13 0 0 1-.08-.08.03.03 0 0 0-.03-.02h-.01c-.04.03-.06.06-.05.08v.03l.1.1c0 .02 0 .03.02.03a.08.08 0 0 0 .07 0 .1.1 0 0 0 .03-.02c.05-.05.1-.07.14-.05h.05l.01-.03.01-.02c.01-.05.05-.1.12-.17a.11.11 0 0 0 .04-.06v-.06a.16.16 0 0 0-.1-.1Zm.35.3-.03.02a.74.74 0 0 0-.13.12v.02l.01.02h.04c.11-.06.17-.1.17-.12l-.01-.03-.02-.02h-.03Zm.18-.32-.05.02a.19.19 0 0 0-.04.03.19.19 0 0 0-.06.08v.08l.04.02a.1.1 0 0 0 .04 0h.04a.2.2 0 0 0 .1-.12c.02-.03.01-.06 0-.08a.07.07 0 0 0-.03-.02.1.1 0 0 0-.04 0Zm-.5-.96-.03.01-.02.02v.03c.02.1.1.18.22.22h.06c.02 0 .03-.02.04-.04v-.06a.08.08 0 0 0-.04-.04l-.2-.13h-.03ZM39.41 27.28c.12.1.17.22.14.37a.1.1 0 0 1-.03.06.09.09 0 0 1-.07.02.7.7 0 0 0-.27.01h-.02l-.02-.01a.05.05 0 0 1 0-.05v-.06l.03-.03h.04l.09.03a.05.05 0 0 0 .05 0c.05-.05.04-.12-.01-.22a.35.35 0 0 1 .07-.12Z" fill="#F77E2A"/><path d="M40.71 27.11c.07 0 .14.03.22.08a.1.1 0 0 0 .11 0c.15-.11.27-.04.37.21.02.03.02.06.01.09 0 .03-.02.05-.04.07a.11.11 0 0 1-.16-.01v-.18c0-.03-.01-.06-.03-.08a.1.1 0 0 0-.15-.02.12.12 0 0 0-.04.06.96.96 0 0 0-.05.26v.04l-.03.02a.07.07 0 0 1-.07 0l-.2-.12a.11.11 0 0 1-.04-.05.12.12 0 0 1-.01-.07l.03-.22a.1.1 0 0 1 .03-.06.08.08 0 0 1 .05-.02ZM40.3 27.15c.07-.07.16-.1.19-.07.03.04 0 .12-.08.2-.07.07-.16.1-.19.07-.03-.04 0-.13.08-.2ZM43.84 27.07c.04 0 .07.02.1.04l-.01.06a.12.12 0 0 1-.05.05.1.1 0 0 1-.12-.01.12.12 0 0 1-.04-.06c0-.01 0-.03.02-.05a.14.14 0 0 1 .1-.03ZM43.54 26.86c.05-.02.1-.01.13.02l.03.05a.12.12 0 0 1-.05.06.1.1 0 0 1-.07.02.1.1 0 0 1-.06-.04.1.1 0 0 1-.03-.07c0-.01.02-.03.05-.04ZM42.96 26.63c.02-.05.12-.03.21.04.1.07.15.16.12.2-.03.04-.12.02-.21-.05-.1-.06-.15-.15-.12-.2ZM43.7 26.47a.04.04 0 0 1 .04.03v.11a.04.04 0 0 1-.02.03.04.04 0 0 1-.03 0 .36.36 0 0 0-.28 0h-.03a.04.04 0 0 1-.02-.03v-.12a.04.04 0 0 1 .03-.02h.02c.1.04.19.04.28 0h.01ZM39.43 26.15h.02l.01.02.2.39c-.05.03-.11.03-.17-.02-.13-.08-.16-.2-.1-.37l.02-.01h.02ZM43.14 25.94a.06.06 0 0 1 .06.01l.02.03.06.2a.05.05 0 0 1-.01.06h-.05c-.1-.06-.22-.05-.37.01h-.02l-.08-.08-.02-.02v-.02l.02-.02.02-.01c.18-.05.3-.1.34-.15l.03-.01ZM44.33 26.02c.04 0 .08.04.08.09 0 .04-.04.08-.08.08-.05 0-.08-.04-.08-.08 0-.05.03-.09.08-.09ZM38.85 25.76c.05 0 .09.05.1.12 0 .05.02.1.06.15.03.03.04.05.04.07a.07.07 0 0 1-.03.05h-.06a.42.42 0 0 1-.17-.12c-.01-.14 0-.23.06-.27ZM43.84 25.28c.1 0 .17.02.2.05.02 0 .02.01.02.02a.05.05 0 0 1 0 .06l-.03.01a.69.69 0 0 0-.3.2.1.1 0 0 0-.03.06v.06c.02.04 0 .14-.07.3l-.02.02a.06.06 0 0 1-.05.02h-.02l-.18-.13c-.05-.05-.06-.1-.03-.14a.23.23 0 0 1 .08-.06c.03-.01.04-.05.04-.09-.01-.05-.05-.08-.12-.1h-.02l-.02-.01a.05.05 0 0 1 0-.04l.03-.07a.05.05 0 0 1 .06 0l.02.01c.04.08.1.12.18.14l.06-.01a.09.09 0 0 0 .03-.05l.06-.17c0-.02.02-.04.04-.06a.11.11 0 0 1 .07-.02Z" fill="#F77E2A"/><path d="M42.95 25.4c.12.03.22.1.31.17.02.01.03.03.03.05v.05l-.04.04h-.06c-.13-.04-.21-.15-.24-.32ZM37.63 25.24c.05 0 .1.04.1.09.01.05-.03.1-.09.1-.05 0-.1-.04-.1-.09 0-.05.03-.1.09-.1ZM39.1 25.25c.04 0 .08.04.08.09 0 .04-.04.08-.08.08-.05 0-.08-.04-.08-.08 0-.05.03-.09.08-.09ZM42.74 25.06c.13 0 .2.12.21.33a.5.5 0 0 1-.26-.27.05.05 0 0 1 0-.04.05.05 0 0 1 .05-.02ZM43.45 24.74c.05-.02.08-.01.09.03.02.07 0 .13-.04.2a.4.4 0 0 0-.06.2c0 .09-.02.14-.04.18l-.02.02a.05.05 0 0 1-.05 0l-.02-.02c-.07-.16-.06-.26.02-.3.07-.03.1-.06.11-.08.01-.04 0-.09-.03-.15v-.02a.06.06 0 0 1 .02-.05l.02-.01ZM44.17 25.03c.02 0 .04.01.05.03a.1.1 0 0 1 0 .11c-.01.04-.06.04-.12.02h-.02l-.01-.02v-.04c.02-.05.03-.08.05-.09a.08.08 0 0 1 .05 0ZM39.59 25l.04.01.03.05a.1.1 0 0 1 0 .05l-.04.04c-.03.03-.07.02-.12-.01l-.02-.03a.08.08 0 0 1 0-.07l.03-.03a.11.11 0 0 1 .08-.02ZM39.24 24.6c.06 0 .15.03.25.1a.1.1 0 0 1 .03.05v.06a.1.1 0 0 1-.03.06.1.1 0 0 1-.05.02c-.2.01-.38.07-.54.18l-.03-.18c.15.02.25-.05.27-.2a.1.1 0 0 1 .04-.07.1.1 0 0 1 .06-.02ZM43.74 24.6c.03-.06.06-.08.1-.06l.14.07.13.07c.04.02.05.06.02.12l-.02.02a.06.06 0 0 1-.07 0 .07.07 0 0 1-.02-.03c-.03-.07-.05-.1-.07-.11-.02-.01-.07-.01-.14 0h-.03a.06.06 0 0 1-.03-.01.07.07 0 0 1 0-.07ZM43.23 24.46l.04.03.01.05v.17a.1.1 0 0 1-.01.06.09.09 0 0 1-.05.04h-.05a.08.08 0 0 1-.04-.05c-.04-.07-.03-.16.02-.26 0-.02.01-.03.03-.04h.05ZM43.44 24.52c.04-.02.07-.03.08-.02.02 0 .03.02.04.04v.06a.1.1 0 0 1-.04.05.09.09 0 0 1-.06.01l-.04-.05c-.02-.03 0-.06.02-.09ZM38.95 24.08c.04 0 .07.02.1.05l.05.03.06-.03c.06-.06.11-.05.15.02l.07.1.02.02a.08.08 0 0 0 .07 0c.01 0 .02 0 .03-.02a.15.15 0 0 1 .1-.04l.03.01.02.02a.06.06 0 0 1 0 .06.8.8 0 0 1-.1.16.12.12 0 0 1-.1.03.11.11 0 0 1-.08-.03l-.19-.21a.12.12 0 0 0-.16-.02.55.55 0 0 0-.02.02.06.06 0 0 1-.07 0c-.03-.01-.04-.05-.04-.1s.02-.07.06-.07ZM38.15 24.07c.04 0 .06.04.06.09-.01.07-.04.1-.07.1-.06 0-.09-.04-.1-.11l.01-.04.02-.02.04-.02a.1.1 0 0 1 .04 0ZM43.12 23.98h.02V24c.04.1.04.16 0 .2h-.06l-.02-.02v-.03c-.01-.08 0-.14.03-.16a.04.04 0 0 1 .03-.01ZM43.43 24h.06l.04.04v.06c0 .02-.01.04-.04.06a.08.08 0 0 1-.04.02h-.04a.07.07 0 0 1-.04-.06c0-.04 0-.07.02-.1a.08.08 0 0 1 .04-.02ZM43.84 23.85c.05 0 .08.06.08.11-.01.06-.05.1-.1.1-.05-.01-.08-.06-.07-.12 0-.05.05-.1.1-.1ZM42.18 23.54c.02 0 .04 0 .06.02l.05.05c.03.07.08.12.13.16.04.03.06.06.06.11s0 .1-.03.12l-.03.03a.07.07 0 0 1-.09-.02.08.08 0 0 1-.02-.05.44.44 0 0 0-.07-.22c0-.01 0-.02-.02-.02a.05.05 0 0 0-.05 0l-.01.03c-.03.08-.07.13-.14.15H42a.06.06 0 0 1-.03-.02.07.07 0 0 1 0-.07l.1-.2a.13.13 0 0 1 .05-.06.12.12 0 0 1 .07-.01ZM42.7 23.58h.02l.02.03c.07.12.18.16.3.12h.04l.02.02a.06.06 0 0 1 0 .07c-.03.07-.1.1-.21.08-.04 0-.13-.07-.25-.2l-.01-.02v-.02l.03-.05c0-.01 0-.02.02-.02h.02ZM43.33 23.58h.07l.04.05a.1.1 0 0 1 0 .07c-.04.11-.1.18-.2.2a.05.05 0 0 1-.05-.03v-.06l.1-.18c0-.03.02-.04.04-.05ZM37.76 23.69c.05 0 .09.04.09.1 0 .05-.04.09-.1.09-.04 0-.09-.04-.09-.1 0-.05.05-.1.1-.1ZM39.33 23.72c.14 0 .24.04.24.08s-.11.07-.24.06c-.13 0-.24-.04-.24-.08s.11-.07.24-.06ZM39.51 23.43h.03l.12.05h.05c.02 0 .03 0 .05-.02.05-.03.09-.04.12-.02l.02.02a.06.06 0 0 1 0 .06.4.4 0 0 1-.21.2.1.1 0 0 1-.07-.01.11.11 0 0 1-.06-.05l-.08-.15v-.06l.03-.02ZM38.25 23.26c.08-.08.17-.1.2-.07.03.04 0 .13-.08.2-.08.08-.17.1-.2.07-.04-.04 0-.13.08-.2ZM39.76 22.94c.03-.04.06-.05.09-.03l.05.07a.2.2 0 0 1-.07.24h-.04a.2.2 0 0 1-.07-.13.21.21 0 0 1 .04-.15ZM44.38 23.06c.04-.01.08 0 .1.01.03.03.03.06.01.1-.02.04-.04.06-.07.05-.06 0-.09-.03-.1-.1 0-.03.02-.05.06-.06ZM41.24 22.78a.07.07 0 0 1 .07.02c.05.07.08.12.08.15s-.01.06-.03.08a.11.11 0 0 1-.14.03.13.13 0 0 1-.06-.06l.02-.16.02-.04a.08.08 0 0 1 .04-.02ZM41.55 22.69c.02-.04.07-.05.12-.03.04.03.06.09.04.13-.02.04-.08.05-.12.02-.05-.02-.07-.08-.04-.12ZM38.84 22.52c.05 0 .1.04.1.1 0 .04-.05.08-.1.09-.05 0-.08-.05-.08-.1s.03-.1.08-.1ZM40.95 22.42h.02l.02.02v.08s0 .02-.02.03a.05.05 0 0 1-.03 0 1.3 1.3 0 0 0-.3.02l-.03-.01a.06.06 0 0 1-.03-.03v-.08a.06.06 0 0 1 .05-.02.05.05 0 0 1 .04.01c.05.04.09.07.12.06.03 0 .07-.02.12-.07h.02l.02-.01ZM40.66 22.13l.03.02c.04.03.05.07.03.12a.1.1 0 0 1-.03.04.08.08 0 0 1-.04.02h-.03a.05.05 0 0 1-.02-.03.22.22 0 0 1-.01-.12l.01-.03.03-.02h.03ZM43.4 22.02c.05-.01.09 0 .12.04l.02.02v.03a.07.07 0 0 1-.03.04c-.1.07-.16.05-.16-.05 0-.05.02-.07.06-.08ZM38.74 22c.04.03.07.06.07.1 0 .04-.01.07-.05.08a.1.1 0 0 1-.11-.03.1.1 0 0 1-.02-.04c0-.02.01-.06.06-.11h.05ZM41.2 22.04a.2.2 0 0 1 .1-.02c.02 0 .04 0 .05.02l.02.04v.04l-.04.04c-.05.03-.1.03-.14 0a.08.08 0 0 1-.03-.06v-.04l.03-.02ZM42.95 22.01c.06 0 .1.04.1.08 0 .05-.04.1-.1.1-.04 0-.09-.04-.09-.1 0-.04.04-.08.1-.08Z" fill="#F77E2A"/></svg>