<!-- by TradingView --><svg width="18" height="18" viewBox="0 0 18 18" xmlns="http://www.w3.org/2000/svg"><path fill="#F0F3FA" d="M0 0h18v18H0z"/><path d="M12.07 13.1c.03.03.04.05.03.08-.03.27-.13.5-.3.72-.06.06-.1.1-.14.1-.03 0-.08-.03-.14-.08-.2-.19-.35-.4-.42-.67 0-.02 0-.05.02-.07a.09.09 0 0 1 .08-.03h.4c.1 0 .23-.02.4-.06.02 0 .05 0 .07.02Zm-.8-9.08c.13-.06.28 0 .44.2.15.19.28.37.39.56.35.62.68 1.26 1 1.94.07.14.2.37.4.68.64 1.02.67 2.05.07 3.1a7.22 7.22 0 0 1-1.3 1.67c-.25.24-.5.36-.74.38-.23.01-.5-.08-.78-.28a9.2 9.2 0 0 1-1.08-.96l-.24-.24a3.3 3.3 0 0 0-1.13-.75c0-.01 0-.02.02-.03l1.25-.5v-.02l-.01-.02c-.63.04-1.32.21-2.1.52-.13.05-.33.1-.57.17-.32.07-.7.21-1.12.42-.47.23-.9.45-1.27.67-.04.02-.07.01-.08-.03l-.5-1.12v-.03h.03a5.5 5.5 0 0 0 1.66-.02v-.02h-.05c-.6-.03-1.17-.1-1.72-.23a.09.09 0 0 1-.07-.05l-.38-.85c0-.03 0-.05.03-.06a6.17 6.17 0 0 0 .95-.52h-.03a2.9 2.9 0 0 1-1.02.23c-.05 0-.08-.01-.1-.05l-.2-.46c-.04-.1-.02-.21.05-.33.04-.07.12-.17.25-.3l.05-.05.33-.33a38.3 38.3 0 0 1 2.47-2.1c.1-.08.28-.1.5-.08a3.57 3.57 0 0 1 .63.18l.03-.01c.18-.23.4-.45.67-.65.3-.23.68-.39 1.1-.46h.02l.23-.02c.08 0 .14.03.17.07.06.08.08.16.04.25l-.22.58c-.02.07 0 .14.04.2.16.2.36.38.61.56.32.24.57.33.74.3.2-.06.34-.17.4-.35a.2.2 0 0 0 .02-.1c-.07-.49-.1-.9-.1-1.2.01-.24.08-.4.22-.46ZM5.8 6.81c-.04 0-.05.03-.03.06l.07.17c.03.07.01.13-.05.17l-.8.44-.01.01c0 .01 0 .02.02.01.52-.15 1-.4 1.42-.76v-.03a.89.89 0 0 0-.62-.07Z" fill="#9F8749"/></svg>