<!-- by TradingView --><svg width="18" height="18" viewBox="0 0 18 18" xmlns="http://www.w3.org/2000/svg"><path fill="#F0F3FA" d="M0 0h18v18H0z"/><path d="M9 3c.04 0 .07.02.1.05 1.64 1.5 1.5 3.4.01 4.94-.04.04-.08.06-.11.06-.04 0-.07-.02-.11-.06-1.5-1.54-1.62-3.44.02-4.94.04-.03.07-.05.1-.05Z" fill="#007FDC"/><path d="M7.3 9.12a4.56 4.56 0 0 1-.96-1.83 2.94 2.94 0 0 1 .42-2.49.07.07 0 0 1 .09.01c.25.24.44.51.5.84.03.22.04.49.11.73a4.57 4.57 0 0 0 1.2 1.92.07.07 0 0 1 0 .06c0 .01 0 .02-.02.03a5.59 5.59 0 0 1-1.31.75c-.02 0-.03 0-.03-.02ZM10.71 9.12l-.03.02h-.03a5.6 5.6 0 0 1-1.3-.78.08.08 0 0 1 0-.09c.57-.55.96-1.18 1.2-1.9.07-.24.08-.5.11-.73a1.5 1.5 0 0 1 .52-.85.07.07 0 0 1 .06 0l.02.03c.5.75.63 1.57.4 2.46-.17.68-.49 1.3-.95 1.84ZM5.27 9.5a2.86 2.86 0 0 1-.04-2.33.1.1 0 0 1 .07-.03 1.6 1.6 0 0 1 .9.91 5.5 5.5 0 0 0 .7 1.22l-.02.02-.02.01a4.75 4.75 0 0 1-1.55.24.09.09 0 0 1-.04-.04ZM12.64 9.55a4.76 4.76 0 0 1-1.53-.28.04.04 0 0 1 0-.04c.32-.41.55-.8.7-1.18a1.6 1.6 0 0 1 .9-.91.1.1 0 0 1 .07.02 2.86 2.86 0 0 1-.08 2.38.1.1 0 0 1-.06.01Z" fill="#0173C6"/><path d="M9 8.63h.06a7.43 7.43 0 0 0 1.33.81l.01.03a.06.06 0 0 1-.01.06c-.39.4-.8.78-1.26 1.12-.05.04-.1.06-.13.06s-.07-.02-.13-.06A9.9 9.9 0 0 1 7.6 9.5a.07.07 0 0 1 .02-.06l.02-.02c.46-.22.9-.48 1.3-.78L9 8.63ZM4.02 9.39a.1.1 0 0 1 .05-.04.1.1 0 0 1 .07 0 2.78 2.78 0 0 1 .97.71 6.75 6.75 0 0 0 1.58 1.8.06.06 0 0 1-.01.06l-.03.02c-.27.1-.55.17-.82.23a.73.73 0 0 1-.6-.13 2.83 2.83 0 0 1-1.2-2.65ZM13.98 9.39a2.83 2.83 0 0 1-1.2 2.65.73.73 0 0 1-.6.13 6.07 6.07 0 0 1-.85-.25l-.02-.03a.06.06 0 0 1 .03-.05 6.73 6.73 0 0 0 1.62-1.87c.24-.25.54-.46.9-.62a.1.1 0 0 1 .07 0c.02 0 .04.02.05.04ZM5.59 9.94a7.04 7.04 0 0 0 1.49-.3.17.17 0 0 1 .1 0l.07.04a9.32 9.32 0 0 0 1.37 1.25.06.06 0 0 1 0 .06L8.6 11a9.13 9.13 0 0 1-1.43.72A6.1 6.1 0 0 1 5.53 10l.01-.03.02-.02.03-.01ZM12.41 9.94h.03l.02.03a.05.05 0 0 1 0 .05 6.1 6.1 0 0 1-1.63 1.7h-.06a9.1 9.1 0 0 1-1.38-.74.06.06 0 0 1 0-.05l.01-.03c.5-.37.95-.78 1.35-1.22a.16.16 0 0 1 .08-.05h.1c.41.14.9.24 1.48.3Z" fill="#0160A5"/><path d="m9 11.22.07.01a11.11 11.11 0 0 0 1.35.75.05.05 0 0 1 0 .06l-.01.02c-.39.25-.8.49-1.21.7a.51.51 0 0 1-.2.06.51.51 0 0 1-.2-.07 11.01 11.01 0 0 1-1.22-.72.05.05 0 0 1 0-.05l.02-.01c.47-.22.91-.46 1.34-.74l.06-.01ZM5.05 12.68a7.84 7.84 0 0 0 2.04-.49l.06.02c.4.29.82.54 1.26.77.03.01.04.03.03.06a7.62 7.62 0 0 1-1.76.45c-.25.02-.4.03-.62-.08a6.34 6.34 0 0 1-1.05-.67v-.03l.01-.02.03-.01ZM12.96 12.68H13l.01.03v.03l-.01.02c-.3.23-.64.44-1.05.65-.22.11-.36.1-.61.07a7.64 7.64 0 0 1-1.77-.44c0-.03 0-.05.03-.06a9.16 9.16 0 0 0 1.32-.79h.07c.58.24 1.25.4 1.98.49ZM9 13.29h.08a10.81 10.81 0 0 0 1.56.5v.05h-.02a9.2 9.2 0 0 1-3.27 0l-.01-.02v-.03h.03a10.77 10.77 0 0 0 1.62-.5Z" fill="#015796"/></svg>