<!-- by TradingView --><svg width="56" height="56" viewBox="0 0 56 56" xmlns="http://www.w3.org/2000/svg"><path fill="#F0F3FA" d="M0 0h56v56H0z"/><path d="M16.5 16.5H16V21h.5v-4.5Zm3 1H17v3h2.5v-3ZM28.5 16.5h.5V21h-.5v-4.5Zm-3 1H28v3h-2.5v-3Z" fill="#002A4D"/><path d="M31 39v5c6.03 0 11-4.7 11-10.5S37.03 23 31 23v5h.5c3.12 0 5.64 2.35 5.64 5.34A5.74 5.74 0 0 1 31.5 39H31Z" fill="#DD7536"/><path d="M20 16v25.38A2.62 2.62 0 0 0 22.63 44H25v-2.1c.74.86 3.1 2.1 6 2.1v-5c-1.73-.23-5-1.37-5-5.5a5.33 5.33 0 0 1 5-5.5v-5.02c-1.12.02-4.01.49-6 2.14V16h-5Zm.66 1.23h1.25l.19 3.34h.98l.28-3.34h1.2l-.66 3.67h-.54a.77.77 0 0 1-.78.61.87.87 0 0 1-.84-.61h-.43l-.65-3.67Z" fill="#002A4D"/><path d="M22.64 20.28h-.12a.41.41 0 0 1-.4-.47l.49-3.34.47 3.37c0 .25-.2.44-.44.44Z" fill="#D07643"/><path fill-rule="evenodd" d="M22.95 10.82v.53h2.65c.2 0 .36.16.36.35 0 .2-.16.36-.36.36h-6.2a.35.35 0 0 1-.36-.36c0-.2.16-.35.36-.35h2.62v-.53c0-.16.13-.28.28-.28h.36c.16 0 .29.12.29.28Zm-1.3 1.77H19.4a.9.9 0 0 1-.9-.89c0-.49.4-.88.9-.88h2.08c0-.45.37-.82.82-.82h.36c.46 0 .83.37.83.82h2.11c.5 0 .9.4.9.88a.9.9 0 0 1-.9.9h-2.26v.4h.97a.7.7 0 0 1 .69.71v.26a.7.7 0 0 1-.54.7v.74c0 .16-.11.54-.52.8l-.56-.2c.2-.04.62-.25.62-.67v-.66h-3v.66c0 .42.42.63.62.67l-.56.2c-.4-.26-.52-.64-.52-.8v-.75a.7.7 0 0 1-.54-.7v-.25c0-.4.3-.71.69-.71h.97v-.4Zm.57.41h.56v-.4h-.56v.4Zm-1.53.6h3.62c.07 0 .12.06.12.11v.26c0 .05-.05.1-.12.1H20.7a.11.11 0 0 1-.12-.1v-.26c0-.05.05-.11.12-.11Z" fill="#002A4D"/></svg>