<!-- by TradingView --><svg width="18" height="18" viewBox="0 0 18 18" xmlns="http://www.w3.org/2000/svg"><path fill="#F0F3FA" d="M0 0h18v18H0z"/><path d="M7.27 7.27 5.32 6l-.58 1.5-.45 2.43.96 1.75 1.8.32 2.95-.9a8.74 8.74 0 0 0-.36-1.7c-.43 1.58-1.55 1.82-1.95 1.82-.4 0-1.24-.2-1.24-1.34 0-.92.55-2.12.82-2.6Z" fill="#64353B"/><path d="M10.73 10.73 12.67 12l.62-1.5.51-2.38-1.05-1.8-1.8-.32L8 6.9c.06.47.22 1.45.36 1.7.43-1.58 1.55-1.82 1.95-1.82.4 0 1.24.2 1.24 1.34 0 .92-.56 2.12-.82 2.6Z" fill="#64353B"/><path d="m12 10.56-2.87-2c.05.12.17.44.17.87 0 1.04-1.03 2.33-2.38 2.33-1.36 0-2.19-1.2-2.19-2.66 0-1.16.4-2.55.6-3.1C4.88 6.86 4 8.97 4 10.56 4 12.55 5.45 14 7.11 14c2.19 0 4.17-2.3 4.89-3.44Z" fill="url(#a)"/><path d="m6 7.44 2.87 2c-.05-.12-.17-.44-.17-.87 0-1.04 1.03-2.33 2.38-2.33 1.36 0 2.19 1.2 2.19 2.66 0 1.16-.4 2.55-.6 3.1.45-.86 1.33-2.97 1.33-4.56C14 5.45 12.55 4 10.89 4 8.7 4 6.72 6.3 6 7.44Z" fill="url(#b)"/><defs><linearGradient id="a" x1="12" y1="10" x2="4" y2="10" gradientUnits="userSpaceOnUse"><stop stop-color="#E9B312"/><stop offset="1" stop-color="#AF6533"/></linearGradient><linearGradient id="b" x1="6" y1="8" x2="14" y2="8" gradientUnits="userSpaceOnUse"><stop stop-color="#E9B312"/><stop offset="1" stop-color="#AF6533"/></linearGradient></defs></svg>