<!-- by TradingView --><svg width="18" height="18" viewBox="0 0 18 18" xmlns="http://www.w3.org/2000/svg"><path fill="#F0F3FA" d="M0 0h18v18H0z"/><path d="M5.08 9.53a4.7 4.7 0 0 1-.88-.03.08.08 0 0 1-.02-.06v-.71l.01-.02h2.1c.04 0 .07 0 .07.03v1.58l-.01.02-.02.02c-.93.63-1.94.8-3.02.5-.95-.26-1.35-1.17-1.3-2.02.03-.83.6-1.6 1.52-1.77.31-.06.69-.08 1.13-.06.86.03 1.43.38 1.65 1.13v.01H6.3v.01l-1.22.16c-.03 0-.05 0-.08-.02a.1.1 0 0 1-.04-.05c-.08-.18-.24-.3-.47-.33-.66-.12-1.03.21-1.1.78-.05.38-.05.88.24 1.16.34.32.83.26 1.29.12.23-.07.3-.2.23-.4-.01-.04-.04-.05-.07-.05ZM9.74 9.31l1.05.3c.07.02.1.06.08.12-.25.88-.97 1.3-1.92 1.27-.72-.02-1.32-.14-1.78-.7-.26-.32-.4-.72-.42-1.2-.04-.96.4-1.82 1.5-2.04.41-.07.82-.08 1.22-.02a1.7 1.7 0 0 1 1.4 1.2.02.02 0 0 1-.02 0l-1.12.2c-.03.01-.05 0-.07-.03a.78.78 0 0 0-.86-.46c-.77.09-.73.95-.67 1.44.07.5.38.7.94.64a.57.57 0 0 0 .38-.18 1.06 1.06 0 0 0 .25-.53h.01a.03.03 0 0 1 .03 0ZM14.87 8.34c.01-.05 0-.08-.02-.08l-.01.1-.68 2.59c0 .03-.03.05-.06.05h-.86c-.04 0-.06-.02-.07-.06l-.76-2.83a68.57 68.57 0 0 1 0 2.85c0 .03 0 .04-.04.04h-.97a.07.07 0 0 1-.05-.02.06.06 0 0 1-.02-.04v-3.9s0-.02.02-.03l.03-.01H13c.04 0 .06.02.07.05l.57 2.13c.02.1.05.1.08 0l.57-2.14c0-.03.02-.04.04-.04h1.6c.03 0 .05 0 .06.02l.02.05v3.89c0 .02-.01.04-.04.04h-1l-.03-.01a.06.06 0 0 1-.04-.04v-.02l-.02-2.59Z" fill="#F90"/></svg>