<!-- by TradingView --><svg width="56" height="56" viewBox="0 0 56 56" xmlns="http://www.w3.org/2000/svg"><path fill="#F0F3FA" d="M0 0h56v56H0z"/><path d="M45 28.8v1.4c-.03.05 0 .1-.01.15l-.03.42c0 .17-.1.26-.25.3-.13.05-.27.07-.41.07-.29 0-.57.02-.85.05-.07 0-.13.03-.2.05-.15.04-.25.14-.28.3-.07.36-.18.7-.29 1.05-.07.23-.04.33.15.5.23.2.5.35.76.53l.2.14c.23.18.28.37.16.64l-.24.53c-.13.27-.24.55-.38.82-.14.27-.27.33-.57.28-.25-.04-.49-.12-.73-.2-.19-.05-.38-.08-.58-.07a.31.31 0 0 0-.29.17c-.2.33-.41.66-.65.97-.1.13-.1.25-.04.39.1.2.24.37.38.54l.35.46c.2.25.19.42-.02.67-.27.31-.55.61-.84.91l-.14.16c-.19.23-.37.26-.64.14a2.97 2.97 0 0 1-.37-.23c-.2-.14-.42-.28-.64-.39-.27-.12-.36-.1-.58.08-.27.24-.56.47-.86.68-.13.1-.16.21-.14.36.04.28.16.54.26.8l.15.44c.06.24 0 .4-.22.52-.37.23-.76.44-1.14.66l-.17.1c-.3.15-.49.11-.7-.14l-.49-.6c-.1-.13-.22-.26-.36-.35a.3.3 0 0 0-.31-.03c-.37.16-.75.3-1.14.42-.15.04-.23.14-.26.28-.04.22-.04.44-.02.66.03.23.03.46.02.69-.01.22-.14.35-.37.4-.46.11-.92.18-1.37.3-.54.12-.62-.09-.77-.44-.1-.22-.17-.45-.26-.68a1.67 1.67 0 0 0-.06-.12c-.18-.37-.26-.4-.67-.36-.33.03-.66.05-1 .04-.15 0-.25.06-.32.2-.14.26-.2.56-.28.85l-.12.39c-.1.24-.28.33-.53.3-.46-.06-.91-.12-1.37-.16-.5-.04-.56-.22-.59-.62-.02-.3-.02-.6-.06-.91l-.01-.08c-.04-.24-.15-.37-.4-.42-.37-.06-.72-.18-1.08-.3-.15-.04-.25 0-.35.1-.15.14-.27.3-.38.48-.13.2-.25.4-.4.58-.16.18-.32.23-.54.13-.48-.2-.96-.42-1.43-.64-.25-.11-.32-.28-.27-.58.05-.25.13-.5.2-.74.05-.17.08-.35.07-.54 0-.12-.05-.2-.16-.27-.34-.2-.67-.41-.98-.65-.18-.14-.33-.11-.5 0-.2.12-.39.26-.57.41-.12.1-.25.22-.4.3-.23.14-.39.13-.6-.06-.38-.32-.74-.67-1.12-1-.19-.17-.23-.39-.1-.63.1-.17.2-.33.32-.49.13-.19.26-.38.34-.6.06-.16.04-.3-.08-.43a8.5 8.5 0 0 1-.7-.88c-.12-.16-.26-.19-.43-.16-.2.04-.38.11-.57.19l-.57.2c-.3.08-.47.01-.63-.26l-.69-1.21c-.18-.32-.16-.47.11-.72.22-.2.47-.38.7-.57.1-.09.18-.18.25-.28.08-.11.1-.22.03-.35a7.6 7.6 0 0 1-.38-1.04c-.07-.23-.22-.32-.43-.33a4.1 4.1 0 0 0-.72 0c-.17.03-.34.03-.51.01-.23-.02-.36-.13-.42-.36l-.25-1.2-.06-.31c-.05-.28.02-.43.28-.55.24-.12.5-.2.76-.3.17-.07.34-.14.48-.26.09-.07.14-.15.13-.26-.03-.4-.04-.8-.03-1.2 0-.16-.08-.26-.21-.34-.23-.13-.49-.2-.74-.26-.17-.04-.33-.08-.5-.14-.13-.06-.25-.13-.28-.28v-.4c.04-.25.04-.51.06-.77l.06-.63c.04-.26.2-.39.52-.4.25-.01.5-.04.75-.04.2 0 .4-.04.58-.13.09-.04.14-.1.16-.19.1-.38.2-.77.32-1.15.07-.18-.02-.3-.13-.42-.17-.18-.38-.29-.57-.42-.14-.1-.29-.18-.42-.29-.24-.18-.29-.37-.16-.64l.45-.99.15-.32c.15-.3.29-.37.63-.3.25.04.49.12.73.19.18.04.36.08.54.07.12 0 .22-.05.29-.15.22-.35.45-.7.7-1.03.07-.1.04-.22 0-.33-.1-.2-.24-.38-.38-.56-.13-.17-.28-.33-.4-.51-.15-.24-.15-.38.04-.6.24-.29.5-.56.76-.84l.24-.27c.22-.23.41-.25.68-.1.2.11.38.24.56.36.17.1.33.22.53.28.16.05.3.04.45-.1.27-.23.55-.44.84-.65.16-.11.2-.26.16-.44-.05-.3-.17-.57-.28-.85a2.8 2.8 0 0 1-.13-.4.4.4 0 0 1 .19-.46c.3-.2.61-.36.92-.53.16-.1.32-.2.5-.28.21-.1.36-.08.55.09.15.14.27.3.4.47.15.19.28.38.48.53.15.1.3.13.48.05.3-.13.6-.25.9-.34.27-.07.38-.24.4-.5 0-.21.01-.43-.02-.65-.02-.2-.02-.39 0-.58.02-.22.16-.35.41-.4l.86-.17.6-.13c.28-.05.43.02.56.28.12.23.19.47.28.7l.14.32c.13.28.33.43.65.37.3-.05.6-.02.9-.02a.4.4 0 0 0 .38-.2c.11-.19.17-.39.23-.6.06-.22.12-.45.2-.67.05-.15.14-.26.3-.28h.35c.27.04.55.03.83.06l.6.06c.27.04.4.22.41.57a15.38 15.38 0 0 0 .1 1.12c.06.19.16.32.38.37.31.06.63.14.92.25.23.09.4.02.55-.13.18-.19.31-.41.45-.63l.25-.36c.18-.22.35-.27.61-.16l.55.24.8.37c.3.15.37.29.3.62-.04.25-.12.49-.19.73-.05.18-.08.36-.07.54 0 .14.06.25.19.33.31.18.62.38.9.6.15.1.28.11.44.04.2-.09.38-.23.56-.37.17-.14.33-.28.51-.4.24-.14.35-.13.57.03.14.1.26.22.38.33l.78.7c.2.2.23.4.09.65-.16.28-.36.53-.52.8a.97.97 0 0 0-.16.47c0 .09.02.16.08.23.25.3.5.6.72.9.1.14.23.17.39.14.31-.04.6-.18.9-.29.12-.04.25-.1.38-.11.24-.05.38 0 .5.22.17.27.32.54.48.82l.29.5c.13.23.1.42-.09.61-.22.23-.5.4-.74.6l-.19.2c-.14.16-.2.33-.1.55.15.32.27.66.38 1 .04.13.12.2.24.23.24.08.49.07.73.05.24-.03.48-.02.72-.01.19 0 .33.12.37.3.12.56.27 1.11.3 1.68.02.22-.07.36-.27.44-.28.13-.56.22-.84.33-.14.05-.27.13-.4.22a.33.33 0 0 0-.13.3c.03.37.07.73.04 1.09-.01.25.11.38.32.47.22.1.45.15.67.2l.41.12c.1.03.18.08.22.17Z" fill="#EDB500"/><path d="M45 30.34h-.03c0-.04 0-.1.03-.14v.14Z" fill="#F7E198"/><path d="M41.68 27.97a13.6 13.6 0 0 1-13.62 13.56 13.6 13.6 0 0 1-13.63-13.57 13.6 13.6 0 0 1 13.63-13.55 13.6 13.6 0 0 1 13.62 13.56Z" fill="#F0F3FA"/><path d="M15.45 27.97c0-6.93 5.64-12.55 12.61-12.55s12.62 5.63 12.61 12.55a12.58 12.58 0 0 1-12.62 12.55 12.59 12.59 0 0 1-12.6-12.55Z" fill="#193272"/><path d="M33 25.5c-.06.33-.1.66-.18.98-.01.06 0 .09.08.09h.27c.1-.02.12.03.12.12 0 .32 0 .32-.3.32s-.3 0-.41.28c-.06.15-.06.15.1.15.15 0 .3-.02.44 0 .18.04.06.2.09.29.01.05.05.16-.09.16h-.7c-.07 0-.11 0-.14.09l-.18.34h.82c.3 0 .29 0 .3.28 0 .13-.03.17-.16.17-.38-.01-.75 0-1.12 0-.07 0-.11 0-.15.07l-.23.34c.04.05.08.02.12.02h1.4c.11 0 .14.03.14.14 0 .3 0 .3-.32.3h-1.58a.22.22 0 0 0-.2.09l-.31.36h2.27c.1 0 .14.02.14.13-.01.3 0 .3-.3.3h-2.45c-.1 0-.17.03-.25.1l-.47.34H33.07c.12 0 .15.03.14.14 0 .3 0 .3-.3.3h-3.8c-.28 0-.51.13-.77.16-.04 0-.08.02-.11.03-.08.02-.11 0-.1-.08V20c-.02-.11 0-.14.12-.08l1.87 1.03c.91.5 1.82 1 2.73 1.48.12.07.18.14.17.28-.02.13.04.16.18.16h5.73c.14 0 .2.04.25.16.11.28.12.28-.18.28h-5.77c-.14 0-.2.02-.18.17.03.27.02.27.3.27h5.95c.14 0 .2.04.23.16.09.29.1.28-.21.28h-6.1c-.12 0-.17.02-.16.16l-.01.36c.24-.1.49-.08.73-.08h5.8c.14 0 .22.02.23.17.01.12.13.28.06.37-.06.07-.24.02-.37.02h-5.07a.7.7 0 0 0-.54.2c-.27.28-.57.24-.9.11ZM20.14 31.58v-5.4c0-.08 0-.16.02-.23.05-.2.15-.27.35-.28h.82c.32-.02.48.2.48.5-.02 1.88 0 3.76-.01 5.64 0 .08 0 .18.08.22.08.04.16 0 .24-.05.72-.47 1.49-.46 2.1.04.09.08.17.17.25.27.16.21.32.23.5.02a1.7 1.7 0 0 1 1.75-.5c.6.22 1.1.53 1.3 1.18.05.17.07.35.07.53v3.78c0 .12-.02.24-.06.36-.06.16-.14.22-.31.22h-1.1c-.23 0-.34-.1-.37-.33v-3.41c0-.4-.24-.62-.66-.62-.32 0-.62.31-.62.64v3.33c-.03.24-.16.38-.4.39l-1 .01c-.25 0-.36-.1-.36-.35l-.02-1.8V34.3c0-.47-.27-.73-.73-.72-.2 0-.36.08-.45.26-.11.22-.18.45-.18.7v2.73l-.01.22c-.02.25-.13.35-.38.37-.12.01-.25 0-.37-.04-.33-.1-.59-.31-.84-.53-.09-.07-.11-.16-.11-.27v-5.45h.02Z" fill="#EDB500"/><path d="M35.9 31.6v5.49c0 .09-.02.15-.09.21-.28.27-.58.5-.94.67-.28.12-.54.15-.76-.1-.2-.23-.4-.23-.68-.12-.42.17-.86.3-1.32.3a3.18 3.18 0 0 1-3.07-2.71 3.15 3.15 0 0 1 2.32-3.5 3.13 3.13 0 0 1 2.28.23c.04.02.09.05.14.06.2.07.37-.04.4-.26V26c.03-.13.1-.23.25-.23h1.26c.14 0 .21.1.24.22v5.61h-.02ZM22.8 18.9h-2.78l-.01-.03c.15-.12.3-.26.47-.38.05-.04.1-.02.16-.02h6.5c.13 0 .17-.03.16-.16 0-.28 0-.28-.28-.28h-5.88c.3-.19.53-.45.94-.45 1.69.02 3.38.01 5.07.01.12 0 .16-.02.15-.15 0-.3 0-.3-.3-.3H22.63v-.02l.92-.4c.04-.02.1-.01.15-.01h3.46c.12 0 .16-.02.15-.15 0-.29 0-.29-.28-.29h-2.07v-.02l1.13-.2 1.17-.2.18-.03c.94-.06 1.87.09 2.8.27l.75.13c.04 0 .1.02.14.05H28.9c-.21 0-.18-.02-.18.18 0 .26 0 .26.26.26h3.44c.1 0 .18.01.27.05.27.13.54.24.8.39H28.86c-.11 0-.15.02-.15.14 0 .3 0 .3.3.3h5.2c.1 0 .19.02.27.08l.5.34c-.06.03-.1.02-.16.02H28.9c-.21 0-.18-.03-.19.19 0 .05.02.1-.01.17l-.57-.25c-.11-.05-.13-.02-.13.09v1.38c0 .1-.02.15-.11.2a864.3 864.3 0 0 0-4.75 2.52.8.8 0 0 1-.4.1h-5.51l.2-.4c.04-.06.11-.04.16-.04H23.23c.1 0 .12-.02.12-.11 0-.33 0-.33-.32-.33h-5.29c.1-.14.17-.27.25-.4.05-.06.11-.04.17-.04h4.97c.22 0 .22 0 .22-.22s0-.22-.22-.22h-4.79l.33-.42c.04-.05.1-.02.15-.02h3.84c.14 0 .18-.03.18-.17-.02-.27 0-.27-.28-.27h-3.5l.41-.42c.04-.04.1-.02.15-.02h3.06c.13 0 .17-.04.15-.16v-.26c.05-.03.1-.02.16-.02H27.22c.02-.02 0-.04 0-.03v.02c-.02.02-.05.01-.08.01H22.9l-.09-.01ZM25.66 23.46h1.8c.1 0 .14.02.12.12v.1c0 .08.02.18-.01.24-.05.07-.15.02-.23.03-.09 0-.08.05-.08.1v2.64c0 .1-.02.13-.12.13h-.41c-.11 0-.13-.03-.13-.14V24.08c0-.11-.03-.14-.14-.13-.27 0-.22-.04-.23.22v2.49c0 .12-.03.17-.15.16-.11-.02-.23-.01-.34 0-.1 0-.13-.03-.13-.13v-1.23c0-.12-.03-.15-.14-.14h-.3c-.08 0-.1.02-.1.1v.55c0 .2-.12.33-.33.34a.7.7 0 0 1-.65-.35c-.14-.24-.18-.5-.22-.77-.02-.1.05-.18.15-.23a.7.7 0 0 1 .32-.08c.1 0 .13-.02.12-.12v-.69c.01-.1-.03-.12-.12-.12h-.48c-.1.01-.14-.01-.14-.11 0-.38 0-.38.38-.38h1.56ZM19.64 24.63h3.14c.13 0 .18.03.18.17 0 .23.03.46.05.68.01.1 0 .13-.1.11a.5.5 0 0 1-.32-.14.85.85 0 0 0-.67-.27c-1.85.02-3.7.01-5.56.01-.12 0-.18-.01-.12-.15.05-.13.02-.3.13-.39.1-.07.26-.02.4-.02h2.87ZM19.7 24.2h-3.08c-.12 0-.14-.02-.1-.14.11-.3.1-.3.43-.3l5.82-.01c.14 0 .17.03.17.17-.02.28 0 .28-.29.28h-2.94ZM19.88 23.31h-2.9c-.16 0-.16 0-.1-.15.13-.29.13-.29.44-.29h5.5c.11 0 .17 0 .15.15-.03.3-.02.3-.31.3h-2.78Z" fill="#EDB500"/><path d="M36.1 18.88c-.06.04-.12.03-.17.03l-5.7-.01c-.07 0-.13 0-.19-.02l-1.05-.4.13-.01h6.4c.08 0 .13.02.19.07l.4.34ZM38.87 22.4c-.05.04-.1.03-.14.03h-5.54c-.13 0-.16-.03-.15-.16 0-.28 0-.28.29-.28h5.17c.11 0 .18.02.23.13l.14.29ZM38.39 21.55H33.2c-.13 0-.17-.03-.16-.16 0-.28 0-.28.28-.28h4.6c.13 0 .22.03.28.15.05.1.11.17.19.29ZM37.75 20.65c-.05.03-.1.02-.13.02H33.8c-.12 0-.15-.02-.15-.14.01-.3 0-.3.3-.3h3.3c.12 0 .2.02.26.12l.23.3Z" fill="#EDB500"/><path d="m26.93 31.4-3.92.01c-.1 0-.13-.03-.13-.13 0-.31 0-.31.32-.31h2.89c.07 0 .14 0 .2.05.21.14.43.25.64.39Z" fill="#ECB500"/><path d="M37.04 19.8H33.8c-.11 0-.14-.04-.14-.15 0-.3 0-.3.3-.3h2.51c.1 0 .18.02.25.1l.32.34ZM25.58 30.52h-2.55c-.1 0-.15-.02-.15-.13.01-.3 0-.3.3-.3h1.85c.1 0 .18.02.25.1l.3.33ZM24.76 29.62c-.04.04-.07.02-.1.02h-1.64c-.11 0-.14-.02-.14-.13 0-.3 0-.3.3-.3h1.15c.08 0 .14.02.19.09l.24.32Z" fill="#EDB500"/><path d="M24.14 28.76h-1.16c-.08 0-.1-.02-.1-.1 0-.34-.01-.34.34-.34h.57c.07 0 .12.02.15.08l.2.36Z" fill="#ECB500"/><path d="M23.67 27.89h-.7c-.06 0-.09-.02-.08-.1v-.03c0-.32 0-.3.31-.32.21-.02.34.04.38.25l.09.2Z" fill="#ECB401"/><path d="M23.06 27c-.25 0-.25 0-.25-.23v-.12c0-.06.02-.08.09-.09.29-.01.28-.01.35.2.06.25.06.25-.2.25Z" fill="#EBB401"/><path d="M30.73 23.44h1.81c.1 0 .15.02.13.12v.12c0 .23 0 .24-.23.25-.12 0-.08.08-.08.14v2.55c0 .14-.03.2-.18.18a1.88 1.88 0 0 0-.37 0c-.1 0-.13-.03-.13-.14v-2.55c.01-.15-.03-.18-.18-.18-.3.01-.3 0-.29.3v.35c.01.22-.07.32-.3.32-.15 0-.3-.03-.46-.04l-.45-.02c-.1 0-.2.04-.21.16-.01.11.08.16.18.18.2.05.43.01.64.06.15.03.29.06.42.13a.6.6 0 0 1 .33.6c-.03.52-.3.81-.81.88-.4.06-.78.02-1.15-.11-.26-.1-.46-.27-.63-.48-.04-.05-.05-.09 0-.14.1-.08.17-.22.27-.24.11-.03.18.13.28.2.18.13.37.26.6.3a.5.5 0 0 0 .47-.17c.12-.13.1-.3-.05-.4a.76.76 0 0 0-.41-.12 3 3 0 0 1-.67-.09c-.34-.09-.47-.27-.43-.62 0-.08.03-.16.04-.23.02-.18.14-.28.3-.33.29-.1.6-.1.9-.06.24.02.2.02.19-.18 0-.25 0-.25-.25-.25h-1.1c-.1 0-.12-.01-.12-.1-.01-.39-.02-.39.37-.39h1.57Z" fill="#193273"/><path d="M31.36 23.26a1.4 1.4 0 0 1-1.04-.54c-.08-.1-.03-.2.04-.28.07-.08.15-.1.25-.02l.22.15c.34.23.7.25 1.06.05.06-.03.12-.09.19-.05.1.05.2.12.3.2.04.02 0 .05-.03.07-.29.25-.6.41-.99.42Z" fill="#193272"/><path d="M32.59 33.25c.91 0 1.66.74 1.67 1.65 0 .92-.75 1.67-1.67 1.67-.92 0-1.67-.75-1.67-1.66 0-.91.75-1.66 1.67-1.66Z" fill="#193273"/><path d="M25.2 24.4v-.34c-.01-.08.01-.1.09-.1h.35c.07-.01.1 0 .1.08v.72c0 .07-.03.1-.1.09-.15-.01-.35.06-.42-.03-.07-.1-.02-.28-.02-.43Z" fill="#193272"/></svg>