<!-- by TradingView --><svg width="56" height="56" viewBox="0 0 56 56" xmlns="http://www.w3.org/2000/svg"><path fill="#F0F3FA" d="M0 0h56v56H0z"/><path fill-rule="evenodd" d="M43.69 34.57A17.02 17.02 0 0 0 14.95 17.1a17 17 0 0 0 4.12 25.37 17.11 17.11 0 0 0 10.36 2.47c3.2-.3 6.01-1.34 8.45-3.11a16.92 16.92 0 0 0 5.8-7.25Zm-21.32 8.8a16.3 16.3 0 0 0 12.54-.53 16.23 16.23 0 0 0 8.5-9.22c.75-2.04 1.07-4.14.98-6.31a16.23 16.23 0 0 0-10.75-14.7 16.29 16.29 0 0 0-12.54.53 16.23 16.23 0 0 0-8.5 9.22 16.2 16.2 0 0 0 .53 12.52 16.23 16.23 0 0 0 9.24 8.49ZM28 17.38l1.91.01c.06 0 .09-.02.09-.07v-2.24c0-.05.02-.08.08-.08h1.83c.06 0 .09.03.09.08v6.84c0 .05-.03.08-.09.08h-1.83c-.05 0-.08-.02-.08-.07v-2.37c0-.04-.02-.05-.06-.05a275.27 275.27 0 0 1-3.88 0c-.04 0-.06.01-.06.05v2.36c0 .05-.03.08-.08.08h-1.83c-.06 0-.09-.03-.09-.08v-6.84c0-.05.04-.08.1-.08h1.82c.06 0 .08.03.08.08v2.23c0 .05.04.08.09.08l1.91-.01ZM14.71 23h27.83c.05 0 .09.03.09.06v.88c0 .03-.04.06-.09.06H14.71c-.05 0-.08-.03-.08-.06v-.88c0-.03.03-.06.08-.06Zm8.3 7.65c-.04 0-.05-.02-.03-.06l1.87-4.51c.03-.05 0-.08-.05-.08H23a.15.15 0 0 0-.14.1 831.85 831.85 0 0 1-4.75 10.88c-.03.07-.06.19-.1.36-.05.24.04.41.26.52.16.08.37.12.63.13l6.84.01c.65 0 1.26-.05 1.26-.84v-5.5c0-.65-.45-.97-1.1-.98l-2.89-.03Zm-.85 1.43-1.48 3.87c0 .01 0 .05.02.05h3.62c.42 0 .66-.23.68-.66v-2.7c-.03-.39-.2-.62-.58-.64h-2.14c-.06 0-.1.03-.12.08Zm10.73-1.42c.05 0 .07-.02.05-.07L31 26.05c0-.03 0-.05.03-.05h1.86c.07 0 .13.04.16.1 2.2 5.09 3.83 8.74 4.85 10.97.16.34.1.6-.17.77-.13.1-.32.14-.56.14-1.62.02-4.04.02-7.29.02-.47 0-.75-.17-.84-.5a314.2 314.2 0 0 1-.05-5.93c.01-.4.13-.65.38-.77.15-.07.44-.11.89-.12h.14c.83-.02 1.66-.02 2.48-.02Zm2.33 5.32c-1.28.02-2.42.02-3.44.02-.37 0-.7-.15-.78-.44V32.6c.02-.38.23-.6.65-.61h2.08c.07 0 .11.03.14.1l1.43 3.77c.02.07 0 .1-.08.1Z" fill="#0059FF"/></svg>