<!-- by TradingView --><svg width="56" height="56" viewBox="0 0 56 56" xmlns="http://www.w3.org/2000/svg"><path fill="#F0F3FA" d="M0 0h56v56H0z"/><path d="M31.96 16.01c-.66.3-2.4.9-4.17.9-1.75 0-3.8-.43-4.62-.65l.1-.36c.8.21 2.81.64 4.52.64 1.7 0 3.38-.58 4.01-.87l.16.34Zm4.05 1.84c-1.55.55-5.36 1.7-8.2 1.91-2.86.22-6.81-.66-8.43-1.13l.1-.36c1.61.46 5.51 1.33 8.3 1.12a37.82 37.82 0 0 0 8.1-1.9l.13.36Zm1.6 1.35c-1.6.95-5.8 2.91-9.8 3.15-4.03.24-8.28-1.37-9.9-2.2l.17-.34c1.6.82 5.78 2.4 9.7 2.16 3.92-.23 8.06-2.16 9.63-3.09l.2.32Zm1.35 1.67c-1.31 1.04-5.36 3.2-11.16 3.63-5.8.45-9.91-1.58-11.26-2.68l.24-.29c1.27 1.04 5.28 3.04 11 2.6 5.72-.44 9.7-2.56 10.94-3.55l.24.3Zm1.2 2c-1.5 1.34-6.03 4.06-12.36 4.34-6.33.28-10.76-2.07-12.2-3.3l.24-.28c1.37 1.17 5.7 3.48 11.94 3.2 6.24-.27 10.69-2.96 12.11-4.24l.26.27Zm1.2 4.54L14.98 28.6l-.02-.38 26.39-1.17.01.37Z"/><path d="m15.86 23.41.17-.43C10.57 24.38 7 26.7 7 29.35c0 4.29 9.4 7.76 21 7.76s21-3.47 21-7.76c0-2.58-3.43-4.88-8.7-6.29l.18.44c.79.22 1.54.46 2.23.72 1.88.7 3.37 1.5 4.39 2.4 1.01.88 1.52 1.8 1.52 2.73 0 .93-.5 1.86-1.52 2.74-1.02.89-2.51 1.7-4.39 2.4-3.74 1.38-8.94 2.25-14.71 2.25-5.77 0-10.97-.87-14.71-2.25-1.88-.7-3.37-1.51-4.39-2.4-1.01-.88-1.52-1.81-1.52-2.74 0-.92.5-1.85 1.52-2.74 1.02-.88 2.51-1.7 4.39-2.4.79-.29 1.65-.56 2.57-.8Z"/><path d="m15.22 25.65.05-.28c-2.49.88-3.99 2.03-3.99 3.29 0 2.8 7.49 5.08 16.72 5.08 9.23 0 16.72-2.28 16.72-5.08 0-1.2-1.35-2.29-3.6-3.15 0 .1.02.19.04.29.83.33 1.52.68 2.04 1.06.81.58 1.21 1.2 1.21 1.8 0 .6-.4 1.2-1.2 1.79-.82.58-2 1.12-3.5 1.57A42.1 42.1 0 0 1 28 33.49a42.1 42.1 0 0 1-11.71-1.47c-1.5-.46-2.68-.99-3.5-1.57-.8-.58-1.2-1.19-1.2-1.8 0-.6.4-1.2 1.2-1.79.61-.43 1.43-.84 2.43-1.2Z"/><path d="m15.03 26.9.02-.18c-1.57.66-2.49 1.44-2.49 2.28 0 2.32 6.91 4.2 15.44 4.2s15.44-1.88 15.44-4.2c0-.8-.82-1.53-2.23-2.17a6 6 0 0 1 .02.18c1.02.45 1.93 1.1 1.93 2 0 1.6-2.88 2.38-4.18 2.73l-.16.04A43.19 43.19 0 0 1 28 33a43.19 43.19 0 0 1-10.98-1.26c-1.3-.35-4.18-1.13-4.18-2.74 0-.97 1.06-1.64 2.19-2.1Z"/><path fill-rule="evenodd" d="M25.55 40.75h-.01a13.15 13.15 0 0 1-7.95-4.89l.67.13.35.4.47-.25.9.14c.34.47.7.89 1.07 1.26l.95-.29-.45-.75.47.05.37.6c.39-.12.8-.23 1.23-.33l-.05-.12c.55.05 1.11.09 1.69.12l-1.1.25c.41.88.86 1.6 1.28 2.18.26-.07.53-.14.82-.2-.26-.62-.53-1.36-.78-2.22l.4.02c.25.82.51 1.54.76 2.14.44-.07.9-.12 1.36-.13-.05-.61-.1-1.27-.13-1.96h.38l.13 1.96c.34 0 .7.03 1.06.07.24-.58.49-1.27.72-2.06l.4-.01c-.23.8-.49 1.51-.73 2.12.3.03.59.08.88.12.43-.6.9-1.38 1.31-2.31l.43-.03a14.4 14.4 0 0 1-1.33 2.42l.8.15c.64-.6 1.32-1.42 1.94-2.43l-.95-.17 1.57-.15c0 .02-.02.04-.03.05l1.28.28.4-.53.52-.09c-.17.25-.34.5-.52.72l.73.19c.4-.36.76-.75 1.1-1.16l.6-.15a13.45 13.45 0 0 1-13.01 4.86Zm15.23-9c.38-1.2.58-2.45.58-3.75 0-7.18-5.92-13-13.22-13-7.3 0-13.23 5.82-13.23 13 0 1.37.22 2.7.63 3.97l.5.13c-.45-1.28-.7-2.66-.7-4.1 0-4.9 2.86-9.15 7.02-11.22A14.33 14.33 0 0 0 17 28.15c0 1.3.15 2.48.41 3.56-.3.18-.57.36-.81.53l.5.12c.13-.1.27-.18.41-.27l.11.38.43.09-.2-.68c.54-.32 1.17-.64 1.87-.96.1.7.24 1.37.4 2l1.17.17 1.06-.35.1.5.4.04-.13-.66c.56-.16 1.16-.32 1.8-.46.05.44.12.87.19 1.28l.39.03c-.08-.45-.15-.9-.2-1.39a26.8 26.8 0 0 1 2.75-.4l.06 1.77c-.3.02-.6.06-.91.1a54.38 54.38 0 0 0 4.53-.04c.1-.59.2-1.2.27-1.85.65.06 1.27.15 1.86.27-.08.5-.18.98-.28 1.44l.4-.05c.1-.42.18-.86.26-1.32.65.14 1.25.3 1.81.48-.04.2-.1.4-.15.58l.42-.06.1-.4.67.25.66-.13c-.38-.17-.8-.33-1.25-.48.15-.68.26-1.39.33-2.14.76.26 1.42.55 2 .83-.1.57-.25 1.12-.4 1.64l.42-.1c.13-.44.24-.89.33-1.36.58.3 1.04.6 1.37.86l.63-.22Zm-12.64 8.82c-.25 0-.5 0-.74-.02-.18-.3-.39-.7-.6-1.2.4-.07.81-.11 1.23-.12.04.48.08.93.13 1.34h-.02Zm-1.73-1.16c.19.44.37.81.53 1.1a12.7 12.7 0 0 1-.36-.03c-.26-.2-.56-.51-.89-.9.23-.07.47-.12.72-.17Zm-1.11.27c.2.27.42.5.61.7l-.4-.07a6.46 6.46 0 0 1-.7-.48l.49-.15Zm-4.36-1.7c.52.51 1.06.95 1.56 1.3-.7-.33-1.36-.72-1.97-1.18l.4-.13Zm-.3-.3-.48.15a12.8 12.8 0 0 1-1.28-1.15l.66-.35c.35.5.72.94 1.1 1.34Zm-3.26-9.53c0-6.96 4.52-10.96 6.8-12.1l.24-.08c-2.01 1.65-4.89 5.61-4.89 12.18a20 20 0 0 0 .14 2.38c-.72.32-1.36.65-1.91.97a14.59 14.59 0 0 1-.38-3.35Zm8.06-12.44.17-.04c-1.5 1.57-3.72 5.61-3.72 12.22 0 .61.02 1.2.06 1.77-.68.22-1.32.46-1.91.7a19.7 19.7 0 0 1-.13-2.21c0-7.4 3.72-11.38 5.53-12.44ZM22.27 27.9c0-7.22 2.67-11.26 4.02-12.33l.24-.03c-.86 1.7-2.28 6.16-2.28 12.36 0 .4 0 .78.02 1.15-.68.15-1.33.32-1.95.5-.03-.53-.05-1.08-.05-1.65Zm2.36 0c0-6.47 1.56-11 2.36-12.41l.48-.03c-.02 3.12 0 8.18.1 13.13-1.02.07-2 .2-2.92.39l-.02-1.08Zm7.51 12.05-.52.16.41-.36.35.08-.24.12Zm4.38-2.44c-.75.64-1.58 1.2-2.47 1.65.6-.49 1.23-1.1 1.83-1.82l.64.17Zm4.4-9.5c0 1.28-.19 2.5-.54 3.67-.38-.29-.89-.61-1.53-.94.14-.81.2-1.67.2-2.58a14.3 14.3 0 0 0-5.7-11.63A12.57 12.57 0 0 1 40.93 28Zm-9.34-12.11.29.08-.03.06c2.27 1.12 6.84 5.13 6.84 12.12 0 .84-.07 1.64-.19 2.4-.58-.29-1.26-.57-2.03-.84.04-.5.06-1.02.06-1.56 0-6.53-2.9-10.57-4.94-12.26Zm-1.22-.27.28.05c1.85 1.15 5.5 5.22 5.5 12.48 0 .5-.02.97-.05 1.44-.6-.2-1.26-.38-1.95-.53.02-.38.02-.77.02-1.17 0-6.6-2.28-10.69-3.8-12.27Zm-.96-.13.3.03c1.37 1.12 4.08 5.22 4.08 12.37 0 .37 0 .74-.02 1.09-.62-.13-1.28-.23-1.96-.3v-.79c0-6.23-1.52-10.72-2.4-12.4Zm-1.26-.06c.27 0 .54 0 .81.02.8 1.4 2.47 5.96 2.47 12.44v.74a23.4 23.4 0 0 0-3.47-.07 523 523 0 0 1-.1-13.13h.29Zm3.43 24.21a7.1 7.1 0 0 1-.92.69l-.56.1c.24-.25.51-.55.79-.92l.7.13Zm-1.12-.2c-.38.49-.73.84-1.03 1.07l-.32.03c.18-.32.37-.72.58-1.2l.77.1Zm-1.16-.15c-.24.54-.46.96-.64 1.27h-.1c-.05-.4-.1-.85-.14-1.33l.88.06Zm6.77-9.32c-.6-.2-1.25-.37-1.94-.53-.05.77-.12 1.5-.22 2.19.65.14 1.27.3 1.84.49.14-.68.25-1.4.32-2.15Zm-3.7 9.46c.64-.63 1.3-1.45 1.9-2.45.43.08.83.17 1.2.26-.87 1.03-1.8 1.8-2.6 2.3l-.5-.11Zm-1.14-7.8c-.08.66-.17 1.29-.27 1.89-.93-.12-1.88-.16-2.8-.1h-.06l-.06-1.78h.15c1.07-.09 2.08-.08 3.04-.01Zm.42-.34c.66.06 1.28.15 1.88.26.1-.69.18-1.42.22-2.2a22.2 22.2 0 0 0-1.95-.3c-.03.77-.08 1.52-.15 2.24ZM31.4 29c-.02.78-.07 1.53-.14 2.24a20.6 20.6 0 0 0-3.11 0l-.13.02-.06-2.34a24.02 24.02 0 0 1 3.44.08Zm-11.32 1.75c.11.79.26 1.53.45 2.22.54-.21 1.12-.42 1.75-.62-.13-.72-.24-1.5-.3-2.32-.68.23-1.31.47-1.9.72Zm1.27 7.08.87-.26c.6.89 1.25 1.6 1.86 2.13l-.07.04c-.75-.36-1.71-.99-2.66-1.9Zm1.26-.37c.62.88 1.27 1.58 1.86 2.09.17-.07.37-.13.59-.2-.43-.59-.87-1.32-1.28-2.2-.4.1-.8.2-1.17.31Zm1.86-5.68c-.64.14-1.25.3-1.82.46-.13-.73-.24-1.5-.3-2.32.61-.2 1.26-.36 1.93-.5.04.82.1 1.6.2 2.36Zm.38-.08c-.09-.75-.15-1.54-.19-2.36.92-.19 1.9-.32 2.92-.4l.06 2.35c-.99.1-1.92.24-2.8.41Z"/><path d="M30.14 23 32 26.36l-1.76.57c-.1-.24-.16-.5-.45-.6.04.89.15 2.65.22 3.68.28.31.68.59 1.13.68l.38.08v1.99l-5.68.24-.2-1.7.15-.15c.34-.32 1.03-.96.98-1.47-.06-.54-.18-2.42-.24-3.32-.2.2-.33.4-.48.62L24 26.62l1.47-3.47 4.67-.15Z"/><path d="m25.81 23.56-1.16 2.74 1.16.2c.16-.22.53-.67.79-.67.25 0 .38.31.42.47.05.89.18 2.8.23 3.35.06.54-.71 1.42-1.1 1.79l.13 1.12 4.75-.2V31.1c-.74-.15-1.3-.7-1.5-.94-.08-1.26-.25-3.88-.25-4.33.8-.02 1.16.36 1.25.56l.8-.26-1.5-2.7-4.02.13Z" fill="#FCF931"/><path d="m35.8 23 .6 1.41-.2.19c-.09.1-.22.24-.33.39-.17.23-.06.48 0 .74a280.59 280.59 0 0 0 .92 4.05v.01c.01.08.07.13.15.12.88-.1.55-1.65 1.2-2.08.17-.13.4-.19.64-.2l.23-.01.13.2c.2.35 1.1 2.05 1.52 2.84l.22.43L34.12 33l-.65-1.54c.24-.38.57-.9.49-1.37-.08-.47-.62-2.83-.87-3.96-.07-.28-.4-.39-.66-.45l-.3-.07c0-.4-.13-.79-.13-1.18v-.3L35.8 23Z"/><path d="m35.58 23.48-3.19.95c0 .1.12.53.12.87.77.17.96.57.96.74.25 1.13.79 3.5.87 3.98.09.48-.25 1.18-.43 1.48l.43 1.03 5.97-1.68c-.42-.8-1.3-2.5-1.5-2.83-.8.04-.75.67-.84 1.22-.1.56-.5 1-.99 1.06-.38.05-.54-.27-.57-.43l-1.06-4.67c-.03-.22.38-.68.58-.88l-.35-.84Z" fill="#FCF931"/><path d="M18.52 22.47a.79.79 0 0 1 .9-.45l3.1.74c1.08.24 1.8 1.41 1.34 2.43L22.53 28c-.34.77-1 1.14-1.78.83l-.9-.4-.88 1.44c.48.36.74 1.03.44 1.57l-.44.55s-2.58-.66-3.12-.76c-.54-.1-1.01-.52-.8-1.03l.35-.63c.15-.35.21-.48.45-.52l.44-.02 1.78-4.64c.06-.14.02-.3 0-.45-.03-.2-.15-.55 0-.91l.45-.57Z"/><path fill-rule="evenodd" d="m16.61 29.53 2.15-4.94c.2-.46-.13-.9.07-1.36l.24-.56a.3.3 0 0 1 .35-.18l3.32.74c.77.17 1.2 1.02.87 1.76l-1.24 2.83c-.24.53-.85.79-1.4.57l-1.4-.56-.9 1.9a.4.4 0 0 0 .14.51c.32.21.43.64.24.97l-.14.25-3-.58a.4.4 0 0 1-.28-.55l.24-.56c.13-.3.48-.24.74-.24Zm4.43-5.34.82.32-.71 2.04-.83-.46.72-1.9Z" fill="#FCF931"/></svg>