<!-- by TradingView --><svg width="56" height="56" viewBox="0 0 56 56" xmlns="http://www.w3.org/2000/svg"><path fill="#F0F3FA" d="M0 0h56v56H0z"/><path d="M19.01 18c.28.18.33.4.15.67a48.85 48.85 0 0 1-.18.28.1.1 0 0 0 .05.08l.05.02c.33-.02.54.14.65.47.03.08 0 .37-.07.85 0 .05-.04.08-.08.07l-2.03-.16a.03.03 0 0 1-.02-.01.04.04 0 0 1 0-.03l.2-1.07c.05-.26.2-.36.46-.31a3.39 3.39 0 0 1 .4.08c.02 0 .03 0 .04-.02a.07.07 0 0 0 .01-.07c-.13-.3-.27-.57.04-.85H19ZM13.9 19.72a.1.1 0 0 0 .1.1.1.1 0 0 0 .05-.01c.63-.45.97.25 1.14.77.01.04 0 .07-.03.09L13.4 21.7a.04.04 0 0 1-.04 0h-.01l-.02-.02-.4-1.19a.2.2 0 0 1 .02-.18.63.63 0 0 1 .48-.28c.05 0 .09-.02.11-.04a.13.13 0 0 0 .04-.06c0-.04-.01-.08-.05-.1-.22-.13-.48-.36-.39-.63.04-.1.13-.18.27-.23.16-.06.29-.03.4.1.15.17.11.42.09.65ZM16.4 19.62c-.03.06 0 .09.06.08.15-.03.26 0 .33.1.1.13.15.31.13.54 0 .04-.03.07-.07.07l-1.08.19c-.04 0-.07-.01-.07-.06v-.63c0-.04.02-.08.05-.1.1-.08.19-.12.26-.1.18.03.21-.01.1-.14-.06-.06-.08-.15-.07-.27a.2.2 0 0 1 .14-.18.2.2 0 0 1 .22.07c.07.1.07.24 0 .43ZM20.91 20.1c.02-.1-.02-.3.07-.4.07-.08.15-.09.26-.03a.22.22 0 0 1 .12.18.23.23 0 0 1-.08.2l-.15.12c-.06.05-.05.09.01.12.39.18.23.55.07.8-.02.04-.05.04-.08.03l-.99-.4c-.06-.04-.08-.08-.04-.15l.31-.55a.14.14 0 0 1 .15-.07c.02 0 .04 0 .05.02l.26.17c.02.02.04 0 .04-.03ZM23.27 20.76l.07-.28c.1-.43.51-.49.73-.1.2.38-.28.58-.54.66a.1.1 0 0 0-.06.12c0 .02.02.03.03.04.39.29.42.63.1 1.02a54.56 54.56 0 0 1-.39.42c-.02 0-.04 0-.05-.02l-1.6-1.29c-.05-.04-.05-.08 0-.12l.9-.76a.27.27 0 0 1 .36.01l.36.37h.05l.02-.03.02-.04ZM39.44 21.28a.06.06 0 0 0 .02.07.06.06 0 0 0 .07 0c.17-.07.34-.03.49.11.12.12.2.4.22.81 0 .05-.02.08-.07.09l-1.34.23a.03.03 0 0 1-.03 0 .03.03 0 0 1-.01-.03c-.04-.25-.06-.5-.09-.76-.02-.26.06-.45.36-.38.05.01.08 0 .1-.04a.1.1 0 0 0 0-.07.13.13 0 0 0-.04-.06c-.1-.1-.24-.28-.17-.44.05-.13.15-.2.3-.18a.28.28 0 0 1 .2.12.3.3 0 0 1 .05.23l-.06.3ZM43.2 21.75l.22.1c.07.02.13.07.17.13.04.07.05.14.05.2l-.05.44c-.02.17-.11.23-.27.2l-1.26-.26c-.08-.01-.11-.06-.08-.14l.25-.77c.05-.14.13-.18.27-.14l.29.1c.12.04.16 0 .1-.12-.09-.2-.06-.37.08-.5a.14.14 0 0 1 .1-.05c.1 0 .2.04.26.1a.3.3 0 0 1 .1.2.3.3 0 0 1-.09.23l-.17.17c-.05.05-.04.09.02.11ZM41.22 21.7c.22 0 .3.19.23.55 0 .05-.03.08-.08.08h-.84c-.05 0-.07-.03-.06-.07l.1-.51a.1.1 0 0 1 .08-.1c.04 0 .1 0 .2.03.04 0 .06-.01.07-.05a.54.54 0 0 0-.06-.22.11.11 0 0 1 0-.1.24.24 0 0 1 .13-.11c.07-.03.13 0 .18.07.05.08.04.18-.02.3-.04.08-.02.12.07.12ZM12.2 21.74l.16-.1c.1-.06.19-.05.28.02.1.08.2.2.3.33.03.06.03.1-.02.15l-.82.7c-.04.04-.08.03-.11-.02l-.31-.55c-.04-.06-.03-.12.02-.16l.2-.17c.06-.05.06-.1-.01-.12-.23-.1-.3-.22-.24-.38a.22.22 0 0 1 .19-.13.2.2 0 0 1 .2.12c.03.06.06.15.07.26 0 .06.03.07.08.05ZM37.68 22.48a.44.44 0 0 1-.11-.12c-.04-.07-.03-.14.02-.2.05-.04.1-.06.16-.05.08.01.13.12.16.3 0 .07.04.08.1.05.14-.07.26-.02.35.17l.09.17c0 .03 0 .04-.02.06l-.75.44c-.02.01-.04 0-.05-.02l-.16-.47c-.02-.06 0-.1.05-.13l.16-.1c.05-.03.05-.06 0-.1ZM44.41 22.77l.05-.23a.11.11 0 0 1 .1-.1c.11-.02.19.03.22.16.03.11-.03.2-.2.26a.07.07 0 0 0-.04.05.07.07 0 0 0 .01.06l.15.19c.04.04.04.08.01.13l-.22.33a.06.06 0 0 1-.04.02.06.06 0 0 1-.04 0l-.72-.5c-.06-.04-.07-.08-.02-.13l.35-.36c.06-.06.12-.06.18 0l.14.14c.04.04.06.03.07-.02ZM35.79 23.45c.12-.08.1-.14-.05-.15a.46.46 0 0 1-.39-.26.14.14 0 0 1 0-.13c.05-.1.12-.17.21-.22a.23.23 0 0 1 .34.12l.12.31a.08.08 0 0 0 .07.05.08.08 0 0 0 .07-.03c.35-.5.84 0 1.1.32.02.04.02.07 0 .1l-1 1.01c-.02.02-.04.02-.05 0l-.62-.75a.1.1 0 0 1-.01-.13c.07-.1.14-.18.2-.24ZM9.96 23.65a.08.08 0 0 0 .01-.09.08.08 0 0 0-.07-.04c-.4-.01-.62-.11-.68-.31a.27.27 0 0 1 0-.1c0-.14.08-.25.22-.36.32-.25.58.23.7.47l.02.04a.09.09 0 0 0 .13-.04c.37-.74 1-.3 1.4.05.04.02.05.06.02.1l-1 1.78-.02.02a.06.06 0 0 1-.06 0h-.02l-.84-.73c-.18-.16-.2-.33-.04-.53l.23-.26ZM45.95 23.92l.02.03a.05.05 0 0 0 .06-.01l.02-.03c.04-.14.11-.27.22-.38a.18.18 0 0 1 .23-.03c.1.06.17.16.2.28.01.04 0 .08-.01.12-.1.16-.24.23-.44.21a.1.1 0 0 0-.1.06l-.01.03v.05c.19.18.22.37.1.58-.06.11-.22.25-.46.42-.04.02-.07.02-.1-.02l-.88-1.07c-.1-.1-.07-.2.06-.26.14-.07.33-.19.6-.36.13-.1.24-.06.32.08l.17.3Z" fill="#F8C200"/><path d="M15 28.65v2.3c0 .02-.03.05-.06.05h-1.88a.06.06 0 0 1-.06-.06v-6.88a.06.06 0 0 1 .06-.06h1.89c.03 0 .05.03.05.06v2.7c0 .06.12.07.14.01l.8-2.4c.01-.02.03-.04.06-.04h1.65c.04 0 .07.03.06.07l-1.06 3.12v.04L18 30.92a.06.06 0 0 1-.06.08l-1.9-.01a.06.06 0 0 1-.06-.04l-.9-2.3c-.02-.06-.08-.06-.08 0ZM32 25.74c0-.24.39-.68.94-.74.04 0 .06.02.06.07v1.86c0 .05-.02.07-.06.07-1 .03-.93.71-.94 1.5v2.44c0 .03-.02.06-.05.06h-1.9c-.03 0-.05-.02-.05-.05v-5.9c0-.03.02-.05.05-.05h1.89c.05 0 .07.03.06.08v.66ZM36.57 28.68c.07.41.12.4.15 0l.28-3.64c0-.02.03-.04.05-.04h1.92a.05.05 0 0 1 .03.04v.02c-.39 2.75-.63 4.53-.83 5.64-.12.72-.43 1.23-1.17 1.3h-2.5v-1s.57 0 .67-.05c.11-.06.13-.22.07-.5-.62-2.58-1.03-4.35-1.23-5.3-.03-.1.01-.15.12-.15h1.76c.05 0 .07.03.08.07l.6 3.61Z" fill="#00937B"/><path d="M9.76 25.77c.03-.46.37-.4.69-.34.06.02.08.05.08.11l-.09 1.1c0 .03-.02.05-.06.04l-.6-.12a.12.12 0 0 1-.08-.07.54.54 0 0 1-.03-.38c.02-.05 0-.07-.05-.07l-.24.08a.14.14 0 0 1-.1 0c-.14-.07-.17-.18-.09-.36a.2.2 0 0 1 .14-.1.19.19 0 0 1 .17.05c.07.07.13.1.2.11.04 0 .06-.01.06-.05ZM46.6 26.1c.01.08.01.15-.01.2-.02.04-.06.08-.14.11l-.22.09c-.06.01-.1 0-.12-.07l-.22-.77c-.02-.06 0-.09.06-.09.07 0 .17-.01.3-.04.18-.04.28.04.3.24 0 .05.02.07.07.05a.34.34 0 0 0 .17-.12l.03-.02.03-.01a.07.07 0 0 1 .06.03c.08.13.1.24.03.32a.1.1 0 0 1-.1.03l-.17-.03h-.04a.07.07 0 0 0-.04.04v.04ZM48 27.64v.25c-.13.24-.3.27-.5.11-.18-.14-.25-.1-.22.13.02.15-.06.28-.23.4-.14.09-.36.12-.64.08-.05 0-.07-.03-.07-.07l-.14-1.41c0-.12.04-.18.16-.17l.71.06c.13.01.2.08.22.21.02.08.02.18.01.31-.01.16.04.18.15.08.15-.14.43-.24.55.02ZM8 28.58v-.25c.2-.34.48-.37.82-.08a.1.1 0 0 0 .15-.02.1.1 0 0 0 .02-.05c.01-.37.03-.65.44-.77.18-.05.43-.07.75-.04.04 0 .07.03.07.08l.2 2.04a.06.06 0 0 1-.04.06h-.03l-1.14-.09a.32.32 0 0 1-.22-.11.33.33 0 0 1-.07-.24l.02-.36c.01-.13-.04-.17-.15-.1-.4.27-.68.24-.82-.07Z" fill="#F8C200"/><path fill-rule="evenodd" d="M20.9 30.48c.07-.08.1-.07.1.03v.44c0 .03.03.05.06.05h1.89c.03 0 .05-.02.05-.05v-3.46c0-1.68-.61-2.52-2.5-2.49-.92.02-2.5.5-2.5 1.5v.8c0 .04.04.06.08.06h1.83a.1.1 0 0 0 .1-.1v-.97c0-.2 0-.29.5-.29s.5.5.5 1c0 .27-.26.27-.41.33-.54.22-2.36.55-2.51 1.22a4.2 4.2 0 0 0 0 1.66c.14.53.79.79 1.41.8.49 0 1.1-.13 1.4-.53Zm.1-.62v-1.6c0-.09-.1-.12-.15-.07l-.82.5a.08.08 0 0 0-.03.06v1.1c0 .05.06.15.1.15h.76c.05 0 .14-.1.14-.14ZM26.9 30.48c.07-.08.1-.07.1.03v.44c0 .03.03.05.06.05h1.89c.03 0 .05-.02.05-.05v-3.46c0-1.68-.61-2.52-2.5-2.49-.92.02-2.5.5-2.5 1.5v.8c0 .04.04.06.08.06h1.83a.1.1 0 0 0 .1-.1v-.97c0-.2 0-.29.5-.29s.5.5.5 1c0 .27-.26.27-.41.33-.54.22-2.36.55-2.51 1.22a4.2 4.2 0 0 0 0 1.66c.14.53.79.79 1.41.8.49 0 1.1-.13 1.4-.53Zm.1-.62v-1.6c0-.09-.1-.12-.15-.07l-.82.5a.08.08 0 0 0-.03.06v1.1c0 .05.06.15.1.15h.76c.05 0 .14-.1.14-.14ZM41.9 30.48c.07-.08.1-.07.1.03v.44c0 .03.03.05.06.05h1.89c.03 0 .05-.02.05-.05v-3.46c0-1.68-.61-2.52-2.5-2.49-.92.02-2.5.5-2.5 1.5v.8c0 .04.04.06.08.06h1.83a.1.1 0 0 0 .1-.1v-.97c0-.2 0-.29.5-.29s.5.5.5 1c0 .27-.26.27-.41.33-.54.22-2.36.55-2.51 1.22a4.2 4.2 0 0 0 0 1.66c.14.53.79.79 1.41.8.49 0 1.1-.13 1.4-.53Zm.1-.62v-1.6c0-.09-.1-.12-.15-.07l-.82.5a.08.08 0 0 0-.03.06v1.1c0 .05.06.15.1.15h.76c.05 0 .14-.1.14-.14Z" fill="#00937B"/><path d="M46.72 29.8c-.04.27-.2.36-.52.27-.05-.02-.07-.05-.07-.1l.07-.83a.05.05 0 0 1 .02-.04h.05l.43.14c.02 0 .03.02.05.03l.02.05a.3.3 0 0 1 0 .18c-.02.06 0 .08.07.07l.16-.02a.14.14 0 0 1 .11.03.14.14 0 0 1 .05.11c0 .1-.04.16-.1.2a.13.13 0 0 1-.11 0 .5.5 0 0 1-.15-.12c-.05-.04-.08-.04-.08.03ZM9.9 30.76v-.28a.12.12 0 0 1 .04-.09c.1-.08.24-.15.42-.2.1-.04.18 0 .21.12l.28.95c.03.1-.01.16-.13.16-.12 0-.3.01-.54.05a.1.1 0 0 1-.1-.05.7.7 0 0 1-.12-.33.06.06 0 0 0-.04-.05.06.06 0 0 0-.06.01 2.2 2.2 0 0 1-.2.18c-.08.04-.16.02-.23-.06l-.04-.14c-.03-.1 0-.17.08-.22.07-.05.2-.05.36 0 .04.02.07 0 .07-.05ZM46.6 31.5c.04.01.09.02.16.01.05 0 .1.01.16.04.17.07.23.19.16.35a.42.42 0 0 1-.14.19.23.23 0 0 1-.18.04c-.2-.05-.24-.32-.34-.43-.04-.04-.07-.03-.1 0a.84.84 0 0 1-.34.34.16.16 0 0 1-.12 0c-.2-.06-.4-.18-.58-.33-.04-.03-.04-.07-.02-.1.37-.65.6-1.07.68-1.25.04-.09.1-.1.17-.04l.64.52c.09.07.1.15.04.25l-.21.32c-.03.05-.02.08.03.1ZM10.78 33.62a.07.07 0 0 0-.06-.03.07.07 0 0 0-.06.03c-.11.24-.36.75-.68.5-.2-.15-.3-.42-.1-.63.08-.08.27-.14.58-.19l.03-.01a.07.07 0 0 0 .03-.07l-.02-.03a1.67 1.67 0 0 1-.18-.32c-.2-.43.35-.82.72-1.04.03-.02.06-.01.08.02l1.3 1.57c.03.04.03.07-.01.1l-1.05.61a.25.25 0 0 1-.34-.1l-.24-.41ZM44.86 32.85l-.17.1c-.05.03-.1.03-.14-.02l-.21-.26c-.04-.05-.04-.09 0-.13l.63-.53c.03-.02.05-.02.06 0l.23.42c.03.04.03.08 0 .12a.33.33 0 0 1-.13.12c-.04.02-.05.06-.02.1.02.03.05.05.1.08l.08.06c.04.08.02.15-.06.24a.13.13 0 0 1-.12.03.13.13 0 0 1-.1-.09l-.07-.21c-.01-.04-.04-.05-.08-.03ZM36.6 33.67c0 .2-.08.34-.23.42a.13.13 0 0 1-.12 0c-.17-.07-.25-.2-.24-.37 0-.04.01-.08.05-.11.1-.1.22-.17.36-.2a.07.07 0 0 0 .05-.05v-.04s0-.02-.02-.03c-.11-.12-.19-.22-.23-.32a.17.17 0 0 1 0-.13c.08-.23.22-.43.42-.6.03-.03.06-.03.1 0l1.14.92c.05.04.05.09 0 .13l-.7.6a.08.08 0 0 1-.1.02.69.69 0 0 1-.3-.28.1.1 0 0 0-.06-.05c-.04 0-.07 0-.1.02a.1.1 0 0 0-.01.07ZM24.4 34.47c.25.04.38.07.54.3.05.07.06.15.02.23a.65.65 0 0 1-.15.2c-.4.37-.66-.16-.72-.5a.09.09 0 0 0-.12-.07.1.1 0 0 0-.04.03c-.52.68-1.13.03-1.5-.42-.04-.03-.04-.07 0-.1l1.3-1.34c.03-.03.06-.03.1 0 .48.54.75.85.8.94.09.14 0 .34-.26.6-.07.07-.05.11.04.13ZM43.9 34.16c-.05.02-.06.05 0 .1.19.15.3.29.31.41 0 .05 0 .08-.04.12-.08.1-.16.15-.23.16a.3.3 0 0 1-.12 0 .27.27 0 0 1-.1-.04.23.23 0 0 1-.08-.08.22.22 0 0 1-.02-.1v-.36a.08.08 0 0 0-.04-.06.07.07 0 0 0-.07 0c-.2.11-.37.16-.53 0a1.29 1.29 0 0 1-.32-.58c-.01-.04 0-.06.03-.08l1.27-.75a.07.07 0 0 1 .08.01l.01.03.28.8a.26.26 0 0 1-.06.27.24.24 0 0 1-.09.05l-.27.1ZM38.52 34.13c-.09-.07-.13-.05-.13.06 0 .2-.06.28-.19.26a.17.17 0 0 1-.14-.2c0-.03.02-.06.04-.08l.12-.12c.04-.04.04-.07 0-.1l-.12-.07a.12.12 0 0 1-.07-.1.7.7 0 0 1 .12-.4c.02-.02.04-.03.07-.02l.75.26c.06.02.07.05.04.1l-.25.44a.1.1 0 0 1-.04.04h-.06a.4.4 0 0 1-.14-.07ZM42 34.38c-.05.01-.07.04-.04.08.11.17.12.28 0 .34-.1.05-.18.04-.23-.04-.05-.09-.02-.18.01-.27.02-.05 0-.07-.05-.08-.25-.02-.36-.19-.32-.49 0-.04.03-.07.07-.07l.76-.13c.05-.01.07 0 .07.05v.35c0 .12-.02.19-.05.21a.73.73 0 0 1-.22.05ZM39.77 34.89a1.1 1.1 0 0 0-.16-.02l-.05-.01c-.39-.13-.31-.63-.22-.96 0-.04.03-.06.08-.06l1.46.12c.02 0 .03.01.03.04l-.17.85a.24.24 0 0 1-.1.15.23.23 0 0 1-.17.03l-.32-.06c-.04-.01-.06 0-.06.05.02.12.04.2.07.24a.27.27 0 0 1 .03.24.28.28 0 0 1-.17.17c-.1.04-.19.02-.29-.05-.17-.12-.15-.32.08-.6.06-.07.04-.11-.04-.13ZM12.89 35.11a.04.04 0 0 0-.05 0 .04.04 0 0 0-.02.04c0 .17-.05.3-.15.4a.1.1 0 0 1-.1.03.41.41 0 0 1-.25-.2.12.12 0 0 1 0-.13c.04-.08.17-.18.38-.31v-.02a.99.99 0 0 1-.25-.3.15.15 0 0 1-.02-.11c.05-.17.16-.34.31-.52.03-.03.05-.03.09-.01l.97.67c.08.05.09.11.02.18l-.44.44c-.07.08-.14.08-.22.03l-.27-.19ZM21.47 35.54l-.14.09a.12.12 0 0 1-.13 0 .9.9 0 0 1-.36-.5c-.01-.04 0-.07.03-.1l.97-.57c.04-.02.06 0 .07.03l.22.63c.02.05.01.09-.02.13a.6.6 0 0 1-.3.18c-.06.02-.07.05-.01.1l.18.14a.2.2 0 0 1 .07.18.2.2 0 0 1-.12.16c-.16.07-.27.04-.33-.1a.3.3 0 0 1-.02-.11v-.2c0-.08-.04-.1-.11-.06ZM14.98 36.68c-.13-.04-.17 0-.12.13.1.28.11.74-.26.76a.48.48 0 0 1-.29-.1c-.29-.2-.12-.58.1-.75.17-.13.15-.21-.05-.26-.72-.17-.5-.91-.32-1.37.02-.03.05-.05.08-.04l1.97.4c.03 0 .04.02.03.05l-.37 1.14a.3.3 0 0 1-.14.17.29.29 0 0 1-.23.01l-.4-.14ZM19.94 38h-.3c-.34-.2-.25-.54-.14-.83a.09.09 0 0 0-.01-.1.08.08 0 0 0-.08-.03c-.37.1-.64 0-.8-.33-.1-.2-.17-.5-.2-.9l.01-.06a.08.08 0 0 1 .06-.03l1.85-.32c.03 0 .04 0 .05.04l.11 1.19c0 .08-.02.16-.07.22a.3.3 0 0 1-.2.1l-.23.03c-.12.01-.14.07-.07.16.3.42.3.7.02.86ZM17.24 36.63v-.01a.02.02 0 0 0-.01-.02c-.2-.01-.35-.08-.43-.2-.05-.07-.06-.27 0-.59 0-.05.03-.07.07-.07h1.17a.05.05 0 0 1 .04.02.06.06 0 0 1 .02.04c-.02.24-.05.45-.09.63-.04.2-.2.25-.38.2-.14-.03-.17.01-.1.14.07.14.08.27.03.38a.2.2 0 0 1-.09.08c-.06.03-.14.02-.21-.02a.24.24 0 0 1-.11-.29l.1-.3Z" fill="#F8C200"/></svg>