<!-- by TradingView --><svg xmlns="http://www.w3.org/2000/svg" width="56" height="56" viewBox="0 0 56 56"><path fill="#F0F3FA" d="M0 0h56v56H0z"/><path d="M8.77 27.48l-1.74 2.08s.2.47.71.83c.28.2.54.32.54.32L8.08 32s-.65 0-1.47-.74c-.66-.6-.87-1.17-.87-1.17L5.44 32H4l.95-6h.74s.31-.02.48.23c.17.25.11.44.11.44l-.4 2.53 1.35-1.72h1.54zm21.56.35h1.05l-.15.92h-1.06L29.63 32h-1.46l.54-3.25h-.54l.16-.92h.54l.18-.77c.27-.93 1.15-1.04 1.64-1.06a3.05 3.05 0 0 1 1.23.2l.13.04h.03l-.15.89-.23-.08-.07-.02-.07-.02c-.2-.06-.4-.1-.6-.1-.47 0-.55.44-.6.73v.01l-.03.18zm9.39-.32h.03l-.03.24-.13.77h-.35c-.47.04-1.08.4-1.2 1.18L37.7 32h-1.45l.68-4.5h1.48l-.1.57.18-.26a.94.94 0 0 1 .78-.3h.46zm-4.23.2a2.98 2.98 0 0 0-1.22-.21c-.69 0-1.37.1-2.05.24l-.19.04-.17 1.02s1.17-.46 1.93-.46h.1c.14 0 .29 0 .4.05.14.06.2.15.18.35-.03.15-.13.27-.44.37l-.76.18-.35.07c-.48.1-.99.25-1.36.53-.26.2-.44.45-.5.8-.1.58.07.96.5 1.15.22.1.52.16.87.16a2.88 2.88 0 0 0 1.17-.27l.23-.73s-.47.2-.83.2c-.41 0-.6-.15-.55-.47.05-.3.38-.47.85-.6.22-.07.47-.13.68-.18.2-.05.31-.13.31-.13L33.94 32h1.45l.55-3.33c.08-.52-.1-.8-.45-.96zm8.88.35c.41-.4.85-.55 1.4-.56.89 0 1.4.36 1.27 1.17l-.54 3.32-1.37.01.4-2.7c.07-.42-.18-.65-.34-.65-.76 0-.95.75-.98.94L43.83 32h-1.46l.43-2.67c.07-.41-.01-.68-.28-.68-.77 0-.98.82-1.01 1L41.14 32h-1.46l.04-.25.65-4.14h1.47l-.1.57c.2-.34.86-.68 1.44-.68.54 0 .9.14 1.06.54l.04.12.1-.1zm7.17-.35a2.98 2.98 0 0 0-1.22-.21c-.69 0-1.38.1-2.05.24l-.07.02-.27.92.12-.03c.59-.2 1.2-.35 1.8-.35.17 0 .36.01.5.08.14.06.24.18.21.39-.03.14-.18.24-.48.34l-.76.18-.35.07c-.8.18-1.72.47-1.86 1.34-.15.89.33 1.3 1.37 1.3.5 0 .9-.16 1.12-.25l.05-.02.27-.8s-.52.27-.87.27c-.41 0-.6-.15-.55-.47.05-.3.38-.46.85-.6l.27-.07a28.49 28.49 0 0 0 .66-.2l.07-.04L50 32h1.45l.55-3.33.01-.22v-.02c0-.36-.17-.57-.46-.72zm-41.2-.18l-.1-.02-.05-.01h-.74l-.68 4.47-.01.03h1.45l.57-3.68.02-.04v-.11a.74.74 0 0 0-.12-.38.68.68 0 0 0-.35-.26zm5.44.53c.4-.4.84-.55 1.39-.56.88 0 1.45.36 1.31 1.18L17.96 32h-1.43l.4-2.7c.07-.42-.19-.65-.33-.65-.78 0-.96.75-.99.94L15.23 32h-1.45l.43-2.67c.06-.41-.03-.68-.3-.68-.76 0-.98.82-1 1L12.54 32h-1.46l.7-4.4h1.46l-.1.57c.21-.33.86-.67 1.43-.67.54 0 .9.14 1.07.54l.04.11.1-.09zm4.6-.53a1.78 1.78 0 0 0-.12-.02l-.02-.01H19.5l-.7 4.5h1.46l.58-3.68.01-.15a.77.77 0 0 0-.14-.38.68.68 0 0 0-.34-.26zm3.94-.03c.4 0 .87.04 1.23.21.34.17.52.45.44.96L25.44 32H24l.35-2.18s-.1.08-.3.13l-.41.1-.28.08c-.46.14-.8.3-.85.6-.05.32.14.47.55.47.35 0 .83-.2.83-.2l-.23.73-.03.02c-.2.08-.62.25-1.14.25-1.04 0-1.51-.41-1.37-1.3.15-.87 1.05-1.16 1.86-1.34l.37-.08c.27-.05.53-.1.74-.17.31-.1.41-.22.44-.37.03-.2-.03-.3-.17-.35a.87.87 0 0 0-.37-.05h-.14c-.76 0-1.93.46-1.93.46l.17-1.02.2-.04a9.91 9.91 0 0 1 2.04-.24z" fill="#1B387A"/><path d="M27.85 21.9c-8.42.3-13.11 2.59-14.4 3.7 1.53-2.47 7.01-9.6 14.4-9.6 8.1 0 13.65 7.32 14.7 9.6a29.51 29.51 0 0 0-14.7-3.7z" fill="#E98D1E" fill-opacity=".3"/><path d="M27.85 22c-8.15 0-13.11 2.49-14.4 3.6 1.49-1.28 6.4-6.12 14.4-6.16 8-.04 13.71 4.78 14.7 6.16-5.84-3.31-12.05-3.6-14.7-3.6z" fill="#E98D1E"/></svg>