<!-- by TradingView --><svg width="18" height="18" viewBox="0 0 18 18" xmlns="http://www.w3.org/2000/svg"><path fill="#102179" d="M0 0h18v18H0z"/><path d="M13.54 13H4.5A1.5 1.5 0 0 1 3 11.5v-.02c0-.33.11-.6.3-.85v-.01l4.53-6.03c.27-.35.7-.58 1.17-.59h.05c.47 0 .89.23 1.16.57l4.53 6.03c.2.24.31.56.31.9 0 .82-.68 1.5-1.51 1.5Z" fill="#FF2E17"/><path d="m9.04 10.3 4.37 2.13s.12.07.2 0c.04-.06.02-.12 0-.16a26.01 26.01 0 0 0-2.11-3.22L9.88 6.94c-.2-.26-.5-.42-.86-.42s-.67.16-.87.42l-1.6 2.11a25.87 25.87 0 0 0-2.12 3.22c-.02.04-.04.1.01.16.07.07.2 0 .2 0L9 10.3h.03Z" fill="#fff"/></svg>