<!-- by TradingView --><svg width="18" height="18" viewBox="0 0 19 18" xmlns="http://www.w3.org/2000/svg"><path fill="#F0F3FA" d="M.5 0h18v18H.5z"/><path d="M11.79 5.11c1.15.14 2.23.45 3.25.93a6.1 6.1 0 0 1 1.45.98c-1.23-.5-2.5-.8-3.83-.9-1.54-.11-3.07.02-4.6.4-.76.18-1.46.44-2.1.77-.34.18-.64.38-.92.63-.34.28-.57.6-.7.94-.17.4-.16.8.02 1.2.22.48.63.92 1.23 1.3.45.28.98.53 1.6.73a14.67 14.67 0 0 0 5.34.66c-1.6.32-3.24.33-4.9.05-.92-.16-1.81-.44-2.68-.84-.53-.25-1-.55-1.4-.92a2.97 2.97 0 0 1-.97-1.46c-.24-.93.06-1.8.9-2.57.6-.56 1.38-1 2.33-1.33 1.93-.67 3.98-.81 5.98-.57Z" fill="#00387A"/><path d="m6.56 7.78.11-.75C6.67 7 6.7 7 6.7 7h2.17c.02 0 .03.01.02.04l-.11.75c0 .02-.01.03-.03.03h-.54c-.02 0-.03 0-.03.02l-.48 3.13c0 .02-.01.03-.03.03h-.95c-.02 0-.03-.01-.03-.04l.48-3.1c0-.03 0-.04-.03-.04h-.55c-.03 0-.03-.02-.03-.04ZM11.48 8.05c.24-.07.49-.07.74 0 .12.04.22.1.28.2.07.1.1.23.1.37a174.9 174.9 0 0 1-.37 2.31l-.03.07h-.72c-.03 0-.04-.06-.03-.09a.54.54 0 0 0 .03-.16l-.02-.02h-.02c-.17.24-.4.32-.68.24a.36.36 0 0 1-.27-.33c0-.18.03-.42.1-.73a.59.59 0 0 1 .13-.28.8.8 0 0 1 .27-.17l.63-.27a.19.19 0 0 0 .1-.11c.04-.1.07-.24.08-.42 0-.07-.01-.12-.05-.14-.06-.03-.1-.02-.14.03a.36.36 0 0 0-.07.16l-.07.42c0 .02-.02.04-.04.04h-.67c-.03 0-.04-.02-.04-.05.04-.28.1-.5.17-.63a.9.9 0 0 1 .59-.44Zm2.8-.05c.22-.01.38.08.48.29.01.02.03.02.05.01a.7.7 0 0 0 .1-.1c.11-.12.26-.19.44-.2.19 0 .32.07.4.22.05.1.06.23.04.4a137.9 137.9 0 0 1-.42 2.38h-.74c-.01 0-.02 0-.01-.02l.34-2.01.04-.36a.1.1 0 0 0-.03-.07.08.08 0 0 0-.07-.02c-.06 0-.11.05-.14.12l-.06.22v.04l-.35 2.06c0 .03-.02.04-.05.04h-.71c-.02 0-.02 0-.02-.02l.39-2.33a.1.1 0 0 0-.03-.09.09.09 0 0 0-.08-.03h-.02c-.09.01-.14.06-.15.16l-.38 2.28c0 .02-.02.03-.03.03h-.72c-.02 0-.03-.01-.03-.04l.49-2.9c0-.04.02-.06.05-.06h.73c.01 0 .02 0 .02.02v.03a.8.8 0 0 0-.06.22c0 .01 0 .02.02.02h.02c.14-.18.3-.27.5-.29Zm-5.12.14c.28-.15.58-.18.9-.09.28.08.43.28.46.59a3.18 3.18 0 0 1-.1.87c-.01.03-.03.04-.05.04h-.99c-.02 0-.03.01-.03.03l-.13.78c-.01.03 0 .07.02.1a.1.1 0 0 0 .1.03h.02c.1-.01.15-.07.16-.17l.07-.42c0-.03.02-.04.05-.04h.67c.03 0 .04.01.03.04-.03.37-.16.66-.38.85-.22.2-.5.28-.85.24-.44-.05-.67-.28-.67-.7a5.6 5.6 0 0 1 .12-.83c.05-.35.1-.6.16-.76.1-.27.24-.45.44-.56Zm2.47 1.46c-.22.09-.34.35-.36.78 0 .06.02.1.07.1h.02c.04.02.07 0 .1-.02a.15.15 0 0 0 .06-.1l.13-.74c0-.02 0-.02-.02-.02ZM9.66 8.5c-.04 0-.07 0-.1.04a.24.24 0 0 0-.05.12l-.08.44.01.02h.22c.01 0 .02 0 .02-.02l.07-.39v-.13c-.02-.04-.05-.07-.08-.07h-.01Z" fill="#00387A"/></svg>