<!-- by TradingView --><svg width="56" height="56" viewBox="0 0 56 56" xmlns="http://www.w3.org/2000/svg"><path fill="#F0F3FA" d="M0 0h56v56H0z"/><path d="M31.88 20.4c1.56-.01 2.82-.78 2.8-1.71 0-.93-1.27-1.68-2.83-1.66-1.56.02-2.81.79-2.8 1.72 0 .93 1.28 1.67 2.83 1.65ZM30.9 22.93a9.83 9.83 0 0 1-1.32 2.62 33.44 33.44 0 0 1-5.37 5.35l-2.22 1.84a2 2 0 0 1-.53.3c-.04 0-.06-.01-.08-.04-.01-.04 0-.06.02-.08l.75-.56 1.66-1.66c1.6-1.52 2.9-3.26 3.9-5.22.68-1.85.14-3.16-1.64-3.92a11.7 11.7 0 0 0-3.7-.7c-2.7-.05-5.62.17-8.75.68-.5.09-.83.12-.98.1-.02 0-.03 0-.03-.03v-.03a96.64 96.64 0 0 1 8.05-1.4c2.08-.28 4.12-.38 6.12-.29 1.36.06 2.49.38 3.38.98.62.42.86 1.1.73 2.06Z" fill="#6FC118"/><path d="M27.7 25.48a6.22 6.22 0 0 0-3.46.86c-1.75 1.05-1.9 2.5-.43 4.36l-1.66 1.66a4.5 4.5 0 0 1-.57-1.4 3.08 3.08 0 0 0-.07-2.88 4.91 4.91 0 0 0-2.21-1.89c.04-.18.1-.34.19-.48.04-.07.1-.1.18-.1l1.77.06c.27.03.54 0 .8-.12.1-.05.15-.12.16-.24 0-.11-.04-.2-.13-.25-.53-.33-.94-.24-1.23.27l-.17-.17a.44.44 0 0 0-.21-.13 3.6 3.6 0 0 1-1.99-1.37.6.6 0 0 1-.1-.36c0-.03 0-.05.04-.06.02-.01.05-.01.07 0 .4.34.78.57 1.17.69a6.88 6.88 0 0 0 1.53.21c.51.05 1.1.24 1.74.57.11.05.2.03.3-.05a.25.25 0 0 0 .07-.29.9.9 0 0 0-.24-.35l-.2-.18c-.3-.27-.5-.48-.6-.61a1.09 1.09 0 0 1-.22-.7c0-.1.05-.15.13-.16.09-.02.15.01.18.1.04.08.1.17.17.25.07.07.14.1.23.1l2.13-.17c-.4.04-.8.18-1.18.41a.55.55 0 0 0-.2.7c.17.34.51.53 1.04.57.46.03.86-.05 1.18-.24.3-.18.45-.39.42-.62-.03-.23-.2-.42-.5-.59a.64.64 0 0 0-.03-.45.28.28 0 0 1 0-.22l.27-.65c1.78.76 2.32 2.07 1.64 3.92ZM29.58 25.55c.57-.8 1-1.68 1.31-2.62-.03.45.07.83.32 1.14.06.07.14.1.23.1.58-.02 1.17-.46 1.77-1.33a.42.42 0 0 1 .22-.16l1.31-.46c.07-.02.11 0 .14.06.03.07.01.11-.04.15l-.67.39c-.26.15-.36.39-.3.7.2.82.1 1.39-.28 1.69-.23.17-.82.45-1.78.83a.52.52 0 0 1-.34.02l-1.89-.51Z" fill="#F6E2BF"/><path d="m25.07 22.65.76.23c.3.17.47.36.5.59.03.23-.11.44-.42.62-.32.2-.72.27-1.18.24-.53-.04-.87-.23-1.03-.57a.55.55 0 0 1 .19-.7c.38-.23.77-.37 1.18-.41Z" fill="#6FC118"/><path d="M38.37 26.92c-.56.69-.56 1.34.02 1.95.4.41-.41.49 0 .66 1.01.42 3.44 1.17 4.87 1.73.05.02.09.07.1.13.01.06 0 .12-.06.16-.14.12-1.36.17-3.66.15H38.1c-.1 0-.14.04-.14.14l-.01 1.73c-.95 0-3.12-.13-4.07.12a5.4 5.4 0 0 1-1.86-.08 6.3 6.3 0 0 0 1.68-.67c.65-.39 1.03-.83 1.16-1.34.03-.13.05-.64.04-1.53v-4.65c0-.06-.03-.1-.09-.13a.27.27 0 0 0-.16-.02c.2-.22.31-.42.36-.58.08-.24.23-.39.47-.46.83-.26 1.68-.4 2.55-.4.04 0 .06.01.07.05 0 .04 0 .06-.04.08l-.92.48a.2.2 0 0 0-.08.07c-.42.6-.75 1.04-.98 1.3a.88.88 0 0 1-.63.3c-.07.01-.16-.11-.26-.37-.02-.05-.05-.06-.1-.04l-.05.04-.02.03v.54c0 .12.05.21.14.3.08.07.19.1.3.07.56-.1 2.34.12 2.91.24Z" fill="#F6E2BF"/><path d="M21.44 25.67a.7.7 0 0 1-.4-.34c.29-.5.7-.6 1.23-.27.1.06.14.14.13.25-.01.12-.06.2-.16.24a1.5 1.5 0 0 1-.8.12Z" fill="#6FC118"/><path d="M37.02 33.57v-1.7c0-.09.05-.13.14-.13h1.5c2.24.02 3.43-.03 3.57-.15.05-.04.07-.09.06-.15-.01-.06-.04-.1-.1-.13-1.39-.55-2.57-1.03-3.55-1.44-.4-.17-.8-.45-1.18-.86-.56-.6-.57-1.24-.02-1.91.9-.7 1.9-1.06 3.04-1.08 1.42-.02 3.55-.03 6.4 0 .09 0 .13.04.13.13v1.77c0 .1-.04.15-.14.15h-3.49c-.1 0-.18.05-.22.15-.04.1-.02.2.06.27.15.13.38.26.7.4l.38.14c1.03.4 1.8.73 2.3 1.02.88.52 1.35 1.04 1.4 1.57.04.57-.16 1.04-.63 1.4-.82.66-1.76.99-2.8.98l-7.36-.01c-.18 0-.24-.14-.2-.42ZM16.82 26.02c.86 0 1.71.2 2.55.58 1.06.5 1.8 1.11 2.23 1.85.5.86.53 1.8.08 2.84-.38.64-.9 1.14-1.55 1.5A8.01 8.01 0 0 1 16.35 34l-8.22-.04c-.09 0-.13-.04-.13-.12V26.1c0-.07.03-.1.1-.1l8.72.02ZM13.11 28c-.07 0-.11.03-.11.1v2.8c0 .07.04.1.1.1h1.67a2.8 2.8 0 0 0 1.58-.43c.43-.28.65-.63.65-1.03v-.08c0-.4-.22-.75-.65-1.03a2.8 2.8 0 0 0-1.58-.43h-1.66Z" fill="#0060BC"/><path d="M24.2 30.9c.7.33 1.48.51 2.32.55-.25-.01-.37.05-.38.16-.02.68-.03 1.4-.01 2.16-.32.07-.82.06-1.52-.04a8.62 8.62 0 0 0-1.42.17c-.4.11-.74.13-1 .06a.2.2 0 0 1-.15-.2L22 32.74l2.22-1.84Z" fill="#F6E2BF"/><path d="M32.05 33.78c-.79.13-1.3.2-1.56.2-1.5.03-2.98.02-4.48-.03-.02-.8-.01-1.56.01-2.27 0-.13.14-.19.39-.18 1.46.22 2.56.07 3.3-.46.23-.16.29-.38.29-.66v-3.27c0-.1.09-.16.17-.2l4.58-1.9c.06-.02.11 0 .16.01.06.03.09.08.09.15v4.88c0 .94 0 1.47-.04 1.61-.13.53-.53 1-1.19 1.4-.49.3-1.06.55-1.72.72Z" fill="#0060BC"/></svg>