<!-- by TradingView --><svg width="56" height="56" viewBox="0 0 56 56" xmlns="http://www.w3.org/2000/svg"><path fill="#F0F3FA" d="M0 0h56v56H0z"/><path d="M40 34.5 37 31V19c0-2.5 2.5-3.5 4-3.5 1.2 0 2.5 1 3 1.5-3.2 0-4 2-4 3v14.5Z" fill="#E50103"/><path d="M25.5 16h-4l14 21H44v-1h-5L25.5 16ZM19 23l-3-4.5V36h-5v1h8V23Z" fill="#E50103"/><path d="M24 30.5 21 26v13H11v1h13v-9.5ZM16 16h4l15.5 23H44v1H32L16 16ZM32 15.5c-1.2 0-2.5 1-3 1.5 2.4-.4 3 1.83 3 3v3.5l3 4.5v-9c0-2.5-1.5-3.5-3-3.5Z" fill="#E50103"/><ellipse cx="36" cy="14" rx="1" ry="3" fill="#E50103"/></svg>