<!-- by TradingView --><svg xmlns="http://www.w3.org/2000/svg" width="18" height="18" viewBox="0 0 18 18"><path fill="#F0F3FA" d="M0 0h18v18H0z"/><path d="M4.72 10.97a.56.56 0 1 1-1.12 0 .56.56 0 0 1 1.12 0ZM4.46 9.16a.5.5 0 0 1-.49.5.5.5 0 0 1-.49-.5c0-.28.22-.5.5-.5a.5.5 0 0 1 .48.5ZM4.72 7.43a.4.4 0 1 1-.79 0 .4.4 0 0 1 .79 0ZM5.73 5.91a.34.34 0 1 1-.68 0 .34.34 0 0 1 .68 0ZM7.07 4.73a.28.28 0 1 1-.56 0 .28.28 0 0 1 .56 0ZM8.65 4.17a.17.17 0 1 1-.34 0 .17.17 0 0 1 .34 0Z" fill="#E7C236"/><path d="M9.8 13.47c-.63-.52-1.43-1.42-1.43-1.42 2.54.07 3.73-1.81 3.73-1.81s.16.42.3.98c.07-.8-.09-1.24-.09-1.24l.62-.86a4 4 0 0 1-3.14 4.35Zm-1.98-6.1c2.42-.3 3.81 1.9 3.81 1.9s-.8 2.2-3.59 2.36c-1.4-1.92-.22-4.26-.22-4.26ZM5.2 9.58c0-1.62.15-1.65.15-1.65s.84-.33 1.94-.53c0 0-1.25 2.02-.28 4.13-.39-.04-.67-.17-1-.29.59.56 1.1.59 1.1.59l.47.98S5.24 11.72 5.2 9.58Zm4.3-4.06c1.44 0 2.88 1.1 2.86 1.3-.02.22-.1 1-.52 1.97-1.23-2.16-3.4-2.36-3.4-2.36s.22-.27.72-.68c-.65.2-1.02.65-1.02.65-.59-.02-.57-.02-1.08-.06 0 0 .99-.82 2.44-.82Zm-.3-.73a4.6 4.6 0 1 0 .01 9.2 4.6 4.6 0 0 0 0-9.2Z" fill="#E7C236"/></svg>