<!-- by TradingView --><svg xmlns="http://www.w3.org/2000/svg" width="56" height="56"><path fill="#1D398D" d="M0 0h56v56H0z"/><path d="M27.73 9.4c.17.53.42 1.34.75 2.02.54 1.1.06 2.5-.48 2.83V15l1.88.7c.69.31 1.59.96 1.75 2.14.14.99 1.1 1.77 1.46 2.06l.07.05.9-2.1v-.53c-.28-.13-.82-.47-.8-.77.02-.3.21-.56.3-.66v-.58c-.29-.08-.87-.28-.87-.45 0-.2.73-.33 1.13-.35.39-.01 1.18.16 1.18.35 0 .2-.57.41-1.07.45v.4c.36.18 1.07.7 1.07 1.24 0 .68-.3 2.8-1.3 4.14-.12.15-.45.53-.63.53-.23 0-2.14-1.54-2.68-3.33-.37.2-1.05.83-1.05 2.5 0 .79.46 1.39.87 1.91.2.25.37.49.49.72.35.72.54 2.09.42 3.14l-.01.09c-.15 1.23-.19 1.55-.72 3.43-.27.98-.57 1.87-.81 2.58a14 14 0 00-.46 1.5 17.3 17.3 0 00.34 6.54l.29.06c1.12.22 3.71.73 5.12 1.58-1.25.04-4.63.73-6.87 2.52V47h-1v-2.14c-2.14-1.79-5.8-2.3-7-2.34 1.48-.94 4.4-1.76 5.24-1.94 1.84-2.07 1.8-4.66 1.77-5.92v-.33c0-.63-.18-2.3-.7-4.22-.5-1.88-.54-2.2-.68-3.43l-.01-.1c-.12-1.04.3-2.4.5-2.83l.03-.08c.2-.43.53-1.12.53-2.69 0-1.67-.7-2.49-1.06-2.7-.52 2-1.98 3.6-2.2 3.6-.18 0-.44-.3-.54-.45-1.21-1.34-1.67-3.8-1.67-4.48 0-.54.68-1.06 1.02-1.24v-.4c-.47-.04-1.02-.26-1.02-.45s.76-.36 1.13-.35c.38.02 1.08.14 1.08.35 0 .17-.56.37-.84.45v.58c.1.1.28.36.3.66.02.3-.5.64-.77.77v.52l1.31 2.18c.27-.23.85-1 1.01-2.18a2.97 2.97 0 011.48-2.13l1.09-.68v-.75c-.67-.33-.84-1.81-.32-2.91.4-.87.78-1.91.93-2.34V9v.02l.12.38z" fill="#fff"/></svg>