<!-- by TradingView --><svg width="56" height="56" viewBox="0 0 56 56" xmlns="http://www.w3.org/2000/svg"><path fill="#F0F3FA" d="M0 0h56v56H0z"/><path d="M44.04 26.68 43.06 32H41l1.27-7h1.92l-.15 1.68Zm-.56 1.65-.48.02c.04-.42.14-.83.28-1.23.15-.4.35-.76.6-1.08a2.72 2.72 0 0 1 3.18-.81c.24.13.44.3.58.53.14.23.23.48.28.77.04.28.05.58.02.89L47.13 32h-2.06l.77-4.35c.03-.2.03-.38 0-.54a.66.66 0 0 0-.2-.4c-.1-.11-.28-.17-.51-.17-.27-.01-.5.04-.68.15-.2.1-.35.25-.48.42-.13.18-.24.38-.32.59-.07.2-.13.42-.17.63Zm4.15-.1-.63.05c.04-.4.13-.8.27-1.2.15-.4.34-.75.6-1.06a2.7 2.7 0 0 1 3.2-.78c.27.15.47.35.61.6.15.25.24.53.28.84.05.31.05.63.01.97L51.2 32h-2.06l.77-4.36c.03-.2.03-.37 0-.54a.65.65 0 0 0-.19-.4c-.1-.1-.28-.16-.52-.16-.25-.01-.46.03-.65.14-.18.1-.34.22-.46.39-.13.16-.23.35-.3.55-.07.2-.12.4-.16.6ZM33.02 28.6l.01-.13c.06-.48.2-.93.4-1.35a3.78 3.78 0 0 1 2-1.87c.45-.18.96-.26 1.53-.25.54 0 1.01.1 1.4.3a2.64 2.64 0 0 1 1.53 1.83c.1.4.14.84.09 1.3l-.01.13a4.2 4.2 0 0 1-1.22 2.45 3.67 3.67 0 0 1-2.72.99c-.54-.01-1-.1-1.4-.29a2.68 2.68 0 0 1-1.52-1.81c-.1-.4-.14-.84-.09-1.3Zm2.12-.13-.01.14c-.02.18-.02.38-.02.6 0 .21.03.42.1.61.06.2.16.36.31.48s.37.19.64.2c.3 0 .54-.05.74-.17.2-.11.37-.27.5-.46a3.33 3.33 0 0 0 .45-1.31l.01-.13c.02-.19.03-.39.03-.6 0-.22-.04-.43-.1-.63a.98.98 0 0 0-.32-.48 1 1 0 0 0-.63-.2c-.3-.02-.55.04-.76.16-.2.12-.37.28-.5.48-.12.2-.22.41-.3.65-.06.23-.11.45-.14.67ZM28.17 30.49c.24 0 .46-.03.64-.11.19-.09.33-.2.45-.35.11-.15.19-.32.23-.52h2.1c-.05.51-.23.96-.57 1.34-.33.38-.75.66-1.27.87-.5.2-1.06.3-1.65.28a3.7 3.7 0 0 1-1.46-.29c-.41-.19-.75-.43-1-.75a2.8 2.8 0 0 1-.54-1.08 3.6 3.6 0 0 1-.08-1.28l.03-.17c.06-.47.2-.92.4-1.33a3.7 3.7 0 0 1 3.63-2.1c.62 0 1.15.13 1.6.36A2.4 2.4 0 0 1 32 27.67h-2.1c.01-.2-.02-.38-.08-.55a.8.8 0 0 0-.3-.43 1.04 1.04 0 0 0-.61-.18c-.3 0-.56.05-.76.17-.2.12-.36.27-.48.47-.12.2-.21.41-.28.64-.05.22-.1.44-.12.64l-.01.16-.05.58c-.01.22 0 .42.05.62.04.2.14.36.27.5.14.12.36.2.64.2ZM25 22l-1.86 10H21l1.86-10H25ZM17.26 30.26l.53-2.92c.02-.16 0-.32-.02-.46a.58.58 0 0 0-.22-.36c-.11-.1-.28-.14-.5-.15-.2 0-.38.03-.53.1a.9.9 0 0 0-.37.27c-.09.12-.15.26-.19.42l-2.2.01c.03-.38.15-.7.37-.99.22-.27.5-.5.83-.67.34-.18.71-.31 1.11-.4.4-.08.8-.12 1.19-.1.54 0 1.02.1 1.46.29.43.19.76.46 1 .8.23.36.32.78.27 1.28l-.53 2.83-.11.77c-.03.27.01.53.13.76V32h-2.14c-.1-.26-.15-.65-.15-.93s.03-.55.07-.81Zm.77-2.5-.2 1.06h-.97c-.2 0-.38.03-.57.07-.19.04-.35.11-.5.2-.15.09-.27.2-.37.34-.1.13-.17.29-.19.47a.58.58 0 0 0 .04.36c.05.1.13.17.23.23s.24.1.39.1a1.83 1.83 0 0 0 1.2-.44c.17-.14.27-.31.33-.5l.42.82a3.05 3.05 0 0 1-1 1.11 2.73 2.73 0 0 1-1.52.42c-.43 0-.83-.1-1.19-.26-.35-.17-.63-.4-.84-.7-.21-.3-.3-.63-.29-1.02.02-.45.15-.82.38-1.1.24-.3.54-.54.91-.7.37-.18.78-.3 1.22-.37.44-.07.88-.1 1.31-.1h1.21ZM10 28.61l2.27-.02a3.35 3.35 0 0 1-.8 1.86c-.44.51-1 .9-1.67 1.17-.67.27-1.4.4-2.17.38a4.06 4.06 0 0 1-1.83-.41 3.1 3.1 0 0 1-1.17-1.07 3.99 3.99 0 0 1-.56-1.5 5.78 5.78 0 0 1-.01-1.72l.1-.6c.1-.6.27-1.2.53-1.76.26-.57.6-1.08 1.03-1.52A4.54 4.54 0 0 1 9.24 22c.78.01 1.44.17 1.99.46.54.28.97.69 1.26 1.2.3.52.48 1.12.51 1.81h-2.31a2.5 2.5 0 0 0-.13-.92c-.1-.26-.25-.46-.49-.6a1.92 1.92 0 0 0-.97-.25 2.06 2.06 0 0 0-1.9.98c-.2.3-.35.62-.45.98-.11.35-.19.7-.24 1.04l-.1.61-.09.93c-.02.33 0 .66.07.97.07.3.2.56.42.77.21.2.53.3.96.32.41.01.78-.05 1.08-.18.3-.13.55-.32.74-.58.19-.26.32-.57.4-.93Z" fill="#F36136"/></svg>