<!-- by TradingView --><svg width="56" height="56" viewBox="0 0 56 56" xmlns="http://www.w3.org/2000/svg"><path fill="#2196F3" d="M0 0h56v56H0z"/><path d="M27 19.52V19h4.68l5.8 13.72L43 19h5v.52h-.1c-1.69 0-1.9.88-1.9 2.5V33.5c0 1.93 0 2.84 2 2.98V37h-7.09v-.52c1.77 0 2.09-1.06 2.09-2.71V21.79L36.96 37h-.4L30 22.38v10.75c0 1.93.4 3.2 2.54 3.35V37H27v-.52c2.16-.15 2-1.46 2-3.4V22.43c0-1.7-.14-2.9-2-2.9ZM10 34.03V21.97c0-1.76-.27-2.45-2-2.45V19h7.8c.7 0 1.42.03 2.17.1 2.45.23 4.03 1.78 4.03 4.3 0 2.73-1.61 4.33-4.17 4.91l5 6.58c.2.24.35.45.5.62.47.49 1.02.77 1.67.97V37h-3.77l-6.08-8H13v5.03c0 1.78.78 2.45 2.55 2.45V37H8v-.52c1.74 0 2-.68 2-2.45ZM13 28h1.2c2.67 0 4.8-1.3 4.8-4.23 0-2.54-1.25-3.77-4.25-3.77-1.1 0-1.75.05-1.75 1.24V28Z" fill="#D7EBFD"/></svg>