<!-- by TradingView --><svg width="56" height="56" viewBox="0 0 56 56" xmlns="http://www.w3.org/2000/svg"><path fill="#F0F3FA" d="M0 0h56v56H0z"/><path d="M16.36 37.7c-.47-1.3-1.12-2.4-1.94-3.32-.43-.48-.52-.42-.25.18.33.73.3 1.18-.08 1.34a21.1 21.1 0 0 1-2.62-5.84 8.2 8.2 0 0 1-.46-2.83c.27-3.2 1.26-5.91 2.96-8.17l1.55-1.98a7.51 7.51 0 0 1 1.83-1.67c3.13-2.02 6.1-3.14 8.9-3.35 5.7-.44 10.43 1.58 14.21 6.06.38.45.98 1.39 1.78 2.82.73 1.3 1.24 2.2 1.52 2.74a10.98 10.98 0 0 1 1.22 5.86 13.7 13.7 0 0 1-2.58 7.39c-.5.7-1.53 1.7-3.08 3a15.47 15.47 0 0 1-3.54 2.3c-3.4 1.53-6.67 2.07-9.8 1.62-3.84-.55-7.04-2.6-9.62-6.15Z" fill="#8D8059"/><path d="M16.36 37.7a5.19 5.19 0 0 1-2.27-1.8c.38-.16.4-.6.08-1.34-.27-.6-.18-.66.25-.18.82.91 1.47 2.02 1.94 3.32Z" fill="#BFBB9E"/><path d="M19.3 16.32c-.17.24-.28.36-.32.37-.9.19-.99 0-.24-.58 1.68-1.3 3.69-2.3 6.03-3 .77-.23 1.54-.31 2.3-.25.66.06 1.43.1 2.32.11.07 0 .1.04.1.12V13.3a.16.16 0 0 1-.05.05.15.15 0 0 1-.06.03h-.06a5 5 0 0 0-1.68-.03 20.4 20.4 0 0 0-8 2.64c-.12.07-.23.18-.34.33ZM42.72 24.47c.12.39.13.95.02 1.7-.03.22-.1.25-.24.06a1.58 1.58 0 0 1-.2-.82c0-.25-.06-.47-.14-.65a71.1 71.1 0 0 0-3.39-6.42c-.18-.27-.76-.84-1.72-1.68-1.28-1.13-3.08-1.83-4.5-2.64-.26-.14-.24-.25.07-.32l.58-.14c.27-.06.56 0 .85.17a28.02 28.02 0 0 1 7.19 6.52 5.15 5.15 0 0 1 1.17 2.7c.05.52.16 1.02.3 1.52Z" fill="#DEDDC8"/><path d="m31.52 15.05-1.14.26a5.77 5.77 0 0 0-2.64.14.37.37 0 0 0-.19.13.4.4 0 0 0-.05.43c.03.07.09.13.15.16.67.4 1.1.97 1.31 1.7.18.63.43 1.06.76 1.3.53.39 1.18.5 1.97.35l-5.36.38c.64-.58.4-.93-.7-1.05.25-.09.45-.23.62-.42.48.2.77-.02.88-.62.17-.98-.4-1.66-.99-2.42a.7.7 0 0 0-.57-.28c-.17 0-.3.07-.38.22l-.2.36c.03-.37-.1-.6-.4-.7 2.43-.38 4.74-.36 6.93.06Z" fill="#BFBB9E"/><path d="M24.58 14.99c.3.1.44.33.41.7-.13 1.01.3 1.93 1.26 2.74-.17.2-.37.33-.61.42-1.22-.2-1.42-.83-1.84-1.88-.16-.4-.37-.65-.64-.72-1.11-.3-1.6 1.02-1.46 1.93.03.16-.04.26-.19.3-.94.26-1.45.21-1.55-.14a1.4 1.4 0 0 1 .37-1.36 6.83 6.83 0 0 1 4.25-2ZM31.52 15.05l1.3.48c.23.09.24.2.04.35l-.79.55c-.19.14-.34.1-.45-.11-.09-.17-.24-.2-.45-.12a.45.45 0 0 0-.28.33c-.11.5-.38.83-.8.98a.38.38 0 0 1-.39-.06.44.44 0 0 1-.15-.37c.05-.6.33-1.19.83-1.77l1.14-.26Z" fill="#DEDDC8"/><path d="M32.93 33.77c.03-1.6-.17-3.02-.62-4.22-.11-.3-.36-.66-.75-1.06a.49.49 0 0 1-.13-.42l.4-2.69c.09-.62.3-.67.62-.14l.3.48c.03.05.07.08.12.1.05.02.1.03.15.02a.3.3 0 0 0 .22-.22c.15-.61.11-1.06-.14-1.34-1.72-1.95-3.74-2.42-6.06-1.4l-2.76.48c-.1.02-.2.07-.28.16a.5.5 0 0 0-.1.31v2.46c0 .28.1.55.27.75.18.2.43.33.7.35l2.61.2c.96.27 1.9.37 2.81.3.05 0 .1 0 .13.03.05.01.08.04.11.08a.3.3 0 0 1 .05.27c-.3 1-.94 1.45-1.9 1.35l-3.56.13a.67.67 0 0 0-.48.24.73.73 0 0 0-.18.52c.05 1.38-.21 2.8-.8 4.25a4.26 4.26 0 0 0-.82-1.18l-.62-.57a4.7 4.7 0 0 1-.71-1.4 3.26 3.26 0 0 1-.03-1.51c.34-1.88.63-3.32.87-4.32a.85.85 0 0 0-.02-.49l-.64-1.8a.32.32 0 0 1 .15-.39c.85-.46 1.67-.82 2.45-1.06.24-.07.36-.15.36-.22a.7.7 0 0 0-.17-.44.55.55 0 0 0-.4-.2l-4.28-.05a.54.54 0 0 0-.44.23.57.57 0 0 0-.07.5c.13.39.46.62 1 .72.07.01.13.05.18.1.04.05.08.12.09.2.02.22-.04.36-.2.4l-2.12-.78c-.15-.05-.23-.15-.25-.31a2.3 2.3 0 0 1 .32-1.7c.15-.2.6-.35 1.36-.44a37.2 37.2 0 0 1 6.66-.15l5.36-.38c1.83.23 3.52.22 5.07-.02.91-.14.92-.3.02-.5-.32-.07-1-.18-2.05-.33a.2.2 0 0 1-.18-.23c0-.04.02-.07.05-.1l.08-.08c.11-.13.14-.25.08-.37-.06-.15-.15-.24-.27-.27-.18-.06-.3 0-.37.17-.12.27-.29.5-.5.72a.42.42 0 0 1-.44.12.44.44 0 0 1-.2-.14.47.47 0 0 1-.1-.22c-.14-.78.12-1.43.8-1.96.12-.1.26-.11.4-.05 1.8.74 3.28 1.93 4.45 3.58a.58.58 0 0 1 0 .68c-.3.4-.51.9-.6 1.48a.93.93 0 0 1-.19.41.88.88 0 0 1-.34.27c-.76.33-1.82.28-3.19-.15-.21-.07-.32.01-.32.25 0 2.25.04 4.14.1 5.69.1 2.23-.23 3.9-.35 6.18 0 .2-.09.24-.25.13-.22-.16-.38-.5-.46-1ZM17.35 20.83a23 23 0 0 0-1.22 1.98.48.48 0 0 1-.37.25.26.26 0 0 1-.23-.1.28.28 0 0 1-.06-.24c.16-.76.55-1.57 1.15-2.44.6-.87 1.22-1.5 1.85-1.9a.26.26 0 0 1 .35.05l.05.12c.04.18 0 .33-.1.46a23.7 23.7 0 0 0-1.42 1.82ZM38.9 22.48V21.2c0-.2.08-.25.24-.15.63.42 1 1 1.1 1.75.07.44 0 .76-.22.95-.2.17-.56.24-1.08.2-.5-.05-.67-.3-.52-.77.03-.09.13-.2.3-.34.12-.1.17-.21.17-.36Z" fill="#DEDDC8"/><path d="M23.65 34.76c-2-.56-3.4-1.9-4.17-4.02-.06-.16.01-.7.22-1.6.05-.22.3-.67.77-1.35.78-1.13.97-2.44.57-3.94-.09-.34-.32-.53-.69-.56.17-.05.23-.19.2-.42a.36.36 0 0 0-.08-.2.32.32 0 0 0-.18-.1c-.54-.09-.87-.32-1-.7a.58.58 0 0 1 .07-.51.52.52 0 0 1 .44-.23l4.29.06c.15 0 .29.07.4.18.1.12.16.28.16.45 0 .07-.12.15-.36.22-.78.24-1.6.6-2.45 1.06a.32.32 0 0 0-.14.38l.63 1.81c.05.16.06.33.02.5-.24.99-.53 2.43-.87 4.3-.1.6-.1 1.11.03 1.52.15.5.4.96.71 1.4l.62.57c.27.25.54.64.81 1.18Z" fill="#ADA885"/><path d="M32.93 33.77a65.35 65.35 0 0 1-1.55-2.37 4.32 4.32 0 0 0-2.7-1.78c.96.1 1.6-.35 1.9-1.35a.3.3 0 0 0-.05-.27.27.27 0 0 0-.24-.1 8.04 8.04 0 0 1-2.8-.3l1.97-.08c.18-.01.35-.09.47-.22.12-.14.2-.31.2-.5v-3.3a.8.8 0 0 0-.14-.43.75.75 0 0 0-.35-.29 3.3 3.3 0 0 0-2.6.1c2.32-1.02 4.34-.55 6.06 1.4.25.28.3.73.14 1.34a.3.3 0 0 1-.08.14.28.28 0 0 1-.14.08.25.25 0 0 1-.27-.12l-.3-.48c-.33-.53-.53-.48-.62.14l-.4 2.69c-.03.16.02.3.13.42.39.4.64.75.75 1.06.45 1.2.65 2.61.62 4.22Z" fill="#BFBB9E"/><path d="M34.3 40.05a4.1 4.1 0 0 1-1.54.97c-1.17.17-2.3.34-3.4.52-.67.1-2.04 0-4.13-.34a8.82 8.82 0 0 1-3.4-1.3 37.54 37.54 0 0 1-3.2-2.15 28.74 28.74 0 0 1-2.02-2.34c-.27-.36-.2-.52.24-.49.49.04.94-.04 1.34-.23a.3.3 0 0 0 .17-.18.46.46 0 0 0 .02-.16c0-.07-.03-.1-.1-.1h-.72c-.17 0-.26-.1-.26-.27v-.53a.38.38 0 0 1 .1-.26.33.33 0 0 1 .26-.1c.3.02.5-.06.56-.23.11-.3.02-.46-.29-.47-1.16-.07-1.74.45-1.75 1.54 0 .26-.08.29-.24.08-.35-.46-.63-1-.83-1.63-.07-.2 0-.27.19-.24.59.12 1.04.07 1.37-.15a.4.4 0 0 0 .15-.17.42.42 0 0 0-.07-.45.38.38 0 0 0-.2-.11c-.44-.11-.7-.4-.78-.87-.04-.19-.13-.23-.28-.12-.23.18-.38.38-.45.61-.12.4-.24.42-.37.05a8.35 8.35 0 0 1-.3-4.68c.09-.35.28-.5.57-.42.05 0 .09.03.12.06a.27.27 0 0 1 0 .38c-1.59 1.53.29 3.74 1.75 1.65a.24.24 0 0 0 .03-.23.24.24 0 0 0-.07-.1.23.23 0 0 0-.1-.05c-.51-.1-.7-.49-.54-1.14.08-.32.31-.6.7-.8.04-.04.61-.42 1.7-1.17a.47.47 0 0 1 .57.03c.7.59.94 1.2.73 1.87-.06.17-.42.6-1.08 1.28a2.8 2.8 0 0 0-.84 1.89c-.03.68.27 1.48.9 2.4a51.51 51.51 0 0 0 1.7 2.4c.5.58 1.33 1.1 2.53 1.56.9.34 1.68-.26 2.31-.8.12-.1.18-.24.18-.4 0-1-.07-1.9-.23-2.7-.08-.44.07-.68.46-.71l2.18-.17c.45-.04.74.15.85.58.2.76.33 1.52.36 2.3.08 2.06.9 3.63 2.85 4.24.88.27 1.62.13 2.22-.42.16-.15.22-.38.18-.68a.19.19 0 0 0-.04-.1.18.18 0 0 0-.18-.06.19.19 0 0 0-.09.05 1 1 0 0 1-.49.27c-.15.03-.3.03-.45 0A6.75 6.75 0 0 1 30.64 36a.63.63 0 0 1-.23-.42c-.08-.7-.06-1.45.06-2.25.04-.3.12-.3.23-.03.36.9.98 1.55 1.84 1.94l1.2.55c.7.42 1.3.81 1.8 1.17.38.27.87.28 1.23.32.04 0 .07.01.1.03a.2.2 0 0 1 .06.1.2.2 0 0 1-.05.2l-2.57 2.44Z" fill="#DEDDC8"/><path d="M40.73 29.97c-.54.23-1.09.1-1.63-.37a14.46 14.46 0 0 1-2.83-3.14 2.64 2.64 0 0 1-.27-1.74c.02-.2.12-.25.29-.17.37.17.63.39.76.67.15.3.47 1.1.99 2.44.32.83 1 1.23 2.04 1.19a.25.25 0 0 0 .2-.13c.1-.16.3-.24.63-.24.17 0 .24.09.22.26l-.13.88a.42.42 0 0 1-.27.35ZM36.68 34.93c.1.29.18.45.2.48.77.67.64 1-.36 1.02-.51 0-1-.28-1.47-.87-.26-.34-.33-.85-.2-1.54.31-1.73.48-2.62.5-2.68.14-.52.53-.91 1.17-1.16a.4.4 0 0 1 .43.07 6.1 6.1 0 0 0 3.24 1.3c.42.04.59.28.5.71a7.9 7.9 0 0 1-1.8 3.87.49.49 0 0 1-.22.14.47.47 0 0 1-.48-.13.5.5 0 0 1-.13-.23c-.16-.7-.56-1.1-1.2-1.21-.19-.04-.25.04-.18.23ZM32.76 41.02a4.1 4.1 0 0 0 1.55-.97c.73-.14 1.76-.56 3.1-1.25.39-.2.76-.12 1.12.24.04.04.07.1.08.17 0 .07-.02.13-.05.19a3.9 3.9 0 0 1-2.68 1.66.95.95 0 0 0-.42.17 7.7 7.7 0 0 1-3.22 1.36.2.2 0 0 1-.14-.2v-.25c0-.06.01-.11.04-.15a.26.26 0 0 1 .12-.1c.4-.18.57-.47.5-.87Z" fill="#BFBB9E"/><path d="m27.74 26.68-1.89-.13a.73.73 0 0 1-.54-.3.8.8 0 0 1-.14-.62l.1-.62a.8.8 0 0 1 .28-.48.73.73 0 0 1 .5-.17l1.54.09c.15 0 .3.06.42.15s.2.22.26.36l.23.68a.82.82 0 0 1-.11.74.76.76 0 0 1-.29.24.72.72 0 0 1-.36.06Z" fill="#DEDDC8"/><path d="M20.05 37.13c.35 0 .66-.17.94-.52a.17.17 0 0 1 .08-.06.17.17 0 0 1 .17.04l.05.08.06.16a.25.25 0 0 1-.04.24c-.81 1.01-1.63 1.11-2.46.3-.71-.69-.36-1.23.35-1.75l.37-.24c.23-.14.45-.15.66-.03.11.06.13.15.07.26l-.54.98a.37.37 0 0 0 0 .36.33.33 0 0 0 .3.18ZM23.94 39.15c.32.16.6.2.86.13.19-.06.28.02.28.23v.15c0 .08-.03.15-.08.21a.28.28 0 0 1-.19.1c-1 .06-1.78-.28-2.34-1.05a.57.57 0 0 1-.1-.45c.17-.73.58-1.26 1.24-1.6.2-.1.36-.12.46-.04.1.08.16.23.16.43 0 .13-.05.27-.14.37-.36.43-.5.82-.43 1.15a.56.56 0 0 0 .28.37ZM28.84 39.8c.36-.01.42.11.2.38l-.12.13c-.25.29-.52.43-.82.42-.82-.03-1.8-.28-1.66-1.4.08-.6.3-1.46.87-1.65.15-.05.23.08.25.4l-.01.32c-.12.98.3 1.45 1.29 1.4ZM30.46 40.51c.65.4 1.41.32 1.7-.18.29-.5 0-1.25-.66-1.65-.65-.4-1.4-.32-1.7.18-.28.51.01 1.25.66 1.65ZM38.86 33.34c.26.06.32.21.19.45-.1.19-.25.3-.42.37-.18.06-.35.1-.5.1a.67.67 0 0 1-.37-.06 4 4 0 0 1-1.5-1.37.35.35 0 0 1-.05-.18v-.44a.3.3 0 0 1 .05-.17.28.28 0 0 1 .13-.11.27.27 0 0 1 .17 0c.06 0 .1.04.14.09.57.7 1.28 1.14 2.16 1.32Z" fill="#8D8059"/></svg>