<!-- by TradingView --><svg width="18" height="18" viewBox="0 0 18 18" xmlns="http://www.w3.org/2000/svg"><path fill="#F0F3FA" d="M0 0h18v18H0z"/><path d="M8.35 10.58c-.06.04-.1.11-.11.2l-.03.04c0 .02-.02.03-.04.02a.08.08 0 0 1-.04-.03.1.1 0 0 1-.01-.05c0-.18-.04-.35-.09-.52A.05.05 0 0 0 8 10.2H8c-.02 0-.04-.02-.06-.04l-.67-1.2a.28.28 0 0 0-.31-.13c-.03 0-.04.02-.02.05l.58.91c.03.05.04.11.04.17-.01.1 0 .17.05.25l.19.31c.23.4.17.47-.19.2l-.52-.38a.28.28 0 0 1-.1-.13c-.1-.26-.12-.52-.26-.76-.22-.37-.46-.74-.72-1.12-.01-.02-.03-.02-.05 0l-.04.02a.06.06 0 0 0-.01.08l.76 1.37a.1.1 0 0 1-.02.11.07.07 0 0 1-.04.02.22.22 0 0 1-.18-.07 3.21 3.21 0 0 0-.86-.6.46.46 0 0 1-.17-.14.53.53 0 0 1-.09-.21 1.09 1.09 0 0 0-.48-.73.06.06 0 0 0-.04 0h-.02c-.02.04-.01.07.02.1.23.2.35.5.35.92v.06l-.04.05a.12.12 0 0 1-.05.02.1.1 0 0 1-.06 0c-.22-.06-.41-.1-.6-.09-.07 0-.08.03-.01.08.2.13.4.18.62.14.21-.03.45-.03.63.1.34.23.68.46 1.02.71.14.1.13.18-.04.22a.64.64 0 0 1-.2.01 3.74 3.74 0 0 1-1.63-.57.16.16 0 0 0-.13-.02c-.13.03-.18.11-.14.24l.03.06.05.04c.47.2 1 .34 1.6.43.22.04.43.01.63-.07.15-.07.3-.04.42.07l.27.24c.14.13.12.2-.06.24a3.46 3.46 0 0 1-2.2-.42.24.24 0 0 0-.2 0c-.1.04-.2.02-.27-.06a.21.21 0 0 0-.1-.07l-.11-.04v-.09c0-.06-.01-.1-.06-.14a2.35 2.35 0 0 1-.62-.6A3.7 3.7 0 0 1 3 7.65l.02-.03.03-.02.03-.01c.24-.01.44-.09.6-.23a.15.15 0 0 1 .14-.04l1.85.37c.1.02.2.07.3.13.3.2.61.4.92.63.2.15.49.12.63.35.33.5.7 1.1.76 1.73 0 .05.02.06.07.05ZM10.66 11.54a.51.51 0 0 1 .3-.3l.06-.05a.2.2 0 0 0 .05-.07c.05-.11.1-.2.17-.28a.16.16 0 0 1 .07-.05h.09c.45.15.9.1 1.35-.17.03-.02.03-.04.02-.07-.01-.02-.03-.02-.04-.01-.35.2-.72.27-1.1.2l-.04-.02-.02-.04a.09.09 0 0 1 .01-.08c.31-.39.67-.71 1.08-.97a.21.21 0 0 1 .13-.03c.38.04.74-.06 1.07-.29.08-.05.07-.06-.01-.03-.02 0-.04 0-.07-.02a.06.06 0 0 0-.08 0c-.18.18-.5.43-.74.21-.03-.04-.04-.08 0-.12.3-.38.67-.63 1.12-.75.02 0 .03-.01.03-.03V8.5c0-.05-.02-.06-.06-.05-.32.09-.57.22-.75.4a6 6 0 0 1-1.24.97h-.04a.1.1 0 0 1-.04-.04.11.11 0 0 1-.02-.04l-.01-.07v-.04c.1-.1.15-.2.18-.31.02-.1 0-.11-.06-.04-.1.1-.14.21-.15.34-.03.39-.23.68-.6.89-.05.02-.08 0-.1-.05a.32.32 0 0 1 .03-.26c.12-.21.05-.34.1-.56.07-.3.22-.67.45-1.07.86-.63 1.9-.84 3.08-.65.09.01.13.07.12.16-.04.4-.1.78-.3 1.13-.27.45-.56.88-.9 1.3-.17.22-.36.38-.57.48-.33.17-.6.37-.97.43-.52.1-1.05.14-1.6.12Z" fill="#388431"/><path d="M8.24 10.79c.1.04.17.1.2.16-.08.09-.07.26.03.51a.8.8 0 0 1-.2.52c-.7.2-1.4.24-2.12.1a.2.2 0 0 1-.12-.1.5.5 0 0 1-.07-.19c-.01-.06-.04-.1-.1-.1a.75.75 0 0 1-.42-.33.24.24 0 0 0-.13-.1c-.2-.06-.84-.35-.75-.69l.12.04.09.07c.07.08.16.1.27.05a.23.23 0 0 1 .2.01c.73.4 1.46.53 2.2.42.18-.03.2-.1.06-.24l-.27-.24a.37.37 0 0 0-.42-.07c-.2.08-.4.1-.63.07a6.59 6.59 0 0 1-1.65-.47.16.16 0 0 1-.03-.06c-.04-.13.01-.2.14-.24.04-.01.09 0 .13.02.54.33 1.08.52 1.62.57l.2-.01c.18-.04.2-.11.05-.22-.34-.25-.68-.48-1.02-.71-.18-.13-.42-.13-.63-.1a.88.88 0 0 1-.62-.14c-.07-.05-.06-.07.02-.08.18 0 .37.03.6.09a.1.1 0 0 0 .05 0l.05-.02a.13.13 0 0 0 .03-.05l.01-.06c0-.42-.12-.72-.35-.93-.03-.02-.04-.05-.02-.09h.06c.26.16.42.4.48.73.02.07.05.15.1.2.04.07.1.12.16.15.3.14.6.34.86.6.05.05.11.08.18.07l.04-.02.02-.03a.1.1 0 0 0 0-.08L5.9 8.43a.06.06 0 0 1 .01-.08l.04-.02c.02-.02.04-.02.05 0 .26.38.5.75.72 1.12.14.24.17.5.26.76.02.05.05.1.1.13l.52.39c.36.26.42.19.19-.2l-.19-.32a.36.36 0 0 1-.05-.25c0-.06-.01-.12-.04-.17l-.58-.91c-.02-.03-.01-.05.02-.05a.28.28 0 0 1 .32.14l.66 1.19c.02.02.04.04.06.04H8c.02 0 .03.02.03.04.05.17.08.34.09.52l.01.05.04.03c.02 0 .03 0 .04-.02 0-.03.02-.04.03-.03Z" fill="#275511"/><path d="M11.1 9.28c.14.16.18.33.12.5l-.11.32c-.08.37-.15.61-.2.73a.4.4 0 0 1-.34.26c0-.03-.03-.05-.1-.05.08 0 .11-.04.1-.1a.77.77 0 0 1 .16-.6.14.14 0 0 0 .01-.14.12.12 0 0 0-.05-.07.1.1 0 0 0-.06-.01h-.05a.13.13 0 0 1-.08-.08.18.18 0 0 1 .02-.2.1.1 0 0 1 .06-.04h.06c.07.04.14.06.21.05.06-.01.1-.05.14-.12.05-.1.03-.19-.05-.28l.16-.17Z" fill="#388431"/><path fill-rule="evenodd" d="M11 9.73c.04-.1.02-.19-.06-.28l-.43-.01c-.07 0-.1-.04-.1-.11.02-.1.05-.18.1-.25a.2.2 0 0 0 .04-.13c0-.2-.1-.31-.27-.34a.13.13 0 0 1-.1-.09l-.08-.25c-.05-.2-.11-.43-.23-.58-.1-.12-.27-.06-.3.1-.07.54.03.94.32 1.2.05.04.05.13.01.18-.2.26-.18.49.08.67.07.05.09.12.05.2-.1.2-.2.36-.35.5-.07.06-.13.06-.18-.03-.18-.3-.2-.55-.05-.75a.26.26 0 0 0 .05-.18c-.02-.4-.2-1.19-.62-1.2-.07 0-.1-.05-.07-.12.16-.5.04-.92-.35-1.25a.18.18 0 0 1-.07-.13c-.01-.47-.3-.77-.67-1-.08-.05-.03-.18-.01-.25.04-.26-.04-.32-.24-.18a.73.73 0 0 0-.16.15c-.05.06-.16.03-.17-.06-.03-.23-.17-.38-.43-.44-.04 0-.07 0-.09.05-.07.13-.17.15-.3.06-.24-.18-.48-.25-.72-.2-.13.04-.17.22-.07.32.33.31.71.47 1.15.47.02 0 .05 0 .07.02l.04.07c.02.1.06.2.12.27.04.06.1.09.16.07.3-.06.48.08.51.44.01.12.1.22.2.24.06 0 .45-.02.42.13l-.02.04-.14.16a.16.16 0 0 0-.04.15c.1.4.18.84.25 1.3v.66c.01.07.05.1.1.13.05.01.1-.03.12-.09.01-.1.06-.14.14-.13.06.01.09.05.07.12a.5.5 0 0 1-.1.2c-.03.05-.03.1 0 .15l.36.42c.03.04.04.08.02.13-.01.04-.04.05-.08.03a.48.48 0 0 0-.2-.07c-.05 0-.09.02-.1.08-.04.14-.12.23-.23.26-.06.04-.1.11-.11.2.1.05.17.1.2.17a.92.92 0 0 1 .34-.1c.08 0 .1.04.05.1a.26.26 0 0 0-.05.15c0 .09.03.13.11.14l.3.02c.04 0 .07.03.07.08l.1 1.02c.02.17-.02.2-.13.06l-.76-.96a.8.8 0 0 1-.2.52c.18-.08.36 0 .54.2.19.21.33.4.43.55.03.04.03.08 0 .12-.02.07 0 .12.05.15.47-.08.5-.23.5-.23l.87-1.23a.51.51 0 0 1 .3-.3.18.18 0 0 0 .09-.07l.02-.05c.05-.11.1-.2.17-.28a.16.16 0 0 1 .07-.05h.09c.45.15.9.1 1.35-.17.03-.02.03-.04.02-.07-.01-.02-.03-.02-.04-.01a1.5 1.5 0 0 1-1.13.19c-.04-.03-.05-.09-.02-.13.31-.39.67-.71 1.08-.97a.21.21 0 0 1 .13-.03c.38.04.74-.06 1.07-.29.08-.05.07-.06-.01-.03h-.03l-.04-.02a.06.06 0 0 0-.03-.01c-.02 0-.03 0-.04.02-.19.17-.52.42-.75.2-.03-.04-.04-.08 0-.12a2.03 2.03 0 0 1 1.14-.76V8.5c0-.05-.01-.06-.05-.05-.32.09-.57.22-.75.4-.42.42-.82.74-1.2.96-.1.06-.14-.06-.15-.14a.05.05 0 0 1 0-.03v-.01c.1-.1.15-.2.18-.31.02-.1 0-.11-.06-.04-.1.1-.14.21-.15.34-.03.39-.23.68-.6.89-.05.02-.08 0-.1-.05a.32.32 0 0 1 .03-.26c.07-.13.08-.23.08-.34 0-.07 0-.14.02-.22.07-.3.22-.67.45-1.07-.32.17-.56.4-.7.71.14.16.18.33.12.5l-.11.32c-.08.37-.15.61-.2.73a.4.4 0 0 1-.34.26c-.15.35-.3.63-.47.84-.13.15-.18.13-.13-.08v-.03c.06-.31.14-.74.5-.78.08 0 .11-.04.1-.1a.77.77 0 0 1 .16-.6c.04-.07.03-.17-.04-.2-.07-.05-.14 0-.19-.1a.18.18 0 0 1 .02-.2.1.1 0 0 1 .12-.03c.07.03.14.05.21.04.06-.01.1-.05.14-.12Zm-1.14 1.21a.44.44 0 0 0-.11.26c0 .03-.02.06-.04.08a.1.1 0 0 1-.08.02c-.1-.01-.14.03-.13.14.03.3.04.6.05.89 0 .1.03.1.09.03a.5.5 0 0 0 .1-.27c.02-.36.1-.7.23-1.02.02-.06-.06-.18-.11-.13Z" fill="#6A0D09"/></svg>