<!-- by TradingView --><svg width="56" height="56" viewBox="0 0 56 56" xmlns="http://www.w3.org/2000/svg"><path fill="#F0F3FA" d="M0 0h56v56H0z"/><path d="M51.5 26.5v.2c-.38.16-.54.62-.65.97l-1.15 3.68-.47 1.16-2.2-5.25c-.1-.25-.2-.4-.3-.46a.46.46 0 0 0-.23-.1v-.2h2.83v.2c-.11 0-.22.01-.32.03-.1.01-.16.04-.2.1-.05.04-.05.13 0 .25L50 30.1l-.1.08.44-1.45c.14-.45.2-.82.17-1.11a1.1 1.1 0 0 0-.21-.65.63.63 0 0 0-.46-.25v-.21h1.67Zm-1.8 4.85-.38 1.2c-.06.16-.12.3-.19.43a.92.92 0 0 1-.22.28c-.08.07-.18.12-.32.17a1.9 1.9 0 0 1-1.08-.02 1.21 1.21 0 0 1-.5-.3.73.73 0 0 1-.2-.54c0-.23.08-.42.25-.56.16-.13.38-.2.65-.2.25 0 .45.06.6.18.15.12.23.3.23.55 0 .14-.05.29-.15.44a.83.83 0 0 1-.45.32l.17.01.14.01c.2 0 .37-.06.53-.2.15-.12.26-.32.34-.59l.33-1.08.25-.1Z" fill="#8B313B"/><path d="M51.5 26c.28 0 .5.22.5.5v.2a.5.5 0 0 1-.32.47c-.04.02-.1.07-.17.19-.07.13-.13.28-.18.46l-1.15 3.68-.39 1.2c-.06.2-.13.36-.22.51-.08.17-.2.31-.33.43-.15.12-.31.2-.48.26a2.4 2.4 0 0 1-1.4-.01c-.27-.08-.5-.23-.7-.42a1.23 1.23 0 0 1-.35-.9c0-.37.14-.7.43-.94.27-.23.61-.32.97-.32.17 0 .35.02.5.07l-1.64-3.93a1.59 1.59 0 0 0-.13-.25.5.5 0 0 1-.44-.5v-.2c0-.28.22-.5.5-.5h2.83c.09 0 .17.02.25.07a.5.5 0 0 1 .25-.07h1.67Zm-2.97 6.66v-.12c0-.24-.07-.43-.22-.55a.92.92 0 0 0-.6-.18.98.98 0 0 0-.65.2.69.69 0 0 0-.25.56c0 .23.07.41.2.54a1.2 1.2 0 0 0 .5.3 2.05 2.05 0 0 0 .55.09h.19a1.29 1.29 0 0 0 .45-.11.9.9 0 0 0 .2-.12h.01a.9.9 0 0 0 .22-.3 2.36 2.36 0 0 0 .19-.42l.38-1.2 1.15-3.68c0-.03.02-.06.03-.08v-.01l.09-.25c.05-.12.1-.23.18-.33a.8.8 0 0 1 .35-.3v-.2h-1.67v.2a.63.63 0 0 1 .5.3c.05.08.09.17.12.29l.05.26v.06c.02.29-.03.66-.17 1.1l-.39 1.27-1.13-2.9a.73.73 0 0 1-.03-.08c-.02-.08-.01-.14.02-.17.05-.06.12-.09.21-.1.1-.02.2-.02.32-.02v-.21H46.5v.2c.07 0 .15.04.24.1.05.03.1.1.17.2l.12.26 2.14 5.1-.05.17a1.81 1.81 0 0 1-.15.36 1.01 1.01 0 0 1-.18.22l-.01.01a.92.92 0 0 1-.07.06h-.01a.78.78 0 0 1-.45.14 1.44 1.44 0 0 1-.19 0l-.12-.02a1.2 1.2 0 0 0 .17-.07c.06-.03.1-.06.14-.1.06-.04.1-.1.14-.15v-.01a.94.94 0 0 0 .1-.18v-.01a.72.72 0 0 0 .04-.12Zm.87-5.46.48 1.25c.1-.36.14-.62.12-.8v-.01c-.01-.24-.07-.33-.1-.36v-.01c-.04-.05-.07-.06-.1-.06a.5.5 0 0 1-.22-.07.5.5 0 0 1-.18.06Z" fill="#D9D9BC"/><path d="M19.5 26.5v.2c-.38.16-.54.62-.65.97l-1.15 3.68-.47 1.16-2.2-5.25c-.1-.25-.2-.4-.3-.46a.46.46 0 0 0-.23-.1v-.2h2.83v.2c-.11 0-.22.01-.32.03-.1.01-.16.04-.2.1-.05.04-.05.13 0 .25L18 30.1l-.1.08.44-1.45c.14-.45.2-.82.17-1.11a1.1 1.1 0 0 0-.21-.65.63.63 0 0 0-.46-.25v-.21h1.67Zm-1.8 4.85-.38 1.2c-.06.16-.12.3-.19.43a.92.92 0 0 1-.22.28c-.08.07-.18.12-.32.17a1.9 1.9 0 0 1-1.08-.02 1.21 1.21 0 0 1-.5-.3.73.73 0 0 1-.2-.54c0-.23.08-.42.25-.56.16-.13.38-.2.65-.2.25 0 .45.06.6.18.15.12.23.3.23.55 0 .14-.05.29-.15.44a.83.83 0 0 1-.45.32l.17.01.14.01c.2 0 .37-.06.53-.2.15-.12.26-.32.34-.59l.32-1.08.26-.1Z" fill="#8B313B"/><path d="M20 26v1.05l-.32.12c-.04.02-.1.07-.17.19-.07.13-.13.28-.18.46l-.75 2.4v.04l-.02.02-.38 1.22-.39 1.2a2.93 2.93 0 0 1-.42.82l-.13.3-.06-.14c-.12.1-.27.17-.42.22a2.4 2.4 0 0 1-1.4-.01c-.26-.08-.5-.23-.7-.42a1.23 1.23 0 0 1-.35-.9c0-.37.14-.7.43-.94.27-.23.61-.32.97-.32.17 0 .35.02.5.07l-1.64-3.93a1.59 1.59 0 0 0-.12-.24H14V26h6Zm-3.47 6.66v-.12c0-.24-.07-.43-.22-.55a.92.92 0 0 0-.6-.18.98.98 0 0 0-.65.2.69.69 0 0 0-.25.56c0 .23.07.41.2.54.14.14.31.24.5.3a2.13 2.13 0 0 0 .55.09h.19a1.29 1.29 0 0 0 .45-.11.9.9 0 0 0 .2-.12h.01a1 1 0 0 0 .22-.29 2.36 2.36 0 0 0 .19-.43l.38-1.2 1.15-3.68c0-.03.02-.06.03-.08v-.01l.1-.25c.04-.12.1-.23.17-.33a.8.8 0 0 1 .35-.3v-.2h-1.67v.2a.63.63 0 0 1 .5.3c.05.08.09.17.12.29l.05.26v.06c.02.29-.03.66-.17 1.1l-.39 1.27-1.13-2.9a.73.73 0 0 1-.03-.08c-.02-.08-.01-.14.02-.17.05-.06.12-.09.21-.1.1-.02.2-.02.32-.02v-.21H14.5v.2c.07 0 .15.04.24.1.05.03.1.1.17.2l.12.26 2.14 5.1-.05.17a1.81 1.81 0 0 1-.15.36 1 1 0 0 1-.18.22l-.01.01a.92.92 0 0 1-.07.06h-.01a.78.78 0 0 1-.45.14 1.44 1.44 0 0 1-.19 0l-.12-.02a1.2 1.2 0 0 0 .17-.07c.06-.03.1-.06.14-.1.06-.04.1-.1.14-.15v-.01a.94.94 0 0 0 .1-.18v-.01a.72.72 0 0 0 .04-.12Zm.87-5.45.48 1.24c.1-.36.14-.62.12-.8v-.01c-.01-.24-.07-.33-.1-.36v-.01c-.04-.05-.06-.06-.1-.06h-.4Z" fill="#D9D9BC"/><path d="M44 26.5c1.5 0 2.5 1 2.5 2H43l-.03-.13h1.53c0-.37 0-1.66-.5-1.66s-.47 1.35-.5 1.79c0 1 .5 2 1.39 2 .53 0 1-.21 1.35-.6l.2.05c-.37.99-1.32 1.55-2.35 1.55-1.55 0-2.59-1-2.59-2.5s1-2.5 2.5-2.5Z" fill="#8B313B"/><path d="M47 29h-2.95c.05.23.13.44.23.61.18.27.38.4.6.4.39 0 .73-.16.99-.45l.21-.24 1 .3-.18.5A2.92 2.92 0 0 1 44.1 32c-.88 0-1.66-.28-2.22-.82A2.94 2.94 0 0 1 41 29a3 3 0 0 1 .83-2.17A3 3 0 0 1 44 26c1.7 0 3 1.15 3 2.5v.5Zm-2.11 1.5c-.74 0-1.21-.7-1.35-1.5a2.92 2.92 0 0 1-.04-.5h3c0-.17-.03-.34-.08-.5a2.3 2.3 0 0 0-1.76-1.43 3.14 3.14 0 0 0-1.31 0c-1.13.25-1.85 1.16-1.85 2.43 0 1.5 1.04 2.5 2.59 2.5a2.54 2.54 0 0 0 2.12-1.1 2.33 2.33 0 0 0 .22-.45l-.19-.06a1.79 1.79 0 0 1-1.36.61Zm-1.38-2.13h.99a6.3 6.3 0 0 0 0-.5 2.9 2.9 0 0 0-.16-.85c-.08-.18-.18-.31-.34-.31-.15 0-.25.12-.33.3a3.16 3.16 0 0 0-.15.99l-.01.3v.07Z" fill="#D9D9BC"/><path d="M39 26.5c1.06 0 1.5.59 1.5 1.59v2.54c0 .4.06.67.5.67v.2h-2.85v-.2c.4 0 .35-.32.35-.67v-3.05c0-.33-.02-.6-.38-.6-.38 0-.62.3-.62.68v2.97c0 .34-.06.67.35.67v.2H35v-.2c.44 0 .5-.27.5-.67v-2.98c0-.57-.08-.82-.5-.82v-.33h2.5v.7c.33-.5.78-.7 1.5-.7Z" fill="#8B313B"/><path d="M41 30.8c.28 0 .5.23.5.5v.2a.5.5 0 0 1-.5.5h-6a.5.5 0 0 1-.5-.5v-.2c0-.27.22-.5.5-.5v-3.15a2.45 2.45 0 0 0-.02-.32.5.5 0 0 1-.48-.5v-.33c0-.28.22-.5.5-.5h2.5a.5.5 0 0 1 .4.2c.33-.15.7-.2 1.1-.2.62 0 1.15.17 1.52.58.36.4.48.94.48 1.5V30.8Zm-3.5-4.3H35v.33c.2 0 .32.05.4.17.08.13.1.35.1.65v2.98c0 .14 0 .27-.04.37-.05.19-.18.3-.46.3v.2h2.85v-.2a.42.42 0 0 1-.2-.04c-.1-.05-.13-.14-.15-.26V27.66a.76.76 0 0 1 .15-.46c.08-.1.2-.18.35-.2l.12-.01c.13 0 .21.03.27.1.1.1.11.28.11.49v3.05a6.18 6.18 0 0 0 0 .37c-.02.12-.05.21-.15.26a.43.43 0 0 1-.2.04v.2H41v-.2c-.29 0-.41-.1-.47-.3-.02-.1-.03-.23-.03-.37v-2.54c0-1-.44-1.59-1.5-1.59-.2 0-.38.01-.54.05a1.62 1.62 0 0 0-.46.16c-.2.12-.36.28-.5.5v-.71Z" fill="#D9D9BC"/><path d="M29 24.5v.2c-.62.02-1 .24-1 .85v4.9c0 .61.39.82 1 .85v.2h-4v-.2c.64-.03 1-.18 1-.85v-5.29l.09-.02-2.77 6.35h-.17L20 25.14v4.42c0 .92-.06 1.6 1 1.74v.2h-2v-.2c.79-.16.78-.88.78-1.54v-4.21c0-.6-.16-.83-.78-.85v-.2h3.2l2.18 4.41-.33.33L26 24.5h3Z" fill="#8B313B"/><path d="M29 24c.28 0 .5.22.5.5v.2a.5.5 0 0 1-.49.5c-.26 0-.39.06-.44.1-.02.01-.07.06-.07.25v4.9c0 .19.05.23.07.24.06.04.18.1.46.11a.5.5 0 0 1 .47.5v.2a.5.5 0 0 1-.5.5h-4a.5.5 0 0 1-.5-.5v-.2c0-.26.2-.48.47-.5.32-.01.43-.06.47-.09l.03-.04a.6.6 0 0 0 .03-.22v-2.7l-1.72 3.94a.5.5 0 0 1-.46.3h-.17a.5.5 0 0 1-.45-.28l-2.2-4.43v2.28a39.36 39.36 0 0 1 0 .61c.02.18.04.3.07.37.02.07.06.11.1.15.07.04.18.09.4.12a.5.5 0 0 1 .43.5v.19a.5.5 0 0 1-.5.5h-2a.5.5 0 0 1-.5-.5v-.2a.5.5 0 0 1 .4-.49.44.44 0 0 0 .22-.1.37.37 0 0 0 .1-.15c.06-.2.06-.44.06-.8v-4.21a1.23 1.23 0 0 0-.03-.31.7.7 0 0 0-.26-.04.5.5 0 0 1-.49-.5v-.2c0-.28.22-.5.5-.5h3.2c.19 0 .36.1.45.28l1.58 3.2 1.3-3.17A.5.5 0 0 1 26 24h3Zm-6.8.5H19v.2c.28 0 .46.06.58.16.05.04.08.09.1.14.03.04.05.09.06.14l.03.12.01.29v4.22c0 .39 0 .8-.16 1.1a.83.83 0 0 1-.08.13.88.88 0 0 1-.54.3v.2h2v-.2c-.35-.04-.58-.15-.72-.3a.76.76 0 0 1-.11-.14c-.17-.28-.17-.65-.17-1.1a8.47 8.47 0 0 0 0-.2v-4.42l3.15 6.35h.17L26 25.35v5.1c0 .25-.05.42-.14.55-.17.21-.46.28-.86.3v.2h4v-.2c-.37-.02-.66-.1-.83-.3a.8.8 0 0 1-.17-.55v-4.9c0-.24.06-.42.17-.55.16-.2.45-.3.83-.3v-.2h-3l-1.73 4.2-2.07-4.2Zm-2.96.73Z" fill="#D9D9BC"/><path d="M14.5 24.5v.2c-.62.02-1 .24-1 .85v4.9c0 .61.39.82 1 .85v.2h-4v-.2c.64-.03 1-.18 1-.85v-5.29l.09-.02-2.77 6.35h-.17L5.5 25.14v4.42c0 .92-.06 1.6 1 1.74v.2h-2v-.2c.79-.16.78-.88.78-1.54v-4.21c0-.6-.16-.83-.78-.85v-.2h3.2l2.18 4.41-.33.33 1.95-4.74h3Z" fill="#8B313B"/><path d="M14.5 24c.28 0 .5.22.5.5v.2a.5.5 0 0 1-.49.5c-.26 0-.39.06-.44.1-.02.01-.07.06-.07.25v4.9c0 .19.05.23.07.24.06.04.18.1.46.11a.5.5 0 0 1 .47.5v.2a.5.5 0 0 1-.5.5h-4a.5.5 0 0 1-.5-.5v-.2c0-.26.2-.48.47-.5.32-.01.43-.06.47-.09l.03-.04a.6.6 0 0 0 .03-.22v-2.7l-1.72 3.94a.5.5 0 0 1-.46.3h-.17a.5.5 0 0 1-.45-.28L6 27.28v2.28a41.44 41.44 0 0 1 0 .61c.02.18.04.3.07.37.02.07.06.11.1.15.07.04.18.09.4.12a.5.5 0 0 1 .43.5v.19a.5.5 0 0 1-.5.5h-2a.5.5 0 0 1-.5-.5v-.2a.5.5 0 0 1 .4-.49.44.44 0 0 0 .22-.1.37.37 0 0 0 .1-.15c.06-.2.06-.44.06-.8v-4.21a1.23 1.23 0 0 0-.03-.31.7.7 0 0 0-.26-.04.5.5 0 0 1-.49-.5v-.2c0-.28.22-.5.5-.5h3.2c.19 0 .36.1.45.28l1.58 3.2 1.3-3.17a.5.5 0 0 1 .47-.31h3Zm-6.8.5H4.5v.2c.28 0 .46.06.58.16.05.04.08.09.1.14.03.04.05.09.06.14l.03.12.01.29v4.22c0 .39 0 .8-.16 1.1a.84.84 0 0 1-.08.13.88.88 0 0 1-.54.3v.2h2v-.2c-.35-.04-.58-.15-.72-.3a.76.76 0 0 1-.11-.14c-.17-.28-.17-.65-.17-1.1v-4.62l3.15 6.35h.17l2.68-6.14v5.1c0 .25-.05.42-.14.55-.17.21-.46.28-.86.3v.2h4v-.2c-.37-.02-.66-.1-.83-.3a.8.8 0 0 1-.17-.55v-4.9c0-.24.06-.42.17-.55.16-.2.45-.3.83-.3v-.2h-3l-1.73 4.2-2.07-4.2Zm-2.96.73ZM31.5 31.5c1.03 0 1.34 0 0 0Zm0 0c1.03 0 1.34 0 0 0Zm1.58-.24.16.47c-.5.19-1.1.27-1.74.27-.64 0-1.23-.08-1.74-.27-.54-.19-.99-.51-1.3-.97A3.07 3.07 0 0 1 28 29c0-.67.14-1.27.46-1.75.31-.46.75-.78 1.3-.97A5.1 5.1 0 0 1 31.5 26c.65 0 1.23.09 1.75.28.54.19.98.51 1.29.97.32.48.46 1.08.46 1.75 0 .68-.14 1.28-.46 1.76-.31.46-.75.78-1.3.97l-.16-.47Zm-1.58-1.73.44-.06c.38-.05.68-.15.87-.27.09-.06.14-.12.17-.16a.16.16 0 0 0 .02-.03v-.02a.21.21 0 0 0-.04-.06.86.86 0 0 0-.27-.19c-.28-.14-.7-.24-1.19-.24-.5 0-.91.1-1.2.24a.86.86 0 0 0-.26.2.21.21 0 0 0-.04.06c0 .01 0 .03.02.04.03.04.08.1.17.16.2.12.5.22.87.27l.44.06Z" fill="#D9D9BC"/><path d="M33.08 26.75a4.53 4.53 0 0 0-1.58-.25c-.6 0-1.12.08-1.58.25-.45.16-.8.42-1.05.78-.25.37-.37.86-.37 1.47 0 .62.12 1.11.37 1.48.25.36.6.62 1.05.78.46.16.98.24 1.58.24.6 0 1.13-.08 1.58-.24.45-.16.8-.42 1.05-.78.25-.37.37-.86.37-1.48 0-.61-.12-1.1-.37-1.47-.25-.36-.6-.62-1.05-.78ZM33.5 29c0 .47-.64.86-1.5.97V31h-1v-1.03c-.86-.11-1.5-.5-1.5-.97 0-.55.9-1 2-1s2 .45 2 1Z" fill="#8B313B"/></svg>