<!-- by TradingView --><svg width="56" height="56" viewBox="0 0 56 56" xmlns="http://www.w3.org/2000/svg"><path fill="#7DD8EB" d="M0 0h56v56H0z"/><path d="M15 12v17l5-4.16.8 2.37 1.6-11.05 1.6 7.9.8-1.59L26.4 28 28 17.74l1.6 7.9 1.6-6.32.8 7.1 1.6-7.1L36.8 29H41V12H15Z" fill="#70220E"/><path d="M15 44V31.16h3.4L20 28l1.6 3.95.8-7.1.8 7.1.8-2.37.8 5.53 1.6-5.53.8 2.37.8-5.53.8 5.53.8-2.37.8 1.58.8-3.95.8 7.9 1.6-9.48 1.6 5.53H41V44H15Z" fill="#70220E"/><path d="m20 24.84-1.5 6.32L20 28l1.6 3.95.8-7.1.8 7.1.8-2.37.8 5.53 1.6-5.53.8 2.37.8-5.53.8 5.53.8-2.37.8 1.58.8-3.95.8 7.9 1.6-9.48 1.62 5.53-1.62-11.84-1.6 7.1-.8-7.1-1.6 6.31-1.6-7.9L26.4 28l-1.6-5.53-.8 1.58-1.6-7.9-1.6 11.06-.8-2.37Z" fill="#F8FFFF"/></svg>