<!-- by TradingView --><svg width="56" height="56" viewBox="0 0 56 56" xmlns="http://www.w3.org/2000/svg"><path fill="#F0F3FA" d="M0 0h56v56H0z"/><path fill="#0D176E" d="M15 17h26v27H15z"/><path d="M34.31 40.26a.07.07 0 0 1-.06 0 .07.07 0 0 1-.03-.03 1.68 1.68 0 0 0-.45-.72c-.26-.21-.57-.29-.93-.22-.04 0-.04.1.01.1.33-.05.6.04.8.26.15.17.34.4.56.72-.37.36-.8.54-1.3.52-1.1-.05-2.08-.63-3.23-.6a.17.17 0 0 1-.11-.04.16.16 0 0 1-.06-.1c-.07-.4-.63-.58-.91-.82a.15.15 0 0 1-.06-.1c-.05-.53.15-.92.61-1.18.05-.03-.05-.09-.08-.08-.35.15-.63.37-.86.66-.17-.2-.15-.41.08-.64.1-.1.3-.25.63-.48.04-.02-.01-.13-.07-.1l-.58.32c-.11.07-.16.03-.15-.1 0-.21.1-.44.27-.56.1-.07.2-.16.3-.27.07-.06.06-.08-.03-.04-.13.05-.27.14-.45.15l-.95.06c-.04 0-.06-.02-.05-.06.11-.4.34-.66.68-.81.32-.14.52-.23.58-.28a.12.12 0 0 0 .06-.1c.02-.28.09-.57.22-.87 0-.02-.06-.01-.07 0-.12.2-.21.44-.3.71-.03.13-.14.22-.28.26-.46.15-.77.41-1 .85a5.4 5.4 0 0 1-1.3 1.62c-.3.18-.76.9-1.04.94-.68.1-1.32.04-1.92-.18-.05-.02-.1.05-.06.08.25.16.43.25.53.26a21.16 21.16 0 0 1 .7.1c-.24.35-.41.67-.51.95-.06.18-.09.34-.07.47.04.48.76 1.38 1.22 1.62.17.1.26.26.28.5.03.33-.07.63-.3.9-.25.07-.53.09-.84.05-.11-.12-.13-.3-.05-.58.04-.13.01-.23-.08-.3-.04-.03-.1 0-.09.04.02.27-.06.54-.23.83l-.95-.01c-.14-.15-.2-.4-.15-.77 0-.05-.06-.14-.1-.06-.07.17-.1.35-.1.56.01.08-.07.13-.14.1a.9.9 0 0 1-.56-.72c-.06-.4-.12-.84-.16-1.36 0-.04.01-.08.04-.11.19-.22.45-.43.37-.8-.02-.08-.12-.1-.13-.02-.02.25-.13.48-.33.68-.03.03-.06.03-.08-.01-.04-.09-.03-.2-.08-.28-.1-.17-.32.07-.37-.06-.1-.23.11-.4.3-.51.07-.04.09-.26-.01-.2-.11.07-.36.17-.5.1a.13.13 0 0 1-.07-.1c-.02-.26.39-.38.59-.37.07 0 .06-.14-.01-.15-.11-.01-.42 0-.48-.12a.08.08 0 0 1-.01-.07c.04-.14.33-.14.44-.17a.11.11 0 0 0 .09-.08c.12-.38-.2-.62.22-.96.36-.3.73-.6 1.12-.9.28-.21.45-.47.5-.77.07-.4.08-.88.03-1.4-.02-.21-.28-.04-.38-.04h-.73c-.1 0-.1-.03-.03-.1.15-.12.3-.26.42-.41.06-.08-.08-.17-.14-.1-.32.38-.73.44-1.22.18-.12-.06-.12-.1 0-.14l.73-.21c.19-.06.18-.1 0-.11a1.9 1.9 0 0 0-.6.05h-.07c-.22-.03-.6-.26-.7-.42-.09-.16-.05-.21.14-.16l.17.14c.05.04.13 0 .1-.06-.08-.19-.37-.23-.42-.4a1.6 1.6 0 0 1 .34-1.6c.58-.66 1.26-1 2.24-1.55.5-.28.92-.57 1.24-.85.56-.49.65-1.4-.16-1.68a.26.26 0 0 0-.33.19 5.3 5.3 0 0 1-.1.41c-.26.9-.98 1.13-1.87 1.1-.25 0-.92-.08-1.03-.35a.07.07 0 0 1 .04-.08c.43-.14.8-.35 1.14-.65.06-.05-.1-.1-.14-.08-.2.14-.42.26-.65.35-.15.07-.17.04-.06-.07.17-.18.3-.37.4-.59.2-.5.55-1 1.18-1 .5 0 .84 0 1.03-.02.27-.03.48-.01.63.06.27.13.46.25.54.35.59.7.61 1.43.08 2.19-.37.53-1 1.12-1.9 1.77-.53.38-1.23.92-1.12 1.65.1.71 1.12.42 1.58.31.24-.05.44-.17.6-.34.12-.13.34-.42.68-.88a.78.78 0 0 1 .44-.27l.93-.23c.28-.07.52-.22.7-.5 0-.5-.15-.48.3-1.4l.54-.91c.07-.13.1-.35.1-.64a.64.64 0 0 0-.19-.46l-.81-.79c-.13-.11-.23-.29-.32-.52-.27-.73-.47-1.23-.61-1.5-.01-.02-.09-.03-.07 0 .18.46.35.97.52 1.54.05.15.13.3.26.46.1.12.36.39.8.78a.8.8 0 0 1 .24.91c-.1.3-.24.6-.45.94a.2.2 0 0 1-.2.09l-.37-.05a.12.12 0 0 1-.1-.13c.1-.7-.25-1.32-.75-1.82a.47.47 0 0 1-.13-.4c.04-.4.05-.72.05-.94a2.02 2.02 0 0 0-.44-.98c-.02-.03-.1 0-.1.02.34.59.46 1.23.37 1.93-.01.07-.05.1-.11.07-.1-.04-.22-.07-.21-.2 0-.1 0-.22-.05-.32a2.3 2.3 0 0 0-.56-.85c-.08-.07.07-.17.1-.24.04-.22-.12-.58-.16-.8-.01-.03-.06-.04-.08-.02-.01.02-.06.06-.05.09.06.33.1.6.08.82 0 .12-.07.16-.18.11l-.45-.18c-.12-.05-.16-.14-.1-.26.05-.13.2-.34.15-.49-.07-1.96-.8-2.56-.53-2.84.34-.36.73-.9 1.18-1.18.36-.22.78-.3 1.27-.23.04 0 .07-.07.04-.08-.31-.1-.6-.11-.87-.03-.28.1-.59.25-.9.48-.05.03-.06.02-.05-.03.12-.44.25-.72.38-.85.27-.26.63-.47 1.08-.63.2-.08.73.29.99.31.03 0 .06-.07.02-.09-.13-.05-.97-.26-.84-.48.2-.33.5-.5.9-.48a8.6 8.6 0 0 1 1.9.26c.43.1.94.24 1.2.6.11.14.06.56.21.63l.53.24c.15.06.17.26.36.3.53.08.94.33 1.23.74.03.04.03.07.02.11-.04.17-.06.25-.14.4a.8.8 0 0 0-.06.5.23.23 0 0 1-.24.27h-.36c-.15 0-.19.2-.33.17a1.18 1.18 0 0 0-.46.02c-.07.02-.05.15.03.15.21-.02.38.03.49.14.04.03.06.03.07-.03.07-.36.45-.3.79-.34.05 0 .07.02.08.06.08.34.02.59-.2.75-.17.14-.35.14-.53 0-.04-.03-.07-.02-.11.01-.16.16-.34.37-.6.24-.2-.1-.41-.08-.61.08a.14.14 0 0 0-.06.1c-.06.55.6.6 1.01.55.34-.04.65.13.87.37.16.17.13.29-.1.34l-1.7.4c-.07.01 0 .11.04.1l2.05-.38a.41.41 0 0 1 .33.08l.62.5c.09.06.22.01.23-.09.05-.25.05-.55.01-.9 0-.04.02-.07.06-.07.14-.01.23.05.28.2.02.07.15.01.11-.05a2.02 2.02 0 0 1-.19-.93 2 2 0 0 1 1.23-1.97c.17-.07.3-.16.5-.13h.02c.03.03.03.07 0 .09l-.39.38c-.05.05.04.15.09.11l.39-.3c.37-.33.77 0 .85.38.02.1-.02.16-.13.15-.25-.01-.73-.06-.93.06-.23.13-.2.17.05.12.27-.05.6-.03 1.02.04.04 0 .07.04.09.07.14.42.09.78-.15 1.09a.33.33 0 0 1-.26.12c-.18.01-.4.03-.68.07-.02 0 0 .05.01.06l.51.04c.08 0 .15.07.14.14-.04.37-.04.58-.27.84l-.26.36c-.07.1.04.2.08.27a9.08 9.08 0 0 0 .04.84c0 .23.04.37.08.44.2.3.14.37-.2.23-.13-.05-.22-.16-.27-.33a.12.12 0 0 0-.04-.06c-.08-.06-.14.06-.14.13l.02.06c.14.22.33.4.55.55.03.02.02.06 0 .07-.1.05-.2.14-.32.26a.13.13 0 0 1-.05.04.14.14 0 0 1-.06 0c-.44-.03-.58.09-.85.39-.34.36-.98.48-1.4.4a6.1 6.1 0 0 0-.54-.12c-.04 0-.06.01-.08.04l-.46.64c-.08.1-.17.12-.28.05l-.74-.5c-.02-.02-.04.04-.02.05l.7.56c.15.11.36.08.46-.06l.36-.5a.24.24 0 0 1 .24-.1c.66.13 1.35.2 1.83-.36.15-.18.26-.3.32-.34.17-.12.38-.14.65-.06.22.06.48 0 .77-.2.54-.34 1.08-.5 1.61-.46.18 0 .36.07.54.18.07.05.12.12.13.2v.04c.02.09-.02.11-.1.07a.92.92 0 0 0-.96.08c-.07.05.05.11.1.08.24-.12.52-.1.87.08a.5.5 0 0 1 .3.45v.2c0 .2-.1.27-.28.17-.33-.16-.82-.46-1.05-.2-.03.05-.02.06.03.06.32-.04.6.05.8.27l.39.38c.03.02.04.05.02.1-.2.43-.8.57-1.24.62-.13.01-.23 0-.3-.05a1.2 1.2 0 0 1-.26-.23c-.22-.25-.47-.31-.78-.33-.11 0 .04.15.1.16.26.04.47.17.62.38.02.04 0 .1-.04.1-.25.1-.53.14-.85.15-.23 0-.64.08-.85-.11a5.32 5.32 0 0 0-.45-.37c-.04-.03-.1.01-.06.06.16.22.35.43.57.6.03.03.02.07 0 .08-.5.2-1.17.31-1.57-.07-.17-.16-.4-.34-.67-.54-.04-.03-.1.05-.07.07l.67.66c.04.04.04.07-.02.09-.18.07-.34.16-.48.27a.16.16 0 0 1-.11.04 6.26 6.26 0 0 1-2.43-.85c-.04-.02-.18 0-.12.05a4.7 4.7 0 0 0 2.49.92c.18.02.21.09.08.22-.36.39-.78.51-1.27.73a.18.18 0 0 0-.09.08c-.36.62-.77.82-1.32 1.2-.03.03.01.06.04.07h.03c.63-.24 1.36-.6 2.02-.2.38.24.53.63.45 1.16-.05.37-.16.75-.32 1.12a40.1 40.1 0 0 0-.49 1.21.35.35 0 0 0 .01.27c.15.33.6.98 1 .83.35-.12.64-.2.87-.25.74-.12 1.23.12 1.5.72.17.4.09.76-.26 1.07Zm-8.46-18.94c-.01-.09.03-.18.12-.28.37-.42.82-.53 1.35-.34.06.02.07-.09.03-.1-.78-.27-1.34-.07-1.67.6a.11.11 0 0 0 0 .12c.09.17.22.3.4.4.04.02.12-.04.06-.07-.18-.1-.27-.2-.29-.33Zm3.67-.03c-.05.06-.17.03-.24.04a.08.08 0 0 0-.08.07c0 .1.18.1.25.12.07.02.12.14.15.19.03.03.07.04.1.03a.08.08 0 0 0 .05-.1l-.06-.17c-.02-.07.06-.17.1-.22a.08.08 0 0 0-.03-.11c-.1-.06-.19.1-.24.15Zm-2.28 1.65c.06.14.03.28.1.4.07.16.19.3.34.42.04.03.05.03.04-.02a.8.8 0 0 0-.21-.3c-.04-.04-.07-.17-.1-.4-.03-.28.03-.48.2-.6.05-.02 0-.1-.04-.1a.95.95 0 0 0-.38.2c-.1.09-.14.07-.12-.06.08-.54.35-.94.8-1.21.03-.02-.02-.07-.03-.06-.77.4-1.1 1.06-.98 1.93 0 .04.01.06.04.09.08.07.21-.28.25-.31.04-.04.07-.03.1.02Zm4.04-1.1-.42-.06c-.08 0-.1.21-.03.22l.42.05c.08.01.1-.2.03-.22Zm-1.05.83-.37-.1c-.1-.02-.12.17-.02.2l.44.1c.13.04.25-.07.35-.13.06-.03.06-.07.01-.1-.09-.07-.2-.06-.33.02a.1.1 0 0 1-.08.01Zm-2.5 4.12a4.94 4.94 0 0 1-.97-1.08c0-.02-.03-.02-.05 0l-.03.01v.01c.18.29.38.57.58.84.42.55.92.6 1.68.62.37 0 .69.04.96.1.39.1.4.06.03-.09-.12-.04-.3-.08-.54-.12l-.94-.08c-.18-.01-.6-.11-.73-.2Zm3.74 1.11c.08 0 .12.01.15.02.12.09.25.15.39.2.04 0 .08.03.1.06.14.12.27.2.41.23.04.01.05 0 .04-.04a3.8 3.8 0 0 0-1.03-1.4 2.33 2.33 0 0 0-1.84-.52c-.03 0-.03.05 0 .05l.56.03c.81.07 1.3.63 1.82 1.3v.01a.03.03 0 0 1-.01.03l-.02.01a.57.57 0 0 1-.38-.16.26.26 0 0 0-.1-.06l-.71-.18c-.1-.03-.03.1 0 .14.36.32.69.66.99 1.02.02.03.02.06 0 .09a.08.08 0 0 1-.06.04h-.09c-.06 0-.07.02-.03.06l.22.21c.13.13.17.1.12-.06l-.07-.38a.2.2 0 0 0-.04-.1l-.45-.55c-.03-.03-.02-.04.03-.05Zm-1.79.65c.04.03.13.18.19.18.01 0 .02-.01.01-.03-.15-.33-.37-.52-.64-.57a6.87 6.87 0 0 0-1.23-.03l-.29-.04c-.06-.02-.08 0-.05.05.04.07.11.11.22.12.39.03.74.04 1.06.03.27 0 .55.09.73.29Z" fill="#FFBE2F"/><path d="M37.4 13.97h1.34l-.63-1.96-.7 1.96ZM36 16v-.35c.15-.03.27-.1.36-.19.09-.09.18-.25.27-.49l1.5-3.97h.78l1.46 4.05c.07.21.15.35.24.44.1.08.22.13.39.16V16h-2.38v-.35c.2-.01.35-.04.44-.09a.23.23 0 0 0 .12-.21.9.9 0 0 0-.05-.24l-.25-.8h-1.6l-.2.63v.03c-.06.16-.09.27-.09.34 0 .1.04.18.11.23.08.05.21.08.41.11V16H36ZM34 11.35h-.09a.83.83 0 0 0-.73.37 2.5 2.5 0 0 0-.32 1.17h-.31L32.6 11h3.78l.07 1.9h-.32a2.49 2.49 0 0 0-.32-1.18.83.83 0 0 0-.73-.37H35v3.73c0 .43.2.53.61.57V16H33.4v-.35c.41-.04.61-.14.61-.57v-3.73ZM29.25 11v.35c-.23.02-.38.07-.45.14-.06.07-.1.21-.1.43v1.32h1.6v-1.32c0-.22-.04-.36-.1-.43-.07-.07-.22-.12-.45-.14V11H32v.35c-.23.02-.38.07-.45.14-.07.06-.1.21-.1.43v3.16c0 .22.03.37.1.43.07.07.22.12.45.14V16h-2.25v-.35c.23-.02.38-.07.44-.14.07-.06.1-.21.1-.43v-1.45H28.7v1.45c0 .22.04.37.1.43.07.07.22.12.45.14V16H27v-.35c.23-.02.38-.07.45-.14.06-.06.1-.21.1-.43v-3.16c0-.22-.04-.36-.1-.43-.07-.07-.22-.12-.45-.14V11h2.25ZM22 16v-.35c.2-.02.34-.07.4-.14.06-.06.09-.21.09-.43v-3.16c0-.22-.03-.37-.1-.43-.05-.07-.19-.12-.39-.14V11h3.86l.08 1.68h-.32c-.07-.47-.22-.8-.44-1.02-.23-.2-.57-.31-1.01-.31-.28 0-.46.03-.54.1-.08.07-.12.23-.12.47v1.31h.24c.24 0 .42-.08.54-.24.12-.16.2-.4.22-.75h.28v2.35h-.28c-.02-.35-.1-.6-.22-.76-.12-.16-.3-.24-.54-.24h-.24v1.49c0 .25.04.4.12.47.08.07.27.1.56.1.48 0 .83-.11 1.07-.34.23-.23.37-.61.42-1.14H26L25.9 16H22ZM16.06 11.34H16v3.74c0 .23.03.38.1.44.08.07.25.11.51.13V16H15v-.35c.27-.02.43-.06.5-.13.08-.06.11-.21.11-.44v-3.16c0-.23-.03-.38-.1-.44-.08-.07-.24-.11-.51-.13V11h2.01l1.01 3.36.95-3.36H21v.35c-.27.02-.44.06-.5.13-.08.07-.12.21-.12.44v3.16c0 .23.04.38.11.44.07.07.24.11.51.13V16h-2.33v-.35c.26-.02.43-.06.5-.13.07-.06.11-.21.11-.44v-3.74h-.05L17.93 16h-.47l-1.4-4.66Z" fill="#0D176E"/></svg>