<!-- by TradingView --><svg width="56" height="56" viewBox="0 0 56 56" xmlns="http://www.w3.org/2000/svg"><path fill="#F0F3FA" d="M0 0h56v56H0z"/><path d="M45 25.95C45 19.85 40.07 15 33.63 15c-.86 0-1.72.1-2.57.21 5.9 4 10.4 12.53 10.4 18.1v.64a10.4 10.4 0 0 0 3.54-8Z" fill="#009EE0"/><path d="M11 33.1c0 7.69 6 9.9 13.73 9.9 8.26 0 16.4-3.05 16.84-8.95a12.04 12.04 0 0 1-7.83 3.06C27.4 37 22.48 32.26 22.48 25.95c0-5.16 3.64-9.48 8.68-10.74A11.24 11.24 0 0 0 24.84 13C16.36 13.1 11 25.42 11 33.1Z" fill="#00519E"/></svg>