<!-- by TradingView --><svg width="18" height="18" viewBox="0 0 18 18" xmlns="http://www.w3.org/2000/svg"><path fill="#F0F3FA" d="M0 0h18v18H0z"/><path d="m9.7 4.01 2.16.77c.11.04.16.13.13.26l-.54 2.81c-.04.19-.14.28-.31.28h-.68c-.12 0-.16-.06-.14-.19l.37-1.9c.05-.24-.04-.4-.26-.47-.22-.08-.38 0-.47.23-.38.99-.9 2.2-1.54 3.63a1.2 1.2 0 0 0-.1.87c.08.24.22.4.43.47a.7.7 0 0 0 .66-.1c.24-.17.42-.38.55-.77.04-.14 0-.2-.13-.2h-.88c-.14 0-.18-.07-.12-.2l.3-.73c.07-.15.18-.27.33-.27h2.46c.07 0 .08.07.08.14v3.63c0 .36-.2.6-.61.72l-.07.01h-5.6a.68.68 0 0 1-.5-.23.8.8 0 0 1-.22-.56V8.67c0-.1.05-.17.14-.17h2.3c.11 0 .19-.03.23-.14L9.5 4.11c.04-.1.1-.13.2-.1ZM6.21 9.7c-.06 0-.09.04-.09.1v1.83c0 .11.05.17.15.17h.96c.12 0 .16.07.12.2a2 2 0 0 0-.07.24c0 .26.1.41.33.45.22.04.37-.06.46-.3.02-.08.01-.25-.02-.53a.4.4 0 0 0-.12-.24 2.16 2.16 0 0 1-.68-1.8c0-.08-.03-.12-.1-.12h-.94Zm4.85.3c-.08-.01-.13.02-.14.1a2.54 2.54 0 0 1-.93 1.57c-.02.02-.03.04-.02.08 0 .03.03.05.06.05h.91c.12 0 .21-.06.22-.2v-1.56c0-.02-.03-.02-.04-.03h-.06Z" fill="#E20101"/></svg>