<!-- by TradingView --><svg width="56" height="56" viewBox="0 0 56 56" xmlns="http://www.w3.org/2000/svg"><path fill="#F0F3FA" d="M0 0h56v56H0z"/><path d="M4 32v-5h1.9c.89 0 1.6.74 1.6 1.5S6.79 30 5.9 30H5v2H4Zm1.9-4H5v1h.9c.4 0 .6-.22.6-.5s-.2-.5-.6-.5Z"/><path d="M11 31.97a2.5 2.5 0 0 1 .5-4.97 2.5 2.5 0 0 1 .5 4.97V30.9a1.5 1.5 0 1 0-1 0v1.06ZM35 32a2.52 2.52 0 0 1-2-2.47c0-1.4 1.12-2.53 2.5-2.53s2.5 1.13 2.5 2.53c0 1.22-.86 2.24-2 2.47v-1.09a1.5 1.5 0 1 0-1 0V32ZM42 32v-1.09a1.5 1.5 0 1 1 1 0V32c1.14-.23 2-1.25 2-2.47 0-1.4-1.12-2.53-2.5-2.53a2.51 2.51 0 0 0-2.5 2.53c0 1.22.86 2.24 2 2.47Z" fill="#54A075"/><path d="M16 32v-5h1v4h2v1h-3ZM21 29.67 19 27h1.04l1.43 2.03L22.95 27h.92L22 29.67V32h-1v-2.33ZM26.85 32l-2.08-5h.84l1.32 3 1.38-3 1.41 3 1.26-3h.81l-2.07 5-1.41-3.25L26.85 32Z"/><path fill-rule="evenodd" d="M47 27v5h1.83c1.2 0 2.17-1.03 2.17-2.3v-.4c0-1.27-.97-2.3-2.17-2.3H47Zm1 1v3h.91c.6 0 1.09-.62 1.09-1.38v-.24c0-.76-.49-1.38-1.09-1.38H48Z"/><path fill-rule="evenodd" d="M42.1 21.45a.07.07 0 0 1 .06-.03c.04 0 .06.02.04.06-.16.33-.3.61-.43.83-.18.3-.36.53-.56.72a2.1 2.1 0 0 1-1.72.6l-.52-.06c-.46-.06-.8-.09-1.04-.09a3.12 3.12 0 0 0-2.47.97c-.4.4-.7.85-.9 1.34-.07.18-.02.21.14.1.34-.27.72-.54 1.14-.83.68-.46 1.4-.57 2.16-.31.45.15.88.35 1.3.6.4.24.75.4 1.06.49.66.17 1.37.15 2.15-.07.3-.09.64-.21 1.01-.37a26.91 26.91 0 0 0 1.13-.52c.2-.1.36-.15.47-.14.16 0 .28.1.37.29l.47.94c.02.04 0 .06-.04.07l-.58.07a.06.06 0 0 0-.05.03.05.05 0 0 0 0 .06l.45.86c0 .02.02.03.04.04l.05-.01c.33-.17.54-.41.64-.72.1-.26.1-.56.02-.91a4.48 4.48 0 0 0-.92-1.68.15.15 0 0 0-.15-.05c-.2.03-.4.09-.63.17a11.38 11.38 0 0 0-.94.4c-.48.2-1 .2-1.56.02-.17-.06-.16-.08.02-.08.5 0 .97-.07 1.42-.24.05-.02.07-.06.04-.11a5.68 5.68 0 0 1-.45-1.53 3.11 3.11 0 0 1 .16-1.56l.1-.33c.01-.1.04-.11.08-.01.1.25.2.43.3.53.15.14.35.2.6.18l.92-.1a1.25 1.25 0 0 1 .97.27l.28.22c.08.06.17.1.28.12.04 0 .08 0 .11-.03.15-.11.26-.23.33-.36.08-.16.07-.31-.05-.44a17.68 17.68 0 0 0-2.37-2.24c-.03-.03-.03-.06 0-.09l.42-.43c.07-.07.05-.1-.04-.09-.95.08-1.8.18-2.56.32-.72.14-1.35.41-1.88.83-.12.09-.1.12.04.1.27-.03.53-.04.77-.03.25.02.25.06.02.13-.32.1-.64.21-.96.36-.26.13-.5.3-.72.5-.17.17-.35.4-.54.69-.12.17-.08.2.1.11.44-.22.9-.35 1.37-.4.12-.02.13 0 .03.08-.24.14-.41.26-.52.35-.17.14-.31.3-.43.47-.07.1-.04.14.08.1.3-.09.6-.11.89-.07.02 0 .03.01.03.03v.03c-.16.17-.38.28-.66.32-.23.04-.48.04-.76 0-.49-.08-.95-.15-1.38-.2a4.19 4.19 0 0 0-2.05.2c-.34.12-.65.27-.93.46-.29.2-.53.44-.72.7-.2.28-.16.31.11.12.2-.14.39-.27.59-.39.33-.19.61-.32.84-.37.31-.07.62-.06.94.04.45.15.89.31 1.32.48.52.2.98.3 1.36.29.49-.01.9-.2 1.23-.55.33-.37.7-.78 1.09-1.25Zm2.6-2.17.35.43.03.01.7.06c.02 0 .04-.01.05-.03 0-.03 0-.04-.02-.06l-.5-.36h-.02l-.53-.12c-.03 0-.04 0-.05.02-.02.02-.01.03 0 .05Zm-7.12 3.82a2.9 2.9 0 0 0-2.15.97c-.45.47-.88.88-1.3 1.2-.22.19-.48.32-.8.4a6.95 6.95 0 0 1-1.07.17c.7-.28 1.28-.74 1.71-1.37a4.3 4.3 0 0 1 1.66-1.54c.72-.33 1.46-.3 2.24.12.07.04.06.06-.02.06h-.27Zm-4.05 1.31a11.35 11.35 0 0 0-1.24.4c-.16.05-.32.08-.46.08l-1.11.02c-.9 0-1.6.34-2.08 1.02-.03.04-.02.06.03.07l.05-.01.07-.04c.3-.17.53-.29.69-.34.27-.1.51-.13.73-.08l.64.12c.52.08 1.02 0 1.52-.22.47-.2.87-.52 1.21-.94.06-.08.05-.1-.05-.08Z" fill="#54A075"/></svg>