<!-- by TradingView --><svg width="56" height="56" viewBox="0 0 56 56" xmlns="http://www.w3.org/2000/svg"><path fill="#F0F3FA" d="M0 0h56v56H0z"/><path d="M52 28c0 4.97-10.75 9-24 9S4 32.97 4 28s10.75-9 24-9 24 4.03 24 9Z" fill="url(#a)"/><path d="M27 30.5h4V32h-6v-8h2v6.5ZM34 30.5h4V32h-6v-8h2v6.5ZM20.5 24c1.93 0 3.5 1.8 3.5 4s-1.57 4-3.5 4-3.5-1.8-3.5-4 1.57-4 3.5-4Zm0 1.51c-.83 0-1.5 1.12-1.5 2.49s.67 2.49 1.5 2.49S22 29.37 22 28s-.67-2.49-1.5-2.49ZM16 29a3 3 0 0 1-3.01 3A3.03 3.03 0 0 1 10 29.5h2a1 1 0 0 0 2 0V24h2v5ZM41 26.67 42.86 24H45l-3.02 4.33V32h-2v-3.73L37 24h2.14L41 26.67Z" fill="#fff"/><defs><linearGradient id="a" x1="36.97" y1="19.78" x2="29.43" y2="35.74" gradientUnits="userSpaceOnUse"><stop stop-color="#F9FBFD"/><stop offset=".62" stop-color="#0088AB"/></linearGradient></defs></svg>