<!-- by TradingView --><svg width="56" height="56" viewBox="0 0 56 56" xmlns="http://www.w3.org/2000/svg"><path fill="#F0F3FA" d="M0 0h56v56H0z"/><path d="M21.91 26.65c.44 2.87 1.2 5.77 2.3 8.7.04.11 0 .17-.12.17-2.32.03-4.18-.05-5.6-.23a9.98 9.98 0 0 1-2.99-.86c-3.64-1.7.93-6.16 2.43-7.46a.21.21 0 0 0 .04-.06l.01-.03v-.09c-.04-.09-.1-.12-.2-.08-1.23.54-2.39 1.26-3.46 2.15a6.36 6.36 0 0 0-1.94 2.61A16 16 0 0 1 24.3 12.43a4.3 4.3 0 0 0-1.32 1.22 8.11 8.11 0 0 0-1.25 3.93A37.46 37.46 0 0 0 21.7 25a.12.12 0 0 1-.12.08l-.45-.04c-1.7-.14-4.38-.37-4.98-1.82-.52-1.24 1.34-3.18 2.16-3.96.91-.88.82-1-.28-.4-1.36.76-3.21 2.25-3.39 3.75-.37 3.27 4.66 3.95 7.05 3.84.13 0 .21.06.23.2Z" fill="#070067"/><path d="M27.27 12.02c.76.16 1.52.52 2.2 1.03a8.88 8.88 0 0 1 3.36 5.13c.02.09 0 .14-.1.17l-.08-.01a17.5 17.5 0 0 0-3.95-3.89c-1.37-.97-3.35-1.16-4.39.4-.34.52-.59 1.16-.73 1.9-.52 2.65-.6 5.37-.27 8.15 0 .09.06.12.14.11 4.57-.63 9.26-2.45 13.32-4.32.07-.03.14-.02.18.05.03.03.04.05.04.08 0 .05-.02.09-.06.12a30.66 30.66 0 0 1-13.27 5.44c-.13.02-.18.1-.16.22a57.92 57.92 0 0 0 2.1 8.71.23.23 0 0 0 .2.08c3.77-.4 7.39-1.39 10.84-2.95l6.84-3c.13-.05.2-.02.22.11a.2.2 0 0 1-.08.2 26.12 26.12 0 0 1-7.9 4.65 51.94 51.94 0 0 1-9.5 2.57.11.11 0 0 0-.05.08 51.43 51.43 0 0 0 3 6.91 16 16 0 0 0-1.9-31.94Z" fill="#008BFF"/><path d="M28.75 43.98a39.18 39.18 0 0 1-3.73-6.67c-.05-.12-.13-.17-.25-.16-2.57.23-5.04.11-7.42-.36a8.79 8.79 0 0 1-3.61-1.54 16 16 0 0 0 15 8.73Z" fill="#070067"/></svg>