<!-- by TradingView --><svg width="56" height="56" viewBox="0 0 56 56" xmlns="http://www.w3.org/2000/svg"><path fill="#F0F3FA" d="M0 0h56v56H0z"/><path d="M8.65 25.05c.08-.16.15-.16.22 0l.64 1.43c.02.06.07.09.14.08.5-.02 1 .03 1.53.16a.1.1 0 0 1 .08.08.1.1 0 0 1-.04.1l-1.15 1.08a.14.14 0 0 0-.04.14l.34 1.53c.01.04 0 .08-.04.12a.1.1 0 0 1-.13.01c-.46-.2-.9-.47-1.33-.78a.14.14 0 0 0-.17-.01l-1.37.81a.09.09 0 0 1-.1 0 .1.1 0 0 1-.04-.1l.26-1.39c0-.04 0-.07-.03-.1a.13.13 0 0 0-.1-.06 1.5 1.5 0 0 1-.79-.34 4.56 4.56 0 0 1-.6-.63.7.7 0 0 0-.51-.27.98.98 0 0 0-.56.15c-.53.29-.73.72-.62 1.28a3 3 0 0 0 .87 1.6c.4.4.92.68 1.54.86a4.76 4.76 0 0 0 3.5-.32 3.9 3.9 0 0 0 1.07-.86 2.99 2.99 0 0 0 .76-2.36 3.54 3.54 0 0 0-2.3-2.93 6.49 6.49 0 0 0-1.2-.3 24.78 24.78 0 0 0-1.53-.2.4.4 0 0 1-.28-.13.46.46 0 0 1-.09-.27.74.74 0 0 1 .22-.57c.25-.21.58-.33 1.02-.36.35-.02.74.02 1.16.13.15.03.3.12.44.25.08.07.2.2.34.39.2.26.37.43.5.5.22.13.47.15.75.06.6-.2.92-.54.96-1.03.01-.22-.03-.44-.13-.68a2.5 2.5 0 0 0-.43-.68c-1.1-1.26-2.58-1.7-4.44-1.3-1.03.22-1.81.72-2.36 1.52-.73 1.07-.8 2.12-.21 3.15.33.57.83 1 1.5 1.29a5.1 5.1 0 0 0 2 .37c.07 0 .13-.03.16-.1l.6-1.32Zm6.91 2.56c.09.14.05.2-.1.2-1.61-.04-2.43.43-2.46 1.43-.02.95.45 1.52 1.41 1.7.37.07.8.08 1.29.03.4-.05.8-.13 1.2-.25.07-.02.1-.07.1-.15-.02-.72-.02-1.51 0-2.37.01-.57-.07-1-.23-1.3-.3-.52-.8-.81-1.5-.88a4.64 4.64 0 0 0-1.82.23c-.12.03-.17.12-.16.24.04.33.12.61.23.85.05.1.12.12.22.08.43-.17.9-.21 1.4-.13.15.02.27.1.36.23l.06.1Zm.02 1.26.02.85c0 .03 0 .06-.03.08a.11.11 0 0 1-.08.03l-.44.01a.87.87 0 0 1-.51-.14c-.15-.1-.22-.21-.22-.36v-.04c0-.14.06-.26.2-.37.14-.1.31-.15.51-.16h.44a.1.1 0 0 1 .08.02.1.1 0 0 1 .03.08Zm3.96.99c-.04.26-.04.55 0 .87.03.18-.05.27-.23.27h-1.1c-.14 0-.2-.07-.2-.2v-4.55c0-.08.03-.12.1-.14.51-.06.93-.1 1.28-.1.52-.02.95.02 1.31.12.95.27 1.38.93 1.3 2-.03.3-.12.57-.26.81-.14.23-.32.41-.54.56a2.24 2.24 0 0 1-1.56.28c-.06 0-.1.02-.1.08Zm-.02-2.56v1.24c0 .03 0 .05.02.07a.1.1 0 0 0 .07.03h.15c.2 0 .37-.06.51-.19a.61.61 0 0 0 .22-.47v-.11a.61.61 0 0 0-.21-.47.73.73 0 0 0-.5-.2h-.16a.1.1 0 0 0-.07.03.1.1 0 0 0-.03.07Zm9.25-.06c.42 0 .7.15.8.42.06.1.02.15-.09.15-1.6-.06-2.43.42-2.48 1.44-.02.5.11.91.4 1.2.24.25.59.42 1.05.5a6.41 6.41 0 0 0 2.44-.22c.07-.03.11-.08.11-.16-.02-.8-.02-1.65 0-2.57.02-.98-.38-1.6-1.19-1.87-.33-.11-.71-.15-1.15-.12-.39.03-.79.1-1.2.23-.15.05-.21.16-.17.33l.18.68c.05.17.15.22.3.16.35-.12.68-.18 1-.17Zm.81 1.62.02.87a.1.1 0 0 1-.03.07.1.1 0 0 1-.07.04h-.46a.81.81 0 0 1-.5-.13c-.14-.1-.21-.22-.22-.36v-.05c0-.14.07-.26.2-.37.14-.1.3-.15.5-.16h.46a.1.1 0 0 1 .07.02.1.1 0 0 1 .03.07Zm4-1.5v3.45c0 .09-.04.14-.12.15-.43.05-.86.05-1.31 0-.1 0-.15-.06-.15-.16v-4.55c0-.07.04-.11.1-.12.91-.13 1.65-.16 2.22-.1.96.11 1.52.48 1.68 1.1.17.7.03 1.27-.45 1.7-.05.04-.05.09-.03.14l1.03 1.95v.02c-.56.07-1.13.07-1.73 0a.05.05 0 0 1-.04-.03l-.97-2.07a.13.13 0 0 1 0-.11.14.14 0 0 1 .07-.08.99.99 0 0 0 .5-.5.79.79 0 0 0-.03-.7.24.24 0 0 0-.12-.11 1.2 1.2 0 0 0-.54-.09c-.07.01-.1.05-.1.12Zm4-1.36h1.25c.1 0 .17.08.17.18v4.64c0 .1-.07.18-.17.18h-1.26a.18.18 0 0 1-.17-.18v-4.64c0-.1.08-.18.17-.18Zm4.59 1.76c.15.06.45.14.9.24.27.05.5.23.68.51.19.28.27.56.25.84-.04.44-.2.8-.48 1.06-.24.24-.57.4-1 .5a5.32 5.32 0 0 1-2.4-.15c-.1-.03-.14-.1-.11-.21l.27-.98a.13.13 0 0 1 .08-.1.15.15 0 0 1 .12 0c.48.22 1.02.29 1.62.21.13-.01.22-.08.25-.2a.19.19 0 0 0-.01-.15.2.2 0 0 0-.13-.1l-.33-.09c-.53-.14-.9-.28-1.13-.41a1.2 1.2 0 0 1-.62-.93c-.06-.55.12-1 .52-1.33.37-.3.85-.46 1.42-.47.6 0 1.15.08 1.65.24.12.04.16.12.13.24l-.27.86a.2.2 0 0 1-.12.13.21.21 0 0 1-.18 0 2.15 2.15 0 0 0-1.03-.21c-.7.06-.73.22-.08.5Zm4.6 3.05-.01-1.71c0-.06.03-.1.1-.1h1.36c.05 0 .07.03.07.07l-.02 1.74c0 .08.04.13.13.14.48.06.97.07 1.46 0 .1 0 .14-.05.14-.14v-4.6c0-.13-.07-.2-.22-.2h-1.3c-.14 0-.21.07-.21.2l.02 1.3c0 .06-.03.1-.1.1h-1.34c-.06 0-.09-.03-.09-.08v-1.35c0-.08-.04-.12-.12-.13a5.98 5.98 0 0 0-1.43-.01c-.14.01-.21.08-.21.21v4.56c0 .09.05.13.14.14.46.06.95.06 1.48 0 .1 0 .15-.05.15-.14ZM51.85 26h-1.2c-.08 0-.15.07-.15.16v4.68c0 .09.07.16.15.16h1.2c.08 0 .15-.07.15-.16v-4.68c0-.09-.07-.16-.15-.16ZM25 30.8v-3.33c0-.08.05-.12.12-.12h1.13c.14 0 .21-.07.21-.21v-.89c0-.17-.08-.25-.25-.25h-3.98c-.16 0-.23.08-.23.24v.88c0 .16.08.24.24.24l1.07-.02c.09 0 .13.05.13.13v3.34c0 .09.04.14.12.15.43.05.88.05 1.33 0 .09-.01.11-.07.11-.16Z" fill="#282561"/></svg>