<!-- by TradingView --><svg width="56" height="56" viewBox="0 0 56 56" xmlns="http://www.w3.org/2000/svg"><path fill="#A1E3FE" d="M0 0h56v56H0z"/><path d="M6.91 29.94c-1.2.2-2.01-.1-2.46-.94-.82-1.52-.52-2.78.9-3.78.8-.33 1.54-.29 2.22.12.1.06.2.05.28-.03l.18-.2c.1-.1.17-.09.2.06.03.1.07.64.13 1.6 0 .09-.03.14-.11.15h-.08a.16.16 0 0 1-.1-.1c-.38-.87-.76-1.83-1.94-1.48-1.22.37-1.3 3.16-.55 4 .13.16.33.27.59.33.73.2 1.2-.18 1.41-1.11a.47.47 0 0 0-.24-.53.45.45 0 0 0-.2-.04h-.3a.1.1 0 0 1-.07-.03.1.1 0 0 1-.03-.07v-.12c0-.06.03-.08.09-.08h2.19c.08 0 .1.03.09.11l-.03.12c-.02.06-.05.09-.11.08a.54.54 0 0 0-.34.08.25.25 0 0 0-.11.22v1.51c0 .1-.05.16-.16.16a.24.24 0 0 1-.23-.13 3.39 3.39 0 0 1-.2-.41c-.04-.13-.11-.14-.2-.04-.25.3-.52.48-.82.55ZM11.19 27.28c.51.02.8-.27.89-.87 0-.1.08-.13.2-.08l.1.03v.04l.04 2.1c0 .06-.02.1-.07.14l-.13.08c-.05.03-.09.01-.1-.05l-.22-.77a.33.33 0 0 0-.18-.22.94.94 0 0 0-.58-.09c-.1.02-.14.09-.14.2v1.64c0 .1.04.17.14.2 1.28.34 2.05-.12 2.28-1.37.03-.13.1-.14.23-.06l.07.06c.02 0 .03.02.03.05 0 .02.01.05 0 .07l-.15 1.5c0 .08-.05.12-.13.12H9.3c-.09 0-.12-.04-.1-.13l.04-.14c0-.03.03-.04.08-.03.22.05.4.02.54-.07.1-.07.14-.16.14-.28v-3.86c0-.11-.05-.18-.15-.2a1.6 1.6 0 0 0-.51-.04c-.06 0-.09-.02-.09-.08v-.12c0-.03.02-.05.05-.05h3.95c.13 0 .2.06.2.2l.15 1.41c0 .04 0 .06-.03.08l-.1.06a.11.11 0 0 1-.1 0 .1.1 0 0 1-.05-.03.11.11 0 0 1-.02-.05c-.16-1.19-.87-1.65-2.13-1.38-.12.03-.17.1-.17.23v1.53c0 .15.06.22.19.23ZM16.19 27.28c.5.02.8-.27.88-.87.01-.1.08-.13.21-.08l.1.03v.04l.04 2.1c0 .06-.02.1-.07.14l-.13.08c-.06.03-.09.01-.1-.05l-.23-.77a.33.33 0 0 0-.17-.22.94.94 0 0 0-.58-.09c-.1.02-.14.09-.14.2v1.64c0 .1.03.17.13.2 1.29.34 2.05-.12 2.29-1.37.02-.13.1-.14.22-.06l.08.06.03.05v.07l-.15 1.5c0 .08-.05.12-.13.12H14.3c-.1 0-.12-.04-.1-.13l.03-.14c0-.03.04-.04.08-.03.22.05.4.02.55-.07.1-.07.14-.16.14-.28v-3.86c0-.11-.05-.18-.15-.2a1.6 1.6 0 0 0-.52-.04c-.05 0-.08-.02-.08-.08v-.12c0-.03.01-.05.05-.05h3.95c.12 0 .2.06.2.2l.15 1.41c0 .04 0 .06-.04.08l-.1.06a.11.11 0 0 1-.1 0 .1.1 0 0 1-.06-.08c-.17-1.19-.88-1.65-2.13-1.38-.12.03-.17.1-.17.23v1.53c0 .15.05.22.19.23ZM23.46 25a.2.2 0 0 1 .15.07.23.23 0 0 1 .07.16v1.57c0 .05-.03.07-.07.07h-.1a.15.15 0 0 1-.1-.04.17.17 0 0 1-.05-.1 2.03 2.03 0 0 0-.79-1.43.33.33 0 0 0-.17-.07c-.2-.02-.4.15-.4.35v3.83c0 .17.18.32.36.3.17-.02.3.01.38.1l.02.06a.11.11 0 0 1-.04.1.1.1 0 0 1-.06.03h-2.32a.1.1 0 0 1-.06-.02.1.1 0 0 1-.04-.05.12.12 0 0 1 .02-.12c.08-.09.2-.12.38-.1.17.02.36-.13.36-.3v-3.83c0-.2-.22-.37-.42-.35a.33.33 0 0 0-.17.07c-.46.37-.72.85-.79 1.43 0 .04-.02.08-.05.1a.15.15 0 0 1-.1.05h-.09c-.05 0-.07-.02-.07-.07v-1.57a.24.24 0 0 1 .06-.17.21.21 0 0 1 .07-.05.22.22 0 0 1 .08-.02h3.94ZM30.8 26.38a.07.07 0 0 0-.07 0l-.02.03v2.74c0 .1.03.2.1.27.16.16.36.28.6.34a.1.1 0 0 1 .05.04.1.1 0 0 1 0 .12l-.08.08h-1.59c-.14-.02-.15-.11-.05-.2l.45-.33c.11-.09.17-.19.17-.3v-3c0-.6-.1-.65-.56-.98-.1-.07-.1-.12.02-.15.26-.05.58-.05.96 0 .27.04.52.21.74.52a45.17 45.17 0 0 0 2.15 2.64.06.06 0 0 0 .07-.03l.01-.04v-2.31a.36.36 0 0 0-.05-.18.35.35 0 0 0-.12-.13l-.34-.2c-.37-.21-.34-.32.1-.31h1.13c.37 0 .38.11.05.3-.1.05-.2.15-.31.29-.07.09-.11.2-.11.3v3.57c0 .64-.2.71-.6.22a818.4 818.4 0 0 1-2.5-3.14.45.45 0 0 0-.2-.16ZM38.41 25c.22 0 .23.11.03.22a.7.7 0 0 1-.22.07c-.06.01-.1.04-.14.08-.03.04-.08.1-.08.15v3.6c-.33.58-.9.87-1.66.88-.75 0-1.23-.23-1.45-.7-.27-.6.07-1.4.74-1.28.48.08.65.37.53.89a.22.22 0 0 1-.08.12.2.2 0 0 1-.13.04h-.43c-.13 0-.18.07-.16.2.12.57 1.03.53 1.36.26.16-.14.27-.39.28-.74v-3.35c0-.12-.1-.19-.22-.19h-.45a.09.09 0 0 1-.08-.08v-.13c0-.03.01-.04.04-.04h2.13ZM51.59 25c.12 0 .23 0 .33.04.08.03.1.08.06.15a.15.15 0 0 1-.08.06.36.36 0 0 1-.1.02 3 3 0 0 0-.5.08c-.12.03-.3.1-.3.2v3.86c0 .1.17.17.29.2.26.06.44.11.55.15.18.06.2.12.08.19-.1.04-.2.05-.44.05h-2.35c-.05 0-.1-.05-.12-.09a.12.12 0 0 1 0-.1 13.9 13.9 0 0 0 .71-.2c.11-.02.28-.1.28-.2v-3.88c0-.15-.2-.23-.4-.23h-.46a.14.14 0 0 1-.09-.03.1.1 0 0 1-.04-.08v-.15c0-.02.02-.04.05-.04h2.52Z" fill="#01546C"/><path fill-rule="evenodd" d="M41.76 29.93c0 .04.02.07.05.07h6.5c.12 0 .18-.12.2-.23l.16-1.49a.12.12 0 0 0-.02-.09.1.1 0 0 0-.04-.03.1.1 0 0 0-.04 0 .15.15 0 0 0-.11.04c-.11.1-.17.17-.19.22-.26 1.09-.96 1.5-2.1 1.22-.1-.02-.17-.09-.17-.19v-3.99c0-.14.1-.22.24-.22h.38a.07.07 0 0 0 .05-.02.08.08 0 0 0 .02-.05v-.1l-.01-.05a.06.06 0 0 0-.05-.02h-2.3c-.04 0-.06.03-.06.07v.12c0 .04.02.05.05.05h.47c.12 0 .21.06.21.18v3.94c0 .11-.09.2-.19.24-.85.37-1.15.16-1.48-.7-.46-1.18-1-2.43-1.62-3.76a.24.24 0 0 0-.21-.14.23.23 0 0 0-.21.14c-.36.76-.7 1.54-1.03 2.34l-.3.95c-.22.66-.6 1.27-1.17 1.57h1.65c.43-.03.44-.14.04-.3l-.27-.11c-.11-.05-.17-.12-.18-.23-.02-.25.04-.52.16-.8.05-.1.14-.14.25-.12h1.36c.1 0 .18.04.23.13l.44.77c.08.14.04.24-.12.27l-.5.1c-.06.01-.1.05-.1.11v.1Zm-.69-3.49-.6 1.4a.1.1 0 0 0 .05.14.1.1 0 0 0 .05.02h1.14a.11.11 0 0 0 .09-.04.11.11 0 0 0 .01-.1l-.53-1.41a.1.1 0 0 0-.1-.07.1.1 0 0 0-.1.06ZM24.95 29.45c-.03-.33.04-.62.18-.88a.21.21 0 0 1 .2-.12h1.42c.1 0 .16.05.22.14l.42.75c.07.13.04.21-.1.26l-.52.13c-.03 0-.06.02-.07.04a.13.13 0 0 0-.04.08c0 .07.02.14.1.15h2.16c.18-.02.19-.12.02-.19-.29-.12-.5-.32-.61-.65a55 55 0 0 0-1.7-4.03.23.23 0 0 0-.09-.1.22.22 0 0 0-.32.1 26.78 26.78 0 0 0-1.41 3.42c-.2.59-.46.96-.81 1.12-.45.2-.43.33.07.33h1.46c.03 0 .05-.02.08-.04.04-.05.05-.11.02-.18a.16.16 0 0 0-.15-.1h-.3c-.14 0-.22-.08-.23-.23Zm1.05-3-.6 1.4a.11.11 0 0 0 .02.1.1.1 0 0 0 .08.05h1.14a.1.1 0 0 0 .1-.05.11.11 0 0 0 0-.1l-.54-1.39a.1.1 0 0 0-.04-.05.1.1 0 0 0-.16.05Z" fill="#01546C"/></svg>