<!-- by TradingView --><svg width="56" height="56" viewBox="0 0 56 56" xmlns="http://www.w3.org/2000/svg"><path fill="#F0F3FA" d="M0 0h56v56H0z"/><path fill-rule="evenodd" d="M27.77 44a13.96 13.96 0 0 0 .46 0C35.53 44 40 38.5 40 38.5S35.53 33 28.23 33a15.02 15.02 0 0 0-.46 0C20.47 33 16 38.5 16 38.5S20.47 44 27.77 44Zm-1.5-6.95a5.05 5.05 0 0 0-.72-.05c-1 0-2.14.76-2.97 1.31l-.29.19c-.84.55-1.92 1.18-2.37 1.18-.44 0-.48-.15-.48-.35 0-.2.85-.8 1.37-.71-.18-.23-.6-.67-.89-.67-.36 0-.92.51-.92 1.06v.04c0 .54 0 .95 1.57.95 1.6 0 5.5-.24 7.43-2.29 1.93 2.05 5.83 2.29 7.43 2.29C37 40 37 39.59 37 39.05v-.04c0-.55-.56-1.06-.92-1.06-.3 0-.71.44-.89.67.52-.08 1.37.51 1.37.7 0 .2-.04.36-.48.36-.45 0-1.53-.63-2.37-1.18l-.29-.19c-.83-.55-1.96-1.31-2.97-1.31-.26 0-.5.02-.73.05a.5.5 0 1 1-.6.13 3.2 3.2 0 0 0-1.12.53 3.2 3.2 0 0 0-1.11-.53c.07.09.11.2.11.32a.5.5 0 1 1-.72-.45Z" fill="#F38D2B"/><path d="m12.74 24 1.7 2.42c-.36.4-1.1 1.41-1.1 2.33 0 .92.87 1.72 1.3 2 .1.44.38 1.34.76 1.34.47 0 .4-.7 0-1.34.29-.32.87-1.35.87-2.92.75 1.52 1.57 5.29-1.15 8.17A7.8 7.8 0 0 1 11 28.9c0-2.45 1.16-4.29 1.74-4.9Zm30.52 0-1.7 2.42c.36.4 1.1 1.41 1.1 2.33 0 .92-.87 1.72-1.3 2-.1.44-.38 1.34-.76 1.34-.47 0-.4-.7 0-1.34a4.63 4.63 0 0 1-.87-2.92c-.75 1.52-1.57 5.29 1.15 8.17A7.8 7.8 0 0 0 45 28.9c0-2.45-1.16-4.29-1.74-4.9Z" fill="#F38D2B"/><path d="m8 23.6.33-.62c.07-.13.15-.24.23-.33a.78.78 0 0 1 .26-.2c.1-.04.2-.05.3-.04.11.01.22.05.34.12.1.06.2.14.25.23.07.1.1.19.12.3a.9.9 0 0 1 0 .33c-.03.12-.08.24-.14.36l-.1.17 1 .58-.25.47L8 23.59Zm.69-.22.48.28.11-.21c.12-.22.1-.37-.07-.46-.16-.1-.3-.03-.42.2l-.1.2Zm2.67-.16-1.62-1.2.24-.36.2.15a.56.56 0 0 1-.07-.3.46.46 0 0 1 .24-.4l.26.39a.56.56 0 0 0-.06.04.24.24 0 0 0-.06.06c-.04.06-.04.15 0 .24.05.1.15.21.31.33l.85.62-.29.43Zm.78-1.11-1.5-1.36.32-.4 1.5 1.36-.32.4Zm-1.94-1.65a.3.3 0 0 1-.1-.23c0-.08.02-.16.07-.23a.3.3 0 0 1 .23-.12c.08 0 .16.03.23.09s.1.13.11.23c0 .09-.02.17-.08.24a.28.28 0 0 1-.22.1.35.35 0 0 1-.24-.08Zm1.18-.68.36-.36.16.17c0-.27.08-.49.25-.66.09-.1.2-.15.3-.18a.62.62 0 0 1 .36.03c-.01-.16 0-.3.03-.41.03-.12.1-.23.2-.34.17-.16.34-.24.51-.22.18.02.34.12.5.3l.9.97-.37.36-.75-.83c-.23-.25-.42-.29-.58-.12a.4.4 0 0 0-.13.33c.02.14.1.28.23.43l.68.74-.36.36-.66-.72a1.82 1.82 0 0 0-.2-.19.66.66 0 0 0-.17-.1.28.28 0 0 0-.16-.02.31.31 0 0 0-.16.1.4.4 0 0 0-.11.33c.01.13.09.28.23.43l.67.74-.36.36-1.37-1.5Zm3.32-1.75a1.27 1.27 0 0 1-.19-.4 1.11 1.11 0 0 1-.03-.4.98.98 0 0 1 .12-.37.9.9 0 0 1 .25-.29c.19-.14.41-.2.66-.15l-.13-.18.4-.3 1.16 1.68-.4.3-.12-.18a.84.84 0 0 1-.34.6.85.85 0 0 1-.34.16.9.9 0 0 1-.37 0 1 1 0 0 1-.36-.16 1.15 1.15 0 0 1-.31-.3Zm1.18-.13c.06-.05.11-.1.15-.17a.53.53 0 0 0 .07-.2c.01-.08 0-.15-.01-.23a.72.72 0 0 0-.28-.42.5.5 0 0 0-.61.01.53.53 0 0 0-.22.4c0 .07 0 .14.02.22a.73.73 0 0 0 .27.39c.07.04.13.08.2.1a.49.49 0 0 0 .41-.1Zm1.79-2.3c-.1-.2-.14-.4-.14-.6a1.45 1.45 0 0 1 .38-1.03A1.5 1.5 0 0 1 19 13.5c.22 0 .43.05.64.14l-.18.49c-.16-.07-.32-.1-.47-.11-.14 0-.29.03-.43.1a.92.92 0 0 0-.47.53 1 1 0 0 0 .03.74c.06.13.13.24.23.33.09.08.19.15.3.19a.95.95 0 0 0 .7-.05.92.92 0 0 0 .35-.3c.09-.11.16-.26.22-.44l.47.2-.14.33a1.47 1.47 0 0 1-.4.49 1.72 1.72 0 0 1-.86.34 1.28 1.28 0 0 1-.99-.37 1.6 1.6 0 0 1-.33-.5Zm2.89-.9a1.3 1.3 0 0 1-.06-.45c.01-.15.04-.28.1-.4a.94.94 0 0 1 .21-.3.82.82 0 0 1 1-.11l-.06-.22.48-.16.58 1.99-.47.15-.06-.2a.8.8 0 0 1-.5.45.83.83 0 0 1-.38.03.91.91 0 0 1-.35-.12c-.11-.07-.2-.16-.3-.27a1.2 1.2 0 0 1-.2-.4Zm1.16.26a.55.55 0 0 0 .2-.1.5.5 0 0 0 .12-.18.64.64 0 0 0 .06-.22c0-.09-.01-.17-.04-.26a.7.7 0 0 0-.1-.23.56.56 0 0 0-.17-.15.5.5 0 0 0-.42-.04.5.5 0 0 0-.32.3.6.6 0 0 0-.05.21.76.76 0 0 0 .14.47c.05.06.1.11.16.15a.5.5 0 0 0 .42.05Zm1.58-.04-.44-2.84.5-.08.25 1.64.6-.97.6-.1-.67 1.1 1.1.92-.61.1-.99-.83.15.98-.49.08Zm2.14-.34-.23-2.06.43-.05.03.26c.03-.12.08-.2.15-.26a.42.42 0 0 1 .36-.1l.09.02-.1.46a.57.57 0 0 0-.07-.02h-.08c-.08 0-.14.06-.18.16a1 1 0 0 0-.02.46l.11 1.07-.49.06Zm1.13-1.16c0-.16.01-.31.06-.45.04-.13.1-.25.2-.35a.9.9 0 0 1 .28-.23.84.84 0 0 1 1 .18l-.01-.23.5-.01.04 2.07-.5.02v-.22a.78.78 0 0 1-.6.29.83.83 0 0 1-.37-.08.95.95 0 0 1-.3-.21c-.1-.1-.16-.21-.22-.34a1.23 1.23 0 0 1-.08-.44Zm1.04.59c.08 0 .15-.02.22-.05a.49.49 0 0 0 .17-.13.62.62 0 0 0 .1-.2.73.73 0 0 0 .04-.26c0-.09-.01-.17-.04-.25a.58.58 0 0 0-.12-.18.52.52 0 0 0-.78.02.59.59 0 0 0-.1.2.75.75 0 0 0-.03.24c0 .09.01.17.04.25.03.07.07.14.12.19a.51.51 0 0 0 .38.17Zm1.55-1.68.48.05.26 1.3.56-1.2.3.04.28 1.27.53-1.17.49.06-.95 1.97-.31-.03-.28-1.31-.57 1.2-.31-.04-.48-2.14Zm3.01 1.42c.04-.16.1-.3.18-.41.08-.12.17-.21.28-.29a.84.84 0 0 1 .71-.12c.23.06.4.21.54.44l.05-.22.48.13-.5 2.01-.48-.13.05-.21a.78.78 0 0 1-.66.1.85.85 0 0 1-.32-.17.98.98 0 0 1-.24-.3c-.06-.11-.1-.24-.12-.39-.02-.14 0-.29.03-.44Zm.86.86c.07.02.14.03.21.02a.47.47 0 0 0 .2-.08.6.6 0 0 0 .16-.16.71.71 0 0 0 .1-.23.72.72 0 0 0 .02-.26.6.6 0 0 0-.06-.21.54.54 0 0 0-.56-.28.5.5 0 0 0-.2.08c-.06.04-.1.1-.15.16a.75.75 0 0 0-.11.47c0 .08.02.16.06.22a.53.53 0 0 0 .33.27Zm2.6-1.77-.81 2.75-.48-.16.81-2.74.48.15Zm-.1 1.9c.06-.15.13-.28.23-.39.1-.1.2-.18.3-.24a.87.87 0 0 1 .73-.01c.22.1.38.26.47.5l.09-.2.46.2-.76 1.91-.46-.2.08-.2a.78.78 0 0 1-.67 0 .87.87 0 0 1-.3-.2 1 1 0 0 1-.2-.33 1.23 1.23 0 0 1 .02-.84Zm.73.98c.07.03.14.04.21.04.08 0 .14-.01.2-.04a.59.59 0 0 0 .19-.14.7.7 0 0 0 .13-.22.71.71 0 0 0 .05-.25.6.6 0 0 0-.03-.22.55.55 0 0 0-.52-.36.5.5 0 0 0-.2.06.56.56 0 0 0-.18.13.75.75 0 0 0-.18.45c0 .09.02.16.04.23a.54.54 0 0 0 .29.32Zm4.28-.36.43.3-.6 2.94-.44-.3.13-.6-.93-.64-.47.37-.45-.3 2.33-1.77Zm-.98 1.37.62.42.23-1.08-.85.66Zm2.83-.14.37.34-.64.78c.25-.02.47.05.65.21a.98.98 0 0 1 .3.68c0 .14-.02.27-.06.4a1.23 1.23 0 0 1-.56.67 1 1 0 0 1-.37.12.9.9 0 0 1-.9-.5c-.05-.1-.07-.22-.08-.35l-.14.16-.38-.34 1.8-2.17Zm-.77 2.55a.5.5 0 0 0 .4.13c.07 0 .14-.03.2-.07.07-.03.13-.09.19-.15.05-.07.1-.14.12-.21a.58.58 0 0 0 0-.44.54.54 0 0 0-.14-.19.54.54 0 0 0-.2-.11.5.5 0 0 0-.4.04.7.7 0 0 0-.31.38.56.56 0 0 0 .15.62Zm1.45.54c.1-.1.23-.2.35-.25a.97.97 0 0 1 .38-.08.87.87 0 0 1 .67.29c.16.18.24.4.23.67l.16-.16.34.38-1.44 1.43-.34-.38.15-.15a.9.9 0 0 1-.33-.07.92.92 0 0 1-.47-.54 1.03 1.03 0 0 1-.05-.38c0-.13.03-.26.1-.4.05-.13.13-.25.25-.36Zm.28 1.21c.05.06.11.1.18.14.06.03.13.04.2.04s.15-.02.22-.05a.67.67 0 0 0 .2-.14.68.68 0 0 0 .15-.2.57.57 0 0 0-.28-.77.49.49 0 0 0-.42.01.72.72 0 0 0-.34.34.56.56 0 0 0 .08.63Zm1.45.82c.13-.1.26-.16.39-.2a.97.97 0 0 1 .38-.02.88.88 0 0 1 .62.4c.14.2.18.43.14.69l.8-.6.29.43-2.25 1.66-.29-.43.17-.12a.9.9 0 0 1-.31-.12.93.93 0 0 1-.4-.6 1.03 1.03 0 0 1 .16-.77c.08-.12.17-.23.3-.32Zm.11 1.24c.05.07.1.12.16.16.06.04.13.07.2.08.07 0 .14 0 .22-.02a.66.66 0 0 0 .22-.1.67.67 0 0 0 .17-.19.59.59 0 0 0 .09-.42.58.58 0 0 0-.26-.38.5.5 0 0 0-.41-.05.7.7 0 0 0-.38.28.56.56 0 0 0 0 .64Zm.49 1.6 1.73-1.02.24.45L45.64 25l-.24-.45Zm2.14-1.35a.27.27 0 0 1 .23-.02c.09.02.15.08.19.16.04.08.05.16.02.25a.34.34 0 0 1-.15.2.3.3 0 0 1-.24.04.3.3 0 0 1-.2-.16.32.32 0 0 1-.02-.26.37.37 0 0 1 .17-.2Z" fill="#838483"/></svg>