<!-- by TradingView --><svg width="18" height="18" viewBox="0 0 18 18" xmlns="http://www.w3.org/2000/svg"><path fill="#F0F3FA" d="M0 0h18v18H0z"/><path d="M9.14 14.12v-.01a4.6 4.6 0 0 1-2.65-.69A4.92 4.92 0 0 1 4 8.77c.05-.74.24-1.46.57-2.17a5.27 5.27 0 0 1 3.96-3.03c.73-.12 1.46-.09 2.19.1.07.01.11.05.13.1.03.07.01.12-.04.18 0 .02-.02.02-.03.03h-.04a8.3 8.3 0 0 0-1.35-.12A21.23 21.23 0 0 0 8.35 4a4.68 4.68 0 0 0-.68.22l.7-.13c.17-.03.3-.05.37-.04h.29A5.04 5.04 0 0 1 14 9.22a5.53 5.53 0 0 1-1.3 3.44 5.03 5.03 0 0 1-2.52 1.63 5.55 5.55 0 0 1-1.61.2 4.6 4.6 0 0 1-1.22-.15c-.13-.04-.16-.13-.1-.26.01-.04.04-.05.1-.05l.66.1a3.56 3.56 0 0 0 1.13 0Z" fill="#383336"/><path d="M13.89 9.08a4.99 4.99 0 0 1-3 4.55 4.8 4.8 0 0 1-5.3-1.07 4.96 4.96 0 0 1 0-6.97 4.83 4.83 0 0 1 6.87 0 4.96 4.96 0 0 1 1.43 3.49Z" fill="#F0F3FA"/><path d="m4.77 10.54.17.15v.04l.01.02a4.45 4.45 0 0 0 4.17 2.77l.15-.01.11-.01.2-.01a4.38 4.38 0 0 0 3.1-1.93 4.46 4.46 0 0 0-1.1-6.11c-.27-.2-.55-.35-.86-.45a2.99 2.99 0 0 0-.88-.3 4.3 4.3 0 0 0-3.64.97 4.43 4.43 0 0 0-1.45 2.38l-.01.01-.12.16a4.51 4.51 0 0 1 3.44-3.58 4.34 4.34 0 0 1 3.1.44A4.37 4.37 0 0 1 13.1 7.2a4.5 4.5 0 0 1-.44 4.53 4.52 4.52 0 0 1-3.75 1.89 4.55 4.55 0 0 1-4.14-3.07Z" fill="#383336"/><path d="M10.72 5c.58.51.89 1.15.91 1.9-.32.2-.57.48-.72.83a5.12 5.12 0 0 0-.38 1.07h-.04c-.18.11-.38.2-.58.25 0-.06-.02-.1-.08-.1a7.65 7.65 0 0 0-.41.01l-.01.02-.04.12c-.16.02-.32 0-.49-.07-.11-.1-.27-.12-.47-.08l-.03.02a.13.13 0 0 0-.01.11l-.62.16c.16-.12.29-.27.38-.45.1-.2.14-.38.13-.57a.89.89 0 0 0-.3-.66.89.89 0 0 0-.6-.19H6.15a1.82 1.82 0 0 0-1.39.67v-.02A4.43 4.43 0 0 1 9.84 4.7c.32.06.62.16.88.3Z" fill="#85C4E3"/><path d="M13.42 8.7v.57a4.46 4.46 0 0 1-5.07 4.2c-.2-.03-.43-.09-.7-.18a2.32 2.32 0 0 1-1.21-2.1h.26a.04.04 0 0 0 .02-.03v-.96l.4-.5.52 1.46.02.02.02.01h.93l.03-.01V9.62h.01V9.6h.02l.3 1.15c.02.05.05.07.11.07h.03c.06 0 .1-.03.12-.1a17.04 17.04 0 0 1 .34-1.12v.13a228.64 228.64 0 0 1 .02 1.44H9.88v-.02l.03-2.11c.2-.06.4-.14.58-.24h.04v.03c-.05.28-.1.58-.12.91a32.42 32.42 0 0 0-.06 2.97l.25-.04h.01a56 56 0 0 1 .03-1.85c.01-.4.07-.78.16-1.12a3.06 3.06 0 0 1 1.3-1.8c.19-.14.31-.25.38-.34a.46.46 0 0 0 .06-.48.48.48 0 0 0-.4-.32.76.76 0 0 0-.5.13 2.54 2.54 0 0 0-.92-1.9c.3.1.6.25.86.45a4.52 4.52 0 0 1 1.84 3.26Z" fill="#00A859"/><path d="m8.53 5.92.02.01.2.26c.11.13.14.26.08.38a.3.3 0 0 1-.29.2.3.3 0 0 1-.3-.2c-.05-.12-.03-.25.08-.38a16.58 16.58 0 0 1 .21-.27ZM9.22 6.72l.04.02c0 .02.03.04.05.07.22.25.33.44.34.57 0 .12-.03.23-.12.33a.4.4 0 0 1-.3.13.4.4 0 0 1-.32-.13.42.42 0 0 1-.11-.33c0-.13.12-.32.33-.57a6.2 6.2 0 0 0 .09-.1Z" fill="#F0F3FA"/><path d="m7.75 9.24-.1.07a.06.06 0 0 0-.02.07l.69 1.72.01.01h.05v-.03l-.01-2a.13.13 0 0 1 .01-.11l.03-.02c.2-.04.36-.01.47.08a122.52 122.52 0 0 1 .26.96.01.01 0 0 0 .01 0l.22-.89.04-.12v-.02H9.83c.06 0 .1.03.1.09l-.03 2.11v.02H9.57v-.02a228.64 228.64 0 0 0-.03-1.56c-.13.38-.23.75-.32 1.13-.02.07-.06.1-.12.1h-.03c-.06 0-.1-.03-.1-.07a30.42 30.42 0 0 0-.33-1.15v1.54l-.01.03-.03.01H7.66l-.02-.03-.52-1.45-.08-.23-.02-.02h-.28l-.01.01v.73l-.01.96a.04.04 0 0 1-.01.02.04.04 0 0 1-.03.02h-.24c-.11 0-.21 0-.3-.02a933.52 933.52 0 0 0 0-3.8c.4-.01.82-.02 1.23-.01.24 0 .44.07.58.2.19.15.29.37.3.65.02.19-.03.38-.12.57-.1.18-.22.33-.38.45Z" fill="#383336"/><path d="M6.71 7.8s0-.02.02-.03H7.03a.67.67 0 0 1 .46.17.62.62 0 0 1 .19.44.6.6 0 0 1-.2.44.66.66 0 0 1-.45.18h-.28A.04.04 0 0 1 6.72 9a.04.04 0 0 1-.01-.03V7.8ZM4.74 8.06v.04a6.14 6.14 0 0 0-.1 1.1 4.23 4.23 0 0 0 .3 1.5l-.17-.16a1.97 1.97 0 0 1-.15-2.32l.12-.16Z" fill="#85C4E3"/><path d="m9.37 9.1-.21.88V10h-.02a.01.01 0 0 1-.01 0 122.65 122.65 0 0 0-.25-.96c.17.07.33.09.5.07ZM8.37 9.08l.01 2v.02l-.02.02h-.03l-.01-.02-.7-1.73a.06.06 0 0 1 .03-.06l.1-.07.62-.16Z" fill="#00A859"/><path d="m7.12 9.7-.4.5v-.73l.01-.01H7.02l.02.02.08.23Z" fill="#85C4E3"/><path d="M10.89 12.71h-.04a.05.05 0 0 1-.03 0 .05.05 0 0 1-.02-.04c0-.73.02-1.24.05-1.55.03-.34.09-.65.19-.92.06-.17.15-.3.26-.43.14-.15.28-.22.43-.23.15 0 .24.07.27.2.03.15-.02.25-.15.33-.55.34-.84.84-.87 1.5a19.93 19.93 0 0 0-.05 1.12.07.07 0 0 1-.04.02Z" fill="#F0F3FA"/><path d="M6.15 11.18c.08.02.18.02.29.01a2.32 2.32 0 0 0 1.21 2.1 4.45 4.45 0 0 1-2.7-2.56h.01l.03.01c.33.28.72.42 1.16.44Z" fill="#85C4E3"/><path d="M5.58 13.66v.01a1.58 1.58 0 0 1-.72-.43 1.16 1.16 0 0 1-.33-.77c0-.1.04-.16.13-.2.05-.02.1-.02.17.02.06.03.1.07.14.12v.26c0 .23.06.44.2.63a1.84 1.84 0 0 0 .41.36ZM6.79 14.17a1.5 1.5 0 0 1-1.05-.45c-.12-.12-.19-.23-.2-.34-.01-.14.05-.22.19-.26h.03c.06.01.11.04.15.09.03.02.04.07.06.15v.05c.07.3.26.52.57.64a2.65 2.65 0 0 0 .22.08l.03.02v.02Z" fill="#A7AAAC"/></svg>