<!-- by TradingView --><svg width="18" height="18" viewBox="0 0 18 18" xmlns="http://www.w3.org/2000/svg"><path fill="#F0F3FA" d="M0 0h18v18H0z"/><path d="M7.12 3C5.74 3.54 3 5.45 3 8.77c0 4.15 3.06 6.82 7.48 6.12-2.17-.12-6.5-1.5-6.5-6.12C3.9 7.6 4.43 4.78 7.12 3Zm5.1 1.17c-1.06-.49-3.67-1-5.53.92-2.33 2.4-2.1 5.72.76 7.9-1.15-1.34-2.8-4.67-.22-7.33a5.29 5.29 0 0 1 5-1.49Zm-1.12.81C13.35 5 14.64 6.93 15 7.9a4.58 4.58 0 0 0-3.9-2.23c-3.12 0-4.07 3.05-4.15 4.58-.47-3.12 1.34-5.28 4.15-5.27Zm2.5 7.64c.5-.81 1.52-2.71.28-4.43C12.4 6.18 9.7 6.22 8 8.54c1.13-.79 3.7-2.25 5.44.13.48.58.77 1.81.16 3.95Z" fill="#0065CB"/><path d="M11 8.78a1 1 0 0 0 .6-.56l.55.45c-.23.3-.9.9-1.65.9-.75 0-1.4-.6-1.63-.9l.51-.45c.06.16.25.42.62.56V8h1v.78Zm0 3.44a1 1 0 0 1 .6.56l.55-.45c-.23-.3-.9-.9-1.65-.9-.75 0-1.4.6-1.63.9l.51.45c.06-.16.25-.42.62-.56V13h1v-.78ZM8.22 9.46c.15.05.38.22.52.54H8v1h.8c-.13.42-.41.64-.58.7l.45.52c.3-.23.88-.89.88-1.65 0-.76-.59-1.42-.88-1.66l-.45.55Zm4.04.54a.98.98 0 0 1 .52-.54l-.45-.55c-.3.24-.88.9-.88 1.66 0 .76.59 1.42.88 1.65l.45-.52a1.05 1.05 0 0 1-.57-.7H13v-1h-.74Zm-1.76 1.21a.71.71 0 1 0 0-1.42.71.71 0 0 0 0 1.42Z" fill="#FF5924"/></svg>