<!-- by TradingView --><svg width="56" height="56" viewBox="0 0 56 56" xmlns="http://www.w3.org/2000/svg"><path fill="#F0F3FA" d="M0 0h56v56H0z"/><path d="M34.6 11.82a.52.52 0 0 1-.41-.17.11.11 0 0 1-.03-.1v-.06c.01-.07-.02-.1-.09-.1-1 .03-1.97.17-2.9.43a.57.57 0 0 0-.4 0c-.05.02-.09 0-.13-.04-.05-.05-.05-.1 0-.15a.94.94 0 0 1 .7-.25c.07 0 .13 0 .2-.04.21-.12.45-.17.71-.16a.3.3 0 0 0 .18-.05c.1-.06.18-.1.24-.1.65-.04 1.29-.04 1.92 0a.26.26 0 0 1 .25.26l-.03.12-.22.4Z" fill="#587D64"/><path d="M35.83 12.3c.18-.17.39-.31.63-.43.1-.05.18-.06.24-.04.07.04.11.13.11.27l-.05-.05c-.02-.02-.05-.02-.07 0l-.27.31a.12.12 0 0 0-.02.1.11.11 0 0 0 .07.08c.4.15.67.3.83.46.42.43.84 1.01 1.25 1.75.59 1.98 1.82 8.17-7.24 6.97-.27.02-.59-.04-.96-.18-.86-.31-1.33-.49-1.4-.53-1.53-.98-2.16-2.5-2.1-4.28.03-1.02.38-2.14 1.23-2.76.57-.4 1.14-.67 1.74-.79.4-.08 1.17-.18 2.31-.3a.33.33 0 0 0 .3-.33c0-.05-.02-.1-.05-.15l-.24-.42a.11.11 0 0 1 .04-.16.11.11 0 0 1 .06-.01h.8c.04 0 .07.01.1.04.03.02.05.05.05.09.06.37-.02.78.4 1 .17.1.5.1 1 0a3 3 0 0 0 1.24-.64Z" fill="#194D35"/><path d="M36.82 12.23v-.13c.03.04.03.08 0 .13Z" fill="#587D64"/><path d="m42.58 26.97-7.16.03a.42.42 0 0 0-.42.42v.56c0 .23.2.42.42.42l7.16-.03c.24 0 .42-.18.42-.41v-.57a.42.42 0 0 0-.42-.42ZM42.58 24.56l-7.16.03A.42.42 0 0 0 35 25v.57c0 .23.19.43.42.43h7.16c.23 0 .42-.23.42-.46v-.56a.42.42 0 0 0-.42-.42ZM42.58 21.97l-7.16.03a.42.42 0 0 0-.42.42v.56c0 .23.2.42.42.42l7.16-.03c.24 0 .42-.18.42-.41v-.57a.42.42 0 0 0-.42-.42ZM42.58 19.58l-7.16.02a.42.42 0 0 0-.42.42v.57c0 .23.2.41.42.41l7.16-.02c.24 0 .42-.2.42-.42v-.57a.42.42 0 0 0-.42-.41ZM42.58 16.97l-7.16.03a.42.42 0 0 0-.42.42v.56c0 .23.2.42.42.42l7.16-.03c.24 0 .42-.18.42-.41v-.57a.42.42 0 0 0-.42-.42ZM40.79 14.99h-3.58c-.12.01-.2.2-.2.43v.56c0 .23.09.42.2.42l3.58-.01c.12 0 .21-.2.21-.42v-.57c0-.23-.1-.41-.21-.41Z" fill="#AF2423"/><path d="M43 37.64c0 .22-.17.36-.41.36h-7.32c-.1 0-.27-.06-.27-.17v-1.07c0-.07 0-.1.07-.13l.06-.01h5.59a.3.3 0 0 0 .2-.08.25.25 0 0 0 .08-.2V34.5c0-.15-.15-.19-.28-.19h-5.56a.16.16 0 0 1-.11-.04.14.14 0 0 1-.05-.1v-4.87c0-.08.03-.15.09-.2a.3.3 0 0 1 .2-.09h7.3c.27 0 .4.13.4.38v.73c0 .26-.13.4-.42.4H37.2c-.06 0-.1.02-.15.05-.03.04-.04.08-.04.13v2.1c0 .05 0 .1.05.14.04.04.1.07.16.07h5.55c.06 0 .12.02.17.06.04.04.07.1.07.16v4.42ZM21.21 38c-.12-.01-.22-.18-.2-.3v-1.09a.16.16 0 0 0-.05-.09.15.15 0 0 0-.08-.04h-3.21c-.2 0-.37.06-.64.36l-4.9 5.97a.35.35 0 0 1-.12.14.32.32 0 0 1-.18.05H10.1a.1.1 0 0 1-.06-.02.1.1 0 0 1-.03-.04.1.1 0 0 1 .01-.11l11.55-13.77c.05-.04.1-.06.16-.06h1.13c.04 0 .08.02.1.04.03.03.04.06.04.1v8.44c0 .26-.09.4-.33.42H21.2ZM21 32.24c0-.02 0-.05-.02-.06a.11.11 0 0 0-.05-.05.1.1 0 0 0-.07 0 .1.1 0 0 0-.05.03l-1.75 2.4a.12.12 0 0 0-.02.13l.04.04a.1.1 0 0 0 .06.02h1.75a.1.1 0 0 0 .07-.03c.02-.02.04-.05.04-.08v-2.4ZM33 37.8c-.17.14-.34.22-.52.2H31.3l-4.15-5.61c-.1-.13-.12-.12-.14.04v5.21c0 .15-.15.36-.32.36h-1.43c-.17 0-.25-.08-.25-.24v-8.63c0-.09.05-.13.14-.13h1.51c.04 0 .08 0 .12.03l.1.07 3.83 5.28c.21.2.3.15.3-.13v-4.87c0-.2.12-.38.33-.38h1.4c.17 0 .27.14.27.3v8.5Z"/><path d="M17.8 39h24.8c.25 0 .4.18.4.45v1.19c0 .24-.13.36-.36.36H17.8a.92.92 0 0 0-.37.17L16.24 43h-2.11c-.1 0-.12-.05-.07-.14.73-1.26 1.67-2.34 2.4-3.59.29-.29.97-.27 1.34-.27Z" fill="#AF2423"/></svg>