<!-- by TradingView --><svg width="56" height="56" viewBox="0 0 56 56" xmlns="http://www.w3.org/2000/svg"><path fill="#F0F3FA" d="M0 0h56v56H0z"/><path d="M30.2 20.18a1.05 1.05 0 0 0-.86-.6 1.95 1.95 0 0 0-.56.02c-.24.04-.49.1-.76.2l-.73.3c-.47.22-.96.44-1.46.65-.47.21-.95.4-1.41.56-.79.27-1.52.4-2.2.42a5.3 5.3 0 0 1-1.7-.24 7.2 7.2 0 0 1-2.2-1.16.83.83 0 0 1-.17-.19l.26.1.21.11a8.26 8.26 0 0 0 2.04.6 6.87 6.87 0 0 0 3.37-.31c.45-.15.9-.32 1.35-.51l1.3-.55c.32-.14.62-.25.9-.33.32-.1.63-.17.93-.22.4-.06.77-.03 1.11.09a4.79 4.79 0 0 1 .45.18l.45.18c.25.09.5.15.78.2.22.02.46.06.72.1.32.06.63.15.92.28a1.86 1.86 0 0 1 .78.6h-.46c-.3 0-.51 0-.66.02a3.22 3.22 0 0 0-1.92.86c-.19.16-.38.34-.58.54-.18.17-.36.33-.55.47-.38.3-.8.5-1.26.6-.53.14-1.14.18-1.82.12a18.34 18.34 0 0 1-3.89-.9 585.13 585.13 0 0 1-.56-.2l.62-.06a3.82 3.82 0 0 0 1.17-.23c.35-.11.74-.26 1.16-.45.3-.13.69-.3 1.15-.52l.24-.12.87-.4c.3-.14.59-.25.86-.34.26-.1.52-.15.78-.19.35-.04.66-.01.91.1.05.01.12.05.21.1a878.2 878.2 0 0 0 .22.12Z" fill="#2E3192"/><path d="M30.12 22.48a3.7 3.7 0 0 1-.72.69c-.27.19-.57.37-.9.54-.48.25-1 .42-1.55.52-.96.16-2.05.14-3.27-.07-.89-.16-1.86-.4-2.92-.74a63.67 63.67 0 0 1-3.32-1.16c-.88-.32-1.7-.6-2.48-.85-.66-.2-1.3-.38-1.94-.53-.98-.23-1.89-.36-2.72-.4a8.48 8.48 0 0 0-1.8.14l-.33.1a5.26 5.26 0 0 1-.5.11l.55-.25c.59-.24 1.2-.4 1.83-.46.73-.07 1.47-.06 2.24.03.47.05.9.12 1.32.2.63.13 1.27.29 1.91.47.74.22 1.5.45 2.27.72l2.3.79 2.04.66c.62.18 1.23.34 1.85.48.49.1.98.18 1.47.24.72.08 1.38.07 2.01-.01a5.06 5.06 0 0 0 2.03-.74l.31-.24a3.75 3.75 0 0 1 .32-.24Z" fill="#F5821F"/><path d="M6.86 25.34a4.31 4.31 0 0 0-1.2 1.58 8.2 8.2 0 0 0-.66 2.2 11.16 11.16 0 0 1 .6-2.82 5.7 5.7 0 0 1 1.38-1.95 5.3 5.3 0 0 1 2.4-1.14c.62-.14 1.31-.21 2.07-.23.57-.01 1.15 0 1.75.05.72.05 1.45.13 2.19.25a100 100 0 0 1 3.64.61l.7.12c.43.08 1.02.17 1.75.28.77.12 1.52.2 2.27.27a17.35 17.35 0 0 0 2.8 0 6.38 6.38 0 0 0 1.94-.5 2.9 2.9 0 0 0 .73-.44 3.59 3.59 0 0 1 .39-.27.6.6 0 0 1-.08.11l-.2.2a5.79 5.79 0 0 1-2.17 1.17c-.81.24-1.73.38-2.74.42-1.1.04-2.33-.01-3.68-.17-.78-.09-1.54-.2-2.26-.3-1.06-.17-1.85-.3-2.37-.37-.4-.06-.94-.14-1.62-.22a24.9 24.9 0 0 0-2.53-.2c-.43 0-.88.01-1.35.05-.9.06-1.7.24-2.42.52-.5.2-.94.45-1.33.78Z" fill="#2E3192"/><path d="M7.9 28.34a.75.75 0 0 1 .2-.43.78.78 0 0 1 .27-.19 1 1 0 0 1 .33-.07c.19-.01.35 0 .5.05.16.04.3.1.4.16a22.66 22.66 0 0 1 .4.2c.05 0 .08-.03.09-.08.03-.13.03-.28.01-.44a.28.28 0 0 0-.13-.22 2.24 2.24 0 0 0-1.73-.24c-.25.07-.46.18-.64.33-.18.17-.31.37-.39.62-.05.15-.07.33-.07.52 0 .36.1.68.31.93.12.15.25.27.38.36.17.11.31.2.43.26l.7.34c.19.1.33.2.44.32.14.14.23.3.25.49a.98.98 0 0 1-.12.62c-.1.18-.26.3-.47.38-.16.06-.31.09-.47.09-.21 0-.4-.03-.57-.08-.26-.08-.5-.2-.73-.35a.37.37 0 0 0-.12-.06c-.1-.02-.14.04-.16.19-.02.13-.01.24 0 .34.02.08.06.15.12.2.07.06.16.12.28.17a2.65 2.65 0 0 0 1.94.11 1.56 1.56 0 0 0 1.03-1.15c.04-.15.05-.32.05-.5a1.42 1.42 0 0 0-.31-.87 1.7 1.7 0 0 0-.38-.36 4.7 4.7 0 0 0-.85-.45 19.34 19.34 0 0 1-.54-.3c-.18-.13-.3-.26-.38-.42a.84.84 0 0 1-.07-.47Zm3.84 1.88a1318.46 1318.46 0 0 1 2.52 0v2.6c0 .04 0 .07.02.09a.1.1 0 0 0 .07.05c.19.05.38.05.56 0 .06-.01.09-.05.09-.1a29563.2 29563.2 0 0 1-.01-5.76.1.1 0 0 0-.07-.06 1.1 1.1 0 0 0-.54-.01.17.17 0 0 0-.09.04c-.02.02-.03.04-.03.08a937.05 937.05 0 0 0 0 2.38 344.17 344.17 0 0 1-2.52-.01v-2.37c0-.03-.01-.06-.03-.08a.18.18 0 0 0-.09-.04 1.1 1.1 0 0 0-.54 0 .1.1 0 0 0-.07.07l-.01.09v5.66c0 .06.03.1.09.11.19.05.37.05.56 0a.1.1 0 0 0 .07-.05.2.2 0 0 0 .02-.09v-2.6Zm9-.45c0 .01 0 .01 0 0l2-2.66c.06-.09.24-.12.52-.1a.7.7 0 0 1 .18.03c.07.02.1.08.07.18a.6.6 0 0 1-.1.2 536.35 536.35 0 0 1-1.86 2.37c.1.16.77 1.1 1.98 2.82l.1.18c.02.09 0 .14-.08.17a.59.59 0 0 1-.15.03c-.16.02-.3.01-.43-.01a.25.25 0 0 1-.13-.06.84.84 0 0 1-.1-.13v-.01l-1.99-2.89v2.97c0 .04-.03.07-.08.1a1.19 1.19 0 0 1-.58.01.12.12 0 0 1-.08-.07 6710.33 6710.33 0 0 1-.01-5.76.1.1 0 0 1 .06-.1.42.42 0 0 1 .13-.03c.15-.02.29-.01.43.02.07.01.11.05.12.1v2.64Zm7.52-.24a344.5 344.5 0 0 1-2.52-.01v-2.37c0-.03-.01-.06-.03-.08a.17.17 0 0 0-.09-.04 1.1 1.1 0 0 0-.54 0 .1.1 0 0 0-.07.07l-.01.09v5.66c0 .06.03.1.09.11.19.05.37.05.56 0a.1.1 0 0 0 .07-.05.2.2 0 0 0 .02-.09v-2.6a1054.37 1054.37 0 0 1 2.52 0v2.6c0 .04 0 .07.02.09a.1.1 0 0 0 .07.05c.19.05.38.05.56 0 .06-.01.09-.05.09-.1v-5.67l-.01-.1a.1.1 0 0 0-.07-.05 1.1 1.1 0 0 0-.54-.01.18.18 0 0 0-.09.04c-.02.02-.03.04-.03.08a887.7 887.7 0 0 0 0 2.38Zm5.4 1.88h-2.4l-.47 1.42c-.03.1-.1.14-.2.16h-.31c-.06 0-.13 0-.2-.02-.05-.01-.08-.05-.08-.11l.03-.16 1.93-5.45v-.02a.59.59 0 0 1 .06-.14.2.2 0 0 1 .13-.07l.22-.02a5.4 5.4 0 0 1 .5.03c.07.02.12.06.14.13l1.96 5.54.03.18c-.01.06-.06.1-.14.1-.17.03-.34.02-.53 0a.17.17 0 0 1-.11-.05 289.38 289.38 0 0 0-.55-1.52Zm-2.2-.64v.01h2l.01-.01-1-2.94h-.02l-.99 2.94Zm8.66 1.36a3742.33 3742.33 0 0 1-1.24-4.97c-.02-.08-.07-.13-.16-.14-.1-.02-.18-.02-.27-.02h-.01c-.11 0-.2.01-.24.03-.05.02-.1.06-.1.13l-1.15 4.97c0 .01 0 .01 0 0a1607.81 1607.81 0 0 0-1.25-5.08.22.22 0 0 0-.1-.04h-.35l-.16.01c-.06.02-.09.06-.09.1a3683.5 3683.5 0 0 0 1.47 5.76c.04.06.11.1.23.1a3.15 3.15 0 0 0 .56 0 .18.18 0 0 0 .16-.16l1.03-4.5c0-.02.01-.02.01 0l1.11 4.45.04.11c.02.04.05.06.08.07l.13.04a2.52 2.52 0 0 0 .57-.02c.1-.02.15-.08.17-.17A13619.27 13619.27 0 0 0 42 27.18c0-.09-.02-.14-.08-.15a1.84 1.84 0 0 0-.47-.01c-.07 0-.11.03-.13.07a.46.46 0 0 0-.03.09l-1.17 4.95Zm5.56-.71-.01-.01h-2.4l-.48 1.42c-.03.1-.1.14-.2.16h-.31c-.06 0-.13 0-.2-.02-.05-.01-.08-.05-.08-.11l.03-.16 1.93-5.45v-.02a.59.59 0 0 1 .06-.14.2.2 0 0 1 .13-.07l.22-.02a5.4 5.4 0 0 1 .5.03c.07.02.12.06.14.13l1.96 5.54.03.18c-.01.06-.06.1-.14.1-.17.03-.34.02-.53 0a.17.17 0 0 1-.11-.05 289.38 289.38 0 0 0-.54-1.5Zm-2.22-.65v.01h2l.01-.01-1-2.94h-.01l-1 2.94Zm8.54 2.1v-5.75a.13.13 0 0 0-.1-.09 1.08 1.08 0 0 0-.39-.02.43.43 0 0 0-.15.04c-.04.02-.06.05-.06.08a37574.28 37574.28 0 0 0 .02 5.79c.01.02.04.04.06.04a1 1 0 0 0 .53 0 .12.12 0 0 0 .09-.08Zm-35.27-.53a683.68 683.68 0 0 0 2.18.01c.05.04.08.1.09.22.01.24-.02.38-.1.42a.23.23 0 0 1-.08.01h-2.56a.27.27 0 0 1-.13-.04c-.09-.05-.13-.15-.13-.3a5909.96 5909.96 0 0 0 0-5.41c.01-.08.04-.14.1-.18.04-.05.1-.07.17-.07h2.57c.03 0 .05.02.08.06l.03.1c.02.09.02.17.01.26 0 .12-.03.2-.08.23a.2.2 0 0 1-.1.01h-2.06V29.54h1.78c.05 0 .09.02.11.05l.05.12v.32c-.02.1-.06.16-.14.16a974.22 974.22 0 0 1-1.8 0v2.14ZM50.3 27a2489.14 2489.14 0 0 0-3.86 0c-.08 0-.13.07-.15.22 0 .14 0 .26.03.36.02.06.06.1.13.1a460.23 460.23 0 0 1 1.55 0 11149.64 11149.64 0 0 1 .02 5.24c.02.02.04.04.08.05.08.02.17.03.27.03s.2-.01.27-.03a.14.14 0 0 0 .08-.05 10181.74 10181.74 0 0 1 .03-5.25h1.55c.06 0 .1-.03.13-.1.02-.09.03-.2.02-.35-.01-.15-.06-.22-.15-.22Z" fill="#2E3192"/></svg>