<!-- by TradingView --><svg width="56" height="56" viewBox="0 0 56 56" xmlns="http://www.w3.org/2000/svg"><path fill="#F0F3FA" d="M0 0h56v56H0z"/><path d="M20.1 39H39c-1.68-2-6.9-6-14.29-6-7.38 0-12.88 4-14.71 6h8.87c3.14-1.77 7.8-4.4 10.3-4.92a3.7 3.7 0 0 1 2.19.53h-2.2c-.66.04-3.38.99-9.07 4.39Z" fill="url(#aqpo01ibh)"/><path d="M16.65 34.63h10.03l1.56-.3c.33-.1.64-.2.92-.25h.4l1.08-.2A20.18 20.18 0 0 0 24.7 33c-3.05 0-5.78.68-8.06 1.63Z" fill="#0079C0"/><path d="M23.09 24.14c3.17-4.7 4.64-10.72 4.98-13.14 1.05 2.16 1.88 8.05-1.42 13.14A19.94 19.94 0 0 1 13.72 33c3.56-1.9 5.4-2.98 9.37-8.86Z" fill="url(#bqpo01ibh)"/><path d="M22.61 24.1c2.24-3.34 4.63-10.09 5.46-13.1C23.99 17.03 15.15 29.82 13 33c3.98-2.03 6.62-4.44 9.61-8.9Z" fill="url(#cqpo01ibh)"/><path d="M31.94 29.3C29.09 24.67 30 18.5 30.8 16c.55 2.33 1.58 7.3 3.8 11.86 2.77 5.69 7.77 9.77 10.77 11.14-3.61-.84-9.88-3.91-13.43-9.7Z" fill="url(#dqpo01ibh)"/><path d="m32.07 22.69-1.68-2.81v2.2l1.68.6Z" fill="#00B1CC"/><path d="M36.07 29.41c-2.56-4.39-4.54-10.74-5.21-13.37 4.4 6.6 13.58 20.44 15.14 22.94a27.3 27.3 0 0 1-9.93-9.57Z" fill="url(#eqpo01ibh)"/><path d="M32.34 21.98c.57 1.87 1.3 3.91 2.26 5.88 2.77 5.69 7.77 9.77 10.77 11.14a23.41 23.41 0 0 1-9.35-4.95 38.9 38.9 0 0 1-3.69-12.07Z" fill="url(#fqpo01ibh)"/><defs><linearGradient id="aqpo01ibh" x1="10" y1="36" x2="39" y2="36" gradientUnits="userSpaceOnUse"><stop stop-color="#0083C9"/><stop offset=".73" stop-color="#00D6FB"/><stop offset="1" stop-color="#00BEF1"/></linearGradient><linearGradient id="bqpo01ibh" x1="28.22" y1="10.98" x2="13.77" y2="33.33" gradientUnits="userSpaceOnUse"><stop stop-color="#00DEFC"/><stop offset="1" stop-color="#0799DA"/></linearGradient><linearGradient id="cqpo01ibh" x1="27.59" y1="10.98" x2="13.55" y2="33.31" gradientUnits="userSpaceOnUse"><stop stop-color="#007CF1"/><stop offset="1" stop-color="#60BBEF"/></linearGradient><linearGradient id="dqpo01ibh" x1="30" y1="16" x2="45.51" y2="38.9" gradientUnits="userSpaceOnUse"><stop stop-color="#00E0FC"/><stop offset=".58" stop-color="#00C1F8"/></linearGradient><linearGradient id="eqpo01ibh" x1="30.23" y1="16.04" x2="46.05" y2="38.93" gradientUnits="userSpaceOnUse"><stop stop-color="#007CF1"/><stop offset="1" stop-color="#60BBEF"/></linearGradient><linearGradient id="fqpo01ibh" x1="31.97" y1="21.99" x2="45.48" y2="38.91" gradientUnits="userSpaceOnUse"><stop stop-color="#00A8CD"/><stop offset="1" stop-color="#007EB4"/></linearGradient></defs></svg>