<!-- by TradingView --><svg width="18" height="18" viewBox="0 0 18 18" xmlns="http://www.w3.org/2000/svg"><path fill="#F0F3FA" d="M0 0h18v18H0z"/><path d="M4.54 6.5A2 2 0 0 1 6.5 8.54v1.42A2 2 0 0 1 4.54 12H3V6.5h1.54ZM11 12H9.46l-.74-4.72L7.94 12H6.5l2.22-5.5L11 12Zm2-3.47.66-2.03H15V12h-1V8.27l-1 2.71-1-2.7V12h-1V6.5h1.34L13 8.53Zm-9 2.4c.83 0 1.5-.3 1.5-.88V8.5c0-.57-.67-.92-1.5-.92v3.36Z" fill="#153753"/><path d="M6.5 9.77v.34c.73-.8 2.98-2.72 5.8-4.11-3.1 1.22-5.2 3.02-5.8 3.77Z" fill="#912F2C"/></svg>