<!-- by TradingView --><svg width="56" height="56" viewBox="0 0 56 56" xmlns="http://www.w3.org/2000/svg"><path fill="#F0F3FA" d="M0 0h56v56H0z"/><path d="M27.76 18.6a.57.57 0 0 0-.4.44.22.22 0 0 1-.28.15c-.23-.07-.38-.46-.43-.66-.01-.05 0-.1.03-.14.13-.15.3-.27.5-.35.24-.1.45-.06.63.12.16.17.22.34-.05.44ZM26.5 23.49c-.04.13-.32.18-.62.1-.3-.08-.52-.25-.48-.38.04-.14.31-.18.61-.1.3.07.52.24.48.38ZM26.53 24.06c-.01.11-.29.18-.62.16-.33-.03-.6-.14-.59-.25.01-.11.29-.18.62-.16.33.03.6.14.59.25ZM26.41 24.76c.02.17-.24.32-.56.34-.33.02-.6-.1-.61-.26-.02-.16.24-.31.56-.33.33-.03.6.09.61.25ZM29.64 23.1h-.01l-1.22.38h-.01l-.01.02v.01c.04.1.14.18.27.2.14.04.3.03.47-.02l.04-.01c.16-.05.3-.14.4-.25.09-.1.12-.21.09-.31v-.01l-.02-.02ZM29.66 24.17c0 .14-.24.27-.56.3-.32.02-.58-.08-.59-.22-.01-.13.24-.26.55-.29.32-.02.59.08.6.21ZM29.52 24.74l-.91.02c-.05 0-.06.04-.06.08 0 .22.23.35.43.35.25-.01.62-.05.6-.38 0-.03-.01-.07-.06-.07Z" fill="#DC241A"/><path fill-rule="evenodd" d="M9.25 26.27c1.94-.57 3.9-1.05 5.87-1.44.42-.39.22-1.13.77-1.55.4-.3.34-.8.7-1.12.37-.33 1.12-.55 1.57-.18.32.27.82.25 1.16.04.64-.4 1.41-.37 2.05.05.21.15.3.1.25-.15-.05-.24-.07-.5.06-.72.12-.2.24-.4.26-.63.11-1.03-.12-2.07-1-2.72-.33-.24-.67-.49-.67-.94 0-.77.5-1.35 1.31-1.38.88-.03 1.43.65 2.49.5a6.96 6.96 0 0 0 1.81-.52c1.02-.44 1.9-.3 2.92.08.85.32 1.94.17 2.63-.3.91-.64 2.32-.19 2.06 1.1-.22 1.04-.4 2.02-.56 2.95-.06.34-.03.64.07.99.13.48.2.96.2 1.45 0 .1.07.17.17.18.09 0 .18-.06.26-.1.51-.22 1.06-.47 1.63-.3.43.14.87.21 1.32.24 1.31.08 1.59.76 1.95 1.64.13.32.27.64.42.95a81.7 81.7 0 0 1 7.8 1.88c4.33 1.28 4.33 7.75 0 9.03a66.35 66.35 0 0 1-37.5 0c-4.33-1.28-4.33-7.75 0-9.03Zm6.87-.63c.32-.35-.1-.4-.35-.47-2.14.4-4.27.91-6.38 1.53a4.11 4.11 0 0 0-2.92 4.08c0 1.8 1 3.52 2.92 4.08a65.87 65.87 0 0 0 37.22 0 4.11 4.11 0 0 0 2.92-4.08c0-1.78-1-3.51-2.92-4.08a66.27 66.27 0 0 0-7.34-1.7c.16.26.31.47.47.61 2.04.35 4.07.79 6.08 1.32A4.04 4.04 0 0 1 49 30.78c0 1.66-1.12 3.31-3.18 3.86A69.84 69.84 0 0 1 28 37c-6 0-12-.82-17.82-2.36A4.04 4.04 0 0 1 7 30.78c0-1.65 1.12-3.3 3.18-3.85 1.96-.52 3.94-.95 5.94-1.3Zm15.65-5.15c-.07.14-.49.64-.44.79.03.1.33 1.24.4 1.1l.6-1.2c.05-.12-.44-.64-.56-.69Zm-9.2 1.5c.05-.3.1-.61.18-.94.02-.07.1-.12.17-.11.66.1.9.6.85 1.23-.05.66-.08 1.37-.07 2.15 0 .1-.11.15-.19.1-.3-.25-1-2.07-.94-2.43Zm15.23 3.33c.1.1.2.2.3.26.14.07.35-.03.3-.2l-.29-1.25c-.1-.46-.3-.95-.6-1.32-.27-.35-.82-.29-1.21-.26-.32.01-.58-.13-.83-.3a1 1 0 0 0-1.2.02c-.2.14-.44.2-.72.2a.37.37 0 0 0-.25.08.35.35 0 0 0-.12.22.93.93 0 0 1-.11.33c-.13.22-.72.25-.95.36-.28.14-.69.35-.84.58a.15.15 0 0 0 0 .15c.1.16.23.27.4.33.18.07.21.37.22.52 0 .12.14.2.25.13.14-.08.28-.18.4-.3s.31-.08.37.07c.12.33.61.76 1.01.5.1-.06.5-.47.62-.3.11.19.25.34.42.45.18.12.44.03.49-.17.04-.17.08-.33.1-.49.04-.16.23-.25.38-.2.05.03.08.06.09.11.1.46.25 1 .74 1.18.18.07.4-.06.4-.26v-.44c0-.45.49-.16.63 0Zm-19.96-.55c-.1.17-.23.57-.48.59-.34 0-.4-.43-.42-.67 0-.1-.13-.16-.22-.11-.09.04-.61.28-.64.07-.06-.39.06-.77.37-1.01.45-.36.3-1.46 1.19-1.2.15.04.3.16.44.28.23.19.46.38.75.25.32-.14.65-.31.99-.5a.5.5 0 0 1 .32-.03l1.54.49c.18.05.31.17.4.34.1.2-.15.48-.05.74.1.29.05.57.09.87.05.43-.1.51-.47.25-.25-.18-.5-.34-.74-.47a.12.12 0 0 0-.13 0c-.23.15-.26.49-.29.76-.02.23-.25.56-.46.2-.1-.2-.36-.94-.68-.8-.24.1-.34.56-.4.84-.04.17-.14.36-.36.3-.42-.14-.36-.85-.23-1.18.1-.28-.44-.15-.52-.01Zm12.8-7.02c-.2.4-.62 1.2-1.11.79-.14-.12-.14-.31-.13-.5v-.23c-.07-.44-.66-.3-.7.1l-.02.28c-.03.45-.06.85-.32 1.29-.2.31.23.89.2 1.22-.03.3-.01.6.07.9.1.4-.05.65-.46.75-.6.14-1.76.2-1.46-.79.2-.67.29-1.28.26-1.81-.03-.44-.5-.68-.9-.83a.3.3 0 0 1-.18-.26c-.02-.35-.11-.64-.28-.9a.3.3 0 0 1-.02-.32c.2-.36.52-.5.61-.94.07-.29.13-.57.52-.64.67-.13 1.22.2 1.52.77.21.4.6.52 1.05.57.43.05.59-.43.34-.72-.08-.08-.02-.22.1-.23.4-.03.83-.12 1.27-.27.28-.1.34-.03.17.2-.23.33-.3.86.24.92.4.05 1.16.37.93.87-.02.04-.32.86-.5.57a5.87 5.87 0 0 1-.12-.2c-.18-.3-.77-1.17-1.07-.6Zm-6.78 1.3c.02.34.03.67.02 1-.01.37.18.65.38.92.23.31.45.62.36 1.08-.05.2-.07.42-.07.65 0 .57 0 1.11.02 1.61 0 .44.26.96.8 1.02.1 0 .21.03.32.06.28.06.56.12.82-.01.38-.2.59-.53.63-1 .08-.79-.18-1.27-.78-1.43-.7-.18-.64-1.17-.43-1.65.1-.25.14-.52.09-.8a.29.29 0 0 0-.22-.24c-.36-.1-1.55-.47-1.75-.82-.13-.23.35-.44.5-.52.32-.18.65-.77.55-1.13-.05-.18-.39-.25-.54-.33a.28.28 0 0 1-.08-.46l.31-.29c.13-.11.1-.2-.06-.24-.19-.05-.84.16-1.03.2-.3.06-.63-.04-.92-.14-.07-.02-.14-.05-.2 0-.23.2-.33.5-.14.76.42.58.45 1.54.45 2.23 0 .09.19.23.2.12 0-.3.06-.57.16-.8.15-.4.59-.08.6.21Zm6.1 3c.48.5.81 1.12.6 1.77-.05.14-.08.29-.1.44-.07.34-.13.68-.39.92-.35.33-1.04.29-1.41.08-.61-.34-.52-.96-.4-1.53a.86.86 0 0 1 .26-.48c.27-.25.51-.5.73-.75.46-.53-.24-1.8.1-2.67a.24.24 0 0 1 .1-.12l1.19-.73c.08-.05.2-.02.25.06.3.46.07.7-.16.95-.15.15-.3.3-.32.51-.06.37-.12.67-.43.93-.19.16-.2.45-.03.62Z" fill="#DC241A"/><path d="M18 33h-1v-5h2.52c.82.04 1.48.74 1.48 1.6 0 .7-.46 1.3-1.09 1.5L21 33h-1.19l-1.48-2.58h.9c.4 0 .77-.33.77-.75 0-.32-.23-.56-.5-.67H18v4ZM27 28h1.12l1.3 3.49L30.61 28h.78l1.19 3.49 1.3-3.49H35l-1.84 5h-1.17L31 30.15 30.01 33h-1.17L27 28ZM36 28v5h4v-1h-3v-1h2.54v-1H37v-1h3v-1h-4ZM42 28h-1v5h4v-1h-3v-4ZM11 30.5c0-1.45 1.3-2.5 2.7-2.5.81 0 1.62.36 2.14 1l-.85.6c-.34-.43-.76-.6-1.28-.6-.84 0-1.71.65-1.71 1.5 0 .86.88 1.5 1.71 1.5.5 0 .95-.17 1.29-.58V31h-1v-1h2v1.8c-.52.77-1.4 1.2-2.3 1.2-1.4 0-2.7-1.05-2.7-2.5ZM24.5 33a2.51 2.51 0 0 1-2.5-2.5c0-1.36 1.13-2.5 2.5-2.5 1.36 0 2.5 1.14 2.5 2.5 0 1.37-1.13 2.5-2.5 2.5Zm0-4c-.88 0-1.5.74-1.5 1.5a1.5 1.5 0 1 0 1.5-1.5Z" fill="#F0F3FA"/></svg>