<!-- by TradingView --><svg width="18" height="18" viewBox="0 0 18 18" xmlns="http://www.w3.org/2000/svg"><path fill="#F0F3FA" d="M0 0h18v18H0z"/><path d="M9.19 7.81h.02l.07.05a.02.02 0 0 1 0 .04v.01a.1.1 0 0 1-.05.05h-.05l-.01-.01-.02-.02V7.9a.1.1 0 0 1 0-.03l.01-.03.01-.02h.02ZM8.84 7.32a.77.77 0 0 1 .46-.02.07.07 0 0 1 .05.08.05.05 0 0 1-.02.04.05.05 0 0 1-.04 0c-.03 0-.06.01-.08.05l-.04.03c-.1.02-.14 0-.16-.06a.05.05 0 0 0-.05-.03c-.07 0-.11-.02-.13-.04a.03.03 0 0 1 0-.05Z" fill="#DC0209"/><path d="M13 5.86c.23-.1.46-.14.72-.12l.08.08c-.08.22-.25.26-.44.38l-.01.02v.02c.13.24-.07.32-.24.42a.03.03 0 0 0 0 .04l.02.03a.1.1 0 0 1 0 .17l-.36.25a.03.03 0 0 0 0 .04l.02.03c.08.1.05.19-.06.24a.04.04 0 0 0-.02.02v.03l.06.08.01.04c0 .03-.02.07-.06.1a.03.03 0 0 0 0 .03l.06.04.03.03c.03.06.01.12-.05.17a.04.04 0 0 0 0 .04v.02c.1.1.1.21-.04.31a.04.04 0 0 0-.01.02.04.04 0 0 0 0 .03c.12.15.05.24-.07.33a.04.04 0 0 0-.02.04c.02.11-.03.18-.14.22a.03.03 0 0 0-.01.02v.02l.03.04c.06.07 0 .16-.07.17a16.99 16.99 0 0 1-.11.04v.01c.06.12.03.27-.13.25a.03.03 0 0 0-.03.02v.02l.03.1v.03c-.05.09-.13.12-.23.1a.03.03 0 0 0-.02.01.03.03 0 0 0-.01.02c.01.13-.03.2-.14.19-.04 0-.05-.03-.08-.04h-.02a.02.02 0 0 0 0 .03c.01.17-.1.31-.28.2a.02.02 0 0 0-.02 0 .02.02 0 0 0-.01.02c-.02.12-.12.2-.23.13a.2.2 0 0 0-.04-.02h-.03l-.02.02c-.06.12-.16.13-.28.04a.03.03 0 0 0-.05 0c-.08.1-.19.13-.32.06h-.02a.03.03 0 0 0-.01.02v.03a.08.08 0 0 0 .06.07c.28.08.67.22.67.57 0 .03.03.08.09.15l.03.02.4.1h.04c.02 0 .03-.02.03-.04.05-.13.1-.25.28-.2.09.01.14.04.18.07.05.06.16.01.16-.07 0-.23 0-.38.1-.59a2.36 2.36 0 0 0 .2-.5h.03a.04.04 0 0 1 .04.01.6.6 0 0 1 .1.26.1.1 0 0 0 .1.09l.35-.02a.08.08 0 0 1 .07.03.08.08 0 0 1 0 .08l-.22.38v.02a.05.05 0 0 0 .02.05c.14.07.49.23.56.4a.05.05 0 0 1-.03.06l-.5.12h-.04c-.22-.15-.4-.29-.68-.14l-.01.01a.03.03 0 0 0 0 .04c.09.1.18.31.08.42-.03.04-.09.06-.15.05h-.02c-.03 0-.03.07-.03.1l-.03.05c-.07.06-.17.07-.28.04h-.04l-.07.04a.15.15 0 0 1-.07.03c-.27.01-.25-.24-.25-.44l-.01-.02-.02-.01-.29-.08h-.02c-.19.08-.34.11-.45.1-.25 0-.5-.1-.75-.28a.04.04 0 0 0-.05 0l-.11.09a.04.04 0 0 0-.02.04c.05.14.08.22.1.23.17.23.34.47.51.74.08.11.1.32-.13.26a.02.02 0 0 0-.02.01v.01c0 .14-.06.35-.24.26h-.02a.03.03 0 0 0-.02 0v.02c-.01.06 0 .13-.03.18-.05.08-.11.1-.2.05l-.07-.04a.03.03 0 0 0-.02 0 .03.03 0 0 0-.02.02c-.04.26-.24.26-.36.07a.02.02 0 0 0-.02 0h-.01c-.1.2-.37.28-.45.03a.01.01 0 0 0-.01-.01H8.8c-.05.1-.09.18-.19.18-.08 0-.14-.06-.17-.16v-.01h-.02a.02.02 0 0 0-.01 0c-.08.12-.21.13-.27-.02a.55.55 0 0 1-.05-.19h-.01l-.01-.01h-.01c-.03 0-.08.05-.14.04-.13-.05-.14-.21-.13-.34v-.01a.02.02 0 0 0-.03 0l-.04.02a.06.06 0 0 1-.03 0c-.2 0-.18-.18-.14-.31 0-.02.02-.04.03-.05l.36-.47c.05-.06.14-.14.28-.25a.21.21 0 0 0 .08-.14l.03-.19c0-.06-.07-.1-.11-.05-.23.2-.49.32-.8.35-.1.01-.26-.02-.45-.1h-.05l-.28.07a.03.03 0 0 0-.02.03l-.02.22c-.03.22-.17.26-.34.18a.32.32 0 0 0-.18-.02c-.13.02-.21-.03-.23-.17a.03.03 0 0 0-.04-.03c-.18.03-.2-.12-.17-.25a.04.04 0 0 0-.03-.05h-.01c-.14.02-.3.03-.45.03-.2 0-.27-.2-.37-.38a.89.89 0 0 0-.14-.14.22.22 0 0 0-.06-.04 1.1 1.1 0 0 1-.4-.24.03.03 0 0 1 0-.04.03.03 0 0 1 .03-.01c.3.07.25-.24.25-.4v-.02h.01l.01-.01h.01l.33.1c.2.03.26-.18.34-.3a.28.28 0 0 1 .08-.13h.02a.05.05 0 0 1 .06.03l.08.34a.1.1 0 0 0 .06.07.1.1 0 0 0 .09-.01c.1-.09.2-.14.28-.17a.05.05 0 0 1 .07.07 3.78 3.78 0 0 0-.1.82.3.3 0 0 0 .1.1h.04a.4.4 0 0 1 .23-.14c.15-.04.24.05.27.2a.08.08 0 0 0 .09.05l.37-.1a.21.21 0 0 0 .15-.19c0-.16.09-.28.24-.37a2.2 2.2 0 0 1 .53-.23l.02-.12h-.01c-.2.12-.33.11-.4-.02a.03.03 0 0 0-.02 0H7.4c-.14.1-.24.1-.3-.04l-.02-.02h-.03l-.03.03c-.11.06-.21-.01-.23-.12a.03.03 0 0 0-.03-.03h-.01c-.2.1-.27-.04-.27-.21a.02.02 0 0 0 0-.02.02.02 0 0 0-.02 0c-.12.07-.28 0-.22-.14a.03.03 0 0 0 0-.03.03.03 0 0 0-.04-.01c-.14.04-.3-.1-.2-.23a.03.03 0 0 0 .01-.02.03.03 0 0 0-.01-.02h-.06c-.13 0-.15-.15-.1-.25a.03.03 0 0 0 0-.03h-.01l-.1-.02c-.1-.03-.12-.1-.05-.18a.07.07 0 0 0 .01-.03V9.1c0-.01 0-.02-.02-.02-.1-.05-.15-.13-.13-.23a.04.04 0 0 0-.02-.04c-.12-.07-.17-.2-.08-.31.01-.02.02-.03.01-.04v-.02c-.14-.1-.15-.21-.05-.32a.04.04 0 0 0 0-.05c-.09-.09-.08-.16.03-.24a.03.03 0 0 0 0-.04c-.07-.07-.06-.14.02-.21a.02.02 0 0 0 0-.04c-.15-.09-.17-.18-.06-.27a.04.04 0 0 0 0-.05v-.01l-.33-.23C5 6.94 4.98 6.9 5 6.84c0-.03.04-.05.06-.08a.03.03 0 0 0 0-.02v-.02h-.01c-.16-.06-.38-.22-.22-.41a.02.02 0 0 0 0-.02.02.02 0 0 0-.01-.02c-.16-.1-.37-.16-.45-.36a.09.09 0 0 1 .08-.12 1.43 1.43 0 0 1 .82.2c.41.16.7.24.9.43.32.29.64.54.97.77.06.05.12.12.2.22.15.2.16.36.1.58a.1.1 0 0 1-.04.05c-.11.09-.16.19-.14.31.02.18-.09.44.16.54.03 0 .09.04.17.1.04.02.11.04.22.03A.03.03 0 0 0 7.84 9v-.22a.02.02 0 0 1 .02-.02h.16c.02 0 .03 0 .05-.02.08-.07.13-.13.16-.17.15-.19.33-.36.57-.52.03-.03.06-.08.08-.17a.03.03 0 0 0-.02-.04c-.1-.02-.15-.16-.22-.22-.14-.12-.28-.14-.41-.07a.03.03 0 0 1-.04-.02c-.06-.27.16-.4.4-.36h.04c.42-.22 1.05-.24 1.18.32.06.28-.1.6 0 .86.05.12.18.34.32.4.06.02.16 0 .23 0a.03.03 0 0 1 .03.04v.48a.02.02 0 0 0 0 .01.03.03 0 0 0 .02.02h.01l.1-.03a.2.2 0 0 0 .04-.02 16.3 16.3 0 0 1 .4-.22V9a.8.8 0 0 0 .27-.27.29.29 0 0 0 .04-.18V8.4l.02-.2v-.11a4.6 4.6 0 0 1-.08-.5c0-.08.02-.15.08-.22.04-.04.08-.07.1-.13.08-.17.25-.26.36-.43.08-.12.15-.19.19-.21l.1-.06 1.05-.5.28-.1c.04 0 .05.05.03.07h-.01a9.72 9.72 0 0 0-1.22.6l.05.03h.04c.44-.2.88-.41 1.3-.66a.36.36 0 0 0 .1-.1c.02-.01.03-.02.03-.04v-.02a1.65 1.65 0 0 0-.4.04 1.29 1.29 0 0 0-.36.14 6.08 6.08 0 0 1-.6.25.82.82 0 0 0-.2.11l-.63.53-.32.23-.02.02c-.13.1-.24.2-.32.34a.36.36 0 0 0-.05.23 1.23 1.23 0 0 0 .03.2c.02.03.07.05.1.1l.02.03a.8.8 0 0 1 .06.12v.04a6 6 0 0 0 0 .4.64.64 0 0 1-.1.22c-.06.09-.27.18-.38.21a.5.5 0 0 1-.12.02v-.07l.41-.19.03-.02c.12-.18.06-.36.08-.54l-.01-.06a.38.38 0 0 0-.13-.18.14.14 0 0 1-.06-.08c-.04-.18-.04-.32 0-.4.09-.17.21-.32.37-.43.32-.23.56-.44 1-.8a50.43 50.43 0 0 0 .91-.42ZM8.93 12.2H8.9l-.02.03-.04.23-.08.6c0 .05-.1.06-.1 0 .02-.14.04-.3.08-.45v-.11h-.01l-.16.7c0 .03-.03.08-.07.15v.05l.06.12a.08.08 0 0 0 .06.03h.03l.03-.02a.54.54 0 0 0 .1-.2v-.05c0-.16.01-.3.04-.44l.1-.47.04-.14a.02.02 0 0 0-.02-.03h-.02Zm.2.2H9.1v.02l-.03.7c0 .05-.07.07-.09.02v-.02l.02-.68c-.08.22-.13.45-.14.7 0 .1 0 .48.22.4.06-.03.11-.1.15-.2a.1.1 0 0 0 0-.05l-.1-.83-.01-.05h-.01Zm.26.16-.05-.07.12.59c0 .04-.09.01-.1-.02l-.08-.45h-.02v.01l.07.58c0 .12.05.2.13.27a.07.07 0 0 0 .11-.02.48.48 0 0 0 .04-.2v-.02l-.22-.67Zm-.76-.37-.13.27-.2.53-.03.04c-.1.12-.1.27-.02.43a.05.05 0 0 0 .05.02h.02c.04-.05.08-.11.12-.2.1-.25.17-.53.2-.83l-.23.6h-.01c-.03.03-.08 0-.07-.04l.3-.8v-.01Zm.8-.08v.01l.3.77v.01c0 .03-.05.05-.07.03v-.01l-.23-.56.02.13.18.55c.04.12.1.22.2.28a.06.06 0 0 0 .09-.01V13c-.15-.23-.3-.54-.45-.9h-.04Zm-1.47.7a.3.3 0 0 0-.07.2v.1a.09.09 0 0 0 .1.08c.02 0 .04 0 .05-.02.18-.15.26-.45.36-.68l.01-.05h-.01l-.2.32v.01c-.03.02-.09 0-.08-.04v-.02a.8.8 0 0 0 .16-.28l-.32.38Zm1.74-.42v.01a2.4 2.4 0 0 0 .4.68.07.07 0 0 0 .08-.04c.02-.04.03-.1.03-.19a.06.06 0 0 0-.03-.05c-.14-.1-.25-.27-.33-.38h-.01a.01.01 0 0 0-.01 0l.17.31c.02.03-.02.09-.06.06h-.01l-.22-.4Zm-1.35-.49c-.24.2-.45.44-.63.7-.05.09-.1.12-.08.24 0 .05.06.05.1.04a5.58 5.58 0 0 0 .77-.91c0-.03-.04-.04-.05-.02l-.52.58c-.04.03-.08-.04-.05-.07l.47-.53v-.02Zm1.47-.03-.06.05v.02l.44.56c.03.04-.05.08-.08.05L9.69 12l-.01.01v.01c.18.28.34.5.47.64.07.07.14.11.22.12.03 0 .04-.02.04-.04a59.8 59.8 0 0 0-.59-.87H9.8Zm-2.94-.33-.4.09h-.02v.02a.41.41 0 0 1-.16.2.02.02 0 0 0 0 .02.02.02 0 0 0 0 .02c.04 0 .03.07-.02.18a.1.1 0 0 0 .1.13h.04a.12.12 0 0 0 .12-.12v-.28a.05.05 0 0 1 .04-.04l.3-.07v-.01l.01-.02v-.11a.02.02 0 0 0 0-.01h-.01Zm1.57.06a.03.03 0 0 0-.03.02c-.03.12 0 .2.09.24h.04c.02-.01.07-.02.07.02l-.01.1c.04 0 .07-.01.09-.04 0-.01 0-.02.02-.02.02-.01.05 0 .05.04v.06c-.02.05.01.1.05.1h.05c.07-.03.15-.02.22.04l.05-.07a.03.03 0 0 1 .04 0l.08.06c.02.02.06.01.07 0v-.13c0-.03.04-.05.06-.04l.14.06c.03.02.06 0 .07-.03v-.03l-.02-.08a.03.03 0 0 1 .03-.04c.05 0 .1-.02.17-.05l.01-.02v-.02l-.03-.1a.02.02 0 0 0-.03 0 1.4 1.4 0 0 1-1.28-.07Zm-2.22.27c-.14-.04-.23.02-.27.2 0 .03.01.06.04.08h.18v-.02c0-.06.03-.14.07-.23v-.01a.02.02 0 0 0-.02-.02Zm5.07-.38a.02.02 0 0 0-.01.01v.08a.03.03 0 0 0 .02.03c.11.05.21.07.3.08a.03.03 0 0 1 .03.03c.01.11 0 .27.03.37l.05.05h.09c.14-.03.1-.15.05-.24a.08.08 0 0 1 0-.08h.01l.01-.01a.03.03 0 0 1 .03 0h.01c.05.09.07.15.07.21-.02.1.1.07.16.07l.03-.01a.08.08 0 0 0 .04-.1c-.04-.15-.12-.21-.24-.19-.13.03-.26-.13-.26-.23v-.01h-.02l-.4-.06Zm-5.54.32h-.01a.1.1 0 0 0-.02.07c.01.08.12.12.18.05v-.01l-.15-.11Zm6.67-.07-.14.11v.01a.1.1 0 0 0 .13.02.1.1 0 0 0 .01-.14Zm-6.53-.18h-.01l-.08.1a.05.05 0 0 0 0 .06c.03.05.08.08.13.11a.06.06 0 0 0 .07 0 .06.06 0 0 0 0-.07l-.09-.2h-.02Zm.43.05a.69.69 0 0 1-.26.02.02.02 0 0 0-.01.03c.04.06.1.1.16.12a.07.07 0 0 0 .06-.02.38.38 0 0 0 .08-.1c.01-.02 0-.04-.01-.05h-.02Zm5.95-.12a.02.02 0 0 0-.02.01l-.1.19v.03c0 .04.05.06.09.05.05-.03.1-.07.13-.11a.05.05 0 0 0 0-.07l-.08-.1h-.02Zm-4.46-.75c-.17.05-.57.2-.63.35-.06.18 0 .3.16.38.04.02.02.08-.03.07a.26.26 0 0 1-.2-.15.02.02 0 0 0-.01 0l-.11.12a.11.11 0 0 0 .03.17.89.89 0 0 0 .81-.02.02.02 0 0 0 0-.03.61.61 0 0 1-.2-.16.07.07 0 0 1-.01-.03c0-.03.01-.08.05-.06l.01.01c.06.08.15.15.26.2H8l.17-.14a.04.04 0 0 0 .01-.03.03.03 0 0 0 0-.03l-.3-.25a.08.08 0 0 1-.03-.06v-.32a.02.02 0 0 0-.03-.02Zm4 .81a.01.01 0 0 0 0 .01c.03.1.08.15.14.15.07 0 .12-.04.17-.13l-.01-.01a3.13 3.13 0 0 1-.3-.02ZM9.25 9.58a.03.03 0 0 0-.03.03v2.07c0 .02.01.03.03.03h.08c.02 0 .04-.01.04-.03V9.6a.03.03 0 0 0-.04-.03h-.08Zm1.17 1.13h-.01a.02.02 0 0 0-.01.02v.36c0 .01 0 .03-.02.04l-.27.3v.04l.1.06a.05.05 0 0 0 .04 0 .78.78 0 0 0 .26-.21.02.02 0 0 1 .02 0l.02.01a.04.04 0 0 1 0 .06.48.48 0 0 1-.21.18.02.02 0 0 0-.01.02l.01.02c.34.1.51.14.83 0a.06.06 0 0 0 .03-.04c.01-.1-.03-.17-.12-.24a.02.02 0 0 0-.02 0 .02.02 0 0 0-.01.01c-.03.06-.09.1-.18.14-.04 0-.07-.06-.03-.08.12-.06.18-.14.18-.26 0-.25-.4-.38-.6-.43ZM8.9 9.58a.03.03 0 0 0-.02.02v2.07c0 .02.01.03.03.03h.1c.02 0 .03-.01.03-.03V9.6a.03.03 0 0 0-.02-.02h-.11Zm-3.54 1.65a.08.08 0 0 0-.05.02l-.02.02c-.06.15-.34.06-.3.27l.04.05c.12.08.25.1.41.08a.1.1 0 0 0 .06-.03l.17-.2a.07.07 0 0 0 0-.08l-.02-.02-.26-.1-.03-.01Zm4.16-1.66a.02.02 0 0 0-.02.02v2.04l.01.01h.02l.1-.02a.02.02 0 0 0 .01-.01v-2a.02.02 0 0 0-.01-.02l-.1-.02h-.01Zm-.9.01a.03.03 0 0 0-.04.03v1.95c.01.05.05.08.13.06h.01l.01-.03v-2a.02.02 0 0 0 0-.01.02.02 0 0 0-.02 0h-.1Zm-2.38 1.76c-.11.02-.2.06-.24.12a.06.06 0 0 0 .05.08l.29-.02a.03.03 0 0 0 .02-.02v-.02l-.05-.1a.06.06 0 0 0-.07-.04Zm2.09-1.76a.03.03 0 0 0-.03.03v1.79c0 .02 0 .03.02.05.02.03.06.05.1.07v-1.7l.01-.21a.03.03 0 0 0-.03-.03h-.07Zm1.48 0a.01.01 0 0 0-.01.01v1.75a.68.68 0 0 0 0 .11l.01.04h.08s.02 0 .02-.04l.01-.1V9.58h-.11Zm2.09 1.7h-.04a.06.06 0 0 0-.02.04l-.06.1c-.03.08.29.05.31.06.03 0 .06-.03.06-.06l-.01-.03c-.05-.06-.13-.1-.24-.1Zm1.5.1c-.16-.13-.48-.4-.62-.15v.03l.01.03c.15.12.41.25.6.15a.04.04 0 0 0 .02-.05l-.01-.01Zm-3.3-1.8-.01.02v1.7l.01.01h.01l.11-.12V9.6a.02.02 0 0 0-.01-.02h-.1Zm-2.06 0a.02.02 0 0 0-.03.02v1.56a.1.1 0 0 0 .03.07l.08.07h.02V9.58h-.01l-.1-.01Zm-3.16 1.17c-.27-.13-.07.14-.21.16-.05.01-.2.04-.15.11v.02l.08.08a.07.07 0 0 0 .02.01c.07.03.12.02.18.08l.04.04a.1.1 0 0 0 .07.03H5.14a.09.09 0 0 0 .03-.12C5.1 11.03 5 11 5 10.87v-.02l-.01-.02a.25.25 0 0 0-.1-.1Zm7.77-.34h-.01l-.01.01c-.06.18-.13.35-.22.52-.02.03-.02.1-.01.22v.02c.02.03.08 0 .11 0l.03-.02v-.03a.5.5 0 0 1 .13-.38c.06-.07.08-.12.08-.16a.42.42 0 0 0-.08-.17.02.02 0 0 0-.02-.01Zm-7.36.16a.1.1 0 0 0-.08.01c-.07.04-.08.18-.08.25 0 .02 0 .04.02.05l.16.25a.06.06 0 0 0 .05.03h.02l.02-.02c.06-.08.27-.16.25-.26l-.02-.04c-.06-.11-.27-.2-.29-.22a.1.1 0 0 0-.05-.05Zm7.73.07H13c-.22.07-.37.24-.31.46 0 .03.04.04.07.03.16-.06.26-.29.3-.42a.06.06 0 0 0 0-.05l-.03-.02ZM7.83 9.6v.01c-.01.15-.05.27-.1.38-.08.14-.1.26-.2.37a.1.1 0 0 0 .03.14l.05.01c.06 0 .14-.04.21-.1a.06.06 0 0 0 .02-.04V9.6Zm-.44.4c-.05.13-.11.25-.2.35l-.02.03c-.01.07.06.1.11.08.03 0 .05-.01.07-.03.1-.09.18-.2.22-.32a.05.05 0 0 0-.01-.05l-.07-.08a.06.06 0 0 0-.1.02Zm2.99-.16v.46a.12.12 0 0 0 .08.12c.1.04.17.03.2-.04a.05.05 0 0 0 0-.05c-.07-.08-.13-.2-.18-.33a.57.57 0 0 0-.1-.16Zm-3.26.01a.02.02 0 0 0-.01.02.95.95 0 0 1-.22.34.06.06 0 0 0-.01.04c0 .05 0 .2.09.15.15-.08.26-.2.31-.39a.03.03 0 0 0-.01-.03.31.31 0 0 1-.13-.12.02.02 0 0 0-.02 0Zm3.61.05a.06.06 0 0 0-.05.02l-.07.08-.01.02v.03c.04.12.11.23.22.32a.13.13 0 0 0 .13.02l.03-.02a.06.06 0 0 0 .01-.05l-.01-.03c-.1-.1-.16-.22-.2-.35a.06.06 0 0 0-.05-.04Zm.3-.1a.31.31 0 0 1-.13.11.03.03 0 0 0-.02.04c.06.18.16.3.31.38a.07.07 0 0 0 .1-.06v-.08c0-.02 0-.03-.02-.04a.95.95 0 0 1-.22-.36.02.02 0 0 0-.01 0Zm-4.07-.03-.04.01-.3.24a.15.15 0 0 0-.04.06c-.03.07-.01.19.08.18l.04-.01a.83.83 0 0 0 .32-.4.06.06 0 0 0-.06-.08Zm4.24-.07a.06.06 0 0 0-.06.05v.04c.08.17.19.3.33.4a.09.09 0 0 0 .13-.07v-.03a.15.15 0 0 0-.05-.13l-.3-.24a.06.06 0 0 0-.05-.02Zm-4.4-.1-.43.29a.13.13 0 0 0-.05.06V10l.06.02c.02 0 .05 0 .07-.02l.43-.28.01-.01V9.7l-.07-.1H6.8Zm4.6-.04a.06.06 0 0 0-.09.02l-.01.02a.06.06 0 0 0 .01.08l.44.29c.02.02.06 0 .08-.02l.01-.02a.06.06 0 0 0-.01-.09l-.44-.28Zm-3.7-.12a.02.02 0 0 0-.02 0v.01c-.03.15-.08.27-.15.38a.08.08 0 0 0 .01.09l.04.04c.02.02.05.02.06 0 .08-.16.09-.28.1-.45 0-.04 0-.06-.04-.07Zm-.15-.05a.06.06 0 0 0-.07.02l-.26.36a.04.04 0 0 0 0 .06l.07.07.02.02c.02 0 .04 0 .06-.02.1-.13.18-.28.22-.44a.06.06 0 0 0-.04-.07Zm2.92-.02c-.04.01-.06.04-.05.07.01.17.02.3.1.45l.02.02a.04.04 0 0 0 .03 0h.01l.04-.05a.08.08 0 0 0 .01-.1 1.23 1.23 0 0 1-.15-.38v-.01Zm.18-.05a.06.06 0 0 0-.07.07 1.09 1.09 0 0 0 .23.46.05.05 0 0 0 .06-.01l.07-.08V9.7l-.26-.37a.06.06 0 0 0-.03-.02Zm-4.05.12h-.02a2.1 2.1 0 0 1-.39.15c-.04.01-.09.07-.13.18a.03.03 0 0 0 0 .02.03.03 0 0 0 .02.02c.2.06.46-.12.62-.24a.03.03 0 0 0 .01-.04l-.1-.08-.01-.01Zm4.96-.08a.04.04 0 0 0-.04.02l-.05.11a.04.04 0 0 0 .02.06l.4.19c.04.02.09.03.12.02.04 0 .07-.02.08-.04v-.04l-.01-.05a.2.2 0 0 0-.04-.04.27.27 0 0 0-.06-.04l-.4-.19h-.02Zm-4.22-.1-.01.01-.05.06a5.79 5.79 0 0 0-.23.39l.05.04s.02 0 .03-.03l.06-.07a4.34 4.34 0 0 0 .2-.26l.04-.06a.02.02 0 0 0 0-.01.02.02 0 0 0 0-.01l-.08-.05h-.01Zm3.47-.06a.1.1 0 0 0-.04.02.04.04 0 0 0-.01.05c.04.1.08.16.12.21l.16.19.02.01h.02a.1.1 0 0 0 .04-.04v-.05a1.21 1.21 0 0 1-.26-.36l-.02-.02-.03-.01Zm-3.65-.03a.02.02 0 0 0-.02.01l-.23.34c-.01.02-.02.03-.01.04l.01.02c.03.03.07.05.1.01l.23-.34a.02.02 0 0 0 0-.03l-.06-.05a.02.02 0 0 0-.02 0Zm-.7.1-.47.1c-.08.02-.14.17-.03.19h.03l.53-.18a.02.02 0 0 0 .01-.02l-.02-.07a.04.04 0 0 0-.05-.03Zm4.55-.16h-.04l-.02.02a.04.04 0 0 0-.02.03.04.04 0 0 0 0 .04l.24.35a.02.02 0 0 0 .03 0l.06-.04a.02.02 0 0 0 .01-.03l-.24-.35a.04.04 0 0 0-.02-.02Zm.7.1h-.03l-.02.01-.02.08a.02.02 0 0 0 .01.02l.52.17a.07.07 0 0 0 .09-.04v-.06a.1.1 0 0 0-.08-.08l-.48-.1ZM4.48 5.86a.02.02 0 0 0-.02.01.02.02 0 0 0 0 .03c.05.07.11.13.19.17a15 15 0 0 0 1.29.63l.06-.03a.01.01 0 0 0 0-.02 10.8 10.8 0 0 0-1.25-.59c-.04 0-.01-.04 0-.05a.09.09 0 0 1 .09 0c.44.17.9.39 1.37.64.04.02.08.06.1.1l.17.23.03.03c.12.09.2.19.26.3.07.14.2.15.17.38a17.9 17.9 0 0 1-.08.5l.04.54.01.03c.08.15.18.26.29.31a4.87 4.87 0 0 1 .41.24l.24.06.02.01c.02.03.02.05 0 .08l.01.01h2.4a.04.04 0 0 0 .04-.04v-.02l-.02-.03a.15.15 0 0 0-.13-.06h-2.3a.05.05 0 0 1-.04-.05v-.12a.04.04 0 0 0-.04-.04l-.2-.03c-.02 0-.03 0-.04-.02a.98.98 0 0 0-.24-.13.15.15 0 0 1-.07-.06.47.47 0 0 1-.1-.32c.02-.09.02-.16.01-.23A.39.39 0 0 1 7.33 8a.09.09 0 0 0 .02-.05c.1-.28-.07-.52-.28-.68a13.06 13.06 0 0 1-1.1-.89l-.74-.31-.2-.11H5l-.52-.08Zm2.5 3.16-.02.01-.26.33a.03.03 0 0 0 0 .04c.04.03.1.04.14.01l.03-.03.14-.18a.14.14 0 0 0 .03-.09l-.01-.04a.1.1 0 0 0-.03-.04h-.02Zm4.19-.05h-.03l-.05.04.02.07.08.12.14.18a.03.03 0 0 0 .04 0l.07-.05a.03.03 0 0 0 0-.04l-.13-.18a1.11 1.11 0 0 0-.1-.1.22.22 0 0 0-.04-.04ZM6.9 8.93a.02.02 0 0 0-.01 0 .87.87 0 0 1-.3.27.03.03 0 0 0-.01.06l.03.02h.05l.27-.33-.02-.02a.02.02 0 0 0-.01 0Zm-1 .21c-.12.02-.25.13-.05.12h.07l.47-.06a.02.02 0 0 0 .01-.02V9.1a.02.02 0 0 0-.02-.02l-.48.06Zm5.35-.3v.01l-.03.02.27.34a.04.04 0 0 0 .05.01h.01l.03-.03a.03.03 0 0 0 .02-.03.03.03 0 0 0-.02-.02.9.9 0 0 1-.31-.3h-.02Zm.54.16a.03.03 0 0 0-.03.03v.04a.05.05 0 0 0 .03.06 1.75 1.75 0 0 0 .6.05.04.04 0 0 0 .02-.05.08.08 0 0 0-.07-.05 1.25 1.25 0 0 1-.55-.08Zm-4.97-.22-.03.01a2.4 2.4 0 0 0-.3.24l-.03.03v.01l.07.08h.01l.03-.02a3.95 3.95 0 0 0 .28-.31l-.03-.04Zm4.53-.08a.02.02 0 0 0-.02 0c-.02.03-.02.05 0 .08.1.12.16.2.3.29a.03.03 0 0 0 .02 0 .03.03 0 0 0 .02-.03l.01-.05v-.04a.07.07 0 0 0-.03-.03 1.1 1.1 0 0 1-.3-.22Zm-5.05.1a2.36 2.36 0 0 1-.65.05.06.06 0 0 0-.02.09c.17.17.47.12.7.04a.02.02 0 0 0 0-.02.4.4 0 0 1 0-.14.02.02 0 0 0-.03-.02Zm5.55-.06a.02.02 0 0 0-.01.02l-.01.13v.02l.01.01c.22.07.52.13.69-.04a.06.06 0 0 0-.04-.1 2.35 2.35 0 0 1-.64-.04ZM6.8 8.6h-.02a.99.99 0 0 1-.32.17.05.05 0 0 0-.04.03.18.18 0 0 0 0 .12.02.02 0 0 0 .02.02.02.02 0 0 0 .02 0l.36-.3-.01-.04H6.8Zm4.56-.08v.01l-.02.03v.01l.37.3a.03.03 0 0 0 .03 0 .18.18 0 0 0 .01-.13.06.06 0 0 0-.04-.04 1 1 0 0 1-.35-.18Zm-5.77 0h-.04c-.09.02-.08.13-.03.19l.08.04a2.32 2.32 0 0 0 .68-.04V8.7c0-.02 0-.15-.04-.14a1.5 1.5 0 0 1-.65-.03Zm3 .03h-.03a.22.22 0 0 0-.06.04l-.03.01c-.01 0-.02 0-.03-.02-.01-.03-.04-.03-.06-.01l-.13.14v.02a.02.02 0 0 0 .02.02h1.66a.01.01 0 0 0 .02 0 .01.01 0 0 0 0-.02l-.17-.15a.03.03 0 0 0-.04 0 .12.12 0 0 0-.02.05v.02h-.05l-.1-.06a.03.03 0 0 0-.05.01l-.04.06-.02.02h-.04l-.12-.07h-.05l-.07.08a.04.04 0 0 1-.06 0c-.02-.03-.04-.06-.07-.07-.02 0-.04 0-.07.05a.04.04 0 0 1-.07 0l-.07-.1a.03.03 0 0 0-.05 0l-.08.08a.03.03 0 0 1-.04 0l-.06-.08-.02-.02Zm4.02-.1h-.04a1.51 1.51 0 0 1-.67.04v.02c0 .04 0 .08-.03.12v.02h.02c.21.05.43.06.67.03a.13.13 0 0 0 .12-.12v-.02a.09.09 0 0 0-.07-.08ZM6.78 8.4h-.02a1 1 0 0 1-.37.12.05.05 0 0 0-.04.06l.02.07c0 .03.03.04.06.03.1-.03.38-.14.37-.26a.03.03 0 0 0-.02-.02Zm4.6-.07a.02.02 0 0 0-.02.02c0 .13.27.23.38.27a.04.04 0 0 0 .06-.04l.01-.07a.05.05 0 0 0-.04-.05 1.01 1.01 0 0 1-.38-.13ZM9.7 7.48c-.09-.41-.75-.44-1.01-.21a.07.07 0 0 1-.05.01c-.12 0-.26-.01-.32.08a.02.02 0 0 0 .01.03h.01c.13-.01.26.03.39.12l.02.02.1.16a.06.06 0 0 0 .05.03H9a.03.03 0 0 1 .03.02.03.03 0 0 1 0 .03.41.41 0 0 0-.06.18.2.2 0 0 1-.04.09c-.1.13-.22.23-.35.3-.02 0-.03.02-.03.03a.02.02 0 0 0 .02.02.16.16 0 0 1 .05-.03.05.05 0 0 1 .05.03c.01.03.03.09.07.07l.02-.02a.13.13 0 0 1 .07-.07c.01 0 .03 0 .03.02l.07.1h.06L9 8.47l.04-.03h.04l.03.05c.02.03.06.03.07 0 .03-.04.05-.06.07-.06.01 0 .03 0 .06.04l.07.05a.03.03 0 0 0 .04 0l.07-.08c.01-.01.03-.02.04 0l.04.03c.04.04.11 0 .11-.05V8a.02.02 0 0 0-.01-.03.02.02 0 0 0-.03.01c-.05.08-.1.1-.16.1A.04.04 0 0 1 9.46 8c.18-.18.29-.26.23-.53Zm-4.22.87c.02.03.05.05.08.06a1.29 1.29 0 0 0 .67.05.02.02 0 0 0 0-.03.24.24 0 0 1 0-.14.02.02 0 0 0 0-.02H6.2c-.2 0-.42-.04-.65-.11-.12-.04-.14.12-.1.19Zm1.27-.15-.1.01a2.25 2.25 0 0 0-.33.06H6.3v.01l.03.16h.02c.12-.02.24-.06.32-.09.08-.03.13-.05.13-.07l-.02-.06-.04-.02Zm5.91-.1a.1.1 0 0 0-.04 0 2.08 2.08 0 0 1-.67.11v.02c.01.04 0 .1 0 .14v.01a.02.02 0 0 0 .01.02c.23.04.45.02.67-.05a.16.16 0 0 0 .1-.16.1.1 0 0 0-.07-.1Zm-1.22.03a.05.05 0 0 0-.06.07l.03.03a.97.97 0 0 0 .43.14.04.04 0 0 0 .03-.04v-.1a.04.04 0 0 0-.04-.03l-.39-.07ZM5.7 7.9a.44.44 0 0 0-.18 0c-.04.02-.07.04-.08.06l.01.05.05.04.07.04.09.02.5.09a.04.04 0 0 0 .04-.03l.02-.13a.04.04 0 0 0-.03-.05l-.5-.09Zm.65.09a.04.04 0 0 0-.04.03l-.02.1c0 .02.01.05.04.05.16 0 .31-.02.46-.09a.06.06 0 0 0 .01-.1.06.06 0 0 0-.04 0l-.41.01Zm6.28-.15h-.22l-.45.09a.02.02 0 0 0-.02 0v.02l.03.17.01.01H12l.46-.07a.68.68 0 0 0 .2-.07c.06-.03.08-.06.08-.09s-.04-.05-.1-.06Zm-1.16.06-.11.01-.02.11.03.02.08.02a2.6 2.6 0 0 0 .26.04l.14.01h.01v-.01l.02-.14v-.01h-.01l-.14-.02-.26-.03ZM6.3 7.8l-.01.02v.08l.02.01.53-.04.01-.01v-.08l-.02-.02-.53.04Zm-.77-.03a2.01 2.01 0 0 0 .63.11c.03 0 .04-.04.02-.06l-.02-.01c-.2-.02-.39-.08-.56-.18-.1-.05-.17.1-.07.14Zm5.8-.08h-.01l-.01.01v.02c0 .03 0 .05.03.06.02.02.04.03.07.03l.36.03.08-.01.03-.06v-.03l-.56-.05Zm1.26-.13h-.03a1.47 1.47 0 0 1-.57.19l-.01.01v.02a.04.04 0 0 0 .02.03h.02a2 2 0 0 0 .64-.12.07.07 0 0 0 .01-.08v-.01a.08.08 0 0 0-.05-.04h-.03ZM5.43 7.4l.02.02a1.87 1.87 0 0 0 .67.28.02.02 0 0 0 .01-.03.2.2 0 0 1-.02-.16.03.03 0 0 0 0-.02.03.03 0 0 0-.03-.02c-.3-.04-.47-.09-.54-.15l-.02-.02c-.06-.02-.12.05-.09.1Zm.83.1a.07.07 0 0 0-.07.07v.05c0 .04.04.06.08.06l.52-.02c.04 0 .07-.03.07-.07v-.05a.07.07 0 0 0-.07-.06l-.53.02Zm6.41-.27a.07.07 0 0 0-.05.02c-.06.07-.24.12-.54.16a.03.03 0 0 0-.02.04.2.2 0 0 1-.02.15v.02l.01.01a1.85 1.85 0 0 0 .68-.3.06.06 0 0 0 0-.04v-.03a.07.07 0 0 0-.06-.03Zm-1.28.18a.08.08 0 0 0-.09.08v.02c0 .04.03.08.08.08l.5.03c.05 0 .1-.04.1-.08v-.02a.08.08 0 0 0-.08-.09l-.51-.02ZM6.25 7.2a.15.15 0 0 0-.16.05l-.03.04a.08.08 0 0 0 .07.12h.56a.03.03 0 0 0 .02-.05l-.1-.1a.07.07 0 0 0-.05-.03c-.12 0-.22 0-.31-.03Zm-1.07-.4c-.04.01-.09.06-.06.1 0 .02.01.02.02.03.16.1.33.23.49.35.02.02.12.05.3.1a.03.03 0 0 0 .03-.03c.01-.09.03-.14.06-.17a.02.02 0 0 0 .01-.02.02.02 0 0 0-.01-.01 2.3 2.3 0 0 1-.78-.33.08.08 0 0 0-.06-.01Zm6.83.33a.15.15 0 0 0-.1 0c-.09.02-.2.04-.3.03-.03 0-.05.01-.07.03l-.1.1a.03.03 0 0 0 .03.05h.56c.1 0 .09-.1.05-.15a.15.15 0 0 0-.07-.06Zm.97-.39a2.3 2.3 0 0 1-.85.35.02.02 0 0 0 .01.03c.04.03.03.2.1.19.17-.04.27-.07.3-.1a8 8 0 0 1 .49-.35c.05-.04 0-.1-.05-.12Zm-6.83-.01h-.08L6 6.8c-.08.08-.02.2.04.26l.03.01.41.07h.01v-.01l-.27-.36a.13.13 0 0 0-.07-.04Zm5.8-.02-.28.36h.01l.41-.06.03-.02c.07-.06.12-.18.05-.25-.07-.07-.15-.13-.23-.03Zm-7.01-.16a6.66 6.66 0 0 0 .95.47l-.03-.22-.01-.01-.89-.44c-.11-.06-.09.16-.02.2Zm8.26-.26-.89.43v.02l-.04.22v.01h.01a6.72 6.72 0 0 0 .98-.52l.02-.05c0-.05 0-.15-.08-.11Z" fill="#DC0209"/><path d="M14.73 9A5.73 5.73 0 1 0 9 14.73V15h-.08A6 6 0 0 1 3 9.08V9a6 6 0 0 1 6-6h.08A6 6 0 0 1 15 9v.08A6 6 0 0 1 9 15v-.27A5.73 5.73 0 0 0 14.73 9Z" fill="#DC0209"/></svg>