<!-- by TradingView --><svg width="56" height="56" viewBox="0 0 56 56" xmlns="http://www.w3.org/2000/svg"><path fill="#F0F3FA" d="M0 0h56v56H0z"/><path d="M35.28 43.9a.3.3 0 0 1-.21.1h-12.8c-.23 0-.48-.1-.76-.28a3.5 3.5 0 0 1-.6-.52 619.4 619.4 0 0 0-8.29-8.46c-.7-.7-.62-1.14-.62-2.25V21.2c0-.3.2-.61.54-.95 2.2-2.1 4.47-4.14 6.64-6.27l1.96-1.88c.07-.07.16-.1.26-.1h12.32c.19 0 .56.06 1.12.19.05 0 .09.03.12.06l8.71 8.77c.2.19.33.44.33.7v12.35c0 .48-.05.84-.18 1.08a.8.8 0 0 1-.15.23l-8.39 8.52Zm-2.23-21.13-1.89.56a.06.06 0 0 1-.05 0l-.02-.03v-.5a.1.1 0 0 1 .07-.09.1.1 0 0 1 .03 0c.04 0 .08 0 .14.02h.1a.17.17 0 0 0 .08-.06c.14-.18.3-.33.48-.46a287.32 287.32 0 0 1 3.7-2.53.23.23 0 0 1 .2.06l.05.09.11.36a.14.14 0 0 0 .08.09.15.15 0 0 0 .12 0l2.38-1.12a.1.1 0 0 0 .05-.06.1.1 0 0 0 0-.08 1.8 1.8 0 0 0-.37-.55c-2.15-2.16-3.69-3.59-3.98-3.87-.35-.35-.7-.6-.9-.6H22.5c-.05 0-.09.04-.12.07l-8.03 7.42c-.18.17-.34.41-.34.66v10.71c0 .07-.05.13-.02.19.12.25.3.48.5.7 2.64 2.66 5.58 5.77 7.75 7.98a.9.9 0 0 0 .66.27H33.3c.38 0 .67-.11.87-.32l7.3-7.28c.58-.58.55-1.15.53-1.94V23.1c0-.4-.26-.76-.42-.95-.78-.89-1.46-1.96-2.46-2.82a.28.28 0 0 0-.21-.06.28.28 0 0 0-.2.1l-4.69 3.91a.38.38 0 0 1-.28.08c-.37-.05-.57-.23-.6-.53a.06.06 0 0 0-.03-.05.07.07 0 0 0-.06 0Z" fill="#00225D"/><path d="M19.11 29.19c-.87-5.57 3.54-9.46 8.62-10.19.05 0 .1 0 .16.03.04.03.1.08.11.13v6.3c0 .04-.05.06-.06.08a.2.2 0 0 1-.16.08c-.02 0-.05 0-.08-.02-3.17-.37-4.2 4.9-.24 5.44 1.61.21 2.44-.83 2.83-1.92a.1.1 0 0 0-.01-.09.1.1 0 0 0-.08-.03H28v-2h8.97c1.39 12.16-16.05 13.8-17.86 2.19Z" fill="#00225D"/><path d="M34.77 19.82a5.9 5.9 0 0 0-.98.9 2.6 2.6 0 0 1-.93.54.95.95 0 0 0-.25.15l-1.28 1.06a.25.25 0 0 1-.33-.01.97.97 0 0 0-.44-.22.34.34 0 0 0-.2 0 12.21 12.21 0 0 1-.95.28.17.17 0 0 1-.08-.03.16.16 0 0 1-.06-.13c0-.07.03-.14.1-.2.35-.3 1.31-1.04 2.9-2.2a.28.28 0 0 1 .37.05l.15.17a.21.21 0 0 0 .23.06l1.04-.38.05-.02.63-.07a.04.04 0 0 1 .04.02v.02l-.01.01Z" fill="#00225D"/></svg>