<!-- by TradingView --><svg width="56" height="56" viewBox="0 0 56 56" xmlns="http://www.w3.org/2000/svg"><path fill="#F0F3FA" d="M0 0h56v56H0z"/><path d="m13.35 23-4.9 8.46a.11.11 0 0 1-.1.06.11.11 0 0 1-.1-.05c-.04-.06-.04-.12 0-.2l.06-.17c.39-1.6.99-3.07 1.8-4.42.02-.03.02-.06 0-.09-.02-.02-.04-.03-.08-.03-.76.17-1.53.27-2.3.31a.27.27 0 0 0-.19.1c-.54.6-1 1.25-1.37 1.96-.04.06-.1.09-.2.08h-.1c-.07 0-.1-.04-.07-.11l.72-1.76a.09.09 0 0 0-.01-.1.09.09 0 0 0-.1-.03c-.82.16-1.63.2-2.41.1v-.43l2.82-.46A.25.25 0 0 0 7 26.1l1.71-2.64c.14-.2.3-.24.51-.12l.08.04c.16.1.2.22.1.38l-1.3 2.25c-.05.07-.03.1.05.09a9.17 9.17 0 0 1 2.33-.06c.05 0 .09-.01.12-.05L12.64 23h.71Zm12.44 2.09a18.96 18.96 0 0 0-.88 1.24c1.13.05 2.16.16 3.08.31.06.01.08.04.08.1 0 .03 0 .05-.02.06a.08.08 0 0 1-.05.04c-1 .17-2.12.25-3.37.25-.15 0-.24.07-.25.23-.1 1 .17 1.57.78 1.7.87.2 1.73.14 2.57-.14.2-.07.24-.01.12.16-.09.13-.26.25-.53.37-.93.42-1.84.4-2.73-.07-.94-.5-1.27-1.25-.98-2.27a.16.16 0 0 0-.05-.17.51.51 0 0 0-.22-.1c-.09-.03-.12-.09-.08-.17.1-.2.26-.28.52-.26.07 0 .13-.02.17-.08l.7-1.08a.1.1 0 0 0 0-.12.1.1 0 0 0-.1-.06h-.8c-.1 0-.15-.04-.17-.12a.76.76 0 0 1 0-.27.16.16 0 0 1 .12-.14 7.34 7.34 0 0 1 5.4.4c.07.03.08.07.04.13-.03.07-.12.1-.26.09-.94-.06-1.95-.09-3-.08a.1.1 0 0 0-.1.05Zm11.57.72a.55.55 0 0 0 .11-.5.56.56 0 0 0-.35-.37.91.91 0 0 0-.61-.02.92.92 0 0 0-.5.34.55.55 0 0 0-.11.5c.05.16.16.29.35.36.19.08.4.09.6.03a.92.92 0 0 0 .51-.34Zm-.75-.47c.23-.09.38-.07.43.06.05.14-.04.25-.28.34-.24.1-.38.07-.43-.06-.06-.13.04-.25.28-.34ZM33.32 32h-1.26a2.7 2.7 0 0 1-1.5-.86.16.16 0 0 1-.04-.2c.25-.5.63-.84 1.16-1 .05-.02.1-.01.12.03l.03.06-.01.05c-.38.35-.48.69-.3 1 .04.07.09.13.16.16.77.4 1.5.35 2.18-.16.06-.05.09-.1.09-.18 0-.24-.1-.53-.32-.87-.2-.31-.4-.53-.61-.65a.46.46 0 0 0-.2-.06c-.46-.03-.79-.2-.99-.53-.04-.07-.1-.08-.16-.02-.26.22-.41.37-.47.44-.3.37-.67.39-1.12.05-.17-.13-.22-.29-.14-.48.25-.64.4-1.06.45-1.27.02-.11-.01-.13-.1-.06a3.38 3.38 0 0 0-1.26 1.86c-.04.2-.15.24-.32.14l-.36-.2c-.16-.1-.2-.22-.12-.38.25-.48.45-.95.6-1.41.06-.16.08-.36.05-.6v-.12c-.03-.24.08-.33.32-.25.26.08.41.29.44.62.01.12.06.14.15.06a13.2 13.2 0 0 1 .91-.73c.2-.17.43-.18.67-.03.18.12.2.26.1.44a6.01 6.01 0 0 0-.8 1.82.1.1 0 0 0 .04.1c.01.02.03.02.05.03.02 0 .03 0 .05-.02a6.2 6.2 0 0 1 2.95-2.3.92.92 0 0 0 .43-.28c.14-.2.13-.39-.02-.58a.31.31 0 0 0-.18-.11c-.18-.05-.28-.1-.3-.15-.07-.12-.05-.23.05-.33.09-.1.2-.13.33-.09.36.12.62.29.8.52.2.27.21.57.04.88-.17.33-.46.57-.87.71-.12.05-.15.13-.08.24l.06.11c.06.1.15.13.26.08.61-.33 1.17-.7 1.68-1.11a.25.25 0 0 1 .2-.06c.2.03.32.13.38.31.02.07.02.13-.02.19-.08.13-.13.25-.15.37 0 .04 0 .07.04.09.03.02.06.02.09 0l.87-.65c.42-.31.73-.3.92.04.04.06.04.12.02.19l-.07.23c-.04.13 0 .16.1.07l.78-.52c.3-.18.55-.16.79.06.07.07.07.15 0 .22-.33.37-.48.86-.44 1.48 0 .17.13.32.36.43l.1.02c.27.03.41-.09.42-.36.05-1.02.59-1.68 1.61-1.99.3-.09.55-.03.73.17.18.2.18.44 0 .7-.38.54-.9.88-1.57 1a.15.15 0 0 0-.11.1.14.14 0 0 0 0 .14l.09.13c.03.06.08.08.14.07a3 3 0 0 0 1-.35c.25-.15.5-.4.78-.76.45-.58.96-1 1.56-1.24a.49.49 0 0 1 .4 0c.15.07.23.17.28.32a.8.8 0 0 1-.1.6c-.28.55-.71.9-1.3 1.05-.1.02-.12.08-.04.15l.12.1a.5.5 0 0 0 .29.03 4.92 4.92 0 0 0 2.22-2.02c.1-.2.26-.25.46-.12l.65.42c.25.15.27.34.08.55-.22.23-.39.46-.5.7-.25.48-.15.57.3.26a9.64 9.64 0 0 0 1.92-1.75c.26-.3.5-.47.73-.52.35-.07.69-.01 1 .17.07.03.14.04.21 0 .12-.04.23-.08.35-.1.15-.04.26 0 .32.1.04.07.04.14-.02.2-.23.27-.43.6-.59.98a.2.2 0 0 1-.14.13c-.28.08-.44-.16-.48-.7 0-.1-.06-.13-.16-.09a.58.58 0 0 0-.33.3.32.32 0 0 0 .05.37l.89 1.04c.07.08.1.17.08.28-.04.26-.21.39-.52.38a2.37 2.37 0 0 1-1.61-.67c-.12-.11-.12-.22 0-.34l.1-.09c.14-.12.27-.12.4.01.44.46.77.64.99.57.07-.03.09-.07.05-.14a1.95 1.95 0 0 0-.62-.66.6.6 0 0 1-.18-.19l-.22-.4c-.05-.08-.1-.08-.16 0a5.05 5.05 0 0 1-1.61 1.53 2.3 2.3 0 0 1-.73.27c-.32.06-.56 0-.71-.16-.25-.28-.1-.84.46-1.69.01-.01 0-.03-.01-.04l-.06-.03c-.04-.02-.07-.02-.1.02-.44.48-.75.84-.93 1.1-.34.47-.73.75-1.17.84-.47.1-.92-.04-1.35-.43a.4.4 0 0 1-.12-.18.25.25 0 0 0-.07-.12c-.06-.05-.12-.05-.18 0-.56.53-1.22.76-1.99.71-.07 0-.14.01-.21.05-.52.25-.98.23-1.4-.05-.4-.27-.59-.69-.57-1.25 0-.08-.04-.1-.1-.06-.57.34-1 .76-1.29 1.27-.1.15-.21.18-.37.1l-.05-.04c-.17-.1-.21-.23-.14-.4l.54-1.2c.07-.16.03-.2-.13-.1a6.11 6.11 0 0 0-1.9 1.66c-.09.12-.18.12-.27.01l-.13-.15c-.16-.2-.18-.4-.04-.6l.55-.85c.17-.25.12-.3-.14-.15l-1.08.61a.61.61 0 0 0-.2.2l-.47.72c-.07.1-.06.18.01.27.52.61.86 1.03 1.02 1.24.14.19.17.4.1.66a.84.84 0 0 1-.4.45c-.28.19-.6.32-.94.42Zm11.53-5.04c-.1-.12-.35-.02-.75.3-.4.33-.56.55-.47.67.1.12.35.02.76-.31.4-.32.55-.55.46-.66Zm-2.58.02c-.1-.12-.35-.04-.78.26-.44.3-.6.51-.52.64.09.12.35.04.78-.26.43-.3.6-.51.52-.64Zm-8.79.55c-.06-.07-.17-.08-.32-.03-.16.05-.32.14-.48.28-.16.14-.28.28-.35.43-.07.15-.07.25-.01.32.06.07.17.08.32.04.16-.05.32-.15.48-.28.16-.14.28-.28.35-.43.07-.15.07-.26.01-.33Zm-21 1.18c.16-.2.24-.17.25.08.02.44.28.66.78.69.22.01.42-.12.6-.4.06-.08.1-.08.15 0 .11.2.25.33.43.38.56.18.98.04 1.26-.43.05-.08.1-.09.16-.03.55.44 1.06.4 1.54-.14.35-.38.52-.83.52-1.35 0-.08.04-.13.13-.14.08-.02.19-.01.31.02.05.01.09.04.1.1.02.04.02.08-.01.13-.22.3-.33.6-.34.93-.02.26.1.42.36.49.37.1.66.05.88-.15.06-.06.12-.06.17 0 .36.47.7.7 1 .66.14-.02.27-.12.4-.29.3-.36.5-.73.61-1.1.02-.05.02-.1 0-.13-.03-.09-.07-.1-.13-.02-.29.41-.48.65-.56.71-.45.35-.64.24-.56-.32.06-.49.34-.81.84-.98.06-.02.08-.06.07-.12-.1-.33-.31-.6-.67-.79-.37-.2-.7-.2-.97-.02-.27.18-.43.29-.5.32-.09.06-.16.08-.21.07l-1.47-.28a.22.22 0 0 0-.23.08.21.21 0 0 0-.03.23c.32.73.2 1.28-.37 1.64-.41.27-.51.18-.3-.27.1-.2.22-.55.36-1.03A.3.3 0 0 0 17 27a.3.3 0 0 0-.2-.14l-.1-.02c-.24-.05-.41.04-.5.28-.2.55-.55 1.09-1.05 1.62-.07.07-.13.06-.17-.03-.03-.06-.03-.13.01-.22l.7-1.6c.07-.18.02-.32-.14-.41l-.2-.12c-.19-.1-.32-.06-.4.14l-.04.14c-.23.58-.4 1-.54 1.24a2.4 2.4 0 0 1-.76.9c-.26.16-.34.1-.26-.19.17-.57.4-.95.67-1.16.31-.23.32-.46.03-.67l-.65-.5c-.35-.26-.69-.28-1.01-.06a3.65 3.65 0 0 0-1.52 2c-.06.2-.04.39.07.55.22.32.47.47.76.44.27-.02.52-.18.77-.48Zm.27-1.83c.2-.1.32-.11.38-.05s.04.19-.06.38c-.1.18-.25.37-.46.57-.2.2-.4.35-.6.45-.19.1-.31.1-.38.04-.06-.06-.04-.18.06-.37s.26-.38.46-.58c.21-.2.41-.35.6-.44Zm7.37.15c.2-.1.33-.12.4-.05.06.06.04.2-.07.39-.1.2-.27.4-.5.61-.21.21-.42.37-.62.47-.2.1-.33.12-.4.06-.06-.07-.04-.2.07-.4.11-.19.27-.4.5-.6.21-.22.42-.37.62-.48Z" fill="#008356"/></svg>