<!-- by TradingView --><svg width="18" height="18" viewBox="0 0 18 18" xmlns="http://www.w3.org/2000/svg"><path fill="#F0F3FA" d="M0 0h18v18H0z"/><path d="M14.91 7.33H13.3a.03.03 0 0 1-.01-.03v-.25c0-.02.01-.05.06-.05H16v.02a.03.03 0 0 1 0 .03c-.3.28-.66.58-1.06.98-1.62 1.61-3.23 3.24-4.85 4.87-.27.27-.52.5-.8.75a3.85 3.85 0 0 0-.33.35h-.01L2 7.04 2 7.03v-.01L2.01 7 2.02 7H4.9l.02.01.01.02c0 .1 0 .17-.03.27l-.01.02-.03.01H2.97v.01l.01.04a22572.8 22572.8 0 0 0 4.2 4.07l.03-.01c.14-.14.33-.55.39-.73.1-.33-.16-.63-.41-.77a18.16 18.16 0 0 1-1.06-.65c-.14-.11-.26-.25-.37-.37a2.19 2.19 0 0 1-.46-.84l-.1-.35-.13-.7c-.02-.14-.07-.26-.1-.39-.01-.1-.03-.2-.06-.28-.04-.11-.05-.23-.1-.37-.06-.18-.1-.32-.17-.47l-.13-.24a.29.29 0 0 1-.04-.22l.02-.03L4.5 5c.17-.05.4.08.53.18.02 0 .03.02.04.03l.63.75c.09.1.29.07.4.03.06-.02.14-.07.24-.13.51-.34.79-.67.83-.7.12-.07.22-.13.35-.16A1 1 0 0 1 7.68 5h2.92c.04 0 .1.01.14.03.51.24.83.6 1.3.9.1.06.17.1.23.1.17.03.26-.04.37-.18l.17-.2.19-.22a1.01 1.01 0 0 1 .82-.28l.01.01-.01.08c-.08.18-.17.36-.27.53-.04.06-.08.16-.1.22l-.24.73c-.05.14-.1.29-.12.42l-.2.85c-.03.2-.1.38-.14.52a.45.45 0 0 1-.08.14c-.2.25-.33.44-.55.6l-.58.41c-.09.07-.18.13-.28.18l-.37.18a.76.76 0 0 0-.42.5 5.11 5.11 0 0 1 .18.69c.03.11.18.18.27.09l3.99-3.91c.04-.04.05-.06 0-.06Zm-5.1-1.9.02-.04v-.01h-.01l-.04-.02h-.05c-.01 0-.02 0-.02.02v.02l.01.02h.02l.02.02h.05ZM7 5.97c.02.06.09.21.14.25.02.02.05.02.09 0a218.9 218.9 0 0 1 1.06-.52l.01-.05c-.01-.13-.15-.18-.26-.14a7.36 7.36 0 0 0-.57.26l-.18.04-.02.01-.25.12-.02.02v.01Zm4.35-.02a3 3 0 0 0-.37-.15c-.2-.06-.35-.16-.52-.25-.09-.04-.33-.1-.4.02a.04.04 0 0 0 .02.05l.09.06a114.95 114.95 0 0 0 .97.55l.04-.01a.53.53 0 0 0 .18-.25v-.01l-.01-.01Zm-2.12 0 .21-.24.01-.02v-.02c-.13-.17-.28-.2-.46-.11-.02 0-.03.02-.03.02l-.01.06.02.04a2.47 2.47 0 0 1 .23.27h.03ZM5.1 5.86a.07.07 0 0 0-.01.06l.08.42c.02.15.07.26.08.4l.06.3c.04.17.06.34.13.51l.06.21c.05.18.11.37.2.55.02.07.05.12.09.15l.46.46a3.87 3.87 0 0 0 1.23.88c.1.04.15.07.18.1.11.11.16.22.25.4.07.15.04.41.03.64 0 .22.07.52.2.7.06.13.15.17.27.1a.5.5 0 0 0 .21-.22c.07-.15.15-.3.17-.46a4.15 4.15 0 0 0-.06-.99c-.06-.18-.1-.31-.2-.45L7.66 8.5c-.2-.26-.4-.47-.6-.64-.13-.1-.3-.2-.48-.18h-.02l-.01.02a.06.06 0 0 0-.01.04c0 .04.02.08.06.12.04.04.2.2.5.46.09.1.14.2.13.35v.01h-.01a.02.02 0 0 1-.02.01l-.38-.22-.02-.02-.45-.47c-.09-.08-.16-.17-.2-.24l-.18-.28c-.04-.06-.1-.2-.2-.42a29.17 29.17 0 0 1-.19-.46h-.02l-.01.01a.08.08 0 0 0-.02.04v.05c.09.39.22.73.39 1.04.09.18.13.3.03.45l-.01.02a.04.04 0 0 1-.04 0h-.02A.56.56 0 0 1 5.75 8a3.67 3.67 0 0 1-.28-.74l-.09-.3c-.07-.21-.08-.38-.12-.66a2.58 2.58 0 0 0-.14-.44l-.01.01Zm4.38.32a.03.03 0 0 0 0 .02v.01h.02c.06.01.1 0 .14-.02a.1.1 0 0 0 .03-.04l.01-.05v-.05l-.02-.02h-.04a.25.25 0 0 0-.14.15Zm-.65.06c.02-.1-.06-.13-.13-.15a.05.05 0 0 0-.04.01l-.02.02v.1l.04.02.13.01h.02v-.01Zm1.33-.11c-.01.02 0 .05.02.07l.08.07.05.01h.05a.1.1 0 0 0 .04-.01l.02-.03c.01-.02 0-.04-.01-.07a.23.23 0 0 0-.14-.08h-.05a.1.1 0 0 0-.04.01.05.05 0 0 0-.02.03Zm-1.98 0c0-.01-.01-.02-.03-.02a.1.1 0 0 0-.04 0h-.05a.41.41 0 0 0-.17.12.13.13 0 0 0-.02.04v.03l.02.01a.1.1 0 0 0 .05 0H8a.41.41 0 0 0 .16-.12.13.13 0 0 0 .03-.04v-.03Zm-1.52.08v.08a.03.03 0 0 0 0 .02h.09c.02-.01.04-.02.04-.04s0-.04-.03-.05a.15.15 0 0 0-.07-.03h-.02v.02Zm6.32.16-.01.03c-.05.12-.1.3-.17.54-.08.3-.16.49-.27.8l-.1.25c-.05.09-.07.2-.13.26-.04.06-.1.06-.14 0a.38.38 0 0 1-.06-.19c0-.03 0-.05.02-.08.1-.14.19-.3.25-.46.14-.34.23-.52.25-.8v-.01l-.02-.02a.03.03 0 0 0-.03 0c-.05.04-.08.2-.12.31a5.52 5.52 0 0 1-.4.7l-.31.4c-.17.2-.44.4-.63.55a.41.41 0 0 1-.16.08h-.05a.06.06 0 0 1-.02-.04.25.25 0 0 1 .07-.25.86.86 0 0 1 .1-.08c.1-.07.21-.16.3-.26.12-.12.23-.2.29-.33a.04.04 0 0 0 0-.03l-.01-.02h-.02c-.23-.02-.39.11-.6.27l-.26.25-.83.9c-.09.1-.19.23-.3.4-.13.22-.24.48-.3.72-.04.27-.06.55-.03.82.01.2.08.37.2.55.12.2.29.2.42.02a.99.99 0 0 0 .1-.17c.07-.17.11-.35.11-.53l.01-.22c.02-.18.02-.38.08-.52.04-.08.1-.16.18-.25.04-.05.12-.1.25-.15l.49-.25c.22-.12.43-.3.61-.41.16-.1.23-.18.4-.34.05-.05.1-.13.17-.24.1-.18.18-.34.22-.46l.3-.89c.06-.17.08-.34.13-.52a2.15 2.15 0 0 0 .06-.31l-.01-.01-.02-.01H13Zm-6.75.1.2.21a.08.08 0 0 0 .02-.06.12.12 0 0 0-.03-.07l-.07-.08a.1.1 0 0 0-.06-.03c-.03 0-.05 0-.06.02ZM9.57 7.5c.1-.23.2-.48.28-.75.02-.07.06-.14.07-.23a.04.04 0 0 0-.01-.02l-.01-.01h-.56l-.01.03c0 .14.04.26.07.4l.01.1c.01.17.03.32.1.47l.03.03c.01 0 .02 0 .03-.02Zm.3.03v.01h.02a47.48 47.48 0 0 1 .9-1.02c-.2-.06-.6-.08-.62.2a.84.84 0 0 1-.06.25 39.4 39.4 0 0 1-.24.56Zm-3-1.02-.1.06a.04.04 0 0 0 0 .03v.02l.01.02a2.67 2.67 0 0 0 .2.3.5.5 0 0 0 .07.08c.02.02.04.02.05.02.02-.02.01-.08-.02-.17-.03-.09-.08-.2-.15-.32l-.01-.03-.01-.01a.03.03 0 0 0-.03 0Zm1.5 1.01V7.5a28.06 28.06 0 0 1-.32-.93.07.07 0 0 0-.03-.03.06.06 0 0 0-.03-.01H7.52l-.02.02a.04.04 0 0 0 0 .04l.07.12a661.54 661.54 0 0 0 .79.84v-.01l.01-.02ZM11.25 7c.11-.1.21-.22.3-.37a.07.07 0 0 0 0-.05.06.06 0 0 0-.02-.03.06.06 0 0 0-.03-.01c-.2 0-.25.28-.27.45V7a.01.01 0 0 0 .02 0Zm.79-.47h-.06a.42.42 0 0 0-.16.14l-.01.04v.03h.06l.04-.03a.44.44 0 0 0 .11-.12l.02-.03v-.03ZM8.7 7.56s0 .02.02.02a.04.04 0 0 0 .05 0l.01-.02.24-.97A.05.05 0 0 0 9 6.55l-.02-.01h-.55l-.01.01a.05.05 0 0 0-.01.04l.28.97ZM6 6.69v.06l.03.05.04.04.08.07h.06v-.07a.34.34 0 0 0-.06-.09.27.27 0 0 0-.08-.06H6Zm6.12.16-.18.15.03.03.04.01a.1.1 0 0 0 .04 0l.04-.03a.15.15 0 0 0 .05-.08.1.1 0 0 0 0-.04l-.01-.04ZM10.9 7l-.02-.01h-.02l-.55.6-.36.38c-.04.03-.09.1-.16.2-.05.07-.11.14-.19.2a.3.3 0 0 0-.1.24v.02l.02.02h.04a44.32 44.32 0 0 0 .65-.54c.17-.15.4-.26.53-.45a.78.78 0 0 0 .09-.24c.04-.2.1-.36.07-.42ZM8.8 8.7c.02-.08-.1-.28-.16-.35a4.07 4.07 0 0 0-.56-.63 1.3 1.3 0 0 1-.24-.3l-.35-.38-.01-.01a.03.03 0 0 0-.03 0l-.01.02v.06c.04.19.07.33.07.41 0 .12.05.17.13.24l.34.27.33.28a31.44 31.44 0 0 0 .47.41h.01l.01-.02Zm.36-1.4c-.03.04-.05.2-.1.42-.03.16-.05.3-.05.38a1.1 1.1 0 0 0 .1.45l.01.01a.03.03 0 0 0 .03 0 29.53 29.53 0 0 0 .16-.45c.06-.23-.04-.41-.07-.62a1.7 1.7 0 0 0-.05-.2h-.03Zm-.84 1.4a.03.03 0 0 0 0 .04c.08.1.2.24.33.44.08.1.14.2.18.3a13.03 13.03 0 0 1 .23.54c.04-.03.12-.22.21-.42a10.1 10.1 0 0 1 .37-.63c-.15.04-.32.22-.4.29-.15.13-.3.01-.42-.1a7.64 7.64 0 0 0-.48-.47H8.3Zm1.33 3.82a2.44 2.44 0 0 1-.5-.09v-.02a.35.35 0 0 1 0-.18c.02-.08.06-.16.07-.24 0-.22-.05-.32-.12-.52l-.01-.01-.02-.01a.03.03 0 0 0-.03.01l-.15.21-.01.04v.12c.05.17.08.6-.13.67a.68.68 0 0 1-.5-.07.1.1 0 0 0-.09 0h-.01l-.01.02a.04.04 0 0 0 0 .04l.19.2c.18.19.35.4.55.55l.04.02.04-.02a27.03 27.03 0 0 1 .71-.69v-.01l-.01-.02h-.01Zm-1.84-.44v-.01l.02-.01a.04.04 0 0 0 0-.03l-.3-.47v-.02c-.05-.03-.09-.02-.13.02a.09.09 0 0 0-.02.1c.02.03.06.08.1.1.1.08.18.17.26.3l.03.02h.03Z" fill="#375E8A"/></svg>