<!-- by TradingView --><svg width="18" height="18" viewBox="0 0 18 18" xmlns="http://www.w3.org/2000/svg"><path fill="#F0F3FA" d="M0 0h18v18H0z"/><path d="M3.6 11.3c-.08-.13-.01-.23.1-.33l.47-.4a.15.15 0 0 0 .04-.12 1.8 1.8 0 0 0-.32-.9 3.21 3.21 0 0 0-.57 0c-.17 0-.32-.04-.32-.21V8.5c0-.17.14-.2.3-.2h.6c.29-.47.2-.9-.08-1.12-.13-.1-.27-.2-.2-.34l.2-.49a.52.52 0 0 1 .09-.2.12.12 0 0 1 .13-.04l.87.23a.1.1 0 0 0 .05 0 .1.1 0 0 0 .05-.03l.37-.36a.1.1 0 0 0 .02-.1l-.28-.76a.1.1 0 0 1 .05-.13l.75-.43A.12.12 0 0 1 6 4.52c.03 0 .05.01.07.03l.55.54a.15.15 0 0 0 .13.04c.27-.06.69-.1.8-.43l.16-.57c0-.03.02-.05.04-.07a.13.13 0 0 1 .08-.03h.75a.1.1 0 0 1 .06.01.1.1 0 0 1 .03.05l.31.83a.07.07 0 0 0 .05.04l.7.19a.17.17 0 0 0 .16-.04l.3-.29a.06.06 0 0 1 .08.01l.02.03v.77c0 .03 0 .05-.02.08a.18.18 0 0 1-.06.07l-.5.3a.19.19 0 0 1-.14.03 4.64 4.64 0 0 0-3.05.46c-1.64 1-1.68 3.32-.33 4.57a3.13 3.13 0 0 0 3.18.55.13.13 0 0 1 .1.07l.01.06v.98c0 .06-.06.14-.12.15l-.06.01c-.13-.02-.29.1-.4.37-.09.23-.14.4-.15.5 0 .04-.02.08-.06.11a.2.2 0 0 1-.12.05l-.84.01a.13.13 0 0 1-.1-.04.12.12 0 0 1-.03-.1c.03-.2 0-.47-.13-.8a.14.14 0 0 0-.04-.06.15.15 0 0 0-.07-.03l-.53-.06c-.04-.01-.08 0-.11.02-.19.1-.3.27-.34.5a.14.14 0 0 1-.07.1.15.15 0 0 1-.12.01l-.82-.32a.16.16 0 0 1-.09-.08.16.16 0 0 1 0-.11l.21-.8a.14.14 0 0 0-.02-.12c-.4-.51-.66-.34-1.18-.14a.25.25 0 0 1-.18 0 .25.25 0 0 1-.14-.14l-.36-.53Z" fill="#828489"/><path d="m8.76 7.2 1.92-1.26a.14.14 0 0 0 .06-.1c.06-.41.03-.74-.08-.98-.3-.63.7-.55 1.03-.44a.2.2 0 0 1 .08.05.21.21 0 0 1 .05.2l-.05.08a.64.64 0 0 0-.17.53l.01.03.03.02a.06.06 0 0 0 .06 0L13.9 4a.05.05 0 0 1 .08.02l.02.02V14h-3.89c-.04 0-.1-.04-.1-.08v-6.6l-.02-.06a.07.07 0 0 0-.06-.03l-1.16.02h-.01l-.01-.02v-.04Z" fill="#109FD4"/><path d="M12 6.81h.59c.05 0 .1.02.15.04.27.13.33.38.19.7a.32.32 0 0 1-.14.14.42.42 0 0 1-.2.06h-1.01c-.41 0-.58-.14-.57-.47l.01-.04a.1.1 0 0 1 .03-.04l.05-.02h.05c.04 0 .07.01.1.04.02.02.03.05.03.08 0 .12.05.14.14.14h1.14c.17 0 .2-.2.1-.29a.15.15 0 0 0-.08-.03h-1.17a.37.37 0 0 1-.15-.03c-.27-.13-.33-.38-.19-.7.03-.06.08-.1.14-.14a.42.42 0 0 1 .2-.06h1.01c.41 0 .58.14.57.47l-.01.04a.1.1 0 0 1-.03.03.13.13 0 0 1-.05.02h-.05a.15.15 0 0 1-.1-.03.11.11 0 0 1-.03-.08c0-.12-.04-.14-.14-.14h-1.14c-.17 0-.2.2-.1.29l.08.02H12Z" fill="#fff"/><path d="M8.24 10.4a.06.06 0 0 0-.04.06l.02.03.03.02.12.03a.3.3 0 0 0 .2-.02c.17-.07.32-.2.49-.38l.02-.01h.03l.02.02v.03c-.37 1.17-2.29.87-1.98-.54a3.66 3.66 0 0 1 .94-1.77.06.06 0 0 1 .07.01c.37.54.89 1.22 1.01 1.88a.13.13 0 0 1-.04.12l-.27.24a.35.35 0 0 1-.1.06l-.52.22Z" fill="#109FD4"/><path d="M12.77 8.87v.06c0 .03-.04.07-.09.07h-1.31c-.04 0-.08.04-.08.07v.18l.02.04c.02.02.04.02.06.02h1.48c.02 0 .04 0 .06.02l.05.02.03.05v.08c0 .04-.01.08-.04.1a.18.18 0 0 1-.11.04h-1.72c-.03 0-.06 0-.08-.02a.09.09 0 0 1-.03-.06 16.5 16.5 0 0 1 .03-1.45.12.12 0 0 1 .08-.03h1.72c.04 0 .08.03.11.05.03.03.05.06.05.1 0 .07-.02.13-.09.16a.17.17 0 0 1-.06 0h-1.48l-.05.02a.06.06 0 0 0-.03.05v.19c0 .01 0 .03.02.04l.05.02h1.32c.05 0 .1.05.1.09v.09ZM11.28 10.72v.33c0 .02 0 .03.02.05 0 .02.02.03.03.05.02 0 .03.02.05.03H12.55a.2.2 0 0 0 .11-.02.16.16 0 0 0 .07-.09c.03-.07.12-.09.2-.06l.05.05a.1.1 0 0 1 .02.06c-.04.5-.87.37-1.44.36-.6 0-.56-.35-.56-.76 0-.4-.04-.75.55-.76.57 0 1.4-.14 1.44.35a.1.1 0 0 1-.01.06c-.05.08-.22.07-.25-.02-.03-.07-.1-.1-.18-.1h-1.11l-.06.01a.16.16 0 0 0-.05.03.14.14 0 0 0-.04.05v.38ZM11.36 13.04l.03.02h1.46l.06.01c.02 0 .03.02.05.03l.03.04c.02.05 0 .16-.04.2a.18.18 0 0 1-.11.03 126.37 126.37 0 0 1-1.82-.01l-.02-.02v-1.4c0-.03.02-.06.05-.09a.18.18 0 0 1 .1-.04h.02l.06.01c.02 0 .04.01.05.03.02 0 .03.02.04.03l.01.05a307.14 307.14 0 0 0 .03 1.11Z" fill="#fff"/></svg>