<!-- by TradingView --><svg width="56" height="56" viewBox="0 0 56 56" xmlns="http://www.w3.org/2000/svg"><path fill="#F0F3FA" d="M0 0h56v56H0z"/><ellipse cx="28" cy="28" rx="22.5" ry="8" fill="#E0CD31"/><path fill-rule="evenodd" d="M28 37c12.7 0 23-4.03 23-9s-10.3-9-23-9-23 4.03-23 9 10.3 9 23 9Zm0-1c12.43 0 22.5-3.58 22.5-8S40.43 20 28 20 5.5 23.58 5.5 28s10.07 8 22.5 8Z" fill="#080321"/><path d="M37 24h-.79L38 23v4.94l1.76-1.49h-.46V26h2.1v.45h-.78l-1.98 1.66 2.21 2.5h.55V31h-2.1v-.39h.59L38 28.73v1.87h.88v.4h-2.67v-.4H37V24Zm-2.5.07a.53.53 0 0 0 0-1.06c-.3 0-.54.24-.54.53 0 .29.24.53.53.53ZM33.15 27H34v3.61h-.84V31h2.67v-.39H35V26l-1.84 1ZM15 23.54v.43h1v6.58h-1v.43h3v-.43h-1v-2.87h1.38c1.16 0 2.1-.93 2.1-2.07 0-1.14-.94-2.07-2.1-2.07H15Zm2 2.93v-2.51h.81c.94 0 1.69.75 1.69 1.67 0 .91-.75 1.66-1.67 1.66a.83.83 0 0 1-.83-.82Zm5 .4h-.86L23 26v.85c.24-.39.66-.85 1.14-.85.74 0 .74.3.74.43v.01c0 .12-.02.41-.43.41-.33 0-.45-.22-.47-.34-.25.07-.7.28-.98.66v3.44h.81V31h-2.67v-.39H22v-3.73Zm3.31.42c.05-.43.5-1.29 1.96-1.29 1.47 0 1.8 1.14 1.73 1.72v2.6c-.02.2-.04.46.53-.11 0 .25-.16.75-.8.75-.52 0-.7-.3-.73-.56a3.1 3.1 0 0 1-1.72.6c-.88 0-1.17-.78-1.2-1.17 0-1.12 1.84-1.98 2.92-2.32v-.09c-.03-.33-.23-1-1.01-1s-.81.5-.73.76c0 .18-.08.54-.52.54-.43 0-.47-.29-.43-.43Zm2.69.66a6.8 6.8 0 0 0-1.96 1.25c-.46.6-.1 1.32.7 1.32.51 0 .98-.28 1.26-.5v-2.07Zm2.96-2.25v.3h-.83v.5h.83v3.37c0 .55.3 1.13 1.16 1.13.7 0 .85-.48.84-.72-.56.6-.83.2-.96-.08v-3.7h1.03V26H32v-1.5s-.73.8-1.04 1.2Z"/></svg>