<!-- by TradingView --><svg width="18" height="18" viewBox="0 0 18 18" xmlns="http://www.w3.org/2000/svg"><path fill="#F0F3FA" d="M0 0h18v18H0z"/><path d="m9.08 5.92-.26 1.41c-.08.43.11.66.57.67h1.9c.4 0 .72.01.92.1.6.23.74.85.63 1.41-.2 1.08-.47 2.4-.72 3.64-.14.68-.74.85-1.4.85h-5.7c-.85 0-1.11-.49-1-1.21.13-.76.27-1.32.38-2.07 0-.03.02-.05.06-.05h3.56c.03 0 .04 0 .04.03-.04.3-.13.48-.21.93-.06.3.1.5.45.52.28.01.41-.12.45-.36.1-.63.23-1.31.3-1.8.04-.29-.1-.43-.4-.43H5.27c-.54 0-.66-.33-.56-.74.34-1.4.62-2.67.96-4.05.12-.51.48-.77 1.08-.77h6.05c.78 0 1.34.27 1.15 1.1a342.72 342.72 0 0 0-.5 2.22l-.04.01H9.73l-.03-.06.24-1.32c.08-.42-.78-.44-.86-.03Z" fill="#001452"/></svg>