<!-- by TradingView --><svg width="18" height="18" viewBox="0 0 18 18" xmlns="http://www.w3.org/2000/svg"><path fill="#1F3A93" d="M0 0h18v18H0z"/><path d="M3 6v6h1.56V9.5l.88 2.5h1.02l.98-2.5V12H9V6H7.66L6.02 9.94 4.34 6H3ZM10.13 10.07a9.14 9.14 0 0 0-.63 1.22c.17.22.8.71 2.04.71 1.55 0 2.46-.6 2.46-1.75 0-1.14-1-1.72-1.83-1.82-.83-.1-1.1-.38-1.1-.6 0-.23.14-.62.83-.62.55 0 1.06.41 1.24.62l.63-1c-.5-.64-1.25-.83-1.97-.83s-2.1.4-2.1 1.83c0 1.42 1.3 1.78 1.84 1.79.55 0 1.08.23 1.08.63s-.3.53-1.15.53c-.68 0-1.18-.47-1.34-.7Z" fill="#fff"/><path fill="#C83660" d="M14.5 10.5H16V12h-1.5z"/></svg>