<!-- by TradingView --><svg width="18" height="18" viewBox="0 0 18 18" xmlns="http://www.w3.org/2000/svg"><path fill="#F0F3FA" d="M0 0h18v18H0z"/><path d="m8.79 4.08.08.04h.06a4.25 4.25 0 0 1 1.59.78l.05.02 1.76.05c.38.31.71.68.98 1.11l-1.74-.02a4.56 4.56 0 0 1 .7 2.08v.44a4.6 4.6 0 0 1-2.63 4.06v-.68c0-.18 0-.32.03-.41.1-.43.28-.76.64-1 .1-.06.3-.14.43-.23l.03-.02a2.2 2.2 0 0 0 0-3.6 2.08 2.08 0 0 0-2.95.62l-.2.34a1.75 1.75 0 0 1-1.12.8c-.14.03-.31.04-.51.04H5.2v-.11a4.53 4.53 0 0 1 3.59-4.31Z" fill="url(#a)"/><path d="M8.79 4.08a4.33 4.33 0 0 1 4.54 2.02A4.5 4.5 0 0 1 14 8.54v.06a4.52 4.52 0 0 1-.9 2.63 4.3 4.3 0 0 1-3.46 1.76v-.35a4.72 4.72 0 0 0 2.26-2.3l.02-.06c.23-.54.35-1.1.36-1.7l-.02-.44v-.06a4.56 4.56 0 0 0-2.68-3.73 4.25 4.25 0 0 0-.8-.27Z" fill="url(#b)"/><path d="M5.28 10.61c.3-.4.77-.63 1.27-.6 1.25.08 1.82 1.63.94 2.55-.31.31-.7.46-1.14.43H5v-1.62c.03-.28.12-.53.28-.76Z" fill="url(#c)"/><defs><linearGradient id="a" x1="6.7" y1="9.23" x2="12" y2="7.26" gradientUnits="userSpaceOnUse"><stop stop-color="#3291D1"/><stop offset="1" stop-color="#AFEAFA"/></linearGradient><linearGradient id="b" x1="11.39" y1="4" x2="11.39" y2="13" gradientUnits="userSpaceOnUse"><stop stop-color="#ACE8F9"/><stop offset=".53" stop-color="#3798D4"/><stop offset="1" stop-color="#146CC2"/></linearGradient><linearGradient id="c" x1="7.38" y1="10.69" x2="4.95" y2="12.94" gradientUnits="userSpaceOnUse"><stop stop-color="#146CC2"/><stop offset="1" stop-color="#3C9FD7"/></linearGradient></defs></svg>