<!-- by TradingView --><svg width="18" height="18" viewBox="0 0 18 18" xmlns="http://www.w3.org/2000/svg"><path fill="url(#a1aaq21al)" d="M0 0h18v18H0z"/><path fill-rule="evenodd" d="M9 15A6 6 0 1 0 9 3a6 6 0 0 0 0 12Zm-1-3.69v3.19A5.6 5.6 0 0 1 3.5 10h3.2c.24.59.71 1.06 1.3 1.3ZM6.7 8c.24-.59.71-1.06 1.3-1.3V3.5A5.6 5.6 0 0 0 3.5 8h3.2Zm7.8 0h-3.2A2.53 2.53 0 0 0 10 6.7V3.5A5.6 5.6 0 0 1 14.5 8Zm0 2a5.6 5.6 0 0 1-4.5 4.5V11.3A2.53 2.53 0 0 0 11.3 10h3.2ZM9 11a2 2 0 1 0 0-4 2 2 0 0 0 0 4Zm0-.3a1.7 1.7 0 1 0 0-3.4 1.7 1.7 0 0 0 0 3.4Z" fill="#fff"/><defs><linearGradient id="a1aaq21al" x1="9" y1="0" x2="9" y2="18" gradientUnits="userSpaceOnUse"><stop stop-color="#0CA697"/><stop offset="1" stop-color="#042B4F"/></linearGradient></defs></svg>