<!-- by TradingView --><svg width="56" height="56" viewBox="0 0 56 56" xmlns="http://www.w3.org/2000/svg"><path fill="#F0F3FA" d="M0 0h56v56H0z"/><path d="M14.1 30h2.33l-.72 1.46c-.13.18-.48.54-.86.54-.48 0-1-.5-1-1.15 0-.29.17-.69.25-.85Zm8.75 0h-2.33l.71 1.46c.14.18.5.54.87.54.48 0 1-.5 1-1.15 0-.29-.17-.69-.25-.85Z" fill="#898989"/><path d="M4 30.89v-5.77C4 24.5 4.45 24 5 24c.34 0 .66.18.84.5l2.68 4.39 2.7-4.42c.18-.3.49-.47.8-.47.54 0 .98.48.98 1.08v5.82c0 .6-.44 1.1-1 1.1-.54 0-.98-.5-.98-1.1v-2.01l-1.62 2.6c-.2.32-.53.51-.88.51-.36 0-.69-.2-.89-.51L6 28.89v2C6 31.5 5.55 32 5 32c-.54 0-.99-.5-.99-1.11Zm10.23-1.39h2.34l1.88-3.35 1.92 3.35h2.38l-2.57-4.49a1.96 1.96 0 0 0-3.43.02l-2.52 4.47ZM24 25.06v5.86c0 .6.45 1.08 1 1.08.56 0 1-.48 1-1.08V27c0-.47.36-1 .8-1h3c.12 0 .2.1.2.22v.52c0 .12-.08.26-.2.26h-2.18a.97.97 0 0 0-.97 1c0 .3.13.6.35.8l3.26 2.93c.2.18.43.27.68.27H31c.56 0 1.01-.49 1.01-1.08 0-.33-.13-.63-.36-.84L30.56 29h.35c.66 0 1.09-.45 1.09-1.16v-2.57c0-.7-.32-1.27-.97-1.27h-6.04c-.55 0-.99.48-.99 1.06Zm9 .08v4.12c0 1.7 1.19 2.74 2.65 2.74h2.7c1.46 0 2.65-1.04 2.65-2.74v-4.12c0-.63-.46-1.14-1-1.14s-1 .5-1 1.14v4.4c0 .23-.13.46-.34.46h-3.32c-.21 0-.34-.23-.34-.47v-4.4c0-.62-.46-1.13-1-1.13s-1 .5-1 1.14ZM42.6 24c-.6 0-1.1.45-1.1 1s.5 1 1.1 1h1.9v4.84c0 .64.45 1.16 1 1.16s1-.52 1-1.16V26h1.9c.6 0 1.1-.45 1.1-1s-.5-1-1.1-1h-5.8Zm7.4 6.84c0 .64.45 1.16 1 1.16s1-.52 1-1.16v-5.68c0-.64-.45-1.16-1-1.16s-1 .52-1 1.16v5.68Z" fill="#16549F"/></svg>