<!-- by TradingView --><svg width="56" height="56" viewBox="0 0 56 56" xmlns="http://www.w3.org/2000/svg"><path fill="#F0F3FA" d="M0 0h56v56H0z"/><path d="M14.88 36.53 28 29l12.52 7.08c-1.97 2.69-7.5 7.82-13.92 6.85-6.41-.98-10.48-4.67-11.72-6.4Zm12.4 2.26a.6.6 0 0 1-.28.06V39h2.8l.2-1.34h-.14c-.15.45-.32.76-.51.92-.2.15-.45.23-.74.23-.16 0-.27-.02-.33-.06-.05-.04-.08-.13-.08-.26v-2.8c0-.23.03-.38.1-.44.06-.06.2-.1.4-.1V35H27v.15c.14.01.24.03.3.07.08.06.13.18.13.35v2.86c0 .18-.05.3-.15.36Z" fill="#3D76B3"/><path fill-rule="evenodd" d="M29 12v15.49l12.6 7.42c1.34-3.12 2.91-10.58-1.15-15.78-4.07-5.2-9.33-6.92-11.45-7.13Zm4.18 12.6H33V26h.18a.46.46 0 0 1 .07-.14c.02-.04.06-.06.13-.06l.07.01.08.02.12.04a2.2 2.2 0 0 0 .77.13c.55 0 .95-.13 1.2-.38s.38-.52.38-.8c0-.31-.12-.57-.35-.78-.12-.12-.3-.22-.5-.31l-.47-.21c-.4-.18-.65-.31-.77-.4-.11-.09-.17-.22-.17-.4 0-.15.06-.28.18-.38.13-.1.3-.16.5-.16.31 0 .57.1.78.31.21.2.36.45.44.74h.18V22h-.2a.45.45 0 0 1-.06.14c-.02.04-.07.06-.14.06l-.37-.1c-.21-.06-.44-.1-.67-.1-.45 0-.79.13-1 .37-.23.24-.34.5-.34.77 0 .26.09.48.25.65.17.18.45.36.86.54l.4.18c.26.11.43.2.5.27.14.1.2.25.2.41 0 .15-.06.29-.18.42s-.33.2-.61.2c-.3 0-.56-.1-.79-.29-.22-.2-.39-.5-.49-.92Z" fill="#C7B8D4"/><path d="M27 12.43v15.1l-12.23 7.33c-1.32-3.04-2.97-10.4 1.02-15.47 3.98-5.07 9.13-6.75 11.21-6.96Zm-7.6 13.3c-.07.07-.2.11-.4.12V26h1.96v-.15c-.2 0-.34-.05-.4-.12-.07-.07-.1-.21-.1-.42v-1.16h.15L21.8 26H23v-.14a.48.48 0 0 1-.13-.03.25.25 0 0 1-.1-.09l-1.17-1.69c.2-.03.38-.12.56-.26a.92.92 0 0 0 .35-.76c0-.44-.23-.74-.7-.9a2.95 2.95 0 0 0-.94-.13H19v.15c.2.02.33.05.38.1.09.07.13.21.13.44v2.62c0 .22-.04.36-.1.43Zm1.87-1.93c-.17.1-.44.15-.82.16v-1.5c0-.1.03-.16.07-.2.05-.04.15-.06.31-.06.29 0 .48.11.59.34.06.13.1.31.1.54 0 .37-.09.61-.25.72Z" fill="#00A8EB"/><path d="M27 12.01a16.01 16.01 0 0 0-13.17 23.41l1.73-1A14 14 0 0 1 27 14.03v-2.02ZM28 44a16 16 0 0 1-13.43-7.3l1.73-1a13.99 13.99 0 0 0 23.45-.08l1.73 1A15.97 15.97 0 0 1 28.01 44Zm14.24-8.7A16 16 0 0 0 29 12v2.03A14 14 0 0 1 40.5 34.3l1.74 1Z" fill="#A3B8D5"/></svg>