<!-- by TradingView --><svg width="56" height="56" viewBox="0 0 56 56" xmlns="http://www.w3.org/2000/svg"><path fill="#F0F3FA" d="M0 0h56v56H0z"/><path d="m47 24.84-.92 3.79h1.8l-.89-3.79ZM48.8 23 52 32h-3.19l-.56-1.58H45.7L45.2 32H42l3.25-9h3.56ZM25 23h7v2h-4v1.45h3.61v1.84H28V30h4v2h-7v-9ZM17 23h7v2h-4v1.45h3.61v1.84H20V30h4v2h-7v-9ZM4 23h4.29l1.7 5.33h.03L11.65 23H16v9h-3v-6.12L11.18 32H8.82L7 25.88V32H4v-9ZM37.55 23H33v5h3.67c.46 0 .82.18.9.66.04.16.05.53.05.78 0 .64 0 1.51.11 2.14.05.16.1.3.18.42H41v-.13a.69.69 0 0 1-.2-.12 1.1 1.1 0 0 1-.25-.67 4.15 4.15 0 0 1-.02-.37v-1.13c0-.6-.13-1.08-.39-1.42-.26-.35-.74-.55-1.44-.6v-.02c1.2-.15 1.9-.93 1.9-2.14 0-1.76-1.5-2.4-3.05-2.4Zm-1.07 3.8H36V24.7h.47c.71 0 1.23.27 1.23 1.05 0 .72-.54 1.07-1.22 1.07Z" fill="#25529A"/><path d="M36 28v4h-3l3-4Z" fill="#DF7537"/></svg>