<!-- by TradingView --><svg xmlns="http://www.w3.org/2000/svg" width="18" height="18"><path fill="#EB1418" d="M0 0h18v18H0z"/><path d="M8.9 14c2.56 0 4.1-1.35 4.1-3.35 0-1.82-2-2.37-3.36-2.6-1.47-.27-2.2-.74-2.2-1.67C7.44 5.5 8.12 5 9.25 5c.79 0 1.38.22 1.78.79.23.34.32.71.76.71.38 0 .47-.23.47-.81 0-.62-.13-.92-.57-1.15A5.5 5.5 0 009.14 4C6.81 4 5.3 5.39 5.3 7.19c0 2 1.84 2.56 3.38 2.8 1.52.27 2.24.55 2.24 1.48 0 .89-.72 1.53-2.03 1.53-.99 0-1.8-.48-2.24-1.18-.27-.43-.34-.91-.87-.91a.76.76 0 00-.77.74c0 .37.32.97.91 1.45.77.63 1.76.9 3 .9z" fill="#fff"/></svg>