<!-- by TradingView --><svg width="56" height="56" viewBox="0 0 56 56" xmlns="http://www.w3.org/2000/svg"><path fill="#F0F3FA" d="M0 0h56v56H0z"/><path d="M28.38 39.93a1 1 0 1 0-.76 0V42h.76v-2.07Z" fill="#F91002"/><path fill-rule="evenodd" d="M36.94 42.4c1.15-.8 2.2-1.72 3.12-2.77h-4.33l1.2 2.76Zm-1.82-4.15h6c.36-.5.68-1.02.97-1.56h-7.65l.68 1.56Zm-1.29-2.93h8.91a16 16 0 0 0 .57-1.56H33.15l.68 1.56Zm-1.29-2.94h11.12c.08-.39.15-.79.2-1.19H32.02l.52 1.2Zm-20.52-2.57h31.96a16.47 16.47 0 0 0 .02-1H12a16.37 16.37 0 0 0 .02 1Zm.05-2.3h31.86l-.12-.95H12.19l-.12.94Zm.34-2.08H43.6l-.25-.95H12.66c-.1.31-.17.63-.25.95Zm.6-2h29.98l-.3-.74H13.31l-.3.75Zm.8-1.78H42.2l-.43-.77H14.23c-.15.25-.3.5-.43.77Zm1.02-1.71h26.34c-.2-.3-.42-.6-.65-.88H15.48c-.23.29-.44.58-.65.88Zm1.34-1.7h23.66c-.23-.25-.47-.5-.72-.73H16.9c-.25.24-.49.48-.72.74Zm20.9-2.4c.43.29.84.6 1.23.93H17.7c.4-.33.8-.64 1.22-.94h18.16Zm-2.67-1.5c.63.27 1.23.58 1.8.93H19.8c.57-.35 1.17-.66 1.8-.93h12.8ZM28 13c1.72 0 3.38.27 4.93.78h-9.86c1.55-.5 3.21-.78 4.93-.78ZM12.34 32.38c-.08-.39-.15-.79-.2-1.19h11.62l-.52 1.2h-10.9Zm13.02 0-.87-1.19h6.8l-.88 1.2h-5.05Zm1 1.38h3.03l-1.42 1.93L30 39.63A2.32 2.32 0 0 1 27.95 43h-.11a2.3 2.3 0 0 1-2.05-3.37l2-3.92-1.43-1.95Zm-13.67 0h9.94l-.68 1.56h-8.7a16 16 0 0 1-.56-1.56Zm1.22 2.93h7.43l-.68 1.56h-5.79c-.34-.5-.67-1.02-.96-1.56Zm2.03 2.94h4.12l-1.17 2.65a16.1 16.1 0 0 1-2.95-2.65Zm10.2.19 1.75-3.41 1.74 3.4a1.91 1.91 0 0 1-1.68 2.78h-.11a1.9 1.9 0 0 1-1.7-2.77Z" fill="#0D9334"/></svg>