<!-- by TradingView --><svg width="56" height="56" viewBox="0 0 56 56" xmlns="http://www.w3.org/2000/svg"><path fill="#F0F3FA" d="M0 0h56v56H0z"/><path d="M28.27 10c-.18.93-.27 1.88-.27 2.83 0-.95-.09-1.9-.27-2.83L10 27.73c.93.18 1.88.27 2.83.27-.95 0-1.9.09-2.83.27L27.73 46a15.15 15.15 0 0 0-14.9-18c3.88 0 7.76-1.48 10.73-4.44A15.12 15.12 0 0 0 28 12.83c0 3.88 1.48 7.77 4.44 10.73A15.12 15.12 0 0 0 43.17 28a15.15 15.15 0 0 0-14.9 18L46 28.27c-.93-.18-1.88-.27-2.83-.27.95 0 1.9-.09 2.83-.27L28.27 10ZM24.1 31.89a5.5 5.5 0 1 0 7.78-7.78 5.5 5.5 0 0 0-7.78 7.78Z" fill="#1E82B6"/></svg>