<!-- by TradingView --><svg width="56" height="56" viewBox="0 0 56 56" xmlns="http://www.w3.org/2000/svg"><path fill="#F0F3FA" d="M0 0h56v56H0z"/><path d="M48.13 31c-1.59 0-2.13-.62-2.13-2.07V25h-1v-1h1v-3h2v3h2v1h-2v3.75c0 .47.77.66 1.3.66a5.2 5.2 0 0 0 .7-.06v1.56l-.66.05c-.28.03-.92.04-1.22.04ZM41 31v-6h-1v-1h1v-.84c0-1.55.55-2.16 1.92-2.16a9.71 9.71 0 0 1 1.08.06v1.42a1.95 1.95 0 0 0-.25-.03 1.27 1.27 0 0 0-.25-.03c-.39 0-.5.2-.5.66V24h1v1h-1v6h-2ZM36 31c-1.73 0-3-.9-3-2.6v-2.8c0-1.7 1.28-2.6 3-2.6 1.7 0 3 .91 3 2.6v2.8c0 1.7-1.3 2.6-3 2.6Zm0-1c.64 0 1-.71 1-1.46v-3.07c0-.76-.36-1.47-1-1.47s-1 .71-1 1.47v3.07c0 .75.35 1.46 1 1.46Z" fill="#02C4FF"/><path d="M13 31v-8h2v1.37c.39-.7.91-1.37 1.7-1.37a.8.8 0 0 1 .3.04v2.46c-.2-.1-.46-.16-.72-.16-.5 0-.92.16-1.28.66v5h-2ZM9.06 31C7.09 31 6 29.89 6 28.3v-2.6C6 24.13 7.1 23 9.06 23c2 0 2.94 1.17 2.94 2.76V28H8v.6c0 .43.38.9 1 .9.58 0 1-.38 1-.79h2C12 30.28 10.94 31 9.06 31ZM8 27h2v-1.5c0-.5-.33-1.04-.96-1.04C8.37 24.46 8 25 8 25.5V27Z" fill="#545454"/><path d="M20 35h-2V23h2v12Zm5-8c0 1.95-.83 4-3.08 4-2.12 0-2.86-1.39-3.09-3.24v-.53c.22-1.85.9-4.23 3.1-4.23C24.2 23 25 25 25 27Zm-2 0c0-1.1-.24-2.34-1.59-2.34-1.22 0-1.67 1.61-1.75 2.71v.39c.11 1.06.58 1.6 1.75 1.6 1.35 0 1.59-1.27 1.59-2.36Z" fill="#4D4D4D"/><path d="M30.3 28.75c0-.74-.92-.96-1.52-1.1-1.25-.28-2.55-.91-2.55-2.3 0-1.46 1.38-2.35 2.81-2.35 1.53 0 2.93.7 2.93 2.27l-1.75.02c0-.67-.5-.94-1.19-.94-.57 0-1.1.33-1.1.92 0 .7.83.88 1.4 1.01 1.34.29 2.67.9 2.67 2.38C32 30.2 30.51 31 29.05 31 27.5 31 26 30 26 28.43h1.67c.04.77.62 1.22 1.4 1.22.6 0 1.23-.26 1.23-.9Z" fill="#00C7FD"/></svg>