<!-- by TradingView --><svg width="18" height="18" viewBox="0 0 18 18" xmlns="http://www.w3.org/2000/svg"><path fill="#F0F3FA" d="M0 0h18v18H0z"/><path d="M6.5 4.03c.1-.04.21-.04.33 0l4.5 1.42c.25.08.49.28.68.49l2.9 3.11c.05.06.09.14.09.23 0 .2-.24.18-.4.17-.45-.02-1.84-.15-4.19-.36a2.13 2.13 0 0 1-1.13-.42 3.47 3.47 0 0 1-.7-.95L6.8 4.68a10.67 10.67 0 0 1-.32-.62.05.05 0 0 1 .02-.03Z" fill="#AFCD53"/><path d="M5.5 13.22c-.05-.04-.1-.14-.14-.3L4.03 8.46a.87.87 0 0 1 .05-.57c.78-2 1.2-3.04 1.23-3.11.21-.48.53-.09.66.15l2.09 3.73c.32.57.1 1.04-.29 1.62a318.18 318.18 0 0 1-2.01 2.95.23.23 0 0 1-.18.02.23.23 0 0 1-.08-.03Z" fill="#57BCED"/><path d="M6.62 13.98a.23.23 0 0 1-.11-.14.21.21 0 0 1 .03-.17l1.94-2.9c.38-.57.74-.96 1.41-.9 2.47.17 3.93.28 4.4.3.27.03.77.14.4.53l-2.44 2.35a.94.94 0 0 1-.52.28l-4.77.65c-.18.03-.29.03-.34 0Z" fill="#EFEB59"/></svg>