<!-- by TradingView --><svg width="56" height="56" viewBox="0 0 56 56" xmlns="http://www.w3.org/2000/svg"><path fill="#F0F3FA" d="M0 0h56v56H0z"/><path d="M30.88 14h-5.76c-.07 0-.12.04-.12.08v.84c0 .04.05.08.12.08h5.76c.07 0 .12-.04.12-.08v-.84c0-.04-.05-.08-.12-.08ZM12.17 33.32c1.5.52 3.85-.47 3.4-2.27-.3-1.14-1.13-2.02-2.04-2.83-2.75-2.45-2.63-6.5-.52-9.31 2.03-2.7 4.93-3.93 8.7-3.66a.1.1 0 0 1 .04 0 .08.08 0 0 1 .04.06v.03l-.83 4.71c0 .03-.02.05-.04.07a.14.14 0 0 1-.08.03c-1.7.12-3.8.64-3.03 2.8a4.4 4.4 0 0 0 2.05 2.45c.08.05.12.12.1.21l-2.31 12.9c0 .05-.03.09-.06.11a.2.2 0 0 1-.13.05 24.62 24.62 0 0 1-8.44-1.12.1.1 0 0 1-.02-.07l1.06-5.92a.55.55 0 0 1 .06-.17l.02-.03a.07.07 0 0 1 .07 0l.02.03c.38.81 1.05 1.62 1.94 1.93ZM36.07 20.67l-.2 5.47a3 3 0 0 1-.07.55c-.03.14-.05.14-.07 0-.07-.65-.17-1.32-.3-2.02a927 927 0 0 1-1.25-7.26 22.6 22.6 0 0 1-.27-2.34.1.1 0 0 1 .06-.06h.04l5.34-.01c.03 0 .06 0 .08.03.03.01.04.04.05.06L47 38.85a.1.1 0 0 1-.02.1.11.11 0 0 1-.04.03l-.05.02h-6.14a.24.24 0 0 1-.15-.05.23.23 0 0 1-.08-.13l-.66-2.76c-.01-.05-.05-.06-.1-.06H37.5c-.06 0-.1-.04-.1-.1l-.86-4.76c-.01-.1.03-.14.13-.14h1.47c.1 0 .13-.05.11-.14l-2.1-10.2c-.05-.23-.08-.23-.1.01ZM31.9 39h-7.8c-.06 0-.1.05-.1.11v1.78c0 .06.04.11.1.11h7.8c.06 0 .1-.05.1-.11V39.1c0-.06-.04-.11-.1-.11Z" fill="#8A3940"/><path d="m37.37 38-4.26-22H27.9l.34 22h9.13Z" fill="url(#amjokvap3)"/><defs><linearGradient id="amjokvap3" x1="35.14" y1="27" x2="27.9" y2="27" gradientUnits="userSpaceOnUse"><stop stop-color="#8A3940"/><stop offset="1" stop-color="#8A3940" stop-opacity="0"/></linearGradient></defs></svg>