<!-- by TradingView --><svg width="56" height="56" viewBox="0 0 56 56" xmlns="http://www.w3.org/2000/svg"><path fill="#F0F3FA" d="M0 0h56v56H0z"/><path fill-rule="evenodd" d="M6 23v5h.81v-1.49l.5-.65L8.64 28h.98l-1.75-2.76L9.6 23h-.99l-1.74 2.3H6.8V23H6Zm4 5v-5h3.25v.76h-2.34v1.36h2.17v.76h-2.17v1.36h2.36V28H10Zm8-5v5h-.78l-2.3-3.4h-.04V28H14v-5h.79l2.29 3.4h.04V23H18Zm2 0v5h.85v-2.12h1.94v-.76h-1.94v-1.36H23V23h-3Zm4 0v5h-.8v-5h.8Zm6.25 5h-.86l1.57-5h1l1.58 5h-.86l-.37-1.23h-1.69L30.25 28Zm1.23-3.97.6 1.97h-1.22l.59-1.97h.03ZM44.33 28h-.83l1.52-5h.96l1.52 5h-.83l-.36-1.23h-1.62L44.33 28Zm1.19-3.97.58 2.01h-1.2l.58-2.01h.04ZM29 28v-5h-.88v3.4h-.04l-2.3-3.4H25v5h.88v-3.4h.04l2.3 3.4H29Zm14 0v-5h-.8v5h.8Zm5.79-.73V23H48v5h3v-.73h-2.21Zm-11 .73v-5h-.87v3.4h-.04l-2.3-3.4h-.78v5h.88v-3.4h.04l2.3 3.4h.78Zm4.1-3.96-.72.33a1.02 1.02 0 0 0-.26-.34.92.92 0 0 0-.3-.18 1.1 1.1 0 0 0-.38-.06c-.24 0-.45.07-.64.2-.18.13-.32.33-.43.58-.1.25-.15.56-.15.93s.05.69.15.94c.1.25.25.45.43.58.19.12.4.19.64.19.13 0 .25-.02.36-.06a.97.97 0 0 0 .55-.45l.06-.12.67.41a1.76 1.76 0 0 1-1.65 1 1.84 1.84 0 0 1-1.75-1.14 3.17 3.17 0 0 1-.26-1.35c0-.52.08-.97.26-1.35.18-.37.41-.65.72-.85a1.98 1.98 0 0 1 1.7-.18 1.7 1.7 0 0 1 1 .92ZM15.62 31.4a.66.66 0 0 0-.26-.48.95.95 0 0 0-.6-.17c-.16 0-.31.02-.43.08a.66.66 0 0 0-.28.22.58.58 0 0 0-.04.6c.05.07.1.13.18.18.08.05.16.1.25.13l.28.09.42.11c.17.04.33.1.5.18.15.07.3.16.42.27a1.21 1.21 0 0 1 .4.95c0 .29-.06.54-.2.75-.13.22-.33.39-.58.51-.26.12-.57.18-.93.18a2.2 2.2 0 0 1-.91-.18 1.39 1.39 0 0 1-.6-.5 1.6 1.6 0 0 1-.24-.83h.8c.02.17.07.31.15.42.09.12.2.2.33.25.14.06.3.09.47.09.17 0 .33-.03.46-.09a.76.76 0 0 0 .32-.24c.08-.1.12-.23.12-.37a.49.49 0 0 0-.1-.3.76.76 0 0 0-.29-.22l-.42-.15-.52-.14c-.37-.1-.66-.26-.88-.47a1.12 1.12 0 0 1-.32-.84c0-.28.07-.53.22-.75.14-.21.34-.38.59-.5.25-.12.53-.18.85-.18.32 0 .6.06.84.18s.43.28.57.5c.14.2.21.45.21.72h-.78ZM21 35v-5h2.07c.35 0 .65.07.89.2s.42.32.54.56c.13.24.19.52.19.84 0 .32-.06.6-.19.83a1.3 1.3 0 0 1-.8.65L25.16 35h-1.2l-1.22-1.83h-.9V35H21Zm1.94-2.58h-1.1v-1.66h1.1c.2 0 .38.03.5.1.14.06.24.16.3.29.07.12.1.27.1.45s-.03.33-.1.45a.62.62 0 0 1-.29.27c-.13.07-.3.1-.5.1Zm19.94-1.5c.15.11.24.28.26.48h.8c0-.27-.08-.51-.22-.72a1.4 1.4 0 0 0-.57-.5 1.9 1.9 0 0 0-.86-.18c-.31 0-.6.06-.85.18s-.45.29-.6.5c-.15.22-.22.47-.22.75 0 .35.1.63.33.84.21.21.51.37.89.47l.51.14.43.15c.13.06.22.13.29.21.07.08.1.19.1.31 0 .14-.04.27-.11.37a.77.77 0 0 1-.32.24c-.14.06-.3.09-.48.09-.17 0-.32-.03-.46-.09a.78.78 0 0 1-.34-.25.77.77 0 0 1-.15-.42h-.81c.01.32.09.6.24.82.14.23.35.4.6.51.27.12.58.18.93.18.37 0 .68-.06.93-.18.26-.12.46-.3.6-.5.13-.22.2-.47.2-.76 0-.2-.04-.4-.11-.55a1.21 1.21 0 0 0-.3-.4c-.13-.11-.27-.2-.43-.27a2.82 2.82 0 0 0-.5-.18l-.43-.11-.28-.09c-.09-.03-.17-.08-.25-.13a.52.52 0 0 1-.25-.45c0-.12.04-.23.1-.33.07-.1.17-.17.29-.22.12-.06.27-.08.44-.08.25 0 .45.05.6.17ZM31 30v5h-.8v-5h.8Zm-5.98 0 1.8 5h.92l1.84-5h-1l-1.26 3.88L26.04 30h-1.02Zm-7.82 5v-5h3.34v.76H18v1.36h2.37v.76H18v1.36h2.56V35H17.2ZM36 30v5h3.36v-.76H36.8v-1.36h2.37v-.76H36.8v-1.36h2.54V30H36Zm-.57 1.04-.74.33-.02-.05a.95.95 0 0 0-.56-.47 1.16 1.16 0 0 0-.38-.06c-.25 0-.47.07-.65.2-.2.13-.34.33-.45.58-.1.25-.16.56-.16.93s.05.69.16.94.26.45.45.58a1.22 1.22 0 0 0 1.03.14 1 1 0 0 0 .61-.58l.69.41c-.1.2-.23.37-.4.52a1.8 1.8 0 0 1-1.3.49 1.93 1.93 0 0 1-1.8-1.15 3.1 3.1 0 0 1-.26-1.35c0-.52.1-.97.27-1.35A1.92 1.92 0 0 1 33.71 30c.25 0 .49.04.7.11a1.75 1.75 0 0 1 1.02.93Z" fill="#121111"/></svg>