<!-- by TradingView --><svg width="56" height="56" viewBox="0 0 56 56" xmlns="http://www.w3.org/2000/svg"><path fill="#F0F3FA" d="M0 0h56v56H0z"/><path fill-rule="evenodd" d="M33.7 15v7H35v-3h2.7v3H39v-7h-1.3v3H35v-3h-1.3Zm6.04 10v-1H45v1h-2.04v6H41.7v-6h-1.96Zm1.71 8 1.52 2.56h.05L44.55 33h1.42l-2.12 3.5L46 40h-1.44l-1.54-2.55h-.05L41.44 40H40l2.17-3.5-2.14-3.5h1.42ZM35 40v-7h4.31v1H36.3v2h2.79v1H36.3v2h3.04v1H35Zm-6-7v1h1.7v6H32v-6h2v-1h-5Zm-4.89 7h-1.28l2.33-7h1.49l2.33 7H27.7l-.63-2h-2.32l-.64 2Zm1.82-5.56.82 2.56h-1.69l.82-2.56h.05ZM17.7 33v7H22v-1h-3v-6h-1.3Zm-1.4 0v7H15v-7h1.3ZM10 33v7h1.3v-3h2.66v-1H11.3v-2h2.95v-1H10Zm24.7-2v-7h4.27v1.06H36V27h2.75v1H36v1.94h3V31h-4.3ZM29 24v7h4.32v-1H30.3v-2H33v-1h-2.7v-2h2.99v-1H29Zm-6 7v-7h2.47c1.35 0 2.33.86 2.33 2.24 0 .95-.47 1.63-1.2 1.96l1.44 2.8h-1.33l-1.3-2.56H24.3V31H23Zm2.3-3.62h-1V25h.99c.75 0 1.3.45 1.3 1.24 0 .78-.55 1.14-1.3 1.14ZM17 24v1.06h2V31h1.25v-5.94h2.05V24H17Zm-2.22 1.96a.92.92 0 0 0-.38-.67 1.4 1.4 0 0 0-.85-.25c-.25 0-.46.04-.64.12a.94.94 0 0 0-.4.32.79.79 0 0 0-.05.82c.06.1.15.2.26.26.1.08.23.14.36.18.13.05.26.1.4.13l.6.16c.25.06.49.14.71.24.23.1.44.23.62.38A1.7 1.7 0 0 1 16 29c0 .4-.1.75-.3 1.05-.19.3-.47.54-.84.7-.37.18-.81.26-1.33.26-.5 0-.95-.08-1.32-.25-.37-.16-.66-.4-.87-.71a2.2 2.2 0 0 1-.34-1.15h1.16c.02.23.09.43.21.59.12.16.28.27.48.35.2.08.42.12.67.12.26 0 .48-.04.67-.12.2-.08.35-.2.46-.34a.84.84 0 0 0 .17-.51.67.67 0 0 0-.15-.44 1.1 1.1 0 0 0-.41-.3 3.84 3.84 0 0 0-.61-.2l-.74-.2a2.94 2.94 0 0 1-1.27-.66c-.31-.3-.47-.69-.47-1.17 0-.4.1-.76.31-1.06.21-.3.5-.53.86-.7.36-.17.77-.25 1.22-.25.47 0 .87.08 1.22.25a2 2 0 0 1 .82.7c.2.3.3.63.31 1.01h-1.13Zm15.99-9.17c.1.14.17.3.23.48h1.24a2.55 2.55 0 0 0-.94-1.64 3.2 3.2 0 0 0-4.12.3c-.28.3-.5.67-.65 1.1-.15.44-.23.93-.23 1.48 0 .72.13 1.34.4 1.86A2.91 2.91 0 0 0 29.42 22c.56 0 1.05-.11 1.48-.34.44-.23.77-.56 1.02-.99.25-.42.37-.93.37-1.51V18h-3v1h1.82c-.01.34-.08.9-.2 1.13a1.4 1.4 0 0 1-.6.56c-.24.14-.54.2-.88.2-.38 0-.71-.09-1-.27-.29-.19-.5-.46-.67-.82-.16-.36-.24-.8-.24-1.3 0-.52.08-.95.24-1.3.16-.36.39-.63.67-.82.28-.18.6-.27.97-.27.2 0 .39.02.56.08a1.48 1.48 0 0 1 .8.6ZM25.3 15v7H24v-7h1.3ZM17 15v7h1.3v-3H21v3h1.3v-7H21v3h-2.7v-3H17Z"/></svg>