<!-- by TradingView --><svg width="56" height="56" viewBox="0 0 56 56" xmlns="http://www.w3.org/2000/svg"><path fill="#F0F3FA" d="M0 0h56v56H0z"/><path d="M41 29.97c0-2.27 1.69-2.93 2.53-2.97.02.06.05.2 0 .26l-.15.18c-.2.26-.32.59-.32.93v2.95c0 .84.82 1.36 1.41 1.36.47 0 .86-.26 1-.39L47 30.94V33h-3.82c-.77 0-2.18-.77-2.18-3.03Z" fill="#2559A4"/><path fill-rule="evenodd" d="M21 22h-8v11h8V22Zm-1 1.26V23h-1.47v.26c.57 0 .47 1.04.47 1.04v4.09L16.13 23H14v.26c.5 0 .66.77.67.97v6.47s-.1 1.04-.67 1.04V32h1.47v-.26c-.45 0-.46-.63-.47-.9V24.58L19.01 32h.32v-7.77c0-.21.18-.97.67-.97ZM12 22.04H4V33h8V22.04Zm-1.08.96H9.44v.25c.57 0 .56 1.02.56 1.02v4.53c0 1.32-.4 2.7-1.53 2.7C7.39 31.5 7 30.11 7 28.8v-4.58c.01-.22.13-.97.62-.97V23H5v.25c.5 0 .59.77.6.97v4.58c0 2.83 1.74 3.2 2.71 3.2 1.17 0 2.02-1.08 2.02-3.2v-4.6c.01-.21.1-.95.59-.95V23ZM27 22h-5v11h5V22Zm-3 2.23v6.47s-.11 1.04-.75 1.04V32h3v-.26c-.55 0-.74-.72-.75-.92v-6.53c.01-.22.2-1.03.75-1.03V23h-3v.26c.55 0 .74.77.75.97Z" fill="#2559A4"/><path d="M46 27h2.52L52 33h-2.52L46 27ZM52 27h-2l.18.3V29L52 27ZM44 27l.2.38V30H46c0-2.28-1.33-2.95-2-3ZM37.13 27c.96.04 2.87.7 2.87 2.97 0 2.26-1.6 3.03-2.47 3.03H37c0-.16.1-.29.23-.38.33-.24.44-.67.44-1.17v-3.08c0-.34-.13-.67-.37-.93a7.25 7.25 0 0 0-.17-.18c-.05-.05-.02-.2 0-.26ZM36.7 22v10.47c.03.11.15.37.3.53h-2.1c-.18-.04-.55-.28-.55-.86v-2.85h-2.59c-.34 0-.62.3-.62.66v2.43c0 .14.06.28.15.38l.22.24H28l4.07-5.04c.11.17.3.27.5.27h1.78V26.1h-.66c-.1 0-.16-.13-.1-.22L36.7 22Z" fill="#2559A4"/></svg>