<!-- by TradingView --><svg width="18" height="18" viewBox="0 0 18 18" xmlns="http://www.w3.org/2000/svg"><path fill="#F0F3FA" d="M0 0h18v18H0z"/><path d="M14 12a1 1 0 0 1-2 0H6a1 1 0 0 1-2 0H2.34a.35.35 0 0 1-.34-.33c0-.16.15-.34.34-.34h11.49l.43-.33L16 12h-2ZM10.5 6c.3 0 .54.24.5.5l-.62 4.05c-.04.26-.3.45-.59.45H7.5c-.3 0-.54-.23-.5-.5l.62-4.05c.04-.26.3-.45.59-.45h2.3ZM8.6 7 8 10h1.52l.1-.55H8.7l.15-.81h.88l.1-.55h-.87l.1-.54h.84L10 7H8.59ZM14.5 6c.3 0 .54.23.5.5l-.62 4.05c-.04.26-.3.45-.59.45H11.5c-.3 0-.53-.23-.5-.5l.62-4.05c.04-.26.3-.45.59-.45h2.3Zm-1.96 1L12 10h.54l.2-1.15H13c.08 0 .17 0 .17.18s-.12.49-.12.67v.3h.63v-.44c0-.19.1-.5.1-.71 0-.17-.15-.3-.22-.35.19-.07.45-.3.45-.88 0-.48-.35-.61-.52-.62h-.94Zm.66.57c.18 0 .2.22.16.45-.03.18-.23.26-.33.28h-.19l.13-.73h.23ZM6.5 6c.3 0 .54.23.5.5l-.62 4.05c-.04.26-.3.45-.59.45H3.5c-.3 0-.54-.23-.5-.5l.62-4.05c.04-.26.3-.45.59-.45h2.3ZM5.27 7c-.62 0-1 .51-1 .93 0 .42.13.5.34.65.21.15.55.4.55.57 0 .17-.06.34-.3.34-.25 0-.25-.2-.18-.5h-.6c-.13.33-.2 1.01.6 1.01.7 0 .96-.34 1.06-.76.1-.42-.02-.7-.2-.84-.17-.13-.65-.4-.65-.59 0-.19.14-.32.29-.32.14 0 .25.12.19.41h.61c.06-.3.01-.9-.7-.9Z" fill="#161014"/></svg>