<!-- by TradingView --><svg width="56" height="56" viewBox="0 0 56 56" xmlns="http://www.w3.org/2000/svg"><path fill="#F0F3FA" d="M0 0h56v56H0z"/><path d="M45.21 27.4c-.24 0-.47.05-.68.16-.69.37-1.05.74-1.1 1.97l1.5.05c.75.02 1.7-.03 1.7-1.02 0-.85-.5-1.17-1.42-1.17ZM48 31.5c-.5 1.5-1.56 2.5-2.77 2.5-1.96 0-3.23-1.56-3.23-3.46 0-1.88 1.17-3.54 3.18-3.54C48 27 48 30 48 30s-1.87.02-2.82 0l-1.74-.03C43.48 31.42 44.5 33 45.5 33c.9 0 2.14-.68 2.5-1.5Z" fill="#126E5D"/><path d="M22 27v1h-3v2h3v1h-3v2h3v1h-4v-7h4ZM24 27v6h3v1h-4v-7h1Z" fill="#58585A"/><path d="M27 30.55c0-.76.17-1.44.5-2.03C28.08 27.5 29 27 30.27 27c.59 0 1.12.13 1.6.4.64.34.95.76.95 1.28l-.03.2c-.1.33-.33.5-.71.48a.82.82 0 0 1-.38-.1c-.17-.1-.3-.38-.35-.82l-.06-.38c-.11-.44-.43-.67-.96-.67-.22 0-.43.04-.63.13-.84.34-1.26 1.32-1.26 2.94 0 1.28.48 2.54 2.06 2.54 1 0 2.08-.6 2.5-1.5-.21 1.42-.7 2.5-2.71 2.5-1.96 0-3.29-1.51-3.29-3.45ZM35.5 27h-2v.5h.5V32c0 .67.3 2 1.5 2s1.83-1 2-1.5c-.17.17-.7.5-1.5.5s-1-.67-1-1v-4.5h.5V27ZM38.5 34a.5.5 0 0 1-.5-.5v-6.1h-.5V27h2.07l-.07.4H39v1.29c.11-.3.39-.61.57-.85.44-.56.94-.84 1.51-.84.1 0 .2.01.29.03.42.11.63.41.63.91 0 .08 0 .16-.03.24-.09.34-.29.5-.59.5a.6.6 0 0 1-.19-.03c-.15-.05-.3-.23-.44-.53-.13-.27-.26-.4-.4-.4-.1 0-.24.07-.4.22A3.15 3.15 0 0 0 39 30v3.5a.5.5 0 0 1-.5.5ZM10.03 27H8l2.54 7h2.03C19.3 23.31 26.27 19.02 41 20.02c-2.84-.8-5.58-1-6.6-1-14.22-.5-19.8 8.99-22.34 12.48L10.03 27Z" fill="#126E5D"/><path d="m14.03 27.01 2.04 4.5 1.01-1.4v3.1l-.5.79h-2.04L12 27.01h2.03ZM36.4 21c1.02 0 3.76.2 6.61 1-9.8-.33-15.27.36-19.82 4h-2.31c3.14-2.66 7.89-5 15.52-5Z" fill="#126E5D"/></svg>