<!-- by TradingView --><svg width="56" height="56" viewBox="0 0 56 56" xmlns="http://www.w3.org/2000/svg"><path fill="#F0F3FA" d="M0 0h56v56H0z"/><path fill-rule="evenodd" d="M32.2 35.82c1.87-.13 3.05-.21 3.55-.26a308 308 0 0 0 5.52-.67c.12-.02.23-.05.35-.06 1.6-.23 3.23-.5 4.93-.8.79-.14 1.56-.35 2.33-.63a6.08 6.08 0 0 0 1.9-1.1c.94-.79 1.23-1.83 1.2-3.03a36.5 36.5 0 0 1 .01-1.85 7.18 7.18 0 0 0-.12-1.81 3.76 3.76 0 0 0-1.73-2.41 9.85 9.85 0 0 0-2.74-1c-1.25-.3-2.49-.54-3.72-.74-.71-.1-1.42-.22-2.12-.33a98.99 98.99 0 0 0-23.23-.78l-6.17.68c-1.8.21-3.5.58-5.14 1.1-1.08.35-2.17.96-2.62 1.97-.21.47-.33.98-.35 1.52-.05 1.38-.06 2.7-.03 3.96.03.98.32 1.78.88 2.4.72.81 1.7 1.44 2.78 1.72a62.38 62.38 0 0 0 5.23 1.13c1.66.3 3.2.53 4.63.68 4.84.53 9.73.63 14.66.3Zm-1.22-14.69a99.1 99.1 0 0 1 11.47 1.17c.97.13 2.19.34 3.65.63.99.2 1.89.45 2.7.74.41.15.87.33 1.18.65.46.48.76.94.89 1.39.09.3.13.67.13 1.12v2.43c0 .5-.05.92-.16 1.22-.18.51-.47.92-.87 1.23-.35.27-.7.48-1.03.63-1 .47-2.18.69-3.32.88l-2.9.48c-1.2.2-2.35.34-3.51.48l-1.14.14c-.68.09-1.38.16-2.09.22l-1 .09c-.95.08-1.89.16-2.84.21l-.6.04c-.5.03-1 .06-1.5.07-2.43.06-4.28.06-5.57.03a74.86 74.86 0 0 1-12.41-1.29c-.64-.12-1.43-.3-2.4-.53l-.73-.15a8.7 8.7 0 0 1-1.2-.32 4.6 4.6 0 0 1-2-1.32c-.57-.63-.7-1.32-.71-2.14v-.3c-.03-1.25-.05-2.5.11-3.72.13-.96.85-1.55 1.72-1.9a17 17 0 0 1 4-1.05c.28-.03.54-.08.8-.12.54-.08 1.07-.17 1.62-.22 1.14-.1 2.29-.23 3.45-.37.69-.08 1.35-.15 2-.2 1.9-.15 3.76-.25 5.58-.32 1.85-.06 4.08-.03 6.68.1Zm1.1 12.8a102.34 102.34 0 0 1-20.62-1.3c-.96-.14-1.9-.31-2.84-.5a4 4 0 0 1-1.95-1c-.48-.45-.66-.9-.67-1.54 0-1.36 0-2.6.03-3.74.02-1.01.79-1.57 1.71-1.83 1.46-.42 3.05-.77 4.62-.96l4.02-.49c1.3-.15 2.68-.26 4-.36l.36-.03c1.62-.12 3.68-.19 5.5-.18 1.72 0 2.87.02 3.45.04a108.99 108.99 0 0 1 12.17 1.14c1.84.3 3.35.57 4.55.82.77.16 1.52.38 2.23.66.33.13.61.35.83.64.36.48.54 1 .53 1.56-.02.89-.02 1.83-.02 2.84 0 .9-.69 1.6-1.49 1.94-1.37.6-2.89.84-4.36 1.05-.8.11-1.62.24-2.47.38a99.86 99.86 0 0 1-9.57.85ZM11.3 25.58c-.27-.04-.54 0-.73.22-.41.5.2.87.6 1l.25.08c1.05.34 2.48.8 2.44 2.1-.04 1.91-1.8 2.48-3.42 2.33-.5-.05-1.6-.29-1.81-.8-.3-.65.25-1.04.84-.92l.37.1c.7.17 1.7.43 2.1-.1.33-.46.05-.94-.47-1.1l-.32-.1a7.74 7.74 0 0 1-1.8-.74 1.6 1.6 0 0 1-.71-1.52 2 2 0 0 1 .74-1.36c.44-.33.91-.52 1.4-.57.75-.09 1.67-.06 2.3.42.71.52.21 1.31-.56 1.17-.4-.08-.8-.15-1.22-.21Zm15.75 2.37c.14-.47.27-.96.33-1.45.02-.14.05-.14.1-.01.06.15.1.31.12.49l.36 3.1c.05.5.2 1.3.85 1.27.54-.02 1-.28.9-.88-.27-1.64-.54-3.28-.83-4.94-.09-.51-.24-.93-.82-1.1-.48-.15-.87-.07-1.18.22-.18.17-.3.38-.37.62l-.71 2.64c-.1.38-.2.77-.26 1.16-.04.24-.1.24-.19.02-.3-.82-.53-1.7-.74-2.53l-.32-1.19c-.21-.76-.7-1.1-1.45-1.02-.6.06-.83.62-.94 1.13-.1.5-.2 1-.32 1.5l-.27 1.37c-.1.57-.22 1.15-.35 1.73-.15.64.11 1.35.93 1.2.22-.04.38-.14.47-.28.11-.17.19-.38.23-.62.11-.62.2-1.25.3-1.88a64.34 64.34 0 0 1 .32-2.01.05.05 0 0 1 .06 0 .06.06 0 0 1 .03.03l1 3.89c.08.28.16.48.25.6.31.39.77.4 1.2.25.19-.06.33-.21.43-.45a16 16 0 0 0 .67-2.07l.2-.79Zm17.95.7v1.07c-.01.13.02.27.18.26.51-.01 1.1 0 1.61.01.38.02.9.21.92.65.05.7-.85.75-1.36.75-.72 0-1.42-.01-2.08-.03-.8-.02-.82-.41-.83-1.05l.03-5.22c.1-.48.63-.52 1.04-.53.8-.01 1.6 0 2.37.03.3.01.53.13.7.36.47.64-.34.99-.82 1.02-.46.02-1.04.02-1.58-.02-.06 0-.17.05-.18.11v1.15a.06.06 0 0 0 .06.06c.4-.03.88-.04 1.3-.04.38 0 .82.03 1 .43.24.52-.01.86-.53.95a4.76 4.76 0 0 1-1.76-.02.07.07 0 0 0-.05.04l-.02.02Zm-12.7.52a.1.1 0 0 0-.07.11c.08.46.16 1.68-.3 1.94-.13.07-.29.11-.48.14-.46.05-.76-.2-.81-.66-.03-.3-.05-.61-.05-.92 0-1.46 0-2.96.04-4.48.01-.51.35-.76.87-.8a16 16 0 0 1 2.24 0c.44.04.87.18 1.3.43.6.35.88.88 1 1.54.03.21.04.4.02.6a2.16 2.16 0 0 1-1.3 1.8c-.59.27-1.3.25-1.96.23h-.06c-.17 0-.31.02-.45.07Zm-.04-3.07a.2.2 0 0 1 .2-.2l.75-.01c.13 0 .26.02.39.06.12.04.23.1.33.17.1.08.17.17.22.27.05.1.08.2.08.31v.21c0 .22-.1.43-.3.58-.18.16-.44.24-.7.25h-.75a.2.2 0 0 1-.2-.12.2.2 0 0 1 0-.08l-.02-1.44Zm6.44 2.82c0-.1.05-.13.14-.1.06 0 .1.04.15.09L40.78 31c.4.47.85.7 1.43.28.37-.28.22-.85-.07-1.14a213.17 213.17 0 0 0-1.45-1.52.12.12 0 0 1 .08-.14c.64-.14 1.44-.64 1.57-1.33.17-.97-.12-1.69-.87-2.16a2.82 2.82 0 0 0-.91-.33c-.7-.14-1.39-.13-2.1-.13h-.36c-.58 0-1.02.27-1.04.9a197 197 0 0 0-.04 4.97c0 .22.04.43.11.62.16.4.77.42 1.12.3.38-.12.45-.65.45-.96v-1.43Zm.03-3-.01.04.01 1.64a.04.04 0 0 0 .05.05l.93-.01c.12 0 .25-.02.36-.07.12-.04.22-.1.3-.17a.8.8 0 0 0 .21-.26c.05-.1.07-.2.07-.3v-.15c0-.21-.1-.41-.28-.56a1.05 1.05 0 0 0-.67-.22h-.94l-.03.02Zm-19.98 4.15c-.04-.04-.09-.08-.14-.08h-2.33c-.2 0-.33.08-.4.26v.02c-.14.38-.26.7-.61.91-.69.4-1.42-.3-1.12-1 .65-1.55 1.26-3.04 1.85-4.49.12-.3.26-.57.41-.83.35-.58 1.28-.78 1.82-.34.25.2.43.43.54.75.14.43.31.86.48 1.3l.4 1c.31.89.64 1.76.99 2.62.1.24.14.77-.12.94-.21.13-.48.18-.8.16a.63.63 0 0 1-.57-.43c-.05-.14-.1-.24-.16-.34l-.15-.31a.35.35 0 0 0-.1-.14ZM16.5 28.4l.85-2.27a.08.08 0 0 1 .08-.06.09.09 0 0 1 .08.06l.8 2.3a.08.08 0 0 1-.08.1l-1.65-.01a.09.09 0 0 1-.07-.04.08.08 0 0 1-.01-.08Z" fill="#EA1D25"/></svg>