<!-- by TradingView --><svg width="56" height="56" viewBox="0 0 56 56" xmlns="http://www.w3.org/2000/svg"><path fill="#F0F3FA" d="M0 0h56v56H0z"/><path fill-rule="evenodd" d="M28 40c11.05 0 20-5.78 20-12.9 0-7.13-8.95-12.9-20-12.9S8 19.96 8 27.1C8 34.22 16.95 40 28 40Zm0-1c10.5 0 19-5.37 19-12s-8.5-12-19-12S9 20.37 9 27s8.5 12 19 12Z" fill="#F7201C"/><path d="M38 10h-3v21.35A3.63 3.63 0 0 0 38.6 35H47v-3h-7.16A1.85 1.85 0 0 1 38 30.14V10Z" fill="#F7201C"/><path fill-rule="evenodd" d="M33 35c4.97 0 9-3.58 9-8s-4.03-8-9-8-9 3.58-9 8 4.03 8 9 8Zm0-3c3.31 0 6-2.24 6-5s-2.69-5-6-5-6 2.24-6 5 2.69 5 6 5Z" fill="#F7201C"/><path d="M30 27.01c0 4.41-4.03 7.99-9 7.99-2.3 0-4.4-.77-6-2.03V43h-3V27c0-4.4 4.03-7.97 9-7.97s9 3.57 9 7.98ZM15 27c0 2.76 2.69 5 6 5s6-2.24 6-5-2.69-5-6-5-6 2.24-6 5Z" fill="#F7201C"/></svg>