<!-- by TradingView --><svg width="56" height="56" viewBox="0 0 56 56" xmlns="http://www.w3.org/2000/svg"><path fill="#F0F3FA" d="M0 0h56v56H0z"/><path d="M43 33V23h3.6c.75 0 1.37.14 1.87.43s.88.68 1.14 1.18c.26.5.39 1.07.39 1.7 0 2-1.44 3.31-3.42 3.31H44.2V28h2.16c1.12 0 1.87-.45 1.87-1.69 0-.35-.06-.67-.2-.94a1.4 1.4 0 0 0-.61-.63 2.18 2.18 0 0 0-1.07-.23H45V33h-2ZM39 23h2v6.44a3.38 3.38 0 0 1-1.9 3.12c-.6.3-1.3.44-2.1.44s-1.5-.15-2.1-.45c-.6-.3-1.07-.72-1.4-1.25a3.47 3.47 0 0 1-.5-1.86V23h2v6.29c0 1.27.76 2.12 2 2.12s2-.85 2-2.12V23ZM24 33V23h3.93c.8 0 1.47.13 2.02.4s.96.64 1.24 1.12c.29.48.43 1.04.43 1.68 0 2.15-1.71 3.32-3.72 3.32h-2.8V28h2.54c1.24 0 2.04-.49 2.04-1.8 0-.36-.07-.66-.22-.91a1.38 1.38 0 0 0-.67-.58c-.3-.13-.68-.2-1.16-.2H26V33h-2Zm5.4-4.53L32 33h-2.12l-2.54-4.53h2.07ZM16 33h-2l3.41-10h2.17L23 33h-2l-2.46-7.95h-.08L16 33Zm-.06-4h5.1v1.53h-5.1V29ZM12 26c-.12-1.02-.86-1.51-1.92-1.51-.79 0-1.78.3-1.79 1.27 0 .89.97 1.18 1.67 1.34l.98.22c.39.09.77.2 1.13.35.37.15.7.33.98.55a2.28 2.28 0 0 1 .95 1.9 2.5 2.5 0 0 1-.47 1.5c-.31.44-.76.78-1.35 1.02-.59.24-1.3.36-2.13.36-.82 0-1.52-.12-2.12-.35A2.84 2.84 0 0 1 6 30h2c.09 1.1 1.08 1.5 2.03 1.5.85 0 1.96-.34 1.97-1.39-.01-.91-1.05-1.18-1.76-1.35l-1.19-.28a4.91 4.91 0 0 1-2.03-.94c-.5-.42-.75-.98-.75-1.67 0-.58.17-1.08.5-1.5.34-.44.8-.77 1.37-1A5.05 5.05 0 0 1 10.1 23c1.98 0 3.72 1.04 3.76 3H12Z"/></svg>