<!-- by TradingView --><svg width="56" height="56" viewBox="0 0 56 56" xmlns="http://www.w3.org/2000/svg"><path fill="#F0F3FA" d="M0 0h56v56H0z"/><path d="M28 25h-5c-.24-1.91-1.06-3-3-3h7.14c.46.87.76 1.88.86 3Zm-1.5-4H13.3c.3-.36.62-.7.97-1h11.29c.34.3.66.64.94 1ZM38 22v4h5v-4h-5Zm5-1h-5v-1h5v1Zm0-2v-1h-5v1h5Zm0 8h-5v2h5v-2Zm0 3h-5v1.64c-.02 1.38-.79 2.36-2.3 2.36-1.92 0-2.64-1.42-2.7-3h-5c-.02 4.33 3.3 7 7.7 7 3.77 0 7.28-2.33 7.3-6.36V30Zm-26.96-1a13.57 13.57 0 0 1 0-2h-5a12.9 12.9 0 0 0 0 2h5Zm-4.88 1h5c.35 2.11 1.38 4 3.84 4 1.85 0 2.7-1.15 3-3h5c-.38 4.23-3.9 7-8 7-4.92 0-8.1-3.59-8.84-8Zm0-4h5c.36-2.11 1.4-4 3.84-4h-7.4a10.94 10.94 0 0 0-1.44 4Zm4.53-7h8.41a9.28 9.28 0 0 0-4.32-1 8.4 8.4 0 0 0-4.09 1Z" fill="#282525"/></svg>