<!-- by TradingView --><svg width="56" height="56" viewBox="0 0 56 56" xmlns="http://www.w3.org/2000/svg"><path fill="#F0F3FA" d="M0 0h56v56H0z"/><path d="M43.2 32.9A15.96 15.96 0 0 0 28 12a15.96 15.96 0 0 0-15.2 20.9h8.7L14 27.93l8.5 3.98-6.5-7.97 8 6.47-4.5-8.95 6 7.96-2-9.46 3.5 8.96 1-9.95 1 9.95 4-9.95-2.5 10.95 6.5-8.96-5 9.95 8.5-6.97-7 7.97 9-3.98-8 4.97h8.7Z" fill="#0DB1FE"/><path d="M42.48 34.72c-5.45-1.66-11.22.72-13.48 2.16A14.28 14.28 0 0 1 33.17 43a16.02 16.02 0 0 0 9.3-8.28Z" fill="#407304"/><path d="M22.36 42.83a21.09 21.09 0 0 1 4.14-5.95c-3.6-2.5-9.6-2.51-12.96-2.13a16.03 16.03 0 0 0 8.82 8.08Z" fill="#417203"/></svg>