<!-- by TradingView --><svg width="18" height="18" viewBox="0 0 18 18" xmlns="http://www.w3.org/2000/svg"><path fill="#F0F3FA" d="M0 0h18v18H0z"/><path d="M9.95 5.21a.53.53 0 0 0-.02.17v.01h-.01a.18.18 0 0 0-.1-.01c-.02 0-.02.01-.03.03a1.73 1.73 0 0 0 0 .15l-.03.19-.01.15-.02.14a.8.8 0 0 1-.01.13l.01.01h.1c.02 0 .02 0 .02.02l-.02.16c0 .01 0 .02-.02.01a.62.62 0 0 0-.15-.02l-.14-.01a1.6 1.6 0 0 0-.16-.02c-.01 0-.02 0-.02-.02l.02-.15.02-.01.08.01h.02c.02-.05.02-.11.03-.2l.01-.12.02-.15a1.9 1.9 0 0 1 .01-.16.52.52 0 0 0 .01-.17l-.1-.01-.02-.01.02-.17.49.05ZM8.83 5.14c.1 0 .18.02.25.06.1.05.14.16.12.31 0 .03-.02.06-.05.1a.4.4 0 0 1-.1.07c.08.05.12.1.13.18a8.62 8.62 0 0 1 .02.26h.08l.01.01v.16a16.54 16.54 0 0 0-.34 0v-.33c0-.1-.05-.16-.14-.18h-.17l-.01.02v.31l.02.01h.12l.01.02v.16l-.49.02V6.13h.1l.01-.02v-.78h-.13v-.01l-.01-.17H8.84Zm-.19.18-.01.01v.26l.01.01h.17c.05 0 .08-.01.12-.04.03-.02.04-.05.04-.08v-.04a.1.1 0 0 0-.05-.09.18.18 0 0 0-.11-.03h-.17ZM7.48 5.29a.63.63 0 0 1 .44.17.57.57 0 0 1 .17.43.64.64 0 0 1-.4.57.65.65 0 0 1-.48 0 .6.6 0 0 1-.33-.32.58.58 0 0 1 0-.47.64.64 0 0 1 .36-.33.65.65 0 0 1 .24-.05Zm-.01.22a.39.39 0 0 0-.4.39c0 .21.18.39.4.39.21 0 .38-.18.38-.4 0-.2-.17-.38-.38-.38ZM10.72 5.4c.09.02.17.06.25.12a.5.5 0 0 1 .17.22c.03.08.04.16.04.22 0 .09-.03.19-.07.29a.64.64 0 0 1-.13.17.32.32 0 0 1-.12.08.77.77 0 0 1-.46.01 13.14 13.14 0 0 1-.51-.15l.04-.16h.01l.07.02c.03 0 .05 0 .06-.03a182.32 182.32 0 0 1 .18-.74l-.03-.01h-.02c-.03 0-.04-.01-.05-.02-.02 0-.02-.02 0-.05a.31.31 0 0 0 .02-.12h.01l.54.14Zm-.23.12-.01.01-.2.75.01.02.17.04c.1.03.2.02.28-.03a.34.34 0 0 0 .17-.22l.02-.08a.34.34 0 0 0-.04-.27.37.37 0 0 0-.23-.17l-.17-.05ZM6.54 6.68l.12-.06h.02l.07.13v.03l-.46.24h-.01l-.07-.13.01-.03.1-.06h.01L6 6.1l-.02-.01h-.02l-.07.04c-.02 0-.02.02-.01.03l.06.12v.02l-.18.08h-.01l-.14-.28v-.02a707.88 707.88 0 0 0 .8-.43 6 6 0 0 0 .15.3l-.16.08h-.02L6.3 5.9H6.3l-.1.05v.03a71.83 71.83 0 0 0 .35.7ZM11.14 6.57h.01l.1.07h.01l.38-.69v-.02l-.08-.05c-.02 0-.02-.01-.01-.03l.07-.13.79.47v.02l-.14.26h-.03l-.14-.08v-.03l.04-.09v-.04l-.28-.16h-.02l-.11.2v.03l.25.15v.03l-.08.14h-.01l-.02-.01a13.84 13.84 0 0 1-.26-.13l-.15.27v.01l.28.16h.04l.07-.13.18.1v.03a9.85 9.85 0 0 0-.18.28l-.78-.47v-.02l.07-.1v-.04ZM5.1 6.77l-.07.1H5l-.02-.04-.08-.08v-.02l.31-.35h.01l.12.11v.01a.26.26 0 0 0-.07.07v.04a15.44 15.44 0 0 1 .5.5c.04.07.05.14.04.22a.4.4 0 0 1-.07.2c-.1.12-.19.2-.28.24-.12.04-.23.02-.33-.08a15.66 15.66 0 0 1-.48-.43l-.05.08h-.02l-.1-.1c-.02-.01-.02-.02 0-.03l.3-.35h.02l.1.12v.01l-.07.08v.01a9.74 9.74 0 0 1 .47.44c.05.03.1.03.15 0a.29.29 0 0 0 .1-.1.18.18 0 0 0 .03-.12.16.16 0 0 0-.04-.1 3.47 3.47 0 0 1-.13-.13 12.64 12.64 0 0 1-.33-.3ZM12.8 6.54l.33.4c.09.11.14.21.15.3.01.06 0 .1-.02.15-.09.14-.2.19-.34.13l-.03-.02.01.04c.02.03.02.07 0 .12a15.5 15.5 0 0 1-.23.25l.06.07-.12.1h-.02a1.78 1.78 0 0 1-.12-.15.49.49 0 0 0-.09-.1v-.01a13.53 13.53 0 0 1 .3-.27c.02-.04.03-.08.02-.1a.3.3 0 0 0-.05-.11 1.3 1.3 0 0 1-.08-.1h-.01l-.24.2v.04l.08.09-.12.11h-.01l-.31-.38v-.02l.11-.1h.01l.07.09h.02l.58-.5v-.02l-.07-.08v-.02a.35.35 0 0 0 .09-.08l.02-.03h.02Zm.1.4-.2.17v.01l.11.15c.03.03.07.06.1.06.04.01.08 0 .1-.02h.02a.12.12 0 0 0 .04-.1.18.18 0 0 0-.04-.11l-.12-.15ZM13.78 8.72h.05l.03.17-.01.02-.32.05h-.01l-.01-.02c0-.06 0-.1-.02-.16a.3.3 0 0 0 .1-.08.2.2 0 0 0 .06-.11c.01-.08 0-.13-.02-.18-.03-.05-.09-.07-.16-.05a.04.04 0 0 0-.03.02.4.4 0 0 0-.04.15c0 .08-.02.17-.04.27a1.57 1.57 0 0 1-.06.16c-.1.13-.23.16-.4.1a.8.8 0 0 1-.1-.06.44.44 0 0 1-.11-.28v-.15l.05-.13v-.01h-.08c0-.07 0-.13-.02-.18v-.01l.38-.06h.01l.03.18s0 .02-.02.02a.33.33 0 0 0-.18.19v.09c0 .05 0 .1.04.13.02.04.06.06.11.07.1 0 .14-.07.16-.23l.03-.25c.03-.13.09-.21.19-.25a.27.27 0 0 1 .21 0l.1.06c.08.09.13.19.12.3v.14l-.04.08v.01Z" fill="#171717"/><path d="m11.37 7.33.1.07a3.53 3.53 0 0 1 .36.35c.1.14.21.29.3.47a1.79 1.79 0 0 1-.13 1.81 2.79 2.79 0 0 1-1.13.96 3.98 3.98 0 0 1-2 .42h-.12v-.03c.13-.09.23-.16.3-.23.1-.09.18-.18.25-.27.1-.14.18-.26.24-.38.2-.4.37-.87.48-1.43a11.14 11.14 0 0 0 .19-1.04l.04-.03.02-.01a523.14 523.14 0 0 1 1.1-.66Zm-1.84.05c.07-.02.14 0 .2.07.05.05.09.12.1.2l.03.23c0 .02 0 .04-.03.05l-.12.1a4.68 4.68 0 0 0-.57.5 6.75 6.75 0 0 0-.74.88l-.2.33a2.83 2.83 0 0 0-.3 1.12c-.01.13 0 .27.05.41v.04h-.01l-.92-.37v-.03a10.94 10.94 0 0 1 .57-1.36c.1-.2.2-.34.26-.45a7.03 7.03 0 0 1 1.47-1.62.53.53 0 0 1 .2-.1ZM9.8 8.4l-.27.95a7.45 7.45 0 0 1-.45 1.08.65.65 0 0 1-.13.17c-.1.1-.21.14-.31.12-.07 0-.13-.06-.17-.15a.46.46 0 0 1-.04-.23c.01-.12.04-.23.08-.33a2.45 2.45 0 0 1 .46-.78l.3-.34a14.6 14.6 0 0 1 .52-.5ZM9 6.6a3.57 3.57 0 0 1 .5.03l-.01.03c-.12.06-.22.12-.31.19a18.4 18.4 0 0 1-.75.54 8.75 8.75 0 0 0-.82.78 8.83 8.83 0 0 0-1.35 2.21 3.08 3.08 0 0 1-.23-.28 1.84 1.84 0 0 1-.34-1.32c.04-.23.11-.45.23-.65.21-.36.5-.66.89-.9a3.77 3.77 0 0 1 1.71-.6l.39-.03h.1Zm1.01.12.04.02h.02l.37.12h.01a4.46 4.46 0 0 1 .61.3v.02l-.81.46h-.01l-.01-.01c0-.28-.06-.57-.22-.86a.07.07 0 0 1-.01-.04h.01Z" fill="#E5322D"/><path d="m5.24 8 .01.02a.5.5 0 0 1-.01.06l-.01.07-.02.16-.02.1v.08h-.01a.38.38 0 0 0-.15-.02h-.02v-.03a.2.2 0 0 0 .01-.1.3.3 0 0 1-.1.02.15.15 0 0 0-.06.02c-.02.01-.03.03-.03.06l-.03.21v.08c0 .01 0 .03.02.03l.14.08h.01V8.7H5c.03.02.08.02.14.02v.01l-.05.45h-.01l-.15-.01-.02-.01v-.02l.02-.05v-.01a46.44 46.44 0 0 1-.72-.42l-.02.1-.01.02h-.04a.32.32 0 0 0-.12-.02v-.01l.08-.63.01-.01.15.02.01.01-.01.12h.01l.78-.17.01-.02.01-.09h.02l.15.01Zm-.92.49.3.16.02-.06a.61.61 0 0 0 .02-.16l-.02-.01-.32.07Z" fill="#171717"/><path d="M5.21 10.29a.32.32 0 0 0-.33-.32c-.17.01-.3.16-.3.33 0 .18.15.32.33.32.17-.01.3-.16.3-.33ZM13.1 10.62c.18 0 .32-.15.32-.32a.32.32 0 0 0-.31-.33.32.32 0 0 0-.32.33c0 .17.14.32.32.32Z" fill="#E5322D"/><path d="M6.52 12v-.02l-.18-.1-.01-.02v-.02l.06-.13h.01l.46.24c.02.01.02.02.01.04l-.07.13h-.02l-.06-.04H6.7l-.02.01-.15.29h-.02l-.12-.06v-.03a.19.19 0 0 0 .04-.07v-.01H6.4a.08.08 0 0 1-.03.02.47.47 0 0 1-.18 0 .59.59 0 0 1-.42-.76.6.6 0 0 1 .22-.31c.1-.08.23-.12.36-.11a.6.6 0 0 1 .46.25l.02.04h.02v-.01l.01-.03h.02l.15.07v.01l-.18.34-.15-.08a.03.03 0 0 1-.01-.02c0-.07 0-.13-.04-.18a.4.4 0 0 0-.27-.17.3.3 0 0 0-.14.01.41.41 0 0 0-.13.07 1.21 1.21 0 0 0-.08.1.4.4 0 0 0-.04.36.81.81 0 0 0 .08.12c.07.05.13.08.2.1a1 1 0 0 0 .14 0l.1-.04ZM11.4 11c.1 0 .2.05.27.16.03.06.06.12.06.18 0 .08-.02.14-.06.2a.58.58 0 0 1-.14.13l-.04.03a.45.45 0 0 1-.1.05v.03l.09.19.1-.06h.04l.06.14v.01l-.4.2a.03.03 0 0 1-.03 0l-.07-.13a.2.2 0 0 1 .08-.05h.01v-.06a41.13 41.13 0 0 1-.35-.65l-.08.04h-.03l-.06-.13v-.02l.4-.2a.63.63 0 0 1 .26-.06Zm-.18.22-.09.04v.01l.16.33h.01l.1-.04a.23.23 0 0 0 .1-.11.14.14 0 0 0 0-.13l-.03-.05a.14.14 0 0 0-.1-.08.23.23 0 0 0-.15.03ZM10.35 11.52a.18.18 0 0 1-.1.03l-.01-.02-.04-.14.01-.02.43-.1.01.02.04.15v.01l-.09.01-.02.02v.06l.12.5c.04.17 0 .3-.1.39a.45.45 0 0 1-.1.07.88.88 0 0 1-.15.04.36.36 0 0 1-.33-.1.33.33 0 0 1-.08-.12l-.01-.03a32.4 32.4 0 0 0-.16-.62h-.04l-.04.02h-.02l-.02-.03a.34.34 0 0 0-.03-.12v-.02l.02-.01.43-.1.03.14v.03l-.03.01-.06.01-.01.02a31.07 31.07 0 0 0 .16.65c.03.04.06.05.1.06.05 0 .09 0 .12-.02.05-.01.08-.04.1-.07a.2.2 0 0 0 0-.13l-.13-.59ZM7.73 11.42a.7.7 0 0 1 .23.1c.02 0 .04.04.07.08v.02c.03.04.04.1.02.17a.27.27 0 0 1-.11.17L7.9 12a.24.24 0 0 0-.04.02c.06.05.08.1.08.16l-.04.2c0 .02-.01.05 0 .07v.01l.07.01c.01 0 .02 0 .01.02l-.03.14-.01.02-.3-.07v-.01a11.76 11.76 0 0 0 .06-.42c0-.04-.02-.07-.06-.08a.56.56 0 0 0-.13-.04h-.06l-.06.3.01.02.1.01.01.03-.02.15h-.02l-.44-.09-.01-.01.03-.16h.04l.04.02c.02 0 .03 0 .04-.02l.01-.04.15-.7-.01-.01-.09-.02-.01-.01v-.02a.34.34 0 0 0 .02-.14h.02l.47.1Zm-.18.16v.01l-.05.22v.02h.02l.15.04.1-.01a.1.1 0 0 0 .06-.07v-.05a.1.1 0 0 0-.02-.08.15.15 0 0 0-.08-.05l-.16-.04h-.02ZM8.9 11.51a.59.59 0 0 1 .56.36.59.59 0 0 1-.12.65.59.59 0 0 1-.42.18.59.59 0 0 1-.56-.36.59.59 0 0 1 .12-.65.59.59 0 0 1 .42-.18Zm.01.21c-.2 0-.36.17-.36.39 0 .21.16.38.36.38.2 0 .36-.17.36-.38s-.16-.39-.36-.39Z" fill="#171717"/><path d="M14.68 9a3.7 3.7 0 0 0-1.63-2.92A6.8 6.8 0 0 0 9 4.82a6.8 6.8 0 0 0-4.05 1.26A3.7 3.7 0 0 0 3.32 9c0 1.12.6 2.15 1.63 2.92A6.8 6.8 0 0 0 9 13.18v.32h-.15c-3.2-.06-5.77-2-5.85-4.38V9c0-2.49 2.69-4.5 6-4.5h.15C12.4 4.56 15 6.55 15 9v.12c-.08 2.43-2.74 4.38-6 4.38v-.32a6.8 6.8 0 0 0 4.05-1.26A3.7 3.7 0 0 0 14.68 9Z" fill="#E5322D"/></svg>