<!-- by TradingView --><svg width="56" height="56" viewBox="0 0 56 56" xmlns="http://www.w3.org/2000/svg"><path fill="#F0F3FA" d="M0 0h56v56H0z"/><path fill-rule="evenodd" d="M20.2 35c-1.7-1.12-4.45-3.79-4.45-7.43 0-4.95 5.77-7.85 11.87-7.85 4.88 0 5.52-2.5 5.23-3.74-.24-1.01-1.78-3.04-6.05-3.04-5.33 0-5.43 1.6-5.3 1.72l.09.07a2.8 2.8 0 0 1 1.24 2.45c0 1.78-.95 2.87-3.18 2.87-2.24 0-3.13-1.61-3.13-3.22C16.52 15.2 19.37 11 27 11c7.62 0 11 4.13 11 7.47v12.25c-.1 1.15.08 3.44 1.19 3.44 1.39 0 1.63-.16.82-.82-.82-.65-.71-2.18.57-2.18 1.28 0 1.66 1.09 1.66 2.05 0 .67-.27 1.4-1.41 1.79H43v8H13v-7.9l2.18-3.85h.36V35h4.66Zm11.29 0h3.83c-.75-.25-1.27-.73-1.57-1.66A3.79 3.79 0 0 1 31.49 35ZM33 20.46V29c0 .71-.19 1.74-.75 2.67-.2-.42-.54-1.4-.54-2.51V29c0-1.45 0-2.9-1.17-2.9-1.08 0-1.05 1.46-1.03 2.44v.33c0 .91.79 3.06 2.68 2.88-.76 1.22-2.18 2.27-4.62 2.27-5.46 0-6.57-4.21-6.57-6.51s1.59-5 6.36-5.6c3.81-.49 5.35-1.17 5.64-1.46Zm-3.5 3.25a6.1 6.1 0 0 0 2.57-.58c.26 1.97-1.93 2.78-2.85 2.78h-.33c-.97.02-2.43.05-2.43-1.03 0-1.18 1.45-1.17 2.89-1.17h.15Zm-5.4 2.32c0-1.2-.38-2.22-.57-2.6 1.96-.25 2.76 1.95 2.76 2.87v.34c.03.98.06 2.44-1.02 2.44-1.17 0-1.17-1.46-1.17-2.9v-.15Zm2.22 5.45a6.1 6.1 0 0 0-2.58.58c-.26-1.97 1.93-2.78 2.85-2.78h.33c.97-.03 2.43-.05 2.43 1.03 0 1.17-1.45 1.17-2.89 1.17h-.14Zm1.6-2.7a1.19 1.19 0 1 0 0 0ZM14 36h28v6H14v-6Z" fill="#005CC9"/><path opacity=".7" d="M30 38H14.5v2H30v-2Zm11.5 0H31v2h10.5v-2Z" fill="#005CC9"/></svg>