<!-- by TradingView --><svg width="56" height="56" viewBox="0 0 56 56" xmlns="http://www.w3.org/2000/svg"><path fill="#F0F3FA" d="M0 0h56v56H0z"/><path d="M44 25c-1.4-7.96-8.25-14-16.5-14S12.4 17.04 11 25h4.99c1.35-6.29 6.87-11 13.48-11s12.13 4.71 13.49 11H44Z" fill="#DB2521"/><path d="M43 26.78v.81h2v.75h-2v.88h2V30h-3v-4h3v.78h-2ZM41.5 26v.78H40V30h-1v-3.22h-1.5V26h4ZM36 26v4h-1v-4h1ZM32 29.25h2V30h-3v-4h1v3.25ZM28 29.25h2V30h-3v-4h1v3.25ZM24 26.78v.81h2v.75h-2v.88h2V30h-3v-4h3v.78h-2ZM22.5 26v.78H21V30h-1v-3.22h-1.5V26h4ZM16.74 29.3h-1.49l-.24.7H14l1.44-4h1.12L18 30h-1.03l-.23-.7Zm-.25-.76-.5-1.46-.48 1.46h.98ZM11.8 30c-.33 0-.63-.05-.9-.14-.27-.1-.49-.23-.65-.41-.16-.18-.24-.4-.25-.66h1.2c.02.15.08.26.18.34.1.07.23.1.4.1.16 0 .3-.02.4-.09.09-.06.14-.15.14-.27a.3.3 0 0 0-.12-.24.91.91 0 0 0-.28-.15 4.85 4.85 0 0 0-.48-.14c-.3-.08-.54-.16-.73-.24-.2-.08-.36-.19-.5-.34a.86.86 0 0 1-.2-.6c0-.36.16-.64.47-.85.31-.2.72-.31 1.22-.31.67 0 1.68.22 1.74 1.17h-1.22c-.02-.26-.24-.4-.56-.4a.53.53 0 0 0-.33.09.3.3 0 0 0-.12.26c0 .12.07.22.21.3.14.06.36.14.66.22.3.09.54.17.73.25.19.07.35.19.49.34.13.14.2.33.2.57 0 .22-.07.42-.2.6-.14.19-.33.33-.59.44-.25.1-.55.16-.9.16Z" fill="#271669"/><path d="M44 31c-1.4 7.96-8.25 14-16.5 14S12.4 38.96 11 31h1.04c1.36 6.29 6.88 11 13.49 11 6.6 0 12.13-4.71 13.48-11H44Z" fill="#DB2521"/></svg>