<!-- by TradingView --><svg width="56" height="56" viewBox="0 0 56 56" xmlns="http://www.w3.org/2000/svg"><path fill="#F0F3FA" d="M0 0h56v56H0z"/><path d="M26.5 20.47v-2.22a.1.1 0 0 1 .04-.07.1.1 0 0 1 .08-.02c.12.03.2.04.24.02.04-.02.06-.07.06-.15.02-.34.04-.55.07-.63a4.6 4.6 0 0 1 4.7-3.4c.1.01.17.03.24.06.02 0 .03.02.05.04a.11.11 0 0 1 0 .12.11.11 0 0 1-.05.04c-.36.19-.95.3-1.31.54-.47.32-.78.59-.94.81a4.67 4.67 0 0 0-.67 2.49.12.12 0 0 0 .06.07h.13a.12.12 0 0 1 .1.07.1.1 0 0 1 .01.04v2.17a.11.11 0 0 0 .04.08.12.12 0 0 0 .08.04h.1c.04 0 .06 0 .09.03.02.02.03.05.03.08v4.85a.1.1 0 0 0 .03.06.1.1 0 0 0 .07.03h.18c.02 0 .03 0 .05.02l.02.05v4.16c0 .08.03.15.08.2l3.78 3.9a.14.14 0 0 0 .11.05h3.66a.22.22 0 0 0 .17-.08l3.53-3.78a.36.36 0 0 1 .13-.1c.05-.02.1-.04.15-.04h3.92c.05 0 .1.02.15.04.05.03.09.06.12.1.88 1.25 2.26 2.8 4.13 5.43.06.09.08.17.06.24-.04.12-.12.19-.24.19-20.34-.02-34.78-.02-43.3 0-.18 0-.3-.02-.36-.07a.23.23 0 0 1-.05-.32c1.57-2.22 2.9-3.95 3.97-5.47a.31.31 0 0 1 .11-.1c.05-.02.1-.04.15-.04h4.02c.06 0 .12.02.18.05.05.02.1.06.14.1l3.58 3.8a.14.14 0 0 0 .1.05h3.56a.16.16 0 0 0 .11-.05l3.67-3.88c.06-.07.1-.17.1-.26v-4.1a.1.1 0 0 1 .03-.06.1.1 0 0 1 .07-.03h.29c.01 0 .02 0 .03-.02a.05.05 0 0 0 .02-.03v-4.91a.1.1 0 0 1 .03-.07.1.1 0 0 1 .07-.03h.15a.09.09 0 0 0 .06-.03.08.08 0 0 0 .03-.06Zm1.03-1.86a.07.07 0 0 0-.02-.05.07.07 0 0 0-.05-.02h-.5a.07.07 0 0 0-.05.02.07.07 0 0 0-.02.05v.69a.07.07 0 0 0 .01.05.07.07 0 0 0 .05.02h.51a.07.07 0 0 0 .05-.02.07.07 0 0 0 .02-.05v-.69Zm1.4.01c0-.02 0-.04-.02-.05a.08.08 0 0 0-.06-.02H28a.08.08 0 0 0-.06.02.08.08 0 0 0-.02.05v.67c0 .02 0 .04.02.05.01.02.03.02.06.02h.88l.03-.02a.08.08 0 0 0 .02-.05v-.67Zm0 1.18a.05.05 0 0 0-.04-.05h-.02l-1.93-.01a.06.06 0 0 0-.04.02.06.06 0 0 0-.01.03v.71a.05.05 0 0 0 .01.04.06.06 0 0 0 .04.02h1.93a.06.06 0 0 0 .04-.02.05.05 0 0 0 .02-.03v-.71Zm-1.43 1.19a.06.06 0 0 0-.01-.04.06.06 0 0 0-.05-.02h-.84a.06.06 0 0 0-.04.02.06.06 0 0 0-.02.04v.98a.06.06 0 0 0 .04.04h.86a.06.06 0 0 0 .06-.03v-.99Zm1.77 0a.06.06 0 0 0-.02-.04.06.06 0 0 0-.05-.02h-1.25l-.05.02a.06.06 0 0 0-.02.05v.95a.06.06 0 0 0 .02.04.07.07 0 0 0 .05.02h1.26l.04-.02a.06.06 0 0 0 .02-.05V21Zm-.93 1.44a.05.05 0 0 0-.01-.04l-.02-.01h-1.72a.06.06 0 0 0-.03 0 .06.06 0 0 0-.02.05v.6a.05.05 0 0 0 .02.04l.01.01h.03l1.68.01a.06.06 0 0 0 .04-.02.05.05 0 0 0 .02-.04v-.6Zm.93.01a.06.06 0 0 0-.01-.04.07.07 0 0 0-.05-.02h-.42l-.05.01a.06.06 0 0 0-.02.04v.6a.06.06 0 0 0 .01.04l.02.01h.03l.42.01c.02 0 .04 0 .05-.02a.06.06 0 0 0 .02-.04v-.59Zm-2.19 1.07a.05.05 0 0 0-.03-.05h-.45l-.04.01a.05.05 0 0 0-.02.04v1.1a.05.05 0 0 0 .03.06H27.02l.04-.01a.05.05 0 0 0 .02-.04V23.5Zm2.19 0c0-.01 0-.02-.02-.03a.06.06 0 0 0-.04-.02h-1.7a.06.06 0 0 0-.03.01l-.02.02v1.12l.01.04.04.02h1.7a.06.06 0 0 0 .04-.02.06.06 0 0 0 .02-.04v-1.1Zm-.93 1.58v-.02l-.02-.01-.02-.02h-1.7a.06.06 0 0 0-.05.03v.49a.05.05 0 0 0 .03.05h1.72a.06.06 0 0 0 .03-.02v-.5Zm.93.01v-.02l-.01-.02a.06.06 0 0 0-.05-.02h-.42a.06.06 0 0 0-.06.03v.53a.06.06 0 0 0 .05.02h.43a.06.06 0 0 0 .04-.02.06.06 0 0 0 .02-.04v-.46Zm-1.8.95a.05.05 0 0 0 0-.04l-.03-.02h-1.27a.06.06 0 0 0-.04.01.05.05 0 0 0-.02.04v1.03a.05.05 0 0 0 .02.04l.01.01h1.28a.06.06 0 0 0 .04 0 .06.06 0 0 0 .02-.05v-1.02Zm2.14 0L29.6 26a.06.06 0 0 0-.04-.02h-1.64a.06.06 0 0 0-.05.03v1.05a.06.06 0 0 0 .01.04l.02.01h1.66l.04-.01a.06.06 0 0 0 .01-.04v-1.02Zm-.9 1.5a.05.05 0 0 0-.02-.04.06.06 0 0 0-.04-.02h-2.48c-.02 0-.03 0-.04.02a.05.05 0 0 0-.02.03v1.19c0 .01 0 .02.02.03l.04.02h2.48a.06.06 0 0 0 .04-.02.05.05 0 0 0 .01-.03v-1.19Zm.9 0-.01-.04a.06.06 0 0 0-.04-.02h-.42c-.01 0-.03 0-.04.02a.06.06 0 0 0-.02.04v1.17c0 .02 0 .03.02.04l.04.02h.42c.01 0 .03 0 .04-.02a.06.06 0 0 0 .01-.04v-1.17Zm-2.93 1.66a.06.06 0 0 0-.05-.06h-.46a.06.06 0 0 0-.06.06v.59a.05.05 0 0 0 .02.04.06.06 0 0 0 .04.02H26.65a.06.06 0 0 0 .03-.04v-.61Zm2.93 0-.01-.04a.06.06 0 0 0-.04-.02h-2.44c-.01 0-.03 0-.04.02a.05.05 0 0 0-.01.04v.61l.01.02a.06.06 0 0 0 .04.01h2.44l.04-.01a.05.05 0 0 0 .01-.04v-.6ZM6.74 35.45a.05.05 0 0 0 .01.07H49.23a.05.05 0 0 0 .04-.02.05.05 0 0 0 0-.05l-3.8-4.96a.05.05 0 0 0-.05-.02H41.7a.05.05 0 0 0-.04.02l-3.68 3.95-.01.02h-4.25a.05.05 0 0 1-.04-.01l-3.95-4.08-.02-.02h-3.68a.05.05 0 0 0-.03.02l-3.85 4.08a.05.05 0 0 1-.04.01h-4.07a.05.05 0 0 1-.04-.01l-3.72-3.96a.05.05 0 0 0-.03-.02h-3.87a.05.05 0 0 0-.04.02l-3.6 4.96Z" fill="#193192"/><path d="M12.8 33.57v-1.44a.12.12 0 0 0-.06-.1l-.18-.12a.12.12 0 0 1 0-.2.13.13 0 0 1 .07-.03h.8a.11.11 0 0 1 .1.07.1.1 0 0 1-.02.11l-.23.25a.2.2 0 0 0-.05.13v2.4c0 .02 0 .04-.02.06a.09.09 0 0 1-.06.02h-.5l-.05-.01a.1.1 0 0 1-.03-.04l-1.18-1.98h-.02a.03.03 0 0 0-.02 0v.02c.03.42.04.92.03 1.48 0 .16.07.26.2.33a.1.1 0 0 1 .05.05.1.1 0 0 1-.03.13.1.1 0 0 1-.07.02h-.79a.1.1 0 0 1-.07-.03.1.1 0 0 1-.03-.06c0-.1.05-.17.17-.22a.14.14 0 0 0 .06-.05.13.13 0 0 0 .02-.07c0-1.08.03-2.2-.03-2.27a.24.24 0 0 0-.12-.07.14.14 0 0 1-.07-.05.13.13 0 0 1-.02-.08v-.06c0-.02 0-.04.02-.05a.07.07 0 0 1 .05-.02h.88a.1.1 0 0 1 .08.04l1.1 1.84h.02ZM28.91 33.71c.04 0 .07.01.1.03l.07.07a.17.17 0 0 1-.03.2c-1.1 1.2-3.5.7-2.93-1.26.34-1.14 1.64-1.2 2.64-.89.02 0 .05.02.06.05.02.02.03.04.03.07v.69c0 .03-.02.07-.04.1a.17.17 0 0 1-.21.03.16.16 0 0 1-.07-.08l-.13-.4a.2.2 0 0 0-.06-.08c-.18-.16-.35-.23-.5-.23-.75.03-1.09.45-1 1.26.07.76.54 1.05 1.4.89.24-.05.36-.17.36-.35a.1.1 0 0 1 .03-.07.1.1 0 0 1 .07-.03h.21ZM42.25 32.74l.04 1.62c0 .06.05.1.13.12l.06.03a.1.1 0 0 1 .03.07v.07c0 .02-.01.04-.03.05a.08.08 0 0 1-.05.02h-.75a.17.17 0 0 1-.1-.03.15.15 0 0 1-.03-.2.16.16 0 0 1 .08-.07l.05-.02a.12.12 0 0 0 .08-.11v-2.17c0-.03 0-.06-.02-.08a.15.15 0 0 0-.07-.05c-.12-.06-.16-.13-.14-.23a.1.1 0 0 1 .04-.06.1.1 0 0 1 .06-.02h1.04l.07.02.04.06.5 1.46.02.02h.05l.02-.02.55-1.46.05-.06a.13.13 0 0 1 .07-.02h1a.1.1 0 0 1 .07.03.1.1 0 0 1 .03.07c0 .1-.06.17-.17.2a.15.15 0 0 0-.12.15v2.14a.15.15 0 0 0 .05.1l.2.18a.1.1 0 0 1-.01.16.1.1 0 0 1-.05.02h-1.09a.14.14 0 0 1-.08-.03.13.13 0 0 1-.05-.07.13.13 0 0 1 .05-.15l.17-.1a.12.12 0 0 0 .03-.05l.02-.05V32.7a.03.03 0 0 0-.05 0l-.01.01-.6 1.6-.05.06a.14.14 0 0 1-.07.03c-.24.03-.39 0-.43-.08a360.4 360.4 0 0 0-.57-1.6c-.01-.02-.02-.02-.03-.02l-.02.02v.02Z" fill="#193192"/></svg>