<!-- by TradingView --><svg width="56" height="56" viewBox="0 0 56 56" xmlns="http://www.w3.org/2000/svg"><path fill="#F0F3FA" d="M0 0h56v56H0z"/><path fill-rule="evenodd" d="M21.9 18.86c.07-2.17.1-4.37.07-6.6 0-.06-.03-.08-.09-.05A17.08 17.08 0 0 0 11.2 25.52 16.91 16.91 0 0 0 21.7 43.8c.06.03.1 0 .08-.07-.12-.81-.43-2.25-.93-4.32l-.3-1.24a23.22 23.22 0 0 1-.7-4.4c-.06-1.65.05-3.18.32-4.57.38-2.03.75-3.93 1.1-5.69a40.78 40.78 0 0 0 .64-4.64Zm-.78-4.9c-.95 1.35-1.43 2.02-1.44 2.02l1.29-2.13c.08-.13.04-.18-.11-.13-.82.23-1.42.7-1.8 1.41a3.72 3.72 0 0 0-.35 2.32h.05c.84-.24 1.5-.65 1.95-1.24.5-.63.7-1.37.58-2.21-.02-.16-.08-.17-.17-.04ZM42.13 18.63a16.97 16.97 0 0 0-10.38-7.15c-1.78-.43-4.04-.7-5.8-.24-.07.02-.1.06-.1.14l.01 3.91c.02 1.03.13 1.9.34 2.63a15.15 15.15 0 0 0 2.16 4.44l3.32 4.66a13.44 13.44 0 0 1 2.1 4.5c.25.98.34 1.9.28 2.74a7.45 7.45 0 0 1-1.3 3.58 9.02 9.02 0 0 1-2.72 2.67c-.23.15-.62.33-1.16.55a6 6 0 0 0-1.5.78 3.74 3.74 0 0 0-1.37 2.96c0 .07.04.11.11.12 3.92.35 7.47-.43 10.64-2.33a16.82 16.82 0 0 0 7.65-10.15 16.77 16.77 0 0 0-2.28-13.8Zm-14.45-6.02a108.77 108.77 0 0 1 3.66 1.4l-3.9-1.18c-.12-.04-.15 0-.08.1.45.78 1.05 1.4 1.8 1.87.6.4 1.4.58 2.35.56.87-.01 1.7-.19 2.51-.52.08-.03.1-.08.05-.15a6.67 6.67 0 0 0-2.49-2.29 4.76 4.76 0 0 0-3.9 0c-.19.07-.19.14 0 .2Zm1.73 7.52h.02l.02-.02c.27-.89.37-1.75.3-2.6a4.15 4.15 0 0 0-.91-2.35 5.5 5.5 0 0 0-1.96-1.5.06.06 0 0 0-.07.02.05.05 0 0 0-.01.06c1.1 2.72 1.63 4.08 1.62 4.09-.01 0-.64-1.32-1.89-3.97 0-.03-.03-.04-.05-.03-.03 0-.05.01-.05.03-.27.8-.35 1.61-.25 2.45.1.8.47 1.56 1.11 2.27a6.74 6.74 0 0 0 2.1 1.56h.02Zm3.75-1.43-.02.02h-.04c-1.87-.1-2.98-1-3.33-2.7-.04-.2.02-.24.18-.1a74.02 74.02 0 0 0 1.83 1.52l-1.69-1.68c-.15-.14-.12-.2.09-.18 1.72.18 2.72 1.2 3 3.06v.03l-.02.03Z" fill="#6DBB2C"/><path d="M28.64 33.32v-2.2c0-.11-.05-.14-.15-.1-1 .39-1.5 1.16-1.49 2.3 0 .05.02.07.07.07h1.5c.05 0 .07-.02.07-.07Zm.72 0v-2.2c0-.11.05-.14.15-.1 1 .39 1.5 1.16 1.49 2.3 0 .05-.02.07-.07.07h-1.5c-.05 0-.07-.02-.07-.07Zm-.78.68h-1.51c-.04 0-.06.03-.06.07v1.86c0 .04.02.07.06.07h1.5c.04 0 .07-.03.07-.07v-1.86c0-.04-.02-.07-.06-.07Zm.83 0h1.49c.06 0 .1.05.1.11v1.78c0 .06-.04.11-.1.11h-1.49c-.05 0-.1-.05-.1-.11v-1.78c0-.06.05-.11.1-.11Z" fill="#002E1A"/></svg>