<!-- by TradingView --><svg width="56" height="56" viewBox="0 0 56 56" xmlns="http://www.w3.org/2000/svg"><path fill="#F0F3FA" d="M0 0h56v56H0z"/><path d="m41.08 26.08-.24-1a.44.44 0 0 0-.13-.23.4.4 0 0 0-.48-.04.44.44 0 0 0-.17.2c-.11.29-.35.58-.71.9-.24.2-.72.21-1.01.38a.53.53 0 0 0-.21.22c-.52 1-.35 1.27-1.64 1.27l-6.75.03c-.12 0-.24-.01-.36-.04a6.8 6.8 0 0 0-3.4.06.38.38 0 0 1-.21 0l-1.36-.38a.3.3 0 0 0-.21.02c-.64.32-1.32.42-2.04.3l-.66-.22a.29.29 0 0 1-.17-.14.32.32 0 0 1-.03-.22l.03-.12c.04-.1.03-.2 0-.31a4.3 4.3 0 0 0-.29-.6.18.18 0 0 1 .06-.23.15.15 0 0 1 .08-.02h.25a.3.3 0 0 0 .2-.08c.05-.05.1-.12.1-.2a.34.34 0 0 0-.04-.22.3.3 0 0 0-.18-.14c-.26-.08-.49-.21-.67-.38a.2.2 0 0 1-.05-.08.21.21 0 0 1-.02-.09l.04-.5a.4.4 0 0 0-.02-.17.38.38 0 0 0-.08-.14 3.51 3.51 0 0 1-1-2.14.2.2 0 0 0-.04-.1.18.18 0 0 0-.08-.06.17.17 0 0 0-.1 0 .18.18 0 0 0-.1.07c-.27.39-.3.87-.07 1.45.02.12.01.21-.02.3a.3.3 0 0 1-.19.2c-.23.09-.43.21-.58.37a.25.25 0 0 0-.07.19c0 .03.01.07.03.1.01.03.03.06.06.08.15.12.21.29.2.5 0 .04-.02.09-.04.12a.2.2 0 0 1-.12.07c-.21.05-.4.19-.58.4a.2.2 0 0 0 .01.27l.1.1c.03.05.06.1.07.16a.3.3 0 0 1-.03.18.96.96 0 0 0-.1.66c.15.2.33.32.54.37.03 0 .05.02.07.04a.15.15 0 0 1 .02.15.13.13 0 0 1-.04.06c-.41.3-.81.4-1.21.34a13.73 13.73 0 0 0-4.21.06.12.12 0 0 1-.05-.06c-.19-.44-.57-.52-.85-.16a.41.41 0 0 1-.1.1.38.38 0 0 1-.27.05l-1.1-.27-.06-.01-2.4-.07c-.03 0-.06 0-.08.02a.17.17 0 0 0-.07.07v.05c0 .03-.02.07-.05.09a.15.15 0 0 1-.08.04c-.27.05-.6 0-.97-.12a.22.22 0 0 1-.1-.08.24.24 0 0 1-.05-.12c-.02-.4.13-.64.47-.74.45-.13 1.07-.28 1.86-.44a.93.93 0 0 0 .47-.25c.54-.53 1.2-1.03 2.01-1.51.06-.03.1-.07.16-.12l2.44-2.47c.07-.07.13-.15.18-.24.87-1.5 1.26-2.17 2.2-3.25.88-.99 1.64.3 2.2.98.19.24.43.44.7.58.41.23.99.5 1.72.81a7.78 7.78 0 0 1 3.62 2.87 4.2 4.2 0 0 0 1.9 1.27c1.13.4 2 .77 2.6 1.1.07.04.15.06.23.07l3.48.32c.06 0 .11.02.16.04.16.07.3.18.42.31a.2.2 0 0 0 .1.07l.12-.01.68-.33a.43.43 0 0 1 .39.01l.66.36c.07.04.16.06.25.05 1.25-.14.4-1.13 1.04-1.69a.23.23 0 0 0 .04-.29l-.13-.2a.2.2 0 0 1-.03-.1c-.02-.14.04-.26.18-.36.29-.22.31-.65.27-.97 0-.05 0-.09.02-.13a.23.23 0 0 1 .07-.1c.88-.63 1.41-1.28 1.6-1.93.02-.06.05-.1.1-.14a.27.27 0 0 1 .3-.06c.04.02.08.06.12.1l1.02 1.43c.06.08.13.14.22.19a40.55 40.55 0 0 1 5.81 3.7c.15.1.3.2.47.27.49.2 1.59.4 1.87 1.05a.14.14 0 0 1 0 .12l-.04.05a8.49 8.49 0 0 1-3.54.02c-.2-.05-.4-.06-.6-.04-.98.12-1.95.13-2.93.03-.4-.04-.74-.25-1-.62a.23.23 0 0 1 .02-.28l.28-.31a.23.23 0 0 0 .07-.13c0-.05 0-.1-.03-.15l-.14-.24Z" fill="#2EA25A"/><path fill-rule="evenodd" d="M26.09 34.26a.09.09 0 0 0-.14-.05l-.1.06c-.66.43-1.72 1.13-2.35.24a.53.53 0 0 1-.08-.41c.32-1.63 1.3-3.48 2.83-4.07a.32.32 0 0 1 .1-.02h.61c.05 0 .1-.02.14-.05a.27.27 0 0 0 .1-.11c.15-.32.31-.53.52-.8l.05-.06c.66-.87 1.5-1.06 2.57-.98.1 0 .18.05.24.11.06.07.1.16.1.26a.33.33 0 0 1-.08.25.29.29 0 0 1-.1.07.27.27 0 0 1-.13.02l-1.24-.1c-.1-.01-.2.01-.29.07-.22.14-.4.4-.51.81A34328.94 34328.94 0 0 0 27 34.13a.17.17 0 0 0 .1.12l.07.01c.24-.02.5-.2.81-.54a.12.12 0 0 1 .06-.03.12.12 0 0 1 .12.03c.02.01.03.03.04.06l.04.15v.08c0 .02-.02.05-.04.06l-.84.68a.16.16 0 0 1-.06.03l-.8.21c-.05.02-.1.01-.14-.02a.2.2 0 0 1-.1-.11l-.17-.6Zm-1-2.52c-.69.96-.9 2.04-.45 2.4.44.35 1.36-.15 2.05-1.12.69-.97.89-2.04.45-2.4-.44-.35-1.36.15-2.05 1.12Zm-15.15.66.01.05.04.02h.05l.03-.03c.62-1.01 1.17-2 1.65-3a.43.43 0 0 1 .42-.21c.05 0 .1.02.14.05l.1.1c.02.05.04.1.04.15l.33 3.02c0 .03.02.05.03.07a.1.1 0 0 0 .13.02 261.83 261.83 0 0 1 1.24-2.53.37.37 0 0 0 .03-.24.4.4 0 0 0-.13-.21c-.11-.1-.2-.21-.28-.35a.14.14 0 0 1 0-.13.14.14 0 0 1 .04-.05 4.25 4.25 0 0 1 1.67.05c.04 0 .08.03.1.06a.2.2 0 0 1 0 .23.18.18 0 0 1-.1.07l-.25.08a.6.6 0 0 0-.22.13.65.65 0 0 0-.15.2l-2.33 4.82a.32.32 0 0 1-.14.15.3.3 0 0 1-.37-.09.34.34 0 0 1-.08-.2l-.18-3.43-.01-.04a.07.07 0 0 0-.03-.02.06.06 0 0 0-.07 0c-.16.13-.3.32-.42.58l-1.51 3.07a.36.36 0 0 1-.17.18.34.34 0 0 1-.23.02.35.35 0 0 1-.2-.13.38.38 0 0 1-.07-.24c0-1.13-.02-2.33-.05-3.6a3.77 3.77 0 0 0-.88-2.44.66.66 0 0 0-.47-.22.62.62 0 0 0-.47.2l-.86.9a.12.12 0 0 1-.07.03l-.07-.01-.11-.06a.13.13 0 0 1-.07-.15l.03-.05c.52-.66 1-1.05 1.41-1.17.53-.16 1.32.08 1.7.59.83 1.08.82 1.97.8 3.38v.38Zm32.2 1.34a.15.15 0 0 1 .1 0l.07.06a.16.16 0 0 1 0 .19c-.4.57-.95.91-1.63 1a.38.38 0 0 1-.27-.06.4.4 0 0 1-.16-.25c-.05-.2-.03-.46.05-.79.25-.98.53-2.1.87-3.37.42-1.61 1.17-2.65 2.81-2.5a.26.26 0 0 1 .19.1.28.28 0 0 1 .06.2l-.02.14a.3.3 0 0 1-.1.2.28.28 0 0 1-.2.07l-.83-.07a.74.74 0 0 0-.5.14.78.78 0 0 0-.3.44l-1.26 4.93a.2.2 0 0 0 .03.17.2.2 0 0 0 .15.08.5.5 0 0 0 .16-.07c.17-.09.3-.22.4-.33a.96.96 0 0 1 .38-.28Zm2.67 0a.15.15 0 0 0-.1 0c-.14.05-.25.16-.37.28-.11.12-.24.24-.4.33a.5.5 0 0 1-.17.07.19.19 0 0 1-.15-.09.2.2 0 0 1-.03-.16l1.27-4.93a.79.79 0 0 1 .3-.44c.14-.11.32-.16.5-.14l.83.07a.27.27 0 0 0 .21-.07.3.3 0 0 0 .1-.2l.01-.14a.29.29 0 0 0-.06-.2.27.27 0 0 0-.18-.1c-1.64-.15-2.4.88-2.83 2.5l-.86 3.37c-.09.33-.1.6-.06.8.02.09.08.18.16.24.08.05.17.08.27.07a2.3 2.3 0 0 0 1.63-1.01.16.16 0 0 0 0-.19.15.15 0 0 0-.07-.06Zm-5.4-5c.33-.25.52-.55.42-.68-.09-.13-.42-.04-.75.2-.32.25-.51.55-.42.68.09.13.43.03.75-.2ZM31.49 31c.04-.04.06-.1.07-.18 0-.17-.04-.36-.13-.57a.4.4 0 0 0-.1-.13.33.33 0 0 0-.13-.08c-.66-.17-1.23.07-1.71.72-.68.92.02 1.7.65 2.43l.21.23a.4.4 0 0 1 .08.14.46.46 0 0 1-.02.34.4.4 0 0 1-.09.13l-.35.3a.35.35 0 0 1-.14.09.32.32 0 0 1-.16 0l-.8-.21a.25.25 0 0 0-.13 0 .27.27 0 0 0-.1.06.34.34 0 0 0-.1.11.4.4 0 0 0-.02.15v.03c-.01.1.01.2.07.27.05.08.13.12.21.13.87.11 1.58-.12 2.12-.68a.95.95 0 0 0 .25-.54c.02-.2-.01-.42-.1-.6-.23-.44-.56-.93-.98-1.49a.71.71 0 0 1-.13-.28.81.81 0 0 1 .13-.63.66.66 0 0 1 .24-.2c.3-.15.53-.04.7.33.03.07.07.12.13.16.05.04.12.06.18.05.06 0 .11-.03.15-.08Zm2.88 2.54c0 .03.01.06.03.08.01.02.03.04.06.05a.1.1 0 0 0 .07 0c.03-.01.05-.03.06-.05l1.55-2.54a.33.33 0 0 0-.02-.37l-.25-.3a.27.27 0 0 1-.06-.13c0-.05 0-.1.02-.15a.24.24 0 0 1 .09-.11.18.18 0 0 1 .13-.03c.33.05.55.12.65.2.06.05.11.12.15.2a.87.87 0 0 1-.1.82c-.84 1.19-1.67 2.39-2.47 3.6a.4.4 0 0 1-.25.17.3.3 0 0 1-.15 0 .34.34 0 0 1-.14-.09.42.42 0 0 1-.1-.14.5.5 0 0 1-.03-.18c0-1.29-.1-2.47-.34-3.54a.44.44 0 0 0-.1-.19.34.34 0 0 0-.15-.1.3.3 0 0 0-.18 0 .34.34 0 0 0-.16.1l-.52.62a.2.2 0 0 1-.13.07.2.2 0 0 1-.15-.05l-.08-.07a.17.17 0 0 1-.04-.06.2.2 0 0 1-.01-.14l.03-.06c.61-.81 1.35-1.78 2.19-.57.55.8.5 1.38.43 2.05-.02.28-.05.58-.03.91Zm5.06-3.04.1-.27v-.1a.2.2 0 0 0-.04-.09.16.16 0 0 0-.08-.04h-.08l-1.52.55a.14.14 0 0 0-.07.07.17.17 0 0 0-.02.1l.05.1c.03.02.06.03.1.02.16-.02.32-.01.45.02.03 0 .05.01.08.03l.05.07a.25.25 0 0 1 .02.18l-.71 3.15a.64.64 0 0 0 .07.47c.04.06.1.12.15.16.07.04.13.06.2.07.6.04 1.12-.3 1.57-1.01a.13.13 0 0 0 .01-.1.11.11 0 0 0-.02-.05.1.1 0 0 0-.04-.02l-.14-.04h-.04l-.67.6a.17.17 0 0 1-.07.03h-.08a.17.17 0 0 1-.07-.04.2.2 0 0 1-.05-.08.58.58 0 0 1 0-.39c.35-.96.57-1.88.67-2.77.02-.2.11-.43.18-.62Zm-24 3.8c.1.22.27.4.46.52.38.24.88.23 1.37-.04.5-.27.96-.77 1.28-1.39a4 4 0 0 0 .35-.96c.07-.32.1-.65.08-.95-.03-.3-.1-.57-.21-.8a1.3 1.3 0 0 0-.47-.52c-.38-.24-.87-.23-1.37.04-.5.27-.96.77-1.28 1.39a4 4 0 0 0-.35.96c-.07.32-.1.65-.08.95.03.3.1.57.21.8Zm1.33.15c-.51-.1-.78-1.08-.6-2.18.19-1.1.75-1.9 1.26-1.8.51.1.78 1.07.6 2.17-.19 1.1-.75 1.91-1.26 1.8Zm3.36.36c-.2-.12-.35-.3-.47-.53-.11-.23-.18-.5-.2-.8-.02-.3 0-.63.08-.96a4 4 0 0 1 .36-.96c.33-.61.8-1.1 1.3-1.37.5-.26 1-.27 1.38-.02.19.12.35.3.46.53.11.23.18.5.2.8.02.3 0 .63-.08.96a4 4 0 0 1-.36.96c-.32.61-.79 1.1-1.29 1.37-.5.26-1 .27-1.38.02Zm.3-2.52c-.19 1.1.08 2.09.6 2.2.52.1 1.09-.72 1.27-1.83.18-1.1-.09-2.09-.6-2.2-.52-.1-1.1.72-1.28 1.83Zm29.33 1.26-.8.68a.11.11 0 0 1-.13 0 .12.12 0 0 1-.05-.05.13.13 0 0 1-.01-.07l.48-3.8a.31.31 0 0 0-.06-.23.26.26 0 0 0-.1-.07.24.24 0 0 0-.1-.02l-1.57.05-.08.01c-1.77.6-2.21 2.1-2.33 3.93-.01.18.02.36.1.5.07.15.18.27.3.33.58.26 1.17-.27 1.62-.69l.35-.3a.2.2 0 0 1 .22 0c.04.02.06.06.08.1.02.03.02.08.02.12l-.08.63a.3.3 0 0 0 .07.23c.02.03.06.06.1.07.03.02.07.02.1.02.9-.1 1.6-.5 2.09-1.2a.18.18 0 0 0-.02-.23.15.15 0 0 0-.1-.05.15.15 0 0 0-.1.04Zm-2.76 0c.22-.25.46-.56.7-.92 1.32-2-.4-3.1-1.33-.84-.17.4-.3.79-.39 1.12-.09.34-.13.62-.13.83 0 .22.05.36.15.42.1.06.23.04.4-.06s.38-.3.6-.54Z" fill="#050505"/></svg>