<!-- by TradingView --><svg xmlns="http://www.w3.org/2000/svg" width="18" height="18"><path fill="#F0F3FA" d="M0 0h18v18H0z"/><path fill-rule="evenodd" d="M9.1 5a.14.14 0 00-.2 0l-5.93 5.9a.31.31 0 01-.44-.44l6.3-6.4a.23.23 0 01.33 0l6.3 6.43a.3.3 0 01-.43.42L9.1 5zm0 1.36a.14.14 0 00-.2 0l-4.5 4.55a.3.3 0 01-.42-.41l4.88-4.93a.2.2 0 01.3 0l4.77 4.92a.3.3 0 11-.42.42L9.1 6.36zM9 8c-1.63 0-3 1.34-3 3 0 1.6 1.29 2.9 2.83 3h.3A3.03 3.03 0 0012 11c0-1.66-1.38-3-3-3zM7.93 9.5a.25.25 0 10-.46.18l1.3 3.37a.25.25 0 00.47 0l1.34-3.37a.25.25 0 00-.47-.18l-1.1 2.78L7.93 9.5z" fill="#E61E26"/></svg>