<!-- by TradingView --><svg width="56" height="56" viewBox="0 0 56 56" xmlns="http://www.w3.org/2000/svg"><path fill="#F0F3FA" d="M0 0h56v56H0z"/><path d="M28 8c.49 0 .8.15.94.45.05.12.08.34.08.67v4.14c0 .36.07.78.2 1.27a9.55 9.55 0 0 0 1.68 3.31c.72.94 1.61 1.8 2.66 2.58.02.01.02.03 0 .04A2234.81 2234.81 0 0 1 28 24.91a2364.35 2364.35 0 0 1-5.57-4.45c-.02-.02-.02-.03 0-.05a13.3 13.3 0 0 0 2.67-2.57 9.54 9.54 0 0 0 1.68-3.31c.14-.49.2-.91.2-1.27V9.12c0-.33.04-.55.1-.68.13-.3.44-.44.93-.44Zm.01 17.7c.02 0 .04 0 .06-.02l5.98-4.82a.1.1 0 0 1 .14 0c1.27.8 2.45 1.76 3.53 2.83.68.68 1.28 1.4 1.8 2.19.47.68.83 1.4 1.1 2.15.23.67.36 1.35.37 2.03.04 1.59-.09 3.12-.37 4.59-.16.8-.39 1.55-.68 2.22a4.55 4.55 0 0 1-1.8 2.2c-.3.18-.62.27-.95.27h-6.17c-.02 0-.02-.01-.02-.03v-3.28c0-.03 0-.03.03-.03h6.33l.15-.03c.02 0 .04-.02.05-.03l.1-.32a10.01 10.01 0 0 0-1.74-8.8 11.44 11.44 0 0 0-1.58-1.68.45.45 0 0 0-.36-.12 4.9 4.9 0 0 0-2.22 1.05 19.1 19.1 0 0 0-2.05 1.83c-.59.6-1.14 1.2-1.67 1.81-.03.03-.05.03-.08 0a32.54 32.54 0 0 0-2.15-2.28 17.8 17.8 0 0 0-1.59-1.36 6.3 6.3 0 0 0-1.63-.92 3.15 3.15 0 0 0-.76-.13.41.41 0 0 0-.16.08 9.94 9.94 0 0 0-3.35 5.3c-.36 1.43-.42 2.9-.18 4.44.05.35.12.57.21.85l.09.26c0 .03.03.05.06.05h6.42c.04 0 .08.01.08.05V39.31c0 .02 0 .03-.02.03h-5.81c-.43 0-.71-.02-.86-.07a3.45 3.45 0 0 1-1.82-1.56 9.3 9.3 0 0 1-1.16-3.19 22.2 22.2 0 0 1-.33-4.19 7 7 0 0 1 .26-1.94c.4-1.34 1.12-2.62 2.2-3.84a19.74 19.74 0 0 1 4.32-3.7.1.1 0 0 1 .12 0l6.06 4.85H28Zm-2.36 14.26c0 .03-.01.04-.04.04H25l-.02.01c0 .02.02.02.03.03.8.25 1.38.54 1.72.94.16.18.25.35.25.51v2.78c0 .06 0 .1.03.14 0 .02.04.05.08.1l.04.04c.15.14.32.26.52.35.22.1.44.13.68.07.23-.06.43-.18.6-.37.06-.08.1-.15.1-.22v-2.73c0-.3.1-.55.3-.75.22-.21.48-.4.79-.55a6.47 6.47 0 0 1 .9-.36v-.02h-.6c-.05 0-.07-.02-.07-.06v-4.28c0-.04.02-.06.06-.06h6.62c.04 0 .07-.02.07-.05.41-1.6.42-3.2.04-4.8a9.18 9.18 0 0 0-1.15-2.74 10.15 10.15 0 0 0-2.04-2.32 4.58 4.58 0 0 0-1.7.82c-.59.44-1.16.93-1.7 1.47a32.2 32.2 0 0 0-2.5 2.73c-.03.03-.06.03-.1 0a30.63 30.63 0 0 0-2.84-3.06c-.65-.6-1.27-1.09-1.87-1.47a3.93 3.93 0 0 0-1.24-.49 9.45 9.45 0 0 0-3.38 7.2c-.02.87.07 1.76.28 2.66 0 .03.03.05.07.05h6.61c.05 0 .07.03.07.07v4.32Z" fill="#4CCC39"/></svg>