<!-- by TradingView --><svg width="18" height="18" viewBox="0 0 18 18" xmlns="http://www.w3.org/2000/svg"><path fill="#F0F3FA" d="M0 0h18v18H0z"/><path d="M10.04 11.76A3.8 3.8 0 1 0 6.56 9.5l-2.9 2.02c.18.35.69 1.2 1.35 1.79l2.41-2.59.08.07-.04-.1 4.36-4.67-2.65.46.5.84L7.7 8.69a2.87 2.87 0 0 1 2.67-3.96 2.88 2.88 0 1 1-.94 5.6l-.88 1.13c.45.2.95.3 1.48.3Z" fill="#03025F"/><path d="M9 15a6 6 0 1 0-5.75-4.28l1.66-.8a4.7 4.7 0 1 1 3.75 3.17l2.3-4.57.9.37.11-2.8-5.14 6.31-.02-.02-1.22 1.56A5.97 5.97 0 0 0 9 15Z" fill="#E9242B"/></svg>