<!-- by TradingView --><svg width="56" height="56" viewBox="0 0 56 56" xmlns="http://www.w3.org/2000/svg"><path fill="#3D507B" d="M0 0h56v56H0z"/><path d="M22 25.93V22.1c0-.07.04-.11.13-.11h.75c.08 0 .12.04.12.1v5.81l-.01.04a.1.1 0 0 1-.03.03.12.12 0 0 1-.04.02h-.04a.22.22 0 0 1-.13-.05c-1.6-1.35-3.11-2.49-4.65-3.78-.07-.06-.1-.05-.1.03v3.7c0 .06-.04.1-.13.1h-.71c-.1 0-.16-.04-.16-.13v-5.8c0-.08.04-.1.12-.03l4.8 3.92c.05.04.08.04.08-.03ZM7.76 22.87c-.41.15-.57.65-.31.98.39.48 1.19.64 1.77.9.7.34 1.08.83 1.12 1.48.03.52-.18.95-.6 1.28-1.3.99-2.98.38-3.7-.87-.07-.12-.04-.22.08-.3l.42-.26a.25.25 0 0 1 .18-.03c.04 0 .07.02.1.04l.05.06c.45.73 1.2 1.4 2.09.85.71-.44.3-1.32-.37-1.57-1.19-.43-2.54-.84-2.25-2.21.12-.61.67-1.06 1.34-1.17 1.19-.2 2.06.2 2.6 1.21v.02c-.22.15-.5.34-.78.44l-.04-.01c-.5-.77-1.02-1.08-1.7-.84ZM38.41 31.87c-.41.15-.57.65-.31.98.4.48 1.19.64 1.77.9.71.34 1.08.83 1.12 1.48.03.52-.17.95-.6 1.28-1.3.99-2.98.38-3.7-.87-.07-.12-.04-.22.08-.3l.42-.26a.25.25 0 0 1 .19-.03c.03 0 .06.02.08.04.03.01.05.04.07.06.44.73 1.18 1.4 2.08.85.71-.44.3-1.32-.37-1.57-1.19-.43-2.54-.84-2.25-2.21.13-.61.67-1.06 1.35-1.17 1.18-.2 2.05.2 2.6 1.21v.02c-.22.15-.51.34-.79.44l-.04-.01c-.5-.77-1.01-1.08-1.7-.84ZM17.18 33.58h2.56c.03 0 .06.02.09.04a.1.1 0 0 1 .04.07l.01.7v.03a.1.1 0 0 1-.04.04.14.14 0 0 1-.04.02H17.18c-.06 0-.18.07-.18.14v2.28c0 .02.01.05-.01.07a.15.15 0 0 1-.1.03h-.76a.15.15 0 0 1-.09-.03.1.1 0 0 1-.04-.07v-5.8l.01-.04a.1.1 0 0 1 .03-.03.14.14 0 0 1 .04-.02l.05-.01h3.73c.07 0 .14.06.14.12v.77c0 .06-.07.11-.13.11h-2.7c-.03 0-.06 0-.09.02-.02.02-.08.05-.08.08v1.38c0 .02.06.05.09.07.02.02.05.03.09.03ZM13.43 24.53c.04.07.09.07.13 0l1.41-2.41a.23.23 0 0 1 .21-.12h.69c.13 0 .16.06.1.17-.6.99-1.17 1.99-1.8 3-.11.17-.17.36-.17.55v2.16c0 .08-.05.12-.13.12h-.76c-.07 0-.11-.04-.11-.1v-2.17a.8.8 0 0 0-.12-.42l-1.84-3.13c-.08-.12-.04-.18.1-.18h.67c.1 0 .17.04.22.12l1.4 2.4ZM26.53 23.1v4.8a.1.1 0 0 1-.03.06.11.11 0 0 1-.07.04h-.81a.1.1 0 0 1-.08-.03.1.1 0 0 1-.03-.07V23.1a.1.1 0 0 0-.03-.07c-.02-.02-.05-.04-.08-.04h-1.28c-.03 0-.06 0-.08-.02L24 22.9v-.8a.1.1 0 0 1 .03-.08.1.1 0 0 1 .08-.03h3.78a.1.1 0 0 1 .07.03l.04.07v.8c0 .06-.05.1-.1.1h-1.26l-.04.01a.1.1 0 0 0-.06.06.1.1 0 0 0 0 .04ZM33 23.9v-1.8c0-.06.06-.1.1-.1h.8c.03 0 .05.02.07.04a.1.1 0 0 1 .03.06v5.8c0 .06-.06.1-.11.1h-.76c-.04 0-.13-.08-.13-.12V25.1a.1.1 0 0 0-.03-.07.1.1 0 0 0-.07-.03h-2.8a.1.1 0 0 0-.07.03.1.1 0 0 0-.03.07v2.8a.1.1 0 0 1-.03.07.1.1 0 0 1-.07.03h-.8c-.03 0-.05-.02-.07-.04a.1.1 0 0 1-.03-.06v-5.8a.1.1 0 0 1 .03-.07.1.1 0 0 1 .07-.03h.8a.1.1 0 0 1 .07.03.1.1 0 0 1 .03.07v1.8c0 .03.01.06.03.07a.1.1 0 0 0 .07.03h2.8a.1.1 0 0 0 .07-.03.1.1 0 0 0 .03-.06ZM36.9 22h-.8c-.05 0-.1.04-.1.09v5.82c0 .05.05.09.1.09h.8c.05 0 .1-.04.1-.09V22.1c0-.05-.05-.09-.1-.09ZM29.9 31h-.8c-.05 0-.1.04-.1.09v5.82c0 .05.05.09.1.09h.8c.05 0 .1-.04.1-.09V31.1c0-.05-.05-.09-.1-.09ZM40.1 24.05l1.98-2.03a.05.05 0 0 1 .03-.02h1.14l.03.02.01.02v.05l-2.66 2.71-.01.04v.03l2.78 3.05.01.03a.04.04 0 0 1-.02.04h-.03L42.2 28a.05.05 0 0 1-.04-.02l-2.07-2.28a.05.05 0 0 0-.06-.01l-.02.01v2.25l-.02.04-.04.01h-.9c-.02 0-.03 0-.04-.02l-.01-.03v-5.9A.04.04 0 0 1 39 22a.05.05 0 0 1 .04-.01h.9c.02 0 .03.02.04.03l.01.03V24l.03.03.02.02h.03l.02-.01ZM33.2 36h2.64c.03 0 .16.08.16.12v.81a.1.1 0 0 1-.04.04.14.14 0 0 1-.04.02l-.05.01h-3.74a.15.15 0 0 1-.1-.03.1.1 0 0 1-.03-.07v-5.8a.1.1 0 0 1 .04-.07.15.15 0 0 1 .1-.03h.73l.1.03a.1.1 0 0 1 .03.08v4.8c0 .06.15.09.2.09ZM45.87 27.78a3 3 0 1 0 2.26-5.56 3 3 0 0 0-2.26 5.56Zm1.14-.78a2 2 0 1 1-.01-4 2 2 0 0 1 0 4ZM22.87 36.78a3 3 0 1 0 2.26-5.56 3 3 0 0 0-2.26 5.56Zm1.14-.78a2 2 0 1 1-.01-4 2 2 0 0 1 0 4Z" fill="#fff"/></svg>