<!-- by TradingView --><svg width="56" height="56" viewBox="0 0 56 56" xmlns="http://www.w3.org/2000/svg"><path fill="#F0F3FA" d="M0 0h56v56H0z"/><path d="M31.25 15.43c-.6-.03-.81-.09-.64-.18-.13-.93-.38-1.9-.73-2.92a5.6 5.6 0 0 0-.96-1.67c-.57-.71-1.23-.81-2-.3a6.8 6.8 0 0 0-1.9 2.28c-.26.45-.6 1.35-1.04 2.7a30.2 30.2 0 0 0-1.42 6.62c-.3 3.44-.44 6.02-.42 7.74.02 1.05.15 2.68.4 4.9.26 2.32.45 3.76.57 4.33.67 3.15 1.23 5.34 3.57 7.14a.69.69 0 0 0 .79.04 5.97 5.97 0 0 0 2.26-2.54c.28-.59.4-1.58.38-2.97l-.03-6.26a.47.47 0 0 0-.11-.3.5.5 0 0 0-.29-.17l-1.16-.22a.36.36 0 0 1-.2-.1.35.35 0 0 1-.1-.22c-.04-.5-.02-.91.08-1.21.06-.2.19-.3.4-.33l2.18-.19 2.06.1c.22.55.28 1.14.2 1.77-.02.1-.08.17-.19.19l-.5.08c-.1.02-.17.1-.18.2-.08 1.72-.1 3.4-.02 5.03.02.5.38.99.24 1.5-.37 1.44-.9 2.72-1.61 3.86a6.03 6.03 0 0 1-3 2.45c-.5.2-.91.26-1.23.19a5.02 5.02 0 0 1-2.89-1.92c-.78-1-1.33-1.92-1.65-2.77a24.43 24.43 0 0 1-1.2-4.11 55.42 55.42 0 0 1-.47-17.04c.14-1.06.37-2.16.7-3.3a45.5 45.5 0 0 1 1-3.23c.93-2.33 3.12-5.23 5.84-5.59 1-.13 2.2.72 3.02 1.24a.52.52 0 0 1 .25.44v4.74Z" fill="#469BBF"/><path fill-rule="evenodd" d="M37.27 17.57a7.06 7.06 0 0 1 2.29 3.37c.53 1.6.58 3.22.15 4.87-.2.75-.46 1.37-.8 1.86-.61.88-1.37 1.69-2.28 2.44a7.2 7.2 0 0 1-3.7 1.59l-2.05-.1A11.76 11.76 0 0 1 26 29.3a6.85 6.85 0 0 1-2.22-2.9 8.32 8.32 0 0 1-.45-3.77c.07-.74.25-1.41.53-2.02 2.56-5.54 8.68-6.83 13.41-3.04Zm-5.16-1.13c.28.1.55.04.6-.1.05-.16-.14-.36-.42-.45-.28-.1-.55-.04-.6.11-.05.15.14.35.42.44Zm-.39.33h-.01l-.36-.12a.07.07 0 0 0-.05 0 .07.07 0 0 0-.03.05l-.02.04c-.15.5-.29.99-.37 1.35-.07.37-.09.58-.04.6l.11.03c.05.01.16-.17.31-.52.15-.34.32-.81.48-1.3l.01-.06v-.02a.06.06 0 0 0-.03-.05Zm-1.71 1.75.36.06c.09.02.15.07.18.15.22.48.2.89-.08 1.23a.27.27 0 0 1-.26.1.27.27 0 0 1-.2-.2 2.5 2.5 0 0 0-1.28-1.6c-.08-.05-.1-.12-.07-.21.16-.41.38-.7.68-.87a.25.25 0 0 1 .25 0c.31.17.41.56.3 1.16-.03.1.02.16.12.18Zm-3.46-.58c.09.08.1.2.03.29l-.71.82a.2.2 0 0 1-.29.02.2.2 0 0 1-.03-.28l.71-.83a.2.2 0 0 1 .29-.02Zm-.27 5.26c.38.23.5.57.37 1.02-.05.21-.2.3-.4.24-.9-.2-1.64-.5-2.24-.92a.44.44 0 0 1-.17-.22c-.06-.2-.06-.48.01-.84.2-.98.5-1.89.94-2.74a.56.56 0 0 1 .37-.3c.26-.06.42.02.47.24a.7.7 0 0 1-.04.33c-.15.5-.2 1.03-.16 1.6.02.36.2.6.37.84.12.17.24.34.31.55a.4.4 0 0 0 .17.2Zm12.57-2.76-.31-.55a.36.36 0 0 0-.13-.13l-.47-.27a.37.37 0 0 0-.53.19.35.35 0 0 0 0 .2l.2.82c.03.07.07.14.14.19.06.05.14.07.22.08h.55a.37.37 0 0 0 .32-.18.35.35 0 0 0 0-.35Zm-9.42 1.24c.3-.1.52-.06.64.1.05.07.13.1.23.1.25-.03.38-.18.4-.48.02-.28-.03-.6-.14-.99-.02-.07 0-.1.07-.08l.14.02c.03.01.05.03.05.06l.12.97c.02.17.1.32.16.46.07.15.14.3.15.45 0 .09-.02.17-.06.25l-.04.06c-.2.3-.35.54-.35.9a11.7 11.7 0 0 0 .07 1.3.2.2 0 0 1-.1.12.21.21 0 0 1-.08.02c-.35.02-.68.1-.99.24a.18.18 0 0 1-.21-.03 3.39 3.39 0 0 0-1.87-.91.33.33 0 0 1-.2-.13.32.32 0 0 1-.06-.24l.16-.85c.02-.1.01-.2-.03-.29-.16-.36-.2-.67-.15-.95.04-.16.13-.25.27-.26.1-.01.16.03.15.14-.02.25-.03.39-.02.41.03.13.1.2.2.23.08.03.15 0 .2-.06l.4-.51a.23.23 0 0 0 .03-.28l-.14-.23a.26.26 0 0 1 0-.27c.3-.51.83-.68 1.58-.5a.2.2 0 0 1 .12.09c.02.04.03.09.02.13l-.11.62c-.03.14-.1.18-.24.13-.12-.05-.26-.03-.44.07-.04.03-.04.06-.02.1l.04.07c.01.02.03.03.05.02Zm8.38-.29-.08.11a.19.19 0 0 1-.24.05c-.35-.2-.65-.3-.9-.3a.22.22 0 0 0-.17.07.22.22 0 0 0-.05.18l.2 1.1a.18.18 0 0 0 .11.14.19.19 0 0 0 .18-.01 7 7 0 0 0 1.42-1.2c.1-.12.07-.2-.08-.22l-.11-.02a.27.27 0 0 0-.28.1Zm-.6 1.6a48.43 48.43 0 0 0 1.88-1.64.14.14 0 0 1 .13.04l.04.06a11 11 0 0 1 .32 2.6c0 .64-.15 1.16-.63 1.65a8.44 8.44 0 0 1-2.72 1.9.12.12 0 0 1-.09-.1v-.06a8.2 8.2 0 0 0 .49-3.84.31.31 0 0 1 .08-.25c.07-.07.15-.13.25-.18.08-.05.17-.11.26-.19Zm-1.52-.84c-.12 0-.23-.13-.24-.31-.02-.18.06-.34.18-.35.12 0 .23.13.25.31.02.18-.07.34-.19.35Zm.02 3.54-.1-1.7a.09.09 0 0 1 .06-.1l.44-.15a.09.09 0 0 1 .1.04l.02.04.08 1.24-.01.05-.42.62a.08.08 0 0 1-.03.02l-.02.01a.1.1 0 0 1-.02 0 .09.09 0 0 1-.1-.08Zm-7.03 2.98a2.4 2.4 0 0 0-.24-.33 9.9 9.9 0 0 1-1.71-3.17.27.27 0 0 0-.17-.17l-2.59-1a.13.13 0 0 0-.12.02.13.13 0 0 0-.05.1.13.13 0 0 0 0 .02c.06 1.18.46 2.3 1.18 3.37.29.43.55.52 1.06.69h.02a20.16 20.16 0 0 0 2.55.65.14.14 0 0 0 .08-.1.13.13 0 0 0 0-.08Zm2.08-2.75-.34-.26a.13.13 0 0 1 0-.2c.12-.1.3-.16.48-.11.15.04.48.18 1 .43.08.05.14.12.15.22l.51 2.79a.13.13 0 0 1 0 .05.14.14 0 0 1-.07.1 2.6 2.6 0 0 0-1.21.4c-.1.05-.16.03-.2-.07-.12-.28-.23-.55-.32-.82-.13-.37 0-.83.13-1.27l.15-.57a.71.71 0 0 0-.28-.69Zm4.17 1.68c-.14.14-.28.2-.41.18a.29.29 0 0 1-.24-.17 6.37 6.37 0 0 0-1.39-2.02c-.45-.42-.64-.32-.56.27.12.93.3 1.85.54 2.75a.34.34 0 0 0 .39.25c1.16-.2 2.54-.6 2.57-2.03a.16.16 0 0 0-.04-.11v-.01a.17.17 0 0 0-.13-.05c-.13.01-.21.06-.25.14-.18.39-.34.66-.48.8Zm3.94-.74L36.9 29.4a.16.16 0 0 1-.11.06l-1.45.08a.16.16 0 0 1-.14-.07.15.15 0 0 1 0-.17l.64-.93a.16.16 0 0 1 .05-.04l2.79-1.69a.16.16 0 0 1 .2.03.15.15 0 0 1 0 .2Zm-10.02 2.55c-.85-.16-1.32-.25-1.41-.28l-.91-.23c-.48-.13-.53-.05-.15.26a9 9 0 0 0 3.99 1.88c.23.04.4 0 .5-.13.11-.17.09-.32-.08-.43-.45-.32-.76-.54-.92-.67a2.33 2.33 0 0 0-1.02-.4Zm5.2.68-.69.09c-.04 0-.08-.01-.11-.03a.15.15 0 0 1-.06-.1l-.12-.66c0-.04 0-.08.02-.11a.16.16 0 0 1 .1-.07l1.46-.39a.16.16 0 0 1 .17.06.15.15 0 0 1 0 .18l-.66.96a.16.16 0 0 1-.1.07Zm-2.13-.58-.36.4a.07.07 0 0 1-.04.02l-.27.05c-.11.02-.13.07-.04.15.4.38.88.45 1.43.2.1-.04.13-.12.11-.22l-.06-.39a.43.43 0 0 0-.32-.34.45.45 0 0 0-.45.13Z"/></svg>