<!-- by TradingView --><svg width="56" height="56" viewBox="0 0 56 56" xmlns="http://www.w3.org/2000/svg"><path fill="#F0F3FA" d="M0 0h56v56H0z"/><path d="M20 34.95c-7.06-.42-13-3.44-13-7.1 0-2.42 2.87-4.56 6.55-5.85C7.99 22.91 4 25.4 4 28.31 4 32.01 10.37 35 18.24 35c.6 0 1.18-.02 1.76-.05ZM44 27.7V25h8v2.7l-2-2.43V31h-3.99v-5.73L44 27.7ZM39 25h4v6h-4v-6ZM30 31v-6h3.72v2.72h.55V25H38v6h-3.74v-2.78h-.55V31H30ZM25.74 31v-6h.29a3 3 0 0 1 2.11.86A2.94 2.94 0 0 1 29 28a3.11 3.11 0 0 1-.84 2.14 2.98 2.98 0 0 1-2.1.87h-.32Zm-.49-6v6h-.43a2.6 2.6 0 0 1-1.41-.4A3.1 3.1 0 0 1 22 28c-.01-.43.06-.83.21-1.2A2.83 2.83 0 0 1 25 25h.25Z" fill="#00AEEF"/><path d="M12 31v-3.06L14.15 31H12Zm5-3.5 1.99-2.5H21v6h-4v-3.5Zm-5-.5v-2H15l1.99 2.85-2.2 3.15-2.77-4Z" fill="#00AEEF"/></svg>