<!-- by TradingView --><svg width="18" height="18" viewBox="0 0 18 18" xmlns="http://www.w3.org/2000/svg"><path fill="#D97048" d="M0 0h18v18H0z"/><path d="M9.43 8.39c-2.39-.29-2.79-.95-2.79-1.76V6.6c0-.85.88-1.6 2.15-1.6 1.02 0 1.91.44 2.79 1.04l.78-1A5.97 5.97 0 0 0 8.82 4C6.75 4 5.25 5.13 5.25 6.7v.02c0 1.77 1.41 2.58 3.63 2.85 2.23.27 2.69.92 2.69 1.7v.03c0 .9-.95 1.7-2.28 1.7-1.35 0-2.38-.54-3.51-1.45l-.78 1A6.64 6.64 0 0 0 9.25 14c2.18 0 3.75-1.15 3.75-2.8v-.02c0-1.47-1.06-2.5-3.57-2.8Z" fill="#fff"/></svg>