<!-- by TradingView --><svg width="18" height="18" viewBox="0 0 18 18" xmlns="http://www.w3.org/2000/svg"><path fill="#F0F3FA" d="M0 0h18v18H0z"/><path d="m9.1 4.03-.07.02c-.02 0-.03.02-.03.04v2.82L4.8 9a3 3 0 0 1-.79-.8 8.1 8.1 0 0 1 0-.84c.01-.26.05-.45.1-.57.1-.18.22-.34.38-.48.13-.12.32-.23.54-.35l3.92-1.94c.04-.02.09-.01.14.02Z" fill="#1C3664"/><path d="M9.1 4.03a1119.6 1119.6 0 0 1 3.48 1.72c.46.23.78.42.96.57.29.25.44.56.45.92v2.1c0 .03 0 .03-.03.02L9 6.91V4.1c0-.02.01-.03.03-.04l.07-.02Z" fill="#1F98D6"/><path d="M4.01 8.19c.23.34.5.6.8.8L9 11.07V14l-3.94-1.94a2.27 2.27 0 0 1-.75-.56c-.2-.24-.3-.52-.3-.84V8.2Z" fill="#5FA62F"/><path d="M9 14v-2.93l2.42-1.17a.08.08 0 0 1 .08 0l2.47 1.2c.03 0 .04.03.02.06-.14.35-.47.65-.98.9L9 14Z" fill="#F5B232"/></svg>