<!-- by TradingView --><svg width="56" height="56" viewBox="0 0 56 56" xmlns="http://www.w3.org/2000/svg"><path fill="#F0F3FA" d="M0 0h56v56H0z"/><path d="m11.13 31 .6-.96c.03-.03.05-.04.08-.02.18.12.36.27.55.37.72.37 1.45.47 2.2.31.37-.07.78-.3.88-.71.12-.44 0-.8-.35-1.05a2.86 2.86 0 0 0-.85-.28c-.52-.09-.96-.19-1.34-.29a1.82 1.82 0 0 1-1.18-.9c-.2-.36-.28-.83-.22-1.4.1-1.18.9-1.85 1.97-2.02a4.03 4.03 0 0 1 3.08.76v.03l-.54.97c-.03.06-.07.07-.12.03-.7-.52-1.44-.7-2.24-.57-.14.02-.3.09-.48.18a.85.85 0 0 0-.46.78c-.01.72.62.96 1.2 1.07l1.14.26c1 .28 1.64.84 1.66 2.04.04 1.95-1.6 2.48-3.16 2.39a4.2 4.2 0 0 1-2.43-.96l.01-.03ZM38 29.37c0 .7-.25 1.37-.71 1.86-.46.5-1.09.77-1.74.77h-.34c-.65 0-1.28-.27-1.74-.76a2.71 2.71 0 0 1-.72-1.86v-2.75c0-.7.25-1.37.7-1.86.47-.5 1.1-.77 1.74-.77h.35c.65 0 1.28.27 1.74.76.46.5.72 1.16.72 1.86v2.75Zm-1.25-2.7a1.48 1.48 0 0 0-.38-.98 1.3 1.3 0 0 0-.93-.4h-.14a1.24 1.24 0 0 0-.93.4 1.4 1.4 0 0 0-.37 1v2.63a1.48 1.48 0 0 0 .38.99 1.3 1.3 0 0 0 .93.4h.14a1.24 1.24 0 0 0 .93-.4 1.4 1.4 0 0 0 .38-1v-2.63ZM44.26 29.37c0 .7-.26 1.37-.72 1.86-.46.5-1.08.77-1.73.77h-.35c-.65 0-1.27-.27-1.73-.76a2.71 2.71 0 0 1-.73-1.86v-2.75c0-.7.26-1.37.72-1.86.45-.5 1.08-.77 1.73-.77h.35c.65 0 1.27.27 1.73.76.46.5.72 1.16.73 1.86v2.75ZM43 26.67a1.4 1.4 0 0 0-.38-.99 1.3 1.3 0 0 0-.92-.4h-.15a1.24 1.24 0 0 0-.92.41 1.4 1.4 0 0 0-.37 1v2.63a1.48 1.48 0 0 0 .38.99 1.3 1.3 0 0 0 .92.4h.15a1.24 1.24 0 0 0 .92-.4c.12-.14.22-.3.28-.46.07-.17.09-.35.09-.54v-2.63ZM7.27 24a41.64 41.64 0 0 1 .45.01l.02.04 2.8 7.91a.03.03 0 0 1 0 .03l-.02.01H9.27c-.02 0-.04-.01-.04-.03l-.52-1.45c0-.02-.02-.04-.05-.04a643.77 643.77 0 0 1-2.77 0c-.03 0-.05.02-.06.04l-.5 1.45c-.01.02-.03.03-.05.03H4.03a.03.03 0 0 1-.03-.01.03.03 0 0 1 0-.03l2.8-7.91c0-.02.02-.03.03-.04h.03l.41-.01Zm-1.02 5.18a.03.03 0 0 0 0 .03h.02l.01.01h2v-.01a.03.03 0 0 0 .01-.03l-.99-3-.01-.01a.03.03 0 0 0-.03 0l-.02.01-.99 3ZM21.96 27.4c.03 0 .04-.02.04-.05v-3.3c0-.03.02-.05.05-.05h1.15c.04 0 .05.02.05.06v7.93l-.02.01h-1.18l-.03-.01-.02-.04V28.7a.03.03 0 0 0-.02 0H19.26l-.01.02v3.24c0 .01 0 .03-.02.04l-.03.01h-1.19l-.01-.03v-7.91c0-.04.02-.06.06-.06h1.14c.03 0 .05.02.05.05v3.3c0 .03.01.05.04.05h2.67ZM29.72 29.78v-5.76a.03.03 0 0 1 .03-.02h1.22a.03.03 0 0 1 .03.03V32l-.03.01h-1.38l-.02-.01-.01-.01-3.22-5.67-.01-.02a.03.03 0 0 0-.04.01v.02l-.03 5.65a.03.03 0 0 1-.03.03h-1.2a.03.03 0 0 1-.03-.03V24h1.43l3.23 5.78.02.02h.02a.03.03 0 0 0 .02-.03ZM50.16 28.66c.75 1.34 1.86 3.25 1.84 3.3 0 .03-.03.04-.05.04h-1.5a.06.06 0 0 1-.04-.03l-1.74-3.23a.06.06 0 0 0-.06-.04h-1.22c-.03 0-.05.02-.05.05v3.2c0 .03-.02.05-.05.05h-1.23c-.02 0-.03 0-.04-.02a.05.05 0 0 1-.02-.04v-7.9c0-.02.02-.04.05-.04h3.28c1.24.02 2 .6 2.28 1.72.12.48.1.98-.07 1.5-.18.57-.54.99-1.07 1.24l-.29.14c-.03.01-.04.03-.02.06Zm-2.82-3.37v2.13l.04.01h1.92a.98.98 0 0 0 .98-.97v-.22a.98.98 0 0 0-.98-.99h-1.92a.04.04 0 0 0-.04.03v.01Z"/></svg>