<!-- by TradingView --><svg width="18" height="18" viewBox="0 0 18 18" xmlns="http://www.w3.org/2000/svg"><path fill="#F0F3FA" d="M0 0h18v18H0z"/><path d="M7.1 12H5.67l-.16-1H4.6l-.1 1H3l.78-6h2.37l.95 6Zm2.42-6c.82 0 1.48.63 1.48 1.4v1H9.46v-.92c0-.24-.2-.43-.46-.43-.25 0-.46.2-.46.43v3.04c0 .24.2.43.46.43.25 0 .46-.2.46-.43V9.6H11v1c0 .77-.66 1.4-1.48 1.4H8.48C7.66 12 7 11.37 7 10.6V7.4C7 6.63 7.66 6 8.48 6h1.04Zm3.55 0c1.38 0 1.82.54 1.82 1.19v.61h-1.43v-.61a.33.33 0 0 0-.35-.29c-.25 0-.41.27-.4.4 0 .13.06.42.3.6s.92.62 1.23.82c.25.16.76.6.76 1.06v.76c0 .98-.8 1.46-1.8 1.46s-1.9-.48-1.9-1.46V10h1.55v.67c0 .18.17.33.36.33.18 0 .34-.15.34-.33v-.29c0-.2-.1-.38-.27-.5l-1.55-1.1a1.38 1.38 0 0 1-.42-1.03v-.4c.01-.45.38-1.35 1.76-1.35ZM4.7 10h.64l-.4-2.4L4.7 10Z" fill="#0D76B8"/></svg>