<!-- by TradingView --><svg width="18" height="18" viewBox="0 0 18 18" xmlns="http://www.w3.org/2000/svg"><path fill="url(#a)" d="M0 0h18v18H0z"/><path d="M12.56 7.54A12.3 12.3 0 0 0 9.4 5.75c.8-.98 1.8-1.56 3-1.75.05 0 .08.01.1.06.35 1.15.37 2.3.05 3.48ZM7.6 10.6l-.58-.47c-.08-.08-.1-.15-.02-.24.14-.16.15-.32.02-.48-.12-.17-.29-.19-.48-.06a.33.33 0 0 0-.16.2c-.02.1 0 .17.05.24.32.42.67.75 1.03 1 .02.03.03.05.01.08-.01.02-.03.03-.06.02a5.02 5.02 0 0 1-2.64-2.15 5.13 5.13 0 0 1-.73-3.35c0-.05.03-.07.07-.07a5.32 5.32 0 0 1 3.88 1.31c.06.05.08.11.04.18a5.2 5.2 0 0 0-.36 3.75c.01.02 0 .03-.01.04-.02.02-.04.02-.05 0Z" fill="#D6107A"/><path d="M12.56 7.54a5.6 5.6 0 0 1-1.93 2.9 3.3 3.3 0 0 0-2.01.98c-.52-.92-.7-1.9-.53-2.95.16-1 .6-1.9 1.32-2.72a12.3 12.3 0 0 1 3.15 1.79Z" fill="url(#b)"/><path d="M10.63 10.44c1.46-.1 2.59.4 3.37 1.51v.07a3.5 3.5 0 0 1-2.83.96 3.2 3.2 0 0 1-2.55-1.56 3.3 3.3 0 0 1 2-.98Z" fill="#D6107A"/><path d="M6.63 11.13c.41.05.78.02 1.1-.1.08-.02.13 0 .15.09v.02c.02.08 0 .12-.08.14-.5.1-1.08.11-1.75.03a.3.3 0 0 1-.27-.22.34.34 0 0 1 .08-.37c.1-.1.23-.13.4-.09.16.06.24.17.24.34 0 .1.04.14.13.16Z" fill="#E61C87"/><defs><linearGradient id="a" x1="3.35" y1="3.12" x2="21.9" y2="24.43" gradientUnits="userSpaceOnUse"><stop stop-color="#1A1E21"/><stop offset="1" stop-color="#06060A"/></linearGradient><linearGradient id="b" x1="8.34" y1="10.84" x2="10.59" y2="6.98" gradientUnits="userSpaceOnUse"><stop stop-color="#E61C87"/><stop offset="1" stop-color="#D6107A"/></linearGradient></defs></svg>