<!-- by TradingView --><svg width="56" height="56" viewBox="0 0 56 56" xmlns="http://www.w3.org/2000/svg"><path fill="#F0F3FA" d="M0 0h56v56H0z"/><path d="M18.05 34.55c.04 0 .07.03.1.06a.17.17 0 0 1 0 .21.18.18 0 0 1-.1.06c-3.06.85-5.37-.1-6.94-2.82-1.02-1.77-1.34-3.94-.95-6.54.36-2.4 1.18-4.48 2.47-6.23a8.35 8.35 0 0 1 3.43-2.78 5.16 5.16 0 0 1 4.33-.06c2.28 1.02 4.6 3.44 7 7.24a.21.21 0 0 1 0 .22l-1.98 3.35a.26.26 0 0 1-.23.13.26.26 0 0 1-.13-.04.25.25 0 0 1-.1-.1 24.42 24.42 0 0 0-4.32-5.54c-1.25-1.2-2.62-1.33-4.1-.42a5.87 5.87 0 0 0-2.6 3.5 9.4 9.4 0 0 0 .07 5.82 6 6 0 0 0 4.05 3.94Z" fill="url(#a)"/><path d="M37.63 21.72a.17.17 0 0 1-.1-.13.16.16 0 0 1 .07-.15c.7-.53 1.55-.7 2.51-.51a6.65 6.65 0 0 1 4.83 3.55 9.54 9.54 0 0 1 .94 6A12.75 12.75 0 0 1 43 37.06a8.17 8.17 0 0 1-3.93 2.68c-1.67.5-3.22.3-4.64-.58-1.74-1.08-3.65-3.24-5.75-6.49a.77.77 0 0 1-.02-.8L30.34 29a.37.37 0 0 1 .32-.18.37.37 0 0 1 .32.18c1.23 2.12 2.6 3.9 4.13 5.36.63.6 1.37.9 2.23.92.87.03 1.63-.24 2.3-.8 1.78-1.51 2.63-3.57 2.55-6.19-.09-2.62-1.08-4.63-2.98-6.03-.22-.16-.58-.3-1.09-.4a3 3 0 0 1-.49-.15Z" fill="url(#b)"/><path d="M34.06 17.5c1.56-.98 2.93-1.37 4.12-1.18 1.02.16 1.98.57 2.9 1.24a11.27 11.27 0 0 1 4.36 6.76l-.03.02-.01.01h-.05a6.91 6.91 0 0 0-4.07-3.84c-1.8-.68-3.5-.33-5.13 1.03a23.67 23.67 0 0 0-5.45 6.1 84.58 84.58 0 0 0-2.52 3.75c-1.23 2-2.74 3.97-4.5 5.91a9.77 9.77 0 0 1-2.02 1.7 5.99 5.99 0 0 1-5.34.65 6.67 6.67 0 0 1-3.99-3.46 163.64 163.64 0 0 1-1.57-3.24l.12-.12c0-.01.01-.02.03-.02a.08.08 0 0 1 .09.03 6.94 6.94 0 0 0 3.4 2.74c1.52.58 2.93.48 4.24-.33 1.7-1.03 2.78-1.85 3.28-2.46 1.98-2.39 3.7-4.77 5.16-7.13a48.37 48.37 0 0 1 3.71-5.34 13.8 13.8 0 0 1 3.27-2.82Z" fill="url(#c)"/><defs><linearGradient id="a" x1="10" y1="29.21" x2="27.41" y2="27.28" gradientUnits="userSpaceOnUse"><stop stop-color="#EE7224"/><stop offset=".49" stop-color="#F6DF04"/><stop offset="1" stop-color="#56B645"/></linearGradient><linearGradient id="b" x1="28.55" y1="31.13" x2="46" y2="31.13" gradientUnits="userSpaceOnUse"><stop stop-color="#ED6B25"/><stop offset=".51" stop-color="#EFDD0A"/><stop offset="1" stop-color="#69BC41"/></linearGradient><linearGradient id="c" x1="11.69" y1="37.29" x2="44.23" y2="22.15" gradientUnits="userSpaceOnUse"><stop stop-color="#EF7924"/><stop offset=".46" stop-color="#FBDA03"/><stop offset=".67" stop-color="#DBDA1E"/><stop offset="1" stop-color="#39AE4A"/></linearGradient></defs></svg>