<!-- by TradingView --><svg width="56" height="56" viewBox="0 0 56 56" xmlns="http://www.w3.org/2000/svg"><path fill="#F0F3FA" d="M0 0h56v56H0z"/><path fill-rule="evenodd" d="M12.06 43h31.88c.04 0 .06-.02.06-.06V13.06c0-.04-.02-.06-.06-.06H12.06c-.04 0-.06.02-.06.06v29.88c0 .04.02.06.06.06Zm28.9-3c.03 0 .04-.01.04-.04V16.04c0-.03-.01-.04-.04-.04H15.04c-.03 0-.04.01-.04.04v23.92c0 .03.01.04.04.04h25.92Z" fill="#E1636C"/><path d="m21.97 27.56.02-.63a.3.3 0 0 1 .1-.22c.63-.62 1.13-1.19 1.51-1.7.51-.69.9-1.4 1.15-2.15.27-.8.37-1.6.32-2.42-.02-.4-.15-.82-.38-1.25a2.4 2.4 0 0 0-1.6-1.29 2.98 2.98 0 0 0-.76-.12c-.36 0-.7 0-1.01.02a2.4 2.4 0 0 0-1.2.49 4.61 4.61 0 0 0-1.72 2.37c-.38 1.11-.57 2.3-.57 3.54 0 .2.04.4.12.6.26.63.18 1.21-.25 1.75-.16.21-.39.43-.68.65a14.25 14.25 0 0 1-.82.57c-.13.1-.2.06-.2-.1V17.06c0-.03.02-.05.06-.05H39.9c.06 0 .09.03.09.1v21.69c0 .26-.07.28-.22.06a36.84 36.84 0 0 1-2.88-5.23c-.45-1-.77-1.93-.95-2.79a3 3 0 0 1 .6-2.51c.59-.79 1.04-1.54 1.35-2.26.35-.83.54-1.65.57-2.46a4.76 4.76 0 0 0-1.6-3.89 3.92 3.92 0 0 0-1.95-.97 3.97 3.97 0 0 0-3.72 1.15 5.58 5.58 0 0 0-1.57 3.24c-.16 1.17-.2 2.37-.14 3.6l.11 2.09a16.5 16.5 0 0 1-.14 3.62c-.1.57-.4 1.05-.9 1.43a.44.44 0 0 1-.29.1.43.43 0 0 1-.28-.11c-.39-.34-.5-.81-.37-1.43l.88-3.93c.14-.63.07-1.18-.22-1.65-.12-.2-.29-.4-.5-.62a13.75 13.75 0 0 0-1.02-.9.27.27 0 0 0-.2-.07l-1.02.1a.62.62 0 0 0-.38.17c-.8.75-1.67 1.39-2.6 1.92-.15.08-.31.14-.48.19-.07.02-.1 0-.1-.08Z" fill="#E1636C"/><path d="M23.02 20.72c.4.62.36 1.3-.1 2.04a6.5 6.5 0 0 1-1.64 1.64.59.59 0 0 1-.46.13c-.18-.03-.28-.14-.32-.33a5.7 5.7 0 0 1-.11-1.94c.1-.69.4-1.24.92-1.67.28-.23.58-.34.9-.34.35.01.62.17.81.47ZM17.93 32.11a7.45 7.45 0 0 0-.57 2.33c-.07.62.01 1.19.23 1.71.2.49.55.98 1.05 1.47.5.5 1.08.82 1.77.97.87.18 1.69.03 2.45-.45.34-.21.65-.48.92-.8a4.87 4.87 0 0 0 .72-1.08h.04a8.26 8.26 0 0 0 3.28 1.42c1.34.19 2.31-.31 2.92-1.5.24-.46.42-.96.55-1.5a12.6 12.6 0 0 0 .27-4.77 15.4 15.4 0 0 1-.1-1.44c0-.96.1-1.97.32-3.03.16-.76.4-1.48.73-2.18.24-.52.65-.93 1.23-1.21a.43.43 0 0 1 .37-.02c.11.05.2.13.28.24.43.62.46 1.45.1 2.5-.15.4-.34.84-.6 1.33a28.96 28.96 0 0 1-.8 1.38c-.2.33-.34.72-.42 1.15-.35 1.84 0 3.88 1.08 6.1a43.35 43.35 0 0 0 2.2 4.04c.1.15.05.23-.14.23H16.1c-.06 0-.09-.03-.09-.1v-7.95c0-.1.04-.2.13-.28a9.57 9.57 0 0 1 3.43-1.95 12.48 12.48 0 0 0-.08 1.06.73.73 0 0 1-.19.37 7.37 7.37 0 0 0-1.36 1.96Z" fill="#E1636C"/><path d="M24.8 32.23c-.32-.3-.58-.66-.8-1.06-.26-.5-.32-.9-.18-1.2.1-.23.32-.46.64-.7a8.63 8.63 0 0 1 .99-.58.1.1 0 0 1 .08 0c.08.02.1.07.09.15l-.7 3.36c-.02.08-.06.1-.12.03ZM21.9 32.47c.3.2.52.61.65 1.22.1.47.12.94.09 1.43-.05.6-.3 1.05-.8 1.35a.92.92 0 0 1-.68.15.93.93 0 0 1-.52-.34 1.75 1.75 0 0 1-.32-.61c-.07-.24-.1-.46-.08-.67a4.5 4.5 0 0 1 .43-1.47c.31-.6.67-.97 1.08-1.09.05-.01.1 0 .15.03Z" fill="#E1636C"/></svg>