<!-- by TradingView --><svg width="18" height="18" viewBox="0 0 18 18" xmlns="http://www.w3.org/2000/svg"><path fill="#F0F3FA" d="M0 0h18v18H0z"/><path d="M3.9 9c0 1.1.8 1.98 1.78 2h.02V12h-.01c-.08 0-.19 0-.33-.02A2.79 2.79 0 0 1 3.12 9.9a3.25 3.25 0 0 1 0-1.82A2.79 2.79 0 0 1 5.7 6.01V7c-1 .02-1.79.9-1.79 2Z" fill="#1C0144"/><path d="M6 6.02V6L6.02 6c.57.03 1.09.22 1.55.57.14.1.33.28.57.54a50.08 50.08 0 0 0 .56.6l-.01.02-.5.51c-.19.2-.32.06-.5-.11l-.63-.64A1.58 1.58 0 0 0 6 7v-.97ZM9.36 9.39l-1.44 1.6c-.26.3-.45.5-.57.58a2.19 2.19 0 0 1-1.35.42V11h.02c.4-.05.63-.19.9-.5a2451.57 2451.57 0 0 1 3.73-4.07A2.19 2.19 0 0 1 12 6V7h-.02c-.4.04-.63.18-.9.49a2531.27 2531.27 0 0 1-1.72 1.9Z" fill="#4F1851"/><path d="M15 9c0 .32-.04.62-.12.9A2.79 2.79 0 0 1 12.3 12a.02.02 0 0 1 0-.02V11c1-.02 1.79-.9 1.79-2s-.8-1.98-1.79-2l-.01-.01v-.97a.02.02 0 0 1 0-.01h.01c.08 0 .19 0 .33.02 1.04.13 1.92.96 2.24 2.06.08.29.12.59.12.91Z" fill="#1C0144"/><path d="M12 11.98V12a.01.01 0 0 1-.01 0 2.79 2.79 0 0 1-1.55-.56c-.14-.1-.33-.28-.57-.54a51.13 51.13 0 0 0-.56-.6l.01-.02.5-.51c.18-.2.32-.06.5.12l.63.63A1.57 1.57 0 0 0 12 11v.97Z" fill="#4F1851"/></svg>