<!-- by TradingView --><svg width="56" height="56" viewBox="0 0 56 56" fill="none" xmlns="http://www.w3.org/2000/svg">
<rect width="56" height="56" fill="#F0F3FA"/>
<path fill-rule="evenodd" clip-rule="evenodd" d="M8.00006 38H45.0094C46.6543 38 48.0001 36.64 48.0001 34.9777V19H10.9907C9.34585 19 8.00006 20.3601 8.00006 22.0224V38Z" fill="#004481"/>
<path fill-rule="evenodd" clip-rule="evenodd" d="M13 19H14C11.8904 19.9109 9.43863 22.2309 8.00009 24L8.00034 23C9.48781 21.1707 10.8159 19.943 13 19Z" fill="#5B79A8"/>
<path d="M25.5 19C30.5 21.5 34.0001 26.5342 34.0001 32.6727C34.0001 34.5499 33.6197 36.3459 33 38H32.5472C33.1464 36.4008 33.5157 34.4892 33.5157 32.6727C33.5157 26.7353 30.5 22.5 25 19H25.5Z" fill="#5B79A8"/>
<path fill-rule="evenodd" clip-rule="evenodd" d="M8.00006 24.1153C11.0086 21.5368 14.7891 20 18.8951 20C24.6436 20 29.7534 23.0103 33.0001 27.6767L32.6098 28C29.451 23.46 24.4827 20.5347 18.8951 20.5347C14.9032 20.5347 10.9258 22.0283 8.00006 24.5359V24.1153Z" fill="#5B79A8"/>
<path fill-rule="evenodd" clip-rule="evenodd" d="M8.00009 25.8028C9.50745 22.7466 12.0382 20.3371 14.756 19H16C13 20.0325 10.0263 23.3634 8.49997 25.5L8.00009 25.8028Z" fill="#5B79A8"/>
<path fill-rule="evenodd" clip-rule="evenodd" d="M24.5 19C28.5686 22.0594 31 26.9812 31 32.5315C31 34.4458 30.6853 36.2853 30.1068 38H29.6447C30.2062 36.3357 30.5118 34.391 30.5118 32.5315C30.5118 27.1422 27.9493 21.9697 24 19H24.5Z" fill="#5B79A8"/>
<path fill-rule="evenodd" clip-rule="evenodd" d="M10 32.0174C10 26.8964 12.0194 22.2748 15.5 19H16C12.6147 22.1851 10.5049 27.0351 10.5049 32.0174C10.5049 34.0585 10.8261 36.1794 11.4766 38H11C10.3311 36.128 10 34.1148 10 32.0174Z" fill="#5B79A8"/>
<path fill-rule="evenodd" clip-rule="evenodd" d="M23.5 19C26.3916 22.2446 28 26.6933 28 31.6015C28 33.8551 27.6868 36.0117 27 38H26.5772C27.2451 36.0663 27.5481 33.7946 27.5481 31.6015C27.5481 26.8262 25.8124 22.1558 23 19H23.5Z" fill="#5B79A8"/>
<path fill-rule="evenodd" clip-rule="evenodd" d="M14 31.1256C14 26.7242 15.2644 22.5894 17.5 19H18C15.8089 22.5179 14.5584 26.8099 14.5584 31.1256C14.5584 33.4637 14.9256 35.8595 15.6098 38H15.0725C14.3745 35.8161 14 33.5099 14 31.1256Z" fill="#5B79A8"/>
<path fill-rule="evenodd" clip-rule="evenodd" d="M21.3535 19C23.0374 22.6372 24 26.8471 24 31.3336C24 33.6425 23.7442 35.8778 23.2673 38H22.8758C23.3433 35.9199 23.5941 33.5977 23.5941 31.3336C23.5941 26.9345 22.6504 22.5647 21 19H21.3535Z" fill="#5B79A8"/>
<path fill-rule="evenodd" clip-rule="evenodd" d="M19 38V19H19.5V38H19Z" fill="#5B79A8"/>
<path fill-rule="evenodd" clip-rule="evenodd" d="M8 25.4929C11.3331 23.662 15.0766 23 19.0328 23C24.6365 23 29.3135 25.0611 33.5 28.547L33.1972 29C29.0948 25.5842 24.5233 23.5652 19.0328 23.5652C15.1561 23.5652 11.2652 24.2064 8 26L8 25.4929Z" fill="#5B79A8"/>
<path fill-rule="evenodd" clip-rule="evenodd" d="M8.00354 29.2898C11.3702 28.5591 14.8129 28.178 18.253 28.0416C21.0393 27.9311 24.0594 28.0216 26.8372 28.5464C29.6129 29.0708 32.0992 30.0108 33.9314 31.6587L33.6518 32C31.9132 30.4363 29.4616 29.5012 26.7364 28.9863C24.0131 28.4718 21.0376 28.3809 18.2746 28.4905C14.8795 28.6251 11.3308 29.0114 8.00354 29.7246L8.00354 29.2898Z" fill="#5B79A8"/>
<path fill-rule="evenodd" clip-rule="evenodd" d="M33.6341 33.5H8V33H33.6341V33.5Z" fill="#5B79A8"/>
<path fill-rule="evenodd" clip-rule="evenodd" d="M10.0001 23L12.0001 23V29.2968C12.0001 30.3662 12.4967 31 13.5 31C14.5034 31 15.0001 30.3662 15.0001 29.2968V23H17.0001V29.2699C17.0001 31.3215 15.4251 33 13.5001 33C11.5751 33 10.0001 31.3215 10.0001 29.2699V23Z" fill="#ADAFB0"/>
<path fill-rule="evenodd" clip-rule="evenodd" d="M22.0001 25H18.0001V23H22.0001V25Z" fill="#ADAFB0"/>
<path fill-rule="evenodd" clip-rule="evenodd" d="M21.0001 33H19.0001V25H21.0001V33Z" fill="#ADAFB0"/>
<path fill-rule="evenodd" clip-rule="evenodd" d="M25.0001 33H23.0001V26H25.0001V33Z" fill="#ADAFB0"/>
<path fill-rule="evenodd" clip-rule="evenodd" d="M25.0001 25H23.0001V23H25.0001V25Z" fill="#ADAFB0"/>
<path fill-rule="evenodd" clip-rule="evenodd" d="M8.00002 35.7103L8 35.2711C11.3365 35.9959 14.8652 36.3721 18.2745 36.5072C21.0375 36.6167 24.0132 36.5258 26.7365 36.0117C29.462 35.4971 31.9135 34.5626 33.6521 33L34 33.3216C32.1677 34.9685 29.6127 35.9299 26.8371 36.4539C24.0593 36.9784 21.0393 37.0688 18.253 36.9584C14.812 36.8221 11.3675 36.4419 8.00002 35.7103Z" fill="#5B79A8"/>
<path d="M28.4203 33C29.0569 33 29.5834 32.8774 30 32.7331V30.6335H28.3261V31.0231H29.497V32.4445C29.2141 32.5383 28.8369 32.5887 28.4282 32.5887C26.9902 32.5887 26.5501 31.7879 26.5501 30.5758V30.4026C26.5501 29.2843 27.0766 28.4113 28.4126 28.4113C29.104 28.4113 29.4891 28.5555 29.8035 28.6854V28.2814C29.5048 28.1443 29.1198 28 28.4439 28C27.0766 28 26 28.707 26 30.4675V30.583C26 32.2208 26.9115 33 28.4203 33Z" fill="#ADAFB0"/>
<path d="M31 33H31.4229V30.8093H32.348L33.5045 33H34L32.7776 30.7273V30.6975C33.3855 30.5112 33.6961 30.0939 33.6961 29.386C33.6961 28.5216 33.2335 28 32.2489 28H31V33ZM31.4229 30.4218V28.4099H32.229C32.956 28.4099 33.2335 28.7601 33.2335 29.386C33.2335 30.0343 32.9758 30.4218 32.2357 30.4218H31.4229Z" fill="#ADAFB0"/>
<path d="M36.9931 33C38.2371 33 39 32.0838 39 30.5614V30.4459C39 28.8658 38.2371 28 37.0068 28C35.7628 28 35 28.9018 35 30.4387V30.5541C35 32.1342 35.7628 33 36.9931 33ZM37 32.6032C35.9484 32.6032 35.4811 31.8024 35.4811 30.547V30.3521C35.4811 29.1761 36.0103 28.3969 36.9862 28.3969C38.0515 28.404 38.5189 29.1905 38.5189 30.4459V30.6407C38.5189 31.8168 38.0033 32.6032 37 32.6032Z" fill="#ADAFB0"/>
<path d="M41.5125 33C42.4896 33 43 32.4591 43 31.2163V28H42.5567V31.1944C42.5567 32.2617 42.2593 32.6053 41.5248 32.6053C40.8029 32.6053 40.4794 32.2544 40.4794 31.2018V28H40V31.2237C40 32.4298 40.5476 33 41.5125 33Z" fill="#ADAFB0"/>
<path d="M44 33H44.4666V30.9359H45.4713C46.4114 30.9359 47 30.4144 47 29.453C47 28.5365 46.512 28 45.3995 28H44V33ZM44.4666 30.5335V28.4099H45.3493C46.2177 28.4099 46.4976 28.7527 46.4976 29.4904C46.4976 30.1833 46.1746 30.5335 45.3709 30.5335H44.4666Z" fill="#ADAFB0"/>
</svg>
