<!-- by TradingView --><svg width="18" height="18" viewBox="0 0 18 18" xmlns="http://www.w3.org/2000/svg"><path fill="#F0F3FA" d="M0 0h18v18H0z"/><path d="M5.24 8.32C3.9 11.48 6.29 14.09 7.65 15 6 13.94 3 11 4.33 7.71c1.33-3.28 5.79-3.39 7.85-3.03-1.76-.1-5.61.48-6.94 3.64Z" fill="#2E3192"/><path d="M12.76 9.68C14.1 6.52 11.71 3.91 10.35 3 12 4.06 15 7 13.67 10.29c-1.33 3.28-5.79 3.39-7.85 3.03 1.76.1 5.61-.48 6.94-3.64Z" fill="#2E3192"/><path d="M7.33 11.44 7 12l1.33-.75-.33-.38v-3l.5-.37c.06.13.23.38.5.38.33 0 .33-.38.33-.57 0-.18-.14-.37-.33-.37-.36 0-.72.35-1 .56V6.19h1.17l.83.93V6H7l.33.19v5.25Z" fill="#ED1C24"/><path d="M10.5 8H9l.38.33v2.34L9 11h2.81l.19-1-.94.83H10v-2.5l.5-.33Z" fill="#ED1C24"/></svg>