<!-- by TradingView --><svg width="56" height="56" viewBox="0 0 56 56" xmlns="http://www.w3.org/2000/svg"><path fill="#F0F3FA" d="M0 0h56v56H0z"/><path d="M12.74 37.37c2.2 2.02 8.57-.98 14.23-6.71s8.48-12.01 6.29-14.03a2.48 2.48 0 0 0-1.44-.6c1.03-.1 1.87.09 2.43.6 2.3 2.12-.87 8.93-7.08 15.2-6.22 6.28-13.12 9.66-15.42 7.54-1.39-1.28-.79-4.26 1.27-7.8-1.2 2.62-1.4 4.77-.28 5.8Z" fill="#0064DA"/><circle cx="23.5" cy="19.5" r="1.5" fill="#FF2B21"/><path d="M22.28 22H24l-3.28 10H19l3.28-10ZM26.74 22H25l.8 10 7.2-9.38h-1.74l-4.15 5.14-.37-5.76ZM35.15 23h-1.23L31 32h5.15l.93-1.47h-3.76l.83-2.53h2.62l.54-1.8h-2.58l.45-1.4H39V23h-3.85ZM41.43 26.86 39.67 32H38l3.12-9 3.45 5.83 1.76-5.36H48L44.81 33l-3.38-6.14ZM10.04 31.61 8 31.07 13.41 22l1.02 5.81L20 22.08 18.27 32h-2.2l.87-4.5-3.92 4.5-.78-4.19-2.2 3.8Z" fill="#0C1C7E"/></svg>