<!-- by TradingView --><svg width="56" height="56" viewBox="0 0 56 56" xmlns="http://www.w3.org/2000/svg"><path fill="#9AD9ED" d="M0 0h56v56H0z"/><path fill-rule="evenodd" d="m7.06 25.47.84-.55c-.68-.78-1.38-.92-1.79-.92-.4 0-1.92.18-1.92 1.47 0 1.14.9 1.53 1.46 1.77l.19.09c.5.24 1.14.66 1.14 1.03s-.35.72-1 .72c-.53 0-.98-.57-1.14-.86l-.84.53A2.03 2.03 0 0 0 5.98 30C6.7 30 8 29.61 8 28.36c0-1.2-1.14-1.67-1.7-1.9l-.08-.03c-.52-.22-.9-.53-.9-.84 0-.3.2-.67.8-.67.47 0 .82.36.94.55Zm44.23 1.63.64-.49a1.87 1.87 0 0 0-1.35-.61c-.3 0-1.44.12-1.44.98 0 .76.68 1.02 1.1 1.18l.14.06c.38.16.8.35.8.6 0 .24-.2.42-.7.42-.4 0-.73-.23-.85-.43l-.63.36c.32.64.93.83 1.48.83.55 0 1.52-.26 1.52-1.1 0-.83-.88-1.18-1.27-1.33l-.29-.09c-.25-.08-.44-.14-.44-.3 0-.2.14-.44.58-.44.36 0 .63.24.71.36ZM10.66 26c.38 0 .73.09 1.04.25v.99a1.28 1.28 0 0 0-.92-.38c-.68 0-1.24.5-1.24 1.14 0 .63.56 1.14 1.24 1.14.37 0 .7-.14.92-.38v1c-.3.15-.66.24-1.04.24-1.2 0-2.16-.9-2.16-2s.97-2 2.16-2Zm34.84.25a2.03 2.03 0 0 0-3 1.75 2.01 2.01 0 0 0 3 1.75v-.97a1.16 1.16 0 0 1-2-.78c0-.63.52-1.14 1.16-1.14.33 0 .63.13.84.36v-.97ZM35.5 28a2 2 0 1 1-4 0 2 2 0 0 1 4 0Zm-1-.01c0 .62-.45 1.13-1 1.13s-1-.5-1-1.13c0-.63.45-1.13 1-1.13s1 .5 1 1.13ZM15 29.53c-.32.3-.73.47-1.17.47-1.01 0-1.83-.9-1.83-2s.82-2 1.83-2c.44 0 .85.18 1.17.47V26h1v4h-1v-.47ZM15 28c0 .63-.45 1.14-1 1.14s-1-.5-1-1.14c0-.63.45-1.14 1-1.14s1 .5 1 1.14Zm2-2h1v.68c.27-.28.81-.68 1.44-.68.9 0 1.56.67 1.56 1.32V30h-1v-2.3c-.05-.3-.27-.91-.84-.91-.48 0-.93.34-1.16.58V30h-1v-4Zm7-2v6h1v-2.5h1.18c1 0 1.82-.86 1.82-1.76v-.11c0-.9-.82-1.63-1.82-1.63H24Zm1.97 1H25v1.5h.97c.57 0 1.03-.31 1.03-.78 0-.47-.46-.72-1.03-.72ZM31 26c.15 0 .3.02.43.07l-.31.92a.58.58 0 0 0-.38-.13c-.27 0-.52.13-.73.29V30h-1v-4h1v.4c.26-.21.61-.4 1-.4ZM40 30a2 2 0 0 0 1.78-1.1l-.91-.33a.99.99 0 0 1-.87.57c-.48 0-.88-.38-.98-.89h2.96L42 28a2 2 0 1 0-2 2Zm.9-2.49a1 1 0 0 0-.9-.65 1 1 0 0 0-.9.65h1.8ZM37 32v-6h-1v6h1Zm11-7h-1v1h-1v1h1v3h1v-3h1v-1h-1v-1Zm-11.5 0a.5.5 0 1 0 0-1 .5.5 0 0 0 0 1Z"/></svg>