<!-- by TradingView --><svg width="18" height="18" viewBox="0 0 18 18" xmlns="http://www.w3.org/2000/svg"><path fill="#F0F3FA" d="M0 0h18v18H0z"/><path d="M9 9.26V12h-.47V8.95l.47.31ZM9 7.9l-.47-.32V6.16l-.7.96-.77-.52L9 3.5v4.4Z" fill="#048CD1"/><path d="M9 9.26V12h.47V8.95L9 9.26ZM9 7.9l.47-.32V6.16l.7.96.77-.52L9 3.5v4.4Z" fill="#0E69A5"/><path d="m12.48 8.97-1.48.7v1.45h1.68L11.61 9.6l.97-.42L14.5 12H10V9.31l1.07-.64-.38-.6L9 9.12 7.31 8.07l-.38.6L8 9.31V12H3.5l1.92-2.82.97.42-1.07 1.52H7V9.67l-1.48-.7L7 6.72 9 8.12l2.01-1.4 1.47 2.25Z" fill="#30295F"/></svg>