<!-- by TradingView --><svg width="56" height="56" viewBox="0 0 56 56" xmlns="http://www.w3.org/2000/svg"><path fill="#DFDFDF" d="M0 0h56v56H0z"/><path d="M45.3 23c1.83 0 3.06.96 3.06 2.84 0 1.2-.55 2.2-1.67 2.68L49 33h-1.29l-2-4H44v4h-1V23h2.3Zm-.06 1H44v4h1.3c1.2 0 2.06-.94 2.06-2.16 0-1.25-.91-1.84-2.12-1.84ZM41 28c0 2.21-.82 5-3.5 5-2.71 0-3.5-2.76-3.5-5.02S34.82 23 37.52 23c2.66 0 3.48 2.78 3.48 5Zm-6 0c0 1.61.44 4 2.5 4 2.07 0 2.5-2.39 2.5-4 0-1.62-.44-4-2.48-4-2.07 0-2.52 2.36-2.52 4ZM32 33h-1.5L27 24.5V33h-1V23h1.5l3.5 8.5V23h1v10ZM22.93 33l-.9-3h-3.08l-.9 3H17l3.02-10h.97L24 33h-1.07Zm-2.44-8.7c-.33 1.58-.79 3.14-1.2 4.7h2.43c-.41-1.56-.8-3.14-1.23-4.7ZM10.5 33 8 24.25V33H7V23h1.54L11 31.2l2.46-8.2H15v10h-1v-8.75L11.38 33h-.88Z" fill="#444"/></svg>