<!-- by TradingView --><svg width="56" height="56" viewBox="0 0 56 56" xmlns="http://www.w3.org/2000/svg"><path fill="#F0F3FA" d="M0 0h56v56H0z"/><path fill-rule="evenodd" d="M14 21v.7c0 .72.6 1.3 1.36 1.3h2.29c.75 0 1.35-.58 1.35-1.3v-1.02c0-.71-.6-1.3-1.35-1.3h-1.97a.53.53 0 0 1-.55-.51v-.54c0-.29.25-.33.55-.33h1.8c.3 0 .54.04.54.33V19H19v-.7c0-.72-.73-1.3-1.48-1.3h-1.94c-.75 0-1.35.58-1.35 1.3v.66c0 .71.6 1.3 1.35 1.3h1.9c.3 0 .54.23.54.51v.83c0 .29-.24.4-.54.4h-2c-.3 0-.48-.11-.48-.4V21h-1Zm27 16v.7c0 .72.6 1.3 1.36 1.3h2.29c.75 0 1.35-.58 1.35-1.3v-1.02c0-.71-.6-1.3-1.35-1.3h-1.97a.53.53 0 0 1-.55-.51v-.54c0-.29.25-.33.55-.33h1.8c.3 0 .54.04.54.33V35H46v-.7c0-.72-.46-1.3-1.2-1.3h-2.22c-.75 0-1.35.58-1.35 1.3v.66c0 .71.6 1.3 1.35 1.3h1.9c.3 0 .54.23.54.51v.83c0 .29-.24.4-.54.4h-2c-.3 0-.48-.11-.48-.4V37h-1ZM20 17h1v2h3v-2h1v6h-1v-3h-3v3h-1v-6Zm12 0h4.5v1H33v1.5h3.5v1H33V22h3.5v1H32v-6Zm5.18 0H37v6h4.5v-1H38v-1.5h3.5v-1H38V18h3.5v-1h-4.32Zm-10.2 6H26v-6h3.56c.8 0 1.44.59 1.44 1.32v1.1c0 .42-.21.88-.55 1.2.31.08.54.3.54.53V23H30v-1.64c0-.2-.21-.3-.4-.36h-2.62v2Zm2.48-5H27v2h2.46c.3 0 .54-.21.54-.48v-1.04c0-.27-.24-.48-.54-.48ZM15.9 25H12v6h3.9c.61 0 1.11-.46 1.11-1.04v-1.32c0-.35-.18-.65-.45-.84.27-.19.45-.5.45-.84v-.92c0-.58-.5-1.04-1.1-1.04Zm-.47 1H13v1.5h2.43c.31 0 .57-.23.57-.5v-.5c0-.27-.26-.5-.57-.5Zm.02 2.5h-2.47V30h2.47c.32 0 .58-.23.58-.5V29c0-.27-.26-.5-.58-.5ZM19 25h-1v6h1v-3h3v3h1v-6h-1v2h-3v-2Zm21.63 0H39.3l-1.88 2.4L35.6 25h-1.68l-1.9 4.79L30.25 25H29l2.38 6h1.27l2.17-5.36L37 28.31V31h1v-2.69L40.63 25ZM23.5 31h1.23l.36-1h2.87l.39 1h1.15l-2.4-6h-1.25l-2.35 6Zm4.06-2-1.09-2.79L25.46 29h2.1Zm12.6 2h-1.24l2.38-6h1.26L45 31h-1.17l-.4-1h-2.9l-.36 1Zm1.77-4.79 1.1 2.79H40.9l1.03-2.79ZM11 35v-2h4.5v1H12v1h3v1h-3v3h-1v-4Zm22-2h1v6h-1v-6Zm-5 6h-1v-6h3.56c.8 0 1.44.59 1.44 1.32v1.1c0 .43-.22.9-.57 1.21.29.12.48.37.57.53V39h-1v-1.64c0-.2-.21-.3-.4-.36H28v2Zm2.46-5H28v2h2.46c.3 0 .54-.21.54-.48v-1.04c0-.27-.24-.48-.54-.48ZM21 33h3.9c.6 0 1.1.46 1.1 1.04v.92c0 .35-.18.65-.45.84.27.19.45.5.45.84v1.32c0 .58-.5 1.04-1.1 1.04H21v-6Zm1 1h2.43c.31 0 .57.23.57.5v.5c0 .27-.26.5-.57.5H22V34Zm0 2.5h2.43c.31 0 .57.23.57.5v.5c0 .27-.26.5-.57.5H22v-1.5ZM15.73 39H14.5l2.35-6h1.25l2.4 6h-1.15l-.4-1H16.1l-.36 1Zm1.74-4.79 1.1 2.79h-2.11l1.01-2.79ZM36.07 33c-.59 0-1.07.46-1.07 1.02v3.96c0 .56.48 1.02 1.08 1.02h2.84c.6 0 1.08-.46 1.08-1.02V37h-1v.29c0 .4-.37.71-.82.71h-1.36c-.45 0-.82-.32-.82-.71V34.7c0-.4.37-.71.82-.71h1.36c.45 0 .82.32.82.71V35h1v-.98c0-.56-.48-1.02-1.08-1.02h-2.84Z" fill="#F00000"/></svg>