<!-- by TradingView --><svg width="56" height="56" viewBox="0 0 56 56" xmlns="http://www.w3.org/2000/svg"><path fill="#F0F3FA" d="M0 0h56v56H0z"/><path fill="url(#a)" d="M9 17h38v22H9z"/><path d="M26 33v2h2v-2h3v-2h-3v-2h5v-2h-5v-3h7v-2h-9v9h-1v2h1ZM37.17 22.59A3.23 3.23 0 0 1 39 22h2v2h-2c-.17 0-.46.06-.67.21-.15.12-.33.32-.33.79v1h2v2h-2v5h3v2h-6v-2h1v-5h-1v-2h1v-1c0-1.13.5-1.93 1.17-2.41ZM20 34c.97 0 1.88-.28 2.65-.76l1.06 1.7A7 7 0 0 1 13.29 31H12v-2h1c0-.34.02-.67.07-1H12v-2h1.67a7 7 0 0 1 10.81-2.38l-1.28 1.54A4.98 4.98 0 0 0 16 26h4v2h-4.9c-.07.32-.1.66-.1 1h5v2h-4.58A5 5 0 0 0 20 34Z" fill="#FAF118"/><defs><linearGradient id="a" x1="9" y1="28.5" x2="45.5" y2="29.5" gradientUnits="userSpaceOnUse"><stop stop-color="#105427"/><stop offset=".5" stop-color="#17A249"/><stop offset="1" stop-color="#13562D"/></linearGradient></defs></svg>