<!-- by TradingView --><svg width="56" height="56" viewBox="0 0 56 56" xmlns="http://www.w3.org/2000/svg"><path fill="#3C546E" d="M0 0h56v56H0z"/><path d="M36.66 43H40l-.96-3.91-2.85-.34c.2 1.55.37 2.98.47 4.25Zm-.5 0c-.1-1.29-.27-2.74-.48-4.3l-4.54-.53c.06 1.68.1 3.31.1 4.83h4.92Zm-5.41 0c-.01-1.54-.05-3.18-.1-4.9l-5.33-.61a65.1 65.1 0 0 1-.85 5.51h6.28Zm-6.8 0c.32-1.43.6-3.35.87-5.57l-7.22-.84L16 43h7.96Zm-6.24-6.85 7.17.83c.14-1.26.29-2.62.42-4.04l-6.49-1.2-1.1 4.4Zm1.21-4.84c1.79.32 4.04.73 6.42 1.19.1-1.04.19-2.11.27-3.2l-5.8-1.51-.89 3.52Zm1-3.96 5.73 1.5a357.4 357.4 0 0 0 .2-2.7 123.4 123.4 0 0 0-5.23-1.62l-.7 2.82Zm.8-3.25c1.55.42 3.33.98 5.17 1.58l.14-2.01c-1.77-.63-3.44-1.2-4.78-1.66l-.52 2.09Zm.64-2.53c1.32.45 2.95 1 4.7 1.63l.11-1.86a45.59 45.59 0 0 0-4.38-1.52l-.43 1.75Zm.54-2.18c1.25.34 2.74.86 4.3 1.48l.07-1.07-4.04-1.74-.33 1.33Zm.45-1.77 3.95 1.7.05-.93-3.77-1.72-.23.95Zm.35-1.4 3.67 1.68.06-.99c-1.35-.66-2.57-1.23-3.5-1.65l-.23.96Zm.35-1.4c.89.4 2.08.95 3.4 1.6l.05-.86-3.22-1.68-.23.93Zm.34-1.4 3.13 1.63.02-.36-3.06-1.6-.09.33Zm.2-.8 2.97 1.56.03-.6-2.86-1.51-.14.56Zm.26-1.01 2.77 1.46.01-.36-2.7-1.43-.08.33Zm.2-.8 2.6 1.39.03-.48-2.5-1.45-.13.55Zm.25-1 2.4 1.39c0-.27.02-.54.03-.8L24.5 9l-.2.8Zm2.92.9-.03.77 1.72 1-.07-.74-1.62-1.02Zm2.16 1.37.06.71 1.56.9-.16-.68-1.46-.93Zm2.06 1.3.14.66 1.56.9-.14-.57-1.56-.99Zm1.85 2.19-1.57-.92.06.25 1.55.83-.04-.16Zm.19.75-1.58-.83.1.43 1.58.84-.1-.44Zm.25 1.03-1.6-.85.13.65 1.63.85-.16-.65Zm.3 1.25-1.64-.86.09.42 1.66.87-.1-.43Zm.25 1.02-1.68-.88.2.94c.6.33 1.18.66 1.74 1l-.26-1.06Zm.42 1.68-1.78-1.03c.05.27.1.55.17.83l1.78.9-.17-.7Zm.31 1.3c-.54-.3-1.15-.6-1.8-.93l.13.69 1.8.79-.13-.56Zm.27 1.1-1.83-.8.24 1.24 1.92.92-.33-1.36Zm.47 1.94c-.59-.3-1.24-.61-1.95-.95l.3 1.52c.72.3 1.4.58 2 .85l-.35-1.42Zm.49 1.98c-.6-.27-1.3-.57-2.04-.88l.36 1.95c.78.29 1.5.55 2.13.8l-.45-1.87Zm.59 2.4c-.65-.25-1.38-.52-2.18-.8l.38 2.09 2.26.59-.46-1.89Zm.58 2.38-2.3-.6.46 2.74 2.5.57-.66-2.71Zm.78 3.2c-.74-.18-1.6-.37-2.55-.58.18 1.13.35 2.22.49 3.28l2.8.32-.74-3.02ZM27.14 12.46l.02-.46 1.8 1.05.04.39-1.86-.98Zm2.39 1.26-.03-.36 1.63.95.07.29-1.67-.88Zm.05.54 1.75.93.1.42-1.82-.95-.03-.4Zm.08.94 1.89 1 .14.66-1.97-1.03-.06-.63Zm.1 1.17 2.05 1.07.1.42-2.11-1.1-.04-.4Zm.08.93 2.19 1.14.19.92-2.3-1.22-.08-.84Zm.12 1.38c.8.42 1.6.84 2.38 1.27l.18.87c-.8-.4-1.63-.8-2.49-1.2l-.07-.94Zm.11 1.46 2.57 1.24.14.74-2.64-1.15-.07-.83Zm.1 1.35 2.72 1.17.24 1.21c-.91-.42-1.88-.87-2.87-1.3l-.08-1.08Zm.13 1.6c1.02.45 2.01.9 2.94 1.34l.3 1.56c-.98-.4-2.04-.8-3.12-1.2l-.12-1.7Zm.15 2.19c1.12.42 2.2.84 3.2 1.24l.37 1.98c-1.07-.4-2.23-.8-3.43-1.23l-.14-1.99Zm.17 2.49 3.5 1.24.38 2.16-3.73-.98-.15-2.42Zm.18 2.9 3.78.99.47 2.77c-1.27-.27-2.66-.56-4.1-.84l-.15-2.93Zm.17 3.38c1.47.3 2.88.58 4.15.86.18 1.14.35 2.26.5 3.33l-4.5-.53c-.03-1.2-.09-2.42-.15-3.66Zm-.5-.1.16 3.7-5.26-.6c.15-1.27.29-2.61.42-4.01l4.68.9Zm-.02-.46-4.62-.9.28-3.15 4.18 1.1.16 2.95Zm-.2-3.43-4.1-1.08a344.58 344.58 0 0 0 .2-2.67c1.25.41 2.52.85 3.76 1.28l.15 2.47Zm-.18-2.96c-1.21-.43-2.46-.85-3.7-1.26l.15-2 3.12 1.14.3.1c.05.67.1 1.34.13 2.02Zm-.24-2.54-3.28-1.2.11-1.82a101.84 101.84 0 0 1 3.12 1.31l.12 1.74-.07-.03Zm-.91-2.58c-.74-.31-1.5-.63-2.23-.92l.07-1.05 2.9 1.25.08 1.08-.82-.36Zm.7-1.23-2.84-1.22.06-.91 2.71 1.27.07.86Zm-.11-1.38c-.89-.43-1.78-.84-2.65-1.24l.06-.98c.8.4 1.66.82 2.51 1.26l.08.96Zm-.12-1.5c-.84-.42-1.66-.84-2.45-1.22l.04-.84 2.34 1.22.07.84Zm-.12-1.38-2.26-1.18.02-.37 2.2 1.15.04.4Zm-.08-.94-2.14-1.11.03-.6 2.06 1.08.05.63Zm-.1-1.17-1.98-1.05.01-.37 1.93 1.02.04.4Z" fill="#fff"/></svg>