<!-- by TradingView --><svg width="56" height="56" viewBox="0 0 56 56" xmlns="http://www.w3.org/2000/svg"><path fill="#F0F3FA" d="M0 0h56v56H0z"/><path d="M47 24c0 .56.39 1 1 1 .62 0 1-.44 1-1s-.38-.99-1-1c-.61 0-1 .44-1 1ZM45 35.38l.64-1.62c1.14.67 1.36-.14 1.36-1.25V26h2v6.61c0 2.25-1.25 4.51-4 2.77ZM37.52 26c.47 0 .85.13 1.17.33l-.52 1.97c-.26-.1-.53-.16-.86-.16-.8 0-1.31.55-1.31 1.4V33h-2v-7h2v.91c.3-.58.63-.91 1.52-.91ZM31 33V23h2v10h-2ZM29 25c-.61 0-1-.44-1-1s.39-1 1-1c.62.01 1 .44 1 1s-.38 1-1 1ZM28 26v7h2v-7h-2ZM24.06 26c1.7 0 2.94 1.49 2.94 3.51 0 2.1-1.2 3.49-2.93 3.49-.76 0-1.6-.19-2.07-.62V36h-2V26h2v1.22c.49-.74 1.08-1.22 2.06-1.22Zm-.61 5c.77 0 1.55-.53 1.55-1.46 0-.93-.76-1.54-1.55-1.54-.8 0-1.45.61-1.45 1.54S22.67 31 23.45 31ZM42.16 26c1.8 0 2.84.92 2.84 2.68V33h-2v-1.07A2.14 2.14 0 0 1 41 33c-1.1 0-2-.71-2-1.9 0-1.64 1.35-2.37 3.33-2.37.2 0 .58 0 .67.02v-.18c0-.48-.61-.67-1.25-.67-.57 0-1.18.48-1.79.78l-.8-1.56c.9-.55 2.03-1.12 3-1.12Zm-.38 5.44c.51 0 1.2-.4 1.22-1.41-.18-.03-.47-.03-.65-.03-.72 0-1.2.3-1.2.84 0 .42.26.6.63.6ZM16.16 26c1.8 0 2.84.92 2.84 2.68V33h-2v-1.07A2.14 2.14 0 0 1 15 33c-1.1 0-2-.71-2-1.9 0-1.64 1.35-2.37 3.33-2.37.2 0 .58 0 .67.02v-.18c0-.48-.61-.67-1.25-.67-.57 0-1.18.48-1.79.78l-.8-1.56c.9-.55 2.03-1.12 3-1.12Zm-.38 5.44c.51 0 1.2-.4 1.22-1.41-.18-.03-.46-.03-.65-.03-.72 0-1.2.3-1.2.84 0 .42.26.6.63.6ZM9.5 27.99l3 5.01h-2L8 28.82V33H6V23h2v4.18L10.5 23h2l-3 4.99Z"/></svg>