<!-- by TradingView --><svg width="56" height="56" viewBox="0 0 56 56" xmlns="http://www.w3.org/2000/svg"><path fill="#F0F3FA" d="M0 0h56v56H0z"/><path d="M5.39 29.36v2.14c0 .26-.25.5-.51.5H4.4c-.27 0-.4-.13-.4-.39v-6.98c0-.42.21-.63.64-.63h5.57a1 1 0 0 1 .5.13c1.59.9 1.34 3.58-.1 4.43-.42.26-.3.57-.04 1l1.03 1.93c.1.2-.04.5-.25.51h-.74c-.14 0-.27-.18-.4-.4l-1.34-2.28a1.08 1.08 0 0 0-.99-.57H6c-.4 0-.61.2-.61.6Zm5.03-3a.84.84 0 0 0-.24-.6 1 1 0 0 0-.63-.31H6.02a.87.87 0 0 0-.61.23.84.84 0 0 0-.27.6v.09c0 .22.09.44.25.6.15.16.4.3.63.3h3.53a.84.84 0 0 0 .87-.83v-.08ZM17.43 25.4a.43.43 0 0 0-.43.43v.72c0 .3.15.45.46.45h4.63c1.27 0 1.91.64 1.91 1.9v1.2a1.9 1.9 0 0 1-1.9 1.9h-5.73c-.3 0-.44-.15-.44-.45v-.35a.62.62 0 0 1 .62-.62h5c.5 0 .84-.24 1-.72.02-.08.04-.18.04-.3.01-.16-.02-.17-.07-.32a1.18 1.18 0 0 0-1.11-.76h-3.8c-1.3 0-1.98-.79-2.06-2.07l-.02-.48c-.06-1.29.55-1.93 1.86-1.93h5.58a.42.42 0 0 1 .41.41v.33a.66.66 0 0 1-.67.67h-5.28ZM39.14 26.75c-.35-.58-.67-.56-.96.05l-2.26 3.86c-.62 1.13-1.1 1.34-1.94 1.34h-1.47c-.38-.05-.52-.5-.51-.87v-1.9c-.12-.37-.22-.55-.61-.55H27.1c-.4 0-.59.2-.59.6v2.4c0 .22-.11.32-.34.32h-.66a.5.5 0 0 1-.36-.13.48.48 0 0 1-.15-.35V24.4c0-.25.13-.38.39-.38h.64c.27 0 .41.14.41.42v2.09a.82.82 0 0 0 .81.8h4.14c.4 0 .61-.2.61-.6v-2.36c0-.25.13-.37.37-.37h.68c.27 0 .4.13.39.4v5.52c0 1.59.36 1.81 1.21.35L38 24.45a.74.74 0 0 1 .65-.38.75.75 0 0 1 .65.38l4.13 7.09c.24.4.15.46-.28.46h-.64c-.16-.05-.4-.38-.5-.54l-2.87-4.7ZM44 24.57c0-.15.13-.3.24-.4.12-.11.27-.17.43-.17h5.12c.3 0 .58.1.85.2s.52.24.72.43c.2.18.37.4.48.63.1.24.16.5.16.75v4.07c0 .51-.29 1-.7 1.36-.43.36-.99.56-1.58.56H44.6c-.16 0-.31-.1-.42-.21a.56.56 0 0 1-.18-.4v-6.82Zm6.66 1.55a.7.7 0 0 0-.06-.27.77.77 0 0 0-.7-.46h-3.72c-.42 0-.8.23-.8.68v.48a.7.7 0 0 0 .21.51 1.13 1.13 0 0 0 .59.25h3.7c.2 0 .4-.07.55-.2a.7.7 0 0 0 .22-.51l.01-.48Zm-.03 3.24c0-.38-.33-.68-.7-.68h-3.75c-.38 0-.71.18-.72.6v.6c-.01.36.35.74.72.74h3.72c.38 0 .71-.3.72-.66v-.6ZM14.02 24h-.6c-.2 0-.42.18-.42.4v7.2c0 .22.17.4.38.4h.6c.21 0 .42-.18.42-.4v-7.2a.4.4 0 0 0-.38-.4Z" fill="#030406"/></svg>