<!-- by TradingView --><svg width="56" height="56" viewBox="0 0 56 56" xmlns="http://www.w3.org/2000/svg"><path fill="#F0F3FA" d="M0 0h56v56H0z"/><path d="m47.1 25 .47.03c.17 0 .32.02.43.04l-.17 1.45a3.25 3.25 0 0 0-.83-.1 2.5 2.5 0 0 0-2.5 2.44V33H43v-8h1.5v1.54A3.15 3.15 0 0 1 47.1 25ZM36.85 25c2.11 0 3.15.81 3.15 2.63V33h-1.5v-1.22A3.57 3.57 0 0 1 35.63 33C34.2 33 33 32.2 33 30.67c0-1.58 1.3-2.39 3.94-2.46l1.56-.05v-.43c0-1.02-.72-1.54-1.73-1.54-.87 0-1.66.26-2.37.58l-.53-1.1a6.93 6.93 0 0 1 2.98-.67Zm.39 4.18c-1 .04-2.74.18-2.74 1.49 0 .8.87 1.16 1.6 1.16 1.23 0 2.4-.7 2.4-2v-.68l-1.26.03ZM27.85 25c2.11 0 3.15.81 3.15 2.63V33h-1.5v-1.22A3.57 3.57 0 0 1 26.63 33C25.2 33 24 32.2 24 30.67c0-1.58 1.3-2.39 3.94-2.46l1.56-.05v-.43c0-1.02-.72-1.54-1.73-1.54-.87 0-1.66.26-2.37.58l-.53-1.1a6.93 6.93 0 0 1 2.98-.67Zm.39 4.18c-1 .04-2.74.18-2.74 1.49 0 .8.87 1.16 1.6 1.16 1.23 0 2.4-.7 2.4-2v-.68l-1.26.03ZM22 30.68C22 32.5 20.15 33 18.65 33c-.9 0-1.8-.1-2.63-.47V31.2c.84.37 1.75.63 2.67.63.66 0 1.81-.13 1.81-1 0-.85-1.43-1.2-2.04-1.4-1.12-.44-2.46-.94-2.46-2.35 0-1.63 1.84-2.08 3.15-2.08 1.01 0 1.88.18 2.71.54l-.53 1.16a5.7 5.7 0 0 0-2.25-.51c-.98 0-1.58.37-1.58.89 0 .84 1.5 1.06 2.08 1.28 1.14.4 2.42.93 2.42 2.32ZM14 33H8V22h6v1.5H9.5v3H14V28H9.5v3.5H14V33Z" fill="#4B766B"/></svg>