<!-- by TradingView --><svg width="56" height="56" viewBox="0 0 56 56" xmlns="http://www.w3.org/2000/svg"><path fill="#F0F3FA" d="M0 0h56v56H0z"/><path d="m28.96 18.9 1.21 2.56.05.05.06.03a.15.15 0 0 0 .13-.07 3.79 3.79 0 0 1 3.75-1.8c2.35.24 3.8 2.93 3.15 4.85-.75 2.22-2.33 3.12-4.72 2.71a.25.25 0 0 0-.23.07.23.23 0 0 0-.06.22l.87 3.05c.06.2.2.31.42.32 5.46.27 8.5-4.98 7.18-9.5-1.48-5.05-6.77-7-11.41-3.91-.54.36-.67.83-.4 1.42Zm-2.5 6.93c-.24-.63-.56-.66-.97-.09a3.39 3.39 0 0 1-2.56 1.54c-2.35.2-3.73-.77-4.15-2.9-.9-4.63 5.17-6.82 6.94-2.34.22.58 1.2 3.39 2.93 8.44.05.15.15.28.28.37.14.1.3.15.47.15h2.71c.38 0 .51-.17.4-.52l-3.46-9.75c-.89-2.5-2.5-4-4.84-4.51-5.29-1.16-9.6 2.85-9.2 7.8.22 2.64 1.35 4.59 3.41 5.83 2.69 1.61 5.48 1.53 8.38-.24.25-.16.44-.39.53-.66.09-.28.08-.58-.02-.86l-.86-2.26Z" fill="#F42A04"/><path d="M20.9 37.58c-.1-3.59-5.4-2.43-4.34.48.4 1.1 1.8 1.74 3.08 1.15.18-.08.3-.13.37-.14.23-.05.38.03.44.24.15.5.07.87-.23 1.08-.76.5-1.59.64-2.48.41-2-.52-2.9-1.8-2.7-3.84.15-1.65 1.11-2.61 2.87-2.89 2.15-.33 3.6.44 4.32 2.29.25.65.28 2.08.08 4.29 0 .1-.05.18-.13.25a.44.44 0 0 1-.28.1h-.54c-.21 0-.33-.1-.34-.3-.04-.66-.08-1.7-.12-3.12ZM23.32 40.59c.03-2.68-.57-6.26 3.4-6.59a.51.51 0 0 1 .35.11c.05.04.08.09.11.14.03.06.04.12.04.17v.28c0 .34-.18.57-.53.67-2.53.74-2.04 2.92-1.85 5.17a.4.4 0 0 1-.12.32.49.49 0 0 1-.34.14h-.62c-.3 0-.44-.14-.44-.41ZM38 35.15c.08 0 .14-.02.16-.04.67-.62 1.48-.99 2.42-1.1a.4.4 0 0 1 .3.09c.03.03.07.07.09.12.02.04.03.09.03.14v.55c0 .21-.1.34-.33.4-1.46.36-2.11 1.18-1.95 2.46.05.48.26.85.63 1.11.4.3.82.49 1.25.57.24.05.36.19.37.4.03.68 0 1.03-.08 1.09-.16.1-.34.08-.53-.07-.95-.73-1.74-1.09-2.37-1.09-.62 0-1.42.36-2.37 1.08-.2.15-.37.17-.53.07-.08-.05-.1-.41-.07-1.08 0-.22.13-.36.37-.4.42-.1.84-.28 1.25-.57.36-.26.58-.63.63-1.1.16-1.29-.49-2.11-1.95-2.48-.22-.05-.32-.19-.32-.4v-.55c0-.05.01-.1.03-.14a.35.35 0 0 1 .1-.12.39.39 0 0 1 .3-.09c.93.12 1.74.49 2.4 1.11.03.02.08.04.17.04Z" fill="#020504"/><path fill-rule="evenodd" d="M29.45 38.95c-.73-.62-.62-.93.35-.93h4.06c.65 0 .89-.3.7-.92-.75-2.4-2.2-3.41-4.34-3.02-.82.15-1.47.54-1.95 1.16-1.3 1.69-1.06 3.73.67 5.03 1.4 1.07 2.9.96 4.49-.32.9-.73.8-1.14-.3-1.23-.06-.01-.36.12-.9.4-.97.49-1.88.58-2.78-.17Zm-.3-2.3a.1.1 0 0 0 .07.02h3.48a.1.1 0 0 0 .09-.06v-.09c0-.3-.18-.6-.5-.81a2.23 2.23 0 0 0-1.22-.34h-.22c-.23 0-.45.04-.66.1-.21.05-.4.14-.56.25-.16.1-.29.23-.38.37a.83.83 0 0 0-.12.44v.05c0 .03 0 .05.02.06Z" fill="#020504"/><path fill-rule="evenodd" d="M40.44 12.64H15.56c-1.06 0-1.92.87-1.92 1.93v26.86c0 1.06.86 1.93 1.92 1.93h24.88c1.06 0 1.92-.87 1.92-1.93V14.57c0-1.06-.86-1.93-1.92-1.93ZM15.56 12A2.56 2.56 0 0 0 13 14.57v26.86A2.56 2.56 0 0 0 15.56 44h24.88A2.56 2.56 0 0 0 43 41.43V14.57A2.56 2.56 0 0 0 40.44 12H15.56Z"/></svg>