<!-- by TradingView --><svg width="56" height="56" viewBox="0 0 56 56" xmlns="http://www.w3.org/2000/svg"><path fill="#181B1E" d="M0 0h56v56H0z"/><path d="M27 35h-.82v-.7c-.45.43-1.05.7-1.71.7A2.48 2.48 0 0 1 22 32.5c0-1.38 1.1-2.5 2.47-2.5.66 0 1.26.27 1.7.7V30H27v5Zm-2.47-4.17c-.9 0-1.64.75-1.64 1.67 0 .92.74 1.67 1.64 1.67.91 0 1.65-.75 1.65-1.67 0-.92-.74-1.67-1.65-1.67ZM39 35h-.82v-.7c-.45.43-1.05.7-1.71.7A2.48 2.48 0 0 1 34 32.5c0-1.38 1.1-2.5 2.47-2.5.66 0 1.26.27 1.7.7V30H39v5Zm-2.47-4.17c-.9 0-1.64.75-1.64 1.67 0 .92.74 1.67 1.64 1.67.91 0 1.65-.75 1.65-1.67 0-.92-.74-1.67-1.65-1.67ZM40.86 30.76c.34-.55 1.57-.74 2.14-.76v.83c-1.71 0-2.14.93-2.14 1.4V35H40v-5h.86v.76ZM48 35h-.82v-.7c-.45.43-1.05.7-1.71.7A2.48 2.48 0 0 1 43 32.5c0-1.38 1.1-2.5 2.47-2.5.66 0 1.26.27 1.7.7V30H48v5Zm-2.47-4.17c-.9 0-1.64.75-1.64 1.67 0 .92.74 1.67 1.64 1.67.91 0 1.65-.75 1.65-1.67 0-.92-.74-1.67-1.65-1.67ZM33 35h-5v-.88l3.55-3.24H28V30h5v.88l-3.55 3.24H33V35ZM9.54 37H8l6.23-11h1.7l2.16 8.31 7.22-15.09L26 19l-7.22 17h-1.62l-2.24-8.24L9.54 37ZM26.18 16l.06.76.76.18-.73.3.06.76-.5-.58-.73.29.4-.65-.5-.59.76.18.42-.65ZM28.18 14l.06.76.76.18-.73.3.06.76-.5-.58-.73.29.4-.65-.5-.59.76.18.42-.65ZM26.59 13l.03.38.38.1-.36.14.03.38-.26-.3-.36.15.2-.32-.25-.3.38.1.2-.33Z" fill="#fff"/></svg>