<!-- by TradingView --><svg xmlns="http://www.w3.org/2000/svg" width="18" height="18" viewBox="0 0 18 18"><path fill="#F0F3FA" d="M0 0h18v18H0z"/><path d="m9.67 4.04-3.54 8.6h2.2c-.39-.2-1.14-1.02-.67-2.44l2.46-6.07A5 5 0 0 1 14 9h-3.28 2.14-3.89l.17-.5h3.69c-.2-2.07-1.28-3.25-2.52-3.71l-.47 1.18c-.73 1.84-1.58 4-1.73 4.34-.2.45-.22.8-.2.9 0 .78.77 1.29 1.09 1.45.15.04.46.15.46.25 0 .09-.08.16-.12.18H6.96c.51.22 1.07.35 1.65.35 2.02 0 3.71-1.47 4.14-3.44h-2.4l.2-.55h3.43a5 5 0 0 1-7.86 3.64H6.1l-.11-.1a5 5 0 0 1 3.69-8.95Zm-3.86 8.3 3.17-7.78-.37.02a4.34 4.34 0 0 0-4.24 4.43 4.5 4.5 0 0 0 1.44 3.33Z" fill="#CE171F"/></svg>