<!-- by TradingView --><svg width="18" height="18" viewBox="0 0 18 18" xmlns="http://www.w3.org/2000/svg"><path fill="#F0F3FA" d="M0 0h18v18H0z"/><path d="M6.13 6c.15 0 .28.01.39.04.4.1.7.32.9.68.2.35.27.76.24 1.23-.04.48-.2.87-.48 1.17-.28.28-.63.44-1.06.47-.2.01-.37.02-.52 0-.02 0-.07.02-.07.04v2.34c0 .02.03.03.01.03H4.02C4 12 4 12 4 11.98V6.03C4 6 4 6 4.02 6h2.1Zm6.76 0s.02 0 .02.02a636.58 636.58 0 0 0 .77 2.64l.71-2.63c0-.02.02-.03.03-.03h.56C15 6 15 6 15 6.02l-.95 3.7c-.01.05-.05.1-.05.15v2.1c0 .02-.06.03-.07.03h-1.54l-.01-.02V9.82l-.01-.06-1.03-3.73c-.01-.02 0-.03.02-.03h1.53Zm-3.44.04c.32-.07.63-.04.93.09.22.08.4.25.55.5.13.23.21.48.24.76a5.56 5.56 0 0 1 .01.5l-.57.38h-.02l-.01-.02c.03-.36.02-.67-.03-.93-.07-.39-.22-.62-.44-.7-.2-.06-.37.04-.49.3-.08.18-.13.41-.17.7a13.53 13.53 0 0 0-.04 2.84c.05.29.13.53.25.71.08.14.2.21.35.22.15.02.29-.03.42-.14.18-.15.3-.41.35-.8a3.87 3.87 0 0 0 0-.96h.03l.56.2c.02.01.02.02.02.04.03.38.01.7-.04.96-.07.35-.23.64-.47.88-.24.22-.51.35-.83.4-.67.1-1.2-.1-1.6-.59a3.22 3.22 0 0 1-.63-1.85c-.04-.57 0-1.1.12-1.61.14-.58.36-1.04.68-1.4.23-.25.5-.42.83-.48Zm-3.88.56c-.03 0-.04.01-.04.03v2.34c0 .02.01.03.03.03.25 0 .42-.15.5-.44.06-.17.08-.41.08-.74v-.04c0-.33-.02-.57-.07-.74-.09-.29-.26-.44-.5-.44Z" fill="#6A6A6A"/></svg>