<!-- by TradingView --><svg width="18" height="18" viewBox="0 0 18 18" xmlns="http://www.w3.org/2000/svg"><path fill="#F0F3FA" d="M0 0h18v18H0z"/><path d="M10.33 6.7a.9.9 0 0 0-.34-.5c-.1-.07-.2-.12-.3-.17-.2.1-.37.16-.48.17a.54.54 0 0 1-.35-.05.21.21 0 0 0-.01.1c0 .14.15.33.42.54.17.14.25.28.24.44-.02.32-.4.55-.41.56l-.42.24c-.3.16-.45.24-.42.42.04.17.2.2.5.23.16.02.35.04.55.09v-.1c-.01-.62.34-1.3 1.02-1.97Zm2.38 6.93a6.31 6.31 0 0 1-.33-.27c-.03-.07-.03-.17.02-.28.1-.26.37-1.33.4-2.24 0-.07-.02-.72-.48-1.1-.35-.31-.88-.37-1.57-.18l-.14.02a1.46 1.46 0 0 1 .27 1.06l-.01.13c.23.08.52.22.7.5.18.26.24.61.18 1.04l-.1.56c-.08.42-.12.59-.03.75.18.39.83.4 1.1.38.16 0 .18-.08.2-.13v-.02c.03-.05-.02-.1-.2-.22Zm-6.26-3.47c.1-.16.2-.31.32-.46a.47.47 0 0 1-.24-.36c-.08-.4.48-.85.82-1.11l.18-.15c.6-.48.85-.89.7-1.15a.3.3 0 0 0-.22-.13l-.16.03c-.42.7-.9 1.17-.92 1.17-.33.3-.62.53-.87.72-.56.42-.89.68-.98 1.23-.08.5.26.7.28.71.13.09.6.3 1.09-.5Zm1.9-4.68.18-.06c.14-.05.28-.1.42-.13l.03-.1c.13-.32.19-.6.2-.88 0-.11-.04-.2-.13-.25-.14-.1-.37-.08-.53.03-.27.19-.24.51-.2.9.02.16.03.32.03.49Zm.8 5.03c.05-.09.05-.17.05-.23v-.04c-.02-.18-.08-.32-.19-.4-.25-.21-.69-.14-1.04-.09l-.13.02-.25.04c0 .02 0 .05.02.08.16.3.87.5 1.54.62Z" fill="#090822"/><path d="M10.48 9.55a2.08 2.08 0 0 0-.63-.47 2.23 2.23 0 0 0-.53-.21c-.21-.06-.4-.08-.56-.1-.3-.03-.53-.06-.58-.3-.04-.26.16-.36.46-.52.12-.07.26-.14.41-.24 0 0 .36-.22.38-.48 0-.13-.07-.25-.21-.37-.3-.23-.45-.43-.46-.6a.3.3 0 0 1 .07-.22L8.86 6l.02-.02c.12-.1.4-.2.8-.05a.9.9 0 0 1 .05.02l.06.02.24.13c.16.13.3.26.37.53l.02.04.01.06c.03.12.05.27.06.45.03.42.1 1.4.77 1.8 0 0 .43.23.72 0 .1-.1.18-.25.23-.46a.69.69 0 0 1-.46-.23.63.63 0 0 1-.19-.47V7.8c.02-.23.17-.47.49-.8l.04-.04c-.14-.4-.36-.73-.66-1.03l-.03-.03-.04-.03a3.18 3.18 0 0 0-.7-.48 2.8 2.8 0 0 0-1.69-.03l-.05.02a4.26 4.26 0 0 0-.58.18l-.04.02h-.05c-.22.06-.49.07-.68-.12-.2-.2-.37-.47-.43-.57a8.58 8.58 0 0 1-.06-.08c-.2-.26-.38-.53-.67-.42-.1.04-.29.19-.27.46.02.3.15.52.4.66l.12.08c.17.1.36.22.4.49.05.25-.1.45-.58.71-.09.07-.33.16-.73.3l-.47.18c-.53.18-1.39.57-1.27 1.19.04.18.18.47.71.43h.01c.35 0 1-.24 2.11-1.38l.09-.08c.24-.25.56-.58.86-.69l.06-.02.06-.01H8c.11 0 .21.05.29.15.13.23.1.62-.72 1.28l-.18.15c-.3.24-.86.67-.79 1.02 0 .07.04.17.14.26l.07.04.04.02.04.02c.13.05.32.08.6.06h.09a3.94 3.94 0 0 0 .36-.06c.37-.06.84-.13 1.11.1a.67.67 0 0 1 .22.51.54.54 0 0 1-.07.3l-.02.04c-.12.15-.36.31-.88.44l-.42.1c-.28.06-.6.13-.88.22-.31.1-.49.34-.53.7l-.01.23-.05.74c-.03.23-.12.37-.28.44l-.25.06c-.15.04-.28.07-.28.15 0 0 .02.08.36.07H6.75c.6 0 .64-.24.68-.57l.03-.16v-.06c.03-.23.08-.66.44-.77.35-.12.63-.17.92-.23.25-.04.52-.1.84-.2.37-.1.96-.3 1.1-.93l.02-.05v-.04a1.52 1.52 0 0 0 .02-.18 1.34 1.34 0 0 0-.32-1.02Z" fill="#090822"/><path d="M13.93 5.9a1.37 1.37 0 0 0-.87-.92c-1.12-.35-2.16.38-2.17.38l-.04.03c.22.13.42.28.6.44.1-.07.4-.25.7-.38.55-.2.74-.02.8.1.15.3-.07.82-.48 1.2l-.02.01a6.6 6.6 0 0 0-.41.4c-.23.23-.35.42-.38.6a.5.5 0 0 0 0 .05l-.01.02c0 .14.05.27.16.4.13.14.28.21.46.22h.06c.2-.02.43-.14.65-.3.27-.21.54-.5.73-.8.28-.41.36-.97.22-1.45Z" fill="#090822"/></svg>