<!-- by TradingView --><svg width="56" height="56" viewBox="0 0 56 56" xmlns="http://www.w3.org/2000/svg"><path fill="#F0F3FA" d="M0 0h56v56H0z"/><path d="M13.6 17a5.58 5.58 0 0 1 4.2 2l-.39.33a5.1 5.1 0 0 0-3.81-1.8c-3.17 0-6.1 3.07-6.1 6.38 0 1.97.86 3.24 1.76 4.24.67.75 1.9 1.62 1.9 2.77 0 1.68-1.04 2.6-1.82 3.66v.04c0 .1.06.12.16.14.23.04.46 0 .7 0 1.42 0 3.11-.68 4.4-1.24 1.1-.48 2.42-1.22 3.65-1.22.3 0 .8-.09.97.23.18.35-.09.58-.35.76-1.7 1.19-3.54 2.18-5.32 3.21 2.4-.98 4.96-2.3 7.57-2.3.55 0 1.3-.06 1.7.45.12.18.18.39.18.64 0 1.13-1.96 2.3-2.7 2.87.53-.54 2.2-1.98 2.2-2.87 0-.16-.03-.25-.08-.31-.26-.35-.88-.21-1.23-.21-3.22.04-7.52 2.65-12 4.23l-.21-.47c3.23-1.83 6.61-3.54 9.66-5.7h-.4c-1.14 0-2.41.73-3.45 1.17-1.35.59-3.1 1.3-4.6 1.3-.26 0-.52.02-.77-.02-.33-.06-.58-.3-.58-.66 0-.4.36-.75.58-1.05.58-.76 1.23-1.62 1.23-2.65 0-.96-1.2-1.8-1.76-2.42A6.56 6.56 0 0 1 7 23.9c0-3.59 3.16-6.9 6.6-6.9Z" fill="url(#a)"/><path d="M48 26.29V23.7c0-.31 0-.44-.2-.46l-.14-.01c-.1 0-.1 0-.1-.12 0-.1 0-.12.1-.12h1.68c.1 0 .1.02.1.12 0 .11 0 .11-.1.12h-.15c-.19.03-.19.16-.19.47v2.36l.01.63c.2.05.25.03.45.03.45 0 .53.04.6-.41.04-.24.01-.32.13-.32h.22c.07 0 .09.05.09.13v.7c0 .12 0 .17-.1.17h-2.74c-.1 0-.1-.02-.1-.12 0-.12 0-.11.1-.12l.15-.02c.18-.01.19-.13.19-.4v-.05ZM43.68 25.11h1.16l-.56-1.38h-.04l-.56 1.38Zm-.73.84 1.24-2.8c.05-.12.06-.15.14-.15h.55c.1 0 .1.03.14.14l1.2 2.87c.18.46.32.7.53.74l.12.01.1.02c.02 0 .03.04.03.1 0 .1-.02.12-.13.12H44.9c-.1 0-.13-.02-.13-.11 0-.11 0-.12.13-.13h.11c.21-.01.32-.1.32-.25 0-.07-.02-.2-.09-.35l-.31-.78h-1.35l-.35.9a.6.6 0 0 0-.05.23c0 .15.1.23.3.24l.15.01c.12.01.13.01.13.13 0 .1-.02.11-.13.11h-1.5c-.1 0-.13-.02-.13-.11 0-.12.01-.12.13-.13h.11c.32-.02.49-.3.71-.8ZM40 26.3v-2.6c0-.3 0-.43-.22-.45l-.18-.01c-.1 0-.12 0-.12-.12 0-.1.02-.12.12-.12h1.8c.1 0 .12.02.12.12 0 .11-.01.11-.12.12l-.17.01c-.23.02-.23.15-.23.46v2.63c0 .27 0 .4.23.41l.17.01c.1.01.12 0 .12.12 0 .1-.02.12-.12.12h-1.8c-.1 0-.12-.02-.12-.12 0-.11.01-.1.12-.12l.18-.01c.21-.02.22-.14.22-.41v-.05ZM27 26.28V24l-.01-.73h-.4c-.42 0-.48.05-.6.46-.04.2 0 .28-.15.28h-.23c-.08 0-.11-.02-.11-.08v-.87c0-.03.02-.05.09-.05h3.82c.06 0 .1.02.1.05v.87c0 .06-.03.08-.11.08h-.24c-.14 0-.11-.09-.16-.28-.11-.4-.19-.46-.62-.46h-.36L28 24v2.3c0 .3 0 .43.23.45l.27.02c.12.01.13 0 .13.12 0 .1-.01.12-.12.12H26.5c-.1 0-.13-.01-.13-.12 0-.12.02-.1.13-.12l.27-.02c.22-.02.23-.14.23-.41v-.05ZM21.46 25.47v-1.88c0-.19-.1-.33-.2-.34l-.15-.01c-.1 0-.1 0-.1-.12 0-.1.01-.12.1-.12h.92c.06 0 .09 0 .1.02l.35.5 1.79 2.5-.03-2.13c-.02-.4-.05-.62-.26-.64l-.14-.01c-.09-.01-.1 0-.1-.12 0-.1.02-.12.1-.12h1.06c.08 0 .1.02.1.12 0 .12-.01.1-.1.12l-.1.02c-.13.02-.2.12-.23.32 0 .1-.04.72-.04 1.85 0 .87.03 1.34.03 1.42 0 .12-.03.15-.09.15h-.46c-.14 0-.2-.24-.56-.74l-1.73-2.44.04 2.3c.02.4.05.6.26.63l.13.01c.09.01.1 0 .1.12 0 .1-.01.12-.1.12H21.1c-.09 0-.1-.02-.1-.12 0-.12 0-.1.1-.12l.1-.02c.27-.04.25-.43.26-1.27ZM35.46 25.47v-1.88c0-.19-.1-.33-.2-.34l-.15-.01c-.1 0-.1 0-.1-.12 0-.1.01-.12.1-.12h.92c.06 0 .09 0 .1.02l.35.5 1.79 2.5-.03-2.13c-.02-.4-.05-.62-.26-.64l-.14-.01c-.09-.01-.1 0-.1-.12 0-.1.02-.12.1-.12h1.06c.08 0 .1.02.1.12 0 .12-.01.1-.1.12l-.1.02c-.13.02-.2.12-.23.32 0 .1-.04.72-.04 1.85 0 .87.03 1.34.03 1.42 0 .12-.03.15-.09.15h-.46c-.14 0-.2-.24-.56-.74l-1.73-2.44.04 2.3c.02.4.05.6.26.63l.13.01c.09.01.1 0 .1.12 0 .1-.01.12-.1.12H35.1c-.09 0-.1-.02-.1-.12 0-.12 0-.1.1-.12l.1-.02c.27-.04.25-.43.26-1.27ZM18 26.29v-2.57c0-.3 0-.44-.2-.46l-.14-.01c-.1 0-.1 0-.1-.12 0-.1 0-.12.1-.12l2.98-.01c.08 0 .1.03.1.12v.73c0 .05-.03.08-.1.08h-.17c-.14 0-.12-.04-.15-.2-.1-.39-.19-.46-.63-.46H19v1.46h.2c.3 0 .37-.05.44-.26.06-.2-.02-.31.14-.31h.14c.06 0 .08-.02.08.02v1.32c0 .04-.02.03-.08.03h-.14c-.16 0-.08-.1-.14-.31-.07-.2-.15-.27-.44-.27l-.2.01v1.75l.22.02h.44c.5 0 .57.03.66-.41.04-.24.01-.32.15-.32h.19c.06 0 .09.05.09.13v.7c0 .12 0 .17-.1.17h-3c-.08 0-.1-.02-.1-.12 0-.12.01-.11.1-.12l.16-.01c.18-.02.19-.14.19-.41v-.05ZM31 26.29v-2.57c0-.3 0-.44-.2-.46l-.14-.01c-.1 0-.1 0-.1-.12 0-.1 0-.12.1-.12l2.98-.01c.08 0 .1.03.1.12v.73c0 .05-.03.08-.1.08h-.17c-.14 0-.12-.04-.15-.2-.1-.39-.19-.46-.63-.46H32v1.46h.2c.3 0 .37-.05.44-.26.06-.2-.02-.31.14-.31h.14c.06 0 .08-.02.08.02v1.32c0 .04-.02.03-.08.03h-.14c-.16 0-.08-.1-.14-.31-.07-.2-.15-.27-.44-.27l-.2.01v1.75l.22.02h.44c.5 0 .57.03.66-.41.04-.24.01-.32.15-.32h.19c.06 0 .09.05.09.13v.7c0 .12 0 .17-.1.17h-3c-.08 0-.1-.02-.1-.12 0-.12.01-.11.1-.12l.16-.01c.18-.02.19-.14.19-.41v-.05ZM17 25.31v1.28c0 .12-.08.14-.24.18a8.4 8.4 0 0 1-1.98.23c-1.92 0-2.78-.94-2.78-2.95 0-2.09.91-3.05 2.9-3.05.5 0 1.14.06 1.88.2.18.03.22.03.22.2v1.17c0 .1-.04.12-.14.12h-.22c-.24 0-.2-.1-.25-.35-.12-.71-.51-.99-1.3-.99-1.29 0-1.59.81-1.59 2.61 0 1.84.26 2.67 1.51 2.67.84 0 1.21-.32 1.35-1.05.05-.27.02-.4.2-.4h.25c.13 0 .19.03.19.13Z" fill="#D13730"/><path fill="#403885" fill-opacity=".5" d="M12 28h39v3H12z"/><defs><linearGradient id="a" x1="15" y1="17" x2="15" y2="39" gradientUnits="userSpaceOnUse"><stop stop-color="#72706B"/><stop offset="1" stop-color="#82679B"/></linearGradient></defs></svg>