<!-- by TradingView --><svg width="56" height="56" viewBox="0 0 56 56" xmlns="http://www.w3.org/2000/svg"><path fill="#F0F3FA" d="M0 0h56v56H0z"/><path d="M27.54 44.03c2.1-.12 4.01-.8 5.73-2.02a9.1 9.1 0 0 0 2.26-2.14l1.27-2c.1-.14.05-.23-.12-.27a37.95 37.95 0 0 0-14.7-.37c-.26.05-.52.11-.79.19-.29.07-.56.1-.82.05a33.48 33.48 0 0 1 5.88-2.94c.02.18.14.25.36.2.3-.07.57-.1.85-.11a36.95 36.95 0 0 1 10.02 1.06l.04-.04c.31-.96.36-1.92.14-2.87.06-.03.06-.18 0-.44a1.5 1.5 0 0 0-.17-.76c.06-.09.05-.2-.04-.35.01-.12 0-.21-.05-.26 0-.23-.03-.45-.1-.67-.81-2.41-2.2-4.29-4.2-5.63a11.17 11.17 0 0 0-13.15.49c-2.69 2.11-4.02 5-4 8.65l.18 1.21c.01.08 0 .15-.03.22-.1.23-.06.38.12.44-.04.08-.03.19.04.33-.04.18 0 .3.1.38.08.04.19.04.33 0 1.16-.32 2.35-.66 3.58-1.02l2.02-.42c.31.16.81.13 1.5-.08.2-.06.31 0 .32.2-1.84.9-3.57 1.88-5.17 2.96a3.1 3.1 0 0 0-1.6.3c-.1.05-.11.11-.05.19l1.43 1.95A10.73 10.73 0 0 0 24 43.69l-2.61.53a.37.37 0 0 1-.4-.18.35.35 0 0 1-.04-.14c-.05-.78-.68-1.32-1.3-1.77a6.71 6.71 0 0 0-4.86-1.33.83.83 0 0 1-.67-.2.28.28 0 0 1-.08-.11c-.07-.17-.01-.27.16-.3.6-.14.98-.38 1.12-.74.32-.83.07-2.04-.7-2.55a3.63 3.63 0 0 0-1.4-.56.52.52 0 0 1-.27-.13 8.6 8.6 0 0 1-1.95-2.7v-.28c2.06.09 3.08-.87 3.06-2.88 0-.52-.08-1.02-.23-1.48a.23.23 0 0 1 .05-.23c.54-.66-.69-1.57-1.24-1.81a.09.09 0 0 1-.05-.07.09.09 0 0 1 .03-.08c.47-.34 1.9-1.64 1.16-2.27-.43-.37-.91-.51-1.44-.42-.07.01-.12-.01-.14-.08-.1-.24-.13-.49-.09-.73.02-.1.06-.18.14-.24a.34.34 0 0 0 .08-.1.28.28 0 0 0-.02-.32 4.2 4.2 0 0 1-.38-.54.33.33 0 0 1-.03-.26.17.17 0 0 1 .12-.12.18.18 0 0 1 .17.03 3.4 3.4 0 0 0 2.48.93c.93-.07 1.88-.64 1.96-1.61a.13.13 0 0 1 .08-.11h.08l.06.03c.3.28.64.42 1.05.41a.3.3 0 0 0 .22-.1.28.28 0 0 0 .06-.23c-.06-.32-.18-.6-.34-.88a.2.2 0 0 1-.01-.2c.63-1.26-.67-1.52-1.23-2.24a.36.36 0 0 1 .13-.55c.3-.14.62-.14.96-.02.1.03.17 0 .23-.07l2.29-3.2c.06-.07.12-.08.19-.01l.26.24a.2.2 0 0 1 .06.22c-.25.9.63 1.45 1.45 1.45.04 0 .07 0 .1.03.04.02.06.05.08.09l.12.34c.03.1 0 .17-.08.23-.44.28-.78.62-1.03 1.02a.34.34 0 0 0 .08.44c.61.5 1.28.7 2 .6 1.14-.14 1.9-1.7 2.19-2.7.38-1.35 1.82-1 2.81-.6 1.23.52 3.18-1.9 3.85-2.79.05-.07.12-.09.2-.05 1.22.53 2.49.1 3.42-.76.07-.07.15-.07.24-.03 1.38.79 2.86-.12 3.51-1.36.03-.05.07-.1.13-.12.05-.03.1-.04.14-.03.04.01.08.03.1.06.02.03.03.07.02.11l-.3 1.87c-.01.06-.04.11-.08.16a9.7 9.7 0 0 0-1.99 2.9.22.22 0 0 1-.22.14h-1.53a.26.26 0 0 0-.21.1l-.09.1c-.06.08-.14.1-.23.05a1.49 1.49 0 0 0-1.46.02.35.35 0 0 1-.24.04 6.05 6.05 0 0 0-2.38.04c-1.52.37-1.15 2.28-.7 3.27.01.03.04.06.07.08.03.01.07.02.1.01.7-.12 1.29.02 1.8.42.07.06.15.07.24.03l.87-.43a.25.25 0 0 0 .14-.25.77.77 0 0 1 .2-.67.3.3 0 0 1 .3-.08.3.3 0 0 1 .21.25c.11.92-.02 1.74 1 2.25a.37.37 0 0 0 .36-.02c.37-.24.65-.53.83-.87.05-.1.13-.14.23-.15l1.62-.09c.09 0 .16.02.22.08l.36.35c.06.06.12.08.2.08l.87-.03c.11 0 .18-.06.2-.17.1-.49.37-.82.83-1.01.08-.04.12-.1.1-.18a.96.96 0 0 0-.3-.57.26.26 0 0 1-.06-.3c.02-.05.06-.1.11-.12.05-.03.1-.04.16-.04l.78.08c.1 0 .17-.02.24-.07l1.15-.9c.22-.17.3-.12.24.15a.88.88 0 0 0-.02.35c.02.1-.01.19-.08.26a.82.82 0 0 0-.22.73c0 .05 0 .09-.02.13a.2.2 0 0 1-.1.08c-.68.28-1.24.67-1.7 1.18-.09.1-.06.18.07.22l.41.14c.05.02.1.04.13.08s.06.08.07.13c.07.33-.23.6-.54.66-1.21.23-2.29.69-1.76 2.14.2.59.53 1.15.96 1.67.1.12.07.2-.09.24-.42.1-1.12.54-.67 1.03.18.2.42.29.73.28.1 0 .17.05.18.16.02.22 0 .42-.08.59-.22.51-.4.98-.53 1.4a.34.34 0 0 1-.13.18c-.28.2-.76.5-.54.9a.18.18 0 0 1-.02.2c-.23.28-.35.6-.36.96 0 .1.04.16.12.2l.16.08c.07.05.13.1.16.19.34.82 1.37 2.94 2.63 1.99a3.68 3.68 0 0 0 1.63-2.66l.02-.01h.05c.07.04.12.1.15.18.32.81.71 1.57.7 2.47 0 .04-.02.08-.04.11a.2.2 0 0 1-.1.07c-.74.2-1.33.53-1.8 1-.2.2-.45.38-.72.53-.69.4-1.1.99-1.22 1.77-.01.1-.06.2-.14.27-.42.43-.97.6-1.65.5a.33.33 0 0 0-.23.04c-1.2.74-1.14 2.2-.7 3.36.03.08 0 .13-.09.14-2.38.37-4.78 1.67-5.37 4.06-.02.08-.07.1-.15.07-.63-.32-1.4-.3-2.3.05-1.09.41-2.06.15-2.95-.78Z" fill="#791214"/><path d="M37.4 30.96c-.92-.26-1.8-.61-2.62-1.06l-1.24-.65c-.45-.21-.86-.44-1.26-.69a72.16 72.16 0 0 0-3.71-2.12c-1.84-.98-3.7-1.38-5.71-.5a7.1 7.1 0 0 0-2.66 2.02 10 10 0 0 0-2.26 5.17l-2 .67c-.01-3.65 1.32-6.54 4.01-8.65a11.17 11.17 0 0 1 13.16-.48 10.66 10.66 0 0 1 4.19 5.62c.07.22.1.44.1.67Z" fill="#C32E33"/><path d="M37.4 30.96c.04.05.06.14.05.26a1.5 1.5 0 0 1-.57-.02c-1.4-.4-2.87-.9-4.17-1.6a44.62 44.62 0 0 0-3.07-1.5c-.45-.2-.94-.23-1.35-.5-.07-.04-.14-.04-.2.01-.12.1-.26.1-.41.05-.04-.01-.05-.03-.04-.07l.01-.05c0-.11.06-.16.17-.14 1.05.16 1.88.39 2.5.69 1.27.62 2.56 1.27 3.85 1.94.03.01.06 0 .07-.03l.03-.06v-.04a72.7 72.7 0 0 1-4.43-2.4c-2.59-1.52-5.53-2.57-8.18-.4-.13.1-.12.19.05.25.78.26 1.66.16 2.5.24.62.06.62.14 0 .23-.88.13-1.82.06-2.8-.2a.33.33 0 0 0-.27.04.57.57 0 0 0-.24.32 4.47 4.47 0 0 0-1.45 1.87l-.7 1.7c-.19.36-.3.78-.34 1.25-.17 1.36.43 2 1.77 1.94.35-.02.81-.08 1.2-.21 1.13-.4 2.25-.8 3.37-1.24 1.7-.66 3.45-1.12 5.26-1.38.33-.1.69-.13 1.1-.09-.3.12-.55.17-.78.17a.46.46 0 0 0-.24.06c-.38.22-.78.15-1.2.26a31 31 0 0 0-4.85 1.57l.04.06c.01.01.02.02.04.01a80.22 80.22 0 0 1 7.52-1.94 24.5 24.5 0 0 1 4.22.01c.1.01.18.04.22.1.05.05.11.08.18.08l1.4.13c.06.26.06.4 0 .44a12.6 12.6 0 0 0-3.3-.08c-2.91.29-5.61.9-8.11 1.84a33.47 33.47 0 0 0-5.88 2.94l-2.12 1.4a.07.07 0 0 1-.05.02.07.07 0 0 1-.05-.03l-.04-.06a.14.14 0 0 1-.02-.1c0-.04.02-.07.05-.1l.8-.58a42.14 42.14 0 0 1 5.17-2.96 29.46 29.46 0 0 1 6.4-2.13c1.35-.26 2.7-.48 4.07-.67.02 0 .03-.01.03-.04a24.38 24.38 0 0 0-8.45 1.46c-1.23.42-2.52.84-3.87 1.26l-2.02.42c-1.53-.05-2.3-.8-2.33-2.23a10 10 0 0 1 2.26-5.17 7.1 7.1 0 0 1 2.66-2.01c2.02-.9 3.87-.49 5.7.49 1.2.63 2.44 1.34 3.72 2.12.4.25.82.48 1.26.7.42.2.84.42 1.24.64.82.45 1.7.8 2.62 1.06Z" fill="#FFFEFE"/><path d="M37.45 31.22c.09.15.1.26.04.35a35.98 35.98 0 0 0-4.15-.32l-3.23.13c-.02 0-.03.01-.03.03 0 .03 0 .04.03.04.97.06 1.95.1 2.93.11 1.36.01 2.8.13 4.32.36.08.01.13-.02.14-.1a.6.6 0 0 0 0-.25c.12.29.18.54.16.76l-1.4-.13a.27.27 0 0 1-.18-.09c-.04-.05-.12-.08-.22-.09a24.5 24.5 0 0 0-4.22-.01c-.23-.04-.41-.1-.53-.19-.41-.04-.77 0-1.1.09-.13-.16-.38-.22-.76-.2-1.19.1-2.52.12-3.98.04 1.86-.55 3.73-.85 5.62-.91.47-.01 1.18.01 2.13.08a53.24 53.24 0 0 0 2.16.1.15.15 0 0 0 .05-.06v-.02a.03.03 0 0 0-.03-.02c-.53-.1-1.04-.18-1.52-.28-.1-.01-.14-.07-.13-.17 0-.1-.04-.13-.13-.08a.07.07 0 0 0-.04.05c-.02.08-.08.12-.16.11l-2.8-.14a18.9 18.9 0 0 0-5.19.47c-1.43.34-2.87.65-4.32.92-.79.16-1.5.07-2.16-.26l.7-1.69c1.76.44 3.37.45 4.82.03A4.3 4.3 0 0 0 26.8 28c.1-.16.05-.22-.14-.18-1.15.27-2.3.41-3.44.43-.75.01-1.54-.17-2.33-.27a.57.57 0 0 1 .24-.32.33.33 0 0 1 .26-.03c.99.25 1.93.32 2.82.19.6-.1.6-.17 0-.23-.85-.08-1.73.02-2.5-.24-.18-.06-.2-.15-.06-.26 2.65-2.16 5.6-1.1 8.2.41a72.73 72.73 0 0 0 4.42 2.4v.04l-.04.06c-.01.04-.04.04-.07.03-1.3-.67-2.58-1.32-3.85-1.94a8.83 8.83 0 0 0-2.5-.7c-.1 0-.16.04-.17.15v.05c-.02.04 0 .06.03.07.15.06.3.04.41-.05.06-.05.13-.05.2 0 .41.26.9.3 1.35.49 1.02.45 2.05.95 3.07 1.5 1.3.7 2.77 1.2 4.17 1.6.15.04.34.05.57.02Z" fill="#C32E33"/><path d="M19.45 29.85c.32-.75.8-1.38 1.45-1.87.79.1 1.58.28 2.33.27 1.14-.02 2.29-.16 3.44-.43.2-.04.24.02.13.18a4.3 4.3 0 0 1-2.53 1.88 9.08 9.08 0 0 1-4.82-.03ZM27.48 28.72c0 .48.23.88.54.88.3 0 .56-.38.57-.87 0-.48-.24-.88-.55-.88-.3 0-.56.38-.56.87ZM28.82 29.02c0 .42.19.76.44.77.25 0 .46-.34.46-.76.01-.42-.19-.76-.44-.76-.24 0-.45.33-.46.75ZM29.94 29.32c.01.37.2.66.43.66.23 0 .4-.3.4-.67 0-.37-.2-.66-.42-.66-.23 0-.41.3-.4.67ZM31 29.61c0 .28.15.5.34.5.18 0 .33-.23.32-.51 0-.28-.16-.51-.34-.5-.19 0-.33.23-.33.51ZM31.92 29.93c0 .21.12.39.26.38.14 0 .25-.17.25-.38s-.11-.38-.25-.38c-.15 0-.26.17-.26.38ZM33.06 30.35a.13.13 0 0 1-.06.06.13.13 0 0 1-.09.02c-.16-.04-.21-.14-.15-.32a.22.22 0 0 1 .16-.15.2.2 0 0 1 .1 0c.04.02.07.04.09.07.04.04.02.15-.05.32Z" fill="#71D0F7"/><path d="M25.27 31.75c-2.21.52-3.79.94-4.72 1.24-.8.25-1.5.19-2.14-.19.04-.47.15-.9.34-1.26.66.33 1.37.42 2.16.26 1.45-.27 2.89-.58 4.32-.92a18.9 18.9 0 0 1 5.19-.47l2.8.14c.08 0 .14-.03.16-.11 0-.02.02-.04.04-.05.1-.05.14-.02.13.08-.01.1.03.16.13.17a64.78 64.78 0 0 0 1.55.3v.02a.15.15 0 0 1-.05.06 21.95 21.95 0 0 0-9.9.73Z" fill="#71D0F7"/><path d="M30.01 31.9c-1.81.27-3.57.73-5.26 1.39-1.12.43-2.24.85-3.38 1.24-.38.13-.84.2-1.19.2-1.34.07-1.94-.57-1.77-1.93.64.38 1.35.44 2.14.19.93-.3 2.5-.72 4.72-1.24 1.46.08 2.8.07 3.98-.03.38-.03.63.03.76.19Z" fill="#520E10"/><path d="M31.1 31.82c.13.08.3.15.54.19a80.22 80.22 0 0 0-7.56 1.93l-.04-.06v-.02a31.02 31.02 0 0 1 4.85-1.55c.42-.1.82-.04 1.2-.26a.46.46 0 0 1 .24-.06c.23 0 .49-.05.78-.17ZM24.11 35.06c0-.2-.12-.26-.32-.2-.69.21-1.19.24-1.5.08 1.35-.42 2.64-.84 3.87-1.26a24.38 24.38 0 0 1 8.45-1.46c0 .03-.01.04-.03.04-1.36.19-2.72.4-4.07.67a29.46 29.46 0 0 0-6.4 2.13Z" fill="#520E10"/><path d="M37.66 32.77a5.28 5.28 0 0 1-.18 2.9 4.57 4.57 0 0 0-10.87-.95c-.22.06-.34-.01-.36-.2a32.3 32.3 0 0 1 8.1-1.83 12.6 12.6 0 0 1 3.31.08ZM17.94 33.13c.02 1.43.8 2.18 2.33 2.23-1.22.36-2.42.7-3.58 1.02-.14.04-.25.04-.32 0-.12-.07-.15-.2-.1-.38l1.64-1.13a.1.1 0 0 0 .04-.12.1.1 0 0 0-.03-.04l-.05-.05c-.02-.02-.04-.02-.06 0l-1.6 1c-.17-.05-.2-.2-.1-.43a.39.39 0 0 0 .02-.22l-.18-1.21 1.99-.67Z" fill="#520E10"/><path d="m35.53 39.87-2.33-.3c-.98-.13-1.75-.21-2.32-.25-4.09-.25-8.14.13-12.16 1.14l-1.43-1.95c-.06-.08-.05-.14.05-.19a3.1 3.1 0 0 1 1.6-.3l-.8.59a.15.15 0 0 0-.05.09c0 .04 0 .07.02.1l.04.06a.07.07 0 0 0 .05.03.07.07 0 0 0 .05-.01l2.12-1.4c.26.03.53.01.82-.06.27-.08.53-.14.79-.19 4.74-.84 9.64-.71 14.7.38.17.03.21.12.12.26l-1.27 2Z" fill="#D85927"/><path d="M35.54 39.87A9.1 9.1 0 0 1 33.28 42c-2-.23-3.26-.34-3.79-.35-2.82-.04-5.66.2-8.51.7a9.67 9.67 0 0 1-2.26-1.9c4.02-1.01 8.07-1.39 12.16-1.14.57.04 1.34.12 2.33.25l2.33.3Z" fill="#F1E902"/><path d="M33.27 42a10.78 10.78 0 0 1-5.73 2.03 10.99 10.99 0 0 1-6.56-1.67c2.85-.5 5.69-.74 8.51-.7.53 0 1.8.12 3.78.35Z" fill="#F9F188"/></svg>