<!-- by TradingView --><svg width="18" height="18" viewBox="0 0 18 18" xmlns="http://www.w3.org/2000/svg"><path fill="#F0F3FA" d="M0 0h18v18H0z"/><path fill-rule="evenodd" d="M7.85 10.02c-2.43 1.03-4.91.8-5.85.55.54.1 1.4.07 2.38-.09L7.28 6H9v2.76a3.27 3.27 0 0 0 1.36-1.73c0-2.3-5.9-1.3-5.97-1.27 5.56-1.7 7.6-.17 7.6.93s-1.1 2.05-4.14 3.33ZM8 9.35c-.63.32-1.33.58-2.03.77L8 6.95v2.4Zm-3.97 1.67L3.4 12h1.38l.68-1.07c-.55.06-1.04.09-1.43.09ZM8 10.4V12h1v-1.94c-.33.13-.67.25-1 .35Zm3-1.42V12h4v-1h-3V7.59v.05c0 .23 0 .68-1 1.35Z" fill="#116634"/></svg>