<!-- by TradingView --><svg width="18" height="18" viewBox="0 0 18 18" xmlns="http://www.w3.org/2000/svg"><path fill="#F0F3FA" d="M0 0h18v18H0z"/><path d="M4.5 7c.33-.02.99.14.99.96 0 .43-.33.66-.5.72.27.08.8.44.8 1.23C5.79 10.9 5 11 4.7 11H3v-.22h.17c.12 0 .14-.08.14-.18V7.4c0-.11-.02-.19-.14-.19H3v-.2h1.5Zm-.73 3.67h.74c.45 0 .81-.41.81-.92 0-.5-.36-.92-.81-.92h-.74v1.84Zm0-2.17h.64c.25 0 .45-.26.45-.58 0-.33-.2-.59-.45-.59h-.64V8.5ZM7.8 7c.78 0 .95.73.94 1.1 0 1.04-.9 1.44-1.3 1.5v-.3a.96.96 0 0 0 .87-1c0-.75-.34-.94-.51-.97H7v3.1c0 .19.13.34.3.34h.23V11H6.1v-.23h.12c.17 0 .3-.15.3-.34V7.57c0-.19-.13-.34-.3-.34H6.1V7h1.7ZM12.52 8h-.31l-.1-.41a.32.32 0 0 0-.3-.26H11v3.11c0 .19.11.34.28.34h.16V11h-1.4v-.22h.12c.17 0 .31-.15.31-.34v-3.1h-.64c-.14 0-.27.1-.3.24l-.1.42h-.31l.13-1h3.12l.15 1ZM14.4 7v.23h-.26c-.17 0-.14.15-.14.34v3.2h1.03c.3 0 .55-.23.6-.53l.05-.24H16l-.15 1H13.1v-.23h.1c.16 0 .3-.15.3-.34V7.57c0-.19-.14-.34-.3-.34h-.25V7h1.45Z" fill="#36B4E5"/></svg>