<!-- by TradingView --><svg width="56" height="56" viewBox="0 0 56 56" xmlns="http://www.w3.org/2000/svg"><path fill="#F0F3FA" d="M0 0h56v56H0z"/><path fill="#D9D9D9" d="M8 15h40v4H8zM8 37h40v4H8z"/><path d="M15.61 30.82c-2.1-.37-6.56-2.4-6.56-6.37.1-1.48 1.36-4.45 5.68-4.45 4.31 0 5.41 3.29 5.42 4.93h-4c-.02-.5-.34-1.49-1.42-1.49-1.35 0-1.44 1.15-1.44 1.5 0 .34 2 2.15 4.73 2.79l-2.4 3.1ZM8.01 30c-.1 1.54.53 4.84 3.74 5.76l1.93-2.93a3.16 3.16 0 0 1-1.6-2.83H8.01Zm16.34-10L13.31 36h5.04L25 27.43V36h3.52L34 27.43V36h4V25h-4v-3.54l-5 7.48V20h-4.65ZM39 24h-4v-4h13v4h-5v11.95h-4V24Z" fill="#0C4DA2"/></svg>