<!-- by TradingView --><svg width="56" height="56" viewBox="0 0 56 56" xmlns="http://www.w3.org/2000/svg"><path fill="#F0F3FA" d="M0 0h56v56H0z"/><path d="M31 38.53v-4.26c0-.77.62-1.27 1.4-1.27a1.19 1.19 0 0 1 .98.5c.4-.3.87-.5 1.47-.5.74 0 1.31.25 1.78.6a3.09 3.09 0 0 1 3.53-.07c.5.39.84 1 .84 1.82v3.18c0 .79-.54 1.47-1.4 1.47-.85 0-1.38-.68-1.38-1.47V35.9c0-.2-.06-.3-.1-.35-.06-.04-.15-.09-.32-.09-.16 0-.25.05-.3.1-.05.04-.1.14-.1.34v2.64c0 .79-.55 1.47-1.4 1.47-.85 0-1.4-.68-1.4-1.47V35.9c0-.2-.05-.3-.1-.35-.05-.04-.14-.09-.3-.09-.17 0-.26.05-.31.1-.05.04-.1.14-.1.34v2.64c0 .79-.54 1.47-1.4 1.47-.85 0-1.39-.68-1.39-1.47Z"/><path d="M31.38 38.53v-4.26c0-.63.46-.9 1.01-.9s.77.4.88.7c.46-.43.93-.7 1.58-.7.76 0 1.31.3 1.79.71a2.65 2.65 0 0 1 1.84-.72c1 0 2.14.54 2.14 2v3.17c0 .62-.35 1.1-1.01 1.1-.67 0-1.02-.48-1.02-1.1V35.9c0-.54-.3-.8-.79-.8-.47 0-.78.26-.78.8v2.64c0 .62-.36 1.1-1.02 1.1s-1.02-.48-1.02-1.1V35.9c0-.54-.3-.8-.78-.8-.48 0-.8.26-.8.8v2.64c0 .62-.34 1.1-1 1.1-.67 0-1.02-.48-1.02-1.1Z" fill="url(#a4443bfao)"/><path d="M30 32.4v6.2c0 .75-.58 1.4-1.5 1.4s-1.5-.65-1.5-1.4v-6.2c0-.75.58-1.4 1.5-1.4s1.5.65 1.5 1.4Z"/><path d="M29.6 32.4v6.2c0 .59-.38 1.05-1.1 1.05-.72 0-1.1-.46-1.1-1.06v-6.18c0-.6.38-1.06 1.1-1.06.72 0 1.1.46 1.1 1.06Z" fill="url(#b4443bfao)"/><path d="M26 34.86v3.78c0 .73-.62 1.36-1.5 1.36s-1.5-.63-1.5-1.36v-3.78c0-.51.33-1.04.88-1.26a1.3 1.3 0 0 1-.88-1.24c0-.75.61-1.36 1.5-1.36s1.5.6 1.5 1.36a1.3 1.3 0 0 1-.88 1.24c.55.22.88.75.88 1.26Z"/><path d="M25.55 34.86v3.78c0 .57-.36 1.02-1.05 1.02-.69 0-1.05-.45-1.05-1.02v-3.78c0-.58.36-1.03 1.05-1.03.69 0 1.05.45 1.05 1.03Zm-2.16-2.5c0-.6.42-1.02 1.11-1.02.69 0 1.11.42 1.11 1.02 0 .6-.42 1-1.11 1-.69 0-1.11-.4-1.11-1Z" fill="url(#c4443bfao)"/><path d="M16 38.51v-6.38c0-.68.5-1.13 1.16-1.13h3.45c.75 0 1.39.5 1.39 1.28s-.64 1.28-1.39 1.28h-1.88v.15h1.74c.73 0 1.35.48 1.35 1.24 0 .77-.63 1.25-1.35 1.25h-1.74v2.31c0 .8-.53 1.49-1.36 1.49-.84 0-1.37-.69-1.37-1.49Z"/><path d="M16.36 38.51v-6.38c0-.47.26-.77.8-.77h3.45c.58 0 1.03.31 1.03.92 0 .6-.45.92-1.03.92h-2.24v.87h2.1c.56 0 1 .3 1 .88 0 .58-.44.9-1 .9h-2.1v2.66c0 .64-.35 1.13-1 1.13-.66 0-1.01-.5-1.01-1.13Z" fill="url(#d4443bfao)"/><path d="M40 26.53v-4.26c0-.77.62-1.27 1.4-1.27.39 0 .75.18.98.5.4-.3.87-.5 1.47-.5.74 0 1.31.25 1.78.6.53-.4 1.2-.6 1.85-.6 1.42 0 2.52.96 2.52 2.35v3.18c0 .79-.54 1.47-1.4 1.47-.85 0-1.38-.68-1.38-1.47V23.9c0-.27-.13-.44-.42-.44-.28 0-.4.17-.4.44v2.64c0 .79-.55 1.47-1.4 1.47-.85 0-1.4-.68-1.4-1.47V23.9c0-.27-.12-.44-.4-.44-.3 0-.42.17-.42.44v2.64c0 .79-.53 1.47-1.39 1.47-.85 0-1.39-.68-1.39-1.47Z"/><path d="M40.38 26.53v-4.26c0-.63.46-.9 1.01-.9s.77.4.88.7c.46-.43.93-.7 1.58-.7.76 0 1.31.3 1.79.71a2.65 2.65 0 0 1 1.84-.72c1 0 2.14.54 2.14 2v3.17c0 .62-.35 1.1-1.01 1.1-.67 0-1.02-.48-1.02-1.1V23.9c0-.54-.3-.8-.79-.8-.47 0-.78.26-.78.8v2.64c0 .62-.36 1.1-1.02 1.1s-1.02-.48-1.02-1.1V23.9c0-.54-.3-.8-.78-.8-.48 0-.8.26-.8.8v2.64c0 .62-.34 1.1-1 1.1-.67 0-1.02-.48-1.02-1.1Z" fill="url(#e4443bfao)"/><path d="M36.96 27.55c-.48.33-1 .45-1.6.45-1.3 0-2.36-.79-2.36-2.32 0-1.35.97-2.15 2.08-2.39-.72 0-1.6-.12-1.6-1.14 0-.7.51-1.15 1.12-1.15h1.7c1.38 0 2.73.6 2.73 2.35v3.28c0 .77-.44 1.37-1.16 1.37-.35 0-.7-.14-.9-.45Zm-.27-2.46-.34.02c-.8.05-.99.07-.99.48 0 .3.18.36.58.36.4 0 .75-.22.75-.52v-.34Z"/><path d="M36.66 23.52h.33v-.25c0-.3-.34-.34-.64-.34H34.6c-.45 0-.8-.27-.8-.78 0-.52.35-.78.8-.78h1.7c1.37 0 2.4.45 2.4 1.98v3.28c0 .65-.3 1-.83 1s-.71-.34-.78-.64a2.3 2.3 0 0 1-1.73.64c-1.35 0-2.03-.7-2.03-1.95 0-1.98 1.95-2.16 3.33-2.16Zm.33 1.9v-.65c-.87.03-1.95.1-1.95.82 0 .42.36.56.75.56.41 0 1.2-.16 1.2-.72Z" fill="url(#f4443bfao)"/><path d="M31.75 25.41h-2.54l.1.05c.59.18 1.4.13 2 .13.46 0 .87 0 1.17.2.34.23.47.58.47.98 0 .58-.43.94-.96 1.09-.48.13-1.1.14-1.7.14-2.32 0-4.29-.98-4.29-3.5 0-1.98 1.5-3.5 3.52-3.5 1.83 0 3.48 1.16 3.48 3.06 0 .83-.36 1.34-1.25 1.35Zm-2.19-2.35c-.41 0-.54.24-.7.55h1.37c-.15-.4-.25-.55-.67-.55Z"/><path d="M28.58 23.85h1.96c0-.6-.27-1.07-.98-1.07-.7 0-.98.46-.98 1.07Zm3.17 1.2h-3.17c.05.88 1.04.85 1.7.85h1.03c.88 0 1.27.23 1.27.87 0 .8-1.08.86-2.3.86-2.2 0-3.9-.67-3.9-3.13a3 3 0 0 1 3.14-3.13c2.04 0 3.1 1.25 3.1 2.7 0 .72-.14.97-.87.98Z" fill="url(#g4443bfao)"/><path d="M21 26.53V22.3c0-.78.62-1.29 1.4-1.29.36 0 .7.14.92.4.31-.27.72-.4 1.14-.4.83 0 1.54.47 1.54 1.31 0 .82-.6 1.13-1.37 1.2-.43.05-.81.13-.81.62v2.4c0 .79-.55 1.47-1.41 1.47-.87 0-1.41-.68-1.41-1.47Z"/><path d="M21.38 26.53V22.3c0-.65.47-.93 1.03-.93.4 0 .77.25.79.78h.02c.28-.5.65-.78 1.24-.78.68 0 1.16.3 1.16.95 0 1.52-2.18.15-2.18 1.82v2.4c0 .62-.36 1.1-1.03 1.1s-1.03-.48-1.03-1.1Z" fill="url(#h4443bfao)"/><path fill-rule="evenodd" d="M12 26.74v-6.22c0-1.2 1.07-1.52 2.14-1.52 3.17 0 5.86 1.9 5.86 5.1 0 2.28-1.74 3.86-4.1 3.86h-2.3c-.79 0-1.6-.37-1.6-1.22Zm2.78-1.3v-3.91c1.25.17 2.34.9 2.34 2.4 0 1.4-.91 1.52-1.63 1.52h-.71Z"/><path d="M12.38 26.74v-6.22c0-.86.55-1.16 1.76-1.16 3.33 0 5.48 1.84 5.48 4.73 0 2.23-1.54 3.51-3.73 3.51H13.6c-.87 0-1.22-.38-1.22-.86Zm2.1-5.54v4.56h1.01c.72 0 1.9-.1 1.9-1.84 0-1.64-1.26-2.7-2.91-2.72Z" fill="url(#i4443bfao)"/><path d="M8 26.5v-6c0-.8.57-1.5 1.5-1.5s1.5.7 1.5 1.5v6c0 .8-.57 1.5-1.5 1.5S8 27.3 8 26.5Z"/><path d="M8.4 26.5v-6c0-.65.38-1.14 1.1-1.14.72 0 1.1.49 1.1 1.13v6.02c0 .64-.38 1.13-1.1 1.13-.72 0-1.1-.49-1.1-1.13Z" fill="url(#j4443bfao)"/><defs><linearGradient id="a4443bfao" x1="36" y1="33.36" x2="36" y2="39.64" gradientUnits="userSpaceOnUse"><stop stop-color="#A5A29D"/><stop offset=".66" stop-color="#848279"/><stop offset="1" stop-color="#98958C"/></linearGradient><linearGradient id="b4443bfao" x1="28.5" y1="31.35" x2="28.5" y2="39.65" gradientUnits="userSpaceOnUse"><stop stop-color="#A5A29D"/><stop offset=".66" stop-color="#848279"/><stop offset="1" stop-color="#98958C"/></linearGradient><linearGradient id="c4443bfao" x1="24.5" y1="31.34" x2="24.5" y2="39.66" gradientUnits="userSpaceOnUse"><stop stop-color="#A5A29D"/><stop offset=".66" stop-color="#848279"/><stop offset="1" stop-color="#98958C"/></linearGradient><linearGradient id="d4443bfao" x1="19" y1="31.36" x2="19" y2="39.64" gradientUnits="userSpaceOnUse"><stop stop-color="#A5A29D"/><stop offset=".66" stop-color="#848279"/><stop offset="1" stop-color="#98958C"/></linearGradient><linearGradient id="e4443bfao" x1="45" y1="21.36" x2="45" y2="27.64" gradientUnits="userSpaceOnUse"><stop stop-color="#A5A29D"/><stop offset=".66" stop-color="#848279"/><stop offset="1" stop-color="#98958C"/></linearGradient><linearGradient id="f4443bfao" x1="36.02" y1="21.37" x2="36.02" y2="27.63" gradientUnits="userSpaceOnUse"><stop stop-color="#A5A29D"/><stop offset=".66" stop-color="#848279"/><stop offset="1" stop-color="#98958C"/></linearGradient><linearGradient id="g4443bfao" x1="29.5" y1="21.37" x2="29.5" y2="27.63" gradientUnits="userSpaceOnUse"><stop stop-color="#A5A29D"/><stop offset=".66" stop-color="#848279"/><stop offset="1" stop-color="#98958C"/></linearGradient><linearGradient id="h4443bfao" x1="23.5" y1="21.36" x2="23.5" y2="27.64" gradientUnits="userSpaceOnUse"><stop stop-color="#A5A29D"/><stop offset=".66" stop-color="#848279"/><stop offset="1" stop-color="#98958C"/></linearGradient><linearGradient id="i4443bfao" x1="16" y1="19.36" x2="16" y2="27.6" gradientUnits="userSpaceOnUse"><stop stop-color="#A5A29D"/><stop offset=".66" stop-color="#848279"/><stop offset="1" stop-color="#98958C"/></linearGradient><linearGradient id="j4443bfao" x1="9.5" y1="19.36" x2="9.5" y2="27.64" gradientUnits="userSpaceOnUse"><stop stop-color="#A5A29D"/><stop offset=".66" stop-color="#848279"/><stop offset="1" stop-color="#98958C"/></linearGradient></defs></svg>