<!-- by TradingView --><svg width="56" height="56" viewBox="0 0 56 56" xmlns="http://www.w3.org/2000/svg"><path fill="#F0F3FA" d="M0 0h56v56H0z"/><path d="M39.92 32.14c.26-.2.51-.39.75-.6a5.75 5.75 0 0 0 1.68-2.5c.32-.94.38-1.9.12-2.86a4.22 4.22 0 0 0-1.58-2.31 5.5 5.5 0 0 0-3.95-1.07c-.9.08-1.77.34-2.56.8-.43.24-.84.55-1.23.86-.9.72-1.68 1.57-2.4 2.47l-.66.82c.21.22.4.44.61.64l1.48 1.37c.66.59 1.36 1.13 2.09 1.63.7.48 1.42.88 2.2 1.2a6.54 6.54 0 0 0 5.84-.46 5.98 5.98 0 0 0 2.5-3.06 6.57 6.57 0 0 0 .02-4.6 7.4 7.4 0 0 0-3.9-4.38.18.18 0 0 1-.1-.09l.37.08c1.08.22 2.04.72 2.89 1.43a8.46 8.46 0 0 1 2.83 5.14 7.85 7.85 0 0 1-2.13 6.6 8.45 8.45 0 0 1-4.03 2.37c-.91.24-1.84.31-2.78.26a12.15 12.15 0 0 1-4.66-1.4c-.72-.4-1.4-.85-2.07-1.34a33.4 33.4 0 0 1-3.52-3.11l-2.3-2.28c-.58-.55-1.16-1.1-1.76-1.63-.87-.76-1.8-1.46-2.8-2.04-.55-.3-1.1-.6-1.7-.8a6.57 6.57 0 0 0-4.55.13c-.97.4-1.79 1-2.44 1.82a6.3 6.3 0 0 0-1.36 3.28 7 7 0 0 0 .44 3.28 7.39 7.39 0 0 0 3.84 4.15l.1.05-.1.01a6.52 6.52 0 0 1-2.2-.8 7.52 7.52 0 0 1-2.32-2.13 8.38 8.38 0 0 1-1.58-5 8.02 8.02 0 0 1 2.82-5.89 8.45 8.45 0 0 1 5.74-2.06c1.28.02 2.5.3 3.68.76 1.03.4 1.98.94 2.9 1.55.85.59 1.66 1.25 2.43 1.94l1.28 1.2.09.08.5-.6c.76-.89 1.55-1.72 2.45-2.45a9.9 9.9 0 0 1 4.5-2.19 8.77 8.77 0 0 1 2.22-.15 7.33 7.33 0 0 1 4.36 1.75 6.08 6.08 0 0 1 2.07 3.93 5.7 5.7 0 0 1-1.63 4.7 5.61 5.61 0 0 1-2.36 1.47l-.13.03Z"/><path d="M16.05 23.88c-.3.26-.62.5-.9.77a5.63 5.63 0 0 0-1.38 2.02 5.06 5.06 0 0 0-.37 2.41c.1 1.12.58 2.06 1.4 2.81.78.7 1.69 1.1 2.7 1.28a6.4 6.4 0 0 0 4.1-.73 8.6 8.6 0 0 0 1.59-1.17c.41-.38.81-.77 1.2-1.18.3-.31.56-.65.84-.98l.11-.12 2.12 2.1-.27.3c-.55.56-1.08 1.13-1.65 1.66-.66.62-1.4 1.15-2.2 1.58-.91.49-1.89.83-2.92 1.01-.92.16-1.85.17-2.77.03a7.37 7.37 0 0 1-2.43-.84 6.38 6.38 0 0 1-2.17-1.9 6 6 0 0 1-.74-5.54 5.89 5.89 0 0 1 3.64-3.48l.1-.03Z"/></svg>