<!-- by TradingView --><svg width="56" height="56" viewBox="0 0 56 56" xmlns="http://www.w3.org/2000/svg"><path fill="#F0F3FA" d="M0 0h56v56H0z"/><path fill-rule="evenodd" d="M8.72 30h1.42v-.17h-.25c-.22 0-.36-.25-.28-.47l.48-1.16h1.67l.47 1.17c.09.22-.02.46-.24.46h-.28V30h1.79v-.17h-.43c-.1-.14-.29-.5-.4-.83l-1.5-4h-.15l-1.71 4.54a.42.42 0 0 1-.39.29h-.2V30Zm2.97-2-.75-1.89-.77 1.89h1.52ZM4 25.2V25h2.18c1.23 0 2.24 1.12 2.24 2.5 0 1.39-1 2.5-2.24 2.5H4v-.13h.36c.17 0 .3-.15.3-.34v-4c0-.17-.13-.32-.3-.32H4Zm1.98.12H5.2v4.43h.78c.99 0 1.78-.89 1.78-1.99v-.45c0-1.1-.8-1.99-1.78-1.99ZM19.04 30h-1.42v-.17h.2c.17 0 .32-.11.39-.29L19.92 25h.14l1.5 4c.13.32.3.69.4.83h.44v-.01h.33c.2 0 .27-.18.27-.4v-3.8c0-.25-.1-.46-.33-.46h-.27v-.13h1.95v.13h-.38c-.23 0-.42.2-.42.46v3.74c0 .15.1.27.24.27h1.31c.51 0 .84-.71.94-1.07h.15L25.71 30h-5.09v-.17h.28c.21 0 .32-.24.23-.46l-.46-1.17h-1.68l-.47 1.16c-.1.22.05.47.27.47h.25V30Zm.8-3.89L20.6 28h-1.52l.77-1.89Zm-6-.95v-.13h1.96v.13h-.38c-.23 0-.42.2-.42.46v3.74c0 .15.1.27.24.27h1.31c.51 0 .84-.71.94-1.07h.15L17.16 30h-3.31v-.18h.33c.2 0 .36-.18.36-.4v-3.8c0-.25-.2-.46-.42-.46h-.27Zm16.9-.16h-.17c0 .12-.07.36-.25.36-.08 0-.2-.06-.33-.14-.18-.1-.4-.22-.64-.22-.4 0-1.35.13-1.35 1.1 0 .99 1.16 1.62 1.95 2.03.8.41.72 1.59-.5 1.59-.96 0-1.27-.9-1.3-1.35H28V30h.15c.05-.46.28-.35.62-.2.21.09.47.2.74.2.7 0 1.49-.38 1.49-1.3 0-.93-1.22-1.55-1.9-1.86-.67-.32-.98-1.54.23-1.54.97 0 1.23.88 1.24 1.33h.17V25Zm5.16.18v-.16h2.16c.65 0 1.18.58 1.18 1.3 0 .71-.52 1.29-1.16 1.3l1.6 2.2h.49V30H39.1l-1.55-2.38H37v1.82c0 .22.1.4.3.4h.4V30h-1.8v-.17h.25c.16 0 .3-.14.3-.32v-4c0-.19-.14-.33-.3-.33h-.25Zm1.1.17v2.07h.67a1.04 1.04 0 0 0 0-2.07H37Zm3.38-.35h3.36v.99h-.17v-.21c0-.33-.24-.6-.54-.6h-1.48v2.1h1.14c.3 0 .53-.27.53-.6v-.23h.17v1.83h-.17v-.17c0-.33-.24-.6-.53-.6h-1.14v2.29h1.19c.43 0 .83-.26 1.03-.69l.21-.42h.18L43.74 30h-3.36v-.15h.28c.2 0 .34-.18.34-.4v-3.87c0-.22-.15-.4-.34-.4h-.28V25Zm7.36 0H44.4v.18h.28c.2 0 .33.18.33.4v3.87c0 .22-.14.4-.33.4h-.28V30h3.35l.42-1.3H48l-.2.41c-.22.43-.61.69-1.05.69h-1.18V27.5h1.14c.3 0 .53.27.53.6v.15h.17v-1.8h-.17v.23c0 .32-.24.59-.53.59h-1.14v-2.1h1.48c.3 0 .54.27.54.6v.2h.16V25Zm.44 1.15H48l.1-1.15h3.78l.12 1.15h-.18l-.13-.78h-1.4v4.15c0 .17.15.3.32.3h.42V30h-2.05v-.18h.38a.3.3 0 0 0 .32-.3v-4.15h-1.3l-.2.78Zm-16.85 0h.18l.2-.78H33v4.15a.3.3 0 0 1-.31.3h-.39V30h2.06v-.18h-.42a.3.3 0 0 1-.32-.3v-4.15h1.4l.13.78h.18L35.2 25h-3.77l-.11 1.15Z"/></svg>