<!-- by TradingView --><svg width="18" height="18" viewBox="0 0 18 18" xmlns="http://www.w3.org/2000/svg"><path fill="#F0F3FA" d="M0 0h18v18H0z"/><path d="M4.79 11.33V7.31h8.43v4.02l-4.23 2.33-4.2-2.33Z" fill="#91101C"/><path d="M4.98 7.47h8.04v3.77L9 13.5l-4.01-2.25V7.47Zm-.31-.3v4.25l4.32 2.42 4.34-2.42V7.16H4.67Z" fill="#91101C"/><path d="m9 4.3 4.67 1.38v5.88l-4.68 2.59-4.66-2.6V5.69L9 4.3Zm0-.33L4 5.46v6.27l5 2.77 5-2.77V5.46L9 3.97Z"/><path d="M13.33 9.76V5.81L9.01 4.46 4.67 5.81v3.95h8.66Z" fill="#FADB9C"/><path d="m4.67 6.57 1.41-.63.47.06 1.52-.33.4-.2 1.65.02.5.18 1.12.25 1.6.78v.46H4.66v-.59Z" fill="#F18F24"/><path d="M4.67 7.06v2.77l4.32 2.4 4.34-2.4V7.06H4.67Z" fill="#91101C"/><path d="M9.33 7.38v4.64l.39-.22V9.66L11 9.34V7.38H9.33Zm1.34 1.68-1 .22V7.71h1v1.35ZM11.67 7.7v1.08L13 8.46v.37l-1.33.32v1.01L13 9.44v.5l-1.28.72-.39.22v-3.5H13v.33h-1.33ZM7 7.22v3.82l.18.1.2.12h.03l.05.12.1-.02 1.1.62V7.35L7 7.22Zm.33 3.6V7.7h1v3.6l-1-.5ZM6.67 7.4v3.41l-.34-.22V9.15l-1-.22v1.18L5 9.86V7.38l.33-.06v1.23l1 .22V7.28l.34.11Z" fill="#fff"/><path d="M4.98 7.38h8.04v2.39L9 12 4.98 9.77V7.38Zm-.31-.22v2.78l4.32 2.42 4.34-2.42V7.16H4.67ZM7.33 6.57l.2-.48h.14v.65h-.13V6.3l-.16.43h-.1l-.16-.43v.43H7v-.65h.14l.2.48Zm.98-.48a.3.3 0 0 1 .27.16c.03.04.04.1.04.16s-.01.12-.04.17a.3.3 0 0 1-.27.16.3.3 0 0 1-.27-.16A.34.34 0 0 1 8 6.4c0-.06.01-.12.04-.16a.3.3 0 0 1 .27-.16Zm.81.4c0 .04.02.07.04.1.02.02.05.03.09.03.04 0 .07-.01.1-.03.01-.03.03-.06.03-.1v-.4h.12v.4c0 .05-.01.1-.03.13a.22.22 0 0 1-.1.09.29.29 0 0 1-.12.03.28.28 0 0 1-.13-.03.21.21 0 0 1-.09-.09A.27.27 0 0 1 9 6.5v-.4h.12v.4Zm1.28.04V6.1h.12v.65h-.12l-.28-.45v.45H10v-.65h.12l.28.44Zm.88-.34h-.16v.55H11v-.55h-.16v-.1h.44v.1Zm-2.97.01c-.04 0-.07.01-.1.03a.17.17 0 0 0-.06.07.25.25 0 0 0-.03.11c0 .04.01.08.03.11a.17.17 0 0 0 .16.1c.04 0 .07 0 .1-.02a.18.18 0 0 0 .06-.08.25.25 0 0 0 .03-.1c0-.05-.01-.09-.03-.12a.17.17 0 0 0-.06-.07.18.18 0 0 0-.1-.03Z" fill="#91101C"/><path d="M8.14 3.85v.86L9 4.42l.93.3-.03-.95-.9.27-.86-.2Z" fill="#fff"/><path d="M8.85 4.35h-.32v.96h.32v-.96ZM9.47 4.35h-.31v.96h.31v-.96Z"/><path d="M10.08 4.98H8.7v-.3h1.08v-.75L9 4.2l-.78-.27v.92h-.31V3.5L9 3.88l1.08-.38v1.48Z"/><path d="M9.33 12.44v.6l-.13.07v-.6l.13-.07ZM10.25 12.52l-.13.07-.28-.25v.41l-.13.07v-.6l.13-.07.28.26v-.42l.13-.07v.6ZM11.08 11.65a.07.07 0 0 0-.06-.03.2.2 0 0 0-.09.03.38.38 0 0 0-.17.19.3.3 0 0 0-.02.11c0 .04 0 .07.02.1l.07.02c.03 0 .07 0 .1-.03a.37.37 0 0 0 .12-.1.33.33 0 0 0 .06-.14l-.21.12v-.09l.34-.19v.1a.5.5 0 0 1-.06.15.68.68 0 0 1-.25.26.36.36 0 0 1-.16.05.14.14 0 0 1-.12-.04c-.03-.03-.04-.08-.04-.14 0-.05.01-.12.04-.18a.65.65 0 0 1 .28-.3.34.34 0 0 1 .18-.05c.06 0 .1.03.11.07l-.14.09ZM7.35 11.7v.6l-.12-.06v-.4l-.17.3-.1-.05-.17-.48V12l-.12-.07v-.6l.14.08.2.55.2-.33.14.08ZM7.87 12v.6l-.12-.07v-.6l.12.07ZM8.8 13.11l-.12-.07-.3-.57v.41l-.12-.07v-.6l.13.07.29.57v-.41l.12.07v.6Z" fill="#fff"/><path d="M11.6 11.62v-.15l1.37-.76v.15l-1.37.76ZM6.39 11.62v-.15l-1.37-.76v.15l1.37.76Z" fill="#D39FA4"/></svg>