<!-- by TradingView --><svg width="56" height="56" viewBox="0 0 56 56" xmlns="http://www.w3.org/2000/svg"><path fill="#F0F3FA" d="M0 0h56v56H0z"/><path d="m13 15 6 3.51V29l-6-3.51V15ZM35 21h4a1 1 0 0 1 1 1v7l-5-3.56V21ZM23 21h5v18.86c0 1.27-.7 2.43-1.82 2.98L24 44l-4-3.14v-1.43h.7c1.2 0 2.3-1 2.3-2.24V21Z" fill="#4193D4"/><path d="M37.54 15H13l6 14h3v-7.06c0-.55.45-.94 1-.94s1 .39 1 .94V44h13v-.76a3 3 0 0 1-3-3.04V21.76a.76.76 0 0 1 1.4-.42L39.96 29H43V18.45L37.54 15Z" fill="#4193D4" fill-opacity=".5"/></svg>