<!-- by TradingView --><svg width="18" height="18" viewBox="0 0 18 18" xmlns="http://www.w3.org/2000/svg"><path fill="#F0F3FA" d="M0 0h18v18H0z"/><path d="M14 12.53c0 .12-.05.23-.14.32-.1.09-.2.13-.34.13L4.5 13a.47.47 0 0 1-.34-.13.43.43 0 0 1-.14-.33L4 5.47c0-.12.05-.23.14-.32.1-.09.2-.13.34-.13L13.5 5c.13 0 .24.04.34.13.09.1.14.2.14.33l.01 7.07Z" fill="#618D39"/><path d="M12.43 5.26c.77.02 1.16.4 1.2 1.1.06 1.74.08 3.71.03 5.91 0 .06-.06.1-.18.1l-2.03-1.17c.54-.48.85-1.11.93-1.89l.05.05c.03.02.05.03.09.02.03-.02.04-.04.04-.07v-.2c0-.04.01-.08.03-.1.09-.14.15-.35.19-.64a.2.2 0 0 0-.01-.1l-.28-.78a.4.4 0 0 0-.14-.19l-.76-.54a.62.62 0 0 1-.3-.5 2 2 0 0 1 .1-.59 5.2 5.2 0 0 0 .06-.26c-.03-.04-.07-.05-.14-.02l-.6.03a.25.25 0 0 0-.22-.06.12.12 0 0 0-.1.09c-.16.75-.1 1.32.18 1.72.02.01.03.04.03.08-.4-.44-.9-.7-1.52-.75-1.04-.1-1.86.14-2.47.73a.53.53 0 0 1-.27.14l-.87.84a.27.27 0 0 0-.08.15l-.15.87a.27.27 0 0 1-.13.19c-.2.12-.42.2-.65.26-.1.05-.19.04-.23-.04L4.2 5.5c0-.14.08-.22.23-.22l7.99-.02Z" fill="#D5E4A5"/><path d="M11.95 12.72c.05-.03.07-.08.06-.16l.14.03c.02 0 .03 0 .04-.02l-.01-.04-.94-.78a.2.2 0 0 1-.08-.2l.01-.08c.01-.05.04-.09.1-.11.05-.02.1-.02.15.01.54.37.95.63 1.22.8.14.07.17.18.12.33-.02.05 0 .07.05.08.3.03.51.03.66 0 .04 0 .08-.03.1-.07a.1.1 0 0 0 0-.1c0-.04-.04-.05-.09-.03.12-.02.18-.05.18-.1.05-2.2.03-4.18-.04-5.91-.03-.71-.42-1.09-1.19-1.11l1.01-.02c.16 0 .23.07.24.21a329.07 329.07 0 0 1 .02 7.14c-.05.09-.16.14-.35.16a5.2 5.2 0 0 1-1.4-.03Z" fill="#B58971"/><path d="m10.72 5.42-.24 1.2c-.02.07 0 .1.07.12.1.03.2 0 .33-.1a.17.17 0 0 0 .06-.07l.12-.26c.17-.4.26-.7.25-.92.07-.03.11-.02.14.02v.04a5.2 5.2 0 0 1-.05.22 2 2 0 0 0-.11.6c.01.2.11.36.3.5.21.13.47.31.76.53a.4.4 0 0 1 .14.2l.28.78a.2.2 0 0 1 0 .1c-.03.28-.1.5-.18.62a.19.19 0 0 0-.03.1v.2c0 .04-.01.06-.04.08a.08.08 0 0 1-.09-.02l-.05-.05a.57.57 0 0 1-.1-.41v-.06l-.12-.58c.09-.02.16.01.23.1.06.06.08.13.06.22-.01.05 0 .08.06.09.07.01.1-.01.11-.08.03-.25-.06-.48-.28-.71-.05-.06-.3-.18-.74-.38a.27.27 0 0 0-.14-.02.8.8 0 0 1-.73-.29c-.03-.03-.08-.04-.16-.02-.28-.4-.34-.97-.17-1.72a.12.12 0 0 1 .1-.1c.07-.01.15 0 .22.07Z" fill="#896552"/><path d="M11.3 5.39c.02.21-.07.52-.24.92l-.12.26a.17.17 0 0 1-.06.08c-.12.08-.23.12-.33.1-.06-.02-.09-.06-.07-.12l.24-1.21.59-.03Z" fill="#B58971"/><path d="M10.6 7.25c.22.18.4.29.53.32.5.1.84.34 1.03.7l.12.57v.06c-.02.14.01.28.1.41-.08.78-.4 1.4-.93 1.9a1 1 0 0 1-.48-.13c-.4-.02-.82.11-1.26.37a1.9 1.9 0 0 1-.45.15.36.36 0 0 1-.18 0l-1.76-.48-1.3-1.3a.68.68 0 0 0 .38-.53c.02-.15 0-.38-.05-.69-.07-.37.07-.67.42-.92l.83-.54c.04-.02.06-.06.05-.11-.01-.05-.05-.07-.1-.05l-.94.25c.6-.59 1.43-.83 2.47-.73.62.06 1.12.3 1.52.75Z" fill="#E5F0C7"/><path d="m6.01 9.81-.48.36c-.19.12-.61.28-1.29.46a2.25 2.25 0 0 1-.01-.99c.04.08.12.09.23.04l-.05.12c-.02.02-.01.04 0 .06.03.02.05.02.07 0 .36-.17.69-.27.97-.32.2-.03.34.05.39.23 0 .04.04.06.08.03l.04-.01c.07-.03.09-.08.06-.15l-.36-.79a.26.26 0 0 1-.03-.13c.01-.06.08-.13.22-.2a.14.14 0 0 0 .07-.14v-.34a.4.4 0 0 1 .18-.34c.21-.15.3-.26.24-.33a.53.53 0 0 0 .27-.14l.93-.25c.06-.02.1 0 .1.04l.01.01c.01.05 0 .09-.05.11l-.83.54c-.35.25-.5.55-.42.92.05.31.07.54.05.7A.68.68 0 0 1 6 9.8ZM12.16 8.26c-.19-.35-.53-.58-1.03-.7-.13-.02-.3-.13-.53-.31 0-.04-.01-.07-.03-.08.08-.02.13-.01.16.02.2.22.44.32.73.29.05 0 .1 0 .14.02.44.2.69.32.74.38.22.23.31.46.28.71 0 .07-.04.1-.1.08h-.01c-.05-.01-.07-.04-.06-.1a.25.25 0 0 0-.06-.22c-.07-.08-.14-.1-.23-.09Z" fill="#B58971"/><path d="M6.34 7.37c.05.07-.03.18-.24.33a.4.4 0 0 0-.18.34v.34c0 .06-.02.1-.07.13-.14.08-.2.15-.22.21 0 .05 0 .1.03.13l.36.79c.03.07 0 .12-.06.15l-.04.01c-.04.03-.07.01-.08-.03-.05-.18-.18-.26-.39-.23-.28.05-.6.15-.97.33-.02.01-.04 0-.06-.01-.02-.02-.03-.04-.01-.06l.05-.12c.23-.05.45-.14.65-.26a.27.27 0 0 0 .13-.2l.15-.86c0-.06.03-.11.08-.15l.87-.84Z" fill="#896552"/><path d="M8.95 8.52H7.5l-.04-.02c-.04-.02-.04-.05-.01-.08.21-.25.46-.43.75-.54.05-.02.05-.05 0-.08-.15-.12-.17-.23-.06-.31.16-.12.37-.14.62-.06.22.06.4.17.56.32.07.07.07.14 0 .2-.14.12-.18.24-.13.39.03.06 0 .1-.05.14a.37.37 0 0 1-.2.04ZM10.5 8.7c-.34-.13-.6-.21-.8-.24-.07-.01-.14.01-.22.07h-.17l.1-.02c.07-.01.1-.05.09-.12v-.02c-.02-.06.01-.11.07-.15a.94.94 0 0 1 .97.03.2.2 0 0 1 .09.1c.26.57.21.69-.13.35Z" fill="#8BAE4B"/><path d="M10.5 8.7c.18.54.09 1.07-.29 1.6l-.86-.3c-.05-.02-.08-.06-.07-.1v-.12c.02-.1.01-.22-.03-.34-.1-.33-.02-.63.23-.9.08-.07.15-.1.23-.08.18.03.45.1.79.24ZM7.5 8.52h1.45l.1.34.05 1.06c0 .04-.01.07-.06.09l-1 .4a3.62 3.62 0 0 1-.54-1.89Z" fill="#FBFDE7"/><path d="m9.3 8.52.18.01c-.25.28-.33.58-.23.9.04.13.05.25.04.35l-.01.11c0 .05.02.09.07.1l.86.31c.13.08.2.17.2.27.01.09-.03.14-.13.17a3.88 3.88 0 0 1-2.23-.06c-.1-.08-.1-.17 0-.26l1-.41c.04-.02.06-.05.05-.1l-.06-1.05c.03-.13.12-.24.27-.34Z" fill="#423F39"/><path d="m6.01 9.81 1.31 1.31c.25.28.5.5.74.66.15.1.28.18.4.22l1.06.25c.08.02.16.01.24 0 .38-.1.77-.2 1.16-.27.23-.06.6.14 1.1.58 0 .08-.02.13-.07.16-2.22.03-4.45.03-6.67.01-.37 0-.61-.04-.73-.13-.2-.12-.29-.34-.3-.64v-1.33c.67-.18 1.1-.34 1.28-.46L6 9.8Z" fill="#D5E4A5"/><path d="M10.97 11.08c-.52.34-1.07.6-1.65.8-.1.03-.25.04-.43.05-.15 0-.3.03-.43.07a1.97 1.97 0 0 1-.4-.22 4.49 4.49 0 0 1-.74-.66l1.76.47c.06.02.12.02.18 0 .23-.05.38-.1.45-.14.44-.26.86-.38 1.26-.37Z" fill="#B58971"/><path d="M10.97 11.08c.2.09.35.13.48.12l2.03 1.18c.05-.02.08-.01.1.02a.1.1 0 0 1-.01.11.15.15 0 0 1-.1.07c-.15.03-.37.03-.66 0-.05 0-.07-.03-.05-.08.05-.15.02-.26-.12-.34-.27-.16-.68-.42-1.22-.79a.15.15 0 0 0-.15-.01.14.14 0 0 0-.1.11l-.01.08a.2.2 0 0 0 .08.2l.94.78v.04c0 .01-.01.02-.03.02a.44.44 0 0 1-.14-.03c-.5-.44-.86-.64-1.1-.58l-1.15.26a.48.48 0 0 1-.24 0L8.46 12c.13-.04.28-.07.43-.07.18 0 .33-.02.43-.06a6.73 6.73 0 0 0 1.65-.8Z" fill="#896552"/></svg>