<!-- by TradingView --><svg width="56" height="56" viewBox="0 0 56 56" xmlns="http://www.w3.org/2000/svg"><path fill="#F0F3FA" d="M0 0h56v56H0z"/><path d="M30 40.76c3.5-.5 6.33-2.4 8.33-5.14l2.83 1.54A15.57 15.57 0 0 1 30 44v-3.24Z" fill="#005E94"/><path d="M14.84 37.16A15.57 15.57 0 0 0 26 44v-3.24c-3.5-.5-6.33-2.4-8.33-5.14l-2.83 1.54Z" fill="#075E94"/><path d="M40 23.51a12.93 12.93 0 0 1 .03 8.92l2.83 1.54a16.14 16.14 0 0 0-.02-12l-2.83 1.54ZM12 28c0-2.13.41-4.16 1.16-6.03l2.83 1.54a12.93 12.93 0 0 0-.02 8.92l-2.83 1.54A16.15 16.15 0 0 1 12 28Z" fill="#269CC4"/><path d="M26 12c-4.69.53-8.56 3.1-11.13 6.8l2.84 1.53c2-2.7 4.82-4.6 8.29-5.09V12ZM41.13 18.8A15.57 15.57 0 0 0 30 12v3.24c3.47.5 6.3 2.38 8.3 5.1l2.83-1.55Z" fill="#A8D6E6"/><path d="M29.38 30.08a22.86 22.86 0 0 0 5.58-3.6 10.9 10.9 0 0 0-2.76-4.75 17 17 0 0 1-4.85 3.55l2.03 4.8Z" fill="#269CC4"/><path d="m26.45 25.69 2.03 4.78a22.75 22.75 0 0 1-6.66 1.58c-.89-1.5-1.43-3.22-1.52-5.07 2.18-.05 4.25-.5 6.15-1.3ZM31.37 34.78a29.2 29.2 0 0 0 3.4-1.82 10.9 10.9 0 0 0 .44-5.4A23.84 23.84 0 0 1 29.77 31l1.6 3.8Z" fill="#41B548"/><path d="M26.96 24.38c1.7-.84 3.23-1.96 4.52-3.32a10.88 10.88 0 0 0-4.28-2.21c-.62.51-1.3.95-2.03 1.3l1.8 4.23ZM24.27 20.55l1.8 4.23A15.95 15.95 0 0 1 20.3 26c.07-1.75.56-3.4 1.37-4.84.9-.1 1.78-.3 2.6-.61Z" fill="#269CC4"/><path d="M19.92 32.13c-.73 0-1.45-.04-2.16-.1a10.97 10.97 0 0 1-.69-5.28c.73.12 1.49.2 2.25.23.08 1.85.58 3.6 1.41 5.13l-.81.02Z" fill="#41B548"/><path d="M19.32 26c-.71-.03-1.41-.1-2.1-.22.36-1.73 1.12-3.3 2.18-4.64.37.05.75.07 1.13.07A11.83 11.83 0 0 0 19.32 26ZM28.86 31.38l1.61 3.8c-1.2.5-2.45.91-3.74 1.25a10.95 10.95 0 0 1-4.29-3.45c2.25-.24 4.4-.79 6.42-1.6ZM25.26 36.77c-1.05.22-2.12.38-3.21.48a11.05 11.05 0 0 1-3.82-4.2 24.18 24.18 0 0 0 3.08.02 11.96 11.96 0 0 0 3.95 3.7Z" fill="#269CC4"/><path d="M32.3 36.99c.72-.74 1.33-1.58 1.8-2.5-.76.44-1.54.83-2.34 1.2l.55 1.3Z" fill="#41B548"/><path d="m30.86 36.08.55 1.3a11.51 11.51 0 0 1-3.1-.38c.87-.27 1.72-.58 2.55-.92ZM28 39c.68 0 1.34-.06 1.99-.18.24-.14.48-.3.72-.47-1.43-.05-2.8-.37-4.06-.89-1 .26-2.04.46-3.1.6 1.37.6 2.87.94 4.45.94ZM24.79 19.25c.39-.2.76-.41 1.12-.66a11 11 0 0 0-1.44-.1l.32.76ZM23.5 18.73l.39.91c-.5.18-1 .33-1.53.43.35-.48.73-.92 1.14-1.34ZM27.7 17a11 11 0 0 0-2.51.36c-.08.05-.17.1-.25.17.69.02 1.35.1 2 .25.27-.25.52-.5.76-.78ZM20.6 20.23h-.38c.54-.55 1.14-1.04 1.78-1.46l.16-.03c-.4.46-.76.96-1.08 1.48l-.47.01ZM34.5 36.88a11.03 11.03 0 0 0 3.9-5.3c-.9.72-1.84 1.4-2.82 2.04a11.9 11.9 0 0 1-2.09 3.52c.34-.07.68-.16 1-.26ZM39 28c0-1.28-.22-2.5-.62-3.64-.71.87-1.49 1.7-2.32 2.46a11.94 11.94 0 0 1-.03 5.31c.98-.68 1.92-1.42 2.8-2.22.11-.62.17-1.26.17-1.91Z" fill="#269CC4"/><path d="M37.96 23.31A11.04 11.04 0 0 0 34.32 19c-.44.7-.93 1.38-1.46 2.01a11.9 11.9 0 0 1 2.9 4.74c.8-.75 1.53-1.56 2.2-2.43ZM33.5 18.47a10.93 10.93 0 0 0-4.57-1.44c-.27.37-.56.72-.88 1.04 1.52.48 2.9 1.26 4.09 2.26.5-.58.95-1.2 1.36-1.86Z" fill="#41B548"/></svg>