<!-- by TradingView --><svg width="56" height="56" viewBox="0 0 56 56" xmlns="http://www.w3.org/2000/svg"><path fill="#F0F3FA" d="M0 0h56v56H0z"/><path d="M38.56 14a61.33 61.33 0 0 1-2.2 3.2l.01.03-.01.05-.43.53h-9.07c-1.18 0-2.07.06-2.7.17a10.12 10.12 0 0 0-8.05 7.56 9.98 9.98 0 0 0 .06 5.15C17.47 35.51 21.9 38 26.65 38h9.23c.03 0 .06 0 .09-.02a.12.12 0 0 0 .03-.08v-7.78c0-.08-.04-.12-.11-.12h-2.91c-.06 0-.07-.02-.04-.07l2.6-3.87c.02-.03.05-.06.09-.06h4.28c.02 0 .05.02.06.04.02.01.03.04.03.06v15.79a.1.1 0 0 1-.1.1L26.1 42a13.98 13.98 0 0 1-13.8-11.13 14.01 14.01 0 0 1 12-16.77c.56-.06 1.46-.1 2.7-.1h11.56Z" fill="#1A3966"/><path d="M28 33.01c-1.2.03-2.12.03-2.45 0a5.5 5.5 0 0 1-1.5-.38v-8.58a.03.03 0 0 1 .02-.02.03.03 0 0 1 .03 0l5.27 3.04c.04.02.07.02.1-.02l6.46-9.24.43-.53a.05.05 0 0 0 .01-.05v-.06c.74-1 1.47-2.05 2.18-3.16l1.38.02c.05 0 .07.02.07.06v4.52c0 .04-.01.08-.04.11l-9.33 13.35c-.04.06-.1.07-.15.04l-2.4-1.46c-.06-.04-.08-.02-.08.05V33Z" fill="#02748E"/><path d="M24.05 32.58a5.3 5.3 0 0 0 1.5.4c.33.03 1.1.03 2.3 0h2.37l.02.01.02.02a.06.06 0 0 1 0 .06l-2.57 3.85a.14.14 0 0 1-.11.07c-1.7.03-2.85.04-4.2-.4a8.54 8.54 0 0 1-3.7-2.5 9.31 9.31 0 0 1-1.3-10.25 8.75 8.75 0 0 1 5.39-4.55c.18-.06.56-.13 1.12-.2.38-.06.76-.09 1.13-.09a4056.66 4056.66 0 0 1 8 .02v.02l-2.58 3.87a.2.2 0 0 1-.17.1h-5.24c-3.33 0-5.6 3.33-4.54 6.64a4.84 4.84 0 0 0 2.56 2.93Z" fill="#1A3966"/><path d="M36.18 24.96v-.36l3.74-5.08.02-.02h.03l.02.02V24.96a.04.04 0 0 1 0 .03.05.05 0 0 1-.04.01H36.21a.05.05 0 0 1-.03-.03v-.01Z" fill="#02748E"/></svg>