<!-- by TradingView --><svg width="18" height="18" viewBox="0 0 18 18" xmlns="http://www.w3.org/2000/svg"><path fill="#F0F3FA" d="M0 0h18v18H0z"/><path d="M14.32 3 15 6.35a.03.03 0 0 1-.01.04h-.02l-.95.2a.04.04 0 0 1-.04-.01v-.01l-.3-1.5a.02.02 0 0 0-.03-.01l-.99 1.58a.05.05 0 0 1-.04.03h-1.19v-.02a.03.03 0 0 1 0-.02l1.33-2.16a.02.02 0 0 0 0-.02h-.01l-1.47.32a.04.04 0 0 1-.03-.01.04.04 0 0 1-.02-.03l-.19-.98v-.01a.04.04 0 0 1 .02-.03L14.3 3h.03Z" fill="#FD941E"/><path d="M5 14V6h5.46l.04.01.02.03.1.25v.01a.02.02 0 0 1-.01.02H5.34l-.01.01V13.67H12.67V7.55a.03.03 0 0 1 .02-.02l.3-.12H13V14h-.03L5 14Z" fill="#FD941E"/><path d="M8 13H7L7 12.96V7.01L7.03 7H11l.01.03v.96H8.03L8.02 8 8 8.02v1.35l.02.02.02.01h2.6l.01.01V10.35a.03.03 0 0 1 0 .02.02.02 0 0 1-.02.01h-2.6v.01l-.01.01-.02.01V13Z" fill="#552583"/></svg>