<!-- by TradingView --><svg width="18" height="18" viewBox="0 0 18 18" xmlns="http://www.w3.org/2000/svg"><path fill="#F0F3FA" d="M0 0h18v18H0z"/><path d="M5.7 9.96c-.67-.1-1.39-.33-2.03-.63-.55-.26-1.23-.61-1.57-1.26-.17-.33-.1-1 .08-1.34.18-.35.68-.73.68-.73-.15.4-.42.88-.34 1.33.29 1.57 2.4 1.9 3.44 2.23L6 10l-.3-.04ZM12.06 9.75 12 10l.49-.04A17.8 17.8 0 0 0 16 9l-.57.13s-2.13.57-3.37.62Z" fill="#A4D057"/><path d="M9 6a3 3 0 1 0 0 6 3 3 0 0 0 0-6Zm0 .52a2.5 2.5 0 1 1 0 4.99 2.5 2.5 0 0 1 0-5Z" fill="#A4D057"/><path d="M11.08 9.93c-.7 0-1.28.58-1.28 1.29v.1a2.4 2.4 0 0 0 1.45-1.38l-.17-.01ZM6.88 9.9h-.12a2.4 2.4 0 0 0 1.38 1.38v-.1c0-.7-.56-1.28-1.26-1.28ZM9.81 6.68v.2c0 .7.57 1.29 1.27 1.29l.21-.01a2.4 2.4 0 0 0-1.48-1.48ZM8.17 6.7c-.65.25-1.17.78-1.42 1.43l.14.01c.7 0 1.28-.58 1.28-1.29v-.14ZM8 9c0 .38-.3.67-.67.67A.66.66 0 0 1 6.67 9c0-.38.3-.67.66-.67.37 0 .67.3.67.67ZM11.33 9A.66.66 0 1 1 10 9c0-.38.3-.67.67-.67.36 0 .66.3.66.67ZM9.67 7.33c0 .38-.3.67-.67.67a.66.66 0 0 1-.67-.67c0-.37.3-.66.67-.66.36 0 .67.3.67.66ZM9.67 10.67c0 .37-.3.66-.67.66a.66.66 0 0 1-.67-.66c0-.38.3-.67.67-.67.36-.01.67.29.67.67ZM8.67 8.33c0 .19-.15.34-.34.34A.33.33 0 0 1 8 8.33a.33.33 0 0 1 .67 0ZM8.67 9.67c0 .18-.15.33-.34.33A.33.33 0 0 1 8 9.67c0-.19.15-.34.33-.34.19 0 .34.15.34.34ZM10 9.67a.33.33 0 0 1-.67 0c0-.19.15-.34.34-.34.18 0 .33.15.33.34ZM10 8.33c0 .19-.15.34-.33.34a.33.33 0 0 1-.34-.34c0-.18.15-.33.34-.33.18 0 .33.15.33.33Z" fill="#103C6A"/></svg>