<!-- by TradingView --><svg width="56" height="56" viewBox="0 0 56 56" xmlns="http://www.w3.org/2000/svg"><path fill="#F0F3FA" d="M0 0h56v56H0z"/><path d="m9.42 24.53.37 3.09S14.44 22 27.73 22H30s-14.31.96-19.87 8H8s.24-5.01 1.42-5.47ZM39.5 24l.35 1.15H41l-.93.7.36 1.15-.93-.71-.93.71.36-1.15-.93-.7h1.15L39.5 24ZM37 23l.23.77H38l-.62.47.24.76-.62-.47-.62.47.24-.76-.62-.48h.77L37 23ZM34.5 23l.12.38H35l-.31.24.12.38-.31-.24-.3.24.11-.38-.31-.24h.38l.12-.38ZM32.46 23l.11.34h.36l-.29.2.11.34-.29-.2-.28.2.1-.33-.28-.21h.36l.1-.34ZM30.46 23l.11.34h.36l-.29.2.11.34-.29-.2-.28.2.1-.33-.28-.21h.36l.1-.34Z" fill="#298CD7"/><path d="M9 23a5 5 0 1 1 0 10 5 5 0 0 1 0-10Zm-2.73 8.82s.69-.34 1.46-.04c.5.2.83.23 1.24.22C11 32 13 30.22 13 28.1c0-2.98-2.4-4.1-4.12-4.1-1.94 0-4.14 1.58-4.14 3.74 0 2.54 1.5 3.34 1.53 4.08ZM16 26l-1 .77V32h1v-6ZM40 27l-1 .85V32h1v-5ZM47 26l-1 .77V32h1v-6ZM18 28h-1v4h1v-4ZM18.71 28h.37c.5 0 .92.53.92 1.17V32h-1v-2.4c0-.39-.05-.6-.35-.6h-.22c-.24 0-.43.14-.43.44v-.54c0-.5.32-.9.71-.9ZM23.05 28c.9 0 1.66.57 1.94 1.35h-1.07c-.2-.3-.5-.52-.87-.52-.58 0-1.04.53-1.04 1.17 0 .64.46 1.16 1.04 1.16.37 0 .7-.21.88-.54H25A2.05 2.05 0 0 1 23.05 32c-1.13 0-2.05-.9-2.05-2s.92-2 2.05-2ZM26 28h1v.53c.2-.21.58-.55 1-.53v.88s-.68.16-1 .77V32h-1v-4ZM30 30v.03c0 .66.44 1.17.94 1.17.32 0 .6-.21.76-.53h1.19A2 2 0 1 1 31 28c1.1 0 1.98.9 2 2h-3Zm.12-.54h1.64c-.15-.4-.46-.66-.82-.66-.36 0-.67.27-.82.66ZM49 30v.03c0 .66.44 1.17.94 1.17.32 0 .6-.21.76-.53h1.19A2 2 0 1 1 50 28c1.1 0 1.98.9 2 2h-3Zm.12-.54h1.64c-.15-.4-.46-.66-.82-.66-.36 0-.67.27-.82.66ZM37 26.77l1-.77v6h-1v-.68c-.31.42-.77.68-1.29.68-.94 0-1.71-.9-1.71-2s.77-2 1.71-2c.52 0 .98.26 1.29.68v-1.9ZM37 30a1 1 0 1 0-2 0 1 1 0 0 0 2 0ZM42 26.77 41 26v6h1v-.68c.31.42.77.68 1.29.68.94 0 1.71-.9 1.71-2s-.77-2-1.71-2c-.52 0-.98.26-1.29.68v-1.9ZM42 30a1 1 0 1 1 2 0 1 1 0 0 1-2 0Z" fill="#184077"/></svg>