<!-- by TradingView --><svg xmlns="http://www.w3.org/2000/svg" width="18" height="18" viewBox="0 0 18 18"><path fill="#0E4D90" d="M0 0h18v18H0z"/><path fill-rule="evenodd" d="M9 14A5 5 0 1 0 9 4a5 5 0 0 0 0 10zm.47-.63a4.22 4.22 0 1 0 0-8.43 4.22 4.22 0 0 0 0 8.43zm-.16-.62a3.75 3.75 0 1 0 0-7.5 3.75 3.75 0 0 0 0 7.5zm.32-.47a3.12 3.12 0 1 0 0-6.25 3.12 3.12 0 0 0 0 6.25zM8.69 7a.31.31 0 0 0-.31.31V11h1.82a1.14 1.14 0 0 0 .54-2.15A1 1 0 0 0 10.22 7H8.69zm1.39.62H9v.92h1.08a.46.46 0 1 0 0-.92zm.07 1.69H9v1.07h1.15a.54.54 0 0 0 0-1.07z" fill="#fff"/></svg>