<!-- by TradingView --><svg width="56" height="56" viewBox="0 0 56 56" xmlns="http://www.w3.org/2000/svg"><path fill="#F0F3FA" d="M0 0h56v56H0z"/><path d="m20.18 17.51 7.72-7.47a.14.14 0 0 1 .2 0l7.72 7.48a.14.14 0 0 1 .04.1.14.14 0 0 1-.04.1l-7.73 7.48a.14.14 0 0 1-.2 0l-7.71-7.48a.14.14 0 0 1-.03-.16c0-.02.02-.04.03-.05Z" fill="#95C133"/><path d="m28.71 25.7 7.63-7.39a.2.2 0 0 1 .3 0l7.62 7.4a.2.2 0 0 1 0 .29l-7.63 7.4a.2.2 0 0 1-.29 0L28.71 26a.2.2 0 0 1 0-.3ZM19.67 18.31l7.6 7.38a.22.22 0 0 1 0 .32l-7.6 7.38a.22.22 0 0 1-.31 0l-7.6-7.38a.22.22 0 0 1 0-.32l7.6-7.38a.22.22 0 0 1 .31 0Z" fill="#3B7126"/><path d="m35.78 34.22-7.65 7.41a.19.19 0 0 1-.27 0l-7.64-7.41a.19.19 0 0 1-.04-.21.2.2 0 0 1 .04-.06l7.65-7.41a.19.19 0 0 1 .26 0l7.65 7.41a.19.19 0 0 1 0 .27Z" fill="#95C133"/><path d="M28 42.99h.02l.03-.02c5.13-4.96 10.24-9.93 15.34-14.89.03-.03.06-.03.1 0l1.5 1.45c.02.02.02.05 0 .07-3.95 3.8-9.54 9.24-16.79 16.31a.28.28 0 0 1-.2.09.28.28 0 0 1-.2-.09c-7.25-7.07-12.84-12.5-16.78-16.31-.03-.02-.03-.04 0-.06l1.5-1.46c.03-.03.06-.03.09 0a6969.91 6969.91 0 0 0 15.4 14.9Z" fill="#3B7126"/></svg>