<!-- by TradingView --><svg width="56" height="56" viewBox="0 0 56 56" xmlns="http://www.w3.org/2000/svg"><path fill="#F0F3FA" d="M0 0h56v56H0z"/><path fill-rule="evenodd" d="M5 20h1.5v14H5V20Zm4 0h2.4c.74 0 1.34.65 1.34 1.46 0 .47-.21.9-.54 1.16.48.32.8.9.8 1.56 0 1-.75 1.82-1.68 1.82H9v-6Zm.79.69h1.5c.47 0 .85.39.85.87s-.38.87-.84.87H9.79V20.7Zm0 2.42h1.61c.5 0 .9.5.9 1.1 0 .62-.4 1.12-.9 1.12H9.8v-2.22ZM15 20.5a.5.5 0 1 1-1 0 .5.5 0 0 1 1 0ZM14 22h.7v4H14v-4Zm-.5 8a.5.5 0 1 0 0-1 .5.5 0 0 0 0 1Zm.5 1h-.7v4h.7v-4Zm9-1.5a.5.5 0 1 1-1 0 .5.5 0 0 1 1 0ZM22 31h.7v4H22v-4Zm-5.5-10a.5.5 0 1 0 0-1 .5.5 0 0 0 0 1Zm-.27 1v3.76c0 .34-.36.62-.8.62h-.13V27h.37c.74 0 1.33-.46 1.33-1.04V22h-.77ZM22 24c0 1.61-.9 2-2 2s-2-.5-2-2 .9-2 2-2 2 .39 2 2Zm-.67 0c0 1.15-.6 1.43-1.33 1.43-.73 0-1.33-.36-1.33-1.43 0-1.07.6-1.43 1.33-1.43.73 0 1.33.28 1.33 1.43Zm1.43 2.43V27c0 .55.46 1 1.03 1h1.8c.57 0 1.11-.45 1.11-1v-5H26v3.09a1.4 1.4 0 0 1-.88.32h-.9c-.29 0-.51-.21-.51-.48V22H23v3.05c0 .53.46.95 1.02.95h1.05c.21 0 .6-.06.93-.23v1.2c0 .14-.17.25-.31.25h-1.96a.25.25 0 0 1-.25-.25v-.54h-.72ZM31.7 20H31v6h.69v-2.62H35V26h.7v-6H35v2.7h-3.31V20ZM37 23.02l.5.3c.18-.3.49-.76 1.42-.76.93 0 1.1.56 1.08.83v.03h-1.87c-.34.04-1.03.36-1.03 1.34-.01.41.24 1.23 1.31 1.23.73 0 1.26-.23 1.59-.46V26h.66v-2.98c-.02-.34-.41-1.02-1.74-1.02-1.06 0-1.72.68-1.92 1.02Zm3 1.7V24h-1.67c-.46 0-.56.52-.55.76 0 .24.18.7.85.7.6 0 1.1-.44 1.37-.75ZM42 22h.7v.25c.33-.19.74-.25.96-.25h1.05c.56 0 1.02.42 1.02.95V26h-.7v-2.93c0-.27-.23-.48-.51-.48h-.91c-.38 0-.69.16-.91.35V26H42v-4Zm5.9 3H47v.29c0 .39.37.71.83.71h2.34c.46 0 .83-.32.83-.71v-.85c0-.4-.37-.71-.83-.71h-2.14c-.15 0-.27-.1-.27-.24v-.67c0-.13.12-.24.27-.24h1.8c.15 0 .27.1.27.24v.31h.75v-.42c0-.39-.37-.71-.82-.71h-2.2c-.46 0-.83.32-.83.71v.94c0 .4.37.72.83.72h2.22c.16 0 .28.1.28.24v.6c0 .13-.12.23-.28.23h-1.87c-.16 0-.28-.1-.28-.24V25ZM25 33.56V31.5h1V31h-1v-1h-.71v1h-.79v.5h.79v2.3c0 .66.6 1.2 1.34 1.2H26v-.72h-.13c-.45 0-.87-.32-.87-.72ZM9.7 29H9v6H12.35v-.7H9.7V29Zm6 2H15v4h.7v-2.79c.15-.34.44-.72.95-.72.7 0 .9.49.9.73V35h.65v-2.85c.16-.32.45-.65.92-.65.7 0 .87.49.88.73V35h.67v-2.85c0-.36-.29-1.14-1.31-1.14-.67 0-1.12.33-1.33.58-.18-.3-.53-.58-1.14-.58-.55 0-.95.22-1.19.43V31Zm12.07 2.16H31v-.98c0-.65-.6-1.18-1.35-1.18h-1.3c-.75 0-1.35.53-1.35 1.18v1.64c0 .65.6 1.18 1.35 1.18h1.3c.75 0 1.35-.53 1.35-1.18v-.14h-.64v.23c0 .26-.24.47-.54.47h-1.51c-.3 0-.54-.21-.54-.47v-.75Zm1.01-1.68a1 1 0 0 0-1.01.99v.13h2.6v-.13a1 1 0 0 0-1.02-1h-.57ZM35.3 29h.7v6h-.7v-.32c-.3.24-.75.31-1 .32h-1c-.72 0-1.3-.55-1.3-1.23v-1.54c0-.68.58-1.23 1.3-1.23h2v-2Zm0 2.63v2.32c-.22.2-.53.41-.9.41h-1.05a.5.5 0 0 1-.52-.49v-1.75c0-.27.23-.5.52-.5h1.95Z" fill="#FF8400"/></svg>