<!-- by TradingView --><svg width="56" height="56" viewBox="0 0 56 56" xmlns="http://www.w3.org/2000/svg"><path fill="#1AC3CA" d="M0 0h56v56H0z"/><path fill="#fff" d="M13 13h30v30H13z"/><path fill-rule="evenodd" d="M42 14H14v28h28V14Zm-29-1v30h30V13H13Z"/><path fill-rule="evenodd" d="M39 17H29v10h10V17Zm-11-1v12h12V16H28Z"/><path fill-rule="evenodd" d="M33 24h-8v8h8v-8Zm-9-1v10h10V23H24Z"/><path fill-rule="evenodd" d="M26 30h-6v6h6v-6Zm-7-1v8h8v-8h-8Z"/><path fill="#06A44D" d="M17 34h4v5h-4z"/></svg>