<!-- by TradingView --><svg width="18" height="18" viewBox="0 0 18 18" xmlns="http://www.w3.org/2000/svg"><path fill="#F0F3FA" d="M0 0h18v18H0z"/><path d="M15 9A6 6 0 1 1 3 9a6 6 0 0 1 12 0Z" fill="#78562A"/><path d="M10.32 3.37a.65.65 0 0 0 .01.36l-.25-.06a.03.03 0 0 0-.03.02l-.27.97a.04.04 0 0 0 .02.04c.07.03.13.04.18.04l-.07.28A4.37 4.37 0 0 0 8.21 5l-.1-.27c.05 0 .09-.01.1-.05a2.15 2.15 0 0 1 .05-.22h.02l.4-.05a.03.03 0 0 1 .03.02l.06.16a.08.08 0 0 0 .08.05l.17-.03a.02.02 0 0 0 0-.02l-.55-1-.08-.34c.65-.07 1.3-.03 1.93.12Z" fill="#DDBF6E"/><path d="m8.39 3.25.08.33-.19.04a.05.05 0 0 0-.04.04l-.27 1.06a.02.02 0 0 0 .02.02l.11-.01.12.27c-.38.08-.74.2-1.1.38l-.06-.34c.26.04.55-.15.44-.45a16.3 16.3 0 0 0-.28-.72c.05-.15.13-.3.24-.44.3-.09.61-.15.93-.18Z" fill="#E6CF87"/><path d="m13.24 5.07-.07.46-.19-.25a.04.04 0 0 0-.03-.01.04.04 0 0 0-.02 0l-.08.07-.01.01a.04.04 0 0 0 0 .03v.02l.16.2a.03.03 0 0 1 0 .02v.01l-.67.52a.03.03 0 0 0 0 .03.03.03 0 0 0 0 .02l.1.12a.03.03 0 0 0 .04 0l.65-.52a.03.03 0 0 1 .05.01l.08.1c-.03.28-.04.55-.02.81l-.36.18a.04.04 0 0 0-.02.05l.05.13a.04.04 0 0 0 .03.03.04.04 0 0 0 .03 0l.46-.24c-.07.54-.12 1.07-.15 1.61a9.8 9.8 0 0 0 .2 2.43l-.18.34a.03.03 0 0 0 0 .04l.11.07a.03.03 0 0 0 .04-.01.37.37 0 0 0 .08-.15l.01-.02a.05.05 0 0 1 .06-.01c.1.04.09.12.08.2a.3.3 0 0 1-.14.23c-.14.1-.36.02-.49-.1-.11-.1-.14-.22-.06-.36.05-.1.13-.15.22-.14a.04.04 0 0 0 .05-.03l.04-.15v-.02h-.01l-.01-.01a.36.36 0 0 0-.35.11c-.29.32-.21.75.2.91l.03.66-.73-.7-.03-.01h-.02l-.09.1a.04.04 0 0 0 0 .05l.47.46v.01l-.77-.17h-.03l-.02.01-.11.12-.01.02v.02l.74.7a.03.03 0 0 0 .05 0l.09-.09.01-.03-.01-.03-.47-.44v-.02h.01l.76.17h.03a.39.39 0 0 0 .1-.1l.06.45a5.78 5.78 0 0 1-3.05 1.68l-.03-.35.7-.2a.03.03 0 0 0 .02-.04l-.04-.1v-.02a.04.04 0 0 0-.03-.01h-.02l-.45.14a.03.03 0 0 1-.02 0h-.01v-.02a72.88 72.88 0 0 0-.25-.82.1.1 0 0 0-.05 0 .65.65 0 0 1-.03-.28 4.08 4.08 0 0 0-.01-7.95l.07-.28.11-.39a.04.04 0 0 1 .02-.02.04.04 0 0 1 .03 0c.11.03.16.1.2.21a8.25 8.25 0 0 0 .13.35l.22.06a1.46 1.46 0 0 0-.2-.54.01.01 0 0 1 .02 0c.18 0 .28-.09.32-.25.06-.3-.3-.37-.5-.43a.65.65 0 0 1-.01-.36c1.12.26 2.14.86 2.92 1.7ZM7.46 3.43c-.11.14-.19.29-.24.44l-.18.08-.01.01v.02a176.9 176.9 0 0 1 .28.74c.02.1-.1.16-.18.12-.04-.02-.06-.07-.08-.1a.02.02 0 0 0-.02 0l-.15.05a.04.04 0 0 0-.02.03v.02c.04.09.1.16.2.2l.07.34a4.14 4.14 0 0 0-1.9 2.05l.03-.68a.3.3 0 0 0 0-.08l-.08-.35.33.01a.09.09 0 0 0 .08-.03l.1-.15a.02.02 0 0 0 0-.02.02.02 0 0 0-.02-.02H5.3a.2.2 0 0 0-.07 0l-.08.03a.01.01 0 0 1-.02 0 .02.02 0 0 1 0-.02c.07-.17.04-.3-.11-.4-.17-.1-.34-.04-.49.21l.03-.62a5.78 5.78 0 0 1 2.9-1.88Z" fill="#F0DF9A"/><path d="M7.22 3.87c.1.24.2.48.28.72.11.3-.18.5-.44.45a.4.4 0 0 1-.2-.2.04.04 0 0 1 .01-.04l.01-.01.14-.06a.02.02 0 0 1 .03.01c.02.03.04.08.08.1.08.04.2-.02.18-.12a175.06 175.06 0 0 0-.27-.77l.18-.08Z" fill="#78562A"/><path d="m8.3 4.25.09-.35a.02.02 0 0 1 .02 0l.17.32a.02.02 0 0 1 0 .02h-.01l-.25.03a.02.02 0 0 1-.02-.01ZM10.2 3.92a.03.03 0 0 1 .05-.02l.25.07c.04.01.07.03.09.06.02.03.03.07.02.1v.02l-.03.04a.13.13 0 0 1-.04.04.16.16 0 0 1-.11.01l-.26-.07a.03.03 0 0 1-.02-.04l.06-.2Z" fill="#E6CF87"/><path d="M11.42 5.42a.5.5 0 0 1-.23-.34.6.6 0 0 1 .42-.68.51.51 0 0 1 .56.2c.04.06.07.12.08.2a.57.57 0 0 1-.08.42.59.59 0 0 1-.34.26.51.51 0 0 1-.4-.06Z" fill="#78562A"/><path d="M11.47 4.77c-.12.18-.1.4.05.48.14.1.35.03.46-.15.11-.17.1-.39-.05-.48-.14-.1-.35-.02-.46.15Z" fill="#F0DF9A"/><path d="M6.15 5.4a154 154 0 0 1-.17.14v.03l.07.17a.06.06 0 0 1-.02.06l-.12.1a.03.03 0 0 1-.04 0v-.01l-.32-1.05a.04.04 0 0 1 0-.03 1.02 1.02 0 0 1 .18-.13h.02l.94.55a.03.03 0 0 1 0 .05l-.12.1a.06.06 0 0 1-.07 0l-.15-.1a.05.05 0 0 0-.05 0l-.15.12Z" fill="#78562A"/><path d="M9.91 5.02A4.08 4.08 0 1 1 8.21 5c.57-.1 1.14-.08 1.7.03Z" fill="#7D5733"/><path d="m5.9 5.33-.1-.35a.01.01 0 0 1 0-.02.01.01 0 0 1 .02 0l.31.2a.01.01 0 0 1 0 .02l-.2.16a.01.01 0 0 1-.02 0Z" fill="#F0DF9A"/><path d="m13.24 5.07.15.16a5.78 5.78 0 0 1-.2 7.76l-.07-.44c.03-.03.04-.06.03-.08l-.03-.66c.3.11.51.03.66-.22a.7.7 0 0 0 .1-.46.12.12 0 0 0-.07-.1l-.28-.14h-.04a.04.04 0 0 0-.03.02 9.79 9.79 0 0 1-.19-2.43c.03-.54.08-1.07.15-1.61l.43-.21a.04.04 0 0 0 .02-.05l-.06-.14a.04.04 0 0 0-.02-.02.04.04 0 0 0-.04 0l-.52.27c-.02-.26-.01-.53.02-.8l.08.1a.04.04 0 0 0 .05 0l.08-.07h.01v-.02a.04.04 0 0 0 0-.03l-.3-.37.07-.46ZM4.55 5.31l-.03.62-.22.3a.05.05 0 0 0 0 .08l.06.04.03 4.56c-.24.16-.3.37-.2.64.05.13.15.21.29.25l-.07.71a5.78 5.78 0 0 1 .14-7.2ZM9 5.61l.02.01c.21.24.43.6.43.93 0 .32-.22.68-.43.92L9 7.48h-.02c-.2-.25-.43-.61-.42-.93 0-.32.21-.69.42-.93H9Z" fill="#DDBF6E"/><path d="M4.57 6.23a.03.03 0 0 1-.01-.04l.16-.22a.17.17 0 0 1 .04-.04.15.15 0 0 1 .05-.02h.05c.02 0 .03 0 .05.02l.01.01c.03.02.05.05.05.09 0 .03 0 .07-.03.1l-.16.22a.03.03 0 0 1-.03 0l-.18-.12Z" fill="#E6CF87"/><path d="m5.18 6.32.08.35a.3.3 0 0 1 0 .08l-.02.68a4.08 4.08 0 0 0 .34 3.78l-.04.46-.75.72a.04.04 0 0 0-.01.03.04.04 0 0 0 0 .03l.26.26-.07.44c-.2-.2-.4-.41-.56-.64l.07-.7h.18a.04.04 0 0 0 .03-.01.04.04 0 0 0 0-.03l-.01-.14a.04.04 0 0 0-.04-.04c-.13 0-.24 0-.3-.14-.09-.24.22-.41.4-.44.13-.03.23.02.29.14.04.1.03.18-.04.25a.06.06 0 0 0-.01.04c0 .02 0 .03.02.04l.08.08a.04.04 0 0 0 .03.02h.02l.02-.02c.1-.12.13-.25.08-.39-.13-.42-.48-.45-.84-.26l-.03-4.56.74.53a.05.05 0 0 0 .08-.02l.07-.1a.04.04 0 0 0 0-.04l-.01-.01-.32-.23a.02.02 0 0 1 0-.03c.06-.1.15-.15.26-.13Z" fill="#E6CF87"/><path d="m13.42 6.87-.46.24a.04.04 0 0 1-.06-.03l-.05-.13a.04.04 0 0 1 .02-.05l.36-.18.52-.27a.04.04 0 0 1 .04 0 .04.04 0 0 1 .02.02l.06.14v.03l-.02.02-.43.21Z" fill="#78562A"/><path d="M8.9 8a.02.02 0 0 1 0 .02.02.02 0 0 1-.02-.01c-.07-.1-.12-.19-.2-.26l-.48-.41c-.22-.18-.5-.52-.14-.74a.17.17 0 0 1 .12-.02.03.03 0 0 1 .02.04c-.07.08-.08.16-.03.25.13.24.3.37.55.62a.6.6 0 0 1 .19.51ZM9.08 8.01a.6.6 0 0 1 .2-.51c.25-.26.41-.39.55-.63.05-.09.04-.17-.03-.25a.03.03 0 0 1 0-.02.03.03 0 0 1 .02-.02c.04-.01.08 0 .12.02.37.22.08.56-.14.74l-.5.42a1.2 1.2 0 0 0-.2.27.02.02 0 0 1-.02-.02ZM9.99 8.66c-.16.27-.53.48-.83.59h-.02v-.02c-.07-.31-.08-.74.08-1.01.16-.28.53-.5.83-.6h.02v.02c.07.31.08.74-.08 1.02ZM8.01 8.66c-.16-.28-.15-.7-.08-1.01v-.02h.03c.3.1.66.3.82.59.16.28.15.7.09 1l-.01.02h-.02c-.3-.1-.67-.3-.83-.58Z" fill="#F0DF9A"/><path d="M5.91 8.58a.01.01 0 0 1 .02 0c.17.3.31.61.44.93.02.05.05.1.1.12.16.11.31.18.34.36a1714.08 1714.08 0 0 0 .03.33c-.25-.09-.4-.24-.44-.47a3.41 3.41 0 0 0-.26-.73l-.24-.53h.01Z" fill="#E6CF87"/><path d="m12.08 8.58.01.01a36 36 0 0 1-.24.52c-.08.19-.2.49-.25.74-.04.22-.18.38-.43.46a.01.01 0 0 1-.02 0v-.01l.05-.32c.02-.17.17-.24.33-.35a.27.27 0 0 0 .1-.13 7.3 7.3 0 0 1 .45-.92Z" fill="#F0DF9A"/><path d="m11.55 8.7-.36.72a.65.65 0 0 0-.07.47c.04.25-.04.43-.25.61h-.03v-.01a5.56 5.56 0 0 1-.05-.32c-.03-.23.15-.3.23-.48a7.1 7.1 0 0 1 .53-.99ZM6.48 8.72c.19.3.35.63.5.98.08.19.26.25.23.48a5.4 5.4 0 0 1-.07.33c-.21-.18-.3-.36-.26-.61a.65.65 0 0 0-.07-.47 31.58 31.58 0 0 0-.33-.71ZM8.01 9.98c-.16-.28-.15-.7-.08-1.01v-.02h.03c.3.1.66.31.82.6.16.27.15.7.09 1l-.01.02h-.02c-.3-.1-.67-.31-.83-.59ZM9.22 9.54c.16-.28.52-.49.83-.6l.01.01.02.02c.06.3.07.73-.09 1-.16.29-.53.5-.83.6h-.02v-.02c-.07-.3-.08-.73.08-1.01Z" fill="#F0DF9A"/><path d="M11.13 10.76h-.35a.02.02 0 0 1-.02 0 .02.02 0 0 1 0-.03.86.86 0 0 1 .28-.3c.12-.08.29-.09.44-.12l.06-.03c.21-.18.36-.37.45-.58a17.9 17.9 0 0 0 .28-.66.02.02 0 0 1 .02.02l-.24.63c-.11.27-.29.45-.55.72a.26.26 0 0 0-.03.04c-.08.13-.15.24-.3.3a.04.04 0 0 0-.01.04l-.03.06c-.08.07-.25.29-.4.35a.1.1 0 0 1-.04.01 1.24 1.24 0 0 1-.4-.07v-.02a.9.9 0 0 1 .38-.28h.07c.11 0 .3 0 .4-.04v-.03h-.01ZM5.73 9.05c.1.2.2.53.3.7.08.16.2.32.36.48.12.1.3.11.48.15l.03.01a.96.96 0 0 1 .35.35.01.01 0 0 1-.01.02h-.38c-.13.01-.25-.18-.33-.31a.44.44 0 0 0-.05-.07 2.16 2.16 0 0 1-.57-.81 10.62 10.62 0 0 0-.19-.52h.01ZM7.26 10.09a.02.02 0 0 1 .01-.02h.01l.27.3c.1.12.05.3.02.52a.02.02 0 0 1-.01.01h-.02c-.18-.13-.32-.29-.29-.53.01-.1.02-.19.01-.28Z" fill="#F0DF9A"/><path d="m10.73 10.1.01.28c.04.23-.1.39-.28.52a.02.02 0 0 1-.03-.01c-.03-.2-.08-.4.02-.5a5.92 5.92 0 0 0 .28-.3ZM7.65 10.51a.01.01 0 0 1 .02-.02l.3.28c.1.1.07.3.07.5a.02.02 0 0 1-.01.02H8c-.19-.11-.35-.25-.34-.5 0-.1 0-.19-.02-.28ZM10.34 10.51v.29c0 .23-.16.37-.34.49h-.02l-.01-.02c-.01-.2-.04-.4.07-.5a6 6 0 0 0 .3-.26ZM6.88 10.8c.1.06.24.03.37.03.04 0 .08.01.11.03a.94.94 0 0 1 .36.26.02.02 0 0 1-.02.03l-.24.06a.31.31 0 0 1-.3-.08 6.47 6.47 0 0 1-.3-.32v-.01h.02Z" fill="#F0DF9A"/><path d="m9.02 11.94-.04.01a8.86 8.86 0 0 1-.97.43.02.02 0 0 1 0-.02l.05-.08a.11.11 0 0 1 .05-.05l.78-.3a.04.04 0 0 0 .02-.04.04.04 0 0 0-.02-.03l-.17-.1a.13.13 0 0 0-.13 0c-.1.06-.22.12-.33.07a5.2 5.2 0 0 1-.27-.16l.29-.1.01-.01h.07a.01.01 0 0 0 0-.02.67.67 0 0 1-.2-.22V11.03a.02.02 0 0 1 0-.02h.02c.05.05.1.1.18.14.12.07.21.22.16.35a.07.07 0 0 0 .04.1 13.75 13.75 0 0 1 .47.25 13.75 13.75 0 0 1 .48-.3v-.05c-.05-.13.04-.28.17-.35a.84.84 0 0 0 .18-.14.02.02 0 0 1 .02.02V11.32a.67.67 0 0 1-.22.23.01.01 0 0 0 .01.02l.07-.01h.01l.29.11v.02l-.26.14c-.12.05-.24-.01-.34-.07a.13.13 0 0 0-.13 0l-.17.1a.04.04 0 0 0-.02.03l.01.02.02.02.77.3c.02 0 .04.02.05.05l.05.08a.02.02 0 0 1-.03.03 8.9 8.9 0 0 1-.97-.45Z" fill="#E6CF87"/><path d="M5.58 11.21c.53.8 1.24 1.35 2.15 1.66l-.02.28-.18-.05h-.01a.04.04 0 0 0-.03.02v.01l-.25.99a.03.03 0 0 0 0 .03h.02l.73.2.09.36a5.78 5.78 0 0 1-3.1-1.56l.06-.44.27.27a.04.04 0 0 0 .03.01h.02l.08-.1a.04.04 0 0 0 0-.05l-.39-.37a.02.02 0 0 1 0-.03l.18-.18h.02l.37.35h.03l.09-.09a.04.04 0 0 0 0-.05l-.34-.33a.02.02 0 0 1-.01-.02v-.01l.14-.14a.03.03 0 0 1 .03 0l.39.37.02.01h.02l.07-.08a.04.04 0 0 0 0-.06l-.52-.54.04-.46ZM7.33 11.25c.1.05.24 0 .38 0a.3.3 0 0 1 .1.01.95.95 0 0 1 .39.24.02.02 0 0 1 0 .01l-.02.01-.23.08a.31.31 0 0 1-.3-.05 6.72 6.72 0 0 1-.34-.3.02.02 0 0 1 .02 0ZM10.67 11.24h.01a.02.02 0 0 1 .02.03l-.34.28a.31.31 0 0 1-.3.05 3.53 3.53 0 0 1-.25-.1.02.02 0 0 1 0-.01c.12-.11.24-.19.38-.23a.3.3 0 0 1 .1-.01c.14 0 .28.04.38 0Z" fill="#F0DF9A"/><path d="m6.33 12.82-.39.67a.01.01 0 0 1-.01 0l-.16-.1v-.01l.53-.91h.01l.27.15a.01.01 0 0 1 0 .02l-.19.68a.01.01 0 0 0 0 .02h.02l.5-.51h.02l.26.15a.01.01 0 0 1 0 .02l-.53.91h-.01l-.15-.1v-.02l.38-.65a.01.01 0 0 0 0-.01h-.01l-.56.57h-.02l-.16-.1.22-.77a.01.01 0 0 0-.01-.02l-.01.01ZM11.15 12.78a.94.94 0 0 1 .09-.05h.03l.86.67a.03.03 0 0 1 .01.03.03.03 0 0 1 0 .02l-.14.08a.06.06 0 0 1-.07 0l-.14-.13a.04.04 0 0 0-.05 0 15.36 15.36 0 0 0-.35.2v.04l.05.17a.06.06 0 0 1-.03.07l-.14.08a.03.03 0 0 1-.02 0 .03.03 0 0 1-.02-.02l-.17-1.08v-.02l.01-.01.08-.05Z" fill="#78562A"/><path d="M9.92 12.97c-.01.1 0 .19.03.28l-.12.04-.01.02v.02l.28 1 .03.34c-.67.13-1.37.15-2.05.04l-.09-.37c.05-.02.07-.07.07-.15v-.02h-.02l-.52-.14A.04.04 0 0 1 7.5 14l.06-.22a.03.03 0 0 1 .01-.02.03.03 0 0 1 .03 0l.45.1a.04.04 0 0 0 .03 0h.01l.01-.02.03-.1v-.03l-.03-.01-.46-.12h-.01a.03.03 0 0 1-.01-.02v-.01l.04-.18a.03.03 0 0 1 .01-.02h.02l.51.12h.03l.01-.02.03-.1a.05.05 0 0 0-.04-.06l-.51-.13.02-.28a4.2 4.2 0 0 0 2.19.1Z" fill="#DDBF6E"/><path d="m11.35 13.4-.06-.37a.01.01 0 0 1 .01-.02l.3.24v.01a.01.01 0 0 1 0 .01l-.23.13h-.01Z" fill="#F0DF9A"/><path d="M9.54 14.36a.03.03 0 0 1 0 .03v.01h-.02l-.15.01a.1.1 0 0 1-.08-.04 19.8 19.8 0 0 1-.2-.27.27.27 0 0 0-.23-.12.05.05 0 0 0-.04.01.05.05 0 0 0-.01.04l.01.36a.04.04 0 0 1-.02.04h-.02l-.12.01a.05.05 0 0 1-.06-.05l-.04-1a.02.02 0 0 1 .03-.03l.54-.01c.19 0 .3.08.32.26.02.12-.04.26-.17.3a.21.21 0 0 0-.06.02.02.02 0 0 0 0 .02v.01c.13.11.24.25.32.4Z" fill="#78562A"/><path d="M8.78 13.57a.04.04 0 0 1 .04-.04h.28c.03-.01.07 0 .1.02a.1.1 0 0 1 .03.08v.05a.1.1 0 0 1-.03.08.15.15 0 0 1-.1.04l-.27.01a.04.04 0 0 1-.04-.04v-.2Z" fill="#DDBF6E"/></svg>