<!-- by TradingView --><svg width="56" height="56" viewBox="0 0 56 56" xmlns="http://www.w3.org/2000/svg"><path fill="#F0F3FA" d="M0 0h56v56H0z"/><path d="M16.5 14a15.8 15.8 0 0 1 10.76 7.8c.1.17.13.37.08.56a.78.78 0 0 1-.33.47l-.06.04a.71.71 0 0 1-.55.09.72.72 0 0 1-.45-.34 15.25 15.25 0 0 0-6.02-5.83c-4.07-2.23-8.51-1.61-8.3 3.94.07 2.03.77 4.02 2.11 5.98 1.08 1.57 2.59 2.33 4.64 3.64a1.23 1.23 0 0 1 .54.8 1.19 1.19 0 0 1-.23.95c-2 2.6-3.89 6.47-.45 8.85 2.63 1.83 6.12-.91 7.7-3.05a.75.75 0 0 1 .48-.29c.19-.03.39 0 .55.11l.06.04a.7.7 0 0 1 .31.45.68.68 0 0 1-.11.53c-1.65 2.34-3.62 3.71-5.9 4.13-1.8.33-3.27.02-4.44-.93-3.36-2.76-2.32-6.8.04-10.01a.5.5 0 0 0-.18-.74c-3.84-1.94-6.1-5.2-6.75-9.8v-2.14c.5-2.83 2.02-4.58 4.55-5.25h1.94ZM41.39 14c3.09.83 4.63 2.76 4.61 5.77-.03 5.28-2.38 9.13-7.04 11.56a.23.23 0 0 0-.12.16.22.22 0 0 0 .05.18c2.31 2.98 3.71 6.97.55 10A5.05 5.05 0 0 1 35.55 43c-2.74-.1-5.3-2.12-6.76-4.23a.72.72 0 0 1 .19-1.01l.03-.02a.78.78 0 0 1 1.05.16c1.8 2.32 5.75 5.49 8.54 2.35 2.44-2.74.21-5.93-1.44-8.5a.89.89 0 0 1 .27-1.23L41 28.2a11.73 11.73 0 0 0 3.29-6.3c.93-5.08-2.51-7.88-7.54-5.44a15.1 15.1 0 0 0-6.71 6.27.6.6 0 0 1-.53.3.61.61 0 0 1-.53-.29l-.24-.4a.43.43 0 0 1 0-.43A15.73 15.73 0 0 1 39.46 14h1.92Z" fill="#00395D"/><path d="M28.13 26.6a1.3 1.3 0 0 0 1.33-1.3c0-.7-.6-1.29-1.33-1.29a1.3 1.3 0 0 0-1.32 1.3c0 .71.6 1.29 1.32 1.29ZM22.87 31.74a1.3 1.3 0 0 0 1.31-1.28 1.3 1.3 0 0 0-1.31-1.3 1.3 1.3 0 0 0-1.32 1.3c0 .7.59 1.28 1.32 1.28ZM28.14 31.78c.74 0 1.33-.59 1.33-1.3 0-.72-.6-1.3-1.33-1.3-.73 0-1.33.58-1.33 1.3 0 .71.6 1.3 1.33 1.3ZM33.4 31.78c.74 0 1.34-.58 1.34-1.3 0-.73-.6-1.31-1.34-1.31-.74 0-1.33.58-1.33 1.3 0 .73.6 1.31 1.33 1.31ZM28.13 36.9a1.3 1.3 0 0 0 1.33-1.3c0-.71-.6-1.3-1.33-1.3a1.3 1.3 0 0 0-1.32 1.3c0 .71.6 1.3 1.32 1.3Z" fill="#E82427"/></svg>