<!-- by TradingView --><svg width="56" height="56" viewBox="0 0 56 56" xmlns="http://www.w3.org/2000/svg"><path fill="#F0F3FA" d="M0 0h56v56H0z"/><path fill-rule="evenodd" d="M30.9 31.68c9.81-7.46 16.47-15.15 14.86-17.18-1.6-2.04-10.85 2.36-20.66 9.82-9.81 7.46-16.47 15.15-14.86 17.18 1.6 2.04 10.85-2.36 20.66-9.82ZM30.4 31c8.44-6.43 14.24-12.96 12.94-14.6-1.3-1.64-9.19 2.24-17.63 8.66-8.45 6.42-14.24 12.95-12.95 14.6 1.3 1.63 9.2-2.24 17.64-8.66Z" fill="#E76517"/><path d="M33.33 18.74c-.15 1.24-1.07 1.84-2 2.54a4.82 4.82 0 0 0-4.86-2.19c-.62.13-1.06.4-1.3.8-3.22 5.41 8.67 9.48 8.06 15.97a6.32 6.32 0 0 1-5 5.53c-2.13.5-5.9.4-6.37-2.43a3.2 3.2 0 0 1-.01-.85l.7-1.67c.1-.1.22-.17.35-.21a4.98 4.98 0 0 0 3.64 2.5c1.38.08 2.4-.62 2.98-1.82 1.62-3.37-1.24-5.9-3.73-7.75-2.1-1.55-2.77-3.12-3.23-5.47-.27-1.35 0-2.88.8-4.58.95-2.02 2.81-3.46 5.16-3.3 1.99.15 3.42 1.68 4.8 2.93Z" fill="#F90E0E"/></svg>