<!-- by TradingView --><svg width="18" height="18" viewBox="0 0 18 18" xmlns="http://www.w3.org/2000/svg"><path fill="#F0F3FA" d="M0 0h18v18H0z"/><path d="M10.63 6c.8.1 1.4.31 1.82.65.52.43.8 1.08.82 1.94 0 .47-.15.92-.5 1.37-.27.37-.66.61-1.14.74-.33.08-.8.12-1.4.1-.04 0-.06.02-.06.06-.03.38.02.74.16 1.08.01.04 0 .06-.03.06H7.93c-.07 0-.1-.04-.09-.12l.13-.76c.1-.46.15-.82.17-1.07.1-1.2-.01-2.39-.32-3.54-.06-.23-.02-.4.1-.51h2.71Zm-.75 2.37v.44l.1 1.14c0 .05.02.07.06.06.35-.03.63-.2.83-.49a2 2 0 0 0 .32-1.04c.02-.43-.04-.8-.2-1.09a1.16 1.16 0 0 0-.77-.61c-.04-.01-.06 0-.07.05l-.22 1.12c-.03.14-.04.28-.05.42ZM4.93 6c.88.06 1.6.46 2.2 1.18.38.48.63 1.02.72 1.62a2.6 2.6 0 0 1-1.6 2.86c-.51.22-1.17.33-1.96.34-.54 0-1.3-.03-2.29-.1v-.03c.37-1.46.47-2.94.29-4.43a3.9 3.9 0 0 0-.14-.61 9.1 9.1 0 0 1-.15-.6V6h2.93ZM4.2 7.27a7.44 7.44 0 0 0 .03 3.25l.1.58c0 .05.02.07.07.05.9-.33 1.34-.99 1.31-1.97 0-.5-.14-.94-.39-1.34A1.5 1.5 0 0 0 4.3 7.1c-.03 0-.05.01-.06.05l-.03.13ZM15.87 6H13.3c.08.5.18 1.02.28 1.52a8.1 8.1 0 0 1-.24 4.42c0 .04 0 .06.04.06h2.56c.04 0 .06-.02.05-.07-.2-.87-.33-1.58-.4-2.11a7.93 7.93 0 0 1 .18-3c.05-.2.1-.42.13-.64 0-.04-.01-.18-.04-.18Z" fill="#0577B3"/></svg>