<!-- by TradingView --><svg width="56" height="56" viewBox="0 0 56 56" xmlns="http://www.w3.org/2000/svg"><path fill="#F0F3FA" d="M0 0h56v56H0z"/><path fill-rule="evenodd" d="M11.93 17A3.88 3.88 0 0 0 8 20.83v14.34A3.88 3.88 0 0 0 11.93 39h32.14A3.88 3.88 0 0 0 48 35.17V20.83A3.88 3.88 0 0 0 44.07 17H11.93Zm3.24 18.7c1.66 1.63 3.49-.12 4.01-1.07 1.36.47 2.82.05 3.67-.19l.24-.06c1.18 1.96 2.62 2.24 3.98 1.31 1.02-.7.82-1.98.55-2.6l-1.25-2.6 2.14-3.15 2.05 3.35c-.91 1.08-2.31 3.6-.59 5 1.73 1.4 3.38-.3 3.99-1.31 1.6.81 3.03.34 3.54 0 .62.84 2.16 2.63 3.73 1.6a2.21 2.21 0 0 0 .95-2.63l-1.75-3.21 2.43-3.8c1.26-1.93 2.4-4.48.82-5.85-1.58-1.37-3.03.13-3.45.9l-3.1 4.95c-1.13-.65-2.8-.27-3.5 0-.56-1.51-2.4-4.53-5.26-4.5-2.87.03-4.44 3.16-4.86 4.72-1.47-.91-3.59-.53-4.46-.22l-3.88-6.03c-.5-.76-1.78-1.11-2.92-.3-1.14.82-.82 2.27-.51 2.9l4.46 7.78c-1.11 1.07-2.73 3.32-1.03 5Zm7.63-2.1c-.93.52-3.12 1.13-4.39-.66a186.25 186.25 0 0 1-6.01-10.08c-.28-.56-.58-1.83.43-2.37 1-.55 1.93.3 2.27.79l7.7 12.31Zm-6.2-2.35 2.03 2.95c-.5.8-1.8 2.14-2.92 1.05-1.12-1.1.13-3.12.9-4Zm7.68-2.88c-1.47-2.04-3.78-1.64-4.75-1.19l4.28 7.02c.43.62 1.55 1.77 2.66 1.05.9-.58.66-1.78.44-2.3l-2.63-4.58ZM24.03 27c.57-1.57 2.25-4.7 4.35-4.6 2.28.09 3.83 2.83 4.72 4.4l.36.64c.63 1.03 2.71 4.53 3.67 6.15-.6.47-2.22 1.05-3.89-.36l-4-6.05c-.27-.46-1.02-1.12-1.8 0l-1.47 2.56L24.03 27Zm6.19 8c-.9-1.24.18-3.02.83-3.75l2.2 2.95c-.64.78-2.14 2.03-3.03.8Zm3.7-7.82c.8-.52 2.75-1.1 4.22.83l3.17 4.93c.32.54.7 1.8-.36 2.52-1.07.72-2.58-.94-3.2-1.87l-3.82-6.4Zm6.6-5.07-2.56 4.57 2.12 2.88c1.67-2.39 4.67-7.43 3.32-8.5-1.36-1.06-2.49.26-2.88 1.05Z" fill="#DA251D"/></svg>