<!-- by TradingView --><svg width="18" height="18" viewBox="0 0 18 18" xmlns="http://www.w3.org/2000/svg"><path fill="#F0F3FA" d="M0 0h18v18H0z"/><path d="m12.56 9.74.52.42h.6l.02.02v.03l-.06.16a.07.07 0 0 1-.07.04h-1.04c-.12 0-.2.01-.28.04a121.97 121.97 0 0 0-1.58.58h2.5l.03.01v.03l-.14.16a.13.13 0 0 1-.1.05h-2.94c-.05 0-.1 0-.14.02l-1.62.58v.01h3.82l.02.02-.01.02-.58.2-.02.01H7.63a.5.5 0 0 0-.17.03 333.4 333.4 0 0 1-1.58.59h2.7c.01 0 .02 0 .02.03v.18c0 .02 0 .03-.03.03H5.04C5 13 5 12.99 5 12.96v-.17c0-.02.01-.03.03-.03h.75c.01 0 .02 0 .02-.02l.1-.56c.01-.03 0-.04-.03-.04h-.83c-.02 0-.04-.01-.04-.04v-.17c0-.02.01-.04.04-.04h.88c.01 0 .02 0 .03.02v.03l-.01.11.01.02 6.53-2.35c.03 0 .05 0 .08.02Zm-.77-.64.21.17c.03.03.08.04.14.04a1221.3 1221.3 0 0 1 1.8 0l-.04.23h-1.5a.4.4 0 0 0-.14.03L6 11.83h-.02v-.03l.08-.5c0-.01 0-.02-.02-.02h-1c-.02 0-.04-.02-.04-.04v-.17c0-.03.02-.04.04-.04h1.02c.02 0 .03 0 .05.03.01.02.03.03.04.02l5.56-2c.03-.01.06 0 .08.02Zm2.2-.65.01.01v.22H11.32v.02l.23.2v.01l-5.4 1.94v-.01l.07-.42H5v-.24h1.22l.01-.01.05-.06 4.63-1.66H14ZM9.48 7.17l.42.36a.2.2 0 0 0 .13.06h3.79c.03 0 .05.01.05.04l.04.16c0 .02 0 .04-.04.04h-3.6l.5.4v.03c0 .01 0 .02-.02.02L6.34 9.87h-.02v-.02l.05-.28c0-.01 0-.02-.02-.02H5.04C5 9.55 5 9.54 5 9.52v-.18c0-.02.01-.03.04-.03h1.34c.03 0 .04-.02.05-.04l.01-.1c0-.02.02-.03.04-.04l3.69-1.33.01-.01v-.02l-.13-.1a.08.08 0 0 0-.1-.02L6.53 8.9H6.5v-.02l.02-.16-.01-.02H5.04C5 8.69 5 8.68 5 8.65v-.17c0-.02.01-.03.03-.03h1.52c.01 0 .02 0 .02-.02l.05-.24c0-.02.01-.03.03-.04l2.75-.99c.03-.01.05 0 .08.01Zm-.8-.64.22.17.07.02h4.47c.03 0 .06.02.08.05l.08.15v.03a990.92 990.92 0 0 0-4.3.01l-.22.08-.1.04a1265.2 1265.2 0 0 0-2.3.81v-.04c0-.02-.01-.02-.03-.02H5.03c-.02 0-.03-.01-.03-.04v-.17c0-.02.01-.03.04-.03H6.7l.01-.01.07-.37c0-.02.02-.03.04-.04l1.8-.65h.06Zm4.05-.67c.05 0 .09.02.12.05l.15.15.01.03-.02.01a2649.54 2649.54 0 0 0-4.8.02l.26.2v.04a243 243 0 0 1-1.69.6H5.04c-.03 0-.04 0-.04-.03v-.17c0-.02.01-.04.04-.04h1.8c.02 0 .04-.01.04-.03l.09-.47c0-.01 0-.02.02-.03l.85-.3c.05-.02.1-.03.16-.03h4.73Zm-5.56-.6.5.42c.02 0 .02.01.02.02s0 .02-.02.02l-.64.23-.01.02-.02.11c0 .01-.01.02-.03.02H5.03C5 6.1 5 6.1 5 6.08v-.2c0-.01 0-.02.03-.02H7c.01 0 .02 0 .02-.02l.1-.56.02-.02h.02ZM10.75 5c.1 0 .21.02.35.04a4.1 4.1 0 0 1 .62.2H5.03c-.02 0-.03-.01-.03-.04v-.17c0-.02.01-.03.03-.03h5.72Z" fill="#83BB50"/></svg>