<!-- by TradingView --><svg xmlns="http://www.w3.org/2000/svg" width="56" height="56"><path fill="#F0F3FA" d="M0 0h56v56H0z"/><path d="M36.74 17.7c-.55-.79-1.25-.7-1.72-.7l-2.33 4.63L38.62 32h-3.53c-1.6.03-2.46.78-2.76 1.3L29.79 37H48L36.74 17.7z" fill="#DB3218"/><path d="M16.13 23L8 37h5.07c1.01 0 1.53-.55 1.78-.9L22.47 23h-6.34z" fill="#F37020"/><path d="M18.78 18.37L16.63 22h6.44l2.84-5h-4.96c-1.15 0-1.88.83-2.17 1.37z" fill="#DB3218"/><path d="M28.22 18.6L17.62 37h4.61c1.3 0 2.02-.66 2.35-1.1L35.5 17h-5.1c-1.08 0-1.9 1.08-2.18 1.6z" fill="#F37020"/></svg>