<!-- by TradingView --><svg width="56" height="56" viewBox="0 0 56 56" xmlns="http://www.w3.org/2000/svg"><path fill="url(#a)" d="M0 0h56v56H0z"/><path fill-rule="evenodd" d="M37.31 25.72c-.07.64-.02.65.17.04.06-.17.2-.41.45-.74a.22.22 0 0 0 .05-.12c0-.22.11-.41.3-.58a.3.3 0 0 0 .08-.1c.3-.7.74-1.2 1.31-1.47.1-.04.24-.06.46-.05a.7.7 0 0 1 .4.18c.33.28.62.6.86.98a.7.7 0 0 1 .05.15c0 .03.03.05.05.08l.35.29c.07.06.15.08.25.07.09-.02.16-.07.2-.15.15-.26.35-.5.6-.72a.14.14 0 0 0 .04-.1l-.01-.31c-.05-.65-.01-1.07.1-1.25a.22.22 0 0 0 .03-.12c0-.18.03-.35.1-.5a5.43 5.43 0 0 1 1.06-1.67c.28-.4.67-.6 1.16-.63a.8.8 0 0 1 .7.29c.15.2.25.45.28.77a2.43 2.43 0 0 1-.15.86c-.3.68-.53 1.14-.7 1.37l-.85 1.09c-.12.16-.15.29-.1.4l.23.27c.3.33.66.42 1.08.27.15-.05.33-.17.56-.37l.36-.3a.43.43 0 0 0 .28-.31l.38-.54c.14-.2.28-.37.42-.5.2-.19.41-.4.64-.67a.44.44 0 0 1 .27-.15c.07-.01.12 0 .17.05.04.04.06.1.06.16-.03.3-.14.6-.34.88a.21.21 0 0 0-.04.12c0 .08-.04.17-.13.26a.85.85 0 0 0-.12.16c-.17.31-.27.49-.3.52-.23.27-.48.61-.75 1.02-.17.27-.4.52-.67.75-.16.14-.38.25-.65.34-.35.12-.6.2-.72.21-.14.03-.36.02-.66-.02-.23-.02-.42-.1-.58-.23-.36-.28-.61-.57-.76-.88-.03-.05-.06-.06-.1-.02-.06.07-.15.21-.28.43-.17.31-.42.58-.76.81-.2.15-.4.2-.59.15a1.6 1.6 0 0 1-.6-.3c-.3-.25-.48-.45-.55-.6a.2.2 0 0 0-.1-.1c-.24-.12-.4-.22-.51-.31-.18-.16-.34-.16-.47 0l-.42.49-.26.4c-.03.05-.08.13-.16.22-.1.12-.17.23-.2.3-.19.47-.45 1-.8 1.57l-.42.69c-.18.21-.43.34-.75.4-.16.02-.27-.05-.33-.2l-.11-.27a.67.67 0 0 1-.06-.28c.02-.72.02-1.35.02-1.87l.05-.27a.36.36 0 0 0-.02-.22.28.28 0 0 1-.02-.1v-.64c0-.09-.04-.12-.13-.1a.52.52 0 0 0-.3.2 2 2 0 0 0-.18.37 4.85 4.85 0 0 1-.37.72l-1.23 1.9c-.28.44-.68.7-1.2.81a.87.87 0 0 1-.84-.23 3.3 3.3 0 0 0-.23-.2c-.2-.16-.33-.29-.41-.39-.23-.3-.48-.54-.74-.73-.1-.07-.18-.06-.26.02-.26.3-.5.6-.69.93-.06.12-.43.53-1.08 1.25a.15.15 0 0 1-.12.05c-.13 0-.22-.07-.27-.21a.14.14 0 0 1 0-.12c.08-.12.11-.2.12-.28a.7.7 0 0 1 .08-.28c.14-.29.35-.65.62-1.08.31-.5.61-1.1.9-1.77.03-.08.09-.17.17-.3.13-.16.2-.3.22-.42 0-.05.03-.08.07-.1.28-.16.55-.23.82-.2.17.01.32.07.44.17.07.07.15.2.23.37l.4.9c.08.17.15.3.23.4l.11.15c.1.16.2.26.28.3.16.09.35.08.56-.02.14-.07.3-.28.51-.64l.5-.88.48-.9c.35-.72.68-1.36 1-1.9a2.68 2.68 0 0 1 .84-.86c.14-.07.3-.06.49.01.14.06.28.16.4.29.11.1.17.29.19.56.04.65.02 1.26-.06 1.82-.03.19-.05.36-.05.5 0 .27-.02.44-.03.51Zm6.82-3.31c.1-.6.35-1.1.73-1.54.1-.13.17-.1.2.08l-.05.33c-.01.1-.09.24-.23.42a3.4 3.4 0 0 0-.23.35c-.1.2-.21.35-.34.42h-.06c-.02-.04-.03-.05-.02-.06Zm-13.71-2.88c-.3.16-.48.31-.57.47-.1.2-.21.36-.33.47a1.7 1.7 0 0 0-.39.65c-.2.52-.07.93.39 1.23.04.03.08.03.13 0 .1-.06.19-.08.27-.06.05.02.1 0 .13-.02.4-.23.68-.51.86-.84.06-.11.1-.3.12-.54.01-.22.04-.4.07-.56.02-.09-.02-.32-.11-.69a.16.16 0 0 0-.07-.1.46.46 0 0 0-.5-.01ZM15.06 33.25c.13-.1.3-.25.5-.45.04-.04.07-.03.1.02l.1.28-.01.11a3.7 3.7 0 0 1-.69.97c-.14.14-.25.28-.34.41-.04.07-.14.17-.28.3l-.22.22c-.25.28-.4.44-.43.49-.04.06-.12.13-.24.2a.92.92 0 0 0-.2.2l-.12.13c-.48.42-1.02.7-1.62.86-.23.05-.46-.06-.67-.33-.04-.04-.03-.08 0-.12.17-.2.26-.4.27-.63 0-.05.02-.09.05-.12l.51-.5a.29.29 0 0 1 .12-.07c.05-.01.1-.04.15-.07a8.13 8.13 0 0 0 1.75-1.77c.08-.1.17-.26.27-.46.08-.18.16-.31.22-.4.05-.07.1-.2.16-.38.05-.14.11-.27.18-.38a.22.22 0 0 0 .04-.12v-.06c0-.08 0-.14.02-.18l.44-1.36c.05-.16.08-.31.1-.48v-.6c0-.45-.12-.87-.34-1.27a3.01 3.01 0 0 0-.9-1 5.63 5.63 0 0 0-1.95-.88l-1.53-.36c-.04-.01-.06 0-.06.05l-.01.68v.68c-.01.14 0 .34.04.6l.04.46c.02.84.05 1.39.09 1.65.1.64.16 1.22.21 1.76a.57.57 0 0 1-.08.33c-.02.04-.02.08.01.1.08.08.11.13.12.16 0 .4.03.79.06 1.14.02.12 0 .22-.02.3-.02.06-.01.14.02.24l.03.18v.17c.03.27 0 .46-.04.57-.04.07-.05.22-.05.44 0 .05-.01.09-.04.12-.16.18-.25.4-.28.69 0 .04-.03.06-.07.06h-.21a.1.1 0 0 1-.11-.08l-.2-.53a.2.2 0 0 1 0-.14c.03-.08.02-.15-.02-.2a.52.52 0 0 1-.08-.22l-.23-1.05-.05-.38a1.1 1.1 0 0 0-.06-.26c-.04-.1-.07-.18-.07-.25l-.33-2.3a.86.86 0 0 1 0-.39.16.16 0 0 0 0-.12 2.11 2.11 0 0 1-.18-.76c-.02-.21-.06-.47-.13-.78a7.57 7.57 0 0 1-.16-1.78c0-.05.02-.09.05-.12.22-.24.36-.5.43-.76a.16.16 0 0 1 .08-.1l.22-.12c.2-.13.2-.2-.05-.2-.3-.02-.5-.02-.6 0-.21.01-.4-.02-.6-.09-.2-.07-.5-.15-.93-.23-.05 0-.07-.03-.08-.08L7 23.73c0-.06.02-.09.09-.07.14.04.23.02.28-.05a.16.16 0 0 1 .12-.07l.5-.03c.05 0 .15-.02.3-.07a.53.53 0 0 1 .34 0c.14.05.22.07.26.07.08 0 .15-.02.21-.05a.3.3 0 0 1 .13-.02c.42.01.96.05 1.63.12a8.98 8.98 0 0 1 4.13 1.52c.15.14.28.23.36.27.1.04.18.09.23.14.36.37.6.8.73 1.31 0 .04.03.07.06.12l.06.1a5.47 5.47 0 0 1 .14 2l-.05.33c-.03.49-.11.85-.25 1.1-.1.18-.18.37-.25.6a8.23 8.23 0 0 1-1 2.15c-.06.1-.05.11.04.05Zm12.07-3.7c0 .02.01.03.02.03v.05l-.22.75c-.07.22-.19.42-.36.6a.24.24 0 0 0-.06.1c-.08.34-.23.6-.46.78-.25.2-.52.23-.82.07-.3-.15-.52-.4-.65-.71a65.1 65.1 0 0 0-.87-2.19.2.2 0 0 0 0-.1c-.02-.05-.05-.06-.1 0-.04.03-.13.2-.27.47-.13.26-.37.62-.71 1.07-.2.26-.39.52-.55.78a2.5 2.5 0 0 1-1.48 1.17c-.57.18-1 .22-1.27.12a.2.2 0 0 0-.12 0 .17.17 0 0 1-.13-.02c-.53-.3-.88-.67-1.08-1.1-.02-.06-.06-.07-.1-.02l-1.07 1.22c-.08.1-.18.1-.28.02l-.03-.03c-.11-.1-.13-.2-.05-.32.07-.1.1-.19.08-.24l.01-.1c.28-.67.62-1.23 1.04-1.68a.17.17 0 0 0 .05-.11l-.03-.95c-.01-.2 0-.35.06-.48.07-.17.1-.32.11-.45.01-.13.07-.31.18-.54a6.7 6.7 0 0 1 1.15-1.68c.27-.29.6-.43 1.01-.43.32 0 .54.1.67.29.17.24.26.49.28.74a2.52 2.52 0 0 1-.23 1.09 7.91 7.91 0 0 1-1.43 2.19c-.2.23-.2.46.03.69.4.4.83.48 1.3.26.09-.05.23-.15.42-.33l.28-.23c.1-.07.2-.16.26-.25.58-.81.92-1.32 1.01-1.53.06-.13.2-.67.44-1.62.02-.09.03-.22.03-.38v-.2c.01-.08.04-.15.1-.22.13-.2.32-.43.57-.7.1-.1.2-.1.32-.03.05.03.1.1.15.2.03.06.07.2.13.45l.13.47c.1.3.2.62.28.97.05.2.14.49.27.86.15.43.25.76.3.98 0 .06.05.16.11.28.06.1.1.18.11.24.02.05.06.08.12.1.06 0 .1-.02.14-.07.11-.18.2-.36.25-.55.16-.5.3-1.03.41-1.57.01-.04.04-.08.07-.1l.12-.1c.04-.03.05-.07.02-.11l-.06-.08a.15.15 0 0 1-.02-.12l.16-.93c.1-.56.1-1.03 0-1.43-.08-.29 0-.52.21-.7l.29-.24c.23-.19.37-.14.42.16.05.33.05.68.02 1.03-.03.29-.05.61-.06.98 0 .26-.05.59-.14.97a.76.76 0 0 0 0 .25c.02.1.02.16 0 .21-.09.42-.18.87-.26 1.36-.04.23-.11.42-.22.56-.03.03-.03.06 0 .09Zm-7.36-1.77c0 .13-.04.25-.12.36l-.36.48a.19.19 0 0 0-.04.1c-.01.2-.12.31-.33.35-.05.01-.07 0-.06-.06.11-.58.36-1.1.76-1.55.1-.12.15-.1.15.05v.27Z" fill="#FFFFFE"/><defs><linearGradient id="a" x1="10.42" y1="9.71" x2="68.15" y2="76.02" gradientUnits="userSpaceOnUse"><stop stop-color="#1A1E21"/><stop offset="1" stop-color="#06060A"/></linearGradient></defs></svg>