<!-- by TradingView --><svg width="56" height="56" viewBox="0 0 56 56" xmlns="http://www.w3.org/2000/svg"><path fill="#F0F3FA" d="M0 0h56v56H0z"/><path d="M34.18 34.65v-1.64c-.57-.01-1.1-.07-1.58-.15-.13.54-.2 1.15-.2 1.8h1.78ZM34.18 35.2H32.4c.03.67.14 1.3.3 1.84a9 9 0 0 1 1.47-.15v-1.7ZM31.88 35.2c.03.7.14 1.36.3 1.95-.45.1-.84.24-1.15.38a4.5 4.5 0 0 1-.93-2.33h1.78ZM32.35 37.66a7 7 0 0 0-.94.3c.47.45 1.03.8 1.66 1.02-.28-.34-.53-.8-.72-1.32ZM34.18 37.44c-.47 0-.9.05-1.3.12l.2.47c.35.67.74 1.02 1.1 1.13v-1.72ZM34.7 39.16v-1.71c.41.02.84.07 1.27.15-.06.15-.12.3-.19.43-.34.66-.72 1.01-1.07 1.13ZM35.8 38.98c.27-.33.5-.75.7-1.25.29.08.58.18.88.3-.45.42-.99.75-1.58.95ZM36.67 37.22c.36.1.73.23 1.1.39.55-.67.9-1.5 1-2.41h-1.78a8.67 8.67 0 0 1-.32 2.02ZM34.7 36.9c.47.02.95.08 1.45.19.17-.56.28-1.2.31-1.9h-1.75v1.71ZM31.87 34.65c0-.67.08-1.31.2-1.9a7.66 7.66 0 0 1-1.3-.42 4.52 4.52 0 0 0-.7 2.32h1.8ZM36.47 34.65h-1.76V33c.5-.02 1.02-.08 1.55-.19.13.56.2 1.18.21 1.84ZM38.8 34.65H37c0-.7-.08-1.36-.22-1.96.42-.1.85-.25 1.28-.43.45.69.72 1.51.73 2.4ZM34.7 32.46c.46-.02.93-.07 1.42-.17-.1-.3-.2-.6-.34-.84-.34-.66-.72-1.01-1.07-1.13v2.14ZM36.64 32.17a9 9 0 0 0 1.09-.36 4.36 4.36 0 0 0-1.93-1.31c.34.42.63 1 .84 1.67ZM32.73 32.33c.44.08.93.13 1.45.13v-2.15c-.36.12-.75.47-1.1 1.14-.13.26-.25.56-.35.88ZM33.07 30.5a5.03 5.03 0 0 0-.86 1.73 7.4 7.4 0 0 1-1.12-.35 4.36 4.36 0 0 1 1.98-1.38Z" fill="#9CBF23"/><path fill-rule="evenodd" d="M44 29a16.05 16.05 0 0 1-14.08 15l-.92-.21V28h-2v15.22c-5.4-1.76-11.19-5.5-10.21-12.94a11.63 11.63 0 0 1 10.33-10.53c.53-.05.97-.47.97-1a.87.87 0 0 0-.84-.9c-4.36-.04-11.05 2.96-12.38 10.56-.8 4.56.43 8.4 1.65 10.83A16.03 16.03 0 0 1 12 28.06C12 19.19 19.17 12 28 12c8.5 0 15.46 6.62 16 15H32v2h12Zm-4.68 5.74c0 2.76-2.18 5-4.87 5h-.02a4.95 4.95 0 0 1-4.88-5c0-2.77 2.19-5.01 4.88-5.01 2.7 0 4.9 2.24 4.9 5Z" fill="#9CBF23"/></svg>