<!-- by TradingView --><svg width="56" height="56" viewBox="0 0 56 56" xmlns="http://www.w3.org/2000/svg"><path fill="#F0F3FA" d="M0 0h56v56H0z"/><path d="M13 30.42V19.87L19.55 13h5.02L31 20v5h5v-4.96h-3.37L25.9 13h10.14L43 19.66v6.86l-1.82 1.81L43 29.55v6.9L36.39 43H26.9l5.64-7H36v-5h-5v5l-5.98 7h-5.47L13 37.04v-4.5L20.92 25H25v-5h-5v4l-7 6.42Zm11.04.58H19v5h5.04v-5Z" fill="url(#a)"/><mask id="c" fill="#fff"><path d="M13 30.42V19.87L19.55 13h5.02L31 20v5h5v-4.96h-3.37L25.9 13h10.14L43 19.66v6.86l-1.82 1.81L43 29.55v6.9L36.39 43H26.9l5.64-7H36v-5h-5v5l-5.98 7h-5.47L13 37.04v-4.5L20.92 25H25v-5h-5v4l-7 6.42Zm11.04.58H19v5h5.04v-5Z"/></mask><path d="m13 19.87-.22-.2-.08.08v.12h.3Zm0 10.55h-.3v.68l.5-.46-.2-.22ZM19.55 13v-.3h-.13l-.09.1.22.2Zm5.02 0 .22-.2-.09-.1h-.13v.3ZM31 20h.3v-.12l-.08-.08-.22.2Zm0 5h-.3v.3h.3V25Zm5 0v.3h.3V25H36Zm0-4.96h.3v-.3H36v.3Zm-3.37 0-.21.21.09.1h.13v-.3ZM25.9 13v-.3h-.7l.48.5.22-.2Zm10.14 0 .21-.22-.09-.08h-.12v.3ZM43 19.66h.3v-.13l-.1-.09-.2.22Zm0 6.86.21.22.09-.09v-.13H43Zm-1.82 1.81-.21-.21-.26.25.3.2.17-.24ZM43 29.55h.3v-.16l-.13-.09-.17.25Zm0 6.9.21.2.09-.08v-.13H43ZM36.39 43v.3h.12l.09-.09-.21-.21Zm-9.48 0-.23-.19-.4.49h.63V43Zm5.64-7v-.3h-.15l-.09.11.24.19ZM36 36v.3h.3V36H36Zm0-5h.3v-.3H36v.3Zm-5 0v-.3h-.3v.3h.3Zm0 5 .23.2.07-.09V36H31Zm-5.98 7v.3h.14l.09-.1-.23-.2Zm-5.47 0-.2.22.09.08h.11V43ZM13 37.04h-.3v.13l.1.1.2-.23Zm0-4.5-.2-.22-.1.09v.13h.3ZM20.92 25v-.3h-.12l-.09.08.21.22ZM25 25v.3h.3V25H25Zm0-5h.3v-.3H25v.3Zm-5 0v-.3h-.3v.3h.3Zm0 4 .2.23.1-.09v-.13H20Zm-1 7v-.3h-.3v.3h.3Zm5.04 0h.3v-.3h-.3v.3ZM19 36h-.3v.3h.3V36Zm5.04 0v.3h.3V36h-.3ZM12.7 19.87v10.55h.6V19.87h-.6Zm6.63-7.08-6.55 6.87.44.42 6.55-6.87-.44-.42Zm5.24-.09h-5.02v.6h5.02v-.6Zm6.65 7.1-6.43-7-.44.4 6.43 7 .44-.4Zm.08 5.2v-5h-.6v5h.6Zm4.7-.3h-5v.6h5v-.6Zm-.3-4.66V25h.6v-4.96h-.6Zm-3.07.3H36v-.6h-3.37v.6Zm-6.95-7.13 6.74 7.04.43-.41-6.74-7.05-.43.42Zm10.36-.51H25.9v.6h10.14v-.6Zm7.17 6.74-6.96-6.66-.41.44 6.95 6.66.42-.44Zm.09 7.08v-6.86h-.6v6.86h.6Zm-1.9 2.02 1.81-1.8-.42-.43-1.82 1.8.42.43Zm1.77.76-1.82-1.22-.34.5 1.82 1.22.34-.5Zm.13 7.14v-6.9h-.6v6.9h.6Zm-6.7 6.77 6.61-6.56-.42-.42-6.62 6.56.43.42Zm-9.69.09h9.48v-.6H26.9v.6Zm5.4-7.49-5.63 7 .47.38 5.63-7-.47-.38ZM36 35.7h-3.45v.6H36v-.6Zm-.3-4.7v5h.6v-5h-.6Zm-4.7.3h5v-.6h-5v.6Zm.3 4.7v-5h-.6v5h.6Zm-6.05 7.2 5.98-7-.46-.4-5.98 7 .46.4Zm-5.7.1h5.47v-.6h-5.47v.6Zm-6.75-6.04 6.55 5.96.4-.44-6.55-5.96-.4.44Zm-.1-4.72v4.5h.6v-4.5h-.6Zm8.01-7.76-7.92 7.54.42.43 7.92-7.53-.42-.44ZM25 24.7h-4.08v.6H25v-.6Zm-.3-4.7v5h.6v-5h-.6Zm-4.7.3h5v-.6h-5v.6Zm.3 3.7v-4h-.6v4h.6Zm-7.1 6.64 7-6.41-.4-.44-7 6.4.4.45Zm5.8.66h5.04v-.6H19v.6Zm.3 4.7v-5h-.6v5h.6Zm4.74-.3H19v.6h5.04v-.6Zm-.3-4.7v5h.6v-5h-.6Z" fill="url(#b)" mask="url(#c)"/><defs><linearGradient id="a" x1="22.67" y1="40.88" x2="48.91" y2="32.27" gradientUnits="userSpaceOnUse"><stop stop-color="#D27C29"/><stop offset=".54" stop-color="#E19E26"/><stop offset="1" stop-color="#F7E27D"/></linearGradient><linearGradient id="b" x1="12.48" y1="39.95" x2="42.28" y2="14.17" gradientUnits="userSpaceOnUse"><stop stop-color="#D27C29"/><stop offset=".41" stop-color="#ECC26B"/><stop offset=".58" stop-color="#B84C26"/><stop offset="1" stop-color="#F7E27D"/></linearGradient></defs></svg>