<!-- by TradingView --><svg width="56" height="56" viewBox="0 0 56 56" xmlns="http://www.w3.org/2000/svg"><path fill="#F0F3FA" d="M0 0h56v56H0z"/><path fill="url(#a)" d="M16 9h24v28H16z"/><circle cx="26" cy="25" r="9" fill="#FEF692"/><path d="M31.06 31.06a.1.1 0 0 1-.01-.08c.03-.15.08-.32.08-.47a36.4 36.4 0 0 1 .06-3.93c.04-.53.51-.82 1.04-.54.22.12.3.3.26.54-.07.38-.11.74-.11 1.08a536.05 536.05 0 0 1-.02 3.25c.14.3-.62 1.2-1.3.15ZM33.02 21.22c.02.22.01.42-.01.62-.13 1-.19 2.07-.26 3.23l-.04.25c-.06.32-.47.3-.75.29-.46-.02-.49-.3-.46-.68l.2-3c.02-.4.1-1.01.24-1.82.06-.32.25-.4.55-.56a.16.16 0 0 1 .08-.02c.27.02.78.27.75.62a.1.1 0 0 1-.04.07c0 .29-.27.82-.26 1ZM27.26 20.5l.55.32a.22.22 0 0 1 .1.22l-.4 2.45a.22.22 0 0 1-.16.18l-.82.22a.23.23 0 0 1-.21-.05.22.22 0 0 1-.07-.2l.68-3a.22.22 0 0 1 .12-.15.23.23 0 0 1 .2.01ZM27.15 29.59a35.6 35.6 0 0 0-.32-1.94l-.45-2.34c-.06-.32.02-.63.24-.93.15-.2.31-.3.49-.28.22.02.3.22.36.41.37 1.3.65 2.61.85 3.96.05.37.1.77-.32.93a6.21 6.21 0 0 0-.7.32.16.16 0 0 1-.12-.07.15.15 0 0 1-.03-.06ZM30.15 31.25c-.11.23-.39.24-.65.28-.34.05-.43-.26-.42-.55v-3.04c-.01-.26-.02-.64-.08-.99-.04-.2-.15-.68.1-.8.62-.34 1.18-.1 1.22.61.07 1.2.09 2.42.04 3.66-.02.34-.09.55-.21.83ZM28.67 32.84c-.11.13-.4.14-.66.16-.35.02-.43-.15-.43-.31V31c0-.15-.02-.36-.08-.55-.04-.12-.15-.38.1-.45.64-.19 1.2-.05 1.25.34.07.67.09 1.35.03 2.04-.01.2-.08.3-.21.46Z" fill="#16371E"/><path d="M36.86 9.36c-.07-.1-.15-.22-.26-.3a218.66 218.66 0 0 0-11.99 0l-.13.24a.85.85 0 0 1-.17.23 690.43 690.43 0 0 1-2.14 2.01A11.36 11.36 0 0 0 21 12.8l.01.04c0 .02.02.03.03.04h.05c.05 0 .12-.03.2-.09a89.66 89.66 0 0 0 3.45-2.99c.2-.18.6-.41.86-.41a.12.12 0 0 1 .09.04.11.11 0 0 1 .02.09c-.02.17-.11.33-.2.49l-.09.17a57.66 57.66 0 0 0-2.44 6.01l-.1.27c-.07.15-.13.29-.16.45-.55.68.16.48.49-.12.04-.08.05-.2.06-.29l.02-.12c.04-.18.14-.43.3-.76a334 334 0 0 0 1.2-2.57c.32-.7.66-1.34 1.02-2 .21-.4.43-.81.64-1.24l.03-.04c.17-.17.32-.1.44.23.25.7.42 1.67.03 2.34l-.43.78A30.05 30.05 0 0 0 25.26 16c-.2.56-.36.96-.51 1.33a40.4 40.4 0 0 0-.73 1.96c-.03.09.01.11.12.08a.1.1 0 0 0 .06-.05 33.17 33.17 0 0 0 2.95-6.33c.03-.1.1-.16.2-.19.08-.01.14 0 .2.02.08.01.15.02.22 0 .2-.09.43-.18.56.04.15.27-.04.4-.28.52l-.08.04c-.2.1-.32.16-.44.35-.17.28-.01.9.1 1.21.05.12.03.32-.02.45-.1.3-.19.6-.25.92-.03.16-.1.3-.17.45l-.06.13c-.02.22-.18.65-.35 1.08-.11.3-.23.6-.3.83-.31 1.1-.56 2.23-.81 3.35l-.52 2.22a9.09 9.09 0 0 0-.2 1.6.07.07 0 0 0 .05.03c.09-.01.15-.07.2-.16a5 5 0 0 0 .36-1.13c.06-.36.1-.59.14-.69.13-.35.2-.73.29-1.1.2-1.02.58-2 .86-3 .05-.2.11-.39.19-.6.03-.11.06-.1.07 0v.04c.04.26.08.59.39.68.25.07.47.02.66-.15.05-.05.19 1.02.2 1.14.16 1.53.28 2.93.36 4.19.03.6.81.48 1.16.27a.13.13 0 0 0 .05-.07.82.82 0 0 0 .04-.31l-.2-3.25a9.71 9.71 0 0 0-.31-1.87c-.09-.27-.29-.4-.6-.37a1.36 1.36 0 0 0-.63.18.04.04 0 0 1-.04-.05l.08-.36a.16.16 0 0 1 .14-.13l.47-.1c.68-.19.5-.89.35-1.4a2.2 2.2 0 0 1-.09-.41l-.03-.3c0-.1 0-.22-.04-.33-.07-.26-.1-.47-.06-.64.06-.32.12-.71.18-1.2.04-.24.02-.55-.04-.93-.04-.26.02-.55.2-.87a.09.09 0 0 1 .07-.04c.15 0 .22.07.22.2-.03.91.12 1.92.24 2.78.33 2.29.12-.85.43 2.67.02.14.06.41.06.62v1.92c-.01.29 0 .57.01.86.02.38.04.75.01 1.13 0 .12 0 .27.03.44 0 .08.05.11.13.1l.05-.01c.07-.02.1-.06.08-.13l-.02-.07a.57.57 0 0 1-.04-.26c.02-.13-.07-2.18.28-1.72v.01l.07 1.98c0 .02 0 .04.02.06.05.06.16.06.2-.02v-.04c.05-.89.04-1.76-.03-2.63-.03-.49 0-1.11-.05-1.54-.14-1.17.16-.78.23-1.5a82.16 82.16 0 0 0 .59-4.89l.02-.02h.03l.03.01c.03.03.06.07.08.13l.62 1.55c.08.2.03.56-.04.84-.2.8-.34 1.6-.43 2.43-.27.99-.23 1.54.1 1.38.2-.1.36-.26.57-.03.14.03.25-.04.32-.19.08-.16.1-.37.12-.58.03-.31.06-.61.27-.73a.08.08 0 0 1 .09 0c.17.11.28.27.34.46.23.8.43 1.48.62 2.05.15.5.21.86.27 1.24.11.64.23 1.32.81 2.72l.2.49c.06.23.1.45.14.68a.7.7 0 0 0 .13.32c.08.09.12.08.12-.04 0-.28-.05-.57-.1-.83l-.06-.37c-.03-.26-.07-.5-.11-.71-.37-1.75-.63-2.9-.77-3.47a60.57 60.57 0 0 0-.83-2.78c-.26-.74-.5-1.5-.7-2.27-.04-.12 0-.35.04-.48.11-.34.25-1.07-.12-1.27l-.14-.07c-.21-.11-.43-.22-.5-.39-.06-.12-.01-.3.13-.35.16-.05.3-.03.44.06a.2.2 0 0 0 .22.01c.27-.18.4.07.47.3.12.4.35.97.69 1.7.47 1.01.95 2.01 1.44 3.01a57.24 57.24 0 0 1 .66 1.43c.12.09.17.06.13-.08a8.2 8.2 0 0 0-.38-1.26 287.4 287.4 0 0 1-1.27-3.22c-.34-.86-.82-1.77-1.17-2.43-.34-.66-.14-1.7.07-2.38.07-.22.19-.27.36-.16l.06.06c.32.6.8 1.52 1.41 2.73.19.36.4.82.64 1.4l.63 1.38a16.2 16.2 0 0 1 .77 1.9c.05.13.1.23.17.3.11.11.16.1.14-.06v-.01c-.03-.16-.06-.35-.11-.51-.33-1.03-.56-1.7-.68-2.02l-1.05-2.7c-.35-.87-.7-1.6-1.07-2.4a2.86 2.86 0 0 1-.1-.33.08.08 0 0 1 .05-.06h.05c.24.03.46.13.64.28a77.91 77.91 0 0 1 3.23 2.84c.09.08.17.1.3.13a.07.07 0 0 0 .05-.01.07.07 0 0 0 .03-.05c0-.1-.04-.2-.13-.28a3.61 3.61 0 0 1-.35-.31 66.6 66.6 0 0 0-2.3-2.24 7.16 7.16 0 0 1-.36-.41Zm-6 4.71c-.02.36-.04.72-.08 1.06 0 .05-.02.05-.05.01l-.01-.04c-.07-.38-.12-.88-.15-1.51l-.1-1.5c-.08-.77-.13-1.28-.13-1.51-.01-.29.07-.6.24-.92.04-.08.08-.12.13-.13.1-.02.16.02.2.1.2.43.27.86.23 1.3a78.8 78.8 0 0 1-.2 2.08c-.04.34-.06.7-.08 1.06Zm1.62-4.1c.04.03.07.1.12.18.33.62.53 1.23.6 1.84.02.16-.04.3-.23.26-.13-.03-.16-.1-.2-.2l-.03-.04-.39-.81c-.18-.4-.22-.79-.11-1.18 0-.02.02-.05.04-.06a.14.14 0 0 1 .2 0Z" fill="#16371E"/><path d="M37.42 41H37v-2h.42v.52c.08-.32.2-.52.45-.52.04 0 .08 0 .13.02v.48a.5.5 0 0 0-.15-.03c-.36 0-.43.44-.43.71V41ZM31.28 41h-.56L30 39h.55c.17.5.48 1.56.48 1.56s.3-1.05.47-1.56h.5l-.72 2ZM29 41h-.53v-.32c-.14.2-.4.32-.7.32-.37 0-.77-.17-.77-.6 0-.57.7-.63 1.13-.63h.18l.16.01c0-.29-.18-.43-.52-.43-.26 0-.49.08-.7.22l-.01-.44c.24-.09.5-.13.78-.13.36 0 .9.1.98.52V41Zm-.53-.91h-.15l-.35.01c-.2.03-.4.12-.4.31 0 .15.17.25.35.25.35 0 .55-.26.55-.57ZM35 41h-.53v-.32c-.14.2-.4.32-.7.32-.37 0-.77-.17-.77-.6 0-.57.7-.63 1.13-.63h.18l.16.01c0-.29-.18-.43-.52-.43-.26 0-.49.08-.7.22l-.01-.44c.24-.09.5-.13.78-.13.36 0 .9.1.98.52V41Zm-.53-.91h-.15l-.35.01c-.2.03-.4.12-.4.31 0 .15.17.25.35.25.35 0 .55-.26.55-.57ZM26 41h-.52v-.38a.66.66 0 0 1-.62.38c-.6 0-.86-.53-.86-1.06 0-.51.27-.94.84-.94.48 0 .64.27.64.27V38h.51v3Zm-.52-1.04c0-.32-.17-.52-.49-.52-.31 0-.44.17-.44.51 0 .28.12.64.45.64.32 0 .48-.35.48-.63ZM23 40.02c0 .14-.02.28-.07.4a.88.88 0 0 1-.52.5c-.13.06-.26.08-.41.08-.2 0-.38-.04-.53-.13a.88.88 0 0 1-.35-.36A1.11 1.11 0 0 1 21 40c0-.2.04-.37.13-.52.08-.15.2-.26.35-.34.15-.09.32-.13.52-.13.15 0 .29.02.41.08a.88.88 0 0 1 .52.53c.05.12.07.26.07.4Zm-.52-.02c0-.1-.01-.2-.05-.3a.54.54 0 0 0-.16-.24.4.4 0 0 0-.27-.1.4.4 0 0 0-.27.1.56.56 0 0 0-.16.24.97.97 0 0 0 0 .6c.03.1.08.18.16.24.07.06.16.1.28.1a.4.4 0 0 0 .2-.06.48.48 0 0 0 .16-.15.86.86 0 0 0 .12-.43ZM20 39.26v1.59c-.34.1-.7.15-1.11.15-.96 0-1.89-.43-1.89-1.5 0-1.09 1.04-1.5 1.98-1.5.32 0 .72.04 1.02.12v.52c-.3-.11-.73-.17-1.05-.17-.71 0-1.21.37-1.21 1 0 .65.54 1.06 1.16 1.06.15 0 .3-.02.44-.07v-.71h-.74v-.5H20ZM39.5 41H39v-2h.5v2Z"/><ellipse cx="39.34" cy="38.3" rx=".34" ry=".3"/><path fill="#CCD282" d="M16 42h24v4H16z"/><path fill="#143D27" fill-opacity=".5" d="M17 43h22v2H17z"/><defs><linearGradient id="a" x1="28" y1="9" x2="28" y2="37" gradientUnits="userSpaceOnUse"><stop offset=".63" stop-color="#5C6D52"/><stop offset=".91" stop-color="#C9CC81"/></linearGradient></defs></svg>