<!-- by TradingView --><svg width="18" height="18" viewBox="0 0 18 18" xmlns="http://www.w3.org/2000/svg"><path fill="#C0CDFF" d="M0 0h18v18H0z"/><path d="M4.6 5.68c.54-.72 1.24-.87 2.12-.45.05.03.1.07.14.13.03.05.06.12.08.2a5.62 5.62 0 0 1 .08 1.24.1.1 0 0 1-.06.04c-.03 0-.05 0-.07-.02a.14.14 0 0 1-.04-.07l-.22-.83a.62.62 0 0 0-.24-.36C5.06 4.65 4.08 6.7 5.14 8.05l.05.05L6.86 9.4c.05.04.08.1.11.15 1.13 2.46-.77 4-2.43 3.25a.57.57 0 0 1-.27-.27A4.38 4.38 0 0 1 4 11a.16.16 0 0 1 .05-.07.1.1 0 0 1 .06-.02.1.1 0 0 1 .07.02c.03.02.1.27.22.72.35 1.41 2.05 1.44 2.32-.03.33-1.82-1.15-2.16-1.92-2.99a2.41 2.41 0 0 1-.2-2.96Zm4.6 1.47c.93-2.19 2.58-2.43 4.27-1.93.03 0 .06.02.08.05.02.02.03.05.04.09l.34 1.3a.34.34 0 0 1 0 .2.24.24 0 0 1-.06.07.17.17 0 0 1-.06.04l-.1.04a.1.1 0 0 1-.07-.04.18.18 0 0 1-.04-.1c-.1-.7-.2-1.2-.8-1.38-1.1-.34-1.95-.09-2.57.75-.82 1.1-.92 3.53-.33 4.83.92 1.98 3.06 2.34 3.89-.13a.14.14 0 0 1 .06-.07.08.08 0 0 1 .07 0c.03 0 .05.02.06.05a.2.2 0 0 1 .02.1c-.04.26-.16.71-.38 1.37a.61.61 0 0 1-.11.2c-.05.05-.1.1-.16.11-1.5.58-2.69.32-3.57-.77a4.95 4.95 0 0 1-.58-4.78Z" fill="#0A0D0C"/></svg>