<!-- by TradingView --><svg width="18" height="18" viewBox="0 0 18 18" xmlns="http://www.w3.org/2000/svg"><path fill="#F0F3FA" d="M0 0h18v18H0z"/><path d="M3.36 5.8c.2.36.39.67.71.97.95.85 2.08 1.29 3.4 1.31.55 0 1.17-.08 1.78-.21l1.94-.4a4.84 4.84 0 0 1 1.95.04c.07.01.08.04.03.09-.03.02-.07.03-.12.03a4.68 4.68 0 0 0-1.43.1c-.56.14-1.12.32-1.67.52-.51.19-1.07.38-1.6.47-.2.03-.43.03-.69 0-.47-.06-.93-.14-1.38-.25-1.37-.34-2.55-1.15-3-2.46a.82.82 0 0 1-.05-.37c0-.05.02-.05.04 0l.09.15Z" fill="url(#aikfj2ahi)"/><path d="M2.15 6.22a5.17 5.17 0 0 0 3.97 3.47c.37.07.73.1 1.11.05a7.44 7.44 0 0 0 1.87-.49l2.08-.83c1.03-.39 2.04-.4 3.04-.01a1 1 0 0 1 .36.22c.08.08.06.1-.05.08-.22-.04-.37-.14-.6-.16a4.21 4.21 0 0 0-1.1 0c-1.15.23-2.13.88-3.23 1.54a5.5 5.5 0 0 1-2.02.75c-.53.05-1.02.03-1.46-.07A5.41 5.41 0 0 1 2 6.22a.4.4 0 0 1 0-.18c.02-.05.03-.05.05 0l.05.13c0 .02.02.04.04.05Z" fill="#30B2EA"/><path d="M7.03 12.69c-.1.02-.2.03-.31.02a11.7 11.7 0 0 1-.95-.07c-.43-.05-1.35-.27-1.51-.68a.04.04 0 0 1 .02-.06h.03c.34.07.65.2 1 .24 1.3.17 2.43-.08 3.52-.7 1.11-.64 2.06-1.5 3.22-2.06a3.17 3.17 0 0 1 1.08-.3l.02.03.01.02v.03a5.96 5.96 0 0 0-1.84 1.08c-.59.49-1.14 1.06-1.76 1.46-.44.28-.91.5-1.43.68-.37.13-.74.23-1.1.3Z" fill="url(#bikfj2ahi)"/><path d="M7.37 12.78c-.33-.02-.33-.04 0-.1a5.35 5.35 0 0 0 3.04-1.43c.22-.2.5-.46.86-.76a6.68 6.68 0 0 1 1.78-1.12c.07-.03.2-.07.38-.11.11-.03.26-.08.43-.15.1-.04.13-.01.11.09 0 .05-.05.1-.11.11-.94.29-1.65.65-2.38 1.3-1.11.99-2.48 2.22-4.1 2.17Z" fill="#CAC3C3"/><path d="M14.71 11.9a3.82 3.82 0 0 0 1.2-2.15c.7-3.55-2.97-5.72-5.65-4.32a.08.08 0 0 0-.04.03.07.07 0 0 0-.02.04c0 .08.05.1.14.1l.2-.05C12.56 5 14.3 5.82 15 7.82c.2.56.22 1.17.07 1.82a3.6 3.6 0 0 1-1 1.85 3.85 3.85 0 0 1-4.36.74c-.07-.03-.1-.08-.08-.15a.58.58 0 0 1-.23.11c.32.24.59.4.8.48 1.55.61 3.32.38 4.52-.77Z" fill="url(#cikfj2ahi)"/><defs><linearGradient id="aikfj2ahi" x1="3.22" y1="7.17" x2="13.2" y2="7.17" gradientUnits="userSpaceOnUse"><stop stop-color="#494D85"/><stop offset="1" stop-color="#C0C1D0"/></linearGradient><linearGradient id="bikfj2ahi" x1="12.38" y1="9.33" x2="4.96" y2="12.41" gradientUnits="userSpaceOnUse"><stop stop-color="#4B4F87"/><stop offset="1" stop-color="#CDCEDC"/></linearGradient><linearGradient id="cikfj2ahi" x1="12.69" y1="5" x2="12.69" y2="13" gradientUnits="userSpaceOnUse"><stop stop-color="#D5D5E1"/><stop offset="1" stop-color="#565B8E"/></linearGradient></defs></svg>