<!-- by TradingView --><svg width="56" height="56" viewBox="0 0 56 56" xmlns="http://www.w3.org/2000/svg"><path fill="#F0F3FA" d="M0 0h56v56H0z"/><path d="M35.31 18.25c.24.09.3.02.16-.2a13.31 13.31 0 0 0-3.8-4.4A25.1 25.1 0 0 1 30 12.4a.19.19 0 0 1-.06-.17c0-.07.03-.12.09-.15.11-.08.27-.09.48-.04l2.44.63c.79.21 1.57.53 2.34.93a16.14 16.14 0 0 1 8.18 10.07 18 18 0 0 1 .4 6.45 14.9 14.9 0 0 1-2.1 6.02 18.3 18.3 0 0 1-4.15 4.77.4.4 0 0 1-.32.1.37.37 0 0 1-.28-.17c-.06-.1-.05-.26.03-.5a20.92 20.92 0 0 0 .43-14.4 20.74 20.74 0 0 0-7.15-10.07 13.85 13.85 0 0 0-5.23-2.5 6.56 6.56 0 0 0-1.04-.08c-.28 0-.4-.15-.33-.43l.02-.1c.06-.21.19-.34.39-.37a4.3 4.3 0 0 1 1.7.02c2.71.62 5.14 1.85 7.26 3.69a42.54 42.54 0 0 1 2.2 2.16Z" fill="#DE861D"/><path d="M32.62 28.29c.09 0 .15-.03.2-.11a.2.2 0 0 0-.03-.24 22.07 22.07 0 0 0-5.84-5.5.21.21 0 0 1-.1-.17c-.01-.08.01-.13.07-.17l.06-.03c.05-.04.1-.04.16-.01a17.17 17.17 0 0 1 8.14 8.93 16.72 16.72 0 0 1 1.06 5.96 9 9 0 0 1-.21 2.1c-.2.87-.36 1.56-.5 2.09-.14.5-.36.9-.67 1.18-.27.24-.67.47-1.22.67-3 1.13-6.1 1.31-9.3.55a15.35 15.35 0 0 1-6.38-3.13 16.42 16.42 0 0 1-6-11.32c-.12-1.15-.06-2.35.19-3.6.09-.47.35-.85.8-1.15a11.49 11.49 0 0 1 5.08-1.85c1.8-.2 3.6-.04 5.43.5 1.95.6 3.65 1.37 5.12 2.35.77.52 1.83 1.4 3.16 2.67.16.16.4.25.7.27h.08Z" fill="#4AC2F4"/></svg>