<!-- by TradingView --><svg width="56" height="56" viewBox="0 0 56 56" xmlns="http://www.w3.org/2000/svg"><path fill="#3B5064" d="M0 0h56v56H0z"/><path d="M27.89 8.02c0-.01 0-.02.02-.02h.04c.15 2.2.43 4.34.85 6.4a42.24 42.24 0 0 0 10.88 20.9A52.13 52.13 0 0 0 46 40.97l-.03.01h-.03A39.76 39.76 0 0 0 28 37a44.28 44.28 0 0 0-17.8 3.93c-.25.11-.27.09-.04-.07a39.17 39.17 0 0 0 7.66-7.16 40.96 40.96 0 0 0 5.56-8.97 56.15 56.15 0 0 0 4.5-16.7Z" fill="#00ADEE"/><path d="M27 32.59v2.7c0 .06 0 .1.05.14l.6.46c.08.06.06.1-.04.1l-3.1.01c-.03 0-.01-.01-.01-.04v-7.68c0-.04-.05-.08-.08-.1l-.32-.3a.1.1 0 0 1-.03-.09.1.1 0 0 1 .04-.08c1.04-.75 2.2-1.5 3.25-2.26.28-.2.56-.34.83-.4.34-.09.64-.05.9.1a12.12 12.12 0 0 1 2.34 1.71c.85.84 1.3 1.65 1.38 2.43.08.74-.07 1.37-.43 1.9-.35.5-.87.9-1.58 1.17-.25.1-.53.14-.83.14l-2.92.02c-.05 0-.05.02-.05.07Z" fill="#fff"/><path d="M27.11 27.76c.13-.26.3-.47.53-.65.25-.2.5-.3.76-.31.35-.02.71.14 1.1.48a3.33 3.33 0 0 1 .73.94c.25.5.29.98.13 1.45-.12.33-.32.6-.62.8a2.13 2.13 0 0 1-1.99.22 1.72 1.72 0 0 1-.81-.63c-.18-.26-.23-.65-.15-1.19a4.26 4.26 0 0 1 .32-1.11Z" fill="#00ADEE"/></svg>