<!-- by TradingView --><svg width="56" height="56" viewBox="0 0 56 56" xmlns="http://www.w3.org/2000/svg"><path fill="#F0F3FA" d="M0 0h56v56H0z"/><path d="M9 28H7v6h4v-3h6.93c.5 0 1.12-.16 1.73-.32-.23-.5-.69-1.6-.66-2.68H9Z" fill="#18284C"/><path d="M17.6 22H9.4L7 25h10.6c1.13 0 2.06.59 2.06 1.02 0 .43-.16.87-.16 2.2.4 4.6 4.83 5.77 7.1 5.78H35v-7H24.06l2.54 3H31v1h-4.4c-3.14 0-3.35-2.1-3.35-2.66s.25-1.08.25-1.92c0-3.29-4.01-4.32-5.9-4.42Z" fill="url(#a)"/><path d="m26 22-.6.24c-.94.39-2.22.9-2.4 1.03.5.46 1.6 1.6 1.57 2.73a6.22 6.22 0 0 1 2.55-1H36v9h4V22H26Zm14 9h10l-2.33 3H40v-3Z" fill="url(#b)"/><defs><linearGradient id="a" x1="35" y1="28" x2="7" y2="28" gradientUnits="userSpaceOnUse"><stop stop-color="#7C6434"/><stop offset=".52" stop-color="#F5C754"/><stop offset="1" stop-color="#846537"/></linearGradient><linearGradient id="b" x1="50" y1="27.9" x2="23" y2="27.9" gradientUnits="userSpaceOnUse"><stop offset=".52" stop-color="#1D2B4E"/><stop offset=".66" stop-color="#355AB3"/><stop offset=".8" stop-color="#233670"/></linearGradient></defs></svg>