<!-- by TradingView --><svg width="18" height="18" viewBox="0 0 18 18" fill="none" xmlns="http://www.w3.org/2000/svg">
<rect width="18" height="18" fill="#F0F3FA"/>
<path d="M5 6.6592C5.01166 6.2955 4.98045 5.93158 4.91388 5.5743C4.89164 5.51164 4.7804 5.45229 4.59607 5.39952C4.44488 5.35511 4.15703 5.32964 4 5.32368V5.00484H7V5.32368C6.85756 5.33625 6.68401 5.36501 6.54762 5.40942C6.34422 5.46548 6.10532 5.51824 6.10532 5.5743C6.02674 5.94447 5.99109 6.32643 6 6.70537V11.2428C5.99109 11.6218 6.02674 11.9905 6.10532 12.3607C6.10532 12.4168 6.35375 12.4827 6.54762 12.5355C6.68439 12.5771 6.85787 12.5937 7 12.6047V13H4V12.6047C4.15132 12.5961 4.4335 12.5718 4.58018 12.5322C4.7804 12.4827 4.89799 12.4267 4.89799 12.3607C4.96454 12.0057 5.01164 11.6439 5 11.2824V6.6592ZM14 10.6987C13.9632 11.0119 13.908 11.3225 13.8347 11.6287C13.8031 11.9172 13.7246 12.1982 13.6027 12.4596C13.0349 12.8136 12.1037 12.9906 10.8092 12.9906C8.74938 13.0191 7 11.5255 7 9.01367C7 6.50181 8.82965 5.00048 10.9395 5.00047C11.8928 5.00464 13.0659 5.10626 14 5.30385V7.05152C14 7.13396 13.6727 7.23293 13.5106 7.23293C13.4311 7.23293 13.3803 7.21315 13.358 7.17028C13.3326 7.06475 13.304 6.95923 13.269 6.84052C13.2129 6.68932 13.1382 6.54633 13.0466 6.41513C12.9337 6.25171 12.7964 6.1081 12.6398 5.98974C12.4327 5.84064 12.2027 5.72914 11.9596 5.65998C11.6396 5.56361 11.3076 5.51694 10.9744 5.52149C9.33496 5.52013 7.99081 7.23533 8 8.75976C7.97078 10.5356 9.25863 12.5182 11.235 12.4695C11.5674 12.493 11.9006 12.4417 12.2122 12.3194C12.5237 12.197 12.8061 12.0064 13.0402 11.7606C13.1627 11.6199 13.2606 11.458 13.3294 11.2824C13.4089 11.0846 13.4724 10.9164 13.5137 10.7845C13.5551 10.6526 13.59 10.5833 13.6154 10.5833C13.6724 10.5857 13.7288 10.5945 13.7839 10.6097L13.9428 10.6559L14 10.6987Z" fill="#73797C"/>
</svg>
