<!-- by TradingView --><svg width="56" height="56" viewBox="0 0 56 56" xmlns="http://www.w3.org/2000/svg"><path fill="#365A67" d="M0 0h56v56H0z"/><path fill-rule="evenodd" d="M13.7 15.43H13V15h3.4c.41.03 1.22.33 1.22 1.23 0 .9-.65 1.42-.97 1.57.45.03 1.35.36 1.35 1.48 0 1.4-1.5 1.72-2.07 1.72H13v-.4h.7v-5.17Zm.92 2.2v-2.29h.96c.37.05 1.1.33 1.1 1.03 0 .88-.61 1.21-.92 1.26h-1.14Zm0 2.94v-2.39h1.8c.2.1.6.45.6 1.03 0 .98-.69 1.31-1.03 1.36H14.6Zm3.85-3.8.33.53c.18-.17.7-.53 1.34-.53.8 0 .93.62.93.84v.3c-.99 0-2.67.38-2.67 1.84.03.41.34 1.23 1.34 1.23.64 0 1.07-.28 1.33-.57v.23c0 .12.11.36.52.36.4 0 .7-.24.8-.36v-.14c-.16.01-.48-.02-.48-.3v-2.9c-.02-.43-.37-1.3-1.55-1.3-1.18 0-1.75.61-1.89.77Zm2.6 3.05v-1.39c-1.4.19-1.75.73-1.75 1.13 0 .42.23.77.77.77.4 0 .79-.3.98-.51Zm7.63-2.52-.33-.53c.14-.16.71-.77 1.9-.77 1.17 0 1.52.87 1.54 1.3v2.9c0 .28.32.31.47.3v.14c-.09.12-.38.36-.8.36-.4 0-.48-.24-.48-.36v-.26c-.26.3-.7.6-1.36.6-1 0-1.3-.82-1.34-1.23 0-1.47 1.72-1.84 2.7-1.84v-.3c0-.22-.16-.84-.96-.84-.65 0-1.16.36-1.34.53Zm2.3 1.13v1.36c-.18.2-.6.54-1 .54-.55 0-.78-.35-.78-.77 0-.4.36-.95 1.78-1.13Zm-8.35-1.54v-.59l1.32-.3v.7c.36-.3.97-.7 1.64-.7 1.05 0 1.39.92 1.39 1.25v3.43h.55V21h-2.07v-.32h.64v-3.14c0-.26-.16-.79-.82-.79-.51 0-1.02.38-1.33.69v3.22h.64V21h-1.96v-.34h.54V16.9h-.54Zm10.08 2.48h.48c.04.38.3 1.13.95 1.13.82 0 1.45-1.05.18-1.6-1.27-.54-1.61-.78-1.61-1.63 0-.86.89-1.27 1.74-1.27.68 0 1.14.36 1.29.54v.89h-.52c-.03-.3-.23-.9-.81-.9-.72 0-.83.45-.83.66v.06c-.02.2-.03.46.74.77.87.35 1.66.88 1.66 1.64 0 .75-.89 1.34-1.84 1.34a2.4 2.4 0 0 1-1.43-.4v-1.23ZM13 25v.41l1 .17v4.96h-1V31h2.72v-.46h-.87V28.3h1.2l.2.7h.36v-1.9h-.36l-.2.72h-1.2V25.5h1.75l.27.8h.62l-.1-1.29H13Zm7.43 2.24v.47H21v3.02h-.57V31h2v-.27h-.7v-2.54c.3-.25.82-.59 1.35-.59.65 0 .92.42.92.63v2.51h-.75V31h2.05v-.26h-.57V28c0-.27-.31-1-1.34-1-.7 0-1.33.35-1.66.6V27l-1.3.24Zm5.64.38.33.42c.18-.14.7-.42 1.34-.42.81 0 .94.5.94.67v.24c-.99 0-2.68.3-2.68 1.47.03.33.35.99 1.34.99.64 0 1.08-.23 1.34-.46v.18c0 .1.11.29.52.29.41 0 .7-.2.8-.29v-.11c-.16.01-.48-.02-.48-.25v-2.3c-.02-.36-.36-1.05-1.55-1.05s-1.76.5-1.9.62Zm2.61 2.43v-1.1c-1.4.14-1.76.58-1.76.9 0 .34.23.61.78.61.4 0 .78-.24.98-.4Zm1.91-2.34v-.47L32 27v.52c.35-.24.93-.52 1.56-.52 1.03 0 1.24.73 1.24 1v2.74h.66V31h-2.04v-.26H34v-2.5c0-.22-.1-.64-.75-.64-.48 0-.94.27-1.25.5v2.63h.59V31h-2v-.27h.55V27.7h-.55ZM19 25.5a.5.5 0 1 1-1 0 .5.5 0 0 1 1 0Zm-1.32 1.74v.47h.56v3.02h-.56V31h2v-.27H19V27l-1.32.24Zm21.81 1.03h-.6v-.7c-.07-.06-.3-.17-.7-.17-.5 0-1.22.52-1.22 1.54s.45 1.55 1.22 1.55c.61 0 1-.19 1.13-.28l.28.33c-.52.43-1.05.46-1.5.46-.44 0-2.1-.35-2.1-1.92C36 27.5 37.5 27 38.19 27c.73 0 1.02.16 1.23.26l.07.04v.97ZM44 29h-2.94c0 .83.38 1.5 1.25 1.5.69 0 1.2-.25 1.38-.38l.22.37c-.21.17-.86.51-1.79.51C40.4 31 40 29.63 40 29.17c0-.47.16-2.17 2.11-2.17 1.57 0 1.91.99 1.89 1.48V29Zm-.92-.4h-2.01c0-.12 0-1.16 1-1.16.8 0 1 .77 1.01 1.15ZM13 41v-.41l.75-.17v-4.96H13V35h2.73v.46H14.6v5.05h2.02l.46-1.3h.62L17.4 41H13Zm7-5.5a.5.5 0 1 1-1 0 .5.5 0 0 1 1 0Zm-1.3 1.74v.47h.49v3.02h-.48V41h2v-.27H20V37l-1.3.24ZM30 36a.5.5 0 1 0 0-1 .5.5 0 0 0 0 1Zm-1 1.71v-.47l1.36-.24v3.73h.65V41H29v-.27h.55V37.7H29ZM39 39h-2.99c0 .83.37 1.5 1.2 1.5.68 0 1.17-.25 1.34-.38l.21.37c-.2.17-.83.51-1.72.51A1.91 1.91 0 0 1 35 39.17c0-.47.15-2.17 2.04-2.17 1.51 0 1.98.99 1.96 1.48V39Zm-1-.48h-2c0-.13 0-1.23 1-1.23.8 0 1 .82 1 1.23Zm-17-1.28v.47h.54v3.02H21V41h1.97v-.27h-.63V38c.33-.2.82-.44 1.25-.44.58 0 .75.42.77.63v2.55h-.4v.24h1.9v-.24h-.63v-2.67l-.01-.15c.32-.18.74-.36 1.11-.36.58 0 .76.42.77.63v2.55h-.4v.24h1.91v-.24H28v-2.67c0-.46-.35-1.06-1.3-1.06-.66 0-1.27.37-1.57.62-.16-.33-.51-.62-1.17-.62-.7 0-1.34.41-1.62.67V37l-1.34.24Zm11 .13h-.67V37h.66l.34-1h.55v1h1.35v.37h-1.35v2.82c0 .1.08.3.5.3s.67-.14.74-.22l.32.33c-.17.14-.71.4-1.49.4-.77 0-.95-.62-.95-.93v-2.7Zm9.78-1.8v-.38l1.54-.19v5.08c0 .37.3.41.68.41v.17c-.08.11-.39.34-.92.34-.1-.01-.39-.08-.52-.28-.27.16-.69.28-1.32.28-1.27 0-1.69-1.13-1.74-1.7 0-1.88 1.45-2.3 2.25-2.3.32 0 .57.05.75.12v-1.55h-.72Zm.72 1.94c-.18-.06-.44-.1-.75-.1-.76 0-1.37.77-1.37 1.57 0 .79.38 1.62 1.21 1.62.41 0 .71-.16.91-.33v-2.76Z" fill="#fff"/></svg>