<!-- by TradingView --><svg width="56" height="56" viewBox="0 0 56 56" xmlns="http://www.w3.org/2000/svg"><path fill="#F0F3FA" d="M0 0h56v56H0z"/><path fill-rule="evenodd" d="M44 28a16 16 0 1 1-32 0 16 16 0 0 1 32 0Zm-2 0a14 14 0 1 1-28 0 14 14 0 0 1 28 0Zm-9.14-2.45c.37-.38.54-.3.53.22 0 .24-.06.67-.15.94a20.9 20.9 0 0 1-1.96 4.5 85.15 85.15 0 0 0-1.88 3.1c-.62 1.1-.9 2.72-.22 3.85.37.61.64.97 1.29.98 1.04.02 2.15.02 3.3.01a.5.5 0 0 0 .48-.36 29.22 29.22 0 0 1 2.91-6.73c.27-.46.15-.62-.36-.47-1.7.5-2.48 1.8-3.49 3.48l-.17.29c-.16.27-.33.28-.5.04a.23.23 0 0 1-.04-.12 7.54 7.54 0 0 1 .43-3.13A62.01 62.01 0 0 1 35 27.34a5.9 5.9 0 0 0-.34-5.87c-.22-.35-.44-.37-.67-.08a25.47 25.47 0 0 1-3.27 3.49 95.4 95.4 0 0 0-2.24 1.98 13.96 13.96 0 0 0-3.6 6.08.23.23 0 0 1-.4.06c-.85-1.23-1.06-2.62-.06-3.9.72-.94 1.58-1.92 2.55-2.94a18.83 18.83 0 0 0 2.77-3.81 3.6 3.6 0 0 0-.16-3.58 5.22 5.22 0 0 0-4.93-2.39c-1.23.06-2.21.53-2.95 1.43-.16.2-.26.49-.34.73l-.1.27a.27.27 0 0 1-.06.09.23.23 0 0 1-.1.05c-.04.01-.24.02-.58.02-.96-.01-1.26 1.31-1.29 2.1a.12.12 0 0 0 .13.13 3.6 3.6 0 0 0 1.56-.4c.21-.1.35-.33.47-.55l.06-.1a.08.08 0 0 1 .06-.03.08.08 0 0 1 .07.02c1.17 1.1 2.36.46 3.58-.19l.1-.06c.39-.2.71-.27.98-.2.75.18 1.34 1.13 1.08 1.83a5.8 5.8 0 0 1-1.17 1.87 36.26 36.26 0 0 1-3.96 3.7c-1.61 1.32-2.83 2.95-2.98 5.1-.25 3.53 1.32 5.71 4.7 6.55a18.13 18.13 0 0 0 2.78.39.22.22 0 0 0 .15-.22c-.08-1.38-.08-3.17.24-4.5a13.14 13.14 0 0 1 2.06-4.72 19.86 19.86 0 0 1 1.76-2.18l1.96-1.96Z" fill="#CEAD6C"/></svg>