<!-- by TradingView --><svg width="56" height="56" viewBox="0 0 56 56" xmlns="http://www.w3.org/2000/svg"><path fill="#C1C1C0" d="M0 0h56v56H0z"/><path d="M27.09 22.4a21.58 21.58 0 0 1 4.76-5.43c.93-.69 1.65-.97 2.62-.97 2.3.02 4.17 2.62 5.56 4.75l4.2 6.38a10.25 10.25 0 0 1 1.52 3.22c.7 2.92-.03 6.76-2.62 8.25-.49.28-.98.4-1.47.4-1.17-.01-2.29-.76-3.03-1.86-1.4-2.06-2.8-4.32-4.17-6.45a.4.4 0 0 0-.33-.19.42.42 0 0 0-.34.18c-1.66 2.38-3.05 4.88-5.02 6.98-1.14 1.2-2.69 2.07-4.01.46a6.51 6.51 0 0 1-1.1-1.91c-.58-1.6-1.18-3.1-1.8-4.49a.36.36 0 0 0-.3-.22.36.36 0 0 0-.33.19C20.07 33.79 17 39 14.13 39a3.04 3.04 0 0 1-2.03-.94c-1.95-1.87-2.56-5.26-1.75-7.96.27-.9.75-1.88 1.45-2.92 2.4-3.61 4.31-7.93 7.22-10.77 2.79-2.71 5.95-1.33 6.43 2.6.16 1.25.35 2.34.58 3.73.02.14.15.26.28.26.3 0 .62-.36.78-.6Z" fill="#DF2123"/></svg>