<!-- by TradingView --><svg width="56" height="56" viewBox="0 0 56 56" xmlns="http://www.w3.org/2000/svg"><path fill="#F0F3FA" d="M0 0h56v56H0z"/><path d="M12.01 26.8C11.67 36.15 18.07 44 27.96 44 39.02 44 44 37 44 30.16c-.14-1.9-1.37-3.18-3.4-3.12-.86.02-3.65 1.4-2.45 2.29.96.7 1.83-.03 2.46 1.22C43 35.16 36.01 42 27.96 42 19.78 41.67 13 34 13 27.04 13 20.08 19.63 13 28 13c4.7 0 7.2 3.25 10.96 5.1.2.1.47.08.67 0 .28-.12.33-.49.27-.75-2.89-3.85-8.5-5.34-11.3-5.35-8.2-.02-16.25 6.28-16.59 14.8Z" fill="#0076AE"/><path d="M18.02 27.94C17.65 32.78 22.52 39 28.95 39c.4-.12.46-.5.46-.86 0-.33-.03-.44-.34-.54-1.81-.57-10-1.93-10.06-9.52-.02-5.2 4.9-9.98 10.39-9.35a6 6 0 0 1 5.18 5.65c0 2.88-2.03 6.08-5.22 6.33-1.5.12-2.68 1.83-.55 2.03.32.03.46.03.57 0 4.26-.82 7.8-4.06 7.63-8.43-.13-3.6-3.52-6.05-7.05-6.28-5.88-.42-11.48 4.2-11.94 9.91Z" fill="#46A5D6"/><path d="M25.1 26.68c-.37 1.35.43 2.4 1.34 3.22.1.1.16.12.24.09.12-.04.1-.2-.05-.36-.74-.84-.55-2.13-.28-2.91.46-.98 1.55-1.32 2.4-1.24.53.04 1.24.12 1.26-.6-.12-.55-.47-.8-1.04-.86a3.42 3.42 0 0 0-3.87 2.66Z" fill="#F15E4A"/></svg>