<!-- by TradingView --><svg width="56" height="56" viewBox="0 0 56 56" xmlns="http://www.w3.org/2000/svg"><path fill="#F0F3FA" d="M0 0h56v56H0z"/><path d="M43 32v-.22h.3c.75 0 .7-.57.7-1.2v-5.16c0-.64.05-1.2-.7-1.2H43V24h3.23C48.8 24 51 25.08 51 27.96c0 2.59-1.99 4.04-4.45 4.04H43Zm2-.58c.5.11 1.18.17 1.51.17 2 0 3.49-1.73 3.49-3.59 0-1.9-1.51-3.55-3.53-3.55-.35 0-1.02.06-1.47.17v6.8ZM42 24v2h-.23c-.05-.33-.11-.69-.19-.83-.13-.23-.3-.4-.5-.5-.22-.11-.5-.17-.84-.17H39v6.11c0 .67.19 1.17.95 1.17h.3V32H36.7v-.22h.3c.76 0 1-.51 1-1.17v-6.1h-1.12c-.39 0-.66.02-.83.07-.21.08-.4.22-.55.43-.15.22-.24.63-.27.99H35v-2h7ZM35.83 29.79l.17.04-.6 2.17H30v-.22h.26c.71 0 .74-.65.74-1.2v-5.16c0-.57-.03-1.2-.74-1.2H30V24h3.16v.22c-1-.01-1.16.41-1.16 1.33v5.03c0 .85.25.91 1.07.91h.5c.54 0 .92-.04 1.13-.13.22-.1.42-.25.6-.48.17-.23.35-.6.53-1.1ZM22 28.25v2.33c0 .63.33 1.2 1.07 1.2h.3V32H20v-.22h.3c.75 0 .7-.58.7-1.2v-5.16c0-.63.05-1.2-.7-1.2H20V24h2.89c1.41 0 3.11.5 3.11 2.21 0 1.69-1.6 2.35-3.05 2.17-.22-.03-.7-.07-.95-.13Zm0-.33c.2.04.63.07.79.09.86.1 2.21-.8 2.21-1.8s-.95-1.73-2-1.73c-.2 0-.69.04-1 .11v3.33Z" fill="#543B2B"/><path d="M19 24v2.5h-.2c-.2-.6-.4-1.14-.72-1.45a2.53 2.53 0 0 0-1.8-.66c-1.93 0-2.94 1.72-2.94 3.49 0 1.76 1.04 3.74 3.02 3.74a3.29 3.29 0 0 0 1.64-.43V29c0-.8-.19-.99-1-.99v-.21h3V28h-.15c-.67 0-.85.43-.85.98v2.34c-.45.24-.77.4-1.2.52-.43.1-.92.16-1.45.16-2.27 0-4.35-1.47-4.35-3.88a4.16 4.16 0 0 1 4.95-4.05c.23.04.57.14 1 .3.21.08.36.12.43.12s.14-.04.19-.1c.05-.07.08-.2.1-.39H19ZM7 24.44v2.95h1.72c.33 0 .57-.07.72-.22.16-.15.26-.44.32-.88H10V29h-.24c0-.31-.05-.54-.13-.68a.72.72 0 0 0-.31-.33 1.26 1.26 0 0 0-.6-.11H7v2.7c0 .65.35 1.2 1.13 1.2h.29V32H5v-.22h.28c.72 0 .72-.55.72-1.2v-5.16c0-.65.06-1.2-.72-1.2H5V24h6v1.76h-.2c-.1-.38-.23-.65-.36-.82-.14-.18-.3-.3-.5-.39-.2-.07-.5-.11-.92-.11H7Z" fill="#543B2B"/></svg>