<!-- by TradingView --><svg width="18" height="18" viewBox="0 0 18 18" xmlns="http://www.w3.org/2000/svg"><path fill="#F0F3FA" d="M0 0h18v18H0z"/><path d="M5.4 12c-2.22 0-2.5-1.36-2.37-2h1.73c.26.42.65.67 1 .67.37 0 .83-.13.83-.59 0-.45-.83-.34-1.95-.64-.9-.23-1.03-1.14-.98-1.56C3.73 7.25 4.4 6 6.54 6s2.38 1.37 2.24 2H6.95c-.02-.15-.18-.57-.6-.57-.53 0-.71.3-.68.45.02.15.06.36 1.08.52 1.01.16 1.84.69 1.84 1.41 0 .73-.4 2.19-3.18 2.19ZM9.97 6l-1.16 6h.86l.79-4.16.8 2.8h.62l1.93-2.67-.93 4.03h.93L15 6h-.84l-2.47 3.57-1-3.57h-.72Z" fill="#193463"/></svg>