<!-- by TradingView --><svg width="56" height="56" viewBox="0 0 56 56" xmlns="http://www.w3.org/2000/svg"><path fill="#F0F3FA" d="M0 0h56v56H0z"/><path d="M15 17.44c0-1.9 1.57-3.44 3.5-3.44h.5v14.38h-4V17.44Z" fill="#F79939"/><path d="M20.99 17.91 9 37.55a4.56 4.56 0 0 0 5.9-1.8l9.86-16.05c.9-1.23 2.15-3.7 0-3.7a4.37 4.37 0 0 0-3.77 1.91Zm7.66 0-12 19.64a4.56 4.56 0 0 0 5.9-1.8l9.86-16.05c.9-1.23 2.15-3.7 0-3.7a4.37 4.37 0 0 0-3.76 1.91Zm-4.33 19.64 9.6-15.52c.36-.63.88-.87 3.03-.87s.9 2.47 0 3.7l-6.74 10.9a4.56 4.56 0 0 1-5.9 1.79Z" fill="#003048"/><path d="m22.65 16.46 11.83 19.42c.62 1.08 2.66 2.95 5.86 1.71l-12.1-19.82c-.48-.58-1.88-1.77-3.32-1.77s-2.1.3-2.27.46Zm7.66 0 11.83 19.42c.62 1.08 2.66 2.95 5.86 1.71L35.9 17.77c-.48-.58-1.88-1.77-3.32-1.77s-2.1.3-2.27.46Z" fill="#F79939"/></svg>