<!-- by TradingView --><svg width="56" height="56" viewBox="0 0 56 56" xmlns="http://www.w3.org/2000/svg"><path fill="#F0F3FA" d="M0 0h56v56H0z"/><path d="M48 28.58v1.52c0 .13.04.23.15.3l.53.3c.07.03.09.08.07.15-.01.05-.05.09-.1.12a.13.13 0 0 1-.06.01l-5.83.02c-.11 0-.17-.06-.17-.16 0-.07.02-.11.08-.13l.67-.23c.11-.04.17-.11.18-.23.05-1.17.05-2.58 0-3.58-.04-.67-.4-.93-1.06-.79l-.46.14c-.63.21-1 .64-1 1.28v2.91c0 .13.12.23.26.27l.74.26c.06.02.08.06.08.11 0 .04-.02.07-.05.1a.12.12 0 0 1-.1.05h-2.88c-.04 0-.05-.02-.05-.05l.02-.19c0-.05.03-.08.08-.08.27-.04.5-.12.68-.24.1-.07.22-.17.22-.3v-4.18c0-.13-.12-.38-.24-.43-.15-.07-.33-.1-.55-.07-.09 0-.13-.03-.15-.12l-.02-.18c-.02-.1.02-.14.12-.14h1.67c.17 0 .17.09.17.26v.49c0 .14.14.16.24.06a2.86 2.86 0 0 1 2.1-.83c.56 0 .94.36 1.14.8.1.21.14.6.13 1.19-.01 1.01 0 2.23.05 3.02.03.43.26.64.69.64h.8c.46 0 .85-.22.85-.66v-6.25c0-.11-.22-.18-.33-.2l-.73-.2c-.08-.01-.12-.06-.13-.14l.02-.09a.2.2 0 0 1 .19-.11h1.78c.12 0 .2.06.2.17v4.55c0 .06 0 .1.06.12.05.03.1.02.15-.02l1.7-1.55c.15-.12.14-.23-.03-.31-.08-.04-.2-.05-.36-.03-.1.01-.15-.02-.16-.11l-.02-.16c-.02-.11.03-.17.15-.17h1.9c.1 0 .19.04.24.13.04.07.05.14.02.2a.12.12 0 0 1-.1.06l-.43.06a.6.6 0 0 0-.31.14L49.1 27.5c-.2.16-.2.33-.05.5l2.03 2.3c.07.09.15.14.26.17.32.1.53.2.62.32.07.1.05.16-.08.17-.31.03-.7.05-1.18.04-.25 0-.54-.18-.85-.53-.36-.39-.65-.78-.94-1.17-.2-.27-.4-.55-.63-.82-.2-.24-.28-.2-.28.1Zm-35.77-2.72c.53-.48 1.08-.85 1.82-.86 1-.01 1.42.6 1.45 1.82v3.44c0 .11.18.19.29.22.15.05.36.09.5.11l.14.03c.16.13.1.32 0 .38h-2.68c-.1 0-.15-.11-.12-.2l.01-.1h.05c.24-.04.45-.1.65-.2.12-.05.16-.14.16-.27V26.7c0-.71-.34-1-1.05-.84l-.39.1c-.68.19-1.06.63-1.06 1.32v2.96c0 .16.11.25.26.29.28.06.47.11.58.17.35.19.31.3-.1.3h-2.6c-.12 0-.15-.07-.1-.17l.07-.1a.2.2 0 0 1 .14-.1c.24-.04.45-.11.63-.23.1-.06.12-.14.12-.25v-1.6c.01-1.46.02-2.85 0-4.16 0-.64-.28-.98-.81-1-.12 0-.18-.07-.17-.19v-.1c.01-.07.05-.1.11-.1h1.72c.11 0 .15.05.15.16v2.65c.01.12.14.13.23.05Zm-3.68 1.09c-.74-.42-1.42-.84-2.02-1.26-.11-.09-.23-.34-.34-.77-.14-.56 0-.98.44-1.24.42-.25.89-.28 1.42-.09.34.12.5.45.51.97 0 .16.08.24.24.24H9c.18 0 .27-.1.27-.27v-1c0-.12-.06-.2-.18-.24a4.68 4.68 0 0 0-2.55-.19c-.9.23-1.4.84-1.5 1.82-.06.57.17 1.1.68 1.58a8.32 8.32 0 0 0 1.78 1.17c.48.27.78.56.9.85.23.6.17 1.11-.2 1.53-.49.57-1.18.65-2.06.26-.17-.07-.3-.22-.39-.44a5.53 5.53 0 0 1-.22-.63c-.03-.13-.11-.18-.24-.16l-.13.02c-.1.01-.15.07-.15.18v1.23c0 .12.06.2.19.24 1.1.28 1.99.32 2.67.14 1.33-.35 1.9-1.23 1.68-2.63-.08-.55-.41-.99-1-1.31Zm11.9 3.4c-.3.15-.5.25-.57.3-.71.48-1.43.46-2.15-.06a1.2 1.2 0 0 1-.49-.93c-.1-1.2.43-1.9 1.57-2.09.5-.09.9-.12 1.2-.1.31.01.54-.14.49-.45v-.71c0-.34-.5-.73-.76-.75-.77-.08-1.22.17-1.35.75a.33.33 0 0 1-.22.25c-.15.05-.23.08-.25.07a.68.68 0 0 1-.4-.66c0-.3.13-.52.4-.64a3.77 3.77 0 0 1 1.82-.32c.8.04 1.33.32 1.58.83.12.23.2.74.18 1.51v2.56c.02.28.24.43.63.46.1 0 .17.06.18.16v.13c0 .12-.07.2-.18.23-.66.22-1.14.06-1.42-.46-.06-.1-.15-.13-.26-.08Zm-.02-.55v-1.45c0-.3-.13-.46-.43-.48h-.13c-.4-.02-.75.08-1.04.3a1 1 0 0 0-.45.78v.12c-.02.32.1.6.38.83.27.24.6.36 1 .38h.13c.3.02.52-.17.54-.48Zm16 .85.57-.3c.1-.05.19-.03.25.08.28.52.75.68 1.4.46.1-.03.17-.11.18-.23v-.13c-.02-.1-.08-.16-.18-.16-.39-.03-.63-.18-.65-.46v-2.56a4.06 4.06 0 0 0-.14-1.51c-.26-.5-.78-.79-1.56-.83a3.65 3.65 0 0 0-1.79.32.66.66 0 0 0-.4.64c0 .3.14.52.4.66l.24-.07c.12-.04.2-.12.22-.25.13-.58.57-.83 1.32-.75.27.02.71.4.71.75v.7c.05.32-.13.47-.44.45-.29-.01-.68.02-1.18.11-1.12.2-1.63.9-1.54 2.09.03.41.2.72.48.93.71.52 1.42.54 2.12.06Zm.57-2.3v1.45c-.01.3-.26.5-.55.49l-.13-.01c-.65-.03-1.52-.48-1.5-1.21v-.12c.04-.73.95-1.11 1.6-1.08h.13c.3.02.46.18.45.48Zm-12.85 2.03c.48.2.89.22 1.22.07.36-.16.66-.51.63-1.05-.01-.27-.26-.47-.5-.58a88.1 88.1 0 0 1-1.82-.84c-.24-.12-.44-.43-.59-.9-.18-.61-.06-1.12.35-1.52.38-.38.9-.56 1.52-.56s1.13.1 1.55.27c.1.05.15.13.15.24v1.07c0 .12-.06.18-.18.17l-.31-.02c-.1 0-.16-.06-.17-.17-.03-.45-.15-.74-.33-.87-.4-.28-.8-.28-1.23 0a.9.9 0 0 0-.44.76c0 .4.43.7.92.88.73.26 1.34.6 1.82 1 .1.07.15.17.18.29.25 1.16-.1 1.9-1.05 2.21-.79.27-1.68.22-2.69-.15-.12-.04-.18-.13-.18-.26v-1.04c0-.22.1-.33.33-.33h.13c.16 0 .23.08.21.25-.06.56.1.93.48 1.08Zm6.9-5.38c-.74.01-1.29.38-1.82.86-.09.08-.22.07-.23-.05v-2.64c0-.12-.04-.17-.15-.17h-1.72c-.06 0-.1.03-.1.1l-.01.1c-.01.12.05.18.17.19.53.02.8.36.81 1 .02 1.3.01 2.7 0 4.17v1.59c0 .1-.03.2-.12.25-.18.12-.4.2-.63.23a.2.2 0 0 0-.14.1l-.06.1c-.06.1-.03.17.09.17h2.6c.41 0 .45-.11.1-.3-.1-.06-.3-.11-.58-.17-.15-.04-.26-.13-.26-.29v-2.96c0-.7.38-1.13 1.06-1.32l.39-.1c.71-.15 1.05.13 1.05.84v3.53c0 .13-.04.22-.16.28a2.16 2.16 0 0 1-.7.2l-.01.08c-.03.1.01.2.12.21h2.68c.1-.06.16-.25 0-.38l-.14-.03a3.69 3.69 0 0 1-.5-.1c-.1-.04-.3-.12-.29-.23v-3.44c-.03-1.21-.45-1.83-1.45-1.82Z"/></svg>