<!-- by TradingView --><svg width="56" height="56" viewBox="0 0 56 56" xmlns="http://www.w3.org/2000/svg"><path fill="#F0F3FA" d="M0 0h56v56H0z"/><path d="M34.73 29.03c0-.03-.01-.03-.04.02a.05.05 0 0 1-.06.02l-.94-.13-1.98-4.38c0-.01 0-.02-.02-.02l-.02.01-2.41 3.68-.03-.05 2.45-5.07.02-.02c.01 0 .02 0 .02.02l3.01 5.92ZM52 31.92V32h-1.94c-.05 0-.1-.03-.14-.08l-.08-.1c-.27-.29-1.52-1.73-3.84-4.34-.02-.02 0-.02 0 .02v3.05c0 .42-.05.7.02.85.14.31.43.48.86.48.02 0 .02.01.02.03v.03c0 .03-.01.05-.04.05h-2.84c-.01 0-.02 0-.02-.02v-.03c0-.04.02-.06.05-.06.43-.01.71-.17.85-.47.06-.14.1-.42.1-.83v-6.64a.74.74 0 0 0-.47-.71c-.14-.07-.3-.11-.51-.14l-.02-.02v-.02l.04-.03.04-.02h2.77c.02 0 .03.02.03.04v.03c0 .03-.01.05-.04.05-.58.03-.82.32-.84.87-.02.6-.02 1.72 0 3.37 0 .02-.02.03 0 0 2.04-2.02 3.16-3.17 3.45-3.46.07-.06.14-.16.23-.3.05-.08.05-.17 0-.28-.02-.06-.09-.1-.2-.13a10.75 10.75 0 0 0-.45-.12l.01-.04.04-.03h2.47c.01 0 .03 0 .03.02v.04l-.03.03-.7.12c-.12.02-.26.09-.43.21-.16.12-.42.35-.78.7-1 1-1.96 1.95-2.87 2.83-.03.02-.03.04 0 .07l3.78 4.23a1.86 1.86 0 0 0 1.1.6l.35.07ZM4 32v-.08l.25-.07c.3-.06.5-.2.6-.42.07-.15.1-.41.1-.78v-6.36c.01-.27-.01-.49-.07-.65a.7.7 0 0 0-.4-.44 1.7 1.7 0 0 0-.24-.06 1.36 1.36 0 0 1-.24-.07v-.06L6.77 23c.01 0 .02 0 .03.02v.02c.02.03.01.05-.02.06-.2.04-.33.07-.4.1-.35.11-.52.41-.52.9v3.23c0 .06.02.06.05.02l3.34-3.42c.18-.19.28-.34.28-.45 0-.1-.02-.17-.07-.22a.5.5 0 0 0-.23-.09l-.32-.06c-.03 0-.04-.02-.04-.05v-.03c0-.01 0-.02.02-.02l2.37-.01c.03 0 .05.03.05.06v.02c0 .02-.01.03-.03.03l-.1.01-.52.09c-.19.05-.35.13-.47.24l-.54.5-2.95 2.97c-.04.04-.05.09 0 .13 1.36 1.59 2.54 2.95 3.52 4.07.27.31.53.52.77.62.14.06.37.11.69.16l.03.03-.01.04-.03.02h-.01L9.9 32a.25.25 0 0 1-.2-.1l-3.82-4.4c-.02-.03-.02-.03-.03 0v3.45c0 .44.18.73.54.88.04.02.1.03.2.04l.18.04c.03 0 .04.02.04.04l-.01.02-.03.02H4ZM26.75 29.69l-.76.53-4.88-5.61-.01-.01c-.05-.03-.07-.03-.07.02v5.83c0 .12.02.33.06.62.05.53.34.8.87.81.02 0 .03.02.03.04v.03c0 .03-.01.05-.04.05h-2.12c-.03 0-.04-.01-.04-.04v-.03a7.43 7.43 0 0 0 .08-.03c.28-.05.45-.1.53-.17.12-.12.2-.25.24-.4.07-.25.1-.54.1-.86.02-2.5.03-4.57.02-6.21a.14.14 0 0 0-.03-.1c-.1-.1-.23-.26-.4-.47a1.61 1.61 0 0 0-1.01-.57l-.04-.02-.02-.04c-.02-.04 0-.06.04-.06h1.5c.08 0 .14.03.2.09l5.75 6.6ZM28 31.9c-.02.05-.04.08-.08.1l-.07-.01a1.34 1.34 0 0 1-.65-1.36c.02-.16.13-.28.28-.38l.22.33h.03l.01-.02-.02-.41.01-.72c.01-2.2.02-3.92.01-5.13 0-.15-.02-.3-.04-.45a.97.97 0 0 0-.17-.42.75.75 0 0 0-.32-.24l-.38-.1h-.08c-.03-.01-.03-.03-.01-.05l.01-.03.03-.01h2.13c.03 0 .04.01.04.04v.04c0 .01 0 .02-.02.03-.25.04-.42.08-.5.12-.15.06-.26.2-.33.43-.06.17-.1.36-.1.57 0 2.56.04 5.12 0 7.68Z" fill="#3F65A5"/><path fill-rule="evenodd" d="M19.63 29.29a4.46 4.46 0 0 0-.9-4.92A4.45 4.45 0 0 0 15.57 23a4.45 4.45 0 0 0-3.2 1.27 4.46 4.46 0 0 0-1.05 4.89A4.46 4.46 0 0 0 15.43 32a4.45 4.45 0 0 0 3.2-1.27c.43-.41.76-.9 1-1.44Zm-2.32-5.51a3.38 3.38 0 0 0-1.83-.5c-.68 0-1.3.18-1.83.52s-.94.81-1.22 1.42c-.29.65-.43 1.41-.43 2.3 0 .89.15 1.65.45 2.3a3.2 3.2 0 0 0 3.07 1.9 3.2 3.2 0 0 0 3.05-1.94c.29-.64.43-1.4.43-2.29 0-.89-.16-1.65-.45-2.3-.29-.6-.7-1.07-1.24-1.41ZM34.77 29.14c-.35-.06-.7-.07-1.05-.05a126.4 126.4 0 0 1 .85 2.02c.11.27.1.48-.02.65-.04.05-.11.09-.21.1a5.75 5.75 0 0 1-.26.06v.04c0 .02.01.03.04.03h5.23l.02-.01c.02-.03.02-.05-.02-.06l-.28-.07c-.43-.1-.65-.39-.65-.89v-3.3c0-.03 0-.04.03-.04a1.9 1.9 0 0 1 1.43.5c.3.29.53.56.69.81l1.13 1.9c.14.23.36.58.67 1.03l.02.02c.05.08.12.11.21.11H44c.04 0 .08 0 .1-.03.02-.02.02-.03 0-.04a1.89 1.89 0 0 1-1.13-.85c-.23-.36-.61-1.01-1.16-1.97-.18-.31-.39-.6-.61-.87-.25-.3-.53-.52-.83-.67-.03-.01-.03-.03 0-.04l.12-.04c.27-.08.46-.15.57-.21a2.06 2.06 0 0 0 1.12-2 2.22 2.22 0 0 0-1.75-2.18 3.4 3.4 0 0 0-.81-.09h-3c-.02 0-.04.02-.04.05 0 .04 0 .06.02.06.24.03.42.08.55.17.15.1.25.23.3.4.05.13.07.3.07.52v6.73c0 .5-.21.81-.65.93-.2.05-.38.07-.52.04-.2-.04-.34-.16-.45-.38l-.97-2.05-.15-.33Zm3.68-1.75c1.2.06 1.99-.16 2.36-.65.22-.3.34-.65.36-1.08 0-.4-.07-.78-.24-1.12a1.8 1.8 0 0 0-1.37-1 3.56 3.56 0 0 0-1.06-.04c-.05 0-.08.04-.08.1v3.76c0 .02 0 .03.03.03Z" fill="#3F65A5"/><path d="M37.5 29.51v.02h.01-.01a23.92 23.92 0 0 0-7.04-.3c-.82.08-1.63.27-2.45.57l-.01-.51a20.58 20.58 0 0 1 9.5.22Z" fill="#828282"/><path d="m27.74 29.33-.02.68c-.13.07-.22.16-.2.24a.52.52 0 0 0-.27.38c-.09.5.1.89.58 1.14h.07a.14.14 0 0 0 .09-.08c-.01.12.02.2.09.24.56.27 1.27.48 2.13.64a23.36 23.36 0 0 0 3.54.39l-.01.01h-.02l-.52.03h-.24c-.66-.02-1.32-.05-1.97-.09-.74-.04-1.5-.12-2.27-.25a5.48 5.48 0 0 1-2.4-.96c-.13-.09-.27-.24-.4-.46-.76-1.11 1.03-1.66 1.82-1.9Z" fill="#828282"/></svg>