<!-- by TradingView --><svg width="18" height="18" viewBox="0 0 18 18" xmlns="http://www.w3.org/2000/svg"><path fill="#F0F3FA" d="M0 0h18v18H0z"/><path d="M9.94 5c.14-.05.27 0 .39.17.07.1.15.26.24.5l.08.2c1 1.96 1.96 3.9 2.88 5.83.03.07.03.13 0 .2-.04.07-.09.1-.16.1h-.63c-.17 0-.29-.08-.37-.25A541.04 541.04 0 0 0 9.5 5.96c-.1-.19-.12-.36-.04-.5.04-.1.15-.2.33-.35l.08-.07A.26.26 0 0 1 9.94 5Zm.95-.95c.2-.1.35-.05.44.13A49614.13 49614.13 0 0 1 15 11.75a.2.2 0 0 1-.04.16.15.15 0 0 1-.12.07l-.77.01a.14.14 0 0 1-.12-.06 2.15 2.15 0 0 1-.21-.38l-.54-1.12c-1.2-2.4-2.13-4.26-2.78-5.6-.08-.17.04-.4.36-.69l.07-.06a.16.16 0 0 1 .04-.03Zm-2.04 2c.2-.18.38-.14.5.13 1.15 2.32 2.05 4.16 2.7 5.51.04.08.05.13.05.17-.02.08-.07.12-.14.12h-.77c-.1.01-.19-.04-.24-.15L8.43 6.77a.27.27 0 0 1 .02-.28c.08-.14.21-.28.4-.44Zm-.93.86c.18-.09.33 0 .46.25.8 1.62 1.54 3.13 2.21 4.53.03.06.03.13 0 .2-.04.06-.08.1-.15.1H3.16c-.07 0-.12-.04-.15-.12-.02-.08 0-.15.05-.2L7.9 6.93l.02-.02Z" fill="#04D000"/></svg>