<!-- by TradingView --><svg width="18" height="18" viewBox="0 0 18 18" xmlns="http://www.w3.org/2000/svg"><path fill="#F0F3FA" d="M0 0h18v18H0z"/><path fill-rule="evenodd" d="M9 14c-.09-.19-.2-.36-.33-.53a4.79 4.79 0 0 0-.77-.74 4.43 4.43 0 0 0-.94-.41 8.91 8.91 0 0 0-.67-.18c-.6-.12-1.2-.3-1.74-.62a3.65 3.65 0 0 1-1.12-1.03c-.1-.16-.18-.33-.25-.5a2.51 2.51 0 0 1-.13-1.44 3.1 3.1 0 0 1 .3-.83A3.77 3.77 0 0 1 5.78 6h.02l.08-.03c.16-.06.33-.1.5-.14a31.09 31.09 0 0 1 .8-.18 2.27 2.27 0 0 0 .6-.25c.18-.1.34-.22.48-.35A2.73 2.73 0 0 0 9 4c.18.44.45.8.82 1.1a3.5 3.5 0 0 0 .65.43c.2.08.4.14.62.18l.44.1c.18.03.37.08.55.14h.02a3.94 3.94 0 0 1 2.64 1.95A2.86 2.86 0 0 1 15 9.3a2.83 2.83 0 0 1-.54 1.36c-.28.35-.62.64-1.02.87a4.92 4.92 0 0 1-1.72.61c-.24.05-.47.11-.7.18-.4.12-.8.28-1.1.56A4.13 4.13 0 0 0 9 14Zm0-.55a3.04 3.04 0 0 0-2.1-1.5 11.05 11.05 0 0 1-1.97-.68 2.84 2.84 0 0 1-.63-.46 2.48 2.48 0 0 1-.63-2.52c.18-.6.57-1.1 1.1-1.45.43-.29.93-.47 1.43-.6l.57-.16c.36-.1.7-.22 1.04-.38A2.7 2.7 0 0 0 9 4.56c.08.14.17.26.25.37.25.33.57.58.94.77.34.16.68.28 1.04.37l.57.16c.5.14 1 .32 1.43.6.53.35.92.87 1.1 1.45.28.9.04 1.86-.63 2.52a2.84 2.84 0 0 1-.81.56 11.04 11.04 0 0 1-1.79.6 3.04 3.04 0 0 0-2.1 1.5v-.01Zm0-8.31-.05.09c-.2.35-.49.63-.85.84a7 7 0 0 1-1.68.68 5.94 5.94 0 0 0-1.26.66c-.13.1-.24.22-.33.35a2.25 2.25 0 0 0-.2 2.22 1.94 1.94 0 0 0 .37.51c.17.15.36.27.56.38a8.43 8.43 0 0 0 1.37.55l.23.1A4.42 4.42 0 0 1 9 12.88a4.43 4.43 0 0 1 2.2-1.54c.32-.1.58-.2.86-.32a3.91 3.91 0 0 0 1.02-.63 2.24 2.24 0 0 0 0-2.77 1.9 1.9 0 0 0-.46-.39 5.9 5.9 0 0 0-1.26-.58 6.93 6.93 0 0 1-1.52-.65c-.36-.2-.66-.5-.84-.87Z" fill="#E31E24"/><path d="M5.4 7.5v1.2H6V8h.6v2h-.45v.5h1.8V10H7.5V8H8v.7h.7V7.5H5.4ZM9 7.5v1.2h.6V8h.6v2h-.45v.5h1.8V10H11V8h.7v.7h.6V7.5H9Z" fill="#F0F3FA"/><path d="M8.85 10.1c0 .2-.17.37-.38.37a.37.37 0 0 1-.37-.37c0-.2.17-.36.37-.36.21 0 .38.16.38.36Zm3.75 0c0 .2-.17.37-.38.37a.37.37 0 0 1-.37-.37c0-.2.17-.36.37-.36.21 0 .38.16.38.36Z" fill="#FEFEFE"/></svg>