<!-- by TradingView --><svg width="18" height="18" viewBox="0 0 18 18" xmlns="http://www.w3.org/2000/svg"><path fill="#F0F3FA" d="M0 0h18v18H0z"/><path d="M9.07 4a5 5 0 0 1 .02 10c.64-.53 1.47-1.51 1.47-2.8 0-.8-.3-1.57-.65-2.29l.36-.2-.27-.47-.33.2c-.49-.92-.98-1.76-.98-2.55 0-1.2.17-1.63.38-1.89Z" fill="url(#a)"/><path d="M8.9 4c-.6.53-1.62 1.74-1.62 3.08 0 .7.32 1.4.68 2.09l-.3.18.29.45.27-.16c.5.88 1 1.76 1 2.61 0 .73-.14 1.3-.3 1.7A4.98 4.98 0 0 1 8.9 4Z" fill="url(#b)"/><path d="M9.06 5c1.69 0 3.08 1 3.73 2.44A5 5 0 0 0 8.7 5.8c0-.32.01-.57.05-.79L9.06 5Z" fill="#A4A4E0"/><path d="M7.97 5.13c-.17.26-.33.56-.45.87-.89.27-1.68.77-2.29 1.44.51-1.13 1.52-2 2.74-2.31Z" fill="url(#c)"/><defs><linearGradient id="a" x1="9.28" y1="8.34" x2="12.21" y2="8.46" gradientUnits="userSpaceOnUse"><stop stop-color="#0E0E49"/><stop offset="1" stop-color="#08092F"/></linearGradient><linearGradient id="b" x1="7.48" y1="11.8" x2="6.61" y2="13.96" gradientUnits="userSpaceOnUse"><stop stop-color="#F74439"/><stop offset=".6" stop-color="#340C0D"/></linearGradient><linearGradient id="c" x1="7.73" y1="5.12" x2="6.11" y2="6.28" gradientUnits="userSpaceOnUse"><stop stop-color="#FFDBE9"/><stop offset="1" stop-color="#FC8CA3"/></linearGradient></defs></svg>