<!-- by TradingView --><svg width="56" height="56" viewBox="0 0 56 56" xmlns="http://www.w3.org/2000/svg"><path fill="#F0F3FA" d="M0 0h56v56H0z"/><path d="M17.34 13h21.32A4.34 4.34 0 0 1 43 17.34v21.32A4.34 4.34 0 0 1 38.66 43H17.34A4.34 4.34 0 0 1 13 38.66V17.34A4.34 4.34 0 0 1 17.34 13Zm10.64 13.35H28v-.01c.26-.52.5-.92.72-1.2 1.37-1.74 2.87-3.59 2.3-5.82-.38-1.43-1.52-2.62-3.04-2.62s-2.66 1.2-3.03 2.62c-.58 2.23.92 4.07 2.28 5.81a6.66 6.66 0 0 1 .74 1.22ZM28 33.9s.04-.13.09-.4c.49-2.86 5.16-3.5 7.45-3.87 1.41-.23 2.76-.86 2.62-2.52-.14-1.52-1.36-2.43-2.76-2.73-3.41-.73-6.07.9-7.36 4.02v.01a.07.07 0 0 1-.09 0c-1.3-3.13-3.95-4.76-7.36-4.03-1.4.3-2.63 1.21-2.76 2.73-.14 1.66 1.2 2.3 2.62 2.52 2.3.36 6.96 1 7.45 3.86.05.28.08.41.1.41Zm0 3.5.04-.02c.3-.6.6-1.1.93-1.53.44-.58 1.03-1.17 1.77-.6.18.14.31.28.41.43.34.5.66.94.96 1.33.95 1.21 2.51 1.5 3.98 1.1 1.5-.4 2.25-1.75 2.3-3.23.05-1.94-1.05-3.07-2.89-3.3-2.99-.34-5.68 1.37-7.44 3.62-.01.02-.03.03-.06.03-.02 0-.03-.01-.05-.03-1.76-2.25-4.45-3.96-7.44-3.61-1.84.21-2.94 1.35-2.88 3.3.04 1.46.8 2.82 2.3 3.22 1.46.4 3.02.11 3.97-1.1.3-.39.62-.83.96-1.33.1-.15.24-.3.4-.42.75-.58 1.34 0 1.78.6.32.42.63.93.93 1.52l.03.01Z" fill="#00A850"/></svg>