<!-- by TradingView --><svg width="18" height="18" viewBox="0 0 18 18" xmlns="http://www.w3.org/2000/svg"><path fill="#F0F3FA" d="M0 0h18v18H0z"/><path d="M10.72 4c0 .02.01.04.03.05v3.11l-.01.1H14v6.7l-.01.03-.03.01A36425.72 36425.72 0 0 1 4 13.98V4.03A.03.03 0 0 1 4.03 4h1.3v6.33H6V9.31l.03-.01h.03l1.5 1.03H8.6l-1.98-1.4a.03.03 0 0 1 0-.04l1.1-.7a.12.12 0 0 1 .08-.02h3.91c.08 0 .15.02.2.06.23.17.12.44-.17.44H9V12h.67V9.33h2.38c.42 0 .62-.3.62-.66v-.63c0-.25-.1-.42-.33-.52a.41.41 0 0 0-.17-.03H7.36a.17.17 0 0 0-.1.03c-.39.28-.76.64-1.12.9a.86.86 0 0 1-.1.07c-.01 0-.04 0-.04-.02V4h4.72Z" fill="#CF2C23"/><path d="M10.67 4H14v3.33h-3.33V4Z" fill="#020204"/><path d="M12.97 5.26c.23.1.46.08.69-.05.04-.02.08.01.1.05l-.01.03a.18.18 0 0 1-.06.06.84.84 0 0 1-.92-.06c-.26-.21-.4-.58-.27-.9.02-.04.04-.05.08-.04.06.02.02.14 0 .18-.08.28.15.62.39.73Z" fill="#F9E759"/><path d="M12.4 6.6a2.24 2.24 0 0 0 1.3.15.05.05 0 0 1 .04.04v.02c0 .04-.02.06-.07.07a2.25 2.25 0 0 1-2.66-2.48c.01-.05.05-.06.1-.05a.05.05 0 0 1 .03.05c-.1.94.4 1.82 1.26 2.2Z" fill="#F0F3FA"/><path d="M11.64 5.12A1.7 1.7 0 0 0 13.7 6.3l.03.02.01.03c.01.03 0 .05-.03.07-.15.06-.3.06-.47.06a1.83 1.83 0 0 1-1.78-2.06c0-.04.02-.06.06-.06h.01c.04 0 .06.02.05.06-.03.26 0 .5.06.71Z" fill="#F0F3FA"/><path d="M12.36 5.49a1.23 1.23 0 0 0 1.27.33.13.13 0 0 1 .1 0l.01.02c.01.05 0 .07-.04.1a1.37 1.37 0 0 1-1.78-1.52c0-.05.03-.07.08-.07h.03l.02.03v.02c-.06.43.04.8.31 1.09Z" fill="#F0F3FA"/></svg>