<!-- by TradingView --><svg width="56" height="56" viewBox="0 0 56 56" xmlns="http://www.w3.org/2000/svg"><path fill="#F0F3FA" d="M0 0h56v56H0z"/><path d="M28.02 28.9 44.95 16h.03c.02.01.02.02.02.03l-.43 4.02-.01.02-15.39 12.86v.04l2.64 3.24v.04l-3.85 4.74h-.05l-3.85-4.74v-.04l2.69-3.31v-.04l-15.3-12.8-.02-.01-.43-4.02c0-.01 0-.02.02-.03h.03l16.93 12.9h.04Z" fill="#160B8B"/><path d="M28 18.3c1.4 0 2.77.24 4.13.71 1.32.47 2.54 1.13 3.66 2 .02 0 .02.02 0 .04a12604.86 12604.86 0 0 1-7.8 5.9h-.02l-7.76-5.9c-.02-.02-.02-.03 0-.05a13.15 13.15 0 0 1 3.66-1.99c1.35-.47 2.73-.7 4.13-.7ZM44.48 21.68l.01.02-.13 1.58c0 .04-.02.08-.05.1l-1.05.89a.05.05 0 0 0-.01.06c.6 1.65.72 3.3.35 4.97a8.09 8.09 0 0 1-1.85 3.65 7.36 7.36 0 0 1-6.36 2.5 7.12 7.12 0 0 1-2.76-.92 8.23 8.23 0 0 1-1.76-1.35v-.05l13.58-11.45h.03Zm-2.17 3.4h-.03l-1.82 1.53c-.02.02-.02.04 0 .07.3.55.46 1.13.47 1.75v.68a4.22 4.22 0 0 1-1.36 2.68 3.6 3.6 0 0 1-5.02-.22h-.04l-1.87 1.58c-.02.01-.01.02 0 .04.98.69 2.06 1.06 3.26 1.13 1.19.06 2.3-.2 3.35-.8a6.63 6.63 0 0 0 3.04-3.67 7.31 7.31 0 0 0 .02-4.78ZM11.58 21.73l13.51 11.4c.03.02.03.04 0 .07a7.74 7.74 0 0 1-4.56 2.25c-.52.06-1.1.05-1.71-.02-.9-.1-1.77-.4-2.61-.87a8.17 8.17 0 0 1-3.94-5.81 8.52 8.52 0 0 1 .47-4.43l-.01-.04-1.07-.9a.12.12 0 0 1-.05-.09l-.07-1.54s0-.02.02-.02h.02Zm2.08 3.34a7.32 7.32 0 0 0 1.19 6.86 6.63 6.63 0 0 0 1.88 1.6c1.04.59 2.16.85 3.35.79a6.06 6.06 0 0 0 3.25-1.13c.02-.02.02-.03 0-.04l-1.87-1.58h-.04a3.6 3.6 0 0 1-5.02.22 4.2 4.2 0 0 1-.88-5.1c.02-.03.01-.06-.01-.08l-1.81-1.53a.04.04 0 0 0-.04 0Z" fill="#D89A2B"/></svg>