<!-- by TradingView --><svg width="56" height="56" viewBox="0 0 56 56" xmlns="http://www.w3.org/2000/svg"><path fill="#181B1E" d="M0 0h56v56H0z"/><path d="M16.79 20 8 32.03l8.79-8.56L27.76 34h5.21l8.73-10.53 6.3 8.56L41.7 20l-21.88 2.45L16.79 20Z" fill="#00A79C"/><path d="M14 32.8v-1.92l2-.3v2.23h-2Zm0 .56v2.03l2 .2v-2.23h-2Zm3 0v2.34l3 .3v-2.64h-3Zm3-.55V30l-3 .44v2.37h3ZM43.94 32.34v-1.6l-1.94-.3v1.9h1.94Zm0 .46v1.7l-1.94.2v-1.9h1.94Zm-2.94 0v2l-2 .2v-2.2h2Zm-2-.46V30l2 .3v2.04h-2Z" fill="#00A79C"/></svg>