<!-- by TradingView --><svg width="18" height="18" viewBox="0 0 18 18" xmlns="http://www.w3.org/2000/svg"><path fill="#F0F3FA" d="M0 0h18v18H0z"/><path d="M3.07 5.65c.3.1.63.16 1 .16.33 0 .67-.04 1.02-.13.41-.09.85-.22 1.33-.39a39.8 39.8 0 0 0 1.98-.75c.64-.24 1.2-.4 1.68-.48.62-.1 1.17-.08 1.67.06.32.09.63.25.94.48.27.22.52.47.73.76.04.06.03.07-.04.03l-.46-.3a2.7 2.7 0 0 0-1.5-.33c-.49.02-1.01.1-1.56.26-.36.1-.92.3-1.67.56-.66.23-1.14.4-1.47.5a4.95 4.95 0 0 1-2.6.21c-.41-.1-.78-.31-1.11-.64v-.02h.04l.02.02Z" fill="url(#ajol2v3zt)"/><path d="M8.96 14c.01 0 .03-.02.03-.04l.12-.13V6.96l.3-.12v6.66l.55-.59c.03-.04.04-.08.04-.14V6.8c0-.03.04-.05.07-.06.48-.19.82-.3 1.19-.4.47-.13.91-.2 1.31-.2.5-.02.96.1 1.37.34.07.04.08.03.03-.04a3.23 3.23 0 0 0-3.38-1.33c-.43.08-.9.2-1.42.37a36.07 36.07 0 0 0-1.93.7c-.74.26-1.44.45-2.1.54-.5.06-.97.02-1.44-.12-.15-.04-.17-.02-.05.08.58.49 1.24.79 1.98.9.67.1 1.5.06 2.3-.15.04-.02.07 0 .07.05v2.08c0 .03 0 .06.03.07l.1.07c.08.05.14.1.17.14a.35.35 0 0 1-.1.5c-.07.03-.13.08-.18.13a.16.16 0 0 0-.05.14c0 .05.03.1.08.13l.1.06c.1.04.16.1.2.21.02.1 0 .2-.04.29a.53.53 0 0 1-.18.16 1.2 1.2 0 0 0-.1.08.16.16 0 0 0-.05.15c0 .06.04.1.1.13l.05.03c.08.03.13.06.15.1.1.14.1.26.05.37a.56.56 0 0 1-.12.14l-.17.13a.1.1 0 0 0-.05.07.52.52 0 0 0 .1.5 3.16 3.16 0 0 0 .41.43V7.19l.3-.11v6.79l.1.12h.06Z" fill="#27247B"/><defs><linearGradient id="ajol2v3zt" x1="3" y1="5.19" x2="13.45" y2="5.19" gradientUnits="userSpaceOnUse"><stop stop-color="#6CBBD6"/><stop offset="1" stop-color="#081150"/></linearGradient></defs></svg>