<!-- by TradingView --><svg width="18" height="18" viewBox="0 0 18 18" xmlns="http://www.w3.org/2000/svg"><path fill="#1D2A52" d="M0 0h18v18H0z"/><path d="M4.61 9.21a.03.03 0 0 0 .04-.03l-.01-.02c-.54-.38-1-.8-1.41-1.23a.52.52 0 0 1-.14-.27.03.03 0 0 1 .02-.04h.02c.17.08.37.2.61.35a.4.4 0 0 0 .23.07A.03.03 0 0 0 4 8a.27.27 0 0 0-.08-.19l-.64-.66c-.1-.1-.28-.3-.28-.45a.04.04 0 0 1 .03-.04.04.04 0 0 1 .04 0l.7.61c.09.08.18.13.28.16a.04.04 0 0 0 .05-.02V7.4a.51.51 0 0 0-.1-.17c-.27-.34-.77-.88-.73-1.2A.03.03 0 0 1 3.3 6a.03.03 0 0 1 .03 0c.24.25.5.49.81.71l1.5 1.1c.44.32.82.64 1.11.95.2.22.4.5.37.8-.07.84-.02 1.56.7 2.08a2.23 2.23 0 0 0 .88.4.02.02 0 0 1 0 .02v.01c-.5.27-1.04.37-1.6.3-.74-.1-1.39-.7-1.78-1.35a7.1 7.1 0 0 1-.26-.53h.02c.15 0 .29-.02.43-.06a.05.05 0 0 0 .03-.08l-.02-.02a1.13 1.13 0 0 0-.22-.08c-.4-.1-.64-.15-.93-.36-.05-.04-.07-.11-.06-.22a.07.07 0 0 0-.04-.07 4.8 4.8 0 0 1-.82-.6v-.02a.04.04 0 0 1 .04-.03c.11 0 .23.01.35.05l.78.21Z" fill="#fff"/><path d="M8 12.97v-.02c1.13-.31 2.6-.9 2.87-2.22L11 10c.03-.18.12-.5.3-.58a9.42 9.42 0 0 0 1.54-.86v-.02a.03.03 0 0 0-.02-.02h-.02L11.36 9h-.01v-.01l.12-.13.01-.03a.06.06 0 0 0-.02-.05l-.03-.01c-.3 0-.53.19-.63.46-.3.76-.64 2.23-1.63 2.27l-.23-.01c-.36-.06-.47-.36-.44-.69.03-.3.13-.58.3-.86a3.31 3.31 0 0 1 1.75-1.18 4.81 4.81 0 0 0 .24-.56c.06-.2.24-.18.4-.12a.11.11 0 0 0 .13-.03c.16-.18.25-.51.5-.6a.05.05 0 0 1 .05 0 .06.06 0 0 1 .02.06 13.63 13.63 0 0 1-.03.3s0 .02.02.03l.03.02h.03c.04 0 .06-.03.09-.07.12-.22.22-.36.28-.44a.4.4 0 0 1 .23-.15l.07-.01a.07.07 0 0 1 .07.02.07.07 0 0 1 0 .08c-.17.29-.28.47-.31.55a.46.46 0 0 0-.04.14v.03a.05.05 0 0 0 .05.03h.02a.44.44 0 0 0 .18-.13l.6-.69a.9.9 0 0 1 .34-.22.03.03 0 0 1 .04.04v.02c-.12.15-.32.47-.3.7a.03.03 0 0 0 .01.02.02.02 0 0 0 .03 0c.26-.25.82-.8 1.12-.76l.01.02v.02c-.14.12-.3.28-.51.5a.72.72 0 0 0-.17.25.05.05 0 0 0 .01.05.05.05 0 0 0 .05.01.66.66 0 0 0 .22-.1c.27-.2.68-.52.94-.5a.03.03 0 0 1 .03.02v.03L13.77 8.5c-.55.54-.91.97-1.1 1.29a.14.14 0 0 1-.08.07c-.33.09-.59.29-.77.6-.13.2-.32.54-.58 1-.7 1.29-1.87 1.66-3.24 1.5Z" fill="#fff"/></svg>