<!-- by TradingView --><svg width="56" height="56" viewBox="0 0 56 56" xmlns="http://www.w3.org/2000/svg"><path fill="#C0CEFF" d="M0 0h56v56H0z"/><path d="M5.67 24.12a3.4 3.4 0 0 1 2.15.12c.08.03.13.1.15.19 0 .08.02.2.05.36.1.66.13 1.02.1 1.08-.04.07-.1.1-.17.09a.16.16 0 0 1-.15-.12c-.2-.55-.4-.93-.6-1.12-.28-.27-.67-.36-1.17-.28-.54.1-.89.37-1.02.82-.18.58-.05 1.09.37 1.52.24.25.71.55 1.4.9l.35.17c1.13.6 1.56 1.41 1.3 2.45-.21.79-.76 1.32-1.64 1.58a3.5 3.5 0 0 1-2.34-.19.37.37 0 0 1-.22-.26 4.56 4.56 0 0 1-.21-1.63c0-.07.04-.11.1-.12.07 0 .12.02.14.08l.03.08c.17.42.3.72.41.9.19.3.4.52.67.65.62.3 1.2.27 1.72-.1.23-.16.38-.35.45-.57.06-.18.08-.43.07-.76-.01-.36-.23-.72-.65-1.05-.24-.2-.64-.45-1.2-.74a6.63 6.63 0 0 1-.56-.32c-.85-.57-1.17-1.3-.98-2.21a1.9 1.9 0 0 1 1.45-1.52Zm23.4-.1c.04-.02.08-.03.12 0 .05.02.07.05.07.1l.08 1.76c0 .1-.04.16-.13.19-.1 0-.15-.04-.17-.13l-.28-.91c-.06-.2-.19-.3-.39-.3h-1.56c-.01 0-.02 0-.02.02v6.29c0 .21.09.36.27.45.17.09.4.13.67.15.1 0 .17.06.2.17v.02c.02.11-.02.17-.14.17l-2.73-.02c-.05 0-.08-.03-.1-.07l-.01-.06c-.02-.05 0-.08.05-.1l.7-.26c.18-.06.3-.2.3-.4v-6.25c0-.1-.07-.13-.15-.13h-1.13c-.26 0-.43.13-.5.4l-.25.8a.13.13 0 0 1-.09.1l-.08.03a.1.1 0 0 1-.1-.02.1.1 0 0 1-.04-.1l.11-1.82a.1.1 0 0 1 .06-.08c.03-.02.06-.01.1.01l.24.22c.05.04.1.06.16.06h4.31a.2.2 0 0 0 .12-.04l.31-.24Zm2.12.02c1.3-.07 2.45-.05 3.48.08.52.07.92.3 1.2.72.25.4.35.88.3 1.46a2.4 2.4 0 0 1-1.22 1.91c-.09.06-.1.14-.05.24l.89 1.58c.45.77.99 1.37 1.6 1.8.03.02.05.05.04.09-.01.03-.03.05-.07.05a2.1 2.1 0 0 1-1.32-.33 3.6 3.6 0 0 1-.97-1.14l-.7-1.21c-.17-.33-.37-.54-.6-.63-.2-.08-.47-.09-.8-.03-.08.01-.12.07-.12.17l.02 2.12c0 .25.07.43.2.53.1.07.25.12.47.17l.28.07c.03.01.06.04.06.08a.1.1 0 0 1-.03.1c-.06.06-.1.09-.13.09-.51.06-1.38.05-2.6 0-.06-.01-.1-.04-.1-.1-.01-.07.01-.1.07-.13l.67-.25c.18-.07.24-.21.24-.42v-6.23c0-.16-.04-.27-.18-.32l-.64-.22c-.05-.02-.07-.05-.07-.1v-.06c0-.05.03-.08.08-.09Zm14.19-.03a44 44 0 0 1 2.4 0c.07.01.14.03.18.06a.1.1 0 0 1 .05.1.1.1 0 0 1-.07.1l-.65.24c-.2.08-.3.23-.3.47v2.72c0 .1.04.18.13.22.09.04.16.02.23-.05.9-1.01 1.7-2.05 2.42-3.11a.2.2 0 0 0 .03-.18.2.2 0 0 0-.11-.13c-.1-.05-.25-.1-.45-.14-.12-.03-.15-.1-.09-.22a.22.22 0 0 1 .1-.08H51.65c.09 0 .12.04.1.15l-.03.08c-.03.08-.08.13-.15.14-.55.08-.9.2-1.04.35-.82.86-1.62 1.83-2.42 2.9-.06.1-.06.18 0 .26l.42.52c.97 1.23 1.72 2.1 2.25 2.65.3.3.67.5 1.12.6.06.02.09.06.09.13s-.03.1-.1.12c-.45.1-.9.12-1.34.05a.66.66 0 0 1-.42-.25l-2.8-3.43c-.07-.07-.14-.1-.22-.06-.08.04-.12.1-.12.2v2.67c0 .19.08.31.24.37l.69.24c.06.02.09.06.08.14 0 .07-.05.1-.12.11-.94.03-1.77.04-2.47 0a.27.27 0 0 1-.17-.05.12.12 0 0 1-.04-.12c0-.05.03-.08.07-.1l.57-.2c.2-.08.3-.24.3-.47v-6a.53.53 0 0 0-.2-.44 1.45 1.45 0 0 0-.75-.29.07.07 0 0 1-.07-.05.08.08 0 0 1 .02-.09l.06-.06c.05-.04.1-.07.17-.07ZM11 24.75c.79-.64 1.66-.87 2.61-.7.95.19 1.7.73 2.25 1.62.56.9.75 1.89.58 2.98a4 4 0 0 1-1.44 2.6c-.8.64-1.66.87-2.61.7a3.3 3.3 0 0 1-2.26-1.62 4.25 4.25 0 0 1-.57-2.98 4 4 0 0 1 1.44-2.6ZM21.79 24c.07 0 .1.05.1.13-.05.48-.02.98.09 1.49.02.13-.02.21-.14.25l-.05.01c-.06.02-.1 0-.12-.07l-.3-.96c-.08-.28-.25-.41-.52-.41h-1.73c-.09 0-.12.05-.12.15v3.3c0 .07.02.1.09.1h1.63c.2 0 .33-.1.39-.31l.16-.57c.02-.05.05-.08.1-.1.04 0 .08.01.12.05.03.05.05.1.05.15a37.04 37.04 0 0 1-.02 2.24c-.13.07-.22.04-.26-.1l-.23-.67c-.04-.13-.13-.2-.26-.2l-1.64-.07c-.1 0-.13.05-.13.16v2.48c0 .15.04.27.14.36.18.16.46.24.81.24.11 0 .16.06.17.18v.06c0 .07-.04.1-.1.1-.98.02-1.85 0-2.6-.02a.37.37 0 0 1-.2-.06c-.04-.03-.06-.07-.05-.12 0-.05.03-.08.08-.1l.56-.13a.4.4 0 0 0 .2-.11c.1-.1.15-.36.15-.78l-.01-5.81a.34.34 0 0 0-.17-.31c-.16-.1-.37-.18-.61-.23a.16.16 0 0 1-.1-.07.16.16 0 0 1-.02-.16c.02-.06.06-.09.12-.09h4.42Zm19.35 0c.08.01.13.06.15.14.71 2.33 1.41 4.55 2.1 6.66.06.14.14.3.26.49.07.11.23.2.47.27a.9.9 0 0 1 .3.13.2.2 0 0 1 .07.12c.03.12-.03.19-.16.19-1.1 0-1.86 0-2.27-.03a.31.31 0 0 1-.18-.06c-.04-.03-.05-.06-.05-.1.01-.05.03-.08.07-.1l.58-.21c.14-.06.2-.17.14-.33l-.56-1.85c-.03-.08-.08-.12-.15-.12h-2.15c-.1 0-.16.06-.2.16l-.45 1.59a.52.52 0 0 0 .03.37c.06.12.14.2.26.24l.44.15c.07.03.1.08.08.16 0 .08-.05.12-.12.12h-2.17c-.11 0-.15-.06-.12-.18l.02-.07c.03-.1.09-.14.17-.15.42-.04.72-.3.9-.82l2.03-5.89c.11-.31.22-.57.33-.77.04-.08.1-.12.18-.1ZM15.48 27.7c-.2-1.99-1.46-3.47-2.83-3.3-1.37.16-2.32 1.9-2.12 3.89.2 1.99 1.46 3.46 2.83 3.3 1.37-.16 2.32-1.9 2.12-3.9Zm25.4-2.12c-.04 0-.07.01-.08.05l-.94 2.92c-.03.07 0 .1.06.11l1.82.03c.07 0 .1-.04.07-.1l-.87-2.96c-.01-.04-.03-.05-.07-.05ZM33.1 24.4c-.17 0-.25.1-.25.28v3.27c0 .19.08.28.25.28h.58c.45 0 .83-.17 1.14-.53.32-.35.48-.78.48-1.28v-.21c0-.5-.16-.93-.48-1.28-.31-.35-.7-.53-1.14-.53h-.58Z" fill="#343468"/></svg>