<!-- by TradingView --><svg width="56" height="56" viewBox="0 0 56 56" xmlns="http://www.w3.org/2000/svg"><path fill="#F0F3FA" d="M0 0h56v56H0z"/><path d="M28.87 13H15v14.04l13-11.02 13 11.02V13H28.87Z" fill="#EA028C"/><path d="M15 23.86V13h26v10.86L28 13 15 23.86Z" fill="#90817E"/><path d="M15 30.11v3.8l13-11 13 11v-3.8L28 19.2 15 30.11Z" fill="#FFF002"/><path d="M15 35.9v4.56l13-11 13 11V35.9L28 24.98 15 35.9Z" fill="#2D3192"/><path d="M15 33.46v2.88l13-11 13 11v-2.88L28 22.54 15 33.46Z" fill="#A0CD3B"/><circle cx="28" cy="38" r="5" fill="#A55B52"/></svg>