<!-- by TradingView --><svg width="56" height="56" viewBox="0 0 56 56" xmlns="http://www.w3.org/2000/svg"><path fill="#F0F3FA" d="M0 0h56v56H0z"/><path fill-rule="evenodd" d="M22 14h-5v30h5V24.02c0 5.51 4.26 9.98 9.5 9.98v-5.05c.17 0 .34-.01.5-.03v5.07c5.01-.28 9-4.64 9-9.99 0-5.35-3.99-9.71-9-9.99v5.07a4.6 4.6 0 0 0-.5-.03V14c-5.24 0-9.5 4.47-9.5 9.98V14Zm9.45 14.54h.05A4.48 4.48 0 0 0 35.79 24 4.48 4.48 0 0 0 32 19.5a4.17 4.17 0 0 0-.5-.04h-.05A4.44 4.44 0 0 0 27.11 24a4.46 4.46 0 0 0 4.34 4.54ZM31 33.57v-4.64A4.88 4.88 0 0 1 26.7 24c0-2.56 1.87-4.7 4.3-4.93v-4.64c-4.84.29-8.68 4.46-8.68 9.57 0 5.1 3.84 9.28 8.68 9.57Z" fill="#448600"/></svg>