<!-- by TradingView --><svg width="18" height="18" viewBox="0 0 18 18" xmlns="http://www.w3.org/2000/svg"><path fill="#F0F3FA" d="M0 0h18v18H0z"/><path d="M12.5 11.02c0 .93-.36 1.66-1.07 2.19-.7.53-1.61.79-2.7.79A5.1 5.1 0 0 1 5 12.7l1.29-1.24c.57.55 1.4.83 2.46.83 1.2 0 1.8-.4 1.8-1.22 0-.37-.1-.64-.3-.82-.2-.18-.5-.3-.91-.35L8.1 9.73C6.3 9.5 5.4 8.58 5.4 6.98c0-.89.31-1.61.95-2.16C7 4.27 7.86 4 8.96 4c1.36 0 2.46.38 3.28 1.15l-1.26 1.2c-.48-.45-1.18-.68-2.09-.68-.5 0-.9.12-1.16.35-.28.24-.41.53-.41.9 0 .28.1.52.32.71.22.2.52.32.92.37l1.2.17a3.6 3.6 0 0 1 1.95.76c.53.48.79 1.17.79 2.09Z" fill="#0D72BA"/></svg>