<!-- by TradingView --><svg width="56" height="56" viewBox="0 0 56 56" xmlns="http://www.w3.org/2000/svg"><path fill="url(#a)" d="M0 0h56v56H0z"/><path d="m12.5 21.72 2.2 5.36c.03.08.06.08.09 0l.17-.55a4.03 4.03 0 0 1 2.03-2.58 4.35 4.35 0 0 1 2.45-.45c.07 0 .1-.02.1-.09-.04-.54.02-1.08.18-1.6.32-.62 1.11-.84 2.38-.67.49.07.81.25.97.56.03.06.07.06.1 0 .15-.26.42-.43.82-.51.81-.18 1.56-.11 2.24.2.39.46.55 1.14.48 2.06 0 .06.03.08.08.08 1.87-.23 3.22.38 4.05 1.82.04.07.08.07.11 0a3.13 3.13 0 0 1 2.06-1.6 6.42 6.42 0 0 1 3.08-.18c.8.16 1.39.4 1.73.72.06.06.12.05.17-.01.13-.17.32-.33.55-.48a.16.16 0 0 0 .09-.15c-.02-.72.22-1.24.72-1.54l.12-.08c.4-.25.69-.41.86-.5.25-.1.5-.17.76-.18.17.04.32.06.45.05.56.22.85.62.89 1.18v.95c0 .08.05.13.12.16l.38.14a.5.5 0 0 1 .18.12l.38.39c.02.03.06.02.11-.02.26-.2.58-.37.95-.5a6.53 6.53 0 0 1 3.14-.3c1.2.2 2.07.71 2.6 1.57.2.4.31.82.36 1.24A11.96 11.96 0 0 1 50.7 28l.05 2.19c.02.3.08.6.18.9.06.2.09.38.08.53-.02.18-.04.36-.08.56-.79.74-1.8.89-3.06.44a.28.28 0 0 0-.2 0 4.9 4.9 0 0 1-4.07-.16.14.14 0 0 0-.17.02c-.1.08-.17.13-.22.15-.94.44-1.93.48-2.97.11a2.16 2.16 0 0 1-1-.67c-.06-.07-.1-.06-.12.02-.09.33-.35.54-.77.63-.83.19-1.57.16-2.23-.09a.28.28 0 0 0-.2 0c-1.38.5-2.73.47-4.05-.13a4.9 4.9 0 0 1-.73-.59c-.05-.05-.1-.04-.12.03a1.2 1.2 0 0 1-.83.8 4.6 4.6 0 0 1-1.33.08c-.9-.02-1.41-.47-1.53-1.34l-.02-4.32c0-.17-.07-.22-.22-.13l-.1.05c-.15.09-.23.21-.23.37l-.03 4.04c-.1.65-.37 1.06-.8 1.22-.46.16-1.09.18-1.9.06-.49-.08-.77-.28-.84-.6-.02-.1-.05-.1-.08 0-.1.3-.34.49-.73.57a4.1 4.1 0 0 1-1.79 0 .38.38 0 0 0-.2 0 4.26 4.26 0 0 1-4-.65c-.05-.04-.1-.03-.13.03-.26.46-.66.7-1.22.71l-.89.03c-.73.02-1.29-.24-1.66-.78l-.73-1.96a.12.12 0 0 0-.12-.08H9.71c-.08 0-.12.03-.15.1L8.7 32.3c-.32.27-.65.43-.98.5-1.04.18-1.84.03-2.43-.48a1.46 1.46 0 0 1-.11-1.58l1.05-2.64 1.1-2.78.52-1.31.79-2.1c1.1-1.15 2.38-1.2 3.86-.19Z" fill="#003"/><path d="m8.71 28.8-.92 2.3c-.12.3-.35.45-.68.43l-.88-.04c-.45-.03-.6-.24-.43-.65l3.56-8.95c.07-.18.2-.27.4-.27h1.3c.21 0 .36.1.44.29l3.75 9.02c.06.13.05.26-.03.38a.41.41 0 0 1-.35.18c-.42.02-.78.03-1.08.02-.22-.01-.38-.04-.47-.08-.1-.06-.2-.18-.26-.36l-.84-2.25c-.03-.07-.09-.1-.17-.1H8.84c-.07 0-.1.02-.13.08ZM20.3 24.27v-2.15c0-.33.17-.5.52-.5h.83c.36 0 .53.17.53.5v9a.37.37 0 0 1-.39.37h-1.12v-.01c-.13-.03-.2-.07-.22-.14-.02-.1-.07-.12-.16-.07-.96.52-1.94.54-2.93.06a3.03 3.03 0 0 1-1.6-1.78 5.02 5.02 0 0 1-.13-3.13 3.15 3.15 0 0 1 4.56-2.1c.07.04.1.02.1-.05ZM25.66 24.37a3.47 3.47 0 0 1 2.84-.15c.96.36 1.44 1.12 1.45 2.26.02 1.37.02 2.88 0 4.53 0 .33-.17.5-.51.5h-.85c-.34 0-.51-.17-.52-.5v-4.02c0-.2-.05-.46-.14-.8-.09-.3-.35-.46-.8-.48-.74-.04-1.22.25-1.45.85-.06.16-.1.5-.1.99-.02.64-.03 1.8-.04 3.46 0 .33-.17.5-.51.5h-.85c-.35 0-.53-.18-.53-.52v-8.86c0-.34.18-.51.53-.51h.84c.35 0 .53.17.53.5v2.18c0 .08.03.1.11.07ZM41.26 25.82v3.82c0 .08.03.14.1.2.05.04.12.06.2.05l.5-.08c.23-.03.37.06.4.28l.16.95c.04.27-.07.44-.34.51-.6.16-1.2.16-1.79 0-.7-.21-1.07-.7-1.1-1.47a64.85 64.85 0 0 1 0-4.2c0-.12-.05-.17-.16-.16-.4.02-.62-.09-.67-.31a3.74 3.74 0 0 1-.01-.96.25.25 0 0 1 .11-.16.92.92 0 0 1 .62-.12c.06 0 .09-.02.09-.08v-.97c0-.34.15-.59.44-.76.39-.23.7-.38.93-.47.34-.12.51-.01.51.34v1.84c0 .07.04.1.12.1l.59-.03c.25-.02.41.07.48.26.09.28.07.66-.07 1.14a.18.18 0 0 1-.14.14c-.23.06-.51.07-.84.03-.09 0-.13.03-.13.1Z" fill="#fff"/><path d="M10.53 22.27c.25.37.43.81.55 1.33.04.13 0 .2-.12.23-.08-.21-.17-.4-.29-.6-.13-.2-.3-.24-.5-.08-.07.04-.1.1-.13.17l-.76 2.21-.5-.57 1.04-2.58a.2.2 0 0 1 .14-.12c.17-.05.35-.04.57.01Z" fill="#A0D8E4"/><path d="M11.46 23.4c-.2-.02-.33.05-.38.2-.12-.52-.3-.96-.55-1.33a.67.67 0 0 1 .34 0c.07.01.12.05.15.11l.44 1.02Z" fill="#5CC6DB"/><path d="M21.52 25c-.13 0-.2.08-.23.25a.17.17 0 0 1-.11.14c-.12.04-.22-.01-.3-.17.1-.95.12-1.91.04-2.87 0-.08.03-.12.11-.12h.42c.06 0 .1.03.09.09L21.52 25Z" fill="#A0D8E4"/><path d="M24.9 24.8c-.09 0-.16.1-.23.32-.02.07-.07.08-.13.03-.04-.04-.11-.05-.22-.03l-.02-2.8c0-.05.03-.09.1-.09h.43c.06 0 .08.03.08.09l-.01 2.48Z" fill="#5CC6DB"/><path d="m40.7 24.63-.16.38a.53.53 0 0 1-.11.16l-.4.37c-.16-.37-.41-.52-.77-.44-.07.02-.1 0-.1-.08v-.14c0-.08.03-.12.12-.1.49.07.75-.12.77-.56.02-.5.02-.85-.01-1.08-.02-.13.03-.23.15-.3l.34-.19c.1-.05.14-.02.14.08l.04 1.9Z" fill="#A0D8E4"/><path d="m11.46 23.4 3.12 7.46c.01.03 0 .04-.02.04h-.9c-.01 0-.02 0-.02-.02l-.95-2.5c-.07-.19-.2-.28-.41-.28H8.72c-.26 0-.44.12-.53.35l-.96 2.4c-.01.04-.03.05-.06.05h-.7c-.04 0-.05-.02-.04-.05l1.27-3.13c.22.09.5-.01.87-.31.1.17.23.25.42.25l2.95-.03c.1 0 .2-.04.26-.12.07-.08.07-.2 0-.37-.46-1.09-.88-2.2-1.25-3.31.13-.03.17-.1.13-.23.05-.15.18-.22.38-.2Z" fill="#01A1BF"/><path d="M36.14 31.1c-.03-.08-.08-.1-.15-.06a4.1 4.1 0 0 1-3.1.53c-1.07-.25-1.68-.86-1.8-1.83-.11-.79.1-1.43.63-1.93.48-.43 1.14-.7 1.98-.8.86-.1 1.54-.2 2.03-.31.07-.02.1-.06.1-.13 0-.47-.21-.75-.66-.86-.49-.1-.95-.1-1.37.02-.32.1-.52.34-.62.74-.08.33-.29.46-.63.41l-.88-.12c-.34-.05-.47-.24-.41-.56.2-1.07.89-1.76 2.06-2.05a5.8 5.8 0 0 1 2.67-.03c.78.17 1.3.57 1.57 1.2.12.28.18.86.18 1.75 0 1.34.02 2.33.07 2.96.03.37.11.7.26.99.05.1.05.2-.02.3a.32.32 0 0 1-.27.17c-.44.02-.86.02-1.25 0-.18-.01-.31-.14-.4-.39ZM47.91 31.1c-.03-.08-.07-.1-.15-.06a4.1 4.1 0 0 1-3.09.53c-1.08-.25-1.68-.86-1.81-1.83-.1-.79.1-1.43.63-1.93.48-.43 1.14-.7 1.98-.8.87-.1 1.54-.2 2.03-.31.07-.02.1-.06.1-.13 0-.47-.21-.75-.65-.86-.5-.1-.96-.1-1.38.02-.32.1-.52.34-.62.74-.07.33-.29.46-.63.41l-.88-.12c-.33-.05-.47-.24-.4-.56.2-1.07.88-1.76 2.05-2.05a5.8 5.8 0 0 1 2.67-.03c.79.17 1.31.57 1.58 1.2.12.28.18.86.17 1.75 0 1.34.02 2.33.07 2.96.03.37.12.7.26.99.05.1.05.2-.01.3a.33.33 0 0 1-.27.17c-.45.02-.87.02-1.25 0-.19-.01-.32-.14-.4-.39Z" fill="#fff"/><path d="M10.42 24.34h.03l.03.06 1.02 2.56c.03.06 0 .1-.06.09a41.53 41.53 0 0 0-2.03 0c-.07 0-.09-.03-.06-.1l1.02-2.55a.58.58 0 0 1 .02-.05h.03Z" fill="#003"/><path d="m20.16 25.1-.3.22c-.78-.44-1.5-.4-2.18.11-.62.48-.93 1.18-.93 2.12-.12-.04-.21 0-.29.13-.03.05-.07.06-.13.03a.22.22 0 0 0-.2-.02 2.9 2.9 0 0 1 .62-2.16 2.46 2.46 0 0 1 3.4-.44Z" fill="#A0D8E4"/><path d="M24.32 25.12c.11-.02.18-.01.22.03.06.05.1.04.13-.03.07-.22.14-.32.23-.32-.01.2.02.33.1.38.18.12.38.11.58-.02.57-.4 1.21-.58 1.9-.56.51.02.93.17 1.27.45.35.29.53.66.55 1.12.02.49.03 2.04.01 4.65 0 .05-.02.07-.07.07h-.48c-.04 0-.06-.01-.06-.05v-3.6c.01-1.15-.38-1.84-1.15-2.08-.3-.09-.59-.1-.88-.05-1.13.21-1.71.96-1.74 2.24a85.47 85.47 0 0 0-.01 3.48c0 .04-.03.06-.07.06h-.48c-.05 0-.08-.02-.08-.07l.03-5.7Z" fill="#01A1BF"/><path d="M37.09 27.05c-.26.28-.47.42-.6.43l-.56-.16c.25-.1.44-.26.54-.44a.28.28 0 0 0 .03-.2l-.18-.85a.32.32 0 0 0-.1-.18c-.56-.5-1.26-.7-2.08-.62-.78.08-1.27.44-1.48 1.07-.02.09-.08.13-.17.13h-.47a.14.14 0 0 1-.12-.06.13.13 0 0 1 0-.14c.28-.56.61-.92.98-1.1.7-.3 1.58-.4 2.66-.3.38.04.72.17 1.01.38.32.22.5.5.56.81.03.21.03.62-.02 1.23ZM46.49 24.63a.53.53 0 0 0-.04.38c-1.1-.01-1.75.32-1.95 1-.05.16-.17.24-.34.24h-.32c-.21 0-.27-.09-.18-.27.52-1.01 1.47-1.46 2.83-1.35Z" fill="#A0D8E4"/><path d="M47.78 24.75c-.12.1-.13.22-.03.37.03.03.02.06-.02.08a.15.15 0 0 0-.09.06c-.01.02 0 .06.05.1a3.41 3.41 0 0 0-1.24-.35.53.53 0 0 1 .04-.38c.44-.05.87-.01 1.29.12Z" fill="#5CC6DB"/><path d="M40.7 24.63c.37.14.71.18 1.05.12.06 0 .1.02.1.08v.22c0 .08-.04.11-.12.1-.2-.05-.44-.07-.69-.04-.27.03-.4.18-.4.44l-.01 3.83c0 .82.41 1.18 1.24 1.07.03 0 .05 0 .05.04l.09.54c0 .02 0 .03-.03.03h-.28c-.53 0-.9-.03-1.1-.1-.34-.12-.53-.37-.58-.75-.08-.7-.08-2.25.02-4.67l.39-.37c.04-.05.08-.1.1-.16l.18-.38ZM47.78 24.75c.75.2 1.12.65 1.1 1.33-.04 1.57 0 3 .1 4.27 0 .13.05.27.14.42.05.09.02.13-.08.13h-.47c-.13 0-.2-.06-.21-.18a.62.62 0 0 0-.34-.5.15.15 0 0 0-.18.02c-.7.57-1.5.84-2.38.84-.72-.01-1.3-.26-1.72-.76-.54-.63-.43-1.36.32-2.21l1.09.06c-.48.2-.77.5-.88.91-.08.32-.04.63.14.92.17.3.46.5.85.59.87.2 1.64 0 2.34-.59.24-.2.4-.49.5-.85.07-.25.12-.63.14-1.13.01-.22-.13-.31-.41-.3-.3.03-.62.08-.96.15a.74.74 0 0 1-.19-.33c.5-.1.93-.23 1.33-.43.19-.09.26-.27.22-.55l-.02-.15c-.02-.45-.2-.8-.52-1.04-.05-.05-.06-.09-.05-.11a.15.15 0 0 1 .08-.06c.05-.02.06-.05.03-.08-.1-.15-.1-.28.03-.37Z" fill="#01A1BF"/><path d="m9.28 25.53-.71 1.88c-.36.3-.65.4-.87.3l1.09-2.75.49.57Z" fill="#5CC6DB"/><path d="m21.52 25 .02 5.78c0 .08-.04.12-.12.12h-.33c-.06 0-.1-.03-.13-.09l-.15-.35a.19.19 0 0 0-.13-.11.2.2 0 0 0-.18.04c-.93.74-1.88.88-2.84.42-.58-.28-1-.71-1.28-1.3a3.16 3.16 0 0 1-.25-1.82.22.22 0 0 1 .2.02c.06.03.1.02.13-.03.08-.12.17-.16.29-.13a3.5 3.5 0 0 0 .27 1.76c.27.62.7 1.02 1.3 1.21.41.13.81.13 1.2-.02a2.2 2.2 0 0 0 1.38-1.6c.18-.68.16-1.41-.05-2.2-.16-.6-.5-1.06-.98-1.38l.29-.23c.13.18.37.23.71.13.09.16.2.21.3.17.07-.03.11-.08.12-.14.02-.17.1-.25.23-.25Z" fill="#01A1BF"/><path d="M18.92 30.05c-.43 0-.8-.2-1.1-.63a2.69 2.69 0 0 1-.5-1.56c0-.62.13-1.14.42-1.58.3-.44.66-.66 1.08-.67.43-.01.8.2 1.11.62.31.43.48.95.49 1.57.01.6-.13 1.13-.42 1.57-.3.44-.65.67-1.08.68Z" fill="#003"/><path d="M18.52 28.25c.02.7.28 1.28.6 1.27.3 0 .55-.59.53-1.3-.02-.71-.29-1.28-.6-1.27-.31 0-.55.59-.53 1.3Z" fill="#279C90"/><path d="M37.09 27.05c0 1.5.04 2.62.1 3.34.02.12.08.27.17.42.04.06.02.1-.05.1h-.5a.2.2 0 0 1-.2-.14l-.15-.37a.27.27 0 0 0-.2-.17.28.28 0 0 0-.26.05c-.98.78-2.09.98-3.33.59-.6-.18-.92-.61-.98-1.29-.07-.75.22-1.28.88-1.58a1 1 0 0 0 .18.08c.05.02.11.02.2 0 .19-.04.3 0 .3.13-.69.43-.94.93-.74 1.5.16.45.5.75 1.04.9.61.16 1.21.08 1.8-.26.9-.51 1.26-1.37 1.06-2.56l.07-.31c.14 0 .35-.15.6-.43Z" fill="#01A1BF"/><path d="m35.93 27.32.55.16-.07.3-.25-.07a.45.45 0 0 0-.2 0l-2.7.5c-.01-.13-.12-.17-.32-.13a.34.34 0 0 1-.19 0 1 1 0 0 1-.18-.08c.2-.14.38-.22.56-.23.96-.1 1.9-.25 2.8-.45Z" fill="#2CCDBC"/><path d="M42.55 27.5c.02.08.1.14.21.2.07.03.09.07.05.13l-.32.49c-.08.11-.11.1-.1-.03l.02-.8c.01-.25.06-.25.14 0Z" fill="#25897E"/><path d="M46.68 27.54c.06.16.12.27.2.33l-1.73.3-1.09-.06c.41-.23.74-.36.97-.38a51.3 51.3 0 0 0 1.65-.2Z" fill="#5CC6DB"/><path d="M35.82 28.4c0 .58-.2 1.02-.58 1.3-.3.21-.65.33-1.08.37-.5.03-.84-.1-1.01-.41-.12-.23-.11-.44.04-.63a.9.9 0 0 1 .6-.33 31.8 31.8 0 0 0 1.96-.36c.05 0 .07 0 .07.06ZM47.6 28.4c-.01.58-.2 1.02-.59 1.3-.29.21-.65.33-1.08.37-.5.03-.84-.1-1-.41-.13-.23-.12-.44.03-.63a.92.92 0 0 1 .61-.33c.87-.14 1.52-.26 1.95-.36.05 0 .08 0 .07.06Z" fill="#003"/><defs><linearGradient id="a" x1="28" y1="0" x2="28" y2="56" gradientUnits="userSpaceOnUse"><stop stop-color="#192A27"/><stop offset="1" stop-color="#30EDD9"/></linearGradient></defs></svg>