<!-- by TradingView --><svg width="56" height="56" viewBox="0 0 56 56" xmlns="http://www.w3.org/2000/svg"><path fill="#F0F3FA" d="M0 0h56v56H0z"/><path d="M28.5 12.01a657.47 657.47 0 0 1-5.73 5.23A10.7 10.7 0 0 0 20 21.16a9.8 9.8 0 0 1-.2.2l-1.9 2.32 1.57-9.25a15.06 15.06 0 0 1 9.02-2.42Z" fill="#D4D5D5"/><path d="M31.87 12.47a20.6 20.6 0 0 1 5.78 2.91c.26.19.26.38.02.59l-1.11.97-.81.5-8.56 6.73a15.46 15.46 0 0 0-7.38-2.8l.2-.21a51.89 51.89 0 0 1 10.32-8.98c.52-.04 1.03.06 1.54.29ZM19.48 14.43l-1.56 9.25c-2.1 1.18-3.07 3.03-2.93 5.55.14 2.39 1.27 4.43 3.4 6.13.01.74.15 1.32.4 1.74.03 1.1.17 1.92.42 2.44.38.8.21.95-.5.43a16.31 16.31 0 0 1-3.95-4.14c-.84-1.23-1.37-3.44-1.6-6.62l-.08-1.07a6.55 6.55 0 0 1 0-1.27l.62-6.14a15.27 15.27 0 0 1 5.78-6.3Z" fill="#D63F06"/><path d="M36.56 16.94a45.72 45.72 0 0 1 1.36 12.4c0 .18.07.23.22.14l3.12-1.8c.1-.05.14-.13.13-.23a51.93 51.93 0 0 0-1.19-9.76c.75.61 1.1 1.08 1.07 1.42l.88 7.45c.03.34.2.42.5.25l.37-.22a.8.8 0 0 0 .44-.8l-.14-2.28c.44 1.07.65 2.2.6 3.41-.6.2-1.13.53-1.6 1a.93.93 0 0 0-.26.5 17 17 0 0 0-.01 5.86c-.11.64-.54 1.4-1.27 2.28l-.4.01c-.16-.29-.26-.42-.3-.41a29.75 29.75 0 0 0 1.29-7.19c.02-.42-.15-.53-.52-.32l-2.61 1.51a.94.94 0 0 0-.5.8c-.03.4-.1 1.04-.2 1.91-.02.2-.1.31-.24.34-.15.02-.23-.04-.25-.2l-.04-.56-.01-1.59c0-.28-.13-.37-.4-.3l-1.8.55c-.17.05-.26 0-.26-.18v-.24c0-.08.04-.14.13-.17l2.2-.66c.19-.05.28-.17.3-.36.15-3.76-.18-7.69-.99-11.77-.03-.19-.18-.29-.43-.3l.81-.5ZM13.7 20.73l-.62 6.14c-.04.42-.04.85 0 1.27l.08 1.07c.23 3.18.76 5.39 1.6 6.62a16.31 16.31 0 0 0 3.94 4.14c.72.52.89.38.5-.43a6.28 6.28 0 0 1-.4-2.44 19.04 19.04 0 0 0 7.24 4.17c.88.26 2.95.79 6.24 1.59a15.55 15.55 0 0 1-10.4-.5c-.73-.3-1.46-.53-2.17-.7-.21-.48-.66-.79-1.33-.92-4.55-3.56-6.67-8.21-6.35-13.95.33.08.5.07.48-.02-.04-.19-.18-.38-.4-.58.14-1.88.67-3.7 1.6-5.46Z" fill="#B7B7B7"/><path d="M19.81 21.37c2.88.36 5.34 1.3 7.38 2.8-.39.22-.06.74.98 1.56a9.24 9.24 0 0 1-1.69 9.04l-1.88-1.92a7.77 7.77 0 0 0 1.2-3.62 4.05 4.05 0 0 0-1.36-3.4 4.23 4.23 0 0 0-3.54-.98c-1.74.24-2.86 1.11-3.35 2.6a5.05 5.05 0 0 0 .7 4.37c-.31.34-.45.75-.4 1.22.1.9.28 1.67.54 2.32-2.13-1.7-3.26-3.74-3.4-6.13-.14-2.52.84-4.37 2.93-5.55l1.9-2.31Z" fill="#DF6D41"/><path d="M24.6 32.85c-.22-.17-.42-.4-.58-.7l.76-4.6a.26.26 0 0 0-.08-.23l-1.58-1.58a.68.68 0 0 0-.62-.2c-3.37.56-4.65 2.5-3.82 5.82l-.43.46a5.05 5.05 0 0 1-.7-4.37c.5-1.49 1.6-2.36 3.35-2.6 1.41-.2 2.6.13 3.54.97a4.05 4.05 0 0 1 1.35 3.4 7.76 7.76 0 0 1-1.19 3.63Z" fill="#E89979"/><path d="M24.02 32.15a2.85 2.85 0 0 1-.9-.6c.07.06.13.03.19-.1.06-.15.01-.26-.15-.3l-2.06-.67c-.19-.07-.25-.2-.2-.4.07-.2.22-.39.47-.56.04-.03.04-.06.02-.1l-.11-.14c-.07-.08-.14-.09-.22-.02l-2.38 2.1c-.83-3.32.45-5.26 3.82-5.82.24-.03.45.03.62.2l1.58 1.58c.06.07.09.14.08.23l-.76 4.6Z" fill="#F1C1AE"/><path d="m36.5 33.05 3.58 3.1c.04 0 .14.13.3.42a17.35 17.35 0 0 1-5.6 4.82.97.97 0 0 1-1.14-.09l-1.92-1.5-5.23-5.03a9.24 9.24 0 0 0 1.69-9.04l8.33 7.32Z" fill="#D63F06"/><path d="M12.03 26.8c.1-.1.12-.3.07-.6.23.2.37.38.4.57.02.09-.14.1-.47.02Z" fill="#9B9C9C"/><path d="M43.93 26.93a24.37 24.37 0 0 1-1.88 7.35 17 17 0 0 1 .01-5.86c.04-.2.13-.37.27-.5.46-.47 1-.8 1.6-1Z" fill="#D4D5D5"/><path d="M19.71 41.66c.71.17 1.44.4 2.18.7a15.55 15.55 0 0 0 10.39.5 14.25 14.25 0 0 0 8.5-6.3 5.18 5.18 0 0 0 1.27-2.28 24.37 24.37 0 0 0 1.88-7.36c.35 3.8-.6 7.26-2.85 10.38a15.58 15.58 0 0 1-9.83 6.37c-4.05.8-7.9.14-11.54-2Z" fill="#131313"/><path d="m40.08 36.16-3.57-3.1c.32-.13.48-.33.5-.6l.04.56c.02.15.1.21.25.19.14-.03.22-.14.24-.34.1-.87.17-1.5.2-1.91.02-.36.19-.62.5-.8l2.61-1.5c.37-.22.54-.11.52.31a29.75 29.75 0 0 1-1.3 7.19Z" fill="#D4D5D5"/><path d="m23.13 31.54-2.9-.63a.55.55 0 0 0-.53.17l-1.14 1.13c-.16.16-.17.33-.02.5a20.33 20.33 0 0 0 13.18 7.09l1.92 1.5c.36.28.74.31 1.14.1 2.2-1.2 4.07-2.8 5.6-4.83l.4-.01a14.25 14.25 0 0 1-8.5 6.3c-3.29-.8-5.36-1.33-6.24-1.59a19.05 19.05 0 0 1-7.24-4.17c-.26-.42-.4-1-.4-1.74a8.43 8.43 0 0 1-.55-2.32c-.05-.47.09-.88.4-1.22l.43-.46 2.38-2.1c.08-.07.15-.06.22.02l.1.14c.03.04.03.07-.01.1-.25.17-.4.36-.46.56-.06.2 0 .33.19.4l2.06.66c.16.05.21.16.15.3-.06.14-.12.17-.18.1Z" fill="#9B9C9C"/><path d="M23.13 31.54c.27.27.57.48.89.61.16.3.36.53.59.7l1.88 1.92 5.23 5.03a20.33 20.33 0 0 1-13.18-7.09c-.15-.17-.14-.34.02-.5l1.14-1.13c.14-.16.32-.2.53-.16l2.9.62Z" fill="#B7B7B7"/><path d="m19.71 41.66-1.33-.92c.67.13 1.12.44 1.33.92Z" fill="#9B9C9C"/></svg>