<!-- by TradingView --><svg width="56" height="56" viewBox="0 0 56 56" xmlns="http://www.w3.org/2000/svg"><path fill="#F0F3FA" d="M0 0h56v56H0z"/><path d="M10.95 34.83 9 37.55 28.04 42 47 37.55l-1.94-2.71-16.97 3.95-17.14-3.96Zm.46-.64 16.68 3.86 16.52-3.85-1.76-2.47-14.76 3.43-14.93-3.41-1.75 2.44Zm2.21-3.08 14.47 3.3 14.3-3.32-1.71-2.4-12.52 2.87-12.76-2.93-1.78 2.48Zm2.24-3.12 12.3 2.83 12.06-2.76-1.77-2.48-10.54 2.39-10.3-2.42-1.75 2.44Zm2.2-3.08 9.85 2.32 10.08-2.29-1.76-2.47-8.33 1.9-8.07-1.93-1.77 2.47Zm2.23-3.1 7.62 1.82 7.87-1.8-1.75-2.45-5.98 1.4-6.01-1.4-1.75 2.43Zm2.2-3.08 5.56 1.3 5.52-1.29-1.77-2.48-3.75.93-3.8-.9-1.76 2.44Zm2.21-3.08 3.35.8 3.3-.83L28.03 11l-3.34 4.65Z" fill="url(#a)"/><defs><linearGradient id="a" x1="46.2" y1="37.24" x2="10.66" y2="37" gradientUnits="userSpaceOnUse"><stop stop-color="#0E76BC"/><stop offset="1" stop-color="#2BB673"/></linearGradient></defs></svg>