<!-- by TradingView --><svg width="56" height="56" viewBox="0 0 56 56" xmlns="http://www.w3.org/2000/svg"><path fill="#F0F3FA" d="M0 0h56v56H0z"/><path d="M49 28c0 5.52-9.38 10-20.99 10C16.41 38 7 33.52 7 28s9.4-10 21.01-10C39.61 18 49 22.48 49 28Z" fill="#445042"/><path d="M41.91 31C40.56 31 40 29.72 40 28.53c0-1.19.63-2.47 1.97-2.47.4 0 .68.19 1.03.6v-1.72c0-.4-.14-.63-.6-.65V24H44v5.75c0 .39.1.6.5.64v.32c-.64.05-.87.14-1.5.29v-.7c-.3.36-.6.7-1.09.7Zm.09-4.38c-.62 0-1 .66-1 1.91s.35 1.9.9 1.9c.32 0 .87-.25 1.1-.7V27.1c-.23-.3-.75-.47-1-.47ZM34 31c-1.32 0-2-1.32-2-2.5 0-1.17.67-2.5 2-2.5 1.32 0 2 1.33 2 2.5 0 1.18-.68 2.5-2 2.5Zm0-.37c.86 0 1-1.64 1-2.13 0-.5-.2-2.13-1-2.13s-1 1.64-1 2.13c0 .48.14 2.13 1 2.13ZM38 31c-1.32 0-2-1.32-2-2.5 0-1.17.67-2.5 2-2.5 1.32 0 2 1.33 2 2.5 0 1.18-.68 2.5-2 2.5Zm0-.37c.86 0 1-1.64 1-2.13 0-.5-.2-2.13-1-2.13s-1 1.64-1 2.13c0 .48.14 2.13 1 2.13ZM30 26.48v3.58c0 .44.04.61.6.65V31h-2.19v-.29c.44-.03.59-.03.59-.71v-3.52h-.55V26H29v-.4c0-1.1 1-1.6 1.46-1.6.48 0 .9.09 1.15.26.26.17.39.4.39.72 0 .34-.26.65-.61.65-.52 0-.95-.42-.61-.9.07-.1.1-.19.06-.26-.03-.07-.11-.1-.24-.1-.4 0-.6.2-.6.63v1h1v.48h-1ZM24 30.04v-5.08c0-.4-.18-.65-.52-.67V24H25v4.49c.42-.43 1.45-1.3 1.54-1.92.05-.29-.4-.28-.57-.28V26H28v.3c-.5 0-.85.33-1.18.66l-.74.86 1.68 2.56c.15.21.26.3.4.33h.03V31h-2v-.3h.05c.36-.03.42-.13.27-.36l-1.07-1.8-.44.38v1.12c0 .46.14.63.52.67V31h-2.04v-.3c.38-.02.52-.2.52-.66Z" fill="#FEFED7"/><path d="M22 30.04v-5.08c0-.4-.24-.65-.66-.67V24H23v6.04c0 .46.18.63.67.67V31h-2.33v-.3c.49-.03.66-.2.66-.66ZM19 30.06v-3.12c0-.45-.17-.63-.66-.65V26H20v4.06c0 .45.18.62.67.65V31h-2.33v-.29c.49-.03.66-.2.66-.65ZM19.5 25a.5.5 0 0 0 .5-.5.5.5 0 0 0-.5-.5.5.5 0 0 0-.5.5c0 .32.26.5.5.5ZM11 30.03v-2.91c0-.47-.15-.8-.5-.82V26H12v.9c.26-.54.9-.9 1.52-.9.6 0 .83.47.93 1.01.25-.58.82-1.01 1.5-1.01.69 0 1.05.58 1.05 1.56v2.47c0 .46.13.64.48.67v.3h-1.96v-.3c.35-.03.48-.21.48-.67v-2.61c0-.44-.35-.72-.63-.72-.36 0-.74.34-.87.65v2.68c0 .46.13.64.48.67v.3h-1.94v-.3c.35-.03.48-.21.48-.67v-2.6c0-.45-.29-.73-.57-.73-.36 0-.82.34-.95.65v2.68c0 .46.13.64.48.67v.3H10.5v-.3c.35-.03.5-.21.5-.67Z" fill="#FEFED7"/></svg>