<!-- by TradingView --><svg width="18" height="18" viewBox="0 0 18 18" xmlns="http://www.w3.org/2000/svg"><path fill="#F0F3FA" d="M0 0h18v18H0z"/><circle cx="14" cy="12" r="1" fill="url(#a)"/><circle cx="11" cy="7" r="1" fill="url(#b)"/><circle cx="6" cy="8" r="1" fill="url(#c)"/><circle cx="9" cy="11" r="1" fill="url(#d)"/><circle cx="4" cy="12" r="1" fill="url(#e)"/><circle cx="9" cy="3" r="1" fill="url(#f)"/><path d="m4.5 12.04 4.4 2.59v-3.34l-4.4.75Zm4.65 2.58 4.36-2.58-4.36-.75v3.33ZM4.38 11.8l4.4-.75L6.4 8.41l-2.03 3.4Zm4.84-.76 4.39.76-2.56-4.1-1.83 3.34Zm2.01-3.54 2.51 4.02V6.26l-2.5 1.24Zm-6.97 4 1.96-3.29-1.96-1.86v5.16Zm2.38-3.22L9 10.91l1.8-3.3-4.16.67Zm-.02-.26 4.24-.67-1.84-3.91-2.4 4.58ZM4.34 6.07l2.01 1.91L8.7 3.49 4.34 6.07Zm6.77 1.2 2.5-1.23-4.29-2.56 1.79 3.8ZM14 12.05 9.02 15 4 12.05V5.98L9.02 3 14 5.98v6.07Z" fill="url(#g)"/><defs><linearGradient id="a" x1="15" y1="12" x2="13" y2="12" gradientUnits="userSpaceOnUse"><stop stop-color="#0F5C90"/><stop offset="1" stop-color="#CADFF2"/></linearGradient><linearGradient id="b" x1="12" y1="7" x2="10" y2="7" gradientUnits="userSpaceOnUse"><stop stop-color="#0F5C90"/><stop offset="1" stop-color="#CADFF2"/></linearGradient><linearGradient id="c" x1="7" y1="8" x2="5" y2="8" gradientUnits="userSpaceOnUse"><stop stop-color="#0F5C90"/><stop offset="1" stop-color="#CADFF2"/></linearGradient><linearGradient id="d" x1="10" y1="11" x2="8" y2="11" gradientUnits="userSpaceOnUse"><stop stop-color="#0F5C90"/><stop offset="1" stop-color="#CADFF2"/></linearGradient><linearGradient id="e" x1="5" y1="12" x2="3" y2="12" gradientUnits="userSpaceOnUse"><stop stop-color="#0F5C90"/><stop offset="1" stop-color="#CADFF2"/></linearGradient><linearGradient id="f" x1="10" y1="3" x2="8" y2="3" gradientUnits="userSpaceOnUse"><stop stop-color="#0F5C90"/><stop offset="1" stop-color="#CADFF2"/></linearGradient><linearGradient id="g" x1="14" y1="9" x2="4" y2="9" gradientUnits="userSpaceOnUse"><stop stop-color="#0F5C90"/><stop offset="1" stop-color="#CADFF2"/></linearGradient></defs></svg>