<!-- by TradingView --><svg width="56" height="56" viewBox="0 0 56 56" xmlns="http://www.w3.org/2000/svg"><path fill="#FC9" d="M0 0h56v56H0z"/><path d="M6 22v.39h.58c.44 0 .92.34.92.76v8.68c0 .42-.48.76-.92.76H6V33h5.33v-.41h-.5c-.45 0-.83-.34-.83-.76v-3.92l.26-.23 3.24 4.38c.18.25 0 .6-.3.6h-.57V33h5.2v-.34c-.54 0-1.26-.63-1.55-.94l-4.23-5.36 3.65-3.22a3.8 3.8 0 0 1 1.9-.79V22h-4.21v.35h.67c.52 0 .76.67.36 1.01L10 27.16v-4.01c0-.42.38-.76.82-.76h.5V22H6Zm41.09 3.26V25h3.37v.26c-.3.03-1 .2-1.43.57l-2.12 2.14 2.92 3.93c.22.23.76.68 1.17.68V33h-4.19v-.42h.43c.23 0 .37-.26.23-.44l-2.05-2.88-.42.41v2.17c0 .42.65.76 1.1.76h.4v.4h-4.11v-.4h.13c.45 0 .48-.34.48-.76v-8.71c0-.42-.03-.76-.48-.76h-.27V22H45v6.89l2.87-2.9c.3-.25.12-.73-.27-.73h-.51Zm-28.8 1.71c.12-.65.9-1.97 3-1.97s2.74 1.41 2.71 2.12V31.28c.02.26.05.7.58.7-.06.34-.43 1.02-1.4 1.02C22 33 22 32.1 22 31.78V31.71c-.56.5-1.64 1.29-2.56 1.29-1.02 0-1.37-.91-1.42-1.37 0-1.55 2.55-3.09 3.98-3.74v-1.54c0-.3-.26-.93-1.17-.93-.9 0-1.08.62-1.05.93.24.04.72.25.72.77 0 .65-.85.81-1.11.81-.26 0-1.1-.13-1.1-.96ZM22 28.45c-2.03 1.2-2 2.07-2 2.38v.04c0 .27.17 1.02.93 1.02.46 0 .84-.38 1.07-.72v-2.72ZM28 25h-3v.39h.22a.8.8 0 0 1 .78.8v5.6a.8.8 0 0 1-.78.79H25V33h4.1v-.42h-.37c-.4 0-.73-.36-.73-.8v-3.54c.61-1.6 1.3-1.87 1.58-1.79.12.8.65.83.89.83.23 0 .97-.13.97-1.2 0-.86-.74-1.08-1.11-1.08-1.03 0-1.88 1.18-2.33 2.16V25Zm13 0h-3.09v.39h.26c.4 0 .83.35.83.8v5.6c0 .43-.42.79-.83.79h-.13V33h3.8v-.42h-.37c-.4 0-.47-.36-.47-.8V25Zm-9.03.7H33v5.67c0 .23.15 1.63 1.8 1.63 1.32 0 1.86-1.19 1.97-1.78-.1.23-.46.7-1.02.7a.74.74 0 0 1-.75-.7V25.7h2V25h-2v-2.5h-.34c-.2 1.17-1.88 2.52-2.7 3v.2Zm7.68-1.53c.66 0 1.2-.48 1.2-1.08 0-.6-.54-1.09-1.2-1.09-.67 0-1.2.49-1.2 1.09 0 .6.53 1.08 1.2 1.08Z" fill="#C30"/></svg>