<!-- by TradingView --><svg width="56" height="56" viewBox="0 0 56 56" xmlns="http://www.w3.org/2000/svg"><path fill="#F0F3FA" d="M0 0h56v56H0z"/><path fill-rule="evenodd" d="M7.07 36h-.1c-.74 0-1.35-.6-1.35-1.34v-.4c0-.52.43-.94.96-.94 0-2.35-.38-7.66-1.87-10.14-1.78-2.98.28-3.13.85-3.17h2.92c.39-.02 1.22.16 1.49.98.18-.33.81-.99 1.9-.99 1.37 0 2.07.36 2.24.68.2-.23.9-.68 2.15-.68 1.57 0 2.9.12 3.48 1.31l1.65 9.1 1.57-.43c-.66-.88-1.98-3.2-1.98-5.45 0-2.82.78-4.53 3.1-4.53.4.01 1.33.08 1.82.24.44-.15 1.55-.24 2.4-.24h9.98c.7.13 1.84 1.07.72 2.8v11.08c0 1.17-.95 2.12-2.12 2.12H35.2a.99.99 0 0 1-.98-.99c-.46.62-1.2.99-1.96.99H28.3c-.07-.37-.5-.9-1.64 0H7.07Zm5.11-2.76c-.27-.08-.76-.93-.5-3.68.32-3.43 1.79-6.6 2.11-6.77.32-.17-.54 8.18-1.6 10.45Zm14.9-7.7 1.45-.29v2.86l-1.45-2.57Z" fill="#74D3C2"/><path d="M11.26 35.32H6.88a.48.48 0 0 1-.49-.48v-.99c0-.22.19-.4.42-.4.23 0 .41-.19.41-.42v-4.19l-1.9-6.34a.35.35 0 0 0-.33-.25.35.35 0 0 1-.35-.35v-.69c0-.26.22-.48.49-.48h3.73c.27 0 .49.22.49.48v.77c0 .15-.12.27-.28.27a.27.27 0 0 0-.26.35l1.12 3.67 1.1-3.64a.3.3 0 0 0-.3-.38.3.3 0 0 1-.3-.3v-.74c0-.26.22-.48.49-.48h2c.28 0 .5.22.5.48v.7c0 .19-.16.34-.35.34-.14 0-.27.09-.32.23l-1.95 5.88v4.61c0 .26.21.47.47.47.27 0 .48.21.48.47v.93c0 .26-.22.48-.49.48Z" fill="#F0F3FA"/><path d="M4.39 21.21c0-.4.33-.73.74-.73h3.73c.4 0 .74.33.74.73v.77c0 .29-.24.52-.53.52h-.01l-.01.02.88 2.89.85-2.85c0-.03 0-.06-.05-.06a.55.55 0 0 1-.55-.55v-.74c0-.4.33-.73.74-.73h2c.4 0 .74.33.74.73v.7c0 .33-.26.59-.59.59a.09.09 0 0 0-.08.06L11 28.4v4.57c0 .12.14.22.27.22.4 0 .73.32.73.72v.93c0 .4-.33.73-.74.73H6.88a.73.73 0 0 1-.74-.73v-.99c0-.37.3-.66.67-.66.1 0 .19-.07.19-.16v-4.15l-1.91-6.31a.1.1 0 0 0-.1-.07.6.6 0 0 1-.6-.6v-.69Zm.74-.21c-.14 0-.24.1-.24.21v.7c0 .04.04.09.1.09.26 0 .5.17.58.42l1.9 6.39v4.22c0 .37-.3.66-.66.66-.1 0-.17.08-.17.16v.99c0 .12.1.16.24.16h4.38c.14 0 .24-.04.24-.16v-.93c0-.11-.1-.22-.23-.22a.72.72 0 0 1-.72-.72v-4.65l1.97-5.92c.08-.24.3-.4.55-.4.06 0 .1-.04.1-.09v-.7c0-.12-.1-.21-.24-.21h-2.01c-.14 0-.24.1-.24.21v.74c0 .02.02.05.05.05.36 0 .64.34.53.7l-1.32 4.44-1.37-4.47a.52.52 0 0 1 .5-.67c.02 0 .03-.02.03-.02v-.77c0-.12-.1-.21-.24-.21H5.13Z" fill="#3387C3"/><path d="M14.42 21.47v-.49c0-.27.22-.5.49-.5h3.87l2.12 13.4h.19c.27 0 .49.23.49.5v.69a.5.5 0 0 1-.5.5H17.1a.5.5 0 0 1-.5-.5v-.68c0-.28.23-.5.5-.5h.32l-.2-1.47h-2.09l-.21 1.47h.25c.27 0 .5.22.5.5v.68a.5.5 0 0 1-.5.5h-2.27a.5.5 0 0 1-.5-.5v-.52c0-.27.23-.5.5-.5h.35l1.99-12.08h-.32a.5.5 0 0 1-.5-.5Zm.9 9.53h1.71l-.82-6.62-.9 6.62Z" fill="#F0F3FA"/><path fill-rule="evenodd" d="m20.9 33.89-2.12-13.4H14.9a.5.5 0 0 0-.5.5v.48a.5.5 0 0 0 .5.5h.32l-1.99 12.08h-.35a.5.5 0 0 0-.5.5v.52c0 .28.23.5.5.5h2.27a.5.5 0 0 0 .5-.5v-.68a.5.5 0 0 0-.5-.5h-.26l.22-1.47h2.1l.2 1.47h-.33a.5.5 0 0 0-.5.5v.68c0 .28.23.5.5.5h4a.5.5 0 0 0 .49-.5v-.68a.5.5 0 0 0-.5-.5h-.18ZM18.35 21H15v.47h.82l-2.15 12.92H13V35h2v-.61h-.67l.36-2.39h2.96l.34 2.39H17V35h4v-.61h-.53L18.35 21Zm-3.6 10.5.96-7.19h1l.89 7.2h-2.86Zm2.28-.5-.82-6.62-.9 6.62h1.72Z" fill="#3387C3"/><path d="m27.52 21.02.53 3.61h-1.32c-1.17-2.56-1.64-2.73-2-2.67-.34.05-.72 1.22 1.44 3.99a10.03 10.03 0 0 1 2.14 5.69c-.18 4.37-2.95 3.85-4.3 3.04l-.22.39a.5.5 0 0 1-.44.25h-.27a.49.49 0 0 1-.5-.4l-.71-4.1h1.46c.1.52.45 1.75 1.09 2.57.79 1.04 2.75.65 0-2.92-2.2-2.86-2.74-5.45-2.73-6.4.42-4.1 2.95-3.55 4.16-2.75l.2-.42a.5.5 0 0 1 .45-.28h.53c.25 0 .46.17.5.4Z" fill="#F0F3FA"/><path d="M25.82 20.8c.12-.27.39-.43.68-.43h.53c.36 0 .69.25.74.62l.57 4.01h-1.77l-.07-.26a10.25 10.25 0 0 0-1.26-2.26.91.91 0 0 0-.3-.26.25.25 0 0 0-.15-.02l-.04.1c-.04.1-.05.3 0 .59.13.59.55 1.54 1.62 2.9a10.28 10.28 0 0 1 2.2 5.85c-.1 2.24-.86 3.33-1.89 3.7-.89.31-1.87.04-2.58-.32l-.09.17a.75.75 0 0 1-.66.38h-.27a.74.74 0 0 1-.74-.6l-.77-4.4h1.97l.04.21c.1.5.44 1.68 1.03 2.46.17.22.39.35.58.39.18.04.29-.02.34-.1.06-.11.1-.37-.08-.87a8.17 8.17 0 0 0-1.23-2.04c-2.23-2.9-2.79-5.54-2.78-6.55v-.02c.22-2.1.98-3.1 1.96-3.43a3.03 3.03 0 0 1 2.34.34l.08-.17Zm.68.07c-.1 0-.2.06-.23.13l-.31.68-.25-.16c-.57-.37-1.43-.66-2.16-.42-.7.23-1.4.99-1.61 3 0 .88.5 3.4 2.67 6.21.7.9 1.11 1.62 1.31 2.18.2.54.22.99.04 1.3-.2.32-.56.4-.87.33a1.53 1.53 0 0 1-.87-.57A7.35 7.35 0 0 1 23.13 31h-.97l.67 3.88c.02.1.12.19.25.19h.27c.1 0 .18-.05.22-.12l.34-.62.22.13c.66.4 1.6.68 2.38.4.75-.26 1.46-1.09 1.55-3.23.01-.93-.4-3.37-2.08-5.53-1.1-1.4-1.57-2.41-1.71-3.11a1.7 1.7 0 0 1 0-.85c.07-.2.2-.4.43-.43a.76.76 0 0 1 .43.05c.16.07.32.2.49.39.32.37.72 1.04 1.27 2.23h.87l-.49-3.32c-.01-.1-.1-.2-.24-.2h-.53Z" fill="#3387C3"/><path d="M33.07 20.73h-3.95c-.28 0-.5.22-.5.49v.56c0 .27.22.48.5.48h.46v11.59h-.46c-.28 0-.5.21-.5.48v.5c0 .27.22.49.5.49h3.95c.27 0 .49-.22.49-.48v-.5a.49.49 0 0 0-.5-.5h-.1v-5.77h.86V26.9h-.87v-4.65h.12c.27 0 .49-.21.49-.48v-.56a.49.49 0 0 0-.5-.49Z" fill="#F0F3FA"/><path d="M28.37 21.22c0-.41.34-.74.75-.74h3.95c.4 0 .74.33.74.74v.56c0 .36-.27.66-.6.72v4.16h.86v1.66h-.87v5.29c.34.06.6.36.6.72v.5c0 .42-.33.74-.73.74h-3.95a.74.74 0 0 1-.75-.73v-.5c0-.42.34-.74.75-.74h.2V22.5h-.2a.74.74 0 0 1-.75-.73v-.56Zm.75-.22c-.14 0-.25.1-.25.22v.56c0 .12.1.23.25.23h.7V34h-.7c-.14 0-.25.2-.25.33v.5c0 .13.1.17.25.17h3.95c.13 0 .24-.04.24-.16v-.5c0-.13-.1-.34-.24-.34h-.37v-6.18h.87v-.66h-.87V22h.37c.13 0 .24-.1.24-.23v-.56c0-.13-.1-.22-.24-.22h-3.95Z" fill="#3387C3"/><path d="M38.09 20.8h-3.84c-.27 0-.49.2-.49.48v.53" fill="#F0F3FA"/><path d="M33.51 21.28c0-.41.34-.74.74-.74h3.84c.4 0 .74.33.74.74v.44c0 .41-.34.74-.74.74H38V33.4c0 1.1-.95 1.99-2.06 1.99a1.94 1.94 0 0 1-1.94-2V22.85c0-.1-.14-.2-.25-.39l-.01-.02c-.1-.15-.23-.38-.23-.62v-.53Zm.74-.28c-.13 0-.24.15-.24.28v.53c0 .1.06.2.17.39l.01.02c.1.15.23.37.23.62V33.4c0 .82.67 1.49 1.52 1.49a1.5 1.5 0 0 0 1.53-1.5V21.97h.62c.14 0 .24-.11.24-.24v-.44c0-.13-.1-.28-.24-.28h-3.84Z" fill="#3387C3"/><path d="M34.41 26.67v6.71c0 .94.69 1.57 1.53 1.57a1.5 1.5 0 0 0 1.52-1.57v-6.71h-3.05Z" fill="#3DEADC"/><ellipse cx="35.64" cy="31.95" rx=".53" ry=".51" fill="#F0F3FA"/><ellipse cx="35.41" cy="29.82" rx=".53" ry=".51" fill="#F0F3FA"/><ellipse cx="36.57" cy="28.7" rx=".44" ry=".42" fill="#F0F3FA"/><ellipse cx="35.5" cy="27.78" rx=".44" ry=".42" fill="#F0F3FA"/><ellipse cx="35.64" cy="24.55" rx=".61" ry=".59" fill="#3DEADC"/><ellipse cx="36.39" cy="22.1" rx=".61" ry=".59" fill="#3DEADC"/><path d="m41.46 30 .2 1.37h-.4l-.18-.96h-.51v4.22h.51v-.83h.57c0 .7-.4 1.16-.93 1.2-.54.04-1.2-.58-1.3-2.53-.09-1.56.52-2.31.87-2.47h1.17ZM43.23 30h-1.49v.45H42v4.03h-.26V35h1.49v-.52H43v-1.86h.78v1.86h-.17V35h1.67v-.52H45v-4.03h.28V30H43.6v.45h.17v1.7H43v-1.7h.23V30ZM48.3 31.16 47.87 30h-2.16v.46H46v4.1h-.29V35H48v-1.18h-.13l-.38.74H47V32.6h.49l.51.56v-1.49l-.51.48H47v-1.79h.49l.38.81h.43ZM48.74 34.55V35h1.04v-.45h-.24v-2.5l.48 1.64h.32l.66-1.63v2.49h-.4V35H52v-5h-1.03l-.43 1.73-.52-1.73h-1.28v.51H49v4.04h-.26Z" fill="#3DEADC"/></svg>