<!-- by TradingView --><svg width="56" height="56" viewBox="0 0 56 56" xmlns="http://www.w3.org/2000/svg"><path fill="#F0F3FA" d="M0 0h56v56H0z"/><path fill-rule="evenodd" d="M21.35 43.65a16.84 16.84 0 0 0 13.01.1A16.89 16.89 0 0 0 45 28.14a16.83 16.83 0 0 0-4.87-12.05A16.85 16.85 0 0 0 28.16 11a16.86 16.86 0 0 0-12.07 4.88A16.89 16.89 0 0 0 11 27.86a16.83 16.83 0 0 0 4.87 12.06c1.58 1.6 3.4 2.85 5.48 3.73Zm.45-.48a16.14 16.14 0 0 0 12.5-.04 16.26 16.26 0 0 0 10.03-15.18 16.29 16.29 0 0 0-4.82-11.59 16.17 16.17 0 0 0-11.58-4.76 16.15 16.15 0 0 0-11.54 4.84 16.3 16.3 0 0 0-3.48 17.88 16.27 16.27 0 0 0 8.89 8.85Z" fill="#23771D"/><path fill-rule="evenodd" d="M21.83 42.76a15.58 15.58 0 0 0 12.14.06 15.85 15.85 0 0 0 8.63-8.62 16 16 0 0 0 .07-12.24A15.83 15.83 0 0 0 22 13.2a15.85 15.85 0 0 0-8.63 8.62 16 16 0 0 0-.07 12.24 15.84 15.84 0 0 0 8.53 8.7Zm.34-.25a15.2 15.2 0 0 0 11.85-.1 15.5 15.5 0 0 0 8.3-8.55 15.65 15.65 0 0 0 1.13-6 15.65 15.65 0 0 0-4.64-11.04 15.32 15.32 0 0 0-11-4.5A15.28 15.28 0 0 0 16.92 17a15.65 15.65 0 0 0-4.43 11.11 15.65 15.65 0 0 0 4.63 11.05 15.32 15.32 0 0 0 5.06 3.35Z" fill="#72AB5F"/><path d="M35.29 18.45a6.5 6.5 0 0 0-4.11-.18c-1.28.3-2.18.96-2.71 1.99a13.94 13.94 0 0 0-1.4 4.53c-.4 2.96-.69 4.81-.86 5.55a17.7 17.7 0 0 1-.63 2.16 7.01 7.01 0 0 1-1.1 1.92c-.19.24-.35.38-.48.44-.4.17-.48.08-.26-.27.55-.88.93-1.87 1.14-2.98.25-1.37.45-3 .6-4.86.06-.78.26-1.9.58-3.35.33-1.42.9-2.65 1.72-3.67a6.78 6.78 0 0 1 3.27-2.14c1.28-.42 2.62-.58 4.03-.48.82.06 1.4.31 1.76.76.12.15.1.34-.03.57l-.6.63a.28.28 0 0 1-.23.08.27.27 0 0 1-.22-.13c-.2-.33-.35-.52-.47-.57Z" fill="#518045"/><path d="M34.24 20.35c-.21-.29-.41-.5-.6-.63a2.13 2.13 0 0 0-.88-.31 7.53 7.53 0 0 0-2.63.02c-.42.08-.47-.02-.17-.3.06-.05.18-.1.36-.17a8.09 8.09 0 0 1 3.93-.26c.55.08.88.33 1 .76.02.08.01.15-.03.22-.18.28-.43.52-.76.71-.09.06-.16.04-.22-.04ZM22.92 35.22c-.03.06-.01.1.06.1.92.13 2.24.41 3.98.85 1.09.27 1.92.47 2.49.59 1.47.3 2.85.17 4.15-.41.16-.07.26-.05.3.06a.1.1 0 0 1-.01.09 3.5 3.5 0 0 1-2.26 1.4 6.1 6.1 0 0 1-2.77 0c-1.16-.27-2.7-.76-4.61-1.47a5.57 5.57 0 0 0-1.96-.39.34.34 0 0 0-.22.07 5.05 5.05 0 0 1-3.4 1.1.2.2 0 0 1-.16-.1.18.18 0 0 1-.01-.18c.24-.5.74-.9 1.48-1.2.6-.25 1.27-.4 2-.45.2-.02.34-.1.42-.28.4-.87.64-1.8.74-2.79.14-1.28.29-3.09.44-5.41.1-1.47.4-2.82.9-4.05a6.95 6.95 0 0 1 2.34-3.03.12.12 0 0 1 .13-.02c.05.02.08.06.08.1 0 .06-.02.11-.06.17l-.24.4a9.83 9.83 0 0 0-.84 1.53c-.48 1.24-.8 2.54-.94 3.9l-.17 1.68a39.9 39.9 0 0 1-.5 4c-.3 1.45-.75 2.7-1.36 3.74Z" fill="#518045"/><path d="M32.31 25.22a2.24 2.24 0 0 0-1.25-1.9 4.32 4.32 0 0 0-2.4-.45c-.13 0-.19-.05-.16-.17.02-.1.09-.16.2-.2a4.83 4.83 0 0 1 2.58-.03c.51.1.96.3 1.36.57.44.3.75.65.9 1.07.26.64.26 1.27 0 1.89-.24.6-.68 1.09-1.31 1.45-.26.14-.5.2-.73.17a.12.12 0 0 1-.1-.07c-.02-.05-.01-.1.02-.13.65-.66.95-1.4.9-2.2Z" fill="#385D33"/><path d="m30.31 28.04 1.06.06c1.59.04 2.9.51 3.93 1.42a3.26 3.26 0 0 1 1.07 2.7 5.15 5.15 0 0 1-1.6 3.5c-.46.27-.58.17-.37-.3.06-.13.17-.33.35-.63.25-.42.35-1.14.3-2.18a3.4 3.4 0 0 0-1.33-2.6c-.77-.63-1.73-1-2.87-1.09a10.93 10.93 0 0 0-3.02.14c-.05.01-.1 0-.14-.04-.05-.05-.06-.1-.02-.17a.22.22 0 0 1 .08-.08l.23-.11c.7-.36 1.18-.67 1.45-.94a2.8 2.8 0 0 0 .86-2.3c-.1-1.03-.75-1.65-1.99-1.87-.07-.01-.1-.05-.1-.12 0-.15.08-.23.23-.24a3.9 3.9 0 0 1 2.13.43c.7.39 1.06.94 1.09 1.66.03.97-.35 1.76-1.13 2.38-.1.08-.2.17-.26.26-.06.08-.04.11.05.12ZM21.46 26.99c.06.16.26.35.58.57l.06.04c.04.03.07.07.07.13 0 .05-.02.1-.07.13-.58.42-1.12.42-1.63.01-.21-.17-.37-.4-.47-.67-.1-.28-.11-.56-.04-.85.36-1.51 1.46-2.47 3.3-2.89.14-.03.2.03.2.18l-.01.08c0 .07-.04.12-.12.14-.83.31-1.43.85-1.79 1.63a1.83 1.83 0 0 0-.08 1.5Z" fill="#385D33"/><path d="M19.4 26.74c-.03.58.24 1.07.83 1.46.07.05.1.12.08.2a.2.2 0 0 1-.14.16c-.73.22-1.28.13-1.66-.26-.35-.37-.46-.9-.32-1.57.13-.63.52-1.2 1.16-1.68.3-.22.56-.36.82-.42.4-.1.44-.01.14.24a2.51 2.51 0 0 0-.92 1.87ZM30.58 30.29a7.5 7.5 0 0 0-3.21-.25c-.07 0-.12-.04-.13-.15 0-.02 0-.06.04-.12.06-.12.17-.2.31-.24a6.92 6.92 0 0 1 5.1.46c.86.46 1.41 1.14 1.68 2.06.25.83.22 1.71-.09 2.63-.07.22-.18.33-.32.33-.09 0-.13-.04-.13-.12-.04-2.32-1.12-3.85-3.25-4.6Z" fill="#385D33"/><path d="m31.28 38.44.19-.08c.32-.04.38.06.18.3-.18.2-.42.36-.74.49-1.2.49-2.43.55-3.68.2-.76-.22-1.88-.76-3.35-1.6l-.81-.47a2.44 2.44 0 0 0-1.09-.34c-.1 0-.12-.04-.09-.13.06-.14.13-.22.22-.24.35-.08.75-.06 1.2.07.47.13 1.6.56 3.37 1.3a8.4 8.4 0 0 0 4.4.55.78.78 0 0 0 .2-.05Z" fill="#518045"/></svg>