<!-- by TradingView --><svg width="18" height="18" viewBox="0 0 18 18" xmlns="http://www.w3.org/2000/svg"><path fill="#F0F3FA" d="M0 0h18v18H0z"/><path d="M8.24 13.24a.18.18 0 0 1-.18-.15c-.13.22-.04.33.1.33.12 0 .4.58.9.58.28 0 .61-.45.74-.58.12-.12.2-.18.2-.26 0-.08-.02-.16-.1-.16-.07 0-.2.24-.3.24-.1 0-.13-.15-.26-.15s-.26.28-.35.28c-.1 0-.34-.2-.43-.2-.08 0-.22.07-.32.07Z" fill="#E60406"/><path d="M5.86 6.6C7.47 6.87 7.96 8.31 8 9a3.09 3.09 0 0 0-2.45-1.9A6.55 6.55 0 0 1 3 6c.28.09 1.25.33 2.86.6ZM12.14 6.6c-1.61.27-2.1 1.71-2.14 2.4a3.09 3.09 0 0 1 2.45-1.9A6.55 6.55 0 0 0 15 6c-.28.09-1.26.33-2.86.6Z"/><path fill-rule="evenodd" d="M3.6 7.6c.24.13.85.38 1.35.38h.07A3.05 3.05 0 0 1 8 9.6c-.2.13-.74.4-1.38.4-.8 0-1.35-.45-1.86-1.12-.5-.67-.87-1.1-1.16-1.28Zm1.05.63c.42-.03 1.14.02 1.8.3h-.01c-.34 0-.6.29-.6.64 0 .16.05.3.14.42-.46-.2-.93-.6-1.33-1.36Zm2.4.94a.66.66 0 0 0-.12-.38c.27.18.5.42.69.72-.22.12-.53.23-.9.23.2-.1.33-.32.33-.57Zm-.82.33a.66.66 0 0 0 .53-.53c.03.06.05.13.05.2 0 .22-.16.4-.37.4a.36.36 0 0 1-.2-.07ZM14.4 7.6c-.24.13-.85.38-1.35.38h-.07A3.05 3.05 0 0 0 10 9.6c.2.13.74.4 1.38.4.8 0 1.35-.45 1.86-1.12.5-.67.87-1.1 1.16-1.28Zm-1.05.63a4.15 4.15 0 0 0-1.8.3h.01c.34 0 .6.29.6.64 0 .16-.05.3-.14.42.46-.2.93-.6 1.33-1.36Zm-2.4.94c0-.14.05-.27.12-.38-.27.18-.5.42-.69.72.22.12.53.23.9.23a.65.65 0 0 1-.33-.57Zm.46.33a.66.66 0 0 0 .53-.53c.03.06.05.13.05.2 0 .22-.17.4-.38.4a.36.36 0 0 1-.2-.07Z"/><path d="M9.3 8.7a.3.3 0 1 1-.6 0 .3.3 0 0 1 .6 0Z" fill="url(#a)"/><path d="M9.3 5.7a.3.3 0 1 1-.6 0 .3.3 0 0 1 .6 0Z" fill="url(#b)"/><path d="M7.8 6c.05.54.36 1.85 1.2 2 .84-.15 1.15-1.46 1.2-2-.45 1.02-.99 1.56-1.2 1.6-.21-.04-.75-.58-1.2-1.6Z" fill="#E60406"/><path fill-rule="evenodd" d="M9 4c-.34.31-1 1.08-1 1.73C8 6.4 8.66 6.85 9 7c.34-.15 1-.61 1-1.27 0-.65-.66-1.42-1-1.73Zm0 2.7c.26-.13.77-.5.77-.97S9.26 4.67 9 4.43c-.26.24-.77.83-.77 1.3 0 .48.51.84.77.96Z" fill="#E60406"/><path fill-rule="evenodd" d="M11.87 14.8a2 2 0 1 1 1.06-1.28l-.02.78a.3.3 0 0 1-.23.29l-.81.21Zm.8-1.8a1.67 1.67 0 1 1-3.34 0 1.67 1.67 0 0 1 3.34 0Z" fill="#E2DB11"/><defs><linearGradient id="a" x1="9" y1="8.2" x2="9" y2="8.8" gradientUnits="userSpaceOnUse"><stop stop-color="#F6F0E4"/><stop offset="1" stop-color="#D0C992"/></linearGradient><linearGradient id="b" x1="9" y1="5.5" x2="9" y2="6.1" gradientUnits="userSpaceOnUse"><stop stop-color="#F6F0E4"/><stop offset="1" stop-color="#D0C992"/></linearGradient></defs></svg>