<!-- by TradingView --><svg width="56" height="56" viewBox="0 0 56 56" xmlns="http://www.w3.org/2000/svg"><path fill="#F0F3FA" d="M0 0h56v56H0z"/><path d="M28 13a17.93 17.93 0 0 1 12.75 5.03 14.55 14.55 0 0 1 3.48 5.42c.1.27.2.73-.25.74l-2.99.02a6888.95 6888.95 0 0 1-28.96-.01c-.46-.01-.35-.46-.25-.73.75-2.06 1.9-3.87 3.48-5.43A17.93 17.93 0 0 1 28 13Z" fill="#0083BE"/><path d="M11.28 25.91c-.15-.25.02-.82.1-1.12.04-.1.08-.2.13-.25a.12.12 0 0 1 .07-.05c.11-.02.23-.02.35-.01 4.83.33 9.27.59 13.33.76 2.13.09 4.4.03 6.89-.1a1052.89 1052.89 0 0 0 12.09-.7c.2-.02.3.1.35.3.11.37.26.82.16 1.12a.11.11 0 0 1-.06.07.77.77 0 0 1-.3.06l-8.49-.14c-2.6-.05-6.43-.06-11.5-.04-3.85.01-8.62.15-12.8.2a.53.53 0 0 1-.27-.05.14.14 0 0 1-.05-.05ZM28 27.4c-2.74 0-5 .04-6.78.1a1969.3 1969.3 0 0 1-10.03.35.16.16 0 0 1-.14-.1.86.86 0 0 1-.05-.3c0-.27 0-.53.04-.84.03-.19.12-.3.25-.33.05-.02.2-.01.45 0l9.74.57c2.02.13 4.34.13 6.52.12 2.17 0 4.5 0 6.51-.13a1486.4 1486.4 0 0 1 10.19-.6c.13.03.22.15.25.34.05.3.04.56.04.84 0 .1-.01.2-.05.3a.16.16 0 0 1-.14.1h-.28l-9.74-.33c-1.79-.06-4.05-.1-6.78-.1ZM45 28.83l-.01.4c-.01.25-.14.37-.38.36-3.06-.1-6.23-.25-10.17-.42a193.01 193.01 0 0 0-13.82.03 3734.74 3734.74 0 0 1-9.4.4.13.13 0 0 1-.09-.05c-.15-.17-.13-.44-.13-.69 0-.24-.02-.51.13-.69a.13.13 0 0 1 .1-.04h.3c2.73.1 5.75.23 9.1.38a192.85 192.85 0 0 0 13.81.01c3.94-.18 7.1-.35 10.17-.45.24 0 .37.11.38.36l.01.4ZM11.34 29.9c.3-.02.64-.02 1.01-.01l6.11.21a204.4 204.4 0 0 0 17.42.03c1.19-.06 2.42-.1 3.7-.14 1.16-.03 3.54-.15 5-.15.16 0 .23.1.23.27 0 .4-.07.79-.2 1.18a.14.14 0 0 1-.13.09c-.56.01-1.14-.04-1.68-.06-3.79-.14-7.4-.3-10.85-.46a72.9 72.9 0 0 0-4.68-.11c-1.46.02-3.33.09-4.51.14-3.18.15-6.9.32-11.14.5-.13 0-.21-.06-.25-.2-.08-.36-.2-.78-.15-1.19a.12.12 0 0 1 .12-.1Z" fill="#018FCA"/><path d="M28.03 31.71H43.7c.2 0 .4.03.56.07a.2.2 0 0 1 .15.18.9.9 0 0 1-.04.3 14.53 14.53 0 0 1-3.73 5.86A18.08 18.08 0 0 1 28.03 43c-4.7 0-9.21-1.64-12.61-4.9a14.52 14.52 0 0 1-3.73-5.85.9.9 0 0 1-.05-.3.2.2 0 0 1 .16-.18c.16-.04.35-.06.56-.06h15.67Z" fill="#0083BE"/></svg>