<!-- by TradingView --><svg width="56" height="56" xmlns="http://www.w3.org/2000/svg"><path fill="#06357A" d="M0 0h56v56H0z"/><path d="M9.77 26.002H5.284l-.217 1.007h3.31c.44 0 1.393.113 1.393.655 0 .543-.828.742-1.266.742H4.778L4 32.002h1.393l.506-2.363c2.062-.103 2.84.103 2.876.514.03.328-.084 1.37-.145 1.849H10c0-1.336.072-1.85 0-2.26-.058-.329-.61-.507-.953-.555.65-.041 1.953-.432 1.953-1.664 0-1.233-.82-1.528-1.23-1.52zm34-.002h-4.486l-.217 1.006h3.31c.48 0 1.393.098 1.393.64s-.828.757-1.266.757h-3.726L38 31.996h1.393l.506-2.361c2.062-.103 2.84.102 2.876.513.03.329-.084 1.37-.145 1.848h1.368c0-1.334.073-1.848 0-2.258-.058-.33-.608-.507-.951-.555.65-.041 1.953-.431 1.953-1.663s-.82-1.527-1.23-1.52zM17 26.002h-4.774l-1.226 6h4.774L16 31h-3.514l.372-1.5h3.306l.223-1h-3.306l.315-1.5h3.381l.223-.998zM19 26h-1.61l1.873 2.834-3.26 3.168h1.687l3.277-3.168L19 26zm5.002.002h-1.46l-1.799 1.615.675.86 2.584-2.475zm-3.747 4.068l.937-.879 1.873 2.81h-1.573l-1.237-1.93zM23.411 32l1.226-6h1.993l2.53 4.495.977-4.495h1.284l-1.284 6h-1.878l-2.606-4.664L24.638 32H23.41zm15.119-3.659c.137-2.133-2.025-2.435-3.124-2.32-3.02 0-4.081 2.063-4.235 3.094-.134.637-.092 2.047 1.15 2.584 1.242.538 3.047.224 3.794 0 .747-.23 2.276-1.225 2.414-3.358z" fill="#fff"/><path d="M37.11 28.692c.26-1.632-1.04-1.76-1.867-1.692-1.733.142-2.294 1.015-2.495 1.57-.261.74-.23 2.327 1.108 2.43 1.647.127 2.996-.676 3.255-2.308z" fill="#06357A"/><path d="M50.106 26h-3.765L45 31.996h3.588c1.104-.127 1.945-.671 2.228-.928.374-.294 1.135-1.267 1.183-2.805.047-1.539-1.242-2.15-1.893-2.263z" fill="#fff"/><path d="M50.992 28.397c-.037-1.491-2.47-1.498-3.681-1.316l-.95 3.882c2.94.241 4.677-.702 4.63-2.566z" fill="#06357A"/></svg>