<!-- by TradingView --><svg width="18" height="18" viewBox="0 0 18 18" xmlns="http://www.w3.org/2000/svg"><path fill="#F0F3FA" d="M0 0h18v18H0z"/><path d="M9 4c.36 0 .66.1.91.31a4599.63 4599.63 0 0 1 4.76 3.94c.22.2.33.46.33.75 0 .3-.11.54-.33.75-.04.03-.1.1-.21.18L9.9 13.69c-.25.2-.55.31-.9.31-.36 0-.67-.1-.92-.31a4530.87 4530.87 0 0 1-4.76-3.94A.98.98 0 0 1 3 9c0-.3.11-.54.33-.75l.21-.18L8.1 4.31c.25-.2.55-.31.91-.31Zm0 .14c-.33 0-.6.09-.83.28L3.64 8.16c-.17.15-.29.26-.35.34a.85.85 0 0 0 0 1c.06.08.18.19.35.33l4.53 3.75c.22.19.5.28.83.28.33 0 .6-.1.83-.28l4.53-3.75c.17-.14.29-.25.35-.33a.85.85 0 0 0 0-1c-.06-.08-.18-.2-.35-.33L9.83 4.42c-.22-.19-.5-.28-.83-.28Z" fill="#008244"/><path d="M9 4.36c.28 0 .51.08.71.24l4.7 3.9a.63.63 0 0 1 0 1.02l-4.7 3.88c-.2.16-.43.24-.71.24-.28 0-.52-.08-.71-.24l-4.7-3.9a.63.63 0 0 1-.25-.5c0-.2.08-.37.25-.5l4.7-3.9c.2-.16.43-.24.7-.24Z" fill="#008244"/><path d="M8.67 7.39c.01-.18.08-.34.22-.5a.75.75 0 0 1 .6-.26c.23 0 .44 0 .61-.03a.48.48 0 0 0 .3-.16v.75c0 .56-.18.92-.55 1.08-.18.07-.44.1-.78.1a344.05 344.05 0 0 0-1.15-.01V7.2c0-.25.04-.46.11-.61a.95.95 0 0 1 .3-.35c.13-.09.27-.15.42-.2.1-.02.24-.03.42-.03a5.6 5.6 0 0 0 1.28-.12 1.34 1.34 0 0 1 .05-.01.65.65 0 0 1-.33.41c-.15.08-.32.12-.5.12l-.68.01a.8.8 0 0 0-.47.18.58.58 0 0 0-.22.47 256.3 256.3 0 0 1 .02.9h.95c.45 0 .7-.18.73-.53a2.89 2.89 0 0 0 .01-.4h-.59c-.08 0-.18 0-.3.04a.8.8 0 0 0-.44.32v-.01Z" fill="#B1D235"/><path d="m6.61 7.3.03.04c.06.08.15.12.26.13h.08c.27.03.47.08.6.16.1.07.17.18.2.32a1.8 1.8 0 0 1 .01.41c-.07-.1-.21-.16-.43-.17h-.1c-.12 0-.21 0-.26-.02-.15-.05-.26-.17-.33-.35a1.36 1.36 0 0 1-.07-.51h.01Z" fill="#FFF201"/><path d="M5.78 8.38c.11-.01.22 0 .32.02.27.08.43.26.5.56l-.01.01a.02.02 0 0 1-.01 0h-.23a.1.1 0 0 1-.04 0 .12.12 0 0 1-.04-.03l-.13-.16a.1.1 0 0 0-.03-.03.46.46 0 0 0-.35-.04c-.17.04-.27.19-.3.44-.04.22-.02.42.07.58.08.12.2.19.34.2.15 0 .26-.05.33-.15a.53.53 0 0 0 .09-.23H6.1c-.08-.01-.13-.04-.16-.1a.46.46 0 0 1-.03-.2l.02-.01h.65v.96c-.15.02-.24-.04-.26-.19h-.01a.51.51 0 0 1-.46.24.72.72 0 0 1-.53-.22.91.91 0 0 1-.22-.57c-.04-.46.08-.79.36-.98a.66.66 0 0 1 .3-.1Zm1.26.48c.15-.03.3-.02.47.04.13.06.2.18.2.35v.32c0 .15 0 .25-.02.32-.05.19-.17.3-.37.34a.82.82 0 0 1-.35 0c-.13-.03-.22-.1-.25-.22a.72.72 0 0 1-.03-.2c0-.24.14-.38.42-.41.17-.03.27-.06.3-.11.01-.03 0-.07-.02-.11l-.01-.02a.41.41 0 0 0-.13-.03.22.22 0 0 0-.22.08.04.04 0 0 1-.03.01h-.27V9.2a.4.4 0 0 1 .31-.35Zm2.51-.02c.2 0 .35.08.45.24a.9.9 0 0 1 .11.56h-.77l-.01.01v.01c0 .16.07.26.18.28.1.02.19 0 .25-.08a.15.15 0 0 1 .12-.06 6.63 6.63 0 0 0 .21 0v.01a.5.5 0 0 1-.29.38.54.54 0 0 1-.49 0c-.15-.08-.25-.22-.29-.44a1 1 0 0 1 .06-.61c.1-.2.25-.3.47-.3Zm1.87-.46c.1 0 .16 0 .2.02.07.02.1.08.1.17a30.2 30.2 0 0 1 .02.45c.07-.13.18-.2.32-.2.12 0 .23.03.32.1.1.08.17.19.2.32l.02.3a30.46 30.46 0 0 0-.01.7v.01h-.31v-.01a39.4 39.4 0 0 1-.03-.88.32.32 0 0 0-.14-.2.22.22 0 0 0-.22.01c-.1.05-.15.17-.16.35a40.54 40.54 0 0 0-.01.73h-.32V8.37h.02Zm-3.41.56a.6.6 0 0 1 .64 0c.13.07.2.22.2.43a36.94 36.94 0 0 1-.01.88h-.02c-.1 0-.16 0-.2-.02-.05-.02-.08-.08-.08-.16v-.63c0-.1 0-.18-.03-.21a.2.2 0 0 0-.18-.1c-.14 0-.21.1-.21.26a49.05 49.05 0 0 1-.02.86h-.29l-.01-.02v-.78c0-.26.07-.43.2-.51Zm2.68-.09c.15-.02.29 0 .4.07.12.07.19.2.2.36v.01H11.07a.13.13 0 0 1-.1-.06c-.07-.1-.17-.14-.3-.1-.04.01-.06.03-.07.06-.03.09.07.16.31.2l.03.01.14.06c.16.06.24.17.24.32 0 .23-.1.37-.29.43a.85.85 0 0 1-.44.02c-.22-.05-.34-.2-.34-.44v-.01h.31c.02.17.13.23.33.2.04-.02.08-.04.1-.07.02-.04.02-.08-.01-.13-.02-.02-.05-.04-.1-.05l-.07-.02a.95.95 0 0 1-.46-.2c-.05-.06-.07-.14-.07-.26 0-.11.05-.21.12-.28.07-.07.17-.1.28-.12Zm-3.29.7a2.6 2.6 0 0 1-.28.1c-.09.02-.13.07-.13.16 0 .08.02.13.09.15.07.03.15.02.22-.03a.25.25 0 0 0 .11-.2v-.17Zm2.15-.41a.21.21 0 0 0-.16.07.26.26 0 0 0-.06.17v.03h.45v-.02a.27.27 0 0 0-.06-.18.22.22 0 0 0-.07-.05.2.2 0 0 0-.08-.02h-.02Z" fill="#F0F3FA"/><path d="m7 11.43.01.03.02.03c.05.02.09.01.11-.03a.06.06 0 0 0 0-.07l-.04-.02c-.11-.11-.13-.2-.05-.25.02-.01.06-.02.12 0h.01v.05l-.04-.03-.02-.01a.08.08 0 0 0-.07.04v.03a3.03 3.03 0 0 1 .1.11c.04.04.05.07.05.12-.01.04-.04.07-.08.09H7v-.02a.16.16 0 0 1-.02-.07H7ZM7.9 11.34a10.67 10.67 0 0 1-.12-.1v.23l.01.01v.01l.03.02v.01h-.1v-.01l.02-.02a.02.02 0 0 0 0-.02v-.35a.01.01 0 0 1 .01 0h.01a10 10 0 0 1 .29.27l-.01-.23-.01-.02-.03-.02h.1v.01l-.02.02a.02.02 0 0 0 0 .01v.36a.01.01 0 0 1-.02 0 9.96 9.96 0 0 1-.17-.18ZM8.63 11.22c-.02-.05-.05-.07-.1-.08-.1-.02-.16.02-.17.12-.01.1.01.16.08.2.07.06.14.05.18-.03h.01c0 .06-.03.1-.1.1H8.5a.23.23 0 0 1-.17-.07.2.2 0 0 1-.05-.18c.02-.14.13-.2.33-.16l.01.01a.7.7 0 0 0 0 .1ZM10.03 11.33c-.05.02-.1.01-.13-.04-.04-.05-.03-.1.01-.15a.12.12 0 0 1 .13-.03c.05.02.08.05.09.1.02.14-.04.24-.18.3.1-.08.13-.18.11-.3 0-.05-.03-.07-.06-.08l-.03.01a.05.05 0 0 0-.03.03c-.03.1 0 .14.08.14a.1.1 0 0 1 .01 0v.01ZM10.3 11.43c.01.03.03.05.05.06h.08l.02-.02a.11.11 0 0 0 .01-.11c0-.02-.03-.04-.08-.06v-.01c.06-.02.09-.06.08-.12l-.01-.01-.01-.01c-.05-.03-.09-.02-.12.02h-.01v-.04l.01-.01h.03c.08-.02.13 0 .16.04l.01.03c0 .03-.02.06-.05.08a.02.02 0 0 0 0 .02c.03 0 .04.02.05.04.04.09.02.15-.07.18a.21.21 0 0 1-.14 0h-.01v-.08ZM10.89 11.11c-.12.1-.16.2-.12.33.01.05.04.07.09.06a.03.03 0 0 0 .02-.02.16.16 0 0 0 .01-.12c-.01-.04-.04-.06-.09-.05v-.02c.05-.02.1 0 .13.03l.02.02c.02.07 0 .12-.04.16-.05.03-.1.03-.17 0l-.01-.01a.22.22 0 0 1 0-.23.33.33 0 0 1 .16-.15ZM7.49 11.15v.34l.02.02v.01H7.4v-.01l.02-.03v-.32l-.02-.04h.11l-.02.02ZM8.83 11.5l.01-.01v-.02a10.8 10.8 0 0 0 0-.33l-.03-.01v-.01h.21a.02.02 0 0 1 .02 0v.05h-.01c-.03-.03-.06-.03-.1-.02H8.9v.13h.01a.24.24 0 0 0 .1 0V11.35c-.02-.02-.05-.03-.1-.03v.17c.05.02.09 0 .11-.02h.01v.05H8.82ZM9.54 11.5l.03-.01v-.02a7.46 7.46 0 0 0-.01-.29l-.04.02v-.01l.1-.08a.01.01 0 0 1 .01 0 .02.02 0 0 1 .01.02v.33c0 .02 0 .04.03.05h-.12Z" fill="#FFF201"/></svg>