<!-- by TradingView --><svg width="18" height="18" viewBox="0 0 18 18" xmlns="http://www.w3.org/2000/svg"><path fill="#F0F3FA" d="M0 0h18v18H0z"/><path d="M10.1 4c.34.02.65.14.91.36.24.2.46.49.67.88.27.5.34 1.05.2 1.63-.1.52-.36.99-.74 1.4l-.54.6c-.27.31-.45.63-.54.96-.1.4-.06.75.14 1.08.2.36.52.64.94.83.36.17.75.26 1.16.27.42 0 .78-.12 1.1-.37l.15-.13c.17-.15.3-.23.39-.24.02 0 .04 0 .05.03.01.02.01.04 0 .07a.61.61 0 0 1-.07.13 3.56 3.56 0 0 1-2.28 1.46c-.47.08-.9.05-1.3-.1-.45-.14-.82-.4-1.12-.78-.3-.38-.48-.85-.52-1.41-.05-.56.04-1.08.27-1.54.12-.24.27-.48.43-.72l.56-.76c.06-.07.13-.2.21-.38.13-.29.14-.61.01-.97-.1-.31-.26-.51-.47-.6-.21-.1-.45-.13-.72-.1-.6.05-1.34.28-2.2.7a17.29 17.29 0 0 0-2.73 1.67c-.02 0-.03 0-.05-.02a.07.07 0 0 1 0-.06c.03-.17.17-.38.4-.63.74-.77 1.55-1.45 2.43-2.04A6.94 6.94 0 0 1 9.78 4h.31Z" fill="#5D5C5B"/><path d="m6.72 13.96-.07.03c-.11.03-.2 0-.27-.13-.08-.13-.18-.39-.32-.76-.3-.85-.6-1.8-.9-2.84-.11-.42-.2-.87-.29-1.37-.02-.15.01-.26.1-.34a9.92 9.92 0 0 1 2.64-1.19c.38-.1.6-.03.63.22.05.25.06.5.05.73 0 .11-.05.19-.13.23a.85.85 0 0 1-.38.1c-.35 0-.63.04-.82.1-.52.13-.8.39-.84.76 0 .1 0 .3.04.6a26.58 26.58 0 0 0 .64 3.77.14.14 0 0 1-.08.1Z" fill="url(#a)"/><defs><linearGradient id="a" x1="7.46" y1="6.69" x2="4.49" y2="12.2" gradientUnits="userSpaceOnUse"><stop stop-color="#F1E1C8"/><stop offset="1" stop-color="#FA4332"/></linearGradient></defs></svg>