<!-- by TradingView --><svg width="56" height="56" viewBox="0 0 56 56" xmlns="http://www.w3.org/2000/svg"><path fill="#F0F3FA" d="M0 0h56v56H0z"/><path d="M50.53 31c-.3 0-.56-.06-.79-.17-.23-.12-.4-.27-.54-.48-.13-.2-.2-.44-.2-.7h.62c.02.23.1.42.25.58.15.15.37.23.66.23a.9.9 0 0 0 .65-.22.78.78 0 0 0 .24-.6.71.71 0 0 0-.14-.45.9.9 0 0 0-.35-.27 5.07 5.07 0 0 0-.57-.2 4.8 4.8 0 0 1-.7-.24 1.2 1.2 0 0 1-.45-.4 1.29 1.29 0 0 1-.18-.73c0-.26.06-.5.18-.7.12-.21.3-.37.51-.48.23-.11.48-.17.77-.17.41 0 .75.11 1.02.34.26.23.41.54.45.92h-.64a.76.76 0 0 0-.27-.5.88.88 0 0 0-.62-.21.84.84 0 0 0-.59.2.73.73 0 0 0-.22.58c0 .18.04.33.13.44.1.1.2.2.33.26l.57.2c.3.08.53.17.7.26.18.08.33.22.46.4.13.18.19.42.19.73 0 .24-.06.46-.17.67-.12.21-.28.38-.5.51-.23.13-.5.2-.8.2ZM46.6 26.54v1.67h1.9v.53h-1.9v1.72h1.9V31H46v-5h2.5v.54h-1.9ZM44.61 26v5H44v-5h.61ZM43 26v.53h-1.2V31h-.59v-4.47H40V26h3ZM39.61 26v5H39v-5h.61ZM37.31 31l-1.04-2.04h-.7V31H35v-5h1.42c.33 0 .6.06.84.2.23.12.4.3.51.52.12.22.17.47.17.75 0 .34-.09.65-.26.91s-.43.44-.78.53L38 31h-.69Zm-1.74-2.57h.85c.3 0 .54-.08.7-.26.15-.17.23-.4.23-.7 0-.3-.08-.53-.23-.69-.15-.16-.39-.24-.7-.24h-.85v1.9ZM30.6 26v3.13c0 .89.58 1.3 1.3 1.3.71 0 1.1-.42 1.1-1.3V26h.6v3.13c0 1.05-.61 1.87-1.7 1.87-1.1 0-1.9-.82-1.9-1.88V26h.6ZM24.5 28.5c0-.47.1-.9.3-1.28A2.26 2.26 0 0 1 26.84 26 2.2 2.2 0 0 1 29 27.48h-.73c-.13-.3-.32-.52-.56-.68a1.55 1.55 0 0 0-.88-.24 1.64 1.64 0 0 0-1.49.92c-.14.3-.22.63-.22 1.03 0 .39.08.73.22 1.02a1.64 1.64 0 0 0 1.5.92c.33 0 .62-.08.87-.24.24-.16.43-.38.56-.68H29a2.2 2.2 0 0 1-.83 1.1c-.38.24-.83.37-1.34.37-.43 0-.83-.1-1.18-.32a2.31 2.31 0 0 1-.84-.89c-.2-.38-.31-.8-.31-1.28ZM21.6 26.54v1.67h1.9v.53h-1.9v1.72h1.9V31H21v-5h2.5v.54h-1.9ZM18.53 31c-.3 0-.56-.06-.79-.17-.23-.12-.4-.27-.54-.48-.13-.2-.2-.44-.2-.7h.62c.02.23.1.42.25.58.15.15.37.23.66.23a.9.9 0 0 0 .65-.22.78.78 0 0 0 .24-.6.71.71 0 0 0-.14-.45.9.9 0 0 0-.35-.27 5.07 5.07 0 0 0-.57-.2 4.8 4.8 0 0 1-.7-.24 1.2 1.2 0 0 1-.45-.4 1.29 1.29 0 0 1-.18-.73c0-.26.06-.5.18-.7.12-.21.3-.37.51-.48.23-.11.48-.17.77-.17.41 0 .75.11 1.02.34.26.23.41.54.45.92h-.64a.76.76 0 0 0-.27-.5.88.88 0 0 0-.62-.21.84.84 0 0 0-.59.2.73.73 0 0 0-.22.58c0 .18.04.33.13.44.1.1.2.2.33.26l.57.2c.3.08.53.17.7.26.18.08.33.22.46.4.13.18.19.42.19.73 0 .24-.06.46-.17.67-.12.21-.28.38-.5.51-.23.13-.5.2-.8.2ZM14.79 26v.53h-1.21V31H13v-4.47h-1.21V26h3ZM11 27.46c0 .42-.13.77-.39 1.04-.25.28-.64.41-1.16.41h-.86V31H8v-5h1.45c.5 0 .89.14 1.15.4.27.28.4.63.4 1.06Zm-1.55.91c.32 0 .57-.07.72-.23.15-.16.23-.38.23-.68 0-.61-.32-.92-.95-.92h-.86v1.83h.86ZM6.6 26v3.67c0 .74-.58 1.33-1.35 1.33-.8 0-1.25-.62-1.25-1.38h.59c0 .49.23.82.66.82.45 0 .75-.33.75-.77V26h.6Z" fill="#1036C0"/></svg>