<!-- by TradingView --><svg width="56" height="56" viewBox="0 0 56 56" xmlns="http://www.w3.org/2000/svg"><path fill="url(#a)" d="M0 0h56v56H0z"/><path d="M15.33 18.4c.01-.02.02-.02.04-.01v.04c0 .04-.01.04-.04.01v-.04Z" fill="#A8A8A9"/><path d="M49.93 21.61c-.16.81-.6 1.44-1.28 1.9-.7.45-1.44.59-2.25.42a2.9 2.9 0 0 1-1.9-1.3 2.9 2.9 0 0 1-.43-2.24c.16-.81.59-1.44 1.28-1.9.69-.45 1.44-.59 2.25-.42.81.17 1.44.6 1.9 1.3.45.68.6 1.43.43 2.24Z" fill="#FF854A"/><path d="M48.94 21.02c0 .54-.2 1.01-.58 1.4-.38.39-.84.58-1.39.58-.54 0-1-.19-1.39-.58a1.93 1.93 0 0 1-.57-1.4c0-.55.2-1.02.57-1.4.39-.4.85-.6 1.4-.6.54 0 1 .2 1.38.6.39.38.58.85.58 1.4Z" fill="#FEC4A2"/><path d="M46.97 22.02a1 1 0 0 0 1-1 1 1 0 0 0-1-1 1 1 0 0 0-1 1 1 1 0 0 0 1 1ZM7.62 27.11V23.5c0-.03-.02-.05-.05-.05-1.4.05-2.23.7-2.52 1.94-.14.62-.07 1.23.23 1.81.12.26.3.39.54.4.05 0 .08.02.07.07-.02.25-.11.45-.27.62-.2.2-.4.22-.62.04a2.69 2.69 0 0 1-.96-1.79c-.1-.7-.01-1.36.26-1.96a3.1 3.1 0 0 1 1.5-1.48c.65-.32 1.38-.5 2.18-.52.18 0 .32.03.4.1.14.11.2.24.2.4.02 1.26.02 2.62.01 4.06 0 .03.02.05.06.05h1.8c.05 0 .08-.02.08-.06v-4.16c.01-.22.07-.44.2-.66.18-.32.43-.38.76-.2.13.08.24.22.35.44.01.04 0 .07-.03.09-.2.12-.3.34-.3.68v7.37c0 .24-.14.34-.4.31l-.19-.02c-.26-.03-.39-.17-.39-.41v-2.51c0-.05-.02-.07-.06-.07h-1.8c-.05 0-.07.02-.07.07v2.62c0 .25-.14.36-.4.32l-.18-.02c-.26-.03-.4-.17-.4-.42v-2.5c0-.04-.02-.07-.07-.07h-.8c-.23 0-.37-.1-.42-.3l-.04-.16c-.06-.22.04-.34.3-.34h.96c.05 0 .07-.02.07-.07ZM31.52 26.83l.23-.35c.14-.24.32-.43.54-.58.27-.18.55-.23.85-.15.3.08.52.27.63.58.07.17.1.47.1.9l.02 2.63c0 .3.15.42.44.36a.3.3 0 0 0 .07-.02c.27-.17.4-.39.4-.65 0-.45 0-.76.02-.94.1-.94.5-1.7 1.2-2.28a2.8 2.8 0 0 1 1.74-.62c.26 0 .44.12.52.38l.03.09c.07.25-.02.37-.28.37-.9-.03-1.54.32-1.92 1.05a3.24 3.24 0 0 0-.32 2.04c.04.28.2.47.48.56.21.07.4.03.58-.11a.72.72 0 0 0 .27-.52c.05-.68.05-1.41 0-2.2-.03-.32.12-.44.43-.36l.1.02c.3.09.45.3.45.61v2.09c0 .12.03.24.1.36.1.14.23.18.4.13a.59.59 0 0 0 .36-.26c.27-.45.42-.98.44-1.6.02-.7 0-1.44-.03-2.2-.02-.24.12-.35.39-.3l.2.06c.24.08.37.26.38.52l.01.39c0 .06.02.06.05.01l.2-.33c.15-.27.35-.48.6-.63a1 1 0 0 1 .82-.13c.47.14.71.5.73 1.06.02.5.02 1.5.02 2.99 0 .14.03.26.11.35.07.1.17.12.3.08.23-.06.42-.27.54-.61.04-.1.05-.26.03-.45-.07-.6-.01-1.18.17-1.74.2-.61.5-1.08.93-1.4.4-.33.86-.4 1.34-.22.41.15.65.51.73 1.1.02.2-.05.35-.22.45l-.21.12a.22.22 0 0 1-.21.02.23.23 0 0 1-.14-.17v-.04c-.09-.37-.2-.59-.33-.64-.21-.08-.4-.03-.58.16-.13.14-.23.34-.31.59-.14.43-.2.87-.19 1.33.02.55.17.94.43 1.18.4.35.88.42 1.45.2.24-.1.43-.26.6-.5.16-.24.23-.5.22-.77-.07-.88.14-1.67.62-2.38.28-.42.62-.66 1.02-.72.57-.08.97.1 1.2.56.2.4.2.86.03 1.4-.25.79-.7 1.31-1.32 1.57-.41.16-.44.38-.1.66l.07.05c.34.26.72.33 1.13.22.37-.1.64-.3.83-.6a3.93 3.93 0 0 0 .4-1.08.28.28 0 0 1 .15-.18.26.26 0 0 1 .23 0c.22.08.32.23.3.42 0 .2-.04.4-.1.6-.38 1.12-1.09 1.62-2.13 1.64-.78.02-1.4-.2-1.85-.8-.04-.04-.08-.04-.12 0-.47.55-1.09.78-1.81.8-.7.02-1.28-.16-1.76-.68-.03-.04-.06-.04-.1 0-.32.39-.55.68-1.19.68-.69 0-1.1-.38-1.1-1 0-1.77 0-2.82-.02-3.14 0-.14-.08-.23-.22-.28-.06-.02-.12 0-.2.04a2 2 0 0 0-.58.67 3.35 3.35 0 0 0-.47 2.02v1.2c.01.3-.04.48-.36.49-.28.01-.47-.06-.57-.38-.01-.05-.04-.06-.09-.03-.34.27-.57.4-1.05.41-.32 0-.62-.05-.89-.33-.03-.03-.06-.03-.1 0-.34.28-.68.33-1 .33-.38 0-.75-.09-1.1-.45-.04-.03-.08-.03-.11 0-.34.32-.6.46-1.03.45-.71-.01-1.1-.43-1.1-1.03.01-1.47 0-2.49-.01-3.07 0-.16-.08-.27-.23-.33a.14.14 0 0 0-.12.01c-.33.2-.6.53-.83 1.03-.2.44-.3.77-.3 1.16l.01 1.84c0 .18-.04.39-.26.39-.37 0-.56-.1-.7-.5-.01-.03-.03-.03-.05 0-.24.27-.48.5-.89.5-.96 0-1.2-.6-1.2-1.31v-2.75c0-.05-.03-.08-.08-.08h-1.8a.15.15 0 0 0-.14.1.16.16 0 0 0 .02.17l.73 1.1a7.69 7.69 0 0 1 1.1 3.95c.02.73-.05 1.43-.22 2.1-.24.94-.6 1.48-1.1 1.65-.48.16-.84.05-1.1-.33a2.2 2.2 0 0 1-.35-1.25c-.02-1.28-.03-2.52-.02-3.7 0-.08-.03-.1-.08-.04-.28.3-.62.45-1.01.47-.41.02-.73-.17-.95-.59-.03-.05-.06-.05-.1 0-.15.2-.34.35-.57.46-.22.1-.44.15-.66.13-.51-.04-.84-.34-.97-.92-.01-.05-.04-.06-.08-.03-.38.25-.8.4-1.25.45-.16.01-.37.1-.64.27l-.15.09c-.13.08-.43.12-.92.13-.14 0-.45-.12-.94-.37a.16.16 0 0 0-.13 0c-.08.03-.19.08-.3.15-.58.37-1.12.3-1.64-.19-.03-.03-.06-.03-.1 0-.34.34-.74.48-1.2.4-.52-.08-.9-.4-1.1-.96-.17-.47-.22-1-.13-1.61.12-.78.45-1.45 1-2 .5-.48 1.14-.74 1.93-.77.27-.01.44.11.52.37 0 .04.02.08.04.13.07.25-.02.36-.28.33-.79-.09-1.4.22-1.84.92a3.08 3.08 0 0 0-.39 2.25c.03.17.13.3.3.4.36.21.66.14.9-.22.09-.15.13-.37.13-.69v-.17c.01-.58 0-1.14-.02-1.67-.02-.34.13-.46.45-.36l.1.03c.29.1.44.3.43.62v2.11c0 .28.15.43.43.46.1.02.19 0 .26-.07s.1-.15.08-.24a.9.9 0 0 1 .08-.4.2.2 0 0 1 .07-.1h.01c.14-.11.23-.22.26-.34.2-.78.43-1.52.69-2.22a.16.16 0 0 0-.01-.12c-.1-.2-.14-.35-.16-.46a.63.63 0 0 1 .12-.47c.17-.23.38-.42.62-.54.32-.17.55-.12.68.14.07.14.09.3.05.48a3 3 0 0 1-.24.65c-.02.05-.02.1.01.14.26.37.53.77.8 1.19.38.55.54 1.08.49 1.56-.04.36.08.43.36.2l.25-.2c.27-.22.41-.51.41-.88v-2.87c0-.06-.03-.1-.1-.1h-.73c-.23 0-.37-.11-.43-.34l-.04-.17c-.05-.22.03-.32.24-.32h1c.03 0 .05-.02.05-.06.03-1.32 0-2.17-.06-2.53 0-.05.01-.09.06-.1a.8.8 0 0 1 .49-.03c.32.08.48.32.47.72-.01.94-.02 1.6 0 1.98 0 .05.02.07.06.07l2.46-.1c.13 0 .18.07.16.2l-.08.42c-.03.15-.11.23-.26.23l-2.28.09c-.04 0-.06.02-.06.06-.02 1.87-.02 3.24 0 4.13.01.22.11.34.3.39.3.06.54-.13.73-.57.14-.31.22-.65.25-1.01.04-.7.04-1.5-.01-2.42-.02-.31.13-.43.42-.36l.1.02c.31.09.46.3.46.62v3.33c.01.16.06.28.17.38.03.03.07.04.12.04.28-.03.5-.25.67-.66.13-.32.2-.66.21-1.02.02-.42.02-.9 0-1.44a.2.2 0 0 0-.03-.12l-.23-.27c-.13-.15-.19-.26-.18-.34.02-.15.15-.24.37-.29.05 0 .07-.04.07-.09v-3.44a.93.93 0 0 0-.06-.36c-.05-.1-.02-.16.09-.18.35-.08.6-.03.79.16.1.1.15.32.14.66v3.1c0 .06.04.09.1.08.54-.04 1.1-.1 1.69-.17.38-.05.64-.05.77-.01.18.05.3.16.35.33.04.1.05.28.05.52v.13c.01 1.32.02 2.18 0 2.71 0 .21.04.4.11.54.02.04.06.07.1.07.36.04.63-.22.8-.76.14-.38.2-.73.2-1.2 0-.86 0-1.54-.02-2.03 0-.25.1-.35.35-.3.13.01.21.03.24.04.25.09.37.25.38.5v.4c0 .07.02.08.06.02Zm17.04 1.87c.67-.44.96-1.08.86-1.92a.12.12 0 0 0-.07-.1c-.23-.13-.42-.07-.56.18-.3.53-.41 1.12-.35 1.78 0 .09.05.1.12.06Zm-30.98.84c0 .02 0 .04.02.05.39.2.75.33 1.1.42.13.03.23-.02.29-.15.17-.39.19-.8.05-1.23a2.86 2.86 0 0 0-.66-1.05c-.1-.1-.17-.09-.22.05l-.58 1.91Zm8.85-.84c-.05-.1-.07-.1-.07.02-.03 2.7-.03 4.59 0 5.67.01.24.06.44.14.6.03.04.07.07.13.08.05.01.1 0 .14-.05.24-.25.39-.88.45-1.9V33a8.7 8.7 0 0 0-.8-4.29Z" fill="#FFECD6"/><path d="M23.92 24.98c.42 0 .76-.34.76-.75a.75.75 0 0 0-.76-.75.75.75 0 0 0-.75.75c0 .41.34.75.75.75ZM28.9 24.97c.42 0 .76-.33.76-.74a.75.75 0 0 0-.76-.75.75.75 0 0 0-.75.75c0 .4.34.74.75.74Z" fill="#FFECD6"/><defs><linearGradient id="a" x1="10.42" y1="9.71" x2="68.15" y2="76.02" gradientUnits="userSpaceOnUse"><stop stop-color="#1A1E21"/><stop offset="1" stop-color="#06060A"/></linearGradient></defs></svg>