<!-- by TradingView --><svg width="56" height="56" viewBox="0 0 56 56" xmlns="http://www.w3.org/2000/svg"><path fill="#F0F3FA" d="M0 0h56v56H0z"/><path d="M28.09 18.13c-4.61 1.64-9.06.9-9.94-1.66-.88-2.55 2.15-5.96 6.76-7.6 4.61-1.64 9.06-.9 9.94 1.66.88 2.55-2.15 5.96-6.76 7.6Z" fill="#EF8B36"/><path d="M33.55 16.77c0 .57-.42.87-.62.95-.12-.2-.43-.62-.82-.62-1 0-1.63 1.72-1.89 2.9h2.9c.19-.16.3-.36.43-.55l.14-.23C34.65 16.26 36.66 16 37 16c.34 0 1.01.29 1.01.77 0 .57-.41.87-.62.95-.11-.2-.43-.62-.82-.62-1 0-1.63 1.72-1.89 2.9H35v2h-.5c-.42.11-.42.76-.42 1h-1.34c0-.28-.13-.73-.23-1h-2.46c-.42.11-.43.76-.43 1h-1.34c0-.28-.13-.73-.23-1H21v-2h7.67c.19-.16.3-.36.42-.55l.15-.23c.96-2.96 2.97-3.22 3.3-3.22.34 0 1 .29 1 .77ZM32.74 23c.04 3.62-1.07 12.53-5.74 19l.04-.03c1.7-1.11 5.47-3.59 7.04-18.97H35v24H21V23h7.28c.05 3.62-1.1 12.53-5.78 19l.05-.03c1.7-1.12 5.51-3.62 7.07-18.97h3.12Z" fill="#907835"/></svg>