<!-- by TradingView --><svg width="56" height="56" viewBox="0 0 56 56" xmlns="http://www.w3.org/2000/svg"><path fill="#F0F3FA" d="M0 0h56v56H0z"/><path d="M22.06 16h10.89l.04-.01a.05.05 0 0 0 .01-.04v-2.9l.02-.03a.06.06 0 0 1 .04-.02h10.89c.01 0 .02 0 .03.02l.02.03v27.9a.05.05 0 0 1-.05.05H12.03a.06.06 0 0 1-.03-.03V20.06c0-.01 0-.03.02-.04l.03-.02H22a.05.05 0 0 0 .01-.04v-3.9a.05.05 0 0 1 .06-.06Z" fill="#067395"/><path d="M13 39.88V21.12c0-.03.01-.06.04-.09a.12.12 0 0 1 .08-.03h9.76c.04 0 .07-.01.09-.03a.12.12 0 0 0 .03-.09V17.1c0-.03.02-.06.04-.08.02-.02.05-.02.08-.02h10.73c.03 0 .1-.02.12-.05a.12.12 0 0 0 .03-.08v-2.75c0-.03.01-.06.04-.09a.12.12 0 0 1 .08-.03h8.76c.03 0 .06.01.08.03.03.03.04.06.04.09v25.76c0 .03-.01.06-.04.09a.12.12 0 0 1-.08.03H13.12a.12.12 0 0 1-.08-.03.12.12 0 0 1-.04-.09Z" fill="#EC5401"/><path d="M34.04 23.49c-.05-.05-.1-.06-.13-.04a10 10 0 0 0-2.3-1.4 8.18 8.18 0 0 0-3.03-.65 8.36 8.36 0 0 0-4.72.88l-.3.06a6.16 6.16 0 0 1 2.81-1c.4-.06.74-.09 1.05-.08.56.02 1.14-.06 1.7.02a9.48 9.48 0 0 1 4.56 1.8c.18.11.3.25.36.41Z" fill="#F58639"/><path d="M33.92 23.45c.03.05.05.1.05.13 0 .02 0 .04-.02.06a.08.08 0 0 1-.05.02c-.31.04-.59 0-.81-.12a83.97 83.97 0 0 1-.99-.17c-.46-.08-.84 0-1.16.24-.26.19-.46.27-.66.35a.12.12 0 0 0-.07.1c-.01.14.09.33.26.3l.18-.06a.15.15 0 0 1 .14.03.8.8 0 0 1 .18.22.16.16 0 0 0 .14.1.16.16 0 0 0 .14-.08l.16-.28.02-.04-.02-.04-.09-.13a.08.08 0 0 1 .02-.1c0-.02.02-.02.03-.02.1-.03.19-.08.26-.17a.2.2 0 0 1 .2-.06l.1.04a.04.04 0 0 1 .03.03.03.03 0 0 1-.01.03l-.24.15a.07.07 0 0 0-.03.05v.03l.01.02c.22.28.47.06.73.13l.02.01v.03h-.02c-.15.03-.33.12-.52.26a.18.18 0 0 0-.07.1l-.02.12a.07.07 0 0 1-.04.04.07.07 0 0 1-.05 0c-.04 0-.37 0-1 .03a.79.79 0 0 0-.47.19c-.23.18-.5.3-.8.35a.07.07 0 0 0-.05.05.06.06 0 0 0 .01.06l.13.06c.18.07.18.26.12.41a.11.11 0 0 1-.1.07l-.37.05a2.32 2.32 0 0 0-1.76.02c-.95.41-1.42 1.15-1.42 2.22L26 31.97c0 .22-.07.33-.22.34-.02 0-.04 0-.06-.02l-.28-.15a3.65 3.65 0 0 0-1.13-1.94l-1.06-1c-.35-.33-.51-.7-.5-1.13.01-.24.11-.38.3-.4.06-.02.14 0 .2.05.07.05.12.12.15.2l.16.51a.3.3 0 0 0 .14.17.3.3 0 0 0 .2.03l1.25-.24c.06 0 .11-.03.15-.07.04-.04.06-.1.07-.15.02-.22 0-.45-.1-.7-.3-.95-1-1.47-2.05-1.58.2-.18.37-.26.5-.25a1.2 1.2 0 0 0 .8-.2v-.01a.01.01 0 0 0 0-.01h-.01a.7.7 0 0 1-.37.03.09.09 0 0 1-.04-.02.08.08 0 0 1-.03-.05l.01-.2c0-.05-.02-.1-.08-.13a.05.05 0 0 0-.04 0 .05.05 0 0 0-.04.03.18.18 0 0 1-.1.1h-.03l-.02-.01a.04.04 0 0 1 .02-.05l.25-.14.05-.02h.6c.04 0 .08 0 .11-.03a.6.6 0 0 1 .3-.1c.03 0 .06 0 .1-.02a.14.14 0 0 0 .04-.17.14.14 0 0 0-.06-.07.76.76 0 0 1-.36-.54.08.08 0 0 0-.1-.06.08.08 0 0 0-.04.03.65.65 0 0 1-.29.2.08.08 0 0 1-.07-.02.07.07 0 0 1-.02-.07c.05-.2-.1-.35-.3-.37-.17-.02-.32.06-.44.25a1.6 1.6 0 0 0-.2.38.14.14 0 0 1-.04.04l-.24.16a.2.2 0 0 0-.07.08l-.07.16c-.04.08-.1.12-.19.11-.08 0-.13-.1-.15-.26a.23.23 0 0 0-.05-.11.24.24 0 0 0-.1-.08l-.43-.14a.17.17 0 0 1-.11-.12.16.16 0 0 1 .05-.15c.2-.18.66-.44.97-.36l.21.03c.03 0 .06 0 .08-.02a.14.14 0 0 0 .06-.05.63.63 0 0 1 .4-.28.23.23 0 0 0 .12-.07c.24-.27.52-.28.84-.03l.02.03a.06.06 0 0 1-.01.06l-.03.02-.68.13-.02.01-.01.03.01.03.03.01c.35.04.66.27.94-.02a.08.08 0 0 0 .01-.1l-.04-.06v-.02h.02c.25.04.43.03.54-.03a.05.05 0 0 0 .02-.04.04.04 0 0 0-.02-.03 1.5 1.5 0 0 0-.8-.37.19.19 0 0 1-.1-.04.23.23 0 0 1-.03-.03.07.07 0 0 0-.03-.03h-.05l-.48.1a.05.05 0 0 1-.05-.02l-.03-.04a.12.12 0 0 0-.1-.05c-.1 0-.18.07-.2.23 0 .02.02.04.06.07a.06.06 0 0 1 .02.07l-.02.02c-.1.1-.2.13-.35.1a.2.2 0 0 1-.11-.08.22.22 0 0 1-.04-.14.58.58 0 0 1 .1-.3l.02-.02.63-.49a8.36 8.36 0 0 1 4.72-.88c1.09.03 2.1.24 3.03.64a10 10 0 0 1 2.3 1.4Z" fill="#fff"/><path d="m23.86 22.28-.63.5-.02.01a.58.58 0 0 0-.1.3c0 .05 0 .1.04.14a.2.2 0 0 0 .11.08c.14.03.26 0 .35-.1a.06.06 0 0 0 .02-.05.06.06 0 0 0-.02-.04c-.04-.03-.06-.05-.06-.07.02-.16.1-.24.2-.23l.06.01.04.04.03.04a.05.05 0 0 0 .05.02l.48-.1h.05l.03.03.03.03.1.04a1.5 1.5 0 0 1 .81.38v.02a.04.04 0 0 1-.01.04c-.1.06-.29.07-.54.02a.02.02 0 0 0-.02.01v.02l.04.07a.08.08 0 0 1 0 .1c-.29.28-.6.05-.95.01l-.03-.01-.01-.03v-.03l.03-.01.68-.13.03-.02a.06.06 0 0 0 .01-.06.06.06 0 0 0-.02-.03c-.32-.25-.6-.24-.84.03a.23.23 0 0 1-.11.07.63.63 0 0 0-.41.28.14.14 0 0 1-.06.05.15.15 0 0 1-.08.02c-.08 0-.16-.02-.21-.03-.3-.08-.76.18-.97.36a.16.16 0 0 0-.05.15.16.16 0 0 0 .1.12l.43.14c.04.02.08.04.1.08.04.03.06.07.06.11.02.17.07.25.15.26.09.01.15-.03.19-.11l.07-.16a.2.2 0 0 1 .07-.08l.24-.16a.14.14 0 0 0 .06-.09c.01-.04.07-.15.18-.33.12-.19.27-.27.44-.25.2.02.35.16.3.37a.07.07 0 0 0 .02.07l.03.01h.04c.12-.04.22-.1.29-.2a.08.08 0 0 1 .08-.02.08.08 0 0 1 .06.06c.05.25.17.43.36.54.03.02.05.04.06.07a.14.14 0 0 1-.05.17.15.15 0 0 1-.1.03.6.6 0 0 0-.29.1.21.21 0 0 1-.1.02h-.6c-.03 0-.05 0-.06.02l-.25.14a.04.04 0 0 0-.02.04l.02.02h.03a.18.18 0 0 0 .1-.1l.02-.02.02-.01a.06.06 0 0 1 .04 0c.06.03.08.08.08.13v.2c0 .02 0 .04.02.05l.04.02a.7.7 0 0 0 .38-.03v.01a1.2 1.2 0 0 1-.8.21c-.13-.01-.3.07-.5.25a3.58 3.58 0 0 0-1.39.3 2.3 2.3 0 0 0-.98 1.36c-.3.03-.6.07-.88.12-.23.04-.4.15-.48.33-.2.4-.37.73-.12 1.1a.13.13 0 0 0 .11.05c.35 0 .54-.11.58-.36a.12.12 0 0 1 .05-.08.12.12 0 0 1 .1-.02l.21.04a.07.07 0 0 1 .05.04.07.07 0 0 1 0 .06l-.33.56v.01a.04.04 0 0 0 .01.04h.02l.52.1a.1.1 0 0 1 .06.04.09.09 0 0 1 0 .08c-.11.29-.16.54.05.77a.15.15 0 0 0 .15.05l.25-.06a.12.12 0 0 1 .11.03l.1.07c.04.03.09 0 .12-.06a.43.43 0 0 0 .06-.25c.45.47.93.92 1.42 1.36.3.26.45.58.46.95.01.23-.08.4-.27.47-.45.19-.62-.44-.67-.75-.02-.14-.05-.23-.1-.28-.1-.11-.2-.16-.25-.16-.4.03-.8.06-1.2.07.07-.2.18-.36.35-.5a.12.12 0 0 0 .04-.1l-.04-.62a.1.1 0 0 0-.06-.1c-.1-.03-.2 0-.28.09a.07.07 0 0 1-.08 0l-.43-.23a.12.12 0 0 1-.04-.05l-.24-.43a.07.07 0 0 0-.03-.03l-.5-.2a.85.85 0 0 0-.7-.2.18.18 0 0 0-.1.07.16.16 0 0 0-.04.1l.03 2.16c-.11-.58-.17-1.32-.18-2.22 0-.15.02-.27.07-.35a2.33 2.33 0 0 0 .05-.34 4.32 4.32 0 0 0 .18-.82 10.09 10.09 0 0 1 1.21-2.75 10.23 10.23 0 0 1 3.36-3.01l.31-.06Z" fill="#91CBDD"/><path d="M24.4 22.72c-.11-.09-.25-.1-.42-.02h-.02a.03.03 0 0 1-.02-.02v-.02c.11-.18.25-.22.41-.13a.17.17 0 0 0 .14 0 3.67 3.67 0 0 1 1.83-.08h3.09a.06.06 0 0 1 .02.07l-.01.03-.3.25a.24.24 0 0 1-.16.05c-.1 0-.2.02-.29.07v.02a.04.04 0 0 0 0 .04l.02.03h.03c.09-.07.16-.11.23-.1a.04.04 0 0 1 .03.02.04.04 0 0 1 0 .04c-.15.12-.3.19-.5.22-.64.11-1.03.2-1.17.27-.12.06-.29.21-.5.45a.13.13 0 0 1-.12.04c-.27-.04-.53-.18-.5-.48 0-.13.08-.21.23-.26a.07.07 0 0 0 .06-.07.06.06 0 0 0-.03-.04.06.06 0 0 0-.04-.02.1.1 0 0 1-.08-.03.06.06 0 0 1 0-.08c.05-.06.06-.12.02-.17-.01-.03-.06-.06-.15-.07-.68-.17-1.04-.25-1.7 0a.11.11 0 0 1-.11-.02ZM33.92 23.45c.02-.02.07-.01.13.04a8.63 8.63 0 0 1 3.03 4.91c.02.08.02.14 0 .18l-.53-.28a.22.22 0 0 0-.1-.03l-.3-.02a.2.2 0 0 1-.13-.06l-.42-.4a.07.07 0 0 0-.1 0l-.04.02a.1.1 0 0 0-.01.14l.57.65a.15.15 0 0 0 .18.04l.22-.12a.1.1 0 0 1 .09 0l.32.19c.05.03.1.07.12.13.02.05.03.11.01.17-.15.63-1.07 1.05-1.65 1.2a.1.1 0 0 1-.06 0 .1.1 0 0 1-.05-.04c-.09-.13-.14-.36-.25-.55a69.2 69.2 0 0 0-.97-1.54.3.3 0 0 0-.15-.11l-.07-.03a.05.05 0 0 0-.06.01v.06l.94 1.73c.03.06.07.1.12.15.24.2.38.38.41.55 0 .02.02.05.04.06l.06.04c.27.04.5 0 .7-.1a.08.08 0 0 1 .1 0l.02.03v.05c-.12.83-.66 1.3-1.22 1.89-.1.1-.15.25-.15.45h-1.46c-.02 0-.04-.01-.05-.03a.06.06 0 0 1-.01-.04l-.03-5.4c.1.16.28.24.52.24a.1.1 0 0 0 .06-.02.1.1 0 0 0 .03-.05c.07-.18.1-.36.1-.54a.1.1 0 0 0-.05-.1.11.11 0 0 0-.1 0c-.22.1-.32-.1-.54.08l-.01-.7c.41-.12.63.03 1 .08.04 0 .06 0 .09-.02a.12.12 0 0 0 .05-.07v-.08a.12.12 0 0 0-.06-.06l-.41-.23a.12.12 0 0 1-.06-.1c0-.03-.01-.05-.03-.07a.12.12 0 0 0-.05-.04.27.27 0 0 0-.16 0 .07.07 0 0 0-.05.04.06.06 0 0 0 .01.06l.02.02a.06.06 0 0 1-.03.08h-.03c-.06 0-.1-.03-.12-.1a.1.1 0 0 0-.09-.06c-.4-.03-.48.05-.26.26L31.69 26c-.1.02-.2-.01-.27-.1-.08-.1-.17-.12-.25-.07a.06.06 0 0 0-.03.04v.05c.06.07.13.13.22.16-.07.06-.1.18-.1.34a3 3 0 0 1-.24-.3c-.13-.18-.25-.26-.45-.13a.19.19 0 0 1-.1.03c-.23 0-.45.14-.65.42l-.63-.4.37-.04a.12.12 0 0 0 .1-.07c.06-.15.06-.34-.12-.41a.74.74 0 0 1-.13-.06l-.01-.03a.06.06 0 0 1 .02-.06l.03-.02c.3-.05.57-.17.8-.35.14-.12.3-.18.47-.19a13.33 13.33 0 0 1 1.05-.03.07.07 0 0 0 .04-.04l.02-.12a.18.18 0 0 1 .07-.1 1.22 1.22 0 0 1 .53-.26l.01-.01v-.02h-.02c-.26-.08-.51.14-.73-.14a.07.07 0 0 1 .02-.1l.24-.15v-.02a.03.03 0 0 0 0-.03l-.01-.01-.1-.04a.2.2 0 0 0-.12 0 .19.19 0 0 0-.09.06.48.48 0 0 1-.26.17.08.08 0 0 0-.05.04.08.08 0 0 0 0 .08l.1.14v.07l-.17.28a.16.16 0 0 1-.06.05.16.16 0 0 1-.22-.07.8.8 0 0 0-.18-.22.14.14 0 0 0-.14-.03c-.08.03-.14.05-.18.05-.17.04-.27-.15-.26-.28a.12.12 0 0 1 .07-.1c.2-.09.4-.17.66-.36.32-.23.7-.32 1.16-.24a85.45 85.45 0 0 0 .99.17c.22.12.5.16.81.12.02 0 .04 0 .05-.02a.07.07 0 0 0 .02-.06.3.3 0 0 0-.05-.13ZM29.42 23.4l-.63.04a.07.07 0 0 0-.07.08v.01c0 .04.04.08.08.07l.63-.04c.05 0 .08-.04.07-.08v-.02a.08.08 0 0 0-.08-.07Z" fill="#91CBDD"/><path d="M29.39 24.9h.06a.06.06 0 0 0 .03-.07v-.03l-.22-.3a.1.1 0 0 1 .03-.15l.03-.02a.07.07 0 0 1 .1.02l.4.62a.08.08 0 0 1 .02.07.08.08 0 0 1-.06.05c-.27.06-.42.02-.46-.1a.07.07 0 0 1 .01-.06.07.07 0 0 1 .06-.03ZM30.2 24.71c.11-.1.16-.21.1-.27-.04-.06-.17-.03-.28.06-.11.1-.16.22-.1.27.04.06.17.03.28-.06ZM30.83 24.69c-.04-.06-.09-.06-.14-.03-.04.03-.06.04-.08.03-.04-.01-.06-.03-.07-.04a.1.1 0 0 1 0-.06.1.1 0 0 1 .02-.06.12.12 0 0 1 .12-.01 5.08 5.08 0 0 1 .2.11v.03l-.03.03h-.02ZM29.12 24.9c.08-.09.1-.2.06-.24-.05-.05-.16-.01-.25.08-.08.1-.11.2-.06.25.05.04.16 0 .25-.09ZM25.11 24.94l.23.28a.05.05 0 0 1 0 .06.05.05 0 0 1-.06.02l-.5-.1h-.02l-.01-.02a.04.04 0 0 1 .01-.05l.31-.2a.03.03 0 0 1 .04.01Z" fill="#91CBDD"/><path d="M33.18 26.3c0-.17-.06-.26-.18-.29-.22-.2-.14-.3.26-.26a.1.1 0 0 1 .09.07c.02.06.06.1.12.1a.06.06 0 0 0 .05-.03.06.06 0 0 0 0-.06v-.02l-.02-.03a.06.06 0 0 1 .02-.05l.03-.02h.16c.02 0 .04.02.05.04l.03.06v.02a.12.12 0 0 0 .06.09l.41.23c.03.01.05.03.06.06v.08c0 .03-.02.06-.05.07a.13.13 0 0 1-.08.02c-.38-.05-.6-.2-1.01-.08ZM31.69 26c-.14-.02-.25 0-.33.07a.45.45 0 0 1-.21-.16l-.01-.03a.06.06 0 0 1 .01-.04l.02-.02c.08-.05.17-.03.25.07.07.09.16.12.27.1Z" fill="#fff"/><path d="M23.21 25.89c1.07.1 1.75.63 2.07 1.58.08.25.11.48.09.7-.01.06-.03.1-.07.15a.27.27 0 0 1-.15.07l-1.24.24a.3.3 0 0 1-.22-.03.3.3 0 0 1-.13-.17l-.16-.5a.42.42 0 0 0-.15-.2.28.28 0 0 0-.2-.07c-.19.03-.29.17-.3.41-.01.42.15.8.5 1.13l1.06 1c.6.55.97 1.2 1.13 1.94a2.6 2.6 0 0 1-.64 2.05c-.54.6-1.37.72-2.18.63a2.43 2.43 0 0 1-1.86-1.81 3.4 3.4 0 0 1-.1-.8c-.02-.22.11-.3.32-.34.4-.01.8-.04 1.2-.07.06 0 .14.05.25.16.05.05.08.14.1.28.05.31.22.94.67.75.19-.08.28-.24.27-.47a1.3 1.3 0 0 0-.46-.95c-.5-.44-.97-.9-1.42-1.36-.2-.27-.44-.55-.57-.84a2.93 2.93 0 0 1-.17-1.82 2.3 2.3 0 0 1 1.08-1.42c.42-.16.85-.24 1.29-.24ZM29.2 26.04l.62.4.31.32c.6.75.5 1.54.5 2.42 0 .1-.06.18-.18.22l-.01.02a.04.04 0 0 0 .01.05c.13.05.19.14.19.27v1.74c.02.66.06 1.48-.2 2.05-.33.7-.9 1.12-1.73 1.28-1 .2-1.98-.37-2.46-1.2-.31-.59-.22-1.05-.25-1.64l.01-3.69c0-1.07.47-1.8 1.42-2.22a2.32 2.32 0 0 1 1.76-.02Z" fill="#067395"/><path d="M31.26 26.4v1.02a.4.4 0 0 1-.23-.13.16.16 0 0 1-.04-.1v-.36a.08.08 0 0 0-.03-.05c-.04-.05-.1-.05-.16 0a.12.12 0 0 1-.08.02l-.59-.04-.31-.33c.2-.28.42-.42.65-.42.03 0 .07-.01.1-.03.2-.13.32-.05.45.14.07.1.15.2.24.29Z" fill="#fff"/><path d="M33 26.01c.12.03.18.12.18.29l.01.7-.02.4.02 5.4.02.03c.01.02.03.02.05.02h1.46c.23 0 .39.02.47.06.05.03.1.07.13.13.03.05.04.11.04.18l.02 1.07c0 .2-.07.36-.21.49a3.69 3.69 0 0 0-1.12-.02c-.84-.04-1.68-.04-2.52 0-.13 0-.24-.11-.33-.34.08-.58.1-1.15.04-1.73l.01-5.27.01-1.01c0-.16.03-.28.1-.34.08-.07.19-.1.33-.08l1.31.02Z" fill="#067395"/><path d="m30.78 26.06.03.46v.02l-.02.02a.06.06 0 0 1-.05.01h-.04l-.03-.02v-.02l.03-.44a.04.04 0 0 1 .04-.04h.03v.01Z" fill="#91CBDD"/><path d="m20.93 32.09 1.25-.08.06.02c.02.02.03.03.03.05.07.43.15.88.56 1.14.03.03.08.04.12.04.32.01.54-.1.67-.36.27-.51-.08-1.14-.5-1.52-1.08-1-2.3-1.87-2.1-3.53.12-.97.87-1.72 1.9-1.72 1.3 0 2.14.68 2.24 1.97 0 .02 0 .04-.02.05a.08.08 0 0 1-.05.04l-1.26.24a.09.09 0 0 1-.1-.08c-.03-.28-.1-.5-.22-.67a.52.52 0 0 0-.92.1c-.42 1.06.84 1.9 1.5 2.5a3.41 3.41 0 0 1 1.12 2.02c.03.34-.02.69-.16 1.05-.32.89-1.18 1.3-2.13 1.26-1.35-.05-2.04-1.29-2.04-2.46l.01-.04a.06.06 0 0 1 .04-.02ZM28.8 31.1h-.53c-.02 0-.04 0-.05-.02a.07.07 0 0 1-.02-.05v-1.34l.01-.04a.06.06 0 0 1 .04-.01h2.11a.07.07 0 0 1 .05.02l.01.02v2.5c0 .55-.05.97-.19 1.23a2.13 2.13 0 0 1-3.87-.11 3.97 3.97 0 0 1-.14-1.52v-3.17c0-.48.03-.83.1-1.04a2.13 2.13 0 0 1 3.3-1c.87.68.85 1.6.8 2.6l-.01.02-.03.01h-1.4a.09.09 0 0 1-.09-.05v-.98c-.07-.85-1.19-.81-1.2.03v4.26c-.01.42.19.64.6.67.44.03.6-.34.6-.72a221.3 221.3 0 0 1-.02-1.29.08.08 0 0 0-.06-.02ZM32.96 31.39c.03.3-.01.45-.12.46a3.86 3.86 0 0 0-1.22.02.07.07 0 0 0-.02.05v2.44l.01.02c.02.04.05.05.07.04.03.06-.03.1-.19.1v-8.21c0-.03 0-.06.03-.08a.12.12 0 0 1 .08-.04h1.24a.13.13 0 0 1 .1.04.12.12 0 0 1 .03.09v5.07Z" fill="#fff"/><path d="M22.57 28.85v.02a.03.03 0 0 1-.01.03h-1.29a.12.12 0 0 1-.08-.02.12.12 0 0 1-.04-.08 6.13 6.13 0 0 1-.02-1.02c.01-.14.11-.4.3-.77.34-.63 1.26-.85 1.95-.76 1 .14 1.59.79 1.65 1.76l-.01.06a.08.08 0 0 1-.05.03l-1.02.18a.1.1 0 0 1-.06-.01.1.1 0 0 1-.04-.05c-.06-.14-.11-.5-.26-.65-.17-.18-.36-.26-.56-.22-.74.11-.77 1-.46 1.5ZM27.52 28.91h-1.1a.07.07 0 0 1-.06-.05c-.15-1.19.2-2.23 1.51-2.56.12-.04.34-.04.65-.03.82.03 1.49.61 1.7 1.34.14.43.06.86.07 1.32a.15.15 0 0 1-.05.11.16.16 0 0 1-.11.05h-1.04a.08.08 0 0 1-.08-.1c.02-.26.02-.54-.02-.84-.04-.4-.25-.63-.62-.68-.33-.05-.59.1-.76.42a.16.16 0 0 0-.02.08v.87a.07.07 0 0 1-.02.05.07.07 0 0 1-.05.02ZM31.68 26.34h1.1a.07.07 0 0 1 .06.02l.01.02v2.46l-.01.05a.07.07 0 0 1-.05.02h-1.11l-.05-.02a.06.06 0 0 1-.02-.05v-2.46a.06.06 0 0 1 .04-.03h.03Z" fill="#F58639"/><path d="M31.25 27.42v5.27a.75.75 0 0 1-.33-.34.15.15 0 0 1 0-.1c.04-.18.06-.38.07-.6 0-.19-.12-.24-.35-.17v-1.74a.26.26 0 0 0-.19-.27l-.01-.01-.01-.02a.04.04 0 0 1 .02-.04c.12-.04.17-.12.18-.22 0-.88.1-1.67-.5-2.42l.59.04c.03 0 .06 0 .08-.02.06-.05.11-.05.16 0a.08.08 0 0 1 .03.05v.36c0 .04.01.07.04.1a.4.4 0 0 0 .22.13Z" fill="#91CBDD"/><path d="m33.17 27.4.02-.4c.22-.18.32.01.53-.08a.11.11 0 0 1 .14.05l.02.05c0 .18-.03.36-.1.54a.1.1 0 0 1-.03.05.1.1 0 0 1-.06.02c-.24 0-.41-.08-.52-.24ZM20.85 27.55c-.13.66-.08 1.26.17 1.82.13.29.36.57.57.84 0 .1-.01.17-.06.25-.03.07-.08.09-.12.06a.52.52 0 0 1-.1-.07.12.12 0 0 0-.1-.03l-.26.06a.15.15 0 0 1-.15-.05c-.2-.23-.16-.48-.04-.77a.09.09 0 0 0-.03-.1.1.1 0 0 0-.04-.02l-.52-.1h-.02a.04.04 0 0 1-.01-.04v-.01l.33-.56a.07.07 0 0 0-.02-.08l-.03-.02-.22-.04a.12.12 0 0 0-.09.02.12.12 0 0 0-.05.08c-.04.25-.23.37-.58.36a.13.13 0 0 1-.1-.06c-.26-.36-.08-.69.11-1.1.09-.17.25-.28.48-.32.28-.05.58-.09.88-.12ZM28.56 27.86c-.28.15-.43.35-.45.6v.03l-.03.02a.09.09 0 0 1-.11-.03v-.02l-.05-.41c.05-.14.16-.23.34-.28.08-.02.18 0 .3.09Z" fill="#fff"/><path d="M37.09 28.58a8.97 8.97 0 0 1-3.4 8.9 8.84 8.84 0 0 1-4.81 1.87 15.44 15.44 0 0 1-2.77-.1l-.63-.18a8.75 8.75 0 0 1-3.73-2.04 8.86 8.86 0 0 1-2.9-5.2l-.02-2.15c0-.04.02-.08.04-.11a.18.18 0 0 1 .1-.06c.17-.04.5-.01.7.18.03.03.2.1.5.21l.03.03.24.43c0 .02.02.04.04.05l.43.24a.07.07 0 0 0 .08-.01c.09-.09.18-.12.28-.08a.1.1 0 0 1 .07.09l.03.63a.12.12 0 0 1-.04.1c-.17.13-.28.3-.35.5-.2.02-.34.11-.33.34.01.3.05.57.11.79.28.97.9 1.58 1.86 1.81l.06.7c.03.32.07.55.1.69.1.38.05.72.19 1.07.12.3.2.5.27.57.1.12.35.24.73.36a.04.04 0 0 0 .05-.01.04.04 0 0 0 0-.05c-.1-.13-.1-.25 0-.35a.13.13 0 0 0 .04-.06v-.06a.43.43 0 0 0-.07-.13.07.07 0 0 1 0-.08l.01-.02a.61.61 0 0 0 .2-.26.12.12 0 0 1 .08-.07l.28-.07a.12.12 0 0 0 .1-.08.12.12 0 0 0-.03-.11l-.23-.26v-.04a.04.04 0 0 1 .04-.01c.24.1.4.07.5-.07.15-.23.33-.62.35-.97.02-.23.17-.37.46-.42a.2.2 0 0 0 .1-.05c.3-.24.32-.9.3-1.28-.01-.06 0-.12.05-.15h.05a2.39 2.39 0 0 0 2.46 1.2c.82-.16 1.4-.59 1.73-1.28.26-.57.22-1.4.2-2.05.23-.07.35-.02.35.16 0 .23-.03.43-.08.6a.15.15 0 0 0 .01.1c.07.15.17.27.32.35.05.58.04 1.15-.04 1.73l.3 1.53.02.08c.13.31.22.62.26.94 0 .03.02.05.04.07.02.02.05.03.07.03.52.03.9-.1 1.16-.41.14-.17.36-.42.53-.73.08-.16.21-.26.3-.4a.19.19 0 0 0 .03-.13.96.96 0 0 1 .14-.64c.33-.05.7-.05 1.12.02-.26.21-.36.39-.3.53l.03.1c.02.06.04.1.06.11.02.02.05.03.08.03a.2.2 0 0 0 .08 0 .22.22 0 0 0 .13-.13c.2-.44.36-.85.49-1.21.05-.15.06-.27.02-.35a.05.05 0 0 0-.05-.03.05.05 0 0 0-.05.03l-.18.53-.01.02a.04.04 0 0 1-.05-.01l-.01-.02-.03-.1-.02-1.06a.38.38 0 0 0-.04-.18.32.32 0 0 0-.13-.13c-.08-.04-.24-.06-.47-.05 0-.2.05-.35.15-.45.56-.6 1.1-1.06 1.23-1.9a.08.08 0 0 0-.04-.07.08.08 0 0 0-.09 0c-.2.1-.43.14-.7.1a.13.13 0 0 1-.1-.1c-.03-.17-.17-.35-.4-.55a.5.5 0 0 1-.13-.15l-.94-1.73v-.03a.05.05 0 0 1 .03-.04h.03l.07.03c.06.02.11.06.15.1l.96 1.55c.12.19.17.42.26.55a.1.1 0 0 0 .11.05c.58-.16 1.5-.58 1.65-1.21a.27.27 0 0 0-.13-.3l-.32-.18a.1.1 0 0 0-.1 0l-.2.1a.15.15 0 0 1-.2-.03l-.56-.65a.1.1 0 0 1 .01-.14l.04-.03a.07.07 0 0 1 .1 0l.42.41a.2.2 0 0 0 .13.06l.3.02c.04 0 .07.01.1.03l.54.28Z" fill="#fff"/><path d="m28 31.17-.06.88c-.07-.3-.07-.6-.02-.88.01-.03 0-.06-.01-.08a.44.44 0 0 1-.05-.27l.05-1.53c.01-.31-.05-.82 0-1.24l.05.4v.03l.03.02c.03.02.06.03.1.01l.01-.02.01-.03c.02-.25.17-.45.45-.6.1.34.14.72.1 1.14a.5.5 0 0 0 .14.4l.01.02a.03.03 0 0 1-.01.03h-.03a1.4 1.4 0 0 0-.6 0 .26.26 0 0 0-.15.1.25.25 0 0 0-.06.16l.04 1.46Z" fill="#91CBDD"/><path d="M28 31.17c.11.15.31.2.6.14a.06.06 0 0 1 .04.01.05.05 0 0 1 .02.04v1.24c0 .09-.04.17-.1.23a.34.34 0 0 1-.24.1h-.07a.33.33 0 0 1-.3-.2.32.32 0 0 1-.02-.13v-.55l.07-.88Z" fill="#fff"/><path d="M32.96 31.39v1.62a.06.06 0 0 0 .03.05.06.06 0 0 0 .04.01h1.98c.04 0 .08.02.1.05.03.02.05.06.05.1v1.24c0 .02-.01.04-.03.05a.07.07 0 0 1-.05.02H31.5c.16-.02.22-.05.19-.1l3.19.03a.15.15 0 0 0 .1-.05.15.15 0 0 0 .05-.1v-1.06L35 33.2a.06.06 0 0 0-.04-.02h-2.03c-.03 0-.05 0-.07-.02a.08.08 0 0 1-.02-.06v-1.26c.1-.01.15-.16.12-.46Z" fill="#91CBDD"/><path d="M23.71 31.81h1.2c.03 0 .06.01.08.03l.05.07c.16.7.05 1.31-.33 1.87-.67.99-2.43.97-3.15.09a2.67 2.67 0 0 1-.57-1.54c0-.04 0-.07.03-.1a.13.13 0 0 1 .09-.04l.95-.05c.04 0 .07 0 .1.03s.05.06.05.1c.05.46.26 1.07.83 1.1.45.02.78-.43.79-.85 0-.21-.05-.44-.14-.67v-.03h.02ZM26.33 31.86s0-.02.02-.03l.03-.01H27.54l.02.02.02.03v.03c-.04.57-.09 1.3.7 1.37h.12c.72-.2.6-.82.61-1.38 0-.02 0-.04.02-.05a.07.07 0 0 1 .05-.02h1.16c.02 0 .03 0 .05.02l.02.04c0 .62-.01.95-.02 1-.22.96-.91 1.63-1.94 1.63a2.02 2.02 0 0 1-1.88-1.22 4.36 4.36 0 0 1-.14-1.43ZM32.84 31.85v1.26c0 .02 0 .04.02.06l.07.02h2.03a.06.06 0 0 1 .06.06v1.06a.14.14 0 0 1-.05.1.15.15 0 0 1-.1.05l-3.2-.04c-.01.01-.04 0-.06-.04v-2.46l.01-.05a3.86 3.86 0 0 1 1.22-.02Z" fill="#01A656"/><path d="M26 31.97c.03.59-.06 1.05.25 1.65l-.05-.01a.17.17 0 0 0-.06.15c.03.37.01 1.04-.29 1.28a.2.2 0 0 1-.1.05c-.29.05-.44.2-.46.42-.02.35-.2.74-.36.97-.09.14-.25.16-.49.07a.04.04 0 0 0-.04.03v.02l.23.26a.12.12 0 0 1-.01.16.13.13 0 0 1-.05.03l-.29.07a.12.12 0 0 0-.08.07.61.61 0 0 1-.2.26.07.07 0 0 0-.03.05.07.07 0 0 0 .02.05l.07.13v.06l-.03.06c-.11.1-.11.22-.01.35v.05a.04.04 0 0 1-.05.01c-.38-.12-.62-.24-.73-.36a2.45 2.45 0 0 1-.27-.57c-.14-.35-.1-.69-.19-1.07a5.76 5.76 0 0 1-.1-.7l-.05-.69c.8.1 1.63-.02 2.17-.63.5-.57.72-1.26.64-2.05l.28.15.06.02c.15-.01.23-.12.22-.34ZM35.17 34.78c.14-.13.21-.3.21-.5l.03.1v.02l.03.01h.03l.01-.02.18-.53.02-.02.03-.01a.05.05 0 0 1 .05.03c.04.08.03.2-.02.35a13.46 13.46 0 0 1-.54 1.28.22.22 0 0 1-.08.05.2.2 0 0 1-.08.01.18.18 0 0 1-.08-.03c-.02 0-.04-.05-.06-.11l-.04-.1c-.05-.14.05-.32.3-.53ZM31.2 34.42c.1.23.2.34.33.33.84-.03 1.68-.03 2.52 0a.96.96 0 0 0-.14.65c0 .05 0 .1-.03.13-.09.14-.22.24-.3.4-.17.31-.4.55-.53.73-.25.3-.64.44-1.16.41a.12.12 0 0 1-.11-.1 3.7 3.7 0 0 0-.28-1.02l-.3-1.53Z" fill="#91CBDD"/></svg>