<!-- by TradingView --><svg width="56" height="56" viewBox="0 0 56 56" xmlns="http://www.w3.org/2000/svg"><path fill="#F0F3FA" d="M0 0h56v56H0z"/><path d="M33.08 13c-11.25 0-16.64 9.24-17.94 13.86h.3c1.47-3.07 6.05-12.07 17.64-12.07 9.26 0 9.26 8.05 8.1 12.07h.56C43.54 22.24 44.32 13 33.08 13Zm-2.7 5.29c-6.66 0-9.85 5.71-10.62 8.57h.18c.87-1.9 3.58-7.46 10.44-7.46 5.48 0 5.48 4.97 4.8 7.46h.32c1.07-2.86 1.53-8.57-5.12-8.57Zm-6.16 7.93a5.39 5.39 0 0 1 5.21-3.45c3.27 0 3.04 2.3 2.52 3.45h-.37c.34-1 .55-2.82-2.15-2.82-3.37 0-4.7 2.06-5.13 2.82h-.08Z" fill="#F89A22"/><path fill-rule="evenodd" d="M7 30v5h1.6v-1.95h.47L11.2 35H13v-.33l-2.72-2.14 2.59-2.24V30h-1.88l-1.92 2.09h-.46V30H7Zm36.5 5v-5H45v5h-1.5Zm-28.57 0h-1.52l2.29-5h1.86l2.39 5h-1.56l-.48-1H15.4l-.47 1Zm1.7-3.67.8 1.67h-1.57l.77-1.67ZM20.25 30h-1.52l2.3 5h1.85l2.39-5H23.7l-1.76 3.67-1.7-3.67Zm5.25 0h1.51l1.69 3.67L30.45 30H32l-2.38 5h-1.85l-2.27-5Zm6.5 5v-5h4.5v1h-3v1H36v1h-2.5v1h3v1H32Zm5 0v-5h4.06c.8 0 1.44.73 1.44 1.63 0 .6-.27 1.1-.69 1.4a.8.8 0 0 1 .49.62V35h-1.42v-1.13c0-.37-.28-.54-.53-.6H38.5V35H37Zm3.5-4h-2v1.35h2c.32 0 .59-.3.59-.68 0-.37-.27-.67-.6-.67Z" fill="#1C295E"/><path d="m29 39-.38-11-.39 10.16-16.23.27L29 39Z" fill="#1C295E"/></svg>