<!-- by TradingView --><svg width="56" height="56" viewBox="0 0 56 56" xmlns="http://www.w3.org/2000/svg"><path fill="#F0F3FA" d="M0 0h56v56H0z"/><path d="M29.09 14c6.5 0 10.62 0 12.38.02.32 0 .48.19.5.55.03 1.04.04 2.04 0 3-.01.35-.24.52-.67.52l-9.65.03c-.06 0-.1 0-.13.02a.2.2 0 0 0-.1.15l.01.09a1566.51 1566.51 0 0 0 8.73 8.65c.98.93 1.54 1.6 1.67 2.02.25.78.23 1.54-.06 2.27-.13.33-.62.9-1.47 1.75a3122.6 3122.6 0 0 0-11.78 11.65c-.12.12-.25.21-.37.27a.18.18 0 0 1-.17-.02.17.17 0 0 1-.07-.14c-.02-.92-.04-2.39-.04-4.41 0-.58.19-1.06.56-1.44 4.08-4.06 6.64-6.59 7.7-7.6.53-.52.78-.97.74-1.33-.03-.32-.32-.76-.88-1.3-3.07-3.06-6.31-6.27-9.71-9.62a3 3 0 0 1-.89-2.88 2.48 2.48 0 0 1 1.99-2.08 7.51 7.51 0 0 1 1.7-.17Zm-8.72 6.56c1.15-1.15 2.36-1.47 3.64-.96.34.14.86.56 1.55 1.25l5.9 5.83c.57.55.92 1 1.05 1.32.44 1.06.35 2.01-.27 2.86a3.1 3.1 0 0 1-2.64 1.25l-8.03.02a3 3 0 0 1-.64-.06.48.48 0 0 1-.35-.43c-.05-.97-.05-2-.01-3.08.01-.36.24-.54.68-.55.56-.02 2.3-.02 5.18 0a.2.2 0 0 0 .18-.12.2.2 0 0 0-.04-.21 158.98 158.98 0 0 0-2.85-2.83c-.63-.6-1.4-.43-2.3.5a100.78 100.78 0 0 1-3.27 3.25c-.8.71-1.12 1.33-.96 1.84.08.25.34.6.8 1.03l7.47 7.38c.46.45.68 1 .67 1.65a400.8 400.8 0 0 0-.02 4.38l-.04.05a.16.16 0 0 1-.11.05c-.14 0-.29-.09-.46-.26L12.9 32.25a2.85 2.85 0 0 1-.89-2.3c.07-.81.45-1.56 1.16-2.25 1.55-1.52 3.95-3.9 7.2-7.14Z" fill="#FDB814"/></svg>