<!-- by TradingView --><svg width="56" height="56" viewBox="0 0 56 56" xmlns="http://www.w3.org/2000/svg"><path fill="#F0F3FA" d="M0 0h56v56H0z"/><path d="M32.42 24.08c-.95.88-1.9 1.69-2.86 2.44-.69.54-1.2 1.14-1.52 1.8a2.74 2.74 0 0 0-.17 2.27c.04.09.01.11-.07.08a3.89 3.89 0 0 1-1.46-1.2 3.55 3.55 0 0 1-.73-3.3 6.1 6.1 0 0 1 2.03-2.86c.83-.7 1.63-1.53 2.4-2.46a5.73 5.73 0 0 0 1.37-3.08c.01-.1.06-.13.14-.07a29.3 29.3 0 0 1 3.31 2.88 9.62 9.62 0 0 1 2.54 8.46 9.34 9.34 0 0 1-2.7 5.22 9.3 9.3 0 0 1-5.15 2.67c-1.85.3-3.62.1-5.33-.64a9.42 9.42 0 0 1-4.16-3.44 9.49 9.49 0 0 1-1.68-5.2c-.05-2 .44-3.86 1.47-5.55a16.2 16.2 0 0 1 2.96-3.17L26.05 16c.68-.63 1.29-1.29 1.81-1.97a.1.1 0 0 1 .1-.04.1.1 0 0 1 .09.07c.91 2.58.42 4.78-1.47 6.6l-1.74 1.71c-.84.82-1.38 1.43-1.63 1.84a5.67 5.67 0 0 0-.16 5.94 5.24 5.24 0 0 0 3.01 2.56 5.6 5.6 0 0 0 6.7-2.36c1.15-1.87 1.13-3.94-.05-6.23-.07-.14-.17-.16-.3-.05Zm-5.59 14.27a10.5 10.5 0 0 1-10.88.23 8.45 8.45 0 0 1-2.78-2.82 13.63 13.63 0 0 1-1.84-5.42 99.6 99.6 0 0 1-.38-3.41 5.03 5.03 0 0 0-.86-2.58c-.16-.22-.1-.3.16-.25l.67.1a5.02 5.02 0 0 1 3.82 2.44 15.79 15.79 0 0 1 1.3 3.65c.57 2.1 1.7 3.93 3.4 5.48a9.52 9.52 0 0 0 5.63 2.46c.26.03.61.03 1.05 0l.68-.02c.16 0 .17.05.03.14Zm6.48-.66c-1.43.54-2.83.7-4.2.48-.26-.05-.26.01 0 .18l.14.1c.1.09.2.15.28.2 2.8 1.5 5.7 1.75 8.71.75a8.27 8.27 0 0 0 4.42-3.5c1-1.54 1.63-3.38 1.93-5.52.1-.74.26-2.1.47-4.08.08-.8.39-1.5.9-2.11.06-.06.05-.1-.03-.09-2.69.07-4.47 1.33-5.35 3.79-.13.34-.35 1.15-.69 2.43a11.1 11.1 0 0 1-3 5.05 9.99 9.99 0 0 1-3.58 2.32Z" fill="#EE1C25"/></svg>