<!-- by TradingView --><svg width="18" height="18" viewBox="0 0 18 18" xmlns="http://www.w3.org/2000/svg"><path fill="#F0F3FA" d="M0 0h18v18H0z"/><path d="M15 9A6 6 0 1 1 3 9a6 6 0 0 1 12 0Zm-1.26 0a4.7 4.7 0 1 0-9.38 0 4.7 4.7 0 0 0 9.38 0Z" fill="#E84D07"/><path d="M9 5.25a.5.5 0 0 1 .37.17c.76.79 1.73 1.4 2.89 1.86a.36.36 0 0 1 .22.4v.02a.28.28 0 0 1-.36.2 7.53 7.53 0 0 1-3-1.92.17.17 0 0 0-.12-.06.17.17 0 0 0-.12.06 7.53 7.53 0 0 1-3.11 1.94.28.28 0 0 1-.25-.22.36.36 0 0 1 .22-.42 7.95 7.95 0 0 0 2.9-1.86.5.5 0 0 1 .36-.17Z" fill="#E84D07"/><path d="m7.72 11.46 1.4-.3a.25.25 0 0 1 .2.45c-.6.47-1.34.66-2.2.57a.13.13 0 0 1-.12-.13V7.97a.53.53 0 0 1 .53-.53h1.32a.1.1 0 0 0 .07-.2.71.71 0 0 1-.26-.34.3.3 0 0 1 .09-.3c.04-.04.1-.07.15-.07.05 0 .1.01.15.04.3.18.47.42.54.72a.17.17 0 0 0 .13.13c.38.08 1-.18 1.48.26.05.06.1.13.1.21.05.57.31 1.96-.42 1.98a78.57 78.57 0 0 1-3.2.04.15.15 0 0 0-.1.13v1.3a.12.12 0 0 0 .04.1.12.12 0 0 0 .1.02Zm2.98-3.29a.17.17 0 0 0-.16-.16h-2.8a.17.17 0 0 0-.16.16v.07a.17.17 0 0 0 .17.17h2.79a.17.17 0 0 0 .16-.17v-.07Zm0 .98a.16.16 0 0 0-.16-.16h-2.8a.16.16 0 0 0-.17.16v.01a.16.16 0 0 0 .16.17h2.8a.16.16 0 0 0 .17-.17v-.01Z" fill="#E84D07"/><path d="M11.13 11.1c.14.15.4.36.78.62a.5.5 0 0 1 .11.09l.08.1a.22.22 0 0 1-.3.32L9.38 10.9a.6.6 0 0 1-.3-.39v-.03a.18.18 0 0 1 .24-.2l1.06.4a.13.13 0 0 0 .12 0l.96-.69a.28.28 0 0 1 .38.06l.04.07a.23.23 0 0 1-.05.32l-.67.48a.12.12 0 0 0-.02.18Z" fill="#E84D07"/></svg>