<!-- by TradingView --><svg width="56" height="56" viewBox="0 0 56 56" xmlns="http://www.w3.org/2000/svg"><path fill="#F0F3FA" d="M0 0h56v56H0z"/><path d="M38.64 23c-.08.09-.08.17-.01.25a11 11 0 0 1 2.77 6.43c0 .13.08.2.22.2h.91c.08 0 .15.03.2.09.15.17.47.22.95.16.66-.08 1.31-.18 1.97-.28.77-.14 1.22.07 1.34.61.02.06.01.12-.02.18a.88.88 0 0 1-.63.5c-.19.04-.48.03-.87-.04-.77-.14-1.53-.23-2.3-.3a.3.3 0 0 0-.18.06l-.31.2a.28.28 0 0 1-.15.04h-.92c-.13 0-.2.06-.21.19a11.34 11.34 0 0 1-2.08 5.7h-.04l-.06-.02c-.03 0-.03-.03-.02-.05.37-.76.63-1.38.8-1.84 1.01-2.93.9-5.7-.37-8.31a11.1 11.1 0 0 0-6.87-6.05 11.08 11.08 0 0 0-7.81.32c-.5.2-.82.32-.92.33-.09.01-.1 0-.04-.06.4-.3.65-.49.78-.55 1.4-.72 2.9-1.13 4.5-1.26.19-.01.28-.1.28-.29v-.89c0-.09.03-.17.1-.23l.14-.14a.24.24 0 0 0 .08-.2c-.06-.58-.2-1.51-.4-2.8a.84.84 0 0 1 .19-.7c.18-.23.42-.3.7-.22.43.13.59.55.46 1.26l-.13.83c-.07.49-.13.86-.18 1.1-.08.37 0 .7.2.97.04.05.06.11.06.18v.84c0 .18.1.28.28.3 2.46.2 4.61 1.09 6.47 2.64.1.09.2.08.28 0l.68-.67c.05-.05.1-.08.17-.1.3-.05.48-.12.54-.2.55-.64 1.06-1.3 1.55-2 .18-.26.39-.43.62-.5.27-.1.51-.04.73.2.18.2.22.42.1.68-.1.2-.27.4-.53.58-.94.66-1.65 1.18-2.11 1.56a.25.25 0 0 0-.1.2v.16c0 .1-.04.19-.1.26l-.7.69ZM11.01 26.2c0-.14.06-.2.18-.2h2.89c1.08 0 2 .4 2.77 1.16.77.77 1.15 1.7 1.15 2.78v.14c0 1.08-.39 2-1.15 2.77A3.79 3.79 0 0 1 14.07 34h-2.89c-.12 0-.18-.07-.18-.2l.01-7.6Zm2.25 2.36v2.9c0 .1.05.14.14.14h.75c.44 0 .82-.15 1.13-.45.3-.3.46-.65.46-1.07v-.16c0-.42-.16-.78-.47-1.07-.3-.3-.68-.45-1.12-.45h-.75c-.1 0-.14.06-.14.16ZM24.5 26.66l.04-.01a3.8 3.8 0 0 1 3.34-.45c.7.22 1.23.65 1.6 1.28.32.56.49 1.24.5 2.04.02 1.07.02 2.5.02 4.27 0 .13-.06.19-.18.19H27.9c-.17 0-.25-.09-.25-.26l-.01-3.9c-.01-.95-.33-1.42-.96-1.43-.66-.01-1 .44-1 1.34-.02 1.37-.02 2.72 0 4.07 0 .1-.06.18-.16.18-.67.04-1.36.02-2.03-.01-.11 0-.17-.06-.16-.17v-4.07c-.02-.9-.35-1.35-1-1.34-.64 0-.96.49-.97 1.43v3.9c0 .17-.09.26-.26.26h-1.91c-.13 0-.19-.06-.19-.18 0-1.78 0-3.2.02-4.27 0-.8.17-1.48.5-2.05.36-.63.9-1.06 1.6-1.28a3.8 3.8 0 0 1 3.38.46Z" fill="#00F"/><path d="M36.18 30.6c.01.79.53 1.1 1.55.95.07-.01.13 0 .19.06.05.05.08.12.08.2v1.95c0 .13-.06.2-.17.2-1.21.13-2.15-.11-2.8-.73-.68-.63-1.02-1.62-1.01-2.95 0-1.04 0-2.4-.02-4.07 0-.14.06-.21.2-.21h1.76c.15 0 .22.08.22.24v4.36Z" fill="#00F"/><path d="M33.47 28h-2.44L31 26.21c0-.14.09-.21.26-.21h1.96c.19 0 .28.08.28.23l-.03 1.76Z" fill="red"/><path d="m33.47 28 .03 5.76c0 .16-.08.24-.23.24h-2.03c-.15 0-.23-.08-.23-.24L31 28l2.47-.01Z" fill="#00F"/></svg>