<!-- by TradingView --><svg width="56" height="56" viewBox="0 0 56 56" xmlns="http://www.w3.org/2000/svg"><path fill="#021033" d="M0 0h56v56H0z"/><path fill="#fff" d="M14 14h28v28H14z"/><path fill-rule="evenodd" d="M41 15H15v26h26V15Zm-13.5.46h-12v1.14h12v-1.14Zm0 3.17h-12v1.13h12v-1.13Zm-12 3.17h12v1.13h-12V21.8ZM26 26l-.1.1H15.5v-1.13h11.53L26 26h.65v1.59h1.08v-1.6h2.05l-.28-.27V15.5h1v11.22l-.5-.5v.4h-1.75v.97H30v2.4h-.67v-1.83h-1.08V30H26v-.79h1.73v-1.05H26V26Zm-10.5-8.95h12v1.13h-12v-1.13Zm12 3.16h-12v1.14h12V20.2Zm-12 3.17h12v1.12l-.01.01H15.5v-1.13Zm12.5.84 1 1V15.5h-1v8.72Zm3 3 .28.28H32v-12h-1v11.72Zm.78.78-.47.46 9.19 8.62v-1.47L32.39 28h-.61Zm-.84.84-.76.75 10.32 9.68V37.8l-9.56-8.96Zm-1.24 1.24-.76.76L38.71 40h1.56L29.7 30.08Zm-1.04 1.03-.66.67v.18L36.57 40h1.57l-9.48-8.89ZM15.5 28H24l3.5 3.5V40l-4.14-4.08L19.22 40H15.5v-3.35l4.38-4.32L15.5 28Zm8.82-.32 1.13-1.13H15.5v1.13h8.82ZM33 15.5h1v12h-1v-12Zm2.5 0h-1v12h1v-12Zm.54 0h1.08v12h-1.08v-12Zm2.85 0h-1.08v12h1.08v-12Zm1.61 0h-1.08v12h1.08v-12ZM28 37.26v1.47L29.36 40h1.56L28 37.26ZM33.21 40h-1.56L28 36.58v-1.47L33.21 40Zm2.64 0h-1.57L28 34.1v-1.46L35.85 40Zm4.65-6.58v1.47L33.16 28h1.56l5.78 5.42Zm0-2.4v1.46L35.72 28h1.57l3.21 3.01Zm0-2.2v1.47L38.06 28h1.57l.87.82Z" fill="#E7271C"/></svg>