<!-- by TradingView --><svg width="18" height="18" viewBox="0 0 18 18" xmlns="http://www.w3.org/2000/svg"><path fill="#F0F3FA" d="M0 0h18v18H0z"/><path d="M6.53 15h2.01a4.83 4.83 0 0 1-1.07-2.66C7.47 9.88 10 9.21 10 6.98c0-.5-.3-1.1-.45-1.33.18-.25.17-.94-.8-1.86-.77-.74-2.16-.83-2.75-.78.03 2.7 2 3.16 2.98 3.04-.03-.6-1-1.53-1.38-1.88 1.47.99 1.95 1.86 1.95 2.64s-.27 1.02-1.61 2.4C6.59 10.62 6 11.62 6 12.88c0 1 .36 1.84.53 2.13Z" fill="url(#a)"/><path d="M9.47 11c.26 0 .47.22.47.5s-.21.5-.47.5-.47-.22-.47-.5.21-.5.47-.5Zm.14-.81c.15 0 .27.13.27.3 0 .05 0 .1-.03.14l.39.44a.38.38 0 0 1 .22-.07c.22 0 .4.2.4.43 0 .24-.18.43-.4.43-.22 0-.4-.2-.4-.43 0-.07.02-.14.05-.2l-.41-.46a.26.26 0 0 1-.1.02c-.14 0-.27-.14-.27-.3 0-.17.13-.3.28-.3Zm.29-.86c.15 0 .27.14.27.3 0 .04 0 .07-.02.1l1.05 1.13a.36.36 0 0 1 .21-.07c.2 0 .38.18.38.4 0 .22-.17.4-.38.4-.2 0-.37-.18-.37-.4 0-.06 0-.12.03-.17L10.02 9.9a.26.26 0 0 1-.12.04c-.16 0-.28-.13-.28-.3 0-.16.12-.3.28-.3Zm.37-.83c.16 0 .28.13.28.3 0 .03 0 .07-.02.1l1.48 1.59a.3.3 0 0 1 .14-.04c.18 0 .32.16.32.35 0 .19-.14.34-.32.34-.17 0-.32-.15-.32-.34 0-.06.02-.11.04-.16L10.4 9.06a.26.26 0 0 1-.13.04c-.15 0-.27-.14-.27-.3 0-.17.12-.3.27-.3Zm.58-.64c.17 0 .32.15.32.34 0 .06-.02.11-.04.16l1.47 1.58a.26.26 0 0 1 .13-.04c.15 0 .27.14.27.3 0 .17-.12.3-.27.3-.16 0-.28-.13-.28-.3 0-.03 0-.07.02-.1l-1.48-1.6a.3.3 0 0 1-.14.05c-.18 0-.32-.16-.32-.35 0-.19.14-.34.32-.34Zm.74-.45c.2 0 .37.18.37.4 0 .05 0 .1-.02.14l1.04 1.15a.26.26 0 0 1 .12-.03c.16 0 .28.13.28.3 0 .16-.12.3-.28.3-.15 0-.27-.14-.27-.3 0-.04 0-.07.02-.1l-1.03-1.15a.36.36 0 0 1-.23.1c-.2 0-.38-.19-.38-.41 0-.22.17-.4.38-.4Zm.95-.27c.22 0 .4.2.4.43 0 .08-.02.14-.05.2l.4.46a.26.26 0 0 1 .1-.02c.15 0 .28.14.28.3 0 .17-.13.3-.28.3-.15 0-.27-.13-.27-.3 0-.05 0-.1.03-.13l-.4-.45a.38.38 0 0 1-.21.07c-.22 0-.4-.2-.4-.43 0-.24.18-.43.4-.43Zm1-.14c.25 0 .46.22.46.5s-.21.5-.47.5-.47-.22-.47-.5.21-.5.47-.5ZM5.74 7.45a.27.27 0 0 1 0-.37c.1-.1.27-.1.38 0 .1.1.1.27 0 .38-.1.1-.27.1-.38 0Z" fill="#EDB637"/><path d="M6.16 7.94a.25.25 0 0 1-.07-.12h-.35c0 .03-.02.05-.04.07a.17.17 0 0 1-.24 0 .17.17 0 0 1 0-.24.17.17 0 0 1 .28.05h.36a.24.24 0 0 1 .4-.1c.1.09.1.24 0 .34-.1.1-.25.1-.34 0Z" fill="#EDB637"/><path d="M6.48 8.11a.23.23 0 0 0-.04.07h-.92a.17.17 0 0 0-.28-.07.17.17 0 0 0 0 .25.17.17 0 0 0 .28-.05h.9c0 .04.02.1.06.13.09.1.24.1.33 0 .09-.09.09-.24 0-.33a.23.23 0 0 0-.33 0Z" fill="#EDB637"/><path d="M6.62 8.7a.2.2 0 0 1 .33-.08.2.2 0 0 1 0 .28.2.2 0 0 1-.33-.08H5.34c0 .02-.02.03-.03.05a.17.17 0 0 1-.24 0 .17.17 0 0 1 0-.25.17.17 0 0 1 .28.07h1.27ZM6.7 9.13a.17.17 0 0 0-.04.05H5.38a.2.2 0 0 0-.32-.08.2.2 0 0 0 0 .28.2.2 0 0 0 .32-.08h1.27c0 .03.02.06.04.08.07.06.17.06.24 0a.17.17 0 0 0 0-.25.17.17 0 0 0-.24 0ZM6.48 9.69l.04-.05a.17.17 0 0 1 .24 0c.06.06.06.17 0 .24a.17.17 0 0 1-.28-.07h-.9a.23.23 0 0 1-.38.08.23.23 0 0 1 0-.33c.08-.1.23-.1.32 0 .03.03.05.08.06.12h.9Z" fill="#EDB637"/><path d="m6.26 10.3.04.05c.06.07.17.07.23 0a.17.17 0 0 0 0-.24.17.17 0 0 0-.28.07l-.34.01a.25.25 0 0 0-.07-.13.24.24 0 0 0-.34 0c-.1.1-.1.25 0 .35a.24.24 0 0 0 .4-.1h.36Z" fill="#EDB637"/><path d="M6.26 10.54c.1.11.1.28 0 .38-.1.1-.27.1-.38 0a.27.27 0 0 1 0-.38c.1-.1.27-.1.38 0Z" fill="#EDB637"/><defs><linearGradient id="a" x1="8" y1="3" x2="8" y2="15" gradientUnits="userSpaceOnUse"><stop stop-color="#EAB332"/><stop offset="1" stop-color="#D35A2B"/></linearGradient></defs></svg>