<!-- by TradingView --><svg width="56" height="56" viewBox="0 0 56 56" xmlns="http://www.w3.org/2000/svg"><path fill="#F0F3FA" d="M0 0h56v56H0z"/><path d="M44 25v6h-1.3l-2.17-3.15h-.03V31H39v-6h1.33l2.12 3.14h.05V25H44Z" fill="#01ACF1"/><path d="M41.11 22.62a3.9 3.9 0 0 0 .56-1.62l.33.06a4.4 4.4 0 0 1-.63 1.83 2.21 2.21 0 0 1-1.9 1.11 3.47 3.47 0 0 1-2.12-.65l-.03-.02c-.47-.3-.92-.58-1.8-.58-.46 0-.77.07-1 .18-.2.1-.37.23-.54.37l-.04.04c-.2.16-.41.33-.73.45-.3.13-.7.21-1.27.21a4.01 4.01 0 0 1-2.3-.65l-.14-.08a2.61 2.61 0 0 0-1.5-.52c-.73 0-1.1.29-1.48.59l-.04.03c-.38.3-.77.63-1.48.63v-.43c.6 0 .93-.26 1.3-.56l.04-.03c.4-.32.84-.66 1.65-.66.74 0 1.19.28 1.65.56l.14.09c.5.3 1.08.6 2.16.6.54 0 .9-.07 1.17-.18.27-.11.46-.25.64-.4l.05-.05c.17-.14.36-.3.6-.41.28-.13.63-.21 1.12-.21.96 0 1.46.32 1.95.63l.03.02c.48.3.97.6 1.97.6.78 0 1.3-.42 1.64-.95Z"/><path fill-rule="evenodd" d="M10.51 39.15c2.35 3.61 12.09 1.77 21.74-4.12 9.66-5.88 15.59-13.58 13.24-17.18-2.35-3.61-12.09-1.77-21.74 4.12-9.66 5.88-15.59 13.58-13.24 17.18Zm2-1c2.2 3.45 10.9 1.93 19.47-3.4 8.55-5.34 13.71-12.45 11.51-15.9-2.2-3.45-10.91-1.93-19.47 3.4-8.55 5.34-13.71 12.45-11.51 15.9Z" fill="#F58322"/><path d="M33 25v6h-3.99v-1.31h2.49V26.3H29V25h4Zm1 0v6h3.99v-1.31H35.5V26.3H38V25h-4ZM24.49 25l1 4.23h.03l1-4.23H28l-1.6 6h-1.8L23 25h1.49ZM19.42 31H18l1.6-6h1.8l1.6 6h-1.42l-1.06-4.35h-.04L19.42 31Zm-.26-2.37h2.67v1.22h-2.67v-1.22ZM17 25v6h-1.3l-2.17-3.15h-.03V31H12v-6h1.33l2.12 3.14h.05V25H17Z" fill="#01ACF1"/><path d="M31 27.5h-2v1h2v-1Zm5 0h2v1h-2v-1Z" fill="#01ACF1"/><path d="m28.36 19.03-.7.83c-.02.03.01.08.06.07.2-.02.38-.07.54-.16l.45-.18c.04-.03.09-.08.14-.15.04-.05.09-.06.14-.03.09.97-.65 1.73-1.63 2.16-.9.4-1.86.52-2.86.36-.28-.04-.51-.14-.78-.23l-.49-.23a3.6 3.6 0 0 1-1.47-1.53c-.02-.06-.13-.13-.3-.22-.04-.02-.06-.02-.09 0-.02.02-.03.04-.02.06 0 .07.14.2.18.3.03.07.02.15-.02.23-.1.2-.15.42-.17.64-.01.05-.07.04-.11.03-.07-.01-.1-.05-.1-.1.03-.25.1-.45.23-.63a.14.14 0 0 0 .02-.1.16.16 0 0 0-.06-.1c-.2-.16-.38-.33-.5-.52-.2-.26-.5-.4-.75-.62-.11-.09-.09-.13.06-.14.38-.01.34-.37.42-.57.02-.03.04-.04.08-.05h.06c.08 0 .1.02.08.08l-.12.25c-.03.07 0 .09.07.07l.15-.05c.1-.03.15 0 .1.09a.17.17 0 0 1-.09.1c-.14.06-.28.11-.43.15-.07.02-.08.1-.03.13.24.14.44.31.59.51.02.04.06.05.1.04.63-.16.45-.62.77-.96.47-.5 1.04-.48 1.72-.4.05 0 .08-.01.08-.06a1.8 1.8 0 0 0-.2-.73 1.98 1.98 0 0 1-.02-1.82c.13-.32.14-.65.2-.98.04-.16.14-.3.3-.4a.21.21 0 0 1 .12-.04c.05 0 .09.02.12.04.22.18.2.75.19 1 0 .02 0 .05.03.08.02.02.05.04.09.05.4.1.55.34.47.73-.05.21-.16.56-.34 1.04l.03.01c.03 0 .04 0 .05-.02.09-.3.19-.6.36-.87.1-.16.13-.33.2-.5a3.4 3.4 0 0 1 1.28-1.62c.1-.06.22-.08.36-.06.06 0 .12.03.16.07a.2.2 0 0 1 .06.14c0 .2-.43 1.37-.37 1.37l.54.04c.11.01.17.06.18.16a.68.68 0 0 1-.16.48 37 37 0 0 0-.76 1c-.04.05-.02.07.04.07.22 0 .5.03.6.21.28.5-.37 1.41-.75 1.87-.1.12-.09.23.02.33l.02.02c.1.1.2.1.29 0 .31-.36.63-.7.96-1.04.13-.13.28-.23.45-.28.14-.05.3.04.3.17 0 .1-.04.23-.14.41Z" fill="#010101"/><path d="M24.47 19.67c.06-.96.18-1.73.35-2.33.17-.59.45-1.26.85-2.02.24-.46.57-.84 1-1.13.08-.06.22-.03.26.05.17.36-.39 1.16-.46 1.55-.01.05.05.08.1.06.18-.1.36-.13.55-.09.2.04.24.14.14.29l-.93 1.25c-.02.03-.08.34.06.26.23-.12.44-.1.63.04.03.02.05.05.06.09.04.18.02.35-.05.5-.2.43-.45.83-.77 1.22-.1.11-.1.23 0 .34l.24.26c.1.1.2.1.3 0 .35-.4.7-.77 1.05-1.15.1-.1.22-.2.37-.28.06-.03.14.01.13.07a.58.58 0 0 1-.15.34c-.3.34-.59.68-.84 1.02-.09.11-.05.15.1.12.42-.1.83-.22 1.23-.39.16-.06.11.19.1.24-.32.9-1.31 1.5-2.37 1.75-1.86.42-3.73-.33-4.46-1.82-.08-.14-.23-.24-.42-.25-.05 0-.07-.05-.04-.09.16-.18.29-.39.36-.6.23-.65.89-.75 1.58-.68.13.01.25.05.35.12.04.02.1 0 .1-.04-.02-.24-.02-.45-.1-.69-.16-.43-.38-.8-.34-1.29 0-.16.04-.32.1-.5.16-.45.27-.93.35-1.41.01-.12.2-.14.26-.04.13.19.05.73.06.97 0 .04.03.06.07.06.8.01.48.75.35 1.13-.06.16-.1.33-.14.52-.13.8-.26 1.6-.37 2.43-.01.07.02.12.1.15l.1.03c.09.03.13 0 .14-.06Z" fill="#00A4E8"/><path d="M22.78 18.8c.03-.01.07 0 .08.03.05.09.1.22-.05.27l-.04.02c-.14.05-.23-.06-.28-.15-.02-.03 0-.06.03-.07l.26-.1Z" fill="#010101"/></svg>