<!-- by TradingView --><svg width="18" height="18" viewBox="0 0 18 18" xmlns="http://www.w3.org/2000/svg"><path fill="#F0F3FA" d="M0 0h18v18H0z"/><path d="M10.34 7.36c.03 0 .06-.01.08-.03.03-.01.03-.03 0-.05-.4-.29-.84-.53-1.3-.72-.17-.07-.4-.11-.73-.14a2.5 2.5 0 0 1 1.19-.96c.6-.26 1.33-.4 2.15-.45.72-.03 1.45 0 2.2.13.03 0 .05.03.07.06 0 .03 0 .06-.03.09a.68.68 0 0 1-.22.1c-.2.07-.56.17-1.08.31-.29.08-.39.26-.31.56.23.9.3 1.76.23 2.6-.01.07-.02.13-.05.17a.13.13 0 0 1-.1.07.13.13 0 0 1-.13-.05c-.44-.52-.95-1-1.51-1.47a1.04 1.04 0 0 0-.46-.22Z" fill="url(#a)"/><path d="M7.4 8.43c-.16.5-.2 1-.13 1.5.03.23.16.43.38.58-.8 0-1.44-.2-1.95-.6a7.01 7.01 0 0 1-2.2-3c-.01-.04 0-.08.05-.11s.1-.03.14 0l1.14.87c.1.08.21.08.32 0l.26-.18c.54-.39.95-.66 1.22-.83.45-.28.87-.48 1.25-.59a.62.62 0 0 1 .2-.03.1.1 0 0 1 .08.04c.02.03.02.06 0 .09-.31.65-.56 1.29-.73 1.92a.87.87 0 0 0-.04.34Z" fill="url(#b)"/><path d="M8.4 6.42c.31.03.55.07.72.14.46.2.9.43 1.3.72.03.02.03.04 0 .05a.22.22 0 0 1-.08.03c-.8-.14-1.25.24-1.37 1.16-.01.05-.04.07-.08.08-.04.01-.08 0-.1-.03a2.47 2.47 0 0 1-.58-1.74c0-.14.07-.28.18-.4Z" fill="#E65013"/><path d="M11.42 9.58c-.44.3-.93.51-1.49.66.54-.5.53-1-.03-1.49l-.36-.32c-.02-.02-.03-.04-.02-.06.01-.02.03-.04.06-.04.4-.03.78 0 1.16.07.44.1.78.25 1.02.47.12.1.13.21.05.33-.08.14-.21.27-.39.38Z" fill="#3C3C3A"/><path d="M7.4 8.43c.16.44.42.69.77.75.22.03.6-.02 1.14-.16.04 0 .07 0 .1.02.02.03.02.06 0 .09a2.51 2.51 0 0 1-1.76 1.38.84.84 0 0 1-.38-.59c-.07-.48-.03-.98.12-1.5Z" fill="#0E6634"/><path d="m11.42 9.58.7 1.4.03.09c0 .09-.04.2-.09.34a8 8 0 0 1-1.57 2.55.13.13 0 0 1-.11.04.12.12 0 0 1-.1-.07c-.05-.1-.01-.35.1-.75a6.5 6.5 0 0 0 .07-.25c.06-.21.08-.36.06-.44-.03-.13-.14-.22-.33-.27-.99-.26-1.88-.6-2.66-1.05a.73.73 0 0 1-.23-.19.1.1 0 0 1-.01-.12.13.13 0 0 1 .1-.07c.83-.12 1.59-.26 2.28-.43.06-.01.15-.05.27-.12a5.16 5.16 0 0 0 1.5-.66Z" fill="url(#c)"/><defs><linearGradient id="a" x1="8.39" y1="6.59" x2="10.89" y2="9.38" gradientUnits="userSpaceOnUse"><stop stop-color="#FFCB43"/><stop offset="1" stop-color="#FF7C14"/></linearGradient><linearGradient id="b" x1="6.36" y1="6.7" x2="5.94" y2="10.52" gradientUnits="userSpaceOnUse"><stop stop-color="#0B8B39"/><stop offset="1" stop-color="#A2C243"/></linearGradient><linearGradient id="c" x1="11.6" y1="10.22" x2="6.87" y2="12.13" gradientUnits="userSpaceOnUse"><stop stop-color="#C0BEBE"/><stop offset="1" stop-color="#969696"/></linearGradient></defs></svg>