<!-- by TradingView --><svg width="18" height="18" viewBox="0 0 18 18" xmlns="http://www.w3.org/2000/svg"><path fill="#F0F3FA" d="M0 0h18v18H0z"/><path d="M11.66 4.63c-.08.1-.19.2-.33.26l-.98.48a.2.2 0 0 1-.12.01.58.58 0 0 1-.36-.21 1.93 1.93 0 0 1-.24-.44c-.06-.12-.02-.22.13-.3.16-.06.32-.12.48-.15.07-.02.18-.06.33-.13.2-.09.35-.14.45-.15.17-.01.33.05.46.2.06.05.12.17.2.35 0 .03 0 .06-.02.08ZM8.4 8.73c-.02.01-.04.02-.05.01-.02 0-.03-.02-.03-.03.06-.73.47-1.27 1.23-1.62.02 0 .03-.02.04-.04 0-.02 0-.04-.02-.05-.25-.2-.43-.44-.53-.73-.01-.03 0-.06.02-.09.18-.14.35-.24.52-.3.23-.07.42-.05.58.05.03.02.06.03.1.03h.03c.22-.04.38-.05.5-.05.18.02.31.08.38.19.05.08.04.16-.02.25l-.03.02-.39.14c-.02 0-.02.01-.03.03 0 .02 0 .03.02.04.23.14.27.33.12.6a.13.13 0 0 1-.05.04l-.28.16a.08.08 0 0 0-.04.04l-.08.15-.02.03-.72.41a2.87 2.87 0 0 0-1.26.72Z" fill="#231F20"/><path d="m7.46 9.6.02-.03-.04-.03-.03-.01-.96.2h-.01c-.25-.02-.55 0-.89.05-.39.07-.7.07-.9.02a.87.87 0 0 1-.6-.53c-.1-.22-.03-.46.23-.71.2-.19.45-.37.79-.53.43-.23.92-.43 1.47-.6.34-.12.62-.18.84-.18.32 0 .56.1.7.32.03.02.03.05.01.08a.45.45 0 0 1-.26.24l-.43.12c-.56.15-.94.27-1.15.37-.5.24-.94.51-1.31.8-.02.02-.03.04-.02.06 0 .02.01.03.04.04.21.08.45.12.7.12a15.85 15.85 0 0 0 2.97-.16c.07 0 .17-.03.32-.08.14-.05.32-.07.55-.07.04 0 .06.01.06.05l.02.04c.02.01.04.01.07 0 .1-.08.21-.11.34-.1.02 0 .03.01.03.02s0 .02-.02.03c-.22.07-.42.1-.61.08a5.2 5.2 0 0 1-1 .16.81.81 0 0 0-.34.12c-.02.01-.03.03-.02.05l.02.08c.01.03 0 .05-.03.05-.19.04-.4.05-.65.04-.04 0-.05-.02-.02-.05a.2.2 0 0 1 .11-.07Z" fill="#88714C"/><path d="M12.6 7.78a.7.7 0 0 1 .23.1v.02h-.02a3.33 3.33 0 0 0-.5-.12l.02-.02c.1 0 .18 0 .26.02Z" fill="#231F20"/><path d="M12.72 8.23c-.12-.04-.2 0-.26.16-.01.04-.03.06-.06.05-.02 0-.02 0-.02-.02l.04-.07c.01-.03 0-.04-.04-.04h-.08c-.02 0-.02 0-.01-.02 0-.02.08-.05.22-.1l.12-.02c.03-.02.06-.02.09 0l.05.03-.01.03a.04.04 0 0 1-.04 0ZM11 8.76l-.25.19c-.03.02-.06.02-.1 0l-.05-.02c-.02 0-.03 0-.05.02a.48.48 0 0 1-.18.09c-.03 0-.04 0-.05-.02v-.04c.13-.1.25-.15.38-.15.03 0 .06-.01.08-.03a.56.56 0 0 1 .2-.08l.03.01-.01.03ZM8.44 9.57c.03 0 .06-.02.06-.03 0-.02-.03-.03-.07-.03-.03 0-.06.01-.06.03 0 .02.03.03.07.03Z" fill="#88714C"/><path d="M7.54 12.32a.56.56 0 0 1-.08-.28c0-.3.07-.57.19-.83.14-.32.33-.54.59-.67.07-.04.13-.03.19.03.14.17.18.38.1.62-.06.23-.2.4-.4.54-.26.18-.43.37-.5.59 0 .02-.01.03-.04.03-.02 0-.04 0-.05-.03ZM7.58 14l-.21-.02c-.19-.02-.3-.11-.33-.27 0-.03 0-.06.03-.08a11.09 11.09 0 0 1 .17-.12.11.11 0 0 1 .1 0c.18.05.26.15.26.31 0 .1 0 .16-.02.17Z" fill="#231F20"/></svg>