<!-- by TradingView --><svg width="18" height="18" viewBox="0 0 18 18" xmlns="http://www.w3.org/2000/svg"><path fill="#181B1E" d="M0 0h18v18H0z"/><path d="M8.5 10.72V10c.65 0 1 .15 1 .84v1.02c0 .54 0 1.18.12 1.71l.02.11h3.05v-1.86a.56.56 0 0 1-.27-.31l-.01-.03a2.32 2.32 0 0 1-.07-.6v-.44c0-.84-.44-1.23-1.19-1.45.97-.32 1.38-1.02 1.4-2.02l.01-.11c0-1.9-1.59-2.5-3.24-2.54h-.18V4c1.88 0 3.73.69 3.73 2.86 0 .83-.23 1.63-.94 2.1.54.31.72.89.72 1.48v.32c0 .33.03.52.06.63.02.06.06.11.12.15l.17.09V14H9.4l-.06-.24c-.06-.24-.1-.47-.14-.7V14H5v-2.35c.32-.22.35-.39.35-.79v-3.7c0-.42 0-.56-.35-.81V4h4.14v.32H5.31v1.86c.34.25.35.6.35.99V10.97c0 .35-.04.64-.35.85v1.86H8.9v-2c-.33-.2-.38-.49-.39-.86v-.1Zm.8-3.5c0-.28-.07-.33-.08-.34A.6.6 0 0 0 9 6.82l-.2-.03v.89c.12 0 .21-.02.28-.04a.42.42 0 0 0 .14-.05c.02-.02.07-.12.07-.38Zm-.49 3.5c0 .28-.02.53.24.68l.14.05v-.6c0-.1 0-.2-.03-.35-.02-.15-.21-.16-.35-.17v.39Zm.8-3.45c0 .27-.06.46-.18.56-.12.1-.36.16-.72.17H8.5V6.47h.04c.41 0 .69.05.84.14.16.1.24.3.24.6v.06Z" fill="#fff"/></svg>