<!-- by TradingView --><svg width="56" height="56" viewBox="0 0 56 56" xmlns="http://www.w3.org/2000/svg"><path fill="#F0F3FA" d="M0 0h56v56H0z"/><path d="M7 33h42v1H7zM49 26.5h-2.56l-2.8-3.78L26 18.08v2.03l4 4.88h-1.84v-1.08L25.5 20.6l-2.66 3.31V25H21l4-4.86V17l20.41 4.4L49 26.5ZM42.56 25H7v1h37l-1.44-1ZM46.53 27H49l-2.5 2.75L48.77 32h-2.07l-1.17-1.16L44.47 32H42l2.23-2.46-2.07-2.07h2.07l.98.98L46.53 27ZM14 27h4.5c.77 0 1.5.63 1.5 1.4 0 .76-.69 1.37-1.43 1.41.67.6 1.04 1.2 1.43 2.19h-1.95l-1.57-2.18H16V32h-2v-5Zm2 2h1.34c.36 0 .66-.23.66-.6 0-.36-.3-.65-.66-.65H16V29ZM29.22 27H27v5h2v-2.9l2.78 2.9H34v-5h-2v2.9L29.22 27ZM36 27h-1v5h6v-1h-4v-1h4v-1h-4v-1h4v-1h-5ZM13 30.28c-.4 1-1.56 1.72-2.92 1.72C8.38 32 7 30.88 7 29.5S8.38 27 10.08 27c1.33 0 2.47.7 2.9 1.67H11c-.22-.45-.48-.67-.92-.67-.7 0-1.08.63-1.08 1.5s.39 1.5 1.08 1.5c.46 0 .73-.24.95-.72H13ZM22.5 27h2l2.5 5h-2l-.38-1h-2.24L22 32H20l2.5-5Zm.25 3h1.5l-.75-2.03-.75 2.03Z"/></svg>