<!-- by TradingView --><svg width="56" height="56" viewBox="0 0 56 56" xmlns="http://www.w3.org/2000/svg"><path fill="#F0F3FA" d="M0 0h56v56H0z"/><path d="M7.16 20h5.5c.79.08 1.8.8 2.18 1.45 3.31 5.7 6.5 11.53 9.89 17.55h-5.9c-.8-.1-1.8-.95-2.22-1.67-3.22-5.57-6.32-11.2-9.45-16.81-.05-.09-.32-.45 0-.48V20ZM39.02 39h-5.59a3.88 3.88 0 0 1-2.47-1.57c-3.26-5.59-6.36-11.26-9.51-16.92-.05-.08-.32-.5 0-.51h5.5c.72.07 1.69.7 2.04 1.3 3.34 5.74 6.57 11.59 10.03 17.7ZM40.54 30.02c4.16 0 6.9-.73 8.17-4.09 1.17-3.07-1.24-5.93-5.4-5.93l-2.77 10.02Z" fill="#101010"/></svg>