<!-- by TradingView --><svg width="18" height="18" viewBox="0 0 18 18" xmlns="http://www.w3.org/2000/svg"><path fill="#F0F3FA" d="M0 0h18v18H0z"/><path d="M6.7 5c.31 0 .6.1.84.3l.25.26a311.7 311.7 0 0 0 .88.95A16170.59 16170.59 0 0 1 6.7 8.65 32631.49 32631.49 0 0 1 4.73 6.5a305.06 305.06 0 0 0 1.12-1.2C6.1 5.1 6.4 5 6.7 5Z" fill="#089"/><path d="M7.03 9a12147.89 12147.89 0 0 0 3.42-3.69 1.33 1.33 0 0 1 1.84.14 1568.63 1568.63 0 0 1 .98 1.07L9 11.13 7.03 9ZM6.53 9.17l2.14 2.31a560.08 560.08 0 0 0-1.13 1.21 1.3 1.3 0 0 1-1.69 0 3.44 3.44 0 0 1-.27-.27l-1.02-1.1a3080.54 3080.54 0 0 1-1.28-1.4A1.56 1.56 0 0 1 3 9a1.57 1.57 0 0 1 .47-1.13 528.51 528.51 0 0 0 .93-1l2.13 2.3Z" fill="#005DAC"/><path d="M13.58 10.5c.78 0 1.42-.67 1.42-1.5s-.64-1.5-1.42-1.5c-.79 0-1.42.67-1.42 1.5s.63 1.5 1.42 1.5Z" fill="#D95A11"/><path d="M11.3 9.35a10969.58 10969.58 0 0 1 1.97 2.14 312.04 312.04 0 0 0-1.12 1.2 1.3 1.3 0 0 1-1.7 0 296.42 296.42 0 0 0-1.13-1.2 16087.85 16087.85 0 0 1 1.98-2.14Z" fill="#089"/></svg>