<!-- by TradingView --><svg width="18" height="18" viewBox="0 0 18 18" xmlns="http://www.w3.org/2000/svg"><path fill="#F0F3FA" d="M0 0h18v18H0z"/><path d="M7.43 5.46A3.98 3.98 0 0 1 5.85 4c1.09.05 2.14.25 3.18.6a8 8 0 0 1 2.49 1.33c.87.7 1.14 1.68 1.2 2.73h-.02s-.02 0-.03-.02a7.68 7.68 0 0 0-2.54-1.91c-.68-.34-1.54-.7-2.07-.95a9 9 0 0 1-.63-.32ZM6.54 5.69c.4.28.84.52 1.3.72l.72.32c.7.3 1.4.64 2.04 1.02.73.42 1.32.96 1.79 1.63.53.77.69 1.7.57 2.6a4.73 4.73 0 0 1-.61 1.9l-.02-.16c0-.32-.08-.62-.2-.9a1.79 1.79 0 0 0-.38-.5c-.37-.36-.8-.65-1.28-.88-.41-.2-.84-.4-1.27-.58-.43-.18-.86-.35-1.28-.55a6.21 6.21 0 0 1-1.65-1.16 4.52 4.52 0 0 1-1.02-1.8 7.53 7.53 0 0 1-.14-3.23c.16.26.32.53.5.76.24.32.57.57.93.81ZM5.16 4.5v.02c-.1.91-.05 1.87.19 2.75.18.67.5 1.32 1 1.81a6.19 6.19 0 0 0 2.3 1.44c.6.25 1.2.5 1.78.78.57.28 1.09.61 1.5 1.07.3.31.42.66.49 1.06v.12h.01c.23-.51.37-1.06.44-1.6.1-.8-.04-1.7-.48-2.38a5.1 5.1 0 0 0-2.13-1.89 18.54 18.54 0 0 0-2.35-1.12c-.47-.2-.93-.45-1.36-.73a3.68 3.68 0 0 1-1.39-1.4v.07Z" fill="#5BA13C"/><path d="M12.42 13.43c.02-.05.01-.11.02-.19.01-.57 0-1.15-.18-1.7-.1-.28-.25-.5-.44-.72A7.18 7.18 0 0 0 9.47 9.2c-.6-.27-1.2-.55-1.74-.89a5.67 5.67 0 0 1-2.56-3.89 3.68 3.68 0 0 0 1.38 1.4c.43.29.89.53 1.36.74l.88.38a18.53 18.53 0 0 1 2.13 1.13c.58.39 1.09.91 1.47 1.5.44.69.57 1.58.48 2.37a5.43 5.43 0 0 1-.44 1.61h-.01v-.12Z" fill="#94C87D"/><path d="m5.16 4.5.01.03a5.67 5.67 0 0 0 2.56 3.78c.55.34 1.14.62 1.74.9.86.39 1.71.91 2.35 1.61.2.22.35.44.44.72.17.55.2 1.13.18 1.7 0 .08 0 .14-.02.2-.07-.41-.2-.76-.48-1.07-.42-.46-.94-.8-1.51-1.07a30.3 30.3 0 0 0-2.27-1 6.19 6.19 0 0 1-1.8-1.22c-.51-.5-.83-1.14-1.01-1.8a7.61 7.61 0 0 1-.19-2.78Z" fill="#68BB45"/><path d="M7.6 12.72a4.11 4.11 0 0 1-2.05-2.42 12.47 12.47 0 0 1-.32-1.37l.02.02a6.03 6.03 0 0 0 2.6 2.06l1.7.73c.22.1.47.21.73.35.35.17.68.38.94.65.32.33.45.81.43 1.25V14a22.2 22.2 0 0 1-3.2-.9 7.48 7.48 0 0 1-.84-.38Z" fill="#5BA13C"/></svg>