<!-- by TradingView --><svg width="56" height="56" viewBox="0 0 56 56" xmlns="http://www.w3.org/2000/svg"><path fill="#F0F3FA" d="M0 0h56v56H0z"/><path d="m52 21.98-.5 3.21A7.06 7.06 0 0 0 47.7 24c-2.83.08-4.28 3.02-4.2 5.5.04 1.44.89 2.45 2.47 2.5 1.6.06 3.21-.74 4.61-1.44l-.55 3.64c-1.38.55-2.82.8-4.13.8-3.05 0-5.83-1.68-5.9-5.4-.08-4.68 3.05-8.6 7.85-8.6.65 0 2.4.13 4.15.98ZM33.45 23.98 33.02 26h5.44L38 29h-5.44L32 32h6.2l-.47 3H28l2.37-14H40l-.46 3-6.1-.02ZM23.5 35l1.41-8.96-3.4 5.96H19l-1.56-5.96-1.4 8.96H13l2.42-14h3.74l1.6 7.28L25.21 21H29l-2.42 14H23.5ZM11.49 24 10 32h2.08l-.43 3H4l.43-3h2.08L8 23.98H5.9L6.34 21H14l-.43 3h-2.08Z" fill="#3475B5"/></svg>