<!-- by TradingView --><svg width="56" height="56" viewBox="0 0 56 56" xmlns="http://www.w3.org/2000/svg"><path fill="#F0F3FA" d="M0 0h56v56H0z"/><path d="M25.53 18h-5.49c-1.13 0-2.04.92-2.04 2.04V25h-1V14.5a2.5 2.5 0 0 0-5 0v13.53a2.5 2.5 0 0 0 2.39 2.5H18v5.43c0 1.13.91 2.04 2.04 2.04H25v1H14.5a2.5 2.5 0 0 0 0 5h13.47a2.5 2.5 0 0 0 2.5-2.39V38h5.49c1.13 0 2.04-.91 2.04-2.04V31h1v10.5a2.5 2.5 0 0 0 5 0V27.97a2.5 2.5 0 0 0-2.35-2.5H38v-5.43c0-1.12-.91-2.04-2.04-2.04H31v-1h10.5a2.5 2.5 0 0 0 0-5H28.03a2.5 2.5 0 0 0-2.5 2.5V18Z" fill="#E49B83"/><rect x="13" y="14.2" width="3" height="13.8" rx="1.5" fill="#9F7076"/><rect x="40" y="28" width="3" height="13.8" rx="1.5" fill="#9F7076"/><rect x="28" y="16" width="3" height="13.76" rx="1.5" transform="rotate(-90 28 16)" fill="#9F7076"/><rect x="14.24" y="43" width="3" height="13.76" rx="1.5" transform="rotate(-90 14.24 43)" fill="#9F7076"/><path fill-rule="evenodd" d="M27.98 35.56A7.55 7.55 0 0 0 35.52 28a7.55 7.55 0 1 0-7.54 7.56Zm0 .95A8.5 8.5 0 0 0 36.46 28a8.5 8.5 0 0 0-8.48-8.51A8.5 8.5 0 0 0 19.49 28a8.5 8.5 0 0 0 8.49 8.51Z" fill="#9F7076"/><ellipse cx="28" cy="28" rx="3.67" ry="3.68" fill="#9F7076"/><path d="M26 22h4v1.68h3v1.91h2v4.76h-2v2.15h-3V34h-4v-1.5h-3v-2.15h-2v-4.76h2v-1.91h3V22Zm1 1v1.6h-3v1.92h-2v2.9h2v2.16h3V33h2v-1.42h3v-2.16h2v-2.9h-2V24.6h-3V23h-2Z" fill="#9F7076"/></svg>