<!-- by TradingView --><svg width="18" height="18" viewBox="0 0 18 18" xmlns="http://www.w3.org/2000/svg"><path fill="#F0F3FA" d="M0 0h18v18H0z"/><path d="M9 4a5 5 0 0 1 4.9 4h-.07l-.46 1.33-.09.28-.04.3v-.17a1.06 1.06 0 0 0-.03-.16l-.02-.05c0-.03-.01-.05-.02-.05l-.02-.07a1.43 1.43 0 0 1-.03-.07L12.5 8l-.61 1.34c-.06.12-.1.2-.1.26a1.7 1.7 0 0 0-.03.3 3.92 3.92 0 0 0-.06-.34l-.02-.07-.02-.08-.03-.08L11.18 8h-.68l1.26 3 .56-1.18.04-.1.03-.09a3.14 3.14 0 0 0 .09-.28l.02-.13a7 7 0 0 0 .19.6l.56 1.18.75-1.8a5 5 0 1 1-9.93-1.05L5.5 11 7 8v3h.63V8H6.24l-.59 1.25a1.84 1.84 0 0 0-.15.63 1.6 1.6 0 0 0-.15-.63L4.77 8H4.1A5 5 0 0 1 9 4Zm.54 4C8.68 8 8 8.66 8 9.52 8 10.4 8.71 11 9.56 11c.55 0 1.07-.25 1.35-.73l-.52-.3a.93.93 0 0 1-.82.47c-.46 0-.79-.31-.84-.77H11V9.6c0-.88-.53-1.6-1.46-1.6Zm-.02.51c.41 0 .68.25.75.69H8.75c.07-.4.36-.69.77-.69ZM7.32 7a.3.3 0 0 0-.23.1.3.3 0 0 0-.09.21c0 .1.03.17.1.23.06.06.13.08.22.08a.3.3 0 0 0 .22-.08.3.3 0 0 0 .09-.23.3.3 0 0 0-.1-.22.3.3 0 0 0-.21-.09Z" fill="#0E4B25"/></svg>