<!-- by TradingView --><svg width="18" height="18" viewBox="0 0 18 18" xmlns="http://www.w3.org/2000/svg"><path fill="#F0F3FA" d="M0 0h18v18H0z"/><path d="M9.65 5c2.1.28 5.79 1.41 5.3 4.46-.24 1.58-1.8 2.63-3.18 3.08-2.3.74-4.5.59-6.59-.47-1.94-.99-3.01-3.22-1.38-5.09C4.83 5.8 6.34 5.14 8.34 5h1.31ZM9 5.68c-1.24 0-2.42.36-3.3.98-.87.62-1.35 1.46-1.35 2.34 0 .44.12.87.35 1.27.24.4.58.77 1.02 1.07.43.3.94.55 1.5.72.57.16 1.18.25 1.79.25 1.24 0 2.42-.36 3.3-.98.86-.62 1.35-1.47 1.35-2.34 0-.44-.12-.87-.35-1.27a3.5 3.5 0 0 0-1.02-1.07 5.1 5.1 0 0 0-1.5-.72 6.34 6.34 0 0 0-1.8-.25ZM10.2 6.8c.64-.23 1.3-.06 1.92-.1.03 0 .06.01.08.03l.05.06c.02.03.02.06.02.09s-.02.06-.03.08l-.55.7a.51.51 0 0 1-.21.16.48.48 0 0 1-.26.03 1.47 1.47 0 0 0-1.33.33.1.1 0 0 0-.03.04.1.1 0 0 0 0 .06c0 .02.02.04.03.05.02.01.04.02.05.01h1.03l.05.02a.1.1 0 0 1 .04.09.1.1 0 0 1-.02.05l-.58.74a.26.26 0 0 1-.21.1h-1.1a.55.55 0 0 0-.41.21l-1.3 1.72a.18.18 0 0 1-.15.07H6l-.02-.02v-.02l.01-.02 1.36-1.79a.1.1 0 0 0 .01-.1.09.09 0 0 0-.03-.03.08.08 0 0 0-.04-.02H6.12a.08.08 0 0 1-.03-.04v-.05c0-.01 0-.03.02-.04l.51-.65a.52.52 0 0 1 .18-.15.52.52 0 0 1 .22-.07h1.13c.12 0 .21-.03.29-.14a3.22 3.22 0 0 1 1.77-1.4Z" fill="#001D4C"/></svg>