<!-- by TradingView --><svg width="56" height="56" viewBox="0 0 56 56" xmlns="http://www.w3.org/2000/svg"><path fill="#4D63A0" d="M0 0h56v56H0z"/><circle cx="28" cy="30" r="12" fill="url(#a)"/><path d="M26.85 36c-9.23 0-10.98-4.06-10.76-6-.7.48-2.09 1.9-2.09 3.81C14 36.19 17.1 38 26.12 38c7.23 0 11.6-3.05 12.88-4.57-1.4.8-5.86 2.57-12.15 2.57Z" fill="#FEC513"/><circle cx="32" cy="12" r="3" fill="#FEC513"/><circle cx="35.5" cy="18.5" r="2.5" fill="#FEC513"/><circle cx="37.5" cy="23.5" r="1.5" fill="#FEC513"/><path d="M22 26.32c0 3.94 1.87 6.76 2.8 7.68-.15-.61-.45-2.39-.45-4.6 0-3.67 2.92-7.21 5.44-9.33 1.2-1.02 1.63-2.76.71-4-.78-1.07-2.32-1.45-3.38-.62C23.95 17.92 22 22.2 22 26.32Z" fill="#FEC513"/><path d="M27 29.2c0 1.77.56 3.27.84 3.8 0-4.78 2.8-7.86 5.1-9.4.9-.61 1.36-1.77.84-2.7-.45-.81-1.5-1.18-2.3-.66-3.5 2.32-4.48 7-4.48 8.96ZM34.47 24.18c-3.75 2.43-3.77 6.86-3.2 8.86a8.69 8.69 0 0 1 4.2-6.38c.66-.4 1.01-1.2.7-1.9-.29-.67-1.09-.98-1.7-.58Z" fill="#FEC513"/><defs><linearGradient id="a" x1="40" y1="30" x2="16" y2="30" gradientUnits="userSpaceOnUse"><stop stop-color="#1A1E63"/><stop offset="1" stop-color="#E7E7F0"/></linearGradient></defs></svg>