<!-- by TradingView --><svg width="56" height="56" viewBox="0 0 56 56" xmlns="http://www.w3.org/2000/svg"><path fill="#F0F3FA" d="M0 0h56v56H0z"/><path d="M25.35 13H28v13h-2V15.28c0-.13-.08-.18-.2-.17A14.5 14.5 0 0 0 13.22 27.9a.15.15 0 0 0 .08.09l.06.01H28v16.82c0 .13-.06.18-.18.18-.87-.03-1.74.04-2.6-.07a16.2 16.2 0 0 1-13.88-12.85c-.01-.05 0-.08.05-.08h2.16c.05 0 .09.04.1.09A14.55 14.55 0 0 0 26 42.67V30H11.03c-.18-3.19.44-6.1 1.86-8.66 2.68-4.83 6.84-7.6 12.46-8.34ZM40.7 30s-9.72.03-10.7 0v-1.92c0-.02.01-.04.03-.05a.07.07 0 0 1 .05-.03H42.8c.11 0 .17.06.18.17.18 5.6-1.9 10.1-6.28 13.49a16.08 16.08 0 0 1-6.63 3c-.05.01-.08 0-.08-.06v-2.12c0-.04.02-.07.07-.09 6.13-1.86 9.7-6.3 10.63-12.39Z" fill="#08174E"/><path d="M43 13H31v2h10v11h2V13Z" fill="#C3A311"/></svg>