<!-- by TradingView --><svg width="56" height="56" viewBox="0 0 56 56" xmlns="http://www.w3.org/2000/svg"><path fill="#F0F3FA" d="M0 0h56v56H0z"/><path d="m36.19 26-1.6-5.26h-.03l.02.43a17.52 17.52 0 0 1 .03 1.2V26H34v-6h.96l1.51 4.92h.03L38.04 20H39v6h-.65v-3.69a22.55 22.55 0 0 1 .05-1.56h-.03L36.74 26h-.55ZM33 23c0 .45-.04.86-.13 1.23a3.1 3.1 0 0 1-.38.95c-.17.26-.37.47-.62.6-.25.15-.54.22-.87.22a1.8 1.8 0 0 1-.89-.21 1.87 1.87 0 0 1-.62-.61 3.1 3.1 0 0 1-.37-.96 5.73 5.73 0 0 1 .1-2.8c.14-.45.37-.8.66-1.04.3-.25.68-.38 1.13-.38.43 0 .8.13 1.1.38.3.24.51.59.66 1.04.15.45.23.97.23 1.58Zm-3.4 0c0 .49.05.9.15 1.26.1.35.25.63.46.82.21.19.48.28.8.28.32 0 .58-.1.79-.28.2-.2.35-.46.45-.82.1-.35.14-.77.14-1.26 0-.74-.1-1.31-.33-1.73a1.1 1.1 0 0 0-1.05-.63c-.32 0-.59.1-.8.3-.2.18-.36.45-.46.8-.1.35-.14.77-.14 1.26ZM28 24.36c0 .35-.07.64-.21.89-.14.24-.33.42-.59.55-.25.13-.55.2-.9.2a3.87 3.87 0 0 1-.95-.12c-.13-.05-.25-.1-.35-.16v-.7c.16.09.36.17.6.24.24.07.48.1.73.1.23 0 .43-.04.58-.11a.76.76 0 0 0 .34-.33 1 1 0 0 0 .12-.5 1 1 0 0 0-.1-.48.99.99 0 0 0-.34-.36 3.93 3.93 0 0 0-.66-.36c-.2-.1-.37-.19-.52-.3a1.8 1.8 0 0 1-.38-.36c-.1-.14-.18-.3-.24-.47a2.13 2.13 0 0 1-.07-.6c0-.31.06-.58.19-.8.13-.22.3-.39.53-.51.23-.12.5-.18.8-.18a2.67 2.67 0 0 1 1.31.33l-.2.63a3.36 3.36 0 0 0-.54-.22 1.92 1.92 0 0 0-.58-.1c-.2 0-.36.04-.49.11a.7.7 0 0 0-.29.3.94.94 0 0 0-.1.45c0 .2.03.36.1.49s.17.24.33.35c.15.1.35.21.6.33.27.13.5.26.7.41.19.14.33.32.43.52.1.2.15.45.15.76ZM21.67 20c.81 0 1.4.15 1.77.46.37.31.56.74.56 1.3 0 .25-.04.49-.13.72-.08.22-.22.42-.4.6-.2.18-.45.33-.78.43-.31.1-.7.15-1.16.15h-.86V26H20v-6h1.67Zm-.07.65h-.93v2.37h.77c.38 0 .7-.04.95-.12.25-.08.44-.22.56-.4.13-.18.2-.41.2-.7 0-.39-.13-.68-.38-.87-.25-.19-.64-.28-1.17-.28ZM18 26h-3v-6h3v.66h-2.5v1.68H18V23h-2.5v2.34H18V26ZM48 33.36c0 .35-.07.64-.21.89-.14.24-.33.42-.59.55-.25.13-.55.2-.9.2a3.87 3.87 0 0 1-.95-.12c-.13-.05-.25-.1-.35-.16v-.7c.16.09.36.17.6.24.24.07.48.1.73.1.23 0 .43-.04.58-.11a.76.76 0 0 0 .34-.33 1 1 0 0 0 .12-.5 1 1 0 0 0-.1-.48.99.99 0 0 0-.34-.36 3.93 3.93 0 0 0-.66-.36c-.2-.1-.37-.19-.52-.3a1.8 1.8 0 0 1-.38-.36c-.1-.14-.18-.3-.24-.47a2.13 2.13 0 0 1-.07-.6c0-.31.06-.58.19-.8.13-.22.3-.39.53-.51.23-.12.5-.18.8-.18a2.67 2.67 0 0 1 1.31.33l-.2.63a3.36 3.36 0 0 0-.54-.22 1.92 1.92 0 0 0-.58-.1c-.2 0-.36.04-.49.11a.7.7 0 0 0-.29.3.94.94 0 0 0-.1.45c0 .2.03.36.1.49s.17.24.33.35c.15.1.35.21.6.33.27.13.5.26.7.41.19.14.33.32.43.52.1.2.15.45.15.76ZM43 35h-3v-6h3v.66h-2.5v1.68H43V32h-2.5v2.34H43V35ZM35.77 35h-.53v-5.34H34V29h3v.66h-1.23V35ZM38.55 35H38v-6h.55v6ZM31.15 29c.35 0 .64.06.86.2.23.12.4.3.5.56.11.25.17.56.17.95 0 .32-.04.58-.13.8a1.4 1.4 0 0 1-.7.8L33 35h-.64l-1-2.48h-.86V35H30v-6h1.15Zm-.03.66h-.62v2.22h.65c.22 0 .4-.04.54-.12a.77.77 0 0 0 .32-.39c.06-.17.1-.38.1-.63 0-.26-.04-.47-.1-.63a.68.68 0 0 0-.34-.35c-.14-.07-.33-.1-.55-.1ZM28 35h-3v-6h3v.66h-2.5v1.68H28V32h-2.5v2.34H28V35ZM21.25 29c.61 0 1.06.15 1.33.46.28.31.42.74.42 1.3 0 .25-.03.49-.1.72a1.5 1.5 0 0 1-.88 1.03c-.24.1-.53.15-.87.15h-.65V35H20v-6h1.25Zm-.05.65h-.7v2.37h.46c.29 0 .64-.04.83-.12a.85.85 0 0 0 .43-.4c.1-.18.14-.41.14-.7 0-.39-.1-.68-.28-.87-.19-.19-.48-.28-.88-.28ZM18 32c0 .45-.04.86-.13 1.23a3.1 3.1 0 0 1-.38.95c-.17.26-.37.47-.62.6-.25.15-.54.22-.87.22a1.8 1.8 0 0 1-.89-.21 1.87 1.87 0 0 1-.62-.61 3.1 3.1 0 0 1-.37-.96 5.73 5.73 0 0 1 .1-2.8c.14-.45.37-.8.66-1.04.3-.25.68-.38 1.13-.38.43 0 .8.13 1.1.38.3.24.51.59.66 1.04.15.45.23.97.23 1.58Zm-3.4 0c0 .49.05.9.15 1.26.1.36.25.63.46.82.21.19.48.28.8.28.32 0 .58-.1.79-.28.2-.2.35-.46.45-.82.1-.35.14-.77.14-1.26 0-.74-.1-1.31-.33-1.73a1.1 1.1 0 0 0-1.05-.63c-.32 0-.59.1-.8.3-.2.18-.36.45-.46.8-.1.35-.14.77-.14 1.26ZM11.15 29c.35 0 .64.06.86.2.23.12.4.3.5.56.11.25.17.56.17.95 0 .32-.04.58-.13.8a1.4 1.4 0 0 1-.7.8L13 35h-.64l-1-2.48h-.86V35H10v-6h1.15Zm-.03.66h-.62v2.22h.65c.22 0 .4-.04.54-.12a.77.77 0 0 0 .32-.39c.06-.17.1-.38.1-.63 0-.26-.04-.47-.1-.63a.68.68 0 0 0-.34-.35c-.14-.07-.32-.1-.55-.1ZM7.25 29c.61 0 1.06.15 1.33.46.28.31.42.74.42 1.3 0 .25-.03.49-.1.72a1.5 1.5 0 0 1-.88 1.03c-.24.1-.53.15-.87.15H6.5V35H6v-6h1.25Zm-.05.65h-.7v2.37h.58c.28 0 .52-.04.71-.12a.85.85 0 0 0 .43-.4c.1-.18.14-.41.14-.7 0-.39-.1-.68-.28-.87-.19-.19-.48-.28-.88-.28Z" fill="#848D97"/></svg>