<!-- by TradingView --><svg width="56" height="56" viewBox="0 0 56 56" xmlns="http://www.w3.org/2000/svg"><path fill="#F0F3FA" d="M0 0h56v56H0z"/><path fill-rule="evenodd" d="m29 37.98-1.28.02c-11.2 0-20.28-4.4-20.28-9.84 0-5.43 9.08-9.84 20.28-9.84 11.2 0 20.28 4.4 20.28 9.84 0 4.9-7.36 8.95-17 9.71V35.6a8.07 8.07 0 0 0 4.95-7.38A7.96 7.96 0 0 0 33 22.05c.26.53.41 1.19.41 2 0 4.86-6.85 6.36-8.95 6.62A7.4 7.4 0 0 0 29 36.11v1.87Zm-7.43-2.05a9.56 9.56 0 0 1-3.96-7.72c0-3.23 1.64-6.1 4.15-7.85-7.3 1.1-12.55 4.18-12.55 7.8 0 3.59 5.16 6.64 12.36 7.77Zm24.66-7.77c0 3.64-5.3 6.72-12.64 7.81a9.57 9.57 0 0 0 4.02-7.76 9.58 9.58 0 0 0-4.21-7.89c7.45 1.07 12.83 4.17 12.83 7.84Zm-26.96.05a8.14 8.14 0 0 0 6.5 7.88c-3.02-2.35-2.96-5.13-2.92-6.8v-.49c5.15 0 8.63-1.92 8.63-5.02 0-2.08-1.6-3.15-2.8-3.57a8.21 8.21 0 0 0-9.42 8Z" fill="#78808A"/><path fill-rule="evenodd" d="m28.66 37.66-1.38.02C16.08 37.68 7 33.28 7 27.84 7 22.41 16.08 18 27.28 18c11.2 0 20.28 4.4 20.28 9.84 0 4.88-7.31 8.92-16.91 9.7v-2.3a8.07 8.07 0 0 0 4.86-7.35 7.95 7.95 0 0 0-2.95-6.16c.26.53.41 1.19.41 2 0 4.86-6.85 6.36-8.95 6.62a7.4 7.4 0 0 0 4.64 5.48v1.83Zm-7.53-2.05a9.56 9.56 0 0 1-3.96-7.72c0-3.23 1.63-6.1 4.15-7.85-7.3 1.1-12.55 4.18-12.55 7.8 0 3.59 5.16 6.64 12.36 7.77Zm24.66-7.77c0 3.64-5.3 6.72-12.64 7.81a9.57 9.57 0 0 0 4.02-7.76 9.58 9.58 0 0 0-4.21-7.9c7.44 1.08 12.83 4.18 12.83 7.85Zm-26.97.05a8.14 8.14 0 0 0 6.5 7.88c-3.02-2.35-2.95-5.13-2.91-6.8v-.49c5.15 0 8.63-1.92 8.63-5.03 0-2.07-1.6-3.15-2.8-3.57a8.21 8.21 0 0 0-9.42 8Z" fill="#CED4DF"/></svg>