<!-- by TradingView --><svg width="18" height="18" viewBox="0 0 18 18" xmlns="http://www.w3.org/2000/svg"><path fill="#092C4A" d="M0 0h18v18H0z"/><path d="m4.9 11.71-.02.02a.03.03 0 0 1-.03 0l-.01-.01A4.84 4.84 0 0 1 4 9.02 5.11 5.11 0 0 1 9.32 4a5.26 5.26 0 0 1 3.95 1.89l-.01.01h-.02l-.38.07a.15.15 0 0 1-.13-.04 4.87 4.87 0 0 0-2.52-1.36.05.05 0 0 0-.02.03l-.1.33c0 .01 0 .02-.02.03h-.03c-3.37-.53-5.97 2.43-4.83 5.5a.2.2 0 0 1 0 .13L4.9 11.7Z" fill="#fff"/><path d="m11.54 11.36-.58-.56a.06.06 0 0 1-.02-.04c0-.02 0-.03.02-.04.48-.48.73-1.03.74-1.67.04-2.1-2.55-3.21-4.18-1.8a.07.07 0 0 1-.08 0L7.18 7a.06.06 0 0 1-.02-.05.06.06 0 0 1 .02-.04 3.17 3.17 0 0 1 1.07-.61.06.06 0 0 0 .02-.04v-.03l-.14-.28a.05.05 0 0 1 .02-.07h.02c2.17-.64 4.36.81 4.46 2.98a3.2 3.2 0 0 1-1.05 2.51.06.06 0 0 1-.04-.01Z" fill="#D1D4D6"/><path d="M9.2 10.35c.79 0 1.43-.62 1.43-1.38A1.4 1.4 0 0 0 9.2 7.6c-.8 0-1.44.62-1.44 1.37 0 .76.64 1.38 1.44 1.38Z" fill="#fff"/><path d="m13.81 7.92.02-.01h.02l.01.01a4.48 4.48 0 0 1-1.35 4.39l.02.04.22.21a.07.07 0 0 1 .02.08l-.02.02a5.38 5.38 0 0 1-6.71.3.1.1 0 0 1 0-.08.1.1 0 0 1 .03-.04l.61-.4a.2.2 0 0 1 .23 0 4.4 4.4 0 0 0 5.55-.78 4.06 4.06 0 0 0 1.01-3.1c0-.04.01-.09.03-.13l.31-.51Z" fill="#4BC7F5"/><path d="M10.52 12.02c-1.86.7-3.76-.1-4.51-1.86a2.87 2.87 0 0 1-.22-1.12.06.06 0 0 1 .03-.03h.37l.03.01.02.03a2.83 2.83 0 0 0 1.12 2.16h.02v-.02l.2-.3a.04.04 0 0 1 .02-.03.04.04 0 0 1 .04 0 2.6 2.6 0 0 0 2.53.35h.04l.02.02.33.7v.03a.06.06 0 0 1-.01.05l-.03.01Z" fill="#D1D4D6"/></svg>