<!-- by TradingView --><svg width="18" height="18" viewBox="0 0 18 18" xmlns="http://www.w3.org/2000/svg"><path fill="#F0F3FA" d="M0 0h18v18H0z"/><path d="M12.64 6.5c0 .14-.07.23-.2.26s-.23-.02-.28-.15c-.6-1.41-1.7-2-3.35-1.74-.9.14-1.64.52-2.19 1.15-.5.57-.79 1.27-.86 2.1a4.22 4.22 0 0 0 2.15 4.1c1.2.66 2.4.7 3.59.1.4-.2.77-.71 1.08-1.53l.08-.19c.09-.23.24-.32.47-.28l.12.03c.25.07.31.22.18.46l-1.37 2.56c-.17.3-.4.47-.73.51-2.23.3-3.89.02-4.97-.84a4.79 4.79 0 0 1-1.65-2.49 5.41 5.41 0 0 1-.03-2.87c.24-.98.7-1.8 1.37-2.45.73-.7 1.6-1.1 2.6-1.2.9-.1 2.14.05 3.7.42.19.05.29.18.29.39V6.5Z" fill="#A12A5B"/></svg>