<!-- by TradingView --><svg width="18" height="18" viewBox="0 0 18 18" xmlns="http://www.w3.org/2000/svg"><path fill="#C51E28" d="M0 0h18v18H0z"/><path d="M3.1 8.46a.28.28 0 0 0-.31.1c-.12.13-.44.13-.59.12-.1 0-.15-.07-.15-.18 0-.37.22-.47.52-.49.42-.01.88-.04 1.27.08.03 0 .04.02.05.05.05.11.1.38.11.62 0 .14-.02.26-.07.33l-.16.24a.13.13 0 0 0 .04.18c.09.05.18.09.19.22v.55c0 .23-.03.62-.1.72H2.33c-.37-.06-.36-.72-.3-.98a.1.1 0 0 1 .08-.08c.2-.03.4-.03.57.01.03 0 .05.03.05.06 0 .15-.02.54.17.58.37.08.28-.7.24-.86-.04-.18-.34-.17-.49-.16-.08 0-.12-.04-.12-.12v-.16c-.01-.07.02-.1.09-.11l.37-.06c.23-.05.2-.44.16-.61a.06.06 0 0 0-.04-.05Z" fill="#fff"/><path fill-rule="evenodd" d="M4.64 9.53a1.3 1.3 0 0 0-.41-.01c-.06.01-.08-.03-.08-.07l.02-.1c.01-.06.05-.06.1-.07h.34c.08 0 .08-.31.08-.39 0-.17.01-.38-.12-.48-.09-.06-.26-.23-.26-.33 0-.04.03-.08.07-.08h3.19c-.1-.2-.08-.66.09-.81.1-.1.22-.15.36-.16.37-.04.72-.04 1.06-.01.65.06 1 .94 1.36.98H16v.57h-.54v1.49c0 .09.06.2.13.26.1.1.17.48.18.68H14.6v-.57h-1.56V9.28h-.38c-.04.34-.05.67-.02.98.01.1.05.17.1.24.06.13.03.21.03.5h-1.08V9.28c0-.38.45-.55.81-.55h.73c.08 0 .08-.08.08-.16h-2.08c-.05 0-.08.03-.08.08v.9c0 .03 0 .04-.04.04h-.56c-.06-.01-.1-.05-.14-.09-.1-.1-.1-.15-.28-.08-.04 0-.05.03-.05.07v.75c0 .13.06.19.18.19h.06c.1 0 .16-.06.17-.16v-.41h.66V11h-.64v-.08l-.01-.14c0-.04-.04-.07-.08-.07-.28.05-.8.13-1.01-.1-.3-.29-.21-.7-.2-1.09 0-.39 0-.59.46-.62l.6-.01c.08 0 .12-.04.14-.13v-.04c.02-.1-.02-.15-.12-.15H8.72v1.87c0 .09.18.05.2.13L9 11H7.93V8.57h-.88v1.6c0 .1.07.35.14.39.02 0 .03.02.04.04.04.1.07.22.09.33 0 .03-.02.06-.05.07h-.96V8.57h-.82l.01 1.9c0 .03.13.06.16.06l.08.02c.01 0 .03.02.03.04v.4H4.69V9.6c0-.03-.02-.06-.05-.06Zm3.82-1.7v-.3c0-.08.07-.14.14-.15h.3c.02 0 .05 0 .08.03l.39.25c.1.31.17.34-.09.34H8.6c-.07 0-.14-.1-.14-.17Zm5.63.8c.1.14.08.52.03.7-.01.04-.04.06-.08.07-.11.05-.23-.13-.25.02-.02.17-.02.4.2.44h.46c.06-.02.1-.08.1-.14a4.81 4.81 0 0 0 0-1.11c0-.03-.02-.04-.05-.04h-.38c-.03 0-.05.04-.03.06Z" fill="#fff"/></svg>