<!-- by TradingView --><svg xmlns="http://www.w3.org/2000/svg" width="18" height="18"><path fill="#F0F3FA" d="M0 0h18v18H0z"/><path d="M14 9a5 5 0 01-.23 1.5s-1.34.33-4.7.32c-3.35 0-4.84-.33-4.84-.33a5 5 0 01.01-3.03s1.72-.35 4.84-.35c3.11 0 4.68.35 4.68.35A5 5 0 0114 9z" fill="url(#awop4kyhf)"/><path d="M13.6 10.95a5 5 0 01-9.2 0c1.44.3 4.35 1.1 9.2 0z" fill="url(#bwop4kyhf)"/><path d="M13.57 6.96c-5-1.42-9.14 0-9.14 0a5 5 0 019.14 0z" fill="url(#cwop4kyhf)"/><path d="M11.17 6.44c-2.17-.35-5.2 0-6.73.5l-.1.27c2.66-.42 5.4-.38 6.43-.31l.4-.46z" fill="url(#dwop4kyhf)"/><path d="M6.89 11.43a18 18 0 006.72-.49l.08-.2a30.6 30.6 0 01-6.4.27l-.4.42z" fill="url(#ewop4kyhf)"/><defs><linearGradient id="awop4kyhf" x1="14" y1="9.59" x2="4.16" y2="7.93" gradientUnits="userSpaceOnUse"><stop stop-color="#BC6E29"/><stop offset=".57" stop-color="#F9A225"/><stop offset="1" stop-color="#F68D26"/></linearGradient><linearGradient id="bwop4kyhf" x1="4.6" y1="11.16" x2="12.65" y2="12.34" gradientUnits="userSpaceOnUse"><stop stop-color="#2B57A3"/><stop offset=".37" stop-color="#2871B7"/><stop offset="1" stop-color="#2B57A3"/></linearGradient><linearGradient id="cwop4kyhf" x1="13.57" y1="5.71" x2="4.43" y2="5.69" gradientUnits="userSpaceOnUse"><stop stop-color="#6679BB"/><stop offset=".43" stop-color="#698BC8"/><stop offset=".53" stop-color="#6A9DD4"/><stop offset="1" stop-color="#5093CF"/></linearGradient><linearGradient id="dwop4kyhf" x1="11.17" y1="6.52" x2="4.34" y2="7" gradientUnits="userSpaceOnUse"><stop stop-color="#14678A"/><stop offset="1" stop-color="#265070"/></linearGradient><linearGradient id="ewop4kyhf" x1="6.89" y1="11.42" x2="13.69" y2="10.83" gradientUnits="userSpaceOnUse"><stop stop-color="#14678A"/><stop offset="1" stop-color="#265070"/></linearGradient></defs></svg>