<!-- by TradingView --><svg width="56" height="56" viewBox="0 0 56 56" xmlns="http://www.w3.org/2000/svg"><path fill="#F0F3FA" d="M0 0h56v56H0z"/><path d="M32 12c7.22 0 8.53 5.9 8.29 9h-5.75c0-4.97-3.17-5-4.08-5h-4.42c-4.2 0-5.04 2.3-5.04 5 0 4 4.23 4 8.89 4C40.8 25 41 30.41 41 35.12c0 9.2-7.77 8.88-9.75 8.88h-5.56c-10.07 0-10.35-5-10.52-6.5-.15-1.21-.17-2.8-.17-3.5h6v2.66c0 2.21 2.35 2.34 4.07 2.34h6.18c3.49 0 3.75-2.46 3.75-3.4v-2.13C35 30.1 31.02 30 26.1 30 15.23 30 15 23.52 15 22.34v-3.18C15 12.5 22.55 12 24.95 12H32Z" fill="#858789"/><circle cx="37.5" cy="22.5" r="2.5" fill="#F95E3E"/><path d="M20.5 32.5a2.5 2.5 0 1 1-5 0 2.5 2.5 0 0 1 5 0Z" fill="#45B655"/></svg>