<!-- by TradingView --><svg width="18" height="18" viewBox="0 0 18 18" xmlns="http://www.w3.org/2000/svg"><path fill="#F0F3FA" d="M0 0h18v18H0z"/><path d="M11.36 6a1.09 1.09 0 0 1 .61-2c.55 0 1 .4 1.09.9l.75 2.38c.05.22.06.72-.21 1.03.07.14.14.48.14.74v1.62h.67l.59 1.77V13h-2.73L11 11.77v.9c0 .11-.19.33-.43.33H5.28l-1.86-.7a.69.69 0 0 1-.42-.63V6.65c0-.17.1-.64.62-.65h1.41c.09.02.46.24.66.85v-.38c.01-.12.11-.47.38-.47H7.5c.1.01.32.2.4.4l.29.58V6.4c0-.1.1-.4.35-.4h1.68c.13 0 .31.23.41.64L11 8.2V6.42c-.01-.14-.03-.42.18-.42h.18Z" fill="#2C2B29"/><path d="M3.48 7.01v4.65c0 .19.14.34.32.34h6.3c.17 0 .32-.15.32-.34V7c0-.19-.15-.34-.32-.34H8.84c-.17 0-.31.15-.31.34v4.05c0 .15-.18.23-.31.23-.14 0-.22-.08-.22-.23V7.01c0-.19-.25-.34-.42-.34H6.33c-.18 0-.33.15-.33.34v4.03c0 .16-.17.25-.32.25s-.2-.1-.2-.25V7c0-.19-.15-.34-.32-.34H3.8c-.18 0-.32.15-.32.34ZM12.83 6.67H11.5c-.12 0-.21.1-.21.23v4.93c0 .1.07.17.15.17h2.52c.03 0 .03-.03.03-.06v-.55c0-.03 0-.1-.03-.1h-.62c-.17 0-.35-.11-.35-.3v-4.1c0-.12-.06-.22-.17-.22Z" fill="#A9A9A9"/><ellipse cx="11.97" cy="5.12" rx=".86" ry=".88" fill="#A9A9A9"/></svg>