<!-- by TradingView --><svg width="56" height="56" viewBox="0 0 56 56" xmlns="http://www.w3.org/2000/svg"><path fill="#F0F3FA" d="M0 0h56v56H0z"/><path fill-rule="evenodd" d="M42 14H14v28h28V14Zm-29-1v30h30V13H13Z" fill="#0B5FE5"/><path d="m26 34-12-7v15h28V27l-12 7v4h-4v-4Z" fill="#0C60DE"/><path fill-rule="evenodd" d="M28 32c2.76 0 5-2.74 5-5.5C33 23 28 14 28 14s-5 9-5 12.5c0 2.76 2.24 5.5 5 5.5Zm-.5-10c-.83 1-2.5 3.4-2.5 5 0 2 1 3 2 3 .5 0 1-.5 1-1 0-.3-.2-.62-.45-1.05-.17-.26-.36-.57-.55-.95-.45-.9-1-2 .5-5Z" fill="#0C60DE"/></svg>