<!-- by TradingView --><svg width="18" height="18" viewBox="0 0 18 18" xmlns="http://www.w3.org/2000/svg"><path fill="#F0F3FA" d="M0 0h18v18H0z"/><path d="M14 4v10H4V4h10Z" fill="#EE0D08"/><path d="M13 13.3a.04.04 0 0 1-.03.03H5.01L5 13.28V4.71l.01-.03.03-.01h7.92a.04.04 0 0 1 .04.02v8.6Z" fill="#fff"/><path d="M12.67 12.95c0 .01 0 .03-.02.03l-.03.02H5.38c-.01 0-.02 0-.03-.02a.05.05 0 0 1-.02-.03v-7.9c0-.01 0-.03.02-.03L5.38 5h7.24c.01 0 .02 0 .03.02l.02.03v7.9Z" fill="#EE0D08"/><path d="M8 11.49v-1.1l-.01-.05H6.05l-.04-.03a.05.05 0 0 1-.01-.03v-.69l.01-.04.04-.01h.24s.02 0 .03-.02l.01-.03V6.5l-.01-.03a.05.05 0 0 0-.03-.02h-.24l-.04-.01A.05.05 0 0 1 6 6.4v-.7l.01-.03.04-.01h4.23l.04.01.01.04v1l-.01.04-.04.01h-.67l-.03-.01a.05.05 0 0 1-.01-.04v-.21l-.02-.04a.05.05 0 0 0-.03-.01h-2.4l-.03.01-.01.04v2.98l.01.03.04.02h.82c.01 0 .03 0 .04-.02L8 9.5V8.34l-.01-.04a.05.05 0 0 0-.04-.02h-.23l-.04-.01a.05.05 0 0 1-.01-.04v-.68l.01-.04.04-.02h1.34l.03.02.02.04v.69s0 .02-.02.03l-.03.02h-.23l-.04.01-.01.04v1.15l.01.03.04.02h.69c.01 0 .02 0 .03-.02l.02-.03v-.2l.01-.03.04-.02h.66c.02 0 .03 0 .04.02l.01.03v.99l-.01.03-.04.02H8.83l-.04.01-.01.04v1.9c0 .02 0 .03-.02.04l-.03.01H7.7l-.03-.01a.05.05 0 0 1-.01-.04v-.69a.05.05 0 0 1 .01-.04.05.05 0 0 1 .03-.01h.24c.01 0 .03 0 .04-.02L8 11.5Z" fill="#fff"/><path d="M9 12.29v-.75l.01-.03.03-.02h2.17a.04.04 0 0 0 .03-.03V11.04l.01-.03.04-.01h.68l.02.01v.02l.01.02v1.24a.05.05 0 0 1-.01.03l-.02.01H9.04l-.03-.01-.01-.03Z" fill="#fff"/></svg>