<!-- by TradingView --><svg width="56" height="56" viewBox="0 0 56 56" xmlns="http://www.w3.org/2000/svg"><path fill="#F0F3FA" d="M0 0h56v56H0z"/><path d="M18.82 36H10.2c-.15 0-.24-.15-.18-.27l9.22-19.6a2.05 2.05 0 0 1 3.61-.09l4.97 9.18a.2.2 0 0 0 .36 0l4.97-9.18a2.05 2.05 0 0 1 3.61.08l9.22 19.6c.06.13-.03.28-.18.28h-8.13a.2.2 0 0 1-.17-.1l-2.77-4.75a.2.2 0 0 0-.35.01l-4.58 8.77a2.05 2.05 0 0 1-3.6 0l-4.56-8.73a.2.2 0 0 0-.36 0L19 35.9a.2.2 0 0 1-.18.1Z" fill="#009C4D"/><path d="m32.5 38-.5 1h15v-1H32.5ZM23.5 38l.5 1H9v-1h14.5Z"/></svg>