<!-- by TradingView --><svg width="56" height="56" viewBox="0 0 56 56" xmlns="http://www.w3.org/2000/svg"><path fill="#063466" d="M0 0h56v56H0z"/><path d="M18.9 23.23c.06.1.1.18.1.23 0 .08-.1.09-.29.02-.46-.18-.77-.15-.87.09a.27.27 0 0 1-.2.17c-.35.07-.66-.01-.93-.22-3.26-2.55-5.33 2.37-3.21 3.18 1.45.55 2.74.38 3.9-.5a13.1 13.1 0 0 1 6.05-2.62c1.63-.26 3.3.03 4.95.11 1.19.06 1.93-.5 2.58-1.48.28-.44.67-.62 1.08-.9.1-.06.18-.15.23-.25.06-.1.08-.23.08-.35-.03-.9.67-1.04.93-1.7.47-1.17 1.22-1.42 2.07-2.23.18-.18.39-.3.63-.4a4.85 4.85 0 0 1 3.41-.12c.3.12.61.2.91.25.13.02.24.11.27.24.07.22.06.45-.03.68-.05.14 0 .19.13.17.13-.03.47-.45.58-.33.03.03.04.07.04.12.03.33-.12.6-.43.79a.24.24 0 0 0 0 .4c.25.13.74.28.86.57.15.38.3.74.7.92.87.43 2.21 1.17 1.2 2.4a1.87 1.87 0 0 0-.42.86.07.07 0 0 1-.1 0c-.24-.25-.54-.32-.89-.33-.31 0-.54.3-.38.59.16.3.4.4.7.28.17-.06.26 0 .28.18.1.9-.26 1.33-1.08 1.3-.1 0-.14-.04-.15-.13-.06-.69-.43-1.08-1.09-1.17-.16-.03-.18.01-.04.11.12.1.25.18.4.23.32.14.47.53.32.85l-.76 1.7a.45.45 0 0 0-.03.27c.1.53.48.96.11 1.44-.16.2-.4.4-.7.58a.32.32 0 0 0-.14.15 5.85 5.85 0 0 1-1.9 2 2.8 2.8 0 0 0-1.35 1.89c-.24.97-.34 2.02-.3 3.14.02.46-.1.9-.14 1.35a.3.3 0 0 0 .33.32c.76-.1 1.31.23 1.65 1.02.2.48-.32.89-.71.9a8.93 8.93 0 0 1-2.14-.24.3.3 0 0 1-.24-.22 20.9 20.9 0 0 1-.9-4.48 7.39 7.39 0 0 0-.98-2.7c-.03-.05-.19 0-.16.06.22.52.42 1.03.6 1.53.3.87-.89 1.6-1.51 2-.7.45-2.68.33-2.7-.92 0-.99 1.27-.71 1.83-.7.3 0 .47-.36.28-.6l-.94-1.2a.3.3 0 0 0-.17-.11l-3.53-.8c-.12-.02-.18.02-.19.14-.03.82-.5 1.57-.85 2.3-.12.26-.28.47-.49.62-.57.43-1.15.89-1.73 1.4-.63.53-.7 1.6-.09 2.2.09.08.2.12.3.13l.72.06c.42.02.64.26.64.7v.12c0 .44-.2.67-.63.7l-.2.01c-.59 0-1.17-.09-1.74-.26a.26.26 0 0 1-.17-.16 7.03 7.03 0 0 0-1.14-2.12c-.22-.27-.81-1.08-.47-1.46a9.5 9.5 0 0 0 1.39-1.93c.44-.82-.4-1.42-.8-1.99-.03-.05-.08-.08-.12-.08a.2.2 0 0 0-.12.05c-.32.25-.68.51-1.06.68-.84.36-1.2 1.2-1.98 1.62-.77.41-1.73.78-2.1 1.66-.33.73-.87 1.44-1.15 2.2-.03.1 0 .15.1.18.57.15.85.56.84 1.23 0 .1-.05.18-.14.23-.18.11-.39.15-.61.15a3.3 3.3 0 0 1-1.78-.7c-.08-.07-.12-.14-.12-.22 0-.06.02-.12.06-.18.3-.47.46-1.23.38-1.8-.1-.81.18-1.43.8-1.9a3.58 3.58 0 0 0 1.24-1.51c.58-1.49 1.13-3.1 1.67-4.87.08-.26.2-.51.35-.77.05-.08-.02-.19-.11-.17-.57.09-1.1.15-1.6.19-1.55.1-3.84-.74-3.79-2.77.07-2.57 2.47-3.25 4.46-3.63.8-.15 1.48.19 2.03 1.02.08.12.09.06.4.54Z" fill="#FFBD2E"/></svg>