<!-- by TradingView --><svg width="56" height="56" viewBox="0 0 56 56" xmlns="http://www.w3.org/2000/svg"><path fill="#F0F3FA" d="M0 0h56v56H0z"/><path fill-rule="evenodd" d="M12.42 37.62 19.79 15H41.9c1.22 0 2.08 1.55 1.7 2.73L36.1 41H14.58c-1.55 0-2.65-1.88-2.15-3.38Zm-1.23-.43L18.86 14H41.9c2.1 0 3.6 2.1 2.93 4.15L37.05 42H14.57a3.63 3.63 0 0 1-3.38-4.8Zm11.98-18.7L17.13 35.9c-.53 1.53.64 3.1 2.3 3.1 1.06 0 2-.66 2.32-1.63l1.58-4.75 9.44-1.64 2.8-2.35-11.13 1.87-1.38 1.25-.3-2.26 1.42-1.25.43 1.94 11.22-1.94c.39-.1 1.17-.57 1.17-1.74s-1.03-2.17-1.54-2.52l-8.76-6.53a2.3 2.3 0 0 0-3.53 1.04Zm3.89 2.5-2.42 6.75L33 26.5v-1.08l-5.94-4.42Zm-.38 1.84.49-1.13 5.35 3.96v.4l-1.76.27-4.08-3.5ZM21.5 36.5a2 2 0 1 1-4 0 2 2 0 0 1 4 0Z" fill="#121212"/></svg>