<!-- by TradingView --><svg width="18" height="18" viewBox="0 0 18 18" xmlns="http://www.w3.org/2000/svg"><path fill="#F0F3FA" d="M0 0h18v18H0z"/><path d="M11.26 4h.06c.07.04.13.08.16.12.02.03.03.05.03.08.01.22 0 .4-.04.54-.1.3-.18.54-.26.73-.25.59-.53 1.28-.84 2.08a7.72 7.72 0 0 0-.44 1.65c-.01.16 0 .31.07.45.03.09.1.15.23.19a.1.1 0 0 0 .07 0c.32-.12.63-.35.94-.7.23-.24.48-.57.76-1 .13-.19.27-.37.43-.53.21-.23.38-.34.49-.31.04 0 .07.03.09.07.01.04.02.08 0 .12-.28.76-.62 1.46-1.01 2.1-.29.47-.59.86-.9 1.19-.4.39-.78.65-1.16.77-.17.06-.32.09-.43.09l-.49-.01-.3-.11a.64.64 0 0 1-.26-.2.94.94 0 0 1-.22-.4c-.02-.1-.03-.26-.03-.5v-.03c0-.14.02-.29.05-.45.1-.43.23-.86.4-1.28a21.45 21.45 0 0 1 1.39-2.81l.06-.22v-.08a.11.11 0 0 0-.05-.1.09.09 0 0 0-.1.01c-.5.32-.9.7-1.24 1.16a8.13 8.13 0 0 0-1.36 2.9l-.23 1a3.1 3.1 0 0 1-.18.7c-.32.65-.75.93-1.27.82-.16-.03-.3-.13-.42-.31a.98.98 0 0 1-.13-.56c0-.26.07-.52.2-.8.45-1 .94-1.94 1.48-2.8C7.83 5.92 9.44 4.3 11.26 4Z" fill="#DD211F"/><path d="M7.43 5.55c.04 0 .06.03.07.07 0 .04 0 .08-.04.1-1.14.72-2.32 1.37-3.16 2.55-.2.26-.32.53-.4.8-.07.27-.09.51-.06.74.03.22.11.45.25.7.15.26.34.5.57.7.07.06.1.13.07.2a.14.14 0 0 1-.07.09.58.58 0 0 1-.48.06 4.83 4.83 0 0 1-.62-.4c-.2-.14-.4-.35-.62-.64a2 2 0 0 1-.29-2.02c.43-1.17 1.51-2 2.52-2.5a4.38 4.38 0 0 1 2.26-.45ZM6.43 12.33h.19c.7.21 1.48.25 2.22.17 1.02-.11 2-.45 2.9-1.02.13-.09.35-.25.64-.5.4-.34.73-.75.98-1.25a2.3 2.3 0 0 0 .1-1.86c-.16-.37-.38-.7-.67-.97-.45-.43-1-.6-1.45-.96a.14.14 0 0 1-.06-.13c.01-.06.04-.1.09-.12a.93.93 0 0 1 .4-.08c.27.01.55.1.84.28.56.33 1.08.67 1.55 1.19.21.23.39.48.53.75a2.72 2.72 0 0 1 .21 2.03c-.1.36-.26.68-.48.99a4.67 4.67 0 0 1-1.74 1.45 6.79 6.79 0 0 1-3.19.7 9.58 9.58 0 0 1-3.01-.46.1.1 0 0 1-.06-.06.31.31 0 0 1-.03-.09c-.01-.04 0-.06.04-.06Z" fill="#222F63"/></svg>