<!-- by TradingView --><svg width="18" height="18" viewBox="0 0 18 18" xmlns="http://www.w3.org/2000/svg"><path fill="#F0F3FA" d="M0 0h18v18H0z"/><path d="M11.48 3.22c-.08-.12-.23-.16-.33-.08-.1.07-.13.24-.05.36s.23.16.34.08c.1-.07.12-.24.04-.36ZM10.9 3.91a.25.25 0 0 0 .15-.3.23.23 0 0 0-.3-.14.25.25 0 0 0-.15.3c.04.12.18.19.3.14ZM11.76 3.47c-.13-.02-.25.06-.27.18-.02.12.08.24.21.26.13.02.26-.07.27-.18.02-.12-.08-.24-.21-.26ZM11.7 6.5v.03h-.06l-.42-.78-.02-.02a.05.05 0 0 0-.06 0l-.01.03c-.2.7-.36 1.24-.5 1.63-.22.69-.4 1.23-.5 1.62l-.38 1.19c-.4 1.18-.84 2.86-1.08 3.57-.1.3-.37.22-.44-.04-.18-.7-.38-1.23-.57-1.95l-.38-1.43c-.17-.62-.55-2.15-1.16-2.4a.13.13 0 0 1-.05-.05.14.14 0 0 1-.03-.06c-.05-.27-.05-.5-.02-.7.02-.07.08-.14.13-.14h1.4c.04 0 .08.02.12.04.04.02.08.06.1.1.12.17.16.37.23.57.36 1.17.65 1.9.87 2.69l.03.04h.01c.01.02.02.02.03.02a.07.07 0 0 0 .06-.02l.02-.02 2.28-6.57.03-.03a.07.07 0 0 1 .08 0c.02 0 .02.02.03.04a18.75 18.75 0 0 0 .23 2.1c.03.2.04.38.03.55Z" fill="#0082D1"/><path d="M11.35 6.77v6.51c0 .05.02.09.04.12a.2.2 0 0 0 .1.07c.22.06.42-.03.34.32-.04.21-.22.21-.48.21H9.51a.29.29 0 0 1-.13-.06.18.18 0 0 1-.07-.1c-.03-.09 0-.18.08-.28a.14.14 0 0 1 .08-.05l.2-.04c.04 0 .08-.03.11-.06a.23.23 0 0 0 .07-.11c.04-.2.01-.41.01-.65v-1.5c0-.14.06-.35.12-.54.36-1.17.84-2.38 1.2-3.45a3 3 0 0 0 .11-.42.04.04 0 0 1 .05 0l.01.03ZM6.57 9.57c.13.36.24.74.34 1.11.04.16.08.43.09.8v1.63c0 .13.01.2.02.24 0 .03.02.07.04.1.03.03.06.04.09.05l.2.04a.1.1 0 0 1 .07.04l.02.08V13.94l-.03.02a.39.39 0 0 1-.2.04H6.2c-.04 0-.09-.04-.12-.07a.18.18 0 0 1-.04-.11v-.18l.01-.05c0-.02.01-.04.03-.05a.12.12 0 0 1 .03-.03.1.1 0 0 1 .05-.01h.2c.03 0 .06-.02.08-.05.03-.03.06-.06.06-.1V9.63l.05-.07h.02Z" fill="#0082D1"/></svg>