<!-- by TradingView --><svg width="56" height="56" viewBox="0 0 56 56" xmlns="http://www.w3.org/2000/svg"><path fill="#F0F3FA" d="M0 0h56v56H0z"/><path d="m18 30 7.34-6H23v-1.13L38 13l-8.17 8H34v1.45L18 30Zm16.5-14.36L23.6 23H27l-6.04 5.04 11.8-6.66h-4.79l6.54-5.74ZM40 29.5v1h7v2h-7v1h8V36H37v-9h11v2.5h-8ZM35 36h-3.4l-.84-1.35h-6.53L23.39 36H20l5.6-9h3.8l5.6 9Zm-9.35-3.66h3.68l-1.84-2.96-1.84 2.96Z" fill="#0044F9"/><path d="M8 27h8.08c2.23 0 3.92.98 3.92 3.38 0 2.29-1.78 3.62-3.9 3.62H11v2H8v-9Zm3 4.5h4.91c.64 0 1.09-.27 1.09-1 0-.75-.43-1-1.09-1H11v2Z" fill="#0044F9"/></svg>