<!-- by TradingView --><svg width="56" height="56" viewBox="0 0 56 56" xmlns="http://www.w3.org/2000/svg"><path fill="#6697E3" d="M0 0h56v56H0z"/><path fill-rule="evenodd" d="M30.62 11C24.28 11 19 16.3 19 22.84V25h-6v1h6v1h-6v1h6v1h-6v1h6v1h-6v1h6v1h-6v1h6v10h9V34h2.73C36.95 34 42 29.04 42 22.62 42 16.2 36.84 11 30.62 11ZM27 35v-1h-1v1h1Zm-2 0v-1h-1v1h1Zm-2 0v-1h-1v1h1Zm-2 0v-1h-1v1h1Zm-1-8v-1h1v1h-1Zm0-2h1v-2.26A9.57 9.57 0 0 1 30.46 13 9.6 9.6 0 0 1 40 22.5c0 5.31-4.2 9.5-9.32 9.5H28v1h2.73C36.43 33 41 28.5 41 22.62 41 16.75 36.32 12 30.62 12A10.76 10.76 0 0 0 20 22.84V25Zm2 2v-1h1v1h-1Zm0-2h1v-2.65A7.4 7.4 0 0 1 30.48 15c4.15 0 7.52 3.3 7.52 7.35A7.73 7.73 0 0 1 30.28 30H28v1h2.68A8.42 8.42 0 0 0 39 22.5c0-4.71-3.77-8.5-8.32-8.5A8.78 8.78 0 0 0 22 22.74V25Zm2 2v-1h1v1h-1Zm0-2h1v-2.5a5.5 5.5 0 0 1 5.45-5.5A5.62 5.62 0 0 1 36 22.54 5.57 5.57 0 0 1 30.36 28H28v1h2.28A6.8 6.8 0 0 0 37 22.35 6.51 6.51 0 0 0 30.48 16 6.48 6.48 0 0 0 24 22.35V25Zm2 2v-1h1v1h-1Zm2-1v1h2.36A4.48 4.48 0 0 0 35 22.54 4.47 4.47 0 0 0 30.45 18 4.36 4.36 0 0 0 26 22.5V25h1v-2.56a3.5 3.5 0 0 1 7 .03A3.56 3.56 0 0 1 30.47 26H28Zm-2 2h1v1h-1v-1Zm0 2h1v1h-1v-1Zm0 2h1v1h-1v-1Zm-1-2v1h-1v-1h1Zm-1-2h1v1h-1v-1Zm-1 0h-1v1h1v-1Zm-2 0h-1v1h1v-1Zm4 4v1h-1v-1h1Zm-5-1v-1h1v1h-1Zm2 0v-1h1v1h-1Zm0 1h1v1h-1v-1Zm-2 0v1h1v-1h-1Zm8-7h2.47c1.25 0 2.58-.98 2.53-2.53-.05-1.56-.96-2.52-2.48-2.47A2.54 2.54 0 0 0 28 22.44V25Z" fill="#fff"/></svg>