<!-- by TradingView --><svg width="56" height="56" viewBox="0 0 56 56" xmlns="http://www.w3.org/2000/svg"><path fill="#F0F3FA" d="M0 0h56v56H0z"/><path fill-rule="evenodd" d="M40 31.59a10.7 10.7 0 0 1 2.39.06c.12.02.16.08.12.19-.26.73-.56 1.43-.91 2.12-.2.4-.5.78-.91 1.15-.48.42-.93.66-1.36.7-.73.06-1.39-.13-1.98-.59a3.79 3.79 0 0 1-1.22-1.68 11.3 11.3 0 0 1 .07-8.7c.34-.82.84-1.48 1.51-2 .52-.4 1.13-.54 1.83-.42.7.12 1.23.47 1.62 1.03.43.61.76 1.12 1 1.53.1.17.32.25.65.24a6 6 0 0 0 1.07-.08c.09-.02.13-.07.12-.16a15.6 15.6 0 0 0-3.95-7.87 15.65 15.65 0 0 0-8.34-4.74 16.9 16.9 0 0 0-9.66.79 16.61 16.61 0 0 0-8.04 7.01 15.57 15.57 0 0 0-2 7.17c-.1 2.72.45 5.3 1.67 7.75a15.49 15.49 0 0 0 4.44 5.4 18.11 18.11 0 0 0 6.4 3.12c.38.1.67.15.89.14.22 0 .34-.12.35-.34.17-5.16.44-11 .8-17.54.02-.45.33-.6.92-.46.13.03.2.11.2.25.02.76-.01 1.93-.1 3.51-.37 7.63-.58 12.49-.64 14.56 0 .14.06.22.2.23 3 .2 5.76-.35 8.31-1.67 2.51-1.3 4.44-2.92 5.79-4.88a19.31 19.31 0 0 0 2.66-5.77c.06-.22.07-.42.02-.6-.04-.15-.13-.22-.3-.22h-3.65c-.1 0-.17.03-.23.1a.28.28 0 0 0-.07.24v.1c-.04.24.07.36.32.33Zm-13.45-6.62c.22 0 .62.02 1.2.08.24.03.36.16.36.4-.03 1.6-.11 3.12-.23 4.55-.04.5.05.87.27 1.15a16.5 16.5 0 0 1 1.26 1.64c1.1 1.81 1.27 3.96.5 6.44-.22.73-.54 1.63-.96 2.7-.07.18-.01.23.17.17.08-.03.19-.1.31-.2a10.94 10.94 0 0 0 3.09-3.91c1.73-3.7 1.34-7.06-1.17-10.08-.31-.37-.83-.89-1.54-1.54a8.83 8.83 0 0 1-2.14-2.53c-.69-1.54-1-3.24-.95-5.11.05-1.7.4-3.4 1.03-5.15.08-.21.12-.39.11-.52 0-.12-.06-.2-.17-.24a.26.26 0 0 0-.3.07 17.03 17.03 0 0 0-3.43 5.01 10 10 0 0 0-.84 3.48c-.1 1.39.07 2.6.5 3.6a13.32 13.32 0 0 0 1.95 3.29c.05.06.16.14.3.22.06.03.11.03.17 0a.14.14 0 0 0 .08-.13V25.4c0-.29.14-.43.43-.43Z" fill="#0675BB"/></svg>