<!-- by TradingView --><svg width="18" height="18" viewBox="0 0 18 18" xmlns="http://www.w3.org/2000/svg"><path fill="#F0F3FA" d="M0 0h18v18H0z"/><path d="M12 4v10h-2v-.71c0 .23-.52.71-2.2.71C5.7 14 5 11.86 5 10.43 5 9 5 7 7.8 7H10V4h2ZM8.17 8.58c-.31.02-.5.28-.52.57-.02.27.18.69.32.92v.01l-.59-.3a.57.57 0 0 0-.5-.02c-.25.1-.38.3-.38.56v.58c.03.4.46.55.8.5a4.48 4.48 0 0 0 .56-.09v.01c-.1.2-.19.36-.2.55 0 .32.16.7.52.7h.5c.26 0 .44-.05.55-.26a.86.86 0 0 0 0-.8l-.08-.18v-.01l.01-.01h.01l.46.08c.26.05.56 0 .72-.22.16-.21.15-.41.15-.7 0-.27 0-.47-.2-.6a.85.85 0 0 0-.9-.03l-.25.13h-.02v-.01c.18-.36.3-.84.04-1.2a.48.48 0 0 0-.4-.18h-.6Z" fill="#50B848"/></svg>