<!-- by TradingView --><svg width="56" height="56" viewBox="0 0 56 56" xmlns="http://www.w3.org/2000/svg"><path fill="#F0F3FA" d="M0 0h56v56H0z"/><path d="M25.61 13.67a65.45 65.45 0 0 0 .37.29.1.1 0 0 1 .01.05c0 .08-.06.13-.17.13-.34 0-.66-.1-.95-.28-.05-.04-.1-.03-.12.03l-.04.06c-.02.04-.01.07.02.09.07.06.14.1.2.12.1.04.14.12.12.23l-.03.11c0 .02 0 .03-.02.04a.08.08 0 0 1-.12-.02l-.66-1.15c-.04-.07-.08-.07-.12 0l-.3.53-.04.03h-.06l-.07-.01a.1.1 0 0 1-.07-.05.1.1 0 0 1 0-.09c.28-.56.05-2.02 1.16-1.74.11.03.2.1.26.18l.85 1.2a.07.07 0 0 1 0 .07.07.07 0 0 1-.04.04l-.1.01c-.08.01-.1.05-.08.13ZM26.92 12.72c.05-.27.2-.45.47-.54.1-.04.17-.01.22.07.25.37.45.72.62 1.06.35.72-.4 1.17-.94.76a.4.4 0 0 0-.24-.08h-.44a.05.05 0 0 1-.05-.07l.06-.1c.02-.03.05-.05.09-.04.17.04.32.04.43 0a.1.1 0 0 0 .06-.15 2.05 2.05 0 0 0-.55-.63.3.3 0 0 1-.13-.24c0-.36.1-.6.31-.72.05-.03.1-.04.16-.04.08 0 .11.05.1.14a.1.1 0 0 1-.05.07.67.67 0 0 0-.35.45c0 .04 0 .06.04.07l.1.04a.07.07 0 0 0 .08-.03v-.02ZM30.02 13.6l-.01.04v.03a.07.07 0 0 0 .05.04l.1.02h.02l.02-.01.9-1.08c.04-.06.09-.06.14 0l.05.05c.04.04.05.08.01.13l-.98 1.28c-.06.07-.04.1.05.12.03 0 .07-.01.11-.04.22-.18.63-.57 1.24-1.18.02-.02.04-.02.06 0l.07.06c.02.03.02.05 0 .08l-1.62 1.76c-.17.2-.13.29.13.29H31c.07 0 .12.03.14.1.01.03.02.06.01.09a.07.07 0 0 1-.05.06l-1.62.4a.73.73 0 0 1-.7-.18c-.37-.37-.4-.8-.08-1.31a21.72 21.72 0 0 0 1.08-1.84l.05-.01.1.02a.07.07 0 0 1 .04.04.08.08 0 0 1 0 .07l-.4.68c-.02.04 0 .08.03.1l.12.07c.04.02.07.01.09-.03.14-.4.37-.72.7-.93.14-.1.17-.06.08.08l-.57 1ZM33.12 16.54c.2-.4.14-.44-.17-.12l-.7.71c-.03.03-.05.04-.09.02l-.05-.04a.09.09 0 0 1-.04-.06.09.09 0 0 1 .02-.07l.8-.92a.05.05 0 0 0 0-.05.07.07 0 0 0-.07-.04c-.04 0-.07 0-.1.02-.31.23-.65.5-1.03.83-.07.06-.14.05-.18-.04l-.03-.06a.08.08 0 0 1 .01-.1l1.17-1.02.01-.02v-.02a.06.06 0 0 0-.02-.04l-.04-.05c-.03-.02-.05-.02-.08 0l-.92.56a.09.09 0 0 1-.07.01.09.09 0 0 1-.06-.04l-.03-.06a.07.07 0 0 1 .02-.1l1.42-1.03c.24-.17.21-.28-.08-.33a1.7 1.7 0 0 1-.63-.21.13.13 0 0 1-.06-.1v-.07c.03-.05.08-.07.17-.05.4.08.76.1 1.1.04.33-.05.59-.03.75.06.53.27.66 1.1.2 1.5a7.02 7.02 0 0 0-1.38 1.5.1.1 0 0 1-.06 0l-.08-.02a.07.07 0 0 1-.04-.04v-.07c.19-.22.3-.38.34-.48ZM23.6 16.45c-.53-.21-.56-.15-.1.18.08.06.18.22.3.47a.2.2 0 0 1-.04.23l-.08.08-.02.02h-.03l-.03-.01-.02-.02c-.3-.58-.78-1-1.46-1.26-.15-.05-.33-.25-.53-.59-.34-.56 0-1.18.53-1.4a.43.43 0 0 1 .28-.02c.7.17 1.2.22 1.54.15.12-.02.15.02.1.13a.21.21 0 0 1-.11.11c-.2.08-.36.13-.51.15-.3.04-.35.16-.13.38l1.29 1.3.01.02v.03l-.03.01h-.03l-1.08-.72c-.04-.03-.07-.02-.1.02l-.04.07c-.02.04-.01.07.02.1l1.18.95c.07.06.1.13.07.22a.22.22 0 0 1-.16.15c-.09.03-.16 0-.21-.08-.25-.38-.45-.6-.62-.67ZM19.67 16.5c-.13.09-.2.24-.33.28-.1.04-.21.03-.34-.04-.1-.06-.1-.1.02-.11.22-.04.38-.18.47-.42a.29.29 0 0 0-.01-.25c-.26-.46-.19-.92.2-1.37.38-.43.78-.44 1.23-.05.06.06.1.14.11.23l.15 1.18c0 .05-.01.08-.06.08h-.08c-.04 0-.07-.02-.09-.07l-.13-.35c-.05-.12-.11-.13-.2-.04-.25.26-.4.59-.49 1-.02.1.01.18.1.24.33.26.56.63.7 1.13.02.1.07.1.14.05.06-.04.08-.16.07-.35 0-.06.01-.11.06-.15.04-.05.08-.04.12.01l.31.5-.22.95c-.18.76-1.3 1.22-1.59.16a9.93 9.93 0 0 0-.24-.72c-.02-.05-.02-.08 0-.11.02-.05.08-.05.15-.02a.1.1 0 0 1 .05.05c.06.13.13.23.22.31.06.05.1.05.14-.02.25-.41.3-.88.18-1.42a.31.31 0 0 0-.16-.2c-.18-.1-.28-.23-.31-.4a.1.1 0 0 0-.07-.09.1.1 0 0 0-.1.01ZM27.1 15.82c-.21-.29-.27-.55-.16-.8.27-.57.36-.55.3.08l-.02.34c0 .1.05.15.16.14l.07-.01a.1.1 0 0 0 .07-.06.1.1 0 0 0 0-.1.89.89 0 0 1-.07-.18c0-.14.05-.18.15-.11.07.04.12.09.17.15a.2.2 0 0 1 0 .24c-.5.85.19 1.94-.5 2.54-.33.3-.96.36-1.3-.02-.37-.41-.7-.83-.99-1.25-.04-.07-.03-.09.05-.06l.81.3a.1.1 0 0 0 .13-.1l-.25-1.96c0-.06.02-.09.08-.07l.1.01c.01.01.03.02.03.05l.27 1.09c.01.05.04.07.1.08.06 0 .1 0 .12-.02l.02-.04v-.08l-.18-1.55a.1.1 0 0 1 .05-.1.09.09 0 0 1 .1.02l.17.18c.02.02.04.06.04.1a3.15 3.15 0 0 0 .29 1.4.1.1 0 0 0 .03.01.1.1 0 0 0 .08-.01l.06-.05c.07-.04.07-.1.03-.16ZM38.44 16.77c-.1.53-.03.56.24.1l.61-1.03c.02-.03.05-.05.1-.03l.07.02a.1.1 0 0 1 .06.15l-.66 1.28a.06.06 0 0 0 0 .06c.03.03.05.04.08.03a.2.2 0 0 0 .12-.05c.3-.35.62-.77.96-1.25.07-.1.15-.1.23-.01l.05.06a.1.1 0 0 1 .02.06.1.1 0 0 1-.02.07l-1.06 1.5a.06.06 0 0 0 0 .06.07.07 0 0 0 .03.04l.07.04c.03.01.06 0 .09-.02l.9-.92a.1.1 0 0 1 .09-.03.1.1 0 0 1 .07.04l.06.06a.08.08 0 0 1 0 .11l-1.36 1.6c-.23.27-.17.39.18.36.31-.03.58 0 .8.07a.15.15 0 0 1 .09.1l.01.07c0 .07-.07.11-.17.11-.48.02-.9.1-1.28.26-.38.15-.68.2-.9.15-.68-.17-1.05-1.1-.63-1.68a8.35 8.35 0 0 0 1.18-2.12.12.12 0 0 1 .07-.03l.09.01a.08.08 0 0 1 .06.04.08.08 0 0 1 0 .07c-.14.32-.23.53-.25.65ZM17.92 16.82a3.44 3.44 0 0 0-.25-.69v-.04a.08.08 0 0 1 .07-.04h.1a.12.12 0 0 1 .1.08c.25.68.62 1.37 1.12 2.07.41.58.03 1.5-.65 1.66-.22.05-.51 0-.9-.16-.36-.15-.78-.24-1.26-.26-.1 0-.16-.05-.17-.12l.01-.07a.15.15 0 0 1 .1-.1c.21-.07.48-.09.79-.06.34.03.4-.09.18-.36l-1.33-1.6a.08.08 0 0 1 0-.11l.05-.06a.1.1 0 0 1 .08-.03.1.1 0 0 1 .07.03l.9.92c.03.03.06.03.1.02l.06-.04a.07.07 0 0 0 .04-.07l-.01-.03-1.05-1.5a.1.1 0 0 1-.01-.07.1.1 0 0 1 .02-.06l.05-.06c.08-.09.16-.08.23.01.33.48.65.9.94 1.25.03.03.07.05.12.06.03 0 .05 0 .08-.03a.06.06 0 0 0 0-.06l-.64-1.28a.1.1 0 0 1 .02-.13.1.1 0 0 1 .04-.02l.07-.02c.05-.02.08 0 .1.03l.6 1.03c.26.46.34.43.23-.1ZM35.53 16.84c.02.07.06.08.11.03l.08-.08c.03-.03.03-.06.02-.09l-.2-.53c-.02-.04 0-.07.04-.08l.08-.02c.03-.01.06 0 .07.03.2.56.5 1.05.86 1.48.38.42.08 1.1-.39 1.3-.16.06-.41.03-.77-.09-.28-.1-.57-.15-.87-.17-.08 0-.12-.05-.1-.13l.03-.06a.13.13 0 0 1 .08-.05c.19-.03.34-.04.46-.03.33.04.38-.07.15-.32l-1-1.08c-.04-.02-.04-.06-.03-.1.02-.06.09-.07.2-.02l.09.06.54.55.06.02c.02 0 .04 0 .05-.02l.05-.05v-.04l-.82-1.06a.1.1 0 0 1-.02-.09.1.1 0 0 1 .05-.06l.09-.06c.04-.02.07-.01.1.03l.64.9c.02.03.05.04.08.02l.09-.07.02-.03v-.04c-.2-.3-.33-.54-.4-.7-.13-.3-.09-.34.13-.11.19.2.33.45.43.76ZM29.82 17.43a.3.3 0 0 1 .3-.1c.14.03.15.08.03.16-.51.33-.85.53-1 .6-.4.2-.64.04-.74-.45a.94.94 0 0 1 .3-.93c.1-.1.16-.08.16.07v.2c0 .17.06.2.18.08l.74-.76c.06-.05.1-.05.16 0l.07.07v.01a.03.03 0 0 1 0 .03c-.14.08-.28.23-.44.44a.16.16 0 0 0 .02.22c.08.06.11.17.1.32 0 .12.04.14.12.04ZM30.65 18.71a3.6 3.6 0 0 1-.43-.15c-.42-.32-.37-.4.13-.23.22.07.51.22.9.43.06.04.1.02.13-.06.01-.03 0-.08-.05-.13a2.29 2.29 0 0 0-.78-.5.05.05 0 0 1 .01-.08l.1-.06c.03-.03.06-.03.1 0l1.4.8a.1.1 0 0 0 .1 0 .1.1 0 0 0 .03-.1c-.07-.23-.07-.51 0-.86 0-.01 0-.03.02-.04l.08-.04c.05-.03.07-.02.08.04.06.52.22 1 .49 1.42.05.07.07.16.06.26-.06.7-.63.98-1.28.69-.45-.21-.96-.36-1.53-.44-.04 0-.06-.03-.04-.07l.02-.08c.36.04.64-.06.86-.32a.12.12 0 0 0 .02-.1.14.14 0 0 0-.04-.07h-.04c-.25.2-.74.34-.95.05-.07-.1-.09-.2-.05-.27a.1.1 0 0 1 .14-.05.1.1 0 0 1 .05.04c.04.08.11.13.2.14.16.03.27.01.31-.04.08-.08.06-.14-.04-.18ZM24.12 19.75a.14.14 0 0 0 .14-.05.14.14 0 0 0 .01-.16l-.55-1.1a.12.12 0 0 1 .03-.16.13.13 0 0 1 .06-.02h.08c.07.01.12.06.13.13.03.18.1.34.2.5.03.04.07.05.12.03a.11.11 0 0 0 .06-.06v-.04c-.08-.24-.1-.4-.09-.5.12-.5.2-.5.27.02a6.52 6.52 0 0 0 .18.7.08.08 0 0 0 .06 0l.07-.02c.04-.01.05-.04.05-.08l-.06-.32c.1-.42.2-.42.31 0 .13.46.56 1.6-.1 1.83-.63.23-.89-.2-1.32-.55-.23-.2-.2-.26.1-.2l.25.05ZM27.34 19.25c.39.05.85-.31 1.18-.38a.52.52 0 0 1 .5.18.53.53 0 0 1 .09.53l-.2.53a.27.27 0 0 1-.15.17c-.4.16-1.78.44-2.2-.03-.52-.58.24-1.29.74-1.79.04-.04.09-.04.14-.01.04.03.06.07.06.13v.02a.27.27 0 0 1 0 .02l-.25.45a.11.11 0 0 0-.02.06c0 .02 0 .04.02.06 0 .02.02.03.04.04l.05.02ZM13.47 20.11a.12.12 0 0 0 .07.09.13.13 0 0 0 .12-.02c.33-.22.44-.8.64-1.08a.54.54 0 0 1 .5-.2.53.53 0 0 1 .42.34l.2.54c.03.08.03.15 0 .23-.2.4-1.06 1.54-1.7 1.46-.78-.09-.67-1.14-.61-1.86 0-.06.03-.1.1-.1.04-.01.08 0 .12.06a.93.93 0 0 1 .03.03l.1.51ZM41.46 20.4c.2.16.23.13.11-.1l-.69-1.26c-.03-.07-.01-.1.07-.1h.1l.03.01.66.94c.08.11.14.1.2-.02.03-.07.04-.19.04-.36 0-.1.05-.13.15-.1.05 0 .09.04.1.1.07.32.16.56.28.72.07.09.15.1.25.03l.23-.16a.16.16 0 0 1 .24.08c.14.41.21 1.04-.1 1.39-.37.4-.76.42-1.17.05a7.29 7.29 0 0 1-1.53-2.07v-.07l.06-.15a.11.11 0 0 1 .1-.07.1.1 0 0 1 .1.07c.16.42.41.78.77 1.07ZM23.03 21.26a3.8 3.8 0 0 0 .35-.7.09.09 0 0 1 .07-.02l.04.02.07.07.04.07c0 .03 0 .06-.02.08a8.96 8.96 0 0 0-.81 2.4c-.15.74-1.15 1.11-1.78.68-.2-.13-.37-.4-.52-.82a4.2 4.2 0 0 0-.71-1.2c-.08-.1-.09-.17-.04-.23l.07-.04a.16.16 0 0 1 .14 0c.22.13.42.32.63.59.23.3.36.26.41-.12l.28-2.22a.1.1 0 0 1 .03-.06.09.09 0 0 1 .06-.02h.08a.11.11 0 0 1 .11.07v.05l-.06 1.38c0 .04.02.07.05.09l.08.03a.07.07 0 0 0 .08-.03l.01-.02.43-1.94c0-.02.02-.04.04-.06a.1.1 0 0 1 .06-.02h.09c.13 0 .18.06.15.19-.13.62-.23 1.17-.29 1.66 0 .04 0 .09.04.13.02.03.04.05.08.05.01 0 .02 0 .03-.02l.02-.02.54-1.45a.11.11 0 0 1 .07-.07.1.1 0 0 1 .09.01l.07.04c.04.03.05.06.04.1l-.37 1.23c-.17.54-.09.58.25.12ZM34.45 19.5h-.06a.13.13 0 0 0-.14.1l-.12 1.16c0 .07.05.13.12.14h.06c.07.01.13-.04.14-.1l.11-1.16a.13.13 0 0 0-.11-.14Z" fill="#2D593B"/><path d="m34.81 22.12.72-.31a.1.1 0 0 1 .08 0 .1.1 0 0 1 .05.06l.02.09c.01.04 0 .07-.03.09-.43.25-.8.59-1.1 1a.35.35 0 0 1-.23.15c-.95.18-1.3-.46-1.21-1.34a8.9 8.9 0 0 0 .02-1.63c0-.06.02-.1.09-.1h.12c.05 0 .08.03.08.09v.74c0 .07.03.1.1.08l.12-.03c.03 0 .05-.03.05-.06l-.02-1.2c0-.03.01-.05.04-.07a.34.34 0 0 1 .1-.06c.02-.01.05 0 .08.02l.02.04c.01.47-.07 1.16.45 1.4.09.04.15.01.2-.08.13-.3.21-.58.24-.86 0-.04.03-.06.06-.07l.16-.04c.07-.02.1 0 .08.07l-.42 1.9c-.03.13.02.16.13.12ZM36.7 20.04c.05.33.16.5.3.5.12 0 .15-.05.11-.16a.53.53 0 0 0-.42-.34c.07-.07.13-.1.2-.1.06 0 .13.04.2.13a3.32 3.32 0 0 0 .8.68l.04-.01a.1.1 0 0 0 .05-.07l.12-.51a.11.11 0 0 1 .09-.1c.04 0 .07 0 .1.04.02.01.02.03.02.04-.05.37 0 .75.13 1.14.03.08.03.17 0 .26-.23.54-.71.5-1.14.2a4.12 4.12 0 0 0-.88-.47c-.11-.04-.17-.11-.17-.23v-.81c0-.1.05-.14.13-.15l.31-.04Z" fill="#2D593B"/><path d="M36.7 20.04c.2.04.34.15.41.34.04.1 0 .16-.1.16-.15 0-.26-.17-.31-.5ZM36.54 20.6a.49.49 0 0 1-.14-.12c-.04-.04-.04-.08-.01-.12 0-.02.03-.03.05-.04.03-.01.05 0 .07 0 .3.26.36.53.16.82-.06.07-.11.07-.17 0l-.04-.05c-.06-.04-.05-.1.01-.15a.5.5 0 0 0 .14-.2c.02-.07 0-.12-.07-.15Z" fill="#838383"/><path d="M17.22 21.53c-.2-.37-.49-.55-.86-.55-.16 0-.18-.05-.05-.14l.1-.1a.22.22 0 0 1 .14-.06c.38-.04.69-.1.92-.18.64-.2 1.24-.04 1.26.75a.4.4 0 0 1-.11.29l-.74.74c-.05.05-.08.04-.08-.04 0-.12.04-.24.12-.35.04-.06.05-.12.04-.17-.03-.1-.08-.12-.17-.09l-.68.27a.23.23 0 0 1-.23-.04.65.65 0 0 0-.56-.15c-.1.02-.14-.02-.13-.12 0-.04.03-.09.08-.13.25-.2.47-.17.65.1.03.05.08.08.13.08h.11c.08 0 .1-.04.06-.1ZM29.64 21.34a.14.14 0 0 0 .1.11.14.14 0 0 0 .14-.03l.86-.87a.12.12 0 0 1 .1-.03c.03 0 .05 0 .06.02.02 0 .03.02.04.04l.03.08c0 .08-.02.13-.09.16-.16.09-.29.2-.4.34-.03.05-.03.1.01.14.02.02.04.03.07.03h.04c.2-.16.34-.24.43-.25.51-.04.53.04.07.27a7.16 7.16 0 0 0-.6.37.08.08 0 0 0 .02.06l.04.07c.03.03.05.04.09.02l.28-.15c.43-.04.46.05.1.3-.39.25-1.33 1.02-1.74.47-.41-.54-.09-.92.1-1.44.11-.28.18-.27.22.03l.03.26ZM26.35 22.66c.25.47.34.45.24-.08l-.2-1.2c-.01-.04 0-.07.04-.09l.07-.03a.1.1 0 0 1 .13.04l.02.04.33 1.42a.05.05 0 0 0 .05.04c.03 0 .06 0 .08-.03a.2.2 0 0 0 .05-.12c0-.47-.03-1-.08-1.6 0-.11.05-.17.16-.15h.08a.1.1 0 0 1 .06.04.1.1 0 0 1 .03.06l.18 1.87a.07.07 0 0 0 .02.04.06.06 0 0 0 .06.01l.08-.02a.08.08 0 0 0 .06-.07l.1-1.3a.11.11 0 0 1 .07-.1.1.1 0 0 1 .04 0h.08c.02 0 .04.01.05.03l.03.06v2.12c0 .36.13.41.38.16.22-.23.44-.39.65-.48a.15.15 0 0 1 .14.02l.05.04c.04.07.02.13-.05.2-.36.34-.63.7-.81 1.05-.2.37-.39.61-.59.71-.64.33-1.53-.13-1.59-.85a8.53 8.53 0 0 0-.49-2.42l.05-.06.07-.06a.08.08 0 0 1 .1.01l.03.04c.09.33.16.55.23.66ZM11.68 21.96c-.03-.07-.04-.12-.03-.16.03-.08.08-.11.16-.09.8.24 1.2.78 1.23 1.61 0 .09-.03.14-.12.15-.65.1-1-.08-1.03-.54 0-.1-.04-.2-.1-.28-.13-.2-.17-.37-.1-.51a.22.22 0 0 0 0-.18ZM39.59 23.34c-.12 0-.18-.02-.18-.1 0-.25.07-.29.22-.1.13.16.34.2.63.15a.1.1 0 0 0 .08-.1.11.11 0 0 0-.06-.1l-.9-.34c-.09-.04-.1-.08-.01-.14l.13-.1a.07.07 0 0 1 .07 0l1.16.56c.03.01.07.01.1-.01a.14.14 0 0 0 .04-.07l-.01-.05a2.84 2.84 0 0 0-.79-.53c-.05-.02-.05-.05 0-.09l.1-.07c.02-.01.04-.01.07 0l1.26.73c.26.15.34.09.24-.2-.08-.24-.1-.4-.07-.48.17-.47.27-.45.3.05.03.32.18.69.46 1.1.05.08.07.16.06.25-.06.48-.32.77-.78.85h-.06a2 2 0 0 1-.12-.04l-1.9-.63c-.03 0-.04-.03-.03-.06l.04-.1c.02-.05.05-.06.09-.04.17.1.34.16.51.15.02 0 .03 0 .03-.03l.02-.07a.1.1 0 0 0-.02-.08.08.08 0 0 0-.07-.03c-.2.03-.33-.02-.4-.15a.2.2 0 0 0-.21-.13ZM14.24 23.85c.02-.23 0-.58-.03-1.08a.5.5 0 0 1 .08-.32l.04-.03h.05c.02 0 .04.02.05.03l.04.05c.01.03.04.2.07.53.01.08.06.12.14.13a.18.18 0 0 0 .2-.13c.04-.17 0-.4-.14-.7a.09.09 0 0 1 0-.07c0-.02.02-.03.04-.04l.09-.06c.02 0 .03 0 .04.02l.55 1.07c.02.05.03.12.01.18-.19.69-.33 1.1-.42 1.23-.4.56-.92.38-1.2-.14a6.18 6.18 0 0 0-.58-.9c-.17-.2-.14-.24.08-.1l.73.42c.1.06.15.03.16-.1ZM36.95 23.05c-.1.44-.04.47.21.09l.55-.87c.02-.03.05-.04.09-.03l.06.03a.08.08 0 0 1 .05.05.1.1 0 0 1 0 .08l-.61 1.08a.05.05 0 0 0 0 .05c.02.03.04.04.07.03.05 0 .08-.02.1-.04.27-.3.56-.64.87-1.04.06-.09.12-.09.19-.01l.04.05c.02.02.02.04.02.06 0 .02 0 .04-.02.05l-.95 1.27a.06.06 0 0 0 .01.08l.07.04c.02.01.05 0 .07-.01l.81-.77a.1.1 0 0 1 .13.01l.05.05a.07.07 0 0 1 0 .1l-1.22 1.33c-.2.23-.15.33.15.32.27-.01.5.02.68.08a.13.13 0 0 1 .08.1v.05c0 .07-.06.1-.15.1-.41 0-.78.06-1.1.18-.34.12-.6.15-.78.1-.59-.17-.88-.97-.5-1.46A7.11 7.11 0 0 0 37 22.4a.1.1 0 0 1 .06-.01h.08a.07.07 0 0 1 .05.04.07.07 0 0 1 0 .07c-.13.26-.21.44-.24.55ZM31.24 24.03a.14.14 0 0 0 .14-.05.14.14 0 0 0 .01-.15l-.52-1.1a.13.13 0 0 1 .04-.16.12.12 0 0 1 .05-.02h.09c.07.02.1.06.12.14.02.18.08.34.18.49.03.05.08.06.13.03a.13.13 0 0 0 .06-.04v-.05c-.08-.24-.1-.4-.08-.5.12-.49.21-.48.27.03a6.95 6.95 0 0 0 .15.7.08.08 0 0 0 .06 0l.08-.02c.04-.01.05-.04.05-.07l-.05-.33c.1-.4.2-.4.3 0 .12.47.52 1.6-.13 1.82-.64.21-.88-.22-1.3-.58-.22-.19-.2-.25.1-.2l.25.06ZM18.97 23.58c.03.08.07.09.13.03l.09-.1c.03-.02.04-.06.02-.1l-.23-.6c-.02-.06 0-.09.05-.1l.1-.03c.03 0 .06 0 .07.04.24.65.57 1.22 1 1.7.42.5.08 1.27-.46 1.5-.19.07-.48.04-.89-.1a3.86 3.86 0 0 0-1-.2c-.1 0-.14-.06-.12-.15 0-.03.02-.05.04-.07a.15.15 0 0 1 .09-.05c.21-.04.39-.06.52-.04.39.05.45-.07.18-.36L17.4 23.7a.1.1 0 0 1-.02-.1c.02-.09.1-.1.23-.04a.3.3 0 0 1 .1.07l.62.63a.1.1 0 0 0 .14 0l.04-.05c.02-.02.02-.03.01-.05l-.94-1.23a.11.11 0 0 1-.03-.1.12.12 0 0 1 .06-.07l.1-.06c.05-.03.09-.02.12.02l.74 1.05c.02.04.05.04.09.02l.1-.08a.06.06 0 0 0 .02-.03v-.05a6.96 6.96 0 0 1-.46-.81c-.15-.35-.1-.39.15-.12.22.22.39.52.5.88ZM23.34 24.3c.07-.05.07-.1 0-.13l-.1-.05c-.04-.02-.07-.02-.1 0l-.48.37c-.04.04-.07.03-.1-.01l-.05-.09c-.01-.03 0-.05.02-.07.5-.39.92-.84 1.24-1.35.32-.52 1.1-.41 1.43.01.12.15.17.42.16.82-.02.32.01.64.08.96.02.09 0 .14-.1.14h-.07a.15.15 0 0 1-.07-.08c-.09-.18-.15-.33-.17-.46-.06-.36-.18-.38-.37-.06l-.79 1.37c-.02.04-.05.05-.09.05-.08 0-.1-.07-.09-.2 0-.04.02-.07.04-.1l.39-.73a.09.09 0 0 0 0-.07.1.1 0 0 0-.04-.05l-.06-.03h-.04l-.83 1.18a.1.1 0 0 1-.08.05.12.12 0 0 1-.09-.03l-.08-.08c-.03-.04-.04-.07 0-.11l.72-.95c.03-.03.02-.06 0-.08l-.1-.07a.06.06 0 0 0-.04-.01 6.2 6.2 0 0 1-.64.64c-.26.23-.3.19-.14-.1.14-.26.36-.49.64-.69ZM45.23 25.75l.92.34.03.03a.08.08 0 0 1 0 .1l-.08.08a.06.06 0 0 1-.06.02l-1.65-.5c-.23-.06-.3.02-.22.25l.23.6v.06l-.03.04-.1.06a.09.09 0 0 1-.1-.01l-.02-.03c-.22-.4-.51-.79-.87-1.17-.24-.24-.26-.57-.08-1 .16-.4.75-.6 1.21-.49a26.14 26.14 0 0 0 1.89.38l.02.03.01.1a.08.08 0 0 1-.03.06l-.03.02h-.03a1.31 1.31 0 0 0-.77.02.06.06 0 0 0-.04.07v.07l.03.05.06.02h1.11c.02 0 .03 0 .05.02a.1.1 0 0 1 .03.04l.05.13c.02.04 0 .07-.05.06a2.7 2.7 0 0 0-1.5.36c-.12.08-.12.14.02.19ZM11.21 25.42c-.4-.28-.86-.35-1.4-.23h-.04a.07.07 0 0 1-.03-.03l-.05-.08c-.03-.05-.01-.07.04-.08l.78-.05c.5-.04.51-.15.05-.34l-.34-.01c-.05 0-.07-.03-.06-.08l.02-.08c.95-.1 1.6-.16 1.98-.16.61 0 1.03.17 1.02.88 0 .16-.08.33-.25.5-.22.25-.47.59-.76 1.03-.01.03-.03.03-.06.02l-.08-.03a.05.05 0 0 1-.03-.05v-.02l.24-.64a.21.21 0 0 0-.16-.28h-.12l-1.62.65c-.03 0-.05 0-.07-.02l-.07-.07c-.02-.02-.02-.04 0-.06l1-.58c.1-.06.1-.12.01-.19ZM33.51 25.32a.1.1 0 0 0 .07.08h.05c.02 0 .04 0 .05-.02.29-.18.4-.7.6-.92a.46.46 0 0 1 .79.14l.16.48c.02.07.02.14-.01.2-.18.34-.97 1.32-1.52 1.23-.68-.1-.56-1.01-.5-1.64.01-.06.04-.09.1-.1.04 0 .07.02.1.07a.44.44 0 0 1 .03.03l.08.45ZM39.67 25.99a.3.3 0 0 0-.09-.03c-.05 0-.07-.03-.07-.08.03-.45.13-.83.3-1.16.02-.03.05-.04.08-.03l.1.04c.05.02.07.06.04.11-.14.36-.19.74-.12 1.12 0 .03.02.04.05.05l.07-.01.03-.03.02-.05c.1-.5.22-.88.36-1.12a.16.16 0 0 1 .25-.03.1.1 0 0 1 .02.04.1.1 0 0 1 0 .05l-.45 1.5c-.01.04 0 .07.06.07h.08a.03.03 0 0 0 .03-.02l.53-1.12c.02-.05.06-.06.11-.04l.08.02c.02.01.03.03.03.07-.21.63-.7 1.26-.67 2.1 0 .12.05.14.14.08.25-.18.47-.24.68-.19.06.02.1.04.12.08l.03.08c0 .06-.02.09-.07.1-.9.06-.94 1.01-1.8.86-.82-.14-1-.72-.8-1.43.18-.6.09-1.24.31-1.83a.1.1 0 0 1 .06-.06.1.1 0 0 1 .08 0l.05.06c.02.02.02.05.02.08 0 .18-.03.37-.12.57-.04.1 0 .15.1.17l.3.05c.18.04.2.01.06-.07ZM31.18 26.61c.14-.16.1-.23-.1-.23-.45 0-.8.07-1.07.19-.12.05-.22.02-.3-.09l-.38-.55c-.08-.1-.05-.17.07-.2l.87-.22a.14.14 0 0 0 .09-.07c.03-.08.03-.14-.01-.19-.03-.02-.06-.03-.11-.03-.22 0-.42.05-.62.17-.03.02-.04.01-.05-.02l-.03-.09a.1.1 0 0 1 0-.04c0-.02.02-.03.03-.04.34-.35.64-.38.89-.1.06.08.13.1.22.09.68-.11 1.53-.05 1.49.85 0 .03-.01.07-.03.1a.3.3 0 0 1-.07.1l-.95.8c-.1.08-.14.06-.1-.08a.75.75 0 0 1 .16-.35ZM16.34 26.52c-.03-.4.06-.8.26-1.2.04-.08.09-.08.14 0l.39.69a.36.36 0 0 1 .02.3c-.13.34-.27.83-.41 1.47-.16.68-.35 1.06-1.08.98-.21-.02-.4-.14-.54-.37-.44-.67-.74-1.14-.9-1.41-.03-.06-.01-.1.05-.11l.14-.04c.04 0 .07 0 .1.04.17.28.38.49.62.62.09.05.13.03.13-.07l.02-1.58c.01-.84.13-.87.35-.08a26.96 26.96 0 0 1-.04.74l.02.03a.07.07 0 0 0 .06 0l.1-.02c.03 0 .05-.02.05-.06v-1.27c0-.11.05-.19.16-.22a.19.19 0 0 1 .17.02c.08.05.1.12.07.2a2.36 2.36 0 0 0-.05 1.42h.08c.06.01.1-.02.09-.08ZM23.25 29.33 21.68 28a.07.07 0 0 1-.03-.05v-.1c0-.09.04-.1.12-.06l1.64.95h.04l.07-.05c.07-.05.07-.1 0-.14a4.8 4.8 0 0 1-1.19-1.1.36.36 0 0 1-.07-.23v-.15a.08.08 0 0 0-.04-.06.08.08 0 0 0-.07 0l-.46.2c-.15.06-.19.03-.11-.12l.18-.29c.25-.13.23-.2-.06-.21l-1.2-.05c-.05 0-.08-.03-.08-.08v-.09c0-.06.03-.08.09-.07.26.05.5.03.73-.05.04-.02.07-.04.08-.07v-.07c0-.03-.02-.04-.04-.04-.38 0-.62-.09-.72-.27-.07-.13-.04-.17.1-.13l.86.24c.08.03.1 0 .06-.08-.09-.18-.26-.3-.5-.36a.08.08 0 0 1-.05-.04.08.08 0 0 1 0-.06l.04-.13a.08.08 0 0 1 .1-.05l1.4.53a.53.53 0 0 1 .34.5c0 .07-.02.14-.04.21-.1.2-.24.37-.46.52a.15.15 0 0 0-.07.12.16.16 0 0 0 .06.12l1.55 1.25c.01.02.02.02.04 0l.08-.04c.03-.02.04-.04.02-.06l-.8-.96a.14.14 0 0 1-.04-.1l.04-.08.08-.07a.07.07 0 0 1 .05-.03.07.07 0 0 1 .06.03c.43.6 1.05 1.2 1.87 1.8.45.34.7 1.32.1 1.77-.23.19-.4.3-.52.37a.38.38 0 0 1-.26.02 3.16 3.16 0 0 0-1.72.04c-.06.02-.1 0-.14-.05l-.07-.12c-.03-.07-.02-.11.06-.13l.93-.23a.19.19 0 0 0 .14-.16.2.2 0 0 0-.1-.2l-1.9-1.1a.22.22 0 0 1-.11-.23v-.08c.02-.12.08-.14.18-.07.4.31.81.53 1.25.65.18.06.2.02.06-.1Z" fill="#2D593B"/><path d="M46.21 25.5c.2.03.33.07.38.11.28.26.24.32-.11.2a3.1 3.1 0 0 0-.63-.1c-.37 0-.39-.08-.04-.23.07-.03.2-.02.4.01Z" fill="#2D593B"/><path d="m16.63 26.42-.04-.32c.07-.51.17-.52.3 0 .06.27-.01.48-.23.61-.16.1-.19.07-.09-.1l.04-.06a.25.25 0 0 0 .02-.13Z" fill="#838383"/><path d="M26.64 26.75c-.2-.25-.51-.38-.91-.37a.07.07 0 0 0-.07.04.07.07 0 0 0 .02.08c.27.3.6.38.96.25.08 0 .15.04.22.15a.1.1 0 0 1-.08.16h-.85a.25.25 0 0 0-.17.07c-.18.17-.45.25-.8.24a.08.08 0 0 0-.08.08l.01.04.3.53c.07.12.04.15-.09.1-.64-.3-1.74-1.31-.69-1.98a.35.35 0 0 1 .26-.05c.18.03.41.02.67-.03.42-.09 1.37.05 1.3.69ZM43.67 27.97c.15-.15.28-.33.38-.54a.08.08 0 0 1 .1-.04l.1.04c.07.03.08.07.05.13l-.54.99c-.28.5-.53.68-1.06.45a.35.35 0 0 1-.18-.2l-.48-1.23a.24.24 0 0 1 0-.18l.42-1.12c.04-.1.1-.12.17-.04l.05.05a.04.04 0 0 1 .01.05l-.36.99c-.03.07 0 .12.05.15h.09l.04-.03c.16-.3.27-.52.35-.63.27-.39.45-.35.54.11.07.36.1.7.1.98 0 .15.06.17.17.07ZM27.53 27.19c-.11.52-.03.55.25.1l.62-1.03c.02-.04.05-.05.1-.04l.07.03a.1.1 0 0 1 .06.06.1.1 0 0 1 0 .08l-.68 1.3a.05.05 0 0 0 0 .06l.09.03c.05-.01.09-.03.12-.06.3-.35.62-.77.97-1.25.07-.1.15-.1.23 0l.05.06a.1.1 0 0 1 0 .12l-1.08 1.51a.06.06 0 0 0 0 .06.07.07 0 0 0 .03.04l.07.04c.03.01.06.01.09-.02l.93-.91a.1.1 0 0 1 .07-.03.1.1 0 0 1 .08.03l.05.06.02.06c0 .02 0 .04-.02.06l-1.38 1.59c-.23.27-.17.4.18.37.31-.03.58 0 .8.07a.15.15 0 0 1 .1.1v.08c0 .07-.07.1-.17.11-.49.02-.91.1-1.29.24-.39.16-.69.2-.9.15-.7-.18-1.06-1.12-.63-1.7a8.41 8.41 0 0 0 1.2-2.13.12.12 0 0 1 .08-.02h.09a.08.08 0 0 1 .07.13c-.15.3-.24.52-.27.65Z" fill="#2D593B"/><path d="M26.64 26.75a.85.85 0 0 1-.97-.25.07.07 0 0 1 .02-.1c0-.02.02-.02.04-.02.4 0 .7.12.91.37Z" fill="#838383"/><path d="M36.93 28.39c.26-.07.43-.18.51-.3.07-.1.07-.2.01-.3l-.08-.15a.3.3 0 0 1 .17-.44c.35-.1.59-.03.71.22a.45.45 0 0 1-.14.56l-1.68 1.2a.35.35 0 0 1-.25.07.34.34 0 0 1-.23-.13c-.23-.3-.43-.66-.29-1.11.12-.4.17-.81.13-1.26 0-.13.05-.18.18-.13l.08.03c.1.04.15.11.14.22-.01.34.2.57.62.7h.06v-.07c-.28-.13-.4-.34-.34-.63.04-.2.11-.2.21-.03l.4.69c.03.06.03.12 0 .19l-.31.54c-.08.12-.04.17.1.13ZM33.9 29.08c-.43-.58-.55-.57-.33.02.03.1.2.3.5.6a.12.12 0 0 1-.03.19.23.23 0 0 1-.21 0 .27.27 0 0 1-.15-.13c-.19-.42-.47-.8-.83-1.12-.03-.02-.05-.02-.07 0l-.08.06c-.02.01-.02.03-.01.05l.68 1.2c.02.04.02.07-.03.1l-.1.05c-.01.01-.03 0-.04-.01l-1.07-1.86a.1.1 0 0 0-.1-.06.1.1 0 0 0-.08.07l-.24.64c-.17.48-.27.46-.27-.04-.01-.7-.01-2.4 1.16-2.11.23.05.42.18.59.39.42.54.83.94 1.2 1.17.05.03.08.06.1.1.01.05.01.1 0 .14a.27.27 0 0 1-.07.13c-.07.06-.12.05-.17-.02-.13-.2-.2-.31-.25-.32-.37-.07-.42.02-.15.29a1.73 1.73 0 0 1 .44.7.04.04 0 0 1-.06.02 1.3 1.3 0 0 1-.32-.25ZM19.9 27.43c-.06-.16-.06-.29-.02-.37.11-.24.21-.24.3.02.12.34.22.85.3 1.53a.3.3 0 0 1-.07.25c-.2.22-.48.3-.85.22-.26-.05-.54-.4-.83-.66-.1-.1-.08-.15.05-.16.11 0 .22.03.33.1.09.05.15.03.18-.06a.16.16 0 0 0 0-.14 9.05 9.05 0 0 1-.53-1.2.07.07 0 0 1 .07-.06l.09-.01c.05 0 .07.01.08.06.08.52.34.74.8.65.09-.02.12-.08.1-.17ZM46.7 28.71c.16 0 .47-.03.93-.12.08-.02.1.01.08.1l-.05.13c-.01.02-.03.04-.05.04l-1.82.23a.13.13 0 0 0-.1.08.13.13 0 0 0 .02.13c.17.2.38.42.64.66.03.03.05.06.05.09l-.01.07-.05-.01-1.63-.75a1.07 1.07 0 0 1-.1-.05.2.2 0 0 1-.05-.04c-.62-.8-.08-1.46.7-1.64a4.28 4.28 0 0 0 1.43-.61c.2-.14.23-.1.1.1-.12.17-.3.31-.56.42a.09.09 0 0 0-.05.06.1.1 0 0 0 .01.07l.05.07c.02.03.05.04.09.02l1.1-.43a.1.1 0 0 1 .1 0 .1.1 0 0 1 .04.07v.09c.01.02 0 .03-.02.04-.35.11-.68.26-.99.44-.05.03-.08.07-.09.1l.01.08c.03.04.06.06.1.05l1.35-.34a.05.05 0 0 1 .06.01.06.06 0 0 1 0 .06l-.03.11a.13.13 0 0 1-.11.1c-.46.07-.85.17-1.18.27-.6.18-.6.28.03.3ZM12.46 28.35a.13.13 0 0 0 .2-.06l.3-.8a.3.3 0 0 1 .12-.15c.2-.12.31-.17.36-.15a.97.97 0 0 1 .43.5c.04.1.05.2.04.3 0 .1-.03.2-.08.29-.14.26-.47.59-1 .97a.47.47 0 0 1-.7-.2 2.8 2.8 0 0 1-.13-1.23c.02-.16.05-.16.12-.02.14.31.25.5.34.55ZM9.23 28c-.11-.1-.18-.18-.19-.22-.04-.16.02-.18.17-.07.5.35 1.03.61 1.6.8.74.23 1.06.91.59 1.53a.33.33 0 0 1-.22.13c-.5.08-.96.3-1.4.64h-.05l-.08-.02c-.04-.02-.04-.04-.01-.07l.53-.53a.24.24 0 0 0-.14-.4l-1.76-.24c-.2-.02-.2-.06-.01-.11.21-.06.47-.06.79-.01a.2.2 0 0 0 .17-.06l.08-.08a.13.13 0 0 0-.08-.22l-1.13-.15A.1.1 0 0 1 8 28.8a.1.1 0 0 1 .03-.06l.08-.08.02-.01h.02l1.12.14a.06.06 0 0 0 .05-.01l.01-.02.01-.02.01-.07c0-.04 0-.07-.03-.1a.14.14 0 0 0-.08-.06l-.55-.1c-.06 0-.1-.03-.13-.07-.03-.05-.03-.11-.01-.18a.13.13 0 0 1 .08-.1.13.13 0 0 1 .12.03c.15.11.3.14.45.09.1-.05.11-.1.03-.19ZM42.26 30.02c-.08-.14-.2-.17-.38-.11-.1.04-.15.1-.15.17 0 .09.05.15.13.18.12.06.17.16.15.3a.14.14 0 0 1-.1.12.14.14 0 0 1-.14-.03l-.43-.44c-.03-.02-.06-.03-.1 0l-.07.03c-.06.04-.06.08-.01.13.23.24.35.46.38.67.03.18-.02.2-.14.06l-.47-.56a.32.32 0 0 1-.07-.27c.03-.22-.1-.38-.37-.47a.29.29 0 0 1-.18-.16c-.22-.52-.04-.88.54-1.08a.5.5 0 0 1 .34.01c.12.05.2.13.26.24.23.45.56.8.98 1.05a.2.2 0 0 1 .1.23.2.2 0 0 1-.05.07.42.42 0 0 1-.26.15c-.35.05-.38.02-.08-.1l.13-.05c.04-.02.04-.07 0-.14ZM37.16 31.33l.55.55c.03.03.03.06.01.1l-.05.08c-.02.04-.05.05-.1.02l-1.45-.87a.27.27 0 0 1-.08-.08c-.26-.37-.25-.75.04-1.15.13-.2.41-.32.83-.4a6.4 6.4 0 0 0 1.58-.5c.03-.01.07 0 .1.03l.05.05c.04.04.04.07-.01.09-.3.13-.5.23-.6.3-.27.18-.25.34.08.46.4.15.83.15 1.28.01a.1.1 0 0 1 .07 0l.05.05.05.09c.04.07.02.12-.06.14-.44.12-.9.16-1.38.11-.02 0-.04 0-.06.02a.08.08 0 0 0-.03.05l-.03.15c-.02.07.01.1.08.1h1.11c.04 0 .06.02.06.06v.1c0 .05-.02.07-.06.07l-1.95.16c-.18.01-.2.08-.08.2ZM18.24 29.66a3.45 3.45 0 0 0-.64-.24.08.08 0 0 1 0-.1l.05-.07a.11.11 0 0 1 .06-.04 7.59 7.59 0 0 0 2.2.5c.67.08 1.07.92.76 1.5-.1.2-.32.37-.67.54-.33.17-.66.41-.98.74-.06.07-.13.09-.18.05l-.04-.05a.15.15 0 0 1-.01-.14c.09-.2.23-.4.45-.6.23-.22.19-.34-.14-.35l-1.95-.05a.08.08 0 0 1-.07-.07l-.01-.07a.1.1 0 0 1 .05-.1.1.1 0 0 1 .04-.01l1.2-.07c.04 0 .06-.02.07-.05l.02-.07a.06.06 0 0 0-.03-.07l-.02-.01-1.7-.2a.1.1 0 0 1-.06-.03.1.1 0 0 1-.03-.05v-.08c-.02-.11.03-.16.14-.15.55.06 1.03.1 1.46.1.04 0 .08 0 .11-.04.03-.02.04-.04.03-.07l-.01-.03-.03-.02-1.3-.34a.1.1 0 0 1-.06-.05.1.1 0 0 1 0-.08l.03-.07c.02-.04.04-.05.08-.04l1.1.21c.48.1.5.02.08-.23ZM13.6 31a.85.85 0 0 0-.53-.02.11.11 0 0 1-.13-.08v-.06c.01-.07.05-.1.12-.12.3-.07.63-.04.98.08.1.03.13 0 .09-.1a.53.53 0 0 0-.25-.28.68.68 0 0 0-.32-.02c-.2.02-.34.02-.4 0-.14-.05-.14-.1-.02-.15.18-.08.42-.13.71-.15a.09.09 0 0 0 .08-.1l-.01-.04c-.06-.08-.15-.1-.29-.09-.05.01-.07 0-.06-.04.02-.04.03-.06.05-.06.77-.03 2.83-.62 2.38 1.02a.3.3 0 0 1-.15.2c-.34.18-.58.49-.71.9-.01.05-.04.06-.09.04l-.1-.03c-.04-.02-.06-.05-.05-.1l.14-.4c.25-.37.17-.48-.24-.34l-1.13.37c-.17.05-.24.03-.19-.08a.52.52 0 0 1 .15-.16c.1-.08.08-.15-.03-.2Z" fill="#2D593B"/><path d="M31.78 33.16a8.06 8.06 0 0 0 2.45-2.65c.14-.23.32-.27.53-.12l.09.06c.07.05.13.12.15.2.02.09.02.18-.02.25-.5.97-1.15 1.84-1.95 2.63-.04.05-.04.09.02.12l.1.06c.02.01.04 0 .07-.01l1.47-1.61c.11-.13.23-.13.35-.01l.1.1c.09.08.09.17.02.27l-1 1.25c-.21.26-.18.3.08.1l.87-.62a.19.19 0 0 1 .25.02l.08.13c.03.09.01.17-.05.24-1.16 1.34-2.69 1.82-4.38 2.25-1.72.44-.25 4.6.15 5.62.23.59.12.67-.34.24a6.93 6.93 0 0 0-3.03-1.56c-.1-.02-.15-.09-.14-.2.2-1.33.22-2.68.08-4.04a5.64 5.64 0 0 1 .58-3.5c.1-.18.18-.82.28-1.92a.24.24 0 0 1 .14-.2.24.24 0 0 1 .24.03 1.4 1.4 0 0 1 .55 1.08l-.1 1.48a.34.34 0 0 0 .18.32.33.33 0 0 0 .36-.03 5.8 5.8 0 0 0 2.01-3.11c.07-.24.22-.32.46-.24a.7.7 0 0 1 .2.18.46.46 0 0 1 .1.46l-1 2.7c-.02.05 0 .06.05.03Z" fill="#280D0A"/><path d="M44.88 30.7c-.44.3-.4.38.1.24l1.16-.3c.04-.01.07 0 .09.04l.03.07a.1.1 0 0 1-.02.12.1.1 0 0 1-.03.02l-1.37.46a.05.05 0 0 0-.04.05c0 .03.01.06.04.07.04.03.08.05.12.04.46-.03.98-.1 1.55-.2.12-.03.18.02.17.14v.09a.1.1 0 0 1-.03.06.1.1 0 0 1-.05.03l-1.81.33a.06.06 0 0 0-.04.03.07.07 0 0 0-.01.05l.02.08c.02.03.04.05.08.05h1.29a.1.1 0 0 1 .1.06.1.1 0 0 1 0 .04v.08a.08.08 0 0 1-.08.08l-2.07.19c-.35.03-.4.15-.12.38.24.2.4.4.51.61a.16.16 0 0 1 0 .14.24.24 0 0 1-.04.06c-.06.05-.12.03-.2-.04a3.89 3.89 0 0 0-1.1-.72c-.37-.16-.62-.33-.74-.53-.37-.6 0-1.53.7-1.64a8.24 8.24 0 0 0 2.33-.7l.07.04.06.07a.08.08 0 0 1-.03.13c-.32.12-.54.21-.64.28Z" fill="#2D593B"/><path d="M40.3 33.28c0-.03 0-.04-.04-.04l-.18.05c-.03 0-.05.02-.06.05l-.46 1.27c-.02.05-.05.07-.1.07h-.17c-.05 0-.06-.03-.05-.07l.58-1.55c0-.03 0-.05-.04-.06a.2.2 0 0 1-.1-.06c-.23.28-.37.56-.43.86a.2.2 0 0 1-.1.13.19.19 0 0 1-.16 0 .29.29 0 0 1-.12-.07c-.05-.06-.05-.14 0-.23l.63-1.2c.24-.45.14-.56-.3-.35a3.9 3.9 0 0 1-.45.14c-.12.03-.19-.01-.19-.14v-.1a.05.05 0 0 1 .03-.03c.51-.23.96-.51 1.34-.87.07-.06.16-.1.25-.1.57-.07.93.18 1.1.73.02.08.02.16.01.24a.48.48 0 0 0 0 .21c.02.08.07.1.15.07.5-.2.75.12.8.6 0 .1.05.15.13.19l.48.17c.06.03.12.06.16.1l1.07 1.09c.02.02.03.04.03.07l-.02.12c0 .07-.04.08-.1.01-.12-.13-.2-.21-.25-.24-.3-.19-.37-.12-.2.21.05.12.18.19.37.22.08.01.12.06.12.15v.12c0 .08-.04.1-.11.09-.14-.05-.23-.12-.25-.24-.02-.06-.06-.1-.13-.1l-.07.02a.11.11 0 0 0-.06.1.12.12 0 0 0 .06.1c.15.1.25.28.29.52a.09.09 0 0 1-.03.08.09.09 0 0 1-.08.01c-.11-.03-.23-.16-.35-.39a.17.17 0 0 0-.04-.04c-.1-.1-.18-.12-.25-.09-.06.03-.07.08-.04.14l.11.22c.05.15 0 .17-.14.06a.75.75 0 0 1-.21-.26c-.05-.08-.03-.15.05-.2.04-.04.07-.09.08-.16a.15.15 0 0 0-.07-.15.15.15 0 0 0-.06-.02c-.21-.02-.35-.12-.42-.29-.05-.11-.11-.12-.2-.03-.08.11-.14.26-.17.45a.06.06 0 0 1-.05.06l-.11.03c-.06.01-.09-.01-.1-.07-.04-.51 0-.97.14-1.38a.2.2 0 0 0 0-.13.2.2 0 0 0-.09-.1l-.48-.28c-.13-.08-.24-.06-.33.06l-.27.37c-.1.14-.08.24.08.3.2.06.27.25.19.55a.09.09 0 0 1-.1.07.1.1 0 0 1-.04-.02.46.46 0 0 1-.16-.26c-.03-.14-.09-.15-.17-.03a.93.93 0 0 0-.1.37.24.24 0 0 1-.14.19.27.27 0 0 1-.12.03c-.12 0-.16-.06-.13-.17l.34-1.17ZM11.49 32.87l-.03-.46c-.35-.23-.8-.38-1.31-.44a.18.18 0 0 1-.17-.13.12.12 0 0 1 .07-.14l.05-.01c.5.04.96.19 1.38.44a.12.12 0 0 0 .15-.02l.09-.09a.16.16 0 0 0 0-.2.15.15 0 0 0-.05-.05l-.88-.32a.09.09 0 0 1-.04-.05.08.08 0 0 1 0-.06l.03-.1c.02-.05.05-.07.1-.05.7.32 1.4.55 2.06.68.76.14 1.31.9.9 1.58-.07.13-.35.32-.81.55-.4.2-.75.45-1.08.75-.08.08-.12.06-.12-.05V34.49l.67-.67a.16.16 0 0 0-.02-.24.16.16 0 0 0-.08-.03l-2.38-.12c-.04 0-.06-.02-.06-.07v-.08c0-.04.02-.06.06-.07.43-.05.85-.06 1.26-.03.1 0 .17-.01.2-.06.04-.05.04-.14 0-.25Z" fill="#2D593B"/><path d="M23.1 34.71a8.84 8.84 0 0 1-1-2.8c-.04-.23.06-.36.3-.4h.1c.17-.03.27.04.3.2.27 1.06 1.11 2.59 2.17 3.15a.3.3 0 0 0 .42-.15.3.3 0 0 0 .02-.16l-.15-1.24a1.2 1.2 0 0 1 .26-.94l.24-.31c.22-.28.37-.25.45.1.14.6.15 1.52.44 2.35.45 1.26.53 2.57.24 3.93-.09.4-.04.88-.02 1.37 0 .09-.04.14-.13.15l-2.15.27c-.15.02-.19-.04-.12-.17.6-1.3.3-2.15-.93-2.57-1.8-.6-3.11-.91-4.1-2.32-.1-.14-.1-.28.02-.4a.17.17 0 0 1 .24-.01l1.04 1.05c.02.02.05.02.08 0l.09-.08-1.17-1.45c-.12-.15-.12-.3-.02-.45a.27.27 0 0 1 .1-.09c.08-.04.17-.03.24.04l1.58 1.6.02-.01.06-.1c.02-.03.02-.07-.01-.1-.76-.75-1.39-1.6-1.88-2.54-.13-.25-.07-.43.2-.53h.03c.27-.1.47-.03.62.24a7.11 7.11 0 0 0 2.3 2.48c.2.14.24.1.12-.11Z" fill="#280D0A"/><path d="m16.88 32.7-.48-.83a.14.14 0 0 1 0-.16.1.1 0 0 1 .06-.05c.02 0 .03 0 .04.02.3.42.46.78.46 1.09 0 .09-.04.16-.11.22a3 3 0 0 0-.86 1 .54.54 0 0 1-.19.2c-.3.18-.62.13-.96-.15a.34.34 0 0 1-.12-.23l-.17-1.34c0-.07.02-.09.08-.07l.09.04c.02 0 .03.02.03.04.04.19.13.34.27.44.08.06.15.05.2-.03.18-.2.33-.48.47-.82.17-.44.33-.45.47-.02.02.08.13.19.32.32.07.06.1.13.06.21a.21.21 0 0 0 .03.22c.04.06.1.08.17.05l.1-.03a.08.08 0 0 0 .04-.12ZM37.49 33.45l-.08-.61.01-.07a.1.1 0 0 1 .05-.04l.1-.03c.09-.04.13 0 .13.08 0 .34.1.65.28.92.04.05.07.06.12.03l.06-.04c.07-.04.08-.09.04-.15-.23-.3-.3-.64-.24-1l.01-.03a.06.06 0 0 1 .08-.02l.07.04c.02.01.03.03.03.05.06.28.14.53.27.75a.27.27 0 0 1 .02.23l-.28.75a.15.15 0 0 0 .1.2l.09-.01.44-.17c.07-.03.12 0 .15.06l.03.08a.1.1 0 0 1-.03.12 2.24 2.24 0 0 0-1.04.69.37.37 0 0 1-.23.12c-.65.1-.92-.56-.78-1.13.07-.34.08-.7 0-1.1 0-.04.01-.08.05-.1l.08-.05c.05-.02.08-.01.1.04.04.14.1.27.15.39.02.05.05.08.08.09a.1.1 0 0 0 .09 0c.04-.02.05-.05.05-.1ZM35.34 36.3c.2-.56.11-.6-.25-.13-.2.26-.41.57-.64.95a.12.12 0 0 1-.12.06h-.1a.05.05 0 0 1-.05-.06v-.02l.75-1.08c.03-.03.03-.07 0-.1a.1.1 0 0 0-.06-.04c-.04 0-.08.01-.13.04-.26.22-.5.46-.71.73-.01.02-.03.02-.05.01l-.07-.04a.09.09 0 0 1-.04-.1.1.1 0 0 1 .02-.03l.75-.84c.03-.03.03-.06.01-.09l-.04-.06a.09.09 0 0 0-.06-.03.08.08 0 0 0-.06.02c-.19.2-.37.3-.56.35-.22.05-.24 0-.06-.12.38-.27.72-.62 1.01-1.05.43-.63 1.18-.89 1.67-.07l.01.05.02.11.1 1.69c0 .03 0 .05-.02.05l-.06-.01c-.03-.01-.05-.04-.06-.08a6.88 6.88 0 0 0-.4-.83.12.12 0 0 0-.12 0 .12.12 0 0 0-.04.05l-.82 1.52c0 .02-.02.03-.05.03h-.14c-.07 0-.1-.04-.05-.1.23-.37.37-.63.42-.78ZM12.86 35.45c.08-.01.1-.06.04-.12l-.08-.1c-.03-.04-.06-.05-.1-.03l-.62.16c-.06.02-.09 0-.1-.06v-.1c-.01-.04 0-.06.04-.07a5.37 5.37 0 0 0 1.79-.81c.53-.38 1.26.05 1.42.62.05.2 0 .49-.2.88-.14.31-.24.64-.3.99-.02.1-.08.12-.17.1a.12.12 0 0 1-.06-.04.16.16 0 0 1-.04-.1c-.02-.22-.01-.4.02-.54.09-.38-.02-.45-.34-.22l-1.35 1.03c-.04.03-.08.03-.12.02-.07-.04-.07-.12 0-.25a.3.3 0 0 1 .08-.08l.69-.56a.1.1 0 0 0 .01-.13l-.04-.06c-.02-.02-.03-.02-.04-.01l-1.32.81a.11.11 0 0 1-.1.01.12.12 0 0 1-.07-.06l-.05-.11c-.02-.05 0-.09.04-.11l1.11-.63c.04-.02.05-.05.03-.09l-.06-.1a.06.06 0 0 0-.04-.04h-.04c-.38.2-.66.31-.86.37-.35.11-.38.06-.1-.17.25-.19.56-.32.93-.4ZM18.34 35.5c-.35.2-.68.52-1 .95-.05.08-.1.07-.1-.03-.03-.21.08-.4.33-.54a.08.08 0 0 0 .04-.08v-.1a.04.04 0 0 0-.02-.04h-.05l-1 .72c-.04.03-.06.02-.08-.03l-.03-.1c.27-.18.5-.4.69-.67.05-.07.05-.14 0-.2l-.2-.28c-.05-.08-.04-.15.03-.21.6-.47 1.55-1.16 1.97-.23a.2.2 0 0 1 .02.11l-.24 1.38-.02.04a.05.05 0 0 1-.04.01h-.08c-.04 0-.06-.02-.06-.06v-.56c0-.12-.05-.15-.16-.09ZM25.2 41.11a6 6 0 0 0-3.37 1.78c-.01.01-.03.02-.04 0l-.1-.02c-.04-.02-.05-.05-.01-.09 2.4-2.81 6.1-3.2 8.93-.77 1.34 1.13 2.58 1.06 4.2.7.44-.1.46-.05.06.15a4.92 4.92 0 0 1-3.82.3c-.32-.11-1-.5-2.01-1.15a5.35 5.35 0 0 0-3.85-.9Z" fill="#2D593B"/><path d="M31.52 44c-1.14.08-2.42-.58-3.39-1.25a8.35 8.35 0 0 0-2.43-.8c-.5-.1-1.16.13-1.66.18-.06 0-.1-.03-.1-.1 0-.02.01-.05.03-.07a4.65 4.65 0 0 1 1.17-.36 7.56 7.56 0 0 1 3.1.57c.33.14.85.45 1.54.93.5.33 1.08.58 1.75.74.32.08.32.13 0 .15Z" fill="#2D593B"/></svg>