<!-- by TradingView --><svg width="56" height="56" viewBox="0 0 56 56" xmlns="http://www.w3.org/2000/svg"><path fill="#F0F3FA" d="M0 0h56v56H0z"/><path d="M21 18.6V37h1.86c1.8 0 2.18-1.27 2.14-1.9V16.17a3.15 3.15 0 0 0-1.03-.17c-2.56 0-3.04 1.73-2.96 2.6ZM16.65 25c2.57-.1 2.64-2.46 2.36-3.62-.78-.13-2.95-.38-5.37-.38C8.16 21 7 23.82 7 25.84s1.1 3.79 4 4.53a34 34 0 0 0 2.24.47c1.64.3 2.66.5 2.66 1.37 0 1.22-3.06.96-4.47.84h-.03l-.63-.07c-1.18-.13-2.31-.26-3 .77-.65.96-.47 2.28-.3 2.82C14.14 37.6 20 37.03 20 32.2c0-4.37-4.28-4.99-6.58-5.32-.23-.03-.45-.06-.63-.1-1.62-.27-1.87-.74-1.8-.95 0-1.01 1.18-.96 2.97-.87.79.04 1.7.08 2.68.04ZM25 28.67l4.55 7.05c.34.43 1.42 1.29 2.97 1.29 1.55 0 2.36-.3 2.57-.46l-5.05-7.6 3.6-3.85 5.67 9.02L36 41.63c.25.12 1.02.37 2.06.37 1.84 0 2.52-1.06 2.63-1.59L49 21.48c-.27-.16-1-.48-1.84-.48a3.12 3.12 0 0 0-2.85 1.74l-3.13 7.11-5.2-8.5.02-.04c-.1-.1-.61-.31-1.98-.31-1.7 0-2.9 1.06-3.79 1.9-.7.67-3.78 4.12-5.23 5.76Z" fill="url(#a124ywc3n)"/><path d="M21 18.6V37h1.86c1.8 0 2.18-1.27 2.14-1.9V16.17a3.15 3.15 0 0 0-1.03-.17c-2.56 0-3.04 1.73-2.96 2.6ZM16.65 25c2.57-.1 2.64-2.46 2.36-3.62-.78-.13-2.95-.38-5.37-.38C8.16 21 7 23.82 7 25.84s1.1 3.79 4 4.53a34 34 0 0 0 2.24.47c1.64.3 2.66.5 2.66 1.37 0 1.22-3.06.96-4.47.84h-.03l-.63-.07c-1.18-.13-2.31-.26-3 .77-.65.96-.47 2.28-.3 2.82C14.14 37.6 20 37.03 20 32.2c0-4.37-4.28-4.99-6.58-5.32-.23-.03-.45-.06-.63-.1-1.62-.27-1.87-.74-1.8-.95 0-1.01 1.18-.96 2.97-.87.79.04 1.7.08 2.68.04ZM25 28.67l4.55 7.05c.34.43 1.42 1.29 2.97 1.29 1.55 0 2.36-.3 2.57-.46l-5.05-7.6 3.6-3.85 5.67 9.02L36 41.63c.25.12 1.02.37 2.06.37 1.84 0 2.52-1.06 2.63-1.59L49 21.48c-.27-.16-1-.48-1.84-.48a3.12 3.12 0 0 0-2.85 1.74l-3.13 7.11-5.2-8.5.02-.04c-.1-.1-.61-.31-1.98-.31-1.7 0-2.9 1.06-3.79 1.9-.7.67-3.78 4.12-5.23 5.76Z" fill="url(#b124ywc3n)"/><defs><linearGradient id="a124ywc3n" x1="6" y1="23.1" x2="45.29" y2="35.2" gradientUnits="userSpaceOnUse"><stop stop-color="#FF4E19"/><stop offset=".5" stop-color="#FD008F"/><stop offset="1" stop-color="#2356FF"/></linearGradient><linearGradient id="b124ywc3n" x1="19.11" y1="16.98" x2="22.68" y2="34.97" gradientUnits="userSpaceOnUse"><stop stop-color="#FF9429"/><stop offset=".4" stop-color="#FC5474"/><stop offset=".58" stop-color="#fff" stop-opacity=".5"/><stop offset=".62" stop-color="#fff" stop-opacity="0"/></linearGradient></defs></svg>