<!-- by TradingView --><svg width="56" height="56" viewBox="0 0 56 56" xmlns="http://www.w3.org/2000/svg"><path fill="url(#a)" d="M0 0h56v56H0z"/><path d="M42.98 26.8 47.1 23h1.57l-5.42 4.82-.28-1.03Zm.52 5.2H42V20h1.5v12Zm.1-5.42L49 32h-1.68l-4.57-4.62.86-.8ZM35.88 32a6.17 6.17 0 0 1-2.88-.72V30.1c.91.5 1.73.89 2.8.89.81 0 1.7-.5 1.7-1.5 0-.97-.84-1.22-1.57-1.53-1.36-.37-2.9-.82-2.9-2.5 0-1.65 1.54-2.47 3.02-2.47.9 0 1.67.32 2.48.67v1.24c-.76-.4-1.6-.91-2.48-.91-.72 0-1.55.6-1.55 1.5 0 1.07 1.01 1.08 1.83 1.32 1.3.41 2.67.93 2.67 2.53 0 1.72-1.54 2.65-3.12 2.65ZM27.3 32c-2.72 0-4.3-1.93-4.3-4.56 0-2.5 1.36-4.44 4-4.44 2.76 0 4.03 2.45 4 5h-7.34l.09-1h6.39l-.51.17c-.07-1.6-1-3.17-2.63-3.17-2.15 0-2.5 1.6-2.5 3.5 0 1.85.87 3.5 2.8 3.5 1.09 0 2.18-.2 3.13-.74v1.14c-.87.38-1.84.6-3.13.6ZM20.5 32H19V20h1.5v12ZM12.61 32a6.1 6.1 0 0 1-2.61-.8h.5V36H9V24.78C9 23.14 11.5 23 12.72 23c2.86 0 4.28 2.18 4.28 4.86 0 2.66-1.7 4.14-4.39 4.14Zm0-1c1.94 0 2.89-1.16 2.89-3 0-1.95-.57-4-2.78-4-.5 0-2.22.18-2.22 1v5.37a4 4 0 0 0 2.11.63Z" fill="#F0F3FA"/><path fill="#39B6E8" d="M17 35h8v1h-8z"/><defs><linearGradient id="a" x1="10.42" y1="9.71" x2="68.15" y2="76.02" gradientUnits="userSpaceOnUse"><stop stop-color="#1A1E21"/><stop offset="1" stop-color="#06060A"/></linearGradient></defs></svg>