<!-- by TradingView --><svg width="56" height="56" viewBox="0 0 56 56" xmlns="http://www.w3.org/2000/svg"><path fill="#193A7D" d="M0 0h56v56H0z"/><path d="M44.8 28.36c-.3-.27-.48-.66-.54-1.15a1.5 1.5 0 0 0-.43-.8.65.65 0 0 1-.1-.28c0-.16.06-.15.17.02a9.4 9.4 0 0 1 .13.16v-.02a.1.1 0 0 0-.02-.09c-.19-.26-.3-.56-.35-.92a.13.13 0 0 0-.03-.06.06.06 0 0 0-.03-.02c-.04-.01-.05 0-.02.03.04.04.05.1.05.15-.01.08-.04.09-.1.03-.13-.15-.22-.3-.28-.44a.7.7 0 0 0-.19-.25c-.25-.23-.42-.5-.5-.82a.32.32 0 0 0-.2-.23c-.18-.07-.28-.22-.3-.46a1.97 1.97 0 0 0-.72-.98.48.48 0 0 1-.22-.45c.01-.1-.03-.17-.11-.22l-.67-.4c-.02.02-.07 0-.14-.08.05-.11.02-.22-.1-.3-.37-.3-.7-.64-1-1.01a1.67 1.67 0 0 0-.41-.38c-.1-.06-.26-.15-.49-.26l-1.58-1.24-1.18-.6a.81.81 0 0 0-.81-.36c-.13-.28-.38-.4-.76-.4-.47-.32-.84-.4-1.1-.25a.69.69 0 0 0-.57-.22c-.13.02-.14.06-.03.13.12.08.3.13.5.15l-.5.03a4.42 4.42 0 0 0-1.5-.66c-.38 0-.74-.06-1.07-.16-.36-.1-.72-.16-1.07-.16-.4 0-.78-.04-1.15-.13-.41-.1-.85-.12-1.32-.07-.57.08-1.13.12-1.67.13a.36.36 0 0 0-.31.16c-.13.19-.23.32-.31.4-.12.1-.27.2-.44.26l-2.2.86c-.26.1-.58.18-.96.22-.08 0-.13-.02-.16-.1 0-.04-.03-.05-.08-.05a.34.34 0 0 0-.22.13c-.09.12-.2.2-.33.25-.4.15-.8.33-1.2.54-.03.01-.04.03-.02.05.01.03 0 .05 0 .07a.15.15 0 0 1-.09.06c-.42.12-.84.3-1.24.53l-1.04.72a.35.35 0 0 0-.16.31c0 .13.06.23.17.3.13.1.25.2.34.32.08.1.07.18-.03.26-.91.74-1.71 1.67-2.4 2.77a.4.4 0 0 1-.22.18c-.16.05-.27 0-.35-.15a.24.24 0 0 0-.19-.13.25.25 0 0 0-.22.06c-.76.72-1.13 1.47-1.11 2.25a2.53 2.53 0 0 1 .42-2c.16-.26.45-.53.87-.82.25-.17.43-.3.55-.41a.6.6 0 0 0 .17-.25c.2-.57.57-1.05 1.11-1.45a.73.73 0 0 0 .33-.62c0-.8.31-1.34.96-1.63.33-.15.8-.41 1.4-.8.52-.31.91-.54 1.18-.68.46-.22.9-.36 1.34-.43.66-.1 1.22-.25 1.67-.43.74-.3 1.44-.61 2.1-.92.3-.15.78-.18 1.46-.12.39.04.96.05 1.7.05.86-.01 1.51.02 1.97.07 1.15.15 2.34.26 3.56.34a11.18 11.18 0 0 1 3.46 1.14c.16.1.28.16.36.17.12.01.23.05.33.13.5.38 1.03.74 1.6 1.1.09.05.2.15.32.3.12.14.23.24.3.3.58.4 1.1.81 1.54 1.22.2.18.37.4.5.64a2 2 0 0 0 .5.59c.38.32.72.68 1.02 1.07.08 0 .14.03.16.08.1.16.06.17-.11.02a2.63 2.63 0 0 1-.48-.57c-.03-.04-.06-.04-.1-.02l-.06.04v.02l1.07 1.48c.4.58.74 1.19 1 1.84.41 1.05.74 2.16.98 3.32Z" fill="#7182AF"/><path d="M32.17 16.37c.24.2.55.3.92.3l1.99.7.1.04a.2.2 0 0 1 .02.08c.02.1.08.17.18.2.24.07.4.17.5.3-.09.16.06.3.44.4.2.06.34.18.4.37.04.08.1.14.18.17l.89.34.84.68c.03.02.05.02.07-.01.03-.04.03-.07.01-.08-.1-.1-.09-.12.04-.06.06.04.12.05.16.05.02.07.07.12.13.15l1.73 2c.08.09.1.08.07-.05-.06-.2-.18-.4-.36-.56.13-.05.22 0 .28.14.2.46.49.83.87 1.11l-.53-.33c-.1-.06-.12-.04-.07.06.42.96.96 1.83 1.63 2.6-.13.48-.11.87.07 1.18.03.07.1.08.17.04.08-.03.15-.01.2.05.2.27.34.57.42.9.01.07 0 .12-.07.15-.05.04-.11.03-.16 0a.27.27 0 0 1-.1-.15c0-.05-.04-.05-.07-.03-.02.01-.03.04-.02.07-.08-.01-.14 0-.18.04-.02.03-.03.08-.01.15l.1.58c-.14-.12-.2-.26-.15-.43-.26-.34-.39-.7-.37-1.09 0-.09-.05-.14-.14-.15a.2.2 0 0 1-.07-.02c-.11-.05-.11-.1 0-.14.22-.1.3-.25.23-.46-.04-.11-.16-.3-.36-.58l-1.8-2.72-.62-.7c.12-.45-.16-.9-.84-1.36a.16.16 0 0 0-.07-.02h-.03c-.1-.03-.11-.02-.02.04.24.16.41.37.52.63.05.1.02.18-.1.21-.15.05-.27.01-.37-.1-.04-.05-.04-.1 0-.16.08-.1.07-.18-.02-.24a2.64 2.64 0 0 1-.8-.89.45.45 0 0 0-.25-.21l-1.07-.36a.24.24 0 0 0-.28.07c-.07.09-.08.21-.02.37-.08 0-.13-.03-.16-.08l-.22-.57a.55.55 0 0 0-.17-.23 9.4 9.4 0 0 0-5.99-2.07.43.43 0 0 0-.31.12l-.23.22c-.07.06-.07.13.01.19.2.15.28.37.26.65-.01.21-.11.28-.3.22a3.16 3.16 0 0 0-1.28-1.9c-.06-.04-.11-.03-.15.03l-.05.06c-.02.04-.01.06.02.07.94.48 1.22 1.15.84 2.01-.05.12-.18.27-.37.43l-.16.13c-.1.08-.1.17-.03.27l.31.47c.4.62.5 1.04.3 1.23a1.09 1.09 0 0 0-.59.02l-.97-1.05a1.09 1.09 0 0 0-.68-.8c-.09-.03-.13-.1-.13-.2l.06-.74c0-.1-.02-.2-.07-.28a.33.33 0 0 1-.06-.22c.02-.16.1-.2.23-.1.12.07.21.16.29.27.07.11.17.16.3.14l.31-.03c.13-.02.2-.1.18-.23a.44.44 0 0 0-.2-.34.55.55 0 0 0-.4-.08c-.16.02-.32.03-.47.02-.12-.01-.17-.07-.16-.19.04-.3-.03-.53-.2-.66s-.26-.14-.27-.03a.48.48 0 0 1-.28-.16c-.07-.08-.16-.1-.26-.03-.6.43-.83 1.04-.67 1.86.02.07-.02.12-.1.13-.1 0-.14-.01-.15-.07 0-.1-.02-.1-.03 0l-.08.36c-.01.07 0 .08.07.04h.09c.07.03.1.07.1.13 0 .19.08.32.24.4.07.03.11.08.13.15.02.06.01.13-.03.19-.4.6-.43 1.08-.1 1.4l-.13.06c-.09.03-.11.1-.08.18.08.19.22.31.44.37.13.04.34.06.63.06H26l-1.22 1.1a.72.72 0 0 1-.25.14 1 1 0 0 0-.59.5c-.31.24-.68.43-1.1.55a.44.44 0 0 0-.24.16c-.14.2-.32.34-.53.43a.64.64 0 0 0-.33.32.92.92 0 0 0-.1.49c.01.1.05.12.13.06 1-.73 2.1-1.32 3.3-1.77.54 0 1.05-.18 1.54-.53a.46.46 0 0 0 .15-.24c.03-.1.1-.15.2-.16a7.35 7.35 0 0 1 3.06.24c.1.03.19.02.28-.02a.49.49 0 0 1 .35-.03c.2.05.26-.02.19-.2a.66.66 0 0 0-.53-.45.08.08 0 0 1-.06-.05.08.08 0 0 1 0-.08c.12-.16.28-.2.48-.13.06.21.23.41.5.61a6.04 6.04 0 0 0 1 .56c-.08.32 0 .52.26.6.1.02.18.06.25.12l1.36 1.09h-.23c-.06 0-.1.02-.13.07-.02.05 0 .1.03.13.14.14.34.3.62.47.23.15.4.28.5.37.18.17.33.37.45.6-.14 0-.22.09-.26.23a6.53 6.53 0 0 0-2.04-1.7 8.1 8.1 0 0 1-1.4-.69.35.35 0 0 1-.15-.16c-.05-.1-.14-.14-.28-.1-.6-.16-1.27-.31-2-.46a4.86 4.86 0 0 0-1.85-.01c-.67.13-1.34.24-2 .33-.26.04-.52.13-.77.26-.26.15-.53.27-.81.37-.4.15-.76.37-1.1.65-.57.48-1.05.95-1.43 1.42-.33.4-.68.86-1.05 1.35-.18.25-.36.65-.54 1.2-.06.2-.1.36-.14.45-.13.34-.22.77-.29 1.3-.06.48-.18.91-.36 1.32-.23.1-.37.21-.42.32-.05.14 0 .19.14.14.21-.07.36 0 .44.23a3.29 3.29 0 0 1 .2.88c-.1-.3-.24-.6-.41-.9a.28.28 0 0 0-.22-.15 4.22 4.22 0 0 0-1.53.1c-.26-.01-.66-.05-1.2-.1-.51-.07-.9-.1-1.14-.1-1.2-.03-2.17-.1-2.95-.23-.42-.07-.64-.31-.66-.75l.33.21c.37.25.66.39.85.4.33.05.67-.01 1.04-.18.1-.04.16-.12.17-.23l.1-1.04c.01-.09.06-.15.13-.19.17-.08.29-.16.36-.25.08-.08.15-.21.24-.4.13-.27.32-.5.59-.67.1-.06.17-.14.22-.23.2-.36.54-.52 1.02-.5.12.01.16-.04.1-.15a.47.47 0 0 0-.1-.12c.21.04.4.12.57.23.06.04.12.05.18.04a.21.21 0 0 0 .15-.11c.29-.51.57-1.06.84-1.64.16-.35.2-.69.1-1.02-.09-.3-.28-.6-.58-.86-.11-.23-.3-.42-.57-.55a.21.21 0 0 1-.14-.2v-.23c0-.1.05-.18.15-.21l.54-.19a.45.45 0 0 0 .27-.24 1 1 0 0 1 .23-.3c.08-.08.16-.09.25-.03.2.15.43.26.68.34.48.52 1.04.62 1.66.3.78-.4 1.52-.79 2.23-1.19.06-.03.1-.08.11-.14a.22.22 0 0 0-.02-.18l-2.05-3.55a5.62 5.62 0 0 0 1.82-.84.43.43 0 0 1 .28-.08c.31.01.48-.1.5-.33a.22.22 0 0 0-.1-.22.23.23 0 0 0-.23-.02l-2.54 1.07a.53.53 0 0 0-.36-.2c-.1-.02-.15.02-.15.13 0 .04.04.08.09.12a2.63 2.63 0 0 0-.34-.02c-.1 0-.2.03-.31.09-.53.3-.66.51-.41.61l-.36.19c.05-.07.07-.11.06-.13-.05-.1-.13-.13-.23-.1a.6.6 0 0 1-.57-.15.3.3 0 0 0-.26-.08l-.83.13c.4-.24.82-.41 1.24-.53a.15.15 0 0 0 .08-.06c.02-.02.02-.04 0-.07 0-.02 0-.04.02-.05.4-.21.8-.4 1.2-.54a.76.76 0 0 0 .34-.25.34.34 0 0 1 .22-.13c.05 0 .07.01.08.05.03.08.08.1.16.1.38-.04.7-.11.96-.22l2.2-.86c.17-.07.32-.16.44-.27.08-.07.18-.2.31-.39.07-.1.18-.16.3-.16.55-.01 1.11-.05 1.68-.13.47-.05.9-.03 1.32.07.37.1.75.14 1.15.13.35 0 .71.05 1.07.16.33.1.7.16 1.08.16.24 0 .74.23 1.5.66Z" fill="#DADBE8"/><path d="m25.87 16.39.07 4.25c0 .1-.05.16-.15.18-.32.05-.65.05-1-.02-.32-.33-.29-.8.11-1.41a.22.22 0 0 0 .03-.2.23.23 0 0 0-.13-.14.4.4 0 0 1-.24-.4c0-.06-.04-.1-.1-.13h-.1c-.05.04-.07.03-.06-.04l.07-.36c.02-.1.03-.1.04 0 0 .06.06.08.15.07.08-.01.12-.06.1-.13-.16-.82.06-1.43.67-1.86.1-.06.18-.05.26.03.08.09.17.14.28.16Z" fill="#EFF1F5"/><path d="M32.77 16.28c.26.25.63.34 1.1.26.38-.02.63.11.76.39l.8.37 1.19.59c.26.3.56.57.9.8.06.05.1.1.14.17l.09.2a8 8 0 0 1-.91-.71c-.21-.18-.53-.3-.96-.36-.1-.13-.26-.23-.5-.3-.1-.03-.16-.1-.18-.2a.2.2 0 0 0-.03-.08l-.1-.04-1.98-.7a.87.87 0 0 1-.42-.33 1.08 1.08 0 0 1-.5-.15c-.11-.07-.1-.11.03-.13.22-.01.42.06.57.22Z" fill="#A7ACC1"/><path d="M29.28 18.09c-.01.3-.07.55-.17.74-.06.12-.2.28-.39.48l-.32.35-.31-.47c-.08-.1-.06-.2.03-.27l.15-.13c.2-.16.33-.3.38-.43.38-.86.1-1.53-.84-2-.03-.02-.04-.04-.02-.08l.05-.06c.04-.06.09-.07.15-.03.67.48 1.1 1.1 1.29 1.9Z" fill="#030306"/><path d="M33.87 16.54c-.47.08-.84 0-1.1-.26.26-.15.63-.07 1.1.26Z" fill="#8591AB"/><path d="M27.14 19.86a.81.81 0 0 1-.52-.26c-.3-.37-.41-.32-.31.15.2.88.09 1.46-.31 1.72l-.34-.01c-.3 0-.5-.02-.63-.06a.62.62 0 0 1-.44-.37c-.03-.08 0-.15.08-.18l.13-.05c.34.07.67.07.99.02.1-.02.15-.08.15-.18l-.07-4.25c0-.11.1-.1.27.03s.23.35.2.66c-.01.12.04.18.16.19.15 0 .3 0 .46-.02.15-.03.29 0 .4.08.13.08.2.2.21.34.02.13-.05.2-.18.23l-.3.03a.3.3 0 0 1-.31-.14.92.92 0 0 0-.29-.28c-.14-.09-.21-.05-.23.1 0 .09.01.16.06.23.05.08.07.18.07.28l-.06.75c0 .1.04.16.13.2.36.14.6.41.68.8Z" fill="#030306"/><path d="m32.17 16.37.5-.03c.09.14.23.25.42.34-.37-.01-.68-.11-.92-.3Z" fill="#C2C5D4"/><path d="M36.21 19.56a.36.36 0 0 0-.1.22c-.26-.56-.58-.8-.96-.73a.2.2 0 0 0-.17.18l-.24 1.37c.02-.04 0-.12-.04-.24a1.6 1.6 0 0 0-.9-.37c-.1-.01-.19.01-.27.06l-2.67 1.64c.03.02 0 .05-.13.1-.2-.08-.36-.03-.47.13a.08.08 0 0 0 .06.13c.25.05.42.2.52.44.07.2 0 .26-.2.21a.49.49 0 0 0-.34.03.38.38 0 0 1-.28.02c-1-.3-2.03-.37-3.07-.24a.23.23 0 0 0-.2.16.46.46 0 0 1-.14.24c-.49.35-1 .53-1.53.53.04-.38-.34-.46-1.14-.24a1 1 0 0 1 .59-.5c.09-.03.17-.08.25-.14l1.22-1.1c.4-.25.5-.83.3-1.71-.1-.47.01-.52.32-.15.12.14.29.23.52.26l.97 1.05c-.02-.07-.05-.04-.1.07a.21.21 0 0 0-.01.16c.02.05.05.09.1.12.34.17.71.25 1.13.23.16-.01.23-.1.2-.25-.07-.3-.32-.42-.73-.35.2-.2.1-.6-.3-1.23l.33-.36c.19-.2.32-.35.38-.47.1-.2.16-.44.17-.74.18.06.28 0 .3-.22.01-.28-.07-.5-.27-.65-.08-.06-.08-.13 0-.2l.22-.2c.08-.1.19-.13.31-.13 2.27 0 4.26.7 6 2.07.07.06.13.14.16.23l.21.57Z" fill="#A7ACC1"/><path d="M34.63 16.93c.34-.04.6.08.8.37l-.8-.37Z" fill="#8591AB"/><path d="m20.77 18.53-.28-.42 2.55-1.07a.23.23 0 0 1 .23.02c.08.06.11.13.1.22-.02.23-.19.34-.5.33-.1 0-.2.02-.28.08-.55.39-1.16.67-1.82.84Z" fill="#A7ACC1"/><path d="m20.5 18.11.27.42 2.05 3.55c.03.06.04.12.02.18a.23.23 0 0 1-.1.14c-.72.4-1.46.8-2.24 1.2-.62.31-1.18.2-1.66-.31-.1-.18-.1-.21.04-.08.34.13.78.09 1.32-.13.32-.13.78-.37 1.38-.74l.58-.33c.1-.05.11-.12.06-.2l-2.14-3.65c-.05-.04-.08-.08-.09-.12 0-.1.04-.15.15-.14.13.01.25.09.36.21Z" fill="#030306"/><path d="m36.62 17.89 1.58 1.24-.45-.07a1.95 1.95 0 0 0-.09-.2.47.47 0 0 0-.14-.16c-.34-.23-.64-.5-.9-.81Z" fill="#8591AB"/><path d="M35.88 18c.43.05.75.17.96.35a8 8 0 0 0 .91.7c.04.06.06.13.04.22l-.89-.34a.29.29 0 0 1-.17-.17.57.57 0 0 0-.41-.37c-.38-.1-.53-.24-.44-.4Z" fill="#C2C5D4"/><path d="m20.08 18.16 2.14 3.64c.05.1.03.16-.06.2l-.58.34c-.6.37-1.06.61-1.38.74-.54.22-.98.26-1.32.13L17 20.54c-.07-.09-.14-.1-.24-.06-.04.02-.06.05-.06.11a.3.3 0 0 1-.1.24c-.9.8-1.76 1.87-2.56 3.21-.14.25-.35.43-.6.55-.03.02-.05.04-.04.08 0 .04.02.06.06.07.7.16 1.29.12 1.78-.13.37-.19.74-.25 1.1-.17.38.08.69.28.92.62.28.28.3.72.1 1.32a9 9 0 0 1-.85 1.59c-.07.11-.16.13-.28.06l-.57-.33c-.03-.02-.05-.01-.07.02l-.04.07c-.03.04-.02.07.02.1l.6.37c.05.03.08.08.1.12.05.11.02.16-.1.15-.48-.02-.82.14-1.02.5a.65.65 0 0 1-.22.23c-.27.17-.47.4-.6.67-.08.19-.16.32-.23.4-.07.09-.2.17-.36.25a.22.22 0 0 0-.13.19l-.1 1.04a.28.28 0 0 1-.18.23c-.36.17-.7.23-1.03.19-.2-.02-.48-.16-.85-.4l-.33-.22a5.27 5.27 0 0 1 0-2.24c.4-1.34.57-2.6.5-3.78-.02-.78.35-1.53 1.1-2.25a.25.25 0 0 1 .23-.06c.09.01.15.05.19.13.08.15.2.2.35.15a.4.4 0 0 0 .22-.18c.69-1.1 1.49-2.03 2.4-2.77.1-.08.11-.16.03-.26a1.5 1.5 0 0 0-.34-.31.35.35 0 0 1-.17-.3c0-.14.05-.24.16-.32l1.04-.72.83-.13a.3.3 0 0 1 .25.08c.17.15.36.2.58.14.1-.02.18.01.22.1.01.03 0 .07-.05.14-.14.06-.29.2-.43.42-.74-.55-.73-.33.03.66.11.15.21.33.3.54.26.6.61 1.05 1.06 1.34.64.06 1.03-.11 1.17-.5.03-.1 0-.18-.08-.23a1.52 1.52 0 0 1-.5-.49c-.33-.64-.72-1.29-1.2-1.93-.24-.1-.1-.3.42-.61.1-.06.2-.1.31-.1l.34.03Z" fill="#EFF1F5"/><path d="M19.02 18.84c.47.64.86 1.29 1.19 1.93.07.14.24.3.5.49.09.05.12.13.08.23-.14.39-.53.56-1.17.5l-1.4-2.54c.15-.22.3-.36.44-.42l.36-.19Z" fill="#A7ACC1"/><path d="m36.1 19.78-.33 4.6c-.01.12-.07.15-.18.09l-4.73-2.78 2.67-1.64a.42.42 0 0 1 .28-.06c.36.04.66.17.9.37l-1.72 1.25c-.05.04-.05.07 0 .1l.4.31c.04.04.1.04.15.01 1.04-.54 1.44-1.02 1.2-1.43l.24-1.37a.2.2 0 0 1 .17-.18c.38-.07.7.17.95.73Z" fill="#EFF1F5"/><path d="m37.75 19.06.45.07.7.72c-.03 0-.09-.01-.15-.05-.13-.06-.14-.05-.04.06.02.01.01.04 0 .08-.03.03-.05.03-.08 0l-.84-.67c.01-.1 0-.16-.04-.21Z" fill="#A7ACC1"/><path d="M38.2 19.13c.22.1.38.2.48.26.16.1.3.23.41.38.3.37.63.7 1.01 1 .12.1.15.2.1.31L39.04 20a.23.23 0 0 1-.13-.15l-.71-.72Z" fill="#8591AB"/><path d="m18.23 19.45 1.39 2.54c-.45-.29-.8-.73-1.05-1.34-.1-.21-.2-.39-.3-.54-.77-.99-.78-1.21-.04-.66Z" fill="#030306"/><path d="M39.73 21.66c-.34-.29-.67-.26-.98.07-.15.16-.25.34-.32.54-.13.36-.36.56-.7.6a.36.36 0 0 0-.23.12c-.14.15-.25.3-.33.44-.15.26-.27.43-.39.53-.18.14-.36.26-.56.37.03-1.51.13-2.97.29-4.37 0-.07-.04-.17-.13-.32-.06-.16-.06-.28.02-.37.07-.09.17-.11.28-.07l1.06.36c.12.04.2.11.26.21.21.37.48.67.8.89.1.06.1.14.02.24-.05.05-.05.1 0 .16.1.12.22.15.37.1.12-.03.15-.1.1-.21a1.45 1.45 0 0 0-.52-.63c-.1-.06-.09-.07.02-.04h.03c.02 0 .05 0 .07.02.68.46.96.91.84 1.36Z" fill="#EFF1F5"/><path d="M36.21 19.56c.04.05.1.08.17.08.1.15.13.25.13.32a47.2 47.2 0 0 0-.29 4.37c-.07.14-.1.33-.1.57 0 .11-.06.15-.17.11l-.22-.08-3.5-1.97-.24-.12c-.35-.18-.6-.32-.76-.44-.27-.2-.44-.4-.5-.61.12-.05.16-.08.13-.1l4.73 2.78c.11.06.17.03.18-.1l.34-4.6a.36.36 0 0 1 .1-.21Z" fill="#030306"/><path d="m39.04 20 1.16 1.08c.07.07.12.1.14.07 0 .12.04.2.14.24.18.16.3.35.36.56.04.13.01.14-.07.04L39.04 20Z" fill="#A7ACC1"/><path d="M34.7 20.36c.05.12.06.2.04.24.24.41-.16.89-1.2 1.43a.13.13 0 0 1-.15 0l-.4-.31c-.04-.04-.04-.07 0-.1l1.71-1.26Z" fill="#030306"/><path d="M18.88 23.2c-.13-.12-.15-.1-.04.09a2.33 2.33 0 0 1-.68-.34c-.09-.06-.17-.05-.25.02a1 1 0 0 0-.23.3.45.45 0 0 1-.27.25l-.54.19c-.1.03-.15.1-.15.2v.24c0 .1.05.16.13.2.28.13.47.32.58.55-.12-.05-.17 0-.17.16a1.43 1.43 0 0 0-.92-.62 1.65 1.65 0 0 0-1.1.17c-.5.25-1.08.29-1.78.13a.08.08 0 0 1-.06-.07c0-.04 0-.06.04-.08.25-.12.46-.3.6-.55.8-1.34 1.65-2.4 2.56-3.2a.3.3 0 0 0 .1-.25c0-.06.02-.1.06-.11.1-.05.17-.03.23.06l1.9 2.67Z" fill="#A7ACC1"/><path d="M28.11 20.9c.15-.05.35-.06.59-.01.41-.07.66.05.72.35.04.15-.03.24-.19.25-.42.02-.8-.06-1.12-.23a.23.23 0 0 1-.11-.12.21.21 0 0 1 0-.16c.06-.11.1-.14.11-.07Z" fill="#030306"/><path d="m40.34 21.15.67.4c.08.06.12.13.11.23-.01.19.06.34.22.45.33.24.58.56.72.98-.28-.09-.42-.27-.43-.57a2.63 2.63 0 0 1-.87-1.11c-.06-.15-.15-.2-.28-.14-.1-.04-.14-.12-.14-.24Z" fill="#8591AB"/><path d="m39.73 21.66.61.7c-.28-.02-.4.15-.35.53.02.13-.04.17-.16.15a.6.6 0 0 0-.36.03c-.1.04-.15.1-.17.2a.7.7 0 0 1-.33.53c-.75.48-1.43 1-2.07 1.55a.82.82 0 0 0-.28.84c-.13.14-.14.35-.03.62.42 1.05.88 1.64 1.39 1.75.3.07.67 0 1.12-.19a10.03 10.03 0 0 0 1.34-.73.34.34 0 0 0 .16-.21c.05-.23.05-.48-.02-.76l.07-.04c.2.07.33.22.37.44.03.12.1.17.24.15.46-.07.7-.2.73-.39.06-.34-.02-.61-.25-.81-.03-.3-.16-.57-.39-.8a.29.29 0 0 0-.26-.09c-.2.03-.34.15-.43.36-.2-.09-.3.13-.25.65-.32-.22-.6-.31-.82-.28.85-.27 1.34-.79 1.47-1.56 0-.07.05-.1.12-.09.03 0 .05.02.08.03.05.05.1.1.11.18.11.37.3.66.58.88.09.08.17.07.23-.03.04-.06.03-.12-.04-.19.2.27.33.47.37.58.07.21 0 .37-.23.46-.11.05-.11.1 0 .14a.2.2 0 0 0 .07.02c.1.01.14.06.14.15-.02.39.1.75.37 1.1a1.3 1.3 0 0 0-.58-.45c-.24-.09-.44-.06-.6.09a.52.52 0 0 0-.17.6c.04.1 0 .17-.1.22-.8.37-1.49.96-2.06 1.75a.2.2 0 0 0-.04.12c0 .07-.02.13-.08.18l-.44.4c-.12.1-.1.17.04.22.23.08.48.12.77.1.02 0 .02 0 .03.02l.01.1c0 .06-.02.1-.08.1h-1.13c-.07 0-.1.03-.1.1v.11c0 .1.04.14.14.14l2.18-.08c.15.07.3.1.45.06a.18.18 0 0 0 .15-.14l.03-.11c.06.19.15.32.28.4.08.04.11.1.1.19 0 .15.15.32.47.49l-5.04-.24c-.1-.23-.35-.67-.74-1.31-.04-.08-.03-.15.06-.2.09-.06.11-.13.08-.22-.1-.27-.16-.55-.16-.84 0-.16-.06-.3-.16-.43-.3-.37-.48-.78-.53-1.23a.73.73 0 0 0-.1-.3l-.46-.73c.04-.14.12-.22.26-.24l1.18 1.52c.13.17.18.15.16-.07-.04-.3-.15-.55-.32-.78-.11-.13-.2-.29-.27-.45a6.9 6.9 0 0 0-.24-.5 2.57 2.57 0 0 0-.66-.94c-.07-.07-.06-.09.04-.08.4.06.56 0 .5-.17l.22.08c.11.04.17 0 .17-.11 0-.24.03-.43.1-.57.2-.1.38-.23.56-.37.12-.1.24-.27.39-.53.08-.14.19-.29.33-.44.06-.07.14-.1.23-.12.34-.04.57-.24.7-.6.07-.2.17-.38.32-.54.32-.33.64-.36.98-.07Z" fill="#C2C5D4"/><path d="M34.84 21.95c.18-.11.3-.27.25-.34-.05-.07-.24-.03-.42.09-.19.12-.3.27-.25.34.04.07.23.03.42-.09Z" fill="#DADBE8"/><path d="M41.63 22.64c0 .3.15.48.43.57.02.24.12.39.3.46.11.04.18.12.2.23.08.32.24.59.5.82a.7.7 0 0 1 .19.25c.06.14.15.29.29.44.05.06.08.05.09-.03 0-.06-.01-.1-.05-.15-.03-.03-.02-.04.02-.03l.03.02.03.06c.04.36.16.66.35.92a.1.1 0 0 1 .02.09.1.1 0 0 0 0 .02 8.73 8.73 0 0 0-.13-.16c-.11-.17-.17-.18-.17-.02 0 .06.04.15.1.27 0 .42.13.69.43.81.06.5.24.88.54 1.15l.2 3.63c0 .14-.04.27-.13.38-.1.1-.22.16-.37.17l-4.17.25-2.66-.11a.36.36 0 0 1-.26-.12c-.17-.19-.28-.4-.32-.66l5.04.24 2.1.07c.13 0 .25-.04.35-.13.1-.1.14-.2.15-.34v-.15c0-.43-.04-.75-.13-.96-.09-.2-.15-.41-.2-.66-.02-.2-.08-.4-.17-.65a2 2 0 0 1-.04-1.26c-.32-1.06-.82-2.1-1.48-3.1-.04-.05-.07-.05-.09.02 0 .02 0 .05-.02.09l.06-.1a10.26 10.26 0 0 1-1.63-2.6c-.05-.1-.02-.12.07-.06l.53.33Z" fill="#A7ACC1"/><path d="m40.34 22.36 1.8 2.72c.07.07.08.13.04.2-.06.09-.14.1-.23.02a1.77 1.77 0 0 1-.57-.88.33.33 0 0 0-.12-.18.15.15 0 0 0-.08-.03c-.07-.01-.11.02-.12.09-.12.77-.62 1.3-1.47 1.56l-.89.46c-.24.12-.43.07-.58-.16-.25-.38-.5-.52-.78-.41-.35.14-.55.35-.6.63-.03-.14-.07-.2-.12-.19a.82.82 0 0 1 .29-.84c.63-.56 1.31-1.07 2.06-1.55.19-.11.3-.29.33-.52.02-.1.08-.17.17-.21a.6.6 0 0 1 .36-.03c.12.02.18-.02.16-.15-.05-.38.07-.55.35-.53Z" fill="#A7ACC1"/><path d="m32.23 22.96 3.5 1.97c.06.17-.1.23-.5.17-.1-.01-.11.01-.04.08.3.28.53.59.67.93a.61.61 0 0 1-.25.04c-.04 0-.05-.03-.03-.07a.09.09 0 0 0 0-.08.38.38 0 0 0-.15-.19c-.47-.31-.91-.66-1.33-1.04l-1.36-1.09a.68.68 0 0 0-.25-.13c-.26-.07-.34-.27-.26-.59Z" fill="#EFF1F5"/><path d="M25.08 23.44a13.06 13.06 0 0 0-3.3 1.77c-.09.06-.13.04-.14-.06a.92.92 0 0 1 .1-.5.64.64 0 0 1 .33-.3c.2-.1.39-.24.53-.44a.44.44 0 0 1 .23-.16c.43-.12.8-.3 1.1-.55.81-.22 1.2-.14 1.15.24Z" fill="#7182AF"/><path d="m35.08 26.64.45.73c.06.1.1.2.1.3.06.45.24.86.54 1.23.1.13.15.27.16.43 0 .3.06.57.16.84.03.1 0 .16-.08.22-.09.05-.1.12-.06.2.4.64.64 1.08.74 1.3-.16-.1-.3-.1-.42-.03a.22.22 0 0 0-.1.24c.04.32.02.63-.1.94-.06.2-.1.2-.1-.02 0-.05 0-.1.04-.14-.06.45-.16.86-.31 1.25-.01-.6-.02-1.17-.01-1.74 0-.69-.05-1.26-.17-1.72a9.04 9.04 0 0 0-1.35-2.92c.02-.2-.03-.3-.15-.34a.13.13 0 0 1-.09-.08l-.13-.44.85.84c.04.04.09.06.14.06l.08-.02c.07-.03.09-.08.06-.15A4.4 4.4 0 0 0 34 25.98a.15.15 0 0 0-.17-.01.14.14 0 0 0-.08.14c.01.11.07.24.17.4a2.75 2.75 0 0 1-.85-.63 5.84 5.84 0 0 0-2.6-1.6c-1.1-.22-1.93-.35-2.48-.38a7.45 7.45 0 0 0-2.49.32c-.33.1-.8.32-1.4.66l-.54.3a6.77 6.77 0 0 0-2.43 2.15 8.01 8.01 0 0 0-1.27 3c-.17.8-.26 1.5-.26 2.14 0 .08.02.14.09.18.04.03.07.07.07.13a3.17 3.17 0 0 0 .43 1.73c.27.51.47 1.05.58 1.6l-.2-.05c-.33-.44-.62-.9-.86-1.38-.14-.27-.21-.63-.22-1.1-.02-.69-.22-1.16-.62-1.41.18-.4.3-.84.36-1.31a6.2 6.2 0 0 1 .43-1.75c.18-.56.36-.96.54-1.2.37-.5.71-.95 1.05-1.36.38-.47.85-.94 1.43-1.42.34-.28.7-.5 1.1-.65.28-.1.55-.22.81-.37.25-.13.5-.22.77-.26.66-.09 1.33-.2 2-.33.6-.11 1.22-.11 1.86.01.72.15 1.38.3 2 .46.13-.04.22 0 .27.1.03.07.07.12.14.16.45.28.91.5 1.4.69.5.18 1.18.75 2.05 1.7Z" fill="#A7ACC1"/><path d="m33.07 25.88 1.5 1.87a9.05 9.05 0 0 1 1.35 2.92c.12.46.18 1.03.17 1.72v1.74c-.2.53-.43 1.07-.66 1.62-.13.3-.3.57-.51.81l-1 1.22c-.27.3-.5.46-.66.52l-2.3 1.36a.7.7 0 0 1-.24.08l-.27.06c-.2.06-.22.1-.06.13h.22l-.79.27c-.16.06-.16.1.02.13.35.06.69.05 1.02-.03l.02.01c0 .02 0 .02 0 0 0-.01 0-.02-.02-.01-.5.13-.99.24-1.44.34a3.58 3.58 0 0 0-1.51-.08c-.04 0-.05.02-.05.06 0 .04.02.05.06.05l1.5-.03c-.08.07-.14.11-.19.11l-.6.01h-1.24a7.33 7.33 0 0 1-1.2-.15h.03c.04-.02.06-.05.04-.1a.72.72 0 0 0-.12-.16c.39.1.75.13 1.1.1.11-.02.12-.05.03-.1a.33.33 0 0 0-.26-.04c-.1.04-.2.02-.28-.06l-.15-.13c.46.18.63.15.52-.08.65.08 1.21.1 1.69.04.2-.02.2-.04 0-.07a4.3 4.3 0 0 0-1.69.03c-.38-.09-.76-.1-1.13-.05l-1.4-.5a.24.24 0 0 0-.14-.08c0-.13-.04-.2-.14-.2-.2-.01-.29-.08-.3-.2.12.08.2.13.27.15.17.04.17-.01 0-.15a27.21 27.21 0 0 0-1.62-1.14c-.04 0-.05.02-.05.06a3.86 3.86 0 0 1 .5.7c.09.15.2.22.35.22l.05.17a2.83 2.83 0 0 1-1.59-1.4l-.35-.45c.03-.29-.1-.5-.41-.66-.27-.21-.4-.34-.37-.4a6.05 6.05 0 0 0-.58-1.6 3.17 3.17 0 0 1-.43-1.73c0-.06-.03-.1-.07-.13a.2.2 0 0 1-.1-.18c.02-.63.1-1.35.27-2.14a8.01 8.01 0 0 1 1.27-3 6.77 6.77 0 0 1 2.43-2.14l.54-.3c.6-.35 1.07-.57 1.4-.67A7.45 7.45 0 0 1 28 23.9c.55.03 1.38.16 2.47.39.79.16 1.66.7 2.6 1.59Z" fill="#DADBE8"/><path d="M23.87 25.37c.5-.31 1.01-.55 1.55-.7.64-.19 1.2-.23 1.7-.13.14.03.14.07 0 .1-.16.05-.33.17-.51.36-.13.13-.23.22-.32.28-.44.28-.74.64-.92 1.08-.02.07-.07.1-.15.08a.2.2 0 0 0-.2.08 6.9 6.9 0 0 1-1.44 1.36c-.2.13-.36.3-.49.51-.12.2-.26.37-.44.52-.29.25-.53.53-.71.83a.55.55 0 0 1-.24.22c-.3.14-.5.33-.62.58-.09.17-.21.31-.38.42-.31.22-.45.14-.4-.23a7.3 7.3 0 0 1 3.57-5.36Z" fill="#A7ACC1"/><path d="M25.9 27.15c-.5.14-.9.4-1.19.81a4.85 4.85 0 0 0-.79 1.76c-.18.26-.39.46-.61.6a4 4 0 0 0-.69.46c-.07.08-.18.21-.3.39-.2.27-.38.47-.53.58-.36.26-.74.5-1.15.73-.23.12-.4.07-.52-.15a.6.6 0 0 1-.04-.4.6.6 0 0 1 .2-.35 18.11 18.11 0 0 0 2.17-2.12c.12-.13.32-.3.58-.51.32-.26.56-.48.7-.67a7.76 7.76 0 0 1 2.15-1.84c.23-.14.4-.33.52-.58.08-.18.23-.37.45-.58a8.13 8.13 0 0 1 .88-.72.5.5 0 0 1 .3-.1c.24-.01.39.04.43.16.12.28.05.5-.2.67-.39.27-.72.58-.98.92-.37.48-.82.79-1.37.94Z" fill="#EFF1F5"/><path d="M31.5 25.36c-.3-.09-.5-.05-.61.12a.5.5 0 0 1-.21.18c-.26.12-.5.26-.73.4a.3.3 0 0 0-.13.17c-.01.03 0 .06.02.09.03.02.06.02.1.01.12-.04.21-.1.29-.18a.34.34 0 0 1 .37-.08c.1.04.14.12.11.23l-.08.34c-.05.21 0 .24.15.07l.14-.16.2-.17.56-.38c.02-.02.05-.02.07 0a.1.1 0 0 1 .04.08c0 .1-.05.15-.13.18-.29.08-.5.25-.64.5a.6.6 0 0 1-.2.2 1 1 0 0 0-.46.72.66.66 0 0 0-.23-.3c-.11-.08-.2-.06-.24.05-.12-.14-.24-.15-.37 0l-.33.33a.24.24 0 0 1-.25.05c-1.27-.4-2.33-.4-3.2-.02-1.23.55-1.74 1.55-1.54 3l-.7.61a.4.4 0 0 0-.14.25c-.04.27-.14.45-.33.55a.54.54 0 0 0-.2.2c-.29.46-.65.85-1.07 1.18a.6.6 0 0 1-.26.12c-.43.08-.6.34-.54.78-.28-.3-.38-.62-.28-.94.03-.1.1-.17.2-.18.35-.05.55-.24.6-.58.03-.1.08-.19.18-.24 1.27-.75 2.03-1.7 2.26-2.82.14-.63.4-1.22.8-1.76.28-.4.68-.67 1.18-.8a1 1 0 0 0 .73-.19.44.44 0 0 1 .29-.08c.13 0 .25-.03.35-.12a.5.5 0 0 1 .37-.12l.35.03c.1 0 .18-.03.23-.1.1-.17.22-.35.32-.57.07-.13.16-.25.27-.35.19-.17.38-.28.58-.35a.22.22 0 0 0 .16-.17c.08-.37.36-.47.82-.31.39.13.76.31 1.12.53Z" fill="#C2C5D4"/><path d="M34.1 24.77c.42.38.86.73 1.33 1.04.07.05.13.12.16.2l-.01.07c-.02.04-.01.06.03.07a.6.6 0 0 0 .25-.04l.23.5c.07.17.16.33.27.46.17.23.28.49.32.78.02.22-.03.24-.16.07l-1.18-1.52a2.19 2.19 0 0 0-.45-.59c-.1-.1-.27-.22-.5-.37a4.26 4.26 0 0 1-.62-.47.11.11 0 0 1-.03-.13.12.12 0 0 1 .13-.08h.23Z" fill="#A7ACC1"/><path d="m44.2 28.06-1.6-3 .02-.08c.02-.07.05-.07.08-.02.67 1 1.17 2.04 1.5 3.1Z" fill="#C2C5D4"/><path d="M17.43 24.9c.3.27.5.55.58.86.1.33.06.67-.1 1.02a26.3 26.3 0 0 1-.84 1.64.21.21 0 0 1-.15.1.21.21 0 0 1-.18-.03c-.17-.11-.36-.19-.56-.23l-.61-.37c-.04-.03-.05-.06-.02-.1l.04-.07c.02-.03.04-.04.07-.02l.57.33c.11.07.2.05.27-.06l.1-.14c.38-.63.63-1.11.75-1.45.22-.6.19-1.04-.1-1.32 0-.16.06-.21.18-.16Z" fill="#030306"/><path d="m42.66 24.97-.06.1 1.6 3a2 2 0 0 0 .03 1.25c.09.24.15.46.18.65.04.25.1.47.19.66.1.21.14.53.13.96v.15c0 .13-.06.25-.15.34-.1.09-.22.13-.35.13l-2.1-.07c-.32-.17-.48-.34-.47-.49a.18.18 0 0 0-.1-.19.67.67 0 0 1-.28-.4.66.66 0 0 0-.56-.13c-.12.02-.14.13-.07.32l-2.18.08c-.1 0-.15-.05-.15-.14v-.1c0-.08.04-.11.11-.11h1.12c.07 0 .1-.04.09-.1l-.02-.1c0-.01 0-.02-.02-.02-.29.02-.54-.02-.77-.1-.14-.05-.16-.13-.05-.22l.45-.4a.23.23 0 0 0 .08-.18.2.2 0 0 1 .04-.12A5.3 5.3 0 0 1 41.41 28c.1-.05.14-.12.1-.22a.52.52 0 0 1 .16-.6c.17-.15.37-.18.6-.1.22.09.42.23.59.45-.05.17 0 .31.15.43 0 .18.04.28.1.3l.32 2.13c-.06.41 0 .7.2.84 0 .1.05.2.13.28.04.04.1.05.15.03a.14.14 0 0 0 .1-.12c.04-.3-.03-.6-.22-.88l-.1-.96c.04-.48-.05-1-.27-1.54.05-.15.07-.3.07-.42-.01-.1-.06-.16-.15-.2a.42.42 0 0 1-.24-.23c-.01-.03 0-.06.01-.07.04-.02.07-.02.08.03.02.06.05.1.1.14.05.04.1.05.16.01.06-.03.08-.08.07-.15a2.29 2.29 0 0 0-.42-.9c-.05-.06-.12-.08-.2-.05-.08.04-.14.02-.17-.04-.19-.3-.2-.7-.07-1.18ZM41.74 26.02c-.12.15-.23.26-.34.33-.1.06-.18.05-.25-.02-.23-.21-.4-.49-.5-.84.1-.2.24-.33.44-.36.1-.01.19.01.26.09.23.23.36.5.4.8Z" fill="#EFF1F5"/><path d="M31.5 25.36c.4.13.72.35.97.67.35.45.3.82-.12 1.09l-1.27.53c-.05.02-.08 0-.1-.04l-.02-.07v-.02c.49-.17.93-.4 1.33-.72.08-.06.1-.15.05-.24-.1-.2-.13-.4-.1-.62 0-.02 0-.02.02-.03h-.02c-.02.01-.03.03-.02.04.12.72-.14 1.14-.8 1.26a.39.39 0 0 0-.25.16c-.24.34-.5.6-.77.79l-.03-.48a1 1 0 0 1 .45-.72.6.6 0 0 0 .2-.2c.14-.25.35-.42.64-.5.08-.03.13-.09.13-.18a.1.1 0 0 0-.04-.08c-.02-.02-.05-.02-.07 0l-.55.38c-.08.05-.14.1-.2.17l-.15.16c-.15.17-.2.14-.15-.07l.09-.34c.02-.1-.02-.19-.12-.23a.34.34 0 0 0-.37.08.76.76 0 0 1-.3.18.08.08 0 0 1-.09-.01.08.08 0 0 1-.02-.09.3.3 0 0 1 .13-.17c.23-.14.47-.28.73-.4a.5.5 0 0 0 .2-.18c.12-.17.32-.21.61-.12Z" fill="#A7ACC1"/><path d="M40.66 25.49c.1.35.26.63.49.84.07.07.16.08.25.02.11-.07.23-.18.34-.33.23.2.31.47.25.81-.03.2-.27.32-.73.39-.13.02-.2-.03-.23-.15a.54.54 0 0 0-.38-.44c-.03-.22-.11-.39-.24-.49-.04-.52.04-.74.25-.65ZM14.72 26.66c-.75.02-1.3-.18-1.62-.6.33.08.62.13.89.14.2.02.4-.02.62-.09.12-.04.31-.13.56-.25l.37-.18a.45.45 0 0 1 .49.07c.05.03.09.08.12.14.06.1.04.17-.07.2l-1.36.57Z" fill="#030306"/><path d="M39.59 25.86c.23-.03.5.06.82.28.13.1.2.27.24.5l-.07.03-.02.02c-.6.4-1.08.7-1.45.85-.67.3-1.18.3-1.51.04-.3-.23-.58-.63-.86-1.2.05-.28.25-.49.6-.63.27-.11.53.03.78.41.14.23.34.28.58.16l.89-.46Z" fill="#EFF1F5"/><path d="M13.1 26.06c.32.42.87.62 1.62.6l-.21.01c-.12.01-.19.07-.21.18-.04.14-.1.28-.2.4a.42.42 0 0 1-.2.14l-.58.23c-.11.04-.2.11-.25.21-.12.23-.26.42-.43.58-.42.38-.5.33-.22-.17.18-.34.28-.7.3-1.1 0-.13.04-.25.12-.36.2-.33.16-.6-.13-.82-.1-.09-.1-.12.05-.1.25.02.37.1.34.2Z" fill="#C2C5D4"/><path d="M32.35 27.12c.09.02.18 0 .27-.09.05-.04.08-.03.07.03 0 .04-.03.08-.07.12-.39.36-.67.75-.85 1.18-.06.14-.02.16.1.08.28-.2.48-.45.6-.72.08-.16.21-.25.4-.26.1-.01.18-.05.23-.13l.18-.27c.16-.26.3-.24.4.04.09.25.13.5.13.73 0 .1-.04.19-.1.26l-1.66 1.85c-.12.13-.1.15.05.07.12-.08.23-.17.32-.27.05-.06.06-.05.05.02 0 .02-.02.03-.03.04a13.54 13.54 0 0 1-.73.75l-1.56 1.85a.34.34 0 0 1-.22.13.68.68 0 0 1-.37-.05c-.15-.06-.2-.01-.15.14.04.14.13.24.27.3.46.46.73.97.81 1.54.09.53 0 1.04-.23 1.54a3.06 3.06 0 0 1-2.71 1.65c-.3 0-.64-.04-1.03-.13a16.8 16.8 0 0 1-1.6-.44c-.34-.35-.53-.67-.56-.96l-.12-1.83c0-.14.06-.23.2-.27.1-.02.18.03.22.16.09.78.36 1.44.83 1.98.32.36.76.6 1.32.7.96.18 1.65-.11 2.07-.87.15-.28.2-.53.17-.77-.03-.2-.15-.44-.34-.7a3.9 3.9 0 0 0-1.47-1.2 7.62 7.62 0 0 1-3.04-2.53c-.2-1.45.31-2.45 1.55-3 .86-.38 1.92-.37 3.19.02.1.03.18.02.25-.05.12-.1.23-.22.33-.34.13-.14.25-.13.37.01l.03 3.24c0 .07-.04.13-.1.17a.2.2 0 0 1-.2 0 .25.25 0 0 0-.22 0c-.13.07-.12.12 0 .17l.66.24c.07.02.13.01.2-.03a.2.2 0 0 0 .08-.16l.06-2.9c.28-.2.54-.45.77-.79a.39.39 0 0 1 .26-.16c.65-.12.91-.54.79-1.26 0-.01 0-.03.02-.03l.02-.01a.04.04 0 0 0-.02.03c-.03.21 0 .42.1.62.05.1.03.18-.05.24-.4.31-.84.55-1.32.72-.01 0-.02.01-.01.02l.02.07c.02.05.06.06.1.04l1.27-.53Z" fill="#EFF1F5"/><path d="M33.07 25.88c.28.3.56.5.85.63.1.1.2.23.28.38l.13.44c.02.04.05.07.1.08.12.04.16.15.14.34l-1.5-1.87Z" fill="#C2C5D4"/><path d="M34.2 26.9a1.35 1.35 0 0 0-.28-.39.9.9 0 0 1-.17-.4c0-.06.03-.11.08-.14a.15.15 0 0 1 .17 0c.53.39.97.94 1.33 1.65.03.07.01.12-.06.15a.25.25 0 0 1-.08.02.18.18 0 0 1-.14-.06l-.85-.84Z" fill="#8591AB"/><path d="M36.62 26.2c.05-.03.1.04.12.18.28.57.56.97.86 1.2.33.26.84.25 1.5-.04a9.42 9.42 0 0 0 1.48-.87c.07.28.07.53.02.76a.34.34 0 0 1-.16.21l-.2.12c-.5.3-.87.5-1.14.61-.45.2-.83.26-1.12.19-.5-.11-.97-.7-1.4-1.75-.1-.27-.09-.48.04-.62Z" fill="#030306"/><path d="M19.62 27.9c-.22-.1-.24-.4-.07-.87l.57-.59c.08-.08.14-.07.17.05a.5.5 0 0 1-.04.36c-.1.2-.3.56-.63 1.04Z" fill="#7182AF"/><path d="M43.83 26.4c.23.23.37.5.43.81-.3-.12-.44-.4-.43-.8Z" fill="#8591AB"/><path d="M19.56 27.03c-.18.48-.16.77.06.86l-.24.57c-.04.1-.1.12-.2.1a.15.15 0 0 1-.09-.08c-.03-.05-.07-.08-.13-.07-.07 0-.1.04-.12.1l-.23.84c-.04.12 0 .18.13.2l.12.02c.07.01.1.06.1.13s-.06.17-.15.28l-.2-.03c-.12-.02-.2.02-.22.14l-.2.9c-.21-.1-.36-.06-.46.15-.18-.4-.43-.4-.74 0a.13.13 0 0 0-.02.14c.02.05.05.08.11.1l.24.03c-.25.12-.47.13-.67 0a.24.24 0 0 0-.26 0 .62.62 0 0 1-.3.09c-.13 0-.17-.06-.13-.18.01-.03 0-.06-.02-.1-.06-.07-.1-.06-.13.04-.04.23-.18.33-.4.3-.12-.01-.2-.08-.22-.2-.06-.3.02-.52.22-.68a.78.78 0 0 0 .2-.21l.79-1.31c.06-.1.15-.16.27-.18.24-.03.44-.11.6-.25.1-.08.22-.23.37-.44.16-.23.3-.4.42-.49.2-.15.45-.22.76-.23.1 0 .2-.05.27-.11l.47-.43ZM43.1 27.18c.05.12.13.2.24.24.1.03.14.1.15.19 0 .13-.02.27-.07.42-.03-.13-.08-.21-.16-.25-.12-.05-.18-.01-.17.12l.01.35c-.05-.02-.08-.12-.1-.3-.02-.2-.05-.39-.1-.58 0-.07 0-.12.02-.15.04-.04.1-.05.18-.04Z" fill="#C2C5D4"/><path d="m30.37 27.68.03.48-.06 2.9a.2.2 0 0 1-.09.16.21.21 0 0 1-.2.03L29.4 31c-.13-.05-.13-.1 0-.16a.25.25 0 0 1 .22 0 .2.2 0 0 0 .2-.01c.06-.04.1-.1.1-.17l-.03-3.24c.05-.11.13-.13.24-.05.1.07.18.16.24.3Z" fill="#030306"/><path d="M43.42 28.03c.22.55.3 1.06.28 1.54-.2-.18-.28.1-.27.8l-.33-2.12-.01-.35c0-.13.05-.17.17-.12.08.04.13.12.16.25Z" fill="#A7ACC1"/><path d="m34.62 28.7-1.32 1.33a.37.37 0 0 1-.21.1c-.1.02-.17.07-.18.17a.27.27 0 0 1-.18.22c-.19.07-.35.2-.47.35-.02.02-.02.03.01.03l.03-.01c.05-.02.1-.05.12-.1.07-.12.17-.18.3-.17.13 0 .15.05.05.14l-2.63 2.42c-.3-.37-.46-.46-.46-.26a.45.45 0 0 1-.27-.3c-.05-.15 0-.2.15-.14.12.05.24.07.36.05.1-.01.17-.06.23-.13l1.55-1.85c.27-.04.5-.17.7-.4.16-.18.33-.35.5-.5.3-.26.52-.55.68-.88.08-.16.19-.3.32-.42.05-.04.09-.09.11-.15.07-.14.16-.16.27-.04.17.2.29.37.34.53Z" fill="#C2C5D4"/><path d="M28.53 28.7c-1.18-.45-2-.35-2.49.3-.4.53-.29 1.1.33 1.68-.77-.42-1.08-.92-.93-1.49.1-.34.26-.6.5-.8.22-.17.5-.27.8-.3.3-.02.61.02.93.13.31.1.6.27.86.48Z" fill="#030306"/><path d="M28.53 28.7c.5.32.77.86.8 1.61 0 .11-.05.16-.16.16-.19-.02-.3.08-.34.28a.35.35 0 0 1-.11.2l-.62.53a.31.31 0 0 1-.25.07 1.95 1.95 0 0 1-1.48-.87c-.62-.58-.73-1.15-.33-1.68.48-.65 1.31-.75 2.49-.3ZM34.62 28.7l.84 2.06c.04.08.06.17.06.26l.06.9c0 .13-.04.23-.14.3-.37.31-.68.64-.92 1a.59.59 0 0 1-.28.23c-.14.05-.25.16-.33.34-.06.13-.24.34-.52.63.1.1.08.13-.03.08a1 1 0 0 1-.78.17c.17-.06.32-.13.44-.23l.38-.29c.2-.14.35-.32.45-.53.09-.18.05-.2-.1-.09l-1.39 1.1a.74.74 0 0 0-.51.22c-.29.3-.6.58-.95.82.2-.87-.06-1.7-.76-2.49l2.63-2.42c.1-.1.08-.14-.05-.14s-.23.05-.3.17a.22.22 0 0 1-.12.1h-.03c-.03 0-.03 0-.02-.02.13-.16.3-.27.48-.35.1-.04.17-.11.18-.22.01-.1.07-.15.18-.16a.37.37 0 0 0 .21-.11l1.32-1.34Z" fill="#A7ACC1"/><path d="m43.7 29.57.1.96c.05.45 0 .69-.17.69-.2-.15-.26-.43-.2-.84-.01-.72.08-.99.27-.8ZM18.8 29.98l-.09 1.28c0 .07-.04.11-.1.13-.07.02-.13 0-.17-.05l-.25-.35.2-.9c.02-.12.1-.16.22-.14l.2.03Z" fill="#7182AF"/><path d="M43.8 30.53c.18.28.25.57.2.88 0 .06-.03.1-.09.12-.06.02-.1 0-.15-.03a.4.4 0 0 1-.13-.28c.17 0 .22-.24.16-.7ZM24.2 30.79a7.62 7.62 0 0 0 3.04 2.53c.62.3 1.11.7 1.47 1.2.2.26.3.5.34.7.03.24-.03.5-.18.77-.41.76-1.1 1.05-2.06.87-.56-.1-1-.34-1.32-.7.13-.02.13-.12.01-.29.25.26.47.4.67.42.1.02.17-.03.18-.13.04-.28.14-.54.3-.79.07-.1.19-.2.37-.32.17-.12.3-.23.37-.33a.33.33 0 0 1 .23-.13c.17-.03.31-.1.43-.2.14-.12.13-.22-.03-.32l-1.56-.91a.23.23 0 0 0-.27 0l-.61.43a.31.31 0 0 1-.25.05.55.55 0 0 1-.17-.06c-.14-.08-.23-.04-.26.12l-.05.25c-.16.03-.22.1-.19.23-.04-.13-.11-.18-.22-.16-.14.04-.2.13-.2.27l.12 1.83c.03.3.22.6.57.96-.13.25-.32.46-.57.61-.15.09-.14.15.03.19l.51.12c.12.03.18-.02.2-.13.05-.35.24-.46.56-.34.57.2 1.11.37 1.64.47-.05.2.1.38.44.56.17.09.39.13.66.13.36 0 .73.02 1.12.08-1.2.08-1.5.25-.9.53-.27.05-.6 0-.97-.14a6.36 6.36 0 0 0-.81-.38.6.6 0 0 0-.39-.02.38.38 0 0 0-.29.27c-.02.1-.1.15-.2.14-.2-.01-.38-.08-.55-.21h.26c.15-.04.16-.08.02-.15l-.5-.21a8.73 8.73 0 0 1-3.1-2.18 1.3 1.3 0 0 1-.2-.32c-.19-.42-.31-.5-.37-.2l-.56-1.42c-.06-.44.11-.7.54-.78a.6.6 0 0 0 .26-.12c.43-.33.78-.72 1.07-1.19a.54.54 0 0 1 .2-.2c.19-.1.3-.27.33-.54a.4.4 0 0 1 .14-.25l.7-.61Z" fill="#A7ACC1"/><path d="M38.12 31.4c-.01.08-.06.11-.15.1l-.36-.07a.62.62 0 0 1-.25-.1c-.07-.05-.1-.1-.08-.15l.05-.3c.01-.04.06-.08.14-.1a.6.6 0 0 1 .27 0l.36.07c.09.02.12.07.1.15l-.08.4ZM12.23 31.34a.2.2 0 0 1-.1-.21c0-.1.05-.16.14-.19a.7.7 0 0 1 .5.01c.06.02.1.05.11.1.02.05.02.1 0 .14-.13.28-.34.33-.65.15ZM17.72 31.14c-.1.19-.23.28-.4.27l-.24-.04a.14.14 0 0 1-.12-.1.13.13 0 0 1 .03-.14c.3-.38.55-.38.73 0ZM41.28 31.06l-.03.11a.18.18 0 0 1-.15.14.65.65 0 0 1-.45-.06c-.07-.19-.05-.3.07-.32.2-.05.38 0 .56.13ZM42.6 31.46c.23-.03.4-.19.38-.35-.02-.16-.23-.26-.46-.23s-.4.19-.38.34c.03.16.23.27.46.24ZM37.09 31.9c.04.25.15.47.32.66.07.07.15.11.26.12l2.66.1-2.6.04a.66.66 0 0 0-.62.37 6.7 6.7 0 0 0-.45 1.05 17.7 17.7 0 0 1-.88 2.18 4.5 4.5 0 0 1-.66 1l-.8.88c-.08.07-.06.1.04.08.01 0 .02 0 .03-.02.07-.08.09-.07.04.02-.16.35-.37.64-.65.89-.08.07-.2.13-.36.2-.2.08-.34.16-.42.26a.22.22 0 0 1-.2.07.34.34 0 0 0-.36.18.37.37 0 0 1-.2.17c-.08.02-.18.06-.3.13a1.4 1.4 0 0 1-.34.15l-1.41.33c-.43.1-.88.16-1.33.17-.74 0-1.45.03-2.12.07a.23.23 0 0 1-.18-.07.29.29 0 0 0-.14-.08l-1.42-.3c-.54-.12-1-.28-1.4-.5-.5-.26-1.05-.63-1.64-1.1a2.3 2.3 0 0 1-.67-.85 7.69 7.69 0 0 0-.99-1.6 9 9 0 0 1-1.63-3.1.74.74 0 0 0-.25-.36.79.79 0 0 0-.41-.16l-.94-.1c.49-.12 1-.15 1.53-.1.1.02.17.07.22.15a5.34 5.34 0 0 1 .4.9c-.02-.3-.08-.59-.19-.87-.08-.22-.23-.3-.44-.23-.15.05-.2 0-.14-.14.05-.11.19-.22.42-.32.4.25.6.72.62 1.41 0 .47.08.83.22 1.1.24.48.53.94.87 1.38.11.37.28.64.52.8.2.58.47.83.8.76.35.67.88 1.14 1.59 1.4.29.2.6.32.94.4.06 0 .11.03.15.07l1.56.86c.06.06.1.12.11.16.03.05.01.08-.03.1h-.04c-.04 0-.04 0 0 .02.36.07.76.12 1.21.13a24.72 24.72 0 0 0 1.84 0c.05 0 .1-.05.19-.12a25.9 25.9 0 0 0 1.46-.33c0 .02 0 .02 0 0 0-.01 0-.02-.02-.01-.33.08-.67.09-1.02.03-.18-.03-.18-.07-.02-.13l.8-.27c.99-.28 1.87-.83 2.64-1.63.16-.06.39-.23.67-.52.42-.25.7-.48.86-.7.08-.1.12-.28.13-.52.21-.24.38-.51.5-.81l.68-1.62c.15-.39.25-.8.3-1.25a.23.23 0 0 0-.04.14c.01.22.05.23.12.02.1-.3.13-.62.08-.94a.22.22 0 0 1 .1-.24c.13-.08.27-.06.43.04Z" fill="#7182AF"/><path d="M30.14 33.18c.7.8.95 1.62.76 2.5l-.2.67c-.63 1.22-1.76 1.78-3.4 1.65-.53-.1-1.07-.26-1.64-.47-.32-.12-.5 0-.56.34-.02.11-.08.16-.2.13l-.51-.12c-.17-.04-.18-.1-.03-.19.25-.15.44-.36.56-.61l.53.15c.48.14.83.24 1.07.29.39.09.73.13 1.03.13a3.06 3.06 0 0 0 2.7-1.65c.25-.5.33-1.01.24-1.54a2.77 2.77 0 0 0-.8-1.54c-.01-.2.14-.11.45.26Z" fill="#030306"/><path d="m25.5 35.87-.65-1.92.05-.25c.03-.16.12-.2.26-.12.05.03.11.05.17.06.1.02.17 0 .25-.05l.61-.42a.23.23 0 0 1 .27-.01l1.56.91c.16.1.17.2.03.32a.83.83 0 0 1-.43.2.33.33 0 0 0-.23.13c-.07.1-.2.21-.37.33-.18.12-.3.23-.37.32-.16.25-.26.51-.3.79-.01.1-.07.15-.18.13-.2-.02-.42-.16-.67-.42ZM34.23 35.83l-2.02 1.76-.4.34c-.08-.02-.26.21-.53.7-.03.06-.07.08-.13.06-.46-.1-.93-.1-1.42 0-.2.03-.27.05-.2.08a6.86 6.86 0 0 0-1.13-.08c-.27 0-.5-.04-.66-.13-.34-.18-.49-.36-.44-.56 1.64.13 2.77-.43 3.4-1.65.3.03.62.04.93.03.08 0 .16-.03.22-.08.08-.05.1-.13.09-.23a.23.23 0 0 1 .04-.17l.54-.76a.39.39 0 0 1 .2-.15c.29-.1.5-.26.64-.5.11.06.12.03.03-.07.03.01.06.03.1.03.09.02.15-.02.2-.1.25-.44.6-.8 1.06-1.06.08-.04.15-.04.22.02.07.05.1.12.06.2l-.8 2.32Z" fill="#EFF1F5"/><path d="m32.58 34.67-.25.2c-.08.08-.1.06-.06-.04l.1-.2 1.38-1.1c.15-.12.19-.09.1.09-.1.21-.25.39-.44.53l-.38.29c-.13.1-.27.17-.45.23Z" fill="#C2C5D4"/><path d="m24.85 33.95.65 1.92c.12.17.12.27-.01.3a3.56 3.56 0 0 1-.83-2c-.03-.11.03-.2.19-.22ZM25.2 38.6c.12.1.02.14-.3.14a7.79 7.79 0 0 1-3.38-2.85c.06-.28.18-.21.37.2.06.13.13.24.2.33.87.95 1.9 1.67 3.1 2.18Z" fill="#030306"/><path d="M34.22 35.83c-.34.9-.97 1.57-1.86 2-.1 0-.15-.08-.15-.24l2.01-1.76Z" fill="#193A7D"/><path d="m20.58 36.06.2.06c-.04.05.09.18.36.39l-.04.35a1.4 1.4 0 0 1-.52-.8Z" fill="#8591AB"/><path d="M21.14 36.5c.3.16.44.38.4.67l-.44-.31.04-.35Z" fill="#A7ACC1"/><path d="M34.91 36.56c0 .24-.04.42-.12.53-.16.2-.44.44-.86.7l.98-1.23Z" fill="#8591AB"/><path d="M21.57 36.94c-.07-.2-.03-.21.11-.07l.82.85c.11.1.1.13-.05.07a1.46 1.46 0 0 1-.88-.85Z" fill="#A7ACC1"/><path d="m21.1 36.86.45.3.35.46c-.33.07-.6-.18-.8-.76ZM32.2 37.59c0 .16.06.24.16.25a.54.54 0 0 1-.42.24c-.06 0-.09-.02-.1-.07l-.03-.08.4-.34Z" fill="#8591AB"/><path d="m24 39.01-.56-.16c-.15 0-.26-.07-.35-.22a3.86 3.86 0 0 0-.47-.63.12.12 0 0 1-.03-.07c0-.04.01-.06.05-.06.03 0 .05 0 .07.02.55.37 1.07.75 1.55 1.12.17.14.17.19 0 .15A.87.87 0 0 1 24 39Z" fill="#A7ACC1"/><path d="M32.55 38.36c.18-.22.42-.36.71-.44.21-.06.23-.02.06.12-.37.29-.76.53-1.17.71-.34.15-.64.37-.89.65a.64.64 0 0 1-.47.22c-.17 0-.18-.03-.03-.11l.16-.1c.1-.04.17-.1.23-.18.28-.34.7-.6 1.23-.76a.33.33 0 0 0 .17-.1Z" fill="#C2C5D4"/><path d="M33.26 38.3a5.83 5.83 0 0 1-2.65 1.63h-.22c-.16-.03-.14-.07.06-.13l.27-.06a.7.7 0 0 0 .24-.09l2.3-1.35Z" fill="#A7ACC1"/><path d="m25.2 38.6.49.21c.14.07.13.11-.02.15a.78.78 0 0 1-.26 0l-.51-.22c.32 0 .42-.05.3-.14ZM29.52 38.77c-.06-.03.01-.05.21-.07.29 0 .47.03.57.1.1.06.1.13-.02.19-.42.22-.9.33-1.44.34a.35.35 0 0 1-.23-.03c-.58-.28-.28-.45.91-.53Z" fill="#7182AF"/><path d="M23.44 38.85 24 39c0 .12.1.19.29.2.1 0 .15.07.14.2-.34-.07-.65-.2-.94-.39l-.05-.17Z" fill="#8591AB"/><path d="M27.64 39.16c.38.14.7.19.97.14.07.03.14.04.23.03-.42.38-.81.32-1.2-.17Z" fill="#C2C5D4"/><path d="m24.57 39.49 1.4.5.61.13.15.13c.08.08.17.1.28.06a.34.34 0 0 1 .25.04c.1.05.09.08-.02.1-.35.03-.72 0-1.1-.1l-1.57-.86Z" fill="#8591AB"/><path d="M25.45 39.68c-.15-.06-.15-.09.03-.09.37 0 .76.04 1.18.13.41.1.88.14 1.39.14.35 0 .82-.03 1.39-.08.05 0 .08.01.08.06v.08c0 .01 0 .02-.02.02h-2.82a3.2 3.2 0 0 1-1.23-.26Z" fill="#C2C5D4"/><path d="M25.97 39.99c.37-.05.75-.04 1.13.05.1.23-.07.26-.52.08l-.61-.13Z" fill="#A7ACC1"/><path d="M27.1 40.04a4.3 4.3 0 0 1 1.7-.03c.18.03.18.05-.01.07-.48.05-1.04.04-1.69-.04Z" fill="#C2C5D4"/><path d="m29.42 40.64-1.5.03c-.04 0-.06-.01-.06-.05s.01-.06.05-.06c.46-.09.97-.06 1.5.08Z" fill="#7182AF"/></svg>