<!-- by TradingView --><svg width="56" height="56" viewBox="0 0 56 56" xmlns="http://www.w3.org/2000/svg"><path fill="#01A0E2" d="M0 0h56v56H0z"/><path d="M30.24 36.4c1.7-.24 2.41-1.14 2.1-2.73a4.46 4.46 0 0 0-1.2-2.09c-1.8-1.96-3.48-3.76-5.03-5.4-2.67-2.84-4.78-5.7-4.46-9.7.2-2.39 1.3-4.2 3.32-5.44a6.35 6.35 0 0 1 4.14-1c3.17.37 5.25 1.99 6.24 4.86 1.17 3.41 0 7.3-2.42 10.02a.26.26 0 0 1-.42-.06.45.45 0 0 1 .06-.55c2.11-2.4 3.07-5.83 2.24-8.84-.74-2.68-2.54-4.25-5.4-4.7a5.39 5.39 0 0 0-2.93.28c-2.6 1.06-3.99 2.93-4.17 5.6-.21 3.12 1.2 5.68 3.27 7.93 2.1 2.29 4.1 4.45 6.01 6.5a6.8 6.8 0 0 1 1.31 2.05 2.79 2.79 0 0 1-1.89 3.82c-1.89.52-3.31-.17-4.64-1.45-.12-.12-.13-.24 0-.36l.08-.08c.04-.05.1-.07.17-.08.06 0 .12.02.17.06 1.03.87 2.02 1.54 3.45 1.35Z" fill="#CEFBFE"/><path d="M26 35.95c.82.65 1.6 1.19 2.36 1.6 1.7.91 3.44.35 4.52-1.1 1.14-1.53.81-3.55-.23-5.08-1.56-2.27-3.74-4.36-5.78-6.39-2.23-2.21-4.05-4.55-3.9-7.83.16-3.94 3.01-6.55 7.19-5.5.87.22 1.66.62 2.35 1.19 3.51 2.9 2.26 7.93-.43 11.06-.11.13-.22.13-.33 0l-.11-.13a.27.27 0 0 1 0-.35c2.5-3.07 3.73-8.03-.17-10.48a5.89 5.89 0 0 0-4.77-.55c-1.82.64-2.76 2.23-2.98 4.03a7.29 7.29 0 0 0 1.23 5.2c.72 1.05 1.52 2 2.39 2.85a74.75 74.75 0 0 1 4.91 5.2c2.03 2.4 3.23 5.72.27 8.08a3.85 3.85 0 0 1-4.33.51 12.2 12.2 0 0 1-2.65-1.84c-.02-.02-.02-.05 0-.07.08-.16.21-.3.38-.4.03-.02.05-.02.08 0Z" fill="#CEFBFE"/><path d="M25.45 37.02c2.5 2.65 7.21 3.36 9.14-.46 1.49-2.96-.65-6.17-2.76-8.27-2.24-2.25-4.74-4.46-6.46-6.99a6.54 6.54 0 0 1-1.2-4.1 4.28 4.28 0 0 1 4.12-4.23 4.38 4.38 0 0 1 4.52 2.63c.98 2.32.1 5.32-1.33 7.28-.09.13-.19.14-.3.03l-.19-.17c-.1-.1-.1-.2-.03-.3 1.42-1.93 2.37-5.42.68-7.48a3.44 3.44 0 0 0-2.43-1.27c-2.24-.21-4.1.95-4.3 3.2a5.51 5.51 0 0 0 .62 3.28 18.62 18.62 0 0 0 3.45 4.27c1.2 1.15 2.35 2.3 3.46 3.46 2.52 2.63 4.7 6.37 2.23 9.84a5.17 5.17 0 0 1-2.55 1.87c-2.54.91-5.26-.23-7.13-2.03-.12-.12-.13-.25-.02-.38l.13-.17c.11-.13.23-.14.35 0Z" fill="#CEFBFE"/><path d="m30.33 22.2-.4-.3a.08.08 0 0 1-.02-.11c1.3-1.67 2.05-3.6.82-5.49-.79-1.22-2.56-1.66-3.75-.66-1.56 1.32-.93 3.59.14 4.96 2.56 3.26 5.95 5.68 8.36 9.06a7.36 7.36 0 0 1 1.01 7.17c-2 5.5-8.65 5.12-12.38 1.77-.07-.06-.08-.13-.01-.2l.21-.24a.2.2 0 0 1 .28-.02c2.11 1.75 5.08 2.85 7.8 1.91 2.9-1 4.2-4.03 3.88-6.83-.22-2.04-1.89-4.1-3.38-5.6-2.15-2.17-4.6-4.34-6.41-6.71a4.74 4.74 0 0 1-.88-4.44c.94-2.65 4.35-2.71 5.76-.42 1.26 2.04.57 4.37-.93 6.15-.03.03-.06.03-.1 0Z" fill="#CEFBFE"/><path d="M19.02 45.92c.76.25 1.54.38 2.34.38.07 0 .11.04.12.1l.03.46a.12.12 0 0 1-.04.1.13.13 0 0 1-.1.04c-.52-.05-1.09-.05-1.58-.15-2.57-.5-3.83-2.1-3.79-4.8a6.14 6.14 0 0 1 1.38-3.7c2.8-3.64 5.56-7.24 8.25-10.81.1-.13.21-.14.34-.04l.12.1c.16.12.18.26.05.43-2.92 3.8-5.74 7.48-8.44 11.03-1.42 1.87-1.67 5.87 1.32 6.86Z" fill="#CEFBFE"/><path d="M18.55 40.04c-.13.22-.31.68-.55 1.38a2.43 2.43 0 0 0 1.15 2.93c.7.4 1.44.6 2.21.66.11 0 .17.06.17.17v.34c-.01.1-.06.14-.16.14-1 0-1.93-.28-2.8-.86-1.7-1.12-1.67-3.09-.81-4.7.5-.91 1.04-1.83 1.68-2.67a802.05 802.05 0 0 1 7.01-9.2.14.14 0 0 1 .16.02l.27.24c.08.08.09.16.02.25l-.62.85c-1.93 2.51-3.93 5.14-6.01 7.88-.64.83-1.21 1.7-1.72 2.57Z" fill="#CEFBFE"/><path d="M19.32 42.07c.14 1.26 1.05 1.48 2.14 1.61.03 0 .05.02.07.04a.1.1 0 0 1 .02.08l-.02.35c0 .1-.07.16-.18.16-1.1.04-2.17-.44-2.54-1.53-.54-1.58.18-2.4 1.05-3.59l7.23-9.93c.09-.11.2-.14.32-.07a.6.6 0 0 1 .2.14c.11.14.11.27.01.41C25 33.3 22.37 36.9 19.74 40.5c-.34.47-.48 1-.42 1.57Z" fill="#CEFBFE"/><path d="M20.88 40.92c-.43.6-.18 1.13.48 1.35a.28.28 0 0 1 .18.17c.04.13.05.27.02.4-.02.1-.08.14-.18.12-1.37-.22-1.75-1.47-1.02-2.49 2.5-3.45 5.03-6.92 7.59-10.4.08-.12.18-.13.28-.02l.14.15a.3.3 0 0 1 .02.38l-7.5 10.34Z" fill="#CEFBFE"/></svg>