<!-- by TradingView --><svg width="56" height="56" viewBox="0 0 56 56" xmlns="http://www.w3.org/2000/svg"><path fill="#31A1D7" d="M0 0h56v56H0z"/><path fill-rule="evenodd" d="M5 30v-6h1.94c.9 0 1.56.82 1.56 1.83 0 .73-.33 1.27-.86 1.52L9.14 30H7.94l-1.37-2.5H6V30H5Zm1.69-5H6v1.5h.69c.45 0 .81-.34.81-.75S7.14 25 6.69 25Zm41.4 3.95v.88c.16.05.63.17 1.26.17.8 0 1.65-.28 1.65-1.18 0-.54-.48-.9-.72-1.02l-.06-.03c-.28-.12-1.07-.48-1.07-.7 0-.22.68-.49 1.32.04l.48-.73c-.14-.13-.62-.38-1.44-.38-1.03 0-1.51.6-1.51 1.24 0 .56.73.93 1.05 1.1l.1.05.15.07c.26.13.65.31.65.6 0 .36-1.09.25-1.86-.11ZM9.68 26.48l.54.7c.15-.13.55-.4.98-.4.53 0 .8.4.8.58v.31h-1.42c-.68 0-1.24.52-1.24 1.16 0 .64.56 1.16 1.24 1.16h.22c.28 0 .87-.13 1.2-.52V30h1v-2.9c-.01-.36-.38-1.1-1.74-1.1-.7 0-1.3.32-1.56.46l-.02.02ZM12 28.9v-.62h-.82c-.6 0-.7.42-.7.59 0 .16.08.42.66.42.45 0 .76-.28.85-.42l.01.03Zm29.28-1.71-.54-.71.02-.02c.26-.14.85-.46 1.56-.46 1.36 0 1.67.74 1.68 1.1V30h-1v-.47c-.33.34-.88.45-1.14.46h-.22c-.68 0-1.24-.52-1.24-1.16 0-.64.56-1.16 1.24-1.16H43v-.3c0-.18-.21-.6-.75-.6-.43 0-.83.28-.97.42ZM43 28.28v.65a1.1 1.1 0 0 1-.8.36c-.58 0-.67-.26-.67-.42 0-.17.11-.6.71-.6H43Zm-27.94 1.86-.1.29c-.05.18-.27.57-.7.57h-.67v1h.98c.29.01.96-.2 1.33-1.13L17.77 26h-1.23l-.91 2.57-.84-2.57H13.4l1.65 4.14ZM18 26v4h1v-2.49.01c.12-.22.47-.67.91-.67.45 0 .57.32.59.48V30h1v-2.65c.16-.23.45-.5.8-.5.44 0 .68.32.7.48V30h1v-2.52c0-.74-.53-1.48-1.5-1.48-.68 0-1.03.43-1.16.73-.2-.42-.6-.73-1.23-.73-.61 0-.96.35-1.11.64l-.27-.64H18Zm7.6 2.33h2.75v-.52c0-.6-.39-1.81-1.92-1.81-1.92 0-1.93 1.84-1.93 2.25 0 .42.1 1.75 2.08 1.75a2.7 2.7 0 0 0 1.58-.42v-.76c-.2.13-.78.4-1.44.4-.82 0-1.12-.52-1.12-.9Zm.1-.84h1.54c-.04-.26-.25-.78-.77-.78s-.73.52-.77.78Zm4.34 2.5c.39 0 .74-.18 1-.48l.26.49h.7v-6h-1v2.44c-.26-.27-.6-.44-.96-.44-.85 0-1.54.9-1.54 2s.69 2 1.54 2Zm.21-.73c.41 0 .75-.56.75-1.26s-.34-1.26-.75-1.26-.75.56-.75 1.26.34 1.26.75 1.26ZM37 30v-6h1v5h2v1h-3Zm9.46 0c-.39 0-.74-.19-1-.49l-.26.49h-.7v-6h1v2.44c.26-.27.6-.44.96-.44.85 0 1.54.9 1.54 2s-.69 2-1.54 2Zm-.21-.74c-.41 0-.75-.56-.75-1.26s.34-1.26.75-1.26.75.56.75 1.26-.34 1.26-.75 1.26Z" fill="#fff"/></svg>