<!-- by TradingView --><svg width="56" height="56" viewBox="0 0 56 56" xmlns="http://www.w3.org/2000/svg"><path fill="#F0F3FA" d="M0 0h56v56H0z"/><path fill-rule="evenodd" d="M28 38c11.05 0 20-4.48 20-10s-8.95-10-20-10S8 22.48 8 28s8.95 10 20 10Zm0-1a9 9 0 1 0 0-18 9 9 0 0 0 0 18Z" fill="#CACFD3"/><path d="M16 26.13c-1.61-1.01-1.5-2.83-1.38-4.48l.05-1.1C18.2 18.96 22.87 18 28 18c5.34 0 10.2 1.05 13.78 2.75.07.4-.2.56-.48.74-.3.18-.63.38-.63.89 0 .44.08.72.16 1 .14.48.27.9-.16 2.12-.38 1.05-.33 1.12-.22 1.3.09.15.22.37.22 1.2 0 1.16-.51.4-1.22-.63-.43-.64-.94-1.4-1.45-1.87-1.33-1.25-3.33-3.13-4-5-.44-1.24-1.75-1.39-2.98-1.52a5.69 5.69 0 0 1-1.69-.36c-1.33-.62-4-.62-6.66.63-1.67.78-2.03 1.56-2.4 2.34-.22.47-.44.94-.94 1.41-.66.63-.83.94-.91 1.1a.35.35 0 0 1-.08.11c-.05.04-.13.04-.34.04-.67 0-.67 1.25 0 2.5.54 1.01.2.8-1 .01l-1-.64Zm30.35 5.85a3.89 3.89 0 0 0-1.68-.86c-1.25-.39-1.2-.78-1.15-1.17.03-.23.06-.47-.19-.7-.66-.63-2 .63-3.33 2.5-.95 1.34-.54 1.4.5 1.56.42.06.93.14 1.5.31.66.21.88.62.87 1.07 1.43-.8 2.61-1.7 3.48-2.7Zm-10.33 5.18c.14-.33.16-.69-.02-1.03-.36-.67-.71-.45-1.27-.1-.5.31-1.13.72-2.06.72-1 0-1.84.16-2.67.31-.83.16-1.67.31-2.67.31a7.24 7.24 0 0 1-3.28-1c-.64-.31-1.3-.63-2.05-.87-1.61-.5-1.5.21-1.38.84.02.15.05.29.05.41 0 .19 0 .38.07.57 2.25.44 4.7.68 7.26.68 2.85 0 5.57-.3 8.02-.84Z" fill="#6B7272"/><path d="M24.67 24.66c.53 1.52 1.1 1.9 1.33 1.9-.53.52-1.56.64-2 .64 1.07 1.02 4 .85 5.33.64 0-.21-.13-.64-.66-.64-.67 0 0 0 .66-.63.54-.51 1.56-.64 2-.64 0-.5-.89-.64-1.33-.64.22-.2.8-.63 1.33-.63.67 0 .67-2.55.67-3.18 0-.64-1.33 1.27-2.67 1.9-1.33.64-.66 1.91-1.33 1.91s0-.63-.67-1.27c-.66-.63-2-1.9-3.33-2.54-1.33-.64-2-.64-2 0 0 .63 2 1.27 2.67 3.18Z" fill="#6B7272"/><path d="M24 34v-5h1v.8c.5-.3 1.5-.8 2.21-.8H29v-1h1v1h1v4h2v1h-4.5l-1.93-1.8c.43-.2 1.29-.72 1.29-1.2a.6.6 0 0 0-.65-.6c-.64 0-1.19.6-1.19 1.2V34H24Zm4.36-2.1c0 .48.43.6.64.6v-1.2c-.21 0-.64.12-.64.6Z" fill="#CD5467"/><path fill-rule="evenodd" d="m28.01 18 .35.07c7.2.06 13.48 2.02 16.9 4.9h.06l.01.07c1.68 1.44 2.65 3.11 2.67 4.9v.12c-.02 1.78-.99 3.46-2.66 4.9l-.03.07-.04-.02c-3.42 2.9-9.7 4.86-16.92 4.92l-.34.07H28l-.82-.07c-7-.14-13.08-2.08-16.43-4.9h-.07v-.07c-1.68-1.44-2.65-3.12-2.67-4.9v-.12c.02-1.79.99-3.46 2.67-4.9v-.07h.07c3.35-2.82 9.42-4.75 16.42-4.9L28 18h.02Zm-.01.19h-.16c-.97.36-2.14.85-3.38 1.47h.15l-.27.11h-.1a30.65 30.65 0 0 0-3.7 2.18c-.61.42-1.2.87-1.72 1.34l1.48.04-.07.13-1.55-.05c-.5.45-.94.91-1.31 1.4-.8 1-1.28 2.05-1.3 3.13H19v.12h-2.93c.02 1.08.5 2.14 1.3 3.14.34.43.74.86 1.18 1.27l1.6-.07.06.12-1.53.06c.57.52 1.2 1 1.86 1.47 1.17.82 2.46 1.56 3.7 2.18h.1l.26.1-.14.01a35.8 35.8 0 0 0 3.38 1.47h.35c1.1-.35 2.48-.88 3.9-1.57l-.44-.01.25-.12.42.02a25.87 25.87 0 0 0 3.14-1.82c.91-.62 1.75-1.3 2.46-2.04l-1.97-.04.06-.13 2.02.05c1.14-1.23 1.88-2.6 1.9-4.09H37v-.12h2.93c-.02-1.6-.87-3.07-2.16-4.36l-1.9.03-.08-.12c.63 0 1.25-.02 1.86-.04a16.05 16.05 0 0 0-2.19-1.77c-1-.68-2.07-1.28-3.14-1.8h-.42a9.13 9.13 0 0 0-.25-.11l.44-.01a31.18 31.18 0 0 0-3.9-1.57H28Zm-.74 0h-.09c-1.87.2-4.2.58-6.5 1.23l2.43.16c1.5-.58 2.94-1.05 4.16-1.39Zm-8.32 1.08c2.04-.52 4.3-.87 6.68-1.01-1.64.23-3.49.6-5.3 1.13l-1.38-.12Zm-5.02 1.81c1.4-.69 2.99-1.28 4.74-1.74v.03l1.33.12c-.98.3-1.94.64-2.85 1.03a15.13 15.13 0 0 0-4.16 2.56l-2.05-.1c.84-.69 1.84-1.33 3-1.9Zm-5.79 6.86c.03-1.75.98-3.4 2.66-4.84l2.06.1a6.5 6.5 0 0 0-2.25 4.74H8.13Zm2.66 4.96c-1.68-1.43-2.63-3.09-2.66-4.84h2.47a6.48 6.48 0 0 0 2.21 4.71l-2.02.13Zm3.13 2.02a15.53 15.53 0 0 1-3-1.9c.63-.05 1.3-.1 2.02-.13 1.13 1.04 2.6 1.9 4.2 2.59.91.4 1.87.74 2.85 1.03l-1.33.12v.03a25.12 25.12 0 0 1-4.74-1.74Zm11.7 2.82c-2.38-.14-4.64-.49-6.69-1.01l1.38-.12c1.83.53 3.68.9 5.32 1.13Zm1.56.06h.09c-1.23-.33-2.68-.8-4.17-1.38-.87.05-1.69.1-2.43.16 2.3.65 4.63 1.04 6.51 1.22Zm9.94-1.08c-2.44.62-5.17 1-8.08 1.08 1.6-.33 3.5-.8 5.43-1.43.98.08 1.88.2 2.65.35Zm4.96-1.8a25.1 25.1 0 0 1-4.74 1.74v-.03c-.74-.15-1.61-.27-2.56-.36 1.38-.45 2.78-.98 4.08-1.59a20.33 20.33 0 0 0 3.67-2.12c1.04.1 1.92.25 2.59.42-.85.7-1.87 1.35-3.04 1.94Zm5.79-6.86c-.03 1.74-.97 3.39-2.64 4.82-.66-.18-1.53-.32-2.56-.43.3-.23.56-.46.81-.7 1.17-1.1 1.9-2.32 1.92-3.69h2.47Zm-2.65-4.95c1.67 1.43 2.62 3.08 2.65 4.83H45.4c-.02-1.37-.75-2.6-1.92-3.7-.31-.3-.67-.59-1.05-.87 1.04-.07 1.98-.16 2.79-.26Zm-3.14-2.03a15.5 15.5 0 0 1 3 1.92c-.81.1-1.76.19-2.8.26-1-.72-2.16-1.37-3.42-1.95-1.3-.6-2.7-1.13-4.08-1.59.95-.08 1.82-.2 2.57-.35v-.03c1.74.46 3.34 1.05 4.73 1.74Zm-7.6-1.45c.97-.08 1.86-.2 2.64-.35-2.44-.62-5.17-1-8.07-1.08 1.6.33 3.5.8 5.42 1.43Zm-14.15-.12c-1.07.32-2.13.69-3.14 1.12a15.17 15.17 0 0 0-4.03 2.45l3.15.13c.74-.58 1.6-1.13 2.49-1.63a34.42 34.42 0 0 1 4.03-1.89c-.9-.05-1.74-.11-2.5-.18Zm2.8.2c-1.44.56-2.91 1.22-4.26 1.98-.85.47-1.65.98-2.36 1.52l2.12.07a19 19 0 0 1 1.83-1.43 30.47 30.47 0 0 1 3.52-2.1l-.86-.04Zm1.08-.07-.8-.04c1.2-.46 2.38-.85 3.43-1.15-.81.33-1.7.73-2.63 1.2Zm8.38.22c1 .5 2 1.08 2.95 1.72a16 16 0 0 1 2.29 1.87l1.9-.06c-.78-.6-1.66-1.18-2.6-1.7-1.25-.7-2.6-1.32-3.93-1.86l-.61.03Zm.33-.14-.57.03c-.84-.42-1.68-.78-2.45-1.08.94.29 1.97.64 3.02 1.05Zm.57.1c1.26.51 2.53 1.1 3.71 1.76.99.55 1.91 1.15 2.72 1.8l2.16-.11a21.21 21.21 0 0 0-3.28-1.84 38.76 38.76 0 0 0-4.34-1.68l-.97.07Zm.65-.17-.92.06c-1.26-.5-2.5-.93-3.6-1.26 1.37.3 2.93.7 4.52 1.2Zm8.1 3.73c-.69.05-1.42.09-2.18.12.38.32.74.65 1.05.98a5.27 5.27 0 0 1 1.62 3.46h2.54c-.03-1.32-.73-2.53-1.88-3.6-.35-.34-.73-.65-1.15-.96Zm3.03 4.68h-2.54a5.27 5.27 0 0 1-1.62 3.45c-.23.26-.5.5-.77.75.77.05 1.5.1 2.15.17.32-.25.62-.5.9-.76 1.15-1.08 1.85-2.29 1.88-3.6Zm-2.93 4.48c-.65-.07-1.37-.12-2.13-.16-.87.73-1.9 1.42-3 2.04a33.82 33.82 0 0 1-3.72 1.76l.97.07a38.78 38.78 0 0 0 4.34-1.68c1.31-.6 2.53-1.28 3.54-2.03Zm-8.2 3.8-.92-.05c-1.26.5-2.5.93-3.6 1.26 1.37-.3 2.93-.7 4.52-1.2Zm-4.24 1c.94-.3 1.97-.65 3.02-1.06l-.57-.03c-.84.42-1.68.78-2.45 1.08Zm2.69-1.2.6.02a34.14 34.14 0 0 0 3.94-1.85c1.07-.6 2.06-1.24 2.9-1.95a79.53 79.53 0 0 0-1.94-.08c-.73.77-1.6 1.49-2.55 2.13-.94.65-1.95 1.22-2.95 1.73Zm5.6-3.98a95.9 95.9 0 0 1 1.97.09c.3-.27.6-.54.85-.82a5.16 5.16 0 0 0 1.59-3.37h-2.53c-.02 1.5-.75 2.87-1.87 4.1Zm1.88-4.22h2.53A5.16 5.16 0 0 0 41 24.57c-.34-.37-.72-.72-1.14-1.06l-1.92.06c1.25 1.3 2.1 2.77 2.12 4.37ZM18.5 23.4l-2.15-.07c-.5.4-.96.8-1.36 1.24a5.16 5.16 0 0 0-1.59 3.37h2.53a5.4 5.4 0 0 1 1.33-3.21c.36-.46.78-.9 1.24-1.33Zm-2.57 4.66H13.4c.02 1.2.62 2.33 1.59 3.37.37.4.79.78 1.25 1.15l2.13-.1c-.41-.4-.79-.8-1.11-1.2a5.4 5.4 0 0 1-1.33-3.22Zm2.57 4.53-2.11.1c.74.58 1.58 1.12 2.48 1.62 1.35.76 2.82 1.42 4.25 1.98l.86-.05c-1.18-.6-2.4-1.3-3.52-2.09-.7-.49-1.37-1.01-1.96-1.56Zm5.7 3.77-.8.04c1.22.46 2.4.85 3.44 1.15-.81-.33-1.7-.73-2.63-1.2Zm-1.37-.05a34.42 34.42 0 0 1-4.03-1.9 19.8 19.8 0 0 1-2.6-1.7c-1.09.05-2.12.1-3.08.17 1.1.99 2.52 1.81 4.07 2.48 1 .44 2.07.81 3.14 1.12.76-.06 1.6-.12 2.5-.17Zm-9.84-3.55 3.06-.17c-.43-.35-.82-.7-1.16-1.08a5.27 5.27 0 0 1-1.62-3.45h-2.54a6.4 6.4 0 0 0 2.26 4.7Zm-2.26-4.82h2.54c.02-1.24.63-2.4 1.62-3.46.37-.4.8-.78 1.26-1.16l-3.12-.12a6.42 6.42 0 0 0-2.3 4.74Z" fill="#6B7272"/></svg>