<!-- by TradingView --><svg width="56" height="56" viewBox="0 0 56 56" xmlns="http://www.w3.org/2000/svg"><path fill="#F0F3FA" d="M0 0h56v56H0z"/><path d="M31.66 12.5a160.3 160.3 0 0 0-6.98-.03c-.45.01-.46-.03 0-.12a16.44 16.44 0 0 1 7 .08v.06h-.02ZM34.61 13.56l-13.27.02c-.21 0-.22-.04-.03-.14.37-.16.76-.33 1.18-.48.34-.13.75-.2 1.24-.2h8.93c.56.01 1.22.25 1.97.74.06.04.06.06-.02.06ZM13.6 32.73h-.82c-.05 0-.09-.02-.1-.07l-.11-.44c-.02-.05 0-.08.06-.08l1.25.01c.06 0 .08-.03.08-.08V32c0-.07-.03-.11-.1-.1H12.6a.16.16 0 0 1-.1-.04.16.16 0 0 1-.06-.1l-.04-.27c-.01-.08.02-.11.1-.11l1.67-.02c.02 0 .04 0 .04-.03v-.06c0-.08-.04-.11-.11-.11h-1.68c-.09-.01-.14-.05-.15-.14l-.07-.44c0-.06.02-.09.08-.09h6.2a.2.2 0 0 0 .18-.11l.09-.15c.03-.08.01-.11-.07-.11h-6.49c-.04 0-.06-.03-.06-.07l-.04-.46c0-.05.01-.07.06-.07h6.78c.1 0 .17-.05.21-.15l.02-.05a.12.12 0 0 0-.05-.14.11.11 0 0 0-.05-.01h-6.97c-.03 0-.05-.03-.05-.06l-.03-.46v-.02a.05.05 0 0 1 .03-.02H19.36c.09 0 .14-.06.17-.15l.01-.06c.03-.1-.01-.15-.11-.15h-7.38c-.03 0-.05-.01-.05-.04v-.52c0-.03.02-.05.04-.05h7.74a.2.2 0 0 0 .19-.13l.03-.1c.03-.08 0-.12-.09-.12H12.1c-.06 0-.08-.03-.08-.09v-.37c0-.05.03-.08.08-.08l8.1-.02a.19.19 0 0 0 .18-.14l.02-.08c.02-.08-.01-.12-.1-.12h-8.08a.12.12 0 0 1-.12-.14l.06-.4a.1.1 0 0 1 .03-.06.09.09 0 0 1 .06-.02h8.37a.2.2 0 0 0 .13-.05.2.2 0 0 0 .07-.11l.01-.07c.02-.08 0-.11-.09-.11h-8.48a.06.06 0 0 1-.05-.02.05.05 0 0 1 0-.05l.17-.76c0-.02.02-.03.04-.03h8.72c.08 0 .14-.04.18-.1l.06-.12c.04-.08.02-.12-.07-.12h-8.73c-.08 0-.1-.04-.09-.12l.1-.41c.02-.07.06-.1.13-.1h8.8c.12 0 .2-.05.26-.15l.03-.06c.04-.1.01-.15-.1-.15h-8.87a.09.09 0 0 1-.07-.03.1.1 0 0 1-.01-.08l.13-.39c.03-.09.09-.13.18-.13h8.95a.2.2 0 0 0 .18-.12l.03-.08c.04-.1 0-.14-.1-.14h-9a.04.04 0 0 1-.04-.03v-.02l.26-.68c0-.02.02-.03.04-.03h9.1a.24.24 0 0 0 .23-.15l.02-.07a.1.1 0 0 0-.08-.13h-8.98c-.1 0-.14-.06-.1-.16l.14-.26c.04-.1.12-.15.23-.15l9-.01c.07 0 .12-.03.14-.1l.03-.13c.02-.06 0-.1-.07-.1h-8.9c-.13 0-.16-.05-.08-.16l.28-.45a.23.23 0 0 1 .2-.1h8.82a.2.2 0 0 0 .2-.12l.04-.08c.04-.08.02-.13-.08-.13h-8.77c-.1 0-.12-.04-.06-.12l.23-.35c.07-.1.17-.15.29-.15h8.55c.1 0 .18-.05.23-.14l.04-.08c.04-.08.02-.12-.07-.12h-8.5a.09.09 0 0 1-.06-.15l.4-.48c.1-.1.2-.16.34-.16h8.23c.09 0 .14-.04.15-.13v-.1c.02-.07-.01-.11-.09-.11h-7.98c-.1 0-.12-.04-.06-.12.16-.2.34-.38.56-.53a.36.36 0 0 1 .2-.06h7.66c.1 0 .15-.05.17-.14l.02-.13a.07.07 0 0 0-.01-.05.07.07 0 0 0-.06-.03h-7.4c-.13 0-.14-.04-.05-.13.3-.26.71-.71 1.13-.71h6.72a.2.2 0 0 0 .21-.18v-.07c.02-.07-.01-.1-.09-.1h-6.4c-.14 0-.15-.05-.03-.13l1.03-.65c.23-.14.48-.1.77-.09H35.2c.26 0 .5-.04.72.1l1.19.74c.23.15.2.16-.07.16H26.57c-.01 0 .02-.01 0 0-.01.01.01-.02 0 0l-7.15 15.86c-.03.07-.08.14-.16.14H14.9c-.06 0-.1.12-.13.18l-1.33 3.22a.06.06 0 0 1-.06.03h-.03a.06.06 0 0 1-.02-.04l-.24-.58c-.04-.1 0-.14.1-.15h.36c.06-.01.1-.04.1-.1v-.09c0-.02-.02-.04-.04-.04h-.56c-.1 0-.15-.05-.17-.14l-.05-.19c-.02-.08.01-.12.1-.12l.66.02c.03 0 .04 0 .05-.04l.03-.14c.01-.06-.01-.1-.07-.09Z" fill="#22257F"/><path d="m37.78 15.5-1.2 4.21c-.03.14-.15.29-.3.29h-5.9c-.07 0-.12.01-.15.08l-7.09 15.76a.3.3 0 0 1-.11.13c-.05.03-.1.03-.15.03h-8.79a15.69 15.69 0 0 0 14.98 7.96 16 16 0 0 0 8.83-28.54.1.1 0 0 0-.1.03.1.1 0 0 0-.02.05Zm-7.26 18.1c-.05-.03-.09-.01-.11.04l-3.44 7.23c-.07.13-.15.13-.27.13h-4.9a.06.06 0 0 1-.04-.08l8.72-19.36a.19.19 0 0 1 .17-.1c1.32.02 2.69.03 4.1 0 1.14-.02 2.03.05 2.66.2 2.39.53 4.24 2.2 4.34 4.77A7.5 7.5 0 0 1 40 31.78a7.39 7.39 0 0 1-7.06 2.59 9.64 9.64 0 0 1-2.42-.77Zm4.63-3.62a2.5 2.5 0 1 0 0-5 2.5 2.5 0 0 0 0 5Z" fill="#160C51"/></svg>