<!-- by TradingView --><svg width="18" height="18" viewBox="0 0 18 18" xmlns="http://www.w3.org/2000/svg"><path fill="#097054" d="M0 0h18v18H0z"/><path d="M8.82 4c2.08-.01 3.12.8 3.1 2.4 0 1.13-.01 1.72-.03 1.78-.02.1-.06.19-.1.28-.18.38-.5.71-.97 1.01-.13.08-.12.16.01.23A2.08 2.08 0 0 1 12 11.62v2.14c0 .16-.09.24-.27.24h-.79c-.15 0-.23-.07-.23-.2v-2.4a.7.7 0 0 0-.15-.43c-.32-.43-.8-.7-1.4-.8a8.76 8.76 0 0 0-1.8 0c-.1 0-.15.04-.15.13v3.38c0 .21-.13.32-.37.32h-.52c-.21 0-.32-.1-.32-.28V4.46c0-.26.15-.4.44-.42A62.2 62.2 0 0 1 8.82 4ZM7.54 5c-.21 0-.32.1-.31.28l.02 3.5c0 .18.11.27.33.26h1.37c.5 0 .91-.15 1.26-.44.34-.28.5-.63.5-1.03V6.44c0-.4-.18-.75-.53-1.03A1.93 1.93 0 0 0 8.92 5L7.54 5Z" fill="#FEFEFE"/></svg>