<!-- by TradingView --><svg width="56" height="56" viewBox="0 0 56 56" fill="none" xmlns="http://www.w3.org/2000/svg">
<rect width="56" height="56" fill="#F0F3FA"/>
<path d="M38.2356 30.0041L40 34.3892V30.0041H41V34.2798H43.0025V35H39.1647L38.6692 33.7418H37.6065V33H38.4668L37.7299 31.0607L37.6065 30.0041H38.2356ZM37.6065 33.7418H36.5755L36.0056 35H34V30.0041H35V34.6709L37.1949 30.0041H37.6065L37.7299 31.0607L36.8041 33H37.6065V33.7418ZM13.8373 34.1186C14.2414 34.8218 15.0323 34.9874 15.7492 35C16.6485 35.0126 17.392 34.4576 17.6527 34.1186C18.0958 33.5032 18 31.7216 18 30.7043C19.5361 30.7043 20.6415 30.8581 20.6415 32.5244C20.467 34.0605 19.727 34.2866 18.1108 34.2238C18.0066 34.4122 17.492 34.887 17.2314 35C18.6162 35 19.5521 34.9565 20.1532 34.7648C21.2961 34.4005 21.3242 33.6943 21.5975 33.0935V35L26 35V31.6618L28.9522 35H30V30.6988H31.5V35H32.5V30.6988H34V30.0041H29V33.5331L25.8502 30.0041H25V34.3167H22.6V32.6585H24.5577V32H22.6V30.6917L24.662 30.7043V30H21.6V31.6744C21.5146 31.3315 21.3432 31.0519 21.1607 30.8133C20.3526 29.8463 18.7856 30.0041 17 30.0041V32.4907C17 33.307 17.0264 34.3042 15.7492 34.3167C14.6413 34.3293 14.6404 33.8556 14.6013 32.7881V30.0041H13.5L13.8373 34.1186ZM13.5 30.0041L13.8373 34.1186C13.6809 33.8674 13.5 33.4703 13.5 33.0935V30.0041ZM14.0445 35L12.5429 32.8674C13.1815 32.5284 13.5074 31.8628 13.2988 31.059C13.0903 30.318 12.5571 30.0166 11.5926 30.0041L11.5263 30.6543H11.8263C12.3882 30.6543 12.5689 31.9089 12.0737 32.1977C11.9564 32.2856 11.7609 32.3108 11.5393 32.3233L11.5263 33L12.8818 35H14.0445ZM11.5926 30.0041L11.5263 30.6543H11L11.0037 32.3108C11.1992 32.3108 11.2395 32.3359 11.5393 32.3233L11.5263 33H11.0037V35H10.0001V30.0041H11.5926ZM7.77257 33C8.15157 33 8.57623 33.0003 8.9065 32.7881C9.74065 32.2858 9.74065 30.8204 8.9065 30.318C8.65886 30.1799 8.40059 30.0041 7.77257 30.0041V30.6543C8.5639 30.6543 8.70036 31.4925 8.40059 32.0075C8.27025 32.2335 8.07235 32.2856 7.77257 32.3108V33ZM7.77257 30.0041V30.6543H7V32.3108H7.77257V33H7V35H6V30.0041L7.77257 30.0041Z" fill="#C22026"/>
<path d="M44.1361 30.6351C44.1361 30.6351 44.1646 30.705 44.3215 30.8447C44.4785 30.9845 44.5355 31.0019 44.5355 31.0019C44.5355 31.0019 44.4927 31.2116 44.4927 31.5435C44.4927 31.8928 44.6069 32.5392 44.6069 32.5217C44.6069 32.5042 44.4357 32.2597 44.2787 31.7007C44.1075 31.0718 44.1361 30.6351 44.1361 30.6351Z" fill="#757668"/>
<path d="M43.1927 32.3106C43.1927 32.3106 43.2642 32.1886 43.2928 32.0317C43.3214 31.8747 43.3214 31.7527 43.3214 31.7527C43.3214 31.7527 43.4501 31.7353 43.6217 31.5609C43.7932 31.3866 43.9076 31.2297 43.9076 31.2297C43.9076 31.2297 43.8647 31.6132 43.6646 31.9096C43.3929 32.3455 43.1927 32.3106 43.1927 32.3106Z" fill="#757668"/>
<path d="M43.936 31.9643C44.079 31.9643 44.079 33.1356 44.079 33.1181C44.079 33.1006 44.6652 33.5027 44.6652 33.8698C44.6652 34.3593 43.936 34.6915 43.936 34.6915C43.936 34.6915 43.8931 35.0936 43.8216 35.4782C43.7501 35.8628 43.6787 36.3698 43.6787 36.3698C43.6787 36.3698 43.6358 35.9852 43.6358 35.6006V35.0062C43.6358 35.0062 43.2497 35.1635 43.2497 35.5132C43.2497 35.8628 43.3498 35.7579 43.3498 35.9502C43.3498 36.1425 43.2497 36.3698 43.2497 36.3698C43.2497 36.3698 43.2926 36.0201 43.0353 35.8278C42.7779 35.6355 42.8494 35.2859 43.0496 35.146C43.2498 35.0062 43.6215 34.8314 43.6215 34.8314C43.6215 34.8314 43.6358 34.4992 43.6358 34.0621C43.6358 33.6251 43.6501 33.4153 43.6501 33.4153C43.6501 33.4153 42.9638 33.2929 42.9495 32.9957C42.9495 32.9258 43.1354 32.8908 43.3498 32.8908C43.5071 32.8908 43.693 32.9433 43.693 32.9433C43.693 32.9433 43.8502 31.9643 43.936 31.9643ZM44.0647 33.5027C44.0647 33.5027 44.0361 33.8524 44.0075 34.1146C43.9789 34.3768 43.9503 34.5167 43.9503 34.5167C43.9503 34.5167 44.3649 34.3593 44.3792 33.9573C44.4078 33.5901 44.0647 33.5027 44.0647 33.5027Z" fill="#757668"/>
<path d="M45.9378 29.8637V30.4915C45.9378 30.4915 45.9807 30.3346 46.5955 30.0904C47.2103 29.8288 47.5963 29.8113 47.5963 29.8113L45.9378 29.8637Z" fill="#757668"/>
<path d="M46.3664 30.8778V30.495C46.3664 30.495 46.6237 30.4428 46.8668 30.4428C47.2957 30.4428 47.5674 30.5472 47.5674 30.5472C47.5674 30.5472 47.4387 30.5298 47.3243 30.5298C47.2099 30.5298 47.1813 30.5646 47.1813 30.5646C47.1813 30.5646 47.2528 30.8082 47.1098 30.8778C46.9669 30.9474 46.9526 30.93 46.8954 30.9474C46.8382 30.9648 46.7524 30.9648 46.7524 30.9648L46.8382 30.8604C46.8382 30.8604 46.8668 30.843 46.8096 30.7734C46.7524 30.7038 46.781 30.5994 46.781 30.5994C46.781 30.5994 46.7238 30.6516 46.5809 30.7212C46.4665 30.8082 46.3664 30.8778 46.3664 30.8778Z" fill="#757668"/>
<path d="M47.0386 33.3623H47.4533C47.4533 33.3623 47.6677 33.0661 47.7392 33.0661C47.8393 33.0661 47.8822 33.2752 47.9965 33.2752C48.0251 33.2752 48.1109 33.1184 48.1824 33.1184C48.2968 33.1184 48.2968 33.3623 48.3397 33.3623H48.4541V33.3971H48.0966C48.0966 33.3971 48.068 33.4842 47.9965 33.4842C47.9251 33.4842 47.8393 33.3797 47.8393 33.3797H47.0386V33.3623Z" fill="#757668"/>
<path d="M48.2679 33.5557C48.2679 33.5557 48.1535 33.7473 47.8533 33.7473C47.5959 33.7473 47.4816 33.608 47.4101 33.5557C47.3958 33.5383 47.3672 33.5383 47.3386 33.5383C47.31 33.5383 47.3243 33.5732 47.3529 33.5732C47.3815 33.5732 47.3815 33.5906 47.3958 33.5906C47.4101 33.6254 47.4244 33.6602 47.4673 33.7299C47.5673 33.8866 47.7675 33.9911 47.8533 33.9911C47.9391 33.9911 48.0391 33.9563 48.1964 33.7821C48.3108 33.6428 48.2679 33.5557 48.2679 33.5557Z" fill="#757668"/>
<path d="M45.1509 34.0074C45.1509 34.0074 46.7509 34.829 47.5189 34.829C47.9669 34.829 47.9989 34.7416 48.1429 34.5493C48.2869 34.357 49.1509 33.0633 49.3109 32.1717C49.4869 31.2802 49.5349 31.0354 49.5349 31.0354C49.5349 31.0354 49.5989 31.9794 49.2949 32.8885C49.0069 33.8151 48.3189 34.7766 48.1749 34.9339C48.0309 35.0913 47.8069 35.1262 47.3589 35.0738C46.9109 35.0213 46.0949 34.7066 45.7269 34.4094C45.3429 34.1123 45.1509 34.0074 45.1509 34.0074Z" fill="#757668"/>
<path d="M49.183 37V36.4406C49.183 36.2133 49.2974 35.986 49.469 35.8287C49.6406 35.6714 49.7835 35.6539 49.7835 35.1644C49.7835 34.6924 49.7692 34.7448 49.7692 34.535C49.7692 34.3252 49.8979 34.1154 50.0695 34.1154C50.241 34.1154 50.4269 34.3952 50.4269 34.3952C50.4269 34.3952 50.0838 34.3952 50.0266 34.9196C49.9694 35.4441 49.9694 35.6014 49.8121 35.9336C49.6549 36.2483 49.5119 36.3881 49.3975 36.5804C49.2688 36.7727 49.183 37 49.183 37Z" fill="#757668"/>
<path d="M50.3269 35.1104L50.57 35.3018C50.57 35.3018 50.5843 35.1626 50.7129 34.9886C50.8416 34.8146 50.8988 34.7624 50.8988 34.7624C50.8988 34.7624 50.813 34.7102 50.5843 34.832C50.3698 34.9712 50.3269 35.1104 50.3269 35.1104Z" fill="#757668"/>
<path d="M50.0126 36.091L50.3272 36.353C50.3272 36.353 50.3844 36.1084 50.5845 35.829C50.7704 35.5669 50.8848 35.5145 50.8848 35.5145C50.8848 35.5145 50.656 35.4621 50.3844 35.6717C50.0984 35.8988 50.0126 36.091 50.0126 36.091Z" fill="#757668"/>
<path d="M51.9999 30.4058C51.9999 30.4058 52.0142 29.5492 51.6996 29.5492C51.4709 29.5492 51.0992 29.9513 50.5988 31.9268C50.2985 33.133 50.6131 33.8323 50.6131 33.8323C50.6131 33.8323 50.6988 32.5037 50.8704 32.0491C51.0277 31.5946 51.4709 30.231 51.7997 30.231C51.9427 30.231 51.9999 30.4058 51.9999 30.4058Z" fill="#757668"/>
<path d="M49.2836 30.1105C49.2836 30.1105 48.3527 30.0056 48.2885 31.0021C48.2725 31.2643 48.3206 31.2468 48.3206 31.7014C48.3206 32.1559 48.3206 32.1734 48.3206 32.2783C48.3206 32.3832 48.3688 32.5405 48.0959 32.5405H47.1489C47.0526 32.5405 47.0045 32.593 47.1008 32.6279C47.2131 32.6629 47.2613 32.6804 47.3415 32.7153C47.4218 32.7678 47.486 32.7853 47.5662 32.7328C47.6304 32.6979 47.6465 32.6629 47.7909 32.6629C47.9354 32.6629 47.9193 32.6629 47.9675 32.7153C48.0156 32.7678 48.0317 32.7678 48.1119 32.7678C48.1922 32.7678 48.2403 32.7328 48.3366 32.6104C48.433 32.5056 48.4972 32.2084 48.5132 31.7014C48.5453 31.1944 48.5614 30.7573 48.7379 30.4776C48.9466 30.2329 49.2836 30.1105 49.2836 30.1105Z" fill="#757668"/>
<path d="M49.2534 30.6872C49.2534 30.5476 49.1678 30.4428 49.0536 30.4428C48.9395 30.4428 48.8539 30.5476 48.8539 30.6872C48.8539 30.7571 48.8824 30.8269 48.9395 30.8793C48.9395 30.8968 48.9252 30.8968 48.9252 30.9142C48.8824 30.9666 48.8111 31.0016 48.8111 31.0016C48.8111 31.0016 48.8682 31.0365 48.9538 30.9841C48.9966 30.9666 49.0394 30.9492 49.0679 30.9317C49.0822 30.9317 49.0964 30.9317 49.1107 30.9142C49.1963 30.8968 49.2534 30.8095 49.2534 30.6872Z" fill="#757668"/>
<path d="M49.3109 29.5128V28.9024L48.8829 28.7977C48.8829 28.7977 49.1111 28.9024 49.211 29.1291C49.3109 29.3035 49.3109 29.5128 49.3109 29.5128Z" fill="#757668"/>
<path d="M49.5406 28.5339C49.5406 28.6388 49.5153 28.6913 49.4395 28.8311C49.3638 28.971 49.3385 29.1633 49.2248 29.0584C49.1112 28.9535 48.7702 28.6388 47.2421 28.6388C46.2444 28.6388 45.6634 28.901 45.4614 28.901C45.2593 28.901 44.9941 28.7262 44.9941 28.2892C44.9941 27.8521 45.0825 27.7647 45.1077 27.7647C45.1204 27.7647 45.2593 28.4465 45.8023 28.4465C46.3454 28.4465 47.1031 27.9395 48.1135 27.9395C48.9217 27.957 49.5406 28.4815 49.5406 28.5339Z" fill="#C22026"/>
<path d="M47.3531 27.7984C47.3531 27.7984 47.253 26.8202 46.867 26.8202C46.7383 26.8202 46.6526 26.9076 46.5525 26.9076C46.2808 26.9076 46.0378 26.2612 45.6517 26.2612C45.4802 26.2612 45.3658 26.3311 45.2657 26.3311C45.1085 26.3311 44.9941 26.104 44.9941 26.104C44.9941 26.104 44.9941 26.7853 45.6517 26.7853C45.809 26.7853 45.9806 26.7678 46.1521 26.8901C46.8384 27.3967 47.3531 27.7984 47.3531 27.7984Z" fill="#757668"/>
<path d="M47.0672 26C47.0672 26 46.9242 26.2797 47.4246 26.6643C47.925 27.0489 47.9679 26.9091 48.0966 27.2237C48.2253 27.5209 48.2253 27.5734 48.2253 27.5734C48.2253 27.5734 48.3396 27.3986 48.3396 27.1363C48.3396 26.8566 48.211 26.6818 47.8821 26.5594C47.5533 26.4371 47.5104 26.4371 47.3817 26.3322C47.3245 26.2797 47.2816 26.2098 47.2244 26.1399C47.153 26.0524 47.0672 26 47.0672 26Z" fill="#757668"/>
<path d="M48.7257 26.8562C48.7257 26.8562 48.7972 27.083 48.8687 27.2575C48.9402 27.432 49.0402 27.7809 49.2118 27.7809C49.3691 27.7809 49.3977 27.432 49.2118 27.3273C49.026 27.2052 48.9831 27.1703 48.8973 27.083C48.7972 26.9783 48.7257 26.8562 48.7257 26.8562Z" fill="#757668"/>
<path d="M45.1509 29.0995C45.1509 29.0995 44.4005 28.2669 43.8476 28.2669C43.2157 28.2669 43.163 28.6759 42.439 28.6759H42.4258C41.7544 28.6759 41.7281 28.2377 41.7281 28.2377C41.7281 28.2377 41.557 28.4422 41.4912 28.6613C41.4122 28.9096 41.4517 29.1871 41.7808 29.1871C42.1362 29.1871 42.6628 28.6905 43.4527 28.6905H43.7818C43.7818 28.6905 43.9266 28.895 44.1767 28.9826C44.4268 29.0703 44.598 29.0849 44.6375 29.0849C44.677 29.0849 44.677 29.2017 44.6243 29.2017C44.5716 29.2017 44.361 29.231 44.1899 29.231C44.0187 29.231 43.7028 29.1579 43.3737 29.1579C43.0446 29.1579 42.7418 29.1725 42.5311 29.304C42.3205 29.4354 42.3073 29.5231 42.2942 29.6691C42.281 29.8152 42.3337 30.1073 42.3337 30.1073C42.3337 30.1073 42.5575 29.6984 43.0182 29.6984C43.3473 29.6984 43.5185 29.8152 43.7554 29.8152C44.6638 29.8152 45.1509 29.0995 45.1509 29.0995Z" fill="#EE322D"/>
<path d="M14.3741 26L15.8925 20H17.8111L16.3066 26H14.3741Z" fill="#20477B"/>
<path d="M24.2449 26L25.7571 20H27.6679L26.1695 26H24.2449Z" fill="#20477B"/>
<path d="M34.1151 26L35.6334 20H37.552L36.0475 26H34.1151Z" fill="#20477B"/>
<path fill-rule="evenodd" clip-rule="evenodd" d="M32.328 22H34.2526C34.5138 20.6466 33.6889 20 31.8056 20C29.6198 20 28.1488 21.1429 27.6402 23.1128C27.1865 24.9023 28.0801 26 30.1284 26C32.2042 26 33.3616 25.3835 33.9501 24H32.0255C31.8056 24.5745 31.2557 24.812 30.5683 24.812C29.6335 24.812 29.2761 24.1804 29.5648 23.0376C29.8672 21.8496 30.5683 21.203 31.5031 21.203C32.0943 21.188 32.3692 21.4286 32.328 22Z" fill="#20477B"/>
<path fill-rule="evenodd" clip-rule="evenodd" d="M22.4574 22H24.382C24.6432 20.6466 23.8183 20 21.935 20C19.7492 20 18.2782 21.1429 17.7696 23.1128C17.3159 24.9023 18.2095 26 20.2578 26C22.3336 26 23.491 25.3835 24.0795 24H22.1549C21.935 24.5745 21.3851 24.812 20.6977 24.812C19.7629 24.812 19.4055 24.1804 19.6942 23.0376C19.9966 21.8496 20.6977 21.203 21.6325 21.203C22.2237 21.188 22.4986 21.4286 22.4574 22Z" fill="#20477B"/>
<path fill-rule="evenodd" clip-rule="evenodd" d="M8.17712 19.9498C10.0793 17.9108 12.389 17.3861 13.3129 18.7804C14.2368 20.1747 13.4216 22.9632 11.5195 24.9871C9.61732 27.0261 7.30757 27.5508 6.38367 26.1565C5.45977 24.7772 6.26139 21.9887 8.17712 19.9498Z" fill="#D77E28"/>
<path fill-rule="evenodd" clip-rule="evenodd" d="M9.42684 18.8684C9.22304 19.0334 9.00565 19.2283 8.80185 19.4531C7.13068 21.2222 6.43776 23.6509 7.26655 24.8653C8.10893 26.0797 10.1741 25.6449 11.8725 23.8458C12.7828 22.8863 13.4078 21.7769 13.6523 20.7425C13.7338 19.9779 13.6251 19.3032 13.2991 18.7935C12.5654 17.699 11.0029 17.789 9.42684 18.8684Z" fill="#C22026"/>
<path fill-rule="evenodd" clip-rule="evenodd" d="M10.3771 25.9894C9.48041 26.709 8.55652 27.0688 7.65979 26.9189C8.04022 26.9339 8.33913 26.4842 8.59728 25.8845C8.85542 25.2698 9.00488 24.6851 9.12716 24.1454C9.30379 23.2908 9.31737 22.6911 9.22227 22.5562C9.07281 22.3463 8.71956 22.3913 8.32554 22.6312C8.13533 22.7361 7.89076 22.6612 8.18967 22.2863C8.48858 21.8966 9.67063 20.967 10.1054 20.8171C10.5809 20.6672 11.1108 20.8621 10.9342 21.4168C10.7983 21.8366 9.15433 26.4692 10.3771 25.9894ZM11.7222 18.8082C11.9396 19.048 11.8037 19.5728 11.4369 19.9776C11.0565 20.3823 10.5538 20.5323 10.3364 20.2924C10.1054 20.0525 10.2413 19.5278 10.6217 19.108C11.0021 18.7032 11.5048 18.5683 11.7222 18.8082Z" fill="#F0F3FA"/>
</svg>
