<!-- by TradingView --><svg width="56" height="56" viewBox="0 0 56 56" xmlns="http://www.w3.org/2000/svg"><path fill="#F0F3FA" d="M0 0h56v56H0z"/><path fill-rule="evenodd" d="M4 31v-8h2v3.12l2.3-3.1h2.11L7.7 26.76l-.02.02L10.5 31H8.35l-1.92-2.98-.43.43V31H4Zm7-6v4.3c0 .94.77 1.7 1.72 1.7h.55a3.02 3.02 0 0 0 1.73-.71V31h2v-6h-2v4.04c-.18.28-.5.54-1.06.54-.92 0-.98-.72-.94-1.08V25h-2Zm30 1.7V31h-2v-3.5c.05-.36-.11-1.08-1.08-1.08-.42 0-.72.14-.92.32V31h-2v-8h2v2.57a3.3 3.3 0 0 1 1.62-.57h.58c1 0 1.8.76 1.8 1.7Zm-17.5 0V31h-2v-3.5c.04-.36.06-1.08-.8-1.08-.34 0-.56.1-.7.25V31h-2v-6h2v.6a2.76 2.76 0 0 1 1.5-.6h.52c.54 0 .97.28 1.22.7a2.75 2.75 0 0 1 1.63-.7h.5c.9 0 1.63.76 1.63 1.7V31h-2v-3.5c.04-.36.1-1.08-.76-1.08-.32 0-.56.1-.74.24v.04ZM30 31h-1.8v-8H30v2.56c.37-.28.94-.56 1.72-.56C33.2 25 34 26.17 34 27.96c0 1.8-1.2 3.04-2.66 3.04a2.5 2.5 0 0 1-1.34-.39V31Zm0-1.33v-3.02c.2-.17.46-.28.8-.28 1.03 0 1.2.53 1.2 1.6 0 1.06-.28 1.85-1.4 1.85-.24 0-.44-.06-.6-.15Zm12.1-4.28v1.37c.27-.17 1.05-.5 1.94-.5 1 0 .98.46.96.88v.06c-1.3.01-3.5.42-3.5 2.03 0 .6.65 1.77 1.92 1.77.65 0 1.18-.12 1.58-.31V31h2v-4.24c0-.59-.54-1.76-2.83-1.76-.94 0-1.77.26-2.08.4Zm2.9 4.17v-1.31c-.77-.08-1.53.12-1.5.98.04.88.93.78 1.5.33Zm3 0V26.5h-1V25h1v-2h2v2h2v1.5h-2v2.31c0 .37.2.84.91.84a2 2 0 0 0 1.09-.29v1.33c-.17.1-.74.31-1.65.31-1.94 0-2.38-.96-2.35-1.44Z" fill="#16689F"/></svg>