<!-- by TradingView --><svg width="18" height="18" viewBox="0 0 18 18" xmlns="http://www.w3.org/2000/svg"><path fill="#F0F3FA" d="M0 0h18v18H0z"/><path d="M11 5.06c.32-.06.62-.08.92-.04a3.54 3.54 0 0 1 2.98 2.62c0 .12.03.23.09.32a.05.05 0 0 1 0 .05.05.05 0 0 1-.05.03c-.25 0-.63 0-1.12-.02-.43-.02-.85-.25-1.24-.7-.4-.45-1.25-.53-1.74-.24-.4.2-.68.55-.86 1.02a3.95 3.95 0 0 0-.97-2.01 3.8 3.8 0 0 1 2-1.03Z" fill="url(#a)"/><path d="M4.96 5.36a3.45 3.45 0 0 1 4.05.72h.04l.25.32c.32.49.55 1.05.68 1.7-.1.5 0 .96.3 1.38.76.77 1.56.8 2.4.11l.19-.27a.1.1 0 0 0-.02-.14.1.1 0 0 0-.05-.02 1.26 1.26 0 0 0-.88.07.03.03 0 0 1 0-.05c.46-.38 1-.6 1.62-.63a14.77 14.77 0 0 1 1.44 0l.02.03a3.5 3.5 0 0 1-4.68 3.21c-.5-.2-.96-.5-1.36-.9 0 0-.9.84-1.69 1 .14-.56.33-1.56-.29-1.89.52-.21.87-.6 1.05-1.15.07-.35.03-.68-.11-.99a1.58 1.58 0 0 0-1.38-.95c-.82-.07-1.55.65-1.63 1.41-.08.8.35 1.41 1.09 1.7.34.66.33 1.3-.03 1.93-.26-.05-.5-.11-.74-.2A3.25 3.25 0 0 1 3.34 10c-.31-.6-.4-1.4-.3-1.99a3.4 3.4 0 0 1 1.92-2.64Z" fill="url(#b)"/><ellipse cx="9.09" cy="13.33" rx="4.92" ry=".67" fill="url(#c)"/><path d="M8 8.95c.08.57.33 1.4.9 1.98-.2.18-.95.83-1.63.95-.4.1-.84.12-1.3.07.36-.62.37-1.27.03-1.94.32.08.65.08.98 0 .5-.2.83-.56 1.02-1.06Z" fill="url(#d)"/><defs><linearGradient id="a" x1="9.45" y1="6.88" x2="14.48" y2="6.98" gradientUnits="userSpaceOnUse"><stop stop-color="#065E89"/><stop offset="1" stop-color="#0098DA"/></linearGradient><linearGradient id="b" x1="3" y1="8.99" x2="15" y2="8.93" gradientUnits="userSpaceOnUse"><stop offset=".49" stop-color="#0098DA"/><stop offset=".73" stop-color="#00638E"/><stop offset="1" stop-color="#008AC5"/></linearGradient><linearGradient id="c" x1="4.17" y1="13.33" x2="14.01" y2="13.33" gradientUnits="userSpaceOnUse"><stop stop-color="#F9FAFA"/><stop offset=".51" stop-color="#ABADB0"/><stop offset="1" stop-color="#FAFAFA"/></linearGradient><linearGradient id="d" x1="8.11" y1="10.15" x2="6.08" y2="10.46" gradientUnits="userSpaceOnUse"><stop stop-color="#085880"/><stop offset="1" stop-color="#0299DB"/></linearGradient></defs></svg>