<!-- by TradingView --><svg width="18" height="18" viewBox="0 0 18 18" xmlns="http://www.w3.org/2000/svg"><path fill="#E32124" d="M0 0h18v18H0z"/><path d="m7.95 5.55-.47.46a.23.23 0 0 0-.08.2c.22 1.63.7 3.2 1.45 4.68l.38 1.05c.02.04.05.06.1.06s.08-.02.1-.06c.7-1.77 1.3-3.59 1.76-5.45.05-.2 0-.38-.18-.52l-.5-.4c-.08-.07-.11-.17-.08-.28.03-.1.1-.17.23-.2a5.4 5.4 0 0 1 1.9-.01c.22.03.32.17.29.39l-.48.7a.48.48 0 0 0-.07.14 43.95 43.95 0 0 1-2.62 6.92c-.22.45-.63.62-1.24.5l-.1-.06a.35.35 0 0 1-.13-.12 18.07 18.07 0 0 1-1.83-4.29 75.11 75.11 0 0 1-.92-3.2l-.4-.47a.25.25 0 0 1-.05-.12c-.05-.28.14-.43.58-.44l1.68-.02c.17 0 .34.05.49.14.18.1.24.24.2.4Z" fill="#fff"/><path d="M8.44 13.73c.6.12 1.02-.05 1.24-.5A43.95 43.95 0 0 0 12.3 6.3l.07-.15.48-.69c.02-.01.06 0 .1.01.05.03.06.07.04.11l-.5.9a44.1 44.1 0 0 1-2.53 6.8c-.29.62-.75.83-1.39.65-.06-.02-.1-.06-.1-.11l-.03-.1Z" fill="#14226C"/><path d="m7.95 5.55.1-.03c.09.06.1.12.04.2l-.4.5a.34.34 0 0 0-.07.27c.23 1.48.64 2.94 1.23 4.4A14.6 14.6 0 0 1 7.4 6.21a.23.23 0 0 1 .07-.2l.48-.46Z" fill="#5B1D37"/></svg>