<!-- by TradingView --><svg width="18" height="18" viewBox="0 0 18 18" xmlns="http://www.w3.org/2000/svg"><path fill="#F0F3FA" d="M0 0h18v18H0z"/><path d="M8.33 9.43c.01.02.03.02.05.01.05-.05.12-.1.19-.13a.57.57 0 0 1 .62 0 .65.65 0 0 1 .3.53c0 .19-.07.35-.2.48-.14.12-.3.2-.51.2a.93.93 0 0 1-.71-.21.8.8 0 0 1-.27-.66c.02-.5.32-1 .91-1.5.39-.31.76-.63 1.13-.94.2-.18.37-.36.5-.55.12-.2.15-.44.08-.7-.07-.23-.2-.44-.39-.62a1.9 1.9 0 0 0-1.66-.5c-.34.04-.67.18-.98.4A3.83 3.83 0 0 0 5.93 8.5c.05 1.01.39 1.92 1 2.73.4.51.87.89 1.41 1.12.56.24 1.17.32 1.83.24a3 3 0 0 0 1.53-.63 6.7 6.7 0 0 0 1.1-1.2.08.08 0 0 1 .08-.03c.1.01.14.07.11.18A4.13 4.13 0 0 1 8.94 14a3.58 3.58 0 0 1-1.6-.43 4.13 4.13 0 0 1-1.5-1.37 4.89 4.89 0 0 1-.75-1.87 5.57 5.57 0 0 1 .44-3.41c.25-.54.58-1.03.97-1.45.41-.45.89-.8 1.42-1.07.6-.3 1.19-.43 1.77-.4a2.93 2.93 0 0 1 2.09 1.08l.3.3c.03.03.06.03.09.01l.46-.29a.11.11 0 0 1 .08-.01.1.1 0 0 1 .07.05l.02.02c.02.04.02.07-.02.1l-.33.27-1.98 1.53c-.65.5-1.18.94-1.6 1.33-.5.48-.68.83-.54 1.04Z" fill="#DF1B1F"/><path d="M8.4 6.44a.88.88 0 0 1-.59.07.88.88 0 0 1-.5-.3v-.04c.19-.2.42-.36.69-.49.27-.13.55-.2.82-.23.01 0 .03 0 .03.02a.83.83 0 0 1-.46.97Z" fill="#2A0D19"/></svg>