<!-- by TradingView --><svg width="56" height="56" viewBox="0 0 56 56" xmlns="http://www.w3.org/2000/svg"><path fill="#F0F3FA" d="M0 0h56v56H0z"/><path d="m20.82 14.25 2.18.61v7.18L9.34 37.8a1.3 1.3 0 0 0 .96 2.2h35.4a1.32 1.32 0 0 0 .96-2.2L33 22.04v-7.18l2.18-.6a.63.63 0 0 0 .5-.63.63.63 0 0 0-.64-.63H20.96a.63.63 0 0 0-.63.63c0 .3.2.56.49.62Z" fill="#9D969C"/><path d="M10 28c0-3.31 2.62-6 5.86-6h22.28A5.93 5.93 0 0 1 44 28c0 3.31-2.62 6-5.86 6H15.86A5.93 5.93 0 0 1 10 28Z" fill="#AF1402"/><path fill="#fff" d="M33 25h.7v6H33z"/><path fill-rule="evenodd" d="M18.76 25H16v6h2.93c.83 0 1.5-.7 1.5-1.58 0-.73-.49-1.36-1.14-1.53.53-.21.9-.76.9-1.39 0-.83-.64-1.5-1.43-1.5Zm-.21.67h-1.81v2.07h1.8c.53 0 .96-.46.96-1.03 0-.58-.43-1.04-.95-1.04Zm.1 2.68h-1.91v2.07h1.9c.56 0 1-.47 1-1.04 0-.57-.44-1.03-1-1.03ZM21.71 31h-.85l2.27-6h.84l2.42 6h-.93l-.72-2h-2.33l-.7 2Zm1.85-5.25.93 2.55h-1.83l.9-2.55ZM32 29.08A2.73 2.73 0 0 1 29.47 31c-1.49 0-2.7-1.35-2.7-3 0-1.66 1.21-3 2.7-3 1.1 0 2.05.73 2.47 1.77l-.72.07a1.93 1.93 0 0 0-1.7-1.15c-1.09 0-1.97 1.04-1.97 2.31s.88 2.3 1.97 2.3c.8 0 1.5-.57 1.8-1.4l.68.18ZM35 25h.7v5.3H39v.7h-4v-6Z" fill="#fff"/></svg>