<!-- by TradingView --><svg width="56" height="56" viewBox="0 0 56 56" xmlns="http://www.w3.org/2000/svg"><path fill="#F0F3FA" d="M0 0h56v56H0z"/><path d="M21 32.5c-5.2-.4-7.5-1.5-8-2V30h1l.5-1.5c2.83-1 8.4-3.8 8-7-.4-3.2-6.5-2.33-9.5-1.5 2.4-2.4 8.33-3.67 11-4 .17 0 .5-.1.5-.5s-.67-.5-1-.5v-.5h1V14h-2c-.4 0-.5-.33-.5-.5 0-.17.1-.6.5-1s-.17-.5-.5-.5h3v2.5l1 1.5c2.67 0 8 .9 8 4.5s-3.33 5.5-5 6v1c.67-.17 2.6-.7 5-1.5 3-1 2.5-2 2.5-2.5s-.5-2-.5-2.5-.5-1-1-1.5 0-1 0-1.5v-1.5c0-.8.67-1.67 1-2l-1-1 1.5.5c2 .5 2 2 2 3s.5 1 .5 1.5 0 .5-.5.5c-.4 0-.5-.33-.5-.5 0-.17-.1-.5-.5-.5-.5 0-1 .5 0 2.5s5.5 5 5.5 8.5c0 2.8-3 3.5-4.5 3.5-3.67.17-12.3.4-17.5 0Z" fill="#2E3F47"/><path d="M13 42V30.5c.67.17 2.2.5 3 .5.8 0 2-1.67 2.5-2.5.17.33.6 1.1 1 1.5.5.5 2 1 2.5 1.5s2.5 1.5 3.5 1.5c.8 0 2.67-.67 3.5-1 1.5 1.5 2.5.5 3.5.5.8 0 1.33-1.33 1.5-2 1.5 1.17 4.8 3.5 6 3.5 1.2 0 2.5-.33 3-.5V42H13Z" fill="#66A7EB"/><path d="M16.5 33c-.8.4-1.67-.17-2-.5 1.6 0 3.33-1 4-1.5a6.7 6.7 0 0 1-2 2ZM18.5 35.5c0-1.6.67-2.67 1-3L20 35l-1.5.5ZM16.5 36c-1.6-.8-2.67-.67-3-.5v2l3-1.5ZM28.5 33c-.8.4-3.33 1.83-4.5 2.5 1.17-.5 3.6-1.6 4-2 .5-.5 1 1 .5 2a5 5 0 0 0-.5 2c2-.5 2-1.5 2-2.5s-.5-2.5-1.5-2ZM32.5 35.5c-1.2.4-1.83-.17-2-.5.5 2 3 2.5 4.5 1 1.2-1.2-.17-3.17-1-4 0 1-.3 3.1-1.5 3.5ZM41 35.5c-1.6 0-3.33-1-4-1.5 0 .33.3 1.1 1.5 1.5 1.2.4 2.17.17 2.5 0Z" fill="#5082CE"/><path d="M30 28.5c-.4-.4 3.17-1.5 5-2-3 .5-7 1.5-6.5 2.5s6.5 0 8-1c1.2-.8 1.12-1.91 1.04-3.1-.02-.3-.04-.6-.04-.9 0-.61.17-.89.3-1.1.18-.32.3-.51-.3-1.4-1-1.5-1-3.5-.5-4 .25-.25.5-.38.63-.44l.08-.05-.21-.01c-.5 0 0-.5.5-1s-.5-1-1.5-1c-.6 0-.66.54-.72 1.08-.04.36-.08.72-.28.92-.3.3-.24.62-.14 1.05.07.26.14.57.14.95 0 .8.67 1 1 1a4.57 4.57 0 0 0 .24 2.9c.14.4.26.75.26 1.1 0 1 0 2-1.5 3s-5 2-5.5 1.5Z" fill="#939B9D"/><path d="M33 20c0-2.8-4.33-3.5-6.5-3.5 2 0 3.5 1.5 3.5 3.5 0 1.6-1.33 3.67-2 4.5l-2 .5c.5-.33 1.6-1.7 2-4.5.4-2.8-2.83-3.17-4.5-3l1-1c-2.51-.04-6.71 1.31-8.5 2 2.5 0 7.4.7 7 3.5-.4 2.8-4.17 5.17-6 6 4.4-2 10.5-2.83 13-3 1-.5 3-2.2 3-5Zm-13-2c1.67 0 5 .8 5 4s-2.33 4-3.5 4c.83-.5 2.4-2 2-4-.4-2-2.5-3.5-3.5-4ZM25.5 26.5c-4 .8-8.67 2.33-10.5 3l3-.5 2-.5h1l2-1 1 .5 1.5-1.5ZM27 27l1.5-1h-2l.5 1ZM26 29l.5-1.5C24.83 28.67 22 31 24 31s3.17-1.67 3.5-2.5c-.8 1.2-1.33.83-1.5.5ZM21 30.5c.5 0 1.6-.2 2-1 .5-1-.5-1.5-1-.5a2.9 2.9 0 0 0-.27.76c-.06.3-.09.42-.73.74ZM23 31.5c.8 0 1 .67 1 1 .8-.4 1-.83 1-1h-2ZM26 31.5h9c1.5-.33 4.5-1.3 4.5-2.5 0-1.5 0-3-1.5-5 .83.5 2.4 2.2 2 5-.4 2.8-3.5 3.17-5 3h-9v-.5Z" fill="#939B9D"/><path d="M39 23.5c.83.67 2.5 2.5 2.5 4.5s-1 2.83-1.5 3c.33-.5 1-1.8 1-3s-1.33-3.5-2-4.5Z" fill="#939B9D"/></svg>