<!-- by TradingView --><svg width="18" height="18" viewBox="0 0 18 18" xmlns="http://www.w3.org/2000/svg"><path fill="#D9000C" d="M0 0h18v18H0z"/><path d="M11 12V7.17C10.99 6.78 10.7 6 9.68 6c-.74 0-1.1.48-1.18.72L7.4 6l-.15.21c.31.3.93.95.93 1.17 0 .1-.14.22-.32.38-.35.33-.86.8-.86 1.48 0 .65.21 1.13.32 1.29V12H11Zm-.6-.5H8V8.77c.5-.13 1.47-.48 1.47-.84 0-.07-.04-.1-.09-.13-.04-.04-.09-.07-.09-.14 0-.13.1-.16.22-.16s.21.11.21.24c0 .17-.17.47-.37.83-.26.48-.58 1.05-.58 1.47 0 .43.57.74 1.04.99.34.18.63.33.59.47Z" fill="#fff"/><path fill-rule="evenodd" d="M10.93 4.5H7.07c-1.4 0-2.57 1.2-2.57 2.72v3.56a2.65 2.65 0 0 0 2.57 2.72h3.86c1.4 0 2.57-1.2 2.57-2.72V7.22a2.65 2.65 0 0 0-2.57-2.72ZM7.07 4A3.15 3.15 0 0 0 4 7.22v3.56A3.15 3.15 0 0 0 7.07 14h3.86c1.7 0 3.07-1.44 3.07-3.22V7.22A3.15 3.15 0 0 0 10.93 4H7.07Z" fill="#fff"/></svg>