<!-- by TradingView --><svg width="18" height="18" viewBox="0 0 18 18" xmlns="http://www.w3.org/2000/svg"><path fill="#F0F3FA" d="M0 0h18v18H0z"/><circle cx="6.5" cy="10.5" r="1.5" fill="#6A6B6D"/><circle cx="10.5" cy="10.5" r="1.5" fill="#6A6B6D"/><circle cx="5" cy="11" r="2" fill="#868789"/><circle cx="9" cy="11" r="2" fill="#868789"/><circle cx="13" cy="11" r="2" fill="#868789"/><path d="M6.52 10a.73.73 0 0 1-.35-.13c0-.02-.04-.3-.07-.33-.1-.15-.18-.3-.26-.45a.41.41 0 0 0-.2-.21c-.06-.03-.1-.03-.13-.01-.17.12-.32.26-.47.24L4.57 9a.23.23 0 0 0-.18.03.3.3 0 0 0-.09.12l-.1.16a.21.21 0 0 1-.14.1C4.02 9.4 4 9.37 4 9.35c.05-.22.14-.43.29-.65.06-.1.13-.24.2-.44.02-.04.06-.1.14-.19.14-.18.26-.39.35-.58a.16.16 0 0 1 .13-.1h.4c.1 0 .12-.1.04-.14a.82.82 0 0 1-.5-.6c-.06-.32.25-.63.6-.65.37-.02.6.12.7.4.08.24.03.5-.17.68-.08.07-.17.13-.29.19-.02 0-.03.03-.05.07a.1.1 0 0 0 0 .09c.05.08.13.13.24.16a1.45 1.45 0 0 0 .5.03c.21-.02.33.09.36.3.03.18-.3.02-.35 0a.46.46 0 0 0-.16-.03h-.37c-.03 0-.06.03-.06.06l.01.36c0 .11.06.28.12.4.12.23.2.44.24.64.01.07.05.08.12.05l.36-.16a.1.1 0 0 1 .05 0c.07 0 .12.08.1.14l-.04.04-.36.19a.08.08 0 0 0-.04.04v.06c.05.1.03.2-.04.29ZM4.8 8.63l.01.03c.04.04.1.05.14.05.03 0 .05-.02.07-.04a.3.3 0 0 0 .06-.06c.07-.16.13-.32.23-.45a.6.6 0 0 0 .1-.21.33.33 0 0 0-.02-.22c-.03-.08-.09-.11-.17-.1a.06.06 0 0 0-.03.02c-.1.13-.18.28-.25.44-.02.03-.14.5-.14.54ZM13.7 9.75c-.16.16-.22.22-.43.25l-.02-.01a.44.44 0 0 1-.07-.17c-.11-.15-.21-.32-.3-.48a.8.8 0 0 0-.21-.25c-.09-.07.05.2-.1-.12a3.8 3.8 0 0 1-.16-.4.36.36 0 0 0-.16-.18c.03-.14.04-.27.03-.41 0-.05-.03-.07-.07-.09-.05-.02-.09-.02-.12 0l-.02.02c-.07.14-.1.28-.1.44-.15 0-.18-.12-.19-.25.03-.14.08-.3.14-.47.02-.06.04-.09.1-.09.11 0 .33.02.37-.1.03-.1-.44-.3-.51-.41a.51.51 0 0 1-.1-.4c.05-.25.14-.44.34-.56a.58.58 0 0 1 .42-.05c.33.07.51.32.5.67a.7.7 0 0 1-.24.51 1 1 0 0 1-.2.15.03.03 0 0 0-.01.05l.14.18c.06.07.13.1.2.1h.2c.04 0 .1 0 .17-.02l.18-.04c.02 0 .05.01.07.03.09.09.15.2.19.32 0 .02 0 .05-.03.05h-.02c-.15-.05-.27-.1-.42-.1l-.12.03c-.09.06-.19.07-.3.04-.01 0-.03 0-.03.02v.02a3.1 3.1 0 0 1 .06.38c.02.22.12.42.28.6.02.02.06.08.1.2l.13.3c.03.08.1.07.16.04.14-.06.27-.13.4-.22l.04.01c.02.05 0 .1-.03.15-.08.1-.17.18-.27.26Z" fill="#4392D5"/><path d="M11.79 8.1c0 .14.04.26.18.26-.02.06 0 .1.02.12a.3.3 0 0 0 .2.04l.02-.01a.38.38 0 0 0 .04-.11c.08.05.13.1.16.18.16.45.12.6.12 1.04v.03c-.04.04-.14.06-.18.07l-.65.03c-.15 0-.3.03-.45.06-.22.04-.17-.14-.19-.25l-.05-.52c-.02-.15-.03-.37.15-.39.12 0 .29-.01.37-.1.12-.12.2-.27.26-.44Z" fill="#6E818B"/><path d="M9.56 6.38h-.01a.02.02 0 0 1-.02 0c-.55-.8-1.62.08-1.63.25-.02.03-.04.04-.06.04l-.09-.1-.02-.02-.14-.06c-.07-.03-.08-.07-.04-.13.09-.12.12-.28.22-.4.05-.05.1-.1.04-.17a.69.69 0 0 1-.07-.1v-.04c.01-.07.09-.23.18-.23a1.27 1.27 0 0 1 .14-.02l.02-.01.21-.38h.04l.18.08a255.26 255.26 0 0 0 1.41.79c.06.04.06.08.01.13l-.37.37Z" fill="#010201"/><path d="m9.56 6.39-.06.09a.46.46 0 0 1-.13-.16.7.7 0 0 0-.08-.2.24.24 0 0 0-.09-.08H9.2c0 .04.01.08.03.11l-.14-.05a.36.36 0 0 0-.14-.02.98.98 0 0 0-.72.4c0-.2.05-.35.18-.49a.43.43 0 0 1 .28-.14c.17-.01.31.01.42.08.02 0 .03 0 .03-.02V5.9a.07.07 0 0 0-.04-.06.62.62 0 0 0-.27-.1c-.09-.01-.19 0-.29.03a.41.41 0 0 0-.18.12c-.1.11-.18.23-.24.37l-.02-.05h-.02c-.04.03-.06.06-.06.1 0 .13-.03.24-.1.33v-.21c0-.06-.03-.07-.07-.02l-.01.02-.03.02a.3.3 0 0 1-.15-.04l-.02-.03v-.03l.06-.13c.03-.06.08-.1.17-.12a.02.02 0 0 0 .01-.02l.03-.15.03-.03c.05-.04.16.14.16.06 0-.07 0-.12.03-.16a.43.43 0 0 0 .04-.14v-.12c0-.05.01-.1.03-.13a3.02 3.02 0 0 1 .15-.27.05.05 0 0 1 .06 0 82.06 82.06 0 0 1 1.35.78c.1.06.03.17-.04.22a.73.73 0 0 0-.19.23v.01a.02.02 0 0 0 .03 0h.01Z" fill="#5D5F62"/><path d="m9.21 6.15.15.16c.03.07.07.12.13.16a7 7 0 0 1-.11.35.58.58 0 0 1-.23.32c-.05.04-.35.15-.32.25l.01.02c.06.07.13.13.2.17.06.04.17.07.34.1.12.02.24-.03.36-.03.05 0 .09.02.12.05l.12.22a.2.2 0 0 1 0 .18v.01c-.08.06-.39-.16-.49-.18-.13-.02-.3.1-.45.02-.02 0-.03 0-.03.03-.01.18.03.36.02.55 0 .04 0 .07.02.1l.24.38c.03.04.04.08.04.1a8.28 8.28 0 0 1 0 .18.05.05 0 0 0 .05 0c.06-.01.1-.07.16-.07.05 0 .08.03.11.09a.2.2 0 0 1-.1.18v.02a1 1 0 0 1 .18.24v.02a.7.7 0 0 1-.23.11l-.27.04c-.07.01-.12-.05-.1-.11.11-.32-.14-.16-.22-.51-.03-.12-.1-.18-.19-.25-.07-.07-.15-.07-.23-.02-.15.09-.33.3-.52.24-.16-.05-.54-.17-.62-.05-.04.05-.08.13-.12.23L7 9.38l.12-.25c.11-.29.28-.72.47-.96a3 3 0 0 0 .37-.6.36.36 0 0 1 .1-.12.22.22 0 0 1 .12-.04c.12 0 .22 0 .33.05.05.02.09 0 .1-.05v-.03c.02-.06 0-.1-.05-.12-.23-.07-.57-.39-.72-.58.02 0 .04-.02.06-.04.06-.1.09-.2.1-.34 0-.04.01-.07.05-.1h.02l.02.05a.33.33 0 0 0 0 .22 14.91 14.91 0 0 1 .09.22h.01v-.02l.01-.2a.98.98 0 0 1 .73-.4c.05 0 .1 0 .14.02.05.02.1.03.14.06ZM7.76 8.76a.03.03 0 0 0 .02.03c.16.06.27.01.33-.13l.22-.43a.93.93 0 0 0 .13-.42l-.02-.03-.22-.07h-.05a.07.07 0 0 0-.04.03c-.05.14-.22.3-.23.44-.02.3-.1.28-.14.58Z" fill="#4392D5"/><path d="M7.91 5.63c0 .05.01.1.05.1.04.01.08-.02.09-.07.01-.05-.01-.1-.05-.11-.04 0-.08.03-.09.08Z" fill="#5D5F62"/><path d="M10 11.27c-.12.42-.51.73-.98.73C8.46 12 8 11.55 8 11s.46-1 1.02-1c.44 0 .84.27.98.65h-.54c-.09-.23-.25-.4-.44-.4-.27 0-.5.34-.5.75s.23.75.5.75c.2 0 .39-.2.46-.48H10Z" fill="#0E100F"/><path fill-rule="evenodd" d="M14 10.72a.9.9 0 0 0-.9-.72c-.78 0-1.1.52-1.1 1.08s.44.92 1.1.92c.52 0 .82-.32.9-.49-.14.09-.47.26-.7.26-.3 0-.9-.24-.9-.83v-.13H14v-.09Zm-1.58-.05h1.2c-.03-.15-.17-.47-.54-.47-.46 0-.66.36-.66.47ZM5.7 11.85H6v-1.32a1.1 1.1 0 0 0-.92-.53c-.62 0-1.08.53-1.08.95 0 .55.35 1.05.83 1.05.38 0 .74-.27.88-.4v.25ZM5 11.6a.6.6 0 1 0 0-1.2.6.6 0 0 0 0 1.2Z" fill="#0E100F"/></svg>