<!-- by TradingView --><svg width="18" height="18" viewBox="0 0 18 18" xmlns="http://www.w3.org/2000/svg"><path fill="#103065" d="M0 0h18v18H0z"/><path fill-rule="evenodd" d="M15 9A6 6 0 1 1 3 9a6 6 0 0 1 12 0Zm-2.5 3.97a5.27 5.27 0 0 1-3.15 1.31v-2.22c1.07.04 1.85.24 2.39.47.35.15.6.3.76.44Zm-7 0a5.27 5.27 0 0 0 3.15 1.31v-2.22c-1.1.03-1.9.23-2.43.47-.34.14-.57.3-.73.44Zm6.46-.98a7.32 7.32 0 0 0-2.6-.51V10h4.84a5.28 5.28 0 0 1-1.29 2.57c-.22-.2-.54-.4-.95-.58ZM14.2 8H9.35V6.53A7.14 7.14 0 0 0 12.01 6c.4-.17.7-.37.9-.57.65.7 1.1 1.59 1.29 2.56ZM8.65 8V6.52a7.33 7.33 0 0 1-2.61-.51 3.51 3.51 0 0 1-.95-.58c-.65.71-1.1 1.6-1.29 2.57h4.85ZM3.8 10c.19.97.64 1.85 1.28 2.56.21-.2.52-.4.9-.57a7.14 7.14 0 0 1 2.67-.51V10H3.8Zm7.98-4.53c-.54.24-1.33.44-2.43.47V3.72c1.2.08 2.3.56 3.16 1.31-.16.14-.4.3-.73.44Zm-3.13.47V3.72c-1.2.08-2.3.56-3.15 1.3a3 3 0 0 0 .76.45c.54.23 1.32.43 2.39.47Z" fill="#fff"/><path opacity=".5" fill="#103065" d="M5 8h8v2H5z"/></svg>