<!-- by TradingView --><svg width="56" height="56" viewBox="0 0 56 56" xmlns="http://www.w3.org/2000/svg"><path fill="#F0F3FA" d="M0 0h56v56H0z"/><path d="M25.17 15.7c-1.14-.37-1.16-1.4-1.32-2.38a2.48 2.48 0 0 0-.67-1.26.05.05 0 0 1 .03-.05h.03c.8.12 1.6.22 2.42.3 2.26.2 1.21 2.44 2.33 3.68a.06.06 0 0 1 .01.06c0 .01 0 .02-.02.03a7.98 7.98 0 0 1-2.82-.37ZM29.22 17.18c.19-.45.57-.7 1.16-.74.96-.06 1.9.07 2.8-.38.12-.06.17-.03.15.1-.2 1.26-.63 3.2-2.22 3.28-.75.04-1.94-.05-2.54.42-.13.1-.18.08-.14-.08.2-.93.47-1.8.8-2.6Z" fill="#036841"/><path d="M21.95 20c.62.73.67 1.54.84 2.4.27 1.38 1.6 1.57 2.77 1.73.12.01.22.07.3.16.07.08.14.2.14.3v2.21c0 .05-.02.1-.06.14a.2.2 0 0 1-.14.06h-3.62a.2.2 0 0 1-.14-.06.2.2 0 0 1-.04-.06V23.45c0-.09-.12-.12-.22-.12H18.2a.2.2 0 0 1-.14-.05.2.2 0 0 1-.06-.14v-3.4c0-.09.11-.12.2-.12h3.45c.19 0 .35-.15.35-.34v-3.13c0-.04.02-.08.05-.1a.16.16 0 0 1 .11-.05h3.52c.08 0 .16.05.22.1.06.07.1.15.1.23v4a.17.17 0 0 1-.09.15.18.18 0 0 1-.18 0 2.65 2.65 0 0 0-.96-.32 56.8 56.8 0 0 0-2.73-.3c-.16-.02-.18.03-.09.15Z" fill="#ED801D"/><path d="M28.84 32.34c0-.43 0-.87.02-1.33.1-2.89 1.18-4.76 3.06-6.7 1.13-1.17 1.73-2.6 2.25-4.18.06-.18.1-.17.13 0a7.97 7.97 0 0 1-1.14 5.36c-.41.7-.86 1.34-1.34 1.94-1.91 2.36-2.45 5.06-2.44 8.04 0 .05-.02.08-.07.1l-.06-.01a.1.1 0 0 1-.06-.07c-.32-1.4-1.45-5.98-3.27-6.03a.49.49 0 0 0-.47.3.5.5 0 0 0-.04.2v5.25c0 .08.05.12.13.12h.55c.1-.01.15.04.16.14l.01.34c0 .13-.05.19-.17.19h-2.2c-.13 0-.2-.07-.2-.22v-.24c0-.17.09-.25.26-.24l.36.03a.14.14 0 0 0 .1-.04.15.15 0 0 0 .05-.1V28.4c0-.08.03-.15.07-.21.52-.75 1.42-.51 1.97.04a8.92 8.92 0 0 1 2.24 4.13c.06.22.1.21.1-.02ZM24.08 20.51c.82.39 1.87.28 2.76.32.85.04 1.26.72 1.46 1.5.17.64.34 1.25.52 1.82.05.18 0 .22-.16.13-.83-.48-1.72-.4-2.62-.43-1.57-.06-1.85-1.99-2.14-3.2-.04-.16.02-.21.18-.14ZM12.32 26.17c.14-.17.25-.4.32-.7 0-.04.03-.07.06-.1a.15.15 0 0 1 .1-.02l.09.01c.15.01.23.1.23.24l.01 3.46a.2.2 0 0 1-.03.11.22.22 0 0 1-.1.08c-.1.05-.19.04-.28-.02a.34.34 0 0 1-.14-.2c-.47-1.75-1.2-3.13-3.18-3.43-1.95-.29-2.76 2.21-.82 2.94.98.38 1.95.73 2.9 1.08 1 .36 1.67.98 2 1.86a3.55 3.55 0 0 1-.83 3.75c-.85.74-1.88.93-3.11.57-.55-.17-1.1-.55-1.63-.8-.74-.37-1.06.21-1.24.76a.37.37 0 0 1-.16.2c-.1.06-.18.05-.28-.01-.06-.04-.23-.11-.23-.18v-4.75c0-.12.19-.18.31-.18h.08c.17 0 .26.09.28.25a4.8 4.8 0 0 0 3.46 4.23c1.02.28 2.05-.33 2.17-1.36.1-.86-.32-1.48-1.26-1.85l-2.65-1.04c-1.84-.72-2.88-2.18-2.16-4.12.8-2.16 3.2-2.44 5.02-1.25.29.18.57.36.85.51.04.02.08.03.12.02.04 0 .08-.03.1-.06ZM47.26 25.6c-.14 0-.22-.06-.23-.2v-.21a.17.17 0 0 1 .1-.17l.07-.02h3.55c.09 0 .15.04.2.1.06.1.07.2.02.3a.24.24 0 0 1-.17.16c-.9.24-1.35.91-1.36 2l-.04 4.89c-.01 2.91-2.05 3.93-4.66 3.43-2.1-.4-2.77-1.9-2.74-3.92v-4.33c0-.95.06-2.08-1.27-2.04-.18.01-.28-.08-.3-.26v-.12c0-.14.06-.2.2-.2L45.7 25c.16 0 .25.08.25.24v.12a.22.22 0 0 1-.06.17.23.23 0 0 1-.18.07c-1.18-.06-1.7.29-1.7 1.5L44 32.65c0 1.32.56 2.64 2.08 2.72 1.8.1 2.75-1.17 2.79-2.78.03-1.53.03-3.13 0-4.8 0-1.04-.33-2.2-1.61-2.18Z" fill="#036841"/><path fill-rule="evenodd" d="M33 28.68v6.67h-.47c-.15 0-.24.07-.26.22a.5.5 0 0 0 .02.22c.04.14.13.2.27.2l3 .01c2.83 0 5-1.32 4.87-4.34-.1-2.34-2.05-3.52-4.28-3.62a47.67 47.67 0 0 0-3.63-.01c-.15 0-.23.08-.23.23v.14a.28.28 0 0 0 .09.2.3.3 0 0 0 .2.09l.42-.01Zm2.01.18-.01.05v6.19a.13.13 0 0 0 .04.1.14.14 0 0 0 .1.03h.63c.71 0 1.4-.29 1.9-.8.5-.52.79-1.21.79-1.94v-.97c0-.73-.29-1.42-.8-1.94-.5-.51-1.18-.8-1.89-.8h-.63a.14.14 0 0 0-.1.04.13.13 0 0 0-.03.04ZM19.76 33.83l.53 1.33a.14.14 0 0 1-.02.14.14.14 0 0 1-.12.06l-.5-.01a.15.15 0 0 0-.1.04.14.14 0 0 0-.05.1l-.01.35a.14.14 0 0 0 .04.1c.01.01.03.03.05.03l.02.01.03.02h3.3a.15.15 0 0 0 .11-.04.14.14 0 0 0 .04-.1v-.39a.14.14 0 0 0-.05-.1.15.15 0 0 0-.1-.04l-.4-.01a.15.15 0 0 1-.07-.03.14.14 0 0 1-.06-.06l-3.02-7.14a.15.15 0 0 0-.14-.09h-1.56l-.08.03a.14.14 0 0 0-.05.07l-2.9 7.11c0 .02-.02.04-.04.06a.15.15 0 0 1-.07.03l-.44.06a.15.15 0 0 0-.1.04.14.14 0 0 0-.03.1l-.02.34a.14.14 0 0 0 .08.14l.06.02h2.11c.04 0 .08-.02.1-.05a.14.14 0 0 0 .05-.1v-.35a.14.14 0 0 0-.04-.1.15.15 0 0 0-.1-.04h-.49a.15.15 0 0 1-.12-.07.14.14 0 0 1-.01-.13l.57-1.32a.14.14 0 0 1 .06-.06.15.15 0 0 1 .08-.03h3.33c.03 0 .06 0 .08.02.03.01.04.04.05.06Zm-1.84-4.3-1.38 3.34a.08.08 0 0 0 .01.08l.03.03h.01l.03.02h2.7c.04 0 .08-.02.08-.07v-.04l-1.33-3.36a.08.08 0 0 0-.16 0Z" fill="#036841"/></svg>