<!-- by TradingView --><svg xmlns="http://www.w3.org/2000/svg" width="56" height="56" viewBox="0 0 56 56"><path fill="url(#avfpn1als)" d="M0 0h56v56H0z"/><path d="M8.55 29.42v-.59h.62v.67c0 .83-.67 1.5-1.5 1.5H6.5A1.5 1.5 0 0 1 5 29.5v-2.86H4V26h1v-1h.64v1h3.55v.64H5.64v2.78a1 1 0 0 0 1 1h.91a1 1 0 0 0 1-1zM10.61 27.48h.73a1 1 0 0 1 1-.89h2.25a1 1 0 0 1 1 1v.97a1.2 1.2 0 0 0-1.02-.56H11.6c-.66 0-1.2.54-1.2 1.2v.6c0 .66.54 1.2 1.2 1.2h2.98c.43 0 .8-.22 1.02-.56V31h.7v-3.5c0-.83-.68-1.5-1.5-1.5H12.1a1.5 1.5 0 0 0-1.5 1.48zm4.98 1.7v.64a.7.7 0 0 1-.69.58h-3.05a.7.7 0 0 1-.7-.7v-.4c0-.4.31-.7.7-.7h3.05a.7.7 0 0 1 .7.58zM18 24h.72v7H18zM21 24h-.72v7H21v-.37c.27.23.6.37.98.37h3.1c.84 0 1.5-.67 1.5-1.5v-2c0-.82-.66-1.5-1.5-1.5h-3.1c-.37 0-.71.14-.98.37V24zm0 5.4v-1.8a1 1 0 0 1 1-.99h2.84a1 1 0 0 1 1 1v1.78a1 1 0 0 1-1 1H22a1 1 0 0 1-1-.99zM28 26h.72v5H28z" fill="#fff"/><path d="M31.3 26.06c-1.94-.28-2.6.49-2.69.9l.1.75c.02-1.06 1.65-1.18 2.46-1.1l.13-.55zM51.83 27.44c.08-.46-.12-1.2-1.43-1.38-.7-.1-2.73-.1-3.47.18l.13.63c.27-.1 1.29-.3 3.2-.16.33.02.84.14.83.73h.74zM46.9 30.8c.19.06.93.18 2.31.2 1.74.02 2.79-.09 2.79-1.43 0-1.35-1.04-1.45-1.64-1.46h-3.1v.64h3.06c.39 0 .92.17.93.82.01.64-.6.72-1.06.73-.88.03-2.74.04-3.07-.13l-.22.63z" fill="#fff"/><circle cx="39.08" cy="28.69" r="7.66" fill="#fff"/><path fill-rule="evenodd" d="M34.5 27.2c0-1.21.98-2.2 2.2-2.2h4.33c1.22 0 2.2.98 2.2 2.2v2.6a2.2 2.2 0 0 1-2.2 2.2H36.7a2.2 2.2 0 0 1-2.2-2.2v-2.6zm1.03.6c0-1 .8-1.8 1.8-1.8h3.08c1 0 1.8.8 1.8 1.8v1.4c0 1-.8 1.8-1.8 1.8h-3.08c-1 0-1.8-.8-1.8-1.8v-1.4zm9.57-.52c-.05-1.3.83-1.67 1.27-1.69l.26.85c-.16.03-.5.18-.5.79 0 .66.56.83.84.84l-.1.88h-.1c-.6-.06-1.61-.14-1.67-1.67zm-13.15-1.67c.38.06 1.13.68 1.03 2.65h-.96c.05-.38.04-1.27-.4-1.83l.33-.82zm13.07 4.18c-.08.62.05 1.9 1.25 2.1l.4-.9c-.25-.03-.72-.3-.64-1.2h-1z" fill="#EF811D"/><path fill-rule="evenodd" d="M39.07 36.3a7.6 7.6 0 1 0 0-15.2 7.6 7.6 0 0 0 0 15.2zm0 .7a8.3 8.3 0 1 0 0-16.6 8.3 8.3 0 0 0 0 16.6z" fill="#999D9F"/><defs><linearGradient id="avfpn1als" x1="10.42" y1="9.71" x2="68.15" y2="76.02" gradientUnits="userSpaceOnUse"><stop stop-color="#1A1E21"/><stop offset="1" stop-color="#06060A"/></linearGradient></defs></svg>