<!-- by TradingView --><svg width="18" height="18" viewBox="0 0 18 18" xmlns="http://www.w3.org/2000/svg"><path fill="#F0F3FA" d="M0 0h18v18H0z"/><path d="m9.92 6.4.26.12.91-.92 1.3 1.3-.9.92.1.26h1.3v1.84h-1.3l-.1.26.9.91-1.3 1.3-.9-.9-.27.1v1.3H8.08v-1.3a2.71 2.71 0 0 1-.26-.1l-.91.9-1.3-1.3.9-.9a2.73 2.73 0 0 1-.1-.27H5.1V8.08h1.3l.1-.26-.9-.91 1.3-1.3.9.9.27-.1V5.1h1.84v1.3ZM9 7.1a1.9 1.9 0 1 0 0 3.8 1.9 1.9 0 0 0 0-3.8Z" fill="#AB3C45"/><path d="M7.96 7.79c.05 0 .08.02.1.05a.3.3 0 0 1 .05.1c.03.06.04.15.06.23.02.08.04.16.07.21.02.06.05.07.08.07a.2.2 0 0 0 .13-.05.57.57 0 0 0 .12-.15.95.95 0 0 0 .08-.17l.03-.12-.02-.11-.03-.18a.75.75 0 0 1 0-.18c0-.06.15-.17.2-.2l-.06.16s-.02.01-.02.05v.15c0 .06.02.12.03.17l.02.14-.03.16-.1.2a.7.7 0 0 1-.14.17.33.33 0 0 1-.21.09c-.1 0-.16-.07-.2-.14a1.06 1.06 0 0 1-.07-.25L8 7.97a.19.19 0 0 0-.03-.05V7.9l-.06.02a3.13 3.13 0 0 0-.59.5l-.09.08a.78.78 0 0 1-.06.05l-.07-.1.04-.04.1-.08a11.02 11.02 0 0 1 .5-.45.92.92 0 0 1 .11-.07.25.25 0 0 1 .11-.03Zm1.17-.4c.06 0 .12.06.12.13v.66l.01.12.04.08c.02.02.03.02.07.02.03-.01.09-.04.16-.11l.07-.07.18-.17.17-.15c.05-.03.1-.06.15-.06.06 0 .1.04.14.09l.07.12.07.09c.03.04.08.07.17.08h.02c.07 0 .16 0 .24-.03l.2-.07.05.11c-.04.03-.13.06-.22.08a.94.94 0 0 1-.28.04h-.02a.35.35 0 0 1-.26-.14.85.85 0 0 1-.07-.1L10.14 8l-.04-.04c-.01 0-.04 0-.08.04l-.16.14-.18.17-.06.07a.53.53 0 0 1-.22.13.18.18 0 0 1-.18-.04.3.3 0 0 1-.08-.14.61.61 0 0 1-.01-.15v-.79ZM7.21 8.66v.12h-.2v-.12h.2Zm.8 0v.12h-.4v-.12H8Zm.8 0v.12h-.4v-.12h.4Zm.79 0v.12h-.4v-.12h.4Zm.8 0v.12H10v-.12h.4Zm.59 0v.12h-.2v-.12h.2ZM11.05 9.1v.13h-4.1V9.1h4.1Z" fill="#AB3C45"/><path d="M7.7 9.23a.22.22 0 0 0-.04.11c0 .05.02.1.07.13l.02.01A.8.8 0 0 0 8 9.6a1.02 1.02 0 0 1 .4.22c.12.11.25.28.28.5l-.12.02a.74.74 0 0 0-.25-.43.92.92 0 0 0-.28-.18l-.06-.01a.71.71 0 0 1-.28-.13l-.02-.02a.27.27 0 0 1-.12-.23c0-.07.03-.14.06-.18l.1.07ZM10.38 9.23c.02.02.04.07.04.11 0 .05-.02.1-.07.13l-.02.01a.8.8 0 0 1-.24.12 1.02 1.02 0 0 0-.4.22.86.86 0 0 0-.28.5l.12.02a.74.74 0 0 1 .25-.43c.12-.1.24-.17.28-.18l.06-.01a.71.71 0 0 0 .28-.13l.01-.02c.1-.06.13-.15.13-.23a.35.35 0 0 0-.06-.18l-.1.07Z" fill="#AB3C45"/><path d="M9 3a6 6 0 1 1 0 12A6 6 0 0 1 9 3Zm.02.35a5.67 5.67 0 1 0 0 11.34 5.67 5.67 0 0 0 0-11.34Z" fill="#AB3C45"/><path d="M9.36 13.11c.1 0 .16.02.2.06.16.11.2.26.13.46-.02.05-.07.1-.15.15-.01 0-.02.01-.01.03l.21.41-.23.03-.05-.1a3.47 3.47 0 0 0-.18-.33H9.2c-.01 0-.02 0-.02.02v.4l-.03.01h-.18c-.01 0-.02 0-.02-.02v-1.1l.4-.02Zm-1.02-.09a.4.4 0 0 1 .35.4c0 .16-.01.3-.05.45a.5.5 0 0 1-.11.2.36.36 0 0 1-.18.11.51.51 0 0 1-.4-.07.36.36 0 0 1-.13-.17.5.5 0 0 1-.04-.21c.01-.15.04-.3.1-.45.04-.1.1-.17.19-.21a.41.41 0 0 1 .27-.05Zm2.07-.06c.03.06.06.13.11.2a4.77 4.77 0 0 1 .48.8l-.2.07h-.02l-.1-.22h-.03l-.3.05-.01.01v.25c0 .01-.01.02-.03.02l-.19.04-.01-.02.02-1.13c0-.02.01-.03.03-.03l.24-.05Zm-2.11.26c-.09 0-.16.03-.2.11a.78.78 0 0 0-.07.25c-.02.1-.02.19-.01.25.02.1.07.15.16.16.09.02.15-.02.2-.1a.77.77 0 0 0 .07-.25c.02-.1.02-.19 0-.25 0-.1-.06-.15-.15-.17Zm-1.14-.53.36.14c.18.09.24.23.2.42a.38.38 0 0 1-.18.23.3.3 0 0 1-.22.04.96.96 0 0 1-.22-.09l-.02.01-.16.38-.2-.08v-.01l.42-1.03.02-.01Zm4.3-.17.1.15v.01l-.25.13.38.83v.01l-.2.1h-.02l-.37-.83h-.01l-.25.1h-.01l-.08-.17v-.01l.7-.32h.02Zm-1.12.73-.01.43.24-.04v-.01l-.22-.38h-.01Zm-1.14.07c-.01 0-.02 0-.02.02v.27c0 .01 0 .02.02.02h.16c.03 0 .06-.01.09-.04a.15.15 0 0 0 .03-.1v-.03a.15.15 0 0 0-.03-.1.12.12 0 0 0-.1-.04H9.2Zm-2.8-1.08.3.17a1.51 1.51 0 0 1 .13.12c.07.1.08.23.02.35a.35.35 0 0 1-.35.21l-.01.01-.1.47c0 .01 0 .01 0 0l-.18-.09c-.02 0-.02-.02-.02-.03l.1-.43V13l-.08-.04h-.02l-.26.33h-.02l-.15-.12v-.01c.2-.28.4-.58.6-.9.02-.02.03-.02.05-.01Zm5.39.08.62.86v.04l-.15.1h-.03l-.63-.87v-.04l.15-.1h.04Zm-4.52.65-.11.25c-.01.02 0 .03.01.04l.12.05c.04.02.07.02.1 0a.13.13 0 0 0 .08-.07l.03-.07a.12.12 0 0 0 0-.1.13.13 0 0 0-.08-.07l-.11-.05c-.02 0-.03 0-.04.02Zm-.8-.46-.17.26v.02l.13.08c.03.02.06.03.1.02.03-.01.06-.03.08-.06l.04-.05a.14.14 0 0 0 .02-.1.12.12 0 0 0-.06-.09l-.12-.08h-.03Zm5.7-.6c.16-.16.33-.2.53-.1.19.1.33.22.43.37.07.12.08.26 0 .42a.38.38 0 0 1-.12.13.46.46 0 0 1-.43.08.7.7 0 0 1-.26-.17 1.14 1.14 0 0 1-.2-.24.42.42 0 0 1-.06-.25c0-.09.04-.17.1-.23Zm-6.64-.17c.1-.05.2-.05.3 0 .08.03.14.07.2.13a.4.4 0 0 1 .08.21c.02.17-.05.33-.23.5-.17.15-.34.21-.5.19a.41.41 0 0 1-.2-.1.47.47 0 0 1-.14-.2.37.37 0 0 1 .03-.3c.03-.08.1-.16.2-.25.09-.09.18-.15.26-.18Zm6.91.24a.26.26 0 0 0-.13.1c-.04.05-.03.11 0 .18.02.04.06.1.12.16l.01.02c.06.06.13.11.2.14.1.04.17.04.23 0 .11-.09.12-.19.03-.3-.09-.11-.18-.2-.3-.27a.2.2 0 0 0-.16-.03Zm-6.6 0c-.1-.1-.24-.07-.43.11-.18.18-.22.32-.11.43.1.1.24.06.43-.12.18-.18.22-.32.12-.42Zm7.17-1.1.92.5v.01l-.06.17-.02.01-.85-.04.65.36v.02l-.1.15h-.03L13.4 12a12.78 12.78 0 0 0-.81-.48v-.01l.08-.17h.02l.83.04-.62-.32c-.02 0-.02-.02-.01-.04l.06-.11.02-.02h.04Zm-8.09.08a.41.41 0 0 1 .41.08c.09.07.13.15.15.23.01.1-.02.18-.09.26l-.12.13-.03-.01a.42.42 0 0 0-.1-.16v-.02c.1-.06.14-.12.12-.18-.03-.07-.07-.11-.13-.13a.29.29 0 0 0-.19.02l-.26.15a.44.44 0 0 0-.11.1.15.15 0 0 0-.03.12c0 .04.03.07.05.1.03.03.06.05.1.06.04 0 .08 0 .11-.03.02-.02.03-.01.05 0l.1.12v.04a.33.33 0 0 1-.24.08.42.42 0 0 1-.23-.09.46.46 0 0 1-.15-.23.38.38 0 0 1 .12-.39c.14-.11.3-.2.47-.25Zm9.14-1.17c.13 0 .23.1.23.23s-.1.23-.23.23a.23.23 0 0 1-.24-.23c0-.13.11-.23.24-.23Zm-9.97 0c.11-.04.24.02.3.13.05.12 0 .25-.11.3-.11.05-.24-.01-.3-.13-.05-.11 0-.25.11-.3Zm.21-2.47.2.06a8.83 8.83 0 0 1 .51.17l-.05.17s0 .01 0 0L4.5 7.6H4.5l-.09.25.01.01.46.13V8l-.05.18v.01l-1.1-.31c-.01 0-.02-.01-.01-.03l.04-.16.03-.02.42.12.03-.01.07-.24-.01-.01-.42-.12-.01-.02.05-.18h.01c.21.06.34.1.38.1ZM14.23 7l.06.2-.93.32v.01l.1.27-.01.01-.16.05h-.01l-.17-.47v-.01l1.1-.38h.02Zm-9.1-.23c.08.02.16.05.23.09v.02l-.07.13c0 .01-.01.02-.02.01l-.18-.07h-.02l-.12.2v.01l.19.12-.1.17-.29-.2a7 7 0 0 0-.66-.5v-.02l.1-.19h.02l.91.23Zm8.71-.44c.02 0 .03 0 .04.02l.07.16c.01.02 0 .04-.01.06a7.81 7.81 0 0 1-.89.69l-.07-.15.01-.02.14-.08.01-.02-.1-.22h-.02l-.19.05-.03-.01-.07-.14v-.02c.15-.06.28-.1.4-.13l.42-.1.3-.09Zm-9.42.44.37.26h.01l.07-.12v-.02l-.45-.12Zm9.25-.22-.43.15-.01.02.07.14h.01l.36-.3s0-.01 0 0Zm-8.79-.88c.08-.02.16 0 .25.05.12.08.17.2.17.34l.02.02a3.4 3.4 0 0 1 .51.17l-.13.14-.42-.12H5.2l-.03.05v.03l.35.24c.02.01.02.02.01.04l-.1.14h-.05l-.9-.7v-.01c.06-.1.11-.17.17-.23a.5.5 0 0 1 .22-.16Zm8.56.03.11.14v.03l-.89.7h-.01l-.13-.16v-.04a10.04 10.04 0 0 0 .4-.3 12.78 12.78 0 0 0 .52-.37Zm-8.54.17a.11.11 0 0 0-.08.04L4.75 6v.02l.26.19h.02l.06-.1a.1.1 0 0 0 .02-.08.12.12 0 0 0-.04-.07l-.08-.07a.12.12 0 0 0-.1-.02Zm7.81-.7c.15-.05.27-.02.38.1.13.15.1.3-.06.48h-.02a.3.3 0 0 0-.14-.12v-.02l.03-.05a.44.44 0 0 0 .06-.08c.01-.02 0-.05-.02-.08a.24.24 0 0 0-.07-.05c-.04-.02-.08 0-.13.04l-.33.3a.5.5 0 0 0-.09.11c-.02.04-.02.08.01.12l.06.05h.02c.06 0 .11-.03.16-.09h.02l.13.13v.01a.29.29 0 0 1-.1.11c-.15.08-.29.06-.42-.05-.12-.1-.15-.22-.07-.35a3.77 3.77 0 0 1 .43-.46.5.5 0 0 1 .15-.1Zm-7.16-.25.2.63.03.04.31.32c.02.02.02.03 0 .05l-.11.1c-.02.02-.03.02-.04 0a6.35 6.35 0 0 0-.39-.37A24.5 24.5 0 0 0 5 5.42l.12-.12c.01-.01.02-.02.03-.01l.2.08a1.54 1.54 0 0 0 .17.09v-.01l-.15-.4v-.01l.15-.13h.02l.01.01ZM6 4.57a.4.4 0 0 0 .11.11 5.2 5.2 0 0 1 .75.72l-.14.07h-.04l-.13-.14h-.02l-.2.16v.02l.08.19-.15.12-.49-1.08v-.02l.21-.15H6Zm6.05-.12.17.09v.02a10.54 10.54 0 0 1-.19.74l.4-.6h.01l.16.11v.02a21.85 21.85 0 0 0-.53.75 14.03 14.03 0 0 0-.15.18l-.14-.1.17-.74-.4.55c0 .02-.02.02-.04.01l-.11-.08c-.02-.01-.02-.03 0-.04l.63-.9c0-.02.01-.02.02-.01Zm-.47-.28v.02a15.08 15.08 0 0 1-.29 1.15l-.17-.07.05-.2-.01-.03-.22-.08h-.01l-.1.15c-.01.02-.03.02-.05.01l-.12-.05-.02-.01v-.02a10.3 10.3 0 0 1 .7-.96l.24.1ZM7.09 4 7.56 5c.01.02 0 .04-.01.04l-.14.07h-.05l-.55-.53.3.65-.01.02-.14.06h-.03l-.12-.25a24.41 24.41 0 0 1-.34-.8l.17-.1.02.01.54.53-.3-.64.17-.08h.02Zm-1.03.92.16.38h.02l.14-.1-.3-.3h-.02v.02Zm4.3-1.12.01.02.08.71.18-.65.18.04a83.5 83.5 0 0 1-.29 1.1l-.17-.04a.03.03 0 0 1-.02-.03l-.1-.74-.17.67h-.02l-.17-.03h-.01l.28-1.08h.01l.2.03Zm-2.43-.03c0 .07.07.2.19.43l.28.6c0 .02 0 .03-.02.04l-.15.03c-.01 0-.03 0-.04-.03l-.06-.14h-.01l-.26.04c-.01 0-.02.01-.02.03l.02.17c0 .02 0 .03-.03.04L7.7 5c-.02 0-.03 0-.03-.02a8.92 8.92 0 0 1-.02-1.12v-.05l.28-.06v.01Zm3.37.67-.26.35v.01l.16.07.11-.42v-.01h-.01Zm-1.45-.73.01.02-.13 1.09-.02.01-.18-.02a.02.02 0 0 1-.01-.02l.13-1.09.02-.01.18.02Zm-.4-.03h.02v.18h-.34v.28h.28V4.36h-.28l-.01.44H8.9l.02-1.12h.54Zm-1.6.45v.42s0 .01 0 0l.19-.03v-.01l-.18-.39h-.02Z" fill="#AB3C45"/></svg>