<!-- by TradingView --><svg width="18" height="18" viewBox="0 0 18 18" xmlns="http://www.w3.org/2000/svg"><path fill="#181B1E" d="M0 0h18v18H0z"/><path d="M4 13v-.48c.43-.03.74-.07.82-.1a.21.21 0 0 0 .11-.08.47.47 0 0 0 .07-.22V5.75a.22.22 0 0 0-.07-.11c-.18-.17-.71-.15-.93-.16V5h2.83L9 10.67 11.45 5H14v.48h-.08c-.39 0-.63.04-.74.14-.1.09-.18.26-.18.53v6.08c0 .06.03.1.06.13l.13.08c.06.01.38.05.81.08V13h-3.5v-.48c.47-.02.74-.04.81-.08.07-.04.12-.13.14-.27.03-.14.05-.7.05-1.5V6.56L8.65 13h-.39L5.71 6.56v2.77a93.77 93.77 0 0 0 .06 2.84.4.4 0 0 0 .07.18c.03.04.1.07.17.1.09.02.32.05.71.07V13H4Z" fill="#fff"/></svg>