<!-- by TradingView --><svg width="56" height="56" viewBox="0 0 56 56" xmlns="http://www.w3.org/2000/svg"><path fill="#F0F3FA" d="M0 0h56v56H0z"/><path fill-rule="evenodd" d="M14.4 41.65A4.58 4.58 0 0 0 17.67 43h20.75c.6 0 1.2-.2 1.76-.43A4.6 4.6 0 0 0 43 38.26V24.82a16.78 16.78 0 0 0-4.46-11.2 14.92 14.92 0 0 0-4.87-3.43A14.2 14.2 0 0 0 27.95 9h-.06c-1.96 0-3.9.42-5.71 1.23-1.81.8-3.46 1.98-4.84 3.46a15.97 15.97 0 0 0-3.22 5.16c-.75 1.93-1.13 4-1.12 6.08v13.44c0 1.23.54 2.4 1.4 3.28Zm24.45-16.46c.09.09.13.2.14.33 0 1.9-.89 4.16-1.81 5.8a12.88 12.88 0 0 1-10.63 6.3c-4.67.19-9.4-1.82-12.15-5.67-.18-.26-.4-.23-.4.09v5.66c-.02.7.07 1.7.25 2.3.24.83.7 1.4 1.39 1.71a5.3 5.3 0 0 0 2.04.29h4.99c2.32.01 3.97-.05 4.97-.2a18.7 18.7 0 0 0 5.17-1.61c1.75-.81 3.2-1.83 4.37-3.07 2-2.11 3.41-4.53 4.26-7.26.55-1.79.64-3.65.5-5.47 0-.1-.05-.18-.12-.25-.07-.06-.17-.14-.26-.14H26.8c-.02 0-.05.05-.08.09a.27.27 0 0 1-.04.06.23.23 0 0 0-.08.11.75.75 0 0 0 0 .53c.02.04.05.08.09.1 0 .02.02.03.04.05.02.03.05.06.08.06h11.7c.12 0 .24.1.33.19Z" fill="#FF0001"/></svg>