<!-- by TradingView --><svg width="18" height="18" viewBox="0 0 18 18" xmlns="http://www.w3.org/2000/svg"><path fill="url(#a)" d="M0 0h18v18H0z"/><path d="M6.16 5.37c-.74 1.28.42 1.52.71 2.25 0-.03 0-.1.03-.12.04-.15.16-.28.16-.43V6.8c-.35-.3-.8-.15-.9-1.43Z" fill="#fff"/><path d="M7.23 6.89c-.1-1.03-.04-1.15.1-1.28.06-.79.44-.85.73-.63.33-.43.75-.8 1.46-.4-.26-.46-.59-.79-.94-.42-.8-.04-1-.07-1.23.15-.22.18-.29.51-.29 1-.32.36-.51.67-.54.88.1.27.54.37.74.67l-.03.03Z" fill="#fff"/><path d="M7.97 7.53c-.13-1.28.42-2.46 1.55-1.61-.07-.43-.71-.49-1.04-.7-.22.45-.7.7-1.16.97 0 .34.03.58 0 .73.23.1.45.4.58.52l.1.09h-.03Z" fill="#fff"/><path d="M8.13 5.22c.1-.1.13-.21.26-.34l.03-.03.03-.03c.07-.03.16-.12.3-.18.19-.06.38-.06.67.1.06.02.1.17.2.2.19.13.35.16.48.13.06.33-.13.54-.13.79 0 .12.1.18.1.27v.27c0 .13.22.19.16.37-.04.06-.13.12-.13.21 0 .18-.1.34-.39.34.26-.16.23-.28.26-.4 0-.06.1-.15.1-.21 0-.15-.07-.22-.07-.22-.03-.03-.06-.06-.06-.09-.04-.06.03-.27 0-.3-.04-.1-.1.03-.13-.24-.04-.55-.75-.55-1.1-.8l-.13-.08c-.23.2-.35.2-.45.24Z" fill="#fff"/><path d="M9 6.56c-.16.03-.23-.16-.16-.28.06-.09.16-.15.13-.27-.07.09-.16.09-.2.15-.25.37.13 1.03.68 1.1-.55.15-.9-.1-1-.28-.2-.45.03-1.15.61-1.1.65.07.65.28.65.58v.19c0 .06-.06.36-.23.42-.16.03-.29 0-.38-.12a.38.38 0 0 1-.07-.33c.23.15.42.03.45-.1.07-.33-.22-.18-.32-.33-.06.15-.35.1-.2.37H9ZM7.2 7.01c.22 0 .6.6.93.85.35.28.8.4 1.06.7.1.12.2.24.3.4.28.45.03.79.25 1.27-.61-.42-.29-.67-.45-1.06-.35-.3-.58-.82-.97-.91-.1-.03-.22 0-.32 0-.26.06-.74.06-.84-.03-.22-.16-.26-.52-.2-.7.07-.21.2-.28.2-.52h.03Z" fill="#fff"/><path d="M8.3 6.92c-.04.27-.2.27-.17.73l.1.1.38.23c.39-.06.52-.33.81-.51-.23.03-.45.03-.65-.03a.68.68 0 0 1-.38-.34c-.03-.06-.03-.12-.07-.18H8.3ZM5.03 8.23c-.03.36.42.42.42.79 0 .27-.39.42-.35 1.03.74-.15 1.06.03.87.91.42.03.48-.15.7-.27.3-.15.62.15.85.48.25.34.83-.36 1.19.67-.03-1.06-.87-1.4-1.84-1.67.52-.76-.55-1.21-.8-2.1 0-.33-.04-.51-.04-.7.3.04.94.8.84.7-.32-.75-1.06-1.58-1.7-1.42.35.24.31.45.31.6 0 .34-.45.43-.48.95l.03.03Z" fill="#fff"/><path d="M5.03 8.23c-.03.36.42.42.42.79v.06a.41.41 0 0 0 .07-.18c0-.34-.46-.43-.42-.8 0-.06 0-.12.03-.18l-.1.3ZM5.2 9.5c-.06.12-.1.3-.1.52.75-.15 1.07.03.88.91.42.03.48-.15.7-.27.3-.15.62.15.85.48.25.34.83-.36 1.19.67 0-.15-.03-.27-.07-.4-.35-.63-.83-.11-1.1-.42-.25-.3-.54-.6-.83-.48-.23.09-.3.3-.71.27.23-.88-.13-1.1-.87-.91 0-.15 0-.3.03-.4l.03.03Zm.94-2.1c.32.13.87.8.77.67a2.72 2.72 0 0 0-.22-.42c-.2-.18-.42-.37-.58-.4v.16h.03Zm-.74-.75c-.07 0-.13 0-.2.03.36.24.33.45.33.6v.07c.03-.07.06-.13.06-.22 0-.15.03-.3-.2-.51v.03Z" fill="#8E1417"/><path d="M5.03 13.33c.3-.73.71-.52 1.23-.88.32-.24.68-.64.93-1.43.1.1.2.18.26.3.13.19.36.07.58.07-.35.51-.84 1-1.45 1.36-.39.25-1 .19-1.55.58ZM7.16 9.38c.2-.03.42-.15.55-.33.1.36.16.7.55.97-.16-.33-.1-.94-.03-1.25.06.64.19 1.19.45 1.52.26.3.58.46 1.03.43-.26.24-.55.4-.84.48-.26-.63-.93-.9-1.74-1.12.2-.27.16-.52.03-.76v.06ZM9.84 4.85c.03-.06.13-.4.45-.24.26.1.36.34.36.91 0 .4.12.94-.04 1.16-.06.09-.16 0-.29.12 0-.34-.13-.24-.16-.37-.03-.24.2-.42.2-.73 0-.15-.13-.15-.1-.3.03-.21.1-.58-.45-.49l.03-.06Z" fill="#fff"/><path d="M10.06 4.49c.2-.18.52-.18.78-.06.32.12.68.4.93.94h-.54c-.2-.67-.81-1.1-1.17-.88ZM10.55 6.95c.13.1.29.27.35.3.07.07.16-.18.16-.4 0-.17.46-.72.81-.45.13.1.23.25.23.4 0 .3-.23.67-.3.76-.09.15-.09.21 0 .4.1-.13.26-.13.33-.25-.1.67-.61 1.34-1 1.4-.1.03-.13.21-.13.27.32-.03.3 0 .45 0 .16 0 .49-.24.68-.48.2-.25.42-.5.61-.64a1.2 1.2 0 0 0-.32-.06c-.03-.52.55-1.4.39-2.07a.61.61 0 0 0-.42-.49c-.33-.12-.97-.06-1.49-.06 0 .4.04.91-.1 1.13-.03.06-.12.03-.22.09v.12l-.03.03Z" fill="#fff"/><path d="M9.94 7.44c.6.54.7 1.52.19 2.97.84-.94.77-2.24.16-3.55-.03.06-.13.18-.13.24 0 .15-.06.28-.22.34ZM10.58 10.14c.07.27.3 1 .9.85.62-.33.9-1 1.52-1.27a.96.96 0 0 1-.64-.76c-.04.06-.1.12-.13.18-.13.18-.33.3-.46.36a1.7 1.7 0 0 1-.67.03c.13.25.45.3.74.25.29-.06.1-.13.61-.16-.13.5-.84.19-.9.82-.39-.09-.52.07-.9-.33l-.07.03Z" fill="#fff"/><path d="M9.87 10.93c.16-.12.36-.4.55-.64h.03c.13.46.42 1.04 1.07.88h.03c.1-.06.2-.12.26-.18.45.46 1.13.73 1.03 1.16-.68-1-2.58-.49-2.97-1.22ZM9.64 13.97h.3V11.6c0-.18-.1-.4-.2-.52-.16.12-.29.25-.48.34 0 .03 0 .03-.03.06v.27c.12.21.38.3.38 1.58V14l.03-.03Z" fill="#fff"/><defs><linearGradient id="a" x1="3.35" y1="3.12" x2="21.9" y2="24.43" gradientUnits="userSpaceOnUse"><stop stop-color="#1A1E21"/><stop offset="1" stop-color="#06060A"/></linearGradient></defs></svg>