<!-- by TradingView --><svg width="56" height="56" viewBox="0 0 56 56" xmlns="http://www.w3.org/2000/svg"><path fill="#F0F3FA" d="M0 0h56v56H0z"/><path d="M24.5 43a7.64 7.64 0 0 1-4.75-3.52c-.89-2.01-.99-3.82-.3-5.4.29-.64.72-1.31 1.3-2 .34-.42.91-1.02 1.7-1.82.93-.91 1.59-1.62 1.99-2.13a8.33 8.33 0 0 0 1.43-2.5c.3-.85.57-.84.83.02.45 1.51.4 3.03-.17 4.56a13.43 13.43 0 0 1-2.46 3.94 6.43 6.43 0 0 0-1.7 3.99 5.2 5.2 0 0 0 1.75 3.96c.18.17.3.47.38.9ZM31.58 42.3a5.23 5.23 0 0 0 1.96-3.24c.25-1.36 0-2.57-.75-3.66-.2-.27-.48-.68-.88-1.21a21.33 21.33 0 0 1-2.3-3.68 6.86 6.86 0 0 1-.44-4.31c.36-1.58.78-1.6 1.26-.05.2.65.63 1.35 1.29 2.1.38.46 1.02 1.1 1.91 1.93.67.62 1.14 1.08 1.41 1.38a7.17 7.17 0 0 1 1.82 3.61c.66 3.55-.96 6.16-4.85 7.82-.03.02-.05.01-.07-.02l-.38-.56c-.03-.04-.02-.08.02-.1Z" fill="#032741"/><path d="M44.72 34.92a11.57 11.57 0 0 1-8.2 8.72c-.91.47-1.65.48-2.22.03 2.57-1.97 4.08-4.38 4.53-7.23-.02-2.93-.59-5.1-1.7-6.5a85.64 85.64 0 0 1-3.62-4.71 24.22 24.22 0 0 1-2.43-4.25 12.56 12.56 0 0 1-.18-9.77c.64-1.67 1.04-1.61 1.2.17a8.23 8.23 0 0 0 2.96 5.54 94.07 94.07 0 0 1 4.8 4.4 23.17 23.17 0 0 1 3.1 3.8 13.04 13.04 0 0 1 1.76 9.8ZM43.17 32.65Z" fill="url(#a5jkuwstq)"/><path d="M11.28 34.92a11.57 11.57 0 0 0 8.2 8.72c.91.47 1.65.48 2.22.03-2.57-1.97-4.08-4.38-4.53-7.23.02-2.93.59-5.1 1.7-6.5a85.64 85.64 0 0 0 3.62-4.71 24.22 24.22 0 0 0 2.43-4.25c1.38-3.25 1.44-6.5.18-9.77-.64-1.67-1.04-1.61-1.2.17a8.23 8.23 0 0 1-2.96 5.54 94.07 94.07 0 0 0-4.8 4.4 23.17 23.17 0 0 0-3.1 3.8 13.04 13.04 0 0 0-1.76 9.8ZM12.83 32.65Z" fill="url(#b5jkuwstq)"/><path d="M28 43a2.5 2.5 0 1 0 0-5 2.5 2.5 0 0 0 0 5Z" fill="#032741"/><defs><linearGradient id="a5jkuwstq" x1="37.5" y1="10" x2="37.5" y2="44" gradientUnits="userSpaceOnUse"><stop offset=".37" stop-color="#2382C1"/><stop offset=".89" stop-color="#1469A1"/></linearGradient><linearGradient id="b5jkuwstq" x1="18.5" y1="10" x2="18.5" y2="44" gradientUnits="userSpaceOnUse"><stop offset=".37" stop-color="#2382C1"/><stop offset=".89" stop-color="#1469A1"/></linearGradient></defs></svg>