<!-- by TradingView --><svg width="56" height="56" viewBox="0 0 56 56" xmlns="http://www.w3.org/2000/svg"><path fill="#F0F3FA" d="M0 0h56v56H0z"/><path fill-rule="evenodd" d="M4 25v6h1v-2h1.05C7.22 29 8 28.15 8 26.99 8 25.84 7.23 25 6.06 25H4Zm1 3h.91C6.57 28 7 27.64 7 26.99c0-.66-.43-.99-1.1-.99H5v2Zm7-3h1v3.86c0 1.18-.78 2.14-2 2.14s-2-.96-2-2.14V25h1v3.77c0 .66.29 1.23 1 1.23s1-.57 1-1.23V25Zm3.96 0H14v6h1v-2h1.01l.93 2H18l-1.09-2.28c.57-.36.9-1.04.9-1.8 0-1.11-.71-1.92-1.85-1.92ZM15 28h.82c.63 0 1.02-.45 1.02-1.08 0-.64-.4-.92-1.02-.92H15v2Zm6.52-1.32a.8.8 0 0 0-.3-.58c-.17-.14-.4-.2-.68-.2-.2 0-.37.03-.5.1a.71.71 0 0 0-.36.98c.04.08.1.16.2.22.08.06.18.11.28.15.1.04.21.08.32.1l.49.14c.2.06.38.12.57.21.18.09.34.2.49.33a1.45 1.45 0 0 1 .47 1.14c0 .35-.08.65-.23.9a1.6 1.6 0 0 1-.68.61c-.3.15-.65.22-1.07.22-.4 0-.75-.07-1.05-.21-.3-.14-.53-.35-.7-.62-.17-.27-.26-.6-.27-.98h.93a.9.9 0 0 0 .55.8c.16.07.34.1.54.1s.38-.03.53-.1a.88.88 0 0 0 .37-.29.76.76 0 0 0 .14-.43.6.6 0 0 0-.12-.38.88.88 0 0 0-.33-.25c-.14-.07-.3-.13-.49-.18l-.6-.17a2.3 2.3 0 0 1-1.01-.56 1.37 1.37 0 0 1-.37-1.01 1.63 1.63 0 0 1 .93-1.5c.29-.15.62-.22.98-.22.37 0 .7.07.97.22a1.63 1.63 0 0 1 .9 1.46h-.9ZM24 25h-1v6h1v-2.5h2V31h1v-6h-1v2.5h-2V25Zm9 3c0 1.5-.85 3-2.5 3S28 29.5 28 28s.84-3 2.5-3c1.65 0 2.5 1.5 2.5 3Zm-1 0c0-.94-.4-2.05-1.5-2.05S29 27.06 29 28c0 .94.4 2.05 1.5 2.05S32 28.95 32 28Zm1-3v1h1.58v5h1v-5H37v-1h-4Zm4.5.91V25h4v.91H40V31h-1v-5.09h-1.5ZM41 31h1.04l.3-1h2.32l.3 1H47v-4.13h.05L48.63 31h.74l1.58-4.12H51V31h1v-6h-1.27l-1.7 4.35h-.06L47.27 25H46v6l-1.9-6h-1.2L41 31Zm3.36-2-.84-2.77h-.04L42.64 29h1.72Z"/></svg>