<!-- by TradingView --><svg width="18" height="18" viewBox="0 0 18 18" xmlns="http://www.w3.org/2000/svg"><path fill="#F0F3FA" d="M0 0h18v18H0z"/><path d="m12.77 4.14 1.17-.26a.04.04 0 0 1 .06.03v.03l-.03.03-1.1.47a.04.04 0 0 0-.03.05l.26 1.16v.03a.04.04 0 0 1-.06.02.04.04 0 0 1-.02-.02l-.48-1.09a.04.04 0 0 0-.05-.02l-1.18.25a.04.04 0 0 1-.05-.02v-.04l.03-.02 1.1-.48a.04.04 0 0 0 .02-.04l-.26-1.16v-.04a.04.04 0 0 1 .06-.02l.03.03.48 1.09.02.02h.03ZM8.7 3.76c0-.17-.03-.26-.11-.28a6.16 6.16 0 0 1 2.74.3v.02c-.95-.1-1.71-.2-2.63-.04Z" fill="#1E76AE"/><path d="M8.59 3.48c.08.02.12.1.1.28-.47.09-.9.22-1.25.4A3.3 3.3 0 0 0 5.6 7.69c.1.5.34 1.22.67 1.72a7.35 7.35 0 0 0 5.14 3.17 13.26 13.26 0 0 0 1.53 0l.05.05.54 1.11a.17.17 0 0 1 0 .16.17.17 0 0 1-.14.09c-.38.02-1 .01-1.87-.02a7.36 7.36 0 0 1-5.49-2.58 5.65 5.65 0 0 1-1.45-4.1A4.05 4.05 0 0 1 7.2 3.81c.45-.19.91-.3 1.39-.33Z" fill="#001F43"/><path d="M12.68 11.76c.03.05 0 .1-.07.11-.4.05-.89.05-1.43 0a.4.4 0 0 1-.18-.05.35.35 0 0 1-.13-.13l-2.04-3.6a.13.13 0 0 0-.05-.05.15.15 0 0 0-.14 0 .13.13 0 0 0-.05.05l-1.18 2.1-.01.01h-.07l-.87-1.04a.3.3 0 0 1-.03-.35c.3-.48.58-.96.86-1.46.36-.64.93-.72 1.65-.67.54.04.92.25 1.13.63l2.6 4.45ZM5.3 11a6.94 6.94 0 0 0 1.07 1.36v.03l-.66 1.45a.27.27 0 0 1-.1.12.24.24 0 0 1-.13.04h-1.3c-.04 0-.06 0-.1-.02a.18.18 0 0 1-.05-.07.2.2 0 0 1-.01-.19L5.24 11V11h.05Z" fill="#001F43"/></svg>