<!-- by TradingView --><svg width="18" height="18" viewBox="0 0 18 18" xmlns="http://www.w3.org/2000/svg"><path fill="#F0F3FA" d="M0 0h18v18H0z"/><path d="m9.04 4 1.1 1.24a.01.01 0 0 1 0 .02L4.2 12H2L2 11.98v-.01L9.03 4a.01.01 0 0 1 .01 0ZM12.07 7.45l-1.1 1.24-1.65-1.86v-.01l1.09-1.25a.01.01 0 0 1 .02 0l1.64 1.87a.01.01 0 0 1 0 .01Z" fill="#3E6AFF"/><path d="m7.66 8.7 1.08-1.24h.01a.02.02 0 0 1 .02 0l2.46 2.8a.02.02 0 0 1 0 .02l-1.08 1.23a.02.02 0 0 1-.01 0h-.01l-2.47-2.8v-.02ZM11.25 9l1.1-1.23h.01l3.64 4.2V12H13.86l-2.62-2.96a.01.01 0 0 1 0-.02ZM6.83 9.65l1.1 1.24v.02l-.96 1.08a.01.01 0 0 1-.01 0H4.77a.01.01 0 0 1 0-.01L6.8 9.65a.01.01 0 0 1 .01 0h.01Z" fill="#57FDCF"/></svg>