<!-- by TradingView --><svg width="56" height="56" viewBox="0 0 56 56" xmlns="http://www.w3.org/2000/svg"><path fill="#F0F3FA" d="M0 0h56v56H0z"/><path d="M39.4 31a2.3 2.3 0 0 1 2.2 1.57c.1.29.14.6.14.93 0 .37-.06.7-.18 1.01a2.27 2.27 0 0 1-2.2 1.49c-.35 0-.67-.06-.96-.18a2.18 2.18 0 0 1-1.24-1.32 2.92 2.92 0 0 1 0-2.03A2.28 2.28 0 0 1 39.4 31Zm-.06.25a1.45 1.45 0 0 0-1.25.83 3.21 3.21 0 0 0-.24.9 4.09 4.09 0 0 0 .14 1.67c.11.34.27.6.48.77.25.21.55.32.9.32a1.32 1.32 0 0 0 .95-.39c.4-.38.6-1.01.6-1.9 0-.41-.07-.78-.18-1.11a1.72 1.72 0 0 0-.49-.76 1.4 1.4 0 0 0-.91-.33ZM36.24 32.63a3.2 3.2 0 0 0-.21-.54 1.78 1.78 0 0 0-.27-.36 1.5 1.5 0 0 0-1.08-.44 1.56 1.56 0 0 0-1.27.6c-.16.17-.27.4-.35.67-.08.26-.12.56-.12.89 0 .42.05.79.17 1.1.11.33.28.57.49.75a2.02 2.02 0 0 0 1.98.21c.25-.11.51-.3.78-.56l.13.13c-.22.3-.5.52-.85.68-.34.16-.71.24-1.13.24-.36 0-.69-.06-.99-.18-.3-.12-.55-.28-.76-.5a2.3 2.3 0 0 1-.5-.77 2.8 2.8 0 0 1-.17-1c0-.42.07-.8.22-1.13.14-.34.35-.63.63-.85.22-.18.47-.32.75-.42.27-.1.55-.15.83-.15.36 0 .72.06 1.07.18.12.04.22.06.29.06.07 0 .13-.02.18-.06.06-.04.1-.1.12-.18h.15l.07 1.63h-.16ZM30.27 31.83c0-.14 0-.26-.03-.34a.33.33 0 0 0-.1-.2.42.42 0 0 0-.2-.1l-.38-.04V31h2.16v.15c-.15 0-.27.02-.37.04a.42.42 0 0 0-.21.1.37.37 0 0 0-.1.2c-.02.09-.04.2-.04.34v3.36c0 .13.02.25.03.33a.4.4 0 0 0 .11.2c.05.05.13.09.22.1.1.03.21.04.36.04V36h-2.16v-.14c.16 0 .28-.01.37-.03.1-.02.17-.06.21-.1a.37.37 0 0 0 .1-.2c.02-.09.03-.2.03-.34v-3.36ZM29.31 36h-1.17l-1.73-2.33-.4.02v1.5l.01.32c.02.08.05.15.1.2.05.05.11.09.2.11.08.02.2.03.33.04V36h-2v-.14c.13-.01.23-.03.32-.05a.35.35 0 0 0 .19-.11.44.44 0 0 0 .08-.22l.02-.39v-3.26c0-.14 0-.24-.02-.32a.38.38 0 0 0-.08-.2.37.37 0 0 0-.2-.1 2.03 2.03 0 0 0-.32-.06V31h2c.36 0 .68.05.96.15.29.1.5.23.63.4.1.1.16.22.2.36.04.13.07.27.07.43 0 .34-.1.61-.32.8-.2.2-.53.36-1 .45l1.5 1.92c.1.12.2.21.29.26.1.05.2.08.34.1V36Zm-3.3-2.59a9.88 9.88 0 0 0 .77-.06 1.94 1.94 0 0 0 .51-.2.76.76 0 0 0 .3-.32c.08-.15.12-.32.12-.51 0-.36-.11-.62-.33-.78-.21-.17-.55-.26-1.02-.26-.14 0-.24.02-.29.06-.04.04-.07.11-.07.22v1.85ZM24.5 33.47c-.1 0-.19.02-.26.04a.3.3 0 0 0-.15.09.33.33 0 0 0-.07.16l-.02.26v1.47a1.3 1.3 0 0 1-.32.2 4.32 4.32 0 0 1-1.5.31c-.4 0-.78-.07-1.12-.2a2.37 2.37 0 0 1-.88-.58c-.2-.21-.35-.46-.45-.73a2.8 2.8 0 0 1-.14-.94c0-.38.06-.72.18-1.03a2.39 2.39 0 0 1 2.3-1.52c.33 0 .66.06 1 .17.14.05.24.07.32.07.08 0 .14-.02.2-.07s.1-.1.13-.17h.15l.06 1.53h-.16a7.58 7.58 0 0 0-.25-.5 1.28 1.28 0 0 0-.27-.34 1.5 1.5 0 0 0-1.05-.4 1.59 1.59 0 0 0-1.3.6c-.15.17-.27.41-.36.71a3.22 3.22 0 0 0 0 1.85c.1.27.22.5.38.68.17.19.37.33.6.43a2.02 2.02 0 0 0 1.49.03.66.66 0 0 0 .2-.14.25.25 0 0 0 .08-.17v-1.17l-.01-.32a.3.3 0 0 0-.1-.19.34.34 0 0 0-.19-.09c-.08-.02-.2-.04-.34-.04v-.14h1.86v.14ZM19.31 36h-1.85v-.14h.16a1.7 1.7 0 0 0 .17-.03c.03 0 .05-.02.07-.03a.22.22 0 0 0 .07-.08.2.2 0 0 0 .04-.1c0-.13-.05-.3-.14-.51l-.31-.7h-1.9l-.34.86-.04.14-.01.15c0 .1.03.17.11.23.08.05.2.07.38.07V36h-1.44v-.14a.7.7 0 0 0 .23-.04.5.5 0 0 0 .19-.16c.06-.1.13-.21.2-.37l.29-.65 1.5-3.64h.15l1.81 4.21c.06.14.11.25.16.33.04.09.1.15.14.2.04.04.1.07.15.1l.21.02V36Zm-1.89-1.9-.84-2.05-.84 2.05h1.68ZM47.77 23.83c0-.14 0-.26-.02-.34a.32.32 0 0 0-.09-.2.34.34 0 0 0-.2-.1l-.33-.04V23h1.96c.46 0 .87.06 1.23.17.36.11.66.27.9.48.26.22.45.48.58.79.13.3.2.65.2 1.04 0 .38-.07.74-.21 1.07-.14.33-.34.61-.6.83-.22.2-.5.35-.87.46-.35.1-.73.16-1.13.16h-2.06v-.14c.14 0 .25-.02.33-.04a.37.37 0 0 0 .2-.1.39.39 0 0 0 .08-.2c.02-.1.03-.2.03-.33v-3.36Zm.74 3.58c0 .12.02.2.07.25.06.04.16.06.3.06.32 0 .6-.02.82-.06.22-.05.43-.13.62-.25.6-.35.89-.98.89-1.88 0-.41-.08-.78-.23-1.1a1.92 1.92 0 0 0-1.28-1.06c-.23-.06-.5-.09-.82-.09-.15 0-.24.02-.3.06-.05.04-.07.12-.07.24v3.83ZM46.9 26.7l-.36 1.3h-3.9v-.14c.12 0 .23-.02.31-.05a.37.37 0 0 0 .2-.1.4.4 0 0 0 .09-.2l.02-.32v-3.36c0-.14 0-.24-.02-.33a.35.35 0 0 0-.1-.2.41.41 0 0 0-.19-.1 1.68 1.68 0 0 0-.32-.05V23h2.05v.15c-.15.01-.26.03-.35.05a.35.35 0 0 0-.3.3c-.02.09-.03.2-.03.33v3.57c0 .06 0 .12.02.16.02.04.05.07.1.1.04.02.1.03.19.04h.81c.3 0 .56-.03.77-.1.2-.08.38-.2.5-.35.06-.06.1-.14.15-.23l.17-.33h.18ZM42.52 28h-1.18l-1.73-2.33-.4.02v1.5c0 .13 0 .24.02.32.02.08.05.15.1.2.04.05.1.09.2.11.08.02.19.03.33.04V28h-2.01v-.14c.13-.01.24-.03.32-.05a.35.35 0 0 0 .2-.11.44.44 0 0 0 .08-.22l.01-.39v-3.26l-.01-.32a.38.38 0 0 0-.09-.2.37.37 0 0 0-.19-.1 2.03 2.03 0 0 0-.32-.06V23h2c.36 0 .68.05.96.15.28.1.5.23.63.4.09.1.16.22.2.36.04.13.06.27.06.43 0 .34-.1.61-.31.8-.2.2-.54.36-1 .45l1.5 1.92c.1.12.2.21.28.26.1.05.21.08.35.1V28Zm-3.31-2.59a9.88 9.88 0 0 0 .77-.06 1.94 1.94 0 0 0 .52-.2.76.76 0 0 0 .3-.32c.08-.15.11-.32.11-.51 0-.36-.1-.62-.32-.78-.22-.17-.56-.26-1.02-.26-.15 0-.24.02-.29.06-.05.04-.07.11-.07.22v1.85ZM35.14 23a2.3 2.3 0 0 1 2.19 1.57c.1.29.15.6.15.93 0 .37-.06.7-.18 1.01A2.27 2.27 0 0 1 35.1 28c-.35 0-.68-.06-.97-.18a2.18 2.18 0 0 1-1.24-1.32 2.92 2.92 0 0 1 .01-2.03A2.28 2.28 0 0 1 35.14 23Zm-.07.25a1.46 1.46 0 0 0-1.25.83 3.22 3.22 0 0 0-.24.9 4.1 4.1 0 0 0 .14 1.67c.12.34.28.6.48.77.26.21.56.32.9.32a1.32 1.32 0 0 0 .96-.39c.39-.38.59-1.01.59-1.9 0-.41-.06-.78-.18-1.11a1.72 1.72 0 0 0-.48-.76 1.4 1.4 0 0 0-.92-.33ZM32.38 23.15l-.24.06a.42.42 0 0 0-.26.23l-.1.23-.34.94-.25.72A76.08 76.08 0 0 0 30.3 28h-.1l-1.17-3.14L27.9 28h-.1l-1.4-3.99a6.49 6.49 0 0 0-.18-.42c-.06-.11-.1-.2-.16-.26a.37.37 0 0 0-.18-.13.83.83 0 0 0-.24-.05V23h1.79v.15c-.19 0-.31.03-.38.06s-.1.09-.1.17a5.23 5.23 0 0 0 .08.34l1.05 2.8.78-2.1-.24-.6a4.72 4.72 0 0 0-.17-.36.59.59 0 0 0-.14-.2.35.35 0 0 0-.18-.1 1.28 1.28 0 0 0-.24-.01V23h1.93v.15c-.19 0-.33.02-.42.06-.08.05-.13.11-.13.2l.03.15c.02.06.04.14.08.22l.09.23.96 2.53.9-2.51c.08-.23.12-.42.12-.57 0-.1-.03-.17-.11-.21a.91.91 0 0 0-.39-.1V23h1.43v.15ZM25.56 28H23.7v-.14h.16a1.7 1.7 0 0 0 .18-.03l.07-.03a.22.22 0 0 0 .07-.08.2.2 0 0 0 .03-.1c0-.13-.04-.3-.14-.51l-.3-.7h-1.9l-.34.86-.04.14-.02.15c0 .1.04.17.12.23.08.05.2.07.38.07V28h-1.45v-.14a.7.7 0 0 0 .23-.04.49.49 0 0 0 .2-.16c.06-.1.13-.21.2-.37l.29-.65 1.5-3.64h.15l1.81 4.21c.06.14.11.25.16.33.04.09.09.15.14.2.04.04.1.07.15.1l.2.02V28Zm-1.89-1.9-.84-2.05L22 26.1h1.68ZM20.35 28h-1.17l-1.73-2.33-.4.02v1.5l.01.32c.02.08.05.15.1.2.05.05.11.09.2.11.08.02.2.03.34.04V28h-2.02v-.14c.14-.01.25-.03.33-.05a.35.35 0 0 0 .19-.11.44.44 0 0 0 .08-.22l.02-.39v-3.26c0-.14 0-.24-.02-.32a.38.38 0 0 0-.08-.2.37.37 0 0 0-.2-.1 2.03 2.03 0 0 0-.32-.06V23h2c.37 0 .68.05.96.15.29.1.5.23.64.4.08.1.15.22.2.36.04.13.06.27.06.43 0 .34-.1.61-.32.8-.2.2-.53.36-1 .45l1.5 1.92c.1.12.2.21.29.26.1.05.2.08.34.1V28Zm-3.3-2.59a9.88 9.88 0 0 0 .77-.06 1.94 1.94 0 0 0 .51-.2.76.76 0 0 0 .3-.32c.08-.15.12-.32.12-.51 0-.36-.11-.62-.33-.78-.21-.17-.55-.26-1.02-.26-.14 0-.24.02-.29.06-.04.04-.07.11-.07.22v1.85ZM12.13 28h-.1l-1.84-4.15v3.04c0 .2.01.35.03.48.02.11.06.2.1.28.06.07.13.12.22.15s.2.05.34.06V28h-1.7v-.14c.14-.01.26-.03.35-.06.1-.03.17-.08.21-.15a.63.63 0 0 0 .1-.28c.02-.13.03-.29.03-.48v-3.06c0-.14 0-.25-.03-.33a.33.33 0 0 0-.1-.2.38.38 0 0 0-.2-.1c-.08-.02-.2-.04-.35-.05V23h1.44l1.67 3.82L13.92 23h1.44v.15c-.13.01-.24.03-.32.05a.4.4 0 0 0-.2.1.4.4 0 0 0-.09.2l-.02.33v3.36c0 .13.01.24.03.32.01.08.04.15.09.2a.4.4 0 0 0 .19.1c.08.03.2.04.32.05V28h-2.04v-.14c.15 0 .26-.02.35-.05a.39.39 0 0 0 .2-.1.44.44 0 0 0 .1-.23l.02-.39v-3.42L12.13 28ZM9.03 28H7.18v-.14h.16a1.7 1.7 0 0 0 .18-.03l.06-.03a.22.22 0 0 0 .08-.08.2.2 0 0 0 .03-.1c0-.13-.05-.3-.14-.51l-.3-.7h-1.9l-.34.86-.05.14-.01.15c0 .1.04.17.11.23.08.05.2.07.39.07V28H4v-.14a.7.7 0 0 0 .23-.04.5.5 0 0 0 .2-.16l.2-.37.28-.65L6.42 23h.14l1.82 4.21c.06.14.1.25.15.33.05.09.1.15.14.2l.15.1.21.02V28Zm-1.88-1.9-.84-2.05-.84 2.05h1.68Z"/></svg>