<!-- by TradingView --><svg width="56" height="56" viewBox="0 0 56 56" xmlns="http://www.w3.org/2000/svg"><path fill="#F0F3FA" d="M0 0h56v56H0z"/><path d="M44 28c0 4.05-1.5 7.75-3.99 10.57 2.96-8-9.12-17.77-12.75-20.63-2.74-2.16-3.12-4.43-2.94-5.51A16 16 0 0 1 44 28Z" fill="url(#a05if2fe1)"/><path d="M28.29 44c2.43-.04 4.74-.63 6.79-1.65.25-.63.5-1.5.5-2.3V40c0-1.47.01-4.33-8.32-11.57-7.9-6.87-8.31-12.14-7.44-14.18a16.07 16.07 0 0 0-6.37 7.09c.12 1.3 1.17 3.92 4.82 7.6 1.3 1.32 2.58 2.57 3.78 3.73 3.9 3.79 6.95 6.74 6.95 8.58 0 1.3-.36 2.21-.71 2.75Z" fill="url(#b05if2fe1)"/><path d="M27 43.97a16 16 0 0 1-14.23-20.9c.51 2.15 2.64 5.12 5.25 7.77.76.78 1.76 1.72 2.83 2.72 3.18 3.02 7.15 6.78 7.15 8.2 0 1.22-.63 1.83-1 2.21Z" fill="url(#c05if2fe1)"/><path d="M32.31 33.36a52.5 52.5 0 0 0-5.05-4.93c-7.9-6.87-8.31-12.14-7.44-14.18a16.07 16.07 0 0 0-6.37 7.09c.12 1.3 1.17 3.92 4.82 7.6 1.3 1.32 2.58 2.57 3.78 3.73 1.64 1.6 3.12 3.03 4.3 4.3a16 16 0 0 0 5.96-3.61Z" fill="url(#d05if2fe1)"/><path d="M24.8 37.4a137.2 137.2 0 0 0-3.95-3.84c-1.07-1-2.07-1.94-2.83-2.72-2.61-2.65-4.74-5.62-5.25-7.77a15.99 15.99 0 0 0 1.5 13.14c2.1 1.03 4.08 1.79 6.58 1.79 1.65 0 2.8-.33 3.95-.6Z" fill="url(#e05if2fe1)"/><path d="M36.45 26.76c.51-1.56.55-3.22.55-4.95 0-3-.59-5.81-2.03-8.21a15.94 15.94 0 0 0-10.65-1.17c-.18 1.08.2 3.35 2.94 5.5 1.88 1.5 6.04 4.84 9.2 8.83Z" fill="url(#f05if2fe1)"/><defs><linearGradient id="a05if2fe1" x1="44" y1="26.02" x2="14.04" y2="36.15" gradientUnits="userSpaceOnUse"><stop stop-color="#0096DA"/><stop offset=".19" stop-color="#4AC1F0"/></linearGradient><linearGradient id="b05if2fe1" x1="44" y1="26.02" x2="14.04" y2="36.15" gradientUnits="userSpaceOnUse"><stop offset=".19" stop-color="#4AC1F0"/><stop offset=".88" stop-color="#07ACEC"/></linearGradient><linearGradient id="c05if2fe1" x1="44" y1="26.02" x2="14.04" y2="36.15" gradientUnits="userSpaceOnUse"><stop offset=".19" stop-color="#4AC1F0"/><stop offset=".88" stop-color="#07ACEC"/></linearGradient><linearGradient id="d05if2fe1" x1="24.62" y1="12" x2="24.62" y2="37.81" gradientUnits="userSpaceOnUse"><stop stop-color="#F8363C"/><stop offset="1" stop-color="#FF922C"/></linearGradient><linearGradient id="e05if2fe1" x1="24.62" y1="12" x2="24.62" y2="37.81" gradientUnits="userSpaceOnUse"><stop stop-color="#F8363C"/><stop offset="1" stop-color="#FF922C"/></linearGradient><linearGradient id="f05if2fe1" x1="24.62" y1="12" x2="24.62" y2="37.81" gradientUnits="userSpaceOnUse"><stop stop-color="#F8363C"/><stop offset="1" stop-color="#FF922C"/></linearGradient></defs></svg>