<!-- by TradingView --><svg width="18" height="18" viewBox="0 0 18 18" xmlns="http://www.w3.org/2000/svg"><path fill="#F0F3FA" d="M0 0h18v18H0z"/><path d="M7.53 11h-.94a.1.1 0 0 1-.04 0 .09.09 0 0 1-.03-.03l-.02-.03v-.04l1.65-4.85c0-.01.01-.03.03-.03A.1.1 0 0 1 8.23 6h1.55a.1.1 0 0 1 .05.02c.02 0 .03.02.04.04l1.63 4.85v.03c0 .01 0 .02-.02.03l-.03.02a.1.1 0 0 1-.04.01h-1a.1.1 0 0 1-.06-.02.07.07 0 0 1-.04-.04l-.28-.87a.07.07 0 0 0-.03-.04.1.1 0 0 0-.06-.02h-1.4c-.06 0-.1-.05-.08-.1l.24-.76c.01-.03.05-.05.08-.05h.92c.06 0 .1-.05.08-.1L9.1 7.05a.07.07 0 0 0-.03-.04.1.1 0 0 0-.05-.02.1.1 0 0 0-.06.02.07.07 0 0 0-.03.04l-1.32 3.9-.03.04a.1.1 0 0 1-.05.01Z" fill="#105CAB"/><path d="M15 10a6.06 6.06 0 0 1-6 5 6.06 6.06 0 0 1-6-5h1.03c.47 2.28 2.52 4 4.97 4 2.45 0 4.5-1.72 4.97-4H15ZM9 3a6.06 6.06 0 0 1 6 5h-1.03A5.06 5.06 0 0 0 9 4a5.06 5.06 0 0 0-4.97 4H3c.48-2.84 2.98-5 6-5Z" fill="#85C11F"/></svg>