<!-- by TradingView --><svg width="56" height="56" viewBox="0 0 56 56" xmlns="http://www.w3.org/2000/svg"><path fill="#114A92" d="M0 0h56v56H0z"/><path d="M32.32 17.93A3.84 3.84 0 0 0 29 16c-.64 0-1.29.17-1.88.51L10 26.51V23l15.65-9.1a6.75 6.75 0 0 1 9.24 2.52l8 13.7A7.96 7.96 0 0 1 44 34c.09 4.14-3.1 8-7.6 8H20.73c-4.34 0-7.66-3.78-7.72-7.78a7.76 7.76 0 0 1 1.45-4.65l5.14-6.83c.82-1.08 1.67-1.74 2.5-1.74 1.12 0 1.33.34.91.99l-6.23 9.24A4.9 4.9 0 0 0 16 34c.05 2.5 2.1 5 4.72 5H36.4c2.74 0 4.68-2.47 4.6-5a4.81 4.81 0 0 0-.67-2.28l-8.01-13.8Z" fill="#FFFDFF"/></svg>