<!-- by TradingView --><svg width="56" height="56" viewBox="0 0 56 56" xmlns="http://www.w3.org/2000/svg"><path fill="#F0F3FA" d="M0 0h56v56H0z"/><path d="M19 22v-3c11.24 1.17 18 .68 24 0-2.79 2.23-12.7 2.93-17.3 3H19ZM21.11 24H25v6.12c-.03 1.48-.3 3.55-.76 5.74l-2.69-.11c.27-3.3.25-7.11-.44-11.75Zm.3 13.3a86.47 86.47 0 0 1-.95 6.1c-.17.89-.32 1.75-.46 2.6 1.64-1.45 3-5.04 3.9-8.64l-2.5-.06Z" fill="#87B05D"/><ellipse cx="23" cy="15" rx="3" ry="2" fill="#6A8E93"/><path d="M41 25.24c0-6.17-7.07-9.4-10.6-10.24 4.13 1.6 8.18 5.96 8.1 9.53 0 8.74-13.35 10.96-20.5 10.53 9.37 3.18 23-2.12 23-9.82Z" fill="#656563"/></svg>