<!-- by TradingView --><svg width="56" height="56" viewBox="0 0 56 56" xmlns="http://www.w3.org/2000/svg"><path fill="#F0F3FA" d="M0 0h56v56H0z"/><path d="M27.42 26.78c-.05-.01-.05-.06-.02-.14a.14.14 0 0 1 .06-.07.14.14 0 0 1 .09-.01c.8.13 1.53-.25 2.15-1.12.2-.27.23-.65.1-1.13-.26-.93-1.15-1.66-2.21-1.4-.56.15-.96.5-1.2 1.08-.66-1.37-1.32-2.01-2.11-3.03-.03-.04-.04-.08-.03-.11l.02-.03c.03-.02.06-.02.09.01l1.9 1.71c.17.15.35.24.57.28.27.05.42-.04.44-.26A323.49 323.49 0 0 0 27.94 10l.03-.01c.04 0 .05 0 .05.03l.83 12.43c0 .08.03.16.08.23.06.07.13.14.21.18.12.07.27.03.45-.11a48.56 48.56 0 0 0 2.44-2.07l-1.98 2.84a.48.48 0 0 0 .05.61c.05.05.12.1.19.12 1.14.44 1.9.38 3.66.5.04 0 .06.03.05.07l-.01.1-3.53.21a.49.49 0 0 0-.32.15.43.43 0 0 0-.12.33c.07 1.05 2.17 3.15 2.84 3.82v.01l-.07.05c-.04.03-.08.03-.11 0a21.04 21.04 0 0 0-3.38-2.89.46.46 0 0 0-.44-.05.45.45 0 0 0-.18.14.42.42 0 0 0-.1.2l-.44 3.06c0 .02-.02.03-.04.03L28 30c-.05 0-.08-.02-.08-.07-.1-.9-.2-1.8-.27-2.69-.01-.2-.11-.32-.23-.46Z" fill="#FBB901"/><path d="m27.41 26.78-.45-.27c.33-.15.11-.43-.63-.83a1.42 1.42 0 0 0-.4-.44c.33-.19.4-.57.2-1.13a.7.7 0 0 1 .26-.12c.24-.58.64-.93 1.2-1.07 1.06-.27 1.95.46 2.21 1.4.13.47.1.85-.1 1.12-.62.87-1.34 1.25-2.15 1.12-.03-.01-.07 0-.1.01a.14.14 0 0 0-.06.07c-.03.08-.02.13.02.14Z" fill="#FEFE81"/><path d="M26.13 24.1c.2.57.13.95-.2 1.14l-3.87-.33h-.03a.06.06 0 0 1-.02-.03.06.06 0 0 1 0-.07l.1-.13a.08.08 0 0 1 .07-.03c1.38.12 2.7-.06 3.95-.54ZM26.96 26.51a24.22 24.22 0 0 0-3.85 3.37h-.06l-.15-.01c-.04 0-.05-.03-.02-.05a22.49 22.49 0 0 0 3.45-4.14c.74.4.96.68.63.83Z" fill="#FBB901"/><path d="M23.7 31.56c1.24-.55 2.72-.56 4.26-.56h5.4c.25 0 .32.11.23.34l-.3.71c-.1.27-.3.4-.59.4h-4.87a.2.2 0 0 0-.18.1c-.07.14-.04.28.1.41 1.1 1.02 2.15 2.1 3.15 3.25.62.7 1.05 1.9.28 2.62-.99.94-2.64 1.18-4.02 1.17h-7.04c-.18 0-.23-.08-.16-.25l.3-.74c.08-.2.24-.3.45-.3h4.5c.57 0 .65-.2.23-.6a70.03 70.03 0 0 1-2.75-2.65c-.96-1-.99-2.05-.09-3.14.25-.3.62-.55 1.1-.76Zm-4.9 7.92a.8.8 0 0 1-.33.4c.06.02.09.06.07.1V40l-.02.01h-4.33a.2.2 0 0 1-.18-.27l3.55-8.57a.25.25 0 0 1 .24-.16h4.05c.15 0 .2.07.13.2-.55 1.28-1 2.58-1.46 3.88a48.87 48.87 0 0 1-1.71 4.4Zm22.91-.87h-4.48a.84.84 0 0 1-.71-.4.9.9 0 0 1-.08-.82l2.5-6.22a.13.13 0 0 0-.01-.12.12.12 0 0 0-.1-.05h-4.27c-.12 0-.2.05-.25.16-.35.86-1 2.5-1.95 4.93-.5 1.32-.61 2.73.58 3.6a2 2 0 0 0 1.2.31l7.42-.01c.3 0 .44-.15.44-.45v-.64c0-.2-.1-.3-.29-.3Z" fill="#F90030"/></svg>