<!-- by TradingView --><svg width="56" height="56" viewBox="0 0 56 56" xmlns="http://www.w3.org/2000/svg"><path fill="#0C2064" d="M0 0h56v56H0z"/><path d="M42.96 30.26a.14.14 0 0 0-.15.03 6 6 0 0 0-.49.64c-.02.05-.06.09-.08.11a4.8 4.8 0 0 1-.27.43c0 .02 0 .04-.02.05l-.02.03c-.05.1-.11.19-.18.27a.57.57 0 0 0-.1.17c-.03.09-.07.18-.13.26a.94.94 0 0 0-.07.12l-.07.13a.59.59 0 0 0-.08.26l-.02.03a.12.12 0 0 0-.04.05.24.24 0 0 1-.05.09l-.07.07a.49.49 0 0 0-.06.1c0 .02-.02.03-.03.04l-.02.02a.06.06 0 0 0-.03.03.4.4 0 0 1-.14.21.1.1 0 0 0-.03.04.83.83 0 0 1-.14.2c-.02.03-.04.08-.05.16 0 .02 0 .03-.02.04a.25.25 0 0 0-.12.16l-.02.04-.2.3c.14-1.26.76-2.5 1.48-3.55a19.46 19.46 0 0 1 2.28-2.8c0-.02 0-.04-.02-.05-.85-.87-1.62-1.8-2.3-2.8-.27-.39-.5-.81-.72-1.23a5.75 5.75 0 0 1-.73-3.02 19.5 19.5 0 0 1-4.23-6.83.05.05 0 0 0-.04 0c-.75.2-1.54.36-2.38.48-.87.12-1.7.17-2.5.14a7.84 7.84 0 0 1-1.58-.21 4.75 4.75 0 0 1-1.52-.68l-.03.01c-.91.64-2.06.85-3.15.88a17.21 17.21 0 0 1-4.78-.63c-.04 0-.06 0-.07.04a20.06 20.06 0 0 1-1.27 3.4 7.55 7.55 0 0 1-2.5 3.15c-.13.09-.28.16-.43.23-.02 0-.03.02-.02.04.04.58-.03 1.17-.2 1.73-.04 0-.07.03-.1.11 0 .02 0 .03-.02.04a.1.1 0 0 0-.05.05c0 .02-.01.03-.03.04a.12.12 0 0 0-.07.09c0 .02-.02.03-.04.01a.07.07 0 0 0-.03.04c0 .05-.03.08-.07.12v-.01h-.02l-.17.27c-.05.08-.12.16-.23.25l-.28.24c-.04.03-.05.08-.1.1a.06.06 0 0 0-.03.04.36.36 0 0 1-.09.12.05.05 0 0 0-.01.04l-.01.03-.03.02c-.02 0-.03.03-.03.06a.02.02 0 0 1 0 .02h-.03c-.01 0-.04 0-.07.03a6.07 6.07 0 0 0 1.08-3.25.04.04 0 0 0-.03-.01c-.62.12-1.38.07-1.89-.33a1.43 1.43 0 0 1-.52-.74l-.02-.01a.03.03 0 0 0-.03.01l-.27.5c-.03.02-.05.05-.05.1 0 .04-.03.05-.06.04h-.02c-.05.03-.07.06-.08.1l-.01.04a.93.93 0 0 0-.21.26.14.14 0 0 0-.02.07c0 .05-.01.1-.03.14a.58.58 0 0 0-.04.15c-.01.13-.04.25-.09.37a.1.1 0 0 0 0 .05c0 .07 0 .12-.05.16a.05.05 0 0 0-.02.04.5.5 0 0 1-.1.25.15.15 0 0 0-.02.1v.04l-.03.09c-.06-.7 0-1.36.18-2 .16-.55.45-1.01.86-1.4a.21.21 0 0 0 .06-.11c.3-1.27 1.37-2.16 2.55-2.67.43-.19.82-.32 1.2-.4a10.3 10.3 0 0 1 2.06-.22.04.04 0 0 1 0 .04l-.2.47a.15.15 0 0 1-.12.1c-.2 0-.38.01-.57.03-1.34.1-2.77.57-3.67 1.6a3.01 3.01 0 0 0-.43.66.03.03 0 0 0 .02.02h.01c1.03-.2 1.81.68 2.11 1.57a.04.04 0 0 0 .04.02h.02c.7-.4 1.22-.97 1.66-1.63.41-.6.76-1.26 1.05-1.95a22.64 22.64 0 0 0 1.15-3.44h.01c.8.23 1.63.43 2.48.58 1.05.2 2.08.27 3.07.23a5.2 5.2 0 0 0 2.39-.63c.05-.03.06-.06.02-.1-.6-.72-.96-1.82-.28-2.59a.04.04 0 0 0-.02-.06 4.03 4.03 0 0 0-2.51.88 8.8 8.8 0 0 0-.73.65 8.32 8.32 0 0 0-1.13 1.49l-.1-.03a15.73 15.73 0 0 0-.5-.06.06.06 0 0 1-.02-.05v-.03c.9-1.5 2.21-2.86 3.91-3.35a3.17 3.17 0 0 1 1.8-.01c.08.02.16.02.24 0 .59-.21 1.3-.14 1.9.05.54.18 1.05.44 1.52.78a8.07 8.07 0 0 1 2.25 2.58.04.04 0 0 1-.03.03l-.55.08a.1.1 0 0 1-.1-.05 6.75 6.75 0 0 0-2.21-2.37 3.7 3.7 0 0 0-2.1-.58.05.05 0 0 0-.02.05l.02.02c.08.09.15.2.21.32.36.79 0 1.63-.52 2.28a.04.04 0 0 0 0 .03.04.04 0 0 0 .01.02c.67.41 1.48.6 2.27.64.73.05 1.5.02 2.33-.09a21.73 21.73 0 0 0 3.4-.7v.02c.28 1.15.64 2.24 1.08 3.29a9.6 9.6 0 0 0 1.88 3.04 3.59 3.59 0 0 0 .92.66.05.05 0 0 0 .03-.03c.18-.53.5-1.01.97-1.33.28-.19.6-.27.99-.26.03 0 .07.03.1.04.07.02.09 0 .06-.06a1.83 1.83 0 0 0-.23-.4c-1.03-1.36-2.82-1.86-4.47-1.85a.06.06 0 0 1-.06-.04l-.23-.55v-.03a.03.03 0 0 1 .03-.02 10.54 10.54 0 0 1 2.7.43c1.2.4 2.45 1.2 2.94 2.41.09.21.1.48.27.65.6.58.88 1.36.97 2.2a6.9 6.9 0 0 1-.48 3.2 6.4 6.4 0 0 1-.63 1.22l-.34-.42a.14.14 0 0 1-.02-.15c.62-1.12 1-2.32.9-3.58a3.6 3.6 0 0 0-.54-1.66h-.01c-.23.6-.65.96-1.27 1.09a2.87 2.87 0 0 1-1.18 0l-.01.01v.02a4.2 4.2 0 0 0 .25 1.54c.36.98.91 1.9 1.57 2.75.7.9 1.45 1.74 2.26 2.53.04.03.04.07 0 .1-.72.7-1.4 1.43-2.01 2.22Z" fill="#D39296"/><path d="M27.98 12.9c-.31-.34-.64-.98-.49-1.46a.98.98 0 0 1 .48-.57.08.08 0 0 1 .08 0c.85.53.45 1.43 0 2.03-.02.02-.04.03-.07 0Z" fill="#0C2064"/><path d="m19.21 18.5.3-.25a6.62 6.62 0 0 0 1.28-1.5.04.04 0 0 0-.03-.03 8 8 0 0 1-1.28-.24c-.03 0-.03-.02-.03-.05l.19-.5s0-.02.02-.02h.03c.49.1.97.17 1.45.2.02 0 .03 0 .04-.02.22-.4.4-.85.53-1.34.02-.05.05-.06.1-.05a3.7 3.7 0 0 0 .5.1.06.06 0 0 1 .02.05l-.07.29a9.88 9.88 0 0 1-.35.95.03.03 0 0 0 .03.01 5.9 5.9 0 0 0 3.17-.95l.02.02.28.45c.03.03.02.06-.02.08-.28.19-.6.33-.92.48a7.66 7.66 0 0 1-2.91.6 7.24 7.24 0 0 1-2.92 2.8l-.25-.48a.07.07 0 0 1 .03-.1 8.86 8.86 0 0 0 .8-.5ZM34.05 16.1c.06.01.07-.01.05-.06a6.27 6.27 0 0 1-.41-1.22.07.07 0 0 1 .04-.03l.5-.09c.03 0 .05.01.06.05.14.47.31.91.52 1.31.02.04.05.05.09.05a10.2 10.2 0 0 0 1.43-.2.1.1 0 0 1 .04.05 2.73 2.73 0 0 1 .18.5.04.04 0 0 1-.03.02 8.2 8.2 0 0 1-1.3.26.04.04 0 0 0 0 .04c.62.96 1.4 1.7 2.36 2.22a.09.09 0 0 1 .04.12l-.23.44a.04.04 0 0 1-.03.02.04.04 0 0 1-.03 0 7.16 7.16 0 0 1-2.83-2.76.12.12 0 0 0-.1-.06 7.27 7.27 0 0 1-3.82-1.1.05.05 0 0 1 0-.04l.3-.46.01-.01a.03.03 0 0 1 .02 0h.02c.6.38 1.28.68 1.98.8.42.08.8.14 1.15.16Z" fill="#D39296"/><path d="M14.94 20.48c-.74.13-1.7-.05-1.72-1.01a.1.1 0 0 1 .05-.09c.3-.16.6-.18.87-.05.4.18.7.64.85 1.07.01.04 0 .07-.05.08ZM41.57 19.53a.95.95 0 0 1 1.05-.21c.14.05.2.15.17.29a.96.96 0 0 1-.8.84c-.3.08-.62.08-.92.02-.04 0-.06-.03-.04-.07.11-.35.3-.64.54-.87Z" fill="#0C2064"/><path d="M12.36 20.52a4.6 4.6 0 0 0-.2 2.44c.1.56.28 1.1.52 1.6l.36.73-.01.06-.37.45a.04.04 0 0 1-.06 0 8.05 8.05 0 0 1-1.07-3.28l.03-.09v-.04c0-.04 0-.07.03-.1a.5.5 0 0 0 .09-.25c0-.02 0-.03.02-.04.04-.04.06-.09.05-.16a.1.1 0 0 1 0-.05c.05-.12.08-.24.1-.37l.03-.15c.02-.04.03-.09.03-.14 0-.02 0-.05.02-.07.05-.1.12-.19.2-.26a.05.05 0 0 0 .02-.03c0-.05.03-.08.08-.1h.02c.03 0 .05-.01.06-.05 0-.05.02-.08.05-.1Z" fill="#E3B6B7"/><path d="M37.26 24.93c-.23.21-2.17.54-2.81.34-.75-.7-1.74-.8-2.72-.8H28.9l-.12-.02c-.02 0-.03.01-.03.03l-.01 1.33c-.33.54-1.79.35-2.38.4V25.2c0-.1.02-.2-.08-.26a5.97 5.97 0 0 0-3.9-.67c-.6.1-1.17.32-1.5.86a.86.86 0 0 0-.05.77c-.41.02-2.24.03-2.27.09a3.14 3.14 0 0 1 1.94-3.14c.45-.22.97-.36 1.54-.44a8.71 8.71 0 0 1 3.6.24.5.5 0 0 1 .19.09c.1.09.24.1.36.2.1.08.17.2.17.38v1.66l.03.01c.22.13.43.28.61.46.1.09.15.2.14.33 0 .1.06.17.19.21a.04.04 0 0 0 .05-.02l1.23-2.43c.06-.14-.13-.22-.23-.16s-.25.15-.38.13a1.6 1.6 0 0 1-.34-.1c-.57-.24-1.14-.46-1.73-.66-.15-.05-.1-.27-.1-.38a.06.06 0 0 1 .06-.05h6.32c.54 0 1.07.05 1.62.14a4.37 4.37 0 0 1 3.43 2.48Z" fill="#D39296"/><path d="M15.54 22.64c-.26.9-.73 1.77-1.25 2.53a19.92 19.92 0 0 1-2.31 2.82l.01.03a20.6 20.6 0 0 1 2.29 2.78l-.06.03a.06.06 0 0 1-.05-.03h-.02a.12.12 0 0 1-.1 0 .24.24 0 0 0-.13 0 .1.1 0 0 1-.06-.02l-.15-.07a.1.1 0 0 0-.1.02h-.03a.1.1 0 0 0-.07 0h-.04c-.04-.03-.06-.03-.06 0A20.8 20.8 0 0 0 11 27.98a.05.05 0 0 1 .01-.04 19.56 19.56 0 0 0 3.03-3.6c.03-.03.06-.04.07-.03h.03v-.02c0-.03 0-.05.03-.06l.03-.02v-.03l.02-.04a.36.36 0 0 0 .09-.12l.03-.03c.05-.03.06-.08.1-.11l.28-.24c.1-.09.18-.17.23-.25a10.9 10.9 0 0 1 .19-.27c0 .01 0 .02 0 0a.19.19 0 0 0 .07-.1c0-.03.01-.04.02-.05h.01c.02.02.03.01.04-.01a.12.12 0 0 1 .07-.1c.02 0 .03-.01.03-.03a.1.1 0 0 1 .05-.05l.03-.04c.02-.08.05-.12.08-.11Z" fill="#E3B6B7"/><path d="M41.34 28.64h-.03a.03.03 0 0 0-.02 0 6.47 6.47 0 0 0-.75 3.26l-.03.02-.53.03c-.04 0-.05-.02-.06-.05a7.22 7.22 0 0 1 .96-3.84.14.14 0 0 0 0-.14 7.1 7.1 0 0 1-.95-3.83c0-.04.02-.05.06-.05a2.23 2.23 0 0 0 .52.04h.02a.05.05 0 0 1 .01.04 6.41 6.41 0 0 0 .79 3.23v-.01a7.54 7.54 0 0 1 .89-1.02.04.04 0 0 1 .02.01l.34.4a.08.08 0 0 1 0 .1 7.52 7.52 0 0 0-.9 1.15l.01.05a7.45 7.45 0 0 0 .9 1.17l-.01.05-.32.39a.05.05 0 0 1-.06.02l-.02-.02c-.3-.3-.58-.63-.84-1Z" fill="#D39296"/><path d="M14.71 27.34a6.28 6.28 0 0 0 .76-3.22c0-.03.01-.04.03-.04l.57-.02a.02.02 0 0 1 .01.01 7 7 0 0 1-.97 3.89.05.05 0 0 0 0 .05 7.6 7.6 0 0 1 .98 3.9.04.04 0 0 1-.04.03l-.55-.02a.04.04 0 0 1-.03-.01v-.03a6.39 6.39 0 0 0-.76-3.23c-.02-.02-.03-.02-.04 0-.23.34-.51.67-.85 1-.02.03-.04.03-.06 0l-.33-.41a.07.07 0 0 1 0-.1c.32-.32.61-.69.88-1.1.04-.05.02-.08-.01-.13a7.95 7.95 0 0 0-.86-1.07c-.03-.04-.03-.07 0-.1l.32-.4a.04.04 0 0 1 .07-.01 7.04 7.04 0 0 1 .88 1.02ZM37.26 24.93c.17.35.3.71.37 1.08.23 1 .29 2 .19 3.02a5.22 5.22 0 0 1-1.54 3.35 5 5 0 0 1-3.22 1.26c.04-.06.08-.1.13-.1.08 0 .15-.02.2-.03l.11-.03a20.46 20.46 0 0 0 1.11-.26l.28-.1c.1-.03.18-.07.27-.12a6.28 6.28 0 0 1 .42-.24 31.86 31.86 0 0 0 .3-.2c.05-.03.09-.06.12-.1a1.68 1.68 0 0 1 .22-.2c.06-.03.1-.06.14-.1l.13-.12c.15-.14.27-.3.37-.48l.23-.4a2.93 2.93 0 0 0 .22-.5.22.22 0 0 0-.2-.16 2.7 2.7 0 0 0-.71-.02h-.2a12.15 12.15 0 0 1-.83-.01 2 2 0 0 0-.32-.02.2.2 0 0 0-.12.04h-.03v-.04c.2-.37.35-.77.43-1.2.14-.82.13-1.64-.04-2.45-.13-.6-.41-1.12-.84-1.53.74.23 2.56-.42 2.8-.34ZM28.74 25.81v3.94c0 .05 0 .08-.05.1-.04.02-.06 0-.07-.04a2.9 2.9 0 0 0-1.43-2.3 4.81 4.81 0 0 0-.8-.35c-.02 0-.03 0-.03.02v2.86c-.03 0-.05 0-.06.02a.7.7 0 0 0-.2-.4 1.3 1.3 0 0 0-.6-.3 9.8 9.8 0 0 0-1.1-.19c-.96-.1-1.92-.19-2.88-.33a4.97 4.97 0 0 1-1.27-.36 2.76 2.76 0 0 1-1.69-2.5s.07-.16 2.27-.1c.17.34.52.5.86.56l.6.1c.56.07 1.22.14 1.99.21.7.07 1.4.18 2.04.37.02 0 .04 0 .04-.03v-.87c.6-.06 2.05.13 2.38-.4Z" fill="#E3B6B7"/><path d="M28.74 29.75v2.03a.04.04 0 0 0 .03.02h.16a4704.2 4704.2 0 0 1 3.6-.03 4.19 4.19 0 0 0 1.14-.27c.51-.22.92-.57 1.23-1.05v.03c0 .02.01.02.03.01a.2.2 0 0 1 .12-.04c.1 0 .2 0 .32.02l.3.02c.17 0 .35 0 .52-.02h.2c.25-.02.5-.02.75.02.08.01.31.12.27.23-.91 2.29-2.87 2.8-4.35 2.92-.4.03-.77.05-1.11.05a768.93 768.93 0 0 1-6.1-.02.04.04 0 0 1-.02-.02l.02-.22v-.02l-.02-.01a.04.04 0 0 0-.03 0l-.66.14c-1.74.3-3.43.12-5.09-.54l-1.14-.5c-.1-.06-.25-.1-.35-.01-.14.1-.22.15-.37.01-.03-.02-.03-.05-.02-.08l1.13-2.59c0-.02.02-.03.05-.03a.3.3 0 0 1 .18.09.11.11 0 0 1 .04.08c-.01.27.11.51.37.73a3 3 0 0 0 .7.44c.93.4 1.81.63 2.65.68.56.03 1.1-.03 1.61-.17.29-.08.57-.21.83-.4.42-.3.6-.7.57-1.2l.06-.01a128.37 128.37 0 0 0 0 2.75c0 .17-.06.32-.18.43-.04.04-.03.05.02.03.58-.2 1.21-.53 1.6-.98a3.24 3.24 0 0 0 .82-2.46c0 .04.03.06.07.04.04-.02.06-.05.05-.1Z" fill="#D39296"/><path d="M36.34 42.75c.07-.08.1-.15.1-.22l.02-.04.06-.16c.07-.12.06-.23-.02-.33a2.93 2.93 0 0 0-.18-.18.81.81 0 0 0-.21-.15c.4-1.4.92-2.73 1.63-3.98a8.3 8.3 0 0 1 1.16-1.58 4.18 4.18 0 0 1 1.35-1c.01-.02.02-.04.01-.05a3.41 3.41 0 0 1 0-.73l.2-.29.02-.04a.25.25 0 0 1 .12-.16l.02-.04c.01-.08.03-.13.05-.15.06-.07.1-.14.14-.21a.1.1 0 0 1 .03-.04.4.4 0 0 0 .14-.21c0-.02.02-.03.03-.03l.02-.02.03-.03a.49.49 0 0 1 .06-.1c0-.01.02-.04.07-.08a.24.24 0 0 0 .05-.09c0-.02.02-.04.04-.05l.02-.03c0-.1.04-.19.08-.26l.07-.13a.93.93 0 0 1 .07-.12c.06-.08.1-.17.13-.26a.56.56 0 0 1 .1-.17c.07-.08.13-.17.18-.27 0-.01 0-.02.02-.03a.05.05 0 0 0 .02-.05v-.04l.09-.13a1.42 1.42 0 0 0 .18-.26l.08-.1c0-.03.02-.04.02-.05a6 6 0 0 1 .47-.6.14.14 0 0 1 .15-.03c-.67.83-1.25 1.73-1.68 2.71a4.6 4.6 0 0 0-.38 1.93.04.04 0 0 0 .03 0c.97-.17 2.04.06 2.41 1.07v.01h.04c.34-.57.52-1.18.54-1.85.01-.48-.03-.94-.14-1.38a7.3 7.3 0 0 0-.77-1.96c-.03-.07-.04-.13 0-.19l.33-.4c.02-.04.05-.04.07 0a7.66 7.66 0 0 1 1.09 4.07c-.04.96-.33 1.89-1.02 2.57a.45.45 0 0 0-.11.17c-.11.42-.27.77-.48 1.07a5.64 5.64 0 0 1-3.24 1.97 8.8 8.8 0 0 1-2.09.24v-.03l.22-.55a.07.07 0 0 1 .06-.05 6.12 6.12 0 0 0 3.95-1.3 3.3 3.3 0 0 0 .77-.98.04.04 0 0 0-.05-.03c-.55.13-1.15-.15-1.52-.58a2.97 2.97 0 0 1-.57-1c0-.02-.02-.03-.04-.02a5.1 5.1 0 0 0-1.82 1.84c-.36.57-.67 1.19-.95 1.84a22.02 22.02 0 0 0-1.11 3.37h-.01l-.15-.05Z" fill="#E3B6B7"/><path d="M13.41 30.73c0-.03.02-.03.06 0h.04a.1.1 0 0 1 .07 0h.03a.09.09 0 0 1 .1-.02l.15.07a.1.1 0 0 0 .06.01l.14.01h.11c.01.02.03.03.05.03.02 0 .04 0 .06-.03.8 1.2 1.6 2.76 1.46 4.25 0 .04.01.06.04.08a5.2 5.2 0 0 1 1.9 1.65c.29.4.52.77.7 1.1.68 1.27 1.2 2.6 1.58 4.03.01.04.04.05.08.04 1.02-.28 2.05-.46 3.1-.57 1.02-.1 2.03-.1 3.03.1a4.33 4.33 0 0 1 1.83.74l.05-.02a5.15 5.15 0 0 1 2.56-.84c.75-.07 1.53-.06 2.36.03a19.77 19.77 0 0 1 3.06.56.05.05 0 0 0 .02-.04l.06-.24c.08.04.15.09.21.15l.18.18c.08.1.09.2.02.33l-.06.16-.01.04c0 .07-.04.14-.11.22l-.95-.25c-.79-.19-1.6-.33-2.41-.43-.86-.1-1.66-.12-2.39-.06a4.61 4.61 0 0 0-2.07.64.06.06 0 0 0 0 .07c.25.29.43.6.55.95a1.62 1.62 0 0 1-.28 1.67.03.03 0 0 0 0 .03h.02c1.9.03 3.41-1.42 4.32-2.97a.08.08 0 0 1 .09-.04l.55.08a.05.05 0 0 1 .04.03.05.05 0 0 1 0 .05c-.29.48-.61.93-.98 1.36-1.1 1.29-3 2.52-4.74 2a.3.3 0 0 0-.17 0c-1.05.3-2.11 0-3.04-.56a7.91 7.91 0 0 1-2.68-2.85.04.04 0 0 1 .03-.02l.57-.1a.06.06 0 0 1 .06.03c.95 1.6 2.4 3.01 4.32 3a.03.03 0 0 0 .03-.04v-.02c-.68-.82-.35-1.88.28-2.6v-.02a.05.05 0 0 0-.01-.06 2.5 2.5 0 0 0-.47-.25c-.48-.2-1-.32-1.53-.37-.73-.07-1.5-.06-2.32.03a20.11 20.11 0 0 0-3.67.75.04.04 0 0 1-.02-.03l-.03-.18c-.25-.98-.56-1.95-.93-2.9-.28-.7-.6-1.37-1-2a5.3 5.3 0 0 0-1.84-1.92c-.04-.02-.06-.01-.08.03-.35.93-1.07 1.72-2.12 1.55h-.02a.03.03 0 0 0 0 .04c.87 1.62 2.85 2.24 4.58 2.27h.13a.12.12 0 0 1 .1.08l.2.53a.02.02 0 0 1 0 .02h-.02a7.14 7.14 0 0 1-4.37-1.28 3.53 3.53 0 0 1-1.43-2 .34.34 0 0 0-.1-.17c-1.02-.97-1.17-2.56-.93-3.93a8.2 8.2 0 0 1 1.02-2.74.04.04 0 0 1 .04.02l.35.44a.08.08 0 0 1 0 .1c-.16.3-.3.61-.44.9-.56 1.34-.74 2.94-.02 4.23l.08.11c.01.02.02.01.03 0 .2-.54.57-.88 1.12-1.03a2.84 2.84 0 0 1 1.33-.03.03.03 0 0 0 .01-.03 4.86 4.86 0 0 0-.6-2.33c-.31-.64-.69-1.25-1.12-1.82Z" fill="#D39296"/><path d="M13.23 36.3c.17-.82 1.06-.88 1.73-.79a.04.04 0 0 1 .04.05c-.22.7-.88 1.5-1.7 1.06-.11-.07-.09-.21-.07-.31ZM41.02 35.59c-.01-.05 0-.07.05-.08.73-.11 1.68.02 1.72.98 0 .07-.01.1-.08.14-.45.2-.85.13-1.2-.23-.22-.23-.38-.5-.49-.81Z" fill="#0C2064"/><path d="M21.9 39.9v.04a7.77 7.77 0 0 1 .43 1.25.06.06 0 0 1-.04.03l-.5.08c-.04.01-.06 0-.08-.05-.13-.44-.3-.87-.5-1.3a.13.13 0 0 0-.13-.07 8.88 8.88 0 0 0-1.41.22l-.02-.02-.19-.5a.07.07 0 0 1 0-.04.06.06 0 0 1 .04-.04c.35-.1.75-.18 1.2-.22.04 0 .06-.01.08-.03l.01-.02v-.03a6.62 6.62 0 0 0-2.4-2.25v-.04l.22-.47a.06.06 0 0 1 .08-.03 7.18 7.18 0 0 1 2.86 2.81l.03.01a7 7 0 0 1 3.84 1.12.08.08 0 0 1 0 .06l-.29.42a.05.05 0 0 1-.07.01 6.37 6.37 0 0 0-3.15-.94Z" fill="#D39296"/><path d="M34.07 39.88a6.39 6.39 0 0 0-3.17.97.06.06 0 0 1-.03-.02l-.28-.44a.05.05 0 0 1 .02-.08 6.78 6.78 0 0 1 3.84-1.09 6.95 6.95 0 0 1 2.92-2.82.04.04 0 0 1 .02.03l.25.5v.03l-.52.3a6.77 6.77 0 0 0-1.9 1.99.05.05 0 0 0 .05.02 6.53 6.53 0 0 1 1.28.27.06.06 0 0 1 0 .05l-.2.48a.05.05 0 0 1-.05.03 8.3 8.3 0 0 0-1.43-.22c-.02 0-.04 0-.05.03-.22.44-.4.9-.53 1.36 0 .03-.03.04-.05.04l-.53-.08a.04.04 0 0 1-.04-.05 9.5 9.5 0 0 1 .43-1.25c.02-.03 0-.05-.03-.05Z" fill="#E3B6B7"/><path d="M27.97 45.13a.93.93 0 0 1-.5-.98c.05-.36.23-.7.51-1.04.01-.02.03-.02.04 0 .5.55.86 1.52.03 2.02a.08.08 0 0 1-.08 0Z" fill="#0C2064"/></svg>