<!-- by TradingView --><svg width="56" height="56" viewBox="0 0 56 56" xmlns="http://www.w3.org/2000/svg"><path fill="#F0F3FA" d="M0 0h56v56H0z"/><path d="M16 32.48c0-4.86 4.24-7.94 6.12-9.48-.36.33-1.12 2.02-1.12 6.21A8.53 8.53 0 0 0 29.46 38c3.14 0 6.33-2.07 7.54-3.05C35 37.97 29.85 41 25.85 41S16 37.34 16 32.48Z" fill="#45546E"/><path d="m29.99 22.2-4.32 2.1 1.2 2.66 2.57-1.34.56 1.18-2.6 1.35 1.47 3.3-1.14.55L24 23.67 29.45 21l.54 1.2Z" fill="#45546E"/><path d="M44 13v30H12V13h32ZM13 42h30V14H13v28Z" fill="#45546E"/><path d="M23.48 15c-4.2 0-7.4 3.3-8.48 5 .92-.46 3.1-1 5.18-1 4.71 0 7.94 4 12.89 4 3.96 0 6.94-4.9 7.93-7.35-.6.86-2.56 2.35-5.58 2.35-5.18 0-6.67-3-11.94-3Z" fill="#45546E"/><path d="M34 22h2v14l-2 1V22Z" fill="#45546E"/></svg>