<!-- by TradingView --><svg width="56" height="56" viewBox="0 0 56 56" xmlns="http://www.w3.org/2000/svg"><path fill="#F0F3FA" d="M0 0h56v56H0z"/><path d="M14.53 16h9.7l8.75 26h-9.7l-8.75-26Z" fill="#114B33"/><path d="M27.77 22.98c1.45 0 2.63-.93 2.63-2.08 0-1.14-1.18-2.07-2.63-2.07-1.4 0-2.55.86-2.63 1.95C6.3 26.39 5.5 31.2 6.14 33.48c.64 2.31 7.02 6.84 22.07 2.31C40.92 31.96 46.06 27.21 46 24.7c-.06-2-2.12-3.3-3.15-3.7 5.44 5.28-6.76 10.87-13.54 13-6.04 1.57-18.52 3.44-20.16-1.58C7.59 27.66 19 23.84 25.8 22.3c.49.43 1.19.7 1.97.7Z" fill="#A0C6AD"/><path d="M34.28 16h-1.83l-9.08 26h1.83l9.08-26Zm.84 0h1.82l-9.08 26h-1.82l9.08-26Zm4.49 0h-1.83L28.7 42h1.83l9.08-26Zm2.66 0h-1.83l-9.08 26h1.83l9.08-26Z" fill="#C3BFBB"/></svg>