<!-- by TradingView --><svg width="56" height="56" viewBox="0 0 56 56" xmlns="http://www.w3.org/2000/svg"><path fill="#F0F3FA" d="M0 0h56v56H0z"/><path fill-rule="evenodd" d="M21.5 14.86c0-.1.16-.15.26-.16 3.2-.18 5.9.26 8.86 1.33 2.36.85 4.45 2.29 6.26 4.3.09.09.3.2.6.33.86.36 2.15.76 3.89 1.22.1.03.18 0 .25-.07a.23.23 0 0 0 .05-.26 6.24 6.24 0 0 0-.82-1.48c-3.36-4.52-7.99-6.86-13.88-7.01-2.9-.08-6.3-.08-10.24 0-.25 0-.44.03-.58.08a.18.18 0 0 0-.12.16c-.01.07.02.13.09.17 1 .6 1.84 1.5 1.88 2.66.05 1.57.03 3.16 0 4.75 0 .17-.3.3-.5.38l-.06.03a10.3 10.3 0 0 0-4.68 4.2c-2.09 3.43-2.32 6.82-.7 10.18a12.03 12.03 0 0 0 5.7 5.55c2.4 1.2 5.03 1.79 7.87 1.78 5.5-.02 10.1-1.94 13.75-5.76a14.76 14.76 0 0 0 2.64-3.8 10.41 10.41 0 0 0 1.16-4.51c0-.63.02-1.15.06-1.54.01-.14.09-.23.23-.25 2.9-.52 5.16-1.57 6.79-3.17 1.13-1.1.97-1.35-.51-.75-1.76.72-3.66.94-5.7.65a25.94 25.94 0 0 1-6-1.47c-4.01-1.38-6.94-2.17-8.77-2.37-2.76-.3-5-.3-7.48-.01-.12.01-.3-.05-.3-.17v-4.99Zm17.84 12.1a50.65 50.65 0 0 1-6.2-1.7c-5-1.9-9.3-2.76-12.92-2.55-2.45.14-4.35.99-5.72 2.54-1.3 1.48-2 3.47-2.07 5.95-.03 1 .16 2 .57 3.03a11.2 11.2 0 0 0 3.97 4.93 13.06 13.06 0 0 0 5.88 2.36c2.16.3 4.23.2 6.24-.3 1.96-.5 3.71-1.34 5.26-2.53 1.56-1.2 2.8-2.68 3.72-4.42.95-1.82 1.48-3.8 1.6-5.98.03-.43 0-.8-.08-1.1a.32.32 0 0 0-.25-.23ZM27.7 21.48c1.7.23 3.22.52 4.53.87 1.47.4 4.24 1.26 8.3 2.6.19.05.2.14.06.24l-.12.08c-.16.12-.3.17-.4.14l-1.16-.27c-1.72-.4-2.93-.73-3.63-.99a84.68 84.68 0 0 0-8.71-2.71c-.33-.09-.34-.11-.02-.08h.02c0-.02.03-.02.05-.02l1.08.14ZM18 25.07l.01 12.44c0 .16.07.28.22.37l2.65 1.52a.4.4 0 0 0 .44 0 .4.4 0 0 0 .21-.37l-.01-14.59a.4.4 0 0 0-.16-.33.41.41 0 0 0-.38-.08l-2.65.62c-.22.05-.33.19-.33.42Z" fill="#235065"/></svg>