<!-- by TradingView --><svg width="56" height="56" viewBox="0 0 56 56" xmlns="http://www.w3.org/2000/svg"><path fill="#F0F3FA" d="M0 0h56v56H0z"/><path fill-rule="evenodd" d="M36.61 19a9.08 9.08 0 0 0-8.35 8.7h-.04a8.38 8.38 0 0 1-8.4-8.35 8.38 8.38 0 0 1 8.4-8.35 8.38 8.38 0 0 1 8.4 8Zm-6.06.35a2.32 2.32 0 0 1-2.33 2.32 2.32 2.32 0 0 1-2.33-2.32 2.32 2.32 0 0 1 2.33-2.31 2.32 2.32 0 0 1 2.33 2.31ZM36 36.5a8.5 8.5 0 1 1-17 0 8.5 8.5 0 0 1 17 0Zm-1.16 0a7.34 7.34 0 1 1-14.68 0 7.34 7.34 0 0 1 14.68 0ZM19.3 19.43A8.25 8.25 0 0 0 10 27.7a8.25 8.25 0 0 0 8.52 8.35 9 9 0 0 1 6.84-8.3 8.88 8.88 0 0 1-6.06-8.32Zm18.16 16.88c-.32 0-.64-.02-.95-.05a9 9 0 0 0-7.59-8.65c.19-4.45 3.94-8 8.54-8A8.45 8.45 0 0 1 46 27.96a8.45 8.45 0 0 1-8.55 8.35ZM41.5 28a4 4 0 1 1-8 0 4 4 0 0 1 8 0ZM21.48 39.9l1.34 1.63 2.54-5.08 2.3 3.46 2.43-3.46 2.24 5.08 1.32-1.78-3.13-7.47-2.66 4.33-2.6-4.33-3.78 7.63Z" fill="#262626"/></svg>