<!-- by TradingView --><svg width="56" height="56" viewBox="0 0 56 56" xmlns="http://www.w3.org/2000/svg"><path fill="#F0F3FA" d="M0 0h56v56H0z"/><path d="M44.28 15.93c-.43-.04-.85.24-1.24.86l-1.94 1.6c-.48.39-.87.73-1.16 1.04-.53.56-.84.98-.93 1.25-.7 2.25-1.3 4.36-1.83 6.32a.37.37 0 0 0 0 .19c.02.08.06.12.13.12.06 0 .1-.03.15-.1.22-.3.43-.6.62-.92.95-1.59 1.79-2.89 2.51-3.92.2-.28.54-.62 1.02-1.01a39.66 39.66 0 0 0-1.66 7.78c-.66.71-1.1 1.26-1.32 1.65-.49.86-.93 1.58-1.33 2.17a5.36 5.36 0 0 0-.77 2.65c0 .12-.05.33-.13.63-.05.16-.2.23-.49.2a3.7 3.7 0 0 0-2.1.09c-.32.13-.66.46-1.01.99-.21.31-.64.52-1.29.6l2-4.94c.08-.64.26-1.2.54-1.69l.83-1.27a.2.2 0 0 0 0-.24.2.2 0 0 0-.22-.1c-.97.2-2.53.62-3.64 1.19.12-.69-.17-.88 0-1.35.16-.45.05-.53-.33-.26-.36.26.04-.1-.71-.22-.1-.01-.15-.07-.15-.17.02-.34-.44-.91-.34-1.03.05-.08.13-.11.22-.11h1.56c.23 0 .37-.1.45-.32.27-.8.55-.75.69-1.41.07-.36-.03-.42-.31-.2l-.22.18a.37.37 0 0 1-.24.09l-2.98-.43c-.31 0-.5.15-.59.46l-1.6 6.14c-.03.14-.15.26-.34.33-.07.03-.15 0-.24-.1-.04-.05-.53-.48-.52-.54l1.34-7.44c.07-.28.25-.42.54-.42l5.16-.1c.4 0 .39.13.49-.26l.24-.65a.48.48 0 0 1 .1-.19.35.35 0 0 0 .07-.23.2.2 0 0 0-.14-.2c-.07-.03.29-.36.2-.36.44-.31.77-.74 1-1.28a.36.36 0 0 1 .14-.18l.38-.27c.14-.11.26-.26.35-.46a18 18 0 0 0 1.58-5.03 4.6 4.6 0 0 1 2.17-.57l4.15-.1c.6-.02 1.17-.14 1.72-.38.04-.02.08-.01.1.02.04.03.05.06.03.1l-.71 1.8Z" fill="#213D7B"/><path d="M36.82 15.06a18.01 18.01 0 0 1-1.58 5.03c-.1.2-.2.35-.35.46l-.38.27a.36.36 0 0 0-.15.18c-.22.54-.55.97-.99 1.28-.15.27-.3.42-.44.44-.47.07-1.17.08-2.09.02.14-.64.37-1.23.67-1.79.25-.43.78-.99 1.6-1.66l.45-.39a7.1 7.1 0 0 0 1.89-2.99l1.37-.85Z" fill="#274B8F"/><path d="M35.45 15.91a7.1 7.1 0 0 1-2.34 3.38 6.89 6.89 0 0 0-1.6 1.66c-.3.56-.53 1.15-.67 1.8l-2.17.02c-.03-1.61.62-3.29 1.95-5.02l.6-.01-.76 4.28v.04l.09.1c.02.03.05.04.09.03.03 0 .06-.03.07-.06.24-.88.63-1.67 1.17-2.37a19.84 19.84 0 0 1 2.31-2.36c.19-.18.5-.6.95-1.25l.3-.24Z" fill="#3C5C9E"/><path d="M44.28 15.93a13.14 13.14 0 0 0-2.37 4.43 6.16 6.16 0 0 0-2.3 1.87c-.03.02-.05.03-.09.02l-.08-.03c-.07-.02-.1-.08-.08-.16a5.75 5.75 0 0 1 1.09-2.45c.85-.95 1.71-1.89 2.59-2.82.4-.62.8-.9 1.24-.86ZM35.14 16.15a9.34 9.34 0 0 1-.95 1.25l-.44.41c-.9.86-1.53 1.51-1.87 1.95-.54.7-.93 1.49-1.17 2.37a.09.09 0 0 1-.07.06c-.04 0-.07 0-.1-.03l-.07-.1a.05.05 0 0 1-.01-.04l.76-4.28a5.6 5.6 0 0 0 2.12-.37c.46-.2 1.06-.6 1.8-1.22Z" fill="#6E81B5"/><path d="M43.04 16.8c-.88.92-1.74 1.86-2.6 2.81-.44.5-.8 1.32-1.08 2.45-.02.08 0 .14.08.16l.08.03c.04.01.06 0 .08-.02a6.16 6.16 0 0 1 2.31-1.87l-.3 1c-.48.4-.82.73-1.02 1.01a67.08 67.08 0 0 0-2.51 3.92c-.2.31-.4.62-.62.92-.04.07-.1.1-.15.1-.07 0-.1-.04-.13-.12a.37.37 0 0 1 0-.19c.52-1.96 1.13-4.07 1.83-6.32.09-.27.4-.69.93-1.25.3-.3.68-.65 1.16-1.05l1.94-1.59Z" fill="#3C5C9E"/><path d="M30.62 17.75c-1.33 1.73-1.98 3.4-1.95 5.02l-3-.02.26-1.66.9-2.49c.55-.6 1.15-.95 1.83-1.06.5-.08 1.15-.01 1.96.2Z" fill="#213D7B"/><path d="m26.83 18.6-.9 2.5-.5 1.42c-.02.08-.08.12-.17.12h-.5c-.11 0-.18-.06-.19-.17l-.44-3.34c-.03 0-.05-.04-.06-.13.63.05 1.05.07 1.27.07.42-.01.91-.17 1.49-.47Z" fill="#6E81B5"/><path d="M20.36 18.98c.4 1.34.49 2.72.26 4.13-.3 1.85-.82 3.7-1.58 5.58-.27.69-.75 1.59-1.43 2.7a20.39 20.39 0 0 0-1.46 2.69c-.92 2.52-2.03 4.43-3.33 5.72.19-.42.51-1.06.97-1.91l.78-1.5a81.12 81.12 0 0 1 3.05-6.1c.78-1.36 1.3-2.5 1.57-3.39.99-3.35 1.22-5.98.7-7.88l.47-.04Z" fill="#274B8F"/><path d="M24.07 19c0 .09.03.13.06.13a21.9 21.9 0 0 0-.14 2.8c0 .2.07.42.2.66.03.08.01.12-.07.13l-.69.06c-.42.96-.09.63-.17 1.41 0 .12.05.19.17.22a.2.2 0 0 0 .2-.07c.23-.26.63 0 .3.83-.26 1.32-.08 2.32.56 3-.41 1.6-.24 2.69-.68 4.37-.04.13-.11.31-.23.54-.09.16-.14.28-.18.37-.04.11 0 .16.11.16 1.4-.08 2.25-.26 4.04-.2.25 0 .43-.03.55-.08.18-.1.16-.65.23-.87.12-.35.64-.73.64.08-.11.67-.33 1.3-.64 1.9-.19.36-.3.64-.35.83-.1.38-.11.68-.05.9.18.66.34 1.37.48 2.11l-6.01-.07-.42-5.61c-.02-.3-.1-.31-.25-.06a8.07 8.07 0 0 0-.84 2.16c-.32 1.33-.61 2.66-.9 4a9.77 9.77 0 0 1-5.5 1.94c0-.18-.03-.3-.11-.4a.24.24 0 0 0-.23-.06l-1.76.32.43-.7c1.3-1.3 2.41-3.2 3.33-5.72.15-.44.64-1.33 1.46-2.69a20.15 20.15 0 0 0 1.43-2.7 25.97 25.97 0 0 0 1.58-5.58c.23-1.41.14-2.79-.26-4.13l3.71.02Z" fill="#213D7B"/><path d="M19.88 19.02c.53 1.9.3 4.53-.69 7.88-.26.9-.79 2.03-1.57 3.4a81.12 81.12 0 0 0-3.05 6.08c-.15.32-.4.82-.78 1.51-.46.85-.78 1.49-.97 1.91l-.43.7c-.1.07-.2.13-.32.17-.07.03-.1.06-.1.09 0 .04.03.1.1.14l-.95.1a.1.1 0 0 1-.1-.05.1.1 0 0 1 0-.12c.49-.7.92-1.42 1.31-2.18.07-.12.62-1.42 1.67-3.9.54-1.28 1.02-3.01 1.42-5.18a5.8 5.8 0 0 0 2.25-3.6c.2-1.04.38-2.64.55-4.82a13.4 13.4 0 0 0-.04-1.95l1.7-.18ZM25.93 21.1l-.25 1.65-2.25.03.69-.06c.08-.01.1-.05.06-.13a1.55 1.55 0 0 1-.19-.67c-.02-.75.03-1.68.14-2.79l.44 3.34c.01.11.08.17.19.17h.5c.09 0 .15-.04.18-.12l.49-1.43Z" fill="#3C5C9E"/><path d="M18.18 19.2v.03c.07.85.08 1.5.04 1.92a51.18 51.18 0 0 1-.55 4.83 5.8 5.8 0 0 1-2.25 3.59c.38-2.08.5-4.03.38-5.87-.07-1-.26-1.95-.56-2.87a.17.17 0 0 1 .05-.19 5.56 5.56 0 0 1 2.89-1.44Z" fill="#213D7B"/><path d="M24.5 28.17c-.65-.68-1.24-.5-.58-3.67l1.07-.02c.08 0 .14.03.19.1.05.06.62.13.6.2l-1.29 3.4Z" fill="#274B8F"/><path d="M39.95 29.14a15.7 15.7 0 0 1-.85 3.1 11.77 11.77 0 0 0-.69 2.09c-.1.73-.12 1.47-.06 2.24 0 .07-.02.13-.08.18a.2.2 0 0 1-.18.06l-2.18-.37c.28.03.44-.04.49-.2.08-.3.13-.5.13-.63.08-1.12.33-2 .77-2.65.4-.6.84-1.31 1.33-2.17.22-.39.66-.94 1.32-1.65Z" fill="#6E81B5"/><path d="M34.05 31.5c-.26-.48-.76-.5-1.5-.06l-1.42.82a5.93 5.93 0 0 0-2.63 3.25.22.22 0 0 0 .04.22c.04.07.11.1.2.1l2.25-.14c.1 0 .12.03.05.1l-2.28 2.44-.35.05c-.14-.74-.3-1.45-.48-2.1-.06-.23-.05-.53.05-.91.05-.2.16-.47.35-.83.31-.6.53-1.23.64-1.9l-.18-.64c.01-.19 0-.65.18-.65.53 0 1.04-.03 1.53-.07.36-.03.72.13.83-.25 1.11-.57 2.36-.86 3.33-1.05a.2.2 0 0 1 .22.1.2.2 0 0 1 0 .24l-.83 1.27Z" fill="#3C5C9E"/><path d="M34.05 31.5a4.24 4.24 0 0 0-.54 1.68 13.85 13.85 0 0 1-1.75 3.15c-.33.46-.63.97-.88 1.5a.25.25 0 0 0 .01.23c.06.11.17.16.32.14l-2.45.03 2.28-2.43c.07-.08.05-.11-.05-.1l-2.26.13a.21.21 0 0 1-.2-.1.22.22 0 0 1-.03-.22 5.93 5.93 0 0 1 2.63-3.25l1.41-.82c.75-.44 1.25-.42 1.51.05Z" fill="#6E81B5"/><path d="M22.4 38.2a5.2 5.2 0 0 0-2.4.5c.28-1.34.57-2.67.9-4 .18-.8.46-1.52.83-2.16.15-.25.23-.23.25.06l.42 5.6ZM33.51 33.18l-2 4.95a.88.88 0 0 1-.3.07c-.15.02-.26-.03-.32-.14a.25.25 0 0 1 0-.23c.24-.53.54-1.04.87-1.5a13.84 13.84 0 0 0 1.75-3.15Z" fill="#3C5C9E"/><path d="m14.48 40.64-2.42.26c-.06-.05-.1-.1-.1-.14 0-.03.04-.06.1-.09.12-.04.23-.1.33-.17l1.76-.32c.09-.02.16 0 .23.07.08.08.12.21.1.4Z" fill="#213D7B"/><path d="M33.37 22c.09 0 .17.01.24.04.1.04.14.1.14.2 0 .09-.02.16-.08.23a.49.49 0 0 0-.09.2l-.42 1.68c-.1.4-.35.65-.75.65h-4.27c-.29 0-.47.09-.54.38l-1.75 6.95c-.02.06 0 .11.04.16.09.1.17.13.24.1.2-.07.31-.19.35-.34l1.6-6.2c.07-.3.27-.46.58-.46h3.4c.1 0 .18-.03.25-.09l.22-.18c.28-.23.38-.16.31.2-.13.67-.34 1.4-.6 2.22-.08.21-.23.26-.45.26h-1.57c-.09 0-.16.1-.22.17-.1.12-.15.34-.17.68 0 .1.05.16.15.18.75.11 1.3.04 1.67-.23.37-.27.48-.18.32.27-.17.47-.31 1.06-.43 1.75-.12.39-.35.6-.72.63-.48.04-1 .07-1.53.07-.18 0-.28.1-.29.28l-.03.56-.34 1.05a.77.77 0 0 1-.39.48c-.12.06-.3.12-.55.11H22.9c-.11 0-.15-.05-.1-.16.03-.09.09-.2.17-.37.12-.23.2-.42.23-.55l1.28-4.97.75-2.75c.06-.22-.09-.2-.23-.2h-1.07c-.38 0-.67.03-.89.29a.2.2 0 0 1-.2.07c-.13-.03-.19-.1-.17-.22.08-.8.33-1.67.75-2.64l2.25-.03 2.99.03 2.17-.03c.92.05 1.62.04 2.09-.03.14-.02.29-.17.44-.44Z" fill="#EE1D23"/></svg>