<!-- by TradingView --><svg width="18" height="18" viewBox="0 0 18 18" xmlns="http://www.w3.org/2000/svg"><path fill="#F0F3FA" d="M0 0h18v18H0z"/><path d="m8.27 3.07.54 1.39c.09.19-.64.3-.63.1l.02-1.48c0-.1.03-.1.07 0ZM11.97 4.08l-.8 1.22c-.1.17-.57-.3-.4-.42l1.15-.84c.09-.06.1-.05.05.04ZM10.1 3.4l-.03 1.27c0 .17-.7.06-.6-.1l.56-1.18c.04-.08.06-.08.06.01ZM6.67 3.73l.86 1.14c.13.16-.68.34-.7.16L6.6 3.74c-.01-.1.02-.1.08-.01ZM5.1 4.7l1.44.76c.2.1-.27.68-.41.5L5.05 4.76c-.08-.09-.06-.1.04-.05ZM6.51 8.85a2.2 2.2 0 0 1-.05-2.8 2.81 2.81 0 0 1 2.88-.96c.36.08.7.24.97.45.29.2.52.47.69.76a2.6 2.6 0 0 0-1.43-.78 2.77 2.77 0 0 0-1.65.18c-.52.23-.93.61-1.18 1.08a2.14 2.14 0 0 0-.02 2c.1.2.01.34-.2.07Z" fill="#FECC00"/><path d="M11.83 10.56c-.36.4-.8.72-1.32.96a5.06 5.06 0 0 1-3.45.33 4.7 4.7 0 0 1-1.55-.7c-.45-.31-.82-.7-1.08-1.14A2.92 2.92 0 0 1 4.3 7.2c.22-.45.55-.86.98-1.2a2.9 2.9 0 0 0-.65 2.15c.1.75.5 1.46 1.14 2 .64.56 1.5.91 2.42 1.02a5 5 0 0 0 3.42-.84c.3-.22.58-.16.22.23Z" fill="#FECC00"/><path d="M13.56 7.37a4.43 4.43 0 0 1-1.17 5.36A5.17 5.17 0 0 1 8.54 14a5.39 5.39 0 0 1-2-.54 5.02 5.02 0 0 1-1.6-1.23A4.6 4.6 0 0 1 4 10.5c.5.9 1.32 1.62 2.32 2.04 1 .42 2.12.52 3.19.28a4.95 4.95 0 0 0 2.69-1.6 4.34 4.34 0 0 0 .94-3.8c-.09-.43.14-.66.42-.05Z" fill="#00A0E3"/></svg>