<!-- by TradingView --><svg width="56" height="56" viewBox="0 0 56 56" xmlns="http://www.w3.org/2000/svg"><path fill="#F0F3FA" d="M0 0h56v56H0z"/><path d="m39 26.58.03.07c.05.2.07.34.07.42 0 .14-.05.29-.15.44-.55.85-.9 1.34-1.04 1.47-.75.67-1.65 1-2.7 1-4.7.02-8.27.02-10.7.01-.2 0-.33-.1-.37-.3-.03-.13.04-.32.2-.55l.06-.08c1.5-2.26 2.75-4.09 3.72-5.5.1-.14.35-.29.76-.45.2-.08.5-.12.85-.1h10.22c.38 0 .7.06.94.2.3.16.43.41.36.75-.04.16-.14.37-.32.63l-.12.18c-.37.54-.68.91-.93 1.12-.21.17-.48.35-.8.54-.07.03-.09.08-.07.15Zm-3.05-.87a.3.3 0 0 0 .18-.07l.42-.31c.11-.08.15-.2.1-.32-.05-.13-.14-.2-.28-.2h-4.98a.3.3 0 0 0-.19.06l-.42.31c-.11.09-.15.2-.1.33.05.13.14.2.28.2h5Zm-1.02 2.01c.1-.09.11-.19.06-.3a.27.27 0 0 0-.26-.18H29.7a.28.28 0 0 0-.2.08l-.35.34c-.09.09-.1.19-.06.3.05.12.14.18.27.18h5.02c.08 0 .15-.03.2-.08l.35-.34Zm-17-2.44c-.19.23-.13.34.17.34 3.48 0 5.55 0 6.19.03.38.01.68.11.91.29.28.22.34.49.17.82-.13.26-.47.79-1.03 1.57-.4.56-.75.92-1.07 1.1-.72.37-1.51.56-2.39.57H10.61c-.65 0-.78-.26-.4-.76.08-.09.15-.2.22-.32.33-.52.81-.92 1.45-.92h8.21c.26 0 .47 0 .63-.2l.11-.14a.21.21 0 0 0 .03-.24.22.22 0 0 0-.21-.13c-1.88-.02-3.75-.03-5.6-.02-.6 0-1.05-.09-1.33-.27-.4-.25-.4-.64-.04-1.18l.81-1.2c.38-.53.73-.89 1.06-1.06A4.98 4.98 0 0 1 17.9 23a2804.22 2804.22 0 0 1 9.35 0c.4.05.51.2.36.45l-.08.14c-.33.57-.62.9-.87 1.01-.32.14-.53.2-.62.2H18.7a.8.8 0 0 0-.65.32l-.13.15ZM52 29.04V28H43.71c-.3 0-.61-.1-.4-.42.68-1.05 1.57-2.37 2.67-3.96.1-.14.13-.26.1-.35-.04-.18-.16-.27-.35-.27-1.54 0-2.35 0-2.43.02-.48.04-.83.18-1.04.44-.41.51-.83 1.11-1.26 1.8-.4.65-1.16 1.78-2.27 3.4-.3.45-.27.8.08 1.04.29.2.68.3 1.2.3h10.15c.48 0 .83-.06 1.06-.16.34-.17.6-.43.78-.8Z" fill="#124E91"/><path d="M5.44 30.68c.28-.02.56-.2.83-.52.38-.46.9-1.15 1.57-2.06 1.08-1.47 2.17-2.9 3.26-4.25a2.2 2.2 0 0 1 1.8-.85h.5c.58 0 .7.23.34.68-1.87 2.41-3.9 5.1-6.11 8.06-.1.11-.34.4-.75.84-.29.3-.66.45-1.12.42-.27-.02-.46-.1-.58-.26-.26-.33-.45-.7-.59-1.1-.33-1-.52-1.81-.58-2.45a3.77 3.77 0 0 1 0-.51 4 4 0 0 0 .78 1.8c.12.15.33.22.65.2Z" fill="#828282"/><path d="M4.07 27.12c.09.48.25.85.49 1.12.32.36.66.3 1.03-.18 1-1.28 2.05-2.66 3.16-4.14a1.3 1.3 0 0 1 1.1-.54h.49c.4 0 .48.15.23.47a65.08 65.08 0 0 0-2.16 2.79c-.65.93-1.33 1.84-2.02 2.7-.46.58-.86.84-1.2.77-.34-.06-.63-.5-.87-1.32A8.91 8.91 0 0 1 4 27.13l.03-.04c.02-.02.04-.01.04.03Z" fill="#124E91"/><path d="M4.52 26.99c.07.07.16.1.26.1.1-.01.18-.06.24-.13L7.1 24.3c.16-.2.37-.3.63-.3H8c.22 0 .26.08.13.25l-2.59 3.33c-.15.2-.3.34-.44.43a.31.31 0 0 1-.25.04.3.3 0 0 1-.2-.16 3.05 3.05 0 0 1-.4-1.1c0-.05.02-.06.06-.02l.21.22Z" fill="#985E85"/></svg>