<!-- by TradingView --><svg width="56" height="56" viewBox="0 0 56 56" xmlns="http://www.w3.org/2000/svg"><path fill="#140C45" d="M0 0h56v56H0z"/><path d="M28 26c-3.31 0-6 2.88-6 6.44v5.36c0 .66.56 1.2 1.17 1.2.62 0 1.33-.54 1.33-1.2v-5.36c0-2.23 1.42-4.05 3.5-4.05s3.5 1.82 3.5 4.05v5.36c0 .66.64 1.2 1.25 1.2.62 0 1.25-.54 1.25-1.2v-5.36c0-3.56-2.69-6.44-6-6.44Z" fill="#FA7501"/><path d="M15.53 38.92a6.5 6.5 0 1 1 1.14-.29v-2.78a4 4 0 1 0-1.67.61v-3.52l-1.1 1.08a.52.52 0 0 1-.75 0 .56.56 0 0 1 0-.77l2.04-2.1c.09-.1.21-.15.34-.15.26 0 .47.22.47.49v7.34l-.47.09Z" fill="#FCFCFC"/><path fill-rule="evenodd" d="M42.73 39c2.05 0 3.89-.88 5.12-2.27a.54.54 0 0 0 .11-.24c.22-.9-.54-1.77-1.46-1.73-.22 0-.4.05-.47.15a4.18 4.18 0 0 1-5.11 1.18l6.71-6.49c.24-.23.37-.53.37-.84 0-.25-.09-.5-.28-.7A6.97 6.97 0 0 0 42.73 26 6.62 6.62 0 0 0 36 32.5c0 3.59 3.02 6.5 6.73 6.5Zm-3.72-4.77 5.5-5.34a4.24 4.24 0 0 0-1.78-.38 4.07 4.07 0 0 0-4.13 3.99c0 .62.15 1.21.4 1.73Z" fill="#FA7501"/><path d="M9 21.95A2.96 2.96 0 0 1 12 19c1.02 0 1.95.49 2.5 1.23A3.12 3.12 0 0 1 17 19c1.67 0 3 1.32 3 2.95v2.45c0 .33-.16.6-.5.6-.34 0-.5-.27-.5-.6v-2.6c0-1-.98-1.8-2-1.8s-2 .8-2 1.8v2.65c0 .3-.19.55-.5.55s-.5-.25-.5-.55V21.8c0-1-.95-1.8-1.97-1.8S10 20.8 10 21.8v2.6c0 .33-.16.6-.5.6-.34 0-.5-.27-.5-.6v-2.45ZM37 18.7c0-.39.22-.7.5-.7s.5.31.5.7v5.6c0 .39-.22.7-.5.7s-.5-.31-.5-.7v-5.6Z" fill="#FA7501"/><circle cx="37.5" cy="16.5" r=".5" fill="#FA7501"/><path d="M34.5 16c-.28 0-.5.25-.5.55v3.21A3 3 0 1 0 35 22v-5.45c0-.3-.22-.55-.5-.55Zm-.5 6a2 2 0 1 1-4 0 2 2 0 0 1 4 0Z" fill="#FA7501"/><path fill-rule="evenodd" d="M46 22a3 3 0 1 0-1 2.24v.26a.5.5 0 0 0 1 0V22Zm-1 0a2 2 0 1 0-4 0 2 2 0 0 0 4 0ZM24.93 25a2.9 2.9 0 0 0 2.08-.88c.2-.2.17-.51-.03-.71-.26-.26-.7 0-.99.23a1.73 1.73 0 0 1-1.9.14c.95-.99 1.9-2.14 2.83-3.1.24-.24.27-.62.03-.86a2.9 2.9 0 0 0-2.02-.82A2.97 2.97 0 0 0 22 22c0 1.66 1.31 3 2.93 3Zm-1.53-2.01 2.53-2.7a1.9 1.9 0 0 0-1-.29c-1.1 0-1.93 1-1.93 2 0 .27.13.67.4.99Z" fill="#FA7501"/></svg>