<!-- by TradingView --><svg width="18" height="18" viewBox="0 0 18 18" xmlns="http://www.w3.org/2000/svg"><path fill="#F0F3FA" d="M0 0h18v18H0z"/><path fill-rule="evenodd" d="m8.58 4.96-.76-.68a.03.03 0 0 1 0-.02l.03-.24v-.01L7.88 4h1.19a.03.03 0 0 1 .02.01.03.03 0 0 1 0 .03l-.46.9a.03.03 0 0 1-.01.02.03.03 0 0 1-.03 0Zm2.76.08-.14.92s0 .02-.02.02l-.02.02H9.29L9.27 6l-.01.08a.13.13 0 0 1-.05.04.16.16 0 0 1-.13 0 .13.13 0 0 1-.05-.04l-.52-.62v-.04l.23-.39.03-.03A.1.1 0 0 1 8.82 5h2.5l.01.01.01.02v.01Zm-1.08 3.07v1.24l-2.63 3.63-.02.01-.03.01H6.35a.06.06 0 0 1-.04-.02L3.5 9.14a.06.06 0 0 1-.01-.03V8.06l.01-.04 2.7-3.6a.06.06 0 0 1 .04-.03l1.24-.06a.06.06 0 0 1 .05.03l2.71 3.72.01.03Zm-5.95.5 2.57-3.23a.04.04 0 0 1 .04-.02.05.05 0 0 1 .04.02L9.37 8.6a.04.04 0 0 1 0 .05l-2.43 3.42a.04.04 0 0 1-.04.02.05.05 0 0 1-.04-.02L4.3 8.67a.04.04 0 0 1 0-.06Zm7.7.14-.69-.38a.07.07 0 0 1-.03-.03.06.06 0 0 1-.01-.03V6.34h1.18a.04.04 0 0 1 .03 0 .03.03 0 0 1 0 .03v5.56l.01.02h1.65a.09.09 0 0 0 .06-.02l.17-.17c.22-.23.44-.45.58-.48h.02v.01l.02.01V13h-3.65a.04.04 0 0 1-.02-.02v-1.32a.07.07 0 0 1 .02-.06l.6-.75.02-.03v-.04c0-.04.02-.07.06-.08l.02-.02V10.1a.1.1 0 0 0 0-.04.77.77 0 0 1-.03-.46l.02-.8v-.03l-.02-.02ZM7.08 7.32v.26a.02.02 0 0 0 .02.02L9.05 8.7a.02.02 0 0 0 .03 0l.07-.12a.02.02 0 0 0 0-.03L7.63 6.73a.02.02 0 0 0-.02 0 .02.02 0 0 0-.01 0l-.54.58a.02.02 0 0 0 0 .01ZM11.85 9v1.5L9.9 13H8.6a.02.02 0 0 1-.02-.02v-.01L10.82 10a.02.02 0 0 0 0-.02l-.44-.65v-.02l.15-1.13v-.01a.02.02 0 0 1 .02 0h.01l1.3.8a.02.02 0 0 1 0 .02Zm1.6 2.67h.3l.01-.01.33-.64V11h-.01l-.01-.01H12.94v.02l.5.64Z"/></svg>