<!-- by TradingView --><svg width="18" height="18" viewBox="0 0 18 18" xmlns="http://www.w3.org/2000/svg"><path fill="#F0F3FA" d="M0 0h18v18H0z"/><path d="M8.72 12.4c.12.01.18.08.18.2V14l-.79-.07.38-1.39c.04-.11.11-.16.23-.14ZM9.34 12.39c.11-.02.18.03.21.13l.41 1.4a5 5 0 0 1-.05.01l-.58.07h-.15v-1.43c0-.1.05-.17.16-.18ZM8.12 12.23c.11.05.15.13.12.24l-.35 1.4-.8-.25.78-1.3c.06-.1.14-.13.25-.09ZM9.9 12.3c.15-.1.26-.08.31.02.24.44.49.87.75 1.3l-.07.02-.7.22-.37-1.38c-.02-.08 0-.14.08-.18ZM7.32 11.94c.09-.08.18-.09.27-.02.1.07.11.16.05.26l-.75 1.35-.74-.43 1.17-1.16ZM10.59 11.85c.04 0 .08 0 .1.04l1.21 1.2a5 5 0 0 1-.72.43l-.75-1.33a.15.15 0 0 1 0-.15l.06-.12a.12.12 0 0 1 .1-.07ZM6.89 11.43c.1-.06.19-.04.26.05.07.1.06.18-.02.27l-1.18 1.22-.67-.63 1.6-.9ZM10.9 11.49c.08-.1.17-.11.27-.05l1.57.89c-.2.22-.41.42-.64.6l-1.18-1.18c-.08-.08-.08-.17-.01-.26ZM6.6 10.85c.12-.04.2 0 .25.11.04.11.02.2-.09.26l-1.63.95-.53-.8 2-.52ZM13.77 7.49a5.05 5.05 0 0 1-.87 4.64l-1.59-.9c-.1-.07-.13-.15-.09-.26.05-.1.13-.15.24-.12l1.86.47c.08.02.11 0 .11-.08v-.06c0-.07-.03-.11-.1-.13l-1.8-.46c-.11-.02-.16-.1-.15-.21.02-.12.08-.18.2-.18h1.93c.06 0 .1-.03.11-.09l.03-.08c.01-.07-.01-.1-.08-.1h-1.98c-.12 0-.19-.06-.2-.18-.02-.12.03-.2.15-.22l2.2-.58a.18.18 0 0 0 .13-.14l.02-.04c0-.04 0-.06-.03-.09a.08.08 0 0 0-.08-.02l-2.31.61c-.12.03-.2-.01-.24-.12-.05-.1-.02-.19.08-.25l2.46-1.41ZM6.5 10.2c.11 0 .18.06.2.17 0 .12-.04.19-.15.22l-2.07.55a5 5 0 0 1-.31-.86l-.02-.06 2.35-.02ZM6.53 9.52c.12.03.17.1.16.23-.02.12-.09.18-.2.18l-2.4.01a5.04 5.04 0 0 1-.06-.38L4 9.06v-.22l2.53.68ZM6.76 8.9c.1.06.13.15.09.26-.05.1-.13.15-.24.12L4 8.6l.01-.1.18-.9c0-.05.02-.1.04-.14l2.52 1.45ZM13.13 6.16c.23.34.42.7.56 1.09l-2.52 1.44c-.1.06-.19.04-.26-.05-.07-.1-.06-.19.02-.27l2.2-2.2ZM4.9 6.12c.75.78 1.5 1.53 2.23 2.24.06.06.08.13.05.21a.2.2 0 0 1-.17.14c-.05.01-.13-.01-.21-.06-.81-.5-1.64-.97-2.47-1.43V7.2c.14-.38.33-.74.56-1.08ZM5.95 5.02l1.7 2.96c.02.04.03.08.01.13a.2.2 0 0 1-.14.13.2.2 0 0 1-.2-.05c-.72-.75-1.49-1.5-2.28-2.27l.02-.02.89-.88ZM12.1 5.05c.33.26.63.57.89.9-.75.72-1.46 1.44-2.15 2.18-.1.1-.21.13-.33.07a.2.2 0 0 1-.11-.12.2.2 0 0 1 .02-.16c.56-.93 1.12-1.9 1.67-2.87ZM10.82 4.31l.86.44a5 5 0 0 1 .21.15c-.56.94-1.12 1.89-1.65 2.83a.41.41 0 0 1-.11.14.19.19 0 0 1-.23 0 .19.19 0 0 1-.08-.22l.9-3.38.1.04ZM7.33 4.27c.3 1.11.6 2.22.93 3.33.04.13-.01.23-.16.29-.1.04-.18.01-.23-.08l-1.7-2.94 1.16-.6ZM10.36 4.16l.13.04-.94 3.4c-.03.11-.1.16-.2.14-.12-.01-.18-.08-.18-.18V4l1.19.16ZM8.9 4c0 1.17 0 2.34.02 3.5 0 .13-.07.2-.21.22-.11.01-.19-.03-.21-.14l-.92-3.4c.42-.13.87-.2 1.33-.18Z" fill="#21A63F"/></svg>