<!-- by TradingView --><svg width="56" height="56" viewBox="0 0 56 56" xmlns="http://www.w3.org/2000/svg"><path fill="#F0F3FA" d="M0 0h56v56H0z"/><path d="M22.7 37.78c.81-.41 0-.86-.52-1.03-2.04 0-5.62 1.54-5.62 5.14 0 3.6 3.58 3.08 5.62 3.08 2.05 0 3.58-1.54 6.14-1.54 2.56 0 5.11 1.54 6.14 1.54 1.02 0 2.04-.5 3.07-.5 1.02 0 1.53.5 2.04.5s1.53 0 2.05-1.54c.5-1.54.5-2.57 0-3.08-.52-.51 0-2.06-2.05-4.11-2.04-2.06-1.53-4.11-2.56-6.17-1.02-2.05-1.02-1.03-2.55-1.54-1.54-.51-2.05-2.57-2.05-3.08 0-.52-.51-1.03.51-1.55 1.03-.51 1.54-4.62 1.54-5.14 0-.5-1.03.52-1.54.52-.5 0-.5-1.03-.5-2.06s-1.03-3.08-3.08-3.08c-2.04 0-3.07 1.03-3.07 2.05 0 1.03 0 3.09-.5 3.6-.52.52-1.03-.51-1.54-.51s0 1.54 0 2.57c0 1.03 1.02 1.54 1.02 2.05 0 .52 0 1.55-1.02 1.55s-2.56-2.06-2.56-6.17c0-4.11 3.58-7.2 7.67-7.2 4.1 0 7.16 3.6 7.16 7.2s-1.53 5.14-2.04 6.17c-.51 1.02 2.04 2.05 2.55 2.05.52 0-.5-1.54 0-2.05.52-.52 1.03 0 1.54-.52.5-.51-.51-1.03-.51-1.54s1.53 0 1.53-1.03-1.02-1.54-1.02-2.05c0-.52 1.02-.52 1.02-1.03 0-.52-1.53-1.03-1.53-1.54 0-.52 1.02-.52 1.02-1.03s-1.53-.52-1.53-1.03 1.02-1.54.5-2.05c-.5-.52-1.02.5-1.53 0-.5-.52 0-1.03 0-1.55 0-.51-1.53.52-2.04 0-.51-.51 0-1.02-.51-1.54-.52-.51-1.03.52-1.54.52s0-1.03-.51-1.55c-.51-.51-1.02.52-1.53.52-.52 0-1.03-1.03-1.54-1.03s-.51 1.03-1.02 1.03-1.02-.52-1.54-.52c-.5 0-.5 1.03-1.02 1.55-.51.51-1.53-.52-2.04 0-.52.51 0 1.02-.52 1.54-.5.51-1.02-.52-1.53 0-.51.51.51 1.03 0 1.54s-.51 0-1.02.51c-.51.52 0 .52 0 1.03 0 .52-.51 1.03-1.03 1.03-.5 0-.5.51 0 1.03.52.51 0 1.02-.5 1.54-.52.51-1.03-1.03-2.05-1.03-1.03 0-2.56 2.57-2.56 4.11 0 1.54 0 2.06 1.02 3.6 1.03 1.54 1.54 2.06 3.58 6.17 1.64 3.29 3.75 3.77 4.6 3.6.52-5.15 3.59-5.66 5.12-5.66 1.53 0 3.07.51 3.07 2.57 0 2.06-1.54 2.57-2.56 2.57s-1.02-.51-2.56-.51c-1.53 0-2.55 2.05-2.55 2.57 0 .51 0 1.54 1.53 1.02 1.54-.51 3.07 0 6.14 0s4.09 1.55 3.58 2.57c-.51 1.03-7.16-.51-9.72-.51-2.56 0-3.58 1.54-4.09 1.54-.51 0-2.05 0-2.05-1.54s2.56-2.06 3.58-2.57Z" fill="#FFBA00"/></svg>