<!-- by TradingView --><svg width="56" height="56" viewBox="0 0 56 56" xmlns="http://www.w3.org/2000/svg"><path fill="#F0F3FA" d="M0 0h56v56H0z"/><path d="M27.68 11h.62c4.07.13 7.58 1.43 10.55 3.92a17.44 17.44 0 0 1 4.94 6.78 16.79 16.79 0 0 1 1.09 8.32 16.9 16.9 0 0 1-4.7 9.82A16.96 16.96 0 0 1 28.28 45h-.62a16.79 16.79 0 0 1-10.74-4.09A16.8 16.8 0 0 1 11 29.08V26.9a16.93 16.93 0 0 1 8.08-13.37c2.27-1.4 4.77-2.2 7.49-2.44l1.11-.09Zm-1.88 1.51.64-.31 1.08-.52c.25-.1.24-.15-.03-.14-4.84.24-8.88 2.2-12.12 5.88-.06.07-.05.1.04.05a1739.56 1739.56 0 0 1 10.39-4.96Zm2.22-.44L15.64 18a.18.18 0 0 0-.1.12l-3.02 13.2c-.02.07 0 .14.05.2L21 42.08c.06.08.13.11.22.1l4.8-.04 2 .08L28 43h-6.86c-.09 0-.09.02 0 .06a15.5 15.5 0 0 0 8.1 1.34 16.4 16.4 0 0 0 9.79-4.22 16.37 16.37 0 0 0 5-8.48l.04-.22a16.28 16.28 0 0 0-3.1-13.58l-.28-.33a16.15 16.15 0 0 0-5.6-4.4 16.51 16.51 0 0 0-6.95-1.62c-.12-.05-.16.12-.13.52ZM11.91 31.35l3.07-13.4v-.02h-.02a16.53 16.53 0 0 0-3.1 13.42c.02.07.03.07.05 0Zm8.25 11.12c.17.1.35.19.54.27.05.02.06 0 .02-.03l-8.64-10.8c-.1-.12-.13-.1-.09.04a16.59 16.59 0 0 0 8.17 10.52Z" fill="#231F20"/><path d="m28.15 11.55 12.55 6.02.28.34 3.1 13.57-.03.22-8.77 11.13c-.07.08-.15.17-.25.17H28l.02-.78a14.5 14.5 0 0 0 2.9-.48c.91-.25 1.73-.67 2.44-1.26a7.56 7.56 0 0 0 2.47-4.02c.13-.6.2-1.27.18-2 0-.42-.08-.87-.23-1.35a9.53 9.53 0 0 0-2.4-3.73c-.46-.47-1.02-.96-1.68-1.48-.39-.32-1-.77-1.8-1.37l-1.16-.85A8.68 8.68 0 0 1 28 25V18c.9 0 1.54.69 1.83 1.73.24.84.13 2.33.03 3.2 0 .05.02.07.08.07h5.5c.07 0 .1-.03.11-.1.15-1.44.16-3.34-.19-4.49C34.27 14.76 31.28 14.1 28 14v-1.93c-.03-.4.03-.57.15-.52Z" fill="#EC1C24"/><path d="M28.02 12.07 28 14c-3.1 0-6.18 1.02-7.44 4.08a9.6 9.6 0 0 0-.56 3.23c-.12 2.63 1.5 4.87 3.22 6.68.75.79 1.37 1.37 1.86 1.76 1.05.82 1.98 1.65 2.92 2.48v5.3c-2.33.64-2.62-2.8-2.35-4.46.01-.05-.07-.08-.13-.08h-5.37c-.05 0-.15.03-.15.09-.1 3.7 1.2 6.9 3.88 8.27.57.3 1.3.56 2.16.8l-4.81.04a.26.26 0 0 1-.22-.1l-8.44-10.56a.22.22 0 0 1-.05-.2l3.02-13.2c.01-.05.05-.1.1-.12l12.38-5.94Z" fill="#6D6E70"/><path d="M28 18v7a8.4 8.4 0 0 1-1.58-1.65 5.63 5.63 0 0 1-.95-2.05 2.95 2.95 0 0 1 .45-2.3c.23-.33.52-.58.86-.76A4.29 4.29 0 0 1 28 18Z" fill="#6D6E70"/><path d="M33 22a1 1 0 1 0 0-2 1 1 0 0 0 0 2ZM28 32.23c1.22.9 1.89 1.91 1.99 3.02.05.57-.1 1.05-.46 1.46-.35.4-.86.67-1.53.82v-5.3ZM22.3 36.47v-.7c0-.03-.02-.05-.05-.05h-1.2c-.04 0-.05 0-.05-.04v-1.64c0-.03.02-.04.04-.04h.42c.03 0 .04.02.04.05v1.19c0 .02.01.04.04.04h.71c.03 0 .04-.02.04-.04v-1.2c0-.02.01-.04.04-.04h1.63c.03 0 .04.02.04.05v.37c0 .03-.02.05-.05.05l-1.17-.01c-.02 0-.04.01-.04.04v.74c0 .02.02.04.04.04h1.17c.03 0 .05.01.05.04v1.64c0 .03-.02.04-.05.04h-.38c-.02 0-.04-.02-.04-.05v-1.19c0-.02 0-.04-.04-.04h-.7c-.03 0-.05.02-.05.04v1.2c0 .02 0 .04-.04.04h-1.66c-.03 0-.04-.02-.04-.04v-.42c0-.02.02-.04.05-.04h1.2c.03 0 .04 0 .04-.03Z" fill="#EC1C24"/></svg>