<!-- by TradingView --><svg width="56" height="56" viewBox="0 0 56 56" xmlns="http://www.w3.org/2000/svg"><path fill="#28323A" d="M0 0h56v56H0z"/><path d="M4 26h1v.49a1 1 0 0 1 .85-.49H7c.55 0 1 .47 1 1.04v.92C8 28.53 7.56 29 7 29H5.85a1 1 0 0 1-.85-.49V30H4v-4Zm1.52.75c-.29 0-.52.29-.52.65v.3c0 .36.23.65.52.65h.96c.29 0 .52-.29.52-.64v-.31c0-.36-.23-.65-.52-.65h-.96ZM36.5 26h1v.3a.8.8 0 0 1 .61-.3h1.01c.48 0 .88.47.88 1.05v.93c0 .58-.4 1.05-.88 1.05h-1a.8.8 0 0 1-.62-.3V30h-1v-4Zm1.39.75c-.22 0-.39.29-.39.65v.3c0 .36.17.65.39.65h.72c.22 0 .39-.29.39-.64v-.31c0-.36-.17-.65-.39-.65h-.72Z" fill="#fff"/><path fill-rule="evenodd" d="M9.16 26c-.36 0-.66.3-.66.66v1.68c0 .37.3.66.66.66h2.68c.36 0 .66-.3.66-.66v-1.68c0-.37-.3-.66-.66-.66H9.16Zm.62.62c-.15 0-.28.15-.28.33v1.1c0 .18.13.33.28.33h1.44c.15 0 .28-.15.28-.33v-1.1c0-.18-.13-.33-.28-.33H9.78Z" fill="#fff"/><path d="M29 26.66c0-.37.26-.66.58-.66h2.34c.32 0 .58.3.58.66V27h-1v-.05c0-.18-.1-.33-.21-.33H30.2c-.11 0-.21.15-.21.33v1.1c0 .18.1.33.21.33h1.08c.11 0 .21-.15.21-.33V28h1v.34c0 .37-.26.66-.58.66h-2.34c-.32 0-.58-.3-.58-.66v-1.68Z" fill="#fff"/><path fill-rule="evenodd" d="M25.16 26c-.36 0-.66.3-.66.66v1.68c0 .37.3.66.66.66h2.68c.36 0 .66-.3.66-.66v-.4h-.83v.1c0 .19-.15.34-.33.34h-1.68a.33.33 0 0 1-.33-.33v-.43h3.17v-.96c0-.37-.3-.66-.66-.66h-2.68Zm2.51 1.16v-.2a.33.33 0 0 0-.33-.34h-1.68a.33.33 0 0 0-.33.33v.21h2.34Z" fill="#fff"/><path fill="#fff" d="M13 25h1v4h-1zM40 25h1v4h-1zM15.88 29.01 14.12 26h1.1l.97 2.2.76-2.2h.93l-1.28 3c-.37.7-.76.96-.91 1h-.89v-.67h.5a.7.7 0 0 0 .58-.32ZM18 26h1v.32c.18-.17.42-.32.72-.32h.83c.34 0 .64.2.8.49.17-.22.48-.49.88-.49h.82c.53 0 .95.46.95 1.02V29h-1v-1.69c0-.38-.16-.68-.5-.68h-.57c-.1.01-.3.08-.44.28V29h-.88v-1.69c0-.38-.28-.68-.63-.68h-.56a.67.67 0 0 0-.42.25V29h-1v-3ZM34 25h-1v4h1v-2.27c.08-.06.17-.1.22-.1h.49c.29 0 .29.3.29.66V29h1v-1.98c0-.56-.36-1.02-.81-1.02h-.7a.77.77 0 0 0-.49.18V25Z"/><path fill-rule="evenodd" d="m41.71 26.6.87.16c.01-.09.1-.26.33-.26h.9c.17 0 .19.15.19.33v.43c-.17-.1-.42-.18-.72-.18h-.95c-.46 0-.83.42-.83.95 0 .52.37.95.83.95h1.19c.12-.04.3-.11.48-.21V29h1v-2c0-.55-.4-1-.88-1H42.4c-.2.02-.62.17-.69.6ZM44 28.25v-.6h-1.3c-.15 0-.27.13-.27.3 0 .17.12.3.27.3H44Z" fill="#fff"/><path d="m47.75 26.9.68-.3c-.13-.38-.4-.59-.56-.6H46.1c-.3 0-.52.3-.52.67v.4c0 .38.23.68.52.68h1.6c.13 0 .23.13.23.3 0 .16-.1.3-.23.3h-1.2c-.13 0-.24-.14-.24-.31h-.76v.29c0 .37.23.67.52.67h1.96c.29 0 .52-.3.52-.67v-.54c0-.37-.23-.67-.52-.67h-1.64c-.13 0-.23-.13-.23-.3 0-.16.1-.22.23-.22h1.12c.21 0 .28.2.29.3ZM49.5 27v.89c0 .61.38 1.11.84 1.11h.82c.46 0 .84-.5.84-1.11v-.32h-.73v.14c0 .34-.2.6-.46.6-.25 0-.31-.26-.31-.6V27h1v-1h-1v-1h-1v1H49v1h.5Z" fill="#fff"/><path d="m17 25 .96-1.56a.93.93 0 0 1 .79-.44h17.32c.51 0 .93.43.93.96V25h-1v-1H19l-.63 1H17Zm0 5v1.43c0 .31.35.57.7.57H36.4c.35 0 .61-.26.61-.57v-.83h-1v.4H19v-1h-2Z" fill="#34AF36"/><path d="M20.3 20.03a1.18 1.18 0 0 1-.04-.4.3.3 0 0 1 .05-.16c.02-.03.05-.05.1-.05.12 0 .23.08.32.2.1.11.17.25.2.35l.15-.05a1.4 1.4 0 0 0-.22-.4c-.1-.12-.26-.25-.44-.25-.1 0-.18.04-.23.11a.45.45 0 0 0-.09.22c-.02.16 0 .35.04.47l.15-.04Zm.67.33c.1 0 .24 0 .25.3v.08c.01.36.02.7.48.7.5 0 .88-.66.47-.87a56.3 56.3 0 0 0-.8-.4l-.47.19h.07Z" fill="#D5413F"/><path fill-rule="evenodd" d="M19.05 20.27c.05-.2-.01-.49-.6-.49h-2.92l-.6-.55h4.05c.17.03.52.17.52.55 0 .3-.16.48-.29.57a.8.8 0 0 0-.16-.08Zm-.25-.06c0-.14-.15-.2-.24-.21h-3.17l-1.03-1h4.62c.6 0 .76.46.76.7 0 .4-.22.66-.4.78.03.04.04.08.04.12l.8-.6 1.05-.12-1.35 1.54c-.3.26-1.05.84-1.62 1.06v-.52h.22c.12 0 .22-.1.22-.21 0-.12-.1-.2-.22-.2h-3.25l-1.31-1.27V20a.8.8 0 0 0 .47.17h4.1c.09 0 .2 0 .31.03Zm-.15.26h-4.14l.82.76h3.14c.54 0 .51.41.44.62a6.07 6.07 0 0 0 1.64-1.6h-.34l-.93.8c-.04-.44-.43-.57-.63-.58Z" fill="#fff"/></svg>