<!-- by TradingView --><svg width="56" height="56" viewBox="0 0 56 56" xmlns="http://www.w3.org/2000/svg"><path fill="#F0F3FA" d="M0 0h56v56H0z"/><path d="m35.92 27.88-1.79 2.69c-.07.1-.15.1-.23 0l-.38-.57-1.28-2.07c-.03-.06-.06-.05-.08 0l-.88 3.03c0 .02-.02.03-.03.03h-.04l-1.77-.65a.06.06 0 0 1-.04-.04v-.05l2.42-6.13.02-.03c.1-.11.2-.12.26-.02a4321.83 4321.83 0 0 1 2.08 3.4c.02 0 .03 0 .04-.02l1.98-3.26a.13.13 0 0 1 .13-.07c.05 0 .1.03.11.08l2.64 5.93c.01.02 0 .03-.02.04l-1.8.82h-.06a.07.07 0 0 1-.04-.04L36 27.89c-.02-.06-.05-.06-.08-.01Z" fill="#029AFF"/><path d="M7 29.4v1.51c0 .06 0 .09-.05.09H5.07c-.05 0-.07-.03-.07-.08V24.1c0-.05.03-.08.07-.08 1.14-.05 2.18 0 3.11.13.38.05.74.17 1.1.36a1.88 1.88 0 0 1 1 1.31 2.49 2.49 0 0 1-.33 1.68c-.3.48-.71.88-1.23 1.18-.47.28-1 .47-1.6.59-.06.01-.12.05-.12.13Zm1.05-2.37c.21-.43.2-.81-.05-1.15-.17-.24-.47-.37-.9-.4-.04-.01-.1.01-.1.06v2.18c0 .06.06.08.1.06.45-.12.76-.37.95-.75Z"/><path d="m44.02 29.86-2.18.1a.12.12 0 0 0-.1.07l-.45.9c-.03.06-.08.07-.15.04l-1.53-.77a.08.08 0 0 1-.04-.05l.01-.06c1.01-1.65 2.08-3.31 3.19-5a.2.2 0 0 1 .18-.09.2.2 0 0 1 .19.1l3.4 4.92c.01.01.02.03.01.05l-.02.03-1.64.9c-.04 0-.06 0-.08-.03l-.65-1.04a.14.14 0 0 0-.14-.07Zm-1.07-2.22a.04.04 0 0 0-.03-.02c-.02 0-.03.01-.03.02l-.54 1.03v.04l.03.01 1.08-.04c.01 0 .02 0 .03-.02v-.03l-.54-.99Z" fill="#029AFF"/><path d="M26.1 27.14c.01.06.03.06.06 0a3.71 3.71 0 0 1 2.41-2.13c.05-.02.08 0 .1.05l.49 1.78a.1.1 0 0 1-.01.08.1.1 0 0 1-.07.05c-.71.15-1.24.48-1.57.98A3.13 3.13 0 0 0 27 29.8v1.12c0 .05-.02.08-.07.08h-1.86c-.05 0-.07-.03-.07-.08V29.53c-.01-.4-.01-.73-.1-1A2.14 2.14 0 0 0 23.2 27c-.08-.01-.1-.06-.07-.13l.6-1.78c.02-.04.05-.05.09-.04.57.17 1.04.41 1.4.73.41.35.7.81.89 1.37Z"/><path d="M47.3 27.4c.36-.65.93-1.2 1.72-1.63a6.92 6.92 0 0 1 2.3-.77c.04 0 .07.01.07.05l.38 1.56c0 .04 0 .05-.04.06-.61.08-1.17.25-1.65.53a1.77 1.77 0 0 0-.7.71c-.15.34-.12.65.1.92.23.26.6.43 1.11.49.32.04.74.03 1.24-.01.06 0 .09.02.1.07l.07 1.47c0 .06-.02.08-.07.09a8.09 8.09 0 0 1-2.73-.14c-1.07-.28-1.77-.8-2.07-1.59a2.09 2.09 0 0 1 .18-1.8Z" fill="#029AFF"/><path d="M12.48 30.6c-1.25-.72-1.71-1.78-1.37-3.18.16-.7.55-1.26 1.14-1.7a3.8 3.8 0 0 1 1.95-.7c.45-.04.87-.03 1.27.03.43.07.8.19 1.14.36a2.5 2.5 0 0 1 1.35 1.97 3.06 3.06 0 0 1-.54 2.24c-.22.3-.5.57-.83.78-.34.22-.7.37-1.1.46-.5.12-1 .16-1.53.13-.6-.04-1.1-.17-1.48-.4Zm3.23-2.17c.07-.42.07-.8-.02-1.14-.11-.43-.33-.7-.66-.82a1.15 1.15 0 0 0-1.15.14 1.4 1.4 0 0 0-.39.44c-.1.19-.18.38-.21.6a2.67 2.67 0 0 0 .08 1.2c.16.43.44.67.83.74.4.06.73-.01 1.01-.23.26-.22.43-.53.5-.93ZM21.08 29.35l1.74-.04c.03 0 .05.01.05.05v1.59c0 .03-.02.05-.05.05h-3.68c-.03 0-.14-.02-.14-.05v-5.9c0-.03.02-.05.05-.05h1.89c.03 0 .06.02.06.05v4.25c0 .04.04.05.08.05Z"/></svg>