<!-- by TradingView --><svg width="56" height="56" viewBox="0 0 56 56" xmlns="http://www.w3.org/2000/svg"><path fill="#F0F3FA" d="M0 0h56v56H0z"/><path d="m35.44 17.8 3.31.8.06.04.04.05a.15.15 0 0 1 0 .13l-10.2 20.1a.15.15 0 0 1-.13.08H24.8c-.03 0-.05 0-.08-.02a.15.15 0 0 1-.05-.05.15.15 0 0 1-.02-.07c0-.03 0-.05.02-.08l10.6-20.9a.14.14 0 0 1 .17-.08Zm7.5 2.75c.05.01.1.03.14.06 2.93 2.06 5.2 4.19 4.9 8.2-.38 4.76-6.1 7.63-9.77 8.71-2.02.6-3.53 1.06-4.52 1.4a.19.19 0 0 1-.2-.06.2.2 0 0 1-.03-.22l9.08-17.9a.37.37 0 0 1 .4-.2ZM30.87 17c.02 0 .04 0 .06.02a.13.13 0 0 1 .06.1l-.01.07-10.71 21.1a.13.13 0 0 1-.15.08l-2.65-.64a.13.13 0 0 1-.1-.13c0-.02 0-.04.02-.06l10.04-20.47a.13.13 0 0 1 .11-.07h3.33Zm-8.15.12c.03.01.05.03.07.06.02.02.02.05.02.08s0 .06-.03.09c-.58.81-1.02 1.55-1.32 2.21a508.74 508.74 0 0 1-7.57 15.92.5.5 0 0 1-.33.26.5.5 0 0 1-.42-.08c-3.23-2.34-6.1-5.12-4.83-9.47.97-3.3 4.7-5.96 7.92-7.16a53.99 53.99 0 0 1 6.49-1.91Z" fill="#1F6758"/></svg>