<!-- by TradingView --><svg width="56" height="56" viewBox="0 0 56 56" xmlns="http://www.w3.org/2000/svg"><path fill="#F0F3FA" d="M0 0h56v56H0z"/><path d="M34 30.73a49.45 49.45 0 0 0-.35 3.46c-1.5.43-3 .81-4.56.81-4.05 0-7.09-2.82-7.09-6.86A6.9 6.9 0 0 1 29.11 21c1.2 0 2.53.24 3.68.54.2.05.4.08.6.08h.22l.2-.04c.05 1.13.09 2.07.19 3.38-.26.04-.48.05-.66.04-.5-2.33-1.98-3.38-4.13-3.38-3.43 0-4.71 3.34-4.71 6.33 0 3.08 1.36 6.05 4.84 6.05 2.26 0 3.45-1.08 3.98-3.29.22 0 .43 0 .68.02ZM47 30.73a49.45 49.45 0 0 0-.35 3.46c-1.5.43-3 .81-4.56.81-4.05 0-7.09-2.82-7.09-6.86A6.9 6.9 0 0 1 42.11 21c1.2 0 2.53.24 3.68.54.2.05.4.08.6.08h.22l.2-.04c.05 1.13.09 2.07.19 3.38-.26.04-.48.05-.66.04-.5-2.33-1.98-3.38-4.13-3.38-3.43 0-4.71 3.34-4.71 6.33 0 3.08 1.36 6.05 4.84 6.05 2.26 0 3.45-1.08 3.98-3.29.22 0 .43 0 .68.02ZM11.59 35v-.64c.48-.05 2.1.04 2.31-.57.07-.2.1-.54.1-1.02V22h-1.43c-1.47 0-2.28.88-2.94 2.52-.2.03-.42.03-.63 0 .16-1.27.31-2.43.42-3.52h11.22c.1 1.05.2 2.24.36 3.52a2.7 2.7 0 0 1-.65 0C19.67 22.9 19.28 22 17.4 22H16v10.51c0 .41.01.74.04.98.1.9 1.69.82 2.37.87V35h-6.82Z" fill="#010022"/></svg>