<!-- by TradingView --><svg width="56" height="56" viewBox="0 0 56 56" xmlns="http://www.w3.org/2000/svg"><path fill="#F0F3FA" d="M0 0h56v56H0z"/><path d="m27.88 44.5-.07.5c-.83.06-2.35-.45-3.1-.7-3.52-1.08-7.24-3.31-8.9-6.71-1.37-2.79-.85-5.1.48-7.77 3.48-6.99 12.34-13.59 19.2-16.4 2.14-.89 6.36-.52 6.5 2.62.14 3.03-1.59 5.72-3.45 8.05a46.85 46.85 0 0 1-3.95 4.44c-2.5 2.4-4.92 4.62-6.53 7.53a7.58 7.58 0 0 0-.95 4.7c.15 1.2.58 2.45.77 3.74Z" fill="#005BF9"/><path d="m27.78 44.16.14.66a.15.15 0 0 1-.05.15.14.14 0 0 1-.15.01l-.62-.33c-2.99-2.29-5.7-5.55-6.07-9.45-.38-4.02 2.9-7.08 6.24-8.62 1-.46 2.85-1.06 3.62.06.05.07.09.16.1.26a.77.77 0 0 1-.39.77c-2.54 1.45-4.52 3.3-5.25 6.13-.85 3.29.63 7.42 2.43 10.36Z" fill="#FF6421"/></svg>