<!-- by TradingView --><svg width="56" height="56" viewBox="0 0 56 56" xmlns="http://www.w3.org/2000/svg"><path fill="#31245A" d="M0 0h56v56H0z"/><path d="M12.78 25.47c.62-.4 1.35-.54 2.17-.44a2.4 2.4 0 0 1 1.55.84c.34.38.5.95.5 1.69a1051.6 1051.6 0 0 0-.02 4.25.06.06 0 0 1-.04.02h-1.18l-.05-.02a.07.07 0 0 1-.01-.05v-.6h-.01l-.02-.01a2.6 2.6 0 0 1-1.55.81c-.7.1-1.3 0-1.82-.34-.57-.38-.84-.94-.8-1.7.06-1.08.73-1.73 2-1.97a101.76 101.76 0 0 1 2.12-.38.08.08 0 0 0 .02-.04c0-.53-.16-.89-.48-1.09-.39-.25-.8-.3-1.25-.14-.43.16-.75.45-.94.9a.1.1 0 0 1-.05.04h-.07l-1.03-.55a.05.05 0 0 1-.03-.03v-.04c.21-.49.54-.87.99-1.15Zm7.55-.36c.37-.12.78-.14 1.23-.07.58.09 1.06.38 1.42.86.35.47.52 1.04.52 1.7a432.45 432.45 0 0 0-.02 4.38.06.06 0 0 1-.04.02h-1.27l-.02-.02v-.02l-.01-.02v-3.57c0-.93-.2-1.54-.64-1.8a1.36 1.36 0 0 0-1.99.6c-.08.2-.12.49-.12.88a473.52 473.52 0 0 0-.02 3.94H18a.06.06 0 0 1-.01-.04v-6.78l.01-.02.02-.01h1.23c.01 0 .02 0 .03.02l.02.04v.67l.01.01h.02c.26-.39.59-.64 1-.77Zm7.03-.04c1.02-.23 1.84.1 2.44.98l.01.01h.03A2.05 2.05 0 0 1 31.76 25c.32.01.58.06.77.14.68.3 1.13.83 1.36 1.57.1.29.13.87.12 1.74a196.48 196.48 0 0 0-.01 3.53l-.02.02H32.7l-.01-.02-.01-.02v-.02l-.01-4.2c-.02-.56-.24-.97-.65-1.23-.42-.26-.84-.24-1.28.05-.2.14-.37.38-.5.7-.06.2-.1.5-.1.91a982.66 982.66 0 0 1-.01 3.81.05.05 0 0 1-.04.02h-1.2s-.02 0-.03-.02a386.93 386.93 0 0 1-.02-4.05c0-.5-.14-.92-.43-1.24-.16-.18-.38-.29-.64-.33-.26-.04-.5 0-.72.12-.3.16-.52.42-.64.78-.07.22-.1.58-.1 1.07a356.71 356.71 0 0 1-.01 3.65l-.04.02h-1.22a.06.06 0 0 1-.04-.04V25.15h1.24l.01.03v.71h.01c.28-.44.65-.71 1.1-.82ZM36.3 25c.02 0 .03.02.03.04v6.92c0 .02-.02.04-.03.04h-1.27c-.01 0-.03-.02-.03-.04v-6.92c0-.02.02-.04.03-.04h1.27Zm3.7-1.99c.02.01 0 .03 0 .04v1.9l.04.03.02.01h1.32a.05.05 0 0 1 .05.05v1.12l-.02.04a.05.05 0 0 1-.04.02h-1.32a.06.06 0 0 0-.03.03l-.02.03v2.99c0 .55.05.9.13 1.04.11.23.3.37.55.42a2.9 2.9 0 0 0 .78.02.05.05 0 0 1 .02.02v1.12l-.04.02c-.62.15-1.17.11-1.65-.1a1.8 1.8 0 0 1-1.03-1.28 3.6 3.6 0 0 1-.07-.82 2976.02 2976.02 0 0 0 0-3.48.05.05 0 0 0-.04-.01h-1s-.02 0-.03-.02a.06.06 0 0 1-.02-.04v-1.1c0-.02 0-.03.02-.04a.05.05 0 0 1 .03-.02h.07c.43-.03.98-.53.98-1a242.35 242.35 0 0 1 .01-.98.06.06 0 0 1 .04-.02h1.23l.03.01Zm4.32 2.84c.35-.65 1-.92 1.94-.83.01 0 .03 0 .03.02l.02.04v1.23l-.01.04-.03.01h-.44c-.68 0-1.14.3-1.37.88-.1.24-.14.68-.13 1.32a222.63 222.63 0 0 1-.01 3.42.05.05 0 0 1-.04.02h-1.25a.06.06 0 0 1-.03-.04V25.17c0-.02 0-.03.02-.04a.05.05 0 0 1 .03-.02h1.2a.05.05 0 0 1 .03.03V25.85h.04Zm3.45-.38a3.2 3.2 0 0 1 2.18-.44 2.4 2.4 0 0 1 1.55.84c.33.38.5.94.5 1.69v4.36c0 .03-.03.06-.06.06h-1.18c-.03 0-.06-.04-.06-.07v-.75l-.01-.01h-.02a2.6 2.6 0 0 1-1.55.81c-.7.1-1.3 0-1.81-.34-.58-.38-.85-.94-.8-1.69.05-1.08.72-1.74 2-1.97a96.18 96.18 0 0 1 2.11-.39.07.07 0 0 0 .02-.04c0-.53-.16-.89-.48-1.09-.4-.25-.8-.3-1.25-.14-.43.16-.75.46-.94.9a.09.09 0 0 1-.05.05h-.04l-.03-.01-1.03-.55a.05.05 0 0 1-.03-.03v-.04c.21-.48.54-.87.98-1.15ZM6.63 23.04c.8-.11 1.52.02 2.2.4a3 3 0 0 1 1.44 1.72l-.01.02-1.09.46a.06.06 0 0 1-.04 0h-.02v-.02c-.45-1.03-1.22-1.48-2.34-1.36-.09 0-.23.06-.42.15-.49.22-.69.64-.6 1.23.08.47.4.8.96.98l1.77.57c1.13.36 1.75 1.05 1.84 2.05a2.3 2.3 0 0 1-.49 1.7c-.37.47-.87.78-1.51.94-.82.2-1.6.14-2.35-.17a3.46 3.46 0 0 1-1.83-1.81A1.44 1.44 0 0 0 4 29.6a.03.03 0 0 1 .02-.03l1.12-.48h.05l.02.01.01.02c.22.55.53.96.95 1.24.43.3.93.41 1.5.37.82-.07 1.25-.44 1.28-1.12.02-.58-.27-.97-.87-1.16l-2-.65a2.66 2.66 0 0 1-.67-.35 2.31 2.31 0 0 1-1.03-2.38c.07-.56.33-1.03.78-1.4.4-.35.9-.56 1.47-.64Zm8.96 5.69c-.5.08-1.09.19-1.75.32-.7.14-1 .52-.9 1.14.05.23.17.4.38.53.19.11.4.16.63.14.86-.06 1.41-.51 1.64-1.35a2.57 2.57 0 0 0 .04-.77l-.02-.01h-.02Zm34.99 0c-.5.08-1.08.19-1.74.32-.7.14-1 .52-.9 1.14.05.23.17.4.38.53.19.11.4.16.63.14.86-.06 1.4-.51 1.64-1.36.03-.1.04-.3.04-.58v-.14a.05.05 0 0 0-.01-.04l-.02-.01h-.02Z" fill="#fff"/></svg>