<!-- by TradingView --><svg width="56" height="56" viewBox="0 0 56 56" xmlns="http://www.w3.org/2000/svg"><path fill="#F0F3FA" d="M0 0h56v56H0z"/><path d="M33 31v6h-1v-6h1ZM19 31v6h-1v-6h1ZM36 22h1.13l1.34 2.65h.06L39.87 22H41l-2 3.76V28h-1v-2.24L36 22ZM6 22h1.27L9 26.35 10.73 22H12v6h-1v-4l-1.63 3.98h-.74L7 24V28H6v-6ZM18 25c0 1.5-.85 3-2.5 3S13 26.5 13 25s.84-3 2.5-3c1.65 0 2.5 1.5 2.5 3Zm-1 0c0-.94-.4-2-1.5-2S14 24.06 14 25s.4 2 1.5 2 1.5-1.06 1.5-2ZM30 25c0 1.5-.85 3-2.5 3S25 26.5 25 25s.84-3 2.5-3c1.65 0 2.5 1.5 2.5 3Zm-1 0c0-.94-.4-2-1.5-2S26 24.06 26 25s.4 2 1.5 2 1.5-1.06 1.5-2ZM24 22v6h-.98L20 23.74V28h-1v-6h.99L23 26.28V22h1ZM25 31v6h-.98L21 32.74V37h-1v-6h.99L24 35.28V31h1ZM30 23v-1h5v1h-2v5h-1v-5h-2ZM42 28v-6h1.96A2 2 0 0 1 46 24c0 1.15-.84 2-2.05 2h-1.4v-1h1.37c.6 0 1.08-.33 1.08-1 0-.67-.48-1-1.08-1H43v5h-1ZM47 28v-6h4v1h-3v1.5h2.5v1H48V27h3v1h-4ZM28.06 37H26v-6h2.1c1.77 0 2.9 1.25 2.9 3 0 1.76-1.16 3-2.94 3ZM27 36h1c1.27 0 1.91-.79 1.91-2 0-1.2-.63-2-1.88-2H27v4ZM34.98 37H34l1.9-6h1.2l1.9 6h-.9l-1.6-5-1.52 5Zm.1-2h2.84v1h-2.84v-1Z"/></svg>