<!-- by TradingView --><svg width="56" height="56" viewBox="0 0 56 56" xmlns="http://www.w3.org/2000/svg"><path fill="#F0F3FA" d="M0 0h56v56H0z"/><path d="m36.39 16.62-5.13 5.14 3.83 3.8 1.3-1.32 2.94 2.93-1.27 1.26 3.83 3.81L47 27.17 36.39 16.62ZM26 40.2l8.67-8.4 3.83 3.81L29.83 44 26 40.2Z"/><path d="m9 37.3 4.47-4.47 3.7 3.7L12.7 41 9 37.3Zm.97 0 2.73 2.73 3.5-3.5-2.73-2.73-3.5 3.5Z" fill="#4183D0"/><path d="m22.5 17.18 3.83 3.8-9.05 9 2.94 2.93L28 25.18l3.83 3.8-11.6 11.54L9.6 29.98l12.89-12.8ZM20.22 33.9l-3.94-3.92 9.05-9-2.83-2.81-11.89 11.81 9.61 9.55 10.61-10.54L28 26.17l-7.78 7.73Z" fill="#4183D0"/><path d="M18.17 28.1 28.33 18 46 35.5l-4.28 4.25L28 26.17l-5.89 5.85-3.94-3.92ZM28 25.18l13.72 13.58L45 35.5 28.33 19l-9.16 9.1 2.94 2.93L28 25.18Z" fill="#4183D0"/><path d="m21.22 18.44 8.5-8.44 3.84 3.8-8.5 8.45-3.84-3.8ZM16.06 30.2l3.77-3.75 3.95 3.92L20 34.12l-3.94-3.92Z"/></svg>