<!-- by TradingView --><svg width="56" height="56" viewBox="0 0 56 56" xmlns="http://www.w3.org/2000/svg"><path fill="#F0F3FA" d="M0 0h56v56H0z"/><path d="M13.87 24.72c.74.04 1.44.32 2.08.82.13.1.22.07.28-.08l.6-1.46a.5.5 0 0 0 0-.4.5.5 0 0 0-.28-.27c-2.43-1-4.53-.84-6.3.47A5.48 5.48 0 0 0 8 28.43a5.49 5.49 0 0 0 2.6 4.41c1.1.68 2.3.96 3.61.84a5.31 5.31 0 0 0 3.37-1.56 5.75 5.75 0 0 0 1.6-3.33l.13-1.1a8.4 8.4 0 0 1 5.4-7.65c2.99-1.2 5.87-.85 8.63 1.08a8.86 8.86 0 0 1 3.16 4.13c.02.04.03.04.05.01l1.45-1.77a.1.1 0 0 0 .02-.11 12.2 12.2 0 0 0-4.78-4.94 10.74 10.74 0 0 0-7.1-1.3c-1.9.32-3.6 1.07-5.12 2.27a10.77 10.77 0 0 0-4.22 8.32 5.9 5.9 0 0 1-.3 1.93c-.31.66-.77 1.16-1.38 1.5-.95.54-1.91.56-2.89.06a3.22 3.22 0 0 1-1.76-2.3c-.17-.8-.1-1.53.18-2.21a3.2 3.2 0 0 1 1.29-1.5 3.23 3.23 0 0 1 1.92-.49Zm25.67 5.85-.6 1.48c-.07.17-.02.31.13.41 2.2 1.35 4.31 1.41 6.36.2a5.1 5.1 0 0 0 1.98-2.2c.47-.95.66-1.91.57-2.89a5.44 5.44 0 0 0-4.89-5.02 5.84 5.84 0 0 0-4.68 1.58 4.88 4.88 0 0 0-1.29 2.26c-.06.26-.15.92-.26 1.97a9.1 9.1 0 0 1-.62 2.84 8.79 8.79 0 0 1-6.2 5.1c-2.18.51-4.26.22-6.23-.87a8.43 8.43 0 0 1-4.04-4.77.15.15 0 0 0-.15-.12c-.08 0-.13.03-.16.1-.38.84-.79 1.59-1.23 2.24-.14.2-.14.4 0 .6a11.6 11.6 0 0 0 6.21 4.96 10.98 10.98 0 0 0 9.13-.99A11.11 11.11 0 0 0 38.86 30c.05-.25.09-.69.12-1.3.04-1.02.15-1.73.31-2.14.25-.61.62-1.13 1.1-1.57a3.26 3.26 0 0 1 1.68-.85c1.1-.18 2.05.02 2.87.62a3.94 3.94 0 0 1 1.5 2.24c.25.96.2 1.87-.15 2.75a3.92 3.92 0 0 1-2.03 2.15c-.83.4-1.66.46-2.5.19a3.87 3.87 0 0 1-2.02-1.53.1.1 0 0 0-.1-.05.1.1 0 0 0-.1.07Z" fill="#33AFB0"/></svg>