<!-- by TradingView --><svg width="56" height="56" viewBox="0 0 56 56" xmlns="http://www.w3.org/2000/svg"><path fill="#F0F3FA" d="M0 0h56v56H0z"/><path d="m22.48 20-.07.03c-10.62 4.73-11.67 8.24-10.86 9.41C16.32 37 39.17 32.96 50 30c-22.25 7.46-42.24 6.34-42.24 0 0-6.15 13.54-9.56 14.65-9.97l.07-.03Z" fill="#B2B3B6"/><path d="m20.72 20.23-.07.03C10.03 25.17 8.98 28.83 9.8 30.04c4.77 7.85 27.62 3.65 38.45.58C25.99 38.36 6 37.2 6 30.62c0-6.39 13.54-9.93 14.65-10.36l.07-.03Z" fill="#ED1C24"/><path fill-rule="evenodd" d="M37 29h-3v-6h5.26c.96 0 1.74.88 1.74 1.95 0 1.08-.78 2.05-1.74 2.05H37v2Zm.68-3H37v-2h.68c.45 0 .82.45.82 1s-.37 1-.82 1ZM17 23v6h3v-2h.66l1.03 2h3.52l-1.46-2.45c.42-.37.7-.93.7-1.53 0-1.06-.84-2.02-1.86-2.02H17Zm3 1v2h.68c.45 0 .82-.45.82-1s-.37-1-.82-1H20Zm6 3.7V23h3v4.23c0 .25.2.45.46.45.24 0 .54-.2.54-.45V23h3v4.7c0 .71-.59 1.3-1.3 1.3h-4.4a1.3 1.3 0 0 1-1.3-1.3ZM43.14 23c-.71 1.96-2.14 5.91-2.14 6h3.07l.3-1h1.17l.26 1H49l-2.34-6h-3.52Zm2.13 4h-.58l.31-1 .27 1Z" fill="#ED1C24"/></svg>