<!-- by TradingView --><svg width="56" height="56" viewBox="0 0 56 56" xmlns="http://www.w3.org/2000/svg"><path fill="#F0F3FA" d="M0 0h56v56H0z"/><path d="M19.6 32c1.32 0 2.16 1.16 2.16 2.4H18c.05 1.2.43 2.6 1.9 2.6.88 0 1.47-.5 1.89-1.21l.21.07c-.36 1.15-1.36 2.14-2.61 2.14-1.57 0-2.39-1.5-2.39-2.93 0-1.5.97-3.07 2.61-3.07Zm-.34.46c-.71 0-1.1.56-1.26 1.54h2.49c-.08-.75-.35-1.54-1.23-1.54ZM44.6 32c1.32 0 2.16 1.16 2.16 2.4H43c.05 1.2.43 2.6 1.9 2.6.88 0 1.47-.5 1.89-1.21l.21.07c-.36 1.15-1.36 2.14-2.6 2.14-1.58 0-2.4-1.5-2.4-2.93 0-1.5.97-3.07 2.6-3.07Zm-.34.46c-.71 0-1.1.56-1.26 1.54h2.49c-.08-.75-.35-1.54-1.23-1.54ZM12.52 29v.25c-.33 0-.56.02-.68.06-.2.07-.31.21-.31.43 0 .1.03.26.1.45l.43.99 2.07 4.65 1.88-5.04.19-.56c.04-.15.06-.27.06-.37 0-.26-.1-.43-.33-.52a2.02 2.02 0 0 0-.64-.1V29H18v.23c-.28.04-.49.11-.62.23-.2.17-.4.5-.6 1.02L13.85 38h-.2l-3.26-7.35c-.28-.62-.5-1-.67-1.16-.16-.15-.4-.24-.72-.26V29h3.52ZM42.02 26.82c.62-.08.98-.37.98-.98v-3.23c0-.41-.23-.81-.74-.81-.07 0-.14 0-.26.02v-.22c.6-.18 1.2-.4 1.8-.6.06 0 .2.05.2.13v.93c.53-.5.98-1.06 1.77-1.06 1.05 0 1.23 1.07 1.23 1.97v2.98c0 .61.43.86 1 .87V27h-2.66v-.18c.66-.1.66-.46.66-1.1V23c0-.63-.06-1.27-.78-1.27-.54 0-.87.39-1.22.74v3.57c0 .56.22.77.75.78V27h-2.73v-.18ZM22.02 37.82c.62-.08.98-.37.98-.98v-3.23c0-.41-.23-.81-.74-.81-.07 0-.14 0-.26.02v-.22c.6-.18 1.2-.4 1.8-.6.06 0 .2.05.2.13v.93c.53-.5.98-1.06 1.77-1.06 1.05 0 1.23 1.07 1.23 1.97v2.98c0 .61.43.86 1 .87V38h-2.66v-.18c.66-.1.66-.46.66-1.1V34c0-.63-.06-1.27-.78-1.27-.54 0-.87.39-1.22.74v3.57c0 .56.22.77.75.78V38h-2.73v-.18ZM35 23.93A2.92 2.92 0 0 1 37.98 21 2.9 2.9 0 0 1 41 23.95 3 3 0 0 1 38.02 27 3.02 3.02 0 0 1 35 23.93Zm2.8-2.56c-1.2 0-1.57 1.27-1.57 2.27 0 1.19.55 3 2 3 1.2 0 1.54-1.33 1.54-2.3 0-1.19-.53-2.97-1.97-2.97ZM31.63 21.58V22h-1.62L30 25.3c0 .53.27 1.07.9 1.07.37 0 .65-.19.91-.42l.19.13c-.48.52-1.05.92-1.79.92-.95 0-1.21-.67-1.21-1.53V22h-.93a.31.31 0 0 1-.06-.03.07.07 0 0 1-.01-.05c0-.04.01-.07.03-.09l.21-.15c.71-.46 1.07-1.06 1.64-1.68l.11.01c.02 0 .02.04.02.09v1.48h1.62ZM31.63 32.58V33h-1.62L30 36.3c0 .53.27 1.07.9 1.07.37 0 .65-.19.91-.42l.19.13c-.48.52-1.05.92-1.79.92-.95 0-1.21-.67-1.21-1.53V33h-.93a.31.31 0 0 1-.06-.03.07.07 0 0 1-.01-.05c0-.04.01-.07.03-.09l.21-.15c.71-.46 1.07-1.06 1.64-1.68l.11.01c.02 0 .02.04.02.09v1.48h1.62ZM25 26.82c.44-.04.72-.12.83-.23.12-.11.17-.42.17-.92v-3.04c0-.33.02-.83-.44-.83l-.13.01c-.05 0-.22.04-.43.1v-.2a13.6 13.6 0 0 0 1.99-.71l.01.1v4.57c0 .49.12.8.23.92.11.12.37.2.77.23V27h-3v-.18ZM26.14 19.15c-.1.1-.14.22-.14.35a.49.49 0 0 0 .5.5c.14 0 .25-.05.35-.14.1-.1.15-.22.15-.36a.47.47 0 0 0-.15-.35.47.47 0 0 0-.35-.15.48.48 0 0 0-.36.15Z"/><path d="M32 26.82c.44-.04.72-.12.83-.23.12-.11.17-.42.17-.92v-3.04c0-.33.02-.83-.44-.83l-.13.01c-.05 0-.22.04-.43.1v-.2a13.6 13.6 0 0 0 1.99-.71l.01.1v4.57c0 .49.12.8.23.92.11.12.37.2.77.23V27h-3v-.18ZM33.14 19.15c-.1.1-.14.22-.14.35a.49.49 0 0 0 .5.5c.14 0 .25-.05.35-.14.1-.1.15-.22.15-.36a.47.47 0 0 0-.15-.35.47.47 0 0 0-.35-.15.48.48 0 0 0-.36.15ZM21 21v4.06c0 .63.12 1.18.83 1.18.53 0 .84-.34 1.17-.73v-3.48c0-.63-.44-.79-1-.82V21h2v4.47c0 .29.07.49.17.6.1.1.5.15.83.14v.17c-.6.17-1.42.4-2 .62v-1.14c-.48.58-.89 1.14-1.7 1.14-.96 0-1.3-.8-1.3-1.7V22c0-.58-.45-.77-1-.82V21h2ZM34 32v4.06c0 .63.12 1.18.83 1.18.53 0 .84-.34 1.17-.73v-3.48c0-.63-.44-.79-1-.82V32h2v4.47c0 .29.07.49.17.6.1.1.5.15.83.14v.17c-.6.17-1.42.4-2 .62v-1.14c-.48.58-.89 1.14-1.7 1.14-.96 0-1.3-.8-1.3-1.7v-3.29c0-.59-.45-.78-1-.83V32h2ZM15 26.79c.6-.06 1-.23 1-.87v-2.87c0-.85-.23-1.17-.61-1.17a2.01 2.01 0 0 0-.36.06v-.21c.6-.23 1.33-.45 1.91-.73.03 0 .04.01.05.03l.01.14v.91c.25-.38.36-.54.6-.76.23-.2.47-.31.72-.31.39 0 .68.3.68.68 0 .29-.18.61-.5.61-.35 0-.5-.44-.81-.44-.14 0-.3.12-.5.36s-.19.49-.19.74v2.96c0 .68.33.89 1 .87V27h-3v-.21ZM8 26.75c.97-.1 1-.43 1-1.38v-5.9c0-.86-.14-1.15-1-1.22V18h7v2h-.36c-.1-.62-.26-1.07-.5-1.23-.25-.17-.74-.25-1.47-.25h-1.76c-.18 0-.29.03-.34.1-.05.05-.07.17-.07.36V22h1.76c.56 0 .91-.09 1.06-.26.16-.17.28-.52.37-1.05H14v3.15h-.3c-.1-.53-.23-.87-.38-1.04-.16-.18-.5-.26-1.06-.26H10.5v2.99c0 .89.3 1.15 1.18 1.22V27H8v-.25ZM38 37.79c.6-.06 1-.23 1-.87v-2.87c0-.85-.23-1.17-.61-1.17a2.01 2.01 0 0 0-.36.06v-.21c.6-.23 1.33-.45 1.91-.73.03 0 .04.01.05.03l.01.14v.91c.25-.38.36-.54.6-.76.23-.2.47-.31.72-.31.39 0 .68.3.68.68 0 .29-.18.61-.5.61-.35 0-.5-.44-.81-.44-.14 0-.3.12-.5.36s-.19.49-.19.74v2.96c0 .68.33.89 1 .87V38h-3v-.21Z"/></svg>