<!-- by TradingView --><svg width="56" height="56" viewBox="0 0 56 56" xmlns="http://www.w3.org/2000/svg"><path fill="url(#a)" d="M0 0h56v56H0z"/><path fill-rule="evenodd" d="m35.58 18.54-3.44-2.92c-1.08.36-2.3 1.12-3.64 2.3a1.8 1.8 0 0 0-.58 2.05c.1.31.28.37.56.19l3.23-2.22c.32-.22.62-.2.9.08l.17.16c.24.23.22.44-.07.63a18.79 18.79 0 0 0-4.59 4.18c-.17.23-.33.21-.48-.03a13.64 13.64 0 0 0-4.33-4.6c-.23-.15-.23-.3-.01-.46 1.02-.73 2.2-1.53 3.56-2.42.22-.15.46-.4.73-.76.2-.28.38-.47.5-.57a.51.51 0 0 1 .57-.05c.18.1.34.35.47.76.07.22.21.28.42.18.45-.2.73-.48.84-.82a.47.47 0 0 0-.13-.52l-1.6-1.55c-.19-.2-.4-.2-.62-.02l-3.49 2.81-3.73 2.97a.72.72 0 0 0-.29.74c.05.3.22.5.52.6a9.22 9.22 0 0 1 3.5 2.26 31.26 31.26 0 0 1 3.1 4c.13.17.3.25.51.23a.5.5 0 0 0 .45-.31c1.32-2.83 3.6-4.87 6.83-6.12a.43.43 0 0 0 .29-.35.43.43 0 0 0-.15-.42Zm-10.05 19.9c-.1-.08-.19-.2-.27-.33a.7.7 0 0 1-.08-.4c.1-1.06.15-2.05.15-2.99 0-.43-.2-.73-.6-.9a17.03 17.03 0 0 1-8.02-6.85c-.6-.84-.95-1.7-1.07-2.6-.15-1.09.15-1.9.9-2.44.83-.6 1.8-.8 2.9-.62 2.31.38 4.09 1.6 5.33 3.64a17.3 17.3 0 0 1 1.97 5.55c.4 2.06.55 4.54.42 7.44-.01.2-.11.36-.29.47-.32.19-.76.2-1.34.03Zm-6.97-15.53c2.71.25 4.5 1.55 5.36 3.89a20.83 20.83 0 0 1 1.2 5 .28.28 0 0 1-.15.3.3.3 0 0 1-.33-.01 28.4 28.4 0 0 1-4.29-3.16 10.5 10.5 0 0 1-2.81-4.34c-.17-.51-.19-.88-.06-1.1.23-.44.59-.63 1.08-.58Zm12.13 11.1 4.45-2.68a16.83 16.83 0 0 0 4.49-5.28c.55-1.02.8-1.84.76-2.45-.09-1.04-.8-1.75-2.16-2.12-2.02-.55-4.02.05-6 1.8a8.81 8.81 0 0 0-2.36 3.52 18.53 18.53 0 0 0-1.36 6.51L28.5 38c0 .21.1.35.3.43.44.15.9.16 1.4 0 .17-.14.25-.29.24-.44a41.51 41.51 0 0 1 0-3.52c0-.2.1-.35.26-.45Zm7.75-10.26c-.25-.75-.75-1.04-1.48-.86l-.7.16a5.42 5.42 0 0 0-4.32 3.36 21.63 21.63 0 0 0-1.5 5.33c-.02.11.02.2.12.27.09.06.19.07.29.02 3.51-1.6 6.03-4.1 7.55-7.49.12-.25.13-.52.04-.79ZM46 39H10v1h36v-1Z" fill="#fff"/><defs><linearGradient id="a" x1="28" y1="0" x2="28" y2="56" gradientUnits="userSpaceOnUse"><stop stop-color="#A84D66"/><stop offset="1" stop-color="#840327"/></linearGradient></defs></svg>