<!-- by TradingView --><svg width="56" height="56" viewBox="0 0 56 56" xmlns="http://www.w3.org/2000/svg"><path fill="#F0F3FA" d="M0 0h56v56H0z"/><path d="M12.55 27a.07.07 0 0 0 .02.11c.59.25 1 .63 1.25 1.14.11.24.2.8.18 1.69v2.77c-.01.07-.12.13-.17.17-.05.04-.1.12-.17.12h-2.19c-.3-.02-.5-.12-.47-.4v-2.34c-.06-1.11-.97-1.21-1.83-1.44a.22.22 0 0 1-.12-.09.24.24 0 0 1-.05-.14v-2.02a.36.36 0 0 1 .27-.33c.72-.17 1.3-.29 1.31-1.2.04-1.63-2.58-1.82-2.58 0-.02 3.14-.02 5.5 0 7.7v.08a.2.2 0 0 1-.1.1c-.03.02-.06.08-.08.08H5.3c-.07 0-.13-.08-.18-.13-.05-.05-.12-.12-.12-.19V26.7c.02-1.49.07-2.37.16-2.66.3-1.03 1.27-2.42 2.4-2.72a7.7 7.7 0 0 1 1.7-.3c.48-.02 1.07.07 1.77.27a3.8 3.8 0 0 1 2.7 3.87c-.1 1.02-.61 1.21-1.18 1.86ZM37.58 21a1.7 1.7 0 0 0-1.8 1.6c-.04.93.71 1.71 1.67 1.75a1.7 1.7 0 0 0 1.8-1.6c.04-.92-.71-1.7-1.67-1.75ZM42.6 24.37c.96-.05 1.7-.85 1.65-1.78A1.71 1.71 0 0 0 42.4 21c-.97.06-1.7.86-1.66 1.79.05.93.88 1.64 1.84 1.58ZM46 23h2.59c.25 0 .39.16.4.4v1.18c0 .09.09.27.15.33s.14.09.22.09h1.29c.13 0 .3.15.35.26v2.09c0 .08-.07.16-.13.22a.32.32 0 0 1-.23.1h-1.48a.14.14 0 0 0-.13.09c-.01.01-.03.03-.03.05v2.03c-.01.38.28.51.64.53l.9.04c.28.04.46.2.46.5v1.82c0 .05-.11.16-.26.19-1.93.34-3.83-.36-4.52-2.27a4.7 4.7 0 0 1-.22-1.63V23ZM21.35 30.25v2.28c0 .03 0 .07-.02.1a.24.24 0 0 1-.06.08c-.18.17-.43.26-.73.28-2.08.1-3.55-.45-4.86-2.17a4.16 4.16 0 0 1-.3-4.03 4.87 4.87 0 0 1 3.31-2.64 5.21 5.21 0 0 1 5.14 1.5c.9 1.03 1.17 1.95 1.17 3.53v3.49c0 .08-.06.16-.12.22a.3.3 0 0 1-.2.11h-2.33c-.05 0-.1-.02-.14-.04a.38.38 0 0 1-.21-.37v-4c-.02-.86-.5-1.42-1.28-1.69-1.25-.44-2.7.5-2.6 1.86.1 1.45 1.96 1.65 3 1.31a.17.17 0 0 1 .16.03l.05.07a.2.2 0 0 1 .02.08ZM29 33h-2.7c-.04 0-.07-.05-.1-.07a.24.24 0 0 1-.08-.06.27.27 0 0 1-.05-.09c-.01-.03-.07-.07-.07-.1v-5.43a3.1 3.1 0 0 1 .9-1.85 4.25 4.25 0 0 1 5.37-.78c.5.3.84.57 1.03.8.66.77.7 1.9.7 2.96v4.27c0 .24-.13.35-.36.35h-2.47c-.05 0-.1-.07-.13-.11-.04-.04-.04-.1-.04-.15v-4.75c.01-1.5-1.96-1.59-2-.07V33ZM34.07 34.12c.01-.04.03-.07.06-.1a.15.15 0 0 1 .1-.03c.3.03.82.02 1.2 0 .33-.02.5-.19.53-.5.02-.2.03-.57.04-1.14v-7.2c0-.03.06-.07.1-.1a.16.16 0 0 1 .1-.05h2.54c.07 0 .13.03.18.08.05.04.08.11.08.18v7.26c0 1.21-.14 2-.3 2.36-.82 1.72-2.55 2.37-4.41 2.04a.28.28 0 0 1-.22-.19c-.1-.32-.06-.76-.07-1.04 0-.6.02-1.23.07-1.57ZM43.67 25h-2.31c-.19 0-.36.14-.36.32v7.35c0 .18.15.33.33.33h2.32c.18 0 .35-.14.35-.32v-7.35a.33.33 0 0 0-.33-.33Z" fill="#80D0EB"/></svg>