<!-- by TradingView --><svg width="18" height="18" viewBox="0 0 18 18" xmlns="http://www.w3.org/2000/svg"><path fill="#F0F3FA" d="M0 0h18v18H0z"/><path d="M10 6h1v3c0-1.1.9-2 2.02-2C14 7 14.8 7.67 15 8.57h-1.1a1 1 0 1 0 0 .86H15c-.2.9-1 1.57-1.98 1.57-1.11 0-2.02-.9-2.02-2a2 2 0 1 1-1-1.73V6Zm0 3ZM7 7.86V7H4.24C3.55 7 3 7.55 3 8.23c0 .68.55 1.2 1.24 1.2h1.48c.17 0 .3.17.3.33 0 .17-.13.38-.3.38H3V11h2.78C6.45 11 7 10.46 7 9.79c0-.67-.55-1.22-1.22-1.22H4.2a.34.34 0 0 1-.34-.34c0-.19.15-.37.34-.37H7Z" fill="url(#a)"/><defs><linearGradient id="a" x1="3.8" y1="7.42" x2="12.45" y2="10.35" gradientUnits="userSpaceOnUse"><stop stop-color="#ED008D"/><stop offset="1" stop-color="#662E91"/></linearGradient></defs></svg>