<!-- by TradingView --><svg width="18" height="18" viewBox="0 0 18 18" xmlns="http://www.w3.org/2000/svg"><path fill="#F0F3FA" d="M0 0h18v18H0z"/><path d="M3.77 7c.22 0 .42.03.6.1a1.54 1.54 0 0 1 1.05 1.23H4.6c-.01-.1-.04-.12-.09-.2a.73.73 0 0 0-.42-.35.93.93 0 0 0-.3-.05c-.2 0-.37.05-.52.15a.96.96 0 0 0-.34.43c-.08.19-.12.42-.12.69 0 .28.04.51.12.7.09.19.2.33.34.43.15.1.32.14.51.14.1 0 .2-.01.3-.04a.73.73 0 0 0 .42-.33c.05-.09.08-.13.1-.23h.82c-.03.18-.08.3-.16.47a1.55 1.55 0 0 1-.84.75c-.2.07-.4.11-.65.11a1.66 1.66 0 0 1-1.54-.92C2.08 9.78 2 9.42 2 9c0-.42.08-.79.23-1.08A1.65 1.65 0 0 1 3.77 7Zm3.96 2.69h.05L8.79 7h.97v4H9V8.4h-.03L8 10.98H7.5l-.96-2.6h-.03V11h-.75V7h.96l1.01 2.69ZM11.7 7c.28 0 .51.04.7.13a.94.94 0 0 1 .55.9c0 .15-.03.29-.09.4a.8.8 0 0 1-.24.3.96.96 0 0 1-.35.15v.04a.8.8 0 0 1 .4.13c.13.08.23.2.31.34.08.14.12.3.12.5a1.02 1.02 0 0 1-.58.96c-.2.1-.44.15-.72.15h-1.6V7h1.5Zm2.7 3.33H16V11h-2.39V7h.79v3.33Zm-3.4 0h.64c.22 0 .38-.07.48-.16.1-.09.16-.2.16-.36 0-.11-.03-.2-.08-.3a.52.52 0 0 0-.21-.2.7.7 0 0 0-.33-.06H11v1.08Zm0-1.66h.58c.1 0 .2-.02.3-.06.08-.04.14-.1.2-.17a.48.48 0 0 0 .07-.27.45.45 0 0 0-.15-.35.59.59 0 0 0-.4-.15H11v1Z" fill="#245F7A"/></svg>