<!-- by TradingView --><svg width="56" height="56" viewBox="0 0 56 56" xmlns="http://www.w3.org/2000/svg"><path fill="#F0F3FA" d="M0 0h56v56H0z"/><path d="M7 37V21h10.24c.97 0 1.76.8 1.76 1.8v8.7c0 1-.79 1.5-1.76 1.5H10v4H7Zm8.1-13H10v6h5.1c.5 0 .9-.41.9-.93v-4.14c0-.52-.4-.93-.9-.93Zm9.22 9H34v-3h-7.69c-.64 0-1.31-.43-1.31-1.08V25.3c0-.65.67-1.3 1.31-1.3H34v-3h-9.68A2.33 2.33 0 0 0 22 23.35v7.3c0 1.3 1.04 2.35 2.32 2.35ZM37 30v3h9.96c1.13 0 2.04-.91 2.04-2.04V25.5h-9V24h9v-3h-9.96c-1.13 0-2.04.91-2.04 2.04v5.46h9V30h-9Z" fill="#ED1C24"/></svg>