<!-- by TradingView --><svg width="18" height="18" viewBox="0 0 18 18" xmlns="http://www.w3.org/2000/svg"><path fill="#F0F3FA" d="M0 0h18v18H0z"/><path d="M12.49 4H6.04c-.01 0-.02.03-.02.07v.15c0 .04.01.07.02.07h6.45l.01-.07v-.15L12.49 4ZM7.67 8.92v.02l.02.01h.03l2.32-2.7c.54-.63.1-.94-.48-.88a.06.06 0 0 1-.05-.02l-.01-.02v-.31A.06.06 0 0 1 9.56 5h2.52c.02 0 .03 0 .04.02l.02.04v.26l-.02.02-.02.02h-.02c-.45-.02-.85.16-1.2.54A68.23 68.23 0 0 0 9.3 7.7l.01.06 2.1 3.37c.24.4.56.57.93.5h.04l.03.02a.1.1 0 0 1 .03.04.1.1 0 0 1 0 .04v.19c0 .02 0 .04-.02.06a.07.07 0 0 1-.05.02H9.65c-.03 0-.05 0-.06-.03a.1.1 0 0 1-.03-.06v-.23l.03-.03.02-.01h.03c.17.02.63.03.78-.1a.2.2 0 0 0 .07-.12c0-.05 0-.1-.03-.15l-1.75-2.8v-.02a.03.03 0 0 0-.04 0l-.01.01-.94 1.02a.19.19 0 0 0-.05.12v1.7a.36.36 0 0 0 .1.24.3.3 0 0 0 .1.07c.03.02.07.03.11.03h.66c.02 0 .04 0 .06.02l.02.06v.2l-.02.06a.08.08 0 0 1-.06.02H6.08c-.02 0-.04 0-.06-.03a.1.1 0 0 1-.02-.06v-.19c0-.02 0-.04.02-.06a.07.07 0 0 1 .06-.02h.4c.08 0 .16-.04.21-.1a.34.34 0 0 0 .09-.22 8718.72 8718.72 0 0 1-.01-5.7c-.09-.32-.44-.28-.68-.25h-.03c-.01 0-.02 0-.03-.02l-.02-.03a.1.1 0 0 1 0-.03v-.21a.08.08 0 0 1 .01-.06l.03-.01.02-.01h2.58c.02 0 .04 0 .05.02l.02.05v.22a.08.08 0 0 1-.03.06l-.02.02H8.5c-.42-.04-.83-.08-.83.53v3.02ZM6.01 13h6.48l.01.06V14H6v-1Z" fill="#006FC0"/></svg>