<!-- by TradingView --><svg width="56" height="56" viewBox="0 0 56 56" xmlns="http://www.w3.org/2000/svg"><path fill="#F0F3FA" d="M0 0h56v56H0z"/><path fill-rule="evenodd" d="M6 23v1.9h.33c0-1.11.91-1.44 1.18-1.46h1.37v7.19h-1.1V31h3.09v-.37h-.85v-7.2h1.45c.9 0 1.19.98 1.22 1.46H13V23H6Zm10.39 5.2h-3.57c0 .99.48 2.1 1.8 2.1 1.07 0 1.54-.7 1.64-1.05h.2c-.03.58-.49 1.75-2.13 1.75-2.06 0-2.33-2.08-2.33-2.7 0-.6.36-2.3 2.43-2.3 1.66 0 2 1.46 1.96 2.2Zm-.63-.6h-2.51c.06-.38.39-1.14 1.24-1.14s1.2.76 1.27 1.14Zm27.07.6h3.6c.04-.74-.3-2.2-1.97-2.2-2.1 0-2.46 1.7-2.46 2.3 0 .62.27 2.7 2.35 2.7 1.66 0 2.13-1.17 2.15-1.75h-.2c-.1.35-.58 1.05-1.65 1.05-1.34 0-1.82-1.11-1.82-2.1Zm.14-.6h2.54c-.07-.38-.43-1.14-1.28-1.14-.86 0-1.2.76-1.26 1.14Zm-21.32 1.63H22c-.1.59-.7 1.77-2.32 1.77-2 0-2.18-2.18-2.18-2.7 0-.53.36-2.3 2.43-2.3 1.66 0 1.96.93 1.91 1.4-.03.13-.21.39-.71.39s-.55-.61-.51-.92c-.08-.13-.34-.39-.8-.39-.59 0-1.34.58-1.34 1.89 0 1.3.64 1.85 1.73 1.85.87 0 1.32-.66 1.44-1Zm.6-5.53H23v6.95h-.75V31h2.35v-.35H24v-3.13c.25-.33.82-.88 1.37-.88.58 0 .61.55.63.86v3.19h-.36V31h1.98v-.3H27v-3.28c0-.8-.36-1.42-1.36-1.42-.7 0-1.36.61-1.64.97V23l-1.75.7ZM29 26.64h-.8L30 26v.95c.21-.33.8-.95 1.6-.95.99 0 1.4.62 1.4 1.42v3.27h.57V31H31.6v-.3H32v-3.15c-.02-.3-.06-.9-.68-.9-.6 0-1.13.55-1.32.84v3.19h.55V31H28.2v-.32h.8v-4.04ZM36.5 31a2.5 2.5 0 1 0 0-5 2.5 2.5 0 0 0 0 5Zm.5-.43c.76-.2 1.15-1.3.87-2.44-.28-1.14-1.12-1.9-1.87-1.7-.76.2-1.15 1.3-.87 2.44.28 1.14 1.12 1.9 1.87 1.7Zm2.2-3.96c.26.07.8.28.8.62v5.2c-.03.3-.2.9-.6.9-.26 0-.37-.12-.48-.24-.12-.13-.23-.26-.5-.26-.51 0-.69.26-.69.5 0 .26.32.67.84.67 1.1 0 2.43-.35 2.43-1.85V26l-1.8.61ZM41 23.5a.5.5 0 1 1-1 0 .5.5 0 0 1 1 0Zm6 2.9v3.62c-.04.32.22.98 1.1.98.9 0 1.3-.78 1.4-1.17h-.31c-.11.12-.4.36-.7.36-.38 0-.49-.27-.49-.58v-3.2h1.5V26H48v-2l-2 2.4h1Z"/></svg>