<!-- by TradingView --><svg width="18" height="18" viewBox="0 0 18 18" xmlns="http://www.w3.org/2000/svg"><path fill="#F0F3FA" d="M0 0h18v18H0z"/><path d="M5.8 8.2c-.2-.28-.27-.58-.23-.9C5.8 6.33 7.05 6 8.09 6c1.21 0 2.27.22 3.37.6 1 .34 2.1.48 3.27.42.32-.02.36.06.1.23-.56.37-1.92.27-2.65.19-.23-.03-.24 0-.04.1a4.6 4.6 0 0 0 1.77.24c.1 0 .11.03.04.1-.39.33-1.37.29-1.87.3-.08 0-.09 0-.02.04.08.04.18.06.3.07l.96.05c.17 0 .18.03.03.1-1.13.45-2.32.7-3.6.72 0 0-.02.05 0 .05a8 8 0 0 0 4.41-.78c.07-.03.23-.06.26.04.01.02 0 .06-.02.08-.54.49-1.16.74-1.88.98-.25.09-.24.12.02.09.74-.09 1.41-.41 2.01-.8.09-.04.22-.02.25.07a.1.1 0 0 1-.03.1c-.38.4-.85.67-1.4.84-.02 0 .01.05.04.05.46-.1.9-.24 1.32-.43.09-.04.26 0 .23.1-.1.43-1.27.67-1.68.77-.07.02-.07.04 0 .06.14.03.29.05.43.05.32.02.33.08.04.2-.2.08-.46.14-.74.2a.22.22 0 0 0-.1.04c-1.66 1.31-4.43 3.12-6.62 1.47-.67-.51-1.17-1.19-1.66-1.83-.1-.13-.22-.26-.35-.39a.94.94 0 0 0-.4-.23 2.58 2.58 0 0 1-.85-.47.08.08 0 0 1-.03-.08.1.1 0 0 1 .07-.07c.18-.06.33-.26.45-.4.26-.3.6-.53 1.03-.54.4 0 .8.17 1.05.44.21.24.44.53.69.72.02.02.07.01.09-.01l.23-.24c.02-.03.02-.05 0-.08-.32-.27-.59-.6-.81-.97Z" fill="#201D1D"/></svg>