<!-- by TradingView --><svg width="56" height="56" viewBox="0 0 56 56" xmlns="http://www.w3.org/2000/svg"><path fill="#F0F3FA" d="M0 0h56v56H0z"/><path d="M25.14 47.76c0-.55.39-12.24 1.14-35.1.01-.42 0-.7-.06-.87-.16-.44-.58-.79-1.08-.79-.5 0-.93.35-1.08.8-.06.15-.08.44-.06.87l1.14 35.09Z" fill="url(#a)"/><path d="M31.98 11.8c-.15-.45-.58-.8-1.08-.8-.5 0-.93.35-1.09.8-.05.16-.07.45-.06.88l1.15 35.3c0-.57.39-12.34 1.14-35.3.02-.43 0-.72-.06-.88Z" fill="url(#b)"/><path d="M20.18 17.67c.74 0 1.19.67 1.16 1.36a9361.86 9361.86 0 0 1-1.17 24.18v-.02c-.5-10.37-.89-18.43-1.15-24.16-.03-.7.42-1.36 1.16-1.36Z" fill="url(#c)"/><path d="M35.85 42.89a1.82 1.82 0 0 0 .06.4l.01-.6L37 19.02c.08-1.83-2.39-1.74-2.3 0 .62 13.66 1 21.61 1.15 23.87Z" fill="url(#d)"/><path d="M15.19 38.05h-.01v-.02L14 24.66c-.06-.64.17-1.11.7-1.42.13-.08.29-.12.47-.12.2 0 .35.04.49.12.52.3.75.78.69 1.42a4728.33 4728.33 0 0 0-1.17 13.39Z" fill="url(#e)"/><path d="M41.3 23.24a.94.94 0 0 0-.49-.12.94.94 0 0 0-.49.12c-.52.31-.75.79-.7 1.43a4986.7 4986.7 0 0 1 1.18 13.44h.02v-.01L42 24.67c.06-.64-.17-1.12-.7-1.43Z" fill="url(#f)"/><defs><linearGradient id="a" x1="28" y1="11" x2="28" y2="48" gradientUnits="userSpaceOnUse"><stop stop-color="#4522FA"/><stop offset=".72" stop-color="#5EA699"/></linearGradient><linearGradient id="b" x1="28" y1="11" x2="28" y2="48" gradientUnits="userSpaceOnUse"><stop stop-color="#4522FA"/><stop offset=".72" stop-color="#5EA699"/></linearGradient><linearGradient id="c" x1="28" y1="11" x2="28" y2="48" gradientUnits="userSpaceOnUse"><stop stop-color="#4522FA"/><stop offset=".72" stop-color="#5EA699"/></linearGradient><linearGradient id="d" x1="28" y1="11" x2="28" y2="48" gradientUnits="userSpaceOnUse"><stop stop-color="#4522FA"/><stop offset=".72" stop-color="#5EA699"/></linearGradient><linearGradient id="e" x1="28" y1="11" x2="28" y2="48" gradientUnits="userSpaceOnUse"><stop stop-color="#4522FA"/><stop offset=".72" stop-color="#5EA699"/></linearGradient><linearGradient id="f" x1="28" y1="11" x2="28" y2="48" gradientUnits="userSpaceOnUse"><stop stop-color="#4522FA"/><stop offset=".72" stop-color="#5EA699"/></linearGradient></defs></svg>