<!-- by TradingView --><svg width="56" height="56" viewBox="0 0 56 56" xmlns="http://www.w3.org/2000/svg"><path fill="#F0F3FA" d="M0 0h56v56H0z"/><path d="M25 32.68c-3-1.15-9.2-6.7-10-19.7 2.67 1.63 8.4 7.88 10 19.7Z" fill="#4D2D97"/><path d="M25 32.68c-2.7-1.53-7.84-7.8-6.88-20.7 2.3 1.97 6.92 8.87 6.88 20.7Z" fill="#01AFDE"/><path d="M25 32.68c-2.36-1.94-6.88-8.98-3.99-21.68 1.92 2.32 5.84 9.9 3.99 21.68Z" fill="#01B94F"/><path d="M25.02 32.68c-2.2-2.22-5.35-9.66-.35-21.68 1.68 2.53 4.1 10.4.35 21.68Z" fill="#F90107"/><path d="M25 32.68C23.16 30.12 20.95 22.2 27.97 11c1.27 2.8 2.68 11.04-2.97 21.68Z" fill="#FE7907"/><path d="M25 32.68c-1.56-2.8-2.56-11.05 5.48-21.68.97 2.97 1.15 11.46-5.48 21.68Z" fill="#F9EF05"/><path d="M25.45 32.68c-1.08-2.87-.9-10.82 8.45-19.7.48 2.94-.52 11-8.45 19.7Z" fill="#FDF9A3"/><path fill-rule="evenodd" d="M26.03 32.4a13 13 0 0 0 2.37 5.86l1.5-.27a104.1 104.1 0 0 0 3.52-.77c1.1-.25 2.11-.47 3-.6 2.87-.4 6.29-.16 7.64 0l.74.1-.36.64C43.5 39 40.17 42.04 34 42.04a7.77 7.77 0 0 1-6-2.72 25.6 25.6 0 0 1-6.05.26c-2.23-.2-4.15-.74-5.64-1.35 1.04.9 2.3 1.85 3.73 2.72C22.87 42.66 26.32 44 30 44c7.47 0 13.9-3.1 16-4.69-2.24 1.7-8.27 5.68-16 5.68-3.92 0-7.55-1.44-10.49-3.21a26.88 26.88 0 0 1-6.4-5.35l.71-.69c.92.76 3.92 2.46 8.23 2.85 1.76.15 3.53.05 5.24-.17a13.96 13.96 0 0 1-2.23-5.74H19v-1h6.08c.5-4.28 3.16-12.5 10.91-17.73.16 5.19-1.65 15.84-9.96 18.45Zm-.03-.73c.67-3.37 3.3-11.03 8.5-14.68 0 3.71-1.7 11.85-8.5 14.68Zm8 9.39a6.71 6.71 0 0 1-4.82-1.93l.92-.18c1.04-.2 2.03-.43 2.96-.64l.58-.13c1.1-.25 2.08-.46 2.93-.58 2.27-.32 4.94-.22 6.54-.08-1.2 1.43-4.11 3.54-9.11 3.54Z" fill="url(#a)"/><circle cx="16.5" cy="34.5" r="4.5" fill="#F5D454"/><defs><linearGradient id="a" x1="29.56" y1="13.96" x2="29.56" y2="45" gradientUnits="userSpaceOnUse"><stop stop-color="#B47A33"/><stop offset=".46" stop-color="#FDF1BA"/><stop offset="1" stop-color="#F8E141"/></linearGradient></defs></svg>