<!-- by TradingView --><svg width="56" height="56" viewBox="0 0 56 56" xmlns="http://www.w3.org/2000/svg"><path fill="#F0F3FA" d="M0 0h56v56H0z"/><path d="M9 33H5v-9c2.4 0 3.67 1 4 1.5V33ZM9.5 25c2.5.17 7.9 1.8 9.5 7-.5-2.83-3.1-8.2-9.5-7Z" fill="#0000A2"/><path d="M9 23.14c3.48.16 10.74 2.17 12 8.86.16-3.45-2-10.04-12-8.86Z" fill="#FB6A34"/><path d="M22 23h-4v1c2.8 1.6 3.83 6 4 8v-9ZM23 23h2v10h-2zM28 23h-2v10h2v-5h3v5h2v-5c0-1.6-1.33-2-2-2h-3v-3ZM36.5 33H42v-5c0-.67-.4-2-2-2h-3c-.83 0-2.5.4-2.5 2v1h2c0-.33.2-1 1-1h2c.17 0 .5.1.5.5 0 .25 0 .38-.06.44s-.19.06-.44.06c-.5 0-5.5 0-5.5 2 0 1.6 1.67 2 2.5 2Zm.5-2.5h3v1h-3c-.33 0-1-.1-1-.5s.67-.5 1-.5ZM45 33h-2v-7h6c1.14 0 2 .5 2 2v2h-2v-1c0-.8-.67-1-1-1h-3v5Z" fill="#0000A2"/></svg>