<!-- by TradingView --><svg width="56" height="56" viewBox="0 0 56 56" xmlns="http://www.w3.org/2000/svg"><path fill="#F0F3FA" d="M0 0h56v56H0z"/><path d="M22 37.34c-.89.88-3.68 2.66-6.62 2.66C11.7 40 11 37.42 11 35.71c0-1.7 1.3-4.17 5.44-5.5l.72-.24c2.87-.93 4.53-1.47 4.84-1.63v-3.55c-.02-.9-1.12-2.72-3.68-2.72-3.2 0-2.48 1.9-2.32 2.06.16.16.9 1 .9 2.26 0 1.27-1.22 1.95-2.58 1.95s-2.6-.52-2.6-2.65c0-2.12 1.66-4.69 7.24-4.69H32v11.2c.08-.1.18-.2.29-.3.66-.7 1.79-1.85 2.15-2.7V21h3.93c.1-.15.28-.64.29-.94-.37.13-1.34.4-2.21.4-1.1 0-4.65-.78-4.65-4.66 0-3.89 3.38-4.8 4.77-4.8 1.39 0 4.69 1.2 4.69 5.32 0 1.6-.5 3.27-.76 3.9V39H42v1H22v-2.66Zm9.5-15.84h-8.54c3.13.92 4 3.25 4.04 4.36v13.62c1.04-.57 4.05-3.05 7.69-8.34 4.54-6.62 6.05-11.88 6.05-15.2 0-3.32-2.81-4.45-4.22-4.45-1.42 0-4.25 1.03-4.25 4.19 0 3.15 2.8 4.32 4.05 4.32.95 0 1.6-.26 2.08-.46.15-.07.3-.12.42-.16l.13-.05c.45-.17.68-.25-.89 3.78a42.94 42.94 0 0 1-5.65 9.77c-.47.48-.9.07-.91-.2V21.5ZM22 35.62v-5.63c-4.1.59-5 3.45-5 4.68 0 1.23.4 2.64 2.13 2.64 1.38 0 2.49-1.13 2.87-1.7Z" fill="#484D87"/></svg>