<!-- by TradingView --><svg width="56" height="56" viewBox="0 0 56 56" xmlns="http://www.w3.org/2000/svg"><path fill="#F0F3FA" d="M0 0h56v56H0z"/><path d="M44 24h-1.5c.4 0 .5.33.5.5v7c0 1.2 1.33 1.5 2 1.5v-7c0-1 1-1 1.5-1 .8 0 1.5.4 1.5 1v5.5c0 1.2 1.33 1.5 2 1.5v-7c0-1.5-1.5-2-3-2-1.2 0-1.83.33-2 .5-.4-.4-.83-.5-1-.5ZM7 24H5.5c.4 0 .5.33.5.5v7C6 32.7 7.33 33 8 33v-7c0-1 1-1 1.5-1 .8 0 1.5.4 1.5 1v5.5c0 1.2 1.33 1.5 2 1.5v-7c0-1.5-1.5-2-3-2-1.2 0-1.83.33-2 .5-.4-.4-.83-.5-1-.5ZM21.5 24H23c.17 0 .6.1 1 .5.17-.17.8-.5 2-.5 1.02 0 2.04.23 2.59.85A2.3 2.3 0 0 1 30.5 24c1.5 0 3.5.5 3.5 2v7c-.67 0-2-.3-2-1.5V26c0-.33-.7-1-1.5-1s-1.33.67-1.5 1v7c-.67 0-2-.3-2-1.5V26c0-.6-.7-1-1.5-1-.5 0-1.5 0-1.5 1v7c-.67 0-2-.3-2-1.5v-7c0-.17-.1-.5-.5-.5ZM21 33v-7c0-.67-.6-2-3-2s-3 .67-3 1h.5c1.17-.33 3.5-.6 3.5 1v.93c-.47.36-1.18.8-2 1.07-1.5.5-3 1-3 2.5 0 1 .5 2.5 2.5 2.5 1.13 0 2-.66 2.52-1.29.1.53.58 1.29 1.98 1.29Zm-2-2.17c-.41.59-.97 1.17-1.5 1.17-1 0-1.5-.5-1.5-1.5 0-.57.65-.98 1.5-1.5.46-.3 1-.63 1.5-1.05v2.88ZM42 33v-7c0-.67-.6-2-3-2s-3 .67-3 1h.5c1.17-.33 3.5-.6 3.5 1v.93c-.47.36-1.18.8-2 1.07-1.5.5-3 1-3 2.5 0 1 .5 2.5 2.5 2.5 1.13 0 2-.66 2.52-1.29.1.53.58 1.29 1.98 1.29Zm-2-2.17c-.41.59-.97 1.17-1.5 1.17-1 0-1.5-.5-1.5-1.5 0-.57.65-.98 1.5-1.5.46-.3 1-.63 1.5-1.05v2.88Z" fill="#FF5100"/></svg>