<!-- by TradingView --><svg width="18" height="18" viewBox="0 0 18 18" xmlns="http://www.w3.org/2000/svg"><path fill="#F0F3FA" d="M0 0h18v18H0z"/><path d="m9.48 11.17-5.47-1.5 4.26-2.94 5.72 1.64-4.5 2.8Z" fill="#C4151C"/><path d="m9.52 7.09-4.8 2.77-.7-.2 4.25-2.93 1.25.36Z" fill="url(#aremeewz1)"/><path d="m8.38 10.87 1.1.3L14 8.37l-1.12-.32-4.5 2.82Z" fill="url(#bremeewz1)"/><path d="M4 5.99v3.67L14 4H7.23L4 5.99ZM14 12.01V8.34L4 14h6.77L14 12.01Z" fill="#3D5E6A"/><defs><linearGradient id="aremeewz1" x1="6.97" y1="7.97" x2="7.2" y2="8.38" gradientUnits="userSpaceOnUse"><stop stop-color="#690202"/><stop offset="1" stop-color="#C4151C"/></linearGradient><linearGradient id="bremeewz1" x1="11.11" y1="9.2" x2="11.52" y2="9.88" gradientUnits="userSpaceOnUse"><stop stop-color="#C4161C"/><stop offset="1" stop-color="#690202"/></linearGradient></defs></svg>