<!-- by TradingView --><svg width="56" height="56" viewBox="0 0 56 56" xmlns="http://www.w3.org/2000/svg"><path fill="#339" d="M0 0h56v56H0z"/><path d="M7 22h4.77l3.06 7.7 2.94-7.7h4.73v.39h-.32c-.71 0-1.18.62-1.18 1.38v8.55c0 .76.47 1.38 1.18 1.38h.32v.3h-5.98v-.3h.22c.71 0 1.26-.62 1.26-1.38V23.4L14.03 34h-.5L9.26 23.83v8.49c0 .76.58 1.38 1.3 1.38h.5v.3H7v-.3h.3c.71 0 1.29-.62 1.29-1.38v-9.35l-.54-.58H7V22Zm23.05 0h-6.6v.37h.73c.44 0 .82.37.82.83v9.64c0 .46-.38.84-.82.84h-.73V34h6.09v-.32h-.88c-.44 0-.66-.38-.66-.84v-4.38h2.05c1.7 0 3.07-1.44 3.07-3.23A3.16 3.16 0 0 0 30.05 22ZM28 27.9v-5.3h.15a2.44 2.44 0 0 1 2.38 2.5v.3c0 1.38-1.06 2.5-2.38 2.5H28Zm5.5-5.9v.4h.52c.58 0 .98.5.98 1.11v9.04c0 .61-.4 1.11-.98 1.11h-.52V34h6v-.34h-.44c-.58 0-1.06-.5-1.06-1.1V23.5c0-.61.48-1.1 1.06-1.1h.44V22h-6Zm6.92.03v.4h.51c.57 0 1.07.5 1.07 1.1v9.02c0 .61-.5 1.1-1.07 1.1h-.5V34h3.1l-.01.01h6.83l.65-4.2h-.65l-.14.87a3.18 3.18 0 0 1-3.07 2.73h-1.86c-.18-.2-.28-.51-.28-.85v-9.02c0-.6.3-1.1.88-1.1h.44v-.4h-5.9Z" fill="#F5F5FA"/></svg>