<!-- by TradingView --><svg width="56" height="56" viewBox="0 0 56 56" xmlns="http://www.w3.org/2000/svg"><path fill="#F0F3FA" d="M0 0h56v56H0z"/><path d="M27.8 43.5c1.91-.02 7.7-.4 7.7-7 0-1.5-.46-3.02-1.2-4.5h-7.46c1.36 1.69 2.33 3.31 2.16 5-.4 4-3.83 5.33-5.5 5.5.72.29 2.3.83 3.5.97.26.01.53.03.8.03ZM12.79 31h30.42a15.58 15.58 0 0 0 0-6H12.79a15.58 15.58 0 0 0 0 6Zm-.5 0a16.09 16.09 0 0 1 0-6 16 16 0 0 1 15.66-13H28a16.07 16.07 0 0 1 7.8 2.03A16 16 0 0 1 28 44a16.2 16.2 0 0 1-7.88-2.07A16.02 16.02 0 0 1 12.28 31Zm13.27-18.31c-2.18.52-5.56 2.32-5.56 7.81 0 1.24.3 2.4.79 3.5h7.89c-1.77-2.26-3.18-4.3-3.18-6 0-3.6 4-4.17 6-4a7.5 7.5 0 0 0-4.07-1.49c-.63.02-1.25.08-1.87.18Z" fill="#EE1C25"/><path d="M19 28.49c0 .96-.82 1.51-1.7 1.51-.42 0-.91-.26-1.3-.42l.13-1.08c.32.18.74.27 1.12.27.14 0 .44 0 .44-.2a.11.11 0 0 0-.03-.08c-.1-.12-.33-.12-.47-.12h-.1c-.6 0-1.09-.43-1.09-1.05 0-.85.86-1.32 1.63-1.32.38 0 .78.04 1.14.2l-.11 1.06a3.52 3.52 0 0 0-.83-.14c-.13 0-.59-.02-.57.2 0 .04.01.07.04.1l.12.05c.2.05.4.02.6.04.54.03.97.4.97.98ZM22.39 28.38c-.23.8-.78 1.62-1.7 1.62-1 0-1.45-.83-1.54-1.72a5.68 5.68 0 0 1 .02-1.23c.02-.24.06-.8.11-1.05h1.34c-.05.27-.1.92-.14 1.2-.06.48-.13 1.1.06 1.59.03.06.05.11.09.15.04.04.08.06.12.06.23 0 .32-.38.36-.54l.06-.33c.07-.5.1-1 .07-1.49 0-.13 0-.5-.02-.64h1.34c.07.72.03 1.68-.17 2.38ZM26.15 27.36c0 .84-.8 1.2-1.52 1.3-.16.02-.48 0-.63 0V30h-1v-4h1.35c.8 0 1.8.41 1.8 1.36Zm-1.27.09c0-.3-.28-.39-.53-.35l-.12.02-.03.76a.6.6 0 0 0 .08.01h.07c.25 0 .53-.16.53-.44ZM29.66 27.36c0 .5-.25.9-.7 1.15l.69 1.49h-1.29l-.44-1.26h-.35L27.52 30h-1.23l.21-4H28c.79 0 1.66.46 1.66 1.36Zm-1.28.08c0-.3-.22-.5-.52-.5h-.1a.7.7 0 0 0-.11.02l-.05.98h.07l.25-.03c.23-.05.46-.21.46-.47ZM32.56 26l-.03.6-.03.48-1.22.06-.02.33h.85l-.07.8-.85.03-.03.39h1.21l-.04.57-.03.74h-2.46l.09-4h2.63ZM37.08 26l-.26 4h-1.3v-2.07l-.58 1.64h-.5L34 28v2h-1.34l.06-4h1.47l.58 1.9.78-1.9h1.53ZM40 26l-.03.6-.04.48-1.21.06-.03.33h.85l-.06.8-.86.03-.03.39h1.21l-.03.57-.03.74h-2.47l.1-4H40Z" fill="#EE1C25"/></svg>