<!-- by TradingView --><svg width="18" height="18" viewBox="0 0 18 18" xmlns="http://www.w3.org/2000/svg"><path fill="#F0F3FA" d="M0 0h18v18H0z"/><path fill-rule="evenodd" d="M3.53 11h-.18C2.9 10.83 2 10.19 2 9.08 2 7.69 2.63 5 8.81 5S16 7.79 16 9.08a3.6 3.6 0 0 1-.45 1.92H3.53Zm0-.22c-.37-.1-.98-.57-.98-1.78 0-.68.3-1.37.98-1.95v.24h.25c.11 0 .22.1.22.2v3c0 .11-.1.18-.22.18h-.25v.11Zm1.82.06h.62c-.18-.21-.3-.64-.38-1.14a.78.78 0 0 0-.83-.7v1.49c0 .11.12.18.23.18h.36v.17Zm2.46 0h.42a1.1 1.1 0 0 1-.15-.28l-.27.28Zm2.14 0h.32v-.21h.19c.09 0 .13-.06.13-.16V9.05c-.02-.18-.1-.55-.42-.55-.22 0-.41.25-.53.48v1.43c0 .13.05.21.16.21h.15v.22Zm1.6 0h.31v-.21h.16c.09 0 .16-.07.16-.18v-1.4c-.02-.19-.13-.55-.46-.55-.2 0-.38.21-.5.44v1.53c0 .1.08.15.17.15h.16v.22Zm2.66 0h.42a1.1 1.1 0 0 1-.15-.28l-.27.28Zm.94-.22h.25c.05-.21.14-.75.14-1.25 0-1.9-1.84-3.74-6.53-3.74-2.7 0-4.44.57-5.42 1.37h1.74c.54 0 1.34.11 1.34.97 0 .68-.63.91-.94.94v.13c.37.1.52.43.55.58l.21.64c.02-.43.34-.68.65-.8.25-.1.64-.2.86-.24v-.34c0-.34-.1-.6-.4-.6-.24 0-.37.15-.4.23.04.07.12.23.12.34 0 .14-.03.34-.33.34a.35.35 0 0 1-.36-.34c0-.07.04-.85 1.08-.85.83 0 .98.57.97.85v1.65c0 .08.12.13.17.15.08-.02.15-.1.15-.18V8.66c0-.17-.14-.3-.28-.3h-.14v-.29L9.51 8l.13.58c.16-.26.45-.58.84-.58.4 0 .6.28.69.62.15-.26.45-.62.87-.62.6 0 .78.63.78 1.18v1.27c0 .1.04.17.13.18a.39.39 0 0 1-.03-.1c-.13-.6.25-.93.62-1.08.25-.1.65-.2.87-.23v-.34c0-.34-.1-.6-.41-.6-.24 0-.36.15-.4.23.04.07.12.23.12.34 0 .14-.03.34-.33.34a.35.35 0 0 1-.36-.34c0-.07.04-.85 1.08-.85.83 0 .9.57.89.85v1.65c0 .05.08.1.15.12ZM4.77 8.7V7.5c0-.1.07-.17.16-.17h.44a.5.5 0 0 1 .48.5v.34c0 .37-.29.66-.64.66h-.32a.12.12 0 0 1-.12-.12ZM8 10.23c-.09.2-.23.38-.44.38-.11 0-.33-.1-.33-.4 0-.37.15-.62.77-.72v.74Zm5.96.38c.21 0 .36-.2.45-.4V9.5c-.62.1-.77.35-.77.71 0 .31.21.4.32.4Z" fill="#01A553"/></svg>