<!-- by TradingView --><svg width="56" height="56" viewBox="0 0 56 56" xmlns="http://www.w3.org/2000/svg"><path fill="#F0F3FA" d="M0 0h56v56H0z"/><path d="M32 43.41c0 2.54-1.8 4.59-4 4.59s-4-2.05-4-4.59V9h-.5a.5.5 0 0 1 0-1h9a.5.5 0 0 1 0 1H32v34.41Z" fill="#187FBF"/><path d="M30 34v-4.4c-5.52-.4-7.97-4-8.46-5.74a9.2 9.2 0 0 0-.54 2.5c0 4.81 6.02 7.1 9 7.64Z" fill="#15A958"/><path d="M32 17.5 29 21v-1.77c-2.34.5-7.57 2.7-8 7v-3.28c0-1.54.87-6.18 8-7.57V14l3 3.5Z" fill="#BAD533"/><path d="M26 22v4.4c5.52.4 7.97 4 8.46 5.74.18-.5.54-1.7.54-2.5 0-4.81-6.02-7.1-9-7.64Z" fill="#15A958"/><path d="m24 38.5 3-3.5v1.77c2.34-.5 7.57-2.7 8-7v3.28c0 1.54-.87 6.18-8 7.57V42l-3-3.5Z" fill="#BAD533"/></svg>