<!-- by TradingView --><svg width="56" height="56" viewBox="0 0 56 56" xmlns="http://www.w3.org/2000/svg"><path fill="#F0F3FA" d="M0 0h56v56H0z"/><path d="M36.68 24.29a.24.24 0 0 1-.07.06c-.68.21-1.26.57-1.74 1.09-.07.06-.17.2-.33.43-.34-.11-.69-.15-1.03-.12a.12.12 0 0 0-.1.07.12.12 0 0 0 0 .13c.08.09.11.22.1.4a.12.12 0 0 0 .07.1c.04.02.1.04.2.04l.02.01.02.03c.01.1 0 .2-.03.27 0 .02-.02.04-.04.05-.3.27-.65.56-.82.94l-.03.03h-.03c-.29-.05-.89.08-1.14.27l1.2-3.98c.17.16.59.42.75.57.2.18.4.23.64.14.03-.01.05-.03.06-.05.04-.05.05-.12.04-.22a.1.1 0 0 0-.05-.06l-.47-.28c-.26-.13-.38-.46-.14-.69.56-.5 1-.73 1.83-1.22a.08.08 0 0 0 .04-.06c.04-.24.15-.4.34-.5a2.4 2.4 0 0 0 .76-.53h.05l.37.19h.01c.43.1.63-.43.7-.77a.94.94 0 0 1 .15-.27.12.12 0 0 1 .06-.05c.48-.16.93-.1 1.35.16a.07.07 0 0 0 .12-.05l.01-.24a.14.14 0 0 0-.1-.14.67.67 0 0 0-.15-.01l-.04-.01a.07.07 0 0 1-.02-.03c-.16-.3-.26-.73.17-.87a.1.1 0 0 1 .03 0h.52a.09.09 0 0 0 .08-.06c.3-.72.94-.82 1.6-.55a.12.12 0 0 0 .13-.03c.05-.05.07-.12.05-.22a.08.08 0 0 0-.03-.05c-.23-.15-.14-.44-.12-.68a.1.1 0 0 1 .08-.1 3.94 3.94 0 0 1 1.12-.1l.02.04v.27a.08.08 0 0 0 .03.07c.12.09.24.08.37-.03a.06.06 0 0 0 .01-.09.92.92 0 0 1-.1-.8c0-.03.02-.06.03-.08.06-.07.1-.15.11-.24a.06.06 0 0 1 .05-.05c.27-.07.34.08.5.24a.11.11 0 0 0 .16-.01c.1-.14.2-.3.28-.47.03-.07.12-.12.15-.18a.05.05 0 0 0-.01-.06c-.15-.13-.08-.34.06-.44a.8.8 0 0 1 .6-.12.07.07 0 0 1 .04.07c-.01.08 0 .14.05.2a.05.05 0 0 0 .06 0c.4-.17.5-.45.33-.84v-.04a.04.04 0 0 1 .03-.02l1.42-.47a.07.07 0 0 0 .04-.06l.01-.18a.04.04 0 0 1 .02-.04.04.04 0 0 1 .04 0c.27.18.33.31.57.66a.24.24 0 0 0 .23.1c.2-.03.39-.15.54-.35.07-.1.18-.11.31-.08.15.03.27.03.38 0h.04s.02 0 .02.02c.14.25.42.25.69.27.01 0 .02 0 .03.02l.02.03v.18a.11.11 0 0 1-.04.09c-.17.13-.63.5-1.37 1.14a.76.76 0 0 1-.43.2 2 2 0 0 0-.3.03.56.56 0 0 0-.27.22l-.02.03H46.99c-.18 0-.18.19-.17.34a.08.08 0 0 0 .05.06c.13.07.33.04.25.28 0 .03-.02.05-.04.06l-.48.3c-.12.07-.24.05-.35-.07a.05.05 0 0 0-.04-.02.05.05 0 0 0-.04.02c-.12.2-.4.24-.62.24a.22.22 0 0 0-.15.06l-.21.2a.07.07 0 0 1-.04.02 1.2 1.2 0 0 0-.65.33 3.03 3.03 0 0 1-.7.6v.52a.16.16 0 0 1-.08.14c-.3.18-.65.36-1.04.53a2.8 2.8 0 0 0-.64.4.17.17 0 0 0-.06.13c0 .27-.12.41-.36.4-.19 0-.26.03-.36-.12a.06.06 0 0 0-.05-.02.06.06 0 0 0-.04.02 3.44 3.44 0 0 1-1.48.98c-.3.05-.56 0-.85.26a.04.04 0 0 0 0 .05c.1.07.14.16.12.28a.09.09 0 0 1-.04.06c-.43.24-1.03 0-1.3.4a.1.1 0 0 0 0 .06c.08.67-.35.97-.92 1.17l-.02.01v.04Zm3.65-4.52c-.02 0-.05.03-.08.08a.07.07 0 0 1-.05.03h-.23a.1.1 0 0 0-.1.06.1.1 0 0 0 .03.12c.1.08.5.23.56 0 .03-.11 0-.2-.07-.28a.05.05 0 0 0-.06-.01Zm-4.06 2.66-.02.02a.05.05 0 0 0 0 .06l.02.02c.16.09.29.06.39-.07a.06.06 0 0 0-.01-.08.42.42 0 0 0-.12-.09.1.1 0 0 0-.05 0 .09.09 0 0 0-.05.02.58.58 0 0 1-.16.12ZM25.8 28.22v-4.16a.02.02 0 0 1 .02-.02h2.62v.01l.01.02-2.6 4.16a.02.02 0 0 1-.04.01.02.02 0 0 1-.01-.02Z" fill="#ED1C24"/><path d="M34.54 25.56c.16-.22.26-.36.33-.43a3.98 3.98 0 0 1 1.74-1.08l.07-.06h.04a7.23 7.23 0 0 1 4.36.23c.81.38 1.4 1.03 1.41 1.94a3.75 3.75 0 0 1-.07.73H39.72a.04.04 0 0 1-.03 0 .03.03 0 0 1 0-.03c.04-.42 0-.85-.38-1.12-.47-.32-1.29-.25-1.75.04a.89.89 0 0 0-.43.76c-.02.52.34.81.77 1.04a31.23 31.23 0 0 0 .8.4V28H34.37l-.05-.01a2.92 2.92 0 0 1 .22-2.42Z"/><path d="m20.77 25.57-.64 2.23a.02.02 0 0 0 0 .02.03.03 0 0 0 .03 0h1.22l.02.02.02.02-.55.85-.02.03-.24.48h-.82a.1.1 0 0 0-.1.07l-1.3 4.6a.03.03 0 0 0 .02.04h.51c-.17.17-.38.77-.36 1.03l-.01.07a.11.11 0 0 1-.05.04c-.16.08-.32.2-.48.32a.55.55 0 0 1-.5.13h-.03a.06.06 0 0 0-.03.03c-.1.27-.26.48-.47.66a.13.13 0 0 1-.07.03c-.03 0-.05-.02-.08-.06-.08-.12-.24-.11-.3.04a.06.06 0 0 1-.05.04h-.26a.1.1 0 0 0-.09.05.1.1 0 0 0 0 .1c.17.25.35.4.54.45a.09.09 0 0 1 .07.07v.04l-.08.25a.11.11 0 0 1-.13.08c-.45-.09-.79.1-1 .58l-.02.02h-.03c-.17.03-.25-.03-.38-.1a.08.08 0 0 0-.08 0c-.34.19-.43.45-.27.8a.13.13 0 0 1-.08.17c-.11.03-.21.05-.3.05-.07 0-.14.04-.17.1l-.03.02h-.04a.12.12 0 0 1-.07-.08.04.04 0 0 0-.06-.03.25.25 0 0 0-.09.08.07.07 0 0 1-.05.03.07.07 0 0 1-.06-.02l-.81-.8a.17.17 0 0 1-.05-.14c.02-.5.22-.84.43-1.28a.24.24 0 0 0 .02-.1v-.42c0-.03.01-.07.03-.1.16-.24.35-.43.54-.56a.12.12 0 0 1 .07-.02h.23c.02 0 .04 0 .05-.02.27-.24.32-.68.29-1-.01-.08-.06-.16-.16-.24-.18-.14-.36-.13-.55.03a.1.1 0 0 0-.03.07c-.01.2 0 .3-.1.47-.22.34-.54.53-.99.55a.13.13 0 0 0-.12.12v.13a.05.05 0 0 1-.02.04.06.06 0 0 1-.05.01c-.28-.03-.47.1-.55.4a1.7 1.7 0 0 0 .01.6.06.06 0 0 1-.06.05h-.19c-.02 0-.03 0-.05-.02a.07.07 0 0 1-.02-.04c0-.1.03-.18.1-.23a.04.04 0 0 0 .02-.03.04.04 0 0 0 0-.04l-.23-.22a.04.04 0 0 0-.03-.01.04.04 0 0 0-.03.01c-.2.29-.49.56-.86.29a.09.09 0 0 1-.03-.06c-.04-.24.07-.5.13-.62.12-.3.04-.6-.34-.53a.07.07 0 0 1-.05 0 .06.06 0 0 1-.03-.05c-.05-.3-.41-1.1-.02-1.37h.44a.12.12 0 0 0 .11-.08l.17-.6c.2-.21.38.11.5-.13a.07.07 0 0 1 .06-.04c.13-.01.25.03.26.2 0 .12-.03.2-.1.25a.04.04 0 0 0-.01.05v.02c.07.04.18.07.31.09.09 0 .16-.04.22-.13a.05.05 0 0 0 0-.05c-.53-.73.12-1.27.75-1.61a.04.04 0 0 0 .02-.05c-.09-.3.33-.68.54-.87l.98 2.27c-.13.18.08.44.22.55 0 0 1.42-3.02.85-4.4a.06.06 0 0 0-.05-.04l-.68.02c-.05 0-.06-.02-.04-.06.08-.35-.4-.96-.08-1.19h.44c.06 0 .11-.02.16-.07l.26-.25.16.02.03.01.01.03c0 .13.05.41.23.4a.67.67 0 0 0 .36-.13v-.02a.03.03 0 0 0 0-.02 2.13 2.13 0 0 1-.44-.6c0-.03 0-.05.02-.07l.7-.66.15.1a.04.04 0 0 0 .04.01l.02-.01c.18-.26.4-.46.63-.61.47-.32.86-.55 1.13-.95a.14.14 0 0 1 .14-.06c.2.05 1.1.42 1.34.5.13.04.32.02.56-.04Zm-3.13 4.96c.02 0 .06-.03.11-.08v-.03a.03.03 0 0 0 0-.03H17.53a.03.03 0 0 0-.02.03v.01l.01.02.11.08Zm-4 3.7a.13.13 0 0 0-.08-.2c-.03-.01-.06 0-.1.01l-.31.21a.1.1 0 0 0-.04.1.09.09 0 0 0 .06.06l.07.02a.24.24 0 0 0 .22-.04l.17-.15Zm-.84.13v.19a.06.06 0 0 0 .06.06h.01c.03 0 .06 0 .09-.02.03 0 .05-.01.07-.03a.16.16 0 0 0 .05-.05.1.1 0 0 0 .02-.05v-.02c0-.03-.03-.07-.07-.1a.3.3 0 0 0-.16-.04h-.01a.06.06 0 0 0-.05.03v.03Zm4.08.82c.05 0 .1-.03.11-.09v-.01a.04.04 0 0 0-.01-.03h-.18a.04.04 0 0 0-.02.01.04.04 0 0 0 0 .03c.01.06.05.09.1.09Zm.3.3c.07 0 .1-.03.1-.1a.04.04 0 0 0-.01-.02.04.04 0 0 0-.03-.02h-.06a7.44 7.44 0 0 1-.09.02.04.04 0 0 0 0 .02c0 .07.03.1.1.1Z" fill="#ED1C24"/><path d="M10.94 24h2.83a.04.04 0 0 1 .03.01v.04l-1.15 3.92-.02.02-.02.01H9.78a.04.04 0 0 1-.03-.01.04.04 0 0 1 0-.04l1.16-3.92.01-.02.02-.01ZM17.45 26.67c-.47.42-.87.83-1.33 1.26a.24.24 0 0 1-.16.07h-3.1l-.02-.02v-.03l.01-.02 4.02-3.9a.09.09 0 0 1 .06-.03h3.26a.02.02 0 0 1 .03.03l-.01.01-2.76 2.63ZM20.01 28v-.03a.02.02 0 0 1-.02-.02c.38-1.3.74-2.6 1.14-3.88a.1.1 0 0 1 .03-.05.1.1 0 0 1 .06-.02h4.23a.05.05 0 0 1 .05.03v.02l-.25 3.87c0 .01 0 .03-.02.04a.07.07 0 0 1-.05.02h-2.03a.05.05 0 0 1-.05-.04v-.02l.17-2.7v-.02h-.02l-.01.01-.82 2.74-.01.02-.03.03h-2.37ZM33.17 24l-1.1 3.75-.08.2c0 .02 0 .03-.02.03l-.03.01h-2.52l-.01-.03v-.01l.23-.81.62-1.98-.03-.02h-.01v.01l-1.51 2.81-.03.03a.08.08 0 0 1-.04.01H26.58l-.01-.01a.02.02 0 0 1 0-.03l2.08-3.88a.15.15 0 0 1 .05-.06.15.15 0 0 1 .08-.02h4.4Z"/><path d="M31.3 28.3a.57.57 0 0 0-.05.2c0 .04 0 .06.02.09.08.14.16.27.13.43a.1.1 0 0 1-.03.04l-.16.17h-1.4l.5-.47.02-.03v-.03c-.11-.12-.23-.16-.4-.13a3.5 3.5 0 0 1-.44.05.1.1 0 0 0-.04.13c.07.19.17.35.29.48h-.57a.06.06 0 0 0-.06.04L28.33 32c-.18.11-.34.24-.48.38a2.1 2.1 0 0 1-.97.57l-.02-.01a.04.04 0 0 1-.01-.03v-.14a.12.12 0 0 0-.11-.12c-.15 0-.51.06-.64.12l1.63-3.47v-.04a.04.04 0 0 0-.04-.02h-.32a5.7 5.7 0 0 0 2.27-1.82l-.23.83a.04.04 0 0 0 0 .03.04.04 0 0 0 .04.02h1.86Z" fill="#ED1C24"/><path d="m15.62 29 .04.01.02.03c.7 1.64 1.4 3.25 2.09 4.91v.02a.04.04 0 0 1-.04.03h-2.97a.1.1 0 0 1-.1-.06l-2.01-4.89v-.03a.04.04 0 0 1 .03-.02h2.94ZM35.2 29l.11.02-.1-.02 5.35.02c.06 0 .11.02.16.05.54.35.85.84.9 1.46a2.6 2.6 0 0 1-.87 2.25c-1.03.94-2.56 1.2-3.96 1.22-1.02.01-2.35-.1-3.16-.75-.76-.62-.92-1.55-.78-2.46l.01-.02h2.74l.03.01.01.03-.01.22c-.09 1.18 1.21 1.37 2.14 1.12.51-.15 1-.58.79-1.12-.14-.35-.52-.59-.89-.78l-1.9-.87a4.82 4.82 0 0 1-.61-.33v-.03l.01-.02h.03ZM11.1 33.32l-.18.6c0 .02-.02.04-.04.05a.12.12 0 0 1-.07.03H8.02l-.01-.02a.04.04 0 0 1 0-.03l1.44-4.9c0-.02.02-.03.03-.04l.04-.01h2.82l.01.01a.03.03 0 0 1 0 .03l-1.25 4.28ZM31.21 29.01l.46-.01h.02a.04.04 0 0 1 .03.05l-1.46 4.91-.02.03a.06.06 0 0 1-.03.01h-2.52a.03.03 0 0 1-.02-.01.03.03 0 0 1 0-.03l.66-2.24.78-2.66a.06.06 0 0 1 .06-.05h2.04Z"/><path d="M25.8 29.68v.06a11.1 11.1 0 0 0-.9 1.93h-.02v-.02l.2-1.83v-.03l.04-.03.03-.01.65-.07ZM23 29.85v.01l.01.02-.08 1.46c-.18-.02-.52-.1-.65-.03-.24.12-.3.46-.4.75v.04c0 .02.01.03.03.04.06.05.13.07.21.06a.1.1 0 0 0 .06-.03c.17-.21.34-.17.55-.13h.04l.03-.02.1-.09-.1 1.77v.02l.01.01h.02l.01.01h2.6a.1.1 0 0 0 .06-.02.21.21 0 0 0 .07-.08c.07.06.06.71.07.77v.02a.04.04 0 0 1-.01.02h-.02a1.6 1.6 0 0 0-1.3.73.13.13 0 0 0-.02.07v.22c0 .03 0 .06-.02.08-.27.35-.54.42-1 .55a.08.08 0 0 0-.05.04c-.08.2.08.55.17.78a.07.07 0 0 1 0 .07.07.07 0 0 1-.06.02c-.26-.02-.67-.24-.94.07a.23.23 0 0 0-.06.19c.04.24.07.49-.07.7a.19.19 0 0 1-.18.1c-.19-.02-.4-.1-.6.04a.1.1 0 0 0-.04.11l.02.03c.07.1.11.2.12.31a.08.08 0 0 1-.03.07.33.33 0 0 0-.13.25.1.1 0 0 1-.06.1l-1 .32-.02.02c-.14.19-.38.4-.7.65a.14.14 0 0 1-.07.03.55.55 0 0 1-.39-.1.11.11 0 0 0-.08-.02 9.47 9.47 0 0 1-2.09.09.06.06 0 0 1-.02-.04c-.03-.43.16-.74.56-.93a.04.04 0 0 0 .01-.02.03.03 0 0 0 0-.03c-.07-.14-.13-.22 0-.4a.45.45 0 0 0 .08-.3.04.04 0 0 1 0-.02.05.05 0 0 1 .04-.02h.22a.07.07 0 0 0 .06-.03c.27-.5.59-.89 1-1.4a.14.14 0 0 0 .02-.13c-.1-.38.14-.89.31-1.25a.14.14 0 0 1 .1-.08 5.19 5.19 0 0 0 1.24-.57.44.44 0 0 0 .05-.24v-.03l.03-.01c.1-.01.16-.04.2-.08a.12.12 0 0 0 .03-.07.78.78 0 0 1 .14-.42c.15-.17.21-.32.2-.47a.05.05 0 0 1 .02-.03.05.05 0 0 1 .03-.02h.17a.07.07 0 0 0 .06-.05.07.07 0 0 0-.03-.07c-.12-.09-.16-.2-.06-.34.07-.1.1-.22.1-.38a.16.16 0 0 1 .05-.11l.06-.06v-.01a.04.04 0 0 0 0-.06c-.11-.08-.45-.1-.6-.1l.67-2.3 1.24-.05Zm-.52 6.68c.03 0 .07-.02.1-.06a.03.03 0 0 0 0-.06.26.26 0 0 0-.2 0 .03.03 0 0 0-.01.03v.03c.04.04.08.06.11.06Z" fill="#ED1C24"/><path d="m21.96 29.66-.67 2.24-.6 2.05a.07.07 0 0 1-.07.05h-2.35a.03.03 0 0 1-.02-.04l1.45-4.9.03-.04a.1.1 0 0 1 .05-.02h2.34l.01.02a.05.05 0 0 1 .01.04l-.18.6ZM24.97 31.38l.01.02H25v-.02a13.72 13.72 0 0 1 1.08-2.36.14.14 0 0 1 .07-.02h1.97l.02.01.02.01a.04.04 0 0 1 0 .04l-1.84 3.37-.05.12-.47.86-.27.5a.21.21 0 0 1-.07.07.1.1 0 0 1-.06.02h-2.62a.04.04 0 0 1-.02-.02v-.02l.14-2.3.03-.6.11-2 .02-.04a.06.06 0 0 1 .04-.01h2.05l.02.01a.06.06 0 0 1 .02.05c-.05.7-.14 1.5-.22 2.3Z"/><path d="M26.27 32.85c.1.37-.14.72-.47.88l.47-.88Z" fill="#ED1C24"/></svg>