<!-- by TradingView --><svg width="56" height="56" viewBox="0 0 56 56" xmlns="http://www.w3.org/2000/svg"><path fill="#F0F3FA" d="M0 0h56v56H0z"/><path d="M28 37c13.25 0 24-4.03 24-9s-10.75-9-24-9-24 4.03-24 9 10.75 9 24 9ZM17.78 26h2.54l-1.26-4H33l-.75 4h6.1l-.89 2h-2.29l.09-.5h-1l-.9 4h.9l.43-1.13h2.12L35.76 33H30.6l.7-7.5h-1.33L29.5 33h-2.37v-7.5h-1.09V33h-1.92l-2.06-7.5h-1.38l2.25 7.5h-2.25l-2.9-7ZM7.5 26h3.6l1.88 3h1.43l-1.63-3h2.82l3.19 7h-2.2l-1.37-2.51h-1.3L15.5 33h-2.56L7.5 26Zm33.4 0h7.6l-5.06 7h-5.82l3.27-7Zm2.08 1.5h1.1l-2.05 4h-1.04l2-4Z" fill="#2F3486"/></svg>