<!-- by TradingView --><svg width="56" height="56" viewBox="0 0 56 56" xmlns="http://www.w3.org/2000/svg"><path fill="#F0F3FA" d="M0 0h56v56H0z"/><path d="M15.72 11.05c.49-.13.95 0 1.45.28l13.89 7.89 5.42 3.1c.98.54 1.93 1.1 2.88 1.65 1.02.6 1.62 1.41 1.64 2.42v12.75L17.5 24.8c-1.6-1.05-2.42-2.64-2.46-4.76-.05-2.55-.05-5.24 0-8.06 0-.21.07-.42.2-.59a.9.9 0 0 1 .48-.34Z" fill="url(#a)"/><path d="M30.16 32.51 41 39.14l-11.04 6.74a.86.86 0 0 1-.87 0c-4.99-2.87-8.19-4.73-9.59-5.58-.2-.11-.37-.27-.54-.47a.75.75 0 0 1-.03-.9.74.74 0 0 1 .24-.22l8.93-5.12 2.06-1.08Z" fill="url(#b)"/><defs><linearGradient id="a" x1="15" y1="17.87" x2="40.98" y2="29.51" gradientUnits="userSpaceOnUse"><stop stop-color="#E4676B"/><stop offset="1" stop-color="#7C2035"/></linearGradient><linearGradient id="b" x1="31.73" y1="34.3" x2="18.82" y2="44.3" gradientUnits="userSpaceOnUse"><stop stop-color="#00405A"/><stop offset="1" stop-color="#4D93AD"/></linearGradient></defs></svg>