<!-- by TradingView --><svg width="18" height="18" xmlns="http://www.w3.org/2000/svg"><path fill="#003664" d="M0 0h18v18H0z"/><path fill="#fff" d="M2 6h2v6H2z"/><path fill="#CF0110" d="M2 6h1v6H2z"/><path d="M5 6h1.55v6H5V6z" fill="#fff"/><path d="M8.475 6H5l1.55 1.319h1.225c.29 0 .525.304.525.659 0 .355-.235.692-.525.692H7.25v1.286h.35c.387 0 .7.285.7.758V12h1.75v-1.286c0-.686-.329-1.278-.805-1.552.564-.18.98-.808.98-1.555 0-.887-.7-1.607-1.75-1.607zm6.037 0H11v6h1.5V7.286h1.225c.193 0 .35.192.35.428 0 .237-.157.429-.35.429H13v1.286h.725c.29 0 .525.287.525.642 0 .356-.235.643-.525.643H13V12h1.6c.773 0 1.4-.768 1.4-1.714 0-.773-.417-1.426-.99-1.64.379-.226.64-.702.64-1.253 0-.77-.51-1.393-1.138-1.393z" fill="#fff"/></svg>