<!-- by TradingView --><svg width="56" height="56" viewBox="0 0 56 56" xmlns="http://www.w3.org/2000/svg"><path fill="#0A2345" d="M0 0h56v56H0z"/><path d="M38.5 21.59 39 20H10.58L5 35.98h13.93l6.78.02.29-1h-9.66l.6-.42h9.2l.48-1.09h3.54l.17-.49H19.26l.6-.42h10.6L30.9 31h-9.1l.6-.42h8.64l.5-1.58h-6.89l.61-.41h6.42l.47-1.17H12.7V27h19.57l.46-1.58H12.3V25h25.05l.44-1.33H12.23v-.42h25.7l.43-1.25h-26.9v-.41H38.5ZM43 25h-4.37L36 33h4.37L43 25ZM50 20h-5.43L43 25h5.43L50 20ZM36 33h-3.97L31 36h3.97L36 33Z" fill="#fff"/></svg>