<!-- by TradingView --><svg width="56" height="56" viewBox="0 0 56 56" xmlns="http://www.w3.org/2000/svg"><path fill="#F0F3FA" d="M0 0h56v56H0z"/><path d="M24.45 35.78c2.54 2.46 4.85 2.39 5.7 2.05l-1.83-20.98c-1.8.04-6.05.53-8.7 2.13-3.33 2-2.28 5.71-1.32 7.54.95 1.82 2.96 6.19 6.15 9.26Z" fill="url(#aopj4rcr0)"/><path d="M21.22 27.56c1.48 7.94 6.44 10.16 8.74 10.28 1.55 0 2.79-.76 3.21-1.14l8.74-7.49c2.2-1.88 2.22-3.9 1.95-4.67.38-.5 1.14-1.81 1.14-3.06.05-2.33-4.37-6.48-13-6.48-8.64 0-12.62 2.63-10.78 12.56Z" fill="url(#bopj4rcr0)"/><path d="M24.4 33.31c2.04 3.53 4.78 4.63 5.9 4.74 1.21 0 2.71-1.53 3.31-2.3a71.07 71.07 0 0 0 6.6-7.83c2.4-3.53.7-5.47-1.46-6.61a16.8 16.8 0 0 0-8.15-2.2c-3.4 0-6.2 1.6-7.27 3.82-1.07 2.22-1.5 5.97 1.06 10.38Z" fill="url(#copj4rcr0)"/><path d="M14.8 40c3.78 0 8.4-.89 10.23-1.34l-.78-.93c-1.06-1.79-3.73-5.8-5.85-7.52-2.13-1.72-3.75-1.25-4.3-.81-.7-.22-2.35-.31-3.26 1.11a5.33 5.33 0 0 0-.37 5.06c-.13 1.48.54 4.43 4.32 4.43Z" fill="url(#dopj4rcr0)"/><path d="M13.55 38.14c2.98 1.13 8.74.88 11.25.6l-1.24-1.98c-2.8-4.16-8.3-7.5-9.39-7.32-.86.15-.77 1.88-.62 2.73a2.2 2.2 0 0 0-2.36 1.11c-.8 1.46-1.36 3.44 2.36 4.86Z" fill="url(#eopj4rcr0)"/><path d="M20.33 33.38a28.04 28.04 0 0 1 4.85 5.44 40.51 40.51 0 0 1-7.82-1.3c-3.47-1.04-4.13-3.03-2.95-4.63 1.18-1.6 3.02-1.94 5.92.5Z" fill="url(#fopj4rcr0)"/><defs><linearGradient id="aopj4rcr0" x1="18.33" y1="20.33" x2="24.18" y2="37.86" gradientUnits="userSpaceOnUse"><stop stop-color="#F8C25B"/><stop offset="1" stop-color="#FD365D"/></linearGradient><linearGradient id="bopj4rcr0" x1="37.67" y1="17.23" x2="24.67" y2="32.33" gradientUnits="userSpaceOnUse"><stop stop-color="#FFD352"/><stop offset="1" stop-color="#E05574"/></linearGradient><linearGradient id="copj4rcr0" x1="34.95" y1="21.15" x2="31.68" y2="37.99" gradientUnits="userSpaceOnUse"><stop stop-color="#E5276D"/><stop offset="1" stop-color="#A63091"/></linearGradient><linearGradient id="dopj4rcr0" x1="11.38" y1="31.28" x2="22.54" y2="38.37" gradientUnits="userSpaceOnUse"><stop stop-color="#F2D039"/><stop offset="1" stop-color="#F68968"/></linearGradient><linearGradient id="eopj4rcr0" x1="11.13" y1="32.64" x2="23.16" y2="38.84" gradientUnits="userSpaceOnUse"><stop stop-color="#EB9622"/><stop offset="1" stop-color="#E82744"/></linearGradient><linearGradient id="fopj4rcr0" x1="14.11" y1="34.54" x2="25.22" y2="36.8" gradientUnits="userSpaceOnUse"><stop stop-color="#EA2171"/><stop offset="1" stop-color="#9F1E92"/></linearGradient></defs></svg>