<!-- by TradingView --><svg width="56" height="56" viewBox="0 0 56 56" xmlns="http://www.w3.org/2000/svg"><path fill="#F0F3FA" d="M0 0h56v56H0z"/><path d="M32.98 38.28 21 38.96 37.34 34l-1.42 3.62L47 35.99 31.59 41l1.39-2.72Z" fill="#E4782C"/><path d="M20.67 37.26c.63-.86 1-1.33 1.22-1.63.08-.1.18-.13.3-.06 1.3.78 2.18 1.44 3.71 1.43a.1.1 0 0 0 .1-.1v-.15a.27.27 0 0 0-.23-.26A7.74 7.74 0 0 1 19 28.64a5.9 5.9 0 0 1 6-6.04c1.71 0 3.23.5 4.56 1.59 2.6 2.13 3.55 4.43 2.85 7.76-.02.11-.08.21-.17.28a.5.5 0 0 1-.3.11h-1.66c-.18 0-.27.09-.27.27v.13c0 .15.08.23.23.23l6.86.03c.28 0 .56-.2.5-.5a.2.2 0 0 0-.2-.16h-2.58a.27.27 0 0 1-.26-.32l3.78-18.01a.57.57 0 0 1 .56-.45h1.96c.1 0 .14-.05.14-.14v-.14c0-.18-.09-.27-.27-.28-4.47 0-6.57.92-8.8 3.39a28.69 28.69 0 0 0-3.96 5.9.4.4 0 0 1-.5.18 6.54 6.54 0 0 0-9.03 6.09 8.68 8.68 0 0 0 2.91 6.32c.06.05.1.12.11.2.01.09 0 .17-.05.24-1.33 2-2.77 3.81-4.86 4.73a4.2 4.2 0 0 1-6.03-3.58c0-.29.08-.56.21-.8a.2.2 0 0 1 .17-.1.2.2 0 0 1 .17.1c.27.56.72 1.17 1.4 1.18.73.01 1.53-.35 1.53-1.33 0-1.02-.93-1.54-1.67-1.52-1.19.02-2.33 1.4-2.33 2.55 0 .3.06.6.17.92.73 2.09 2.36 3.5 4.42 3.53.36 0 .73-.03 1.11-.12 2.04-.44 3.75-1.96 4.97-3.62Zm15.4-22.78A407.06 407.06 0 0 1 33.1 28.3v.02c-.04.13-.09.12-.14-.02a9.53 9.53 0 0 0-4.43-5.47.24.24 0 0 1-.1-.32c.1-.2.2-.4.32-.6.76-1.42 1.69-2.86 2.8-4.32a11.63 11.63 0 0 1 4.17-3.37.24.24 0 0 1 .13-.03c.14.02.24.15.21.29Z" fill="#AF2026"/><path d="M23.33 31.36a2.4 2.4 0 0 1-.24-1.89c.03-.12.1-.18.23-.17 1.66.06 3.97-.59 4.59-2.37.06-.17.09-.33.09-.48.03-1.12-1.4-1.6-2.35-1.4-2.22.47-3.67 3.04-3.65 5.2.02 1.6 1.03 2.98 2.8 2.72a4.16 4.16 0 0 0 2.63-1.65c.02-.07-.15-.17-.2-.12-1.11.97-2.88 1.9-3.9.16Zm.54-2.38c-.12.02-.22.02-.3.02-.11 0-.18-.02-.2-.06-.06-.06-.05-.24.02-.53a4.52 4.52 0 0 1 1.75-2.64c.74-.51 1.22-.53 1.62-.06.17.2.24.42.24.64a2.2 2.2 0 0 1-.7 1.41 4.2 4.2 0 0 1-2.43 1.22Z" fill="#E4782C"/></svg>