<!-- by TradingView --><svg width="56" height="56" viewBox="0 0 56 56" xmlns="http://www.w3.org/2000/svg"><path fill="#F0F3FA" d="M0 0h56v56H0z"/><path d="M20.8 10v.1a.37.37 0 0 0-.18.07.44.44 0 0 0-.13.16l-.18.44L19.1 14H19l-.97-2.52L16.96 14h-.11l-1.28-3.2a3.43 3.43 0 0 0-.27-.58c-.05-.06-.14-.1-.26-.11V10h1.68v.1c-.13.01-.22.03-.27.07a.17.17 0 0 0-.06.14c0 .07.04.23.14.46l.76 1.9.61-1.48-.16-.42a3.01 3.01 0 0 0-.2-.45.44.44 0 0 0-.17-.16.6.6 0 0 0-.27-.05V10h1.88v.1c-.13 0-.23.02-.28.04a.18.18 0 0 0-.13.17c0 .05.04.18.13.41l.7 1.85.64-1.67.12-.36a.75.75 0 0 0 .03-.17.23.23 0 0 0-.08-.19c-.06-.04-.16-.07-.31-.07V10h1ZM23.58 10.33v1.3h.07c.6 0 1 .03 1.05-.53h.3v1.62h-.3c-.07-.6-.44-.6-1.12-.6V13c0 .22 0 .44.02.49.02.04.06.08.1.11.06.04.14.05.25.05h.23c.71 0 .99-.26 1.17-.9h.34L25.45 14H22v-.26h.22c.12 0 .2-.02.28-.06a.26.26 0 0 0 .11-.14c.02-.05.03-.17.03-.36v-2.34l-.01-.33a.28.28 0 0 0-.1-.15.5.5 0 0 0-.3-.08H22V10h3.35v1h-.3c-.12-.6-.53-.67-1.07-.67h-.4ZM30 11.84c.38.08.64.28.79.4.21.18.32.4.32.68a.9.9 0 0 1-.36.73c-.28.23-.7.35-1.25.35H27.5v-.26c.45 0 .49-.17.49-.58V10.8c0-.42-.07-.58-.49-.58V10h1.87c.45 0 .76.04.95.12a.97.97 0 0 1 .6.86c0 .2-.07.36-.2.5-.14.15-.38.27-.72.36Zm-1-.18c.53 0 .97-.11.97-.68 0-.6-.45-.64-.97-.64v1.32Zm0 .46v1.07c0 .22-.01.46.27.46.5 0 .83-.24.83-.7 0-.32-.15-.62-.48-.74a1.66 1.66 0 0 0-.62-.09ZM40.99 12.79 40.64 14h-3.17v-.22h.13c.36 0 .4-.24.4-.56v-2.4c0-.3-.04-.56-.4-.56h-.13V10h2.08v.26h-.17c-.38 0-.38.25-.38.57v2.3c0 .6.3.54.8.54.53 0 .7-.38.84-.88H41ZM29.27 44.76 28.93 46h-3.46v-.22h.13c.39 0 .4-.26.4-.58v-2.35c0-.32 0-.58-.4-.58h-.13V42h2.08v.27h-.17c-.37 0-.38.25-.38.58v2.26c0 .61.28.55.8.55.53 0 .98-.38 1.13-.9h.34ZM34 10.33v1.33h.05c.6 0 1 .04 1.05-.54h.35v1.66h-.35c-.07-.61-.42-.61-1.1-.61v.9c0 .3-.01.57.34.57h.24c.7 0 .98-.27 1.17-.91h.34L35.85 14H32.5v-.27h.13c.38 0 .38-.26.38-.57v-2.3c0-.32-.01-.58-.38-.58h-.13V10h3.26v.95h-.3c-.12-.62-.54-.62-1.07-.62H34ZM21.95 42.04A1.9 1.9 0 0 1 24 43.99c0 1.16-.83 2-2.01 2A1.92 1.92 0 0 1 20 44c0-1.12.83-2 1.95-1.95Zm.03.18c-.64 0-.98.58-.98 1.8 0 .68.09 1.77.98 1.77.87 0 1.02-1.07 1.02-1.75 0-.7-.08-1.82-1.02-1.82ZM33.28 44.84h-1.1l-.25.43c-.17.4.08.49.44.51V46h-1.58v-.22c.33-.05.55-.36.68-.64L32.86 42h.25l1.43 3.21c.11.26.29.54.6.56V46h-1.99v-.22h.08c.4 0 .4-.22.28-.5l-.23-.44Zm-.17-.49-.36-.97-.38.97h.74ZM38.37 44.1v1.08c0 .2.01.34.04.4.03.05.07.09.14.12.06.03.18.05.36.05V46H37v-.25c.18 0 .29-.02.35-.05a.29.29 0 0 0 .13-.13c.03-.05.04-.18.04-.39v-2.37c0-.2-.01-.33-.04-.39a.27.27 0 0 0-.13-.13.84.84 0 0 0-.35-.04V42h1.56c.48 0 .82.03 1.04.1.22.06.4.18.53.35.14.17.2.38.2.6a.9.9 0 0 1-.3.7c-.13.12-.32.2-.56.27l.87 1.2c.1.16.44.46.66.47v.3h-1.16l-1.38-1.9h-.09Zm0-1.7v1.36c.57 0 1.02-.05 1.02-.69 0-.47-.44-.67-.87-.67h-.15ZM18.2 42l.04 1.28h-.13c-.06-.32-.2-.58-.44-.77-.23-.2-.48-.3-.76-.3a.76.76 0 0 0-.5.16.45.45 0 0 0-.18.35c0 .09.02.16.07.23a1 1 0 0 0 .28.26c.1.06.32.17.67.33a3 3 0 0 1 1 .62 1 1 0 0 1 .25.67c0 .32-.14.6-.41.83-.27.23-.62.34-1.04.34-.13 0-.26-.01-.37-.04a3.02 3.02 0 0 1-.44-.13.72.72 0 0 0-.25-.06.32.32 0 0 0-.17.06.4.4 0 0 0-.14.17h-.12v-1.44h.12c.09.4.26.71.52.92.26.22.54.32.84.32.23 0 .4-.05.55-.17a.5.5 0 0 0 .2-.4.48.48 0 0 0-.08-.26.83.83 0 0 0-.24-.24c-.1-.08-.3-.18-.56-.3a5.04 5.04 0 0 1-.83-.43 1.4 1.4 0 0 1-.38-.4 1 1 0 0 1 .23-1.27c.25-.22.56-.33.93-.33a1.72 1.72 0 0 1 .75.18c.14.06.23.09.3.09.04 0 .09-.02.12-.05.03-.03.06-.1.08-.22h.1Z"/><path fill="#F4982B" d="M15 15h26v1H15zM15 17h26v1H15zM15 19.5h26v1H15zM15 22h26v1H15z"/><path d="M39.35 28.4H35.5c-.03.56-.12 1.1-.28 1.62h3.94c.1-.53.17-1.07.2-1.62Zm-17.58 3.69a7.1 7.1 0 0 1-.83-1.53h-3.98c.14.53.3 1.04.52 1.53h4.3Zm.76.9a7.53 7.53 0 0 0 2 1.44h-5.69c-.35-.45-.66-.93-.93-1.44h4.62Zm14.64 1.44h-5.73a7.54 7.54 0 0 0 2-1.44h4.66c-.28.5-.59.99-.93 1.44Zm-16.19 2.12c-.49-.37-.95-.78-1.37-1.22H36.4c-.42.44-.87.85-1.36 1.22H20.98Zm2.3 1.35a11.73 11.73 0 0 0 9.44 0h-9.43Zm15.25-5.81H34.2c.34-.47.62-.99.83-1.53h4.01c-.13.53-.3 1.04-.51 1.53Zm-18.06-3.7c.03.57.12 1.1.28 1.63h-3.9c-.11-.53-.17-1.07-.2-1.62h3.82Zm18.89-.54H35.5a6.94 6.94 0 0 0-.23-1.64h3.93c.09.53.14 1.08.15 1.64Zm-18.9 0c.01-.56.1-1.11.23-1.64H16.8c-.1.53-.14 1.08-.15 1.64h3.8Zm14.65-2.18h3.99c-.14-.61-.33-1.2-.57-1.76h-4.35c.39.53.7 1.13.93 1.76ZM21.79 23.9a7.1 7.1 0 0 0-.93 1.76h-3.95c.14-.61.33-1.2.57-1.76h4.31Zm-4.16-.36h4.43a7.49 7.49 0 0 1 2.23-1.83h-5.57c-.42.57-.79 1.19-1.09 1.83Zm16.28 0a7.49 7.49 0 0 0-2.23-1.83h5.6c.43.57.8 1.19 1.1 1.83H33.9Zm-2.98-2.18h6.08a11.51 11.51 0 0 0-9-4.26c-3.68 0-6.94 1.67-9.02 4.26h6.05a7.78 7.78 0 0 1 5.89 0Z" fill="#F4982B"/><path fill="#F4982B" d="M15 24h26v1H15zM15 26h26v1H15zM15 28.5h26v1H15zM15 31h26v1H15zM15 33h26v1H15zM15 35h26v1H15zM15 37.53h26v1H15zM15 40h26v1H15z"/></svg>