<!-- by TradingView --><svg width="56" height="56" viewBox="0 0 56 56" xmlns="http://www.w3.org/2000/svg"><path fill="#F0F3FA" d="M0 0h56v56H0z"/><path d="M34.07 11.03c-.1.09-.13.23-.1.43.07.67.27.57 1.14 1.32.5 7.6-.1 5.54 2.3 2.3.6-.19 1.09-.66 1.74-.58.02 1.18-.02 2.37-.03 3.55-.02 4.71 2.08 2.51 4.53 1.67a11.74 11.74 0 0 0-1.78 4.76c-.14 2.17 1.17 2.2 3.24 3.23.12.06.25.1.38.12-1.52.03-3.42 1.49-4.3 2.45-.13.16-.48.36-.38.6l-.13.04c-.04.01-.05.03-.05.07l.02.1c-2.15-2.2-12.4-1.48-20.13-1.87-.25.03-.49.03-.72 0a1.94 1.94 0 0 0-.54-.02c-.42.07-.85.19-1.27.36.08-.12.13-.62-.12-.44-2.9-.28-2.54-2.13-2.8-2.87-.17-.5-.31-1.2-.43-2.1-.13-.98-.43-1.62-.86-2.6-.16-.27-.33-.53-.5-.78-.03-.06-.05-.22-.03-.48 0-.03.02-.06.05-.07.44-.15 1.06 1.35 1.33 1.82.52.93 1.35 1.11 2.1 1.73.25.2.49.44.73.72.03.03.06.03.08 0 .4-.6-.15-1.62.68-1.96a.14.14 0 0 0 .07-.06c.37-1.02-1.19-1.05-1.23-2.06 0-.12 0-.25.04-.37a.18.18 0 0 1 .06-.08c.24-.22-.04-1.3-.09-1.64-.15-1-.06-1.83 0-2.36.05-.51.08-.87.07-1.07.32-.35.15-.41 1-.23.22.1.43.2.62.34 1.2.84 1.65.64 1.7-.59.56 2.93.17 3.77.62.05.06-.48.16-.87.3-1.17.28-.6 1.4-1.65.75-2.23 2.18.08 2.85 1.31 4.1 2.68.97 1.04-.08 1.85 1.48.7.22-.15.51-.16.7.05.17.2.42.33.73.37a.2.2 0 0 0 .2-.08c.84-1.13 1.35-2.72 2.8-3.19.43-.14.79-.38 1.23-.44.24-.03.47-.07.7-.12Z" fill="#ECEAD7"/><path d="M35.54 16.24c.01.14.05.28.11.4.25.54.64 1.1.99 1.59.22.3.4.67.52 1.08.09.3.09.61 0 .95-.02.07-.12.1-.17.04-.33-.32-.02-.9-.53-1.3-.27-.2-.4-.52-.8-.53a1.15 1.15 0 0 1-.6-.18c-.45-.31-.93-.65-1.15-1.17l-.39-.96c-.05-.16 0-.36.18-.4.33-.07 1.64.58 1.58-.02-.16-1.46-.3-2.79-1.5-3.74a.17.17 0 0 1-.06-.19c.04-.11.31-.75.35-.78.22-.05.38-.04.48.03.13.08.27.23.4.44.59.92.66 1.83.76 2.87.13 1.3-.34.54-.17 1.87ZM39.08 20.23c-.1.04-.2.04-.24 0-.05-.03-.06-.1-.04-.19.05-.23.08-.47.11-.7.14-1.13.22-2.14.2-3.3 0-.24 0-.5.02-.77.02-.36-.06-.68.18-.95a.14.14 0 0 1 .23.03c.12.22.2.45.24.68l.29 1.62c.12.66.1 1.33-.07 2-.1.4-.3.76-.46 1.13-.06.16-.22.3-.46.45ZM17.14 14.9c0 .2-.02.55-.07 1.06-.06.53-.01 1.3.14 2.3.06.4.11 1.1.02 1.5-.13.24-.27.34-.41.3-.14-.05-.26-.16-.37-.33-.18-.52-.49-1.08-.42-1.64.03-.28.04-.56.04-.84-.02-.85.2-1.57.37-2.4l.14-.5c.41-.16.6.02.56.54ZM34.16 23.5c1.12 3.04-2.64 3.74-4 5.67-7.91 6.5-8.78-1-9.77-3.35-.03-1.25 1.2-2.23 1.85-3.12.64-.9 2.05-1.66 3.03-2.14.15-.08.28-.16.39-.25.1-.08.15-.06.13.08-.31 2.65 1.23 2.7 1.23-.45-.17-.7.31-.59.44-1.19.12-.2.32-.28.58-.23.26.06.46.14.62.24.57.35 1 .79 1.55 1.15 1.67 1.08 3.26 2.36 3.95 3.6Z" fill="#FFDB5A"/><path d="M27.46 18.75c-.19.89-.78.56-.27 1.7.2.47.13 1.11.04 1.59-.07.32-.19.63-.37.92a67.27 67.27 0 0 0-2.65 4.78.62.62 0 0 1-.2.23c-.33.24-1.32-1.15-1.37-1.25a.85.85 0 0 1-.04-.65l.2-.54c.33-.83.77-1.6 1.02-2.44 1.53-5.18.08-1.6 3.64-4.34Z" fill="#FFE67E"/><path d="M16.45 19.73c.11.17.23.28.37.32.14.05.28-.05.41-.3a.22.22 0 0 1-.07.21.18.18 0 0 0-.06.08c-.29.96 1.42 1.18 1.38 1.84-.11 1.87-.58 2.1-.87 2.5l-.07.1c-.02.04-.05.04-.08 0a6.57 6.57 0 0 0-.73-.71c-1.11-.92-2.7-.35-3.4-1.55-.17-.3-.32-3.27-.88-2.12.02-.26.16-.4.42-.4.44-.02.87 0 1.3.1.26.07.52.12.76.17 1.14.2 1.39.64 1.52-.24Z" fill="#DADAC7"/><path d="M43.65 19.72c.2.27.3.55.32.83.14 1.82-.26 3.63-.8 5.35l-.37.25c.05-.1.02-.17-.1-.21-.08-.03-.15 0-.19.08-.4.86-1.76 1.67-2.58 2.18a4.55 4.55 0 0 0 1.23-2c.15-.6.27-1.22.38-1.88.05-.33.24-.93.59-1.82a12.76 12.76 0 0 1 1.52-2.78ZM13.78 21.54c.43 1 .73 1.63.86 2.6.12.91.26 1.61.43 2.1 1.2 3.43 1.61 1.93-1.2.7-.04-.01-.06 0-.06.05.01.15.31.9-.01.3a8.72 8.72 0 0 0-.71-1.38l-.4-1.54c-.12-.55-.2-1.07-.25-1.57-.05-.67-.08-1.37-.07-2.1 0-.23.03-.44.08-.6.14-.28.32-.36.54-.24l.05.06c.06.17.1.33.13.48.02.14.05.27.1.38.12.28.29.54.5.76Z" fill="#FFDB5A"/><path d="M40.13 20.24c.17-.06.31-.1.42-.11l1.58-.25c.08 0 .82-.18.75.1a5.8 5.8 0 0 1-1.65 2.21.05.05 0 0 1-.05 0c-.4-.2-.9-1.43-1.47-.84l-.17.2c-.42.5-.78.74-1.4.66a.14.14 0 0 1-.1-.06c-.07-.1-.09-.71.09-.7.02 0 .04-.02.05-.04.31-.6 1.39-.94 1.95-1.17Z" fill="#DADAC7"/><path d="M35.76 26.65c.08 1.69.26 2.3-.17 3.6-4.54 1.7-10.61 4.14-13.84 1.38-1.14-.97-1.02-2.15-1.24-3.44a3.25 3.25 0 0 1-.01-1.01c.03-.23 0-.45.04-.67.02-.14.05-.14.09-.01 4.49 7.37 9.43 1.17 12.92-.5.86-.41.61-2.14.56-2.83.49-1 1.48-.37 1.65 3.48Z" fill="#F4BF4D"/><path d="M43.17 25.9c-.04.1-.04.17-.02.23.12.26.86.42 1.1.65.04.05.24.28.1.33h-.03c-.16-.01-.31-.03-.47-.03-1.32-.03-1.31 1.56-2.1 2.05a.5.5 0 0 0-.12.11c-.2.26-.49.53-.78.68-.2.1-.35.3-.6.2a1.68 1.68 0 0 1-.46-.37.99.99 0 0 0-.5-.24l.29.02a.5.5 0 0 0 .26-.05c.83-.4 1.4-.82 1.98-1.5.25-.29.68-.8.79-1.2.05-.2.12-.42.2-.63l.36-.25ZM13.8 27.28c.13.3.31.58.53.83.1.1.23.14.33.24.44.41 1.12.92 1.68 1.16.24.1.53-.14.79-.14-.28.1-.63.17-.84.39-.1.1-.2.2-.3.27-.5.38-2.78-1.62-2.87-1.7-.15-.13-1.92-.67-1.86-.92 0-.02.02-.04.04-.06l.77-.65c.33-.3.68-.22 1.03-.41a.09.09 0 0 0 .05-.08c.03-.7.54.74.65 1.07Z" fill="#DADAC7"/><path d="M42.8 26.15c-.23.69-.5 1.27-.98 1.83-.22.26-.4.55-.68.74-.4.28-.84.54-1.3.76a.5.5 0 0 1-.26.05l-.3-.02-.93-.4a.07.07 0 0 1-.02-.02c-.05-.07.08-.16.13-.18 1.08-.27 3.54-1.81 4.05-2.9.04-.08.1-.1.2-.07.1.04.14.11.1.21ZM17.4 28.75c.07.02.19.07.37.16.08.04.11.11.1.2l-.74.26c-.2 0-.39.05-.57.15-.06.03-.13.03-.22-.01a6.57 6.57 0 0 1-2-1.4c-.54-.6-.48-.47-.53-1.12 0-.07.42.14.5.19.07.04.14.06.21.07.5.03 1 .13 1.32.51.1.12.18.36.34.45.38.23.8.4 1.22.54Z" fill="#E1A541"/><path d="M12.97 28.78c.9.34 1.79 1.15 2.44 1.83.03.03-.01.11-.05.14-.01.01.02 0 0 0-1 .22-2.21-.27-3.11-.78a9.04 9.04 0 0 1-1-.66c-.25-.19-.44-.48-.68-.69-.2-.17-.48-.38-.55-.63-.05-.16 0-.26.16-.29.72-.14 2.17.84 2.8 1.08ZM45.49 27.83c.2.02.36.1.48.2a.1.1 0 0 1-.02.17c-.45.25-.54.7-.93.99-.4.3-.78.57-1.15.8-.44.28-.9.47-1.4.58l-.82.2c-.28.07-.56.1-.84.1-.04-.08-.04-.14-.01-.17l.4-.42c.87-.96 2.77-2.42 4.29-2.45Z" fill="#FFDB5A"/><path d="M20.97 29.2c.1 1.58 4.1 5.38 2.21 5.44a2.5 2.5 0 0 1-.28-.02c-5.12-1.03-3.65-.5-9.03-.46-.03 0-.05-.02-.06-.05a.86.86 0 0 1 .03-.36c.19-.51.4-1.07.76-1.46 1.02-1.12 1.8-2.37 3.4-2.73.41-.17.84-.3 1.26-.36.13-.02.31-.01.54.02.23.03.92.01 1.17-.02Z" fill="#DADAC7"/><path d="M40.65 31.1c.77.85 1.24 1.9 1.96 2.77l.08.25v.07c-.19.62-1.54-.82-1.62-.85-4.63.53-5.53 1.93-8.21 3-1.5.6-5.2.33-7.1.37-.96.03-.39 1.32-2.41.6-.01.06-.13.21-.2.1-.24-.38-.2-2.62.08-2.92 2.71-3.21 2.35 2.18 8.68-.51.16-.07.34-.18.52-.32 1.28-.97 3-2.52 3.43-4.07 0-.03.02-.05.04-.08 1.05-.97 3.97.78 4.75 1.58Z" fill="#DADAC7"/><path d="M30.93 34.38c-.16.02-.34.07-.52.13a5.9 5.9 0 0 1-2.36.36c-2.15-.24-3.86-.6-5.44-2.24.05-.04.01-.29 0-.3 1.68-.58 2.71-.05 6.95-.36 1.1-1.4 4.69-1.12 6.19-2.13.2-.12.21.6.13.7-1.32 1.48-2.55 3.5-4.95 3.84Z" fill="#E1A541"/><path d="M42.98 34.5c.04.18-.04.28-.25.28-.42 0-.82.02-1.2.05-.53.04-3.56-.26-3.7-.34-.9-.53-3.54-.23-3.82 1.13-.46 2.29.48 1.88-.64.56-.88-1.04 1.38-3.73 2.48-3.41.51.15 1.1.08 1.63-.03a6.9 6.9 0 0 1 2.22.28c1.23.33 1.48.07 2.38.85.74.65.62-.6.9.62Z" fill="#ECEAD7"/><path d="M24.03 33.87c.04.05.04.59 0 .64l-.02.03c-.69 2.14-1.85 2.26 1.75 2.17.1 0 .2-.01.29-.03 1.24-.3 5.58-.13 6.53-1.6a.31.31 0 0 1 .24-.15c.16-.01.24.05.31.19.31.6.64 1.16.6 1.86l-.26 1c-.62 2.38-2.84 3.46-3.92 5.64-.08.15-.15.3-.2.47-.86 2.36-1.15 2.18-1.67 1.33-.22-.36-.5-.64-.68-1.01a11.6 11.6 0 0 0-1.47-2.35c-1.12-1.28-2.5-2.47-3.03-4.15-.1-.33-.18-.66-.22-.99-.02-.22-.08-.23-.16-.02l-.08.18c-.2.48-1.5.4-1.9.38-.21-.01-.43-.04-.65-.1-.4-.11-.81-.13-1.23-.27-1.95-.7-3.52-1.3-5.44-1.83-.1-.03-.24-.04-.44-.04l.34-.33c.1-.1.11-.26.22-.36.05-.05.1-.1.14-.17.66-.98 3.86-1.14 5.3-1.36.15-.02.27.01.42.01 4.06-.52 4.53.04 5.23.86Z" fill="#F9F6E9"/><path d="M43.6 34.99c1.28.94.47.24-.04.14a.64.64 0 0 0-.25 0c-1.46.3-2.73.88-4.14 1.47-.8.34-1.44.55-1.88.62l-1.15.2c-1.35.26-3.3-.72-1.84-2.38.58-.66 2.88-1.27 3.64-.82.02.02.05.03.09.03 1.58 0 4.6.01 5.58.74Z" fill="#F9F6E9"/><path d="M43.83 35.87a15.74 15.74 0 0 1-7.34 2.5.84.84 0 0 1-.39-.08c-1.62-.73-1.8-1.2-2.18.43a9.55 9.55 0 0 1-1.88 3.91c-.4.51-.93 1.06-1.57 1.63-.61.54-1.25 1.07-1.91 1.58-.28-.46.55-1.1.78-1.75l.2-.47c.18-.36.33-.76.56-1.06 1.05-1.47 1.8-2.11 2.65-3.6.15-.27.64-.65.72-.98.09-.33.17-1.35.26-1.7.8.14 1.32 1.35 2.4 1.15 2.5-.47 4.72-1.8 7.18-2.3a.64.64 0 0 1 .25 0l.17.03a.3.3 0 0 1 .17.08c.1.08.16.18.2.3a.1.1 0 0 1-.03.1l-.24.23ZM12.38 35.22c.2 0 .35.01.44.04.42.12.83.17 1.23.18.7 0 1.27.54 1.88.78.75.3 1.53.58 2.33.87.42.14.82.16 1.23.26.22.07.44.1.65.1.63.03 1.3.01 1.84-.3a.16.16 0 0 0 .06-.07l.08-.18c.08-.2.14-.2.16.02.04.33.11.66.22 1 .03.08.07.17.12.25.05.07.1.15.13.24 1.02 2.25 3.18 2.88 4.33 5.11.2.37.38 1.54.6 1.9.06.1.1.2.1.3.01.05-.01.08-.06.08h-.22a6.9 6.9 0 0 1-.42-.37c-1.58-1.5-3.11-2.89-4.2-4.85-.18-.35-.33-.75-.43-1.18l-.3-1.45c-.04-.16-.12-.56-.38-.37-.17.12-.34.2-.52.27-.7.25-1.42.4-2.13.44-.22.01-.45 0-.68-.05-1.84-.38-3.27-1.03-4.95-1.8-.25-.1-.5-.2-.72-.36a6.58 6.58 0 0 0-.75-.48c-.1-.06-.1-.23.03-.27l.33-.1Z" fill="#F4BF4D"/><path d="M25.9 18.29c-.05.15-.07.32-.06.49a.3.3 0 0 1-.06.2c-.08.11-.16.1-.24-.05a.41.41 0 0 1-.05-.2v-.66c-.03-.93.4-2.02 1.14-2.6.15-.11.3-.23.44-.36.25-.22.67-.9 1.1-.7.05.02.1.06.13.1.39.43.67.67.67 1.24 0 .04-.04.06-.07.04a.21.21 0 0 0-.24-.04c-.84.34-2.45 1.58-2.76 2.54ZM21.15 19.81c.19-.22.46-.49.77-.5.3-.02.49.07.58.28.17.38.08.99.1 1.43 0 .33-.4.6-.65.76-.8.5-1.36 1.51-2.21 1.92-.34.16-.78 1.47-.9 1.82-.07.2.1.82.13 1.07.02.13.1.27.02.4-.05.08-.13 0-.18.06-.13.13-.2-.14-.25-.2-.26-.27-.25-1.38-.22-1.74.02-.28.05-.57.1-.89.03-.27.1-.54.23-.82.31-.7.57-1.25.76-1.64.37-.72 1.2-1.36 1.72-1.95ZM35.81 22a.13.13 0 0 0-.1-.01.91.91 0 0 0-.18.08c-.37.2-1.03-.29-1.57-.6-.18-.1-.28-.27-.3-.53-.02-.32.14-1.1.42-1.34.05-.04.1-.06.16-.07.5-.02.98.53 1.26.9.69.93 1.28 1.72 1.92 2.7.18.26.2.55.29.84.03.1.04.2.03.3 0 .06-.03.07-.06.03-.65-.75-.85-1.83-1.87-2.3Z" fill="#DADAC7"/><path d="m22.13 11.06.22.19c.02.02.04.05.04.08 0 .21-.38 1.23-.47 1.3a2 2 0 0 0-.54.66c-.14.3-.24.7-.3 1.17-.09.45-.06.91-.16 1.36-.02.08 0 .16.03.24.05.11.14.15.26.12.46-.14.9-.53 1.37-.72.08-.03.36-.07.33.1-.1.51-.46 1.2-.8 1.65-.18.26-.34.69-.65.82l-.93.42c-.32.14-.6.31-.83.52-.13.1-.23.26-.3.49-.07.2-.18.38-.35.53A.1.1 0 0 1 19 20c-.44.08.17-1.4.23-1.52.99-1.7 1.35-1.72 1.26-3.6l-.03-.48c.03-.43.07-.87.13-1.3.01-.12.05-.24.1-.35.19-.42.44-.9.75-1.45.15-.26.38-.34.69-.25Z" fill="#FFDB5A"/></svg>