<!-- by TradingView --><svg width="56" height="56" viewBox="0 0 56 56" xmlns="http://www.w3.org/2000/svg"><path fill="#F0F3FA" d="M0 0h56v56H0z"/><path d="m12.8 25.24-.04.03a.05.05 0 0 1-.06-.02v-.04a15.9 15.9 0 0 1 12.13-12.26c2.62-.62 5.88-.36 8.5.66a15.92 15.92 0 0 1 9.32 9.53l-.03.02h-.05a12.66 12.66 0 0 0-14.8-7.61 3.2 3.2 0 0 0-1.17.34 17.85 17.85 0 0 0-9.26 13.06c-.5 3.07-.2 6.09.9 9.04.46 1.26.97 2.22 1.53 2.9a5.38 5.38 0 0 1 .52.83l-.02.03a.05.05 0 0 1-.07 0c-1.71-1.3-3.15-3.53-4.02-5.44-.1-.22-.3-.8-.6-1.74a16.2 16.2 0 0 1-.34-8.31 15.7 15.7 0 0 1 5.82-9.2.07.07 0 0 0-.02-.05l-.03-.04h-.02c-.3.18-.75.43-1.35.74a15.84 15.84 0 0 0-6.08 6.06l-.77 1.47Z" fill="#F60"/><path d="M28.43 16.67h.04c.02 0 .03.01.04.03a.06.06 0 0 1-.02.07 14.97 14.97 0 0 0-5.83 8.15c-.17.7-.46 1.38-.57 2.08a18.7 18.7 0 0 0 .97 10.12 12.29 12.29 0 0 0 5.44 6.16v.05c0 .02-.02.03-.03.04a7.63 7.63 0 0 1-1.56-.48 11.1 11.1 0 0 1-4.62-3.75 13.4 13.4 0 0 1-1.58-2.77 15.7 15.7 0 0 1-.94-8.19c.12-.89.45-1.73.7-2.74.06-.26.2-.62.39-1.07a16.8 16.8 0 0 1 2-3.44 12.95 12.95 0 0 1 5.57-4.26Z" fill="#0B529D"/><path d="M29.5 18.33c-1.07 1.79-1.87 3.13-2.3 4.87l-.47 1.9c-.3 1.81-.24 3.57.2 5.28.35 1.4.97 2.61 1.85 3.62a9.36 9.36 0 0 0 3.29 2.44 12.17 12.17 0 0 0 8.48.35c.02 0 .03.02.04.04v.06c0 .02-.02.03-.04.04-.72.33-1.74.78-2.62.99-1.5.35-2.86.55-4.1.6-.81.03-1.83-.1-3.06-.37a8.2 8.2 0 0 1-5.76-5.05c-.5-1.4-.69-2.97-.57-4.68 0-.15.2-1 .56-2.59.14-.61.3-1.1.49-1.46.29-.56.49-1.2.88-1.86a48.79 48.79 0 0 1 1.24-2 19.38 19.38 0 0 1 1.9-2.22.03.03 0 0 1 0 .04Z" fill="#07A827"/><circle cx="35.29" cy="27.19" r="7.29" fill="url(#a)"/><path d="M40.26 25.05c.27-.05.44-.22.5-.52a.25.25 0 0 0-.02-.19 1 1 0 0 1-.14-.4.07.07 0 0 1 .04-.07.07.07 0 0 1 .07 0c.07.05.11.12.12.2a4.18 4.18 0 0 0 .1.73l-.03.1c-.12.16-.25.28-.4.35a.15.15 0 0 1-.18-.03.29.29 0 0 1-.06-.17Z" fill="#BBE2F3"/><path d="M35.99 20.54a.39.39 0 0 1 .24.01c.34.13.64.29 1.05.35l1.14.16 1.48.95c-.28.04-.42.21-.41.5 0 .04.01.07.03.1.02.02.06.04.09.04.5.09.73.42.68 1 0 .1-.1.3-.26.57a.26.26 0 0 0-.02.24l.25.6c-.33-.28-.5-.51-.9-.68a.06.06 0 0 0-.06.01l-.01.04v.03l.46 1.02a.62.62 0 0 1-.16.74l-.54.44a.18.18 0 0 1-.12.04l-.25-.02a.15.15 0 0 0-.16.14c0 .03 0 .06.02.08l.29.5a.35.35 0 0 1-.48.48l-.55-.32a.12.12 0 0 1-.03-.03l-.81-.99a.09.09 0 0 0-.06-.03.1.1 0 0 0-.07.02c-.36.26-.59.44-.7.54-.5.44-.51.87-.05 1.26l.01.03v.03l-.03.05-.02.03-.03.01h-.04l-.03-.01c-.4-.3-.64-.62-.74-.95-.14-.5-.35-.92-.64-1.24a.23.23 0 0 0-.15-.08l-1.29-.17a.39.39 0 0 1-.24-.14l-.23-.28a.06.06 0 0 0-.07-.01.05.05 0 0 0-.03.06c.09.44.3.62.65.54a.38.38 0 0 1 .2 0c.05.03.11.06.15.1.04.05.07.11.08.17 0 .06 0 .12-.03.17a.87.87 0 0 1-.37.36c-.37.2-.68.41-1.04.58a.4.4 0 0 1-.15-.05.2.2 0 0 1-.09-.12 5.8 5.8 0 0 0-.67-1.45c-.03-.04-.07-.05-.13-.02a.06.06 0 0 0-.04.06c.08.64.36 1.2.83 1.68.03.18.24.22.65.12h.04a.08.08 0 0 1 .06.08c-.03.39-.15.68-.37.87-.3.26-.5.5-.64.74-.01.24.04.52.15.84.02.07.03.15.03.23l-.14 1.77a.38.38 0 0 1-.53.33 9.95 9.95 0 0 1-1.25-1.59l-.8-2.4a.3.3 0 0 0-.38-.2c-.32.1-.5.01-.58-.32a4.23 4.23 0 0 1 .76-3.2.36.36 0 0 0 .06-.2c0-.38.17-.65.53-.8a.27.27 0 0 0 .15-.17c.06-.17.21-.48.48-.92.06-.11.13-.15.18-.12.04.02.08.04.11.04s.06 0 .08-.02c.06-.05.16-.08.31-.09.47-.02 1.26-.3 1.12-.82 0 0 0-.02-.02-.02 0-.01-.01-.02-.03-.02l-.03.01-.02.03c-.36.86-.92.36-1.45.8l-.02.01a.05.05 0 0 1-.04 0l-.01-.02-.03-.05v-.02h.01c.66-.56 1.1-.87 1.32-.93.46-.14.92-.35 1.37-.64a.28.28 0 0 1 .32.03c.03.02.06.05.07.09l.07.15c.02.03.04.06.07.07.03.02.06.02.09.02.41-.06 1.25-.17 1.47-.45.03-.03.09-.04.19-.02a.16.16 0 0 0 .12-.05c.17-.14.36-.25.58-.3Zm-4.06 3.26c-.66-.3-.75.4-1.18.54a.16.16 0 0 1-.2-.07l-.14-.26a.19.19 0 0 0-.18-.09l-.35.04a2.59 2.59 0 0 0-.67.72v.03l.02.02h.03l.33.03.05.01a.12.12 0 0 1 .06.12c-.03.22.03.4.17.52.02.03.06.04.1.05.02 0 .06 0 .09-.03l.21-.12a.25.25 0 0 1 .2-.02c.37.13.88.16.97-.3a.12.12 0 0 0-.1-.13L31 24.8c-.2-.18-.2-.34-.01-.49.27-.22.59-.23.95-.04a.1.1 0 0 0 .05.01.1.1 0 0 0 .1-.1l.01-.08a.29.29 0 0 0-.17-.28Z" fill="#BBE2F3"/><path d="M39.98 27.06a2.68 2.68 0 0 0 .43 1.2.1.1 0 0 1-.02.09.1.1 0 0 1-.03.03c-.04.02-.1 0-.18-.03a.16.16 0 0 1-.1-.15 4.06 4.06 0 0 0-.28-1.14v-.04l.02-.02.03-.02a.1.1 0 0 1 .13.08ZM39.13 29.89l.03.04a.15.15 0 0 1-.07.23.15.15 0 0 1-.09 0c-.56-.14-.95-.5-1.19-1.07a.79.79 0 0 0-.38-.36.13.13 0 0 1-.06-.06.13.13 0 0 1-.01-.1.11.11 0 0 1 .1-.08h.05a.8.8 0 0 1 .34.27l.05.02h.04l.05-.03.03-.04v-.05a2.2 2.2 0 0 1-.23-.47v-.04a.06.06 0 0 1 .07-.03l.04.02c.26.23.53.43.35.76a.18.18 0 0 0 .02.2c.1.12.16.26.19.45a.27.27 0 0 0 .12.17c.17.1.35.15.55.17Z" fill="#8BC7E6"/><path d="M39.54 28.38a.07.07 0 0 1 .08 0 .07.07 0 0 1 .03.07c-.03.15-.1.43-.23.85-.04.16-.2.19-.49.1a.2.2 0 0 1-.07-.33l.68-.69Z" fill="#BBE2F3"/><path d="M39.69 29.67a.52.52 0 0 1-.16-.21.16.16 0 0 1 0-.1c0-.03.02-.06.04-.08a.55.55 0 0 1 .17-.1.17.17 0 0 1 .23.16c-.02.25-.12.36-.28.33Z" fill="#8BC7E6"/><path d="M40.76 29.24c.34.01.6.16.78.44a.26.26 0 0 1 0 .3.26.26 0 0 1-.09.07l-.07.04a.18.18 0 0 1-.2-.01.18.18 0 0 1-.05-.05l-.41-.72a.04.04 0 0 1 .04-.07Z" fill="#BBE2F3"/><path d="m40.4 32.1-.8.7a.16.16 0 0 1-.25-.06.16.16 0 0 1 0-.1c.04-.16 0-.28-.11-.37a.2.2 0 0 0-.21-.02l-.54.24a.21.21 0 0 1-.28-.1.21.21 0 0 1-.02-.1l.06-.74a.27.27 0 0 1 .12-.2l1.58-1.05c.11-.06.2-.08.28-.05.09.02.13.1.13.21 0 .1.03.19.1.24a.13.13 0 0 0 .09.03.13.13 0 0 0 .09-.05 1 1 0 0 0 .08-.2c.02-.06.05-.09.1-.08.03 0 .06.02.08.06a3.65 3.65 0 0 1-.49 1.64ZM32.76 31.74v.01h-.02a.25.25 0 0 1-.14-.04.38.38 0 0 1-.1-.12.61.61 0 0 1-.08-.17.8.8 0 0 1-.02-.21v-.08a.7.7 0 0 1 .12-.38c.07-.1.16-.15.25-.15h.03v.02l-.04 1.12Z" fill="#8BC7E6"/><path d="M44.19 28A16.19 16.19 0 1 0 28 44.2v.8a17 17 0 1 1 0-34 17 17 0 0 1 0 34v-.8c8.94-.01 16.2-7.26 16.2-16.2Z" fill="#0B529D"/><defs><linearGradient id="a" x1="35.29" y1="19.9" x2="35.29" y2="34.48" gradientUnits="userSpaceOnUse"><stop stop-color="#034687"/><stop offset="1" stop-color="#0A90C1"/></linearGradient></defs></svg>