<!-- by TradingView --><svg width="56" height="56" viewBox="0 0 56 56" xmlns="http://www.w3.org/2000/svg"><path fill="#F0F3FA" d="M0 0h56v56H0z"/><path d="M38 23h-2v1.5h2V23Zm0 2h-2v7h2v-7Zm-26-1.66v2.21c-1.36-.72-3-.58-3 0 0 .47.45.88.68 1.03.77.47 2.32 1.72 2.32 2.95C12 31.07 10.32 32 8.44 32c-1.5 0-2.25-.27-2.44-.41V29.3c.26.23.99.68 1.79.68 1 0 1.53-.32 1.53-.68 0-.32-.3-.52-.88-.92l-.2-.14-.17-.12c-.73-.5-1.83-1.23-1.83-2.7 0-1.57 1.51-2.43 3.08-2.43 1.25 0 2.3.23 2.68.34Zm6 2.04v2.07c-.15-.2-.65-.62-1.44-.62-.98 0-1.39.87-1.39 1.86 0 .98.66 1.56 1.51 1.56.69 0 1.17-.42 1.32-.63v2.06c-.4.16-1.5.32-1.87.32-.36 0-3.13-.21-3.13-3.31S15.05 25 16.24 25c.96 0 1.57.25 1.76.38ZM19 23h2v1.5h-2V23Zm0 2h2v7h-2v-7Zm22-2h-2v9h2v-9Zm1 0h2v9h-2v-9Zm-20 2h2v7h-2v-7Zm4.8 0a3.29 3.29 0 0 0-2.8 1.54v1.98c.13-.49.85-1.45 1.73-1.45.89 0 1.28.8 1.27 1.2V32h2v-4.48c0-.76-.28-2.52-2.2-2.52Zm4.2 1.5v3.56c.04.65.37 1.94 1.6 1.94.92 0 1.56-.2 1.77-.3l.28-1.7h-.38c-.56 0-1.27-.08-1.27-.71V26.5h1.5V25H33v-2l-2 .88V25h-1v1.5h1Zm14.88.7v-1.64c.4-.19 1.52-.56 2.72-.56 1.87 0 2.38 1.28 2.4 1.92V32h-2v-3.15c-.8.3-2.03.9-2.03 1.4 0 .54.82.63 1.24.6L47.74 32c-2.35 0-2.8-1.24-2.73-1.85 0-1.9 2.6-2.58 3.99-2.7v-.39c0-.14-.21-.56-1.15-.56-.75 0-1.63.47-1.97.7Z" fill="#438DCE"/></svg>