<!-- by TradingView --><svg width="18" height="18" viewBox="0 0 18 18" xmlns="http://www.w3.org/2000/svg"><path fill="#181B1E" d="M0 0h18v18H0z"/><path d="M13 5v6.14L9 14l-4-2.86V5h8Z" fill="#E35301"/><path d="M12 7H6V6h6v1ZM12 11c-.1.54-.44.8-.8 1H6.7c-.35-.32-.64-.6-.7-1h6Z" fill="#FEFFFD"/><path d="M12.31 5.46c.22 0 .51.04.51.31 0 .2-.12.38-.26.5v4.85c0 .11-.06.22-.15.28l-3.43 2.27-3.4-2.28a.33.33 0 0 1-.14-.27V6.27c-.15-.12-.3-.3-.3-.5 0-.27.3-.3.52-.3h6.65Zm-6.65.13c-.14 0-.38 0-.38.18 0 .16.15.32.26.41l.03.02v4.85c0 .1.06.21.15.27l3.26 2.12 3.3-2.11c.1-.07.15-.17.15-.28V6.2l.02-.02c.12-.09.24-.25.24-.4 0-.19-.25-.19-.38-.19H5.66Z" fill="#FEFFFD"/><path d="M7.97 7.25a1.96 1.96 0 0 0 0 3.38H6V7.25h1.97ZM12 10.63h-1.97a1.96 1.96 0 0 0 0-3.38H12v3.38ZM11 12.03H7l2 1.13 2-1.13Z" fill="#FEFFFD" fill-opacity=".5"/><path d="M9.22 9.13 10 10h-.64l-.74-.8h-.05v.8H8V8.74c.17-.17.28-.24.57-.37v.51h.16l.52-.55h.65l-.68.8Z" fill="#FEFFFD"/><path d="M7.14 8.78c.08 0 .15.05.15.11S7.22 9 7.14 9C7.06 9 7 8.95 7 8.9c0-.07.06-.12.14-.12ZM8.97 7.5c.07.07.25.22.43.22.19 0 .33-.04.37-.06l-.4.46a1.41 1.41 0 0 0-1.45.65l-.49.15c.2-.15.25-.2.27-.37a.3.3 0 0 0-.1-.27c.04.03.19.06.39-.1.2-.14.16-.32.12-.38.1.06.39.16.62.06.23-.1.26-.28.24-.36Zm-1.7.6c.08 0 .14.04.14.1 0 .06-.06.11-.14.11-.08 0-.15-.05-.15-.1 0-.07.07-.12.15-.12Zm.61-.57c.08 0 .15.05.15.11s-.07.11-.15.11c-.08 0-.14-.05-.14-.1 0-.07.06-.12.14-.12Zm1.98-.19c.08 0 .14.05.14.11s-.06.11-.14.11c-.08 0-.15-.05-.15-.1 0-.07.07-.12.15-.12Zm-.99-.09c.08 0 .14.05.14.1 0 .07-.06.12-.14.12-.08 0-.14-.05-.14-.11s.06-.11.14-.11Z" fill="#FEFFFD"/></svg>