<!-- by TradingView --><svg width="56" height="56" viewBox="0 0 56 56" xmlns="http://www.w3.org/2000/svg"><path fill="#F0F3FA" d="M0 0h56v56H0z"/><path d="M27.54 12H30v6.25c0 .06-.04.1-.1.1a16.6 16.6 0 0 0-3.9 1.02v-7.1l.05-.03 1.49-.24Z" fill="#45A66E"/><path d="M30 12h12v13.5c0 2.25-.22 5.28-.51 7.4-.47 3.34-1.76 6.04-4.63 8.13a14.76 14.76 0 0 1-6.82 2.64.32.32 0 0 0-.01-.05.2.2 0 0 1-.03-.08v-7c.03-.01.05-.03.04-.04 2.67-1.37 3.62-3.89 3.84-6.72.08-1.02.08-1.95 0-2.7-.01-.05-.04-.08-.1-.08h-7.7c-.05 0-.08-.02-.08-.08V19.37c1.08-.5 2.73-.83 3.9-1.02.06 0 .1-.04.1-.1V12Z" fill="#8CC96F"/><path d="M26 12.28v7.16c0-.03 0 .02 0 0-.02 0 .01 0 0 0l-.08.01c-3.65 1.97-3.99 5.81-3.86 9.46 0 .06.04.1.11.1l7.74-.01c.06 0 .09.06.1.12v7.42c-1.08.5-2.71.84-3.9 1.02-.06 0-.11.04-.11.1V44H14.04c-.02 0-.04-.01-.04-.04V29.65c.01-2.84.24-6.04 1.02-8.87.6-2.21 1.87-4.08 3.78-5.61a13.97 13.97 0 0 1 7.2-2.9Z" fill="#0072BC"/><path d="M30 36.54v7.08c-.02-.02 0 .03 0 0 .05.1-1.81.28-2.1.36L26 44v-6.34c0-.06.04-.1.1-.1a15.5 15.5 0 0 0 3.9-1.02Z" fill="#45A66E"/></svg>