<!-- by TradingView --><svg width="18" height="18" viewBox="0 0 18 18" xmlns="http://www.w3.org/2000/svg"><path fill="#F0F3FA" d="M0 0h18v18H0z"/><path d="M9.79 10.5a5.96 5.96 0 0 1 .28 2.57h-.01c-.05-.17-.12-.43-.2-.79a9.94 9.94 0 0 0-1.6-3.7c-.13-.19-.3-.37-.5-.55-.57-.5-1.04-.96-1.39-1.37a7.09 7.09 0 0 1-1.08-1.6c-.03-.06-.02-.07.04-.05l.06.05c.48.54.9 1.01 1.28 1.4.46.49.9.93 1.34 1.32.8.75 1.4 1.65 1.78 2.72Z" fill="#363C8D"/><path d="M8 6a1 1 0 1 0 2 0 1 1 0 0 0-2 0Z" fill="#D4322A"/><path d="M10.07 10.8a5.8 5.8 0 0 1 .25-2.02c.21-.66.53-1.24.97-1.73l1.73-1.94a.16.16 0 0 1 .11-.05c.04 0 .06 0 .08.03.04.06.03.12-.02.17-.7.77-1.28 1.46-1.75 2.07-.31.4-.59.92-.83 1.55-.23.6-.38 1.23-.47 1.93-.03.26-.05.26-.07 0Z" fill="#363C8D"/><path d="M11.64 8.29c-.3.42-.53.93-.7 1.52a7.48 7.48 0 0 0-.3 1.66c0 .14-.02.15-.06 0a5.22 5.22 0 0 1 1.34-4.07l1.65-1.9c.03-.04.06-.04.1-.01l.04.03c.04.02.04.06.01.09-.74.86-1.43 1.75-2.08 2.68ZM7.35 8.34a8.18 8.18 0 0 1 2.1 4.2c.08.54.1 1.07.06 1.59 0 .04-.02.06-.06.05a.08.08 0 0 1-.05-.03.22.22 0 0 1-.05-.12 8.48 8.48 0 0 0-.69-3.12c-.17-.4-.39-.78-.65-1.12-.4-.52-.76-.96-1.07-1.32-.4-.45-.8-.85-1.18-1.2A5.18 5.18 0 0 1 4.63 5.8c.01-.04.03-.04.05-.01L5.9 7.03a14.46 14.46 0 0 0 1.08.95c.15.13.27.25.37.36Z" fill="#363C8D"/><path d="M13.74 6.55c-.45.58-.9 1.18-1.34 1.8-.3.42-.53.77-.67 1.07a7.3 7.3 0 0 0-.66 2.17h-.02c.01-.44.03-.72.04-.86.05-.65.24-1.26.54-1.83.14-.25.35-.54.65-.86a224.13 224.13 0 0 1 1.7-1.85l.02.01v.01l-.26.34ZM8.88 14.97a28.8 28.8 0 0 0-.37-1.83c-.16-.66-.35-1.24-.57-1.74a3.67 3.67 0 0 0-.77-1.14 27.88 27.88 0 0 1-1.8-1.89c-.4-.45-.75-.9-1.07-1.33a2.4 2.4 0 0 1-.27-.47c-.05-.1-.03-.12.05-.04l.15.15.12.13 2.2 2.15c.4.38.69.7.88.97.48.66.85 1.35 1.1 2.07a7.14 7.14 0 0 1 .38 2.97c-.01.04-.03.04-.03 0Z" fill="#363C8D"/></svg>