<!-- by TradingView --><svg width="56" height="56" viewBox="0 0 56 56" xmlns="http://www.w3.org/2000/svg"><path fill="#F0F3FA" d="M0 0h56v56H0z"/><path fill-rule="evenodd" d="M30.5 36.6c9.25-3.1 15.63-8.18 14.33-12-1.3-3.8-9.8-4.9-19.05-1.8-9.25 3.09-16 9.05-14.6 13.19 1.42 4.13 10.07 3.7 19.32.6Zm-.84-.15c8.78-2.5 15.24-7.96 14.24-11.37-1-3.41-8.46-4.07-17.24-1.57-8.78 2.5-15.63 7.54-14.55 11.24 1.09 3.7 8.77 4.2 17.55 1.7Z" fill="#00A54F"/><path d="M27.13 21.87c.52-6.76 6.94-10.07 10.08-10.87C34.48 12.56 29 17.5 29 24.75c0 7.26 8 15.19 12 18.25-6.6-1.9-11.56-7.95-13.21-10.75C25.29 39.51 19.56 43.77 17 45c6.9-5.39 9-10.4 9-17.01 0-5.29-3.25-10.1-5-11.99a17.6 17.6 0 0 1 6.13 5.87Z" fill="#2E3192"/><ellipse cx="26.5" cy="13" rx="1.5" ry="1" fill="#ED1B24"/></svg>