<!-- by TradingView --><svg width="56" height="56" viewBox="0 0 56 56" xmlns="http://www.w3.org/2000/svg"><path fill="#F0F3FA" d="M0 0h56v56H0z"/><path fill-rule="evenodd" d="m28 46 18-30H10l18 30Zm-9-22h-1.95L19 27.38v-3.4Zm.56 4.36V24h.64v5.47l-.64-1.1Zm1.2 2.08.8 1.38v-7.83h-.8v6.45ZM22.12 24v8.8l.6 1.04V24h-.6Zm1.16 0v10.82l.65 1.13v-4.52a4.48 4.48 0 0 1 0-3.84V24h-.65Zm1.21 0v2.7c.2-.26.44-.5.7-.7v-2h-.7Zm1.26 0v1.61c.22-.12.44-.23.67-.32V24h-.67ZM27 24v1.12c.22-.05.44-.08.67-.1V24h-.67Zm1.23 0v1.02c.2 0 .4.03.59.06V24h-.59Zm1.15 0v1.22c.28.1.54.2.8.34V24h-.8Zm1.36 0v1.93c.24.19.47.4.68.64v-2.57h-.68Zm1.24 0v3.39c.2.37.35.78.44 1.2V24h-.44Zm1 0v10.39l.8-1.38v-9h-.8Zm1.36 0v8.03l.79-1.37v-6.66h-.8Zm1.35 0v5.68l.8-1.38V24h-.8ZM37 24v3.4l1.95-3.4H37Zm-4.6 11.36v-4.94c-.08.43-.23.84-.43 1.21v4.5l.44-.77Zm-1 1.74v-4.65c-.2.24-.43.45-.67.64v5.19l.68-1.18Zm-1.24 2.16v-5.8c-.25.13-.51.25-.79.34v6.83l.8-1.37Zm-1.35 2.35v-7.67c-.2.03-.39.05-.59.06v8.62l.59-1Zm-1.15.8V34a4.5 4.5 0 0 1-.67-.1v7.35l.67 1.17Zm-1.24-2.14v-6.54c-.23-.1-.45-.2-.67-.32v5.7l.67 1.16Zm-1.23-2.14v-5.1c-.26-.21-.5-.45-.7-.7v4.6l.7 1.2ZM20.6 22h.85l.25-.79h1.57l.27.79h.85l-1.45-4H22l-1.4 4Zm2.43-1.52-.56-1.66-.53 1.66h1.1ZM17 18v4h.85v-1.42l.4-.4L19.46 22h1.03l-1.7-2.38L20.41 18H19.4l-1.54 1.54V18H17Zm9 14v-1.8l.48-.48L28.04 32h1.31l-2.16-2.98L29.24 27h-1.3L26 28.9V27h-1v5h1Zm4 0v-5h1v5h-1Zm-6-14 1.43 2.46V22h.82v-1.54L27.57 18h-.93l-.79 1.7-.87-1.7H24Zm7.55 1.33h-.87c-.15-.37-.45-.62-.96-.62-.77 0-1.08.58-1.08 1.29 0 .71.34 1.29 1.08 1.29.52 0 .85-.29 1-.7h.85c-.19.81-.78 1.41-1.85 1.41-1.3 0-1.9-.9-1.9-2s.54-2 1.9-2c1.07 0 1.64.55 1.83 1.33Zm.67-1.33v4H35v-.73h-2v-1.01h1.78v-.71H33v-.8h2V18h-2.78Zm4.02 4v-4H39v.76h-2v.79h1.78v.7H37v1.02h2V22h-2.76Z" fill="#0193DE"/></svg>