<!-- by TradingView --><svg width="18" height="18" viewBox="0 0 18 18" xmlns="http://www.w3.org/2000/svg"><path fill="#263A66" d="M0 0h18v18H0z"/><path d="M4.43 7v.44c.22-.3.45-.44.83-.44.38 0 .67.15.89.44.24-.3.53-.44.9-.44.8 0 .95.57.95 1.2V11H6.57V8.44c0-.17.1-.74-.16-.74s-.23.56-.23.74V11H4.82V8.5c0-.17-.04-.8-.22-.8s-.17.4-.17.58V11H3V7h1.43ZM11.43 7v.44c.22-.3.45-.44.83-.44.38 0 .67.15.89.44.24-.3.53-.44.9-.44.8 0 .95.57.95 1.2V11h-1.43V8.44c0-.17.1-.74-.16-.74s-.23.56-.23.74V11h-1.36V8.5c0-.17-.04-.8-.22-.8s-.17.4-.17.58V11H10V7h1.43Z" fill="#E6511D"/></svg>