<!-- by TradingView --><svg width="56" height="56" viewBox="0 0 56 56" xmlns="http://www.w3.org/2000/svg"><path fill="#F0F3FA" d="M0 0h56v56H0z"/><path d="M12.53 23.73c-.84-.23-1.5-.1-1.96.42-.46.5-.47 1.02-.04 1.55.36.43.73.84 1.13 1.22 1.93 1.86 1.17 4.53-1.2 5.51a6.93 6.93 0 0 1-5 .2 2.12 2.12 0 0 1-.88-3.48A3.28 3.28 0 0 1 7.1 28c1.04-.01 2.66.45 2.53 1.78-.07.72-.98 1.64-1.87 1.38a.24.24 0 0 1-.17-.2.23.23 0 0 1 .14-.24c.4-.18 1.15-.42 1.06-.97a.69.69 0 0 0-.5-.55 3.7 3.7 0 0 0-2.03 0c-.84.23-1.27.87-1.26 1.5 0 .65.48 1.3 1.41 1.47 1.44.29 3.07.13 4.11-.91 2.87-2.86-2.82-3.97-1.36-6.83.64-1.25 2.21-1.62 3.53-1.35 1.9.4 1.56 2.93.1 2.18a.53.53 0 0 1-.27-.3.51.51 0 0 1 .04-.41c.1-.16.15-.34.17-.52.02-.16-.05-.26-.2-.3ZM36.15 28.3c-.56 1.49-1.84 4.3-3.51 4.65-.15.04-.3.05-.42.05-1.3 0-1.3-1.65-1.1-2.71.22-1.34.75-2.95.94-4.45.14-1.05.05-2.55-1.47-2.2-.53.12-.94.47-1.24 1.04a6.17 6.17 0 0 0-.04 5.89c.03.06.03.12.02.19-.04.13-.15.26-.3.24a.22.22 0 0 1-.15-.1c-.3-.45-.52-.9-.64-1.42-.5-2.13-.22-3.95.83-5.47A2.3 2.3 0 0 1 31.12 23c3.37.04 1.86 5.1 1.34 6.9-.16.6-.22 1.22-.16 1.87.02.18.19.33.38.31.06 0 .11-.02.16-.06.53-.38.97-.86 1.32-1.44 1.31-2.16 2.41-4.7 3.3-7.32.06-.17.18-.26.37-.26h.98c.17 0 .22.08.17.24-.9 2.54-2.04 5.89-1.84 8.65a.3.3 0 0 0 .16.24.28.28 0 0 0 .29-.01c.3-.2.51-.48.65-.83.02-.06.06-.1.1-.14a.33.33 0 0 1 .32-.05c.18.07.33.48.17.58a.1.1 0 0 0-.04.04c-.25.5-.63.89-1.13 1.14-.95.48-1.75-.35-1.8-1.28a8.7 8.7 0 0 1 .44-3.22c.02-.02 0-.04-.02-.05l-.09-.04c-.02 0-.03 0-.04.02Z" fill="#FF96B7"/><path fill-rule="evenodd" d="M24.13 23.4c-3.36-.33-6.54 1.73-6.95 4.97-.01.15-.1.23-.25.24-1.75.2-3.57 1.35-2.7 3.15.49 1.03 2.07 1.29 3.17 1.23 2.8-.15 4.45-1.92 4.89-4.4.26-1.52.8-3.16 2.12-4.13a.29.29 0 0 1 .37.03c1.36 1.35-.04 2.68-1.27 3.4a.21.21 0 0 0-.08.07.2.2 0 0 0-.03.11c0 .04.02.08.04.11.03.03.06.06.1.07 1 .4 2.16 1.26 1.82 2.42-.32 1.1-1.01 1.66-2.09 1.7-.55.02-.62-.14-.2-.49.41-.35.16-.92-.33-1.06-.72-.21-1.42.25-1.31.96.1.73.6 1.13 1.5 1.2a3.62 3.62 0 0 0 3.72-1.9 2.42 2.42 0 0 0 .33-1.56c-.1-.89-.84-1.38-1.63-1.77-.17-.08-.18-.18-.03-.3 1.17-.83 2.17-2.4.7-3.56-.11-.1-.1-.16.05-.2l.79-.18a.19.19 0 0 0 .1-.06.18.18 0 0 0 .04-.12v-.09c0-.18-.1-.26-.3-.24-.32.05-.63.12-.93.2-.53.12-1.05.25-1.64.2Zm-4.71 5.85c.39.3.52.55.4.72-.1.14-.23.18-.39.11l-1.36-.57a.15.15 0 0 0-.15.02.13.13 0 0 0-.05.06v.08l.22.94c.01.05 0 .1-.02.14a.2.2 0 0 1-.12.08l-.1.03c-.2.05-.33-.02-.4-.2l-.26-.87c-.04-.13-.13-.18-.27-.18-.52.03-1.01.17-1.46.41-1.51.82-.26 2.14.93 2.27 3.21.37 3.94-2 4.63-4.26l.2-.66c.45-1.4 1.21-2.15 2.22-3.17l.03-.03c.14-.13.1-.18-.1-.17-2.44.08-5.22 1.85-5.53 4.35 0 .08.01.15.05.22.05.06.11.11.19.14l.9.3c.16.06.3.14.44.24ZM46.22 31.05c-.12-.07-.15-.16-.09-.28l.17-.34c.2-.4.4-.8.53-1.25l1.06-3.76c.15-.55.43-1 .84-1.36.8-.72 2.2-.43 2.17.81a4.08 4.08 0 0 1-2.64 3.95c-.18.08-.25.21-.2.4.04.1.14.17.24.16a3.34 3.34 0 0 0 1.56-.56c1.6-1.05 2.3-2.4 2.11-4.08-.2-1.8-2.3-2-3.6-1.5-1.06.41-1.91 2.03-2.14 3.06l-.93 3.99a.23.23 0 0 1-.22.17c-.04 0-.07 0-.1-.02a6.27 6.27 0 0 0-2.66-.44c-1.04-.01-2.34.44-2.32 1.62.01.66.38 1.07 1.1 1.24 1.34.33 2.68.07 4.03-.76.1-.07.22-.07.33-.02l.15.06c.9.39 1.9.85 2.8.86.86.01 1.62-.38 2.13-1.51.05-.13-.04-.2-.13-.28-.17-.12-.32-.1-.44.07-.3.43-.73.73-1.23.72-.84-.01-1.8-.59-2.52-.95Zm-1.94.37a3.4 3.4 0 0 0-3.18-.45.63.63 0 0 0-.36.79c.1.23.27.38.53.44 1.11.26 2.11.1 3-.45a.2.2 0 0 0 .1-.16.2.2 0 0 0-.09-.17Z" fill="#FF96B7"/></svg>