<!-- by TradingView --><svg width="56" height="56" viewBox="0 0 56 56" xmlns="http://www.w3.org/2000/svg"><path fill="#F0F3FA" d="M0 0h56v56H0z"/><path d="M44 17.57v-1.03l-.15-.82a4.33 4.33 0 0 0-1.4-2.47c-.7-.6-1.58-.98-2.65-1.14-1.94-.3-4.11 0-6.51.86-1.93.7-3.89 1.71-5.9 3.06-.01.01-.02.03 0 .05a33.93 33.93 0 0 1 6.9-2.87c1.25-.38 2.4-.57 3.47-.6 1.37-.03 2.5.23 3.38.78a4.02 4.02 0 0 1 1.65 2.09c.28.78.4 1.72.36 2.8-.03.9-.18 1.89-.44 2.95a21.65 21.65 0 0 1-.79 2.55h.03a18.3 18.3 0 0 0 1.91-5.18l.08-.55.06-.48ZM21.3 41.93a38.79 38.79 0 0 0 6.84-3.47h-.02l-1.99 1a31.68 31.68 0 0 1-6.37 2.36c-1.41.35-2.69.46-3.83.32-1.5-.18-2.56-.8-3.15-1.84-.4-.67-.6-1.4-.62-2.17-.04-1.5.24-3.06.82-4.66.88-2.4 2.02-4.7 3.43-6.93l1.45-2.28v-.04h-.05a34.54 34.54 0 0 0-3.73 4.94 23.6 23.6 0 0 0-2.56 5.51c-.22.72-.37 1.43-.45 2.12-.1.78-.1 1.5 0 2.17a4.3 4.3 0 0 0 2.23 3.4c1.04.56 2.37.75 4 .58 1.26-.14 2.6-.47 4-1Z" fill="#199456"/><path d="M20.45 24h-4.22l1.68-7h9.44L22.8 38h-5.35l3.01-14ZM32.8 24h-5.38l-3.1 14h5.48l3-14Z" fill="#D63A45"/><path fill-rule="evenodd" d="M27.38 23h5.86l1.34-6h-5.9l-1.3 6Zm.66-.55h4.79l1.09-4.9H29.1l-1.06 4.9Z" fill="#199456"/><path fill-rule="evenodd" d="M37.73 25.49c.5-.71 1.3-1.49 2.23-1.49.36.01 1.1.24 1.1 1.07-.03.39-.31 1.16-1.24 1.16-.92 0-1.2-.5-1.23-.77l-.3.44.06.04c1.66 1.52 1.59 4.35-.15 6.32-1.4 1.58-3.47 2.12-5.09 1.47-1.83 1.32-.09 1.64.73 1.64.92 0 5.08.05 5.08 2.37 0 2.31-2.38 4.26-5.42 4.26-3.03 0-4.7-.71-4.7-2.13 0-1.14 1.69-2.05 2.53-2.37-.44 0-1.33-.3-1.33-1.58 0-1.06 1.32-2.05 2.34-2.62l-.3-.24c-1.66-1.52-1.6-4.35.15-6.32 1.54-1.73 3.87-2.21 5.54-1.25Zm-3.12 7.6c.73.13 1.61-1.36 1.96-3.34.35-1.99.04-3.71-.69-3.85-.73-.14-1.61 1.35-1.96 3.33-.36 1.99-.05 3.71.69 3.85Zm-2.39 4.62c1.6-.17 4.79-.1 4.79 1.63 0 1.54-2.5 1.94-3.74 1.95-.83-.02-2.48-.38-2.48-1.68 0-.76.95-1.58 1.43-1.9Z" fill="#D63A45"/></svg>