<!-- by TradingView --><svg width="56" height="56" viewBox="0 0 56 56" xmlns="http://www.w3.org/2000/svg"><path fill="#F0F3FA" d="M0 0h56v56H0z"/><path d="M26.4 13.21a23 23 0 0 0-4.95 6.52c-.46.93-.85 2.1-1.18 3.53-.28 1.24-.57 2.46-.88 3.65-.11.39-1.49-.54-1.38-.91.3-1.07.58-2.12.85-3.16.2-.75.71-1.1 1.11-1.7a.64.64 0 0 0 .11-.42c-.06-.67-.4-1.78-.16-2.42.4-1.05 1.5-1.7 1.87-2.9.4-1.26 1.83-2.23 2.79-3.06.8-.71 2.28-.53 3.24-1.22a.6.6 0 0 1 .41-.12c.65.07 1.26.15 1.84.27.49.1.8.44.91 1.03.13.53-.5.9-.94.84a25.59 25.59 0 0 0-3.27-.14c-.14.01-.27.1-.38.21ZM31.05 41h-7.77a.47.47 0 0 1-.34-.15 5.75 5.75 0 0 0-1.64-1.3c-.36-.17-.4-.4-.11-.67l1.53-1.68a.68.68 0 0 1 .92-.04c.99.86 2.63 1.84 3.97 1.84 3.7 0 8.57-3.4 9.15-6.93.28-1.75.5-3.54.66-5.38a6.42 6.42 0 0 0-.31-2.58c-.48-1.47-.7-2.92-1.4-4.31-.82-1.6-1.8-3.02-2.97-4.3-.35-.38-.5-.85-.43-1.4 0-.09.12-.13.2-.07a30.5 30.5 0 0 1 4.37 4.62c.85 1.14 1.43 2.8 1.74 4.98.02.14.1.26.23.32l.7.32c.13.07.22.2.22.35.07 1.47.45 3.03.05 4.53-.64 2.41-1.24 4.8-1.8 7.18a.58.58 0 0 1-.2.33A44.05 44.05 0 0 1 31.04 41Z" fill="#0083BA"/><path d="M28.5 36a5.5 5.5 0 1 0 0-11 5.5 5.5 0 0 0 0 11Z" fill="#EEE033"/><path d="M22.5 40c.3.14.56.35.8.6.08.1.2.4.33.4h7.7c.81-.02 1.55-.53 2.29-.36.54.14.98.38 1.55.46 1.56.2 3.17.57 4.83.9-.4.13-.77.47-1.2.45-.57-.03-1.1.05-1.56.26-.44.2-.76.29-1.24.29-6.6-.02-13.18-.02-19.47 0-.14 0-.22-.07-.25-.21l-.27-1.65c-.03-.15.03-.26.17-.32.32-.12.6-.06.57-.52 0-.2.09-.3.28-.3h5.48Z" fill="#005D63"/></svg>