<!-- by TradingView --><svg width="18" height="18" viewBox="0 0 18 18" xmlns="http://www.w3.org/2000/svg"><path fill="#F0F3FA" d="M0 0h18v18H0z"/><path d="M11.1 4.22c.34.11.64.28.9.52.49.45.72 1.05.7 1.79 0 .46-.11.9-.35 1.28-.19.3-.43.52-.71.7a2.73 2.73 0 0 1-.52.27c.43.14.85.34 1.2.65a2.02 2.02 0 0 1 .62 1.15 3.15 3.15 0 0 1-.24 1.94c-.22.39-.51.7-.87.92a3.9 3.9 0 0 1-1.7.54l-.76.02a1113.1 1113.1 0 0 0-1.55-.01c.38-.18.73-.37 1.06-.56.32-.2.62-.42.9-.69l.02-.02c.24-.27.44-.56.54-.93a1.91 1.91 0 0 0-.13-1.34 4.47 4.47 0 0 0-.42-.7c-.22-.3-.45-.6-.64-.92l-.02-.03a2.93 2.93 0 0 1-.2-.37c-.1-.26-.18-.56-.17-.84 0-.32.1-.63.24-.9l.02-.04c.2-.38.48-.74.74-1.05l.03-.05a11.87 11.87 0 0 1 1.3-1.33Z" fill="url(#a)"/><path d="M9.65 4a10.83 10.83 0 0 0-1.57 2.4 2.87 2.87 0 0 0-.22.95c0 .4.1.76.25 1.12.12.26.26.49.4.7l.54.72.24.35c.26.41.53.99.49 1.5-.02.26-.13.49-.28.67a7.83 7.83 0 0 1-1.06.9c-.16.1-.35.2-.5.31a153.49 153.49 0 0 0-.59.38H6V4h3.65Z" fill="url(#b)"/><defs><linearGradient id="a" x1="9.5" y1="4" x2="9.5" y2="14" gradientUnits="userSpaceOnUse"><stop stop-color="#2CA951"/><stop offset="1" stop-color="#2D3777"/></linearGradient><linearGradient id="b" x1="9.5" y1="4" x2="9.5" y2="14" gradientUnits="userSpaceOnUse"><stop stop-color="#2CA951"/><stop offset="1" stop-color="#2D3777"/></linearGradient></defs></svg>