<!-- by TradingView --><svg width="56" height="56" viewBox="0 0 56 56" xmlns="http://www.w3.org/2000/svg"><path fill="#F0F3FA" d="M0 0h56v56H0z"/><path d="M31.61 15.27c0 .25.02.45.05.61.21 1.25.48 2.48.8 3.69a.19.19 0 0 0 .14.13 119.62 119.62 0 0 0 1.73.18c.04 0 .07 0 .1-.02a.13.13 0 0 0 .06-.08l.12.03.17 1.02c.24 1.55.17 3.18-.92 4.43l-.34.42-.48.45a5.21 5.21 0 0 1-.98.63c-.04 0-.07 0-.1.02-.2.12-.4.22-.64.3a.22.22 0 0 0-.1.06.29.29 0 0 1-.15.09c-.37.12-.68.2-.92.27-.12.03-.25.04-.39.04l-.39.01c-.22.05-.41.08-.59.07-.1 0-.15-.06-.16-.17 0-.03 0-.06.04-.08.1-.04.2-.07.32-.09.28-.04.55-.14.81-.28a4.49 4.49 0 0 0 1.54-1.4c.43-.64.67-1.29.71-1.94a7.64 7.64 0 0 0-.18-2.2c-.1-.47-.22-.93-.33-1.4a77.2 77.2 0 0 1-.79-3.35c-.05-.27-.1-.53-.12-.78a59.85 59.85 0 0 1-.17-2.22.08.08 0 0 0-.08-.03.08.08 0 0 0-.04.02c-.27.27-.6.47-.86.73-1.44 1.42-2.1 2.75-2.99 4.46-.1.19-.16.42-.2.69l-.08.33-.09.32c-.1.34-.22.68-.29 1.03-.05.26-.1.5-.17.75-.1.36-.09.73-.13 1.1a4 4 0 0 0-.02.77 24.25 24.25 0 0 1 .04 1.07l-.02.02c-.03.02-.07.01-.12 0a5.78 5.78 0 0 1-.46-1.63.7.7 0 0 0-.12-.33c-.23-.3-.54-.65-.92-1.06 0-.12.07-.14.22-.06.03.02.06.01.1-.02.01-.02.03-.02.06 0 .04.02.07.02.1 0 .19-.13.32-.28.4-.45.06-.13.15-.25.25-.35a.15.15 0 0 0 .05-.09c.05-.38.15-.83.32-1.36.44-1.42 1.13-2.69 1.96-3.92a15.9 15.9 0 0 1 4.17-3.77s.02 0 .03.02c.04.03.05.08.04.13a12.5 12.5 0 0 0 .01 3.2Z" fill="#03A859"/><path d="m24.51 18.68-.04 1.23a.04.04 0 0 1-.02.04h-.02l-.02-.01a6.8 6.8 0 0 1-3.54-4.54c.04-.2.15-.31.33-.3a12.46 12.46 0 0 0 .99 0 .04.04 0 0 1 .01.03c-.02.7.46 1.45.88 1.97.44.54.91 1.06 1.43 1.58Z" fill="#373431"/><path d="M33.71 9.78c-.07.15-.15.3-.2.44a6.4 6.4 0 0 0-.28 2.52c.09 1.02.24 2.02.46 2.99l.37 1.62.55 2.46-.12-.03c-.01.03-.03.06-.06.08a.16.16 0 0 1-.1.02 119.62 119.62 0 0 1-1.73-.18.2.2 0 0 1-.15-.13c-.31-1.2-.58-2.44-.79-3.69a4.36 4.36 0 0 1-.05-.6 12.5 12.5 0 0 1 0-3.2c0-.05-.01-.1-.05-.13l-.03-.02-.04.01a15.9 15.9 0 0 0-4.13 3.76l-.76 1.17a12.36 12.36 0 0 0-1.57 4.2c-.1.1-.19.22-.25.35-.08.17-.21.32-.4.45a.09.09 0 0 1-.1 0c-.03-.02-.05-.02-.07 0-.03.03-.06.04-.1.02-.14-.08-.2-.06-.21.06l-2.46-2.7-.65-1.06c-.03-.05-.04-.05-.05.01 0 .14-.04.27-.09.4-.06.15-.1.3-.13.47-.14.95-.2 1.7-.18 2.23 0 .2.06.47.16.83 0 .04 0 .07-.03.09-.05.04-.14.05-.26.02l-.75-.23a.37.37 0 0 1-.07-.21l.01-.03.01-.03a9.43 9.43 0 0 1 .17-2.61c.27-1.33.7-2.57 1.3-3.73.28.8.72 1.53 1.33 2.22a65.23 65.23 0 0 0 2.2 2.32.04.04 0 0 0 .04 0h.02v-.03l.04-1.23c.11-.54.21-.91.29-1.12.32-.85.78-1.63 1.37-2.34 1.72-2.21 4.09-3.7 6.43-5.17l.9-.57c.11-.07.25-.12.42-.15l-.2.45Z" fill="url(#abvo242ph)"/><path d="M21.44 19.25c-.5.88-.75 1.67-.67 2.6.01.13.05.25.18.29 1.4.39 2.73 1.1 3.1 2.61a.14.14 0 0 1-.07.16.15.15 0 0 1-.07.02c-.18.02-.26.06-.22.14h-.38c.15-.1.17-.25.05-.46l-.4-.73a1.06 1.06 0 0 0-.24-.3c-.1-.08-.18-.17-.25-.27a.81.81 0 0 0-.26-.23 5.37 5.37 0 0 1-.38-.23 1 1 0 0 0-.4-.16 1.25 1.25 0 0 1-.38-.11 6.25 6.25 0 0 1-.35-.2.18.18 0 0 0-.1-.02.14.14 0 0 1-.13-.04.1.1 0 0 0-.08-.03c-.07 0-.13-.01-.18-.05.12.03.2.02.26-.02a.08.08 0 0 0 .03-.09c-.1-.36-.16-.63-.16-.83-.02-.53.04-1.28.18-2.23.03-.16.07-.32.13-.47.05-.13.08-.26.1-.4 0-.06.01-.06.04-.01l.65 1.06Z" fill="#95938C"/><path d="M31.53 20.06a77.2 77.2 0 0 1-.79-3.35c-.05-.27-.1-.53-.12-.78a59.85 59.85 0 0 1-.17-2.22.08.08 0 0 0-.08-.03 11.1 11.1 0 0 0-2.05 2.05c-.8 1.07-1.21 1.95-1.84 3.16a10.77 10.77 0 0 0-.98 5 24.24 24.24 0 0 1 .04 1.06l-.02.02c-.03.02-.07.01-.12 0l.59 1.07.88.9c.46.3.95.5 1.46.65.46.13.95.18 1.46.14 1.4-.1 2.81-.69 3.97-1.45-.14-.1-.33-.09-.57.05a.12.12 0 0 1-.18-.06c-.02-.04 0-.1.03-.14a5.22 5.22 0 0 1-.98.63c-.04 0-.07 0-.1.02-.2.12-.4.22-.64.3a.22.22 0 0 0-.1.06.29.29 0 0 1-.15.09c-.37.12-.68.2-.92.27-.12.03-.25.04-.39.04l-.39.01c-.22.05-.41.08-.59.07-.1 0-.15-.06-.16-.17 0-.03 0-.06.04-.08.1-.04.2-.07.32-.09.28-.04.55-.14.81-.28a4.5 4.5 0 0 0 1.54-1.4c.43-.64.67-1.29.71-1.94a7.64 7.64 0 0 0-.18-2.2c-.1-.47-.22-.93-.33-1.4ZM27 18.8c-.85 1.77-1.64 3.98-1.2 5.96.1.4.22.75.39 1.05.18.33.42.62.72.86 1.57 1.3 3.39 0 3.8-1.66.16-.66.19-1.32.1-1.98-.03-.37-.07-.7-.13-1.01-.16-.8-.35-1.6-.56-2.39l-.04-.17a19.75 19.75 0 0 1-.75-3.73.05.05 0 0 0-.08 0c-.76.73-1.4 1.55-1.9 2.46l-.35.61Z" fill="url(#bbvo242ph)"/><path d="M34.48 11.35c-.14 1.92.37 4.07.8 5.88l.73 3.4c.05.35.09.73.12 1.14a4.68 4.68 0 0 1-.93 3.3c-.28 0-.58.04-.9.14-.13.04-.26.1-.4.21-.12.1-.25.18-.38.26.1-.14.22-.28.34-.42 1.1-1.25 1.16-2.88.92-4.43l-.17-1.02-.55-2.45-.37-1.63c-.22-.97-.37-1.97-.46-2.99a6.4 6.4 0 0 1 .29-2.52c.04-.14.12-.29.2-.44l.2-.45c.15-.2.36-.34.61-.32.25.02.5.01.73 0 .08-.02.1.01.05.07a4.23 4.23 0 0 0-.83 2.27Z" fill="url(#cbvo242ph)"/><path d="M19.4 21.8c-.01.07.01.14.06.2l-1.23-.15c-.23-.02-.68-.12-1.34-.3a7.64 7.64 0 0 1-1.63-.6.65.65 0 0 0-.28-.04.5.5 0 0 1-.06-.22c0-.03.02-.05.05-.06.21-.05.39-.01.52.1.29.22.64.39 1.07.49.93.22 1.88.41 2.83.58Z" fill="#6E706E"/><path d="M14.98 20.91c.14 0 .23.01.28.04.42.22.96.42 1.63.6.66.18 1.11.28 1.34.3.41.04.82.1 1.23.16l.75.23c.05.04.1.05.18.05a.1.1 0 0 1 .08.03c.03.03.07.05.12.04.04 0 .08 0 .11.03l.35.19c.12.05.24.1.37.11a1 1 0 0 1 .41.16l.38.23c.1.06.19.13.26.23s.15.19.25.27c.09.07.17.17.24.3l.4.73c.12.2.1.36-.05.45l-.15.02a2.59 2.59 0 0 1-.68-.56c-.3-.36-1.26-.64-1.75-.75l-3.35-.82c-.13-.03-.28-.1-.43-.15a1.2 1.2 0 0 0-.7-.26.1.1 0 0 0-.09.05.09.09 0 0 0 .01.1l.24.26.05.1.06.25c0 .04.02.06.04.1.09.1.15.2.18.33 0 .03.03.05.06.06a.1.1 0 0 1 .05.05c.1.19.19.37.3.54.04.08.12.15.22.23.1.08.17.16.22.24-.22.13-.43.2-.63.22a.16.16 0 0 1-.12-.03 4.4 4.4 0 0 1-1.36-1.93 9.43 9.43 0 0 1-.5-2.2Z" fill="#F69F34"/><path d="M29.61 22.96c.39.65.52 1.34.4 2.08-.1.66-.48 1.06-1.12 1.2-.15.03-.31.03-.48 0-.4-.06-.8.05-1.17-.13-1.35-.64-1.14-2.23-.42-3.23.72-.93 2.13-.97 2.79.08Z" fill="#1C74A1"/><path fill-rule="evenodd" d="m30.13 19.62-.04-.17a19.75 19.75 0 0 1-.75-3.73.05.05 0 0 0-.08 0c-.76.73-1.4 1.55-1.9 2.46l-.35.61c-.45.94-.8 1.9-1.07 2.9l-.1.53c-.2.84-.21 1.69-.03 2.53.1.4.22.75.39 1.05.18.33.42.62.72.86 1.57 1.3 3.39 0 3.8-1.66.16-.66.19-1.32.1-1.98-.03-.37-.07-.7-.13-1.01-.16-.8-.35-1.6-.56-2.39Zm-3.3 3.26c-.73 1-.94 2.6.4 3.23.25.11.5.11.74.11.15 0 .3 0 .44.02.17.03.33.03.48 0 .64-.14 1.01-.54 1.12-1.2a2.99 2.99 0 0 0-.4-2.08c-.66-1.05-2.07-1.01-2.79-.08Z" fill="url(#dbvo242ph)"/><path d="M16.95 22.8c.17.64.47 1.2.92 1.66.02.03.03.06.02.09a.44.44 0 0 1-.3.3 1.03 1.03 0 0 0-.22-.24.95.95 0 0 1-.22-.23c-.11-.17-.2-.35-.3-.54a.1.1 0 0 0-.05-.05.09.09 0 0 1-.06-.06.8.8 0 0 0-.18-.34.2.2 0 0 1-.04-.09l-.06-.25a.23.23 0 0 0-.05-.1l-.24-.27a.09.09 0 0 1 .03-.13.1.1 0 0 1 .05-.01c.31.03.55.12.7.26Z" fill="#95938C"/><path d="M28.22 25.24a.07.07 0 0 0-.07.05l-.15.36c-.1.24-.38.3-.56.11-.55-.53-.68-.95-.46-1.68.16-.52.67-.9 1.22-.79.6.11.96.46 1.06 1.05.02.09.02.32 0 .68 0 .33-.25.88-.63.95-.13.02-.2-.03-.24-.15a5.02 5.02 0 0 1-.1-.52c-.01-.03-.04-.05-.07-.06Z" fill="#31385D"/><path d="M21.33 25.75c-.1.04-.17.1-.23.19-.14 0-.29 0-.42.02-.15.01-.3 0-.43-.03l-.74-.16c-.18-.12-.42-.19-.7-.2-.1 0-.22.02-.3.08a.18.18 0 0 1-.14.04l-.09.01-.39.14c-.11.04-.24.03-.34.1a.92.92 0 0 1-.22.15c-.36.16-.73.35-1.1.56-.4.22-.8.38-1.21.55a.48.48 0 0 1-.23.03c-.03 0-.04 0-.06.02a.06.06 0 0 0-.01.05c0 .04.03.06.06.08l1.37.7c.08.04.1.1.05.17l-.26.4a.14.14 0 0 1-.06.06c-.05.02-.07.06-.06.13-.25-.12-.5-.23-.73-.38-.71-.5-1.41-1.07-2.09-1.71.42-.16.86-.26 1.33-.28.04 0 .06-.01.08-.03a.1.1 0 0 0 .02-.1c1.28-.57 2.55-1.2 3.92-1.53.23-.06.47-.1.73-.1.56-.01 1.18.24 1.63.53.19.12.4.3.62.5Z" fill="#F48E37"/><path d="M44.42 26.19a.27.27 0 0 0 .08-.07c.03-.04.02-.06-.03-.06h-.05c.06 0 .1-.01.12-.04a.04.04 0 0 0 .01-.04l-.01-.02h-.02l-3.2-.47a.94.94 0 0 0-.23 0c-.1 0-.17-.01-.24-.04a.82.82 0 0 0-.27-.07 2.64 2.64 0 0 1-.53-.09.52.52 0 0 0-.25 0c-.03 0-.03.02 0 .03.02 0 .04.02.06.05.04.04.03.06-.03.06a.16.16 0 0 0-.15.07c-.12.17-.26.33-.41.49-.16.16-.23.37-.4.54-.34.32-.67.66-1 1-.48.5-1.07.88-1.6 1.33-.17.14-.37.22-.55.36-.2.17-.43.24-.63.42-.09.09-.21.16-.36.23-.21.1-.39.24-.6.34L32 31.34c-1.8.24-3.73-.12-5.45-.7-.03-.02-.04-.04-.02-.07.11-.16.22-.22.33-.2.94.32 1.89.42 2.84.28l.55-.07c.18-.02.36-.07.53-.14.72-.28 1.41-.63 2.06-1.04l2.6-1.61c.98-.6 1.98-1.13 3.03-1.42.13-.03.13-.05 0-.06-1.5-.12-3.01-.15-4.51-.1a.4.4 0 0 0-.2.07c-.14-.1-.33-.09-.57.05a.13.13 0 0 1-.1.01.12.12 0 0 1-.08-.07c-.02-.04 0-.1.03-.14l.48-.45.38-.26c.14-.1.27-.17.4-.21.32-.1.62-.14.9-.14 2.29-.15 4.53-.07 6.72.23l3.36.5c.18.03.54.01.68.1.06.02.05.04 0 .05l-1.54.24Z" fill="#F17834"/><path d="M23.3 25.06h.39c.81.1 1.8.38 2.27 1.04.16.22.3.44.44.67.08.12.12.25.15.39.02.14.06.28.12.4.01.02.03.04.06.04h.04c.04 0 .05-.02.04-.05-.04-.16-.1-.31-.16-.46a.1.1 0 0 1 .11-.13l.05.05c.15.3.24.5.27.6.2.65.07 1.24-.4 1.79a3.3 3.3 0 0 1-2.76 1.18 6.7 6.7 0 0 1-1.16-.15c-1.18-.26-1.96-.9-2.34-1.9-.1-.27-.13-.58-.1-.94-.01-.19.02-.36.1-.53.13-.4.36-.77.68-1.12a3.5 3.5 0 0 1 2.05-.86l.16-.02Z" fill="#31385D"/><path d="M44.42 26.05a17.16 17.16 0 0 0-4.44 1.54c-1.4.73-2.79 1.5-4.16 2.33-.05.03-.11.03-.17.07a23.62 23.62 0 0 1-1.43.75h-.09a4.09 4.09 0 0 1-.97.35c-.16.05-.32.1-.47.17l-.7.08 2.15-1.13c.2-.1.38-.24.59-.34.15-.07.27-.14.36-.23.2-.18.44-.25.63-.42.18-.14.38-.22.55-.36.53-.45 1.12-.84 1.6-1.34l1-1c.17-.16.24-.37.4-.53.15-.16.29-.32.4-.49a.16.16 0 0 1 .16-.07c.06 0 .07-.02.03-.06a.21.21 0 0 0-.07-.05c-.02-.01-.02-.02 0-.03a.53.53 0 0 1 .26 0c.17.05.34.08.53.1.1 0 .19.02.27.06.07.03.15.04.24.03h.22a588.25 588.25 0 0 0 3.24.5.04.04 0 0 1 0 .04c-.03.03-.07.04-.13.03Z" fill="#F69F34"/><path d="M19.51 25.77c-.9-.03-1.54.42-2.31.94-.37.26-.8.4-1.3.44-.1 0-.1.03-.01.08l.9.45a3.08 3.08 0 0 0-.7 1.12.09.09 0 0 1-.07.06l-.06.01c-.05 0-.1 0-.14-.03-.01-.07.01-.11.06-.13a.14.14 0 0 0 .06-.06l.26-.4c.04-.07.03-.13-.05-.17l-1.37-.7a.11.11 0 0 1-.06-.08l.01-.05a.07.07 0 0 1 .06-.02c.08 0 .16 0 .23-.03.4-.17.82-.33 1.21-.55.37-.21.74-.4 1.1-.56a.92.92 0 0 0 .22-.14c.1-.08.23-.07.34-.1a7.02 7.02 0 0 0 .48-.16c.06 0 .1 0 .14-.04.08-.06.2-.08.3-.08.28.01.52.08.7.2Z" fill="#6E706E"/><path d="m25.99 26.04.88.9c-.03 0-.05.02-.06.07l-.05-.05a.1.1 0 0 0-.1.02.1.1 0 0 0-.01.1c.07.16.12.31.16.46 0 .04 0 .05-.04.06h-.04a.06.06 0 0 1-.06-.04c-.06-.13-.1-.26-.12-.4a1.04 1.04 0 0 0-.15-.39 9.18 9.18 0 0 0-.44-.67c.04 0 .05-.03.03-.06Z" fill="#95938C"/><path d="M44.42 26.05h.05c.05 0 .06.03.03.07a.27.27 0 0 1-.08.07c-1.3.37-2.63.93-4 1.7-1.65.93-3.22 1.9-5.03 2.69-.85.37-1.75.6-2.7.68.15-.07.3-.12.48-.16a4.09 4.09 0 0 0 1.02-.36h.03l.04-.01c.48-.24.94-.48 1.4-.74.05-.04.1-.04.16-.07 1.37-.83 2.76-1.6 4.16-2.32a17.16 17.16 0 0 1 4.44-1.55Z" fill="#373431"/><path d="m25.58 28.43.65.02c.02 0 .04 0 .05.02.02.01.02.03.03.05l.01.26a.07.07 0 0 1-.02.06.08.08 0 0 1-.06.02H25c-.02 0-.04 0-.05-.02a.07.07 0 0 1-.02-.06v-2.16a.08.08 0 0 1 .07-.07l.46.03c.02 0 .04 0 .05.02l.02.05-.01 1.7c0 .03 0 .05.02.06.01.02.03.02.05.02ZM21.92 26.97a.88.88 0 0 1-.36.02c-.09-.01-.14.03-.13.12v.26a.13.13 0 0 0 .15.11c.26-.03.53-.03.81.02.15.02.22.1.22.23 0 .35 0 .67-.02.96 0 .04-.01.07-.04.1a.14.14 0 0 1-.08.03c-.47.05-.94.06-1.43.02a.2.2 0 0 1-.13-.06.2.2 0 0 1-.05-.12l-.03-.39c0-.08.03-.12.1-.12l.4-.01a.1.1 0 0 1 .06.02.1.1 0 0 1 .03.06l.03.13c.01.06.05.1.11.1h.32c.1 0 .14-.04.14-.14l.01-.33c0-.07-.03-.1-.1-.1h-.82a.28.28 0 0 1-.2-.09.27.27 0 0 1-.07-.2v-.77c0-.06.02-.12.07-.17.04-.05.1-.07.17-.08.45-.02.89-.01 1.31.02.15 0 .21.09.2.23 0 .13 0 .25.03.36a.07.07 0 0 1-.01.06.07.07 0 0 1-.06.03l-.46-.02a.07.07 0 0 1-.07-.07l-.01-.14a.07.07 0 0 0-.03-.05.08.08 0 0 0-.06-.02ZM23.58 26.98a.1.1 0 0 0-.08.03.1.1 0 0 0-.03.07v1.3c0 .05.04.08.09.07l.4-.01a.1.1 0 0 0 .05-.03.1.1 0 0 0 .04-.05l.02-.08a.13.13 0 0 1 .1-.06c.13-.03.27-.03.4 0 .05 0 .07.03.07.07v.41l-.02.05a.08.08 0 0 1-.04.03c-.12.04-.24.06-.38.07-.42.03-.8.02-1.16-.02a.18.18 0 0 1-.11-.06.18.18 0 0 1-.05-.12v-1.87a.19.19 0 0 1 .17-.19c.43-.04.88-.05 1.37 0 .3.02.23.38.22.58l-.02.04a.07.07 0 0 1-.05.02h-.38a.1.1 0 0 1-.09-.05l-.07-.15a.09.09 0 0 0-.08-.05h-.37Z" fill="#F69F34"/><path d="M19.04 26.99a2.44 2.44 0 0 0 .75.28.05.05 0 0 1 .02.06c-.13.23-.49.27-.72.3-.67.08-1.23.43-1.56 1-.31.55-.56 1.12-.76 1.72-.16.47-.34.95-.55 1.42a.57.57 0 0 0-.16.29c0 .04-.03.07-.06.09a.1.1 0 0 0-.05.04 1.97 1.97 0 0 1-.44.62.04.04 0 0 0 .02.04l.02.01c.39.04.74.03 1.07-.03l.97-.04c.03 0 .04-.02.04-.05l-.12-1.3-.02.03c.02-.5.08-.88.2-1.13.1-.2.31-.5.64-.88.51-.34 1-.59 1.47-.75.03.13.07.21.1.26a.1.1 0 0 1-.03.14c-.21.09-.4.17-.56.34-.23.26-.4.55-.5.89-.1.33-.12.67-.06 1a1798.84 1798.84 0 0 0 .38 2.17c-.34-.02-.67-.03-1.01-.02-.22 0-.4-.07-.6-.09a43.36 43.36 0 0 0-2.67-.34c-.17-.02-.32-.07-.48-.12a.09.09 0 0 0-.1.03c-.08.1-.17.11-.27.06.26-.32.47-.64.62-.94.41-.81.79-1.68 1.14-2.62.06-.17.18-.35.27-.52.02-.04 0-.06-.07-.08l.06-.01c.03-.01.05-.03.06-.06.16-.42.4-.78.7-1.1.03-.03.03-.03 0-.02a.48.48 0 0 0 .16-.06c.66-.4 1.36-.62 2.1-.63Z" fill="#F17834"/><path d="M19.04 26.99c.47-.03.93 0 1.37.07-.07.17-.1.34-.1.53v-.13c-.01-.03-.04-.04-.07-.03a3.1 3.1 0 0 0-1.12.58c-.31.29-.57.77-.79 1.45-.33.38-.55.67-.65.88-.11.25-.17.62-.19 1.13-.05-.02-.09-.01-.11.02a.1.1 0 0 1-.08.04.13.13 0 0 1-.1-.03.1.1 0 0 0-.09-.03c-.12.03-.25.04-.39.05a.57.57 0 0 0-.26.09l-.24.16c.21-.47.4-.95.55-1.42.2-.6.45-1.17.76-1.71.33-.58.89-.93 1.56-1.02.23-.02.59-.06.72-.29a.05.05 0 0 0-.04-.07c-.26-.06-.5-.15-.73-.27ZM19.8 28.71l.65.16a.2.2 0 0 1 .12.3.2.2 0 0 1-.1.08c-.5.22-1.07.38-1.27.97a.71.71 0 0 1-.29.49c-.03.02-.05.01-.07-.02-.05-.08-.06-.2-.03-.35.1-.34.27-.63.5-.89.15-.17.35-.25.56-.34a.1.1 0 0 0 .05-.06.1.1 0 0 0-.01-.08.77.77 0 0 1-.11-.26Z" fill="#373431"/><path d="M19.2 30.22c-.01.47.04.9.14 1.26a22.15 22.15 0 0 0 .77 2.15c.02.7.15 1.38.4 2.06a5.2 5.2 0 0 1 .13.44h-.01l-.01-.01-.11-.17c-.02-.04-.06-.05-.1-.02l-.89.56h-.02a.03.03 0 0 1-.03-.02c.07-.95-.12-1.89-.28-2.81a.4.4 0 0 0-.06-.15c.02-.02.02-.06.01-.11a1798.84 1798.84 0 0 1-.39-2.05c-.06-.34-.04-.68.06-1.01-.03.15-.02.27.03.35.02.03.04.04.07.02a.71.71 0 0 0 .3-.49Z" fill="#95938C"/><path d="M29.7 30.65c-.95.14-1.9.04-2.84-.27.43-.1.74-.13.92-.07a8 8 0 0 0 1.92.34Z" fill="#373431"/><path d="M21.26 30.73a2.43 2.43 0 0 1-.24.89.9.9 0 0 0-.09.3c-.03.42-.01.93.06 1.53-.15.1-.4.15-.75.14a.1.1 0 0 1-.07-.03l-.04-.04c.03-1.05.3-2.03.82-2.95.02-.03.05-.04.08-.03.11.03.19.1.23.2Z" fill="#F17834"/><path d="m17.5 31.47.01-.03c-.22.53-.52 1-.89 1.39a3.7 3.7 0 0 1-1.1.02.04.04 0 0 1 0-.06c.2-.18.33-.38.43-.6a.1.1 0 0 1 .05-.04.12.12 0 0 0 .06-.1c.02-.1.08-.2.16-.28l.24-.16a.57.57 0 0 1 .26-.09c.14 0 .27-.02.4-.05a.1.1 0 0 1 .09.03c.02.02.05.03.1.03a.1.1 0 0 0 .07-.04c.02-.03.06-.04.11-.02Z" fill="#95938C"/><path d="M24.23 31.7c.04.09.01.14-.08.16a.09.09 0 0 0-.06.12 106.18 106.18 0 0 1 .83 1.51c0 .04 0 .07.03.1.13.2.24.39.33.58a43.67 43.67 0 0 1 1.82 3.44c.34.86.55 1.51.65 1.96.34 1.64.2 3.25-.42 4.85-.33.83-.7 1.58-1.1 2.24a.54.54 0 0 1-.13.1c-.05-.13-.09-.27-.11-.42-.08-.43-.23-.9-.41-1.3-.4-.9-.8-1.68-1.2-2.36l-2.4-4.08c-.18-.3-.38-.68-.61-1.12-.02-.04-.06-.06-.14-.07.06 0 .08-.02.06-.06-.06-.12-.16-.23-.22-.37a4.76 4.76 0 0 0-.26-.53l.14.56a.15.15 0 0 1-.08.18c-.77.34-1.58.58-2.43.72a.38.38 0 0 1-.32-.1c.12-.36.17-.72.14-1.07a21.23 21.23 0 0 0-.47-2.99 9.04 9.04 0 0 1-4.2-.38.05.05 0 0 1 .01-.04l.4-.3c.1.05.19.03.27-.06a.09.09 0 0 1 .1-.03c.16.05.31.1.47.12a43.25 43.25 0 0 1 2.67.34c.22.02.39.09.6.09.35 0 .68 0 1.02.02.03.04.05.09.06.15.16.92.35 1.86.28 2.8a.03.03 0 0 0 .03.04h.02l.9-.57c.03-.03.07-.02.09.02l.1.17h.03a.02.02 0 0 0 .01-.02 5.2 5.2 0 0 0-.14-.41 6.34 6.34 0 0 1-.4-2.06c.05-.04.05-.07.02-.1l.04.03a.1.1 0 0 0 .07.03c.36 0 .6-.04.75-.14l.11.56c.04.2.1.37.16.54.25.6.51 1.17.84 1.73l.7 1.2.44.7c.55.82 1.1 1.65 1.63 2.48.5.76.9 1.55 1.2 2.36.04.1.07.1.09 0l.3-1.9.02-.02.01-.02c.02-.41.03-.83.03-1.24 0-1.4-.27-2.68-.8-3.81-.27-.54-.64-1.24-1.13-2.1a11.38 11.38 0 0 1-.98-2.28.1.1 0 0 1 .06-.07.1.1 0 0 1 .04 0c.17 0 .35.05.52.13Z" fill="#F69F34"/><path d="m21.23 37.4-.66.2c-.8.24-1.63.38-2.5.43-.08 0-.1-.03-.07-.1a.5.5 0 0 1 .12-.12c.1.08.2.11.32.1a9.27 9.27 0 0 0 2.43-.72.15.15 0 0 0 .08-.18l-.14-.56h.01c.1.17.18.35.25.53.05.14.16.25.22.37.02.04 0 .06-.06.06Z" fill="#373431"/><path d="M24.6 31.85c-.1-.06-.23-.11-.37-.14.04.08.01.13-.08.15a.09.09 0 0 0-.07.09l.01.03a106.18 106.18 0 0 1 .83 1.51c0 .04 0 .07.03.1.13.2.24.39.33.58a43.67 43.67 0 0 1 1.82 3.44c.34.86.55 1.51.65 1.96.34 1.64.2 3.25-.42 4.85-.33.83-.7 1.58-1.1 2.24a.54.54 0 0 1-.13.1.37.37 0 0 0-.03.12c.04.1.1.14.21.11.33-.07.64-.11.93-.14a.1.1 0 0 0 .07-.04 12.9 12.9 0 0 0 1.64-3.62 7.56 7.56 0 0 0-.5-5.33 9.4 9.4 0 0 0-.75-1.35c-.67-.93-1.32-1.84-1.94-2.73-.3-.43-.6-.98-.89-1.64a.6.6 0 0 0-.24-.29Z" fill="url(#ebvo242ph)"/><path d="M21.41 31.06c.05-.12 0-.23-.15-.33a2.46 2.46 0 0 1-.24.89.9.9 0 0 0-.09.3 7.88 7.88 0 0 0 .17 2.09c.04.2.1.37.16.54.25.6.51 1.17.84 1.73l.7 1.2.44.7c.55.82 1.1 1.65 1.63 2.48.5.76.9 1.55 1.2 2.36.04.1.07.1.09 0l.3-1.9-2-3.06c-.59-.8-1.3-1.72-2.1-2.74a6.7 6.7 0 0 1-.98-1.67c-.05-.14-.1-.27-.12-.4l-.1-.46c-.12-.56.07-1.19.25-1.73Z" fill="url(#fbvo242ph)"/><defs><linearGradient id="abvo242ph" x1="31.65" y1="9.33" x2="31.14" y2="19.52" gradientUnits="userSpaceOnUse"><stop stop-color="#A5CA45"/><stop offset="1" stop-color="#03A859"/></linearGradient><linearGradient id="bbvo242ph" x1="29.58" y1="13.68" x2="29.58" y2="27.74" gradientUnits="userSpaceOnUse"><stop stop-color="#06ABEE"/><stop offset="1" stop-color="#0B1D31"/></linearGradient><linearGradient id="cbvo242ph" x1="34.68" y1="9" x2="34.68" y2="25.68" gradientUnits="userSpaceOnUse"><stop offset=".4" stop-color="#3E3C3C"/><stop offset="1" stop-color="#B7BCBB"/></linearGradient><linearGradient id="dbvo242ph" x1="28.27" y1="15.7" x2="28.27" y2="27.19" gradientUnits="userSpaceOnUse"><stop stop-color="#FFF40F"/><stop offset="1" stop-color="#E58945"/></linearGradient><linearGradient id="ebvo242ph" x1="26.64" y1="31.71" x2="26.64" y2="47" gradientUnits="userSpaceOnUse"><stop stop-color="#E5E7E9"/><stop offset=".39" stop-color="#333139"/></linearGradient><linearGradient id="fbvo242ph" x1="23.68" y1="30.73" x2="23.68" y2="43.1" gradientUnits="userSpaceOnUse"><stop stop-color="#D8DADC"/><stop offset=".32" stop-color="#34323A"/></linearGradient></defs></svg>