<!-- by TradingView --><svg width="18" height="18" viewBox="0 0 18 18" xmlns="http://www.w3.org/2000/svg"><path fill="#F0F3FA" d="M0 0h18v18H0z"/><path d="M14 14H4V4h10v10Zm-3.97-8.64c-.37-.33-.77-.43-1.19-.32L5.26 6c-.08.02-.26.1-.26.17v.97c.3 0 1-.03 1 .26v3.66c0 .04-.77.41-.8.43a.2.2 0 0 0-.07.06.2.2 0 0 0-.03.1l-.1.85v.04a.07.07 0 0 0 .06.04l.03-.01 2.75-1.4a.1.1 0 0 0 .04-.03.1.1 0 0 0 .02-.04c.05-.26.01-.43-.1-.53-.3-.22-.38-.63-.3-.97a.26.26 0 0 1 .13-.16.25.25 0 0 1 .2-.02c.13.05.23.14.3.25.2.41.39.81.63 1.17C9.43 11.8 11 13 12.11 13H13v-.8h-.18c-.15 0-.3 0-.45-.1a5.56 5.56 0 0 1-2.16-3.45.5.5 0 0 1 .04-.28c.4-.9.6-2.32-.22-3.01ZM7.54 6.7c.45-.35 1.04-.4 1.33.12.2.34-.09.7-.39.88a3.25 3.25 0 0 1-1 .34l-.02-.01L7.44 8v-.03l-.04-.97a.37.37 0 0 1 .14-.3Z" fill="#581B30"/></svg>