<!-- by TradingView --><svg width="56" height="56" viewBox="0 0 56 56" xmlns="http://www.w3.org/2000/svg"><path fill="#F0F3FA" d="M0 0h56v56H0z"/><path d="M44 14H12v.89l2 1.41v15.46c0 2.01 1.09 3.24 3.13 3.24h1.06c2.16 0 3.68-.88 3.81-3h2c0 1.99 1.68 3 3.7 3h.53c2.31 0 3.77-1.54 3.77-3.82V24h-1.4c-.24 2.58-1.93 8-6.6 8V17.8a.9.9 0 0 1 1.32-.81L32 20.5v-3.43c0-.57.42-1.07 1-1.07.58 0 1 .5 1 1.07v4.37L38.67 24H34v11h8V16.3l2-1.5V14ZM22 32c-3.85 0-7-3.45-7-7.25v-1.1c0-3.02 2.25-5.7 5.17-6.64 1.08-.35 1.83.44 1.83 1.56V32Zm-8 10.62V43h8v-2.17c0-1 1.43-1.69 2.35-1.3L32.63 43h8.56c.45 0 .81-.55.81-1 0-.45-.36-1-.8-1h-2.54c-.77 0-1.66-.22-1.66-1v-1c0-.78.89-1 1.66-1h2.41c.51 0 .93-.5.93-1.02v-.04a.93.93 0 0 0-.93-.94H33.6c-.48 0-.93.25-1.19.67l-1.71 2.8-7.5-3.47h-7.8c-.77 0-1.39.63-1.39 1.41v1.43c0 .78.62 1.16 1.4 1.16h1.76c.39 0 .84.6.84 1s-.45 1-.84 1h-2.23c-.51 0-.93.1-.93.62Z" fill="#034AEC"/></svg>