<!-- by TradingView --><svg width="56" height="56" viewBox="0 0 56 56" xmlns="http://www.w3.org/2000/svg"><path fill="#F0F3FA" d="M0 0h56v56H0z"/><path d="M40.47 17a8.53 8.53 0 1 1 0 17.06 8.53 8.53 0 0 1 0-17.06Z" fill="url(#abssf2w2z)"/><path fill-rule="evenodd" d="M48.5 25.53a8.03 8.03 0 1 0-16.06 0 8.03 8.03 0 0 0 16.06 0Zm.5 0a8.53 8.53 0 1 0-17.06 0 8.53 8.53 0 0 0 17.06 0Z" fill="#FD6F64"/><path d="M36.54 23h2.98l2.49 7.42c.16.47.32.82.48 1.05.17.23.34.4.51.53h-3.83a1.05 1.05 0 0 0 .5-1.2c-.03-.1-.05-.2-.08-.26L39 29h-2.23l-.65 1.56c-.08.24-.12.45-.12.63 0 .33.14.6.42.81H34c.22-.25.4-.5.53-.72.13-.23.25-.51.36-.86l2-5.99c.07-.23.11-.46.11-.68a.75.75 0 0 0-.1-.39 1.26 1.26 0 0 0-.36-.36Zm.48 5h1.75l-.86-2.74-.89 2.74ZM9.54 23h2.98l2.49 7.42c.16.47.32.82.48 1.05.17.23.34.4.51.53h-3.83a1.05 1.05 0 0 0 .5-1.2c-.03-.1-.05-.2-.08-.26L12 29H9.77l-.65 1.56c-.08.24-.12.45-.12.63 0 .33.14.6.42.81H7c.22-.25.4-.5.53-.72.13-.23.25-.51.36-.86l2-5.99c.07-.23.11-.46.11-.68a.75.75 0 0 0-.1-.39 1.26 1.26 0 0 0-.36-.36Zm.48 5h1.75l-.86-2.74-.89 2.74ZM16.48 23h3.04c-.2.17-.34.37-.4.6a2.8 2.8 0 0 0-.12.84v7.07c0 2.09-1.24 3.2-3.14 3.49A5.2 5.2 0 0 0 17 31.88v-7.44c0-.67-.17-1.15-.52-1.44ZM21 23h3l1.65 6.23 1.05-4.04c.09-.39.14-.66.14-.81 0-.14-.03-.3-.08-.47a2.4 2.4 0 0 0-.54-.91h2.86c-.05.14-.08.28-.08.43 0 .2.06.48.16.85l1.53 4.95 1.17-4.43c.1-.33.14-.6.14-.8 0-.37-.04-.66-.32-1H34l-3 9c-.78-.23-1.94-.66-2.27-1.47a9.9 9.9 0 0 1-.28-.86l-.91-3.03L26 32c-.94-.24-1.92-.67-2.36-1.6a2.97 2.97 0 0 1-.17-.49 5.71 5.71 0 0 0-.09-.31l-1.55-5.22A2.4 2.4 0 0 0 21 23Z" fill="#009B4C"/><path d="M22.84 37.76c-.5.16-1.07.24-1.59.24-1.16 0-2.25-.74-2.25-2 0-1.27 1.15-2 2.32-2 .4 0 .8.07 1.2.16l.1.89a2.1 2.1 0 0 0-1.34-.51c-.85 0-1.5.59-1.5 1.46 0 .9.7 1.46 1.57 1.46.27 0 .42-.04.65-.14v-.88a.68.68 0 0 0-.04-.27.39.39 0 0 0-.17-.17h1.19a.39.39 0 0 0-.16.17.67.67 0 0 0-.05.27v1.03l.01.18c.01.04.03.07.06.11ZM23.78 38a.4.4 0 0 0 .17-.17.71.71 0 0 0 .05-.3v-1.57c0-.25.05-.52-.16-.7l.96-.26v.31a1.53 1.53 0 0 1 1.2-.28v.77l-.23-.1a.73.73 0 0 0-.2-.02c-.39 0-.77.28-.77.74v1.12c0 .12.01.22.04.29a.4.4 0 0 0 .17.17h-1.23ZM28.5 38c-.86 0-1.5-.62-1.5-1.48S27.65 35 28.52 35c.84 0 1.48.59 1.48 1.44 0 .86-.62 1.56-1.5 1.56Zm0-.52c.5 0 .82-.39.82-.98 0-.6-.32-.96-.82-.96-.5 0-.81.37-.81.97 0 .48.28.97.81.97ZM33 37.85c-.22.15-.57.15-.86.15-1 0-1.14-.68-1.14-1.5v-.92a.7.7 0 0 0-.04-.29.4.4 0 0 0-.17-.17l.91-.12v1.83c0 .36.18.64.55.64.44 0 .75-.29.75-.8v-1.1a.7.7 0 0 0-.04-.28.4.4 0 0 0-.17-.17l.84-.12V37.53a3.61 3.61 0 0 0 .04.32l.04.07a.7.7 0 0 0 .08.08H33v-.15ZM34.8 39c.08-.05.13-.1.16-.16a.67.67 0 0 0 .04-.27V35.9c0-.23.04-.49-.15-.66l.83-.24v.26c.21-.16.47-.24.75-.24.8 0 1.37.63 1.37 1.41a1.4 1.4 0 0 1-2.12 1.24V39h-.88Zm1.56-1.62c.45 0 .75-.37.75-.95 0-.56-.3-.9-.75-.9-.46 0-.67.29-.68.93 0 .46.14.92.68.92Z" fill="#2B2B2A"/><defs><linearGradient id="abssf2w2z" x1="40.47" y1="17" x2="40.47" y2="34.06" gradientUnits="userSpaceOnUse"><stop stop-color="#F7282E"/><stop offset="1" stop-color="#FFF3E9"/></linearGradient></defs></svg>