<!-- by TradingView --><svg width="56" height="56" viewBox="0 0 56 56" xmlns="http://www.w3.org/2000/svg"><path fill="#F0F3FA" d="M0 0h56v56H0z"/><path d="M19 25.46V25c6.24 0 7.2 3.87 7 5.8v11.83c0 1.88 1.4 3.25 2 3.7v.65c-5.81.37-7.78-4.89-8-7.56V27.13c0-.89-.64-1.48-1-1.67Z" fill="#01D042"/><path d="M19.55 20.43c-.09.02-.17 0-.24-.06a.24.24 0 0 1-.08-.23c.27-1.42.56-2.56.87-3.42a9.9 9.9 0 0 1 1.7-3.05c1.42-1.67 3.7-2.65 6.82-2.92A30.1 30.1 0 0 0 33 10.1a9.1 9.1 0 0 0 2.42-1.05.3.3 0 0 1 .16-.04c.22 0 .32.04.3.12-.45 1.5-.94 2.83-1.46 4a6.93 6.93 0 0 1-3.22 3.5c-.63.32-1.36.57-2.2.75-.7.15-1.55.27-2.53.34-2.65.21-4.79 1.04-6.43 2.48-.14.12-.3.2-.49.24Z" fill="#FDFF14"/><path d="M39 19.3a5.99 5.99 0 0 1-.88 2.82 6.82 6.82 0 0 1-2 2.08 8.39 8.39 0 0 1-5.78 1.38c-1.5-.19-2.91-.5-4.25-.96-1.08-.36-2.1-.64-3.07-.85a5.49 5.49 0 0 0-1.35-.1c-.3.01-.74.05-1.33.13-.42.06-.75.1-.97.11a.26.26 0 0 1-.26-.12.68.68 0 0 1 0-.74 7.94 7.94 0 0 1 6.21-4.19c.52-.07 1.3-.08 2.36-.02.7.04 1.75.17 3.14.4 1 .15 1.76.26 2.27.31 1.87.2 3.64-.03 5.32-.66a.42.42 0 0 1 .41.05c.13.09.19.2.18.36Z" fill="#FDFF14"/></svg>