<!-- by TradingView --><svg width="56" height="56" viewBox="0 0 56 56" xmlns="http://www.w3.org/2000/svg"><path fill="#F0F3FA" d="M0 0h56v56H0z"/><path fill-rule="evenodd" d="M6.8 22H6v5h.8v-1.73l.63-.64L9.19 27h1.03l-2.2-2.96 2-2.04H9l-2.2 2.25V22Zm4.2 0h.76v4.31H14V27h-3v-5Zm8.62 1.41-.65.31c-.14-.36-.62-1.08-1.5-1.08-1.11 0-1.7.83-1.7 1.91s.77 1.76 1.78 1.76c.82 0 1.32-.28 1.45-.42v-.9h-1.45v-.57h2.15v1.79a3.2 3.2 0 0 1-2.24.79A2.5 2.5 0 0 1 15 24.55c0-1.13.63-2.55 2.46-2.55 1.48 0 2.05.94 2.16 1.41ZM24.3 27c1.15 0 1.93-.72 2.2-1.71l-.8-.14c-.19.69-.68 1.18-1.4 1.18-.94 0-1.49-.82-1.49-1.82 0-1.01.57-1.83 1.49-1.83.61 0 1.07.38 1.3.93l.8-.16A2.19 2.19 0 0 0 24.3 22c-1.41 0-2.3 1.12-2.3 2.5s.85 2.5 2.3 2.5Zm2.43.01h.83l.47-1.33h2.07l.47 1.33h.88l-1.91-5h-.94l-1.87 5Zm3.13-2-.79-2.23-.8 2.23h1.6Zm12.79 2h-.83l1.87-5h.94l1.91 5h-.88l-.54-1.51H43.2L42.65 27Zm1.51-4.23.73 2.04h-1.46l.73-2.04ZM32 27v-5h2.4c.88 0 1.6.68 1.6 1.53 0 .84-.72 1.53-1.6 1.53H32.8V27H32Zm2.34-4.37H32.8v1.77h1.54a.9.9 0 0 0 .93-.88.9.9 0 0 0-.93-.89ZM37.5 22h-.87v4.83h.87V22Zm3.38 0h-2.46v.75H40V27h.87v-4.25h1.62V22h-1.62ZM47 27h3v-.75h-2.17V22H47v5Z" fill="#0E34C3"/><path d="M16.1 35H16v-5h3.73v.75h-2.86v1.38h2.51v.74h-2.51v1.39h2.86V35H16.1Zm14.7-5H30v5h.8v-5Zm3 5a2.2 2.2 0 0 0 2.2-1.72l-.8-.13c-.18.69-.68 1.18-1.4 1.18-.94 0-1.49-.82-1.49-1.83 0-1 .58-1.83 1.49-1.83.62 0 1.08.38 1.31.93l.8-.15A2.2 2.2 0 0 0 33.8 30c-1.41 0-2.3 1.12-2.3 2.5s.85 2.5 2.3 2.5Zm3.2 0h3.73v-.74H37.8v-1.39h2.58v-.74H37.8v-1.39h2.93V30H37v5Zm-22.13-3.52h-.8c-.06-.64-.71-.85-1.08-.85-.36 0-1 .17-1 .62 0 .45.3.68 1.58.92 1.03.2 1.38.95 1.43 1.3.04.51-.28 1.53-1.9 1.53-1.62 0-2.07-1.16-2.1-1.74h.79v.02c.07.24.29 1.05 1.31 1.05 1.05 0 1.18-.57 1.18-.73v-.01c0-.17 0-.58-1.46-.93-1.48-.35-1.55-1.06-1.55-1.18 0-.26.03-1.48 1.72-1.48 1.35 0 1.82.99 1.88 1.48Zm29.19 0h.81c-.06-.5-.54-1.48-1.91-1.48-1.72 0-1.75 1.22-1.75 1.48 0 .12.07.83 1.58 1.18 1.48.35 1.48.76 1.48.93 0 .17-.13.74-1.2.74-1.04 0-1.26-.81-1.33-1.05v-.02h-.8c.02.58.49 1.74 2.13 1.74s1.97-1.02 1.93-1.52c-.05-.36-.41-1.11-1.45-1.3-1.3-.25-1.6-.48-1.6-.93 0-.45.64-.62 1-.62.38 0 1.05.21 1.1.85ZM20 30v5h.77v-2.15h1.12c.2.15.5.38.68.63.24.34.71 1.16.92 1.52h.93l-1.01-1.52c-.1-.14-.33-.43-.6-.64.73-.1 1.28-.62 1.28-1.39 0-.84-.67-1.45-1.51-1.45H20Zm.75.63h1.54c.5 0 .92.35.92.77 0 .43-.41.77-.92.77h-1.54v-1.54Zm3.9-.63 1.94 5h.88l1.98-5h-.89l-1.49 4.12L25.53 30h-.89Z" fill="#0E34C3"/></svg>