<!-- by TradingView --><svg width="56" height="56" viewBox="0 0 56 56" xmlns="http://www.w3.org/2000/svg"><path fill="#F0F3FA" d="M0 0h56v56H0z"/><path d="M28.95 29.62a45.17 45.17 0 0 0 2.07-12.72c.04-5.64-3.72-8.58-5.4-2.61a22.76 22.76 0 0 0-.15 6.64c.37 2.52.98 5 1.6 7.48l.62 2.58c.05.22.19.4.37.65.1.13.2.27.3.44.09-.33.15-.64.22-.93.12-.56.23-1.05.37-1.53Zm5-11.9c-2.12 4.45-2.85 9.26-3.45 14.18 1.09-1.6 2.17-3.2 3.28-4.78 2.01-2.92 3.87-5.92 5.01-9.33a5.05 5.05 0 0 0-.2-3.54c-.28-.72-.7-.8-1.38-.47-1.69.83-2.52 2.39-3.26 3.95Zm-8.4 14.42c-.1-.02-.15-.04-.18-.08l-1.4-2.33a404.6 404.6 0 0 1-5.3-8.95c-.46-.8-.71-1.74-.97-2.66l-.21-.78a4.42 4.42 0 0 1-.1-1.45c.05-1 .54-1.74 1.5-2.03.96-.3 1.73.23 2.06 1.02l.5 1.2c.87 2.03 1.74 4.06 2.3 6.18.62 2.3 1.04 4.65 1.46 7.03l.54 2.92-.2-.07Zm7.34.3-.1.34.23-.06c.08-.01.13-.02.17-.05l1-.67c3.16-2.17 6.33-4.34 8.89-7.27l.6-.69.76-.89c.43-.49.8-2.87.37-3.02-.68-.24-1.67-.34-2.23 0l-.15.1c-1.39.84-2.88 1.75-3.81 3.02-1.47 2-2.76 4.13-4.05 6.26-.49.81-.98 1.63-1.49 2.44-.08.14-.13.3-.19.5Zm-9.79.54-.62-.4c-.43-.27-.85-.54-1.25-.84-.63-.49-1.27-.96-1.92-1.43-2.5-1.83-5.02-3.67-6.9-6.23-.71-.96-1.29-2.02-.87-3.27.29-.87.87-1.04 1.72-.69 2.37.98 4.16 2.63 5.44 4.81 1.09 1.84 2.14 3.7 3.18 5.55l1.27 2.24c.02.02.01.07-.01.14a1.6 1.6 0 0 0-.04.12Zm13.09-.71c-.96.78-1.92 1.56-2.98 2.2l.02.12.04.17 1.58-.41 1.99-.51a19.92 19.92 0 0 0 7.4-3.37c.7-.53.78-1.16.6-1.8-.07-.2-.84-.35-1.23-.27-.75.15-1.47.4-2.2.66l-.36.12c-1.87.65-3.37 1.87-4.86 3.09ZM22.1 34.83l-1.52-.4c-1.21-.3-2.42-.6-3.59-1.03a29.96 29.96 0 0 1-4.04-1.99l-.32-.17c-.53-.3-.98-.78-1.36-1.26-.5-.63-.32-1.17.48-1.26.81-.1 1.77-.19 2.44.16 1.93 1 3.78 2.14 5.57 3.36.63.43 1.17.99 1.7 1.55.24.25.48.5.73.73l-.03.1-.06.2Zm7.46 1.99c1.66 1.2 1.87 2.37.82 4.56.77-.32 1.36-1.74 1.07-2.7-.7-2.36-2.95-3.96-5.38-2.36-1.27.83-2.08 2.06-1.85 3.2.37 1.85 1.78 3.32 3.3 3.47 1.2.11 2.37-.52 2.77-1.53l-.23.16c-.18.13-.36.26-.56.34-1.2.46-2.43.6-3.58-.16-1.25-.83-1.17-2.21-1.07-3.4.12-1.67 3.25-2.65 4.71-1.58Zm5.53-.84 1.03-.44c.74-.32 1.48-.64 2.23-.88 1-.33 2.04-.52 3.07-.71l.06-.01c.25-.04.69.1.8.3.1.2.01.66-.16.84l-.1.1c-.36.37-.77.8-1.2.84-1.4.15-2.8.2-4.21.27l-1.4.06c-.03-.06-.04-.12-.06-.19l-.06-.18Zm-16.1.47h1.15l-.08-.06c-1.18-.93-2.33-1.82-3.92-1.78-.24 0-.5-.07-.74-.14-.23-.07-.45-.14-.68-.15-.34 0-.69.07-1.03.14l-.43.09c.11.12.2.26.3.4.22.3.43.58.71.74 1.5.8 3.1.78 4.72.76Zm15.7 1.66c2.42-.61 3.7-.46 5 .82l-5.03-.4h-.01l.04-.41Zm-18.26.08h5.37c-1.18.9-4.55.94-5.37 0Zm19.04 1.77c.64-.45 1.26-.36 1.85.4h-1.86v-.4Zm-14.32.09c-1.34-.66-1.78-.5-2.34.78l1.12-.37 1.22-.41Z"/></svg>