<!-- by TradingView --><svg width="56" height="56" viewBox="0 0 56 56" xmlns="http://www.w3.org/2000/svg"><path fill="#F0F3FA" d="M0 0h56v56H0z"/><path d="m27.8 48-1.67-3h3.37l-1.7 3Zm2.27-4h-4.5l-2.22-4h9l-2.28 4Zm2.84-5H22.8l-1.67-3h13.5l-1.7 3Zm-7.6-4h-4.74l-1.67-3h2.75a7.52 7.52 0 0 0 3.65 3Zm9.04-3a7.52 7.52 0 0 1-3.65 3h4.5l1.7-3h-2.55Zm.53-1c.4-.92.62-1.93.62-3h3.67l-1.7 3h-2.6Zm-14.31-4c.14-1.1.52-2.1 1.08-3h-7.2l1.67 3h4.45Zm13.02-4a7.48 7.48 0 0 0-11.18 0h-8.52l-1.67-3h31.5l-1.7 3h-8.43Zm.76 1c.56.9.94 1.9 1.08 3h4.31l1.7-3h-7.1Zm-13.23 7a7.47 7.47 0 0 1-.62-3h-3.83l1.67 3h2.78ZM44.3 19H11.67L10 16h36l-1.7 3Z" fill="#B3B3B3"/><path fill-rule="evenodd" d="M35 28a7 7 0 1 1-14 0 7 7 0 0 1 14 0Zm-1 0a6 6 0 1 1-12 0 6 6 0 0 1 12 0Zm-10.97-2h4.12l-.4 1h-1.22l-.9 3h-1.6l.95-3h-1.26l.31-1Zm7.93 0h-1.67a2.73 2.73 0 0 0-2.58 2.04c-.2.66-.23 1.96 1.36 1.96h1.44l.56-1H28.8c-.2.01-.61-.11-.61-.65 0-.67.69-1.35 1.44-1.35h.96l.36-1Zm-.56 4 1.36-4h1.57l-1.37 4H30.4Z" fill="#2B292A"/></svg>