<!-- by TradingView --><svg width="56" height="56" viewBox="0 0 56 56" xmlns="http://www.w3.org/2000/svg"><path fill="#F0F3FA" d="M0 0h56v56H0z"/><path d="M21.72 31.98 21.5 34H26v-2.64l-4.28.62Zm.07-.67 4.2-.88v-.82l-4.12 1-.08.7Zm.15-1.3L26 28.68v-.71l-4 1.52-.06.52Zm.12-1.14L26 27v-.81l-3.87 2.03-.07.64Zm.17-1.55L26 25.27v-.62l-3.7 2.08-.07.6Zm.14-1.23L26 23.96v-.48l-3.58 2.15-.05.46Zm.13-1.18 3.5-2.4v-.54l-3.45 2.44-.05.5Zm.14-1.33L26 21v-.68l-3.3 2.8-.06.46Zm.15-1.32L26 19.4V17l-3 3.45-.2 1.8Z" fill="#C2C4C9"/><path d="m30 34-1.5-13.55L26 17v17h4Z" fill="#949599"/><path d="M11.33 22h8.75l-1.52 2.75h-4.52c-.67 0-1.22.54-1.22 1.2 0 .67.55 1.05 1.22 1.05h5.42c.51-.11 1.54.5 1.54 3.21 0 2.7-1.03 3.65-1.54 3.79H9l1.2-2.54h6.7c.6 0 1.1-.5 1.1-1.1 0-.6-.5-1.36-1.1-1.36h-5.57c-.57-.08-1.71-.64-1.71-3.29 0-2.64 1.14-3.57 1.71-3.71ZM38.06 24.65 39.44 22H32.7c-.9.45-2.69 2.31-2.69 6.22 0 3.9 1.61 5.48 2.42 5.78h5.64l1.2-2.4h-4.5c-.53-.11-1.76-.93-1.76-3.38 0-2.45 1.14-3.4 1.63-3.57h3.43ZM40 34V22h3v9.4h6L47.46 34H40Z" fill="#231F20"/></svg>