<!-- by TradingView --><svg width="56" height="56" viewBox="0 0 56 56" xmlns="http://www.w3.org/2000/svg"><path fill="url(#a)" d="M0 0h56v56H0z"/><path fill="#A19EA3" d="M16 18h22v24H16z"/><path d="M38 18h-7.7l-7.15 3.27C17.1 24.55 16 28.18 16 32c0 3.82 2.2 10 11 10s11-6.55 11-10.9a8.7 8.7 0 0 0-2.75-6.55L24.5 31v4.5l9.65-6.05c0 1.64.55 9.55-7.15 9.55-6.16 0-8-4.82-8-7 0-3.93 3.6-6.36 5.8-7.45L38 18Z" fill="#FDFDFD"/><path d="M26.82 42H38V18l-13.41 6.55c-2.24 1.09-5.59 3.7-5.59 7.63 0 2.18 1.74 6.82 8 6.82 7.4 0 7.12-7.11 7.1-9.23l-.01-.32-9.5 6V31.1l10.62-6.54c.93.72 2.79 3.05 2.79 6.54C38 35.45 35.76 42 26.82 42Z" fill="#9C3791"/><path d="M44 13.1 36.16 12l2.8 2.77L44 13.1Z" fill="#A19EA3"/><path d="M39.52 19.74v-3.32L44 13.11l-4.48 6.63Z" fill="#9C3791"/><defs><linearGradient id="a" x1="10.42" y1="9.71" x2="68.15" y2="76.02" gradientUnits="userSpaceOnUse"><stop stop-color="#1A1E21"/><stop offset="1" stop-color="#06060A"/></linearGradient></defs></svg>