<!-- by TradingView --><svg width="56" height="56" viewBox="0 0 56 56" xmlns="http://www.w3.org/2000/svg"><path fill="#F0F3FA" d="M0 0h56v56H0z"/><path fill-rule="evenodd" d="M11 28c0 9.4 7.65 17 17 17 9.4 0 17-7.6 17-17s-7.65-17-17-17c-9.4 0-17 7.65-17 17Zm1 0c0 8.85 7.2 16 16 16 8.85 0 16-7.15 16-16s-7.2-16-16-16c-8.85 0-16 7.2-16 16Z" fill="#EF6110"/><path d="M27.52 36.31c-.05-.06-.23-.18-.29-.43-.06-.12-.06-.42-.17-.55a15.2 15.2 0 0 0-1.76-1.22l-.76.43c.4.24.88.61 1.35 1.1.05.06.11.06.23.06.12-.06.3-.06.4 0 .18.12.18.37 0 .55v.06c0 .18.07.3.07.43 0 0 0 .06.06.06l1 .55c.05 0 .1 0 .05-.06a2.85 2.85 0 0 0-.18-.98c.06 0 .06 0 0 0Zm5.21-4.58c-.11.06-.29.12-.35.3a10 10 0 0 0-.4 1.23c-.24.3-.3.55-.3.97 0 .3-.35.92-1.11 3.06 0 .06-.06.12 0 .18 0 .06.06.19.11.3l.06.07c.06 0 .18 0 .18.06.12 0 .4.12.47.43v.18c0 .06.06.25.11.43l.06.06h1.06c.05 0 .11-.06.05-.12-.23-.37-.29-.43-.4-.67-.42-.19-.53-.37-.65-.5-.12-.18-.12-.36-.12-.48.06-.61.94-2.26 1.12-2.45.29-.24.35-.42.4-.6.06-.2.06-.31.06-.37.06-.25.65-1.04.94-1.47-.53-.43-.88-.43-1.29-.61Zm4.92-11.55c-.12-.12-.12-.12-.12-.19-.06-.18-.06-.24-.12-.24-.05 0-.11-.06-.17-.06-.18 0-.35 0-.53-.06-.88-.37-1.29-.74-1.29-.74a.69.69 0 0 0 .12-.85c0 .12-.06.18-.12.18a.58.58 0 0 0-.4-.67c.17.12.11.37.11.43-.06-.12-.17-.3-.35-.3.12.3-.06.6-.4.54.1-.36.05-.8-.07-1.22-.17.43-.4.55-.64 1.22-.18-.12-.82-.49-1.35-.24.18.06.53.18.59.36-.53-.12-1.17-.06-1.58.31.3-.06.7.06.82.18-.24.19-.7.25-1.23.25.12.12.58.36.88.43-.76 0-.94.36-1.4.6.52-.05.7.19 1.05.19-.59.12-.82.37-1.47.3.12.25.65.56.88.62-.35.06-.82.36-1.23.24.18.37.82.55 1.17.55-.06.12-.7.25-1 .25.12.18.7.18.83.24a3 3 0 0 1-1.12.24c.18.37.94.55 1.3.5-.13.36-1.06.3-1.47.12.17.42.88.91 1.52.85-.3.18-1.05.25-1.4.18.11.25.64.62 1.05.74.35.12.23.36-.12.49-1.23.36-3.1.36-4.56.06a5.4 5.4 0 0 0-1.4 0c-.3.06-.53.12-.77.24-.12.06-.12 0-.12-.18.06-.3.06-.61 0-.92-.11-.67-.7-1.1-1.28-1.4a3.46 3.46 0 0 0-1.76-.3c-.23 0-.47.05-.7.05-.12 0-.53.12-.7.19.11.06.17.12.46.18-.81.06-1.63.37-2.4-.12.12.49.65.6 1 .6-2.05.37-3.04-.85-3.16-1.1a2.35 2.35 0 0 0 1.76 1.78c-.24 0-.88.06-1.76-.43.47 1.16 2.58.98 2.7.98a3.1 3.1 0 0 1-1.47.18c1 .8 2.57-.18 4.62-.24a2.5 2.5 0 0 0-1.46.8c1.35-.62 2.52-.5 2.63-.5 1.11.07 1.06.55.59 1.29-.18.3-.3.67-.35 1.04-.12.91.23 1.83.76 2.5.17.25.4.5.64.74.35.3.59.55.76.67.41.36.47.49.41.6-.17.31-.47.56-.76.8l-.12-.06c-.11-.06-.11-.12-.11-.12.17-.06.47-.12.7-.49.06-.06.06-.12.06-.24 0-.06-.12-.19-.24-.3l-.05-.07-.18-.18c-.18-.13-.47-.3-.7-.55-.35 1.22-.94 1.77-1.11 1.83 0 0-.06.06 0 .06 0 .06.05.25.05.43 0 .06.06.12.12.12.18 0 .3.06.53.06h.11c-.05.12-.05.25-.05.43 0 .06 0 .06.05.06.18.18.53.49.7.67.42.5.7.74 1.3 2.5 0 .07.11.07.17.13.59.12.59.61.53.73v.07c0 .18.06.3.06.36 0 0 0 .06.05.06h1.17c.06 0 .06-.06.06-.06a3.55 3.55 0 0 0-.47-.73c-.11-.06-.46-.12-.58-.43-.06-.12-.06-.18 0-.3 0-.07-.06-.25-.06-.31a10 10 0 0 1-1.4-2.5v-.07h.05c.24-.12.41-.24.7-.49.12-.06.18-.12.24-.18a4.57 4.57 0 0 0 1.52-1.77c.18-.37.3-1.04.24-1.4a2.3 2.3 0 0 0-.35-.86s0-.06.05 0c.3.18.53.98.59 1.1 0 0 .94.73 4.56.73h.36c.05 0 .17 0 .23-.06-.06-.06-.18-.12-.23-.18a2.32 2.32 0 0 1-.53-.92 3.19 3.19 0 0 1-.12-.73c0-.13.06-.13.06 0 .06.18.06.42.18.6.11.31.23.56.46.74.18.18.41.43.7.55.07.06.12.06.24.12 1.17.55 1.99.86 2.81 1.23 0 0 .06.06.06.12v.3c0 .06-.06.13-.06.13-.64.79-1 1.16-1.7 1.77-.06.06-.11.12-.11.24 0 .19.05.25.05.37s-.05.12-.11.12c-.12-.06-.3-.12-.47-.18-.06 0-.06 0-.12.06l-.52 1.04c0 .06 0 .12.05.12.24-.06.53-.06.7-.12.3-.06.3-.37.83-.5.05 0 .17 0 .29-.11l.35-.68c.17-.24.23-.42.3-.48.34-.5.4-.55 1.34-1.6l.06-.12c0-.18.05-.42.05-.67 0-.12-.05-.18-.05-.24 0 0-.18-.19-.18-.25-.7-.49-1.35-1.34-1.58-1.59l.06-.06.06-.06c.17-.18.35-.43.47-.67.7-1.4.29-3-.3-4.34-1.4-3-1.23-4.22-1.23-4.22.47.13.82-.18 1.17-.24h.88l.24.24h.17c.06 0 .18-.06.3-.12l.17-.06s.06 0 .06-.06a.47.47 0 0 0 .12-.24v-.07c-.12 0-.36-.06-.41-.06-.06 0-.06-.18 0-.18.11 0 .4.06.46.06h.06c0-.06.06-.18.12-.24-.3.18-.3.12-.35.06Zm-2.7-.92c-.17 0-.17.06-.17.06 0 .06.06.12.18.19-.18 0-.24-.07-.41-.25a.52.52 0 0 1 .4-.18c.24 0 .3.3.3.3s-.23-.06-.3-.12Z" fill="#2C0B07"/></svg>