<!-- by TradingView --><svg width="56" height="56" viewBox="0 0 56 56" xmlns="http://www.w3.org/2000/svg"><path fill="#F0F3FA" d="M0 0h56v56H0z"/><path fill-rule="evenodd" d="M27.96 9.55c.08.23.3.36.48.3.18-.07.26-.3.17-.54-.08-.23-.3-.36-.48-.3-.18.07-.26.31-.17.54Zm.4.95 1.11-.67c.1-.05.17-.04.23.06.03.04.02.11-.04.2a.12.12 0 0 1-.04.05l-1.23.74a.11.11 0 0 1-.14 0l-.85-.68a.24.24 0 0 1-.1-.2v-.12c0-.06.03-.08.09-.05.24.13.47.33.68.62.08.1.18.12.3.05Zm1.18.15-1.01.71a.24.24 0 0 1-.2.05 1.55 1.55 0 0 1-.6-.28c-.55-.41-.95-.7-1.23-.87-.08-.04-.14-.03-.2.04l-.04.05c-.04.05-.03.1.02.14.43.33.94.7 1.53 1.12.3.22.6.23.86.05.39-.27.78-.53 1.18-.78.06-.04.06-.08.01-.12l-.14-.11c-.06-.05-.12-.05-.18 0Zm-1.42 2.72c.12.01.26-.03.42-.12a52.31 52.31 0 0 0 2.93-1.75c.11-.07.21-.07.31.01l.07.06c.06.04.06.09 0 .13-.98.64-2.11 1.32-3.4 2.02a.67.67 0 0 1-.36.1c-.1 0-.2-.05-.34-.15-1.17-.88-2.2-1.7-3.07-2.48-.06-.05-.05-.1.01-.13l.07-.05a.25.25 0 0 1 .32.03c.71.63 1.6 1.34 2.65 2.15.15.11.28.17.4.18Zm.59-1.21c-.14.08-.3.14-.51.19-.1.02-.2 0-.29-.06l-1.59-1.27c-.04-.03-.09-.03-.13 0a.1.1 0 0 0-.06.12l.02.11c.02.09.06.16.13.22l1.41 1.11c.3.24.63.26.95.06l1.56-.94c.1-.05.14-.14.12-.25l-.01-.1c-.01-.08-.07-.1-.17-.04l-1.43.85Zm-.42 2.2c.11-.03.25-.1.41-.19a118.1 118.1 0 0 0 3.79-2.28c.06-.04.11-.03.14.04.03.06.03.12 0 .17a.57.57 0 0 1-.2.24l-4.1 2.47a.19.19 0 0 1-.16.01 2.9 2.9 0 0 1-.98-.55l-.47-.41-3.13-2.45c-.09-.07-.08-.13.02-.17a.45.45 0 0 1 .18-.05c.1 0 .21.04.33.13l3.72 2.94c.12.1.27.13.45.1Zm-5.05-2.71L27.47 15c.06.05.07.15.02.21l-.07.1a.15.15 0 0 1-.22.02l-4.22-3.37a.15.15 0 0 1-.02-.21l.07-.1a.15.15 0 0 1 .21-.01Zm2.91 3.39-3.41-2.73a.19.19 0 0 0-.26.03l-.04.04c-.06.08-.05.2.03.26l3.42 2.73c.08.06.2.05.26-.03l.03-.04a.19.19 0 0 0-.03-.26Zm2.76-.03 4.51-2.69a.17.17 0 0 1 .24.06c.06.09.03.2-.05.24l-4.52 2.7a.17.17 0 0 1-.24-.07.17.17 0 0 1 .06-.24Zm4.7-1.87-3.34 1.95a.16.16 0 0 0-.05.22c.05.08.15.1.22.06l3.33-1.95c.08-.04.1-.14.06-.22a.16.16 0 0 0-.23-.06Zm-10.96.28 3.1 2.4c.08.06.1.18.03.26a.2.2 0 0 1-.27.04l-3.1-2.4a.19.19 0 0 1-.03-.26v-.01a.2.2 0 0 1 .27-.03Zm3.09 3.43-4.35-3.4a.21.21 0 0 0-.3.03.2.2 0 0 0 .03.3l4.35 3.4c.1.08.22.06.3-.03a.2.2 0 0 0-.03-.3Zm-5.31-3.04 5.3 4.16c.08.07.1.2.03.29h-.01a.2.2 0 0 1-.29.04l-5.3-4.16a.2.2 0 0 1-.03-.3.2.2 0 0 1 .3-.03Zm13.7.02-3.39 1.9a.15.15 0 0 0-.06.2l.01.02c.04.08.14.1.21.06l3.4-1.9c.07-.04.1-.13.05-.2v-.02a.16.16 0 0 0-.22-.06Zm-2.68 2.4 3.95-2.21a.16.16 0 0 1 .21.05v.01c.05.08.02.17-.05.21l-3.95 2.22a.16.16 0 0 1-.21-.06.15.15 0 0 1 .05-.21Zm-5.79 2.73-5.93-4.66a.21.21 0 0 0-.3.03.2.2 0 0 0 .03.3l5.94 4.66c.09.07.22.06.3-.03v-.01a.2.2 0 0 0-.04-.3Zm4.84-1.26 5.74-3.33a.16.16 0 0 1 .22.05l.01.03c.05.07.02.17-.05.21L30.67 18a.16.16 0 0 1-.21-.06l-.02-.02a.15.15 0 0 1 .06-.21Zm6.25-2.75-6.02 3.51a.17.17 0 0 0-.06.23c.05.09.15.11.23.07l6.03-3.52c.08-.05.1-.15.06-.23a.17.17 0 0 0-.24-.06Zm-17.43.15 6.34 4.94c.1.07.11.2.04.3-.08.1-.21.11-.3.04l-6.34-4.95a.21.21 0 0 1-.04-.3c.08-.09.2-.1.3-.03Zm17.67.58-6.4 3.75a.16.16 0 0 0-.07.23c.05.08.15.11.23.06l6.41-3.75c.08-.05.11-.15.06-.23a.17.17 0 0 0-.23-.06Zm-17.77.4 6.33 5.07c.1.07.1.2.03.3-.08.1-.22.11-.3.04l-6.34-5.06a.21.21 0 0 1-.03-.3v-.01c.08-.1.22-.1.3-.03Zm4.41 4.69-5.4-4.31a.21.21 0 0 0-.3.03c-.08.1-.07.23.03.3l5.4 4.3c.1.08.23.07.3-.02a.21.21 0 0 0-.03-.3Zm-6.7-4.2 5.1 4c.1.08.11.21.04.3v.02a.22.22 0 0 1-.32.03l-5.1-4a.22.22 0 0 1-.04-.31c.08-.1.22-.12.32-.04Zm19.98.06-6.36 3.77a.17.17 0 0 0-.05.23c.05.08.15.1.23.06l6.35-3.77c.08-.04.11-.15.06-.23a.17.17 0 0 0-.23-.06Zm-6.07.19c.01.03 0 .07-.05.1-.04.02-.09 0-.1-.03-.02-.03 0-.08.04-.1.04-.02.09 0 .1.03Zm7.35-.02-7.63 4.53a.18.18 0 0 0-.06.25c.05.09.16.11.25.06l7.63-4.52a.18.18 0 0 0 .06-.25.18.18 0 0 0-.25-.07Zm-22.35.08 4.61 3.64c.1.08.12.22.04.32a.23.23 0 0 1-.33.04l-4.6-3.64a.22.22 0 0 1-.04-.32c.08-.1.23-.12.32-.04Zm23.65.16-5.93 3.54a.17.17 0 0 0-.06.24v.01c.05.08.16.11.25.06l5.92-3.54a.18.18 0 0 0 .06-.24v-.01a.18.18 0 0 0-.24-.06Zm-24.43.36 4.17 3.28c.1.09.13.24.04.34v.01a.25.25 0 0 1-.35.04l-4.17-3.28a.24.24 0 0 1-.04-.34c.09-.11.24-.13.35-.05Zm25.29.08-5.09 3.1a.19.19 0 0 0-.06.26c.06.1.17.12.26.06l5.09-3.1a.19.19 0 0 0 .06-.25.19.19 0 0 0-.26-.07Zm-25.86.8 3.5 2.66c.1.08.12.22.04.32v.01a.23.23 0 0 1-.33.04l-3.5-2.66a.23.23 0 0 1-.04-.32c.08-.1.23-.13.33-.05Zm26.7-.19-4.6 2.7a.06.06 0 0 0-.02.07l.13.22c.01.03.05.03.08.02l4.59-2.7a.06.06 0 0 0 .02-.07l-.13-.22a.06.06 0 0 0-.08-.02Zm-3.48 3c-.04.02-.04.05-.02.08l.12.21c.02.04.04.04.08.02l3.28-1.88c.4-.23.57-.4.52-.49l-.02-.02c-.05-.1-.28-.03-.68.2L37.7 21.1Zm-20.65.2-2.67-2.12a.26.26 0 0 0-.36.04l-.01.01a.26.26 0 0 0 .04.36l2.67 2.12c.11.09.27.07.36-.04h.01a.26.26 0 0 0-.04-.37Zm21.78.15 2.9-1.67a.17.17 0 0 1 .23.06c.05.1.03.2-.06.24l-2.9 1.67a.17.17 0 0 1-.23-.06.17.17 0 0 1 .06-.24Zm-22.64.33-1.54-1.12a.2.2 0 0 0-.28.04l-.01.01a.2.2 0 0 0 .04.28l1.55 1.12a.2.2 0 0 0 .27-.05h.01a.2.2 0 0 0-.04-.28Zm23.63.09 1.32-.77c.1-.05.2-.02.26.06v.02c.06.08.03.2-.06.25l-1.33.77a.19.19 0 0 1-.25-.07v-.01a.18.18 0 0 1 .06-.25ZM13 43l.83-1h25.22c.41 0 .75-.3.75-.7 0-.42-.34-.8-.75-.8h-23.1c-1.43 0-2.6-1.5-2.6-2.92a2.6 2.6 0 0 1 2.6-2.58H42v2H16.94c-.52 0-.94.13-.94.65 0 .51.42.85.94.85h22.33c1.5 0 2.73 1.3 2.73 2.8 0 1.49-1.22 2.7-2.73 2.7H13.83L13 43Zm16-10.95V34h-2v-1.92A8.44 8.44 0 0 1 21.5 34c-4.14 0-7.5-2.69-7.5-6s3.36-6 7.5-6c2.17 0 4.13.74 5.5 1.92V16h2v7.95A8.64 8.64 0 0 1 34.62 22c3.55 0 6.54 1.92 7.38 4.51h-2.43c-.78-1.45-2.65-2.48-4.84-2.48-2.88 0-5.21 1.78-5.21 3.97 0 2.19 2.33 3.97 5.21 3.97 2.06 0 3.85-.91 4.7-2.23h2.48c-.94 2.46-3.85 4.26-7.3 4.26A8.64 8.64 0 0 1 29 32.05ZM26.74 28c0 2.19-2.27 3.97-5.07 3.97-2.8 0-5.07-1.78-5.07-3.97 0-2.19 2.27-3.97 5.07-3.97 2.8 0 5.07 1.78 5.07 3.97Z" fill="#0E090A"/></svg>