<!-- by TradingView --><svg width="56" height="56" viewBox="0 0 56 56" xmlns="http://www.w3.org/2000/svg"><path fill="#F0F3FA" d="M0 0h56v56H0z"/><path fill-rule="evenodd" d="m34.1 31 3.88-5.08L27.9 12l-9.87 13.92.1.15.23.32.74 1.04.05.06.18.25.01.02.49.67.26.36.23.32a210.26 210.26 0 0 0 .5.69l.26.35c.15.21.3.39.47.57l.24.28h-7.1L9 39h7.65l5.42-7.6 5.81 8.6 6-8.55L39.35 39H47l-5.7-8H34.1Zm-.54 0-5.65-7.8-.84 1.19c.17-.05.47-.07.49.2 0 .23.12.4.2.5l1.51 1.06-1.37 1.27v1.34L31.55 31H27v-5.15l.58-.75c-.19-.19-.28-.22-.35-.24a.25.25 0 0 1-.14-.08c-.1-.1-.09-.26-.06-.35L22.35 31H27v7.46l1 .9v-4.31a3.6 3.6 0 0 0 3.6-3.68V31h1.96Zm3.9-5.08-.15-.2h-6.93l.27.35h6.7l.1-.15Zm-.65-.89.26.36h-6.94l-.28-.36h6.96Zm-.23-.33H29.6l-.27-.35h7l.25.35Zm-.5-.68h-7l-.28-.35h7.03l.26.35Zm-.49-.68h-7.04l-.27-.35h7.06l.25.35Zm-7.68-.83.11.15h7.08l-.25-.35H21.12l-.25.35h6.92l.12-.15Zm6.44-.88.26.35H21.35l.25-.35h12.75Zm-.23-.33H21.83l.25-.35h11.78l.26.35Zm-.5-.68h-11.3l.24-.35h10.8l.26.35Zm-.49-.68H22.8l.25-.35h9.83l.25.35Zm-.49-.68h-9.36l.25-.35h8.85l.26.35Zm-.5-.68h-8.38l.25-.36h7.88l.26.36Zm-.48-.68h-7.42l.25-.36h6.91l.26.36Zm-.5-.68h-6.43l.25-.36h5.93l.25.36Zm-.49-.68h-5.46l.25-.36h4.96l.25.36Zm-.5-.69H25.7l.25-.35h3.98l.26.35Zm-.48-.68h-3.51l.25-.35h3l.26.35Zm-.5-.68h-2.53l.25-.35h2.03l.25.35Zm-.49-.68h-1.56l.25-.35h1.06l.25.35Zm-.49-.68h-.59l.25-.35h.09l.25.35ZM27.54 23h-6.9l-.26.35h6.9l.26-.35Zm-7.64 1.03.25-.35h6.87l-.26.35H19.9Zm-.23.33h6.84l-.27.35h-6.82l.25-.35Zm-.48.68h6.8l-.27.36h-6.78l.25-.36Zm6 1.04.28-.36H18.7l-.15.21.1.15h6.55Zm-6.05.68-.25-.36h6.06l-.27.36h-5.54Zm.24.32h5.05l-.27.36h-4.53l-.25-.36Zm.49.69h4.04l-.27.35h-3.52l-.25-.35Zm.49.68h3.03l-.27.35h-2.5l-.26-.35Zm.5.68h2.01l-.27.35h-1.49l-.26-.35Zm.49.68h1l-.26.35h-.48l-.26-.35Zm9.83-3.05-.27-.36h6.19l-.27.36h-5.65Zm.25.32h5.16l-.27.36H31.7l-.27-.36Zm.53.69h4.11l-.26.35h-3.58l-.27-.35Zm.52.68h3.08l-.26.35h-2.54l-.28-.35Zm.53.68h2.04l-.27.35h-1.5l-.27-.35Zm.52.68h1l-.26.35h-.46l-.28-.35Zm-19.1 2.4.25-.36h6.26l-.24.35h-6.27Zm-.24.32h6.29l-.24.35h-6.3l.25-.35Zm-.5.68h6.33l-.23.35h-6.35l.26-.35Zm-.48.68h6.36l-.24.35h-6.38l.26-.35Zm-.5.68h6.4l-.23.36h-6.42l.26-.36Zm-.48.68h6.43l-.24.36h-6.45l.26-.36Zm-.5.68h6.47l-.24.36h-6.48l.26-.36Zm-.49.68h6.5l-.23.36h-6.52l.25-.36Zm-.49.69h6.54l-.24.35H10.5l.25-.35Zm-.49.68h6.57l-.23.35H10l.26-.35Zm25.04-5.78-.24-.35h6.26l.25.35H35.3Zm.22.33h6.3l.24.35h-6.3l-.24-.35Zm.46.68h6.32l.26.35H36.2l-.23-.35Zm.45.68h6.36l.26.35h-6.38l-.24-.35Zm.46.68h6.4l.25.36h-6.42l-.23-.36Zm.45.68h6.43l.26.36h-6.45l-.24-.36Zm.46.68h6.46l.26.36h-6.48l-.24-.36Zm.46.68h6.5l.25.36h-6.52l-.23-.36Zm.45.69h6.54l.25.35h-6.55l-.24-.35Zm.46.68h6.57l.25.35H39.4l-.23-.35ZM28.43 26.1v.58a2.39 2.39 0 0 1-.9-.29c.14-.1.5-.3.9-.3Zm-.63-1.18a.74.74 0 0 0-.17-.56c-.17-.22.1-.41.25-.48.08.04.24.15.24.32 0 .07-.03.1-.05.15-.05.07-.11.17-.11.57h-.16Zm.12.2a.75.75 0 0 0 .26-.53c.01-.28.34-.25.5-.2.04.08.08.26-.03.39a.25.25 0 0 1-.14.08c-.09.03-.2.06-.47.36l-.12-.1Z"/></svg>