<!-- by TradingView --><svg width="56" height="56" viewBox="0 0 56 56" xmlns="http://www.w3.org/2000/svg"><path fill="#006599" d="M0 0h56v56H0z"/><path d="M15.21 24c1.16-.04 2.29.74 2.29 1.98 0 1.23-1.08 2.02-2.25 2.02-1.18 0-2.25-.76-2.25-2.01 0-1.2 1.07-2.03 2.21-1.99Zm.04.21c-.7 0-1.25.58-1.25 1.8 0 .74.32 1.78 1.24 1.78.93 0 1.26-1.02 1.26-1.75 0-.76-.3-1.83-1.25-1.83ZM8 25.32V24h-.12a.35.35 0 0 1-.1.21.25.25 0 0 1-.16.07c-.06 0-.18-.04-.37-.1a2.51 2.51 0 0 0-2.08.1c-.36.17-.64.42-.86.75a1.83 1.83 0 0 0 .78 2.72c.35.17.75.25 1.2.25A2.46 2.46 0 0 0 8 27.36v-.33c-.24.26-.55.44-.77.54-.22.11-.46.16-.73.16-1 0-1.5-.87-1.5-1.79 0-.84.6-1.69 1.53-1.69a1.4 1.4 0 0 1 1.36 1.07H8Zm2 2v-1.24h.27L11.63 28h1.33v-.1a.56.56 0 0 1-.3-.1 2.02 2.02 0 0 1-.28-.32l-1.02-1.46c.26-.06.46-.15.6-.27a.87.87 0 0 0 .34-.7.89.89 0 0 0-.22-.6c-.15-.17-.35-.29-.58-.35-.24-.07-.61-.1-1.12-.1H8.4v.1c.2 0 .33.02.4.05.07.03.12.08.15.13s.04.18.04.4v2.65c0 .2-.01.33-.04.39a.3.3 0 0 1-.15.13c-.07.03-.2.04-.4.04v.1h2.17v-.1c-.2 0-.33-.01-.4-.05a.3.3 0 0 1-.15-.12 1.23 1.23 0 0 1-.03-.4Zm0-1.44v-1.67h.32c.34 0 .58.07.73.2.15.14.23.36.23.65 0 .2-.05.36-.13.49a.63.63 0 0 1-.33.26c-.15.05-.36.07-.65.07H10Zm13.9-1.78V24h-1.09v.1c.16 0 .28.03.33.08.06.04.1.1.1.18l-.03.17-.14.35-.69 1.72-.77-1.9a1.8 1.8 0 0 1-.14-.4c0-.03.02-.07.04-.1a.2.2 0 0 1 .1-.06c.07-.02.17-.03.31-.04V24h-2.04v.1a.7.7 0 0 1 .3.05c.06.03.12.09.17.16.06.08.13.22.22.45l.18.4-.66 1.54-.83-1.94c-.1-.24-.16-.39-.16-.46 0-.05.03-.1.08-.13.05-.04.14-.06.3-.07V24h-1.84v.1c.13.02.23.05.28.12.06.07.16.26.3.57l1.39 3.2h.11l1.16-2.46L21.92 28h.12l1.33-3.24.2-.44a.45.45 0 0 1 .14-.16.43.43 0 0 1 .2-.06Zm1.98-.1L28 26.46v-1.73c0-.23-.04-.39-.1-.47-.1-.1-.28-.16-.51-.16V24h1.4v.1c-.18.02-.3.05-.37.09a.33.33 0 0 0-.14.16c-.03.07-.05.2-.05.38V28h-.1l-2.9-3.27v2.6c0 .22.05.37.16.45.11.07.24.11.39.11h.1v.1h-1.5v-.1c.23 0 .4-.04.48-.13.1-.08.14-.23.14-.43v-2.87l-.09-.1a.8.8 0 0 0-.24-.2.78.78 0 0 0-.3-.06V24h1.5Zm8.53 1v-1h-3.79v1h.12a.96.96 0 0 1 .34-.62c.13-.1.34-.16.62-.16h.3v3.12c0 .2 0 .31-.03.36a.28.28 0 0 1-.12.13.63.63 0 0 1-.3.06h-.14v.1h2.21v-.1h-.14a.64.64 0 0 1-.29-.05.33.33 0 0 1-.14-.13.97.97 0 0 1-.05-.37v-3.12h.33c.2 0 .34.02.42.05.14.06.25.15.33.25.08.1.16.24.22.48h.11Zm5.05-1h2.18v.11h-.1a.83.83 0 0 0-.35.05.28.28 0 0 0-.13.13c-.02.05-.06.19-.06.4v1.96c0 .6.2 1.06.89 1.06.85 0 1.11-.66 1.11-1.38V24.7c0-.17-.02-.3-.06-.37a.33.33 0 0 0-.15-.15.97.97 0 0 0-.4-.07V24h1.47v.11h-.09a.61.61 0 0 0-.3.07.38.38 0 0 0-.17.2.89.89 0 0 0-.04.32v1.53c0 1.06-.46 1.77-1.66 1.77-.88 0-1.6-.42-1.6-1.35V24.7c0-.22 0-.36-.03-.41a.29.29 0 0 0-.14-.13.93.93 0 0 0-.37-.05V24Zm12.28 1.27L51.7 24h-.09c-.03.11-.06.19-.09.22a.18.18 0 0 1-.12.04.93.93 0 0 1-.3-.09 1.74 1.74 0 0 0-.75-.17c-.38 0-.7.1-.94.32a1 1 0 0 0-.23 1.27c.09.15.22.28.38.4.17.12.45.27.83.44.28.12.47.22.58.3.1.07.18.15.24.24.05.08.08.17.08.26a.5.5 0 0 1-.21.4.84.84 0 0 1-.56.17c-.3 0-.58-.1-.84-.32a1.62 1.62 0 0 1-.53-.93H49V28h.15a.4.4 0 0 1 .15-.17.33.33 0 0 1 .17-.06c.07 0 .15.02.25.06l.44.13c.12.03.25.04.38.04.42 0 .77-.11 1.05-.34.27-.23.41-.51.41-.83a1 1 0 0 0-.26-.67c-.17-.2-.5-.4-1-.62a6.77 6.77 0 0 1-.67-.33 1.01 1.01 0 0 1-.29-.27.4.4 0 0 1-.07-.22c0-.13.07-.25.19-.35.12-.1.3-.16.5-.16.28 0 .53.1.77.3.23.19.38.44.44.76h.13ZM18.26 32.6 18.1 34h-3.7v-.1h.14a.6.6 0 0 0 .3-.07c.05-.03.09-.08.12-.14.02-.05.04-.17.04-.37v-2.64c0-.2-.02-.33-.04-.38a.3.3 0 0 0-.14-.13.55.55 0 0 0-.28-.06h-.14V30h2.22v.1h-.18a.6.6 0 0 0-.29.07.29.29 0 0 0-.12.14c-.03.05-.03.17-.03.37v2.55c0 .2 0 .34.03.4.02.05.07.1.14.12.05.02.18.03.37.03h.35c.22 0 .4-.04.55-.12a1 1 0 0 0 .39-.35c.1-.16.2-.4.3-.71h.13Zm2.33 1.3v.1h-2.18v-.1h.14a.6.6 0 0 0 .3-.07c.04-.03.09-.08.11-.14.03-.05.04-.17.04-.37v-2.64c0-.2-.01-.33-.04-.38a.3.3 0 0 0-.13-.13.55.55 0 0 0-.28-.06h-.14V30h2.18v.1h-.14a.6.6 0 0 0-.29.07.29.29 0 0 0-.13.14c-.02.05-.03.17-.03.37v2.64c0 .2.01.33.03.38.03.05.07.1.14.13a.6.6 0 0 0 .28.06h.14Zm4.3-3.9-1.14 2.64L22.58 30h-1.7v.1H21c.12 0 .21.03.28.07a.3.3 0 0 1 .14.13c.02.05.03.18.03.38V33.5a.55.55 0 0 1-.1.22c-.04.05-.1.09-.18.12a.7.7 0 0 1-.26.04h-.04V34h1.42v-.1a.76.76 0 0 1-.42-.1.43.43 0 0 1-.17-.24 2.4 2.4 0 0 1-.01-.37v-2.81L23.32 34h.07L25 30.35v2.97c0 .2-.02.32-.04.37a.29.29 0 0 1-.13.14.6.6 0 0 1-.3.06h-.13V34h2.18v-.1h-.14a.6.6 0 0 1-.28-.07.3.3 0 0 1-.13-.13 1.39 1.39 0 0 1-.03-.38v-2.64c0-.2 0-.32.03-.37a.3.3 0 0 1 .12-.14.6.6 0 0 1 .3-.06h.13V30h-1.7Zm4.3 3.9v.1H27v-.1h.14a.6.6 0 0 0 .3-.07c.05-.03.09-.08.12-.14.02-.05.03-.17.03-.37v-2.64c0-.2-.01-.33-.03-.38a.3.3 0 0 0-.14-.13.55.55 0 0 0-.28-.06H27V30h2.18v.1h-.14a.6.6 0 0 0-.29.07.29.29 0 0 0-.12.14c-.03.05-.04.17-.04.37v2.64c0 .2.01.33.04.38.02.05.07.1.13.13a.6.6 0 0 0 .28.06h.14Zm4.2-2.82V30h-3.75v1.08h.12c.04-.3.16-.52.33-.68.13-.11.34-.17.62-.17H31v3.09c0 .2 0 .32-.03.37a.29.29 0 0 1-.12.14.6.6 0 0 1-.3.06h-.13V34h2.18v-.1h-.14a.6.6 0 0 1-.28-.07.33.33 0 0 1-.14-.13 1.2 1.2 0 0 1-.04-.38v-3.09h.32c.19 0 .33.02.4.05.14.07.25.16.33.27.08.1.16.28.22.53h.11Zm1.61-.85v1.63h.09c.5 0 .75-.4.8-.86H36v2h-.11c-.05-.45-.22-.74-.43-.84a1.1 1.1 0 0 0-.46-.08v1.13c0 .22.01.35.03.4.04.1.13.17.37.17h.25c.39 0 .7-.09.93-.26.24-.17.4-.44.51-.8h.12L37 34h-3.45v-.1c.16 0 .34-.05.41-.21.02-.05.03-.17.03-.37v-2.64a2 2 0 0 0-.01-.33c-.06-.19-.26-.24-.43-.24V30H37v1.18h-.21a1.4 1.4 0 0 0-.25-.62.93.93 0 0 0-.46-.28 2.57 2.57 0 0 0-.64-.05H35Zm2.42 3.66V34h1.87a2.87 2.87 0 0 0 1.3-.25c.2-.1.37-.22.52-.37.15-.16.28-.35.37-.59.1-.24.14-.5.14-.78 0-.4-.1-.77-.29-1.1-.19-.32-.47-.56-.84-.72-.3-.13-.7-.19-1.2-.19h-1.87v.1h.14c.12 0 .21.03.28.07a.3.3 0 0 1 .14.13c.02.05.02.18.02.38v2.67c0 .19 0 .3-.02.34a.35.35 0 0 1-.14.15.58.58 0 0 1-.28.05h-.14Zm1.58-.54v-3.12c.34 0 .6.02.75.09.2.08.38.25.51.49.17.3.25.71.25 1.23 0 .63-.12 1.1-.37 1.4-.18.23-.44.34-.78.34a.52.52 0 0 1-.24-.04.17.17 0 0 1-.08-.09.9.9 0 0 1-.04-.3Zm6.69-7.27v1.25c0 .2 0 .34.03.4.03.04.08.09.15.12.07.03.2.05.4.05v.1H44.1v-.1c.2 0 .33-.02.4-.05a.3.3 0 0 0 .14-.13c.03-.05.05-.18.05-.4v-2.65c0-.2-.02-.33-.05-.39a.29.29 0 0 0-.14-.13 1.1 1.1 0 0 0-.4-.04V24h1.96c.52 0 .89.02 1.13.09.23.06.43.18.58.35.14.17.22.38.22.6 0 .29-.11.52-.34.7-.14.12-.34.21-.6.27l1.02 1.47c.13.16.22.27.28.31.09.06.18.09.3.1v.1h-1.33l-1.36-1.92h-.27Zm0-1.87v1.67h.17c.28 0 .5-.02.64-.07a.63.63 0 0 0 .34-.26.88.88 0 0 0 .12-.49c0-.29-.07-.5-.22-.64s-.4-.21-.73-.21h-.32Zm-6.34 1.77c0-1.24-1.13-2.02-2.29-1.98-1.14-.04-2.21.79-2.21 1.99 0 1.25 1.07 2 2.25 2 1.17 0 2.25-.78 2.25-2Zm-3.5.03c0-1.22.55-1.8 1.25-1.8.95 0 1.25 1.07 1.25 1.83 0 .73-.33 1.75-1.26 1.75-.92 0-1.24-1.04-1.24-1.78Z" fill="#F6FEA4"/></svg>