<!-- by TradingView --><svg width="56" height="56" viewBox="0 0 56 56" xmlns="http://www.w3.org/2000/svg"><path fill="#9A9A9A" d="M0 0h56v56H0z"/><path fill-rule="evenodd" d="M12.75 22h-2L7.5 26.14V22H6v9h1.5v-2.52l1.37-1.7 2.1 4.22H13l-3.09-5.5 2.84-3.5ZM16 31a3 3 0 1 0 0-6 3 3 0 0 0 0 6Zm0-1.26c.78 0 1.42-.78 1.42-1.74s-.64-1.74-1.42-1.74c-.78 0-1.42.78-1.42 1.74s.64 1.74 1.42 1.74ZM46 28a3 3 0 1 1-6 0 3 3 0 0 1 6 0Zm-1.58 0c0 .96-.64 1.74-1.42 1.74-.78 0-1.42-.78-1.42-1.74s.64-1.74 1.42-1.74c.78 0 1.42.78 1.42 1.74ZM20 25v6h1.5v-3.66c.19-.47.62-1.14 1.33-1.14.82 0 1.16.59 1.17.88V31h1.5v-4.53c0-.58-.63-1.47-2.03-1.47-.9 0-1.59.63-1.97 1.13V25H20Zm7 6v-6h1.5v1.08c.4-.5 1.1-1.08 2-1.08 1.45 0 2 .9 2 1.47V31H31v-3.92c-.01-.3-.31-.88-1.16-.88-.7 0-1.13.59-1.34 1.05V31H27Zm10.5-.95V31H39v-9h-1.5v3.95a2.1 2.1 0 0 0-1.69-.95c-1.28 0-2.31 1.34-2.31 3s1.03 3 2.31 3a2.1 2.1 0 0 0 1.69-.95ZM37.48 28c0 1.1-.57 2-1.28 2-.71 0-1.28-.9-1.28-2s.57-2 1.28-2c.7 0 1.28.9 1.28 2Zm13.08-3c.16 0 .3.01.44.03l-.31 1.88a3.7 3.7 0 0 0-.79-.07c-.54 0-1.16.37-1.4.76V31H47v-6h1.5v.9c.41-.45 1.28-.9 2.06-.9Z" fill="#056BAB"/></svg>