<!-- by TradingView --><svg width="56" height="56" viewBox="0 0 56 56" xmlns="http://www.w3.org/2000/svg"><path fill="#F0F3FA" d="M0 0h56v56H0z"/><path fill-rule="evenodd" d="M19.87 25h3.48c.26.03.79.35.79 1.4 0 .8-.6 1.57-1.3 2.06.37.25.32.74.2 1.02L22.49 31h-1.77c.12-.26.39-.87.52-1.29a.78.78 0 0 0-.17-.73h-.98L19.12 31h-1.46l2.21-6Zm.52 2.82c.2-.48.6-1.45.6-1.5h1.02c.2.02.6.14.6.5 0 .65-.61.94-.92 1h-1.3ZM12.64 25h2.7l-.77 2.16L17.1 25h1.81l-2.78 2.46.91 3.54h-1.79l-.58-2.25-.96.84-.5 1.41h-2.6l2.04-6Zm18.04 0h3.48c.26.03.79.35.79 1.4 0 1.32-1.67 2.58-2.66 2.58h-1.4L30.07 31h-1.6l2.21-6Zm1.12 1.32c0 .05-.4 1.02-.6 1.5h1.3c.3-.06.92-.35.92-1 0-.36-.4-.48-.6-.5H31.8ZM24.67 25l.46 3.32-.76 2.68h1.5l1.19-2.68L30.12 25h-1.65l-2 2.4-.3-2.4h-1.5Zm11.31 0-.62 1.46h1.58L35.19 31h1.5l1.74-4.54h1.27l.64-1.46h-4.36Zm3.42 4.5c0 1.21 1.12 1.5 1.68 1.5 1.5 0 2.32-.8 2.94-1.5.61-.71 1.53-1.9 1.53-2.83 0-.93-.5-1.67-1.79-1.67a3.9 3.9 0 0 0-2.89 1.37c-.48.56-1.47 1.72-1.47 3.12Zm1.68-.85c-.09.67.3.8.55.84.68.11 1.1-.27 1.43-.61.33-.34.83-.94.89-1.45.06-.51-.12-.96-.7-1.05-.58-.1-1.05.3-1.27.55l-.01.01c-.23.25-.8.88-.9 1.7Zm6.1-3.65-2.34 6h1.44l1.3-3.13.47 3.13h1.78L52 25h-1.48l-1.2 3.25-.53-3.25h-1.6ZM4 31h.56l2.6-6h-.53L4 31Zm1.05 0h.67l2.6-6h-.64l-2.63 6Zm1.83 0h-.67l2.63-6h.65l-2.6 6Zm.58 0h.67l2.6-6h-.64l-2.63 6Zm2.18 0h-.9l2.63-6h.88l-2.6 6Z" fill="#3B3A43"/></svg>