<!-- by TradingView --><svg width="18" height="18" viewBox="0 0 18 18" xmlns="http://www.w3.org/2000/svg"><path fill="#F0F3FA" d="M0 0h18v18H0z"/><path fill-rule="evenodd" d="M9.77 3.61a.1.1 0 0 0-.14.07.53.53 0 0 1-.09.19.08.08 0 0 1-.06.03c-.05 0-.1-.01-.12-.05v-.1A5.44 5.44 0 0 0 9.48 3L9.5 3c.23 0 .42.04.57.12a.2.2 0 0 1 .07.26.6.6 0 0 0-.04.45c.02.07 0 .12-.05.16a.06.06 0 0 1-.08 0l-.01-.04c-.01-.17-.08-.28-.2-.34Zm-.16-.27c0 .11.09.2.19.2s.17-.1.17-.2c0-.11-.08-.2-.18-.2-.1 0-.18.1-.18.2Zm-.94.16a.07.07 0 0 0-.07.01.08.08 0 0 0-.02.06v.07a.1.1 0 0 0 .1.1H9c.03 0 .05.02.05.05v.04a.05.05 0 0 1-.05.05h-.52a.11.11 0 0 1-.11-.12v-.71c0-.03.01-.04.04-.04h.57a.04.04 0 0 1 .03.02.04.04 0 0 1 0 .04v.03a.06.06 0 0 1-.06.04l-.3.01c-.06 0-.09.03-.09.09v.02c0 .06.03.1.09.09a.5.5 0 0 1 .16 0c.15.04.16.1 0 .15-.02.02-.07.01-.14 0Zm-1.01.23a.04.04 0 0 0 .07-.03v-.51c0-.05.03-.08.07-.1h.04a.06.06 0 0 1 .08.05l-.05.8a.15.15 0 0 1-.27.08 6.64 6.64 0 0 1-.44-.68l.01-.1c0-.02 0-.03.02-.03.06-.02.09-.01.1.02.14.24.26.4.37.5Zm3.21.33.02-.02c.06-.04.06-.08 0-.13l-.3-.25a.13.13 0 0 1-.05-.13c.02-.14.11-.23.26-.29a.08.08 0 0 1 .06 0l.31.17c.05.03.06.07.05.14v.03a.05.05 0 0 1-.06.04h-.03l-.2-.17c-.06-.04-.1-.03-.13.05v.05a.12.12 0 0 0 .05.11l.24.16c.18.19.02.37-.19.41-.19.04-.35-.03-.48-.22a.09.09 0 0 1 .01-.1l.03-.03c.02 0 .04 0 .07.02.04.05.1.1.17.15.06.05.11.06.17 0Zm.96-.05c.01-.11.06-.13.14-.07l.2.16c.04.03.08.03.11 0a.12.12 0 0 0 .03-.05c.01-.02 0-.05-.02-.06l-.37-.26a.15.15 0 0 0-.22.04l-.36.54a.12.12 0 0 0 0 .13l.04.04.48.29c.13.08.15.06.06-.07a1.56 1.56 0 0 0-.3-.29c-.05-.03-.05-.06-.02-.1a.19.19 0 0 1 .07-.06.1.1 0 0 1 .13.02c.05.05.11.09.2.12h.04l.03-.03.02-.02c.01-.03 0-.04-.02-.05-.16-.07-.24-.17-.24-.28Zm-4.82-.05a.38.38 0 0 0-.07-.13l-.1-.13a.38.38 0 0 0-.53-.08l-.1.08a.38.38 0 0 0-.08.54l.1.13a.38.38 0 0 0 .4.14c.04-.01.09-.04.13-.07l.1-.08a.38.38 0 0 0 .15-.4Zm-.36.34c-.14.06-.3-.02-.36-.17-.07-.15-.01-.32.12-.38s.3.02.36.17c.06.15 0 .32-.12.38Zm-1.3.86-.02-.02L5 4.7c-.04-.05-.1-.06-.16-.03l-.02.02c-.03.04-.03.08 0 .12l.47.57a.07.07 0 0 0 .1.01l.36-.3c.07-.07.07-.12.01-.16a.06.06 0 0 0-.04-.01l-.03.01-.25.2a.07.07 0 0 1-.07.02Zm6.76-.23c.08.05.16.08.22.1.18.05.21.13.25.32 0 .03.02.05.04.06.02.01.05.02.07.01.03 0 .04-.01.05-.03l.26-.61a.31.31 0 0 0 .02-.17c0-.05-.03-.1-.07-.12-.07-.04-.15-.03-.25.03a5.11 5.11 0 0 1-.62.37.05.05 0 0 0 .03.04Zm.63-.22-.31.21v.02c.03.04.07.07.12.08.05.01.1 0 .13-.03l.03-.02a.18.18 0 0 0 .08-.12c0-.04 0-.1-.03-.14a.01.01 0 0 0-.01 0h-.01Zm.63 1.17-.01.02a.08.08 0 0 1-.06.03.1.1 0 0 1-.06-.01.33.33 0 0 1-.17-.25.11.11 0 0 0-.07-.09l-.04-.02c-.05-.02-.08 0-.07.06.04.2.14.37.33.5.09.06.17.05.23-.05l.11-.16c.07-.1.05-.18-.05-.24s-.13-.14-.09-.25a.09.09 0 0 1 .07-.05.09.09 0 0 1 .08.03l.19.23c.02.03.06.05.1.05h.02c.06 0 .07-.02.04-.07a2.9 2.9 0 0 0-.24-.32c-.32-.35-.6.17-.33.44a.12.12 0 0 1 .02.15Zm-8.9-.2c.05.1.13.2.25.26.02.01.04.03.04.06.02.1 0 .18-.06.26a.06.06 0 0 1-.1 0c-.1-.19-.22-.38-.38-.6-.04-.06-.05-.14-.01-.23a.06.06 0 0 1 .06-.05c.21-.01.38.02.51.11.11.08.22.1.32.1a.04.04 0 0 1 .04.02.04.04 0 0 1 0 .05.92.92 0 0 1-.3.24.06.06 0 0 1-.09-.03v-.03c.03-.16-.04-.25-.21-.26-.08 0-.1.03-.07.1ZM3.83 6.9c.04.07.05.13.03.17-.01.02-.02.03-.04.02l-.44-.08a.05.05 0 0 0-.06.02v.06a.1.1 0 0 0 .07.1l.7.13a.1.1 0 0 0 .1-.03c.05-.06.07-.12.04-.18 0-.02-.03-.05-.08-.07-.1-.04-.2-.1-.16-.22 0-.03.03-.04.06-.04l.33.02c.02 0 .04 0 .06-.02.04-.03.05-.08.05-.14 0-.02 0-.03-.03-.05l-.62-.49a.07.07 0 0 0-.08 0l-.02.02c-.02.06-.01.1.03.14l.26.24c.1.17.06.21-.11.14l-.27-.1a.08.08 0 0 0-.1.03v.07a.16.16 0 0 0 .09.15c.1.04.17.08.19.11ZM13.91 7a.07.07 0 0 0-.04.09l.12.3a.06.06 0 0 1-.01.07c-.06.05-.1.03-.15-.05a12.91 12.91 0 0 1-.19-.5.08.08 0 0 1 .04-.04l.7-.29c.04-.02.07 0 .1.03l.02.03c0 .08-.02.12-.08.15l-.51.2Zm1 1a3.2 3.2 0 0 1-.09-.27 3.54 3.54 0 0 1-.05-.33.1.1 0 0 0-.04-.03c-.05-.02-.09 0-.11.05-.02.03-.03.1-.05.21 0 .03-.02.05-.05.06a3 3 0 0 1-.45.1.16.16 0 0 0-.09.03c-.02.02-.03.06-.02.11.01.05.04.08.07.1.02 0 .06 0 .1-.02.1-.04.24-.07.44-.11.03 0 .05 0 .07.03l.13.17c.05.03.1.03.12 0a.1.1 0 0 0 .02-.1ZM3.9 8.02c-.07-.18-.14-.18-.22 0-.05.1-.14.24-.29.39-.02.02-.04.02-.06 0-.2-.13-.25-.32-.15-.57.03-.08.06-.12.08-.14.14-.06.17-.03.09.1-.05.09-.13.28-.03.36a.08.08 0 0 0 .13-.04l.11-.24c0-.02.02-.03.03-.04l.18-.12a.1.1 0 0 1 .08-.02c.27.09.2.45.1.64-.04.06-.07.09-.1.1-.12 0-.14-.05-.05-.16.09-.1.12-.19.1-.26Zm11 .49a.11.11 0 0 1 .1.07v.04l.01.21c0 .14-.05.27-.13.37-.08.1-.2.15-.31.15h-.04a.4.4 0 0 1-.18-.04.45.45 0 0 1-.14-.1.52.52 0 0 1-.1-.17.58.58 0 0 1-.04-.2v-.21a.11.11 0 0 1 .11-.12h.71Zm-.16.22a.08.08 0 0 1 .08.1v.04c0 .06-.03.12-.07.17a.26.26 0 0 1-.18.06h-.06a.26.26 0 0 1-.17-.07.24.24 0 0 1-.07-.18v-.04a.08.08 0 0 1 .08-.08h.4Zm-11.1.93a.37.37 0 0 0 .12-.08l.11-.11a.37.37 0 0 0 0-.53l-.13-.11a.37.37 0 0 0-.52 0l-.1.12a.37.37 0 0 0 0 .53l.12.11a.37.37 0 0 0 .4.07Zm.2-.47c0 .16-.14.28-.33.3-.18 0-.34-.12-.34-.27-.01-.15.13-.28.32-.29.18 0 .34.11.34.26Zm10.43.48c0 .05-.08.08-.15.07-.07-.01-.13-.06-.12-.11 0-.05.07-.08.15-.07.07.02.13.07.12.11Z" fill="#2F79C2"/><path d="M9.02 14c-1.23 0-2.41-.5-3.28-1.4a4.88 4.88 0 0 1-.02-6.77 4.55 4.55 0 0 1 6.54-.02 4.88 4.88 0 0 1 .02 6.78A4.55 4.55 0 0 1 9.02 14Z" fill="#558EC9"/><path d="M8.3 4.64c-.15.28-.38.4-.69.57a1 1 0 0 1-.38.14c-.11 0-.27.04-.48.1a.38.38 0 0 1-.15 0l-.03-.01a.06.06 0 0 1-.02-.05l.01-.03c.2-.23.45-.33.77-.47.23-.1.44-.17.63-.22.1-.02.2-.1.3-.1a.04.04 0 0 1 .04.02.05.05 0 0 1 0 .05ZM9.35 5.48a.03.03 0 0 0 .02-.02.03.03 0 0 0 0-.02c-.2-.24-.46-.45-.33-.69a.1.1 0 0 1 .03-.03.1.1 0 0 1 .04-.02.4.4 0 0 0 .19-.07.1.1 0 0 1 .07-.02c.23.04.43.15.61.34l.01.03v.36c0 .03.01.05.03.07.06.06.1.13.11.22a.05.05 0 0 1-.02.04.05.05 0 0 1-.04.01l-.11-.05a.07.07 0 0 0-.07.01c-.16.12-.36.12-.6 0a.07.07 0 0 1-.03-.03.07.07 0 0 1 0-.07l.03-.03.06-.03ZM7.85 5.96c.01.06.03.06.07.02.16-.24.34-.28.53-.13.25.2.02.36-.05.55-.12.32-.22.3-.31-.03l-.19-.22a.05.05 0 0 0-.06-.01.4.4 0 0 1-.35-.05.09.09 0 0 1-.05-.06c-.02-.13.04-.23.19-.29.02 0 .03-.03.02-.05-.03-.13.05-.2.23-.23a.1.1 0 0 0 .07-.03.1.1 0 0 0 .02-.08c-.04-.26.19-.3.3-.42.19-.2.22-.32.55-.3a.05.05 0 0 1 .03.02.05.05 0 0 1 .01.04c0 .05-.02.1-.04.15a.07.07 0 0 1-.06.04c-.35.04-.55.24-.61.6-.03.13-.06.17-.17.23-.11.06-.14.13-.13.25Z" fill="#F0F3FA"/><path d="m9.27 4.72-.02.02v.03l.53.65h.03l.01-.01c.01 0 .02-.02 0-.03l-.52-.66h-.03Z" fill="#558EC9"/><path d="M8.71 5.04c.11-.04.17 0 .18.12l.04.42c0 .1-.04.16-.15.16H8.3a.11.11 0 0 1-.09-.05.12.12 0 0 1-.01-.1c.1-.29.27-.47.51-.55ZM11.28 5.63c.12-.1.2-.22.15-.27-.04-.06-.17-.03-.3.06-.12.1-.18.22-.15.27.04.06.18.03.3-.06ZM9.89 6.69c.08-.18 0-.26-.15-.34a1.4 1.4 0 0 1-.38-.26.1.1 0 0 0-.07-.03h-.14c-.07 0-.1-.03-.1-.09v-.06c0-.08.04-.12.13-.12h.63a.38.38 0 0 1 .34.22l.28.62a1.33 1.33 0 0 1 .06.8.07.07 0 0 1-.04.03h-.03c-.29-.06-.6-.08-.92-.05a.67.67 0 0 1-.22-.08.07.07 0 0 1-.04-.05l-.09-.5a.04.04 0 0 1 .01-.04.04.04 0 0 1 .03 0c.23.04.44.03.64 0a.09.09 0 0 0 .06-.05ZM10.93 6.14l.01.02a.04.04 0 0 0 .04 0H11c.1-.14.26-.18.37-.03.1.13.23.3.14.45a4.52 4.52 0 0 1-.24.4l.03.05a.4.4 0 0 1 .13.28.1.1 0 0 1-.05.08.09.09 0 0 1-.1 0l-.37-.26a.18.18 0 0 1-.05-.06c-.12-.2-.31-.31-.38-.51a16.85 16.85 0 0 0-.3-.66l.02-.05a.1.1 0 0 1 .07-.05.9.9 0 0 1 .56.15.1.1 0 0 1 .04.06l.06.13ZM5.51 6.46c.18.27.14.53 0 .85-.03.08-.08.12-.17.12L5 7.4c-.08 0-.11-.05-.08-.13a2.96 2.96 0 0 1 .52-.83.06.06 0 0 1 .05 0l.02.02ZM7.87 8.65l-.07-.18a.2.2 0 0 1 .06-.23c.12-.1.26-.2.37-.35.17-.26.22-.35.5-.43.04-.02.07-.03.1-.06l-.02-.12c-.02-.06 0-.08.06-.05.02 0 .03.03.03.06-.01.18.04.3.05.45.03.57.01 1.01-.05 1.31a.7.7 0 0 0 .02.34 7.05 7.05 0 0 1 0 1.28l-.04.02a.08.08 0 0 1-.08 0c-.22-.17-.4-.27-.68-.32-.15-.03-.25-.07-.3-.14-.03-.03-.05-.03-.06.01-.04.11-.1.2-.2.26H7.5c-.09-.05-.12-.13-.09-.23.08-.27.13-.58-.1-.74a.14.14 0 0 1-.07-.1.14.14 0 0 1 .03-.1c.07-.09.07-.17 0-.24A.13.13 0 0 1 7.23 9c-.02-.21-.1-.85.27-.7.03 0 .05.02.07.04l.26.33h.03l.01-.01v-.02ZM10.88 8.27c.03-.09.07-.14.11-.16.1-.03.11-.01.06.07-.04.07-.1.1-.11.18l-.16.69c-.01.03-.03.06-.06.08a.15.15 0 0 1-.1.04H9.17a.12.12 0 0 1-.1-.04.13.13 0 0 1-.03-.1l.02-1.41c0-.1.05-.16.15-.2h.07c.28.1.63.05.86.08.22.02.26.33.23.5l-.03.06-.12.17c-.03.03-.03.07 0 .1l.13.16c.01.02.03.02.05.01l.42-.17a.1.1 0 0 0 .06-.06ZM4.72 9.18c-.01 0-.02 0-.01.02v.03l.03.01h.94c.03 0 .04.02.04.04 0 .22 0 .37.04.54a21.01 21.01 0 0 1 .26 1.09.06.06 0 0 1-.06.02 9.33 9.33 0 0 0-.9-.04.33.33 0 0 0-.13.03.07.07 0 0 1-.05 0 .07.07 0 0 1-.04-.03c-.22-.5-.33-1-.31-1.49 0-.03 0-.07.02-.1 0-.03.02-.05.04-.06.03-.02.03-.04 0-.06-.24-.24.13-1.4.26-1.67 0-.02.01-.03.03-.04h.04l.48.02c.03 0 .05.02.07.05l.3.8c.02.03.02.05.01.08-.04.2-.06.4-.04.6a.15.15 0 0 1-.04.11.14.14 0 0 1-.1.05h-.88ZM13.06 8.46c.07.16.2.26.3.22.1-.05.11-.22.04-.38s-.2-.26-.3-.22c-.1.05-.11.22-.04.38Z" fill="#F0F3FA"/><path d="m7.17 8.5-.04.6a.14.14 0 0 1-.04.09.13.13 0 0 1-.1.03c-.19-.01-.53-.09-.45-.38.06-.26.2-.43.4-.5a.16.16 0 0 1 .16.02.17.17 0 0 1 .07.15ZM11.65 9.18h-.62a.18.18 0 0 1-.15-.08.19.19 0 0 1-.02-.17c.07-.22.22-.42.44-.57a.1.1 0 0 1 .07-.02l.57.08a.26.26 0 0 1 .18.11c.02.04 0 .09-.04.15a7.72 7.72 0 0 1-.43.5Z" fill="#F0F3FA"/><path d="m5.9 9.2-.04-.02a.09.09 0 0 1-.04-.06c-.04-.23-.02-.44.05-.63l.01-.03a.05.05 0 0 1 .05 0h.03c.1.11.31.39.27.56-.02.07-.04.12-.06.13-.1.07-.08.1.04.07.1-.02.18-.02.29.03.18.08.38.19.58.33.23.15.27.4.3.67.01.21.08.34.08.54a.1.1 0 0 1-.06.1.1.1 0 0 1-.04.01h-.99a.33.33 0 0 1-.2-.07.34.34 0 0 1-.12-.18l-.22-.85a1.2 1.2 0 0 1-.04-.47c0-.03.02-.05.05-.06l.05-.02c.03-.01.04-.03 0-.05Z" fill="#F0F3FA"/><path d="M8.43 9.4c-.09-.07-.1-.12-.25-.14a3.4 3.4 0 0 0-.73-.04v-.03c.08-.03.21-.04.4-.06.13-.01.26.06.42.06l.4.02c.03 0 .04.02 0 .04l-.18.16h-.06Z" fill="#558EC9"/><path d="M10.6 10.67a5.61 5.61 0 0 0 .24-1.33.2.2 0 0 1 .12-.1c.03-.02.06-.02.08-.01.24.04.46.03.65-.01a.1.1 0 0 1 .1.02.11.11 0 0 1 .03.1l-.04.3c-.04.17.2.45.28.59a.18.18 0 0 1 0 .2.76.76 0 0 0-.13.36c0 .03-.01.05-.03.07a.12.12 0 0 1-.08.03h-1.05a.17.17 0 0 1-.13-.07.18.18 0 0 1-.03-.15ZM10.38 10.89H9.2a.16.16 0 0 1-.11-.05.17.17 0 0 1-.05-.12V9.41c0-.05.02-.09.05-.12a.16.16 0 0 1 .11-.05h1.43a.16.16 0 0 1 .13.06.17.17 0 0 1 .03.14l-.25 1.32c0 .03-.03.07-.06.1a.16.16 0 0 1-.1.03ZM12.9 9.56v.07c.02 0 .04-.02.05-.06l-.01-.06c-.01 0-.03.02-.04.05ZM12.87 9.78a.5.5 0 0 0 0-.04c.01.1 0 .2-.05.29h-.04l-.01-.01V10c.02-.08.06-.16.1-.22ZM12.1 10.41a.1.1 0 0 1 .07-.04c.19-.07.38-.1.55-.1.12.01.17.07.16.19l-.02.26c0 .13-.07.2-.2.2h-.52a.1.1 0 0 1-.07-.03.1.1 0 0 1-.03-.06.75.75 0 0 1 .07-.42ZM10.28 11.51c-.05.12-.14.15-.26.1l-.5-.27c-.12-.06-.16-.16-.13-.3l.02-.03.03-.02c.3-.1.58-.04.87-.02.02 0 .04 0 .05.02l.03.06c0 .12-.03.27-.11.46ZM9.98 13.23c-.5.42-.48.44.05.06.2-.15.38-.3.54-.47.1-.1.21-.14.33-.2a.16.16 0 0 0 .06-.06l1.05-1.6.06-.02c.21.06.45.06.7.01a.07.07 0 0 1 .08.03c.06.09.06.19 0 .3-.1.19-.15.33-.18.42-.07.2-.13.34-.18.43-.15.22-.33.39-.56.49a.07.07 0 0 0-.04.05.33.33 0 0 1-.13.23 5.1 5.1 0 0 1-1.91.9.91.91 0 0 1-.42.01l-.03-.01a.07.07 0 0 1-.02-.07l.02-.03a.24.24 0 0 0 .05-.26.1.1 0 0 1 0-.08l.36-.63a.21.21 0 0 1 .08-.09.2.2 0 0 1 .12-.02l.36.03c.22 0 .25.08.07.22l-.46.36ZM5.95 10.97a.4.4 0 0 1 .23.09.1.1 0 0 1 .04.06c.04.16.13.35.28.57a22.58 22.58 0 0 0 .58.82.05.05 0 0 1-.03.05l-.02.01c-.22.02-.44.01-.66-.02a.67.67 0 0 0-.26.07.09.09 0 0 1-.08 0c-.45-.24-.78-.82-1.07-1.34-.06-.1-.08-.19-.06-.26a.1.1 0 0 1 .03-.05 9.93 9.93 0 0 0 1.02 0Z" fill="#F0F3FA"/><path d="M7.52 12.64a.87.87 0 0 1-.34-.18 4.96 4.96 0 0 1-.93-1.39.1.1 0 0 1 .05-.09.1.1 0 0 1 .05-.01h.87c.07 0 .1.04.1.1-.03.15-.05.27.02.4l.2.4c.07.14.15.2.26.3.13.12.2.25.08.39a.08.08 0 0 0-.02.07c.02.12 0 .22-.05.3a.14.14 0 0 1-.1.06.14.14 0 0 1-.12-.05c-.06-.08-.08-.16-.05-.25.01-.02 0-.04-.02-.05ZM10.36 11.8l-.06-.14a.1.1 0 0 1 0-.08c.09-.16.14-.32.14-.48a.1.1 0 0 1 .04-.07c.11-.11.29-.04.4-.04a321.53 321.53 0 0 0 .86-.01.13.13 0 0 1 .07.11c0 .03 0 .05-.02.07-.26.45-.55.87-.88 1.26-.03.04-.1.1-.2.15a.34.34 0 0 1-.25.03 3.53 3.53 0 0 0-.44-.06.04.04 0 0 1 0-.03c.04-.23.14-.43.31-.6a.1.1 0 0 0 .03-.1Z" fill="#F0F3FA"/><path d="M11.44 12.65c.2-.02.36-.04.36-.07 0-.02-.17-.03-.37-.01-.2.01-.36.04-.36.06 0 .02.16.03.37.02Z" fill="#558EC9"/><path d="m7.08 12.6.06.01c.2.1.38.25.53.45.11.15.09.33.03.5a.1.1 0 0 1-.05.06.1.1 0 0 1-.08 0c-.49-.17-.86-.4-1.37-.74a.17.17 0 0 1-.07-.1.16.16 0 0 1 .01-.11c.02-.03.05-.05.11-.05.25 0 .54.05.83-.01ZM9.2 13.72a.01.01 0 0 1-.02 0l-.06-.04c-.06-.03-.1-.11-.1-.22 0-.1.03-.23.1-.34v-.02c.06-.11.15-.2.24-.26.09-.05.18-.06.24-.02l.06.03a.01.01 0 0 1 0 .02l-.46.85ZM8.68 13.67c-.1.16-.27.2-.5.12-.1-.03-.12-.09-.08-.17v-.03c.04-.1.1-.13.18-.1l.33.1a.05.05 0 0 0 .06-.02v-.02c0-.07.01-.13.03-.19a.1.1 0 0 1 .07-.06.1.1 0 0 1 .09.03c.05.05.07.13.06.22 0 .03-.02.05-.05.05l-.14.03a.08.08 0 0 0-.05.04Z" fill="#F0F3FA"/></svg>