<!-- by TradingView --><svg width="18" height="18" viewBox="0 0 18 18" xmlns="http://www.w3.org/2000/svg"><path fill="#181B1E" d="M0 0h18v18H0z"/><path d="M8 5.43c.1-.14.2-.25.31-.32.11-.07.23-.11.35-.11.3 0 .61.56.93 1.68a7 7 0 0 1 .1.3c.85 2.98 1.34 4.47 1.46 4.47.04 0 .12-.08.24-.26s.25-.4.38-.67c.48-.98.81-1.82 1.01-2.53a7.31 7.31 0 0 0 .28-2.45 2.67 2.67 0 0 0-.08-.4c.1-.05.2-.09.27-.1A.92.92 0 0 1 13.5 5c.19 0 .32.05.4.16.07.11.11.3.11.57 0 .7-.16 1.52-.47 2.44-.3.92-.8 2.03-1.48 3.31-.32.61-.55 1.02-.7 1.22-.14.2-.25.3-.34.3-.1 0-.23-.12-.37-.37a7.4 7.4 0 0 1-.46-1.15c-.26-.74-.57-1.73-.94-2.96-.55-1.8-.97-2.84-1.24-3.09ZM4.24 11.72c.33.17.65.25 1.02.25.74 0 1.44-.35 1.44-1.09 0-.6-.6-1-1.01-1.39-.66-.43-1.5-1.24-1.5-2.03 0-.26.05-.53.17-.78.3-.63.91-1.14 1.59-1.43.38-.17.77-.25 1.17-.25.59 0 .88.19.88.57 0 .12-.1.34-.29.63-.29-.11-.59-.18-.9-.18-.8 0-1.54.38-1.54 1.17 0 .62.51 1.01.99 1.4 1.01.82 1.52 1.52 1.52 2.1 0 .2-.04.42-.12.63a2.61 2.61 0 0 1-1.38 1.4c-.4.19-.84.28-1.32.28-.63 0-.96-.22-.96-.63 0-.1.02-.2.06-.3.04-.11.1-.23.18-.35Z" fill="#fff"/></svg>