<!-- by TradingView --><svg width="18" height="18" viewBox="0 0 18 18" xmlns="http://www.w3.org/2000/svg"><path fill="#F0F3FA" d="M0 0h18v18H0z"/><path d="M6 5.03V13h7.85a9.8 9.8 0 0 1-6.18-3.93v2.73H9v.6H7V7.99c-.45-.85-.8-1.83-1-2.96Z"/><path d="M8.82 9.87c-2.2-2.2-2.4-4.54-2.22-5.44.08.96.65 3.3 2.35 5 2.27 2.27 4.62 2.96 5.51 3.03-.96.05-3.44-.39-5.64-2.59Z" fill="#006184"/><path d="M9.36 9.44C7.16 7.24 6.96 4.9 7.14 4c.08.96.65 3.3 2.35 5 2.27 2.27 4.62 2.96 5.51 3.03-.96.05-3.44-.4-5.64-2.59Z"/></svg>