<!-- by TradingView --><svg width="56" height="56" viewBox="0 0 56 56" xmlns="http://www.w3.org/2000/svg"><path fill="#F0F3FA" d="M0 0h56v56H0z"/><path d="M24.47 18.6c.07-.11.07-.14.03-.08.23.05.47.05.7 0 .09-.02.09-.05 0-.09h-.04c-.04.01-.05 0-.01-.03a.27.27 0 0 1 .13-.06h.02c.05.02.06.05.04.1-.03.05 0 .06.06.05a.56.56 0 0 1 .23 0c.02 0 .03 0 .04-.03v-.03a.05.05 0 0 0-.03-.05c-.13-.05-.2-.13-.2-.23a60.64 60.64 0 0 0-.06-.98 8.7 8.7 0 0 0-.08-1.12c-.02-.19-.03-.53-.03-1 0-.38-.01-.71-.04-1.01a6.78 6.78 0 0 1 0-1.03c0-.04-.01-.08-.04-.12-.11-.14-.16-.16-.16-.07l-.14-1.13.09-.63.01-.03c.05-.05.09-.04.11.04l.02.07.74 7.4c0 .04-.02.06-.06.06h-1.33Z" fill="#F8D003"/><path d="m24.9 11.69.13 1.13c.06 1.7.08 3.4.07 5.08 0 .1-.01.22-.04.33-.01.04-.03.06-.07.08l-.49.2c.04-.05.03-.02-.03.1-.07-.03-.1-.07-.1-.13l.39-4.38c.07-.8.11-1.6.13-2.41Z" fill="#BD7402"/><path d="m24.5 18.52.5-.21a.11.11 0 0 0 .06-.08c.03-.11.04-.22.04-.33.01-1.69 0-3.38-.07-5.08 0-.1.05-.07.16.07.02.04.04.08.03.12-.02.34-.02.69.01 1.03.03.3.04.63.04 1 0 .48.01.82.03 1.01.07.6.1.97.08 1.12a72.2 72.2 0 0 1 .06.98c0 .1.07.18.2.23.02.01.03.03.03.05a.2.2 0 0 1 0 .03c0 .02-.02.03-.04.02a.56.56 0 0 0-.23 0c-.07.02-.09 0-.06-.04.02-.05 0-.08-.04-.1h-.02c-.05.01-.1.03-.13.06-.04.03-.03.04.01.04h.05c.08.03.08.06-.01.08-.23.05-.47.05-.7 0Z" fill="#F9EA2D"/><path d="M16.9 15.83v.04c-.04 0-.07.03-.08.08-.14-.19-.3-.28-.47-.28l-.4-.39c-.03-.02-.04-.04-.02-.07l.03-.04c.02-.02.04-.03.06-.01l.88.67Z" fill="#905501"/><path d="m16.82 15.94 4.73 3.88c.06.04.06.1.01.15-.1.1-.13.17-.1.22-.03.14-.09.29-.18.42l-4.93-4.94c.17 0 .33.1.47.27Z" fill="#E6A201"/><path d="M21.28 20.61c.09-.13.15-.28.17-.42l.19-.23c.05-.06.04-.12-.02-.17l-4.72-3.92v-.04h.06l.1.04 5.1 3.74c.03.02.04.04.02.07l-.75 1.04c-.02.03-.05.03-.07.01a.3.3 0 0 1-.08-.12ZM27.64 19.45l.39.29c0 .05.05.08.14.07.3-.07.58-.22.82-.45l.41-.38c.6-.5 1.16-1.04 1.68-1.62l2.12-1.86c.1-.13.25-.25.42-.35a.05.05 0 0 1 .06 0l.02.05v.04c0 .02 0 .03-.02.05l-5.28 5.34c-.03.03-.06.03-.08 0l-.59-.74c-.14-.17-.17-.32-.09-.44Z" fill="#F8D003"/><path d="m33.2 15.5-2.12 1.86-2.91 2.45c-.09 0-.13-.02-.14-.07a83.2 83.2 0 0 0 2.8-2.3l.34-.25c.17-.12.29-.28.34-.48l1.69-1.21Z" fill="#905501"/><path d="M31.51 16.71a.86.86 0 0 1-.35.48l-.33.25a83.2 83.2 0 0 1-2.8 2.3l-.39-.3 3.87-2.73Z" fill="#E6A201"/><path d="M31.08 17.36c-.52.58-1.08 1.12-1.68 1.62l-.4.38a1.8 1.8 0 0 1-.83.45l2.91-2.45Z" fill="#F9EA2D"/><path d="m30 22.16.08.05a.2.2 0 0 1 .07.09c.02.06.07.1.13.12l.32.12c.07.03.07.05 0 .05l-1.55.06c-.03 0-.05.01-.05.04v.04c0 .04.03.06.07.06.84 0 1.49 0 1.96-.03.58-.03 1.06-.03 1.43-.02.48.03.96.04 1.43.05l.63.06a3.73 3.73 0 0 0 .67-.01v-.03c0-.03 0-.04-.03-.04a.32.32 0 0 1-.09-.04c-.05-.02-.04-.04.01-.04l.35-.02 1.25.07s.02 0 .02.02l.01.03c.02.03 0 .05-.03.06l-7.94.64c-.03 0-.05-.02-.05-.05v-1.29c0-.05.02-.07.07-.06l1.24.07Z" fill="#F8D003"/><path d="m35.43 22.67-.35.02c-.05 0-.06.02 0 .04l.08.04c.02 0 .03.01.04.04l-.01.03-.02.01c-.22.02-.43.02-.65 0l-.63-.06c-.47 0-.95-.02-1.43-.05-.37-.01-.85 0-1.43.02-.47.02-1.12.03-1.96.03-.04 0-.07-.02-.07-.06v-.04c0-.03.02-.04.05-.04l1.55-.06c.07 0 .07-.02 0-.05l-.32-.12a.22.22 0 0 1-.13-.12.2.2 0 0 0-.07-.09l-.08-.05 5.43.5Z" fill="#F9EA2D"/><path d="m21.02 23.45-.22-.46-.1-.31a.1.1 0 0 0-.1-.08 3.99 3.99 0 0 0-.76-.05l-.95.06-.95.05-3.66.04c.2 0 .41-.01.6-.04l.6-.1c1.82-.2 3.62-.37 5.42-.49.06 0 .09.03.09.09l.03 1.29Z" fill="#F8D003"/><path d="M20.8 22.99c-.07-.11-.13-.17-.2-.17-1.75-.03-3.98 0-6.7.07l-.97-.04c-.02 0-.04 0-.04-.03l.01-.03 1.38-.09 3.66-.04.95-.05.95-.06c.34 0 .6.02.77.05a.1.1 0 0 1 .08.08l.11.3Z" fill="#905501"/><path d="m20.8 22.99.22.46-.87-.01c-1.6-.1-3.19-.22-4.78-.33a7.38 7.38 0 0 1-1.48-.22c2.73-.08 4.96-.1 6.71-.07.07 0 .13.06.2.17Z" fill="#F9EA2D"/><path d="M25.27 19.55c-.36.14-.73.23-1.12.26a.16.16 0 0 0-.1.05l-.04.03c-.04.04-.07.04-.1 0s-.04-.09-.02-.15l.46-.16c.14-.04.44-.05.92-.03Z" fill="#080F3D"/><path d="m27.06 20.39-.14.2a.09.09 0 0 1-.1.04c-.2-.03-.23-.02-.1.03l-2.24 1.08c-.14-.1-.3-.18-.48-.22.04-.11.13-.14.27-.08.04.04.1 0 .15-.09a.06.06 0 0 0 0-.07.07.07 0 0 0-.06-.03c-.05 0-.09-.05-.1-.12 0-.04.01-.07.05-.1l.28-.17c.03-.02.05-.04.05-.07 0-.03-.02-.04-.04-.01-.11.12-.32.12-.6-.01l-.5.17c-.02.05-.08.08-.2.09-.08-.12-.1-.23-.04-.32.02-.03.01-.06-.02-.08l-.08-.07c-.04-.02-.08-.02-.11.01-.07.07-.14.09-.22.06l.01-.19c.29-.33.63-.57 1.05-.7-.02.06-.01.11.02.15.03.04.06.04.1 0l.03-.03a.16.16 0 0 1 .1-.05c.4-.03.77-.12 1.13-.26.73.04 1.33.32 1.79.84Z" fill="#F74601"/><path d="m23.25 20.37.01.03c0 .03 0 .05-.04.06h-.03v-.01l.1-.24c.01-.04.04-.06.1-.06.07 0 .16 0 .24-.04a.16.16 0 0 1 .12-.01c.07.02.13 0 .18-.04.04-.04.06-.03.06.02s-.04.1-.1.14a.12.12 0 0 1-.12.02.2.2 0 0 0-.08-.02.1.1 0 0 0-.09.06c-.03.07-.07.1-.1.12a.09.09 0 0 1-.1-.02c-.05-.05-.1-.06-.14-.03v.02Z" fill="#050503"/><path d="M27.06 20.39c.98 1.2 1 2.38.07 3.54l-.08-.1c-.03-.04-.06-.05-.1-.03l-.75.44a.15.15 0 0 0-.08.1l-.06.27c-.57.06-1.11.07-1.61.03-.12 0-.12.02 0 .09.2.13.68.11 1.42-.05h.06c0 .02.02.02.03.03.02 0 .02.01 0 .02-.69.27-1.36.23-2.01-.11.07-.07.06-.17-.04-.3-.03-.05-.03-.08 0-.11l.14-.13a.08.08 0 0 0 .01-.1l-.27-.55c.25-.25.39-.5.4-.76.02-.07.09-.14.2-.2a.2.2 0 0 0 .08-.1l.22-.42c.11.02.21.06.3.11.09.06.17.2.22.4.05.16.1.27.16.33a1.7 1.7 0 0 0 .26.2l-.02-.02c-.1-.07-.14-.12-.14-.16a.84.84 0 0 1 .36-.75c.07-.06.13-.04.18.04l.19.33a.2.2 0 0 1 .03.1c0 .12.02.21.1.3l-.07.1c-.02.04-.01.06.04.05l.07-.02c.03 0 .05-.03.05-.06s-.01-.07-.05-.12c0-.08.07-.15.2-.2.04-.02.06-.05.05-.1l-.06-.3c-.01-.04 0-.06.04-.06h.19c.05 0 .1-.02.13-.07l.29-.4a.1.1 0 0 0 0-.1.73.73 0 0 1-.08-.4v-.02h-.03a.16.16 0 0 0-.03.1c0 .01 0 .02-.02.02H27a.06.06 0 0 1-.04-.05 1.08 1.08 0 0 0-.25-.54c-.13-.05-.1-.06.1-.03.05.01.08 0 .1-.04l.14-.2Z" fill="#0012BD"/><path d="M22.84 20.44v.2l-.02.03a.12.12 0 0 0 0 .1.2.2 0 0 1 .04.13.1.1 0 0 1-.06.1c-.14.06-.21.2-.2.4v.02c-.02.08-.05.11-.09.1-.04-.02-.07 0-.07.04v.17c0 .13.05.15.15.06l.14-.14c.03-.03.06-.03.09 0l.08.08c.02.02.05.03.08.03h.43c.04 0 .07.02.08.06l.33.83c.01.05.04.07.09.09.07.02.16 0 .29-.07-.02.26-.16.5-.4.75h-.06c-.03-.01-.05 0-.07.02a.09.09 0 0 0 0 .1l.08.23c.01.03 0 .06-.03.08a.07.07 0 0 1-.05 0 5.14 5.14 0 0 1-.2-.44.26.26 0 0 0-.08-.13c-.1-.08-.16-.06-.17.06-.06 0-.1.04-.09.1-.07 0-.1.04-.12.1a.6.6 0 0 1-.2-.35c-.01-.12-.08-.2-.2-.22l-.32-.04a2.66 2.66 0 0 1 .55-2.49Z" fill="#905501"/><path d="m23.3 21.04-.26-.16c-.04-.02-.05-.05-.02-.09.03-.03.04-.06.03-.07a.08.08 0 0 0-.02-.05.1.1 0 0 0-.03-.02c-.03 0-.06 0-.07.05l-.05.2c-.01.05 0 .08.05.1.13.04.24.16.35.34.07.11.17.17.3.18a.1.1 0 0 1 .05.02l.05.05c.02.03.01.06-.02.09l-.03.02c-.03.02-.04.06-.03.1.08.27.22.52.41.74.03.03.06.03.1 0l.32-.23a.16.16 0 0 0 .07-.13c0-.06-.03-.1-.07-.14l-.14-.1c-.05-.04-.05-.05.01-.05l.2.02c.08.03.14.04.19.04l-.22.43a.2.2 0 0 1-.08.08c-.11.07-.18.14-.2.21-.12.07-.21.1-.28.07a.14.14 0 0 1-.1-.09l-.32-.83a.08.08 0 0 0-.08-.06h-.43a.11.11 0 0 1-.08-.03l-.08-.08c-.03-.03-.06-.03-.1 0l-.13.14c-.1.1-.15.07-.15-.06v-.17c0-.04.03-.06.07-.04.04.01.07-.02.08-.1v-.03c0-.2.07-.33.2-.4a.1.1 0 0 0 .07-.1.2.2 0 0 0-.03-.11.12.12 0 0 1-.01-.11l.01-.04c.08.03.15 0 .21-.06.04-.03.08-.03.12 0l.08.06c.03.02.04.05.02.08-.06.1-.04.2.03.33Z" fill="#080F3D"/><path d="M23.3 21.04v-.01c0 .22.11.32.32.3.03 0 .04 0 .05-.02v-.04c-.03-.01-.07-.02-.13-.01-.03 0-.04-.01-.04-.04l.01-.04c.01-.01.03-.02.05-.01l.52.22h.02l.01-.04c.01-.01 0-.02-.01-.03a.53.53 0 0 1-.25-.2.51.51 0 0 0-.13-.16.3.3 0 0 0-.23-.02l.5-.17.28.67c-.14-.06-.23-.03-.27.08.03.1.16.17.39.22a.4.4 0 0 0 .11.17l-.2-.02c-.06 0-.06.01-.01.05l.14.1c.04.04.07.08.07.14 0 .05-.03.1-.07.13l-.33.24c-.03.02-.06.02-.09 0-.19-.23-.33-.47-.41-.75-.01-.04 0-.08.03-.1l.03-.02c.03-.03.04-.05.02-.09a.17.17 0 0 0-.05-.05.1.1 0 0 0-.05-.02.34.34 0 0 1-.3-.18c-.1-.18-.22-.3-.35-.34-.04-.02-.06-.05-.05-.1l.05-.2c.02-.04.04-.06.07-.05l.03.02.02.05c0 .01 0 .04-.03.07-.03.04-.02.07.02.1l.25.15Z" fill="#BD7402"/><path d="M26.72 20.66c.14.17.23.35.25.54 0 .02.02.04.04.05h.04c.01 0 .02-.01.02-.03 0-.03.01-.06.03-.08l.02-.01.02.02c-.02.12.01.25.08.4a.1.1 0 0 1-.01.1l-.3.4a.15.15 0 0 1-.12.07h-.19c-.04 0-.05.02-.04.06l.06.3c.01.05 0 .08-.05.1-.13.05-.2.12-.2.2.02.01 0 .02-.05.04a.4.4 0 0 1-.1-.28.2.2 0 0 0-.02-.11l-.19-.33c-.04-.08-.1-.1-.18-.04a.84.84 0 0 0-.36.75c0 .04.05.09.14.16l.02.03-.12-.08a1.7 1.7 0 0 1-.14-.13.8.8 0 0 1-.16-.34c-.05-.2-.13-.33-.23-.39a.86.86 0 0 0-.3-.1.53.53 0 0 1-.18-.05.4.4 0 0 1-.11-.17h.09l2.24-1.08Z" fill="#FD6600"/><path d="m27.13 20.87-.16-.07c-.03 0-.03-.02-.02-.05l.02-.04c0-.03.03-.04.06-.02.12.06.2.15.23.27.01.05 0 .05-.04 0a.4.4 0 0 1-.03-.04.14.14 0 0 0-.06-.05Z" fill="#F8F9F4"/><path d="m24.27 21.44-.28-.67c.3.13.5.13.6 0 .03-.02.04-.01.05.02 0 .03-.02.05-.05.07l-.28.17a.1.1 0 0 0-.05.1c.01.07.05.11.1.12.03 0 .05.01.06.03.01.03.01.05 0 .07-.06.1-.1.13-.15.09ZM23.3 21.03c.12-.01.18-.04.2-.09a.3.3 0 0 1 .22.02c.03.02.07.07.13.16s.15.16.25.2c.02 0 .02.02.01.03l-.01.04h-.02l-.52-.22c-.02-.01-.04 0-.05.01v.04c-.01.03 0 .04.03.04l.13.01c.01.01.02.02 0 .04a.06.06 0 0 1-.05.03c-.2.01-.32-.1-.33-.31Z" fill="#080F3D"/><path d="M27.32 21.16h.03c.03.04.04.07.03.1-.03.07-.05.06-.07 0l.01-.1Z" fill="#696868"/><path d="M22.95 21.35c.05.08.12.13.15.1.03-.01.01-.1-.04-.17-.05-.08-.11-.13-.14-.1-.03.01-.02.1.03.17Z" fill="#505249"/><path d="M24 21.52c.18.04.34.12.48.22h-.1c-.22-.05-.35-.12-.38-.22Z" fill="#905501"/><path d="m27.15 22.11-.03.33c0 .07-.03.07-.06.02-.07-.12-.06-.24.03-.37.04-.06.06-.05.06.02Z" fill="#696868"/><path d="M26.3 23.37h-.03a.04.04 0 0 1-.03-.02.68.68 0 0 0-.14-.26c-.02-.03-.02-.05.01-.07l.03-.02.03.01.18.25c.04.05.08.05.11 0l.4-.56c.01-.01.02-.02.03-.01l.04.02c.02 0 .02.01.02.03l-.2.46a.13.13 0 0 1-.07.07.16.16 0 0 0-.1.1c-.02.06-.04.08-.08.05l-.1-.08c-.03-.02-.06-.01-.1.03Z" fill="#D38E01"/><path d="M26.37 22.78c.04.05.05.09.05.12s-.02.06-.05.06l-.07.02c-.05 0-.06 0-.04-.05l.06-.1c.05-.03.07-.04.05-.05Z" fill="#696868"/><path d="m23.01 23.54.1.68c-.4-.37-.67-.8-.82-1.3l.31.05c.13.02.2.1.21.22a.6.6 0 0 0 .2.35Z" fill="#0012BD"/><path d="m27.06 23.02.02.03v.03c-.13.25-.21.36-.27.33-.05-.03.02-.16.2-.38l.02-.02.03.01Z" fill="#696868"/><path d="m23.8 23.43.26.54c.02.04.02.08-.01.1l-.14.14c-.03.03-.03.06 0 .1.1.14.11.24.04.3-.3.04-.58-.1-.84-.4l-.1-.67c.01-.06.05-.1.12-.1.15.08.18.18.1.29a.1.1 0 0 0-.03.05c0 .03 0 .05.02.06.03.03.05.02.06-.02l.07-.28c.02-.06.03-.1.01-.14-.02-.04-.07-.07-.14-.06.01-.12.07-.14.17-.06.04.03.06.08.08.13a5.18 5.18 0 0 0 .2.44h.05c.03-.02.04-.05.03-.08 0-.04-.03-.11-.09-.24a.09.09 0 0 1 .01-.09c.02-.02.04-.03.07-.02h.05Z" fill="#E6A201"/><path d="M23.22 23.34c.07 0 .12.02.14.06.02.03.01.08 0 .14-.04.09-.06.18-.08.28 0 .04-.03.05-.06.02l-.02-.06c0-.02 0-.04.02-.05.09-.11.06-.2-.09-.29 0-.06.03-.1.09-.1Z" fill="#505249"/><path d="M27.13 23.93c-.33.49-.69.72-1.07.68l.06-.27a.15.15 0 0 1 .08-.1l.76-.44c.03-.02.06-.01.1.02l.07.1Z" fill="#FD6600"/><path d="m24.28 24.15-.06-.18c-.01-.06.01-.08.07-.08h.1c.03 0 .04.01.04.04 0 .09-.02.17-.06.24-.01.02-.03.02-.05.02a.05.05 0 0 1-.04-.04Z" fill="#F9B801"/><path d="m8 26 .34.27c.02.38.1.74.22 1.1l.26.77a108.82 108.82 0 0 1 1.11 4.3c0 .1.02.17.04.22.15.42.26.9.35 1.42.02.1.02.18 0 .25-.02.04-.01.07.02.1.02.04.06.05.1.05l2.32.01c.07-.01.15 0 .24.01.06.05.11.11.16.19.04.07.03.08-.04.02a.5.5 0 0 0-.3-.11h-2.46a.12.12 0 0 0-.1.06l-.13.2c-.13-1-.32-1.99-.57-2.94-.43-1.59-.88-3.17-1.37-4.74A5 5 0 0 1 8 26Z" fill="#BD7402"/><path d="m10.37 26.02.5.06c.02 0 .04.02.04.06l.6 2.59c.02.11.06.11.11 0l.01-.04v-.04c-.16-.87-.32-1.74-.5-2.62.2-.04.3-.04.3 0 .23 1.23.47 2.46.72 3.68 0 .03.03.04.06.03 0 0 .02 0 .03-.02v.17c0 .03-.01.07-.04.1-.1.09-.15.18-.17.28l-.21.83c-.04 0-.06 0-.08-.02-.02-.01-.03-.03-.03-.06a6.18 6.18 0 0 0-.27-1.38 1.98 1.98 0 0 1-.08-.42 2.97 2.97 0 0 0-.08-.43 26.7 26.7 0 0 1-.44-2.33c-.02-.14-.1-.2-.25-.2l-2.25.01-.34-.26 2.37.01Z" fill="#F8D003"/><path d="M11.14 26.03a396.83 396.83 0 0 1 .5 2.66.7.7 0 0 1-.02.05c-.05.1-.09.1-.11-.01l-.6-2.6c0-.03-.02-.05-.04-.05l-.5-.06c.33-.04.58-.04.77.01Z" fill="#F9EA2D"/><path d="M17.91 29.87a.22.22 0 0 0-.05.12c0 .02.02.05.06.1.06.05.06.12 0 .21 0 .02-.01.02-.03.02l-.02-.02-.02-.22c0-.03-.02-.05-.06-.04a.07.07 0 0 0-.05.04c-.02.03-.02.06-.01.11l-1.22-3.86c-.06-.19-.12-.2-.2 0l-.04.18a.26.26 0 0 0-.05-.16.12.12 0 0 0-.11-.04c-.47.04-.93.04-1.4.03-.13 0-.28 0-.45.03l-.45.07-.36-.14c.02-.18.13-.26.3-.26.58.02 1.53.02 2.87 0 .04 0 .07 0 .08.05.45 1.44.83 2.67 1.13 3.7.01.04.04.07.08.08Z" fill="#F9B801"/><path d="M22 26.05a.96.96 0 0 0-.29.37c-.01.04-.04.05-.08.04a7.24 7.24 0 0 0-2.57-.02.79.79 0 0 1-.27-.38l3.21-.01Z" fill="#F8D003"/><path d="m22 26.05-.1.71c-.03.25-.07.49-.14.7-.7 2.44-1.38 4.88-2.01 7.33a1 1 0 0 0-.25-.2.62.62 0 0 0-.3-.09c-.7-.02-1.5-.02-2.37 0-.07 0-.12-.02-.13-.09l-1.54-5.1c-.01-.04-.04-.05-.09-.02a.29.29 0 0 0-.07.06l-.04-.44c0-.06-.03-.07-.08-.04A192.2 192.2 0 0 0 13 34.5a.57.57 0 0 0-.24-.01l-.84-3.28 1.89-4.77.45-.07c.17-.03.32-.04.45-.03.47.01.93 0 1.4-.03.04 0 .08 0 .1.04a27.77 27.77 0 0 1 .74 2.47l.14.59c.17.53.33 1.07.48 1.61.02.1.07.14.14.14l.03.07c.03.08.05.08.08 0l1.24-4.79c.85-.14 1.71-.14 2.57.02.04.01.07 0 .08-.04a.96.96 0 0 1 .29-.37Z" fill="#E6A201"/><path d="m19.06 26.44-1.24 4.78c-.03.09-.05.09-.08 0l-.03-.06c.1-.33.11-.66.02-.97v-.11a.07.07 0 0 1 .06-.04c.04 0 .05 0 .06.04l.02.22s0 .02.02.02.02 0 .03-.02c.06-.09.06-.16 0-.22-.04-.04-.06-.07-.06-.1s.02-.07.05-.11l.88-3.81c.04.14.13.27.27.38Z" fill="#BD7402"/><path d="M17.73 30.2c.1.3.09.63-.02.96-.07 0-.12-.04-.14-.14a43.8 43.8 0 0 0-.48-1.61 4.5 4.5 0 0 1-.13-.58c-.03-.2-.08-.4-.13-.59-.17-.58-.35-1.16-.56-1.73l.05-.19c.07-.18.13-.18.2.01l1.2 3.86Z" fill="#F8D003"/><path d="M11.82 31.1c-.02.06-.02.1 0 .14.02.05.05.05.08.01l.03-.04.83 3.28h-2.32a.13.13 0 0 1-.1-.05.11.11 0 0 1-.02-.11.56.56 0 0 0 0-.25c-.08-.52-.2-1-.35-1.42a.93.93 0 0 1-.04-.22l-.02-.18c-.34-1.38-.7-2.76-1.1-4.12l-.25-.77c-.12-.36-.2-.72-.22-1.1l2.25-.02c.15 0 .23.07.25.2.12.85.27 1.63.44 2.34.04.16.07.3.08.43.01.15.04.29.08.42a6.19 6.19 0 0 1 .3 1.44c.02.02.04.02.08.02Z" fill="#D38E01"/><path d="m13.8 26.44-1.88 4.77-.02.04c-.03.04-.06.04-.08 0-.02-.04-.02-.09 0-.15l.2-.83c.03-.1.08-.2.18-.28a.14.14 0 0 0 .04-.1v-.17l1.21-3.42.36.14Z" fill="#BD7402"/><path d="M15 29.35c-.07.25-.04.49.1.72a39.91 39.91 0 0 0-1.13 3.3c-.06.22-.23.7-.5 1.46-.03.08-.06.11-.1.12h-.1a.37.37 0 0 0-.13-.03l-3.01-.06.13-.2a.12.12 0 0 1 .1-.05c.82-.01 1.64-.02 2.46-.01.1 0 .2.04.3.11.07.06.08.05.04-.02a.75.75 0 0 0-.16-.19 192 192 0 0 1 1.88-5.63c.05-.03.08-.02.08.04l.05.44Z" fill="#F9B801"/><path d="M19.75 34.79v.12a.1.1 0 0 1-.07.07c-.04.02-.08 0-.11-.04-.01-.2-.14-.31-.38-.32l-2.33-.02c-.2 0-.3.11-.31.33-.03 0-.05 0-.06-.03-.43-1.7-.9-3.3-1.4-4.83a.88.88 0 0 1-.08-.72.3.3 0 0 1 .07-.06c.04-.03.07-.02.08.03l1.54 5.1c.01.06.06.09.13.08.87-.02 1.66-.02 2.37 0 .12 0 .22.03.3.08a1 1 0 0 1 .25.2Z" fill="#BD7402"/><path d="M19.57 34.94a.26.26 0 0 1-.15.05 203.6 203.6 0 0 1-2.84-.05l-.03-.01c.02-.22.12-.33.3-.33l2.34.02c.24 0 .36.11.38.32Z" fill="#F9EA2D"/><path d="M26.87 26.01c-.22.55-.3 1.2-.23 1.96a4 4 0 0 1-.24 1.45c-.01.01-.02.02-.04.01-.02 0-.03-.01-.03-.03 0-.04.01-.08.03-.11.02-.05 0-.06-.04-.03a.29.29 0 0 0-.08.08l-.03.01c-.32-.03-.52-.12-.6-.25-.1-.18-.15-.45-.15-.81 0-.61-.03-1.25-.1-1.92l-.56-.05a6.73 6.73 0 0 0-1.49 0l-.31-.33 3.87.02Z" fill="#F9B801"/><path d="m23 26 .31.31v8.17c0 .02 0 .03.02.03h1.4c.07 0 .1-.04.1-.1a3334.93 3334.93 0 0 1 .02-7.96.14.14 0 0 0-.09-.06c-.03 0-.04-.02-.03-.05.01-.02.03-.02.07-.02l.56.05c-.07.22-.11.43-.12.64-.02 1.35-.03 3.4-.02 6.13 0 .44-.02.85-.05 1.24 0 .07.03.1.1.1l1.22.03c.1.03.2.1.27.18-1.05-.03-2.1-.04-3.18-.04-.28 0-.44.11-.48.32h-.04c-.04 0-.05-.02-.05-.05L23 25.99Z" fill="#BD7402"/><path d="M26.89 34.99c0-.06-.04-.15-.13-.3a.5.5 0 0 0-.27-.18l.15-6.54c-.07-.76 0-1.41.23-1.96.09 0 .13.02.13.07v8.84c0 .03-.02.06-.06.06h-.05Z" fill="#D38E01"/><path d="M24.8 26.32c-.04 0-.06 0-.06.02-.02.03-.01.04.02.05.04.01.07.03.09.06l.02.07-.03 7.88c0 .07-.04.1-.11.1h-1.4c-.02 0-.03 0-.03-.02l.01-8.17c.47-.05.96-.04 1.49.01ZM25.36 26.37c.07.67.1 1.3.1 1.92 0 .36.05.63.15.8.08.14.28.23.6.26l.03-.01a.29.29 0 0 1 .08-.08c.05-.03.06-.02.04.03a.28.28 0 0 0-.03.1c0 .03 0 .04.03.04l.04-.01a4 4 0 0 0 .24-1.45l-.15 6.54-1.22-.02c-.07 0-.1-.04-.1-.1.03-.4.05-.81.05-1.25 0-2.73 0-4.78.02-6.13 0-.2.05-.42.12-.64Z" fill="#E6A201"/><path d="M26.76 34.7c.1.14.14.23.13.29l-3.79-.02c.05-.2.2-.31.48-.32 1.07 0 2.13 0 3.18.04ZM37.36 26.03l-.28.32-2.54-.04c-.11-.1-.21-.16-.3-.18-.03-.08-.02-.13.05-.13.8-.02 1.82 0 3.07.03Z" fill="#F8D003"/><path d="M34.24 26.13c.09.02.19.08.3.18-.06 0-.07.04-.02.12a.2.2 0 0 1 .03.1v4.4l-.01.03-.03.02h-.04l-.63-.82c-.02-.03-.05-.04-.09-.03-.54.23-1.05.52-1.54.87l-1.01-1.28a.51.51 0 0 0-.16-.25c-.05-.04-.06-.04-.02.02 0 .02.03.04.05.06.04.02.07.05.09.09.02.02.01.04-.02.05-.09.04-.13.12-.13.25l-.07-.15c-.02-.05-.04-.06-.04-.01v.05a4.7 4.7 0 0 1-2.6.61c-.02-1.45-.03-2.67-.01-3.67 0-.32-.09-.51-.27-.58-.02-.02-.03-.05-.02-.09.01-.04.04-.06.09-.06h2.76c.07 0 .12.02.15.07l3.13 4.05c.02.03.04.04.08.03.03-.01.04-.03.04-.06v-4Z" fill="#F9B801"/><path d="M37.36 26.03v3.37c0 .07-.01.12-.04.15-.04.03-.1.04-.18.04a3.4 3.4 0 0 1-.1-.94l.04-2.3.28-.32ZM28.3 30.44l.08 4.1-.05.01c-.03.01-.04.03-.04.06l.01.03-.12.13c-.02.03-.04.04-.06.04-.03 0-.1-.02-.12-.05l.02-8.57c.18.07.27.26.27.58-.02 1-.01 2.22.02 3.67Z" fill="#D38E01"/><path d="m37.08 26.35-.03 2.3a3.4 3.4 0 0 0 .09.98c0 .02 0 .03.03.03l.11.02c-.19-.02-.26.13-.21.47 0 .04-.02.06-.06.07l-2.28.36c-.04.01-.07 0-.07-.05-.03-1.45-.03-2.69 0-3.7 0-.23-.04-.4-.12-.52l2.54.04Z" fill="#F9B801"/><path d="M34.54 26.31c.08.12.12.3.12.52a82.04 82.04 0 0 0 0 3.7c0 .04.03.06.07.05l2.28-.36c.05 0 .06-.03.06-.07-.05-.34.03-.5.22-.47.2-.05.4-.06.6-.03.33.09.67.13 1.01.12.53-.02 1.05-.02 1.58-.01.27 0 .53.02.79.08-.2.02-.15.06.17.1l-.01.14c0 .03.01.04.04.04h.04c.03 0 .05.02.05.05l.16.6a.36.36 0 0 0-.13-.03c.01-.1-.02-.18-.11-.23a.1.1 0 0 0 .05 0c.03-.02.03-.03 0-.05-.16-.1-.2-.24-.12-.43 0-.03 0-.04-.03-.03h-.06l-.01.02v.21c0 .04-.02.06-.06.06l-1.41.04-.02.04c-.06 0-.1.02-.11.05-.02.04 0 .07.08.1l-.2 1.46c0 .03-.01.04-.04.04-.15 0-.3.01-.44.07-.02 0-.03 0-.03-.02v-1.28c0-.1-.03-.1-.07-.02l-.06.11c-.02.04-.04.04-.06 0a.7.7 0 0 1-.09-.26c.01-.05.04-.1.1-.14.02-.03.02-.05-.02-.07-.04-.02-.1-.01-.17.02a.44.44 0 0 0-.25-.11 15.01 15.01 0 0 0-.9 0c-.05-.27-.13-.43-.24-.48 0-.06-.04-.07-.1-.05-.04 0-.05.03-.05.07v.85c0 .03.01.05.04.06.05.01.1 0 .15-.01v.05c-.22.21-.33.5-.35.87a37.13 37.13 0 0 0-.04 2.6c-.69-.01-1.37 0-2.06.04-.1 0-.2-.01-.26-.05a.94.94 0 0 1-.24-.3A1434.76 1434.76 0 0 1 32.2 31c.49-.35 1-.64 1.54-.87.04-.01.07 0 .1.03l.62.81c.01.02.03.02.04.01l.03-.02V26.53a.2.2 0 0 0-.02-.1c-.05-.08-.04-.12.02-.12Z" fill="#E6A201"/><path d="m31.2 29.72 3.4 4.6c.04.04.08.06.14.06h2.17c.16 0 .3.37.4.6a74 74 0 0 1-2.33 0l-.37-.02a.1.1 0 0 1-.1-.03c-.19-.2-.32-.53-.38-.62l-2.84-3.8c-.07-.1-.14-.16-.21-.17l-.07-.4c0-.13.04-.2.13-.25.03 0 .04-.03.02-.05a.35.35 0 0 0-.09-.1.22.22 0 0 1-.05-.05c-.04-.06-.03-.06.02-.02.08.08.13.16.16.25ZM42.77 29.68c.02.05.02.08 0 .1 0 .02-.03.03-.08.02-.21-.02-.43 0-.65.08-.01-.03-.04-.04-.08-.05-.05 0-.06 0-.04.04l.73 1.76.07.1 1.15 2.89c.03.06.08.1.15.1l.8.03c.03 0 .07.08.1.24h-.86c-.2 0-.4-.06-.59-.14a.14.14 0 0 1-.07-.07l-1.68-4-.16-.61c0-.03-.02-.05-.05-.05h-.04c-.03 0-.04-.01-.04-.04l.01-.14c.1-.1.05-.14-.17-.1a4.25 4.25 0 0 0-.79-.08H38.9c-.34.01-.68-.02-1.01-.11.79-.01 1.57-.02 2.35-.01l1.15-.03c.38-.01.76 0 1.14.01.09 0 .17.03.24.06ZM47 29.75c-.17.2-.33.3-.47.3-.28-.06-.5-.07-.64-.03-.05.1-.1.15-.14.17-.03 0-.05.03-.05.06v.2c0 .02 0 .04-.03.04h-.04l-.03-.04a.3.3 0 0 1 .01-.15c.02-.05 0-.05-.03-.02a.25.25 0 0 0-.1.19c0 .03.02.06.06.07.05.02.07.1.04.24-.05.04-.1-.02-.12-.17 0-.05-.02-.05-.04 0-.1.2-.17.39-.22.54-.05.16-.02.17.07.03l.13-.26c.02-.06.05-.06.07 0l.03.05-.62 1.63c-.17.2-.3.42-.36.65-.04.16-.1.17-.17.02a2.63 2.63 0 0 1-.18-.56c0-.04 0-.07.02-.1.06-.09.05-.13 0-.13l1.11-2.73a.1.1 0 0 1 .08-.06 4.6 4.6 0 0 1 1.62.06Z" fill="#F8D003"/><path d="M43.48 31.1c.04.57.2 1.11.49 1.63.02.04.04.03.05 0l.03-.17.13-.08c.06 0 .07.04.01.12a.14.14 0 0 0-.02.1c.05.22.1.4.18.57.07.15.13.14.17-.02.07-.23.19-.45.36-.65.3-.56.53-1.12.72-1.67.05-.13.02-.15-.1-.06v.1l-.03-.06c-.02-.05-.05-.05-.07 0-.03.09-.07.17-.13.27-.1.14-.12.13-.07-.03.05-.15.12-.33.22-.54.02-.05.03-.05.04 0 .03.15.07.2.12.17.07 0 .12-.07.17-.19l.08-.22a.74.74 0 0 0 .06-.35c.14-.04.36-.03.64.03-.1.43-.24.86-.43 1.28a226.8 226.8 0 0 0-1.11 2.43.57.57 0 0 0-.1.19c-.02.14-.07.34-.16.58 0 .04-.04.06-.08.06h-.2c-.16.03-.3.03-.45 0a.1.1 0 0 1-.09-.07l-1.15-2.82c-.03-.02-.04-.01-.04.03l-.07-.1c.06-.02.08-.07.04-.15-.24-.52-.46-1.05-.65-1.6.22-.07.44-.1.65-.08.05 0 .08 0 .09-.02v-.1c.05 0 .1 0 .13.02.04.02.07.05.09.1.2.46.36.9.48 1.3Z" fill="#D38E01"/><path d="m31.2 29.72 1 1.28a1434.76 1434.76 0 0 0 2.45 3.27c.06.04.15.06.26.05.68-.04 1.37-.05 2.06-.04l.4.58c0 .04-.01.09-.07.14-.1-.24-.23-.62-.4-.62h-2.16a.15.15 0 0 1-.13-.06l-3.41-4.6Z" fill="#905501"/><path d="m31.01 29.94.07.4-.01.32c-.1-.22-.16-.5-.16-.83a.1.1 0 0 1-.01-.05c0-.05.02-.04.04.01l.07.15Z" fill="#BD7402"/><path d="m37.32 29.84.01.64c0 .03.02.04.05.03l.02-.01a.14.14 0 0 1 .1-.04h1.05c.03 0 .05.02.06.05.02.03.04.05.07.05l.06.07c-.01.08 0 .16.04.23l.03.12v3.7c0 .03.02.04.04.04l.08-.02.75.02.09.27h-1.15c-.1 0-.15-.1-.15-.2v-3.95c0-.06-.03-.08-.09-.08h-1.02a.25.25 0 0 1-.15.01c-.03 0-.04-.03-.04-.06v-.85c0-.04.01-.06.05-.07.06-.02.1 0 .1.05Z" fill="#F8D003"/><path d="M41.44 29.94c-.32-.04-.38-.08-.17-.1.22-.04.28 0 .17.1ZM42.04 29.88c.2.55.4 1.08.65 1.6.04.08.02.13-.04.15l-.73-1.76c-.02-.03 0-.05.04-.04.04 0 .07.02.08.05Z" fill="#BD7402"/><path d="M30.9 29.83c0 .33.06.6.17.83l.05 4.25c0 .03-.01.04-.04.04h-.04a.87.87 0 0 0-.2-.31c.02-.06-.04-.08-.19-.09-.74-.01-1.5-.02-2.27-.01l-.07-4.1a4.7 4.7 0 0 0 2.6-.6Z" fill="#E6A201"/><path d="m38.71 30.43-.03.13a.08.08 0 0 1-.07-.05c0-.03-.03-.04-.06-.04h-1.06a.14.14 0 0 0-.09.03.1.1 0 0 1-.02.01c-.03 0-.04 0-.05-.03v-.64c.1.05.18.21.23.48h.9a.44.44 0 0 1 .25.1ZM47 29.75l-1.75 3.93c-.08.2-.15.41-.19.65l-.13.66c-.04-.16-.08-.24-.12-.24a.17.17 0 0 0-.04-.1c-.02-.03-.05-.04-.1-.04l-.22-.01h.2c.04 0 .07-.03.08-.07.09-.24.14-.44.17-.58 0-.05.03-.11.09-.2l.06-.1 1.05-2.32c.19-.42.33-.84.43-1.28.14 0 .3-.1.47-.3ZM41.48 30.51a1.35 1.35 0 0 0-.1-.05.22.22 0 0 0-.1-.02h-1.34c-.02 0-.04.01-.04.04-.04 0-.06-.06-.06-.14l1.4-.05c.05 0 .07-.02.07-.06v-.2l.01-.02.06-.01c.03 0 .04 0 .03.03-.08.2-.04.34.12.43.03.02.03.03 0 .05h-.05ZM34.27 30.24c.01.11.05.2.08.2s.05-.1.04-.21c-.01-.11-.04-.2-.08-.2-.03 0-.04.1-.04.2ZM45.89 30.02c0 .12 0 .24-.06.35l-.08.23c-.05.11-.1.17-.17.18.03-.14.01-.22-.04-.24-.04-.01-.05-.04-.05-.07 0-.07.03-.14.09-.19.04-.03.05-.03.03.02a.3.3 0 0 0 0 .15c0 .03 0 .04.02.05h.04c.02-.01.03-.03.03-.06v-.19c0-.03.02-.05.05-.06.05-.02.1-.07.14-.17Z" fill="#BD7402"/><path d="M39.82 30.37c.03.09.03.13-.03.15-.07-.03-.1-.06-.08-.1.01-.03.05-.05.1-.05Z" fill="#050503"/><path d="M39.84 30.33c0 .1.02.14.06.15.1.14.08.22-.04.25l-.04 3.9c0 .1-.02.2-.05.33l-.09-.24c.01-.05-.04-.1-.15-.1a1.3 1.3 0 0 0-.24-.01c-.15 0-.27-.01-.36-.05-.04-.01-.06 0-.06.05 0 .03.02.06.06.09l-.08.02c-.03 0-.04 0-.04-.04v-3.7a.24.24 0 0 0-.03-.12.42.42 0 0 1-.04-.23h.06c.01.09.04.17.09.25.02.04.04.04.06 0l.06-.1c.04-.1.06-.09.06.01v1.28c0 .02.02.03.04.02.14-.06.29-.08.44-.07.03 0 .04-.01.05-.04l.2-1.46c.05-.02.06-.06.02-.15l.02-.04Z" fill="#D38E01"/><path d="M38.8 30.62h-.07l-.06-.06.04-.13c.07-.03.12-.04.17-.02.04.02.04.04.01.07a.27.27 0 0 0-.1.14Z" fill="#050503"/><path d="M41.48 30.51c.08.05.12.13.11.23h-1.73c.12-.04.13-.12.04-.26 0-.03.02-.04.04-.04h1.34c.04 0 .07 0 .1.02l.1.05Z" fill="#F9EA2D"/><path d="m37.35 30.8.01 4.06-.39-.58c-.02-.65 0-1.52.04-2.6.02-.37.13-.66.34-.87Z" fill="#D38E01"/><path d="m44.88 32.6.62-1.63v-.1c.12-.1.15-.07.1.06-.19.55-.43 1.1-.72 1.67Z" fill="#BD7402"/><path d="m44.05 32.56-.03.16c-.01.05-.03.05-.05 0a3.85 3.85 0 0 1-.49-1.62c.27.49.46.97.57 1.46Z" fill="#F8D003"/><path d="M44.45 34.6c.07.01.15.02.22.01.05 0 .08.01.1.03.03.03.04.06.04.1l-.79-.02c-.07 0-.12-.04-.15-.1l-1.15-2.89c0-.04.01-.05.03-.03l1.16 2.82a.1.1 0 0 0 .09.07c.14.03.3.03.45 0Z" fill="#050503"/><path d="m44.12 33.22-.03.01-.03-.01a.36.36 0 0 1 0-.21c0-.02 0-.03.02-.04.02 0 .03 0 .04.02.05.04.05.12 0 .23Z" fill="#F8D003"/><path d="M44.23 33.58a.24.24 0 0 1-.07-.18c0-.05.02-.06.05-.02.14.14.2.27.17.41 0 .03-.02.04-.04.04h-.03c-.03 0-.04-.02-.04-.04v-.14a.09.09 0 0 0-.04-.07Z" fill="#F9EA2D"/><path d="M28.38 34.53c.78 0 1.53 0 2.27.02.15 0 .21.03.2.08H28.3a.04.04 0 0 1-.01-.03c0-.02.01-.04.04-.05l.05-.02Z" fill="#905501"/><path d="M30.84 34.63c.1.1.16.2.2.32-.96.05-1.92.05-2.87.01-.07 0-.1-.02-.12-.05a.26.26 0 0 1-.01-.15c.02.03.05.05.08.05.02 0 .04 0 .06-.03l.12-.14h2.54Z" fill="#F9EA2D"/></svg>