<!-- by TradingView --><svg width="56" height="56" viewBox="0 0 56 56" xmlns="http://www.w3.org/2000/svg"><path fill="#F0F3FA" d="M0 0h56v56H0z"/><path d="M25.72 14.57a13.43 13.43 0 0 0-9.7 18.85 13.18 13.18 0 0 0 17.16 6.66c10.03-4.37 10.88-18.28 1.5-23.85a15.32 15.32 0 0 0-4.25-1.66l.38-3.34c.03-.26.1-.28.24-.05l.7 1.2c0 .02.03.04.06.05.03 0 .06 0 .1-.02l1.42-.82a.18.18 0 0 1 .06-.02h.06l.06.02a.1.1 0 0 1 .03.05l.53 1.47a.2.2 0 0 0 .11.11.2.2 0 0 0 .16 0l1.45-.67a.13.13 0 0 1 .18.09l.32 1.7a.15.15 0 0 0 .13.11h.07l1.45-.53a.2.2 0 0 1 .27.18v1.62a.19.19 0 0 0 .22.18l1.55-.29a.15.15 0 0 1 .18.17l-.25 1.6a.22.22 0 0 0 .05.17.23.23 0 0 0 .17.08h1.54a.12.12 0 0 1 .09.04.12.12 0 0 1 .02.1l-.42 1.67a.12.12 0 0 0 .05.13l.05.02 1.56.25a.23.23 0 0 1 .17.13.22.22 0 0 1 0 .2l-.78 1.34a.16.16 0 0 0 .03.2l.06.03 1.6.58a.09.09 0 0 1 .07.1l-.01.03-.9 1.56a.08.08 0 0 0-.01.05c0 .02.01.04.03.05l1.46.84a.13.13 0 0 1 .06.09.12.12 0 0 1-.02.1l-1.16 1.4a.05.05 0 0 0 0 .08l1.34 1.1a.1.1 0 0 1 .04.07.1.1 0 0 1-.03.08l-1.33 1.32a.13.13 0 0 0-.03.07l.01.07 1.14 1.13a.17.17 0 0 1-.04.27l-1.45.84a.11.11 0 0 0-.06.07l.01.08.86 1.48a.12.12 0 0 1 .01.1.12.12 0 0 1-.07.07l-1.53.56a.15.15 0 0 0-.09.2l.68 1.46a.16.16 0 0 1 0 .15.17.17 0 0 1-.13.08l-1.56.3a.2.2 0 0 0-.16.18l.01.09.55 1.5a.14.14 0 0 1-.14.18h-1.7a.2.2 0 0 0-.13.06.15.15 0 0 0-.04.06v.06l.3 1.62a.15.15 0 0 1-.17.18l-1.63-.26a.16.16 0 0 0-.17.09l-.01.06v1.62a.14.14 0 0 1-.11.13h-.06l-1.62-.4a.15.15 0 0 0-.16.06.14.14 0 0 0-.02.05l-.25 1.57a.2.2 0 0 1-.21.17.2.2 0 0 1-.1-.02l-1.29-.75a.23.23 0 0 0-.28.04.24.24 0 0 0-.06.08l-.54 1.52a.1.1 0 0 1-.07.06.1.1 0 0 1-.08 0l-1.45-.84a.17.17 0 0 0-.22.07l-.8 1.36a.1.1 0 0 1-.16.03l-1.3-1.06c-.08-.08-.16-.07-.24.02L28 44.97c-.04.04-.07.04-.11 0l-1.11-1.38c-.1-.11-.19-.12-.28-.02l-1.11 1.1a.17.17 0 0 1-.22.03.17.17 0 0 1-.05-.06l-.8-1.38a.16.16 0 0 0-.22-.06l-1.43.82a.1.1 0 0 1-.15-.06l-.57-1.54a.16.16 0 0 0-.09-.09.15.15 0 0 0-.12 0l-1.46.68a.16.16 0 0 1-.14 0 .15.15 0 0 1-.08-.1l-.3-1.6a.2.2 0 0 0-.1-.14.2.2 0 0 0-.16-.01l-1.4.51a.2.2 0 0 1-.25-.1.2.2 0 0 1-.02-.08v-1.64a.17.17 0 0 0-.06-.14.17.17 0 0 0-.14-.03l-1.55.29a.17.17 0 0 1-.2-.2l.26-1.61a.17.17 0 0 0-.1-.18.17.17 0 0 0-.07-.02h-1.63a.1.1 0 0 1-.08-.04.1.1 0 0 1-.02-.08l.42-1.67v-.06c0-.03 0-.05-.02-.07a.14.14 0 0 0-.04-.04.13.13 0 0 0-.05-.03l-1.54-.24a.22.22 0 0 1-.16-.33l.76-1.31a.2.2 0 0 0-.1-.3l-1.55-.55a.1.1 0 0 1-.07-.11l.01-.04.88-1.52a.1.1 0 0 0-.04-.14l-1.43-.82a.12.12 0 0 1-.03-.19l1.1-1.34a.12.12 0 0 0 .03-.08.11.11 0 0 0-.04-.08l-1.3-1.06a.18.18 0 0 1-.05-.22.18.18 0 0 1 .05-.07l1.37-1.1a.12.12 0 0 0 .04-.13.12.12 0 0 0-.03-.05l-1.2-1.19a.17.17 0 0 1-.04-.14.17.17 0 0 1 .08-.12l1.51-.87a.07.07 0 0 0 .03-.04.07.07 0 0 0 0-.05l-.9-1.54a.1.1 0 0 1 0-.09.1.1 0 0 1 .06-.06l1.59-.58a.11.11 0 0 0 .06-.06.12.12 0 0 0 0-.1L12.96 20a.18.18 0 0 1 0-.15.17.17 0 0 1 .13-.1l1.6-.3a.17.17 0 0 0 .12-.22l-.54-1.47a.17.17 0 0 1 .16-.23h1.6a.22.22 0 0 0 .22-.26l-.29-1.5a.19.19 0 0 1 .12-.21c.03-.01.06-.02.09-.01l1.56.25a.18.18 0 0 0 .2-.1.19.19 0 0 0 .01-.09V14c0-.1.06-.13.16-.1l1.65.4c.1.03.14 0 .16-.1l.26-1.61a.19.19 0 0 1 .2-.16.2.2 0 0 1 .08.02l1.32.76a.23.23 0 0 0 .27-.04.22.22 0 0 0 .05-.08l.53-1.46a.15.15 0 0 1 .22-.08l1.43.82a.12.12 0 0 0 .1.02.12.12 0 0 0 .07-.06l.74-1.29.04-.03c.12-.04.18.01.18.15.02 1.08.13 2.22.32 3.41Z" fill="#1F1917"/><path d="m25.99 18.7-.63-.06a.19.19 0 0 0-.2.1l-.13.22a.3.3 0 0 1-.17.14c-.28.1-.59.06-.92-.09l.13-1.1a.36.36 0 0 0-.34-.4.36.36 0 0 0-.18.04 11.69 11.69 0 0 0-6.39 8.5c-.09.44-.07 1.49.04 3.14.02.42.25 1.2.67 2.35.34.91.68 1.64 1.01 2.17a12.82 12.82 0 0 0 2.56 3c.38.32.32.48-.19.46l-.93-.02a1.58 1.58 0 0 1-1.18-.6 19.07 19.07 0 0 1-2.07-3.07 12.64 12.64 0 0 1-1.2-8.01c.11-.67.48-1.74 1.1-3.22.24-.57.54-1.07.9-1.49.5-.56.84-1.25 1.43-1.84a13.49 13.49 0 0 1 6-3.48.31.31 0 0 1 .26.04.32.32 0 0 1 .13.23l.3 3ZM31.76 19.26l-.53-.4a.28.28 0 0 0-.23-.06l-.44.09a.23.23 0 0 1-.21-.07c-.17-.15-.38-.3-.64-.4l.67-2.77a.28.28 0 0 1 .13-.18.3.3 0 0 1 .23-.03c1.9.48 3.6 1.37 5.07 2.66 1.3 1.13 2.66 2.7 3.35 4.37.47 1.14.82 2.3 1.05 3.5a11.2 11.2 0 0 1-.15 4.33 16.28 16.28 0 0 1-2.08 4.83c-.35.55-.8 1.1-1.36 1.66-.44.44-1.1.33-1.89.34-.58.01-.63-.15-.15-.47.33-.23.65-.53.95-.9.63-.77 1.09-1.26 1.54-2a11.23 11.23 0 0 0 .71-11.03c-.35-.72-.9-1.41-1.35-2.05a6.23 6.23 0 0 0-.65-.8 11.61 11.61 0 0 0-3.55-2.46.08.08 0 0 0-.06.03l-.02.03-.4 1.78Z" fill="#DDDEDD"/><path d="M29.71 18.41c.26.12.47.26.64.41.06.06.13.08.2.07l.45-.09c.08-.01.16 0 .23.06l.53.4c.68-.05 1.18.17 1.5.66.04.07.1.11.19.13.4.07.64.3.69.67 0 .07.05.14.14.2.22.18.86.23.84.72 0 .08.02.15.06.22.15.23.36.36.63.4.09 0 .14.05.14.14.04.45-.13.87.46 1.02a.43.43 0 0 1 .32.39c0 .05 0 .11-.02.17l-.14.38c-.06.15 0 .25.14.3.33.1.5.26.5.47 0 .05-.05.17-.17.37a.45.45 0 0 0-.07.32c.02.09.07.15.15.2.23.12.38.27.45.44.03.07.02.14-.01.2l-.28.48a.31.31 0 0 0 .08.4c.51.4-.01.89-.17 1.32a.2.2 0 0 0 .04.2c.3.33.25.71-.16 1.15a.44.44 0 0 0-.09.47c.14.34 0 .64-.44.9a.3.3 0 0 0-.13.18c-.05.16-.05.38 0 .67a.27.27 0 0 1-.28.31c-.24-.02-.44.18-.45.41l-.02.43a.2.2 0 0 1-.15.2l-.6.22a.14.14 0 0 0-.07.05c-.13.17-.19.39-.18.64a.18.18 0 0 1-.13.17.59.59 0 0 1-.24.01.45.45 0 0 0-.23.03c-.27.11-.44.35-.5.72a.22.22 0 0 1-.12.17c-.22.1-.47.1-.72-.04-.19-.1-.28-.05-.3.16-.03.32-.14.51-.33.6-.07.02-.2 0-.4-.07a1.2 1.2 0 0 0-.28-.08c-.1 0-.17.02-.21.09l-.34.56a.21.21 0 0 1-.15.1.22.22 0 0 1-.18-.06c-.15-.15-.3-.25-.45-.3a.24.24 0 0 0-.25.07l-.6.59c-.04.05-.1.05-.15 0l-.3-.3a.48.48 0 0 0-.17-.12.45.45 0 0 0-.2-.03.4.4 0 0 0-.17.06.37.37 0 0 0-.13.13l-.08.15a.35.35 0 0 1-.55.07l-.4-.4c-.13-.13-.25-.12-.37.01-.23.28-.45.37-.65.26a.32.32 0 0 1-.15-.17l-.1-.25a.18.18 0 0 0-.17-.13c-.25 0-.54.05-.88.17a.17.17 0 0 1-.19-.05c-.08-.08-.13-.26-.14-.51 0-.1-.05-.14-.14-.14-.27 0-.53.03-.79.12a.24.24 0 0 1-.28-.1.25.25 0 0 1-.04-.1c-.06-.42-.34-.64-.86-.65a.38.38 0 0 1-.37-.32c-.04-.27-.14-.45-.33-.56a.43.43 0 0 0-.25-.06c-.29.01-.42-.13-.41-.41a.37.37 0 0 0-.05-.2.88.88 0 0 0-.56-.4.51.51 0 0 1-.36-.63c.1-.35-.01-.54-.34-.6a.38.38 0 0 1-.2-.09c-.24-.21-.26-.5-.08-.87a.13.13 0 0 0-.06-.18c-.35-.18-.52-.45-.5-.81.02-.22.18-.41.14-.56a.29.29 0 0 0-.13-.18c-.24-.16-.33-.36-.28-.61a.76.76 0 0 1 .09-.22c.39-.65-.07-.7-.15-1.2-.04-.21.02-.38.18-.5.12-.1.15-.22.08-.37-.33-.7-.04-.91.39-1.36a.16.16 0 0 0 .03-.19.87.87 0 0 1-.07-.65.34.34 0 0 1 .14-.18c.67-.45.06-1.15.91-1.54a.4.4 0 0 0 .18-.15c.23-.37 0-.82.58-.9a.38.38 0 0 0 .2-.1c.15-.13.25-.34.28-.64a.18.18 0 0 1 .15-.17c.42-.12.74-.38.96-.77a.3.3 0 0 1 .19-.14c.52-.13.95-.42 1.26-.86.33.15.63.18.92.1a.3.3 0 0 0 .17-.15l.13-.22a.19.19 0 0 1 .2-.1l.63.07c.3 0 .52-.13.67-.39a.24.24 0 0 1 .41 0c.1.19.27.3.5.34.07.01.13-.01.17-.07.16-.24.36-.37.6-.38.15 0 .22.05.2.16 0 .08.03.15.1.19l.32.18c.06.03.13.03.2 0l.55-.33Z" fill="#F8C407"/><path d="m24.84 27.24.13 1.7h-3.34c-.27 0-.36.14-.29.4a7.1 7.1 0 0 0 3.06 4.25.44.44 0 0 1 .15.6l-.57.97c-.06.1-.15.12-.25.06a8.63 8.63 0 0 1-4.1-5.72 8.3 8.3 0 0 1 4.8-9.2.18.18 0 0 1 .17.12l.42 1.16a.3.3 0 0 1-.1.34c-.53.37-1 .75-1.42 1.13a6.84 6.84 0 0 0-2.25 4.09.14.14 0 0 0 .08.1h3.51ZM31.2 29l.11-1.81 3.39.05a.08.08 0 0 0 .06-.03.08.08 0 0 0 .02-.06c-.37-2.32-1.7-3.86-3.58-5.15-.22-.16-.28-.36-.17-.6l.36-.82c.1-.23.27-.29.5-.16a8.93 8.93 0 0 1 2.96 2.45c2 2.78 2.26 5.7.82 8.74a9.1 9.1 0 0 1-3.48 3.65.26.26 0 0 1-.28-.17l-.4-1.11c-.06-.16-.02-.29.12-.38a6.84 6.84 0 0 0 3.08-4.55.15.15 0 0 0-.15-.12l-3.36.08Z" fill="#1D1810"/><path d="m31.31 27.19-.1 1.82c-.85 1.54-1.69 2.3-3.47 2.16-1.38-.11-2.3-.86-2.77-2.23l-.13-1.7c.48-1.43 1.38-2.24 2.7-2.44.84-.12 1.59.03 2.27.45.71.44 1.21 1.09 1.5 1.94Z" fill="#FEFEFD"/><path d="M28.07 25.41c.76 0 1.46.26 2.1.8a.45.45 0 0 1 .16.41l-.55 3.47a.52.52 0 0 1-.43.43 8.57 8.57 0 0 1-2.51.01.52.52 0 0 1-.44-.43l-.59-3.45a.44.44 0 0 1 .15-.41 3.2 3.2 0 0 1 2.1-.83Z" fill="#B0AEB1"/><path d="M28.44 29.04c.09.05.2.08.33.1.04 0 .07.03.09.06.02.02.03.06.03.1 0 .12-.08.19-.2.2-.52.08-.92.08-1.21.02-.09-.02-.13-.08-.14-.18a.2.2 0 0 1 .1-.18l.2-.13a.24.24 0 0 0 .13-.21v-1.6a.2.2 0 0 0-.12-.18.46.46 0 0 0-.34 0 .37.37 0 0 0-.19.14c-.17.25-.39.34-.64.26-.09-.02-.12-.07-.1-.16.2-.95.78-.8 1.67-.82.6-.02 1.58-.1 1.67.65.02.2-.14.36-.36.37a.23.23 0 0 1-.2-.1 1.2 1.2 0 0 0-.38-.35.3.3 0 0 0-.45.26v1.55a.23.23 0 0 0 .11.2Z" fill="#0B0B07"/><path d="M27.98 33.7v1.55c0 .02 0 .05-.02.07a.09.09 0 0 1-.07.03h-.08c-.1 0-.15-.04-.15-.14l-.1-1.75c0-.1.04-.13.13-.1.23.06.48.05.72-.03a.29.29 0 0 1 .26.03.27.27 0 0 1 .11.22c0 .02-.02.03-.06.05a.18.18 0 0 1-.13 0l-.4-.1c-.14-.03-.2.03-.2.16Z" fill="#1F1917"/></svg>