<!-- by TradingView --><svg width="56" height="56" viewBox="0 0 56 56" xmlns="http://www.w3.org/2000/svg"><path fill="#F0F3FA" d="M0 0h56v56H0z"/><path d="M14.84 29.93c-.19.25-.12.36.2.33a6.44 6.44 0 0 0 2.35-.6c.12-.06.21-.15.28-.26a22.43 22.43 0 0 1 3.66-5.08c1.5-1.5 3.24-2.62 5.24-3.39a10.14 10.14 0 0 1 5.95-.33c2.21.67 3.14 2.16 2.8 4.47-.07.41.04.46.33.15.63-.7 1-1.5 1.11-2.41a6.38 6.38 0 0 0-5.02-6.57 7.82 7.82 0 0 0-6.14 1 21.04 21.04 0 0 0-5.4 4.89 46.9 46.9 0 0 0-4.06 6.18c-.14.25-.42.62-.85 1.1l-.45.52Zm-5.37 3.13c-.67.42-.62.52.15.32 3.05-.8 6.2-.98 9.47-.57 2 .25 4.31.77 6.96 1.54 3.07.9 5.13 1.5 6.15 1.77 2.04.53 3.73.83 5.05.87a13.7 13.7 0 0 0 9.62-3.3c.2-.16.17-.2-.07-.11a19.7 19.7 0 0 1-12.71.36c-2.68-.81-5.34-1.67-7.98-2.59a20.85 20.85 0 0 0-9.33-1.1c-1.39.17-2.65.5-3.8 1-1.34.59-2.5 1.19-3.5 1.8Z" fill="#DB2128"/></svg>