<!-- by TradingView --><svg width="56" height="56" viewBox="0 0 56 56" xmlns="http://www.w3.org/2000/svg"><path fill="#F0F3FA" d="M0 0h56v56H0z"/><path d="m33.38 10 4.32 8.98-2.97 2.2c2.76-.03 8.27 1.75 8.27 9.08 0 4.84-2.52 8.61-3.78 9.9L41.2 43H31v-3.94C29.83 40.37 27.02 43 23.5 43c-4.41 0-7.83-4.95-9.9-9.63l-2.6.74 4.5-10.27 3.23 2.3a14.12 14.12 0 0 1-1.26-4.96c0-2.2 1.62-9.16 10.34-9.16 1.15 0 3.12.55 3.95.82L33.38 10ZM19 25.17l3 1.5V37h13V25.56l2-1.26-9.58-5.3L19 25.17Z" fill="#326BAE"/><path d="M27 24h-4v11h4v-4.47c0-.52.43-.94.96-.94.61 0 1.04.42 1.04.94V35h4v-5.98c0-1.67-1.76-3.02-3.47-3.02-1.05 0-1.97.5-2.53 1.29V24Z" fill="#52383C"/></svg>