<!-- by TradingView --><svg width="18" height="18" viewBox="0 0 18 18" xmlns="http://www.w3.org/2000/svg"><path fill="#F0F3FA" d="M0 0h18v18H0z"/><path d="M9 3a6 6 0 1 1 0 12A6 6 0 0 1 9 3Zm0 1a5 5 0 1 0 0 10A5 5 0 0 0 9 4Z" fill="#ED0120"/><path d="M10.5 5.08c-1.34.02-1.65 1.18-1.64 1.76.45-1.07 1.57-1.12 2.07-1.01l.7 1.2a1.9 1.9 0 0 0-1-.27c-.6 0-1.28.5-1.28 1.3 0 .4.12.63.24.74.76-.25 1.9-.45 2.72 0 1.35.72 1.64 2.36 1.62 3.2h-2c.63-1.2-.24-1.74-.76-2 .73.73.29 1.6-.05 2H9.74c.12-.05.44-.15.67-.57.29-.54.16-1.2-.55-1.57-.15-.09-.29-.13-.4-.16-.19.77-.7 2.08-1.65 2.57-1.38.69-3.08-.14-3.75-.64l1.1-1.67c.62 1.2 1.8.95 2.3.68-1.15.08-1.7-.9-1.83-1.39l.76-1.16c-.03.13-.01.58.2 1a1.3 1.3 0 0 0 1.75.56c.36-.18.51-.38.56-.54-.6-.47-1.64-1.57-1.64-2.7 0-1.53 1.5-2.68 2.25-3.06l1 1.73Z" fill="#ED0120"/></svg>