<!-- by TradingView --><svg width="18" height="18" viewBox="0 0 18 18" xmlns="http://www.w3.org/2000/svg"><path fill="#F0F3FA" d="M0 0h18v18H0z"/><path d="M9.32 4c2.06.01 3.67 1.24 4.4 3.32.72 1.99-.04 3.98-1.4 5.47-.96 1.03-2.51 1.24-3.85 1.2h-.1C6.17 13.52 4 11.72 4 9.33V4.06c0-.02 0-.03.02-.04A.06.06 0 0 1 4.06 4h5.26ZM6.17 7.13c-.27 0-.36.04-.57.2-.1.06-.23.18-.24.26a71.77 71.77 0 0 0 .03 1l.31.3.04.02c.16.06.26.09.32.09h1.9c.02 0 .04 0 .05.02l.15.13.02.05c.01.2.02.44.01.47a2.67 2.67 0 0 1-.2.43l-.03.01-.6.04a.07.07 0 0 1-.06-.02.47.47 0 0 0-.2-.16.23.23 0 0 1-.06-.04 1.36 1.36 0 0 0-.46-.25l-.21-.11a.1.1 0 0 0-.05-.02.6.6 0 0 1-.2-.06.88.88 0 0 0-.37-.02c-.12 0-.23.08-.34.21a.13.13 0 0 0-.02.08v.41l.01.07.28.56.03.04.1.04h1.32l.27-.06h.03l.02.02.45.68a2.98 2.98 0 0 0 .26.43l.38.72.02.01h.03V11.73l-.32-.53a.41.41 0 0 0-.05-.07 1.08 1.08 0 0 1-.17-.24v-.02l.02-.02.02-.01c.07-.02.22-.05.3-.1a.76.76 0 0 0 .38-.68 20.6 20.6 0 0 0-.04-1.04.67.67 0 0 1-.05-.15c-.03-.17-.13-.27-.27-.39l-.26-.1-.02-.01h-2.1c-.01 0-.02 0-.03-.02L6 8.33v-.55L6 7.76l.02-.01h2.66v-.53a.1.1 0 0 0-.03-.07.1.1 0 0 0-.03-.02H6.17Zm3.2 0-.04.01a.06.06 0 0 0-.02.04v.51l.02.05.05.01h2.56c.02 0 .04 0 .06.02.02 0 .04.02.05.03l.04.05v.36a.2.2 0 0 1-.05.13c-.03.03-.08.03-.13.04h-1.38c-.53 0-.88-.02-1.12.43-.07.12-.1.3-.1.54a77.07 77.07 0 0 0 .02.88l.1.26c.12.19.3.3.5.36h.02a.04.04 0 0 1 .01.03v.02l-.48.82a.28.28 0 0 0-.03.14v.78c0 .03 0 .04.03.04.02 0 .04-.01.05-.04.29-.57.58-1.09.88-1.54.05-.07.11-.15.19-.22h1.65a.2.2 0 0 0 .07-.04 2.63 2.63 0 0 0 .34-.73c.1-.38-.16-.68-.54-.65-.17.01-.31.05-.43.11l-.29.12c-.26.13-.48.27-.67.44a.1.1 0 0 1-.07.03h-.6a.1.1 0 0 1-.04-.02.34.34 0 0 1-.16-.27v-.6c.01-.13.08-.21.2-.27h1.97a.5.5 0 0 0 .2-.06.93.93 0 0 0 .36-.35.2.2 0 0 0 .02-.1v-.9c0-.04 0-.06-.02-.09a.82.82 0 0 0-.3-.31l-.25-.06H9.37Zm1.44 4.09-.02.02-.06.08a.13.13 0 0 0 0 .17 4.75 4.75 0 0 0 .93.75c.02 0 .04 0 .06-.02l.25-.14.02-.02a.05.05 0 0 0 0-.04l-.02-.02-1.08-.78a.08.08 0 0 0-.05-.01h-.03ZM6.4 9.89l.02.02c.04.05.08.08.13.1.06.01.11.07.15.11l.01.04a.1.1 0 0 1 0 .04c0 .02 0 .03-.02.04l-.03.01h-.8l-.02-.01-.02-.03a.08.08 0 0 1 .01-.06L6 9.94a.15.15 0 0 1 .11-.06H6.4Zm4.95.27c.22-.24.58-.34.79-.02a.08.08 0 0 1 0 .07l-.01.03-.03.01h-.75l-.01-.03v-.06Zm-2.32-4.8a.72.72 0 0 0-.72.74.72.72 0 1 0 1.44 0 .72.72 0 0 0-.72-.73Zm0 .34c.22 0 .4.17.4.4a.4.4 0 0 1-.4.4.4.4 0 0 1-.4-.4c0-.23.18-.4.4-.4Z" fill="#0088E2"/></svg>