<!-- by TradingView --><svg width="18" height="18" viewBox="0 0 18 18" xmlns="http://www.w3.org/2000/svg"><path fill="#F0F3FA" d="M0 0h18v18H0z"/><path d="m4.4 10.92.03-.02h.24a4.64 4.64 0 0 0 .8 1.22 6.62 6.62 0 0 1 .73-.35c-.17-.27-.3-.56-.42-.86l.02-.01a.5.5 0 0 1 .26.03 3.84 3.84 0 0 0 .4.76 7.35 7.35 0 0 1 1.09-.32l-.13-.47h.25l.12.44h.02a7.94 7.94 0 0 1 1.08-.1v-.34h.25v.36a7.78 7.78 0 0 1 1.1.08l.12-.44h.25l-.13.48v.02a7.23 7.23 0 0 1 1.08.27c.15-.25.28-.5.38-.77h.27a5.25 5.25 0 0 1-.4.87 6.3 6.3 0 0 1 .78.34 4.76 4.76 0 0 0 0-6.23h-.03a6.94 6.94 0 0 1-.76.36c.27.45.47.94.6 1.47l-.22.1a5.22 5.22 0 0 0-.65-1.49l-.17.06.04-.18c0-.01 0-.02.02-.02l.65-.2c.03-.01.04-.03.05-.05l.02-.14.24-.12v-.01a4.82 4.82 0 0 0-1.05-.78l-.45.21v.01c.15.14.3.3.43.46h-.1c-.02 0-.03.01-.03.03l-.04.16a5.32 5.32 0 0 0-.55-.56 4.8 4.8 0 0 1-.62.17 8.04 8.04 0 0 1 .43 1c.22-.04.43-.1.65-.15l-.06.28-.5.1c-.01 0-.02.01-.01.02.1.36.2.72.25 1.08l-.05.26-.02.02-.13.07a7.69 7.69 0 0 0-.31-1.4 7.76 7.76 0 0 1-1.08.1v.92l-.25.14V6.74l-.46-.03H8.4V6.7a1.26 1.26 0 0 0-.1-.2v-.02c0-.01 0-.02.02-.02l.55.03.01-.02V5.44l-.5-.04-.06-.06a.5.5 0 0 0-.37-.15c-.03 0-.07 0-.1-.02a.2.2 0 0 1-.13-.15l.44.1c.01 0 .02 0 .03-.02a7.38 7.38 0 0 1 .46-.75c-.34.16-.66.35-.96.58l-.1-.24a5.39 5.39 0 0 1 .55-.36c-.24.04-.48.1-.7.19a.71.71 0 0 0-.36-.13 4.96 4.96 0 0 1 6.76 3.38 5.03 5.03 0 0 1-3.2 5.95 4.74 4.74 0 0 1-1.9.27 5.07 5.07 0 0 1-2.57-.88 5 5 0 0 1-1.77-2.2Zm5.44-6.6h-.01v.01a5.04 5.04 0 0 1 .85.57l.39-.17v-.01c-.4-.2-.81-.32-1.23-.4Zm-.46.07a8.86 8.86 0 0 1 .48.73l.5-.12v-.01a5.07 5.07 0 0 0-.98-.6Zm-.23.1h-.02v.7h.02l.42-.03v-.01l-.42-.66Zm-.26.02v-.02h-.02l-.42.65v.02h.01l.42.03.01-.01V4.5Zm.24.95v1.02h.01a7.68 7.68 0 0 0 1-.1 8 8 0 0 0-.44-.98l-.55.05-.02.01Zm-.24 7.07V11.5a7.68 7.68 0 0 0-1 .1 7.98 7.98 0 0 0 .44.98l.54-.04.02-.02Zm.25 0 .01.02.55.04h.01a7.97 7.97 0 0 0 .42-1 7.63 7.63 0 0 0-1-.08v1.02Zm-2.55-.6a5.1 5.1 0 0 0 .82.88 4.82 4.82 0 0 1 .64-.19 7.87 7.87 0 0 1-.43-.99 7.21 7.21 0 0 0-1.03.3Zm4.8-.03a7.05 7.05 0 0 0-1-.25 7.74 7.74 0 0 1-.4 1 4.63 4.63 0 0 1 .63.14 5.12 5.12 0 0 0 .78-.9Zm.99.42a6.05 6.05 0 0 0-.74-.32 5.33 5.33 0 0 1-.76.9l.46.22h.03a4.86 4.86 0 0 0 1-.8Zm-5.26.59a5.48 5.48 0 0 1-.78-.9 6.34 6.34 0 0 0-.68.34 4.82 4.82 0 0 0 1.02.77l.44-.21Zm1.75.59h.01l.01-.01v-.68l-.01-.01-.42.03v.02l.4.65Zm.27-.01v.01h.02l.41-.65v-.02l-.42-.03-.01.01v.68Zm-.47.15a9.26 9.26 0 0 1-.5-.77l-.53.13h-.01v.02a5.3 5.3 0 0 0 1.04.62Zm.71-.03a5.08 5.08 0 0 0 .98-.62l-.5-.12-.03.01c-.1.2-.26.44-.45.73Zm.46.06a4.86 4.86 0 0 0 1.23-.4l-.4-.18h-.02a5.03 5.03 0 0 1-.81.58Zm-1.72-.01h.01v-.02a4.79 4.79 0 0 1-.8-.54l-.38.16v.01c.38.19.77.31 1.17.39Z" fill="#54A23C"/><path d="M7.1 4c.13.02.25.06.34.14l.16.19.1.25.03.1c.02.08.06.13.13.16.03.02.07.02.1.02.15 0 .28.06.37.16l.06.07c.08.17.12.34.09.51a3.8 3.8 0 0 0-.06.46.48.48 0 0 1-.09.15.04.04 0 0 0-.03.03v.02a1.4 1.4 0 0 1 .11.22h.02c-.02 0-.02.01-.02.02.05.12.07.25.07.38 0 .15-.04.27-.13.35v.02a.32.32 0 0 0-.04.06v.06l-.04.15c-.06.13-.17.21-.34.25-.14.03-.28.05-.43.05l-.24-.06a.96.96 0 0 1-.32-.23h-.01l-.35 1.43v.01l.62-.6h.02l.24-.22.57.01c.03 0 .06 0 .09-.02l.77-.49.25-.15.06-.04h.02v.01l-.09.64h.02l1.1-.67h.01l-.11.66h.01l.37-.2.13-.07.02-.02.05-.27.26-1.3.06-.3.1-.49.03-.16c0-.02.01-.03.03-.03h.1l.85-.06h.02v.02l-.04.28-.02.15c0 .02-.02.04-.05.05l-.65.22a.03.03 0 0 0-.02.02l-.04.19-.32 1.48v.01l.31-.16h.01v.01l-.16.67v.02h.03l.95-.5.22-.1.24-.13h.02l1.07 1.02c.01 0 .02.02.01.04h-.26l-.01.01-.1.85a.74.74 0 0 1-.06.25.52.52 0 0 1-.25.24.58.58 0 0 1-.21.03h-.81c-.02 0-.03.02-.04.04l-.12.51.01.06c.01.02.03.02.06.02a5.63 5.63 0 0 1 .4 0H13c.03 0 .05.02.06.07l-.1.39-.74.01H9.66v-.01l.23-.9a.24.24 0 0 0-.02-.16.22.22 0 0 0-.24-.11.21.21 0 0 0-.13.1 132.91 132.91 0 0 1-.3 1.09h-.81v-.02a117.4 117.4 0 0 1 .23-.99.23.23 0 0 0-.06-.12.21.21 0 0 0-.21-.06.2.2 0 0 0-.1.07 870.96 870.96 0 0 1-.33 1.1l-.25.01h-.81l-.02-.01-.49-1.03h-.01c-.08.35-.17.7-.28 1.07a.46.46 0 0 0-.26-.03l-.02.01h-1.1a5.89 5.89 0 0 0-.3-.01H3.4c-.15 0-.24-.01-.27-.03a.26.26 0 0 1-.13-.19.6.6 0 0 1 .03-.24l.22-.88c.02-.1.08-.18.16-.25.09-.07.18-.1.27-.1a86.2 86.2 0 0 1 .9-.03l.14-.57v-.02H3.48l.1-.45.02-.02h1.66c.1 0 .18.04.23.11.05.08.06.17.03.27a359.14 359.14 0 0 1-.38 1.62.19.19 0 0 0 .14.15h.1a.17.17 0 0 0 .08-.08 4304.37 4304.37 0 0 0 .71-2.9c-.06.06-.13.12-.22.18a.82.82 0 0 1-.8.1.54.54 0 0 1-.3-.27c-.06-.1-.1-.18-.14-.22a.45.45 0 0 1-.08-.1.83.83 0 0 1-.03-.47c.03-.15.05-.29.05-.43 0-.05.04-.1.11-.16a.65.65 0 0 0 .19-.24L5 5.7a.33.33 0 0 1 .2-.08.5.5 0 0 1 .22.04h.01v-.01c-.03-.1-.06-.21-.06-.33-.02-.2.03-.34.14-.46.1-.1.24-.16.42-.18.12-.02.24 0 .35.05h.02c.05-.28.19-.48.42-.6.13-.08.25-.12.36-.12Zm4.37 1.36v.15h.37c.02 0 .04 0 .05-.02a.07.07 0 0 0 .03-.06l-.03-.06a.08.08 0 0 0-.06-.02h-.35v.01Zm1.05 2.9h-.04a.3.3 0 0 0-.18.18.28.28 0 0 0 0 .24l.03.07c.06.07.14.11.23.11h.04a.29.29 0 0 0 .2-.12.31.31 0 0 0 .05-.2.31.31 0 0 0-.09-.2.3.3 0 0 0-.22-.1l-.02.02Zm-.93.2h-.01l-.46.18-.02.01-.14.54.02.01h.4s.02 0 .02-.02a93.74 93.74 0 0 1 .18-.68v-.03Zm-2.98.32v-.02l-.02-.01h-.7l-.02.02-.08.3v.02h.74l.08-.31Zm1.12 0v-.02l-.01-.01h-.7L9 8.76l-.08.31v.02h.73l.08-.32Zm.3.3.01.01h.74l.08-.31v-.02l-.02-.01h-.7c-.01 0-.02 0-.02.02l-.08.3Zm-3.08.54a.06.06 0 0 0 0 .07l.24.54c0 .03.03.04.05.04.03 0 .05-.02.05-.05l.3-1.12c0-.03 0-.05-.03-.07-.02-.02-.05-.01-.07.01l-.54.58Zm3.96-.23-.25.94.01.01h.44l.23-.93v-.02h-.43Zm-6.9.35h-.02l-.13.46.01.02h.44l.02-.01.13-.45-.01-.02H4Z" fill="#2B4F9F"/><path d="M6.45 5.37c.03.01.05 0 .06-.04v-.2c.01-.12.06-.23.15-.32a.7.7 0 0 1 .3-.19c.1-.03.2-.02.29.03.09.05.15.12.2.22l.07.2c.07.2.2.32.4.33l.1.02c.12.02.2.09.23.2.03.1.03.2 0 .33l-.02.24c0 .04-.02.07-.05.1a.8.8 0 0 1-.13.12.05.05 0 0 0-.02.03v.04c.1.12.16.25.2.39.03.05.04.12.04.19 0 .08-.02.14-.06.18a.38.38 0 0 0-.09.15l-.04.17-.01.03a.28.28 0 0 1-.16.1c-.17.05-.32.06-.44.04a.64.64 0 0 1-.39-.2 22.8 22.8 0 0 1-.13-.1l-.08-.01a44.33 44.33 0 0 1-.66-.15l-.15.08c-.16.14-.31.23-.45.27a.58.58 0 0 1-.26 0 .6.6 0 0 1-.25-.1.63.63 0 0 1-.1-.15.95.95 0 0 0-.15-.22l-.02-.03a.41.41 0 0 1-.02-.17l.03-.18a1.93 1.93 0 0 0 .03-.3c0-.02 0-.03.02-.04.1-.07.18-.17.24-.28.02-.03.05-.04.11-.04a25.55 25.55 0 0 1 .49.15c.03.01.05 0 .07 0 .02-.02.02-.04.01-.07l-.08-.17c-.05-.11-.09-.2-.1-.26a.6.6 0 0 1-.03-.27c.02-.14.12-.23.31-.26.13-.02.24 0 .34.05l.2.1ZM7.56 7.8l-.04.34-.24.22h-.02l.06-.62.24.06ZM12.52 8.37l.04.56a.28.28 0 0 1-.23-.1.22.22 0 0 1-.03-.07v-.22a.3.3 0 0 1 .18-.17h.04ZM12.49 9.87c-.03.2-.08.4-.13.6a2.3 2.3 0 0 1-.25-.01v-.02c.05-.18.1-.37.13-.57h.25Z" fill="#54A23C"/></svg>