<!-- by TradingView --><svg width="56" height="56" viewBox="0 0 56 56" xmlns="http://www.w3.org/2000/svg"><path fill="#F0F3FA" d="M0 0h56v56H0z"/><path fill-rule="evenodd" d="M43 18.25V42H23.99c.02.22.03.14.07.38.03.2 0 .37-.07.52a.14.14 0 0 1-.09.07.76.76 0 0 1-.43 0c-.98-.29-1.9-.36-2.67-.97H13v-8.3c.27.22 1.13.8 1.5 1.14v5.66h5c-.2-.27-.38-.73-.53-1.04-.19-1.04-.18-1.38-.31-1.67-.13-.27-.37-.5-1.03-1.24l-.16-.6-.1-.34c0-.03.02-.06.05-.06 1.04.02 2.13-.29 2.63-1.24.3-.57.35-1.14.16-1.73a.06.06 0 0 1 .04-.08c.5-.48.86-.76 1.13-.97.43-.34.66-.52.95-1.1.25-.48.7-.76 1.27-.74 1.4.06 3-1.36 3.9-2.31.77-.84 1.1-2.09 1.79-3 .1-.15.17-.28.19-.4.02-.16-.04-.32-.18-.47a8.94 8.94 0 0 1-1.94-2.9 2.8 2.8 0 0 1-.2-1.03c0-.14.15-.25.29-.21.24.06.48.17.7.32l.95.68c.02.02.04.02.05 0l-.09-.17a35.2 35.2 0 0 1-.88-1.74.86.86 0 0 1 .03-.66c.22-.46.92-.38 1.23-.09.25.23.47.47.7.72.39.43.79.86 1.3 1.2.86-.02 1.2.17 1.44.31.42.24.55.32 2.73-1.18.29-.2.7-.24 1.18-.28.48-.05 1.04-.1 1.64-.31.4-.15 3.06-.5 3.06-.91l.01-2.76H25c-.03 0-.95-1.5-.94-1.5H43v5.25ZM28.12 40.5c-.68 0 .74-.87.97-1.1.21.02 1.18-.15 4.73-1.32a3.04 3.04 0 0 0 1.5-.94c.5-.64 1.22-.85 1.96-1.05l.32-.1c.74-.21 1.08-.78 1.42-1.36.1-.17.27-.63.54-.63.33 0 1.94 1.14 1.94 1.47v5.03H28.12Z" fill="#E5793B"/><path d="M21.43 40.11c-.44.3-1.06.03-1.55.08h-.02l-.02-.02a.03.03 0 0 1 0-.04c.27-.31.6-.55.97-.7a.9.9 0 0 0 .58-.66l.02-.03a.06.06 0 0 1 .06-.02c.02 0 .02.02.03.02.32.43.42 1.04-.07 1.37ZM14.68 27.73a22.15 22.15 0 0 0 5.43 4.68c.04.03.05.03.15.16a2.1 2.1 0 0 1-.2 1.74c-.5.95-1.6 1.26-2.64 1.24l-.13-.03c-.21-.05-.56-.13-.98-.85a12.8 12.8 0 0 1-3-3.78 12.6 12.6 0 0 1-1.14-7.73c.02-.1.06-.16.12-.16.03 0 .07.02.08.06.38 1.69 1.2 3.33 2.31 4.67Zm13.16 5.38c-.5.32-1.03.37-1.6.15-.06-.47.06-1.5 1.54-1.27.63.2.51.83.06 1.12Zm-15.6-9.38c-.27 1.85-.12 3.63.46 5.35a12.78 12.78 0 0 0 3.35 5.21c.23.23.27.2.1-.07l-.8-1.4c-.25-.4-.75-1.3-.6-1.67 0-.02 0-.03.02-.05a.14.14 0 0 1 .1-.04l.06.01c.1.04.18.1.25.19.84.94 1.73 1.71 2.68 2.3a3 3 0 0 0 1.46.5c.35.02.85-.18.86-.59 0-.35-.05-.67-.16-.95a.13.13 0 0 0-.06-.07c-1.56-.97-3-2.1-4.3-3.41a14.5 14.5 0 0 1-2.43-3.15 9.27 9.27 0 0 1-.88-2.17c-.05-.16-.08-.16-.1 0Z" fill="#151714"/><path d="m19.78 34.1.17-.07c.07-.02.1 0 .06.07a2 2 0 0 1-1.3 1.17 4.82 4.82 0 0 1-1.37.16.15.15 0 0 1-.05-.05c-.15-.2-.33-.39-.52-.55a2.03 2.03 0 0 1-.44-.54c-.43-.74-.83-1.47-1.21-2.18-.14-.25-.22-.5-.25-.74-.02-.18.04-.2.16-.07.79.86 3.42 3.44 4.75 2.8Z" fill="#E5793B"/><path d="M26.8 33.1c.28-.12.74-.55.25-.76-.18-.08-.18-.16.01-.22.25-.09.52-.08.79.03.06.02.12.07.15.12.07.1.1.2.07.29-.1.5-.75.7-1.23.68-.22 0-.23-.05-.03-.14Z" fill="#fff"/></svg>