<!-- by TradingView --><svg width="56" height="56" viewBox="0 0 56 56" xmlns="http://www.w3.org/2000/svg"><path fill="#F0F3FA" d="M0 0h56v56H0z"/><path d="M15.55 30.1a.05.05 0 0 0 0-.03l-.02-.02h-.01a2.22 2.22 0 0 0-.44-.05h-3.72a.6.6 0 0 1-.26-.05.11.11 0 0 1-.05-.16l5.28-7.66a.1.1 0 0 0-.02-.13h-1.09c-.27 0-.37.1-.59.31-2.6 2.4-5.56 4.66-8.16 7.05-.14.12-.26.28-.38.4h-.03a.05.05 0 0 1-.05-.01v-.03L6 21.26c0-.37.04-.63.08-.77a2 2 0 0 1 1.09-1.32c.43-.21.9-.17 1.5-.17h39.55c.08 0 .23.03.43.08.59.13 1.07.61 1.25 1.17.06.2.1.62.1 1.24v5.44a.08.08 0 0 1-.02.06l-.03.01H46.8c-.2 0-.55-.02-.68.1l-2.43 4.63a.71.71 0 0 1-.26.27c-.45.3-.93-.17-.72-.65l.6-1.2 1.35-2.7a.85.85 0 0 0 .08-.28c.01-.1-.03-.16-.12-.17h-1.5a.32.32 0 0 0-.29.19l-.26.5c-.61 1.2-1.22 2.31-2.03 3.87-.18.35-.55.65-.93.4-.2-.13-.16-.35-.06-.56 1.16-2.32 1.74-3.46 1.99-3.94a1.4 1.4 0 0 0 .13-.41v-.02l-.02-.01-.02-.02H40c-.06 0-.11.06-.17.16l-2.29 4.48c-.2.4-.39 1.25.28 1.36h2.33c.4-.04.57-.21.93-.44a.19.19 0 0 1 .24.03c.1.1.26.4.4.41h2.33c.4 0 .77-.23 1.09-.5.14-.14.31-.38.5-.73.86-1.65 1.4-2.84 1.84-3.68a.15.15 0 0 1 .14-.1h2.3a.07.07 0 0 1 .05.03l.02.02.01.03v7.14c0 .82-.57 1.5-1.34 1.71-.28.08-.55.08-.85.08H8.07a1.9 1.9 0 0 1-1.97-1.43c-.06-.23-.1-.55-.1-.98V33h7.69c.21 0 .36-.05.45-.22.49-.93.88-1.62 1.37-2.56a.47.47 0 0 0 .04-.12Z" fill="#30643A"/><path d="M29.54 32.96a9.27 9.27 0 0 1-1.8-.02.06.06 0 0 1 0-.05c.07-.23.16-.45.26-.66l3.6-7.5c.16-.34.3-.7.65-.72a14.69 14.69 0 0 1 1.5.03l.01.04c.02.26-.13.54-.27.81-.46.93-1.6 3.32-3.42 7.17l-.45.85a.09.09 0 0 1-.08.05ZM17.5 31.97c.36.12.83.1 1.04-.28 1.21-2.15 1.93-3.42 2.35-4.25.13-.25.36-.4.7-.42.27-.02 1.41-.1 1.35.28a.7.7 0 0 1-.07.22c-.84 1.53-1.65 2.98-2.42 4.34-.19.32-.36.58-.51.77-.26.31-1 .36-1.38.37h-3.1c-.39-.04-.51-.67-.37-.95a782.25 782.25 0 0 1 2.63-4.93.12.12 0 0 1 .06-.04c.15-.04.27-.06.34-.06.68-.01 1.13-.07 1.53.07l.03.03.01.04a1.1 1.1 0 0 1-.14.33c-.17.28-.3.5-.4.7a111.5 111.5 0 0 1-1.7 3.06c-.1.18-.25.63.04.72Z" fill="#FFFFFE"/><path fill-rule="evenodd" d="M33.15 28a243.67 243.67 0 0 0-2.08 4.17c-.08.2-.05.4.08.6.1.15.22.23.36.23h3.23c.25 0 .43-.02.53-.06.32-.13.6-.28.83-.6.26-.38.45-.78.67-1.23l.2-.43a86.84 86.84 0 0 1 1.27-2.48c.12-.22.18-.39.17-.5-.03-.43-.25-.65-.65-.67-.69-.04-1.69-.04-3 0-.75.01-1.29.34-1.61.97Zm1.67.38c-.11.2-.34.65-.67 1.33l-.5.99-.36.73c-.15.29-.22.55.1.75.09.06.22.08.39.06.44-.05.76-.25.96-.6l.67-1.33.5-.99.36-.73c.15-.29.22-.55-.1-.74a.61.61 0 0 0-.4-.07c-.43.05-.75.25-.95.6ZM27.9 26.49c-.12.27-.3.52-.6.51h-1.82c-.3 0-.53.03-.66.07-.56.15-.74.51-1.01 1.03l-.1.2a287 287 0 0 0-2 3.96.38.38 0 0 0-.04.27c.05.2.14.47.42.47 1.3-.02 2.7-.02 4.16-.01a.34.34 0 0 0 .3-.18l2.18-4.21c1.02-2 1.89-3.6 2.03-3.87.06-.11.1-.24.15-.4v-.04a.06.06 0 0 0-.02-.03c-.17-.12-.35-.2-.54-.21-.4-.05-1.15-.08-1.35.28-.33.6-.88 1.64-1.1 2.16Zm-1.66 1.25-.52.22a.52.52 0 0 0-.26.25l-1.66 3.33a.53.53 0 0 0 .09.59.52.52 0 0 0 .58.13l.51-.22a.52.52 0 0 0 .27-.25l1.65-3.33a.53.53 0 0 0-.35-.74.52.52 0 0 0-.31.02Z" fill="#FFFFFE"/></svg>