<!-- by TradingView --><svg width="18" height="18" viewBox="0 0 18 18" xmlns="http://www.w3.org/2000/svg"><path fill="#F0F3FA" d="M0 0h18v18H0z"/><path d="M11.25 6a.75.75 0 1 0 0-1.5.75.75 0 0 0 0 1.5Z" fill="url(#a)"/><path d="M3.01 6.88v-.01c.73-.2 1.46-.3 2.2-.29.5 0 .93.08 1.31.23.45.17.74.46.89.87.06.2.1.41.11.64.02.33 0 .68-.07 1.03a10.73 10.73 0 0 1-.9 2.71c.13-.77.14-1.54.02-2.31a4.82 4.82 0 0 0-.28-1.02c-.2-.51-.54-.91-1-1.2-.33-.21-.7-.37-1.1-.48-.38-.1-.77-.16-1.18-.17Z" fill="url(#b)"/><path d="M8.26 4.01c0-.01 0-.01 0 0l.04.32c.04.44.13.85.28 1.24.15.42.36.79.62 1.1.41.49.98.8 1.71.94l-.12.14.06-.07.06-.07A7.05 7.05 0 0 0 14 7.29a8.26 8.26 0 0 1-2.5 1.38c-.53.16-1.03.21-1.49.13h-.05a1.8 1.8 0 0 1-1.2-.87 3.29 3.29 0 0 1-.36-.84c-.1-.4-.18-.83-.2-1.26a9.2 9.2 0 0 1 .07-1.82Zm2.04 4.33-.05.08.05-.08.06-.07-.06.07Z" fill="url(#c)"/><path d="M4.75 10.5a.75.75 0 1 0 0-1.5.75.75 0 0 0 0 1.5Z" fill="url(#d)"/><path d="M7.21 12.76c.38-.7.84-1.34 1.37-1.92.45-.5.9-.86 1.34-1.1.6-.3 1.16-.34 1.67-.1.42.2.82.55 1.2 1.06.25.33.48.7.7 1.1a9.34 9.34 0 0 1 .5 1.23 8.14 8.14 0 0 0-1.84-1.46c-.16-.1-.36-.19-.58-.27a2.3 2.3 0 0 0-1.55-.06c-.36.1-.73.25-1.13.45-.59.3-1.14.66-1.68 1.07Z" fill="url(#e)"/><path d="M10.75 14a.75.75 0 1 0 0-1.5.75.75 0 0 0 0 1.5Z" fill="url(#f)"/><defs><linearGradient id="a" x1="10.5" y1="4.75" x2="11.56" y2="5.75" gradientUnits="userSpaceOnUse"><stop stop-color="#D8DADD"/><stop offset="1" stop-color="#A6AAAD"/></linearGradient><linearGradient id="b" x1="3.39" y1="6.96" x2="6.59" y2="11.71" gradientUnits="userSpaceOnUse"><stop stop-color="#93CDEA"/><stop offset="1" stop-color="#0C78A3"/></linearGradient><linearGradient id="c" x1="8.18" y1="4.4" x2="11.93" y2="8.61" gradientUnits="userSpaceOnUse"><stop stop-color="#C7CDD2"/><stop offset="1" stop-color="#A4ACB3"/></linearGradient><linearGradient id="d" x1="4" y1="9.75" x2="5.5" y2="9.75" gradientUnits="userSpaceOnUse"><stop stop-color="#51BBE3"/><stop offset="1" stop-color="#017AA8"/></linearGradient><linearGradient id="e" x1="7.75" y1="12.74" x2="13.24" y2="12.16" gradientUnits="userSpaceOnUse"><stop offset=".29" stop-color="#314050"/><stop offset="1" stop-color="#B3B2BA"/></linearGradient><linearGradient id="f" x1="10" y1="13.12" x2="11.34" y2="12.93" gradientUnits="userSpaceOnUse"><stop stop-color="#6A717E"/><stop offset="1" stop-color="#253545"/></linearGradient></defs></svg>