<!-- by TradingView --><svg width="56" height="56" viewBox="0 0 56 56" xmlns="http://www.w3.org/2000/svg"><path fill="#F0F3FA" d="M0 0h56v56H0z"/><path d="M45.65 29.98a.2.2 0 0 1 .18-.02c.06.03.1.07.12.14.09.3.27.54.54.73.94.65 1.96.77 3.06.34.25-.1.45-.25.6-.46.12-.2.19-.41.19-.65 0-.24-.06-.46-.2-.66a1.27 1.27 0 0 0-.6-.48 6.73 6.73 0 0 0-1.77-.38c-.44-.05-.95-.2-1.51-.45-.92-.41-1.4-1.16-1.42-2.26-.02-.76.23-1.38.74-1.88a3.32 3.32 0 0 1 1.8-.86c.9-.15 1.7-.1 2.44.13.84.28 1.46.8 1.87 1.56.02.04.01.07-.03.1l-1.12.69c-.06.04-.11.03-.16-.03a2.72 2.72 0 0 0-2.93-.87c-.28.08-.5.2-.68.4-.2.2-.29.46-.28.76 0 .37.2.65.61.83.25.11.72.23 1.42.35 1.05.18 1.79.4 2.23.65a2.45 2.45 0 0 1 1.24 2.05c.06.81-.1 1.49-.52 2.03-.37.47-.9.82-1.58 1.03-.61.2-1.28.26-2 .22a5.23 5.23 0 0 1-1.82-.43c-.6-.27-1.1-.8-1.52-1.59-.09-.16-.06-.28.1-.37l1-.62ZM23.88 24.42v.06l-1.02 1.1c-.03.03-.06.04-.08 0-.98-.88-2.1-1.09-3.35-.61-.79.3-1.33.93-1.62 1.89a3.8 3.8 0 0 0 .11 2.64 2.84 2.84 0 0 0 2.21 1.75 3.02 3.02 0 0 0 2.69-.89c.04-.04.07-.04.11 0l1.04 1.14c.04.04.04.08 0 .11a4.8 4.8 0 0 1-4.35 1.29 4.36 4.36 0 0 1-3.37-3.16c-.24-.85-.3-1.7-.2-2.52.1-.8.35-1.51.75-2.15A4.35 4.35 0 0 1 20.64 23c1.25 0 2.33.47 3.24 1.42ZM14.54 23h-1.46c-.05 0-.08.04-.08.09v9.82c0 .05.03.09.08.09h1.46c.04 0 .07-.04.07-.09V23.1c0-.05-.03-.09-.07-.09ZM7.71 23c1.19 0 2.2.48 3.04 1.41A4.87 4.87 0 0 1 12 27.79v.45c0 1.31-.42 2.44-1.26 3.37A3.94 3.94 0 0 1 7.7 33H4.08c-.05 0-.08-.04-.08-.1l.02-9.81c0-.06.02-.09.07-.09h3.62Zm-1.94 1.8c-.05 0-.07.02-.07.06l-.02 6.26c0 .04.02.06.07.06l1.87.01c.74 0 1.38-.29 1.9-.87.54-.58.8-1.29.8-2.12v-.39c0-.83-.25-1.53-.78-2.12a2.48 2.48 0 0 0-1.9-.89H5.77ZM36.1 23.02c2.9-.03 4.58-.02 5.04.04 1.38.17 2.22.87 2.52 2.1.12.54.1 1.04-.07 1.5-.18.5-.5.86-.97 1.1-.02 0-.03.02-.03.05 0 .03.01.05.04.06.48.2.84.55 1.08 1.04.24.48.33 1 .27 1.56-.09.95-.5 1.63-1.25 2.03-.56.3-1.35.47-2.36.48L36.1 33c-.06 0-.09-.03-.09-.1v-9.78c0-.07.03-.1.1-.1Zm1.76 5.64c-.05 0-.08.02-.08.08l-.03 2.4c0 .05.02.08.07.08l2.64.04c.48 0 .9-.11 1.25-.35s.53-.53.53-.87v-.07c0-.35-.16-.64-.5-.9a2.12 2.12 0 0 0-1.25-.37l-2.63-.04Zm0-3.95c-.05 0-.08.03-.08.1l-.02 2.11c0 .06.02.1.08.1l2.73.02c.38 0 .7-.1.97-.31.27-.22.4-.48.41-.78v-.08c0-.3-.13-.57-.39-.8a1.49 1.49 0 0 0-.96-.33l-2.74-.03Z" fill="#2B2A28"/><path d="m31.72 25.8-.58-.32a.11.11 0 0 0-.12 0l-1.04.7c-.24-.2-.43-.43-.58-.68a.33.33 0 0 1-.02-.32l.31-.72a.19.19 0 0 1 .07-.08l.17-.1c.07-.05.09-.12.05-.2l-.16-.3c-.04-.07-.09-.08-.15-.03-.14.13-.23.13-.27.02.12-.28.26-.5.42-.68.06-.07.14-.1.23-.09.09.02.16.06.2.15l1.47 2.64Z" fill="#269654"/><path d="M29.98 26.18a7.3 7.3 0 0 1-.92 2.12c-.05.07-.03.11.04.13.25.08.46.21.63.4l-1.68 1.41c-.07-.43-.25-.72-.55-.87a.13.13 0 0 0-.06-.01l-1.15-.03 3.11-5.56c.04.11.13.1.27-.02.06-.05.11-.04.15.04l.16.29c.04.08.02.15-.05.2l-.17.1a.19.19 0 0 0-.07.08l-.31.72c-.05.11-.04.22.02.32.15.25.34.48.58.68Z" fill="#6DBBAB"/><path d="m31.72 25.8.76 1.34a66.3 66.3 0 0 0-.85.9c-.2.24-.38.4-.56.46l-.81.29c-.18-.14-.36-.13-.53.04-.17-.19-.38-.32-.63-.4-.07-.02-.09-.06-.04-.13.4-.64.71-1.35.92-2.12l1.04-.7a.11.11 0 0 1 .12 0l.58.31Z" fill="#A5BF54"/><path d="M32.48 27.14c.82 1.49 1.64 2.94 2.46 4.38.17.29.34.61.52.97.05.12.05.23 0 .34a.29.29 0 0 1-.26.17c-.12 0-.25-.05-.38-.17l-4.56-4.04.8-.3c.19-.06.37-.2.57-.45.07-.1.13-.16.17-.2l.68-.7Z" fill="#D34D2B"/><path d="m28.05 30.24-.54.43a1.35 1.35 0 0 0-.55-.3.21.21 0 0 0-.2.04c-.44.36-.84.44-1.22.25l.75-1.33 1.15.03.06.01c.3.15.48.44.55.87Z" fill="#269654"/><path d="M27.51 30.67c-.78.8-1.63 1.48-2.56 2.07a.6.6 0 0 1-.24.1c-.08 0-.14-.03-.18-.1a.22.22 0 0 1 0-.23l1-1.85c.39.2.8.1 1.23-.25a.21.21 0 0 1 .2-.05c.2.06.38.16.55.31Z" fill="#6DBBAB"/></svg>