<!-- by TradingView --><svg width="56" height="56" viewBox="0 0 56 56" xmlns="http://www.w3.org/2000/svg"><path fill="#F0F3FA" d="M0 0h56v56H0z"/><path d="m29.9 26 4.45 3.67-1.1 1.25-4.44-3.65L29.9 26Z" fill="#DD2D27"/><path d="m28.52 27.58 4.45 3.66-1.1 1.26-4.45-3.66 1.1-1.26ZM10.43 28l-.45-1.1c-.29-.62-.6-1.6-.6-1.6s-.28.98-.57 1.6L8.35 28h2.08Zm-1.1-6h.17l4.5 9h-2.13l-.72-1.57H7.67L6.96 31H5l4.33-9ZM15.11 22h6.37v1.63h-4.4v2.08h3.87v1.58H17.1v2.08h4.58V31H15.1v-9Z"/><path d="M30.61 27.92c.26-.53.33-1.18.2-1.9a2.94 2.94 0 0 0-3.48-2.36c-1.73.3-2.65 1.72-2.32 3.32a2.93 2.93 0 0 0 3.47 2.36c.35-.06.66-.15.93-.29a4.29 4.29 0 0 0 1.2-1.13Zm.29 2.18c-.6.4-1.3.69-2.1.82-2.73.45-5.28-1.05-5.8-3.6-.5-2.54 1.28-4.78 4-5.24 2.73-.45 5.28 1.05 5.8 3.6a4.13 4.13 0 0 1-.7 3.3c-.4.66-1.2 1.12-1.2 1.12ZM35 27.67V22h2.03v5.57c0 1.3.63 1.78 1.98 1.78 1.36 0 1.96-.49 1.96-1.78V22H43v5.67c0 2.24-1.73 3.33-3.99 3.33-2.25 0-4.01-1.09-4.01-3.33ZM44 29.16l1.64-.85c.43.62 1 1.1 1.98 1.1.83 0 1.36-.38 1.36-.9 0-.62-.54-.84-1.46-1.2l-.5-.2c-1.46-.55-2.4-1.25-2.4-2.72 0-1.36 1.14-2.39 2.93-2.39 1.28 0 2.2.4 2.86 1.45l-1.57.9c-.34-.55-.71-.78-1.29-.78-.57 0-.96.34-.96.78 0 .54.37.76 1.24 1.1l.5.2c1.7.65 2.67 1.32 2.67 2.83 0 1.63-1.42 2.52-3.33 2.52-1.9 0-3.08-.8-3.67-1.84Z"/></svg>