<!-- by TradingView --><svg width="18" height="18" viewBox="0 0 18 18" xmlns="http://www.w3.org/2000/svg"><path fill="#181B1E" d="M0 0h18v18H0z"/><path d="M4.18 6.67c-.34.34-.78.91-.78 1.45 0 .64.52 1.23.78 1.45.4-.39 1.23-1.17 1.35-1.2.12-.03.73-.08 1.01-.1l.64.2 2.22-.28 1.23-.15 1.03 1.8 1.89-1.65 1.04.43c.33.45.48.93.38 1.39-.33 1.55-3.27 2.35-6.57 1.78-3.3-.56-5.7-2.27-5.37-3.82.11-.53.52-.97 1.15-1.3Z" fill="#183885"/><path d="M4.32 6.6c1.23-.58 3.18-.78 5.28-.42 3.3.56 5.7 2.28 5.37 3.83-.08.39-.33.73-.71 1.02.23-.38.46-.9.35-1.27a5.4 5.4 0 0 0-1.16-1.62c-.59.53-1.76 1.59-1.77 1.55l-.85-1.66h-3l-.44.46a9.2 9.2 0 0 0-1.84-.17c-.38 0-.78.87-1.27 1.3-.23-.2-.88-.99-.88-1.66 0-.4.43-.91.92-1.36Z" fill="#E77818"/><path d="M14.42 10.3c.18-.62-.17-1.36-1.03-2.07a9.21 9.21 0 0 0-3.65-1.7 9.8 9.8 0 0 0-4.11-.18c-1.14.23-1.86.72-2.05 1.34-.18.63.17 1.37 1.03 2.08.84.7 2.12 1.33 3.65 1.7l-.06.2-.07-.02C5.05 10.9 2.92 9.1 3.36 7.64 3.8 6.16 6.68 5.58 9.8 6.33c3.11.75 5.28 2.56 4.84 4.03-.44 1.48-3.32 2.06-6.44 1.31l.06-.2a9.8 9.8 0 0 0 4.11.18c1.14-.23 1.86-.72 2.05-1.34Z" fill="#fff"/><path d="M10.33 8.5h-.98L8.88 10H7.75l.48-1.5H7.2l.15-.5h3.15l-.17.5ZM11.72 9.4l.97-1.4h.48l.33.29L12.06 10h-1.03l-.53-2h1.05l.17 1.4Z" fill="#fff"/><path d="M6.17 8c1.32 0 1.34.64 1.33.75h-.98c0-.08-.12-.25-.46-.25-.42 0-.8.26-.8.67 0 .21.16.33.5.33.34 0 .54-.13.62-.25h-.44L6.08 9H7.5l-.32 1H6.5l.01-.23c-.16.08-.55.23-1.05.23-.67 0-1.4-.47-1.25-.9.14-.44.64-1.1 1.95-1.1Z" fill="#fff"/></svg>