<!-- by TradingView --><svg width="18" height="18" viewBox="0 0 18 18" xmlns="http://www.w3.org/2000/svg"><path fill="#F0F3FA" d="M0 0h18v18H0z"/><path d="M14 8h-1.48L9 4.6 5.48 8H4l5-5 5 5Z" fill="url(#a)"/><path d="M8.65 11.67C8.65 12.79 7.8 13 7.1 13c-.57 0-.9-.1-.98-.14v-.6c.15.05.54.17.9.17.67 0 .97-.37.98-.55v-.47c-.22.36-.57.59-.96.59-.67 0-1.22-.5-1.22-1.5S6.37 9 7.04 9c.39 0 .74.23.96.58V9h.65v2.67ZM4.25 9c.97 0 1.22.56 1.22.84V12h-.7v-.38c-.2.17-.53.38-.83.38-.48 0-.94-.26-.94-.85 0-.6.44-.88.82-.94.28-.05.7-.08.94-.09-.02-.33-.17-.58-.63-.58-.4 0-.76.14-.89.22v-.6c.14-.06.55-.16 1-.16Zm5.46 2.7H9V9.03h.7v2.67Zm-4.95-1.18c-.51-.02-1.08.16-1.08.56 0 .34.3.41.46.41.33 0 .53-.16.62-.3v-.67Zm2.53-.94c-.4 0-.72.31-.72.92 0 .6.32.92.72.92.37 0 .67-.36.71-.82v-.2c-.04-.46-.34-.82-.71-.82Z" fill="#2D2B2C"/><path d="M9 12h6v.5H9V12Z" fill="url(#b)"/><path fill="url(#c)" d="M8 7h.83v.64H8z"/><path fill="url(#d)" d="M9.17 7H10v.64h-.83z"/><path fill="url(#e)" d="M9.17 8H10v.64h-.83z"/><path fill="url(#f)" d="M8 8h.83v.64H8z"/><path fill="#2D2B2C" fill-opacity=".5" d="M10 10h5v2h-5z"/><defs><linearGradient id="a" x1="9" y1="3" x2="9" y2="8" gradientUnits="userSpaceOnUse"><stop stop-color="#818181"/><stop offset="1" stop-color="#9D9D9D"/></linearGradient><linearGradient id="b" x1="9" y1="12.25" x2="15.35" y2="12.25" gradientUnits="userSpaceOnUse"><stop stop-color="#E23527"/><stop offset=".55" stop-color="#A22425"/><stop offset="1" stop-color="#C03E31"/></linearGradient><linearGradient id="c" x1="8" y1="7.38" x2="8.78" y2="7.38" gradientUnits="userSpaceOnUse"><stop stop-color="#717171"/><stop offset="1" stop-color="#999"/></linearGradient><linearGradient id="d" x1="9.17" y1="7.38" x2="9.95" y2="7.38" gradientUnits="userSpaceOnUse"><stop stop-color="#717171"/><stop offset="1" stop-color="#999"/></linearGradient><linearGradient id="e" x1="9.2" y1="8.24" x2="10" y2="8.24" gradientUnits="userSpaceOnUse"><stop offset=".52" stop-color="#AF2E33"/><stop offset="1" stop-color="#8D262A"/></linearGradient><linearGradient id="f" x1="8" y1="8.38" x2="8.78" y2="8.38" gradientUnits="userSpaceOnUse"><stop stop-color="#717171"/><stop offset="1" stop-color="#999"/></linearGradient></defs></svg>