<!-- by TradingView --><svg width="56" height="56" viewBox="0 0 56 56" xmlns="http://www.w3.org/2000/svg"><path fill="#F0F3FA" d="M0 0h56v56H0z"/><path d="M31.71 32.22c-.1.84-.26 1.76-.51 2.77-.2.83-.5 1.65-.87 2.46a8.48 8.48 0 0 1-2.55 3.18c-1.29 1-2.72 1.68-4.31 2.04-.4.1-.87.16-1.41.2l-.94.1a5.9 5.9 0 0 1-.95.02 45.1 45.1 0 0 1-1.71-.12c-.33-.03-.37-.15-.1-.34a4.79 4.79 0 0 1 .61-.13c.25-.06.48-.1.68-.1.25-.02.47-.06.68-.13a14 14 0 0 1 1.64-.37.3.3 0 0 0 .14-.07c.17-.15.17-.32-.02-.5l-6.08-6.07a1.15 1.15 0 0 1-.33-1.16l.06-.23c.11-.44.33-.5.67-.19a308.87 308.87 0 0 1 7.38 7.35.1.1 0 0 0 .14.03c1.14-.55 2.17-1.31 3.07-2.28.2-.21.23-.39.1-.52-.77-.85-3.06-3.12-6.85-6.83-.19-.18-.3-.39-.36-.63s-.05-.49.02-.72l.06-.19c.15-.46.39-.52.74-.19 1.15 1.13 3.44 3.42 6.84 6.88.14.14.27.26.4.36.1.07.16.05.2-.05.35-.97.62-1.89.8-2.74.13-.68.15-1.37.04-2.07a.83.83 0 0 0-.25-.49c-1.06-1-2-1.96-2.85-2.86-.25-.27-.32-.55-.22-.86l.14-.44c.13-.38.32-.42.57-.13.38.43.78.83 1.2 1.2.23.2.54.52.93.94l.46.5.11.06c.06 0 .08-.01.08-.07v-5.02c0-2.17.08-3.78.22-4.83.19-1.36.59-2.65 1.2-3.88a7.37 7.37 0 0 1 2.12-2.7 7.5 7.5 0 0 1 3.36-1.4c.05 0 .1 0 .13.04.04.04.06.08.06.13-.01.14-.1.25-.25.33-.57.29-.94.49-1.12.61-.27.2-.58.47-.94.83l-.92.94c-.14.14-.14.29 0 .44.5.55 1.27 1.35 2.32 2.39a91.4 91.4 0 0 1 1.72 1.74c.24.25.31.53.23.86l-.14.54c-.08.33-.24.37-.47.14l-4.15-4.14c-.1-.09-.2-.12-.3-.09-.06.02-.1.09-.13.22-.08.33-.2.88-.34 1.64-.1.53-.16 1.09-.17 1.67-.03 1.6-.04 2.6 0 3l.12 1.78c0 .18.03.5.06.95a76.58 76.58 0 0 1 .11 4.75c0 .31-.02.56-.05.73-.06.27-.1.5-.12.72Z" fill="#DB6F22"/><path d="m40.91 20.9-5.4-5.39c-.18-.17-.15-.28.1-.3.3-.04.58-.1.86-.16a.7.7 0 0 1 .7.2l1.12 1.08a70.34 70.34 0 0 1 3.43 3.5c.08.09.16.09.24 0 .1-.11.22-.3.37-.56.17-.32.32-.54.46-.68a.12.12 0 0 1 .13-.02c.05.02.08.05.08.1 0 .3-.03.61-.12.93a6.92 6.92 0 0 1-3.19 4.26c-.75.46-1.6.82-2.53 1.08-.73.21-1.66.4-2.8.56-.47.06-.93.07-1.4.01-.2-.02-.31-.14-.33-.34a7.79 7.79 0 0 1 .04-1.79c.01-.06.05-.1.12-.1.92 0 1.57.01 1.95.04.4.03.44-.1.16-.37l-1.55-1.46c-.25-.24-.21-.4.11-.5l.57-.18c.34-.1.62-.05.85.19l1.9 1.93c.05.06.12.08.2.07a7.37 7.37 0 0 0 3.92-1.83c.1-.08.1-.17.01-.27ZM14.83 29.72c-.08-.06-.14-.04-.19.04-.79 1.4-1.37 2.9-1.75 4.5-.22.91-.4 1.75-.52 2.5-.01.08-.06.1-.14.06-.06-.03-.1-.08-.1-.16-.22-1.82-.15-3.58.2-5.3.08-.36.25-.9.51-1.63a9.28 9.28 0 0 1 2.2-3.5c.95-.93 2.23-1.69 3.83-2.28a19.46 19.46 0 0 1 6.3-.94h3.07a.3.3 0 0 1 .22.1c.06.06.1.14.1.22v2.26c0 .06-.04.09-.1.09-1.3-.03-2.98-.03-5.04 0-.44 0-1.04.05-1.82.13a.17.17 0 0 0-.14.12.16.16 0 0 0 .04.18l5.83 5.81c.19.2.15.31-.12.35l-.94.14a.9.9 0 0 1-.8-.25c-2.26-2.2-4.1-4.05-5.52-5.53a1.3 1.3 0 0 0-.53-.35.25.25 0 0 0-.16 0 8.2 8.2 0 0 0-3.42 2.1c-.1.1-.1.22.02.33l8.2 8.18c.29.28.23.48-.16.6l-.3.09c-.42.12-.77.03-1.08-.27l-1.73-1.72-4.97-4.96a7.87 7.87 0 0 0-1-.9Z" fill="#B74C1D"/></svg>