<!-- by TradingView --><svg width="18" height="18" viewBox="0 0 18 18" xmlns="http://www.w3.org/2000/svg"><path fill="#F0F3FA" d="M0 0h18v18H0z"/><path d="M11.58 5.1A77.86 77.86 0 0 1 7.4 9.5c-.2.2-.37.3-.5.34-.45.1-.73-.06-1.03-.38a178.39 178.39 0 0 0-1.95-2.12l.03-.03 7.63-2.3a.03.03 0 0 1 .03 0v.03l-.03.06Z" fill="#FE9D2A"/><path fill-rule="evenodd" d="M8 10.33c0-.07-.03-.09-.1-.04-.25.18-.75.19-1 .19h-.84c-.04 0-.06.02-.06.05v1.12c0 .03.02.05.05.05h.28c.29 0 .6 0 .97.26V12l-.02.01H3.04C3 12 3 11.98 3 11.95c.09-.22.34-.3.56-.35.04 0 .06-.03.06-.07V8.61c0-.34-.23-.55-.45-.76a6.7 6.7 0 0 1-.17-.2c0-.04.03-.07.1-.08a.83.83 0 0 1 .26 0c.1.01.23.06.3.14.44.45.92.9 1.44 1.35.24.2.5.48.78.82.08.1.2.16.35.16h.96a.1.1 0 0 0 .08-.03c.22-.27.45-.52.69-.75 1.29-1.25 2.59-2.55 3.9-3.9.09-.08.17-.08.23.03l1.48 2.52c.04.08.07.16.08.25a.18.18 0 0 1-.13.19c-.18.04-.44.06-.62.05-.03 0-.05 0-.05.04v.82c0 .04.01.06.06.05.16-.02.39-.02.53.04.07.03.12.08.15.16s.02.16-.05.24c-.03.04-.1.02-.12-.03l-.07-.25c-.01-.04-.04-.05-.08-.04l-.33.1a.14.14 0 0 0-.07.05.13.13 0 0 0-.02.07v1.72c0 .06.09.06.14.07.1.02.27.04.37.09.3.14.6.15.92.12.28-.02.52.1.7.3.03.03.02.05-.02.05H9.08c-.01 0-.02-.01-.01-.02.1-.16.2-.42.3-.57l.04-.02h2.76c.03 0 .06-.02.06-.05.13-1.26.03-2.46 0-3.72a1.7 1.7 0 0 0-.45-1.21c-.02-.03-.04-.03-.07-.01-.26.19-.5.4-.7.62-.6.66-1.28 1.3-2.02 1.95a1 1 0 0 0-.37.77v2.23c0 .02-.02.03-.04.03h-.54c-.02 0-.04-.02-.04-.04v-1.63Zm-3.85 1.3c-.12.03-.23-.03-.23-.14V8.77c0-.06.03-.08.09-.03l.14.12c.05.1.08.2.08.3v1.87c0 .2-.01.37-.05.56 0 .02 0 .04-.03.04Zm.7-2v2.05s0 .02.02.02h.34c.02 0 .03-.01.03-.03.04-.43.05-.9.03-1.32-.01-.27-.08-.61-.35-.76-.05-.02-.07 0-.07.04Z" fill="#5F331E"/><path fill-rule="evenodd" d="M10 9.05v1.9c0 .03.03.05.07.05h1.87c.03 0 .06-.02.06-.04V9.04c0-.02-.03-.04-.06-.04h-1.88c-.03 0-.06.03-.06.05Zm.14.26-.02 1.37c0 .04.05.07.1.07h1.01c.05 0 .1-.03.1-.06V9.3c0-.04-.05-.06-.1-.06h-1c-.04 0-.09.03-.09.06Z" fill="#5F331E"/></svg>