<!-- by TradingView --><svg width="56" height="56" viewBox="0 0 56 56" xmlns="http://www.w3.org/2000/svg"><path fill="#F0F3FA" d="M0 0h56v56H0z"/><path d="M29.58 13.02c5.62.35 9.64 2.99 12.08 7.91a.26.26 0 0 0 .23.15h8.99a.12.12 0 0 1 .1.05.12.12 0 0 1 0 .12l-6.05 13.3a.58.58 0 0 1-.53.33h-3.55a.45.45 0 0 0-.4.23c-5.64 10-20.7 11.03-26.07 0a.35.35 0 0 0-.32-.19H5.13a.13.13 0 0 1-.1-.06.13.13 0 0 1-.02-.12l6.11-13.41a.45.45 0 0 1 .42-.27h3.53a.55.55 0 0 0 .47-.26 12.86 12.86 0 0 1 2.85-3.33c3.03-2.7 6.96-4.7 11.2-4.45Zm-10.92 4.62a15.4 15.4 0 0 0-2.98 3.62.42.42 0 0 1-.37.21h-3.5a.5.5 0 0 0-.46.3c-2 4.55-3.9 8.7-5.66 12.45a.2.2 0 0 0 0 .15c.02.08.07.12.15.13 2.63.09 5.44.09 8.44 0a.37.37 0 0 1 .34.2c2.26 4.55 5.8 7.14 10.64 7.78 5.76.77 11.28-2.35 14.63-6.78.21-.28.35-.83.66-1.02a.33.33 0 0 1 .17-.05h3.54c.07 0 .14-.02.2-.06.06-.04.1-.1.13-.16l5.86-12.83v-.04l-.01-.04a.08.08 0 0 0-.03-.03.09.09 0 0 0-.04-.01h-8.7a.26.26 0 0 1-.23-.14c-2.35-4.81-6.24-7.45-11.68-7.92-3.54-.38-7.93 1.56-11.1 4.24Z" fill="#C5C6C6"/><path d="M35.68 16.24c-.78-.21-1.3-.35-1.57-.4-4.83-1.03-9.7.63-11.77 5.3a.33.33 0 0 1-.3.2H17.4a.11.11 0 0 1-.1-.06.1.1 0 0 1 0-.11 15.23 15.23 0 0 1 5.53-5.27c4.3-2.35 8.62-2.3 12.93.14a.11.11 0 0 1 .04.14.11.11 0 0 1-.12.06Z" fill="#151414"/><path d="M15.16 25.18a.05.05 0 0 0 .02.07.06.06 0 0 0 .07 0l3.35-2.7c.08-.07.18-.1.29-.1h3.69a.34.34 0 0 0 .32-.23c.18-.57.38-1.38.83-1.99a9.42 9.42 0 0 1 7-3.79c3.87-.22 7.02 1.32 9.45 4.64a.2.2 0 0 1-.05.29.2.2 0 0 1-.11.03H32.1a.85.85 0 0 0-.33.06c-2.7 1.17-1.33 4.2-.1 6a12.58 12.58 0 0 1 1.76 3.63.11.11 0 0 0 .18-.04l4.08-8.5a.18.18 0 0 1 .16-.1h3.6a.06.06 0 0 1 .04.03.06.06 0 0 1 0 .05l-1.85 3.87a.06.06 0 0 0 0 .06l.02.02h3.19a.16.16 0 0 0 .15-.09l1.86-3.86a.12.12 0 0 1 .05-.06.14.14 0 0 1 .07-.02h3.6a.06.06 0 0 1 .06.03.05.05 0 0 1 0 .05L43.4 33.47a.18.18 0 0 1-.06.07.18.18 0 0 1-.1.03h-3.6a.05.05 0 0 1-.04-.02.05.05 0 0 1 0-.05l1.89-3.93a.03.03 0 0 0 0-.03l-.02-.01H38.24a.15.15 0 0 0-.14.08l-1.8 3.76a.35.35 0 0 1-.31.2h-2.15a.31.31 0 0 0-.3.23c-.7 2.72-3.45 4.8-6.16 5.48-4.46 1.13-8.7-.69-11.23-4.5a.11.11 0 0 1 0-.12.11.11 0 0 1 .1-.06c1.16 0 3.18 0 6.07.02 1.34.01 2.26-.14 2.75-.45 1.69-1.07 1.24-2.96.32-4.52-1.52-2.58-2.48-3.8-2.6-6.23a.07.07 0 0 0-.04-.06.07.07 0 0 0-.07.01l-5.82 4.69a.19.19 0 0 0-.07.11c-.01.05 0 .1.02.13l3.2 5.07a.13.13 0 0 1-.06.19.14.14 0 0 1-.06.01h-4.57a.23.23 0 0 1-.2-.11l-2.1-3.63a.05.05 0 0 0-.08-.01c-.01 0-.02 0-.02.02l-1.75 3.65a.16.16 0 0 1-.06.06.17.17 0 0 1-.09.02H7.4a.04.04 0 0 1-.02-.04v-.02l5.27-10.97a.16.16 0 0 1 .14-.09h3.63a.04.04 0 0 1 .04.02v.03l-1.29 2.68Z" fill="#E31E24"/><path d="M20.92 39.63c.77.21 1.3.34 1.56.4 4.82 1.03 9.68-.63 11.75-5.3.02-.05.07-.1.12-.14a.33.33 0 0 1 .18-.05h4.63a.11.11 0 0 1 .1.06.1.1 0 0 1 0 .11 15.2 15.2 0 0 1-5.52 5.25c-4.3 2.35-8.6 2.3-12.9-.13a.1.1 0 0 1-.05-.13.12.12 0 0 1 .13-.06Z" fill="#151414"/></svg>