<!-- by TradingView --><svg width="56" height="56" viewBox="0 0 56 56" xmlns="http://www.w3.org/2000/svg"><path fill="#F0F3FA" d="M0 0h56v56H0z"/><path d="M44 26.26V27H12.02c-.04-.04-.04-.13 0-.64C12.57 18.22 19.97 12 27.95 12 35.57 12 44 18.06 44 26.26ZM43.6 31H12.43c.07.35.15.73.27 1h30.7l.19-1Zm-.36 2H12.8c.08.29.18.73.3 1h29.83c.12-.27.24-.7.3-1Zm-1.29 2.38H14.09c.11.24.26.47.42.62h27.06a2 2 0 0 0 .38-.62ZM41.06 37H14.97c.15.22.3.45.5.64H40.6c.15-.2.34-.42.45-.64Zm-1.66 2H16.63c.2.17.48.54.58.54h21.66c.2-.19.34-.37.53-.54Zm-2.14 2H18.8c.23.2.5.35.68.5h17.07c.26-.15.48-.33.71-.5Zm-3.76 2.02h-11c1.43.56 3.1.98 4.66.98h1.72c1.53 0 3.23-.36 4.63-.98ZM44 29H12.07c-.18.25.03.73.1 1H43.9c.04-.18.08-.37.11-1Z" fill="#FF6700"/></svg>