<!-- by TradingView --><svg width="18" height="18" viewBox="0 0 18 18" xmlns="http://www.w3.org/2000/svg"><path fill="#F0F3FA" d="M0 0h18v18H0z"/><path d="M6.23 13H4.74c-.2 0-.35-.03-.44-.07a.53.53 0 0 1-.28-.36.73.73 0 0 1 .06-.48c.1-.21.2-.44.33-.68a3182.42 3182.42 0 0 0 3.43-6.78c.1-.2.18-.35.25-.42a.59.59 0 0 1 .43-.2h1.04c.15.01.27.06.35.14.07.06.15.17.23.33a1851.01 1851.01 0 0 1 3.74 7.55c.07.17.11.28.12.34v.05c-.04.3-.2.5-.5.57H12a.95.95 0 0 1-.49-.13 4.73 4.73 0 0 0-2.89-.65c-.08 0-.17.01-.26.04l-.16.01c-.08 0-.15.02-.2.03a4.9 4.9 0 0 0-1.62.65.42.42 0 0 1-.15.05Zm1.95-4.04-.48.99c-.03.06-.02.1.02.12l-.05.1a.02.02 0 0 0 0 .02h.02l2.84.02a2.3 2.3 0 0 1-.56.07c-1.23.03-1.9.04-2.02.03-.1 0-.21-.02-.3-.04a.09.09 0 0 0-.1.04 10.12 10.12 0 0 0-.73 1.42 17.53 17.53 0 0 0-.43.87 11.34 11.34 0 0 0-.04.11c.2.02.47-.07.84-.27l.04-.02.43-.14a3.66 3.66 0 0 0 .62-.13h.23a4.43 4.43 0 0 1 1.18 0l.2.02c.64.13 1.23.36 1.78.7.07.04.2.06.37.05l1.4.01h.05c.11-.04.22-.1.32-.18a.08.08 0 0 0 .02-.04l.04-.11a.46.46 0 0 0 .02-.4 9.34 9.34 0 0 0-.56-1.18 5.36 5.36 0 0 0-.28-.54 154.84 154.84 0 0 0-1.34-2.69 243.27 243.27 0 0 0-1.69-3.39.7.7 0 0 0-.34-.28 9.1 9.1 0 0 0-1.16-.02c-.23.01-.39.1-.48.29A189.15 189.15 0 0 1 6.13 8.2v.02c.14.22.32.4.54.56.4.28.9.34 1.51.18Z" fill="#0349B0"/><path d="M10.27 4.85c-.03.09-.09.18-.11.26l-.1.23a167.04 167.04 0 0 0-.95 1.88c0 .03.02.05.04.07.06.04.1.1.12.18a.95.95 0 0 0 .16.34 63.13 63.13 0 0 0 1.03 2.11l.16.39c.06.17.18.41.36.73l.23.43c.32.65.53 1.08.64 1.27a.7.7 0 0 0 .17.18c-.18 0-.3 0-.37-.05a5.43 5.43 0 0 0-1.97-.72l-.22-.01a4.4 4.4 0 0 0-1.59.1.75.75 0 0 0-.21.04 12.73 12.73 0 0 1-.48.16c-.36.2-.64.29-.83.27a.02.02 0 0 1-.02-.02 9.75 9.75 0 0 1 .19-.33 17.57 17.57 0 0 1 .54-1.11 10.13 10.13 0 0 1 .53-.97h.05l.3.03c.12.01.8 0 2.01-.03.2 0 .4-.03.56-.07l-1.4-2.87a.02.02 0 0 0-.04 0l-.08.2.02-.12A.02.02 0 0 0 9 7.4a.02.02 0 0 0-.03 0L8.2 8.99c-.6.16-1.13.08-1.52-.2a2.06 2.06 0 0 1-.54-.58v-.02a296 296 0 0 0 1.9-3.8c.1-.17.25-.27.48-.28a9.04 9.04 0 0 1 1.16.02c.25 0 .5.45.6.73Z" fill="#0B59C9"/><path d="M10.25 4.81a328.7 328.7 0 0 1 3.66 7.38c.05.15.03.31-.04.44a.58.58 0 0 0-.04.1c0 .02-.01.03-.03.04-.1.1-.2.15-.32.19h-1.45a.7.7 0 0 1-.18-.2l-.64-1.27-.23-.44a5.21 5.21 0 0 1-.53-1.12 16.22 16.22 0 0 0-.45-.89 63.4 63.4 0 0 1-.76-1.59.32.32 0 0 0-.11-.18.1.1 0 0 1-.03-.14l.18-.3a167.17 167.17 0 0 1 .87-1.75l.1-.27Z" fill="#1A72E3"/><path d="m9 7.51-1.28 2.56c-.04-.02-.05-.06-.02-.12l.48-.99.8-1.57A.02.02 0 0 1 9 7.38.02.02 0 0 1 9 7.4L9 7.5Z" fill="#003788"/></svg>