<!-- by TradingView --><svg width="56" height="56" viewBox="0 0 56 56" xmlns="http://www.w3.org/2000/svg"><path fill="#EC2205" d="M0 0h56v56H0z"/><path d="M41.48 27.68c-.01 0-.02.01-.02.03l.01.02.6.03c.54.04.86.41.88.94 0 .12.04.13.1.03l2.81-4.68a.09.09 0 0 1 .08-.05h2.54a.09.09 0 0 1 .07.05L52 29.96a.03.03 0 0 1-.03.04h-2.06a.1.1 0 0 1-.1-.05l-2.6-4.43a.03.03 0 0 0-.03-.02h-.02v.02l-2.58 4.43a.1.1 0 0 1-.08.05h-3.46a.04.04 0 0 1-.05-.05c.02-.32.02-.65 0-.9-.04-.39-.3-.59-.73-.6h-3.2c-.04 0-.06.02-.06.05v1.44l-.01.04a.05.05 0 0 1-.04.02h-1.89c-.05 0-.06-.03-.06-.08v-.3c0-.04-.01-.05-.05-.03-.41.22-.85.35-1.31.36-1.28.05-2.65.06-4.11.04a3.54 3.54 0 0 1-1.79-.41c-.04-.03-.06-.02-.06.03l.01.32c0 .05-.02.07-.07.07H20.25l-.02-.02-.79-1.4a.1.1 0 0 0-.08-.04h-3.52a.06.06 0 0 0-.05.03l-.77 1.33a.1.1 0 0 1-.04.04c-.02 0-.04.06-.06.06h-2.1l-.02-.07-.02-.03v-.06c0-.02-.02-.03-.04-.03a8.2 8.2 0 0 1-1.2.14c-.95.03-2.06.04-3.33.01a5.9 5.9 0 0 1-1.22-.14c-.87-.2-1.02-1-.96-1.77 0-.04.02-.05.05-.05h1.85a.05.05 0 0 1 .05.03v.02c-.01.36.16.62.53.64.9.05 1.82.06 2.76.01.4-.02.8-.15.74-.62-.05-.38-.46-.43-.78-.43-1.3.01-2.41 0-3.32-.02-.81-.02-1.73-.18-1.86-1.17-.13-.91-.05-1.95.99-2.2A7.13 7.13 0 0 1 8.43 24h3.06c1.26.03 2.3.25 2.24 1.8 0 .04-.02.06-.06.06h-1.81c-.04 0-.07-.02-.07-.06-.06-.44-.47-.5-.85-.51-.86-.03-1.72 0-2.57.06-.15.01-.32.12-.37.26-.2.51.29.7.71.7 1.05 0 2.13 0 3.27.03 1.08.02 1.89.21 1.99 1.47 0 .07.03.07.06.02l2.25-3.78a.08.08 0 0 1 .08-.05h2.53c.04 0 .06.02.08.05l2.28 3.93c.05.08.07.07.07-.01v-3.9a.06.06 0 0 1 .06-.07h1.9l.02.01.01.02v4.42c0 .02 0 .03.03.03h3.7c.02 0 .04-.01.04-.04a15.5 15.5 0 0 1-.03-2.61c.1-1.31 1.07-1.72 2.22-1.78 1.61-.08 3.17-.07 4.67.03.33.02.66.12 1 .31.05.03.07.02.06-.04l-.01-.2c0-.04.02-.15.07-.15H41c.95 0 1.85.26 2.03 1.38.06.38.06.77 0 1.14-.15.91-.77 1.05-1.55 1.16Zm-7.75-1.52c-.05-.4-.35-.64-.75-.67-.75-.06-1.72-.06-2.9 0-.74.03-1.01.3-1.05 1.03-.02.43 0 .84.04 1.24.07.59.49.76 1 .78 1.1.04 2.04.03 2.85-.03.52-.05.8-.33.83-.87.04-.53.03-1.03-.02-1.48Zm-16.1-.65a.03.03 0 0 0-.06 0l-.86 1.44V27a.03.03 0 0 0 .02.01h1.8c.01 0 .03 0 .03-.02v-.02l-.94-1.45Zm19.37.07v1.37l.02.03.04.02h3.34c.24 0 .5-.12.61-.35a.4.4 0 0 0 .05-.2v-.37c0-.15-.07-.3-.2-.4a.73.73 0 0 0-.46-.16h-3.34a.05.05 0 0 0-.06.06ZM13.92 34h-1.05c-2.25-.07-4.5-.46-6.57-1.36A8.26 8.26 0 0 1 4 31.16v-.02l.02-.02h.01c1.5 1 3.4 1.54 5.19 1.83 3.36.56 7 .46 10.25-.41 1.21-.33 2.28-.78 3.2-1.37.15-.1.16-.08.04.05-.9.89-2.3 1.53-3.53 1.92-1.7.53-3.46.82-5.26.86Z" fill="#fff"/></svg>