<!-- by TradingView --><svg width="56" height="56" viewBox="0 0 56 56" xmlns="http://www.w3.org/2000/svg"><path fill="#F0F3FA" d="M0 0h56v56H0z"/><path d="M28 12.83 30.9 21h9.4l-7.6 5.58 2.9 7.89L28 29.6l-7.6 4.87 2.9-7.89L15.7 21h9.4l2.9-8.17Z" fill="#0090CD"/><path fill-rule="evenodd" d="M28 39a14 14 0 1 0 0-28 14 14 0 0 0 0 28Zm0-2a12 12 0 1 0 0-24 12 12 0 0 0 0 24Z" fill="#3A5C82"/><path d="M46 38H12v1h34v-1Zm0 5H12v1h34v-1Z" fill="#3A5C82"/><path d="M22 39.5v3h.66v-2.15l.87 2.15h.56l.91-2.15v2.15h.63v-3h-.98l-.81 2.02-.89-2.02H22Zm-2.32 0v3h1.86v-.41H20.2v-.92h1.07v-.45H20.2v-.74h1.34v-.48h-1.86Zm-2 1.23 1.02-1.23h.56v.12l-1.13 1.3 1.13 1.3v.14h-.56l-1.02-1.2h-.08v1.18H17v-2.82h.6v1.21h.08ZM27 39.5h-.6v3h.6v-3Zm6.44 0h-2.32v.5H32v2.5h.6V40h.84v-.5Zm.96 0-1.16 3h.62l.18-.5h1.34l.16.45h.67l-1.17-2.95h-.64Zm.8 2h-.99l.5-1.4.5 1.4Zm-5.98.28h-.58c0 .19.3.72.99.72.68 0 1.11-.43 1.11-.95 0-.44-.62-.8-1.01-.92-.39-.13-.39-.3-.39-.36 0-.07.05-.29.35-.29.25 0 .36.14.39.2h.55c0-.3-.41-.68-.94-.68s-1.05.25-1.05.83c0 .5.53.72.85.85l.14.05c.28.13.45.27.45.4 0 .14-.06.37-.45.37-.32 0-.4-.15-.41-.22Zm7.18.73v-3h1.44c.56 0 1.01.42 1.01.93 0 .38-.24.7-.6.85l.75 1.2h-.63l-.67-1.12H37v1.14h-.6Zm1.45-2.53H37v.92h.85c.28 0 .5-.2.5-.46 0-.25-.22-.46-.5-.46Z" fill="#0090CD"/></svg>