<!-- by TradingView --><svg width="56" height="56" viewBox="0 0 56 56" xmlns="http://www.w3.org/2000/svg"><path fill="#F0F3FA" d="M0 0h56v56H0z"/><path d="M16.97 18c3.6 0 6.53 3.07 6.53 6.86v.28c0 3.79-2.92 6.86-6.53 6.86H11V18h5.97ZM14 21v8h2.9c2.34 0 3.6-1.8 3.6-4s-1.26-4-3.6-4H14ZM27 23.47c.5-.8 1.57-1.84 3-1.34l-.1 2.82c-.8-.24-2.47-.2-2.9 1.8V32h-3V22h3v1.47ZM47 37h-5.32l-.04-.16a5.46 5.46 0 0 0-4.56-2.47 5.87 5.87 0 0 0-4.72 2.48l-.04.15H27l7.9-19h4.2L47 37Zm-13.28-4.67a7.34 7.34 0 0 1 6.52-.11L37 23.17l-3.28 9.16Z" fill="#0C51A3"/><path d="M27 34H11v3h14.67L27 34Z" fill="#1DBFDA"/></svg>