<!-- by TradingView --><svg width="18" height="18" viewBox="0 0 18 18" xmlns="http://www.w3.org/2000/svg"><path fill="#F0F3FA" d="M0 0h18v18H0z"/><path fill-rule="evenodd" d="M14 13.94c0 .04-.02.06-.06.06H4.06c-.04 0-.06-.02-.06-.06V4.06c0-.04.02-.06.06-.06h9.88c.04 0 .06.02.06.06v9.88Zm-.19-.18c0 .04-.02.06-.06.06h-9.5c-.05 0-.08-.02-.08-.06v-9.5c0-.05.03-.07.07-.07h9.5c.05 0 .07.02.07.06v9.5Zm-3.18-8.57c.22-.37.53-.63.9-.78.1-.03.1-.05 0-.05h-7.1c-.05 0-.07.02-.07.07v7.32c0 .04 0 .04.02 0 .13-.36.38-.67.76-.91.36-.22.74-.34 1.15-.36.52-.01.93.03 1.23.15.03.01.06 0 .08-.03 1.58-2.9 2.6-4.7 3.03-5.41Zm1.83-.81c.51.16.89.46 1.13.92.03.06.05.06.05 0v-.87c0-.05-.02-.07-.07-.07h-1.12v.02Zm1.18 1.83v7.35c0 .05-.02.07-.07.07H12l.44-.1c.38-.11.63-.34.78-.68.18-.44.05-.72-.39-.84-.2-.06-.5.04-.95.28l-.11.07c-.08.04-.22.05-.44.04-.13 0-.27-.04-.4-.1a13.5 13.5 0 0 1-2.06-1.01c-.05-.03-.06-.07-.03-.11a754.2 754.2 0 0 1 2.82-5.35c.1-.2.26-.3.44-.32.13-.02.23.03.3.13.08.1.1.2.07.33a.73.73 0 0 1-.27.43l-.65.51c-.13.1-.17.24-.11.42.1.36.33.46.68.3.69-.34 1.18-.81 1.48-1.43.03-.05.04-.05.04 0Zm-1.9 7.42H12a.7.7 0 0 1-.27 0Zm0 0H6.62c-.1 0-.1-.01 0-.04.6-.18 1.18-.69 1.73-1.5.03-.06.08-.07.13-.03.48.33.97.64 1.46.93.58.33 1.17.55 1.78.64Zm-4.6-2.06v-.03h-.01c-.39-.1-.7-.08-.94.04-.33.17-.44.38-.32.62.13.24.35.27.69.1.24-.12.44-.37.59-.73ZM4.4 12.62c.2.55.6.87 1.18.97.03 0 .03.02.03.03-.01.01-.02.02-.05.02l-1.17-.02c-.02 0-.03-.01-.03-.04v-.95c0-.08.01-.08.04 0Z" fill="#B90508"/></svg>