<!-- by TradingView --><svg width="56" height="56" viewBox="0 0 56 56" xmlns="http://www.w3.org/2000/svg"><path fill="#F0F3FA" d="M0 0h56v56H0z"/><path d="M9 22v1.5h2v9H9V34h3.5V22H9Zm0-.5h7.5V20H9v1.5Zm7.5.5H13v12h8v-4h-1v2.5h-5.5v-9h2V22Zm5 8v4.5H9V36h14v-6h-1.5Zm11.99 2.26c-.55.22-1.16.34-1.8.34-2.83 0-4.69-2.01-4.69-4.5s1.88-4.5 4.7-4.5c.6 0 1.16.1 1.69.3l.72-1.46a6.52 6.52 0 0 0-2.37-.44c-3.74 0-6.25 2.71-6.25 5.98 0 3.27 2.49 6.02 6.25 6.02.83 0 1.63-.16 2.35-.44l-.6-1.3Zm.8 1.72c-.8.3-1.65.48-2.55.48-4.06 0-6.74-2.83-6.74-6.46 0-3.62 2.71-6.46 6.74-6.46.91 0 1.78.18 2.57.5l.69-1.39c-1-.42-2.1-.65-3.26-.65-4.94 0-8.24 3.58-8.24 8s3.26 8 8.24 8c1.13 0 2.2-.22 3.19-.62l-.65-1.4Zm9.4-1.38c.64 0 1.25-.12 1.8-.34l.6 1.3c-.72.28-1.52.44-2.35.44-3.76 0-6.25-2.75-6.25-6.02C37.5 24.71 40 22 43.74 22c.84 0 1.64.16 2.37.44l-.72 1.46c-.53-.2-1.1-.3-1.7-.3-2.81 0-4.69 2.01-4.69 4.5s1.86 4.5 4.7 4.5Zm.05 1.86c.9 0 1.76-.17 2.54-.48l.65 1.4c-.98.4-2.06.62-3.19.62-4.98 0-8.24-3.58-8.24-8s3.3-8 8.24-8c1.16 0 2.26.23 3.26.65l-.69 1.39c-.79-.32-1.66-.5-2.57-.5-4.03 0-6.74 2.84-6.74 6.46 0 3.63 2.68 6.46 6.74 6.46Z" fill="#DA251C"/></svg>