<!-- by TradingView --><svg width="56" height="56" viewBox="0 0 56 56" xmlns="http://www.w3.org/2000/svg"><path fill="#F0F3FA" d="M0 0h56v56H0z"/><path d="M21.38 18.03a.3.3 0 0 1-.1.05l-.16.02h-.05a.08.08 0 0 1-.04-.04.08.08 0 0 1 .02-.1A9.59 9.59 0 0 1 28.06 15a.27.27 0 0 1 .24.13l.04.07a.18.18 0 0 1-.06.25 14.48 14.48 0 0 0-6.9 2.58Z" fill="#8918B0"/><path d="M24.57 18.33c-1.92.22-3.64 1.2-5.17 2.94a19.3 19.3 0 0 0-2.2 3.06c0 .02-.02.03-.05.02l-.07-.02c-.07-.02-.1-.07-.07-.14a13.7 13.7 0 0 1 2.72-4.29 10.48 10.48 0 0 1 8.6-3.4c3.6.22 7.17 2.2 9.76 4.68a.29.29 0 0 1 .09.24.28.28 0 0 1-.15.21c-.16.1-.37.1-.6.04-.32-.1-1.09-.31-1.5-.51-.85-.43-1.7-.84-2.54-1.23a19.93 19.93 0 0 0-6.48-1.85 7.6 7.6 0 0 0-2.34.25Z" fill="#013EE6"/><path d="M24.57 18.33c1.84.14 3.38.57 4.61 1.3.2.12.3.26.32.43a.24.24 0 0 1-.1.23.25.25 0 0 1-.25.02c-.77-.35-1.55-.62-2.35-.81a5.5 5.5 0 0 0-2.43 0c-1.42.3-2.72.83-3.9 1.6-.25.15-.6.21-1.07.17 1.53-1.74 3.25-2.72 5.17-2.94Z" fill="#4EF6F7"/><path d="M37.98 22.86c1.26.37 2.73.05 3.71-.9a6.8 6.8 0 0 0 1.56-2.3c.02-.06.05-.06.09 0l.04.07v.03a5.95 5.95 0 0 1-2.14 3.42c-1.1.85-2.32.83-3.63.5a8.09 8.09 0 0 1-3.79-2.51c-.1-.12-.1-.24-.01-.37a.2.2 0 0 1 .07-.06.23.23 0 0 1 .26.03 10.4 10.4 0 0 0 3.84 2.1Z" fill="#E3342C"/><path d="M25.15 21.03a5.96 5.96 0 0 0-3.35.17c.11-.47.37-.77.78-.9.4-.12.66-.2.81-.27.31-.13.58-.18.82-.15.53.06.95.17 1.27.35.11.06.16.14.15.25-.01.08-.06.13-.15.15-.32.06-.44.2-.33.4Z" fill="#D6F873"/><path d="M25.15 21.03c1.01.32 1.96.87 2.86 1.64.83.72 1.61 1.6 2.35 2.64a.4.4 0 0 1 0 .45l-.08.02-.3.02a17.93 17.93 0 0 0-3.75-2.99 7.42 7.42 0 0 0-2.56-.93c-.31-.05-.3 0 .03.17l.23.08c.84.3 1.6.77 2.31 1.4a.23.23 0 0 1 .08.22l-.02.09c0 .03-.02.06-.04.08a.19.19 0 0 1-.16.07.2.2 0 0 1-.1-.03c-1.45-.98-2.7-1.32-3.76-1.03a9.76 9.76 0 0 0-1.86.73.1.1 0 0 1-.04-.01l-.1-.04c-.11-.05-.11-.1-.01-.17.32-.21.62-.47.88-.77.04-.05.03-.08-.03-.1-.1-.03-.32.11-.68.42-.9.75-1.65 1.55-2.21 2.41-.03.03-.06.04-.1 0l-.05-.04v-.03a8.67 8.67 0 0 1 3.76-4.13c1.09-.38 2.2-.43 3.35-.17Z" fill="#E3342C"/><path d="M36.57 25.57c.7.22 1.58.25 2.62.09.04-.09.1-.1.2-.06a5.66 5.66 0 0 0 2.57-1.15l1.9-1.6c.02-.03.05-.03.07 0l.06.04v.03a10.23 10.23 0 0 1-2.38 2.4 22 22 0 0 0-1.7 1.27 8.29 8.29 0 0 1-3.93.77c-.47-.02-.93-.02-1.39-.02h1.42c.07 0 .1-.02.1-.08l.02-.08a.16.16 0 0 0-.04-.12.17.17 0 0 0-.12-.06 6.96 6.96 0 0 1-2.89-.85c-.94-.5-1.7-1.02-2.28-1.53-1.14-1-2.12-2-2.97-3-.17-.2-.2-.42-.08-.64.05-.07.1-.1.2-.07.77.29 1.32.55 1.63.78a43.5 43.5 0 0 0 4.51 3.1 7 7 0 0 0 2.48.78Z" fill="#4EF6F7"/><path d="M38.13 24.79c.82.12 1.62-.05 2.4-.49.48.14.96.2 1.43.15-.76.6-1.62.98-2.58 1.15-.09-.05-.15-.03-.2.06a5.96 5.96 0 0 1-2.6-.09c-.82-.56-1.57-1.06-2.27-1.49-.1-.05-.14-.1-.16-.14-.1-.31-.01-.37.27-.18.9.6 1.87 1.01 2.92 1.26.36.08.62 0 .79-.23Z" fill="#D6F873"/><path d="M40.53 24.3c-.78.44-1.58.6-2.4.49-.35-.08-.57-.21-.67-.4-.04-.1-.03-.2.04-.32.05-.08.1-.1.19-.06.19.09.32.14.4.14a7.14 7.14 0 0 0 2.3-.15.2.2 0 0 1 .13.1c.02.02.02.05.03.07 0 .04 0 .08-.02.13Z" fill="#E3342C"/><path d="M39.9 26.59c.12-.02.14.04.06.16a6.95 6.95 0 0 1-5.8 1 .17.17 0 0 1-.07-.12v-.06c.06-.19.22-.26.5-.23.46 0 .92 0 1.39.02a8.29 8.29 0 0 0 3.92-.77Z" fill="#013EE6"/><path fill-rule="evenodd" d="M37.6 34.48A3 3 0 1 1 38 33c.04.81.5 1.6 1.17 1.95l-.28.78c-.53-.26-.98-.7-1.28-1.25ZM37.18 33a2.17 2.17 0 1 1-4.34 0 2.17 2.17 0 0 1 4.34 0Z" fill="#5B9BF2"/><path d="M42.5 34.52A3.02 3.02 0 0 1 40 36v-.83c1.16-.05 2.08-1 2.08-2.17s-.92-2.12-2.08-2.17V30c1.07.04 2 .62 2.5 1.48A3.02 3.02 0 0 1 45 30v.83c-1.16.05-2.08 1-2.08 2.17s.92 2.12 2.08 2.17V36c-1.07-.04-2-.62-2.5-1.48ZM47 30h1v6h-1z" fill="#5B9BF2"/><circle cx="47.5" cy="28.5" r=".5" fill="#5B9BF2"/><path fill="#5B9BF2" d="M23 30h1v6h-1z"/><circle cx="23.5" cy="28.5" r=".5" fill="#5B9BF2"/><path d="M25.65 30H25v6h.65v-2.92a2.35 2.35 0 0 1 4.7 0V36H31v-3a3 3 0 0 0-5.35-1.87V30ZM13 27c-1.66 0-3 1.4-3 3.12V34.98c0 .98-.97 1.84-2 2V38a3.2 3.2 0 0 0 3-3.13v-4.85c0-1.08.96-2.02 2-2.02s2 .94 2 2.02V36h1v-6a2 2 0 1 1 4 0v6h1v-6a3 3 0 0 0-5.52-1.63A2.97 2.97 0 0 0 13 27Z" fill="#5B9BF2"/></svg>