<!-- by TradingView --><svg width="56" height="56" viewBox="0 0 56 56" xmlns="http://www.w3.org/2000/svg"><path fill="#F0F3FA" d="M0 0h56v56H0z"/><path fill-rule="evenodd" d="M7 24h2.5v3H12v-3h2.5v9H12v-4H9.5v4H7v-9Zm9 2h2.5v7H16v-7Zm22-2h-2.5v9H38v-9Zm1 2h2.5v7H39v-7Zm-19 0h2.5v.37c.41-.24.88-.37 1.38-.37 1.69 0 3.06 1.57 3.06 3.5S25.57 33 23.88 33c-.5 0-.97-.13-1.38-.37V35H20v-9Zm3.5 5c.55 0 1-.67 1-1.5s-.45-1.5-1-1.5-1 .67-1 1.5.45 1.5 1 1.5Zm7.5 2a3.5 3.5 0 1 0 0-7 3.5 3.5 0 0 0 0 7Zm0-2c.55 0 1-.67 1-1.5s-.45-1.5-1-1.5-1 .67-1 1.5.45 1.5 1 1.5Zm11.5-5H45v.62c.29-.31.8-.62 1.65-.62 1.62 0 2.35 1.17 2.35 1.98V33h-2.5v-4.2c0-.33-.03-.8-.7-.8-.38 0-.63.21-.8.47V33h-2.5v-7Z" fill="#284191"/><path d="m15.22 21.67-2.63-1.62.21-.33 2.63 1.62-.21.33ZM16.03 21.1l.35-2.26.4.06-.35 2.26-.4-.06ZM20.91 21.76l-3.73.16-.01-.4 3.72-.15.02.4Z" fill="#FF3B00"/><ellipse cx="11.97" cy="19.56" rx="1.24" ry="1.22" fill="#FF6000"/><ellipse cx="16.13" cy="21.95" rx="1.51" ry="1.48" fill="#FF1700"/><ellipse cx="21.46" cy="21.51" rx="1.12" ry="1.1" fill="#FF4200"/><path d="m16.96 24.97-.74-1.95.37-.13.74 1.94-.37.14Z" fill="#FF3B00"/><ellipse cx="16.65" cy="18.68" rx=".69" ry=".68" fill="#FF3B00"/><ellipse cx="17.11" cy="24.89" rx=".69" ry=".68" fill="#FF2000"/></svg>