<!-- by TradingView --><svg width="18" height="18" viewBox="0 0 18 18" xmlns="http://www.w3.org/2000/svg"><path fill="#F0F3FA" d="M0 0h18v18H0z"/><path d="M5.91 6C7.06 6 8 6.88 8 7.96v.08C8 9.12 7.06 10 5.91 10H4V6h1.91ZM5 7v2h.9C6.6 9 7 8.55 7 8s-.39-1-1.1-1H5ZM9 7.44c.17-.24.52-.55 1-.4l-.04.85c-.26-.08-.82-.06-.96.54V10H8V7h1v.44ZM15 12h-1.77l-.02-.05c-.18-.28-.7-.78-1.52-.78-.82 0-1.37.5-1.57.79l-.01.04H8.33l2.64-6h1.4L15 12Zm-4.43-1.47a2.55 2.55 0 0 1 2.18-.04l-1.08-2.86-1.1 2.9Z" fill="#0C51A3"/><path d="M8.33 11H4v1h3.9l.43-1Z" fill="#1DBFDA"/></svg>