<!-- by TradingView --><svg xmlns="http://www.w3.org/2000/svg" width="56" height="56" viewBox="0 0 56 56"><path fill="#F0F3FA" d="M0 0h56v56H0z"/><path fill-rule="evenodd" d="M45.6 23l-3.98 7.08c-.58 1.02-.1 1.73.2 1.92h2.4l.46-1h2.66v1H51l-1.04-9H45.6zm1.74 6h-1.72l1.72-3.7V29zM5 32v-.8L6.83 23h3.5l-.7 3.07 4.59-3.04h2.44l-3.92 3.73L15.16 32h-4.43l-1-2.93-.94.74-.5 2.19H5zm26.88-9h-7.16l-1.85 9h6.68a3.4 3.4 0 0 0 2.7-1.3l.35-.45-.36 1.75h3.3l.73-3h1.46c.35 0 .61.33.54.71l-.05.24-.23 1.17-.16.83V32h2.66s.25-.18 1.02-1.84c.1-.2.17-.42.21-.63l.1-.5c.05-.22.05-.46-.01-.68-.13-.4-.3-.65-.82-.74h-.03l.27-.12c1-.43 1.69-1.78 1.69-2.83v-.05c0-.88-.75-1.59-1.67-1.59h-7.16l-1.1 5.33a1.64 1.64 0 0 0-1.32-1.17h-.03l.27-.12c1-.43 1.64-1.37 1.64-2.42v-.05c0-.88-.75-1.59-1.67-1.59zm-2.66 2H27.8l-.38 1.5h1.75c.26 0 .49-.26.55-.5l.05-.2c.07-.34-.2-.8-.55-.8zm-.41 3.52h-1.74L26.61 30h2.14c.3 0 .57-.37.63-.65l.06-.24c.09-.38-.22-.59-.63-.59zm8.37-3.5h1.4c.37 0 .63.57.55 1.02l-.05.27c-.05.33-.28.72-.54.72h-1.8l.44-2.01z" fill="#565658"/><path d="M19.41 21.55l-6.9 10.35c-.53.78.29 1.77 1.15 1.4l4.65-1.98.14-.5-2.6-.36 4.2-5.55 2.75 6.4-2.66-.31v.55l3.82 2.9c.84.63 2-.2 1.64-1.2l-4-11.43a1.23 1.23 0 0 0-2.19-.27z" fill="#8FBA44"/></svg>