<!-- by TradingView --><svg xmlns="http://www.w3.org/2000/svg" width="18" height="18"><path fill="#F0F3FA" d="M0 0h18v18H0z"/><path d="M7.67 7.56c-1.46 1.37-2.59 2.74-.6 4.1 3.58 2.12 3.58 2.86 3.58 4.32V16s2.02-3.4.7-5.23a1.68 1.68 0 00-.43-.4c-.25 1.13-1.22 2.31-1.22 2.31.32-1.48-.22-2.01-1.2-2.73-1.08-.79-1.07-1.44-.59-2.22l-.24-.17z" fill="#BB5C2C"/><path d="M11.52 6.48c1.14 1.6-.06 3.55-.39 4.03l-.21-.14c.07-.35.08-.7-.03-1-.15-.43-.61-.75-1.06-1.07-.71-.5-1.41-.98-.93-1.88l-.17.2c-.32.41-.62.77-.82 1.1l-.24-.16-.47-.32c-1.55-1.06-1.45-1.93-.45-3.28C7.21 3.34 7.82 2.62 8.5 2c-.83 1.78.49 2.63 1.68 3.4.54.35 1.05.68 1.34 1.08z" fill="#FCAE16"/></svg>