<!-- by TradingView --><svg width="18" height="18" viewBox="0 0 18 18" xmlns="http://www.w3.org/2000/svg"><path fill="#F0F3FA" d="M0 0h18v18H0z"/><path d="M6.38 6.02c1.17.11 2.1.63 2.78 1.56.61.82.72 1.85 1.3 2.7.7 1.03 1.85 1.17 2.99.87a2.77 2.77 0 0 0 1.41-.85h.02l.01.02v.02c-.72 1.78-3.18 2.2-4.51.91a4.55 4.55 0 0 1-1.12-1.78c-.23-.62-.44-1.14-.64-1.54a2.68 2.68 0 0 0-3.04-1.47c-1.21.23-1.9 1.32-1.9 2.56.04 2.33 2.33 3.07 4.15 2.26h.01l.01.01v.02c-1.58 1.22-4.22.81-4.96-1.24a3.12 3.12 0 0 1-.1-1.8c.39-1.68 1.99-2.4 3.6-2.25Zm-.5.65c1-.07 1.76.26 2.3 1 .35.46.54 1.07.77 1.7.4 1.03.92 1.99 1.94 2.47v.03h-.01a3.26 3.26 0 0 1-2.37-1.69C8.2 9.6 8 8.63 7.67 8.07 7.08 7.06 6.22 6.7 5.1 7c-.1.03-.26.13-.34.14h-.01l-.01-.01V7.1c.34-.27.72-.41 1.16-.44Zm2.03 2.7.01.01a4.68 4.68 0 0 0 .53 1.22l-.01.03a3.04 3.04 0 0 1-2.65.64v-.03h.02c1.07-.11 1.95-.76 2.06-1.86l.01-.01h.03Zm5.16-3.14c.62 0 1.33.5 1.67.97 1.06 1.5.37 3.3-1.36 3.7h-.02l-.01-.02v-.01l.28-.25c.99-.9.77-3.1-.11-4.03-.15-.15-.29-.22-.45-.32l-.01-.01a.02.02 0 0 1 0-.03h.01Zm2.12 1.14.67.24a.21.21 0 0 1 .14.21l-.07 1.21a.2.2 0 0 1-.06.14.19.19 0 0 1-.14.04h-.17l-.05-.02a.14.14 0 0 1-.07-.1v-.05a2.45 2.45 0 0 0-.3-1.63v-.02l.03-.02h.02Zm-12.32 0 .02.01a.04.04 0 0 1 0 .05 2.5 2.5 0 0 0-.4 1.67.14.14 0 0 1-.07.1.14.14 0 0 1-.06 0H2.2a.2.2 0 0 1-.13-.05A.2.2 0 0 1 2 9V7.78c0-.05.01-.1.04-.14a.21.21 0 0 1 .12-.07l.68-.2h.03Zm6.33-.2c1.28-1.32 3.37-1.8 4.48.04a1.86 1.86 0 0 1 .2.48l-.02.02h-.03l-.21-.22a2.12 2.12 0 0 0-2.38-.38 2.16 2.16 0 0 0-1.18 1.67h-.04v-.02a4.26 4.26 0 0 0-.83-1.56l.01-.04ZM10.27 6v.04A4.57 4.57 0 0 0 9 6.9l-.05-.02a3.42 3.42 0 0 0-1.25-.84v-.03L7.72 6h2.54Z" fill="#010140"/></svg>