<!-- by TradingView --><svg width="56" height="56" viewBox="0 0 56 56" xmlns="http://www.w3.org/2000/svg"><path fill="#F0F3FA" d="M0 0h56v56H0z"/><path d="M16.5 23h-1v.76h-.75v.98h.76v.76h.98v-.76h.76v-.98h-.76V23Z" fill="#FF8D00"/><path fill-rule="evenodd" d="M4 23v9h6.48c1.17.01 3.52-.5 3.52-2.63 0-1.53-1.88-2.04-2.82-2.1.76-.02 2.29-.48 2.29-2.22 0-1.44-1.88-2.05-3-2.05H4Zm2 1.45h3.63c.6 0 1.37.32 1.37 1.1 0 .79-.78 1.1-1.37 1.1H6v-2.2ZM6 28h3.63c.6 0 1.37.36 1.37 1.25s-.78 1.25-1.37 1.25H6V28Zm9-2h2v6h-2v-6Zm6-3h-2v9h2v-9Zm8 6.8c-.51.67-1.46.95-2.55.95-1.63 0-2.95-.65-2.95-2.25s1.32-2.25 2.95-2.25c1.09 0 2.04.28 2.55.95v-1.82a7.95 7.95 0 0 0-2.58-.38c-2.72 0-4.92 1-4.92 3.5s2.2 3.5 4.92 3.5c.95 0 1.83-.12 2.58-.38V29.8Zm2.17-2.87v-1.55c.46-.13 1.79-.38 3.37-.38C37.4 25 38 26.21 38 27.08V32h-2v-.67c-.46.22-1.98.67-3.35.67-2.25 0-2.7-1.24-2.63-1.86 0-2.18 4.07-2.5 5.98-2.37v-.6c.06-.32-.41-.96-1.84-.96-1.43 0-2.6.48-3 .72ZM36 30.2v-1.5h-1.56c-1.99 0-2.45.8-2.44 1.21 0 .3.26.88 1.3.88 1.18 0 2.29-.4 2.7-.6Zm3-3.47V32h2v-4.78c0-1.11 2.14-1.05 3-.88v-1.19c-.17-.05-1.1-.15-1.87-.15-2.46 0-3.11 1.15-3.13 1.73ZM51.99 29h-6.4c0 1.23 1.35 1.77 3 1.77 1.32 0 2.74-.4 3.28-.59v1.33c-.5.16-1.87.49-3.37.49-4.35 0-5-2.77-5-3.46 0-.7.37-3.54 4.59-3.54 3.37 0 4 2.76 3.9 4Zm-2.03-1h-4.32a2.2 2.2 0 0 1 2.26-1.7c1.54 0 2.01 1.13 2.06 1.7Z" fill="#007AC8"/></svg>