<!-- by TradingView --><svg width="18" height="18" viewBox="0 0 18 18" xmlns="http://www.w3.org/2000/svg"><path fill="#F0F3FA" d="M0 0h18v18H0z"/><path d="M9 4c2.9 0 5 2.03 5 4.97a4.8 4.8 0 0 1-1.25 3.17c.34.25.85.3 1.25.3V14c-1.04 0-1.84-.25-2.38-.74-.9.57-1.9.74-2.94.74C5.88 14 4 11.6 4 8.92 4 6.18 6.2 4 9 4Zm2.5 6.88c.6-.43.94-1.18.94-1.85A3.38 3.38 0 0 0 9 5.56 3.41 3.41 0 0 0 5.56 9.1v.4a6.75 6.75 0 0 1 5.94 1.38Zm-5.31 0c.38.9 1.8 1.56 2.72 1.56a5 5 0 0 0 1.65-.48 6.34 6.34 0 0 0-3.48-1.26c-.28 0-.62.08-.9.18Z" fill="#E2001A"/></svg>