<!-- by TradingView --><svg width="56" height="56" viewBox="0 0 56 56" xmlns="http://www.w3.org/2000/svg"><path fill="#ED1C24" d="M0 0h56v56H0z"/><path d="M28 12c10.58 0 19 7.2 19 16s-8.6 16-19 16C17.42 44 9 36.8 9 28s8.42-16 19-16Z" fill="#013976"/><path d="M43 30h-2s-1.6 2-5.02 2c-7.93 0-7.39-13-15.13-13-7.03 0-6.85 9-6.85 9h2s0-4 4.84-4c8.11 0 9.01 13 15.14 13 5.58 0 7.02-7 7.02-7Z" fill="#FEFEFE"/><path d="M26 16.45 30 15v24.36L26 41V16.45Z" fill="#ED1B24"/><path d="M41 27h2s-1.43-7-7.52-7C29.4 20 25.1 32 19.91 32 16 32 16 28 16 28h-2s0 9 7.52 9c6.98 0 10.2-11.97 15.57-11.97C39.42 24.86 41 27 41 27Z" fill="#FEFEFE"/></svg>