<!-- by TradingView --><svg width="56" height="56" viewBox="0 0 56 56" xmlns="http://www.w3.org/2000/svg"><path fill="#F0F3FA" d="M0 0h56v56H0z"/><path d="M14.5 37h1.82v-2.4h-1.76c-3.4 0-6.16-2.92-6.16-6.53 0-3.6 2.76-6.52 6.16-6.52h1.56V19h-1.63C9.8 19 6 23.03 6 28s3.8 9 8.5 9Z" fill="#3684B7"/><path fill-rule="evenodd" d="M16 19v18h2.5V23.97L26.2 37h2.3v-.83c.76.41 2.02.8 3.92.8A6.98 6.98 0 0 0 38 34.4V37h3.96C46.4 37 50 33.18 50 28.46v-.92c0-4.72-3.6-8.54-8.04-8.54H38v3.6a6.24 6.24 0 0 0-5.94-3.6c-4.3 0-5.88 2.9-6.05 4.44H26v8.84L18.05 19H16Zm22 6h-2c0-2.96-2.02-4-3.94-4-1.47 0-3.44.95-3.44 2.54 0 2.25 2.37 2.87 5.24 3.62l.27.08c1.72.45 3.05 1.1 3.87 2.03V25Zm-5.58 9.68c-2 0-3.34-.82-3.92-1.38v-5.56c.64.42 1.42.77 2.37.99 4.72 1.06 5.23 2.34 5.23 3.49 0 1.15-.82 2.46-3.68 2.46ZM40.5 21.5v13h1.17c3.22 0 5.83-2.91 5.83-6.5s-2.61-6.5-5.83-6.5H40.5Z" fill="#0E4778"/></svg>