<!-- by TradingView --><svg width="56" height="56" viewBox="0 0 56 56" xmlns="http://www.w3.org/2000/svg"><path fill="#F0F3FA" d="M0 0h56v56H0z"/><path d="M13.73 27.78a1236.05 1236.05 0 0 1-1.14 5.74c-.12.65-.61 1.13-1.47 1.45l-.07.03H6.14l-.06-.03a.14.14 0 0 1-.08-.15l.7-3.66c0-.04.02-.08.05-.1.04-.03.08-.06.12-.06h1.52c.04 0 .08 0 .11-.02a.17.17 0 0 0 .06-.1l1.7-9.7a.18.18 0 0 1 .16-.15c1.73-.14 3.57.27 4.78 1.55.42.44.77 1.1 1.06 1.94a147.88 147.88 0 0 0 1.35 3.7.06.06 0 0 0 .08 0l.01-.04.9-5.09c.24-1.4.77-2.06 2.25-2.09H33.1c1.63.07 2.53.17 2.95 1.58.2.65.03 1.3-.1 1.98l-1.22 7a4.68 4.68 0 0 1-.76 2.14c-.89 1-1.74 1.3-3.25 1.3h-8.34c-.02 0-.04-.02-.05-.03a.12.12 0 0 1-.07-.07v-.05l1.83-9.77a.07.07 0 0 0-.02-.06.07.07 0 0 0-.05-.02h-1.1c-.01 0-.03 0-.05.02a.09.09 0 0 0-.03.05l-1.82 9.74c0 .04-.03.07-.05.1a.19.19 0 0 1-.11.05c-1.67.15-3.41-.15-4.62-1.3a6.1 6.1 0 0 1-1.21-2.28l-1.3-3.6ZM28.02 31h1.32a.8.8 0 0 0 .78-.65l.91-4.6a.63.63 0 0 0-.36-.69.65.65 0 0 0-.27-.06h-1.1a.5.5 0 0 0-.5.41l-1.03 5.29a.25.25 0 0 0 .14.27c.03.02.07.03.1.03ZM50 21.2l-.63 3.67c0 .04-.03.07-.06.1a.17.17 0 0 1-.1.03h-5.46c-1.2 0-1.98-.08-2.13 1.22 0 .04-.28 1.86-.61 3.73-.1.52-.02 1.05.61 1.05h6.58l.04.02a.1.1 0 0 1 .06.08.1.1 0 0 1 0 .04l-.75 3.76c0 .02-.02.05-.04.06-.02.02-.04.04-.07.04h-8.46c-1.2.02-1.96-.09-2.29-.32a2.41 2.41 0 0 1-1.02-2.17c.03-.15.48-2.67 1.33-7.56.25-1.37.5-2.22.77-2.55.88-1.05 1.67-1.4 3.2-1.4h8.87l.07.02a.16.16 0 0 1 .08.1c.01.03.01.05 0 .07Z" fill="#0068B7"/></svg>