<!-- by TradingView --><svg width="18" height="18" viewBox="0 0 18 18" xmlns="http://www.w3.org/2000/svg"><path fill="#0187CE" d="M0 0h18v18H0z"/><path d="M9 4a2 2 0 0 1 .17 4l-.01-.02v-1.5c0-.05.01-.07.05-.1.41-.23.22-.82-.2-.82-.44 0-.63.59-.22.82.04.03.06.05.06.1a693 693 0 0 0-.02 1.51H8.8A2 2 0 0 1 9 4Z" fill="#fff"/><path d="M6 8.56c-.43 0-.62.59-.21.82.04.03.06.05.06.1A670.24 670.24 0 0 0 5.83 11h-.01A2 2 0 0 1 6 7a2 2 0 0 1 .17 4v-.02a811.27 811.27 0 0 0 0-1.5c-.02-.05 0-.07.04-.1.41-.23.22-.82-.21-.82ZM12 8.56c-.43 0-.62.59-.21.82.04.03.06.05.06.1a901.67 901.67 0 0 0-.02 1.52h-.01A2 2 0 1 1 14 9a2.02 2.02 0 0 1-1.83 2v-.02a900.89 900.89 0 0 0 0-1.5c-.02-.05 0-.07.04-.1.41-.23.22-.82-.21-.82ZM9.03 10h.02v.02a6.9 6.9 0 0 0 .58 2.27c.28.6.69 1.12 1.22 1.55l.14.1.01.01v.03h-.02l-.18.02a1191.41 1191.41 0 0 1-3.79-.02v-.02a4.96 4.96 0 0 0 1.87-3.28 16.02 16.02 0 0 1 .15-.68Z" fill="#fff"/></svg>