<!-- by TradingView --><svg width="56" height="56" viewBox="0 0 56 56" xmlns="http://www.w3.org/2000/svg"><path fill="#0187CE" d="M0 0h56v56H0z"/><path d="M28.01 12a6.52 6.52 0 0 1 .53 12.98.07.07 0 0 1-.03-.04 2504.67 2504.67 0 0 0-.01-4.9c0-.16.06-.22.2-.3 1.32-.75.71-2.67-.7-2.67-1.4 0-2.02 1.91-.7 2.67.14.08.2.14.2.3a2216.22 2216.22 0 0 0-.03 4.9c0 .02-.01.03-.03.04a6.55 6.55 0 0 1-5.94-6.49c.01-3.68 3.04-6.5 6.51-6.49ZM20.5 29.07c-1.41 0-2.02 1.91-.7 2.68.14.07.2.13.2.3a2185.93 2185.93 0 0 0-.02 4.89c0 .02 0 .03-.02.04A6.55 6.55 0 0 1 14 30.5c0-3.68 3.02-6.5 6.5-6.5a6.51 6.51 0 0 1 .55 12.98.07.07 0 0 1-.02-.04 2662.05 2662.05 0 0 0-.02-4.9c0-.16.05-.22.19-.3 1.32-.76.7-2.67-.7-2.67ZM35.5 29.07c-1.41 0-2.02 1.91-.7 2.67.14.08.2.14.2.3a3252.23 3252.23 0 0 0-.02 4.9c0 .02-.01.03-.03.04A6.55 6.55 0 0 1 29 30.5c0-3.68 3.02-6.5 6.5-6.5a6.51 6.51 0 0 1 .55 12.98.07.07 0 0 1-.03-.04 2854.7 2854.7 0 0 0-.02-4.9c0-.16.06-.22.2-.3 1.32-.76.71-2.67-.7-2.67ZM28.03 32.38a.04.04 0 0 1 .04.04c-.01.41.03.93.14 1.56.28 1.67.6 3.03 1.2 4.47.64 1.6 1.57 2.98 2.79 4.12.1.1.24.19.33.27a.07.07 0 0 1 0 .1 2298.67 2298.67 0 0 1-8.84.05c-.12 0-.22 0-.29-.02l-.02-.02-.01-.02a.05.05 0 0 1 .01-.05c2.6-2.2 3.79-5.39 4.3-8.7A48.34 48.34 0 0 1 28 32.4h.03Z" fill="#fff"/></svg>