<!-- by TradingView --><svg width="18" height="18" viewBox="0 0 18 18" xmlns="http://www.w3.org/2000/svg"><path fill="#F0F3FA" d="M0 0h18v18H0z"/><path fill-rule="evenodd" d="M12.92 13a5.58 5.58 0 0 1-3.97 1.6l.5-1.6h3.47Zm.08-.08v-1.6l-2-1.27V7.98l2-1.1v-1.8a5.58 5.58 0 0 1 0 7.84ZM12.92 5H8.97V3.4H9c1.53 0 2.91.61 3.92 1.6ZM8.9 3.4A5.58 5.58 0 0 0 5.08 5h3.39l.43-1.6ZM5 5.08a5.58 5.58 0 0 0 0 7.84v-1.6l2-1.27V7.98l-2-1.1v-1.8ZM5.08 13a5.58 5.58 0 0 0 3.78 1.6V13H5.08ZM15 9A6 6 0 1 1 3 9a6 6 0 0 1 12 0ZM7.52 9h1.32V4L7.52 9Zm2.97 0H9v5.23L10.49 9Z" fill="#00448C"/></svg>