<!-- by TradingView --><svg width="18" height="18" viewBox="0 0 18 18" xmlns="http://www.w3.org/2000/svg"><path fill="#F0F3FA" d="M0 0h18v18H0z"/><path d="M8.86 13C12.25 13 15 11.2 15 9s-2.75-4-6.14-4C6.1 5 3.79 6.17 3 7.79l.55.28c.67-1.39 2.79-2.4 5.3-2.4 3.06 0 5.54 1.49 5.54 3.33s-2.48 3.33-5.53 3.33c-1.11 0-2.15-.2-3.01-.53L8.25 6c-.78.12-1.34.22-1.52.26-.77 1.84-1.6 3.71-2.33 5.5A7.98 7.98 0 0 0 8.86 13Z" fill="#3950E5"/><path d="M10.23 10.3 8.6 6.33l-.68 1.7L9.52 12c.72-.09 1.3-.23 1.5-.29l1.83-4.61a6.08 6.08 0 0 0-1.1-.67l-1.52 3.87Z" fill="#3950E5"/></svg>