<!-- by TradingView --><svg width="18" height="18" viewBox="0 0 18 18" xmlns="http://www.w3.org/2000/svg"><path fill="#F0F3FA" d="M0 0h18v18H0z"/><path d="M8.2 12.36h4.5c.13 0 .3.02.3-.1V7.6c0-.19-.1-.33-.27-.43L9.08 5.1a.18.18 0 0 0-.2 0L5.32 7.2c-.15.09-.31.21-.31.38v5.28c0 .1.03.14-.08.14h-.77c-.1 0-.15-.04-.15-.13V6.98c0-.13.06-.23.19-.3 1.43-.71 2.96-1.59 4.57-2.61.15-.1.3-.1.44 0 1.53.98 3.07 1.86 4.62 2.66.12.06.18.15.18.27v5.88c0 .06-.04.12-.11.12l-6.77-.02c-.07 0-.12-.04-.12-.1V7.69c0-.08.06-.12.15-.12h.88c.08 0 .14-.04.17-.11.13-.29.63-.37 1.04-.25.06.02.1.05.15.1l.14.1c.06.06.35.15.44.15h.87c.11 0 .16.05.16.16v3.78c0 .14-.07.21-.22.21h-.65c-.15 0-.13-.07-.13-.2V8.28c0-.1-.13-.11-.24-.11H8.2c-.12 0-.2.01-.2.12v3.9c0 .1.09.16.2.16Z" fill="#0191CE"/></svg>