<!-- by TradingView --><svg width="18" height="18" viewBox="0 0 18 18" xmlns="http://www.w3.org/2000/svg"><path fill="#F0F3FA" d="M0 0h18v18H0z"/><path d="M5.56 6.22a.78.78 0 0 1-1.56 0V5h.47v1.19a.31.31 0 0 0 .62 0V5h.47v1.22ZM5.5 8.44H5V10h-.5V8.44H4V8h1.5v.44ZM4.46 11H5v2h-.54v-2Z" fill="#2475A4"/><path d="M11.67 7.6v2.73l1 1.08V6.59l-1 1Z" fill="#7DAED7"/><path d="M7.16 6.36v5.28L6 12.88V5.12l1.16 1.24ZM8.35 7.5v3l-1.02.97V6.53l1.02.97Z" fill="#245E7D"/><path d="M12.84 6.36v5.28L14 12.88V5.12l-1.16 1.24Z" fill="#7DAED7"/><path d="M7.16 6.34v5.33L6 12.87V5.13l1.16 1.22ZM8.35 7.5v3l-1.02.97V6.53l1.02.97Z" fill="#245E7D"/><path d="M12.84 6.33v5.35l1.16 1.2V5.12l-1.16 1.21ZM11.67 7.5v3l1 .97V6.53l-1 .97Z" fill="#7DAED7"/><path d="M7.34 11.84h5.33l1.2 1.16H6.13l1.22-1.16ZM8.5 10.65h3l.97 1.02H7.53l.97-1.02Z" fill="#245E7D"/><path d="M7.33 6.16h5.35L13.88 5H6.12l1.21 1.16ZM8.5 7.33h3l.97-1H7.53l.97 1Z" fill="#7DAED7"/><path d="M11.34 10.32H8.67V7.67h2.67v2.65ZM10.32 8c-.3 0-.42.26-.42.53V9.6c0 .08-.09.17-.19.17a.2.2 0 0 1-.12-.04c-.05-.04-.1-.09-.16-.09-.07.01-.11.06-.09.12.06.14.2.23.37.23.23 0 .43-.2.42-.4V8.53c0-.15.02-.31.19-.31.06 0 .1.05.11.1.02.07.07.12.13.12.07 0 .12-.05.1-.11-.03-.17-.14-.33-.34-.33Z" fill="#2786C2"/></svg>